G04 (created by PCBNEW (2013-jul-07)-stable) date Tue 06 Dec 2016 12:22:59 PM PST*
%MOIN*%
G04 Gerber Fmt 3.4, Leading zero omitted, Abs format*
%FSLAX34Y34*%
G01*
G70*
G90*
G04 APERTURE LIST*
%ADD10C,0.00590551*%
%ADD11C,0.008*%
%ADD12C,0.012*%
%ADD13C,0.004*%
%ADD14C,0.001*%
G04 APERTURE END LIST*
G54D10*
G54D11*
X31833Y-35002D02*
X31776Y-35021D01*
X31757Y-35040D01*
X31738Y-35078D01*
X31738Y-35135D01*
X31757Y-35173D01*
X31776Y-35192D01*
X31814Y-35211D01*
X31966Y-35211D01*
X31966Y-34811D01*
X31833Y-34811D01*
X31795Y-34830D01*
X31776Y-34850D01*
X31757Y-34888D01*
X31757Y-34926D01*
X31776Y-34964D01*
X31795Y-34983D01*
X31833Y-35002D01*
X31966Y-35002D01*
X31490Y-34811D02*
X31414Y-34811D01*
X31376Y-34830D01*
X31338Y-34869D01*
X31319Y-34945D01*
X31319Y-35078D01*
X31338Y-35154D01*
X31376Y-35192D01*
X31414Y-35211D01*
X31490Y-35211D01*
X31528Y-35192D01*
X31566Y-35154D01*
X31585Y-35078D01*
X31585Y-34945D01*
X31566Y-34869D01*
X31528Y-34830D01*
X31490Y-34811D01*
X31204Y-34811D02*
X30976Y-34811D01*
X31090Y-35211D02*
X31090Y-34811D01*
X32023Y-19911D02*
X31795Y-19911D01*
X31909Y-20311D02*
X31909Y-19911D01*
X31585Y-19911D02*
X31509Y-19911D01*
X31471Y-19930D01*
X31433Y-19969D01*
X31414Y-20045D01*
X31414Y-20178D01*
X31433Y-20254D01*
X31471Y-20292D01*
X31509Y-20311D01*
X31585Y-20311D01*
X31623Y-20292D01*
X31661Y-20254D01*
X31680Y-20178D01*
X31680Y-20045D01*
X31661Y-19969D01*
X31623Y-19930D01*
X31585Y-19911D01*
X31242Y-20311D02*
X31242Y-19911D01*
X31090Y-19911D01*
X31052Y-19930D01*
X31033Y-19950D01*
X31014Y-19988D01*
X31014Y-20045D01*
X31033Y-20083D01*
X31052Y-20102D01*
X31090Y-20121D01*
X31242Y-20121D01*
X24495Y-20642D02*
X24761Y-20642D01*
X24342Y-20547D02*
X24628Y-20451D01*
X24628Y-20699D01*
X24609Y-20851D02*
X24609Y-21156D01*
X24761Y-21347D02*
X24361Y-21347D01*
X24647Y-21480D01*
X24361Y-21613D01*
X24761Y-21613D01*
X24761Y-21975D02*
X24552Y-21975D01*
X24514Y-21956D01*
X24495Y-21918D01*
X24495Y-21842D01*
X24514Y-21804D01*
X24742Y-21975D02*
X24761Y-21937D01*
X24761Y-21842D01*
X24742Y-21804D01*
X24704Y-21785D01*
X24666Y-21785D01*
X24628Y-21804D01*
X24609Y-21842D01*
X24609Y-21937D01*
X24590Y-21975D01*
X24495Y-22109D02*
X24495Y-22261D01*
X24361Y-22166D02*
X24704Y-22166D01*
X24742Y-22185D01*
X24761Y-22223D01*
X24761Y-22261D01*
X24761Y-22394D02*
X24495Y-22394D01*
X24571Y-22394D02*
X24533Y-22413D01*
X24514Y-22432D01*
X24495Y-22470D01*
X24495Y-22509D01*
X24761Y-22642D02*
X24495Y-22642D01*
X24361Y-22642D02*
X24380Y-22623D01*
X24400Y-22642D01*
X24380Y-22661D01*
X24361Y-22642D01*
X24400Y-22642D01*
X24761Y-22794D02*
X24495Y-23004D01*
X24495Y-22794D02*
X24761Y-23004D01*
X24647Y-23442D02*
X24647Y-23632D01*
X24761Y-23404D02*
X24361Y-23537D01*
X24761Y-23670D01*
X24495Y-23747D02*
X24495Y-23899D01*
X24361Y-23804D02*
X24704Y-23804D01*
X24742Y-23823D01*
X24761Y-23861D01*
X24761Y-23899D01*
X24761Y-24032D02*
X24495Y-24032D01*
X24533Y-24032D02*
X24514Y-24051D01*
X24495Y-24090D01*
X24495Y-24147D01*
X24514Y-24185D01*
X24552Y-24204D01*
X24761Y-24204D01*
X24552Y-24204D02*
X24514Y-24223D01*
X24495Y-24261D01*
X24495Y-24318D01*
X24514Y-24356D01*
X24552Y-24375D01*
X24761Y-24375D01*
X24742Y-24718D02*
X24761Y-24680D01*
X24761Y-24604D01*
X24742Y-24566D01*
X24704Y-24547D01*
X24552Y-24547D01*
X24514Y-24566D01*
X24495Y-24604D01*
X24495Y-24680D01*
X24514Y-24718D01*
X24552Y-24737D01*
X24590Y-24737D01*
X24628Y-24547D01*
X24495Y-25080D02*
X24819Y-25080D01*
X24857Y-25061D01*
X24876Y-25042D01*
X24895Y-25004D01*
X24895Y-24947D01*
X24876Y-24909D01*
X24742Y-25080D02*
X24761Y-25042D01*
X24761Y-24966D01*
X24742Y-24928D01*
X24723Y-24909D01*
X24685Y-24890D01*
X24571Y-24890D01*
X24533Y-24909D01*
X24514Y-24928D01*
X24495Y-24966D01*
X24495Y-25042D01*
X24514Y-25080D01*
X24761Y-25442D02*
X24552Y-25442D01*
X24514Y-25423D01*
X24495Y-25385D01*
X24495Y-25309D01*
X24514Y-25270D01*
X24742Y-25442D02*
X24761Y-25404D01*
X24761Y-25309D01*
X24742Y-25270D01*
X24704Y-25251D01*
X24666Y-25251D01*
X24628Y-25270D01*
X24609Y-25309D01*
X24609Y-25404D01*
X24590Y-25442D01*
X24361Y-25594D02*
X24361Y-25842D01*
X24514Y-25709D01*
X24514Y-25766D01*
X24533Y-25804D01*
X24552Y-25823D01*
X24590Y-25842D01*
X24685Y-25842D01*
X24723Y-25823D01*
X24742Y-25804D01*
X24761Y-25766D01*
X24761Y-25651D01*
X24742Y-25613D01*
X24723Y-25594D01*
X24400Y-25994D02*
X24380Y-26013D01*
X24361Y-26051D01*
X24361Y-26147D01*
X24380Y-26185D01*
X24400Y-26204D01*
X24438Y-26223D01*
X24476Y-26223D01*
X24533Y-26204D01*
X24761Y-25975D01*
X24761Y-26223D01*
X24533Y-26451D02*
X24514Y-26413D01*
X24495Y-26394D01*
X24457Y-26375D01*
X24438Y-26375D01*
X24400Y-26394D01*
X24380Y-26413D01*
X24361Y-26451D01*
X24361Y-26528D01*
X24380Y-26566D01*
X24400Y-26585D01*
X24438Y-26604D01*
X24457Y-26604D01*
X24495Y-26585D01*
X24514Y-26566D01*
X24533Y-26528D01*
X24533Y-26451D01*
X24552Y-26413D01*
X24571Y-26394D01*
X24609Y-26375D01*
X24685Y-26375D01*
X24723Y-26394D01*
X24742Y-26413D01*
X24761Y-26451D01*
X24761Y-26528D01*
X24742Y-26566D01*
X24723Y-26585D01*
X24685Y-26604D01*
X24609Y-26604D01*
X24571Y-26585D01*
X24552Y-26566D01*
X24533Y-26528D01*
X24761Y-27080D02*
X24361Y-27080D01*
X24361Y-27175D01*
X24380Y-27232D01*
X24419Y-27270D01*
X24457Y-27290D01*
X24533Y-27309D01*
X24590Y-27309D01*
X24666Y-27290D01*
X24704Y-27270D01*
X24742Y-27232D01*
X24761Y-27175D01*
X24761Y-27080D01*
X24761Y-27480D02*
X24495Y-27480D01*
X24571Y-27480D02*
X24533Y-27499D01*
X24514Y-27518D01*
X24495Y-27556D01*
X24495Y-27594D01*
X24761Y-27728D02*
X24495Y-27728D01*
X24361Y-27728D02*
X24380Y-27709D01*
X24400Y-27728D01*
X24380Y-27747D01*
X24361Y-27728D01*
X24400Y-27728D01*
X24495Y-27880D02*
X24761Y-27975D01*
X24495Y-28070D01*
X24742Y-28375D02*
X24761Y-28337D01*
X24761Y-28261D01*
X24742Y-28223D01*
X24704Y-28204D01*
X24552Y-28204D01*
X24514Y-28223D01*
X24495Y-28261D01*
X24495Y-28337D01*
X24514Y-28375D01*
X24552Y-28394D01*
X24590Y-28394D01*
X24628Y-28204D01*
X24761Y-28566D02*
X24495Y-28566D01*
X24571Y-28566D02*
X24533Y-28585D01*
X24514Y-28604D01*
X24495Y-28642D01*
X24495Y-28680D01*
X24361Y-29061D02*
X24761Y-29194D01*
X24361Y-29328D01*
X24361Y-29537D02*
X24361Y-29575D01*
X24380Y-29613D01*
X24400Y-29632D01*
X24438Y-29651D01*
X24514Y-29670D01*
X24609Y-29670D01*
X24685Y-29651D01*
X24723Y-29632D01*
X24742Y-29613D01*
X24761Y-29575D01*
X24761Y-29537D01*
X24742Y-29499D01*
X24723Y-29480D01*
X24685Y-29461D01*
X24609Y-29442D01*
X24514Y-29442D01*
X24438Y-29461D01*
X24400Y-29480D01*
X24380Y-29499D01*
X24361Y-29537D01*
X24723Y-29842D02*
X24742Y-29861D01*
X24761Y-29842D01*
X24742Y-29823D01*
X24723Y-29842D01*
X24761Y-29842D01*
X24495Y-30204D02*
X24761Y-30204D01*
X24342Y-30109D02*
X24628Y-30013D01*
X24628Y-30261D01*
X24761Y-30947D02*
X24571Y-30813D01*
X24761Y-30718D02*
X24361Y-30718D01*
X24361Y-30870D01*
X24380Y-30909D01*
X24400Y-30928D01*
X24438Y-30947D01*
X24495Y-30947D01*
X24533Y-30928D01*
X24552Y-30909D01*
X24571Y-30870D01*
X24571Y-30718D01*
X24400Y-31099D02*
X24380Y-31118D01*
X24361Y-31156D01*
X24361Y-31251D01*
X24380Y-31289D01*
X24400Y-31309D01*
X24438Y-31328D01*
X24476Y-31328D01*
X24533Y-31309D01*
X24761Y-31080D01*
X24761Y-31328D01*
X25135Y-23394D02*
X25401Y-23470D01*
X25211Y-23547D01*
X25401Y-23623D01*
X25135Y-23699D01*
X25135Y-23813D02*
X25401Y-23890D01*
X25211Y-23966D01*
X25401Y-24042D01*
X25135Y-24118D01*
X25135Y-24232D02*
X25401Y-24309D01*
X25211Y-24385D01*
X25401Y-24461D01*
X25135Y-24537D01*
X25363Y-24690D02*
X25382Y-24709D01*
X25401Y-24690D01*
X25382Y-24670D01*
X25363Y-24690D01*
X25401Y-24690D01*
X25401Y-24880D02*
X25135Y-24880D01*
X25001Y-24880D02*
X25020Y-24861D01*
X25040Y-24880D01*
X25020Y-24899D01*
X25001Y-24880D01*
X25040Y-24880D01*
X25401Y-25128D02*
X25382Y-25090D01*
X25363Y-25070D01*
X25325Y-25051D01*
X25211Y-25051D01*
X25173Y-25070D01*
X25154Y-25090D01*
X25135Y-25128D01*
X25135Y-25185D01*
X25154Y-25223D01*
X25173Y-25242D01*
X25211Y-25261D01*
X25325Y-25261D01*
X25363Y-25242D01*
X25382Y-25223D01*
X25401Y-25185D01*
X25401Y-25128D01*
X25401Y-25432D02*
X25135Y-25432D01*
X25211Y-25432D02*
X25173Y-25451D01*
X25154Y-25470D01*
X25135Y-25509D01*
X25135Y-25547D01*
X25401Y-25737D02*
X25382Y-25699D01*
X25363Y-25680D01*
X25325Y-25661D01*
X25211Y-25661D01*
X25173Y-25680D01*
X25154Y-25699D01*
X25135Y-25737D01*
X25135Y-25794D01*
X25154Y-25832D01*
X25173Y-25851D01*
X25211Y-25870D01*
X25325Y-25870D01*
X25363Y-25851D01*
X25382Y-25832D01*
X25401Y-25794D01*
X25401Y-25737D01*
X25401Y-26213D02*
X25001Y-26213D01*
X25382Y-26213D02*
X25401Y-26175D01*
X25401Y-26099D01*
X25382Y-26061D01*
X25363Y-26042D01*
X25325Y-26023D01*
X25211Y-26023D01*
X25173Y-26042D01*
X25154Y-26061D01*
X25135Y-26099D01*
X25135Y-26175D01*
X25154Y-26213D01*
X25382Y-26556D02*
X25401Y-26518D01*
X25401Y-26442D01*
X25382Y-26404D01*
X25344Y-26385D01*
X25192Y-26385D01*
X25154Y-26404D01*
X25135Y-26442D01*
X25135Y-26518D01*
X25154Y-26556D01*
X25192Y-26575D01*
X25230Y-26575D01*
X25268Y-26385D01*
X25401Y-26804D02*
X25382Y-26766D01*
X25363Y-26747D01*
X25325Y-26728D01*
X25211Y-26728D01*
X25173Y-26747D01*
X25154Y-26766D01*
X25135Y-26804D01*
X25135Y-26861D01*
X25154Y-26899D01*
X25173Y-26918D01*
X25211Y-26937D01*
X25325Y-26937D01*
X25363Y-26918D01*
X25382Y-26899D01*
X25401Y-26861D01*
X25401Y-26804D01*
X25363Y-27109D02*
X25382Y-27128D01*
X25401Y-27109D01*
X25382Y-27090D01*
X25363Y-27109D01*
X25401Y-27109D01*
X25382Y-27470D02*
X25401Y-27432D01*
X25401Y-27356D01*
X25382Y-27318D01*
X25363Y-27299D01*
X25325Y-27280D01*
X25211Y-27280D01*
X25173Y-27299D01*
X25154Y-27318D01*
X25135Y-27356D01*
X25135Y-27432D01*
X25154Y-27470D01*
X25401Y-27699D02*
X25382Y-27661D01*
X25363Y-27642D01*
X25325Y-27623D01*
X25211Y-27623D01*
X25173Y-27642D01*
X25154Y-27661D01*
X25135Y-27699D01*
X25135Y-27756D01*
X25154Y-27794D01*
X25173Y-27813D01*
X25211Y-27832D01*
X25325Y-27832D01*
X25363Y-27813D01*
X25382Y-27794D01*
X25401Y-27756D01*
X25401Y-27699D01*
X25401Y-28004D02*
X25135Y-28004D01*
X25173Y-28004D02*
X25154Y-28023D01*
X25135Y-28061D01*
X25135Y-28118D01*
X25154Y-28156D01*
X25192Y-28175D01*
X25401Y-28175D01*
X25192Y-28175D02*
X25154Y-28194D01*
X25135Y-28232D01*
X25135Y-28290D01*
X25154Y-28328D01*
X25192Y-28347D01*
X25401Y-28347D01*
G54D12*
X21244Y-26000D02*
X23244Y-26000D01*
X23244Y-26000D02*
X23244Y-24000D01*
X23244Y-24000D02*
X21244Y-24000D01*
X21244Y-24000D02*
X21244Y-26000D01*
X21244Y-32299D02*
X23244Y-32299D01*
X23244Y-32299D02*
X23244Y-30299D01*
X23244Y-30299D02*
X21244Y-30299D01*
X21244Y-30299D02*
X21244Y-32299D01*
X31874Y-26000D02*
X33874Y-26000D01*
X33874Y-26000D02*
X33874Y-24000D01*
X33874Y-24000D02*
X31874Y-24000D01*
X31874Y-24000D02*
X31874Y-26000D01*
X31874Y-32299D02*
X33874Y-32299D01*
X33874Y-32299D02*
X33874Y-30299D01*
X33874Y-30299D02*
X31874Y-30299D01*
X31874Y-30299D02*
X31874Y-32299D01*
G54D10*
X27732Y-21259D02*
G75*
G03X27732Y-21259I-55J0D01*
G74*
G01*
X27362Y-21771D02*
X27834Y-21771D01*
X27834Y-21771D02*
X27834Y-21141D01*
X27834Y-21141D02*
X27362Y-21141D01*
X27362Y-21141D02*
X27362Y-21771D01*
X29898Y-19921D02*
G75*
G03X29898Y-19921I-55J0D01*
G74*
G01*
X29527Y-20433D02*
X30000Y-20433D01*
X30000Y-20433D02*
X30000Y-19803D01*
X30000Y-19803D02*
X29527Y-19803D01*
X29527Y-19803D02*
X29527Y-20433D01*
X31276Y-33897D02*
G75*
G03X31276Y-33897I-55J0D01*
G74*
G01*
X30905Y-34409D02*
X31377Y-34409D01*
X31377Y-34409D02*
X31377Y-33779D01*
X31377Y-33779D02*
X30905Y-33779D01*
X30905Y-33779D02*
X30905Y-34409D01*
X33205Y-34724D02*
G75*
G03X33205Y-34724I-55J0D01*
G74*
G01*
X32834Y-35236D02*
X33307Y-35236D01*
X33307Y-35236D02*
X33307Y-34606D01*
X33307Y-34606D02*
X32834Y-34606D01*
X32834Y-34606D02*
X32834Y-35236D01*
X32890Y-33031D02*
G75*
G03X32890Y-33031I-55J0D01*
G74*
G01*
X32519Y-33543D02*
X32992Y-33543D01*
X32992Y-33543D02*
X32992Y-32913D01*
X32992Y-32913D02*
X32519Y-32913D01*
X32519Y-32913D02*
X32519Y-33543D01*
X33520Y-29488D02*
G75*
G03X33520Y-29488I-55J0D01*
G74*
G01*
X33149Y-30000D02*
X33622Y-30000D01*
X33622Y-30000D02*
X33622Y-29370D01*
X33622Y-29370D02*
X33149Y-29370D01*
X33149Y-29370D02*
X33149Y-30000D01*
X27693Y-31929D02*
G75*
G03X27693Y-31929I-55J0D01*
G74*
G01*
X27322Y-32440D02*
X27795Y-32440D01*
X27795Y-32440D02*
X27795Y-31811D01*
X27795Y-31811D02*
X27322Y-31811D01*
X27322Y-31811D02*
X27322Y-32440D01*
X27693Y-30551D02*
G75*
G03X27693Y-30551I-55J0D01*
G74*
G01*
X27322Y-31062D02*
X27795Y-31062D01*
X27795Y-31062D02*
X27795Y-30433D01*
X27795Y-30433D02*
X27322Y-30433D01*
X27322Y-30433D02*
X27322Y-31062D01*
X29780Y-26023D02*
G75*
G03X29780Y-26023I-55J0D01*
G74*
G01*
X29409Y-26535D02*
X29881Y-26535D01*
X29881Y-26535D02*
X29881Y-25905D01*
X29881Y-25905D02*
X29409Y-25905D01*
X29409Y-25905D02*
X29409Y-26535D01*
X33402Y-26496D02*
G75*
G03X33402Y-26496I-55J0D01*
G74*
G01*
X33031Y-27007D02*
X33503Y-27007D01*
X33503Y-27007D02*
X33503Y-26377D01*
X33503Y-26377D02*
X33031Y-26377D01*
X33031Y-26377D02*
X33031Y-27007D01*
X31197Y-26220D02*
G75*
G03X31197Y-26220I-55J0D01*
G74*
G01*
X30826Y-26732D02*
X31299Y-26732D01*
X31299Y-26732D02*
X31299Y-26102D01*
X31299Y-26102D02*
X30826Y-26102D01*
X30826Y-26102D02*
X30826Y-26732D01*
X33520Y-22992D02*
G75*
G03X33520Y-22992I-55J0D01*
G74*
G01*
X33149Y-23503D02*
X33622Y-23503D01*
X33622Y-23503D02*
X33622Y-22874D01*
X33622Y-22874D02*
X33149Y-22874D01*
X33149Y-22874D02*
X33149Y-23503D01*
X33244Y-19960D02*
G75*
G03X33244Y-19960I-55J0D01*
G74*
G01*
X32874Y-20472D02*
X33346Y-20472D01*
X33346Y-20472D02*
X33346Y-19842D01*
X33346Y-19842D02*
X32874Y-19842D01*
X32874Y-19842D02*
X32874Y-20472D01*
X27693Y-23503D02*
G75*
G03X27693Y-23503I-55J0D01*
G74*
G01*
X27322Y-24015D02*
X27795Y-24015D01*
X27795Y-24015D02*
X27795Y-23385D01*
X27795Y-23385D02*
X27322Y-23385D01*
X27322Y-23385D02*
X27322Y-24015D01*
X22378Y-19921D02*
G75*
G03X22378Y-19921I-55J0D01*
G74*
G01*
X22007Y-20433D02*
X22480Y-20433D01*
X22480Y-20433D02*
X22480Y-19803D01*
X22480Y-19803D02*
X22007Y-19803D01*
X22007Y-19803D02*
X22007Y-20433D01*
X27693Y-34606D02*
G75*
G03X27693Y-34606I-55J0D01*
G74*
G01*
X27322Y-35118D02*
X27795Y-35118D01*
X27795Y-35118D02*
X27795Y-34488D01*
X27795Y-34488D02*
X27322Y-34488D01*
X27322Y-34488D02*
X27322Y-35118D01*
X25685Y-32834D02*
G75*
G03X25685Y-32834I-55J0D01*
G74*
G01*
X25314Y-33346D02*
X25787Y-33346D01*
X25787Y-33346D02*
X25787Y-32716D01*
X25787Y-32716D02*
X25314Y-32716D01*
X25314Y-32716D02*
X25314Y-33346D01*
X27693Y-33228D02*
G75*
G03X27693Y-33228I-55J0D01*
G74*
G01*
X27322Y-33740D02*
X27795Y-33740D01*
X27795Y-33740D02*
X27795Y-33110D01*
X27795Y-33110D02*
X27322Y-33110D01*
X27322Y-33110D02*
X27322Y-33740D01*
X22142Y-32755D02*
G75*
G03X22142Y-32755I-55J0D01*
G74*
G01*
X21771Y-33267D02*
X22244Y-33267D01*
X22244Y-33267D02*
X22244Y-32637D01*
X22244Y-32637D02*
X21771Y-32637D01*
X21771Y-32637D02*
X21771Y-33267D01*
X23677Y-33700D02*
G75*
G03X23677Y-33700I-55J0D01*
G74*
G01*
X23307Y-34212D02*
X23779Y-34212D01*
X23779Y-34212D02*
X23779Y-33582D01*
X23779Y-33582D02*
X23307Y-33582D01*
X23307Y-33582D02*
X23307Y-34212D01*
X21827Y-27244D02*
G75*
G03X21827Y-27244I-55J0D01*
G74*
G01*
X21456Y-27755D02*
X21929Y-27755D01*
X21929Y-27755D02*
X21929Y-27125D01*
X21929Y-27125D02*
X21456Y-27125D01*
X21456Y-27125D02*
X21456Y-27755D01*
X27732Y-29055D02*
G75*
G03X27732Y-29055I-55J0D01*
G74*
G01*
X27362Y-29566D02*
X27834Y-29566D01*
X27834Y-29566D02*
X27834Y-28937D01*
X27834Y-28937D02*
X27362Y-28937D01*
X27362Y-28937D02*
X27362Y-29566D01*
X27693Y-27677D02*
G75*
G03X27693Y-27677I-55J0D01*
G74*
G01*
X27322Y-28188D02*
X27795Y-28188D01*
X27795Y-28188D02*
X27795Y-27559D01*
X27795Y-27559D02*
X27322Y-27559D01*
X27322Y-27559D02*
X27322Y-28188D01*
X27732Y-26456D02*
G75*
G03X27732Y-26456I-55J0D01*
G74*
G01*
X27362Y-26968D02*
X27834Y-26968D01*
X27834Y-26968D02*
X27834Y-26338D01*
X27834Y-26338D02*
X27362Y-26338D01*
X27362Y-26338D02*
X27362Y-26968D01*
X27732Y-24881D02*
G75*
G03X27732Y-24881I-55J0D01*
G74*
G01*
X27362Y-25393D02*
X27834Y-25393D01*
X27834Y-25393D02*
X27834Y-24763D01*
X27834Y-24763D02*
X27362Y-24763D01*
X27362Y-24763D02*
X27362Y-25393D01*
X21669Y-23149D02*
G75*
G03X21669Y-23149I-55J0D01*
G74*
G01*
X21929Y-22637D02*
X21456Y-22637D01*
X21456Y-22637D02*
X21456Y-23267D01*
X21456Y-23267D02*
X21929Y-23267D01*
X21929Y-23267D02*
X21929Y-22637D01*
X21866Y-21023D02*
G75*
G03X21866Y-21023I-55J0D01*
G74*
G01*
X21496Y-21535D02*
X21968Y-21535D01*
X21968Y-21535D02*
X21968Y-20905D01*
X21968Y-20905D02*
X21496Y-20905D01*
X21496Y-20905D02*
X21496Y-21535D01*
G54D11*
X22745Y-23861D02*
X22745Y-23461D01*
X22592Y-23461D01*
X22554Y-23480D01*
X22535Y-23500D01*
X22516Y-23538D01*
X22516Y-23595D01*
X22535Y-23633D01*
X22554Y-23652D01*
X22592Y-23671D01*
X22745Y-23671D01*
X22135Y-23861D02*
X22364Y-23861D01*
X22249Y-23861D02*
X22249Y-23461D01*
X22288Y-23519D01*
X22326Y-23557D01*
X22364Y-23576D01*
X22545Y-30161D02*
X22545Y-29761D01*
X22392Y-29761D01*
X22354Y-29780D01*
X22335Y-29800D01*
X22316Y-29838D01*
X22316Y-29895D01*
X22335Y-29933D01*
X22354Y-29952D01*
X22392Y-29971D01*
X22545Y-29971D01*
X22164Y-29800D02*
X22145Y-29780D01*
X22107Y-29761D01*
X22011Y-29761D01*
X21973Y-29780D01*
X21954Y-29800D01*
X21935Y-29838D01*
X21935Y-29876D01*
X21954Y-29933D01*
X22183Y-30161D01*
X21935Y-30161D01*
X32695Y-23871D02*
X32695Y-23471D01*
X32542Y-23471D01*
X32504Y-23490D01*
X32485Y-23510D01*
X32466Y-23548D01*
X32466Y-23605D01*
X32485Y-23643D01*
X32504Y-23662D01*
X32542Y-23681D01*
X32695Y-23681D01*
X32333Y-23471D02*
X32085Y-23471D01*
X32219Y-23624D01*
X32161Y-23624D01*
X32123Y-23643D01*
X32104Y-23662D01*
X32085Y-23700D01*
X32085Y-23795D01*
X32104Y-23833D01*
X32123Y-23852D01*
X32161Y-23871D01*
X32276Y-23871D01*
X32314Y-23852D01*
X32333Y-23833D01*
X32495Y-30161D02*
X32495Y-29761D01*
X32342Y-29761D01*
X32304Y-29780D01*
X32285Y-29800D01*
X32266Y-29838D01*
X32266Y-29895D01*
X32285Y-29933D01*
X32304Y-29952D01*
X32342Y-29971D01*
X32495Y-29971D01*
X31923Y-29895D02*
X31923Y-30161D01*
X32019Y-29742D02*
X32114Y-30028D01*
X31866Y-30028D01*
G54D13*
X27837Y-20850D02*
X27837Y-21012D01*
X27828Y-21031D01*
X27818Y-21041D01*
X27799Y-21050D01*
X27761Y-21050D01*
X27742Y-21041D01*
X27732Y-21031D01*
X27723Y-21012D01*
X27723Y-20850D01*
X27523Y-21050D02*
X27637Y-21050D01*
X27580Y-21050D02*
X27580Y-20850D01*
X27599Y-20879D01*
X27618Y-20898D01*
X27637Y-20908D01*
X27409Y-20936D02*
X27428Y-20927D01*
X27437Y-20917D01*
X27447Y-20898D01*
X27447Y-20889D01*
X27437Y-20870D01*
X27428Y-20860D01*
X27409Y-20850D01*
X27370Y-20850D01*
X27351Y-20860D01*
X27342Y-20870D01*
X27332Y-20889D01*
X27332Y-20898D01*
X27342Y-20917D01*
X27351Y-20927D01*
X27370Y-20936D01*
X27409Y-20936D01*
X27428Y-20946D01*
X27437Y-20955D01*
X27447Y-20974D01*
X27447Y-21012D01*
X27437Y-21031D01*
X27428Y-21041D01*
X27409Y-21050D01*
X27370Y-21050D01*
X27351Y-21041D01*
X27342Y-21031D01*
X27332Y-21012D01*
X27332Y-20974D01*
X27342Y-20955D01*
X27351Y-20946D01*
X27370Y-20936D01*
G54D14*
X27518Y-21247D02*
X27468Y-21247D01*
X27468Y-21259D01*
X27471Y-21266D01*
X27475Y-21270D01*
X27480Y-21273D01*
X27490Y-21275D01*
X27497Y-21275D01*
X27506Y-21273D01*
X27511Y-21270D01*
X27516Y-21266D01*
X27518Y-21259D01*
X27518Y-21247D01*
X27518Y-21297D02*
X27468Y-21297D01*
X27504Y-21313D01*
X27468Y-21330D01*
X27518Y-21330D01*
X27513Y-21382D02*
X27516Y-21380D01*
X27518Y-21373D01*
X27518Y-21368D01*
X27516Y-21361D01*
X27511Y-21356D01*
X27506Y-21354D01*
X27497Y-21351D01*
X27490Y-21351D01*
X27480Y-21354D01*
X27475Y-21356D01*
X27471Y-21361D01*
X27468Y-21368D01*
X27468Y-21373D01*
X27471Y-21380D01*
X27473Y-21382D01*
X27473Y-21401D02*
X27471Y-21404D01*
X27468Y-21409D01*
X27468Y-21420D01*
X27471Y-21425D01*
X27473Y-21428D01*
X27478Y-21430D01*
X27482Y-21430D01*
X27490Y-21428D01*
X27518Y-21399D01*
X27518Y-21430D01*
X27485Y-21473D02*
X27518Y-21473D01*
X27466Y-21461D02*
X27501Y-21449D01*
X27501Y-21480D01*
X27468Y-21509D02*
X27468Y-21513D01*
X27471Y-21518D01*
X27473Y-21520D01*
X27478Y-21523D01*
X27487Y-21525D01*
X27499Y-21525D01*
X27509Y-21523D01*
X27513Y-21520D01*
X27516Y-21518D01*
X27518Y-21513D01*
X27518Y-21509D01*
X27516Y-21504D01*
X27513Y-21501D01*
X27509Y-21499D01*
X27499Y-21497D01*
X27487Y-21497D01*
X27478Y-21499D01*
X27473Y-21501D01*
X27471Y-21504D01*
X27468Y-21509D01*
X27468Y-21556D02*
X27468Y-21561D01*
X27471Y-21566D01*
X27473Y-21568D01*
X27478Y-21570D01*
X27487Y-21573D01*
X27499Y-21573D01*
X27509Y-21570D01*
X27513Y-21568D01*
X27516Y-21566D01*
X27518Y-21561D01*
X27518Y-21556D01*
X27516Y-21551D01*
X27513Y-21549D01*
X27509Y-21547D01*
X27499Y-21544D01*
X27487Y-21544D01*
X27478Y-21547D01*
X27473Y-21549D01*
X27471Y-21551D01*
X27468Y-21556D01*
X27468Y-21594D02*
X27509Y-21594D01*
X27513Y-21597D01*
X27516Y-21599D01*
X27518Y-21604D01*
X27518Y-21613D01*
X27516Y-21618D01*
X27513Y-21620D01*
X27509Y-21623D01*
X27468Y-21623D01*
X27468Y-21640D02*
X27518Y-21656D01*
X27468Y-21673D01*
G54D13*
X29997Y-20530D02*
X29997Y-20692D01*
X29988Y-20711D01*
X29978Y-20721D01*
X29959Y-20730D01*
X29921Y-20730D01*
X29902Y-20721D01*
X29892Y-20711D01*
X29883Y-20692D01*
X29883Y-20530D01*
X29683Y-20730D02*
X29797Y-20730D01*
X29740Y-20730D02*
X29740Y-20530D01*
X29759Y-20559D01*
X29778Y-20578D01*
X29797Y-20588D01*
X29616Y-20530D02*
X29483Y-20530D01*
X29569Y-20730D01*
G54D14*
X29684Y-19908D02*
X29634Y-19908D01*
X29634Y-19920D01*
X29636Y-19927D01*
X29641Y-19932D01*
X29645Y-19934D01*
X29655Y-19937D01*
X29662Y-19937D01*
X29672Y-19934D01*
X29676Y-19932D01*
X29681Y-19927D01*
X29684Y-19920D01*
X29684Y-19908D01*
X29684Y-19958D02*
X29634Y-19958D01*
X29669Y-19975D01*
X29634Y-19991D01*
X29684Y-19991D01*
X29679Y-20044D02*
X29681Y-20041D01*
X29684Y-20034D01*
X29684Y-20030D01*
X29681Y-20022D01*
X29676Y-20018D01*
X29672Y-20015D01*
X29662Y-20013D01*
X29655Y-20013D01*
X29645Y-20015D01*
X29641Y-20018D01*
X29636Y-20022D01*
X29634Y-20030D01*
X29634Y-20034D01*
X29636Y-20041D01*
X29638Y-20044D01*
X29638Y-20063D02*
X29636Y-20065D01*
X29634Y-20070D01*
X29634Y-20082D01*
X29636Y-20087D01*
X29638Y-20089D01*
X29643Y-20091D01*
X29648Y-20091D01*
X29655Y-20089D01*
X29684Y-20060D01*
X29684Y-20091D01*
X29650Y-20134D02*
X29684Y-20134D01*
X29631Y-20122D02*
X29667Y-20110D01*
X29667Y-20141D01*
X29634Y-20170D02*
X29634Y-20175D01*
X29636Y-20180D01*
X29638Y-20182D01*
X29643Y-20184D01*
X29653Y-20187D01*
X29664Y-20187D01*
X29674Y-20184D01*
X29679Y-20182D01*
X29681Y-20180D01*
X29684Y-20175D01*
X29684Y-20170D01*
X29681Y-20165D01*
X29679Y-20163D01*
X29674Y-20160D01*
X29664Y-20158D01*
X29653Y-20158D01*
X29643Y-20160D01*
X29638Y-20163D01*
X29636Y-20165D01*
X29634Y-20170D01*
X29634Y-20218D02*
X29634Y-20222D01*
X29636Y-20227D01*
X29638Y-20230D01*
X29643Y-20232D01*
X29653Y-20234D01*
X29664Y-20234D01*
X29674Y-20232D01*
X29679Y-20230D01*
X29681Y-20227D01*
X29684Y-20222D01*
X29684Y-20218D01*
X29681Y-20213D01*
X29679Y-20210D01*
X29674Y-20208D01*
X29664Y-20206D01*
X29653Y-20206D01*
X29643Y-20208D01*
X29638Y-20210D01*
X29636Y-20213D01*
X29634Y-20218D01*
X29634Y-20256D02*
X29674Y-20256D01*
X29679Y-20258D01*
X29681Y-20260D01*
X29684Y-20265D01*
X29684Y-20275D01*
X29681Y-20280D01*
X29679Y-20282D01*
X29674Y-20284D01*
X29634Y-20284D01*
X29634Y-20301D02*
X29684Y-20318D01*
X29634Y-20334D01*
G54D13*
X31397Y-33430D02*
X31397Y-33592D01*
X31388Y-33611D01*
X31378Y-33621D01*
X31359Y-33630D01*
X31321Y-33630D01*
X31302Y-33621D01*
X31292Y-33611D01*
X31283Y-33592D01*
X31283Y-33430D01*
X31207Y-33430D02*
X31083Y-33430D01*
X31150Y-33507D01*
X31121Y-33507D01*
X31102Y-33516D01*
X31092Y-33526D01*
X31083Y-33545D01*
X31083Y-33592D01*
X31092Y-33611D01*
X31102Y-33621D01*
X31121Y-33630D01*
X31178Y-33630D01*
X31197Y-33621D01*
X31207Y-33611D01*
X31007Y-33450D02*
X30997Y-33440D01*
X30978Y-33430D01*
X30930Y-33430D01*
X30911Y-33440D01*
X30902Y-33450D01*
X30892Y-33469D01*
X30892Y-33488D01*
X30902Y-33516D01*
X31016Y-33630D01*
X30892Y-33630D01*
G54D14*
X31061Y-33884D02*
X31011Y-33884D01*
X31011Y-33896D01*
X31014Y-33904D01*
X31019Y-33908D01*
X31023Y-33911D01*
X31033Y-33913D01*
X31040Y-33913D01*
X31050Y-33911D01*
X31054Y-33908D01*
X31059Y-33904D01*
X31061Y-33896D01*
X31061Y-33884D01*
X31061Y-33934D02*
X31011Y-33934D01*
X31047Y-33951D01*
X31011Y-33968D01*
X31061Y-33968D01*
X31057Y-34020D02*
X31059Y-34018D01*
X31061Y-34011D01*
X31061Y-34006D01*
X31059Y-33999D01*
X31054Y-33994D01*
X31050Y-33992D01*
X31040Y-33989D01*
X31033Y-33989D01*
X31023Y-33992D01*
X31019Y-33994D01*
X31014Y-33999D01*
X31011Y-34006D01*
X31011Y-34011D01*
X31014Y-34018D01*
X31016Y-34020D01*
X31016Y-34039D02*
X31014Y-34042D01*
X31011Y-34046D01*
X31011Y-34058D01*
X31014Y-34063D01*
X31016Y-34065D01*
X31021Y-34068D01*
X31026Y-34068D01*
X31033Y-34065D01*
X31061Y-34037D01*
X31061Y-34068D01*
X31028Y-34111D02*
X31061Y-34111D01*
X31009Y-34099D02*
X31045Y-34087D01*
X31045Y-34118D01*
X31011Y-34146D02*
X31011Y-34151D01*
X31014Y-34156D01*
X31016Y-34158D01*
X31021Y-34161D01*
X31031Y-34163D01*
X31042Y-34163D01*
X31052Y-34161D01*
X31057Y-34158D01*
X31059Y-34156D01*
X31061Y-34151D01*
X31061Y-34146D01*
X31059Y-34142D01*
X31057Y-34139D01*
X31052Y-34137D01*
X31042Y-34134D01*
X31031Y-34134D01*
X31021Y-34137D01*
X31016Y-34139D01*
X31014Y-34142D01*
X31011Y-34146D01*
X31011Y-34194D02*
X31011Y-34199D01*
X31014Y-34204D01*
X31016Y-34206D01*
X31021Y-34208D01*
X31031Y-34211D01*
X31042Y-34211D01*
X31052Y-34208D01*
X31057Y-34206D01*
X31059Y-34204D01*
X31061Y-34199D01*
X31061Y-34194D01*
X31059Y-34189D01*
X31057Y-34187D01*
X31052Y-34184D01*
X31042Y-34182D01*
X31031Y-34182D01*
X31021Y-34184D01*
X31016Y-34187D01*
X31014Y-34189D01*
X31011Y-34194D01*
X31011Y-34232D02*
X31052Y-34232D01*
X31057Y-34234D01*
X31059Y-34237D01*
X31061Y-34242D01*
X31061Y-34251D01*
X31059Y-34256D01*
X31057Y-34258D01*
X31052Y-34261D01*
X31011Y-34261D01*
X31011Y-34277D02*
X31061Y-34294D01*
X31011Y-34311D01*
G54D13*
X33347Y-34330D02*
X33347Y-34492D01*
X33338Y-34511D01*
X33328Y-34521D01*
X33309Y-34530D01*
X33271Y-34530D01*
X33252Y-34521D01*
X33242Y-34511D01*
X33233Y-34492D01*
X33233Y-34330D01*
X33157Y-34330D02*
X33033Y-34330D01*
X33100Y-34407D01*
X33071Y-34407D01*
X33052Y-34416D01*
X33042Y-34426D01*
X33033Y-34445D01*
X33033Y-34492D01*
X33042Y-34511D01*
X33052Y-34521D01*
X33071Y-34530D01*
X33128Y-34530D01*
X33147Y-34521D01*
X33157Y-34511D01*
X32842Y-34530D02*
X32957Y-34530D01*
X32900Y-34530D02*
X32900Y-34330D01*
X32919Y-34359D01*
X32938Y-34378D01*
X32957Y-34388D01*
G54D14*
X32991Y-34711D02*
X32941Y-34711D01*
X32941Y-34723D01*
X32943Y-34730D01*
X32948Y-34735D01*
X32953Y-34737D01*
X32962Y-34740D01*
X32969Y-34740D01*
X32979Y-34737D01*
X32983Y-34735D01*
X32988Y-34730D01*
X32991Y-34723D01*
X32991Y-34711D01*
X32991Y-34761D02*
X32941Y-34761D01*
X32976Y-34778D01*
X32941Y-34795D01*
X32991Y-34795D01*
X32986Y-34847D02*
X32988Y-34845D01*
X32991Y-34837D01*
X32991Y-34833D01*
X32988Y-34826D01*
X32983Y-34821D01*
X32979Y-34818D01*
X32969Y-34816D01*
X32962Y-34816D01*
X32953Y-34818D01*
X32948Y-34821D01*
X32943Y-34826D01*
X32941Y-34833D01*
X32941Y-34837D01*
X32943Y-34845D01*
X32945Y-34847D01*
X32945Y-34866D02*
X32943Y-34868D01*
X32941Y-34873D01*
X32941Y-34885D01*
X32943Y-34890D01*
X32945Y-34892D01*
X32950Y-34895D01*
X32955Y-34895D01*
X32962Y-34892D01*
X32991Y-34864D01*
X32991Y-34895D01*
X32957Y-34937D02*
X32991Y-34937D01*
X32938Y-34926D02*
X32974Y-34914D01*
X32974Y-34945D01*
X32941Y-34973D02*
X32941Y-34978D01*
X32943Y-34983D01*
X32945Y-34985D01*
X32950Y-34987D01*
X32960Y-34990D01*
X32972Y-34990D01*
X32981Y-34987D01*
X32986Y-34985D01*
X32988Y-34983D01*
X32991Y-34978D01*
X32991Y-34973D01*
X32988Y-34968D01*
X32986Y-34966D01*
X32981Y-34964D01*
X32972Y-34961D01*
X32960Y-34961D01*
X32950Y-34964D01*
X32945Y-34966D01*
X32943Y-34968D01*
X32941Y-34973D01*
X32941Y-35021D02*
X32941Y-35026D01*
X32943Y-35030D01*
X32945Y-35033D01*
X32950Y-35035D01*
X32960Y-35037D01*
X32972Y-35037D01*
X32981Y-35035D01*
X32986Y-35033D01*
X32988Y-35030D01*
X32991Y-35026D01*
X32991Y-35021D01*
X32988Y-35016D01*
X32986Y-35014D01*
X32981Y-35011D01*
X32972Y-35009D01*
X32960Y-35009D01*
X32950Y-35011D01*
X32945Y-35014D01*
X32943Y-35016D01*
X32941Y-35021D01*
X32941Y-35059D02*
X32981Y-35059D01*
X32986Y-35061D01*
X32988Y-35064D01*
X32991Y-35068D01*
X32991Y-35078D01*
X32988Y-35083D01*
X32986Y-35085D01*
X32981Y-35087D01*
X32941Y-35087D01*
X32941Y-35104D02*
X32991Y-35121D01*
X32941Y-35137D01*
G54D13*
X32997Y-32630D02*
X32997Y-32792D01*
X32988Y-32811D01*
X32978Y-32821D01*
X32959Y-32830D01*
X32921Y-32830D01*
X32902Y-32821D01*
X32892Y-32811D01*
X32883Y-32792D01*
X32883Y-32630D01*
X32807Y-32630D02*
X32683Y-32630D01*
X32750Y-32707D01*
X32721Y-32707D01*
X32702Y-32716D01*
X32692Y-32726D01*
X32683Y-32745D01*
X32683Y-32792D01*
X32692Y-32811D01*
X32702Y-32821D01*
X32721Y-32830D01*
X32778Y-32830D01*
X32797Y-32821D01*
X32807Y-32811D01*
X32559Y-32630D02*
X32540Y-32630D01*
X32521Y-32640D01*
X32511Y-32650D01*
X32502Y-32669D01*
X32492Y-32707D01*
X32492Y-32754D01*
X32502Y-32792D01*
X32511Y-32811D01*
X32521Y-32821D01*
X32540Y-32830D01*
X32559Y-32830D01*
X32578Y-32821D01*
X32588Y-32811D01*
X32597Y-32792D01*
X32607Y-32754D01*
X32607Y-32707D01*
X32597Y-32669D01*
X32588Y-32650D01*
X32578Y-32640D01*
X32559Y-32630D01*
G54D14*
X32676Y-33018D02*
X32626Y-33018D01*
X32626Y-33030D01*
X32628Y-33037D01*
X32633Y-33042D01*
X32638Y-33045D01*
X32647Y-33047D01*
X32654Y-33047D01*
X32664Y-33045D01*
X32669Y-33042D01*
X32673Y-33037D01*
X32676Y-33030D01*
X32676Y-33018D01*
X32676Y-33068D02*
X32626Y-33068D01*
X32661Y-33085D01*
X32626Y-33102D01*
X32676Y-33102D01*
X32671Y-33154D02*
X32673Y-33152D01*
X32676Y-33145D01*
X32676Y-33140D01*
X32673Y-33133D01*
X32669Y-33128D01*
X32664Y-33125D01*
X32654Y-33123D01*
X32647Y-33123D01*
X32638Y-33125D01*
X32633Y-33128D01*
X32628Y-33133D01*
X32626Y-33140D01*
X32626Y-33145D01*
X32628Y-33152D01*
X32630Y-33154D01*
X32630Y-33173D02*
X32628Y-33175D01*
X32626Y-33180D01*
X32626Y-33192D01*
X32628Y-33197D01*
X32630Y-33199D01*
X32635Y-33202D01*
X32640Y-33202D01*
X32647Y-33199D01*
X32676Y-33171D01*
X32676Y-33202D01*
X32642Y-33245D02*
X32676Y-33245D01*
X32623Y-33233D02*
X32659Y-33221D01*
X32659Y-33252D01*
X32626Y-33280D02*
X32626Y-33285D01*
X32628Y-33290D01*
X32630Y-33292D01*
X32635Y-33295D01*
X32645Y-33297D01*
X32657Y-33297D01*
X32666Y-33295D01*
X32671Y-33292D01*
X32673Y-33290D01*
X32676Y-33285D01*
X32676Y-33280D01*
X32673Y-33275D01*
X32671Y-33273D01*
X32666Y-33271D01*
X32657Y-33268D01*
X32645Y-33268D01*
X32635Y-33271D01*
X32630Y-33273D01*
X32628Y-33275D01*
X32626Y-33280D01*
X32626Y-33328D02*
X32626Y-33333D01*
X32628Y-33337D01*
X32630Y-33340D01*
X32635Y-33342D01*
X32645Y-33345D01*
X32657Y-33345D01*
X32666Y-33342D01*
X32671Y-33340D01*
X32673Y-33337D01*
X32676Y-33333D01*
X32676Y-33328D01*
X32673Y-33323D01*
X32671Y-33321D01*
X32666Y-33318D01*
X32657Y-33316D01*
X32645Y-33316D01*
X32635Y-33318D01*
X32630Y-33321D01*
X32628Y-33323D01*
X32626Y-33328D01*
X32626Y-33366D02*
X32666Y-33366D01*
X32671Y-33368D01*
X32673Y-33371D01*
X32676Y-33375D01*
X32676Y-33385D01*
X32673Y-33390D01*
X32671Y-33392D01*
X32666Y-33395D01*
X32626Y-33395D01*
X32626Y-33411D02*
X32676Y-33428D01*
X32626Y-33445D01*
G54D13*
X33647Y-29080D02*
X33647Y-29242D01*
X33638Y-29261D01*
X33628Y-29271D01*
X33609Y-29280D01*
X33571Y-29280D01*
X33552Y-29271D01*
X33542Y-29261D01*
X33533Y-29242D01*
X33533Y-29080D01*
X33447Y-29100D02*
X33438Y-29090D01*
X33419Y-29080D01*
X33371Y-29080D01*
X33352Y-29090D01*
X33342Y-29100D01*
X33333Y-29119D01*
X33333Y-29138D01*
X33342Y-29166D01*
X33457Y-29280D01*
X33333Y-29280D01*
X33238Y-29280D02*
X33200Y-29280D01*
X33180Y-29271D01*
X33171Y-29261D01*
X33152Y-29233D01*
X33142Y-29195D01*
X33142Y-29119D01*
X33152Y-29100D01*
X33161Y-29090D01*
X33180Y-29080D01*
X33219Y-29080D01*
X33238Y-29090D01*
X33247Y-29100D01*
X33257Y-29119D01*
X33257Y-29166D01*
X33247Y-29185D01*
X33238Y-29195D01*
X33219Y-29204D01*
X33180Y-29204D01*
X33161Y-29195D01*
X33152Y-29185D01*
X33142Y-29166D01*
G54D14*
X33306Y-29475D02*
X33256Y-29475D01*
X33256Y-29487D01*
X33258Y-29494D01*
X33263Y-29499D01*
X33267Y-29501D01*
X33277Y-29504D01*
X33284Y-29504D01*
X33294Y-29501D01*
X33298Y-29499D01*
X33303Y-29494D01*
X33306Y-29487D01*
X33306Y-29475D01*
X33306Y-29525D02*
X33256Y-29525D01*
X33291Y-29542D01*
X33256Y-29558D01*
X33306Y-29558D01*
X33301Y-29611D02*
X33303Y-29608D01*
X33306Y-29601D01*
X33306Y-29596D01*
X33303Y-29589D01*
X33298Y-29585D01*
X33294Y-29582D01*
X33284Y-29580D01*
X33277Y-29580D01*
X33267Y-29582D01*
X33263Y-29585D01*
X33258Y-29589D01*
X33256Y-29596D01*
X33256Y-29601D01*
X33258Y-29608D01*
X33260Y-29611D01*
X33260Y-29630D02*
X33258Y-29632D01*
X33256Y-29637D01*
X33256Y-29649D01*
X33258Y-29654D01*
X33260Y-29656D01*
X33265Y-29658D01*
X33270Y-29658D01*
X33277Y-29656D01*
X33306Y-29627D01*
X33306Y-29658D01*
X33272Y-29701D02*
X33306Y-29701D01*
X33253Y-29689D02*
X33289Y-29677D01*
X33289Y-29708D01*
X33256Y-29737D02*
X33256Y-29742D01*
X33258Y-29746D01*
X33260Y-29749D01*
X33265Y-29751D01*
X33275Y-29754D01*
X33287Y-29754D01*
X33296Y-29751D01*
X33301Y-29749D01*
X33303Y-29746D01*
X33306Y-29742D01*
X33306Y-29737D01*
X33303Y-29732D01*
X33301Y-29730D01*
X33296Y-29727D01*
X33287Y-29725D01*
X33275Y-29725D01*
X33265Y-29727D01*
X33260Y-29730D01*
X33258Y-29732D01*
X33256Y-29737D01*
X33256Y-29785D02*
X33256Y-29789D01*
X33258Y-29794D01*
X33260Y-29796D01*
X33265Y-29799D01*
X33275Y-29801D01*
X33287Y-29801D01*
X33296Y-29799D01*
X33301Y-29796D01*
X33303Y-29794D01*
X33306Y-29789D01*
X33306Y-29785D01*
X33303Y-29780D01*
X33301Y-29777D01*
X33296Y-29775D01*
X33287Y-29773D01*
X33275Y-29773D01*
X33265Y-29775D01*
X33260Y-29777D01*
X33258Y-29780D01*
X33256Y-29785D01*
X33256Y-29823D02*
X33296Y-29823D01*
X33301Y-29825D01*
X33303Y-29827D01*
X33306Y-29832D01*
X33306Y-29842D01*
X33303Y-29846D01*
X33301Y-29849D01*
X33296Y-29851D01*
X33256Y-29851D01*
X33256Y-29868D02*
X33306Y-29885D01*
X33256Y-29901D01*
G54D13*
X27797Y-31530D02*
X27797Y-31692D01*
X27788Y-31711D01*
X27778Y-31721D01*
X27759Y-31730D01*
X27721Y-31730D01*
X27702Y-31721D01*
X27692Y-31711D01*
X27683Y-31692D01*
X27683Y-31530D01*
X27597Y-31550D02*
X27588Y-31540D01*
X27569Y-31530D01*
X27521Y-31530D01*
X27502Y-31540D01*
X27492Y-31550D01*
X27483Y-31569D01*
X27483Y-31588D01*
X27492Y-31616D01*
X27607Y-31730D01*
X27483Y-31730D01*
X27416Y-31530D02*
X27283Y-31530D01*
X27369Y-31730D01*
G54D14*
X27479Y-31916D02*
X27429Y-31916D01*
X27429Y-31928D01*
X27431Y-31935D01*
X27436Y-31940D01*
X27441Y-31942D01*
X27450Y-31945D01*
X27457Y-31945D01*
X27467Y-31942D01*
X27472Y-31940D01*
X27476Y-31935D01*
X27479Y-31928D01*
X27479Y-31916D01*
X27479Y-31966D02*
X27429Y-31966D01*
X27465Y-31983D01*
X27429Y-31999D01*
X27479Y-31999D01*
X27474Y-32052D02*
X27476Y-32049D01*
X27479Y-32042D01*
X27479Y-32037D01*
X27476Y-32030D01*
X27472Y-32025D01*
X27467Y-32023D01*
X27457Y-32021D01*
X27450Y-32021D01*
X27441Y-32023D01*
X27436Y-32025D01*
X27431Y-32030D01*
X27429Y-32037D01*
X27429Y-32042D01*
X27431Y-32049D01*
X27434Y-32052D01*
X27434Y-32071D02*
X27431Y-32073D01*
X27429Y-32078D01*
X27429Y-32090D01*
X27431Y-32095D01*
X27434Y-32097D01*
X27438Y-32099D01*
X27443Y-32099D01*
X27450Y-32097D01*
X27479Y-32068D01*
X27479Y-32099D01*
X27445Y-32142D02*
X27479Y-32142D01*
X27426Y-32130D02*
X27462Y-32118D01*
X27462Y-32149D01*
X27429Y-32178D02*
X27429Y-32183D01*
X27431Y-32187D01*
X27434Y-32190D01*
X27438Y-32192D01*
X27448Y-32195D01*
X27460Y-32195D01*
X27469Y-32192D01*
X27474Y-32190D01*
X27476Y-32187D01*
X27479Y-32183D01*
X27479Y-32178D01*
X27476Y-32173D01*
X27474Y-32171D01*
X27469Y-32168D01*
X27460Y-32166D01*
X27448Y-32166D01*
X27438Y-32168D01*
X27434Y-32171D01*
X27431Y-32173D01*
X27429Y-32178D01*
X27429Y-32225D02*
X27429Y-32230D01*
X27431Y-32235D01*
X27434Y-32237D01*
X27438Y-32240D01*
X27448Y-32242D01*
X27460Y-32242D01*
X27469Y-32240D01*
X27474Y-32237D01*
X27476Y-32235D01*
X27479Y-32230D01*
X27479Y-32225D01*
X27476Y-32221D01*
X27474Y-32218D01*
X27469Y-32216D01*
X27460Y-32214D01*
X27448Y-32214D01*
X27438Y-32216D01*
X27434Y-32218D01*
X27431Y-32221D01*
X27429Y-32225D01*
X27429Y-32264D02*
X27469Y-32264D01*
X27474Y-32266D01*
X27476Y-32268D01*
X27479Y-32273D01*
X27479Y-32283D01*
X27476Y-32287D01*
X27474Y-32290D01*
X27469Y-32292D01*
X27429Y-32292D01*
X27429Y-32309D02*
X27479Y-32325D01*
X27429Y-32342D01*
G54D13*
X27797Y-30130D02*
X27797Y-30292D01*
X27788Y-30311D01*
X27778Y-30321D01*
X27759Y-30330D01*
X27721Y-30330D01*
X27702Y-30321D01*
X27692Y-30311D01*
X27683Y-30292D01*
X27683Y-30130D01*
X27597Y-30150D02*
X27588Y-30140D01*
X27569Y-30130D01*
X27521Y-30130D01*
X27502Y-30140D01*
X27492Y-30150D01*
X27483Y-30169D01*
X27483Y-30188D01*
X27492Y-30216D01*
X27607Y-30330D01*
X27483Y-30330D01*
X27311Y-30130D02*
X27350Y-30130D01*
X27369Y-30140D01*
X27378Y-30150D01*
X27397Y-30178D01*
X27407Y-30216D01*
X27407Y-30292D01*
X27397Y-30311D01*
X27388Y-30321D01*
X27369Y-30330D01*
X27330Y-30330D01*
X27311Y-30321D01*
X27302Y-30311D01*
X27292Y-30292D01*
X27292Y-30245D01*
X27302Y-30226D01*
X27311Y-30216D01*
X27330Y-30207D01*
X27369Y-30207D01*
X27388Y-30216D01*
X27397Y-30226D01*
X27407Y-30245D01*
G54D14*
X27479Y-30538D02*
X27429Y-30538D01*
X27429Y-30550D01*
X27431Y-30557D01*
X27436Y-30562D01*
X27441Y-30564D01*
X27450Y-30567D01*
X27457Y-30567D01*
X27467Y-30564D01*
X27472Y-30562D01*
X27476Y-30557D01*
X27479Y-30550D01*
X27479Y-30538D01*
X27479Y-30588D02*
X27429Y-30588D01*
X27465Y-30605D01*
X27429Y-30621D01*
X27479Y-30621D01*
X27474Y-30674D02*
X27476Y-30671D01*
X27479Y-30664D01*
X27479Y-30659D01*
X27476Y-30652D01*
X27472Y-30648D01*
X27467Y-30645D01*
X27457Y-30643D01*
X27450Y-30643D01*
X27441Y-30645D01*
X27436Y-30648D01*
X27431Y-30652D01*
X27429Y-30659D01*
X27429Y-30664D01*
X27431Y-30671D01*
X27434Y-30674D01*
X27434Y-30693D02*
X27431Y-30695D01*
X27429Y-30700D01*
X27429Y-30712D01*
X27431Y-30717D01*
X27434Y-30719D01*
X27438Y-30721D01*
X27443Y-30721D01*
X27450Y-30719D01*
X27479Y-30690D01*
X27479Y-30721D01*
X27445Y-30764D02*
X27479Y-30764D01*
X27426Y-30752D02*
X27462Y-30740D01*
X27462Y-30771D01*
X27429Y-30800D02*
X27429Y-30805D01*
X27431Y-30809D01*
X27434Y-30812D01*
X27438Y-30814D01*
X27448Y-30817D01*
X27460Y-30817D01*
X27469Y-30814D01*
X27474Y-30812D01*
X27476Y-30809D01*
X27479Y-30805D01*
X27479Y-30800D01*
X27476Y-30795D01*
X27474Y-30793D01*
X27469Y-30790D01*
X27460Y-30788D01*
X27448Y-30788D01*
X27438Y-30790D01*
X27434Y-30793D01*
X27431Y-30795D01*
X27429Y-30800D01*
X27429Y-30848D02*
X27429Y-30852D01*
X27431Y-30857D01*
X27434Y-30859D01*
X27438Y-30862D01*
X27448Y-30864D01*
X27460Y-30864D01*
X27469Y-30862D01*
X27474Y-30859D01*
X27476Y-30857D01*
X27479Y-30852D01*
X27479Y-30848D01*
X27476Y-30843D01*
X27474Y-30840D01*
X27469Y-30838D01*
X27460Y-30836D01*
X27448Y-30836D01*
X27438Y-30838D01*
X27434Y-30840D01*
X27431Y-30843D01*
X27429Y-30848D01*
X27429Y-30886D02*
X27469Y-30886D01*
X27474Y-30888D01*
X27476Y-30890D01*
X27479Y-30895D01*
X27479Y-30905D01*
X27476Y-30909D01*
X27474Y-30912D01*
X27469Y-30914D01*
X27429Y-30914D01*
X27429Y-30931D02*
X27479Y-30948D01*
X27429Y-30964D01*
G54D13*
X29947Y-25630D02*
X29947Y-25792D01*
X29938Y-25811D01*
X29928Y-25821D01*
X29909Y-25830D01*
X29871Y-25830D01*
X29852Y-25821D01*
X29842Y-25811D01*
X29833Y-25792D01*
X29833Y-25630D01*
X29747Y-25650D02*
X29738Y-25640D01*
X29719Y-25630D01*
X29671Y-25630D01*
X29652Y-25640D01*
X29642Y-25650D01*
X29633Y-25669D01*
X29633Y-25688D01*
X29642Y-25716D01*
X29757Y-25830D01*
X29633Y-25830D01*
X29452Y-25630D02*
X29547Y-25630D01*
X29557Y-25726D01*
X29547Y-25716D01*
X29528Y-25707D01*
X29480Y-25707D01*
X29461Y-25716D01*
X29452Y-25726D01*
X29442Y-25745D01*
X29442Y-25792D01*
X29452Y-25811D01*
X29461Y-25821D01*
X29480Y-25830D01*
X29528Y-25830D01*
X29547Y-25821D01*
X29557Y-25811D01*
G54D14*
X29565Y-26010D02*
X29515Y-26010D01*
X29515Y-26022D01*
X29518Y-26029D01*
X29523Y-26034D01*
X29527Y-26037D01*
X29537Y-26039D01*
X29544Y-26039D01*
X29554Y-26037D01*
X29558Y-26034D01*
X29563Y-26029D01*
X29565Y-26022D01*
X29565Y-26010D01*
X29565Y-26060D02*
X29515Y-26060D01*
X29551Y-26077D01*
X29515Y-26094D01*
X29565Y-26094D01*
X29561Y-26146D02*
X29563Y-26144D01*
X29565Y-26137D01*
X29565Y-26132D01*
X29563Y-26125D01*
X29558Y-26120D01*
X29554Y-26118D01*
X29544Y-26115D01*
X29537Y-26115D01*
X29527Y-26118D01*
X29523Y-26120D01*
X29518Y-26125D01*
X29515Y-26132D01*
X29515Y-26137D01*
X29518Y-26144D01*
X29520Y-26146D01*
X29520Y-26165D02*
X29518Y-26168D01*
X29515Y-26172D01*
X29515Y-26184D01*
X29518Y-26189D01*
X29520Y-26191D01*
X29525Y-26194D01*
X29530Y-26194D01*
X29537Y-26191D01*
X29565Y-26163D01*
X29565Y-26194D01*
X29532Y-26237D02*
X29565Y-26237D01*
X29513Y-26225D02*
X29549Y-26213D01*
X29549Y-26244D01*
X29515Y-26272D02*
X29515Y-26277D01*
X29518Y-26282D01*
X29520Y-26284D01*
X29525Y-26287D01*
X29534Y-26289D01*
X29546Y-26289D01*
X29556Y-26287D01*
X29561Y-26284D01*
X29563Y-26282D01*
X29565Y-26277D01*
X29565Y-26272D01*
X29563Y-26268D01*
X29561Y-26265D01*
X29556Y-26263D01*
X29546Y-26260D01*
X29534Y-26260D01*
X29525Y-26263D01*
X29520Y-26265D01*
X29518Y-26268D01*
X29515Y-26272D01*
X29515Y-26320D02*
X29515Y-26325D01*
X29518Y-26329D01*
X29520Y-26332D01*
X29525Y-26334D01*
X29534Y-26337D01*
X29546Y-26337D01*
X29556Y-26334D01*
X29561Y-26332D01*
X29563Y-26329D01*
X29565Y-26325D01*
X29565Y-26320D01*
X29563Y-26315D01*
X29561Y-26313D01*
X29556Y-26310D01*
X29546Y-26308D01*
X29534Y-26308D01*
X29525Y-26310D01*
X29520Y-26313D01*
X29518Y-26315D01*
X29515Y-26320D01*
X29515Y-26358D02*
X29556Y-26358D01*
X29561Y-26360D01*
X29563Y-26363D01*
X29565Y-26368D01*
X29565Y-26377D01*
X29563Y-26382D01*
X29561Y-26384D01*
X29556Y-26387D01*
X29515Y-26387D01*
X29515Y-26403D02*
X29565Y-26420D01*
X29515Y-26437D01*
G54D13*
X33497Y-27080D02*
X33497Y-27242D01*
X33488Y-27261D01*
X33478Y-27271D01*
X33459Y-27280D01*
X33421Y-27280D01*
X33402Y-27271D01*
X33392Y-27261D01*
X33383Y-27242D01*
X33383Y-27080D01*
X33297Y-27100D02*
X33288Y-27090D01*
X33269Y-27080D01*
X33221Y-27080D01*
X33202Y-27090D01*
X33192Y-27100D01*
X33183Y-27119D01*
X33183Y-27138D01*
X33192Y-27166D01*
X33307Y-27280D01*
X33183Y-27280D01*
X33011Y-27147D02*
X33011Y-27280D01*
X33059Y-27071D02*
X33107Y-27214D01*
X32983Y-27214D01*
G54D14*
X33187Y-26483D02*
X33137Y-26483D01*
X33137Y-26495D01*
X33140Y-26502D01*
X33145Y-26507D01*
X33149Y-26509D01*
X33159Y-26511D01*
X33166Y-26511D01*
X33176Y-26509D01*
X33180Y-26507D01*
X33185Y-26502D01*
X33187Y-26495D01*
X33187Y-26483D01*
X33187Y-26533D02*
X33137Y-26533D01*
X33173Y-26550D01*
X33137Y-26566D01*
X33187Y-26566D01*
X33183Y-26619D02*
X33185Y-26616D01*
X33187Y-26609D01*
X33187Y-26604D01*
X33185Y-26597D01*
X33180Y-26592D01*
X33176Y-26590D01*
X33166Y-26588D01*
X33159Y-26588D01*
X33149Y-26590D01*
X33145Y-26592D01*
X33140Y-26597D01*
X33137Y-26604D01*
X33137Y-26609D01*
X33140Y-26616D01*
X33142Y-26619D01*
X33142Y-26638D02*
X33140Y-26640D01*
X33137Y-26645D01*
X33137Y-26657D01*
X33140Y-26661D01*
X33142Y-26664D01*
X33147Y-26666D01*
X33152Y-26666D01*
X33159Y-26664D01*
X33187Y-26635D01*
X33187Y-26666D01*
X33154Y-26709D02*
X33187Y-26709D01*
X33135Y-26697D02*
X33171Y-26685D01*
X33171Y-26716D01*
X33137Y-26745D02*
X33137Y-26750D01*
X33140Y-26754D01*
X33142Y-26757D01*
X33147Y-26759D01*
X33157Y-26761D01*
X33168Y-26761D01*
X33178Y-26759D01*
X33183Y-26757D01*
X33185Y-26754D01*
X33187Y-26750D01*
X33187Y-26745D01*
X33185Y-26740D01*
X33183Y-26738D01*
X33178Y-26735D01*
X33168Y-26733D01*
X33157Y-26733D01*
X33147Y-26735D01*
X33142Y-26738D01*
X33140Y-26740D01*
X33137Y-26745D01*
X33137Y-26792D02*
X33137Y-26797D01*
X33140Y-26802D01*
X33142Y-26804D01*
X33147Y-26807D01*
X33157Y-26809D01*
X33168Y-26809D01*
X33178Y-26807D01*
X33183Y-26804D01*
X33185Y-26802D01*
X33187Y-26797D01*
X33187Y-26792D01*
X33185Y-26788D01*
X33183Y-26785D01*
X33178Y-26783D01*
X33168Y-26781D01*
X33157Y-26781D01*
X33147Y-26783D01*
X33142Y-26785D01*
X33140Y-26788D01*
X33137Y-26792D01*
X33137Y-26831D02*
X33178Y-26831D01*
X33183Y-26833D01*
X33185Y-26835D01*
X33187Y-26840D01*
X33187Y-26850D01*
X33185Y-26854D01*
X33183Y-26857D01*
X33178Y-26859D01*
X33137Y-26859D01*
X33137Y-26876D02*
X33187Y-26892D01*
X33137Y-26909D01*
G54D13*
X31347Y-25780D02*
X31347Y-25942D01*
X31338Y-25961D01*
X31328Y-25971D01*
X31309Y-25980D01*
X31271Y-25980D01*
X31252Y-25971D01*
X31242Y-25961D01*
X31233Y-25942D01*
X31233Y-25780D01*
X31147Y-25800D02*
X31138Y-25790D01*
X31119Y-25780D01*
X31071Y-25780D01*
X31052Y-25790D01*
X31042Y-25800D01*
X31033Y-25819D01*
X31033Y-25838D01*
X31042Y-25866D01*
X31157Y-25980D01*
X31033Y-25980D01*
X30966Y-25780D02*
X30842Y-25780D01*
X30909Y-25857D01*
X30880Y-25857D01*
X30861Y-25866D01*
X30852Y-25876D01*
X30842Y-25895D01*
X30842Y-25942D01*
X30852Y-25961D01*
X30861Y-25971D01*
X30880Y-25980D01*
X30938Y-25980D01*
X30957Y-25971D01*
X30966Y-25961D01*
G54D14*
X30983Y-26207D02*
X30933Y-26207D01*
X30933Y-26219D01*
X30935Y-26226D01*
X30940Y-26231D01*
X30945Y-26233D01*
X30954Y-26236D01*
X30961Y-26236D01*
X30971Y-26233D01*
X30976Y-26231D01*
X30980Y-26226D01*
X30983Y-26219D01*
X30983Y-26207D01*
X30983Y-26257D02*
X30933Y-26257D01*
X30968Y-26274D01*
X30933Y-26291D01*
X30983Y-26291D01*
X30978Y-26343D02*
X30980Y-26341D01*
X30983Y-26333D01*
X30983Y-26329D01*
X30980Y-26322D01*
X30976Y-26317D01*
X30971Y-26314D01*
X30961Y-26312D01*
X30954Y-26312D01*
X30945Y-26314D01*
X30940Y-26317D01*
X30935Y-26322D01*
X30933Y-26329D01*
X30933Y-26333D01*
X30935Y-26341D01*
X30937Y-26343D01*
X30937Y-26362D02*
X30935Y-26364D01*
X30933Y-26369D01*
X30933Y-26381D01*
X30935Y-26386D01*
X30937Y-26388D01*
X30942Y-26391D01*
X30947Y-26391D01*
X30954Y-26388D01*
X30983Y-26360D01*
X30983Y-26391D01*
X30949Y-26433D02*
X30983Y-26433D01*
X30930Y-26422D02*
X30966Y-26410D01*
X30966Y-26441D01*
X30933Y-26469D02*
X30933Y-26474D01*
X30935Y-26479D01*
X30937Y-26481D01*
X30942Y-26483D01*
X30952Y-26486D01*
X30964Y-26486D01*
X30973Y-26483D01*
X30978Y-26481D01*
X30980Y-26479D01*
X30983Y-26474D01*
X30983Y-26469D01*
X30980Y-26464D01*
X30978Y-26462D01*
X30973Y-26460D01*
X30964Y-26457D01*
X30952Y-26457D01*
X30942Y-26460D01*
X30937Y-26462D01*
X30935Y-26464D01*
X30933Y-26469D01*
X30933Y-26517D02*
X30933Y-26522D01*
X30935Y-26526D01*
X30937Y-26529D01*
X30942Y-26531D01*
X30952Y-26533D01*
X30964Y-26533D01*
X30973Y-26531D01*
X30978Y-26529D01*
X30980Y-26526D01*
X30983Y-26522D01*
X30983Y-26517D01*
X30980Y-26512D01*
X30978Y-26510D01*
X30973Y-26507D01*
X30964Y-26505D01*
X30952Y-26505D01*
X30942Y-26507D01*
X30937Y-26510D01*
X30935Y-26512D01*
X30933Y-26517D01*
X30933Y-26555D02*
X30973Y-26555D01*
X30978Y-26557D01*
X30980Y-26560D01*
X30983Y-26564D01*
X30983Y-26574D01*
X30980Y-26579D01*
X30978Y-26581D01*
X30973Y-26583D01*
X30933Y-26583D01*
X30933Y-26600D02*
X30983Y-26617D01*
X30933Y-26633D01*
G54D13*
X33647Y-22580D02*
X33647Y-22742D01*
X33638Y-22761D01*
X33628Y-22771D01*
X33609Y-22780D01*
X33571Y-22780D01*
X33552Y-22771D01*
X33542Y-22761D01*
X33533Y-22742D01*
X33533Y-22580D01*
X33447Y-22600D02*
X33438Y-22590D01*
X33419Y-22580D01*
X33371Y-22580D01*
X33352Y-22590D01*
X33342Y-22600D01*
X33333Y-22619D01*
X33333Y-22638D01*
X33342Y-22666D01*
X33457Y-22780D01*
X33333Y-22780D01*
X33257Y-22600D02*
X33247Y-22590D01*
X33228Y-22580D01*
X33180Y-22580D01*
X33161Y-22590D01*
X33152Y-22600D01*
X33142Y-22619D01*
X33142Y-22638D01*
X33152Y-22666D01*
X33266Y-22780D01*
X33142Y-22780D01*
G54D14*
X33306Y-22979D02*
X33256Y-22979D01*
X33256Y-22991D01*
X33258Y-22998D01*
X33263Y-23003D01*
X33267Y-23005D01*
X33277Y-23008D01*
X33284Y-23008D01*
X33294Y-23005D01*
X33298Y-23003D01*
X33303Y-22998D01*
X33306Y-22991D01*
X33306Y-22979D01*
X33306Y-23029D02*
X33256Y-23029D01*
X33291Y-23046D01*
X33256Y-23062D01*
X33306Y-23062D01*
X33301Y-23115D02*
X33303Y-23112D01*
X33306Y-23105D01*
X33306Y-23100D01*
X33303Y-23093D01*
X33298Y-23088D01*
X33294Y-23086D01*
X33284Y-23084D01*
X33277Y-23084D01*
X33267Y-23086D01*
X33263Y-23088D01*
X33258Y-23093D01*
X33256Y-23100D01*
X33256Y-23105D01*
X33258Y-23112D01*
X33260Y-23115D01*
X33260Y-23134D02*
X33258Y-23136D01*
X33256Y-23141D01*
X33256Y-23153D01*
X33258Y-23158D01*
X33260Y-23160D01*
X33265Y-23162D01*
X33270Y-23162D01*
X33277Y-23160D01*
X33306Y-23131D01*
X33306Y-23162D01*
X33272Y-23205D02*
X33306Y-23205D01*
X33253Y-23193D02*
X33289Y-23181D01*
X33289Y-23212D01*
X33256Y-23241D02*
X33256Y-23246D01*
X33258Y-23250D01*
X33260Y-23253D01*
X33265Y-23255D01*
X33275Y-23258D01*
X33287Y-23258D01*
X33296Y-23255D01*
X33301Y-23253D01*
X33303Y-23250D01*
X33306Y-23246D01*
X33306Y-23241D01*
X33303Y-23236D01*
X33301Y-23234D01*
X33296Y-23231D01*
X33287Y-23229D01*
X33275Y-23229D01*
X33265Y-23231D01*
X33260Y-23234D01*
X33258Y-23236D01*
X33256Y-23241D01*
X33256Y-23288D02*
X33256Y-23293D01*
X33258Y-23298D01*
X33260Y-23300D01*
X33265Y-23303D01*
X33275Y-23305D01*
X33287Y-23305D01*
X33296Y-23303D01*
X33301Y-23300D01*
X33303Y-23298D01*
X33306Y-23293D01*
X33306Y-23288D01*
X33303Y-23284D01*
X33301Y-23281D01*
X33296Y-23279D01*
X33287Y-23277D01*
X33275Y-23277D01*
X33265Y-23279D01*
X33260Y-23281D01*
X33258Y-23284D01*
X33256Y-23288D01*
X33256Y-23327D02*
X33296Y-23327D01*
X33301Y-23329D01*
X33303Y-23331D01*
X33306Y-23336D01*
X33306Y-23346D01*
X33303Y-23350D01*
X33301Y-23353D01*
X33296Y-23355D01*
X33256Y-23355D01*
X33256Y-23372D02*
X33306Y-23388D01*
X33256Y-23405D01*
G54D13*
X33447Y-20580D02*
X33447Y-20742D01*
X33438Y-20761D01*
X33428Y-20771D01*
X33409Y-20780D01*
X33371Y-20780D01*
X33352Y-20771D01*
X33342Y-20761D01*
X33333Y-20742D01*
X33333Y-20580D01*
X33247Y-20600D02*
X33238Y-20590D01*
X33219Y-20580D01*
X33171Y-20580D01*
X33152Y-20590D01*
X33142Y-20600D01*
X33133Y-20619D01*
X33133Y-20638D01*
X33142Y-20666D01*
X33257Y-20780D01*
X33133Y-20780D01*
X32942Y-20780D02*
X33057Y-20780D01*
X33000Y-20780D02*
X33000Y-20580D01*
X33019Y-20609D01*
X33038Y-20628D01*
X33057Y-20638D01*
G54D14*
X33030Y-19947D02*
X32980Y-19947D01*
X32980Y-19959D01*
X32982Y-19967D01*
X32987Y-19971D01*
X32992Y-19974D01*
X33001Y-19976D01*
X33009Y-19976D01*
X33018Y-19974D01*
X33023Y-19971D01*
X33028Y-19967D01*
X33030Y-19959D01*
X33030Y-19947D01*
X33030Y-19997D02*
X32980Y-19997D01*
X33016Y-20014D01*
X32980Y-20031D01*
X33030Y-20031D01*
X33025Y-20083D02*
X33028Y-20081D01*
X33030Y-20074D01*
X33030Y-20069D01*
X33028Y-20062D01*
X33023Y-20057D01*
X33018Y-20055D01*
X33009Y-20052D01*
X33001Y-20052D01*
X32992Y-20055D01*
X32987Y-20057D01*
X32982Y-20062D01*
X32980Y-20069D01*
X32980Y-20074D01*
X32982Y-20081D01*
X32985Y-20083D01*
X32985Y-20102D02*
X32982Y-20105D01*
X32980Y-20109D01*
X32980Y-20121D01*
X32982Y-20126D01*
X32985Y-20128D01*
X32989Y-20131D01*
X32994Y-20131D01*
X33001Y-20128D01*
X33030Y-20100D01*
X33030Y-20131D01*
X32997Y-20174D02*
X33030Y-20174D01*
X32978Y-20162D02*
X33013Y-20150D01*
X33013Y-20181D01*
X32980Y-20209D02*
X32980Y-20214D01*
X32982Y-20219D01*
X32985Y-20221D01*
X32989Y-20224D01*
X32999Y-20226D01*
X33011Y-20226D01*
X33020Y-20224D01*
X33025Y-20221D01*
X33028Y-20219D01*
X33030Y-20214D01*
X33030Y-20209D01*
X33028Y-20205D01*
X33025Y-20202D01*
X33020Y-20200D01*
X33011Y-20197D01*
X32999Y-20197D01*
X32989Y-20200D01*
X32985Y-20202D01*
X32982Y-20205D01*
X32980Y-20209D01*
X32980Y-20257D02*
X32980Y-20262D01*
X32982Y-20267D01*
X32985Y-20269D01*
X32989Y-20271D01*
X32999Y-20274D01*
X33011Y-20274D01*
X33020Y-20271D01*
X33025Y-20269D01*
X33028Y-20267D01*
X33030Y-20262D01*
X33030Y-20257D01*
X33028Y-20252D01*
X33025Y-20250D01*
X33020Y-20247D01*
X33011Y-20245D01*
X32999Y-20245D01*
X32989Y-20247D01*
X32985Y-20250D01*
X32982Y-20252D01*
X32980Y-20257D01*
X32980Y-20295D02*
X33020Y-20295D01*
X33025Y-20297D01*
X33028Y-20300D01*
X33030Y-20305D01*
X33030Y-20314D01*
X33028Y-20319D01*
X33025Y-20321D01*
X33020Y-20324D01*
X32980Y-20324D01*
X32980Y-20340D02*
X33030Y-20357D01*
X32980Y-20374D01*
G54D13*
X27797Y-23120D02*
X27797Y-23282D01*
X27788Y-23301D01*
X27778Y-23311D01*
X27759Y-23320D01*
X27721Y-23320D01*
X27702Y-23311D01*
X27692Y-23301D01*
X27683Y-23282D01*
X27683Y-23120D01*
X27597Y-23140D02*
X27588Y-23130D01*
X27569Y-23120D01*
X27521Y-23120D01*
X27502Y-23130D01*
X27492Y-23140D01*
X27483Y-23159D01*
X27483Y-23178D01*
X27492Y-23206D01*
X27607Y-23320D01*
X27483Y-23320D01*
X27359Y-23120D02*
X27340Y-23120D01*
X27321Y-23130D01*
X27311Y-23140D01*
X27302Y-23159D01*
X27292Y-23197D01*
X27292Y-23244D01*
X27302Y-23282D01*
X27311Y-23301D01*
X27321Y-23311D01*
X27340Y-23320D01*
X27359Y-23320D01*
X27378Y-23311D01*
X27388Y-23301D01*
X27397Y-23282D01*
X27407Y-23244D01*
X27407Y-23197D01*
X27397Y-23159D01*
X27388Y-23140D01*
X27378Y-23130D01*
X27359Y-23120D01*
G54D14*
X27479Y-23491D02*
X27429Y-23491D01*
X27429Y-23503D01*
X27431Y-23510D01*
X27436Y-23515D01*
X27441Y-23517D01*
X27450Y-23519D01*
X27457Y-23519D01*
X27467Y-23517D01*
X27472Y-23515D01*
X27476Y-23510D01*
X27479Y-23503D01*
X27479Y-23491D01*
X27479Y-23541D02*
X27429Y-23541D01*
X27465Y-23557D01*
X27429Y-23574D01*
X27479Y-23574D01*
X27474Y-23626D02*
X27476Y-23624D01*
X27479Y-23617D01*
X27479Y-23612D01*
X27476Y-23605D01*
X27472Y-23600D01*
X27467Y-23598D01*
X27457Y-23596D01*
X27450Y-23596D01*
X27441Y-23598D01*
X27436Y-23600D01*
X27431Y-23605D01*
X27429Y-23612D01*
X27429Y-23617D01*
X27431Y-23624D01*
X27434Y-23626D01*
X27434Y-23646D02*
X27431Y-23648D01*
X27429Y-23653D01*
X27429Y-23665D01*
X27431Y-23669D01*
X27434Y-23672D01*
X27438Y-23674D01*
X27443Y-23674D01*
X27450Y-23672D01*
X27479Y-23643D01*
X27479Y-23674D01*
X27445Y-23717D02*
X27479Y-23717D01*
X27426Y-23705D02*
X27462Y-23693D01*
X27462Y-23724D01*
X27429Y-23753D02*
X27429Y-23757D01*
X27431Y-23762D01*
X27434Y-23765D01*
X27438Y-23767D01*
X27448Y-23769D01*
X27460Y-23769D01*
X27469Y-23767D01*
X27474Y-23765D01*
X27476Y-23762D01*
X27479Y-23757D01*
X27479Y-23753D01*
X27476Y-23748D01*
X27474Y-23746D01*
X27469Y-23743D01*
X27460Y-23741D01*
X27448Y-23741D01*
X27438Y-23743D01*
X27434Y-23746D01*
X27431Y-23748D01*
X27429Y-23753D01*
X27429Y-23800D02*
X27429Y-23805D01*
X27431Y-23810D01*
X27434Y-23812D01*
X27438Y-23815D01*
X27448Y-23817D01*
X27460Y-23817D01*
X27469Y-23815D01*
X27474Y-23812D01*
X27476Y-23810D01*
X27479Y-23805D01*
X27479Y-23800D01*
X27476Y-23796D01*
X27474Y-23793D01*
X27469Y-23791D01*
X27460Y-23788D01*
X27448Y-23788D01*
X27438Y-23791D01*
X27434Y-23793D01*
X27431Y-23796D01*
X27429Y-23800D01*
X27429Y-23838D02*
X27469Y-23838D01*
X27474Y-23841D01*
X27476Y-23843D01*
X27479Y-23848D01*
X27479Y-23857D01*
X27476Y-23862D01*
X27474Y-23865D01*
X27469Y-23867D01*
X27429Y-23867D01*
X27429Y-23884D02*
X27479Y-23900D01*
X27429Y-23917D01*
G54D13*
X21510Y-19957D02*
X21672Y-19957D01*
X21691Y-19967D01*
X21701Y-19976D01*
X21710Y-19995D01*
X21710Y-20033D01*
X21701Y-20052D01*
X21691Y-20062D01*
X21672Y-20071D01*
X21510Y-20071D01*
X21710Y-20271D02*
X21710Y-20157D01*
X21710Y-20214D02*
X21510Y-20214D01*
X21539Y-20195D01*
X21558Y-20176D01*
X21568Y-20157D01*
G54D14*
X22164Y-19908D02*
X22114Y-19908D01*
X22114Y-19920D01*
X22116Y-19927D01*
X22121Y-19932D01*
X22126Y-19934D01*
X22135Y-19937D01*
X22142Y-19937D01*
X22152Y-19934D01*
X22157Y-19932D01*
X22161Y-19927D01*
X22164Y-19920D01*
X22164Y-19908D01*
X22164Y-19958D02*
X22114Y-19958D01*
X22150Y-19975D01*
X22114Y-19991D01*
X22164Y-19991D01*
X22159Y-20044D02*
X22161Y-20041D01*
X22164Y-20034D01*
X22164Y-20030D01*
X22161Y-20022D01*
X22157Y-20018D01*
X22152Y-20015D01*
X22142Y-20013D01*
X22135Y-20013D01*
X22126Y-20015D01*
X22121Y-20018D01*
X22116Y-20022D01*
X22114Y-20030D01*
X22114Y-20034D01*
X22116Y-20041D01*
X22119Y-20044D01*
X22119Y-20063D02*
X22116Y-20065D01*
X22114Y-20070D01*
X22114Y-20082D01*
X22116Y-20087D01*
X22119Y-20089D01*
X22123Y-20091D01*
X22128Y-20091D01*
X22135Y-20089D01*
X22164Y-20060D01*
X22164Y-20091D01*
X22130Y-20134D02*
X22164Y-20134D01*
X22111Y-20122D02*
X22147Y-20110D01*
X22147Y-20141D01*
X22114Y-20170D02*
X22114Y-20175D01*
X22116Y-20180D01*
X22119Y-20182D01*
X22123Y-20184D01*
X22133Y-20187D01*
X22145Y-20187D01*
X22154Y-20184D01*
X22159Y-20182D01*
X22161Y-20180D01*
X22164Y-20175D01*
X22164Y-20170D01*
X22161Y-20165D01*
X22159Y-20163D01*
X22154Y-20160D01*
X22145Y-20158D01*
X22133Y-20158D01*
X22123Y-20160D01*
X22119Y-20163D01*
X22116Y-20165D01*
X22114Y-20170D01*
X22114Y-20218D02*
X22114Y-20222D01*
X22116Y-20227D01*
X22119Y-20230D01*
X22123Y-20232D01*
X22133Y-20234D01*
X22145Y-20234D01*
X22154Y-20232D01*
X22159Y-20230D01*
X22161Y-20227D01*
X22164Y-20222D01*
X22164Y-20218D01*
X22161Y-20213D01*
X22159Y-20210D01*
X22154Y-20208D01*
X22145Y-20206D01*
X22133Y-20206D01*
X22123Y-20208D01*
X22119Y-20210D01*
X22116Y-20213D01*
X22114Y-20218D01*
X22114Y-20256D02*
X22154Y-20256D01*
X22159Y-20258D01*
X22161Y-20260D01*
X22164Y-20265D01*
X22164Y-20275D01*
X22161Y-20280D01*
X22159Y-20282D01*
X22154Y-20284D01*
X22114Y-20284D01*
X22114Y-20301D02*
X22164Y-20318D01*
X22114Y-20334D01*
G54D13*
X27807Y-34200D02*
X27807Y-34362D01*
X27798Y-34381D01*
X27788Y-34391D01*
X27769Y-34400D01*
X27731Y-34400D01*
X27712Y-34391D01*
X27702Y-34381D01*
X27693Y-34362D01*
X27693Y-34200D01*
X27493Y-34400D02*
X27607Y-34400D01*
X27550Y-34400D02*
X27550Y-34200D01*
X27569Y-34229D01*
X27588Y-34248D01*
X27607Y-34258D01*
X27312Y-34200D02*
X27407Y-34200D01*
X27417Y-34296D01*
X27407Y-34286D01*
X27388Y-34277D01*
X27340Y-34277D01*
X27321Y-34286D01*
X27312Y-34296D01*
X27302Y-34315D01*
X27302Y-34362D01*
X27312Y-34381D01*
X27321Y-34391D01*
X27340Y-34400D01*
X27388Y-34400D01*
X27407Y-34391D01*
X27417Y-34381D01*
G54D14*
X27479Y-34593D02*
X27429Y-34593D01*
X27429Y-34605D01*
X27431Y-34612D01*
X27436Y-34617D01*
X27441Y-34619D01*
X27450Y-34622D01*
X27457Y-34622D01*
X27467Y-34619D01*
X27472Y-34617D01*
X27476Y-34612D01*
X27479Y-34605D01*
X27479Y-34593D01*
X27479Y-34643D02*
X27429Y-34643D01*
X27465Y-34660D01*
X27429Y-34676D01*
X27479Y-34676D01*
X27474Y-34729D02*
X27476Y-34726D01*
X27479Y-34719D01*
X27479Y-34715D01*
X27476Y-34707D01*
X27472Y-34703D01*
X27467Y-34700D01*
X27457Y-34698D01*
X27450Y-34698D01*
X27441Y-34700D01*
X27436Y-34703D01*
X27431Y-34707D01*
X27429Y-34715D01*
X27429Y-34719D01*
X27431Y-34726D01*
X27434Y-34729D01*
X27434Y-34748D02*
X27431Y-34750D01*
X27429Y-34755D01*
X27429Y-34767D01*
X27431Y-34772D01*
X27434Y-34774D01*
X27438Y-34776D01*
X27443Y-34776D01*
X27450Y-34774D01*
X27479Y-34746D01*
X27479Y-34776D01*
X27445Y-34819D02*
X27479Y-34819D01*
X27426Y-34807D02*
X27462Y-34796D01*
X27462Y-34826D01*
X27429Y-34855D02*
X27429Y-34860D01*
X27431Y-34865D01*
X27434Y-34867D01*
X27438Y-34869D01*
X27448Y-34872D01*
X27460Y-34872D01*
X27469Y-34869D01*
X27474Y-34867D01*
X27476Y-34865D01*
X27479Y-34860D01*
X27479Y-34855D01*
X27476Y-34850D01*
X27474Y-34848D01*
X27469Y-34846D01*
X27460Y-34843D01*
X27448Y-34843D01*
X27438Y-34846D01*
X27434Y-34848D01*
X27431Y-34850D01*
X27429Y-34855D01*
X27429Y-34903D02*
X27429Y-34907D01*
X27431Y-34912D01*
X27434Y-34915D01*
X27438Y-34917D01*
X27448Y-34919D01*
X27460Y-34919D01*
X27469Y-34917D01*
X27474Y-34915D01*
X27476Y-34912D01*
X27479Y-34907D01*
X27479Y-34903D01*
X27476Y-34898D01*
X27474Y-34896D01*
X27469Y-34893D01*
X27460Y-34891D01*
X27448Y-34891D01*
X27438Y-34893D01*
X27434Y-34896D01*
X27431Y-34898D01*
X27429Y-34903D01*
X27429Y-34941D02*
X27469Y-34941D01*
X27474Y-34943D01*
X27476Y-34946D01*
X27479Y-34950D01*
X27479Y-34960D01*
X27476Y-34965D01*
X27474Y-34967D01*
X27469Y-34969D01*
X27429Y-34969D01*
X27429Y-34986D02*
X27479Y-35003D01*
X27429Y-35019D01*
G54D13*
X25787Y-32450D02*
X25787Y-32612D01*
X25778Y-32631D01*
X25768Y-32641D01*
X25749Y-32650D01*
X25711Y-32650D01*
X25692Y-32641D01*
X25682Y-32631D01*
X25673Y-32612D01*
X25673Y-32450D01*
X25473Y-32650D02*
X25587Y-32650D01*
X25530Y-32650D02*
X25530Y-32450D01*
X25549Y-32479D01*
X25568Y-32498D01*
X25587Y-32508D01*
X25301Y-32517D02*
X25301Y-32650D01*
X25349Y-32441D02*
X25397Y-32584D01*
X25273Y-32584D01*
G54D14*
X25471Y-32821D02*
X25421Y-32821D01*
X25421Y-32833D01*
X25423Y-32841D01*
X25428Y-32845D01*
X25433Y-32848D01*
X25442Y-32850D01*
X25449Y-32850D01*
X25459Y-32848D01*
X25464Y-32845D01*
X25469Y-32841D01*
X25471Y-32833D01*
X25471Y-32821D01*
X25471Y-32871D02*
X25421Y-32871D01*
X25457Y-32888D01*
X25421Y-32905D01*
X25471Y-32905D01*
X25466Y-32957D02*
X25469Y-32955D01*
X25471Y-32948D01*
X25471Y-32943D01*
X25469Y-32936D01*
X25464Y-32931D01*
X25459Y-32929D01*
X25449Y-32926D01*
X25442Y-32926D01*
X25433Y-32929D01*
X25428Y-32931D01*
X25423Y-32936D01*
X25421Y-32943D01*
X25421Y-32948D01*
X25423Y-32955D01*
X25426Y-32957D01*
X25426Y-32976D02*
X25423Y-32979D01*
X25421Y-32983D01*
X25421Y-32995D01*
X25423Y-33000D01*
X25426Y-33002D01*
X25430Y-33005D01*
X25435Y-33005D01*
X25442Y-33002D01*
X25471Y-32974D01*
X25471Y-33005D01*
X25438Y-33048D02*
X25471Y-33048D01*
X25419Y-33036D02*
X25454Y-33024D01*
X25454Y-33055D01*
X25421Y-33083D02*
X25421Y-33088D01*
X25423Y-33093D01*
X25426Y-33095D01*
X25430Y-33098D01*
X25440Y-33100D01*
X25452Y-33100D01*
X25461Y-33098D01*
X25466Y-33095D01*
X25469Y-33093D01*
X25471Y-33088D01*
X25471Y-33083D01*
X25469Y-33079D01*
X25466Y-33076D01*
X25461Y-33074D01*
X25452Y-33071D01*
X25440Y-33071D01*
X25430Y-33074D01*
X25426Y-33076D01*
X25423Y-33079D01*
X25421Y-33083D01*
X25421Y-33131D02*
X25421Y-33136D01*
X25423Y-33141D01*
X25426Y-33143D01*
X25430Y-33145D01*
X25440Y-33148D01*
X25452Y-33148D01*
X25461Y-33145D01*
X25466Y-33143D01*
X25469Y-33141D01*
X25471Y-33136D01*
X25471Y-33131D01*
X25469Y-33126D01*
X25466Y-33124D01*
X25461Y-33121D01*
X25452Y-33119D01*
X25440Y-33119D01*
X25430Y-33121D01*
X25426Y-33124D01*
X25423Y-33126D01*
X25421Y-33131D01*
X25421Y-33169D02*
X25461Y-33169D01*
X25466Y-33171D01*
X25469Y-33174D01*
X25471Y-33179D01*
X25471Y-33188D01*
X25469Y-33193D01*
X25466Y-33195D01*
X25461Y-33198D01*
X25421Y-33198D01*
X25421Y-33214D02*
X25471Y-33231D01*
X25421Y-33248D01*
G54D13*
X27847Y-32830D02*
X27847Y-32992D01*
X27838Y-33011D01*
X27828Y-33021D01*
X27809Y-33030D01*
X27771Y-33030D01*
X27752Y-33021D01*
X27742Y-33011D01*
X27733Y-32992D01*
X27733Y-32830D01*
X27533Y-33030D02*
X27647Y-33030D01*
X27590Y-33030D02*
X27590Y-32830D01*
X27609Y-32859D01*
X27628Y-32878D01*
X27647Y-32888D01*
X27466Y-32830D02*
X27342Y-32830D01*
X27409Y-32907D01*
X27380Y-32907D01*
X27361Y-32916D01*
X27352Y-32926D01*
X27342Y-32945D01*
X27342Y-32992D01*
X27352Y-33011D01*
X27361Y-33021D01*
X27380Y-33030D01*
X27438Y-33030D01*
X27457Y-33021D01*
X27466Y-33011D01*
G54D14*
X27479Y-33215D02*
X27429Y-33215D01*
X27429Y-33227D01*
X27431Y-33234D01*
X27436Y-33239D01*
X27441Y-33241D01*
X27450Y-33244D01*
X27457Y-33244D01*
X27467Y-33241D01*
X27472Y-33239D01*
X27476Y-33234D01*
X27479Y-33227D01*
X27479Y-33215D01*
X27479Y-33265D02*
X27429Y-33265D01*
X27465Y-33282D01*
X27429Y-33299D01*
X27479Y-33299D01*
X27474Y-33351D02*
X27476Y-33349D01*
X27479Y-33341D01*
X27479Y-33337D01*
X27476Y-33329D01*
X27472Y-33325D01*
X27467Y-33322D01*
X27457Y-33320D01*
X27450Y-33320D01*
X27441Y-33322D01*
X27436Y-33325D01*
X27431Y-33329D01*
X27429Y-33337D01*
X27429Y-33341D01*
X27431Y-33349D01*
X27434Y-33351D01*
X27434Y-33370D02*
X27431Y-33372D01*
X27429Y-33377D01*
X27429Y-33389D01*
X27431Y-33394D01*
X27434Y-33396D01*
X27438Y-33399D01*
X27443Y-33399D01*
X27450Y-33396D01*
X27479Y-33368D01*
X27479Y-33399D01*
X27445Y-33441D02*
X27479Y-33441D01*
X27426Y-33429D02*
X27462Y-33418D01*
X27462Y-33449D01*
X27429Y-33477D02*
X27429Y-33482D01*
X27431Y-33487D01*
X27434Y-33489D01*
X27438Y-33491D01*
X27448Y-33494D01*
X27460Y-33494D01*
X27469Y-33491D01*
X27474Y-33489D01*
X27476Y-33487D01*
X27479Y-33482D01*
X27479Y-33477D01*
X27476Y-33472D01*
X27474Y-33470D01*
X27469Y-33468D01*
X27460Y-33465D01*
X27448Y-33465D01*
X27438Y-33468D01*
X27434Y-33470D01*
X27431Y-33472D01*
X27429Y-33477D01*
X27429Y-33525D02*
X27429Y-33529D01*
X27431Y-33534D01*
X27434Y-33537D01*
X27438Y-33539D01*
X27448Y-33541D01*
X27460Y-33541D01*
X27469Y-33539D01*
X27474Y-33537D01*
X27476Y-33534D01*
X27479Y-33529D01*
X27479Y-33525D01*
X27476Y-33520D01*
X27474Y-33518D01*
X27469Y-33515D01*
X27460Y-33513D01*
X27448Y-33513D01*
X27438Y-33515D01*
X27434Y-33518D01*
X27431Y-33520D01*
X27429Y-33525D01*
X27429Y-33563D02*
X27469Y-33563D01*
X27474Y-33565D01*
X27476Y-33568D01*
X27479Y-33572D01*
X27479Y-33582D01*
X27476Y-33587D01*
X27474Y-33589D01*
X27469Y-33591D01*
X27429Y-33591D01*
X27429Y-33608D02*
X27479Y-33625D01*
X27429Y-33641D01*
G54D13*
X22247Y-33330D02*
X22247Y-33492D01*
X22238Y-33511D01*
X22228Y-33521D01*
X22209Y-33530D01*
X22171Y-33530D01*
X22152Y-33521D01*
X22142Y-33511D01*
X22133Y-33492D01*
X22133Y-33330D01*
X21933Y-33530D02*
X22047Y-33530D01*
X21990Y-33530D02*
X21990Y-33330D01*
X22009Y-33359D01*
X22028Y-33378D01*
X22047Y-33388D01*
X21857Y-33350D02*
X21847Y-33340D01*
X21828Y-33330D01*
X21780Y-33330D01*
X21761Y-33340D01*
X21752Y-33350D01*
X21742Y-33369D01*
X21742Y-33388D01*
X21752Y-33416D01*
X21866Y-33530D01*
X21742Y-33530D01*
G54D14*
X21928Y-32743D02*
X21878Y-32743D01*
X21878Y-32755D01*
X21880Y-32762D01*
X21885Y-32767D01*
X21890Y-32769D01*
X21899Y-32771D01*
X21906Y-32771D01*
X21916Y-32769D01*
X21920Y-32767D01*
X21925Y-32762D01*
X21928Y-32755D01*
X21928Y-32743D01*
X21928Y-32793D02*
X21878Y-32793D01*
X21913Y-32809D01*
X21878Y-32826D01*
X21928Y-32826D01*
X21923Y-32878D02*
X21925Y-32876D01*
X21928Y-32869D01*
X21928Y-32864D01*
X21925Y-32857D01*
X21920Y-32852D01*
X21916Y-32850D01*
X21906Y-32847D01*
X21899Y-32847D01*
X21890Y-32850D01*
X21885Y-32852D01*
X21880Y-32857D01*
X21878Y-32864D01*
X21878Y-32869D01*
X21880Y-32876D01*
X21882Y-32878D01*
X21882Y-32897D02*
X21880Y-32900D01*
X21878Y-32905D01*
X21878Y-32917D01*
X21880Y-32921D01*
X21882Y-32924D01*
X21887Y-32926D01*
X21892Y-32926D01*
X21899Y-32924D01*
X21928Y-32895D01*
X21928Y-32926D01*
X21894Y-32969D02*
X21928Y-32969D01*
X21875Y-32957D02*
X21911Y-32945D01*
X21911Y-32976D01*
X21878Y-33005D02*
X21878Y-33009D01*
X21880Y-33014D01*
X21882Y-33017D01*
X21887Y-33019D01*
X21897Y-33021D01*
X21909Y-33021D01*
X21918Y-33019D01*
X21923Y-33017D01*
X21925Y-33014D01*
X21928Y-33009D01*
X21928Y-33005D01*
X21925Y-33000D01*
X21923Y-32997D01*
X21918Y-32995D01*
X21909Y-32993D01*
X21897Y-32993D01*
X21887Y-32995D01*
X21882Y-32997D01*
X21880Y-33000D01*
X21878Y-33005D01*
X21878Y-33052D02*
X21878Y-33057D01*
X21880Y-33062D01*
X21882Y-33064D01*
X21887Y-33067D01*
X21897Y-33069D01*
X21909Y-33069D01*
X21918Y-33067D01*
X21923Y-33064D01*
X21925Y-33062D01*
X21928Y-33057D01*
X21928Y-33052D01*
X21925Y-33047D01*
X21923Y-33045D01*
X21918Y-33043D01*
X21909Y-33040D01*
X21897Y-33040D01*
X21887Y-33043D01*
X21882Y-33045D01*
X21880Y-33047D01*
X21878Y-33052D01*
X21878Y-33090D02*
X21918Y-33090D01*
X21923Y-33093D01*
X21925Y-33095D01*
X21928Y-33100D01*
X21928Y-33109D01*
X21925Y-33114D01*
X21923Y-33117D01*
X21918Y-33119D01*
X21878Y-33119D01*
X21878Y-33136D02*
X21928Y-33152D01*
X21878Y-33169D01*
G54D13*
X23747Y-34280D02*
X23747Y-34442D01*
X23738Y-34461D01*
X23728Y-34471D01*
X23709Y-34480D01*
X23671Y-34480D01*
X23652Y-34471D01*
X23642Y-34461D01*
X23633Y-34442D01*
X23633Y-34280D01*
X23433Y-34480D02*
X23547Y-34480D01*
X23490Y-34480D02*
X23490Y-34280D01*
X23509Y-34309D01*
X23528Y-34328D01*
X23547Y-34338D01*
X23242Y-34480D02*
X23357Y-34480D01*
X23300Y-34480D02*
X23300Y-34280D01*
X23319Y-34309D01*
X23338Y-34328D01*
X23357Y-34338D01*
G54D14*
X23463Y-33688D02*
X23413Y-33688D01*
X23413Y-33700D01*
X23415Y-33707D01*
X23420Y-33711D01*
X23425Y-33714D01*
X23434Y-33716D01*
X23442Y-33716D01*
X23451Y-33714D01*
X23456Y-33711D01*
X23461Y-33707D01*
X23463Y-33700D01*
X23463Y-33688D01*
X23463Y-33738D02*
X23413Y-33738D01*
X23449Y-33754D01*
X23413Y-33771D01*
X23463Y-33771D01*
X23458Y-33823D02*
X23461Y-33821D01*
X23463Y-33814D01*
X23463Y-33809D01*
X23461Y-33802D01*
X23456Y-33797D01*
X23451Y-33795D01*
X23442Y-33792D01*
X23434Y-33792D01*
X23425Y-33795D01*
X23420Y-33797D01*
X23415Y-33802D01*
X23413Y-33809D01*
X23413Y-33814D01*
X23415Y-33821D01*
X23418Y-33823D01*
X23418Y-33842D02*
X23415Y-33845D01*
X23413Y-33850D01*
X23413Y-33861D01*
X23415Y-33866D01*
X23418Y-33869D01*
X23423Y-33871D01*
X23427Y-33871D01*
X23434Y-33869D01*
X23463Y-33840D01*
X23463Y-33871D01*
X23430Y-33914D02*
X23463Y-33914D01*
X23411Y-33902D02*
X23446Y-33890D01*
X23446Y-33921D01*
X23413Y-33950D02*
X23413Y-33954D01*
X23415Y-33959D01*
X23418Y-33961D01*
X23423Y-33964D01*
X23432Y-33966D01*
X23444Y-33966D01*
X23454Y-33964D01*
X23458Y-33961D01*
X23461Y-33959D01*
X23463Y-33954D01*
X23463Y-33950D01*
X23461Y-33945D01*
X23458Y-33942D01*
X23454Y-33940D01*
X23444Y-33938D01*
X23432Y-33938D01*
X23423Y-33940D01*
X23418Y-33942D01*
X23415Y-33945D01*
X23413Y-33950D01*
X23413Y-33997D02*
X23413Y-34002D01*
X23415Y-34007D01*
X23418Y-34009D01*
X23423Y-34011D01*
X23432Y-34014D01*
X23444Y-34014D01*
X23454Y-34011D01*
X23458Y-34009D01*
X23461Y-34007D01*
X23463Y-34002D01*
X23463Y-33997D01*
X23461Y-33992D01*
X23458Y-33990D01*
X23454Y-33988D01*
X23444Y-33985D01*
X23432Y-33985D01*
X23423Y-33988D01*
X23418Y-33990D01*
X23415Y-33992D01*
X23413Y-33997D01*
X23413Y-34035D02*
X23454Y-34035D01*
X23458Y-34038D01*
X23461Y-34040D01*
X23463Y-34045D01*
X23463Y-34054D01*
X23461Y-34059D01*
X23458Y-34061D01*
X23454Y-34064D01*
X23413Y-34064D01*
X23413Y-34080D02*
X23463Y-34097D01*
X23413Y-34114D01*
G54D13*
X21802Y-26830D02*
X21802Y-26992D01*
X21792Y-27011D01*
X21783Y-27021D01*
X21764Y-27030D01*
X21726Y-27030D01*
X21707Y-27021D01*
X21697Y-27011D01*
X21688Y-26992D01*
X21688Y-26830D01*
X21583Y-27030D02*
X21545Y-27030D01*
X21526Y-27021D01*
X21516Y-27011D01*
X21497Y-26983D01*
X21488Y-26945D01*
X21488Y-26869D01*
X21497Y-26850D01*
X21507Y-26840D01*
X21526Y-26830D01*
X21564Y-26830D01*
X21583Y-26840D01*
X21592Y-26850D01*
X21602Y-26869D01*
X21602Y-26916D01*
X21592Y-26935D01*
X21583Y-26945D01*
X21564Y-26954D01*
X21526Y-26954D01*
X21507Y-26945D01*
X21497Y-26935D01*
X21488Y-26916D01*
G54D14*
X21613Y-27231D02*
X21563Y-27231D01*
X21563Y-27243D01*
X21565Y-27250D01*
X21570Y-27255D01*
X21575Y-27257D01*
X21584Y-27259D01*
X21591Y-27259D01*
X21601Y-27257D01*
X21606Y-27255D01*
X21610Y-27250D01*
X21613Y-27243D01*
X21613Y-27231D01*
X21613Y-27281D02*
X21563Y-27281D01*
X21598Y-27298D01*
X21563Y-27314D01*
X21613Y-27314D01*
X21608Y-27367D02*
X21610Y-27364D01*
X21613Y-27357D01*
X21613Y-27352D01*
X21610Y-27345D01*
X21606Y-27340D01*
X21601Y-27338D01*
X21591Y-27336D01*
X21584Y-27336D01*
X21575Y-27338D01*
X21570Y-27340D01*
X21565Y-27345D01*
X21563Y-27352D01*
X21563Y-27357D01*
X21565Y-27364D01*
X21567Y-27367D01*
X21567Y-27386D02*
X21565Y-27388D01*
X21563Y-27393D01*
X21563Y-27405D01*
X21565Y-27409D01*
X21567Y-27412D01*
X21572Y-27414D01*
X21577Y-27414D01*
X21584Y-27412D01*
X21613Y-27383D01*
X21613Y-27414D01*
X21579Y-27457D02*
X21613Y-27457D01*
X21560Y-27445D02*
X21596Y-27433D01*
X21596Y-27464D01*
X21563Y-27493D02*
X21563Y-27498D01*
X21565Y-27502D01*
X21567Y-27505D01*
X21572Y-27507D01*
X21582Y-27509D01*
X21594Y-27509D01*
X21603Y-27507D01*
X21608Y-27505D01*
X21610Y-27502D01*
X21613Y-27498D01*
X21613Y-27493D01*
X21610Y-27488D01*
X21608Y-27486D01*
X21603Y-27483D01*
X21594Y-27481D01*
X21582Y-27481D01*
X21572Y-27483D01*
X21567Y-27486D01*
X21565Y-27488D01*
X21563Y-27493D01*
X21563Y-27540D02*
X21563Y-27545D01*
X21565Y-27550D01*
X21567Y-27552D01*
X21572Y-27555D01*
X21582Y-27557D01*
X21594Y-27557D01*
X21603Y-27555D01*
X21608Y-27552D01*
X21610Y-27550D01*
X21613Y-27545D01*
X21613Y-27540D01*
X21610Y-27536D01*
X21608Y-27533D01*
X21603Y-27531D01*
X21594Y-27529D01*
X21582Y-27529D01*
X21572Y-27531D01*
X21567Y-27533D01*
X21565Y-27536D01*
X21563Y-27540D01*
X21563Y-27579D02*
X21603Y-27579D01*
X21608Y-27581D01*
X21610Y-27583D01*
X21613Y-27588D01*
X21613Y-27598D01*
X21610Y-27602D01*
X21608Y-27605D01*
X21603Y-27607D01*
X21563Y-27607D01*
X21563Y-27624D02*
X21613Y-27640D01*
X21563Y-27657D01*
G54D13*
X27752Y-28630D02*
X27752Y-28792D01*
X27742Y-28811D01*
X27733Y-28821D01*
X27714Y-28830D01*
X27676Y-28830D01*
X27657Y-28821D01*
X27647Y-28811D01*
X27638Y-28792D01*
X27638Y-28630D01*
X27514Y-28716D02*
X27533Y-28707D01*
X27542Y-28697D01*
X27552Y-28678D01*
X27552Y-28669D01*
X27542Y-28650D01*
X27533Y-28640D01*
X27514Y-28630D01*
X27476Y-28630D01*
X27457Y-28640D01*
X27447Y-28650D01*
X27438Y-28669D01*
X27438Y-28678D01*
X27447Y-28697D01*
X27457Y-28707D01*
X27476Y-28716D01*
X27514Y-28716D01*
X27533Y-28726D01*
X27542Y-28735D01*
X27552Y-28754D01*
X27552Y-28792D01*
X27542Y-28811D01*
X27533Y-28821D01*
X27514Y-28830D01*
X27476Y-28830D01*
X27457Y-28821D01*
X27447Y-28811D01*
X27438Y-28792D01*
X27438Y-28754D01*
X27447Y-28735D01*
X27457Y-28726D01*
X27476Y-28716D01*
G54D14*
X27518Y-29042D02*
X27468Y-29042D01*
X27468Y-29054D01*
X27471Y-29061D01*
X27475Y-29066D01*
X27480Y-29068D01*
X27490Y-29071D01*
X27497Y-29071D01*
X27506Y-29068D01*
X27511Y-29066D01*
X27516Y-29061D01*
X27518Y-29054D01*
X27518Y-29042D01*
X27518Y-29092D02*
X27468Y-29092D01*
X27504Y-29109D01*
X27468Y-29125D01*
X27518Y-29125D01*
X27513Y-29178D02*
X27516Y-29175D01*
X27518Y-29168D01*
X27518Y-29163D01*
X27516Y-29156D01*
X27511Y-29151D01*
X27506Y-29149D01*
X27497Y-29147D01*
X27490Y-29147D01*
X27480Y-29149D01*
X27475Y-29151D01*
X27471Y-29156D01*
X27468Y-29163D01*
X27468Y-29168D01*
X27471Y-29175D01*
X27473Y-29178D01*
X27473Y-29197D02*
X27471Y-29199D01*
X27468Y-29204D01*
X27468Y-29216D01*
X27471Y-29221D01*
X27473Y-29223D01*
X27478Y-29225D01*
X27482Y-29225D01*
X27490Y-29223D01*
X27518Y-29194D01*
X27518Y-29225D01*
X27485Y-29268D02*
X27518Y-29268D01*
X27466Y-29256D02*
X27501Y-29244D01*
X27501Y-29275D01*
X27468Y-29304D02*
X27468Y-29309D01*
X27471Y-29313D01*
X27473Y-29316D01*
X27478Y-29318D01*
X27487Y-29321D01*
X27499Y-29321D01*
X27509Y-29318D01*
X27513Y-29316D01*
X27516Y-29313D01*
X27518Y-29309D01*
X27518Y-29304D01*
X27516Y-29299D01*
X27513Y-29297D01*
X27509Y-29294D01*
X27499Y-29292D01*
X27487Y-29292D01*
X27478Y-29294D01*
X27473Y-29297D01*
X27471Y-29299D01*
X27468Y-29304D01*
X27468Y-29351D02*
X27468Y-29356D01*
X27471Y-29361D01*
X27473Y-29363D01*
X27478Y-29366D01*
X27487Y-29368D01*
X27499Y-29368D01*
X27509Y-29366D01*
X27513Y-29363D01*
X27516Y-29361D01*
X27518Y-29356D01*
X27518Y-29351D01*
X27516Y-29347D01*
X27513Y-29344D01*
X27509Y-29342D01*
X27499Y-29340D01*
X27487Y-29340D01*
X27478Y-29342D01*
X27473Y-29344D01*
X27471Y-29347D01*
X27468Y-29351D01*
X27468Y-29390D02*
X27509Y-29390D01*
X27513Y-29392D01*
X27516Y-29394D01*
X27518Y-29399D01*
X27518Y-29409D01*
X27516Y-29413D01*
X27513Y-29416D01*
X27509Y-29418D01*
X27468Y-29418D01*
X27468Y-29435D02*
X27518Y-29451D01*
X27468Y-29468D01*
G54D13*
X27702Y-27280D02*
X27702Y-27442D01*
X27692Y-27461D01*
X27683Y-27471D01*
X27664Y-27480D01*
X27626Y-27480D01*
X27607Y-27471D01*
X27597Y-27461D01*
X27588Y-27442D01*
X27588Y-27280D01*
X27511Y-27280D02*
X27378Y-27280D01*
X27464Y-27480D01*
G54D14*
X27479Y-27664D02*
X27429Y-27664D01*
X27429Y-27676D01*
X27431Y-27683D01*
X27436Y-27688D01*
X27441Y-27690D01*
X27450Y-27693D01*
X27457Y-27693D01*
X27467Y-27690D01*
X27472Y-27688D01*
X27476Y-27683D01*
X27479Y-27676D01*
X27479Y-27664D01*
X27479Y-27714D02*
X27429Y-27714D01*
X27465Y-27731D01*
X27429Y-27747D01*
X27479Y-27747D01*
X27474Y-27800D02*
X27476Y-27797D01*
X27479Y-27790D01*
X27479Y-27785D01*
X27476Y-27778D01*
X27472Y-27774D01*
X27467Y-27771D01*
X27457Y-27769D01*
X27450Y-27769D01*
X27441Y-27771D01*
X27436Y-27774D01*
X27431Y-27778D01*
X27429Y-27785D01*
X27429Y-27790D01*
X27431Y-27797D01*
X27434Y-27800D01*
X27434Y-27819D02*
X27431Y-27821D01*
X27429Y-27826D01*
X27429Y-27838D01*
X27431Y-27843D01*
X27434Y-27845D01*
X27438Y-27847D01*
X27443Y-27847D01*
X27450Y-27845D01*
X27479Y-27816D01*
X27479Y-27847D01*
X27445Y-27890D02*
X27479Y-27890D01*
X27426Y-27878D02*
X27462Y-27866D01*
X27462Y-27897D01*
X27429Y-27926D02*
X27429Y-27931D01*
X27431Y-27935D01*
X27434Y-27938D01*
X27438Y-27940D01*
X27448Y-27943D01*
X27460Y-27943D01*
X27469Y-27940D01*
X27474Y-27938D01*
X27476Y-27935D01*
X27479Y-27931D01*
X27479Y-27926D01*
X27476Y-27921D01*
X27474Y-27919D01*
X27469Y-27916D01*
X27460Y-27914D01*
X27448Y-27914D01*
X27438Y-27916D01*
X27434Y-27919D01*
X27431Y-27921D01*
X27429Y-27926D01*
X27429Y-27974D02*
X27429Y-27978D01*
X27431Y-27983D01*
X27434Y-27985D01*
X27438Y-27988D01*
X27448Y-27990D01*
X27460Y-27990D01*
X27469Y-27988D01*
X27474Y-27985D01*
X27476Y-27983D01*
X27479Y-27978D01*
X27479Y-27974D01*
X27476Y-27969D01*
X27474Y-27966D01*
X27469Y-27964D01*
X27460Y-27962D01*
X27448Y-27962D01*
X27438Y-27964D01*
X27434Y-27966D01*
X27431Y-27969D01*
X27429Y-27974D01*
X27429Y-28012D02*
X27469Y-28012D01*
X27474Y-28014D01*
X27476Y-28016D01*
X27479Y-28021D01*
X27479Y-28031D01*
X27476Y-28035D01*
X27474Y-28038D01*
X27469Y-28040D01*
X27429Y-28040D01*
X27429Y-28057D02*
X27479Y-28074D01*
X27429Y-28090D01*
G54D13*
X27752Y-26080D02*
X27752Y-26242D01*
X27742Y-26261D01*
X27733Y-26271D01*
X27714Y-26280D01*
X27676Y-26280D01*
X27657Y-26271D01*
X27647Y-26261D01*
X27638Y-26242D01*
X27638Y-26080D01*
X27457Y-26080D02*
X27495Y-26080D01*
X27514Y-26090D01*
X27523Y-26100D01*
X27542Y-26128D01*
X27552Y-26166D01*
X27552Y-26242D01*
X27542Y-26261D01*
X27533Y-26271D01*
X27514Y-26280D01*
X27476Y-26280D01*
X27457Y-26271D01*
X27447Y-26261D01*
X27438Y-26242D01*
X27438Y-26195D01*
X27447Y-26176D01*
X27457Y-26166D01*
X27476Y-26157D01*
X27514Y-26157D01*
X27533Y-26166D01*
X27542Y-26176D01*
X27552Y-26195D01*
G54D14*
X27518Y-26444D02*
X27468Y-26444D01*
X27468Y-26455D01*
X27471Y-26463D01*
X27475Y-26467D01*
X27480Y-26470D01*
X27490Y-26472D01*
X27497Y-26472D01*
X27506Y-26470D01*
X27511Y-26467D01*
X27516Y-26463D01*
X27518Y-26455D01*
X27518Y-26444D01*
X27518Y-26494D02*
X27468Y-26494D01*
X27504Y-26510D01*
X27468Y-26527D01*
X27518Y-26527D01*
X27513Y-26579D02*
X27516Y-26577D01*
X27518Y-26570D01*
X27518Y-26565D01*
X27516Y-26558D01*
X27511Y-26553D01*
X27506Y-26551D01*
X27497Y-26548D01*
X27490Y-26548D01*
X27480Y-26551D01*
X27475Y-26553D01*
X27471Y-26558D01*
X27468Y-26565D01*
X27468Y-26570D01*
X27471Y-26577D01*
X27473Y-26579D01*
X27473Y-26598D02*
X27471Y-26601D01*
X27468Y-26605D01*
X27468Y-26617D01*
X27471Y-26622D01*
X27473Y-26624D01*
X27478Y-26627D01*
X27482Y-26627D01*
X27490Y-26624D01*
X27518Y-26596D01*
X27518Y-26627D01*
X27485Y-26670D02*
X27518Y-26670D01*
X27466Y-26658D02*
X27501Y-26646D01*
X27501Y-26677D01*
X27468Y-26705D02*
X27468Y-26710D01*
X27471Y-26715D01*
X27473Y-26717D01*
X27478Y-26720D01*
X27487Y-26722D01*
X27499Y-26722D01*
X27509Y-26720D01*
X27513Y-26717D01*
X27516Y-26715D01*
X27518Y-26710D01*
X27518Y-26705D01*
X27516Y-26701D01*
X27513Y-26698D01*
X27509Y-26696D01*
X27499Y-26694D01*
X27487Y-26694D01*
X27478Y-26696D01*
X27473Y-26698D01*
X27471Y-26701D01*
X27468Y-26705D01*
X27468Y-26753D02*
X27468Y-26758D01*
X27471Y-26763D01*
X27473Y-26765D01*
X27478Y-26767D01*
X27487Y-26770D01*
X27499Y-26770D01*
X27509Y-26767D01*
X27513Y-26765D01*
X27516Y-26763D01*
X27518Y-26758D01*
X27518Y-26753D01*
X27516Y-26748D01*
X27513Y-26746D01*
X27509Y-26744D01*
X27499Y-26741D01*
X27487Y-26741D01*
X27478Y-26744D01*
X27473Y-26746D01*
X27471Y-26748D01*
X27468Y-26753D01*
X27468Y-26791D02*
X27509Y-26791D01*
X27513Y-26794D01*
X27516Y-26796D01*
X27518Y-26801D01*
X27518Y-26810D01*
X27516Y-26815D01*
X27513Y-26817D01*
X27509Y-26820D01*
X27468Y-26820D01*
X27468Y-26836D02*
X27518Y-26853D01*
X27468Y-26870D01*
G54D13*
X27742Y-24500D02*
X27742Y-24662D01*
X27732Y-24681D01*
X27723Y-24691D01*
X27704Y-24700D01*
X27666Y-24700D01*
X27647Y-24691D01*
X27637Y-24681D01*
X27628Y-24662D01*
X27628Y-24500D01*
X27437Y-24500D02*
X27532Y-24500D01*
X27542Y-24596D01*
X27532Y-24586D01*
X27513Y-24577D01*
X27466Y-24577D01*
X27447Y-24586D01*
X27437Y-24596D01*
X27428Y-24615D01*
X27428Y-24662D01*
X27437Y-24681D01*
X27447Y-24691D01*
X27466Y-24700D01*
X27513Y-24700D01*
X27532Y-24691D01*
X27542Y-24681D01*
G54D14*
X27518Y-24869D02*
X27468Y-24869D01*
X27468Y-24881D01*
X27471Y-24888D01*
X27475Y-24893D01*
X27480Y-24895D01*
X27490Y-24897D01*
X27497Y-24897D01*
X27506Y-24895D01*
X27511Y-24893D01*
X27516Y-24888D01*
X27518Y-24881D01*
X27518Y-24869D01*
X27518Y-24919D02*
X27468Y-24919D01*
X27504Y-24935D01*
X27468Y-24952D01*
X27518Y-24952D01*
X27513Y-25004D02*
X27516Y-25002D01*
X27518Y-24995D01*
X27518Y-24990D01*
X27516Y-24983D01*
X27511Y-24978D01*
X27506Y-24976D01*
X27497Y-24973D01*
X27490Y-24973D01*
X27480Y-24976D01*
X27475Y-24978D01*
X27471Y-24983D01*
X27468Y-24990D01*
X27468Y-24995D01*
X27471Y-25002D01*
X27473Y-25004D01*
X27473Y-25023D02*
X27471Y-25026D01*
X27468Y-25031D01*
X27468Y-25043D01*
X27471Y-25047D01*
X27473Y-25050D01*
X27478Y-25052D01*
X27482Y-25052D01*
X27490Y-25050D01*
X27518Y-25021D01*
X27518Y-25052D01*
X27485Y-25095D02*
X27518Y-25095D01*
X27466Y-25083D02*
X27501Y-25071D01*
X27501Y-25102D01*
X27468Y-25131D02*
X27468Y-25135D01*
X27471Y-25140D01*
X27473Y-25143D01*
X27478Y-25145D01*
X27487Y-25147D01*
X27499Y-25147D01*
X27509Y-25145D01*
X27513Y-25143D01*
X27516Y-25140D01*
X27518Y-25135D01*
X27518Y-25131D01*
X27516Y-25126D01*
X27513Y-25123D01*
X27509Y-25121D01*
X27499Y-25119D01*
X27487Y-25119D01*
X27478Y-25121D01*
X27473Y-25123D01*
X27471Y-25126D01*
X27468Y-25131D01*
X27468Y-25178D02*
X27468Y-25183D01*
X27471Y-25188D01*
X27473Y-25190D01*
X27478Y-25193D01*
X27487Y-25195D01*
X27499Y-25195D01*
X27509Y-25193D01*
X27513Y-25190D01*
X27516Y-25188D01*
X27518Y-25183D01*
X27518Y-25178D01*
X27516Y-25173D01*
X27513Y-25171D01*
X27509Y-25169D01*
X27499Y-25166D01*
X27487Y-25166D01*
X27478Y-25169D01*
X27473Y-25171D01*
X27471Y-25173D01*
X27468Y-25178D01*
X27468Y-25216D02*
X27509Y-25216D01*
X27513Y-25219D01*
X27516Y-25221D01*
X27518Y-25226D01*
X27518Y-25235D01*
X27516Y-25240D01*
X27513Y-25243D01*
X27509Y-25245D01*
X27468Y-25245D01*
X27468Y-25262D02*
X27518Y-25278D01*
X27468Y-25295D01*
G54D13*
X21852Y-22380D02*
X21852Y-22542D01*
X21842Y-22561D01*
X21833Y-22571D01*
X21814Y-22580D01*
X21776Y-22580D01*
X21757Y-22571D01*
X21747Y-22561D01*
X21738Y-22542D01*
X21738Y-22380D01*
X21557Y-22447D02*
X21557Y-22580D01*
X21604Y-22371D02*
X21652Y-22514D01*
X21528Y-22514D01*
G54D14*
X21813Y-22743D02*
X21763Y-22743D01*
X21763Y-22755D01*
X21765Y-22762D01*
X21770Y-22767D01*
X21775Y-22769D01*
X21784Y-22771D01*
X21791Y-22771D01*
X21801Y-22769D01*
X21806Y-22767D01*
X21810Y-22762D01*
X21813Y-22755D01*
X21813Y-22743D01*
X21813Y-22793D02*
X21763Y-22793D01*
X21798Y-22809D01*
X21763Y-22826D01*
X21813Y-22826D01*
X21808Y-22878D02*
X21810Y-22876D01*
X21813Y-22869D01*
X21813Y-22864D01*
X21810Y-22857D01*
X21806Y-22852D01*
X21801Y-22850D01*
X21791Y-22847D01*
X21784Y-22847D01*
X21775Y-22850D01*
X21770Y-22852D01*
X21765Y-22857D01*
X21763Y-22864D01*
X21763Y-22869D01*
X21765Y-22876D01*
X21767Y-22878D01*
X21767Y-22897D02*
X21765Y-22900D01*
X21763Y-22905D01*
X21763Y-22917D01*
X21765Y-22921D01*
X21767Y-22924D01*
X21772Y-22926D01*
X21777Y-22926D01*
X21784Y-22924D01*
X21813Y-22895D01*
X21813Y-22926D01*
X21779Y-22969D02*
X21813Y-22969D01*
X21760Y-22957D02*
X21796Y-22945D01*
X21796Y-22976D01*
X21763Y-23005D02*
X21763Y-23009D01*
X21765Y-23014D01*
X21767Y-23017D01*
X21772Y-23019D01*
X21782Y-23021D01*
X21794Y-23021D01*
X21803Y-23019D01*
X21808Y-23017D01*
X21810Y-23014D01*
X21813Y-23009D01*
X21813Y-23005D01*
X21810Y-23000D01*
X21808Y-22997D01*
X21803Y-22995D01*
X21794Y-22993D01*
X21782Y-22993D01*
X21772Y-22995D01*
X21767Y-22997D01*
X21765Y-23000D01*
X21763Y-23005D01*
X21763Y-23052D02*
X21763Y-23057D01*
X21765Y-23062D01*
X21767Y-23064D01*
X21772Y-23067D01*
X21782Y-23069D01*
X21794Y-23069D01*
X21803Y-23067D01*
X21808Y-23064D01*
X21810Y-23062D01*
X21813Y-23057D01*
X21813Y-23052D01*
X21810Y-23047D01*
X21808Y-23045D01*
X21803Y-23043D01*
X21794Y-23040D01*
X21782Y-23040D01*
X21772Y-23043D01*
X21767Y-23045D01*
X21765Y-23047D01*
X21763Y-23052D01*
X21763Y-23090D02*
X21803Y-23090D01*
X21808Y-23093D01*
X21810Y-23095D01*
X21813Y-23100D01*
X21813Y-23109D01*
X21810Y-23114D01*
X21808Y-23117D01*
X21803Y-23119D01*
X21763Y-23119D01*
X21763Y-23136D02*
X21813Y-23152D01*
X21763Y-23169D01*
G54D13*
X21852Y-21630D02*
X21852Y-21792D01*
X21842Y-21811D01*
X21833Y-21821D01*
X21814Y-21830D01*
X21776Y-21830D01*
X21757Y-21821D01*
X21747Y-21811D01*
X21738Y-21792D01*
X21738Y-21630D01*
X21652Y-21650D02*
X21642Y-21640D01*
X21623Y-21630D01*
X21576Y-21630D01*
X21557Y-21640D01*
X21547Y-21650D01*
X21538Y-21669D01*
X21538Y-21688D01*
X21547Y-21716D01*
X21661Y-21830D01*
X21538Y-21830D01*
G54D14*
X21652Y-21010D02*
X21602Y-21010D01*
X21602Y-21022D01*
X21604Y-21029D01*
X21609Y-21034D01*
X21614Y-21037D01*
X21623Y-21039D01*
X21631Y-21039D01*
X21640Y-21037D01*
X21645Y-21034D01*
X21650Y-21029D01*
X21652Y-21022D01*
X21652Y-21010D01*
X21652Y-21060D02*
X21602Y-21060D01*
X21638Y-21077D01*
X21602Y-21094D01*
X21652Y-21094D01*
X21647Y-21146D02*
X21650Y-21144D01*
X21652Y-21137D01*
X21652Y-21132D01*
X21650Y-21125D01*
X21645Y-21120D01*
X21640Y-21118D01*
X21631Y-21115D01*
X21623Y-21115D01*
X21614Y-21118D01*
X21609Y-21120D01*
X21604Y-21125D01*
X21602Y-21132D01*
X21602Y-21137D01*
X21604Y-21144D01*
X21607Y-21146D01*
X21607Y-21165D02*
X21604Y-21168D01*
X21602Y-21172D01*
X21602Y-21184D01*
X21604Y-21189D01*
X21607Y-21191D01*
X21612Y-21194D01*
X21616Y-21194D01*
X21623Y-21191D01*
X21652Y-21163D01*
X21652Y-21194D01*
X21619Y-21237D02*
X21652Y-21237D01*
X21600Y-21225D02*
X21635Y-21213D01*
X21635Y-21244D01*
X21602Y-21272D02*
X21602Y-21277D01*
X21604Y-21282D01*
X21607Y-21284D01*
X21612Y-21287D01*
X21621Y-21289D01*
X21633Y-21289D01*
X21642Y-21287D01*
X21647Y-21284D01*
X21650Y-21282D01*
X21652Y-21277D01*
X21652Y-21272D01*
X21650Y-21268D01*
X21647Y-21265D01*
X21642Y-21263D01*
X21633Y-21260D01*
X21621Y-21260D01*
X21612Y-21263D01*
X21607Y-21265D01*
X21604Y-21268D01*
X21602Y-21272D01*
X21602Y-21320D02*
X21602Y-21325D01*
X21604Y-21329D01*
X21607Y-21332D01*
X21612Y-21334D01*
X21621Y-21337D01*
X21633Y-21337D01*
X21642Y-21334D01*
X21647Y-21332D01*
X21650Y-21329D01*
X21652Y-21325D01*
X21652Y-21320D01*
X21650Y-21315D01*
X21647Y-21313D01*
X21642Y-21310D01*
X21633Y-21308D01*
X21621Y-21308D01*
X21612Y-21310D01*
X21607Y-21313D01*
X21604Y-21315D01*
X21602Y-21320D01*
X21602Y-21358D02*
X21642Y-21358D01*
X21647Y-21360D01*
X21650Y-21363D01*
X21652Y-21368D01*
X21652Y-21377D01*
X21650Y-21382D01*
X21647Y-21384D01*
X21642Y-21387D01*
X21602Y-21387D01*
X21602Y-21403D02*
X21652Y-21420D01*
X21602Y-21437D01*
M02*
