G04 (created by PCBNEW (2013-jul-07)-stable) date Tue 09 Aug 2016 05:48:41 PM PDT*
%MOIN*%
G04 Gerber Fmt 3.4, Leading zero omitted, Abs format*
%FSLAX34Y34*%
G01*
G70*
G90*
G04 APERTURE LIST*
%ADD10C,0.00590551*%
%ADD11R,0.06X0.06*%
%ADD12C,0.06*%
%ADD13C,0.065*%
%ADD14C,0.02*%
%ADD15C,0.007*%
G04 APERTURE END LIST*
G54D10*
G54D11*
X21744Y-24500D03*
G54D12*
X21744Y-25500D03*
X22744Y-24500D03*
X22744Y-25500D03*
G54D11*
X21744Y-30799D03*
G54D12*
X21744Y-31799D03*
X22744Y-30799D03*
X22744Y-31799D03*
G54D11*
X32374Y-24500D03*
G54D12*
X32374Y-25500D03*
X33374Y-24500D03*
X33374Y-25500D03*
G54D11*
X32374Y-30799D03*
G54D12*
X32374Y-31799D03*
X33374Y-30799D03*
X33374Y-31799D03*
G54D13*
X28543Y-28051D03*
X28543Y-29035D03*
X28543Y-30019D03*
X28543Y-31003D03*
X28543Y-31988D03*
X28543Y-32972D03*
X28543Y-33956D03*
X28543Y-34940D03*
X34448Y-34940D03*
X34448Y-33956D03*
X34448Y-32972D03*
X34448Y-31988D03*
X34448Y-31003D03*
X34448Y-30019D03*
X34448Y-29035D03*
X34448Y-28051D03*
X28543Y-20177D03*
X28543Y-21161D03*
X28543Y-22145D03*
X28543Y-23129D03*
X28543Y-24114D03*
X28543Y-25098D03*
X28543Y-26082D03*
X28543Y-27066D03*
X34448Y-27066D03*
X34448Y-26082D03*
X34448Y-25098D03*
X34448Y-24114D03*
X34448Y-23129D03*
X34448Y-22145D03*
X34448Y-21161D03*
X34448Y-20177D03*
X20669Y-28051D03*
X20669Y-29035D03*
X20669Y-30019D03*
X20669Y-31003D03*
X20669Y-31988D03*
X20669Y-32972D03*
X20669Y-33956D03*
X20669Y-34940D03*
X26574Y-34940D03*
X26574Y-33956D03*
X26574Y-32972D03*
X26574Y-31988D03*
X26574Y-31003D03*
X26574Y-30019D03*
X26574Y-29035D03*
X26574Y-28051D03*
X20669Y-20177D03*
X20669Y-21161D03*
X20669Y-22145D03*
X20669Y-23129D03*
X20669Y-24114D03*
X20669Y-25098D03*
X20669Y-26082D03*
X20669Y-27066D03*
X26574Y-27066D03*
X26574Y-26082D03*
X26574Y-25098D03*
X26574Y-24114D03*
X26574Y-23129D03*
X26574Y-22145D03*
X26574Y-21161D03*
X26574Y-20177D03*
G54D14*
X24212Y-23655D03*
X30500Y-34818D03*
X27313Y-32568D03*
X27433Y-35208D03*
X31145Y-27151D03*
X27393Y-28336D03*
X27272Y-31201D03*
X24704Y-27325D03*
X22095Y-28028D03*
X29168Y-27050D03*
X24181Y-32913D03*
X27410Y-26211D03*
X29981Y-22928D03*
X27615Y-28908D03*
X30386Y-23292D03*
X25463Y-20717D03*
X23730Y-23656D03*
X27440Y-30339D03*
X23720Y-30021D03*
X29648Y-20929D03*
X30807Y-23679D03*
X33361Y-27558D03*
X30832Y-29953D03*
X27354Y-21904D03*
X25637Y-23031D03*
X25283Y-32442D03*
X25268Y-29551D03*
X32810Y-20743D03*
X32607Y-23100D03*
X32755Y-34217D03*
X32419Y-30093D03*
X25924Y-21722D03*
X25547Y-28347D03*
X32606Y-22028D03*
X32270Y-27730D03*
X32283Y-21430D03*
X25184Y-27730D03*
X25519Y-21586D03*
X25637Y-21851D03*
X25451Y-27380D03*
X32612Y-21605D03*
X29728Y-25432D03*
X22690Y-22440D03*
X29759Y-22562D03*
X22839Y-28773D03*
X29693Y-29064D03*
X31102Y-34997D03*
X23121Y-20586D03*
X23737Y-27321D03*
X30242Y-20573D03*
X30176Y-26723D03*
X22887Y-21253D03*
X29690Y-21369D03*
X27571Y-29874D03*
X22896Y-27911D03*
X30063Y-23610D03*
X29985Y-21593D03*
X29219Y-29336D03*
X23001Y-33493D03*
X29595Y-24131D03*
X27862Y-32569D03*
X22245Y-22078D03*
X22001Y-29014D03*
X29115Y-22185D03*
X27842Y-24146D03*
X26304Y-24668D03*
X22863Y-21947D03*
X22860Y-28363D03*
X29958Y-22050D03*
X29960Y-28347D03*
X27986Y-25525D03*
X27496Y-33450D03*
X33113Y-20063D03*
X26079Y-25213D03*
X22869Y-22233D03*
X22627Y-28571D03*
X29809Y-22284D03*
X29735Y-28771D03*
X27953Y-27097D03*
X25824Y-22467D03*
X26311Y-34495D03*
X25523Y-28764D03*
X32647Y-22452D03*
X32662Y-33664D03*
X32814Y-28767D03*
X27224Y-27421D03*
X27802Y-35251D03*
X31698Y-26614D03*
X25625Y-22274D03*
X32818Y-26130D03*
X32817Y-22237D03*
X31170Y-33755D03*
X32745Y-28495D03*
X27192Y-28628D03*
X31764Y-34394D03*
X25269Y-21411D03*
X31998Y-21030D03*
X31988Y-26415D03*
X23862Y-33393D03*
X27197Y-34213D03*
X30422Y-19866D03*
X21640Y-20748D03*
X27551Y-31560D03*
X23898Y-20449D03*
X27603Y-21194D03*
X21975Y-26895D03*
X30930Y-25789D03*
X25031Y-31708D03*
X30514Y-20239D03*
X25909Y-32349D03*
X25814Y-33658D03*
X25639Y-26540D03*
G54D15*
X30177Y-34496D02*
X28068Y-34496D01*
X30500Y-34818D02*
X30177Y-34496D01*
X27433Y-35131D02*
X27433Y-35208D01*
X28068Y-34496D02*
X27433Y-35131D01*
X28068Y-33323D02*
X27313Y-32568D01*
X28068Y-34496D02*
X28068Y-33323D01*
X27415Y-28336D02*
X27393Y-28336D01*
X24704Y-27710D02*
X25134Y-28139D01*
X24704Y-27325D02*
X24704Y-27710D01*
X24212Y-26833D02*
X24704Y-27325D01*
X24212Y-23655D02*
X24212Y-26833D01*
X28659Y-27559D02*
X29168Y-27050D01*
X28192Y-27559D02*
X28659Y-27559D01*
X27415Y-28336D02*
X28192Y-27559D01*
X27277Y-28833D02*
X27235Y-28833D01*
X27415Y-28696D02*
X27277Y-28833D01*
X27415Y-28336D02*
X27415Y-28696D01*
X25696Y-28139D02*
X25134Y-28139D01*
X26095Y-28538D02*
X25696Y-28139D01*
X26812Y-28538D02*
X26095Y-28538D01*
X27107Y-28833D02*
X26812Y-28538D01*
X27235Y-28833D02*
X27107Y-28833D01*
X27272Y-32526D02*
X27272Y-31201D01*
X27313Y-32568D02*
X27272Y-32526D01*
X27235Y-31165D02*
X27272Y-31201D01*
X27235Y-28833D02*
X27235Y-31165D01*
X25250Y-31843D02*
X24181Y-32913D01*
X25250Y-30262D02*
X25250Y-31843D01*
X25055Y-30066D02*
X25250Y-30262D01*
X25055Y-28218D02*
X25055Y-30066D01*
X25134Y-28139D02*
X25055Y-28218D01*
X29849Y-23060D02*
X29981Y-22928D01*
X29849Y-24401D02*
X29849Y-23060D01*
X28660Y-25590D02*
X29849Y-24401D01*
X28314Y-25590D02*
X28660Y-25590D01*
X27693Y-26211D02*
X28314Y-25590D01*
X27410Y-26211D02*
X27693Y-26211D01*
X30386Y-26827D02*
X30386Y-23292D01*
X28671Y-28543D02*
X30386Y-26827D01*
X27980Y-28543D02*
X28671Y-28543D01*
X27615Y-28908D02*
X27980Y-28543D01*
X23730Y-22450D02*
X25463Y-20717D01*
X23730Y-23656D02*
X23730Y-22450D01*
X30807Y-22087D02*
X29648Y-20929D01*
X30807Y-23679D02*
X30807Y-22087D01*
X33227Y-27558D02*
X33361Y-27558D01*
X30832Y-29953D02*
X33227Y-27558D01*
X26014Y-22654D02*
X25637Y-23031D01*
X26682Y-22654D02*
X26014Y-22654D01*
X27354Y-21982D02*
X26682Y-22654D01*
X27354Y-21904D02*
X27354Y-21982D01*
X25407Y-29689D02*
X25268Y-29551D01*
X25407Y-32318D02*
X25407Y-29689D01*
X25283Y-32442D02*
X25407Y-32318D01*
X32874Y-30547D02*
X32419Y-30093D01*
X32874Y-34099D02*
X32874Y-30547D01*
X32755Y-34217D02*
X32874Y-34099D01*
X23199Y-24500D02*
X22744Y-24500D01*
X23971Y-23728D02*
X23199Y-24500D01*
X23971Y-22414D02*
X23971Y-23728D01*
X25191Y-21193D02*
X23971Y-22414D01*
X25423Y-21193D02*
X25191Y-21193D01*
X25924Y-21694D02*
X25423Y-21193D01*
X25924Y-21722D02*
X25924Y-21694D01*
X31968Y-22666D02*
X32606Y-22028D01*
X31968Y-25094D02*
X31968Y-22666D01*
X32374Y-25500D02*
X31968Y-25094D01*
X31827Y-21885D02*
X32283Y-21430D01*
X31827Y-25862D02*
X31827Y-21885D01*
X32270Y-26306D02*
X31827Y-25862D01*
X32270Y-27730D02*
X32270Y-26306D01*
X25184Y-21921D02*
X25519Y-21586D01*
X25184Y-27730D02*
X25184Y-21921D01*
X25417Y-27346D02*
X25451Y-27380D01*
X25417Y-22071D02*
X25417Y-27346D01*
X25637Y-21851D02*
X25417Y-22071D01*
X22336Y-22794D02*
X22690Y-22440D01*
X22336Y-25092D02*
X22336Y-22794D01*
X22744Y-25500D02*
X22336Y-25092D01*
X23153Y-29088D02*
X22839Y-28773D01*
X23153Y-31389D02*
X23153Y-29088D01*
X22744Y-31799D02*
X23153Y-31389D01*
X31552Y-34547D02*
X31102Y-34997D01*
X31552Y-32026D02*
X31552Y-34547D01*
X32374Y-31204D02*
X31552Y-32026D01*
X32374Y-30799D02*
X32374Y-31204D01*
X30063Y-23312D02*
X30063Y-23610D01*
X30186Y-23189D02*
X30063Y-23312D01*
X30186Y-21794D02*
X30186Y-23189D01*
X29985Y-21593D02*
X30186Y-21794D01*
X22244Y-32736D02*
X23001Y-33493D01*
X22244Y-31724D02*
X22244Y-32736D01*
X21864Y-31344D02*
X22244Y-31724D01*
X21534Y-31344D02*
X21864Y-31344D01*
X21194Y-31004D02*
X21534Y-31344D01*
X21194Y-30544D02*
X21194Y-31004D01*
X20669Y-30019D02*
X21194Y-30544D01*
X29595Y-23197D02*
X29595Y-24131D01*
X28543Y-22145D02*
X29595Y-23197D01*
X27862Y-32569D02*
X27862Y-32569D01*
X27862Y-30700D02*
X27862Y-32569D01*
X28543Y-30019D02*
X27862Y-30700D01*
X27842Y-23830D02*
X27842Y-24146D01*
X28543Y-23129D02*
X27842Y-23830D01*
X26574Y-24114D02*
X27986Y-25525D01*
X26574Y-32170D02*
X26574Y-31988D01*
X27496Y-33091D02*
X26574Y-32170D01*
X27496Y-33450D02*
X27496Y-33091D01*
X33113Y-22778D02*
X34448Y-24114D01*
X33113Y-20063D02*
X33113Y-22778D01*
X27106Y-26250D02*
X27953Y-27097D01*
X27106Y-25630D02*
X27106Y-26250D01*
X26574Y-25098D02*
X27106Y-25630D01*
X25563Y-33747D02*
X26311Y-34495D01*
X25563Y-28804D02*
X25563Y-33747D01*
X25523Y-28764D02*
X25563Y-28804D01*
X27224Y-26732D02*
X27224Y-27421D01*
X26574Y-26082D02*
X27224Y-26732D01*
X32858Y-22279D02*
X32817Y-22237D01*
X32858Y-26090D02*
X32858Y-22279D01*
X32818Y-26130D02*
X32858Y-26090D01*
X31170Y-30070D02*
X32745Y-28495D01*
X31170Y-33755D02*
X31170Y-30070D01*
X27188Y-28624D02*
X27192Y-28628D01*
X27188Y-27680D02*
X27188Y-28624D01*
X26574Y-27066D02*
X27188Y-27680D01*
X31678Y-26105D02*
X31988Y-26415D01*
X31678Y-21350D02*
X31678Y-26105D01*
X31998Y-21030D02*
X31678Y-21350D01*
X28085Y-20712D02*
X29923Y-20712D01*
X27603Y-21194D02*
X28085Y-20712D01*
X29923Y-20364D02*
X30422Y-19866D01*
X29923Y-20712D02*
X29923Y-20364D01*
X27077Y-20669D02*
X27603Y-21194D01*
X25714Y-20669D02*
X27077Y-20669D01*
X25494Y-20449D02*
X25714Y-20669D01*
X23898Y-20449D02*
X25494Y-20449D01*
X31029Y-21817D02*
X29923Y-20712D01*
X31029Y-25691D02*
X31029Y-21817D01*
X30930Y-25789D02*
X31029Y-25691D01*
X25909Y-31038D02*
X25909Y-32349D01*
X26435Y-30511D02*
X25909Y-31038D01*
X26710Y-30511D02*
X26435Y-30511D01*
X27013Y-30208D02*
X26710Y-30511D01*
X27013Y-29474D02*
X27013Y-30208D01*
X26574Y-29035D02*
X27013Y-29474D01*
X25703Y-33547D02*
X25814Y-33658D01*
X25703Y-30890D02*
X25703Y-33547D01*
X26574Y-30019D02*
X25703Y-30890D01*
M02*
