G04 (created by PCBNEW (2013-jul-07)-stable) date Tue 06 Dec 2016 12:22:59 PM PST*
%MOIN*%
G04 Gerber Fmt 3.4, Leading zero omitted, Abs format*
%FSLAX34Y34*%
G01*
G70*
G90*
G04 APERTURE LIST*
%ADD10C,0.00590551*%
%ADD11R,0.025X0.045*%
%ADD12R,0.0197X0.0512*%
%ADD13R,0.045X0.025*%
%ADD14R,0.03X0.01*%
%ADD15R,0.01X0.03*%
%ADD16R,0.1181X0.1181*%
%ADD17R,0.06X0.06*%
%ADD18C,0.06*%
%ADD19C,0.065*%
%ADD20R,0.019685X0.0147638*%
%ADD21C,0.02*%
%ADD22C,0.007*%
G04 APERTURE END LIST*
G54D10*
G54D11*
X24670Y-20039D03*
X24070Y-20039D03*
G54D12*
X25039Y-24763D03*
X25511Y-24763D03*
X24567Y-24763D03*
X25275Y-31220D03*
X25747Y-31220D03*
X24803Y-31220D03*
X30905Y-25118D03*
X31377Y-25118D03*
X30433Y-25118D03*
X30984Y-31299D03*
X31456Y-31299D03*
X30512Y-31299D03*
G54D13*
X23740Y-30999D03*
X23740Y-31599D03*
G54D14*
X23228Y-22834D03*
X23228Y-22637D03*
X23228Y-22440D03*
X23228Y-23031D03*
G54D15*
X23523Y-23326D03*
X23720Y-23326D03*
X23917Y-23326D03*
X24114Y-23326D03*
X24310Y-23326D03*
X24507Y-23326D03*
X24704Y-23326D03*
X24901Y-23326D03*
G54D14*
X25196Y-21653D03*
X25196Y-23031D03*
X25196Y-22834D03*
X25196Y-22637D03*
X25196Y-22440D03*
X25196Y-22244D03*
X25196Y-22047D03*
X25196Y-21850D03*
G54D15*
X24901Y-21358D03*
X24704Y-21358D03*
X24507Y-21358D03*
X24310Y-21358D03*
X24114Y-21358D03*
X23917Y-21358D03*
X23720Y-21358D03*
X23523Y-21358D03*
G54D14*
X23228Y-21653D03*
X23228Y-21850D03*
X23228Y-22047D03*
X23228Y-22244D03*
G54D16*
X24212Y-22342D03*
G54D14*
X23228Y-29133D03*
X23228Y-28936D03*
X23228Y-28739D03*
X23228Y-29330D03*
G54D15*
X23523Y-29625D03*
X23720Y-29625D03*
X23917Y-29625D03*
X24114Y-29625D03*
X24310Y-29625D03*
X24507Y-29625D03*
X24704Y-29625D03*
X24901Y-29625D03*
G54D14*
X25196Y-27952D03*
X25196Y-29330D03*
X25196Y-29133D03*
X25196Y-28936D03*
X25196Y-28739D03*
X25196Y-28543D03*
X25196Y-28346D03*
X25196Y-28149D03*
G54D15*
X24901Y-27657D03*
X24704Y-27657D03*
X24507Y-27657D03*
X24310Y-27657D03*
X24114Y-27657D03*
X23917Y-27657D03*
X23720Y-27657D03*
X23523Y-27657D03*
G54D14*
X23228Y-27952D03*
X23228Y-28149D03*
X23228Y-28346D03*
X23228Y-28543D03*
G54D16*
X24212Y-28641D03*
G54D14*
X30315Y-22834D03*
X30315Y-22637D03*
X30315Y-22440D03*
X30315Y-23031D03*
G54D15*
X30610Y-23326D03*
X30807Y-23326D03*
X31004Y-23326D03*
X31201Y-23326D03*
X31397Y-23326D03*
X31594Y-23326D03*
X31791Y-23326D03*
X31988Y-23326D03*
G54D14*
X32283Y-21653D03*
X32283Y-23031D03*
X32283Y-22834D03*
X32283Y-22637D03*
X32283Y-22440D03*
X32283Y-22244D03*
X32283Y-22047D03*
X32283Y-21850D03*
G54D15*
X31988Y-21358D03*
X31791Y-21358D03*
X31594Y-21358D03*
X31397Y-21358D03*
X31201Y-21358D03*
X31004Y-21358D03*
X30807Y-21358D03*
X30610Y-21358D03*
G54D14*
X30315Y-21653D03*
X30315Y-21850D03*
X30315Y-22047D03*
X30315Y-22244D03*
G54D16*
X31299Y-22342D03*
G54D14*
X30315Y-29133D03*
X30315Y-28936D03*
X30315Y-28739D03*
X30315Y-29330D03*
G54D15*
X30610Y-29625D03*
X30807Y-29625D03*
X31004Y-29625D03*
X31201Y-29625D03*
X31397Y-29625D03*
X31594Y-29625D03*
X31791Y-29625D03*
X31988Y-29625D03*
G54D14*
X32283Y-27952D03*
X32283Y-29330D03*
X32283Y-29133D03*
X32283Y-28936D03*
X32283Y-28739D03*
X32283Y-28543D03*
X32283Y-28346D03*
X32283Y-28149D03*
G54D15*
X31988Y-27657D03*
X31791Y-27657D03*
X31594Y-27657D03*
X31397Y-27657D03*
X31201Y-27657D03*
X31004Y-27657D03*
X30807Y-27657D03*
X30610Y-27657D03*
G54D14*
X30315Y-27952D03*
X30315Y-28149D03*
X30315Y-28346D03*
X30315Y-28543D03*
G54D16*
X31299Y-28641D03*
G54D11*
X31481Y-20078D03*
X30881Y-20078D03*
X30822Y-34094D03*
X31422Y-34094D03*
X32455Y-33228D03*
X33055Y-33228D03*
X32455Y-34055D03*
X33055Y-34055D03*
X32849Y-34960D03*
X33449Y-34960D03*
G54D13*
X33661Y-27259D03*
X33661Y-27859D03*
G54D11*
X29925Y-34940D03*
X29325Y-34940D03*
X29925Y-33956D03*
X29325Y-33956D03*
X29827Y-32972D03*
X29227Y-32972D03*
G54D13*
X29389Y-31629D03*
X29389Y-32229D03*
G54D11*
X32888Y-26535D03*
X33488Y-26535D03*
G54D13*
X33661Y-23016D03*
X33661Y-22416D03*
G54D11*
X32810Y-20118D03*
X33410Y-20118D03*
X29522Y-20078D03*
X30122Y-20078D03*
X27298Y-29251D03*
X27898Y-29251D03*
X27259Y-27874D03*
X27859Y-27874D03*
X27298Y-26653D03*
X27898Y-26653D03*
X27259Y-25039D03*
X27859Y-25039D03*
X25290Y-34940D03*
X25890Y-34940D03*
X25290Y-34055D03*
X25890Y-34055D03*
X25251Y-32992D03*
X25851Y-32992D03*
X27859Y-30748D03*
X27259Y-30748D03*
X23922Y-34842D03*
X23322Y-34842D03*
X23922Y-33858D03*
X23322Y-33858D03*
X22465Y-33897D03*
X21865Y-33897D03*
X22347Y-32952D03*
X21747Y-32952D03*
X27859Y-23700D03*
X27259Y-23700D03*
X27859Y-22519D03*
X27259Y-22519D03*
X27898Y-21456D03*
X27298Y-21456D03*
X27859Y-20078D03*
X27259Y-20078D03*
X25211Y-26141D03*
X25811Y-26141D03*
X21992Y-26496D03*
X21392Y-26496D03*
X21992Y-22992D03*
X21392Y-22992D03*
X22622Y-20157D03*
X22022Y-20157D03*
X31402Y-34921D03*
X30802Y-34921D03*
G54D13*
X29724Y-25881D03*
X29724Y-26481D03*
G54D11*
X23282Y-32913D03*
X23882Y-32913D03*
X22928Y-26476D03*
X23528Y-26476D03*
G54D17*
X21744Y-24500D03*
G54D18*
X21744Y-25500D03*
X22744Y-24500D03*
X22744Y-25500D03*
G54D17*
X21744Y-30799D03*
G54D18*
X21744Y-31799D03*
X22744Y-30799D03*
X22744Y-31799D03*
G54D17*
X32374Y-24500D03*
G54D18*
X32374Y-25500D03*
X33374Y-24500D03*
X33374Y-25500D03*
G54D17*
X32374Y-30799D03*
G54D18*
X32374Y-31799D03*
X33374Y-30799D03*
X33374Y-31799D03*
G54D19*
X28543Y-28051D03*
X28543Y-29035D03*
X28543Y-30019D03*
X28543Y-31003D03*
X28543Y-31988D03*
X28543Y-32972D03*
X28543Y-33956D03*
X28543Y-34940D03*
X34448Y-34940D03*
X34448Y-33956D03*
X34448Y-32972D03*
X34448Y-31988D03*
X34448Y-31003D03*
X34448Y-30019D03*
X34448Y-29035D03*
X34448Y-28051D03*
X28543Y-20177D03*
X28543Y-21161D03*
X28543Y-22145D03*
X28543Y-23129D03*
X28543Y-24114D03*
X28543Y-25098D03*
X28543Y-26082D03*
X28543Y-27066D03*
X34448Y-27066D03*
X34448Y-26082D03*
X34448Y-25098D03*
X34448Y-24114D03*
X34448Y-23129D03*
X34448Y-22145D03*
X34448Y-21161D03*
X34448Y-20177D03*
X20669Y-28051D03*
X20669Y-29035D03*
X20669Y-30019D03*
X20669Y-31003D03*
X20669Y-31988D03*
X20669Y-32972D03*
X20669Y-33956D03*
X20669Y-34940D03*
X26574Y-34940D03*
X26574Y-33956D03*
X26574Y-32972D03*
X26574Y-31988D03*
X26574Y-31003D03*
X26574Y-30019D03*
X26574Y-29035D03*
X26574Y-28051D03*
X20669Y-20177D03*
X20669Y-21161D03*
X20669Y-22145D03*
X20669Y-23129D03*
X20669Y-24114D03*
X20669Y-25098D03*
X20669Y-26082D03*
X20669Y-27066D03*
X26574Y-27066D03*
X26574Y-26082D03*
X26574Y-25098D03*
X26574Y-24114D03*
X26574Y-23129D03*
X26574Y-22145D03*
X26574Y-21161D03*
X26574Y-20177D03*
G54D20*
X27224Y-31929D03*
X27224Y-32125D03*
X27224Y-32322D03*
X27893Y-32322D03*
X27893Y-32125D03*
X27893Y-31929D03*
X29232Y-23858D03*
X29232Y-24055D03*
X29232Y-24251D03*
X29901Y-24251D03*
X29901Y-24055D03*
X29901Y-23858D03*
X27224Y-34606D03*
X27224Y-34803D03*
X27224Y-35000D03*
X27893Y-35000D03*
X27893Y-34803D03*
X27893Y-34606D03*
X21358Y-27283D03*
X21358Y-27480D03*
X21358Y-27677D03*
X22027Y-27677D03*
X22027Y-27480D03*
X22027Y-27283D03*
X21397Y-21023D03*
X21397Y-21220D03*
X21397Y-21417D03*
X22066Y-21417D03*
X22066Y-21220D03*
X22066Y-21023D03*
G54D21*
X24212Y-23655D03*
X30500Y-34818D03*
X27313Y-32568D03*
X27433Y-35208D03*
X31145Y-27151D03*
X27393Y-28336D03*
X27272Y-31201D03*
X24704Y-27325D03*
X22095Y-28028D03*
X29168Y-27050D03*
X24181Y-32913D03*
X27410Y-26211D03*
X29981Y-22928D03*
X27615Y-28908D03*
X30386Y-23292D03*
X25463Y-20717D03*
X23730Y-23656D03*
X27440Y-30339D03*
X23720Y-30021D03*
X29648Y-20929D03*
X30807Y-23679D03*
X33361Y-27558D03*
X30832Y-29953D03*
X27354Y-21904D03*
X25637Y-23031D03*
X25283Y-32442D03*
X25268Y-29551D03*
X32810Y-20743D03*
X32607Y-23100D03*
X32755Y-34217D03*
X32419Y-30093D03*
X25924Y-21722D03*
X25547Y-28347D03*
X32606Y-22028D03*
X32270Y-27730D03*
X32283Y-21430D03*
X25184Y-27730D03*
X25519Y-21586D03*
X25637Y-21851D03*
X25451Y-27380D03*
X32612Y-21605D03*
X29728Y-25432D03*
X22690Y-22440D03*
X29759Y-22562D03*
X22839Y-28773D03*
X29693Y-29064D03*
X31102Y-34997D03*
X23121Y-20586D03*
X23737Y-27321D03*
X30242Y-20573D03*
X30176Y-26723D03*
X22887Y-21253D03*
X29690Y-21369D03*
X27571Y-29874D03*
X22896Y-27911D03*
X30063Y-23610D03*
X29985Y-21593D03*
X29219Y-29336D03*
X23001Y-33493D03*
X29595Y-24131D03*
X27862Y-32569D03*
X22245Y-22078D03*
X22001Y-29014D03*
X29115Y-22185D03*
X27842Y-24146D03*
X26304Y-24668D03*
X22863Y-21947D03*
X22860Y-28363D03*
X29958Y-22050D03*
X29960Y-28347D03*
X27986Y-25525D03*
X27496Y-33450D03*
X33113Y-20063D03*
X26079Y-25213D03*
X22869Y-22233D03*
X22627Y-28571D03*
X29809Y-22284D03*
X29735Y-28771D03*
X27953Y-27097D03*
X25824Y-22467D03*
X26311Y-34495D03*
X25523Y-28764D03*
X32647Y-22452D03*
X32662Y-33664D03*
X32814Y-28767D03*
X27224Y-27421D03*
X27802Y-35251D03*
X31698Y-26614D03*
X25625Y-22274D03*
X32818Y-26130D03*
X32817Y-22237D03*
X31170Y-33755D03*
X32745Y-28495D03*
X27192Y-28628D03*
X31764Y-34394D03*
X25269Y-21411D03*
X31998Y-21030D03*
X31988Y-26415D03*
X23862Y-33393D03*
X27197Y-34213D03*
X30422Y-19866D03*
X21640Y-20748D03*
X27551Y-31560D03*
X23898Y-20449D03*
X27603Y-21194D03*
X21975Y-26895D03*
X30930Y-25789D03*
X25031Y-31708D03*
X30514Y-20239D03*
X25909Y-32349D03*
X25814Y-33658D03*
X25639Y-26540D03*
G54D22*
X24704Y-20404D02*
X24670Y-20369D01*
X24704Y-21358D02*
X24704Y-20404D01*
X24670Y-20039D02*
X24670Y-20369D01*
X24829Y-21613D02*
X24704Y-21613D01*
X24908Y-21692D02*
X24829Y-21613D01*
X24908Y-22995D02*
X24908Y-21692D01*
X24832Y-23071D02*
X24908Y-22995D01*
X24507Y-23071D02*
X24832Y-23071D01*
X24507Y-23326D02*
X24507Y-23071D01*
X24704Y-21358D02*
X24704Y-21613D01*
X24377Y-21613D02*
X24704Y-21613D01*
X24310Y-21546D02*
X24377Y-21613D01*
X24310Y-21358D02*
X24310Y-21546D01*
X30802Y-34444D02*
X30802Y-34921D01*
X30822Y-34424D02*
X30802Y-34444D01*
X30822Y-34094D02*
X30822Y-34424D01*
X31201Y-23326D02*
X31201Y-23546D01*
X31397Y-27657D02*
X31397Y-27402D01*
X31791Y-27657D02*
X31791Y-27402D01*
X24114Y-23326D02*
X24114Y-23581D01*
X24138Y-23581D02*
X24212Y-23655D01*
X24114Y-23581D02*
X24138Y-23581D01*
X24433Y-23655D02*
X24507Y-23581D01*
X24212Y-23655D02*
X24433Y-23655D01*
X24507Y-23326D02*
X24507Y-23581D01*
X31915Y-27912D02*
X31791Y-27912D01*
X31994Y-27991D02*
X31915Y-27912D01*
X31994Y-29294D02*
X31994Y-27991D01*
X31918Y-29370D02*
X31994Y-29294D01*
X31594Y-29370D02*
X31918Y-29370D01*
X31791Y-27657D02*
X31791Y-27912D01*
X30802Y-34921D02*
X30572Y-34921D01*
X30572Y-34890D02*
X30572Y-34921D01*
X30500Y-34818D02*
X30572Y-34890D01*
X31397Y-27402D02*
X31791Y-27402D01*
X31594Y-29533D02*
X31594Y-29370D01*
X31594Y-29533D02*
X31594Y-29625D01*
X31594Y-29880D02*
X31201Y-29880D01*
X31594Y-29625D02*
X31594Y-29880D01*
X31201Y-29625D02*
X31201Y-29880D01*
X27642Y-35000D02*
X27893Y-35000D01*
X27433Y-35208D02*
X27642Y-35000D01*
X31397Y-21358D02*
X31397Y-21138D01*
X31791Y-21358D02*
X31791Y-21103D01*
X31924Y-21613D02*
X31791Y-21613D01*
X31994Y-21684D02*
X31924Y-21613D01*
X31994Y-22976D02*
X31994Y-21684D01*
X31900Y-23071D02*
X31994Y-22976D01*
X31594Y-23071D02*
X31900Y-23071D01*
X31594Y-23326D02*
X31594Y-23071D01*
X31791Y-21358D02*
X31791Y-21613D01*
X24704Y-27402D02*
X24310Y-27402D01*
X29901Y-24251D02*
X29901Y-24430D01*
X31145Y-27151D02*
X31397Y-27402D01*
X21744Y-21919D02*
X21744Y-24500D01*
X22066Y-21596D02*
X21744Y-21919D01*
X22066Y-21417D02*
X22066Y-21596D01*
X23882Y-32913D02*
X24112Y-32913D01*
X27444Y-32568D02*
X27690Y-32322D01*
X27313Y-32568D02*
X27444Y-32568D01*
X27893Y-32322D02*
X27690Y-32322D01*
X22027Y-27677D02*
X22027Y-27856D01*
X31201Y-23546D02*
X31236Y-23581D01*
X31594Y-23482D02*
X31594Y-23326D01*
X31494Y-23581D02*
X31594Y-23482D01*
X31236Y-23581D02*
X31494Y-23581D01*
X31481Y-20078D02*
X31481Y-20408D01*
X31481Y-21103D02*
X31481Y-20408D01*
X31432Y-21103D02*
X31481Y-21103D01*
X31397Y-21138D02*
X31432Y-21103D01*
X31481Y-21103D02*
X31791Y-21103D01*
X24704Y-27325D02*
X24704Y-27402D01*
X24310Y-27657D02*
X24310Y-27402D01*
X22027Y-27960D02*
X22095Y-28028D01*
X22027Y-27856D02*
X22027Y-27960D01*
X24310Y-27028D02*
X24310Y-27402D01*
X23758Y-26476D02*
X24310Y-27028D01*
X23528Y-26476D02*
X23758Y-26476D01*
X24704Y-27530D02*
X24704Y-27402D01*
X29724Y-26481D02*
X29724Y-26250D01*
X29868Y-26250D02*
X29724Y-26250D01*
X30058Y-26061D02*
X29868Y-26250D01*
X30058Y-24587D02*
X30058Y-26061D01*
X29901Y-24430D02*
X30058Y-24587D01*
X31236Y-23744D02*
X31236Y-23581D01*
X30393Y-24587D02*
X31236Y-23744D01*
X30058Y-24587D02*
X30393Y-24587D01*
X29507Y-26711D02*
X29724Y-26711D01*
X29168Y-27050D02*
X29507Y-26711D01*
X29724Y-26481D02*
X29724Y-26711D01*
X24114Y-29625D02*
X24114Y-29849D01*
X23740Y-30999D02*
X23740Y-30769D01*
X24507Y-29625D02*
X24507Y-29880D01*
X24145Y-29880D02*
X24145Y-29880D01*
X24507Y-29880D02*
X24145Y-29880D01*
X24114Y-29849D02*
X24145Y-29880D01*
X24145Y-30363D02*
X23740Y-30769D01*
X24145Y-29880D02*
X24145Y-30363D01*
X24704Y-27530D02*
X24704Y-27657D01*
X24838Y-29370D02*
X24507Y-29370D01*
X24908Y-29301D02*
X24838Y-29370D01*
X24908Y-28002D02*
X24908Y-29301D01*
X24818Y-27912D02*
X24908Y-28002D01*
X24704Y-27912D02*
X24818Y-27912D01*
X24704Y-27657D02*
X24704Y-27912D01*
X24507Y-29625D02*
X24507Y-29370D01*
X24112Y-32913D02*
X24181Y-32913D01*
X22622Y-20157D02*
X22622Y-20487D01*
X23228Y-22637D02*
X22973Y-22637D01*
X22952Y-22658D02*
X22973Y-22637D01*
X22534Y-22658D02*
X22952Y-22658D01*
X22037Y-22160D02*
X22534Y-22658D01*
X22037Y-21924D02*
X22037Y-22160D01*
X22467Y-21494D02*
X22037Y-21924D01*
X22467Y-20642D02*
X22467Y-21494D01*
X22622Y-20487D02*
X22467Y-20642D01*
X22168Y-29741D02*
X22973Y-28936D01*
X22168Y-32444D02*
X22168Y-29741D01*
X22347Y-32622D02*
X22168Y-32444D01*
X22347Y-32952D02*
X22347Y-32622D01*
X23228Y-28936D02*
X22973Y-28936D01*
X27259Y-25039D02*
X27489Y-25039D01*
X29974Y-22637D02*
X30315Y-22637D01*
X29613Y-22998D02*
X29974Y-22637D01*
X29382Y-22998D02*
X29613Y-22998D01*
X28758Y-23622D02*
X29382Y-22998D01*
X28396Y-23622D02*
X28758Y-23622D01*
X28089Y-23929D02*
X28396Y-23622D01*
X28089Y-24209D02*
X28089Y-23929D01*
X27489Y-24809D02*
X28089Y-24209D01*
X27489Y-25039D02*
X27489Y-24809D01*
X29389Y-31629D02*
X29389Y-31399D01*
X30058Y-28936D02*
X30315Y-28936D01*
X29901Y-29094D02*
X30058Y-28936D01*
X29901Y-29193D02*
X29901Y-29094D01*
X29642Y-29452D02*
X29901Y-29193D01*
X29642Y-31146D02*
X29642Y-29452D01*
X29389Y-31399D02*
X29642Y-31146D01*
X21992Y-22992D02*
X22223Y-22992D01*
X23228Y-22834D02*
X22973Y-22834D01*
X22380Y-22834D02*
X22973Y-22834D01*
X22223Y-22992D02*
X22380Y-22834D01*
X23069Y-29133D02*
X23228Y-29133D01*
X22309Y-29894D02*
X23069Y-29133D01*
X22309Y-32231D02*
X22309Y-29894D01*
X22603Y-32526D02*
X22309Y-32231D01*
X22603Y-33428D02*
X22603Y-32526D01*
X22465Y-33567D02*
X22603Y-33428D01*
X22465Y-33897D02*
X22465Y-33567D01*
X27298Y-26653D02*
X27298Y-26323D01*
X27298Y-26323D02*
X27410Y-26211D01*
X30315Y-22834D02*
X30060Y-22834D01*
X30060Y-22850D02*
X29981Y-22928D01*
X30060Y-22834D02*
X30060Y-22850D01*
X29827Y-32972D02*
X29827Y-32642D01*
X30315Y-29133D02*
X30060Y-29133D01*
X30060Y-29271D02*
X30060Y-29133D01*
X29827Y-29504D02*
X30060Y-29271D01*
X29827Y-32642D02*
X29827Y-29504D01*
X22194Y-23810D02*
X22973Y-23031D01*
X22194Y-24804D02*
X22194Y-23810D01*
X22073Y-24925D02*
X22194Y-24804D01*
X21744Y-24925D02*
X22073Y-24925D01*
X21337Y-25332D02*
X21744Y-24925D01*
X21337Y-25840D02*
X21337Y-25332D01*
X21762Y-26265D02*
X21337Y-25840D01*
X21762Y-26496D02*
X21762Y-26265D01*
X21992Y-26496D02*
X21762Y-26496D01*
X23228Y-23031D02*
X22973Y-23031D01*
X23228Y-32191D02*
X23228Y-29330D01*
X23652Y-32615D02*
X23228Y-32191D01*
X23652Y-33818D02*
X23652Y-32615D01*
X23691Y-33858D02*
X23652Y-33818D01*
X23922Y-33858D02*
X23691Y-33858D01*
X30097Y-23249D02*
X30315Y-23031D01*
X29461Y-23249D02*
X30097Y-23249D01*
X28978Y-23732D02*
X29461Y-23249D01*
X28978Y-24311D02*
X28978Y-23732D01*
X28683Y-24606D02*
X28978Y-24311D01*
X28403Y-24606D02*
X28683Y-24606D01*
X28089Y-24920D02*
X28403Y-24606D01*
X28089Y-25296D02*
X28089Y-24920D01*
X28192Y-25399D02*
X28089Y-25296D01*
X28192Y-25615D02*
X28192Y-25399D01*
X28076Y-25731D02*
X28192Y-25615D01*
X27830Y-25731D02*
X28076Y-25731D01*
X27735Y-25636D02*
X27830Y-25731D01*
X26389Y-25636D02*
X27735Y-25636D01*
X26142Y-25883D02*
X26389Y-25636D01*
X26142Y-26270D02*
X26142Y-25883D01*
X26397Y-26525D02*
X26142Y-26270D01*
X26658Y-26525D02*
X26397Y-26525D01*
X27033Y-26900D02*
X26658Y-26525D01*
X27033Y-27225D02*
X27033Y-26900D01*
X26998Y-27260D02*
X27033Y-27225D01*
X26998Y-27843D02*
X26998Y-27260D01*
X27028Y-27874D02*
X26998Y-27843D01*
X27259Y-27874D02*
X27028Y-27874D01*
X30155Y-29490D02*
X30315Y-29330D01*
X30155Y-33396D02*
X30155Y-29490D01*
X29925Y-33626D02*
X30155Y-33396D01*
X29925Y-33956D02*
X29925Y-33626D01*
X23523Y-24683D02*
X23523Y-23326D01*
X24981Y-26141D02*
X23523Y-24683D01*
X25211Y-26141D02*
X24981Y-26141D01*
X23922Y-34842D02*
X24152Y-34842D01*
X23523Y-29625D02*
X23523Y-29880D01*
X23407Y-29997D02*
X23523Y-29880D01*
X23407Y-31778D02*
X23407Y-29997D01*
X24405Y-32776D02*
X23407Y-31778D01*
X24405Y-34589D02*
X24405Y-32776D01*
X24152Y-34842D02*
X24405Y-34589D01*
X27298Y-29251D02*
X27528Y-29251D01*
X27528Y-28994D02*
X27615Y-28908D01*
X27528Y-29251D02*
X27528Y-28994D01*
X30576Y-23292D02*
X30610Y-23326D01*
X30386Y-23292D02*
X30576Y-23292D01*
X29925Y-34940D02*
X30156Y-34940D01*
X30610Y-29625D02*
X30610Y-29880D01*
X30302Y-30188D02*
X30610Y-29880D01*
X30302Y-33576D02*
X30302Y-30188D01*
X30156Y-33722D02*
X30302Y-33576D01*
X30156Y-34940D02*
X30156Y-33722D01*
X27859Y-20078D02*
X27628Y-20078D01*
X23720Y-23646D02*
X23730Y-23656D01*
X23720Y-23326D02*
X23720Y-23646D01*
X27133Y-20717D02*
X25463Y-20717D01*
X27628Y-20222D02*
X27133Y-20717D01*
X27628Y-20078D02*
X27628Y-20222D01*
X27628Y-30527D02*
X27440Y-30339D01*
X27628Y-30748D02*
X27628Y-30527D01*
X23720Y-30021D02*
X23720Y-29625D01*
X27859Y-30748D02*
X27628Y-30748D01*
X30807Y-23679D02*
X30807Y-23326D01*
X29522Y-20078D02*
X29522Y-20408D01*
X29648Y-20534D02*
X29648Y-20929D01*
X29522Y-20408D02*
X29648Y-20534D01*
X30807Y-29928D02*
X30832Y-29953D01*
X30807Y-29625D02*
X30807Y-29928D01*
X33661Y-27259D02*
X33661Y-27489D01*
X33431Y-27489D02*
X33361Y-27558D01*
X33661Y-27489D02*
X33431Y-27489D01*
X27668Y-21590D02*
X27354Y-21904D01*
X27668Y-21456D02*
X27668Y-21590D01*
X25196Y-23031D02*
X25451Y-23031D01*
X27898Y-21456D02*
X27668Y-21456D01*
X25451Y-23031D02*
X25637Y-23031D01*
X25251Y-32992D02*
X25251Y-32662D01*
X25283Y-32629D02*
X25283Y-32442D01*
X25251Y-32662D02*
X25283Y-32629D01*
X25196Y-29330D02*
X25347Y-29330D01*
X25268Y-29409D02*
X25268Y-29551D01*
X25347Y-29330D02*
X25268Y-29409D01*
X32283Y-23031D02*
X32538Y-23031D01*
X32538Y-23031D02*
X32607Y-23100D01*
X32810Y-20118D02*
X32810Y-20448D01*
X32810Y-20448D02*
X32810Y-20743D01*
X32755Y-34536D02*
X32755Y-34217D01*
X32849Y-34630D02*
X32755Y-34536D01*
X32283Y-29956D02*
X32419Y-30093D01*
X32283Y-29330D02*
X32283Y-29956D01*
X32849Y-34960D02*
X32849Y-34630D01*
X27859Y-22519D02*
X27628Y-22519D01*
X25196Y-22834D02*
X25451Y-22834D01*
X27628Y-22663D02*
X27628Y-22519D01*
X27432Y-22859D02*
X27628Y-22663D01*
X27067Y-22859D02*
X27432Y-22859D01*
X26907Y-22699D02*
X27067Y-22859D01*
X26183Y-22699D02*
X26907Y-22699D01*
X26071Y-22812D02*
X26183Y-22699D01*
X25473Y-22812D02*
X26071Y-22812D01*
X25451Y-22834D02*
X25473Y-22812D01*
X25352Y-29133D02*
X25196Y-29133D01*
X25951Y-29733D02*
X25352Y-29133D01*
X25951Y-31533D02*
X25951Y-29733D01*
X25520Y-31964D02*
X25951Y-31533D01*
X25450Y-31964D02*
X25520Y-31964D01*
X25015Y-32399D02*
X25450Y-31964D01*
X25015Y-34010D02*
X25015Y-32399D01*
X25060Y-34055D02*
X25015Y-34010D01*
X25290Y-34055D02*
X25060Y-34055D01*
X33149Y-22834D02*
X32283Y-22834D01*
X33331Y-23016D02*
X33149Y-22834D01*
X33661Y-23016D02*
X33331Y-23016D01*
X32455Y-34055D02*
X32225Y-34055D01*
X32225Y-32843D02*
X32225Y-34055D01*
X32781Y-32287D02*
X32225Y-32843D01*
X32781Y-29473D02*
X32781Y-32287D01*
X32441Y-29133D02*
X32781Y-29473D01*
X32283Y-29133D02*
X32441Y-29133D01*
X25196Y-22637D02*
X25451Y-22637D01*
X27859Y-23700D02*
X28089Y-23700D01*
X28089Y-22251D02*
X28089Y-23700D01*
X28027Y-22189D02*
X28089Y-22251D01*
X27348Y-22189D02*
X28027Y-22189D01*
X26868Y-21709D02*
X27348Y-22189D01*
X26399Y-21709D02*
X26868Y-21709D01*
X26120Y-21988D02*
X26399Y-21709D01*
X26120Y-22482D02*
X26120Y-21988D01*
X25930Y-22672D02*
X26120Y-22482D01*
X25486Y-22672D02*
X25930Y-22672D01*
X25451Y-22637D02*
X25486Y-22672D01*
X25290Y-34940D02*
X25520Y-34940D01*
X25353Y-28936D02*
X25196Y-28936D01*
X26091Y-29674D02*
X25353Y-28936D01*
X26091Y-31591D02*
X26091Y-29674D01*
X25520Y-32162D02*
X26091Y-31591D01*
X25520Y-34940D02*
X25520Y-32162D01*
X32595Y-22694D02*
X32538Y-22637D01*
X33847Y-22694D02*
X32595Y-22694D01*
X33991Y-22838D02*
X33847Y-22694D01*
X33991Y-23192D02*
X33991Y-22838D01*
X33813Y-23371D02*
X33991Y-23192D01*
X33813Y-25661D02*
X33813Y-23371D01*
X33119Y-26355D02*
X33813Y-25661D01*
X33119Y-26535D02*
X33119Y-26355D01*
X32888Y-26535D02*
X33119Y-26535D01*
X32283Y-22637D02*
X32538Y-22637D01*
X32921Y-29319D02*
X32538Y-28936D01*
X32921Y-32762D02*
X32921Y-29319D01*
X32686Y-32998D02*
X32921Y-32762D01*
X32686Y-33228D02*
X32686Y-32998D01*
X32455Y-33228D02*
X32686Y-33228D01*
X32283Y-28936D02*
X32538Y-28936D01*
X25196Y-22047D02*
X25451Y-22047D01*
X25461Y-22057D02*
X25451Y-22047D01*
X25727Y-22057D02*
X25461Y-22057D01*
X25924Y-21860D02*
X25727Y-22057D01*
X25924Y-21722D02*
X25924Y-21860D01*
X25196Y-28346D02*
X25451Y-28346D01*
X25452Y-28347D02*
X25547Y-28347D01*
X25451Y-28346D02*
X25452Y-28347D01*
X32283Y-22047D02*
X32538Y-22047D01*
X32557Y-22028D02*
X32606Y-22028D01*
X32538Y-22047D02*
X32557Y-22028D01*
X32595Y-28289D02*
X32538Y-28346D01*
X32843Y-28289D02*
X32595Y-28289D01*
X33374Y-28820D02*
X32843Y-28289D01*
X33374Y-30799D02*
X33374Y-28820D01*
X32283Y-28346D02*
X32538Y-28346D01*
X25184Y-27940D02*
X25196Y-27952D01*
X25184Y-27730D02*
X25184Y-27940D01*
X32270Y-27940D02*
X32283Y-27952D01*
X32270Y-27730D02*
X32270Y-27940D01*
X32283Y-21430D02*
X32283Y-21653D01*
X25196Y-21653D02*
X25451Y-21653D01*
X25519Y-21586D02*
X25451Y-21653D01*
X32538Y-26008D02*
X32538Y-28149D01*
X32787Y-25759D02*
X32538Y-26008D01*
X32787Y-25319D02*
X32787Y-25759D01*
X32374Y-24905D02*
X32787Y-25319D01*
X32374Y-24500D02*
X32374Y-24905D01*
X32283Y-28149D02*
X32538Y-28149D01*
X25196Y-21850D02*
X25451Y-21850D01*
X25452Y-21851D02*
X25451Y-21850D01*
X25637Y-21851D02*
X25452Y-21851D01*
X25196Y-28149D02*
X25451Y-28149D01*
X25451Y-28149D02*
X25451Y-27380D01*
X32612Y-21680D02*
X32612Y-21605D01*
X32441Y-21850D02*
X32612Y-21680D01*
X32283Y-21850D02*
X32441Y-21850D01*
X29724Y-25881D02*
X29724Y-25650D01*
X29728Y-25647D02*
X29724Y-25650D01*
X29728Y-25432D02*
X29728Y-25647D01*
X30315Y-22440D02*
X30060Y-22440D01*
X30003Y-22497D02*
X30060Y-22440D01*
X29824Y-22497D02*
X30003Y-22497D01*
X29759Y-22562D02*
X29824Y-22497D01*
X22690Y-22440D02*
X23228Y-22440D01*
X22928Y-25684D02*
X22928Y-26476D01*
X22744Y-25500D02*
X22928Y-25684D01*
X23228Y-28739D02*
X22973Y-28739D01*
X22939Y-28773D02*
X22973Y-28739D01*
X22839Y-28773D02*
X22939Y-28773D01*
X22744Y-32604D02*
X23052Y-32913D01*
X22744Y-31799D02*
X22744Y-32604D01*
X23282Y-32913D02*
X23052Y-32913D01*
X31172Y-34927D02*
X31172Y-34921D01*
X31102Y-34997D02*
X31172Y-34927D01*
X31402Y-34921D02*
X31172Y-34921D01*
X30057Y-28739D02*
X30315Y-28739D01*
X29732Y-29064D02*
X30057Y-28739D01*
X29693Y-29064D02*
X29732Y-29064D01*
X23720Y-21358D02*
X23720Y-21103D01*
X23639Y-21103D02*
X23121Y-20586D01*
X23720Y-21103D02*
X23639Y-21103D01*
X23720Y-27657D02*
X23720Y-27402D01*
X23737Y-27385D02*
X23737Y-27321D01*
X23720Y-27402D02*
X23737Y-27385D01*
X30772Y-21103D02*
X30807Y-21103D01*
X30242Y-20573D02*
X30772Y-21103D01*
X30807Y-21358D02*
X30807Y-21103D01*
X30807Y-27657D02*
X30807Y-27402D01*
X30176Y-26771D02*
X30176Y-26723D01*
X30807Y-27402D02*
X30176Y-26771D01*
X23418Y-21253D02*
X23523Y-21358D01*
X22887Y-21253D02*
X23418Y-21253D01*
X23523Y-27657D02*
X23523Y-27402D01*
X22027Y-27480D02*
X22231Y-27480D01*
X22231Y-27480D02*
X22317Y-27394D01*
X22235Y-27312D02*
X22317Y-27394D01*
X22235Y-27155D02*
X22235Y-27312D01*
X22184Y-27104D02*
X22235Y-27155D01*
X21797Y-27104D02*
X22184Y-27104D01*
X21565Y-27336D02*
X21797Y-27104D01*
X21565Y-27423D02*
X21565Y-27336D01*
X21508Y-27480D02*
X21565Y-27423D01*
X21358Y-27480D02*
X21508Y-27480D01*
X22325Y-27402D02*
X23523Y-27402D01*
X22317Y-27394D02*
X22325Y-27402D01*
X29701Y-21358D02*
X29690Y-21369D01*
X30610Y-21358D02*
X29701Y-21358D01*
X27855Y-29589D02*
X27571Y-29874D01*
X28599Y-29589D02*
X27855Y-29589D01*
X28976Y-29213D02*
X28599Y-29589D01*
X28976Y-28601D02*
X28976Y-29213D01*
X29919Y-27657D02*
X28976Y-28601D01*
X30610Y-27657D02*
X29919Y-27657D01*
X21358Y-27677D02*
X21358Y-27856D01*
X21358Y-28346D02*
X21358Y-27856D01*
X20669Y-29035D02*
X21358Y-28346D01*
X21824Y-27414D02*
X21561Y-27677D01*
X21824Y-27283D02*
X21824Y-27414D01*
X22027Y-27283D02*
X21824Y-27283D01*
X21358Y-27677D02*
X21561Y-27677D01*
X22066Y-21220D02*
X22270Y-21220D01*
X21837Y-20844D02*
X22208Y-20844D01*
X21609Y-21072D02*
X21837Y-20844D01*
X21609Y-21137D02*
X21609Y-21072D01*
X21526Y-21220D02*
X21609Y-21137D01*
X21397Y-21220D02*
X21526Y-21220D01*
X22270Y-20906D02*
X22270Y-21220D01*
X22208Y-20844D02*
X22270Y-20906D01*
X23103Y-21528D02*
X23228Y-21653D01*
X22866Y-21528D02*
X23103Y-21528D01*
X22670Y-21332D02*
X22866Y-21528D01*
X22670Y-20870D02*
X22670Y-21332D01*
X22854Y-20686D02*
X22670Y-20870D01*
X22854Y-19881D02*
X22854Y-20686D01*
X22800Y-19827D02*
X22854Y-19881D01*
X22430Y-19827D02*
X22800Y-19827D01*
X22270Y-19987D02*
X22430Y-19827D01*
X22270Y-20782D02*
X22270Y-19987D01*
X22208Y-20844D02*
X22270Y-20782D01*
X22932Y-27911D02*
X22973Y-27952D01*
X22896Y-27911D02*
X22932Y-27911D01*
X23228Y-27952D02*
X22973Y-27952D01*
X29901Y-24055D02*
X30105Y-24055D01*
X30315Y-21653D02*
X30060Y-21653D01*
X30000Y-21593D02*
X29985Y-21593D01*
X30060Y-21653D02*
X30000Y-21593D01*
X30105Y-23712D02*
X30105Y-24055D01*
X30063Y-23671D02*
X30105Y-23712D01*
X29677Y-23671D02*
X30063Y-23671D01*
X29452Y-23895D02*
X29677Y-23671D01*
X29452Y-23965D02*
X29452Y-23895D01*
X29362Y-24055D02*
X29452Y-23965D01*
X29232Y-24055D02*
X29362Y-24055D01*
X30063Y-23671D02*
X30063Y-23610D01*
X29822Y-27952D02*
X30315Y-27952D01*
X29219Y-28556D02*
X29822Y-27952D01*
X29219Y-29336D02*
X29219Y-28556D01*
X21397Y-21417D02*
X21295Y-21417D01*
X21295Y-21519D02*
X20669Y-22145D01*
X21295Y-21417D02*
X21295Y-21519D01*
X21863Y-21155D02*
X21601Y-21417D01*
X21863Y-21023D02*
X21863Y-21155D01*
X22066Y-21023D02*
X21863Y-21023D01*
X21397Y-21417D02*
X21601Y-21417D01*
X29901Y-23858D02*
X29698Y-23858D01*
X29232Y-24251D02*
X29435Y-24251D01*
X29698Y-24028D02*
X29595Y-24131D01*
X29698Y-23858D02*
X29698Y-24028D01*
X29556Y-24131D02*
X29435Y-24251D01*
X29595Y-24131D02*
X29556Y-24131D01*
X23056Y-21850D02*
X23228Y-21850D01*
X22945Y-21739D02*
X23056Y-21850D01*
X22584Y-21739D02*
X22945Y-21739D01*
X22245Y-22078D02*
X22584Y-21739D01*
X22751Y-28149D02*
X22973Y-28149D01*
X22001Y-28899D02*
X22751Y-28149D01*
X22001Y-29014D02*
X22001Y-28899D01*
X23228Y-28149D02*
X22973Y-28149D01*
X30039Y-21829D02*
X30060Y-21850D01*
X29471Y-21829D02*
X30039Y-21829D01*
X29115Y-22185D02*
X29471Y-21829D01*
X30315Y-21850D02*
X30060Y-21850D01*
X27224Y-32125D02*
X27427Y-32125D01*
X30315Y-28149D02*
X30060Y-28149D01*
X28989Y-30811D02*
X28689Y-30511D01*
X28989Y-31191D02*
X28989Y-30811D01*
X28684Y-31496D02*
X28989Y-31191D01*
X28401Y-31496D02*
X28684Y-31496D01*
X28097Y-31799D02*
X28401Y-31496D01*
X28097Y-32125D02*
X28097Y-31799D01*
X28405Y-30511D02*
X28689Y-30511D01*
X28089Y-30827D02*
X28405Y-30511D01*
X28089Y-31356D02*
X28089Y-30827D01*
X27427Y-32017D02*
X28089Y-31356D01*
X27427Y-32125D02*
X27427Y-32017D01*
X27893Y-32125D02*
X28097Y-32125D01*
X30043Y-28132D02*
X30060Y-28149D01*
X29860Y-28132D02*
X30043Y-28132D01*
X29426Y-28566D02*
X29860Y-28132D01*
X29426Y-29774D02*
X29426Y-28566D01*
X28689Y-30511D02*
X29426Y-29774D01*
X27460Y-32322D02*
X27224Y-32322D01*
X27608Y-32174D02*
X27460Y-32322D01*
X27608Y-32075D02*
X27608Y-32174D01*
X27755Y-31929D02*
X27608Y-32075D01*
X27893Y-31929D02*
X27755Y-31929D01*
X28543Y-31100D02*
X28543Y-31003D01*
X27893Y-31750D02*
X28543Y-31100D01*
X27893Y-31929D02*
X27893Y-31750D01*
X23228Y-22047D02*
X22973Y-22047D01*
X22873Y-21947D02*
X22863Y-21947D01*
X22973Y-22047D02*
X22873Y-21947D01*
X23228Y-28346D02*
X22973Y-28346D01*
X22956Y-28363D02*
X22973Y-28346D01*
X22860Y-28363D02*
X22956Y-28363D01*
X30315Y-22047D02*
X30060Y-22047D01*
X30057Y-22050D02*
X29958Y-22050D01*
X30060Y-22047D02*
X30057Y-22050D01*
X30059Y-28347D02*
X30060Y-28346D01*
X29960Y-28347D02*
X30059Y-28347D01*
X30315Y-28346D02*
X30060Y-28346D01*
X22962Y-22233D02*
X22973Y-22244D01*
X22869Y-22233D02*
X22962Y-22233D01*
X23228Y-22244D02*
X22973Y-22244D01*
X23228Y-28543D02*
X22973Y-28543D01*
X22629Y-28568D02*
X22627Y-28571D01*
X22948Y-28568D02*
X22629Y-28568D01*
X22973Y-28543D02*
X22948Y-28568D01*
X30315Y-22244D02*
X30060Y-22244D01*
X30020Y-22284D02*
X30060Y-22244D01*
X29809Y-22284D02*
X30020Y-22284D01*
X30019Y-28584D02*
X30060Y-28543D01*
X29922Y-28584D02*
X30019Y-28584D01*
X29735Y-28771D02*
X29922Y-28584D01*
X30315Y-28543D02*
X30060Y-28543D01*
X25493Y-22482D02*
X25451Y-22440D01*
X25809Y-22482D02*
X25493Y-22482D01*
X25824Y-22467D02*
X25809Y-22482D01*
X25196Y-22440D02*
X25451Y-22440D01*
X25476Y-28764D02*
X25451Y-28739D01*
X25523Y-28764D02*
X25476Y-28764D01*
X25196Y-28739D02*
X25451Y-28739D01*
X32283Y-22440D02*
X32538Y-22440D01*
X32550Y-22452D02*
X32538Y-22440D01*
X32647Y-22452D02*
X32550Y-22452D01*
X32787Y-28739D02*
X32283Y-28739D01*
X32814Y-28767D02*
X32787Y-28739D01*
X25196Y-22244D02*
X25451Y-22244D01*
X25625Y-22274D02*
X25625Y-22274D01*
X25481Y-22274D02*
X25625Y-22274D01*
X25451Y-22244D02*
X25481Y-22274D01*
X27893Y-34803D02*
X28097Y-34803D01*
X28058Y-34427D02*
X27661Y-34427D01*
X28097Y-34465D02*
X28058Y-34427D01*
X28097Y-34803D02*
X28097Y-34465D01*
X27356Y-34803D02*
X27224Y-34803D01*
X27444Y-34714D02*
X27356Y-34803D01*
X27444Y-34644D02*
X27444Y-34714D01*
X27661Y-34427D02*
X27444Y-34644D01*
X25196Y-28543D02*
X25451Y-28543D01*
X25460Y-28552D02*
X25451Y-28543D01*
X25602Y-28552D02*
X25460Y-28552D01*
X25728Y-28679D02*
X25602Y-28552D01*
X25728Y-28802D02*
X25728Y-28679D01*
X26421Y-29495D02*
X25728Y-28802D01*
X26658Y-29495D02*
X26421Y-29495D01*
X27020Y-29857D02*
X26658Y-29495D01*
X27020Y-33476D02*
X27020Y-29857D01*
X27661Y-34117D02*
X27020Y-33476D01*
X27661Y-34427D02*
X27661Y-34117D01*
X32283Y-22244D02*
X32538Y-22244D01*
X32545Y-22237D02*
X32538Y-22244D01*
X32817Y-22237D02*
X32545Y-22237D01*
X32283Y-28543D02*
X32538Y-28543D01*
X32696Y-28543D02*
X32745Y-28495D01*
X32538Y-28543D02*
X32696Y-28543D01*
X26633Y-35000D02*
X27224Y-35000D01*
X26574Y-34940D02*
X26633Y-35000D01*
X27690Y-34737D02*
X27427Y-35000D01*
X27690Y-34606D02*
X27690Y-34737D01*
X27893Y-34606D02*
X27690Y-34606D01*
X27224Y-35000D02*
X27427Y-35000D01*
X24954Y-21411D02*
X25269Y-21411D01*
X24901Y-21358D02*
X24954Y-21411D01*
X31988Y-21358D02*
X31988Y-21103D01*
X31988Y-21040D02*
X31988Y-21103D01*
X31998Y-21030D02*
X31988Y-21040D01*
X31988Y-27657D02*
X31988Y-26415D01*
X24940Y-27619D02*
X24901Y-27657D01*
X24940Y-27102D02*
X24940Y-27619D01*
X22931Y-25093D02*
X24940Y-27102D01*
X22150Y-25093D02*
X22931Y-25093D01*
X21744Y-25500D02*
X22150Y-25093D01*
X24704Y-24265D02*
X24567Y-24402D01*
X24704Y-23326D02*
X24704Y-24265D01*
X24567Y-24763D02*
X24567Y-24402D01*
X24704Y-30760D02*
X24803Y-30859D01*
X24704Y-29625D02*
X24704Y-30760D01*
X24803Y-31220D02*
X24803Y-30859D01*
X30615Y-24757D02*
X30433Y-24757D01*
X31791Y-23581D02*
X30615Y-24757D01*
X31791Y-23326D02*
X31791Y-23581D01*
X30433Y-25118D02*
X30433Y-24757D01*
X30512Y-31299D02*
X30512Y-30938D01*
X31791Y-29909D02*
X31791Y-29625D01*
X30762Y-30938D02*
X31791Y-29909D01*
X30512Y-30938D02*
X30762Y-30938D01*
X24901Y-23792D02*
X25511Y-24402D01*
X24901Y-23326D02*
X24901Y-23792D01*
X25511Y-24763D02*
X25511Y-24402D01*
X24901Y-29625D02*
X24901Y-29880D01*
X25747Y-31220D02*
X25747Y-30859D01*
X25747Y-30726D02*
X24901Y-29880D01*
X25747Y-30859D02*
X25747Y-30726D01*
X31377Y-24757D02*
X31377Y-24757D01*
X31377Y-24687D02*
X31377Y-24757D01*
X31988Y-24077D02*
X31377Y-24687D01*
X31988Y-23326D02*
X31988Y-24077D01*
X31377Y-25118D02*
X31377Y-24757D01*
X31988Y-29625D02*
X31988Y-29880D01*
X31988Y-29945D02*
X31988Y-29880D01*
X31456Y-30477D02*
X31988Y-29945D01*
X31456Y-31299D02*
X31456Y-30477D01*
X31332Y-29370D02*
X31299Y-29337D01*
X31397Y-29370D02*
X31332Y-29370D01*
X31397Y-29625D02*
X31397Y-29370D01*
X23950Y-29337D02*
X23917Y-29370D01*
X24212Y-29337D02*
X23950Y-29337D01*
X24212Y-28641D02*
X24212Y-29337D01*
X24245Y-29370D02*
X24212Y-29337D01*
X24310Y-29370D02*
X24245Y-29370D01*
X23917Y-29498D02*
X23917Y-29370D01*
X23917Y-29498D02*
X23917Y-29625D01*
X24310Y-29498D02*
X24310Y-29370D01*
X24179Y-27912D02*
X24212Y-27946D01*
X24114Y-27912D02*
X24179Y-27912D01*
X24212Y-28641D02*
X24212Y-27946D01*
X24114Y-27657D02*
X24114Y-27912D01*
X24212Y-22342D02*
X24212Y-22690D01*
X31332Y-23071D02*
X31397Y-23071D01*
X31299Y-23038D02*
X31332Y-23071D01*
X31397Y-23326D02*
X31397Y-23071D01*
X24179Y-21613D02*
X24212Y-21646D01*
X24114Y-21613D02*
X24179Y-21613D01*
X24212Y-22342D02*
X24212Y-21646D01*
X25039Y-24763D02*
X25039Y-25124D01*
X31299Y-22342D02*
X31299Y-22690D01*
X31299Y-22690D02*
X31299Y-23038D01*
X31004Y-23071D02*
X31004Y-23071D01*
X31004Y-22985D02*
X31004Y-23071D01*
X31299Y-22690D02*
X31004Y-22985D01*
X31004Y-23326D02*
X31004Y-23071D01*
X23917Y-23326D02*
X23917Y-23198D01*
X23917Y-23198D02*
X23917Y-23071D01*
X23954Y-23235D02*
X23917Y-23198D01*
X23954Y-24654D02*
X23954Y-23235D01*
X24424Y-25124D02*
X23954Y-24654D01*
X25039Y-25124D02*
X24424Y-25124D01*
X24068Y-22920D02*
X23917Y-23071D01*
X24068Y-22834D02*
X24068Y-22920D01*
X24212Y-22690D02*
X24068Y-22834D01*
X24219Y-23071D02*
X24310Y-23071D01*
X24068Y-22920D02*
X24219Y-23071D01*
X24310Y-23326D02*
X24310Y-23071D01*
X31004Y-23326D02*
X31004Y-23581D01*
X31265Y-21613D02*
X31299Y-21646D01*
X31201Y-21613D02*
X31265Y-21613D01*
X31299Y-22342D02*
X31299Y-21646D01*
X31299Y-28641D02*
X31299Y-28989D01*
X31299Y-28989D02*
X31299Y-29337D01*
X31004Y-29370D02*
X31004Y-29370D01*
X31004Y-29284D02*
X31004Y-29370D01*
X31299Y-28989D02*
X31004Y-29284D01*
X31004Y-29625D02*
X31004Y-29370D01*
X29232Y-23858D02*
X29232Y-23679D01*
X27224Y-34241D02*
X27224Y-34606D01*
X27197Y-34213D02*
X27224Y-34241D01*
X30984Y-31299D02*
X31187Y-31299D01*
X31452Y-33733D02*
X31422Y-33764D01*
X31452Y-31799D02*
X31452Y-33733D01*
X32374Y-31799D02*
X31452Y-31799D01*
X31187Y-31534D02*
X31187Y-31299D01*
X31452Y-31799D02*
X31187Y-31534D01*
X31422Y-34094D02*
X31422Y-33764D01*
X31042Y-23619D02*
X31004Y-23581D01*
X31042Y-23740D02*
X31042Y-23619D01*
X30889Y-23892D02*
X31042Y-23740D01*
X30647Y-23892D02*
X30889Y-23892D01*
X30160Y-23405D02*
X30647Y-23892D01*
X29506Y-23405D02*
X30160Y-23405D01*
X29232Y-23679D02*
X29506Y-23405D01*
X30905Y-25118D02*
X30822Y-25118D01*
X31201Y-21486D02*
X31201Y-21613D01*
X31201Y-21486D02*
X31201Y-21358D01*
X30438Y-19866D02*
X30650Y-20078D01*
X30422Y-19866D02*
X30438Y-19866D01*
X31265Y-27912D02*
X31299Y-27946D01*
X31201Y-27912D02*
X31265Y-27912D01*
X31299Y-28641D02*
X31299Y-27946D01*
X31201Y-27657D02*
X31201Y-27912D01*
X30881Y-20078D02*
X30766Y-20078D01*
X30766Y-20078D02*
X30650Y-20078D01*
X30766Y-20668D02*
X31201Y-21103D01*
X30766Y-20078D02*
X30766Y-20668D01*
X31201Y-21358D02*
X31201Y-21103D01*
X24070Y-20039D02*
X24070Y-20369D01*
X24114Y-21486D02*
X24114Y-21613D01*
X24114Y-21486D02*
X24114Y-21358D01*
X21397Y-21023D02*
X21397Y-20844D01*
X21493Y-20748D02*
X21640Y-20748D01*
X21397Y-20844D02*
X21493Y-20748D01*
X27361Y-31750D02*
X27551Y-31560D01*
X27224Y-31750D02*
X27361Y-31750D01*
X27224Y-31929D02*
X27224Y-31750D01*
X24114Y-20665D02*
X23898Y-20449D01*
X24114Y-21358D02*
X24114Y-20665D01*
X23978Y-20369D02*
X24070Y-20369D01*
X23898Y-20449D02*
X23978Y-20369D01*
X24310Y-29498D02*
X24310Y-29625D01*
X21358Y-27283D02*
X21358Y-27104D01*
X21975Y-26895D02*
X21975Y-26963D01*
X21498Y-26963D02*
X21975Y-26963D01*
X21358Y-27104D02*
X21498Y-26963D01*
X30822Y-25681D02*
X30930Y-25789D01*
X30822Y-25118D02*
X30822Y-25681D01*
X31201Y-27496D02*
X31201Y-27657D01*
X30930Y-27226D02*
X31201Y-27496D01*
X30930Y-25789D02*
X30930Y-27226D01*
X23700Y-26963D02*
X21975Y-26963D01*
X24114Y-27378D02*
X23700Y-26963D01*
X24114Y-27657D02*
X24114Y-27378D01*
X25275Y-31220D02*
X25275Y-31581D01*
X25157Y-31581D02*
X25031Y-31708D01*
X25275Y-31581D02*
X25157Y-31581D01*
X24179Y-31708D02*
X24070Y-31599D01*
X25031Y-31708D02*
X24179Y-31708D01*
X23740Y-31599D02*
X24070Y-31599D01*
X22993Y-34940D02*
X23091Y-34842D01*
X20669Y-34940D02*
X22993Y-34940D01*
X23322Y-34842D02*
X23091Y-34842D01*
X22722Y-34227D02*
X23091Y-33858D01*
X20940Y-34227D02*
X22722Y-34227D01*
X20669Y-33956D02*
X20940Y-34227D01*
X23322Y-33858D02*
X23091Y-33858D01*
X21594Y-33897D02*
X21865Y-33897D01*
X20669Y-32972D02*
X21594Y-33897D01*
X21517Y-32836D02*
X21517Y-32952D01*
X20669Y-31988D02*
X21517Y-32836D01*
X21747Y-32952D02*
X21517Y-32952D01*
X33640Y-20352D02*
X33640Y-20118D01*
X34448Y-21161D02*
X33640Y-20352D01*
X33410Y-20118D02*
X33640Y-20118D01*
X28543Y-34940D02*
X29325Y-34940D01*
X28543Y-33956D02*
X29325Y-33956D01*
X28543Y-32972D02*
X29227Y-32972D01*
X29378Y-31988D02*
X29389Y-31999D01*
X28543Y-31988D02*
X29378Y-31988D01*
X29389Y-32229D02*
X29389Y-31999D01*
X33488Y-26535D02*
X33719Y-26535D01*
X33953Y-23625D02*
X34448Y-23129D01*
X33953Y-26301D02*
X33953Y-23625D01*
X33719Y-26535D02*
X33953Y-26301D01*
X33702Y-22145D02*
X33661Y-22186D01*
X34448Y-22145D02*
X33702Y-22145D01*
X33661Y-22416D02*
X33661Y-22186D01*
X30122Y-20078D02*
X30352Y-20078D01*
X30514Y-20239D02*
X30352Y-20078D01*
X34018Y-33322D02*
X33286Y-34055D01*
X34018Y-31809D02*
X34018Y-33322D01*
X34332Y-31496D02*
X34018Y-31809D01*
X34584Y-31496D02*
X34332Y-31496D01*
X34898Y-31182D02*
X34584Y-31496D01*
X34898Y-30469D02*
X34898Y-31182D01*
X34448Y-30019D02*
X34898Y-30469D01*
X33055Y-34055D02*
X33286Y-34055D01*
X34191Y-34448D02*
X33679Y-34960D01*
X34595Y-34448D02*
X34191Y-34448D01*
X35038Y-34005D02*
X34595Y-34448D01*
X35038Y-29625D02*
X35038Y-34005D01*
X34448Y-29035D02*
X35038Y-29625D01*
X33449Y-34960D02*
X33679Y-34960D01*
X34183Y-28051D02*
X33991Y-27859D01*
X34448Y-28051D02*
X34183Y-28051D01*
X33661Y-27859D02*
X33991Y-27859D01*
X33779Y-32735D02*
X33286Y-33228D01*
X33779Y-31673D02*
X33779Y-32735D01*
X34448Y-31003D02*
X33779Y-31673D01*
X33055Y-33228D02*
X33286Y-33228D01*
X25851Y-32407D02*
X25909Y-32349D01*
X25851Y-32992D02*
X25851Y-32407D01*
X26574Y-31306D02*
X26574Y-31003D01*
X26139Y-31741D02*
X26574Y-31306D01*
X26139Y-34351D02*
X26139Y-31741D01*
X25890Y-34600D02*
X26139Y-34351D01*
X25890Y-34940D02*
X25890Y-34600D01*
X25890Y-34055D02*
X25890Y-33725D01*
X25881Y-33725D02*
X25814Y-33658D01*
X25890Y-33725D02*
X25881Y-33725D01*
X27235Y-30724D02*
X27259Y-30748D01*
X27235Y-29828D02*
X27235Y-30724D01*
X27020Y-29613D02*
X27235Y-29828D01*
X27020Y-28746D02*
X27020Y-29613D01*
X26574Y-28300D02*
X27020Y-28746D01*
X26574Y-28051D02*
X26574Y-28300D01*
X26930Y-20177D02*
X27028Y-20078D01*
X26574Y-20177D02*
X26930Y-20177D01*
X27259Y-20078D02*
X27028Y-20078D01*
X27028Y-23584D02*
X27028Y-23700D01*
X26574Y-23129D02*
X27028Y-23584D01*
X27259Y-23700D02*
X27028Y-23700D01*
X26654Y-22145D02*
X27028Y-22519D01*
X26574Y-22145D02*
X26654Y-22145D01*
X27259Y-22519D02*
X27028Y-22519D01*
X26773Y-21161D02*
X27068Y-21456D01*
X26574Y-21161D02*
X26773Y-21161D01*
X27298Y-21456D02*
X27068Y-21456D01*
X25708Y-26471D02*
X25811Y-26471D01*
X25639Y-26540D02*
X25708Y-26471D01*
X25811Y-26141D02*
X25811Y-26471D01*
X20749Y-26082D02*
X21162Y-26496D01*
X20669Y-26082D02*
X20749Y-26082D01*
X21392Y-26496D02*
X21162Y-26496D01*
X21190Y-23524D02*
X21392Y-23322D01*
X21190Y-24577D02*
X21190Y-23524D01*
X20669Y-25098D02*
X21190Y-24577D01*
X21392Y-22992D02*
X21392Y-23322D01*
X22022Y-20157D02*
X21792Y-20157D01*
X20226Y-23671D02*
X20669Y-24114D01*
X20226Y-21949D02*
X20226Y-23671D01*
X20522Y-21653D02*
X20226Y-21949D01*
X20801Y-21653D02*
X20522Y-21653D01*
X21194Y-21261D02*
X20801Y-21653D01*
X21194Y-20756D02*
X21194Y-21261D01*
X21792Y-20157D02*
X21194Y-20756D01*
X28207Y-26574D02*
X28128Y-26653D01*
X28663Y-26574D02*
X28207Y-26574D01*
X28978Y-26259D02*
X28663Y-26574D01*
X28978Y-25533D02*
X28978Y-26259D01*
X28543Y-25098D02*
X28978Y-25533D01*
X27898Y-26653D02*
X28128Y-26653D01*
X27859Y-25039D02*
X27859Y-24709D01*
X27948Y-24709D02*
X28543Y-24114D01*
X27859Y-24709D02*
X27948Y-24709D01*
X27668Y-27353D02*
X27859Y-27543D01*
X27668Y-26379D02*
X27668Y-27353D01*
X27964Y-26082D02*
X27668Y-26379D01*
X28543Y-26082D02*
X27964Y-26082D01*
X27859Y-27874D02*
X27859Y-27543D01*
X28113Y-28707D02*
X27898Y-28921D01*
X28113Y-27497D02*
X28113Y-28707D01*
X28543Y-27066D02*
X28113Y-27497D01*
X27898Y-29251D02*
X27898Y-28921D01*
M02*
