G04 (created by PCBNEW (2013-jul-07)-stable) date Tue 09 Aug 2016 05:48:41 PM PDT*
%MOIN*%
G04 Gerber Fmt 3.4, Leading zero omitted, Abs format*
%FSLAX34Y34*%
G01*
G70*
G90*
G04 APERTURE LIST*
%ADD10C,0.00590551*%
%ADD11C,0.008*%
%ADD12C,0.0047*%
%ADD13C,0.006*%
%ADD14C,0.005*%
%ADD15C,0.0045*%
%ADD16C,0.004*%
%ADD17C,0.001*%
G04 APERTURE END LIST*
G54D10*
G54D11*
X35266Y-35318D02*
X34916Y-35318D01*
X35266Y-35118D02*
X35066Y-35268D01*
X34916Y-35118D02*
X35116Y-35318D01*
X35066Y-34918D02*
X35050Y-34951D01*
X35033Y-34968D01*
X35000Y-34985D01*
X34983Y-34985D01*
X34950Y-34968D01*
X34933Y-34951D01*
X34916Y-34918D01*
X34916Y-34851D01*
X34933Y-34818D01*
X34950Y-34801D01*
X34983Y-34785D01*
X35000Y-34785D01*
X35033Y-34801D01*
X35050Y-34818D01*
X35066Y-34851D01*
X35066Y-34918D01*
X35083Y-34951D01*
X35100Y-34968D01*
X35133Y-34985D01*
X35200Y-34985D01*
X35233Y-34968D01*
X35250Y-34951D01*
X35266Y-34918D01*
X35266Y-34851D01*
X35250Y-34818D01*
X35233Y-34801D01*
X35200Y-34785D01*
X35133Y-34785D01*
X35100Y-34801D01*
X35083Y-34818D01*
X35066Y-34851D01*
X28046Y-35308D02*
X27696Y-35308D01*
X28046Y-35108D02*
X27846Y-35258D01*
X27696Y-35108D02*
X27896Y-35308D01*
X27696Y-34991D02*
X27696Y-34758D01*
X28046Y-34908D01*
X35276Y-20353D02*
X34926Y-20353D01*
X35276Y-20153D02*
X35076Y-20303D01*
X34926Y-20153D02*
X35126Y-20353D01*
X34926Y-19853D02*
X34926Y-19920D01*
X34943Y-19953D01*
X34960Y-19970D01*
X35010Y-20003D01*
X35076Y-20020D01*
X35210Y-20020D01*
X35243Y-20003D01*
X35260Y-19986D01*
X35276Y-19953D01*
X35276Y-19886D01*
X35260Y-19853D01*
X35243Y-19836D01*
X35210Y-19820D01*
X35126Y-19820D01*
X35093Y-19836D01*
X35076Y-19853D01*
X35060Y-19886D01*
X35060Y-19953D01*
X35076Y-19986D01*
X35093Y-20003D01*
X35126Y-20020D01*
X28041Y-20333D02*
X27691Y-20333D01*
X28041Y-20133D02*
X27841Y-20283D01*
X27691Y-20133D02*
X27891Y-20333D01*
X27691Y-19816D02*
X27691Y-19983D01*
X27858Y-20000D01*
X27841Y-19983D01*
X27825Y-19950D01*
X27825Y-19866D01*
X27841Y-19833D01*
X27858Y-19816D01*
X27891Y-19800D01*
X27975Y-19800D01*
X28008Y-19816D01*
X28025Y-19833D01*
X28041Y-19866D01*
X28041Y-19950D01*
X28025Y-19983D01*
X28008Y-20000D01*
X27406Y-35308D02*
X27056Y-35308D01*
X27406Y-35108D02*
X27206Y-35258D01*
X27056Y-35108D02*
X27256Y-35308D01*
X27173Y-34808D02*
X27406Y-34808D01*
X27040Y-34891D02*
X27290Y-34975D01*
X27290Y-34758D01*
X20146Y-35238D02*
X19796Y-35238D01*
X20146Y-35038D02*
X19946Y-35188D01*
X19796Y-35038D02*
X19996Y-35238D01*
X19796Y-34921D02*
X19796Y-34705D01*
X19930Y-34821D01*
X19930Y-34771D01*
X19946Y-34738D01*
X19963Y-34721D01*
X19996Y-34705D01*
X20080Y-34705D01*
X20113Y-34721D01*
X20130Y-34738D01*
X20146Y-34771D01*
X20146Y-34871D01*
X20130Y-34905D01*
X20113Y-34921D01*
X27371Y-20318D02*
X27021Y-20318D01*
X27371Y-20118D02*
X27171Y-20268D01*
X27021Y-20118D02*
X27221Y-20318D01*
X27055Y-19985D02*
X27038Y-19968D01*
X27021Y-19935D01*
X27021Y-19851D01*
X27038Y-19818D01*
X27055Y-19801D01*
X27088Y-19785D01*
X27121Y-19785D01*
X27171Y-19801D01*
X27371Y-20001D01*
X27371Y-19785D01*
X20141Y-20328D02*
X19791Y-20328D01*
X20141Y-20128D02*
X19941Y-20278D01*
X19791Y-20128D02*
X19991Y-20328D01*
X20141Y-19795D02*
X20141Y-19995D01*
X20141Y-19895D02*
X19791Y-19895D01*
X19841Y-19928D01*
X19875Y-19961D01*
X19891Y-19995D01*
G54D12*
X24173Y-19783D02*
X23898Y-19783D01*
X24567Y-19783D02*
X24842Y-19783D01*
X24173Y-20295D02*
X23898Y-20295D01*
X24842Y-20295D02*
X24567Y-20295D01*
X23898Y-20289D02*
X23898Y-19789D01*
X24842Y-19789D02*
X24842Y-20289D01*
G54D11*
X24370Y-24409D02*
X25708Y-24409D01*
X25708Y-24409D02*
X25708Y-25117D01*
X25708Y-25117D02*
X24370Y-25117D01*
X24370Y-25117D02*
X24370Y-24409D01*
X24606Y-30866D02*
X25944Y-30866D01*
X25944Y-30866D02*
X25944Y-31574D01*
X25944Y-31574D02*
X24606Y-31574D01*
X24606Y-31574D02*
X24606Y-30866D01*
X30236Y-24764D02*
X31574Y-24764D01*
X31574Y-24764D02*
X31574Y-25472D01*
X31574Y-25472D02*
X30236Y-25472D01*
X30236Y-25472D02*
X30236Y-24764D01*
X30315Y-30945D02*
X31653Y-30945D01*
X31653Y-30945D02*
X31653Y-31653D01*
X31653Y-31653D02*
X30315Y-31653D01*
X30315Y-31653D02*
X30315Y-30945D01*
G54D12*
X23484Y-31496D02*
X23484Y-31771D01*
X23484Y-31102D02*
X23484Y-30827D01*
X23996Y-31496D02*
X23996Y-31771D01*
X23996Y-30827D02*
X23996Y-31102D01*
X23990Y-31771D02*
X23490Y-31771D01*
X23490Y-30827D02*
X23990Y-30827D01*
G54D13*
X23012Y-23167D02*
X23012Y-21517D01*
X23012Y-21517D02*
X23012Y-21142D01*
X23012Y-21142D02*
X25412Y-21142D01*
X25412Y-21142D02*
X25412Y-23542D01*
X25412Y-23542D02*
X23387Y-23542D01*
X23387Y-23542D02*
X23012Y-23167D01*
X23012Y-29466D02*
X23012Y-27816D01*
X23012Y-27816D02*
X23012Y-27441D01*
X23012Y-27441D02*
X25412Y-27441D01*
X25412Y-27441D02*
X25412Y-29841D01*
X25412Y-29841D02*
X23387Y-29841D01*
X23387Y-29841D02*
X23012Y-29466D01*
X30099Y-23167D02*
X30099Y-21517D01*
X30099Y-21517D02*
X30099Y-21142D01*
X30099Y-21142D02*
X32499Y-21142D01*
X32499Y-21142D02*
X32499Y-23542D01*
X32499Y-23542D02*
X30474Y-23542D01*
X30474Y-23542D02*
X30099Y-23167D01*
X30099Y-29466D02*
X30099Y-27816D01*
X30099Y-27816D02*
X30099Y-27441D01*
X30099Y-27441D02*
X32499Y-27441D01*
X32499Y-27441D02*
X32499Y-29841D01*
X32499Y-29841D02*
X30474Y-29841D01*
X30474Y-29841D02*
X30099Y-29466D01*
G54D12*
X30984Y-19822D02*
X30709Y-19822D01*
X31378Y-19822D02*
X31653Y-19822D01*
X30984Y-20334D02*
X30709Y-20334D01*
X31653Y-20334D02*
X31378Y-20334D01*
X30709Y-20328D02*
X30709Y-19828D01*
X31653Y-19828D02*
X31653Y-20328D01*
X31319Y-34350D02*
X31594Y-34350D01*
X30925Y-34350D02*
X30650Y-34350D01*
X31319Y-33838D02*
X31594Y-33838D01*
X30650Y-33838D02*
X30925Y-33838D01*
X31594Y-33844D02*
X31594Y-34344D01*
X30650Y-34344D02*
X30650Y-33844D01*
G54D14*
X32558Y-32953D02*
X32280Y-32953D01*
X32280Y-32953D02*
X32280Y-33503D01*
X32280Y-33503D02*
X32558Y-33503D01*
X33230Y-32953D02*
X32952Y-32953D01*
X33230Y-32953D02*
X33230Y-33503D01*
X33230Y-33503D02*
X32952Y-33503D01*
X32558Y-33780D02*
X32280Y-33780D01*
X32280Y-33780D02*
X32280Y-34330D01*
X32280Y-34330D02*
X32558Y-34330D01*
X33230Y-33780D02*
X32952Y-33780D01*
X33230Y-33780D02*
X33230Y-34330D01*
X33230Y-34330D02*
X32952Y-34330D01*
X32952Y-34685D02*
X32674Y-34685D01*
X32674Y-34685D02*
X32674Y-35235D01*
X32674Y-35235D02*
X32952Y-35235D01*
X33624Y-34685D02*
X33346Y-34685D01*
X33624Y-34685D02*
X33624Y-35235D01*
X33624Y-35235D02*
X33346Y-35235D01*
X33936Y-27362D02*
X33936Y-27084D01*
X33936Y-27084D02*
X33386Y-27084D01*
X33386Y-27084D02*
X33386Y-27362D01*
X33936Y-28034D02*
X33936Y-27756D01*
X33936Y-28034D02*
X33386Y-28034D01*
X33386Y-28034D02*
X33386Y-27756D01*
X29822Y-35215D02*
X30100Y-35215D01*
X30100Y-35215D02*
X30100Y-34665D01*
X30100Y-34665D02*
X29822Y-34665D01*
X29150Y-35215D02*
X29428Y-35215D01*
X29150Y-35215D02*
X29150Y-34665D01*
X29150Y-34665D02*
X29428Y-34665D01*
X29822Y-34231D02*
X30100Y-34231D01*
X30100Y-34231D02*
X30100Y-33681D01*
X30100Y-33681D02*
X29822Y-33681D01*
X29150Y-34231D02*
X29428Y-34231D01*
X29150Y-34231D02*
X29150Y-33681D01*
X29150Y-33681D02*
X29428Y-33681D01*
X29724Y-33247D02*
X30002Y-33247D01*
X30002Y-33247D02*
X30002Y-32697D01*
X30002Y-32697D02*
X29724Y-32697D01*
X29052Y-33247D02*
X29330Y-33247D01*
X29052Y-33247D02*
X29052Y-32697D01*
X29052Y-32697D02*
X29330Y-32697D01*
X29664Y-31732D02*
X29664Y-31454D01*
X29664Y-31454D02*
X29114Y-31454D01*
X29114Y-31454D02*
X29114Y-31732D01*
X29664Y-32404D02*
X29664Y-32126D01*
X29664Y-32404D02*
X29114Y-32404D01*
X29114Y-32404D02*
X29114Y-32126D01*
X32991Y-26260D02*
X32713Y-26260D01*
X32713Y-26260D02*
X32713Y-26810D01*
X32713Y-26810D02*
X32991Y-26810D01*
X33663Y-26260D02*
X33385Y-26260D01*
X33663Y-26260D02*
X33663Y-26810D01*
X33663Y-26810D02*
X33385Y-26810D01*
X33386Y-22913D02*
X33386Y-23191D01*
X33386Y-23191D02*
X33936Y-23191D01*
X33936Y-23191D02*
X33936Y-22913D01*
X33386Y-22241D02*
X33386Y-22519D01*
X33386Y-22241D02*
X33936Y-22241D01*
X33936Y-22241D02*
X33936Y-22519D01*
X32913Y-19843D02*
X32635Y-19843D01*
X32635Y-19843D02*
X32635Y-20393D01*
X32635Y-20393D02*
X32913Y-20393D01*
X33585Y-19843D02*
X33307Y-19843D01*
X33585Y-19843D02*
X33585Y-20393D01*
X33585Y-20393D02*
X33307Y-20393D01*
X29625Y-19803D02*
X29347Y-19803D01*
X29347Y-19803D02*
X29347Y-20353D01*
X29347Y-20353D02*
X29625Y-20353D01*
X30297Y-19803D02*
X30019Y-19803D01*
X30297Y-19803D02*
X30297Y-20353D01*
X30297Y-20353D02*
X30019Y-20353D01*
X27401Y-28976D02*
X27123Y-28976D01*
X27123Y-28976D02*
X27123Y-29526D01*
X27123Y-29526D02*
X27401Y-29526D01*
X28073Y-28976D02*
X27795Y-28976D01*
X28073Y-28976D02*
X28073Y-29526D01*
X28073Y-29526D02*
X27795Y-29526D01*
X27362Y-27599D02*
X27084Y-27599D01*
X27084Y-27599D02*
X27084Y-28149D01*
X27084Y-28149D02*
X27362Y-28149D01*
X28034Y-27599D02*
X27756Y-27599D01*
X28034Y-27599D02*
X28034Y-28149D01*
X28034Y-28149D02*
X27756Y-28149D01*
X27401Y-26378D02*
X27123Y-26378D01*
X27123Y-26378D02*
X27123Y-26928D01*
X27123Y-26928D02*
X27401Y-26928D01*
X28073Y-26378D02*
X27795Y-26378D01*
X28073Y-26378D02*
X28073Y-26928D01*
X28073Y-26928D02*
X27795Y-26928D01*
X27362Y-24764D02*
X27084Y-24764D01*
X27084Y-24764D02*
X27084Y-25314D01*
X27084Y-25314D02*
X27362Y-25314D01*
X28034Y-24764D02*
X27756Y-24764D01*
X28034Y-24764D02*
X28034Y-25314D01*
X28034Y-25314D02*
X27756Y-25314D01*
X25393Y-34665D02*
X25115Y-34665D01*
X25115Y-34665D02*
X25115Y-35215D01*
X25115Y-35215D02*
X25393Y-35215D01*
X26065Y-34665D02*
X25787Y-34665D01*
X26065Y-34665D02*
X26065Y-35215D01*
X26065Y-35215D02*
X25787Y-35215D01*
X25393Y-33780D02*
X25115Y-33780D01*
X25115Y-33780D02*
X25115Y-34330D01*
X25115Y-34330D02*
X25393Y-34330D01*
X26065Y-33780D02*
X25787Y-33780D01*
X26065Y-33780D02*
X26065Y-34330D01*
X26065Y-34330D02*
X25787Y-34330D01*
X25354Y-32717D02*
X25076Y-32717D01*
X25076Y-32717D02*
X25076Y-33267D01*
X25076Y-33267D02*
X25354Y-33267D01*
X26026Y-32717D02*
X25748Y-32717D01*
X26026Y-32717D02*
X26026Y-33267D01*
X26026Y-33267D02*
X25748Y-33267D01*
X27756Y-31023D02*
X28034Y-31023D01*
X28034Y-31023D02*
X28034Y-30473D01*
X28034Y-30473D02*
X27756Y-30473D01*
X27084Y-31023D02*
X27362Y-31023D01*
X27084Y-31023D02*
X27084Y-30473D01*
X27084Y-30473D02*
X27362Y-30473D01*
X23819Y-35117D02*
X24097Y-35117D01*
X24097Y-35117D02*
X24097Y-34567D01*
X24097Y-34567D02*
X23819Y-34567D01*
X23147Y-35117D02*
X23425Y-35117D01*
X23147Y-35117D02*
X23147Y-34567D01*
X23147Y-34567D02*
X23425Y-34567D01*
X23819Y-34133D02*
X24097Y-34133D01*
X24097Y-34133D02*
X24097Y-33583D01*
X24097Y-33583D02*
X23819Y-33583D01*
X23147Y-34133D02*
X23425Y-34133D01*
X23147Y-34133D02*
X23147Y-33583D01*
X23147Y-33583D02*
X23425Y-33583D01*
X22362Y-34172D02*
X22640Y-34172D01*
X22640Y-34172D02*
X22640Y-33622D01*
X22640Y-33622D02*
X22362Y-33622D01*
X21690Y-34172D02*
X21968Y-34172D01*
X21690Y-34172D02*
X21690Y-33622D01*
X21690Y-33622D02*
X21968Y-33622D01*
X22244Y-33227D02*
X22522Y-33227D01*
X22522Y-33227D02*
X22522Y-32677D01*
X22522Y-32677D02*
X22244Y-32677D01*
X21572Y-33227D02*
X21850Y-33227D01*
X21572Y-33227D02*
X21572Y-32677D01*
X21572Y-32677D02*
X21850Y-32677D01*
X27756Y-23975D02*
X28034Y-23975D01*
X28034Y-23975D02*
X28034Y-23425D01*
X28034Y-23425D02*
X27756Y-23425D01*
X27084Y-23975D02*
X27362Y-23975D01*
X27084Y-23975D02*
X27084Y-23425D01*
X27084Y-23425D02*
X27362Y-23425D01*
X27756Y-22794D02*
X28034Y-22794D01*
X28034Y-22794D02*
X28034Y-22244D01*
X28034Y-22244D02*
X27756Y-22244D01*
X27084Y-22794D02*
X27362Y-22794D01*
X27084Y-22794D02*
X27084Y-22244D01*
X27084Y-22244D02*
X27362Y-22244D01*
X27795Y-21731D02*
X28073Y-21731D01*
X28073Y-21731D02*
X28073Y-21181D01*
X28073Y-21181D02*
X27795Y-21181D01*
X27123Y-21731D02*
X27401Y-21731D01*
X27123Y-21731D02*
X27123Y-21181D01*
X27123Y-21181D02*
X27401Y-21181D01*
X27756Y-20353D02*
X28034Y-20353D01*
X28034Y-20353D02*
X28034Y-19803D01*
X28034Y-19803D02*
X27756Y-19803D01*
X27084Y-20353D02*
X27362Y-20353D01*
X27084Y-20353D02*
X27084Y-19803D01*
X27084Y-19803D02*
X27362Y-19803D01*
X25314Y-25866D02*
X25036Y-25866D01*
X25036Y-25866D02*
X25036Y-26416D01*
X25036Y-26416D02*
X25314Y-26416D01*
X25986Y-25866D02*
X25708Y-25866D01*
X25986Y-25866D02*
X25986Y-26416D01*
X25986Y-26416D02*
X25708Y-26416D01*
X21889Y-26771D02*
X22167Y-26771D01*
X22167Y-26771D02*
X22167Y-26221D01*
X22167Y-26221D02*
X21889Y-26221D01*
X21217Y-26771D02*
X21495Y-26771D01*
X21217Y-26771D02*
X21217Y-26221D01*
X21217Y-26221D02*
X21495Y-26221D01*
X21889Y-23267D02*
X22167Y-23267D01*
X22167Y-23267D02*
X22167Y-22717D01*
X22167Y-22717D02*
X21889Y-22717D01*
X21217Y-23267D02*
X21495Y-23267D01*
X21217Y-23267D02*
X21217Y-22717D01*
X21217Y-22717D02*
X21495Y-22717D01*
X22519Y-20432D02*
X22797Y-20432D01*
X22797Y-20432D02*
X22797Y-19882D01*
X22797Y-19882D02*
X22519Y-19882D01*
X21847Y-20432D02*
X22125Y-20432D01*
X21847Y-20432D02*
X21847Y-19882D01*
X21847Y-19882D02*
X22125Y-19882D01*
X31299Y-35196D02*
X31577Y-35196D01*
X31577Y-35196D02*
X31577Y-34646D01*
X31577Y-34646D02*
X31299Y-34646D01*
X30627Y-35196D02*
X30905Y-35196D01*
X30627Y-35196D02*
X30627Y-34646D01*
X30627Y-34646D02*
X30905Y-34646D01*
X29999Y-25984D02*
X29999Y-25706D01*
X29999Y-25706D02*
X29449Y-25706D01*
X29449Y-25706D02*
X29449Y-25984D01*
X29999Y-26656D02*
X29999Y-26378D01*
X29999Y-26656D02*
X29449Y-26656D01*
X29449Y-26656D02*
X29449Y-26378D01*
X23385Y-32638D02*
X23107Y-32638D01*
X23107Y-32638D02*
X23107Y-33188D01*
X23107Y-33188D02*
X23385Y-33188D01*
X24057Y-32638D02*
X23779Y-32638D01*
X24057Y-32638D02*
X24057Y-33188D01*
X24057Y-33188D02*
X23779Y-33188D01*
X23031Y-26201D02*
X22753Y-26201D01*
X22753Y-26201D02*
X22753Y-26751D01*
X22753Y-26751D02*
X23031Y-26751D01*
X23703Y-26201D02*
X23425Y-26201D01*
X23703Y-26201D02*
X23703Y-26751D01*
X23703Y-26751D02*
X23425Y-26751D01*
G54D10*
X31496Y-27559D02*
X35433Y-27559D01*
X35433Y-27559D02*
X35433Y-35433D01*
X35433Y-35433D02*
X27559Y-35433D01*
X27559Y-35433D02*
X27559Y-27559D01*
X27559Y-27559D02*
X31692Y-27559D01*
X31496Y-19685D02*
X35433Y-19685D01*
X35433Y-19685D02*
X35433Y-27559D01*
X35433Y-27559D02*
X27559Y-27559D01*
X27559Y-27559D02*
X27559Y-19685D01*
X27559Y-19685D02*
X31692Y-19685D01*
X23622Y-27559D02*
X27559Y-27559D01*
X27559Y-27559D02*
X27559Y-35433D01*
X27559Y-35433D02*
X19685Y-35433D01*
X19685Y-35433D02*
X19685Y-27559D01*
X19685Y-27559D02*
X23818Y-27559D01*
X23622Y-19685D02*
X27559Y-19685D01*
X27559Y-19685D02*
X27559Y-27559D01*
X27559Y-27559D02*
X19685Y-27559D01*
X19685Y-27559D02*
X19685Y-19685D01*
X19685Y-19685D02*
X23818Y-19685D01*
X27535Y-31929D02*
G75*
G03X27535Y-31929I-55J0D01*
G74*
G01*
X27795Y-32440D02*
X27322Y-32440D01*
X27322Y-32440D02*
X27322Y-31811D01*
X27322Y-31811D02*
X27795Y-31811D01*
X27795Y-31811D02*
X27795Y-32440D01*
X29543Y-23858D02*
G75*
G03X29543Y-23858I-55J0D01*
G74*
G01*
X29803Y-24370D02*
X29330Y-24370D01*
X29330Y-24370D02*
X29330Y-23740D01*
X29330Y-23740D02*
X29803Y-23740D01*
X29803Y-23740D02*
X29803Y-24370D01*
X27535Y-34606D02*
G75*
G03X27535Y-34606I-55J0D01*
G74*
G01*
X27795Y-35118D02*
X27322Y-35118D01*
X27322Y-35118D02*
X27322Y-34488D01*
X27322Y-34488D02*
X27795Y-34488D01*
X27795Y-34488D02*
X27795Y-35118D01*
X21669Y-27283D02*
G75*
G03X21669Y-27283I-55J0D01*
G74*
G01*
X21929Y-27795D02*
X21456Y-27795D01*
X21456Y-27795D02*
X21456Y-27165D01*
X21456Y-27165D02*
X21929Y-27165D01*
X21929Y-27165D02*
X21929Y-27795D01*
X21709Y-21023D02*
G75*
G03X21709Y-21023I-55J0D01*
G74*
G01*
X21968Y-21535D02*
X21496Y-21535D01*
X21496Y-21535D02*
X21496Y-20905D01*
X21496Y-20905D02*
X21968Y-20905D01*
X21968Y-20905D02*
X21968Y-21535D01*
G54D15*
X24431Y-20069D02*
X24441Y-20077D01*
X24451Y-20103D01*
X24451Y-20120D01*
X24441Y-20146D01*
X24422Y-20163D01*
X24403Y-20172D01*
X24365Y-20180D01*
X24336Y-20180D01*
X24298Y-20172D01*
X24279Y-20163D01*
X24260Y-20146D01*
X24251Y-20120D01*
X24251Y-20103D01*
X24260Y-20077D01*
X24270Y-20069D01*
X24451Y-19897D02*
X24451Y-20000D01*
X24451Y-19949D02*
X24251Y-19949D01*
X24279Y-19966D01*
X24298Y-19983D01*
X24308Y-20000D01*
G54D13*
X24757Y-23915D02*
X24957Y-24215D01*
X24957Y-23915D02*
X24757Y-24215D01*
X25228Y-24215D02*
X25057Y-24215D01*
X25142Y-24215D02*
X25142Y-23915D01*
X25114Y-23958D01*
X25085Y-23987D01*
X25057Y-24001D01*
X25032Y-30411D02*
X25232Y-30711D01*
X25232Y-30411D02*
X25032Y-30711D01*
X25332Y-30440D02*
X25347Y-30426D01*
X25375Y-30411D01*
X25447Y-30411D01*
X25475Y-30426D01*
X25489Y-30440D01*
X25504Y-30469D01*
X25504Y-30497D01*
X25489Y-30540D01*
X25318Y-30711D01*
X25504Y-30711D01*
X30662Y-24230D02*
X30862Y-24530D01*
X30862Y-24230D02*
X30662Y-24530D01*
X30948Y-24230D02*
X31134Y-24230D01*
X31034Y-24345D01*
X31076Y-24345D01*
X31105Y-24359D01*
X31119Y-24373D01*
X31134Y-24402D01*
X31134Y-24473D01*
X31119Y-24502D01*
X31105Y-24516D01*
X31076Y-24530D01*
X30991Y-24530D01*
X30962Y-24516D01*
X30948Y-24502D01*
G54D11*
X30660Y-30195D02*
X30927Y-30595D01*
X30927Y-30195D02*
X30660Y-30595D01*
X31250Y-30328D02*
X31250Y-30595D01*
X31155Y-30176D02*
X31060Y-30461D01*
X31308Y-30461D01*
G54D15*
X23710Y-31341D02*
X23701Y-31350D01*
X23675Y-31360D01*
X23658Y-31360D01*
X23633Y-31350D01*
X23615Y-31331D01*
X23607Y-31312D01*
X23598Y-31274D01*
X23598Y-31246D01*
X23607Y-31208D01*
X23615Y-31189D01*
X23633Y-31170D01*
X23658Y-31160D01*
X23675Y-31160D01*
X23701Y-31170D01*
X23710Y-31179D01*
X23778Y-31179D02*
X23787Y-31170D01*
X23804Y-31160D01*
X23847Y-31160D01*
X23864Y-31170D01*
X23873Y-31179D01*
X23881Y-31198D01*
X23881Y-31217D01*
X23873Y-31246D01*
X23770Y-31360D01*
X23881Y-31360D01*
G54D13*
X22837Y-22596D02*
X22537Y-22596D01*
X22809Y-22281D02*
X22823Y-22296D01*
X22837Y-22338D01*
X22837Y-22367D01*
X22823Y-22410D01*
X22795Y-22438D01*
X22766Y-22453D01*
X22709Y-22467D01*
X22666Y-22467D01*
X22609Y-22453D01*
X22580Y-22438D01*
X22552Y-22410D01*
X22537Y-22367D01*
X22537Y-22338D01*
X22552Y-22296D01*
X22566Y-22281D01*
X22837Y-21996D02*
X22837Y-22167D01*
X22837Y-22081D02*
X22537Y-22081D01*
X22580Y-22110D01*
X22609Y-22138D01*
X22623Y-22167D01*
X22877Y-28973D02*
X22577Y-28973D01*
X22848Y-28659D02*
X22863Y-28673D01*
X22877Y-28716D01*
X22877Y-28745D01*
X22863Y-28788D01*
X22834Y-28816D01*
X22805Y-28831D01*
X22748Y-28845D01*
X22705Y-28845D01*
X22648Y-28831D01*
X22620Y-28816D01*
X22591Y-28788D01*
X22577Y-28745D01*
X22577Y-28716D01*
X22591Y-28673D01*
X22605Y-28659D01*
X22605Y-28545D02*
X22591Y-28531D01*
X22577Y-28502D01*
X22577Y-28431D01*
X22591Y-28402D01*
X22605Y-28388D01*
X22634Y-28373D01*
X22663Y-28373D01*
X22705Y-28388D01*
X22877Y-28559D01*
X22877Y-28373D01*
X29963Y-22674D02*
X29663Y-22674D01*
X29935Y-22360D02*
X29949Y-22374D01*
X29963Y-22417D01*
X29963Y-22446D01*
X29949Y-22489D01*
X29921Y-22517D01*
X29892Y-22531D01*
X29835Y-22546D01*
X29792Y-22546D01*
X29735Y-22531D01*
X29706Y-22517D01*
X29678Y-22489D01*
X29663Y-22446D01*
X29663Y-22417D01*
X29678Y-22374D01*
X29692Y-22360D01*
X29663Y-22260D02*
X29663Y-22074D01*
X29778Y-22174D01*
X29778Y-22131D01*
X29792Y-22103D01*
X29806Y-22089D01*
X29835Y-22074D01*
X29906Y-22074D01*
X29935Y-22089D01*
X29949Y-22103D01*
X29963Y-22131D01*
X29963Y-22217D01*
X29949Y-22246D01*
X29935Y-22260D01*
X29963Y-28934D02*
X29663Y-28934D01*
X29935Y-28620D02*
X29949Y-28634D01*
X29963Y-28677D01*
X29963Y-28706D01*
X29949Y-28748D01*
X29921Y-28777D01*
X29892Y-28791D01*
X29835Y-28806D01*
X29792Y-28806D01*
X29735Y-28791D01*
X29706Y-28777D01*
X29678Y-28748D01*
X29663Y-28706D01*
X29663Y-28677D01*
X29678Y-28634D01*
X29692Y-28620D01*
X29763Y-28363D02*
X29963Y-28363D01*
X29649Y-28434D02*
X29863Y-28506D01*
X29863Y-28320D01*
G54D15*
X31243Y-20108D02*
X31252Y-20117D01*
X31262Y-20143D01*
X31262Y-20160D01*
X31252Y-20185D01*
X31233Y-20203D01*
X31214Y-20211D01*
X31176Y-20220D01*
X31147Y-20220D01*
X31109Y-20211D01*
X31090Y-20203D01*
X31071Y-20185D01*
X31062Y-20160D01*
X31062Y-20143D01*
X31071Y-20117D01*
X31081Y-20108D01*
X31062Y-20048D02*
X31062Y-19937D01*
X31138Y-19997D01*
X31138Y-19971D01*
X31147Y-19954D01*
X31157Y-19945D01*
X31176Y-19937D01*
X31223Y-19937D01*
X31243Y-19945D01*
X31252Y-19954D01*
X31262Y-19971D01*
X31262Y-20023D01*
X31252Y-20040D01*
X31243Y-20048D01*
X31183Y-34124D02*
X31193Y-34133D01*
X31202Y-34158D01*
X31202Y-34175D01*
X31193Y-34201D01*
X31174Y-34218D01*
X31155Y-34227D01*
X31117Y-34235D01*
X31088Y-34235D01*
X31050Y-34227D01*
X31031Y-34218D01*
X31012Y-34201D01*
X31002Y-34175D01*
X31002Y-34158D01*
X31012Y-34133D01*
X31022Y-34124D01*
X31069Y-33970D02*
X31202Y-33970D01*
X30993Y-34013D02*
X31136Y-34055D01*
X31136Y-33944D01*
X32860Y-33319D02*
X32766Y-33379D01*
X32860Y-33421D02*
X32663Y-33421D01*
X32663Y-33353D01*
X32673Y-33336D01*
X32682Y-33327D01*
X32701Y-33319D01*
X32729Y-33319D01*
X32748Y-33327D01*
X32757Y-33336D01*
X32766Y-33353D01*
X32766Y-33421D01*
X32663Y-33259D02*
X32663Y-33147D01*
X32738Y-33207D01*
X32738Y-33181D01*
X32748Y-33164D01*
X32757Y-33156D01*
X32776Y-33147D01*
X32823Y-33147D01*
X32841Y-33156D01*
X32851Y-33164D01*
X32860Y-33181D01*
X32860Y-33233D01*
X32851Y-33250D01*
X32841Y-33259D01*
X32663Y-32993D02*
X32663Y-33027D01*
X32673Y-33044D01*
X32682Y-33053D01*
X32710Y-33070D01*
X32748Y-33079D01*
X32823Y-33079D01*
X32841Y-33070D01*
X32851Y-33061D01*
X32860Y-33044D01*
X32860Y-33010D01*
X32851Y-32993D01*
X32841Y-32984D01*
X32823Y-32976D01*
X32776Y-32976D01*
X32757Y-32984D01*
X32748Y-32993D01*
X32738Y-33010D01*
X32738Y-33044D01*
X32748Y-33061D01*
X32757Y-33070D01*
X32776Y-33079D01*
X32860Y-34145D02*
X32766Y-34205D01*
X32860Y-34248D02*
X32663Y-34248D01*
X32663Y-34180D01*
X32673Y-34162D01*
X32682Y-34154D01*
X32701Y-34145D01*
X32729Y-34145D01*
X32748Y-34154D01*
X32757Y-34162D01*
X32766Y-34180D01*
X32766Y-34248D01*
X32663Y-34085D02*
X32663Y-33974D01*
X32738Y-34034D01*
X32738Y-34008D01*
X32748Y-33991D01*
X32757Y-33982D01*
X32776Y-33974D01*
X32823Y-33974D01*
X32841Y-33982D01*
X32851Y-33991D01*
X32860Y-34008D01*
X32860Y-34060D01*
X32851Y-34077D01*
X32841Y-34085D01*
X32663Y-33811D02*
X32663Y-33897D01*
X32757Y-33905D01*
X32748Y-33897D01*
X32738Y-33880D01*
X32738Y-33837D01*
X32748Y-33820D01*
X32757Y-33811D01*
X32776Y-33802D01*
X32823Y-33802D01*
X32841Y-33811D01*
X32851Y-33820D01*
X32860Y-33837D01*
X32860Y-33880D01*
X32851Y-33897D01*
X32841Y-33905D01*
X33254Y-35051D02*
X33160Y-35111D01*
X33254Y-35154D02*
X33057Y-35154D01*
X33057Y-35085D01*
X33066Y-35068D01*
X33076Y-35059D01*
X33094Y-35051D01*
X33123Y-35051D01*
X33141Y-35059D01*
X33151Y-35068D01*
X33160Y-35085D01*
X33160Y-35154D01*
X33057Y-34991D02*
X33057Y-34879D01*
X33132Y-34939D01*
X33132Y-34914D01*
X33141Y-34897D01*
X33151Y-34888D01*
X33169Y-34879D01*
X33216Y-34879D01*
X33235Y-34888D01*
X33244Y-34897D01*
X33254Y-34914D01*
X33254Y-34965D01*
X33244Y-34982D01*
X33235Y-34991D01*
X33123Y-34725D02*
X33254Y-34725D01*
X33047Y-34768D02*
X33188Y-34811D01*
X33188Y-34699D01*
X33570Y-27663D02*
X33510Y-27569D01*
X33467Y-27663D02*
X33467Y-27466D01*
X33536Y-27466D01*
X33553Y-27476D01*
X33562Y-27485D01*
X33570Y-27504D01*
X33570Y-27532D01*
X33562Y-27551D01*
X33553Y-27560D01*
X33536Y-27569D01*
X33467Y-27569D01*
X33630Y-27466D02*
X33742Y-27466D01*
X33682Y-27541D01*
X33707Y-27541D01*
X33724Y-27551D01*
X33733Y-27560D01*
X33742Y-27579D01*
X33742Y-27626D01*
X33733Y-27645D01*
X33724Y-27654D01*
X33707Y-27663D01*
X33656Y-27663D01*
X33639Y-27654D01*
X33630Y-27645D01*
X33802Y-27466D02*
X33913Y-27466D01*
X33853Y-27541D01*
X33879Y-27541D01*
X33896Y-27551D01*
X33904Y-27560D01*
X33913Y-27579D01*
X33913Y-27626D01*
X33904Y-27645D01*
X33896Y-27654D01*
X33879Y-27663D01*
X33827Y-27663D01*
X33810Y-27654D01*
X33802Y-27645D01*
X29680Y-35081D02*
X29586Y-35141D01*
X29680Y-35184D02*
X29483Y-35184D01*
X29483Y-35115D01*
X29493Y-35098D01*
X29502Y-35090D01*
X29521Y-35081D01*
X29549Y-35081D01*
X29568Y-35090D01*
X29577Y-35098D01*
X29586Y-35115D01*
X29586Y-35184D01*
X29483Y-35021D02*
X29483Y-34910D01*
X29558Y-34970D01*
X29558Y-34944D01*
X29568Y-34927D01*
X29577Y-34918D01*
X29596Y-34910D01*
X29643Y-34910D01*
X29661Y-34918D01*
X29671Y-34927D01*
X29680Y-34944D01*
X29680Y-34995D01*
X29671Y-35013D01*
X29661Y-35021D01*
X29502Y-34841D02*
X29493Y-34833D01*
X29483Y-34815D01*
X29483Y-34773D01*
X29493Y-34755D01*
X29502Y-34747D01*
X29521Y-34738D01*
X29540Y-34738D01*
X29568Y-34747D01*
X29680Y-34850D01*
X29680Y-34738D01*
X29680Y-34097D02*
X29586Y-34157D01*
X29680Y-34200D02*
X29483Y-34200D01*
X29483Y-34131D01*
X29493Y-34114D01*
X29502Y-34105D01*
X29521Y-34097D01*
X29549Y-34097D01*
X29568Y-34105D01*
X29577Y-34114D01*
X29586Y-34131D01*
X29586Y-34200D01*
X29483Y-34037D02*
X29483Y-33925D01*
X29558Y-33985D01*
X29558Y-33960D01*
X29568Y-33943D01*
X29577Y-33934D01*
X29596Y-33925D01*
X29643Y-33925D01*
X29661Y-33934D01*
X29671Y-33943D01*
X29680Y-33960D01*
X29680Y-34011D01*
X29671Y-34028D01*
X29661Y-34037D01*
X29680Y-33754D02*
X29680Y-33857D01*
X29680Y-33805D02*
X29483Y-33805D01*
X29511Y-33823D01*
X29530Y-33840D01*
X29540Y-33857D01*
X29582Y-33113D02*
X29488Y-33173D01*
X29582Y-33216D02*
X29385Y-33216D01*
X29385Y-33147D01*
X29394Y-33130D01*
X29404Y-33121D01*
X29422Y-33113D01*
X29450Y-33113D01*
X29469Y-33121D01*
X29479Y-33130D01*
X29488Y-33147D01*
X29488Y-33216D01*
X29385Y-33053D02*
X29385Y-32941D01*
X29460Y-33001D01*
X29460Y-32976D01*
X29469Y-32958D01*
X29479Y-32950D01*
X29497Y-32941D01*
X29544Y-32941D01*
X29563Y-32950D01*
X29572Y-32958D01*
X29582Y-32976D01*
X29582Y-33027D01*
X29572Y-33044D01*
X29563Y-33053D01*
X29385Y-32830D02*
X29385Y-32813D01*
X29394Y-32796D01*
X29404Y-32787D01*
X29422Y-32778D01*
X29460Y-32770D01*
X29507Y-32770D01*
X29544Y-32778D01*
X29563Y-32787D01*
X29572Y-32796D01*
X29582Y-32813D01*
X29582Y-32830D01*
X29572Y-32847D01*
X29563Y-32856D01*
X29544Y-32864D01*
X29507Y-32873D01*
X29460Y-32873D01*
X29422Y-32864D01*
X29404Y-32856D01*
X29394Y-32847D01*
X29385Y-32830D01*
X29299Y-32033D02*
X29239Y-31940D01*
X29196Y-32033D02*
X29196Y-31836D01*
X29264Y-31836D01*
X29281Y-31846D01*
X29290Y-31855D01*
X29299Y-31874D01*
X29299Y-31902D01*
X29290Y-31921D01*
X29281Y-31930D01*
X29264Y-31940D01*
X29196Y-31940D01*
X29367Y-31855D02*
X29376Y-31846D01*
X29393Y-31836D01*
X29436Y-31836D01*
X29453Y-31846D01*
X29461Y-31855D01*
X29470Y-31874D01*
X29470Y-31893D01*
X29461Y-31921D01*
X29359Y-32033D01*
X29470Y-32033D01*
X29556Y-32033D02*
X29590Y-32033D01*
X29607Y-32024D01*
X29616Y-32015D01*
X29633Y-31986D01*
X29641Y-31949D01*
X29641Y-31874D01*
X29633Y-31855D01*
X29624Y-31846D01*
X29607Y-31836D01*
X29573Y-31836D01*
X29556Y-31846D01*
X29547Y-31855D01*
X29539Y-31874D01*
X29539Y-31921D01*
X29547Y-31940D01*
X29556Y-31949D01*
X29573Y-31958D01*
X29607Y-31958D01*
X29624Y-31949D01*
X29633Y-31940D01*
X29641Y-31921D01*
X33293Y-26626D02*
X33199Y-26686D01*
X33293Y-26729D02*
X33096Y-26729D01*
X33096Y-26660D01*
X33106Y-26643D01*
X33115Y-26634D01*
X33134Y-26626D01*
X33162Y-26626D01*
X33181Y-26634D01*
X33190Y-26643D01*
X33199Y-26660D01*
X33199Y-26729D01*
X33115Y-26557D02*
X33106Y-26549D01*
X33096Y-26531D01*
X33096Y-26489D01*
X33106Y-26471D01*
X33115Y-26463D01*
X33134Y-26454D01*
X33153Y-26454D01*
X33181Y-26463D01*
X33293Y-26566D01*
X33293Y-26454D01*
X33181Y-26351D02*
X33171Y-26369D01*
X33162Y-26377D01*
X33143Y-26386D01*
X33134Y-26386D01*
X33115Y-26377D01*
X33106Y-26369D01*
X33096Y-26351D01*
X33096Y-26317D01*
X33106Y-26300D01*
X33115Y-26291D01*
X33134Y-26283D01*
X33143Y-26283D01*
X33162Y-26291D01*
X33171Y-26300D01*
X33181Y-26317D01*
X33181Y-26351D01*
X33190Y-26369D01*
X33199Y-26377D01*
X33218Y-26386D01*
X33256Y-26386D01*
X33274Y-26377D01*
X33284Y-26369D01*
X33293Y-26351D01*
X33293Y-26317D01*
X33284Y-26300D01*
X33274Y-26291D01*
X33256Y-26283D01*
X33218Y-26283D01*
X33199Y-26291D01*
X33190Y-26300D01*
X33181Y-26317D01*
X33520Y-22771D02*
X33460Y-22677D01*
X33417Y-22771D02*
X33417Y-22574D01*
X33486Y-22574D01*
X33503Y-22583D01*
X33512Y-22593D01*
X33520Y-22611D01*
X33520Y-22639D01*
X33512Y-22658D01*
X33503Y-22668D01*
X33486Y-22677D01*
X33417Y-22677D01*
X33589Y-22593D02*
X33597Y-22583D01*
X33614Y-22574D01*
X33657Y-22574D01*
X33674Y-22583D01*
X33683Y-22593D01*
X33692Y-22611D01*
X33692Y-22630D01*
X33683Y-22658D01*
X33580Y-22771D01*
X33692Y-22771D01*
X33752Y-22574D02*
X33872Y-22574D01*
X33794Y-22771D01*
X33214Y-20208D02*
X33121Y-20268D01*
X33214Y-20311D02*
X33017Y-20311D01*
X33017Y-20243D01*
X33027Y-20225D01*
X33036Y-20217D01*
X33055Y-20208D01*
X33083Y-20208D01*
X33102Y-20217D01*
X33111Y-20225D01*
X33121Y-20243D01*
X33121Y-20311D01*
X33036Y-20140D02*
X33027Y-20131D01*
X33017Y-20114D01*
X33017Y-20071D01*
X33027Y-20054D01*
X33036Y-20045D01*
X33055Y-20037D01*
X33074Y-20037D01*
X33102Y-20045D01*
X33214Y-20148D01*
X33214Y-20037D01*
X33017Y-19883D02*
X33017Y-19917D01*
X33027Y-19934D01*
X33036Y-19943D01*
X33064Y-19960D01*
X33102Y-19968D01*
X33177Y-19968D01*
X33196Y-19960D01*
X33205Y-19951D01*
X33214Y-19934D01*
X33214Y-19900D01*
X33205Y-19883D01*
X33196Y-19874D01*
X33177Y-19865D01*
X33130Y-19865D01*
X33111Y-19874D01*
X33102Y-19883D01*
X33093Y-19900D01*
X33093Y-19934D01*
X33102Y-19951D01*
X33111Y-19960D01*
X33130Y-19968D01*
X29927Y-20169D02*
X29833Y-20229D01*
X29927Y-20272D02*
X29730Y-20272D01*
X29730Y-20203D01*
X29739Y-20186D01*
X29749Y-20178D01*
X29768Y-20169D01*
X29796Y-20169D01*
X29815Y-20178D01*
X29824Y-20186D01*
X29833Y-20203D01*
X29833Y-20272D01*
X29749Y-20100D02*
X29739Y-20092D01*
X29730Y-20075D01*
X29730Y-20032D01*
X29739Y-20015D01*
X29749Y-20006D01*
X29768Y-19998D01*
X29786Y-19998D01*
X29815Y-20006D01*
X29927Y-20109D01*
X29927Y-19998D01*
X29730Y-19835D02*
X29730Y-19920D01*
X29824Y-19929D01*
X29815Y-19920D01*
X29805Y-19903D01*
X29805Y-19860D01*
X29815Y-19843D01*
X29824Y-19835D01*
X29843Y-19826D01*
X29890Y-19826D01*
X29908Y-19835D01*
X29918Y-19843D01*
X29927Y-19860D01*
X29927Y-19903D01*
X29918Y-19920D01*
X29908Y-19929D01*
X27703Y-29342D02*
X27609Y-29402D01*
X27703Y-29445D02*
X27506Y-29445D01*
X27506Y-29376D01*
X27515Y-29359D01*
X27524Y-29351D01*
X27543Y-29342D01*
X27571Y-29342D01*
X27590Y-29351D01*
X27599Y-29359D01*
X27609Y-29376D01*
X27609Y-29445D01*
X27524Y-29274D02*
X27515Y-29265D01*
X27506Y-29248D01*
X27506Y-29205D01*
X27515Y-29188D01*
X27524Y-29179D01*
X27543Y-29171D01*
X27562Y-29171D01*
X27590Y-29179D01*
X27703Y-29282D01*
X27703Y-29171D01*
X27571Y-29016D02*
X27703Y-29016D01*
X27496Y-29059D02*
X27637Y-29102D01*
X27637Y-28991D01*
X27663Y-27964D02*
X27569Y-28024D01*
X27663Y-28067D02*
X27466Y-28067D01*
X27466Y-27999D01*
X27476Y-27981D01*
X27485Y-27973D01*
X27504Y-27964D01*
X27532Y-27964D01*
X27551Y-27973D01*
X27560Y-27981D01*
X27569Y-27999D01*
X27569Y-28067D01*
X27485Y-27896D02*
X27476Y-27887D01*
X27466Y-27870D01*
X27466Y-27827D01*
X27476Y-27810D01*
X27485Y-27801D01*
X27504Y-27793D01*
X27523Y-27793D01*
X27551Y-27801D01*
X27663Y-27904D01*
X27663Y-27793D01*
X27466Y-27733D02*
X27466Y-27621D01*
X27541Y-27681D01*
X27541Y-27656D01*
X27551Y-27639D01*
X27560Y-27630D01*
X27579Y-27621D01*
X27626Y-27621D01*
X27645Y-27630D01*
X27654Y-27639D01*
X27663Y-27656D01*
X27663Y-27707D01*
X27654Y-27724D01*
X27645Y-27733D01*
X27703Y-26744D02*
X27609Y-26804D01*
X27703Y-26847D02*
X27506Y-26847D01*
X27506Y-26778D01*
X27515Y-26761D01*
X27524Y-26752D01*
X27543Y-26744D01*
X27571Y-26744D01*
X27590Y-26752D01*
X27599Y-26761D01*
X27609Y-26778D01*
X27609Y-26847D01*
X27524Y-26675D02*
X27515Y-26667D01*
X27506Y-26649D01*
X27506Y-26607D01*
X27515Y-26589D01*
X27524Y-26581D01*
X27543Y-26572D01*
X27562Y-26572D01*
X27590Y-26581D01*
X27703Y-26684D01*
X27703Y-26572D01*
X27524Y-26504D02*
X27515Y-26495D01*
X27506Y-26478D01*
X27506Y-26435D01*
X27515Y-26418D01*
X27524Y-26409D01*
X27543Y-26401D01*
X27562Y-26401D01*
X27590Y-26409D01*
X27703Y-26512D01*
X27703Y-26401D01*
X27663Y-25130D02*
X27569Y-25190D01*
X27663Y-25232D02*
X27466Y-25232D01*
X27466Y-25164D01*
X27476Y-25147D01*
X27485Y-25138D01*
X27504Y-25130D01*
X27532Y-25130D01*
X27551Y-25138D01*
X27560Y-25147D01*
X27569Y-25164D01*
X27569Y-25232D01*
X27485Y-25061D02*
X27476Y-25052D01*
X27466Y-25035D01*
X27466Y-24992D01*
X27476Y-24975D01*
X27485Y-24967D01*
X27504Y-24958D01*
X27523Y-24958D01*
X27551Y-24967D01*
X27663Y-25070D01*
X27663Y-24958D01*
X27663Y-24787D02*
X27663Y-24890D01*
X27663Y-24838D02*
X27466Y-24838D01*
X27494Y-24855D01*
X27513Y-24872D01*
X27523Y-24890D01*
X25695Y-35031D02*
X25601Y-35091D01*
X25695Y-35134D02*
X25498Y-35134D01*
X25498Y-35065D01*
X25507Y-35048D01*
X25517Y-35040D01*
X25535Y-35031D01*
X25563Y-35031D01*
X25582Y-35040D01*
X25592Y-35048D01*
X25601Y-35065D01*
X25601Y-35134D01*
X25517Y-34963D02*
X25507Y-34954D01*
X25498Y-34937D01*
X25498Y-34894D01*
X25507Y-34877D01*
X25517Y-34868D01*
X25535Y-34860D01*
X25554Y-34860D01*
X25582Y-34868D01*
X25695Y-34971D01*
X25695Y-34860D01*
X25498Y-34748D02*
X25498Y-34731D01*
X25507Y-34714D01*
X25517Y-34705D01*
X25535Y-34697D01*
X25573Y-34688D01*
X25620Y-34688D01*
X25657Y-34697D01*
X25676Y-34705D01*
X25685Y-34714D01*
X25695Y-34731D01*
X25695Y-34748D01*
X25685Y-34765D01*
X25676Y-34774D01*
X25657Y-34783D01*
X25620Y-34791D01*
X25573Y-34791D01*
X25535Y-34783D01*
X25517Y-34774D01*
X25507Y-34765D01*
X25498Y-34748D01*
X25695Y-34145D02*
X25601Y-34205D01*
X25695Y-34248D02*
X25498Y-34248D01*
X25498Y-34180D01*
X25507Y-34162D01*
X25517Y-34154D01*
X25535Y-34145D01*
X25563Y-34145D01*
X25582Y-34154D01*
X25592Y-34162D01*
X25601Y-34180D01*
X25601Y-34248D01*
X25695Y-33974D02*
X25695Y-34077D01*
X25695Y-34025D02*
X25498Y-34025D01*
X25526Y-34042D01*
X25545Y-34060D01*
X25554Y-34077D01*
X25695Y-33888D02*
X25695Y-33854D01*
X25685Y-33837D01*
X25676Y-33828D01*
X25648Y-33811D01*
X25610Y-33802D01*
X25535Y-33802D01*
X25517Y-33811D01*
X25507Y-33820D01*
X25498Y-33837D01*
X25498Y-33871D01*
X25507Y-33888D01*
X25517Y-33897D01*
X25535Y-33905D01*
X25582Y-33905D01*
X25601Y-33897D01*
X25610Y-33888D01*
X25620Y-33871D01*
X25620Y-33837D01*
X25610Y-33820D01*
X25601Y-33811D01*
X25582Y-33802D01*
X25655Y-33082D02*
X25562Y-33142D01*
X25655Y-33185D02*
X25458Y-33185D01*
X25458Y-33117D01*
X25468Y-33099D01*
X25477Y-33091D01*
X25496Y-33082D01*
X25524Y-33082D01*
X25543Y-33091D01*
X25552Y-33099D01*
X25562Y-33117D01*
X25562Y-33185D01*
X25655Y-32911D02*
X25655Y-33014D01*
X25655Y-32962D02*
X25458Y-32962D01*
X25487Y-32979D01*
X25505Y-32997D01*
X25515Y-33014D01*
X25543Y-32808D02*
X25533Y-32825D01*
X25524Y-32834D01*
X25505Y-32842D01*
X25496Y-32842D01*
X25477Y-32834D01*
X25468Y-32825D01*
X25458Y-32808D01*
X25458Y-32774D01*
X25468Y-32757D01*
X25477Y-32748D01*
X25496Y-32739D01*
X25505Y-32739D01*
X25524Y-32748D01*
X25533Y-32757D01*
X25543Y-32774D01*
X25543Y-32808D01*
X25552Y-32825D01*
X25562Y-32834D01*
X25580Y-32842D01*
X25618Y-32842D01*
X25637Y-32834D01*
X25646Y-32825D01*
X25655Y-32808D01*
X25655Y-32774D01*
X25646Y-32757D01*
X25637Y-32748D01*
X25618Y-32739D01*
X25580Y-32739D01*
X25562Y-32748D01*
X25552Y-32757D01*
X25543Y-32774D01*
X27613Y-30888D02*
X27519Y-30948D01*
X27613Y-30991D02*
X27416Y-30991D01*
X27416Y-30923D01*
X27426Y-30905D01*
X27435Y-30897D01*
X27454Y-30888D01*
X27482Y-30888D01*
X27501Y-30897D01*
X27510Y-30905D01*
X27519Y-30923D01*
X27519Y-30991D01*
X27613Y-30717D02*
X27613Y-30820D01*
X27613Y-30768D02*
X27416Y-30768D01*
X27444Y-30785D01*
X27463Y-30803D01*
X27473Y-30820D01*
X27416Y-30657D02*
X27416Y-30537D01*
X27613Y-30614D01*
X23676Y-34983D02*
X23582Y-35043D01*
X23676Y-35086D02*
X23479Y-35086D01*
X23479Y-35017D01*
X23489Y-35000D01*
X23498Y-34991D01*
X23517Y-34983D01*
X23545Y-34983D01*
X23564Y-34991D01*
X23573Y-35000D01*
X23582Y-35017D01*
X23582Y-35086D01*
X23676Y-34811D02*
X23676Y-34914D01*
X23676Y-34863D02*
X23479Y-34863D01*
X23507Y-34880D01*
X23526Y-34897D01*
X23536Y-34914D01*
X23479Y-34657D02*
X23479Y-34691D01*
X23489Y-34708D01*
X23498Y-34717D01*
X23526Y-34734D01*
X23564Y-34743D01*
X23639Y-34743D01*
X23658Y-34734D01*
X23667Y-34726D01*
X23676Y-34708D01*
X23676Y-34674D01*
X23667Y-34657D01*
X23658Y-34648D01*
X23639Y-34640D01*
X23592Y-34640D01*
X23573Y-34648D01*
X23564Y-34657D01*
X23554Y-34674D01*
X23554Y-34708D01*
X23564Y-34726D01*
X23573Y-34734D01*
X23592Y-34743D01*
X23676Y-33998D02*
X23582Y-34058D01*
X23676Y-34101D02*
X23479Y-34101D01*
X23479Y-34033D01*
X23489Y-34016D01*
X23498Y-34007D01*
X23517Y-33998D01*
X23545Y-33998D01*
X23564Y-34007D01*
X23573Y-34016D01*
X23582Y-34033D01*
X23582Y-34101D01*
X23676Y-33827D02*
X23676Y-33930D01*
X23676Y-33878D02*
X23479Y-33878D01*
X23507Y-33896D01*
X23526Y-33913D01*
X23536Y-33930D01*
X23479Y-33664D02*
X23479Y-33750D01*
X23573Y-33758D01*
X23564Y-33750D01*
X23554Y-33733D01*
X23554Y-33690D01*
X23564Y-33673D01*
X23573Y-33664D01*
X23592Y-33656D01*
X23639Y-33656D01*
X23658Y-33664D01*
X23667Y-33673D01*
X23676Y-33690D01*
X23676Y-33733D01*
X23667Y-33750D01*
X23658Y-33758D01*
X22220Y-34038D02*
X22126Y-34098D01*
X22220Y-34141D02*
X22023Y-34141D01*
X22023Y-34072D01*
X22032Y-34055D01*
X22041Y-34046D01*
X22060Y-34038D01*
X22088Y-34038D01*
X22107Y-34046D01*
X22116Y-34055D01*
X22126Y-34072D01*
X22126Y-34141D01*
X22220Y-33866D02*
X22220Y-33969D01*
X22220Y-33918D02*
X22023Y-33918D01*
X22051Y-33935D01*
X22069Y-33952D01*
X22079Y-33969D01*
X22088Y-33712D02*
X22220Y-33712D01*
X22013Y-33755D02*
X22154Y-33798D01*
X22154Y-33686D01*
X22101Y-33093D02*
X22008Y-33153D01*
X22101Y-33196D02*
X21904Y-33196D01*
X21904Y-33127D01*
X21914Y-33110D01*
X21923Y-33102D01*
X21942Y-33093D01*
X21970Y-33093D01*
X21989Y-33102D01*
X21998Y-33110D01*
X22008Y-33127D01*
X22008Y-33196D01*
X22101Y-32922D02*
X22101Y-33024D01*
X22101Y-32973D02*
X21904Y-32973D01*
X21933Y-32990D01*
X21951Y-33007D01*
X21961Y-33024D01*
X21904Y-32862D02*
X21904Y-32750D01*
X21980Y-32810D01*
X21980Y-32784D01*
X21989Y-32767D01*
X21998Y-32759D01*
X22017Y-32750D01*
X22064Y-32750D01*
X22083Y-32759D01*
X22092Y-32767D01*
X22101Y-32784D01*
X22101Y-32836D01*
X22092Y-32853D01*
X22083Y-32862D01*
X27613Y-23841D02*
X27519Y-23901D01*
X27613Y-23944D02*
X27416Y-23944D01*
X27416Y-23875D01*
X27426Y-23858D01*
X27435Y-23850D01*
X27454Y-23841D01*
X27482Y-23841D01*
X27501Y-23850D01*
X27510Y-23858D01*
X27519Y-23875D01*
X27519Y-23944D01*
X27613Y-23670D02*
X27613Y-23772D01*
X27613Y-23721D02*
X27416Y-23721D01*
X27444Y-23738D01*
X27463Y-23755D01*
X27473Y-23772D01*
X27435Y-23601D02*
X27426Y-23592D01*
X27416Y-23575D01*
X27416Y-23532D01*
X27426Y-23515D01*
X27435Y-23507D01*
X27454Y-23498D01*
X27473Y-23498D01*
X27501Y-23507D01*
X27613Y-23610D01*
X27613Y-23498D01*
X27613Y-22660D02*
X27519Y-22720D01*
X27613Y-22763D02*
X27416Y-22763D01*
X27416Y-22694D01*
X27426Y-22677D01*
X27435Y-22668D01*
X27454Y-22660D01*
X27482Y-22660D01*
X27501Y-22668D01*
X27510Y-22677D01*
X27519Y-22694D01*
X27519Y-22763D01*
X27613Y-22488D02*
X27613Y-22591D01*
X27613Y-22540D02*
X27416Y-22540D01*
X27444Y-22557D01*
X27463Y-22574D01*
X27473Y-22591D01*
X27613Y-22317D02*
X27613Y-22420D01*
X27613Y-22368D02*
X27416Y-22368D01*
X27444Y-22386D01*
X27463Y-22403D01*
X27473Y-22420D01*
X27653Y-21597D02*
X27559Y-21657D01*
X27653Y-21700D02*
X27456Y-21700D01*
X27456Y-21631D01*
X27465Y-21614D01*
X27474Y-21605D01*
X27493Y-21597D01*
X27521Y-21597D01*
X27540Y-21605D01*
X27549Y-21614D01*
X27559Y-21631D01*
X27559Y-21700D01*
X27653Y-21425D02*
X27653Y-21528D01*
X27653Y-21477D02*
X27456Y-21477D01*
X27484Y-21494D01*
X27503Y-21511D01*
X27512Y-21528D01*
X27456Y-21314D02*
X27456Y-21297D01*
X27465Y-21280D01*
X27474Y-21271D01*
X27493Y-21263D01*
X27531Y-21254D01*
X27578Y-21254D01*
X27615Y-21263D01*
X27634Y-21271D01*
X27643Y-21280D01*
X27653Y-21297D01*
X27653Y-21314D01*
X27643Y-21331D01*
X27634Y-21340D01*
X27615Y-21348D01*
X27578Y-21357D01*
X27531Y-21357D01*
X27493Y-21348D01*
X27474Y-21340D01*
X27465Y-21331D01*
X27456Y-21314D01*
X27613Y-20133D02*
X27519Y-20193D01*
X27613Y-20236D02*
X27416Y-20236D01*
X27416Y-20168D01*
X27426Y-20150D01*
X27435Y-20142D01*
X27454Y-20133D01*
X27482Y-20133D01*
X27501Y-20142D01*
X27510Y-20150D01*
X27519Y-20168D01*
X27519Y-20236D01*
X27613Y-20048D02*
X27613Y-20013D01*
X27604Y-19996D01*
X27595Y-19988D01*
X27566Y-19970D01*
X27529Y-19962D01*
X27454Y-19962D01*
X27435Y-19970D01*
X27426Y-19979D01*
X27416Y-19996D01*
X27416Y-20030D01*
X27426Y-20048D01*
X27435Y-20056D01*
X27454Y-20065D01*
X27501Y-20065D01*
X27519Y-20056D01*
X27529Y-20048D01*
X27538Y-20030D01*
X27538Y-19996D01*
X27529Y-19979D01*
X27519Y-19970D01*
X27501Y-19962D01*
X25616Y-26146D02*
X25522Y-26206D01*
X25616Y-26249D02*
X25419Y-26249D01*
X25419Y-26181D01*
X25428Y-26163D01*
X25438Y-26155D01*
X25457Y-26146D01*
X25485Y-26146D01*
X25503Y-26155D01*
X25513Y-26163D01*
X25522Y-26181D01*
X25522Y-26249D01*
X25503Y-26043D02*
X25494Y-26061D01*
X25485Y-26069D01*
X25466Y-26078D01*
X25457Y-26078D01*
X25438Y-26069D01*
X25428Y-26061D01*
X25419Y-26043D01*
X25419Y-26009D01*
X25428Y-25992D01*
X25438Y-25983D01*
X25457Y-25975D01*
X25466Y-25975D01*
X25485Y-25983D01*
X25494Y-25992D01*
X25503Y-26009D01*
X25503Y-26043D01*
X25513Y-26061D01*
X25522Y-26069D01*
X25541Y-26078D01*
X25579Y-26078D01*
X25597Y-26069D01*
X25607Y-26061D01*
X25616Y-26043D01*
X25616Y-26009D01*
X25607Y-25992D01*
X25597Y-25983D01*
X25579Y-25975D01*
X25541Y-25975D01*
X25522Y-25983D01*
X25513Y-25992D01*
X25503Y-26009D01*
X21747Y-26551D02*
X21653Y-26611D01*
X21747Y-26653D02*
X21550Y-26653D01*
X21550Y-26585D01*
X21560Y-26568D01*
X21569Y-26559D01*
X21588Y-26551D01*
X21616Y-26551D01*
X21635Y-26559D01*
X21644Y-26568D01*
X21653Y-26585D01*
X21653Y-26653D01*
X21550Y-26491D02*
X21550Y-26371D01*
X21747Y-26448D01*
X21747Y-23047D02*
X21653Y-23107D01*
X21747Y-23149D02*
X21550Y-23149D01*
X21550Y-23081D01*
X21560Y-23064D01*
X21569Y-23055D01*
X21588Y-23047D01*
X21616Y-23047D01*
X21635Y-23055D01*
X21644Y-23064D01*
X21653Y-23081D01*
X21653Y-23149D01*
X21550Y-22892D02*
X21550Y-22927D01*
X21560Y-22944D01*
X21569Y-22952D01*
X21597Y-22969D01*
X21635Y-22978D01*
X21710Y-22978D01*
X21728Y-22969D01*
X21738Y-22961D01*
X21747Y-22944D01*
X21747Y-22909D01*
X21738Y-22892D01*
X21728Y-22884D01*
X21710Y-22875D01*
X21663Y-22875D01*
X21644Y-22884D01*
X21635Y-22892D01*
X21625Y-22909D01*
X21625Y-22944D01*
X21635Y-22961D01*
X21644Y-22969D01*
X21663Y-22978D01*
X22377Y-20212D02*
X22283Y-20272D01*
X22377Y-20315D02*
X22180Y-20315D01*
X22180Y-20246D01*
X22189Y-20229D01*
X22199Y-20221D01*
X22218Y-20212D01*
X22246Y-20212D01*
X22265Y-20221D01*
X22274Y-20229D01*
X22283Y-20246D01*
X22283Y-20315D01*
X22180Y-20049D02*
X22180Y-20135D01*
X22274Y-20143D01*
X22265Y-20135D01*
X22255Y-20118D01*
X22255Y-20075D01*
X22265Y-20058D01*
X22274Y-20049D01*
X22293Y-20041D01*
X22340Y-20041D01*
X22358Y-20049D01*
X22368Y-20058D01*
X22377Y-20075D01*
X22377Y-20118D01*
X22368Y-20135D01*
X22358Y-20143D01*
X31157Y-34976D02*
X31063Y-35036D01*
X31157Y-35079D02*
X30960Y-35079D01*
X30960Y-35010D01*
X30969Y-34993D01*
X30978Y-34984D01*
X30997Y-34976D01*
X31025Y-34976D01*
X31044Y-34984D01*
X31053Y-34993D01*
X31063Y-35010D01*
X31063Y-35079D01*
X31025Y-34821D02*
X31157Y-34821D01*
X30950Y-34864D02*
X31091Y-34907D01*
X31091Y-34796D01*
X31719Y-35068D02*
X31852Y-35068D01*
X31643Y-35111D02*
X31785Y-35154D01*
X31785Y-35043D01*
X31833Y-34974D02*
X31843Y-34965D01*
X31852Y-34974D01*
X31843Y-34983D01*
X31833Y-34974D01*
X31852Y-34974D01*
X31652Y-34905D02*
X31652Y-34785D01*
X31852Y-34863D01*
X31852Y-34717D02*
X31652Y-34717D01*
X31776Y-34700D02*
X31852Y-34648D01*
X31719Y-34648D02*
X31795Y-34717D01*
X29719Y-26285D02*
X29659Y-26192D01*
X29616Y-26285D02*
X29616Y-26088D01*
X29685Y-26088D01*
X29702Y-26098D01*
X29710Y-26107D01*
X29719Y-26126D01*
X29719Y-26154D01*
X29710Y-26173D01*
X29702Y-26182D01*
X29685Y-26192D01*
X29616Y-26192D01*
X29779Y-26088D02*
X29890Y-26088D01*
X29830Y-26163D01*
X29856Y-26163D01*
X29873Y-26173D01*
X29882Y-26182D01*
X29890Y-26201D01*
X29890Y-26248D01*
X29882Y-26267D01*
X29873Y-26276D01*
X29856Y-26285D01*
X29805Y-26285D01*
X29787Y-26276D01*
X29779Y-26267D01*
X29557Y-25459D02*
X29557Y-25592D01*
X29514Y-25383D02*
X29471Y-25526D01*
X29582Y-25526D01*
X29651Y-25573D02*
X29660Y-25583D01*
X29651Y-25592D01*
X29642Y-25583D01*
X29651Y-25573D01*
X29651Y-25592D01*
X29720Y-25392D02*
X29840Y-25392D01*
X29762Y-25592D01*
X29908Y-25592D02*
X29908Y-25392D01*
X29925Y-25516D02*
X29977Y-25592D01*
X29977Y-25459D02*
X29908Y-25535D01*
X23687Y-32918D02*
X23593Y-32978D01*
X23687Y-33021D02*
X23490Y-33021D01*
X23490Y-32952D01*
X23499Y-32935D01*
X23509Y-32926D01*
X23527Y-32918D01*
X23556Y-32918D01*
X23574Y-32926D01*
X23584Y-32935D01*
X23593Y-32952D01*
X23593Y-33021D01*
X23509Y-32849D02*
X23499Y-32841D01*
X23490Y-32824D01*
X23490Y-32781D01*
X23499Y-32764D01*
X23509Y-32755D01*
X23527Y-32746D01*
X23546Y-32746D01*
X23574Y-32755D01*
X23687Y-32858D01*
X23687Y-32746D01*
X24200Y-33080D02*
X24333Y-33080D01*
X24124Y-33123D02*
X24266Y-33166D01*
X24266Y-33054D01*
X24314Y-32986D02*
X24324Y-32977D01*
X24333Y-32986D01*
X24324Y-32994D01*
X24314Y-32986D01*
X24333Y-32986D01*
X24133Y-32917D02*
X24133Y-32797D01*
X24333Y-32874D01*
X24333Y-32729D02*
X24133Y-32729D01*
X24257Y-32711D02*
X24333Y-32660D01*
X24200Y-32660D02*
X24276Y-32729D01*
X23333Y-26481D02*
X23239Y-26541D01*
X23333Y-26584D02*
X23136Y-26584D01*
X23136Y-26515D01*
X23145Y-26498D01*
X23154Y-26489D01*
X23173Y-26481D01*
X23201Y-26481D01*
X23220Y-26489D01*
X23229Y-26498D01*
X23239Y-26515D01*
X23239Y-26584D01*
X23333Y-26309D02*
X23333Y-26412D01*
X23333Y-26361D02*
X23136Y-26361D01*
X23164Y-26378D01*
X23182Y-26395D01*
X23192Y-26412D01*
X23845Y-26623D02*
X23978Y-26623D01*
X23769Y-26666D02*
X23911Y-26709D01*
X23911Y-26598D01*
X23959Y-26529D02*
X23969Y-26520D01*
X23978Y-26529D01*
X23969Y-26538D01*
X23959Y-26529D01*
X23978Y-26529D01*
X23778Y-26460D02*
X23778Y-26340D01*
X23978Y-26418D01*
X23978Y-26272D02*
X23778Y-26272D01*
X23902Y-26255D02*
X23978Y-26203D01*
X23845Y-26203D02*
X23921Y-26272D01*
G54D16*
X27440Y-31873D02*
X27601Y-31873D01*
X27620Y-31864D01*
X27630Y-31854D01*
X27640Y-31835D01*
X27640Y-31797D01*
X27630Y-31778D01*
X27620Y-31768D01*
X27601Y-31759D01*
X27440Y-31759D01*
X27459Y-31673D02*
X27449Y-31664D01*
X27440Y-31645D01*
X27440Y-31597D01*
X27449Y-31578D01*
X27459Y-31568D01*
X27478Y-31559D01*
X27497Y-31559D01*
X27525Y-31568D01*
X27640Y-31683D01*
X27640Y-31559D01*
X27525Y-31445D02*
X27516Y-31464D01*
X27506Y-31473D01*
X27487Y-31483D01*
X27478Y-31483D01*
X27459Y-31473D01*
X27449Y-31464D01*
X27440Y-31445D01*
X27440Y-31406D01*
X27449Y-31387D01*
X27459Y-31378D01*
X27478Y-31368D01*
X27487Y-31368D01*
X27506Y-31378D01*
X27516Y-31387D01*
X27525Y-31406D01*
X27525Y-31445D01*
X27535Y-31464D01*
X27544Y-31473D01*
X27563Y-31483D01*
X27601Y-31483D01*
X27620Y-31473D01*
X27630Y-31464D01*
X27640Y-31445D01*
X27640Y-31406D01*
X27630Y-31387D01*
X27620Y-31378D01*
X27601Y-31368D01*
X27563Y-31368D01*
X27544Y-31378D01*
X27535Y-31387D01*
X27525Y-31406D01*
G54D17*
X27679Y-32335D02*
X27629Y-32335D01*
X27629Y-32323D01*
X27631Y-32316D01*
X27636Y-32311D01*
X27641Y-32309D01*
X27650Y-32306D01*
X27657Y-32306D01*
X27667Y-32309D01*
X27672Y-32311D01*
X27676Y-32316D01*
X27679Y-32323D01*
X27679Y-32335D01*
X27679Y-32285D02*
X27629Y-32285D01*
X27665Y-32268D01*
X27629Y-32252D01*
X27679Y-32252D01*
X27674Y-32199D02*
X27676Y-32202D01*
X27679Y-32209D01*
X27679Y-32214D01*
X27676Y-32221D01*
X27672Y-32225D01*
X27667Y-32228D01*
X27657Y-32230D01*
X27650Y-32230D01*
X27641Y-32228D01*
X27636Y-32225D01*
X27631Y-32221D01*
X27629Y-32214D01*
X27629Y-32209D01*
X27631Y-32202D01*
X27634Y-32199D01*
X27634Y-32180D02*
X27631Y-32178D01*
X27629Y-32173D01*
X27629Y-32161D01*
X27631Y-32156D01*
X27634Y-32154D01*
X27638Y-32152D01*
X27643Y-32152D01*
X27650Y-32154D01*
X27679Y-32183D01*
X27679Y-32152D01*
X27645Y-32109D02*
X27679Y-32109D01*
X27626Y-32121D02*
X27662Y-32133D01*
X27662Y-32102D01*
X27629Y-32073D02*
X27629Y-32068D01*
X27631Y-32064D01*
X27634Y-32061D01*
X27638Y-32059D01*
X27648Y-32056D01*
X27660Y-32056D01*
X27669Y-32059D01*
X27674Y-32061D01*
X27676Y-32064D01*
X27679Y-32068D01*
X27679Y-32073D01*
X27676Y-32078D01*
X27674Y-32080D01*
X27669Y-32083D01*
X27660Y-32085D01*
X27648Y-32085D01*
X27638Y-32083D01*
X27634Y-32080D01*
X27631Y-32078D01*
X27629Y-32073D01*
X27629Y-32025D02*
X27629Y-32021D01*
X27631Y-32016D01*
X27634Y-32014D01*
X27638Y-32011D01*
X27648Y-32009D01*
X27660Y-32009D01*
X27669Y-32011D01*
X27674Y-32014D01*
X27676Y-32016D01*
X27679Y-32021D01*
X27679Y-32025D01*
X27676Y-32030D01*
X27674Y-32033D01*
X27669Y-32035D01*
X27660Y-32037D01*
X27648Y-32037D01*
X27638Y-32035D01*
X27634Y-32033D01*
X27631Y-32030D01*
X27629Y-32025D01*
X27629Y-31987D02*
X27669Y-31987D01*
X27674Y-31985D01*
X27676Y-31983D01*
X27679Y-31978D01*
X27679Y-31968D01*
X27676Y-31964D01*
X27674Y-31961D01*
X27669Y-31959D01*
X27629Y-31959D01*
X27629Y-31942D02*
X27679Y-31925D01*
X27629Y-31909D01*
G54D16*
X29447Y-23802D02*
X29609Y-23802D01*
X29628Y-23793D01*
X29638Y-23783D01*
X29647Y-23764D01*
X29647Y-23726D01*
X29638Y-23707D01*
X29628Y-23697D01*
X29609Y-23688D01*
X29447Y-23688D01*
X29647Y-23488D02*
X29647Y-23602D01*
X29647Y-23545D02*
X29447Y-23545D01*
X29476Y-23564D01*
X29495Y-23583D01*
X29505Y-23602D01*
X29647Y-23393D02*
X29647Y-23355D01*
X29638Y-23336D01*
X29628Y-23326D01*
X29600Y-23307D01*
X29562Y-23297D01*
X29485Y-23297D01*
X29466Y-23307D01*
X29457Y-23317D01*
X29447Y-23336D01*
X29447Y-23374D01*
X29457Y-23393D01*
X29466Y-23402D01*
X29485Y-23412D01*
X29533Y-23412D01*
X29552Y-23402D01*
X29562Y-23393D01*
X29571Y-23374D01*
X29571Y-23336D01*
X29562Y-23317D01*
X29552Y-23307D01*
X29533Y-23297D01*
G54D17*
X29687Y-24264D02*
X29637Y-24264D01*
X29637Y-24252D01*
X29639Y-24245D01*
X29644Y-24240D01*
X29649Y-24238D01*
X29658Y-24236D01*
X29665Y-24236D01*
X29675Y-24238D01*
X29680Y-24240D01*
X29684Y-24245D01*
X29687Y-24252D01*
X29687Y-24264D01*
X29687Y-24214D02*
X29637Y-24214D01*
X29672Y-24197D01*
X29637Y-24181D01*
X29687Y-24181D01*
X29682Y-24128D02*
X29684Y-24131D01*
X29687Y-24138D01*
X29687Y-24143D01*
X29684Y-24150D01*
X29680Y-24155D01*
X29675Y-24157D01*
X29665Y-24159D01*
X29658Y-24159D01*
X29649Y-24157D01*
X29644Y-24155D01*
X29639Y-24150D01*
X29637Y-24143D01*
X29637Y-24138D01*
X29639Y-24131D01*
X29641Y-24128D01*
X29641Y-24109D02*
X29639Y-24107D01*
X29637Y-24102D01*
X29637Y-24090D01*
X29639Y-24086D01*
X29641Y-24083D01*
X29646Y-24081D01*
X29651Y-24081D01*
X29658Y-24083D01*
X29687Y-24112D01*
X29687Y-24081D01*
X29653Y-24038D02*
X29687Y-24038D01*
X29634Y-24050D02*
X29670Y-24062D01*
X29670Y-24031D01*
X29637Y-24002D02*
X29637Y-23997D01*
X29639Y-23993D01*
X29641Y-23990D01*
X29646Y-23988D01*
X29656Y-23986D01*
X29668Y-23986D01*
X29677Y-23988D01*
X29682Y-23990D01*
X29684Y-23993D01*
X29687Y-23997D01*
X29687Y-24002D01*
X29684Y-24007D01*
X29682Y-24009D01*
X29677Y-24012D01*
X29668Y-24014D01*
X29656Y-24014D01*
X29646Y-24012D01*
X29641Y-24009D01*
X29639Y-24007D01*
X29637Y-24002D01*
X29637Y-23955D02*
X29637Y-23950D01*
X29639Y-23945D01*
X29641Y-23943D01*
X29646Y-23940D01*
X29656Y-23938D01*
X29668Y-23938D01*
X29677Y-23940D01*
X29682Y-23943D01*
X29684Y-23945D01*
X29687Y-23950D01*
X29687Y-23955D01*
X29684Y-23959D01*
X29682Y-23962D01*
X29677Y-23964D01*
X29668Y-23967D01*
X29656Y-23967D01*
X29646Y-23964D01*
X29641Y-23962D01*
X29639Y-23959D01*
X29637Y-23955D01*
X29637Y-23917D02*
X29677Y-23917D01*
X29682Y-23914D01*
X29684Y-23912D01*
X29687Y-23907D01*
X29687Y-23897D01*
X29684Y-23893D01*
X29682Y-23890D01*
X29677Y-23888D01*
X29637Y-23888D01*
X29637Y-23871D02*
X29687Y-23855D01*
X29637Y-23838D01*
G54D16*
X27440Y-34550D02*
X27601Y-34550D01*
X27620Y-34541D01*
X27630Y-34531D01*
X27640Y-34512D01*
X27640Y-34474D01*
X27630Y-34455D01*
X27620Y-34446D01*
X27601Y-34436D01*
X27440Y-34436D01*
X27640Y-34236D02*
X27640Y-34350D01*
X27640Y-34293D02*
X27440Y-34293D01*
X27468Y-34312D01*
X27487Y-34331D01*
X27497Y-34350D01*
X27440Y-34065D02*
X27440Y-34103D01*
X27449Y-34122D01*
X27459Y-34131D01*
X27487Y-34150D01*
X27525Y-34160D01*
X27601Y-34160D01*
X27620Y-34150D01*
X27630Y-34141D01*
X27640Y-34122D01*
X27640Y-34084D01*
X27630Y-34065D01*
X27620Y-34055D01*
X27601Y-34046D01*
X27554Y-34046D01*
X27535Y-34055D01*
X27525Y-34065D01*
X27516Y-34084D01*
X27516Y-34122D01*
X27525Y-34141D01*
X27535Y-34150D01*
X27554Y-34160D01*
G54D17*
X27679Y-35012D02*
X27629Y-35012D01*
X27629Y-35000D01*
X27631Y-34993D01*
X27636Y-34988D01*
X27641Y-34986D01*
X27650Y-34984D01*
X27657Y-34984D01*
X27667Y-34986D01*
X27672Y-34988D01*
X27676Y-34993D01*
X27679Y-35000D01*
X27679Y-35012D01*
X27679Y-34962D02*
X27629Y-34962D01*
X27665Y-34946D01*
X27629Y-34929D01*
X27679Y-34929D01*
X27674Y-34876D02*
X27676Y-34879D01*
X27679Y-34886D01*
X27679Y-34891D01*
X27676Y-34898D01*
X27672Y-34903D01*
X27667Y-34905D01*
X27657Y-34907D01*
X27650Y-34907D01*
X27641Y-34905D01*
X27636Y-34903D01*
X27631Y-34898D01*
X27629Y-34891D01*
X27629Y-34886D01*
X27631Y-34879D01*
X27634Y-34876D01*
X27634Y-34857D02*
X27631Y-34855D01*
X27629Y-34850D01*
X27629Y-34838D01*
X27631Y-34834D01*
X27634Y-34831D01*
X27638Y-34829D01*
X27643Y-34829D01*
X27650Y-34831D01*
X27679Y-34860D01*
X27679Y-34829D01*
X27645Y-34786D02*
X27679Y-34786D01*
X27626Y-34798D02*
X27662Y-34810D01*
X27662Y-34779D01*
X27629Y-34750D02*
X27629Y-34746D01*
X27631Y-34741D01*
X27634Y-34738D01*
X27638Y-34736D01*
X27648Y-34734D01*
X27660Y-34734D01*
X27669Y-34736D01*
X27674Y-34738D01*
X27676Y-34741D01*
X27679Y-34746D01*
X27679Y-34750D01*
X27676Y-34755D01*
X27674Y-34757D01*
X27669Y-34760D01*
X27660Y-34762D01*
X27648Y-34762D01*
X27638Y-34760D01*
X27634Y-34757D01*
X27631Y-34755D01*
X27629Y-34750D01*
X27629Y-34703D02*
X27629Y-34698D01*
X27631Y-34693D01*
X27634Y-34691D01*
X27638Y-34688D01*
X27648Y-34686D01*
X27660Y-34686D01*
X27669Y-34688D01*
X27674Y-34691D01*
X27676Y-34693D01*
X27679Y-34698D01*
X27679Y-34703D01*
X27676Y-34707D01*
X27674Y-34710D01*
X27669Y-34712D01*
X27660Y-34715D01*
X27648Y-34715D01*
X27638Y-34712D01*
X27634Y-34710D01*
X27631Y-34707D01*
X27629Y-34703D01*
X27629Y-34665D02*
X27669Y-34665D01*
X27674Y-34662D01*
X27676Y-34660D01*
X27679Y-34655D01*
X27679Y-34646D01*
X27676Y-34641D01*
X27674Y-34638D01*
X27669Y-34636D01*
X27629Y-34636D01*
X27629Y-34619D02*
X27679Y-34603D01*
X27629Y-34586D01*
G54D16*
X21573Y-27227D02*
X21735Y-27227D01*
X21754Y-27218D01*
X21764Y-27208D01*
X21773Y-27189D01*
X21773Y-27151D01*
X21764Y-27132D01*
X21754Y-27123D01*
X21735Y-27113D01*
X21573Y-27113D01*
X21773Y-26913D02*
X21773Y-27027D01*
X21773Y-26970D02*
X21573Y-26970D01*
X21602Y-26989D01*
X21621Y-27008D01*
X21631Y-27027D01*
X21573Y-26789D02*
X21573Y-26770D01*
X21583Y-26751D01*
X21592Y-26742D01*
X21611Y-26732D01*
X21650Y-26723D01*
X21697Y-26723D01*
X21735Y-26732D01*
X21754Y-26742D01*
X21764Y-26751D01*
X21773Y-26770D01*
X21773Y-26789D01*
X21764Y-26808D01*
X21754Y-26818D01*
X21735Y-26827D01*
X21697Y-26837D01*
X21650Y-26837D01*
X21611Y-26827D01*
X21592Y-26818D01*
X21583Y-26808D01*
X21573Y-26789D01*
G54D17*
X21813Y-27689D02*
X21763Y-27689D01*
X21763Y-27677D01*
X21765Y-27670D01*
X21770Y-27666D01*
X21775Y-27663D01*
X21784Y-27661D01*
X21791Y-27661D01*
X21801Y-27663D01*
X21806Y-27666D01*
X21810Y-27670D01*
X21813Y-27677D01*
X21813Y-27689D01*
X21813Y-27639D02*
X21763Y-27639D01*
X21798Y-27623D01*
X21763Y-27606D01*
X21813Y-27606D01*
X21808Y-27554D02*
X21810Y-27556D01*
X21813Y-27563D01*
X21813Y-27568D01*
X21810Y-27575D01*
X21806Y-27580D01*
X21801Y-27582D01*
X21791Y-27585D01*
X21784Y-27585D01*
X21775Y-27582D01*
X21770Y-27580D01*
X21765Y-27575D01*
X21763Y-27568D01*
X21763Y-27563D01*
X21765Y-27556D01*
X21767Y-27554D01*
X21767Y-27535D02*
X21765Y-27532D01*
X21763Y-27527D01*
X21763Y-27516D01*
X21765Y-27511D01*
X21767Y-27508D01*
X21772Y-27506D01*
X21777Y-27506D01*
X21784Y-27508D01*
X21813Y-27537D01*
X21813Y-27506D01*
X21779Y-27463D02*
X21813Y-27463D01*
X21760Y-27475D02*
X21796Y-27487D01*
X21796Y-27456D01*
X21763Y-27427D02*
X21763Y-27423D01*
X21765Y-27418D01*
X21767Y-27416D01*
X21772Y-27413D01*
X21782Y-27411D01*
X21794Y-27411D01*
X21803Y-27413D01*
X21808Y-27416D01*
X21810Y-27418D01*
X21813Y-27423D01*
X21813Y-27427D01*
X21810Y-27432D01*
X21808Y-27435D01*
X21803Y-27437D01*
X21794Y-27439D01*
X21782Y-27439D01*
X21772Y-27437D01*
X21767Y-27435D01*
X21765Y-27432D01*
X21763Y-27427D01*
X21763Y-27380D02*
X21763Y-27375D01*
X21765Y-27370D01*
X21767Y-27368D01*
X21772Y-27366D01*
X21782Y-27363D01*
X21794Y-27363D01*
X21803Y-27366D01*
X21808Y-27368D01*
X21810Y-27370D01*
X21813Y-27375D01*
X21813Y-27380D01*
X21810Y-27385D01*
X21808Y-27387D01*
X21803Y-27389D01*
X21794Y-27392D01*
X21782Y-27392D01*
X21772Y-27389D01*
X21767Y-27387D01*
X21765Y-27385D01*
X21763Y-27380D01*
X21763Y-27342D02*
X21803Y-27342D01*
X21808Y-27339D01*
X21810Y-27337D01*
X21813Y-27332D01*
X21813Y-27323D01*
X21810Y-27318D01*
X21808Y-27316D01*
X21803Y-27313D01*
X21763Y-27313D01*
X21763Y-27296D02*
X21813Y-27280D01*
X21763Y-27263D01*
G54D16*
X21613Y-20872D02*
X21775Y-20872D01*
X21794Y-20863D01*
X21803Y-20853D01*
X21813Y-20834D01*
X21813Y-20796D01*
X21803Y-20777D01*
X21794Y-20768D01*
X21775Y-20758D01*
X21613Y-20758D01*
X21613Y-20682D02*
X21613Y-20558D01*
X21689Y-20625D01*
X21689Y-20596D01*
X21698Y-20577D01*
X21708Y-20568D01*
X21727Y-20558D01*
X21775Y-20558D01*
X21794Y-20568D01*
X21803Y-20577D01*
X21813Y-20596D01*
X21813Y-20653D01*
X21803Y-20672D01*
X21794Y-20682D01*
G54D17*
X21852Y-21429D02*
X21802Y-21429D01*
X21802Y-21418D01*
X21804Y-21410D01*
X21809Y-21406D01*
X21814Y-21403D01*
X21823Y-21401D01*
X21831Y-21401D01*
X21840Y-21403D01*
X21845Y-21406D01*
X21850Y-21410D01*
X21852Y-21418D01*
X21852Y-21429D01*
X21852Y-21379D02*
X21802Y-21379D01*
X21838Y-21363D01*
X21802Y-21346D01*
X21852Y-21346D01*
X21847Y-21294D02*
X21850Y-21296D01*
X21852Y-21303D01*
X21852Y-21308D01*
X21850Y-21315D01*
X21845Y-21320D01*
X21840Y-21322D01*
X21831Y-21325D01*
X21823Y-21325D01*
X21814Y-21322D01*
X21809Y-21320D01*
X21804Y-21315D01*
X21802Y-21308D01*
X21802Y-21303D01*
X21804Y-21296D01*
X21807Y-21294D01*
X21807Y-21275D02*
X21804Y-21272D01*
X21802Y-21268D01*
X21802Y-21256D01*
X21804Y-21251D01*
X21807Y-21249D01*
X21812Y-21246D01*
X21816Y-21246D01*
X21823Y-21249D01*
X21852Y-21277D01*
X21852Y-21246D01*
X21819Y-21203D02*
X21852Y-21203D01*
X21800Y-21215D02*
X21835Y-21227D01*
X21835Y-21196D01*
X21802Y-21168D02*
X21802Y-21163D01*
X21804Y-21158D01*
X21807Y-21156D01*
X21812Y-21153D01*
X21821Y-21151D01*
X21833Y-21151D01*
X21842Y-21153D01*
X21847Y-21156D01*
X21850Y-21158D01*
X21852Y-21163D01*
X21852Y-21168D01*
X21850Y-21172D01*
X21847Y-21175D01*
X21842Y-21177D01*
X21833Y-21179D01*
X21821Y-21179D01*
X21812Y-21177D01*
X21807Y-21175D01*
X21804Y-21172D01*
X21802Y-21168D01*
X21802Y-21120D02*
X21802Y-21115D01*
X21804Y-21110D01*
X21807Y-21108D01*
X21812Y-21106D01*
X21821Y-21103D01*
X21833Y-21103D01*
X21842Y-21106D01*
X21847Y-21108D01*
X21850Y-21110D01*
X21852Y-21115D01*
X21852Y-21120D01*
X21850Y-21125D01*
X21847Y-21127D01*
X21842Y-21129D01*
X21833Y-21132D01*
X21821Y-21132D01*
X21812Y-21129D01*
X21807Y-21127D01*
X21804Y-21125D01*
X21802Y-21120D01*
X21802Y-21082D02*
X21842Y-21082D01*
X21847Y-21079D01*
X21850Y-21077D01*
X21852Y-21072D01*
X21852Y-21063D01*
X21850Y-21058D01*
X21847Y-21056D01*
X21842Y-21053D01*
X21802Y-21053D01*
X21802Y-21037D02*
X21852Y-21020D01*
X21802Y-21003D01*
M02*
