M48
;DRILL file {Pcbnew (2013-jul-07)-stable} date Tue 06 Dec 2016 12:23:03 PM PST
;FORMAT={-:-/ absolute / inch / decimal}
FMAT,2
INCH,TZ
T1C0.010
T2C0.040
%
G90
G05
M72
T1
X2.164Y-2.0749
X2.1975Y-2.6895
X2.2002Y-2.9015
X2.2095Y-2.8028
X2.2245Y-2.2079
X2.2627Y-2.8571
X2.2691Y-2.2441
X2.2839Y-2.8774
X2.2861Y-2.8363
X2.2863Y-2.1947
X2.2869Y-2.2233
X2.2888Y-2.1254
X2.2897Y-2.7912
X2.3001Y-3.3493
X2.3122Y-2.0586
X2.3721Y-3.0022
X2.373Y-2.3656
X2.3738Y-2.7322
X2.3863Y-3.3393
X2.3899Y-2.045
X2.4181Y-3.2913
X2.4213Y-2.3655
X2.4705Y-2.7325
X2.5031Y-3.1708
X2.5184Y-2.7731
X2.5269Y-2.9551
X2.527Y-2.1412
X2.5284Y-3.2443
X2.5452Y-2.7381
X2.5463Y-2.0718
X2.5519Y-2.1586
X2.5523Y-2.8764
X2.5548Y-2.8348
X2.5626Y-2.2275
X2.5637Y-2.1852
X2.5637Y-2.3032
X2.564Y-2.654
X2.5814Y-3.3658
X2.5825Y-2.2467
X2.5909Y-3.2349
X2.5924Y-2.1723
X2.6079Y-2.5214
X2.6304Y-2.4668
X2.6312Y-3.4495
X2.7193Y-2.8629
X2.7197Y-3.4214
X2.7224Y-2.7421
X2.7272Y-3.1202
X2.7314Y-3.2569
X2.7354Y-2.1905
X2.7393Y-2.8337
X2.7411Y-2.6211
X2.7433Y-3.5209
X2.7441Y-3.0339
X2.7496Y-3.345
X2.7551Y-3.1561
X2.7571Y-2.9874
X2.7603Y-2.1195
X2.7615Y-2.8908
X2.7803Y-3.5251
X2.7842Y-2.4146
X2.7862Y-3.2569
X2.7954Y-2.7098
X2.7987Y-2.5526
X2.9115Y-2.2185
X2.9169Y-2.705
X2.922Y-2.9337
X2.9595Y-2.4131
X2.9649Y-2.0929
X2.969Y-2.137
X2.9694Y-2.9064
X2.9728Y-2.5433
X2.9736Y-2.8771
X2.976Y-2.2562
X2.9809Y-2.2284
X2.9959Y-2.205
X2.996Y-2.8348
X2.9981Y-2.2929
X2.9985Y-2.1594
X3.0064Y-2.3611
X3.0176Y-2.6723
X3.0243Y-2.0574
X3.0387Y-2.3292
X3.0422Y-1.9866
X3.05Y-3.4819
X3.0514Y-2.024
X3.0807Y-2.368
X3.0832Y-2.9953
X3.0931Y-2.579
X3.1102Y-3.4998
X3.1146Y-2.7151
X3.117Y-3.3755
X3.1698Y-2.6614
X3.1765Y-3.4394
X3.1988Y-2.6415
X3.1998Y-2.1031
X3.2271Y-2.7731
X3.2283Y-2.143
X3.242Y-3.0093
X3.2607Y-2.2028
X3.2607Y-2.31
X3.2612Y-2.1606
X3.2648Y-2.2453
X3.2663Y-3.3665
X3.2746Y-2.8495
X3.2756Y-3.4217
X3.281Y-2.0744
X3.2815Y-2.8767
X3.2817Y-2.2238
X3.2819Y-2.613
X3.3113Y-2.0063
X3.3362Y-2.7559
T2
X2.0669Y-2.0177
X2.0669Y-2.1161
X2.0669Y-2.2146
X2.0669Y-2.313
X2.0669Y-2.4114
X2.0669Y-2.5098
X2.0669Y-2.6083
X2.0669Y-2.7067
X2.0669Y-2.8051
X2.0669Y-2.9035
X2.0669Y-3.002
X2.0669Y-3.1004
X2.0669Y-3.1988
X2.0669Y-3.2972
X2.0669Y-3.3957
X2.0669Y-3.4941
X2.1744Y-2.45
X2.1744Y-2.55
X2.1744Y-3.0799
X2.1744Y-3.1799
X2.2744Y-2.45
X2.2744Y-2.55
X2.2744Y-3.0799
X2.2744Y-3.1799
X2.6575Y-2.0177
X2.6575Y-2.1161
X2.6575Y-2.2146
X2.6575Y-2.313
X2.6575Y-2.4114
X2.6575Y-2.5098
X2.6575Y-2.6083
X2.6575Y-2.7067
X2.6575Y-2.8051
X2.6575Y-2.9035
X2.6575Y-3.002
X2.6575Y-3.1004
X2.6575Y-3.1988
X2.6575Y-3.2972
X2.6575Y-3.3957
X2.6575Y-3.4941
X2.8543Y-2.0177
X2.8543Y-2.1161
X2.8543Y-2.2146
X2.8543Y-2.313
X2.8543Y-2.4114
X2.8543Y-2.5098
X2.8543Y-2.6083
X2.8543Y-2.7067
X2.8543Y-2.8051
X2.8543Y-2.9035
X2.8543Y-3.002
X2.8543Y-3.1004
X2.8543Y-3.1988
X2.8543Y-3.2972
X2.8543Y-3.3957
X2.8543Y-3.4941
X3.2374Y-2.45
X3.2374Y-2.55
X3.2374Y-3.0799
X3.2374Y-3.1799
X3.3374Y-2.45
X3.3374Y-2.55
X3.3374Y-3.0799
X3.3374Y-3.1799
X3.4449Y-2.0177
X3.4449Y-2.1161
X3.4449Y-2.2146
X3.4449Y-2.313
X3.4449Y-2.4114
X3.4449Y-2.5098
X3.4449Y-2.6083
X3.4449Y-2.7067
X3.4449Y-2.8051
X3.4449Y-2.9035
X3.4449Y-3.002
X3.4449Y-3.1004
X3.4449Y-3.1988
X3.4449Y-3.2972
X3.4449Y-3.3957
X3.4449Y-3.4941
T0
M30
