G04 (created by PCBNEW (2013-jul-07)-stable) date Thu 08 Dec 2016 11:22:07 AM PST*
%MOIN*%
G04 Gerber Fmt 3.4, Leading zero omitted, Abs format*
%FSLAX34Y34*%
G01*
G70*
G90*
G04 APERTURE LIST*
%ADD10C,0.00590551*%
%ADD11C,0.06*%
%ADD12R,0.06X0.06*%
%ADD13C,0.035*%
%ADD14C,0.025*%
%ADD15C,0.008*%
G04 APERTURE END LIST*
G54D10*
G54D11*
X40944Y-29569D03*
X40944Y-30569D03*
X40944Y-31569D03*
X40944Y-32569D03*
X40944Y-33569D03*
X40944Y-34569D03*
X40944Y-35569D03*
X40944Y-36569D03*
G54D12*
X50393Y-36569D03*
G54D11*
X50393Y-35569D03*
X50393Y-34569D03*
X50393Y-33569D03*
X50393Y-32569D03*
X50393Y-31569D03*
X50393Y-30569D03*
X50393Y-29569D03*
G54D12*
X42168Y-30117D03*
G54D11*
X43168Y-30117D03*
X44168Y-30117D03*
X45168Y-30117D03*
X46168Y-30117D03*
X47168Y-30117D03*
X48168Y-30117D03*
X49168Y-30117D03*
G54D12*
X42168Y-37205D03*
G54D11*
X43168Y-37205D03*
X44168Y-37205D03*
X45168Y-37205D03*
X46168Y-37205D03*
X47168Y-37205D03*
X48168Y-37205D03*
X49168Y-37205D03*
G54D13*
X41465Y-27988D03*
X45867Y-33677D03*
X40300Y-35649D03*
X39847Y-35835D03*
X43866Y-31272D03*
X50087Y-28817D03*
X44492Y-31289D03*
X50297Y-38488D03*
X44770Y-32884D03*
X50855Y-28978D03*
X44045Y-35541D03*
X50994Y-38093D03*
X43122Y-38278D03*
X41352Y-34003D03*
X40039Y-37743D03*
X50250Y-37362D03*
X45247Y-32430D03*
X45922Y-34883D03*
X44599Y-36146D03*
X45466Y-36527D03*
X40464Y-31003D03*
X47085Y-32807D03*
X44341Y-31898D03*
X46751Y-34889D03*
X51247Y-32345D03*
X40112Y-29748D03*
G54D14*
X48168Y-30338D02*
X48168Y-30117D01*
G54D15*
X50282Y-27988D02*
X41465Y-27988D01*
X51202Y-28908D02*
X50282Y-27988D01*
X51202Y-29049D02*
X51202Y-28908D01*
X50977Y-29274D02*
X51202Y-29049D01*
X50732Y-29274D02*
X50977Y-29274D01*
X50604Y-29146D02*
X50732Y-29274D01*
X49361Y-29146D02*
X50604Y-29146D01*
X48168Y-30338D02*
X49361Y-29146D01*
G54D14*
X48809Y-36300D02*
X48809Y-33502D01*
X48168Y-36941D02*
X48809Y-36300D01*
X48168Y-37205D02*
X48168Y-36941D01*
X48168Y-30558D02*
X48168Y-30338D01*
X48809Y-31200D02*
X48168Y-30558D01*
X48809Y-33502D02*
X48809Y-31200D01*
G54D15*
X48634Y-33677D02*
X45867Y-33677D01*
X48809Y-33502D02*
X48634Y-33677D01*
X40300Y-35213D02*
X40300Y-35649D01*
X40944Y-34569D02*
X40300Y-35213D01*
X39812Y-35800D02*
X39847Y-35835D01*
X39812Y-29631D02*
X39812Y-35800D01*
X40296Y-29146D02*
X39812Y-29631D01*
X42803Y-29146D02*
X40296Y-29146D01*
X43589Y-29932D02*
X42803Y-29146D01*
X43589Y-30995D02*
X43589Y-29932D01*
X43866Y-31272D02*
X43589Y-30995D01*
X44492Y-31289D02*
X44492Y-31289D01*
X46616Y-31289D02*
X44492Y-31289D01*
X47668Y-30237D02*
X46616Y-31289D01*
X47668Y-30003D02*
X47668Y-30237D01*
X48854Y-28817D02*
X47668Y-30003D01*
X50087Y-28817D02*
X48854Y-28817D01*
X47831Y-38488D02*
X50297Y-38488D01*
X46668Y-37325D02*
X47831Y-38488D01*
X46668Y-35364D02*
X46668Y-37325D01*
X46218Y-34914D02*
X46668Y-35364D01*
X46218Y-34445D02*
X46218Y-34914D01*
X44770Y-32997D02*
X46218Y-34445D01*
X44770Y-32884D02*
X44770Y-32997D01*
X44045Y-31776D02*
X44045Y-35541D01*
X44196Y-31625D02*
X44045Y-31776D01*
X44196Y-31167D02*
X44196Y-31625D01*
X44653Y-30710D02*
X44196Y-31167D01*
X44653Y-30032D02*
X44653Y-30710D01*
X46178Y-28507D02*
X44653Y-30032D01*
X50383Y-28507D02*
X46178Y-28507D01*
X50855Y-28978D02*
X50383Y-28507D01*
X50994Y-38223D02*
X50994Y-38093D01*
X50432Y-38785D02*
X50994Y-38223D01*
X43629Y-38785D02*
X50432Y-38785D01*
X43122Y-38278D02*
X43629Y-38785D01*
G54D14*
X49168Y-30117D02*
X49168Y-37057D01*
X49168Y-37057D02*
X49168Y-37205D01*
G54D15*
X49944Y-37057D02*
X50250Y-37362D01*
X49168Y-37057D02*
X49944Y-37057D01*
X41365Y-34015D02*
X41352Y-34003D01*
X41365Y-36757D02*
X41365Y-34015D01*
X40379Y-37743D02*
X41365Y-36757D01*
X40039Y-37743D02*
X40379Y-37743D01*
X43168Y-37205D02*
X43168Y-30117D01*
X44795Y-32430D02*
X45247Y-32430D01*
X44346Y-32879D02*
X44795Y-32430D01*
X44346Y-35845D02*
X44346Y-32879D01*
X44168Y-36023D02*
X44346Y-35845D01*
X44168Y-37205D02*
X44168Y-36023D01*
X42168Y-37205D02*
X42168Y-30117D01*
X44599Y-36146D02*
X44599Y-36146D01*
X44660Y-36146D02*
X44599Y-36146D01*
X45922Y-34883D02*
X44660Y-36146D01*
X40983Y-31003D02*
X40464Y-31003D01*
X41808Y-31827D02*
X40983Y-31003D01*
X41808Y-35630D02*
X41808Y-31827D01*
X41748Y-35689D02*
X41808Y-35630D01*
X41748Y-37574D02*
X41748Y-35689D01*
X41798Y-37625D02*
X41748Y-37574D01*
X44348Y-37625D02*
X41798Y-37625D01*
X44668Y-37305D02*
X44348Y-37625D01*
X44668Y-37107D02*
X44668Y-37305D01*
X45248Y-36527D02*
X44668Y-37107D01*
X45466Y-36527D02*
X45248Y-36527D01*
X44341Y-31898D02*
X44341Y-31898D01*
X46176Y-31898D02*
X44341Y-31898D01*
X47085Y-32807D02*
X46176Y-31898D01*
X47168Y-35306D02*
X47168Y-37205D01*
X46751Y-34889D02*
X47168Y-35306D01*
X51247Y-36790D02*
X51247Y-32345D01*
X50375Y-37662D02*
X51247Y-36790D01*
X47626Y-37662D02*
X50375Y-37662D01*
X47168Y-37205D02*
X47626Y-37662D01*
X40112Y-31357D02*
X40112Y-29748D01*
X40823Y-32069D02*
X40112Y-31357D01*
X41043Y-32069D02*
X40823Y-32069D01*
X41647Y-32673D02*
X41043Y-32069D01*
X41647Y-34337D02*
X41647Y-32673D01*
X41588Y-34397D02*
X41647Y-34337D01*
X41588Y-37641D02*
X41588Y-34397D01*
X41751Y-37804D02*
X41588Y-37641D01*
X44569Y-37804D02*
X41751Y-37804D01*
X45168Y-37205D02*
X44569Y-37804D01*
M02*
