G04 (created by PCBNEW (2013-jul-07)-stable) date Thu 08 Dec 2016 11:22:07 AM PST*
%MOIN*%
G04 Gerber Fmt 3.4, Leading zero omitted, Abs format*
%FSLAX34Y34*%
G01*
G70*
G90*
G04 APERTURE LIST*
%ADD10C,0.00590551*%
%ADD11R,0.045X0.065*%
%ADD12R,0.065X0.045*%
%ADD13R,0.0987X0.0377*%
%ADD14R,0.0377X0.0987*%
%ADD15C,0.08*%
%ADD16R,0.08X0.08*%
%ADD17R,0.0712X0.0397*%
%ADD18R,0.0347638X0.039685*%
%ADD19R,0.039685X0.0347638*%
G04 APERTURE END LIST*
G54D10*
G54D11*
X50605Y-27322D03*
X51205Y-27322D03*
X39896Y-38779D03*
X40496Y-38779D03*
G54D12*
X39921Y-36747D03*
X39921Y-37347D03*
X39881Y-30448D03*
X39881Y-31048D03*
X51456Y-31314D03*
X51456Y-31914D03*
X39881Y-28676D03*
X39881Y-29276D03*
X51456Y-33400D03*
X51456Y-34000D03*
X51496Y-35133D03*
X51496Y-35733D03*
G54D11*
X42042Y-31633D03*
X42642Y-31633D03*
G54D13*
X44068Y-34754D03*
X44068Y-34439D03*
X44068Y-34124D03*
X44068Y-33809D03*
X44068Y-33494D03*
X44068Y-33179D03*
X44068Y-32864D03*
X44068Y-32549D03*
X47834Y-32551D03*
X47834Y-34761D03*
X47834Y-34441D03*
X47834Y-34121D03*
X47834Y-33811D03*
X47834Y-33491D03*
X47834Y-33181D03*
X47834Y-32861D03*
G54D14*
X44852Y-31761D03*
X45166Y-31761D03*
X45482Y-31761D03*
X45796Y-31761D03*
X46112Y-31761D03*
X46426Y-31761D03*
X46742Y-31761D03*
X47056Y-31761D03*
X44854Y-35541D03*
X45164Y-35541D03*
X45484Y-35541D03*
X45794Y-35541D03*
X46104Y-35541D03*
X46424Y-35541D03*
X46744Y-35541D03*
X47064Y-35541D03*
G54D15*
X40944Y-29569D03*
X40944Y-30569D03*
X40944Y-31569D03*
X40944Y-32569D03*
X40944Y-33569D03*
X40944Y-34569D03*
X40944Y-35569D03*
X40944Y-36569D03*
G54D16*
X50393Y-36569D03*
G54D15*
X50393Y-35569D03*
X50393Y-34569D03*
X50393Y-33569D03*
X50393Y-32569D03*
X50393Y-31569D03*
X50393Y-30569D03*
X50393Y-29569D03*
G54D11*
X48597Y-36161D03*
X49197Y-36161D03*
X42662Y-33011D03*
X42062Y-33011D03*
G54D16*
X42168Y-30117D03*
G54D15*
X43168Y-30117D03*
X44168Y-30117D03*
X45168Y-30117D03*
X46168Y-30117D03*
X47168Y-30117D03*
X48168Y-30117D03*
X49168Y-30117D03*
G54D16*
X42168Y-37205D03*
G54D15*
X43168Y-37205D03*
X44168Y-37205D03*
X45168Y-37205D03*
X46168Y-37205D03*
X47168Y-37205D03*
X48168Y-37205D03*
X49168Y-37205D03*
G54D17*
X42421Y-35000D03*
X42421Y-35472D03*
X42421Y-34528D03*
G54D18*
X40511Y-28011D03*
X40708Y-28011D03*
X40905Y-28011D03*
X40905Y-27342D03*
X40708Y-27342D03*
X40511Y-27342D03*
X39685Y-35334D03*
X39881Y-35334D03*
X40078Y-35334D03*
X40078Y-34665D03*
X39881Y-34665D03*
X39685Y-34665D03*
G54D19*
X50531Y-28188D03*
X50531Y-28385D03*
X50531Y-28582D03*
X51200Y-28582D03*
X51200Y-28385D03*
X51200Y-28188D03*
G54D18*
X39724Y-32696D03*
X39921Y-32696D03*
X40118Y-32696D03*
X40118Y-32027D03*
X39921Y-32027D03*
X39724Y-32027D03*
G54D19*
X50767Y-38622D03*
X50767Y-38818D03*
X50767Y-39015D03*
X51437Y-39015D03*
X51437Y-38818D03*
X51437Y-38622D03*
G54D18*
X51220Y-30137D03*
X51417Y-30137D03*
X51614Y-30137D03*
X51614Y-29468D03*
X51417Y-29468D03*
X51220Y-29468D03*
G54D19*
X50728Y-37401D03*
X50728Y-37598D03*
X50728Y-37795D03*
X51397Y-37795D03*
X51397Y-37598D03*
X51397Y-37401D03*
G54D18*
X49133Y-32342D03*
X49330Y-32342D03*
X49527Y-32342D03*
X49527Y-31673D03*
X49330Y-31673D03*
X49133Y-31673D03*
M02*
