M48
;DRILL file {Pcbnew (2013-jul-07)-stable} date Thu 02 Jun 2016 05:53:12 PM PDT
;FORMAT={-:-/ absolute / inch / decimal}
FMAT,2
INCH,TZ
T1C0.025
T2C0.040
%
G90
G05
M72
T1
X4.0056Y-3.4303
X4.0411Y-2.8685
X4.0423Y-3.7287
X4.045Y-3.2165
X4.1236Y-2.7343
X4.1541Y-3.0793
X4.1611Y-3.1747
X4.1726Y-3.1238
X4.1747Y-3.4539
X4.3386Y-3.284
X4.3386Y-3.6538
X4.4425Y-3.563
X4.4506Y-3.1314
X4.4913Y-3.4678
X4.5649Y-3.6195
X4.6093Y-3.6191
X4.7599Y-3.2205
X4.8214Y-3.1975
X4.9211Y-3.2701
X4.9411Y-2.8672
X4.9795Y-3.4001
X4.9974Y-3.7795
X5.0174Y-2.8736
X5.0394Y-3.9016
X5.0858Y-2.9169
X5.1248Y-3.2555
T2
X4.0945Y-2.9569
X4.0945Y-3.0569
X4.0945Y-3.1569
X4.0945Y-3.2569
X4.0945Y-3.3569
X4.0945Y-3.4569
X4.0945Y-3.5569
X4.0945Y-3.6569
X4.2169Y-3.0118
X4.2169Y-3.7205
X4.3169Y-3.0118
X4.3169Y-3.7205
X4.4169Y-3.0118
X4.4169Y-3.7205
X4.5169Y-3.0118
X4.5169Y-3.7205
X4.6169Y-3.0118
X4.6169Y-3.7205
X4.7169Y-3.0118
X4.7169Y-3.7205
X4.8169Y-3.0118
X4.8169Y-3.7205
X4.9169Y-3.0118
X4.9169Y-3.7205
X5.0394Y-2.9569
X5.0394Y-3.0569
X5.0394Y-3.1569
X5.0394Y-3.2569
X5.0394Y-3.3569
X5.0394Y-3.4569
X5.0394Y-3.5569
X5.0394Y-3.6569
T0
M30
