M48
;DRILL file {Pcbnew (2013-jul-07)-stable} date Thu 08 Dec 2016 11:22:15 AM PST
;FORMAT={-:-/ absolute / inch / decimal}
FMAT,2
INCH,TZ
T1C0.025
T2C0.040
%
G90
G05
M72
T1
X3.9847Y-3.5835
X4.0039Y-3.7743
X4.0113Y-2.9749
X4.0301Y-3.5649
X4.0465Y-3.1003
X4.1353Y-3.4003
X4.1465Y-2.7989
X4.3123Y-3.8279
X4.3866Y-3.1272
X4.4046Y-3.5541
X4.4341Y-3.1899
X4.4492Y-3.129
X4.46Y-3.6146
X4.477Y-3.2884
X4.5248Y-3.243
X4.5466Y-3.6527
X4.5868Y-3.3678
X4.5923Y-3.4883
X4.6751Y-3.4889
X4.7085Y-3.2808
X5.0088Y-2.8818
X5.025Y-3.7363
X5.0298Y-3.8489
X5.0855Y-2.8979
X5.0994Y-3.8093
X5.1248Y-3.2346
T2
X4.0945Y-2.9569
X4.0945Y-3.0569
X4.0945Y-3.1569
X4.0945Y-3.2569
X4.0945Y-3.3569
X4.0945Y-3.4569
X4.0945Y-3.5569
X4.0945Y-3.6569
X4.2169Y-3.0118
X4.2169Y-3.7205
X4.3169Y-3.0118
X4.3169Y-3.7205
X4.4169Y-3.0118
X4.4169Y-3.7205
X4.5169Y-3.0118
X4.5169Y-3.7205
X4.6169Y-3.0118
X4.6169Y-3.7205
X4.7169Y-3.0118
X4.7169Y-3.7205
X4.8169Y-3.0118
X4.8169Y-3.7205
X4.9169Y-3.0118
X4.9169Y-3.7205
X5.0394Y-2.9569
X5.0394Y-3.0569
X5.0394Y-3.1569
X5.0394Y-3.2569
X5.0394Y-3.3569
X5.0394Y-3.4569
X5.0394Y-3.5569
X5.0394Y-3.6569
T0
M30
