G04 (created by PCBNEW (2013-jul-07)-stable) date Thu 02 Jun 2016 05:53:07 PM PDT*
%MOIN*%
G04 Gerber Fmt 3.4, Leading zero omitted, Abs format*
%FSLAX34Y34*%
G01*
G70*
G90*
G04 APERTURE LIST*
%ADD10C,0.00590551*%
%ADD11R,0.025X0.045*%
%ADD12R,0.045X0.025*%
%ADD13R,0.0787X0.0177*%
%ADD14R,0.0177X0.0787*%
%ADD15C,0.06*%
%ADD16R,0.06X0.06*%
%ADD17R,0.0512X0.0197*%
%ADD18R,0.0147638X0.019685*%
%ADD19R,0.019685X0.0147638*%
%ADD20C,0.035*%
%ADD21C,0.008*%
%ADD22C,0.016*%
G04 APERTURE END LIST*
G54D10*
G54D11*
X50605Y-27322D03*
X51205Y-27322D03*
X39896Y-38779D03*
X40496Y-38779D03*
G54D12*
X39921Y-36747D03*
X39921Y-37347D03*
X39881Y-30448D03*
X39881Y-31048D03*
X51456Y-31314D03*
X51456Y-31914D03*
X39881Y-28676D03*
X39881Y-29276D03*
X51456Y-33400D03*
X51456Y-34000D03*
X51496Y-35133D03*
X51496Y-35733D03*
G54D11*
X42042Y-31633D03*
X42642Y-31633D03*
G54D13*
X44068Y-34754D03*
X44068Y-34439D03*
X44068Y-34124D03*
X44068Y-33809D03*
X44068Y-33494D03*
X44068Y-33179D03*
X44068Y-32864D03*
X44068Y-32549D03*
X47834Y-32551D03*
X47834Y-34761D03*
X47834Y-34441D03*
X47834Y-34121D03*
X47834Y-33811D03*
X47834Y-33491D03*
X47834Y-33181D03*
X47834Y-32861D03*
G54D14*
X44852Y-31761D03*
X45166Y-31761D03*
X45482Y-31761D03*
X45796Y-31761D03*
X46112Y-31761D03*
X46426Y-31761D03*
X46742Y-31761D03*
X47056Y-31761D03*
X44854Y-35541D03*
X45164Y-35541D03*
X45484Y-35541D03*
X45794Y-35541D03*
X46104Y-35541D03*
X46424Y-35541D03*
X46744Y-35541D03*
X47064Y-35541D03*
G54D15*
X40944Y-29569D03*
X40944Y-30569D03*
X40944Y-31569D03*
X40944Y-32569D03*
X40944Y-33569D03*
X40944Y-34569D03*
X40944Y-35569D03*
X40944Y-36569D03*
G54D16*
X50393Y-36569D03*
G54D15*
X50393Y-35569D03*
X50393Y-34569D03*
X50393Y-33569D03*
X50393Y-32569D03*
X50393Y-31569D03*
X50393Y-30569D03*
X50393Y-29569D03*
G54D11*
X48597Y-36161D03*
X49197Y-36161D03*
X42662Y-33011D03*
X42062Y-33011D03*
G54D16*
X42168Y-30117D03*
G54D15*
X43168Y-30117D03*
X44168Y-30117D03*
X45168Y-30117D03*
X46168Y-30117D03*
X47168Y-30117D03*
X48168Y-30117D03*
X49168Y-30117D03*
G54D16*
X42168Y-37205D03*
G54D15*
X43168Y-37205D03*
X44168Y-37205D03*
X45168Y-37205D03*
X46168Y-37205D03*
X47168Y-37205D03*
X48168Y-37205D03*
X49168Y-37205D03*
G54D17*
X42421Y-35000D03*
X42421Y-35472D03*
X42421Y-34528D03*
G54D18*
X40511Y-28011D03*
X40708Y-28011D03*
X40905Y-28011D03*
X40905Y-27342D03*
X40708Y-27342D03*
X40511Y-27342D03*
X39685Y-35334D03*
X39881Y-35334D03*
X40078Y-35334D03*
X40078Y-34665D03*
X39881Y-34665D03*
X39685Y-34665D03*
G54D19*
X50531Y-28188D03*
X50531Y-28385D03*
X50531Y-28582D03*
X51200Y-28582D03*
X51200Y-28385D03*
X51200Y-28188D03*
G54D18*
X39724Y-32696D03*
X39921Y-32696D03*
X40118Y-32696D03*
X40118Y-32027D03*
X39921Y-32027D03*
X39724Y-32027D03*
G54D19*
X50767Y-38622D03*
X50767Y-38818D03*
X50767Y-39015D03*
X51437Y-39015D03*
X51437Y-38818D03*
X51437Y-38622D03*
G54D18*
X51220Y-30137D03*
X51417Y-30137D03*
X51614Y-30137D03*
X51614Y-29468D03*
X51417Y-29468D03*
X51220Y-29468D03*
G54D19*
X50728Y-37401D03*
X50728Y-37598D03*
X50728Y-37795D03*
X51397Y-37795D03*
X51397Y-37598D03*
X51397Y-37401D03*
G54D18*
X49133Y-32342D03*
X49330Y-32342D03*
X49527Y-32342D03*
X49527Y-31673D03*
X49330Y-31673D03*
X49133Y-31673D03*
G54D20*
X41235Y-27342D03*
X40449Y-32165D03*
X40055Y-34303D03*
X49410Y-28671D03*
X49973Y-37795D03*
X50393Y-39015D03*
X41747Y-34539D03*
X41726Y-31238D03*
X50173Y-28736D03*
X44505Y-31313D03*
X43385Y-36537D03*
X43385Y-32840D03*
X50858Y-29168D03*
X44425Y-35630D03*
X48214Y-31974D03*
X45649Y-36195D03*
X49211Y-32701D03*
X49794Y-34000D03*
X46092Y-36190D03*
X40423Y-37286D03*
X44913Y-34677D03*
X40410Y-28684D03*
X41610Y-31746D03*
X47599Y-32204D03*
X51247Y-32555D03*
X41541Y-30792D03*
G54D21*
X51200Y-28582D02*
X51200Y-28736D01*
X40905Y-27342D02*
X41099Y-27342D01*
X41099Y-27342D02*
X41235Y-27342D01*
X40118Y-32027D02*
X40312Y-32027D01*
X40312Y-32027D02*
X40449Y-32165D01*
X49527Y-31673D02*
X49527Y-31454D01*
X51397Y-37795D02*
X51397Y-37989D01*
X51397Y-37795D02*
X51616Y-37795D01*
X51614Y-29468D02*
X51614Y-29249D01*
X51614Y-29468D02*
X51808Y-29468D01*
X40078Y-34325D02*
X40078Y-34665D01*
X40055Y-34303D02*
X40078Y-34325D01*
X51808Y-29468D02*
X51808Y-31069D01*
X51841Y-31102D02*
X51808Y-31069D01*
X51841Y-37570D02*
X51841Y-31102D01*
X51616Y-37795D02*
X51841Y-37570D01*
X51614Y-29149D02*
X51200Y-28736D01*
X51614Y-29249D02*
X51614Y-29149D01*
X51437Y-39015D02*
X51655Y-39015D01*
X51815Y-38407D02*
X51397Y-37989D01*
X51815Y-38885D02*
X51815Y-38407D01*
X51685Y-39015D02*
X51815Y-38885D01*
X51655Y-39015D02*
X51685Y-39015D01*
X49644Y-31069D02*
X49584Y-31128D01*
X51808Y-31069D02*
X49644Y-31069D01*
X49527Y-31185D02*
X49527Y-31454D01*
X49584Y-31128D02*
X49527Y-31185D01*
X48737Y-29345D02*
X49410Y-28671D01*
X48737Y-30281D02*
X48737Y-29345D01*
X49584Y-31128D02*
X48737Y-30281D01*
X49527Y-32342D02*
X49527Y-32451D01*
X50276Y-32451D02*
X50393Y-32569D01*
X49527Y-32451D02*
X50276Y-32451D01*
X49295Y-31891D02*
X49527Y-32123D01*
X49133Y-31891D02*
X49295Y-31891D01*
X49133Y-31673D02*
X49133Y-31891D01*
X49527Y-32342D02*
X49527Y-32123D01*
X51397Y-37401D02*
X51397Y-37207D01*
X51397Y-36572D02*
X50393Y-35569D01*
X51397Y-37207D02*
X51397Y-36572D01*
X50728Y-37795D02*
X49973Y-37795D01*
X50606Y-30356D02*
X50393Y-30569D01*
X51614Y-30356D02*
X50606Y-30356D01*
X51614Y-30137D02*
X51614Y-30356D01*
X51381Y-29687D02*
X51614Y-29919D01*
X51220Y-29687D02*
X51381Y-29687D01*
X51220Y-29468D02*
X51220Y-29687D01*
X51614Y-30137D02*
X51614Y-29919D01*
X51218Y-38783D02*
X50986Y-39015D01*
X51218Y-38622D02*
X51218Y-38783D01*
X50877Y-39015D02*
X50986Y-39015D01*
X51437Y-38622D02*
X51218Y-38622D01*
X50877Y-39015D02*
X50767Y-39015D01*
X50767Y-39015D02*
X50393Y-39015D01*
X39885Y-32246D02*
X40118Y-32478D01*
X39724Y-32246D02*
X39885Y-32246D01*
X39724Y-32027D02*
X39724Y-32246D01*
X40118Y-32696D02*
X40118Y-32587D01*
X40118Y-32587D02*
X40118Y-32478D01*
X40926Y-32587D02*
X40944Y-32569D01*
X40118Y-32587D02*
X40926Y-32587D01*
X50531Y-28582D02*
X50531Y-28776D01*
X50982Y-28350D02*
X50750Y-28582D01*
X50982Y-28188D02*
X50982Y-28350D01*
X51200Y-28188D02*
X50982Y-28188D01*
X50531Y-28582D02*
X50750Y-28582D01*
X50531Y-29431D02*
X50393Y-29569D01*
X50531Y-28776D02*
X50531Y-29431D01*
X40179Y-35334D02*
X40078Y-35334D01*
X40944Y-34569D02*
X40179Y-35334D01*
X40375Y-33999D02*
X40944Y-34569D01*
X39919Y-33999D02*
X40375Y-33999D01*
X39685Y-34233D02*
X39919Y-33999D01*
X39685Y-34665D02*
X39685Y-34233D01*
X40673Y-27561D02*
X40905Y-27793D01*
X40511Y-27561D02*
X40673Y-27561D01*
X40511Y-27342D02*
X40511Y-27561D01*
X40905Y-27921D02*
X40905Y-27793D01*
X40905Y-27921D02*
X40905Y-28011D01*
X40944Y-28269D02*
X40944Y-29569D01*
X40905Y-28230D02*
X40944Y-28269D01*
X40905Y-28011D02*
X40905Y-28230D01*
X45482Y-31761D02*
X45482Y-31247D01*
X40708Y-27822D02*
X40708Y-28011D01*
X40642Y-27757D02*
X40708Y-27822D01*
X40455Y-27757D02*
X40642Y-27757D01*
X40317Y-27619D02*
X40455Y-27757D01*
X40317Y-27185D02*
X40317Y-27619D01*
X40378Y-27123D02*
X40317Y-27185D01*
X40708Y-27123D02*
X40378Y-27123D01*
X40708Y-27342D02*
X40708Y-27123D01*
X45253Y-31018D02*
X45482Y-31247D01*
X42184Y-31018D02*
X45253Y-31018D01*
X41234Y-30069D02*
X42184Y-31018D01*
X40841Y-30069D02*
X41234Y-30069D01*
X40512Y-29740D02*
X40841Y-30069D01*
X40512Y-29269D02*
X40512Y-29740D01*
X40708Y-29073D02*
X40512Y-29269D01*
X40708Y-28011D02*
X40708Y-29073D01*
X41217Y-35069D02*
X41747Y-34539D01*
X40716Y-35069D02*
X41217Y-35069D01*
X40232Y-35553D02*
X40716Y-35069D01*
X39881Y-35553D02*
X40232Y-35553D01*
X45166Y-31761D02*
X45166Y-32275D01*
X39881Y-35334D02*
X39881Y-35553D01*
X43677Y-31238D02*
X41726Y-31238D01*
X44714Y-32275D02*
X43677Y-31238D01*
X45166Y-32275D02*
X44714Y-32275D01*
X39881Y-34665D02*
X39881Y-35334D01*
X44852Y-31761D02*
X44852Y-31247D01*
X44571Y-31247D02*
X44505Y-31313D01*
X44852Y-31247D02*
X44571Y-31247D01*
X50720Y-28385D02*
X50531Y-28385D01*
X50786Y-28320D02*
X50720Y-28385D01*
X50786Y-28132D02*
X50786Y-28320D01*
X50924Y-27995D02*
X50786Y-28132D01*
X51377Y-27995D02*
X50924Y-27995D01*
X51419Y-28036D02*
X51377Y-27995D01*
X51419Y-28385D02*
X51419Y-28036D01*
X51200Y-28385D02*
X51419Y-28385D01*
X50173Y-28554D02*
X50173Y-28736D01*
X50342Y-28385D02*
X50173Y-28554D01*
X50531Y-28385D02*
X50342Y-28385D01*
X39921Y-32507D02*
X39921Y-32696D01*
X39855Y-32442D02*
X39921Y-32507D01*
X39668Y-32442D02*
X39855Y-32442D01*
X39530Y-32304D02*
X39668Y-32442D01*
X39530Y-31871D02*
X39530Y-32304D01*
X39592Y-31809D02*
X39530Y-31871D01*
X39921Y-31809D02*
X39592Y-31809D01*
X39921Y-32027D02*
X39921Y-31849D01*
X39921Y-31849D02*
X39921Y-31809D01*
X43047Y-32042D02*
X43554Y-32549D01*
X40797Y-32042D02*
X43047Y-32042D01*
X40564Y-31809D02*
X40797Y-32042D01*
X39921Y-31809D02*
X40564Y-31809D01*
X44068Y-32549D02*
X43554Y-32549D01*
X43531Y-32840D02*
X43554Y-32864D01*
X43385Y-32840D02*
X43531Y-32840D01*
X44068Y-32864D02*
X43554Y-32864D01*
X51585Y-38428D02*
X50989Y-38428D01*
X51655Y-38498D02*
X51585Y-38428D01*
X51655Y-38818D02*
X51655Y-38498D01*
X44782Y-38428D02*
X50989Y-38428D01*
X43743Y-37389D02*
X44782Y-38428D01*
X43743Y-36895D02*
X43743Y-37389D01*
X43385Y-36537D02*
X43743Y-36895D01*
X50956Y-38818D02*
X50767Y-38818D01*
X50989Y-38786D02*
X50956Y-38818D01*
X50989Y-38428D02*
X50989Y-38786D01*
X51437Y-38818D02*
X51655Y-38818D01*
X51417Y-29468D02*
X51417Y-29249D01*
X44690Y-36055D02*
X44854Y-36055D01*
X44425Y-35789D02*
X44690Y-36055D01*
X44425Y-35630D02*
X44425Y-35789D01*
X44854Y-35541D02*
X44854Y-36055D01*
X51417Y-29989D02*
X51417Y-30137D01*
X51310Y-29883D02*
X51417Y-29989D01*
X51188Y-29883D02*
X51310Y-29883D01*
X51026Y-29721D02*
X51188Y-29883D01*
X51026Y-29293D02*
X51026Y-29721D01*
X51069Y-29249D02*
X51026Y-29293D01*
X51417Y-29249D02*
X51069Y-29249D01*
X50982Y-29293D02*
X50858Y-29168D01*
X51026Y-29293D02*
X50982Y-29293D01*
X45164Y-36324D02*
X45164Y-35541D01*
X44733Y-36755D02*
X45164Y-36324D01*
X44733Y-37390D02*
X44733Y-36755D01*
X45146Y-37802D02*
X44733Y-37390D01*
X49488Y-37802D02*
X45146Y-37802D01*
X49794Y-37496D02*
X49488Y-37802D01*
X50407Y-37496D02*
X49794Y-37496D01*
X50509Y-37598D02*
X50407Y-37496D01*
X50728Y-37598D02*
X50509Y-37598D01*
X51397Y-37598D02*
X50728Y-37598D01*
X49330Y-31673D02*
X49330Y-31454D01*
X45509Y-36055D02*
X45649Y-36195D01*
X45484Y-36055D02*
X45509Y-36055D01*
X48239Y-31950D02*
X48214Y-31974D01*
X48939Y-31950D02*
X48239Y-31950D01*
X48939Y-31499D02*
X48939Y-31950D01*
X48984Y-31454D02*
X48939Y-31499D01*
X49330Y-31454D02*
X48984Y-31454D01*
X49330Y-32153D02*
X49330Y-32342D01*
X49265Y-32087D02*
X49330Y-32153D01*
X49077Y-32087D02*
X49265Y-32087D01*
X48939Y-31950D02*
X49077Y-32087D01*
X45484Y-35541D02*
X45484Y-36055D01*
X42421Y-35000D02*
X42045Y-35000D01*
X39685Y-35334D02*
X39685Y-35553D01*
X40191Y-38531D02*
X40191Y-39013D01*
X41442Y-37279D02*
X40191Y-38531D01*
X41442Y-35602D02*
X41442Y-37279D01*
X42045Y-35000D02*
X41442Y-35602D01*
X39576Y-35662D02*
X39685Y-35553D01*
X39576Y-39019D02*
X39576Y-35662D01*
X39700Y-39143D02*
X39576Y-39019D01*
X40060Y-39143D02*
X39700Y-39143D01*
X40191Y-39013D02*
X40060Y-39143D01*
X49168Y-38622D02*
X50767Y-38622D01*
X48641Y-39149D02*
X49168Y-38622D01*
X40327Y-39149D02*
X48641Y-39149D01*
X40191Y-39013D02*
X40327Y-39149D01*
X44068Y-33809D02*
X44068Y-33809D01*
X44068Y-33179D02*
X44582Y-33179D01*
X43302Y-33179D02*
X44068Y-33179D01*
X43090Y-32967D02*
X43302Y-33179D01*
X43090Y-32902D02*
X43090Y-32967D01*
X42853Y-32665D02*
X43090Y-32902D01*
X42469Y-32665D02*
X42853Y-32665D01*
X42307Y-32827D02*
X42469Y-32665D01*
X42307Y-33011D02*
X42307Y-32827D01*
X42062Y-33011D02*
X42307Y-33011D01*
X44894Y-33491D02*
X47834Y-33491D01*
X44582Y-33179D02*
X44894Y-33491D01*
X51205Y-27322D02*
X51082Y-27322D01*
X50531Y-28188D02*
X50531Y-27995D01*
X50696Y-37176D02*
X49197Y-37176D01*
X50728Y-37207D02*
X50696Y-37176D01*
G54D22*
X49197Y-36161D02*
X49197Y-37176D01*
X49197Y-37176D02*
X49168Y-37205D01*
G54D21*
X50728Y-37401D02*
X50728Y-37207D01*
X51082Y-27443D02*
X51082Y-27322D01*
X50531Y-27995D02*
X51082Y-27443D01*
X40155Y-27849D02*
X40317Y-28011D01*
X40155Y-27097D02*
X40155Y-27849D01*
X40302Y-26950D02*
X40155Y-27097D01*
X50759Y-26950D02*
X40302Y-26950D01*
X51082Y-27273D02*
X50759Y-26950D01*
X51082Y-27322D02*
X51082Y-27273D01*
X40511Y-28011D02*
X40317Y-28011D01*
X42062Y-33011D02*
X42062Y-33107D01*
X43337Y-33809D02*
X44068Y-33809D01*
X42913Y-33385D02*
X43337Y-33809D01*
X42244Y-33385D02*
X42913Y-33385D01*
X42062Y-33203D02*
X42244Y-33385D01*
X42062Y-33107D02*
X42062Y-33203D01*
X39935Y-33126D02*
X39724Y-32915D01*
X42043Y-33126D02*
X39935Y-33126D01*
X42062Y-33107D02*
X42043Y-33126D01*
X42043Y-34998D02*
X42045Y-35000D01*
X42043Y-33126D02*
X42043Y-34998D01*
X39724Y-32696D02*
X39724Y-32915D01*
X51220Y-30137D02*
X51026Y-30137D01*
X50293Y-28188D02*
X50531Y-28188D01*
X49865Y-28617D02*
X50293Y-28188D01*
X49865Y-30117D02*
X49865Y-28617D01*
X49168Y-30117D02*
X49865Y-30117D01*
X51006Y-30117D02*
X51026Y-30137D01*
X49865Y-30117D02*
X51006Y-30117D01*
X49197Y-34419D02*
X49197Y-36161D01*
X48269Y-33491D02*
X49197Y-34419D01*
X47834Y-33491D02*
X48269Y-33491D01*
X49133Y-32623D02*
X49211Y-32701D01*
X49133Y-32342D02*
X49133Y-32623D01*
X51456Y-34000D02*
X49794Y-34000D01*
X47834Y-34761D02*
X47320Y-34761D01*
X47320Y-34761D02*
X47320Y-34761D01*
X47322Y-34762D02*
X47320Y-34761D01*
X47340Y-34762D02*
X47322Y-34762D01*
X47597Y-35019D02*
X47340Y-34762D01*
X47597Y-37397D02*
X47597Y-35019D01*
X47367Y-37626D02*
X47597Y-37397D01*
X46590Y-37626D02*
X47367Y-37626D01*
X46168Y-37205D02*
X46590Y-37626D01*
X43040Y-34439D02*
X44068Y-34439D01*
X42952Y-34527D02*
X43040Y-34439D01*
X42421Y-34527D02*
X42952Y-34527D01*
X44068Y-34439D02*
X44068Y-34439D01*
X40011Y-36502D02*
X39921Y-36502D01*
X40944Y-35569D02*
X40011Y-36502D01*
X39921Y-36747D02*
X39921Y-36502D01*
X51177Y-34569D02*
X51496Y-34887D01*
X50393Y-34569D02*
X51177Y-34569D01*
X51496Y-35133D02*
X51496Y-34887D01*
X40326Y-37286D02*
X40266Y-37347D01*
X40423Y-37286D02*
X40326Y-37286D01*
X39921Y-37347D02*
X40266Y-37347D01*
X46104Y-35541D02*
X46104Y-36055D01*
X46104Y-36178D02*
X46092Y-36190D01*
X46104Y-36055D02*
X46104Y-36178D01*
X50856Y-31569D02*
X51111Y-31314D01*
X50393Y-31569D02*
X50856Y-31569D01*
X51456Y-31314D02*
X51111Y-31314D01*
X46424Y-35541D02*
X46424Y-35027D01*
X46074Y-34677D02*
X44913Y-34677D01*
X46424Y-35027D02*
X46074Y-34677D01*
X40157Y-28431D02*
X40410Y-28684D01*
X39578Y-28431D02*
X40157Y-28431D01*
X39536Y-28473D02*
X39578Y-28431D01*
X39536Y-30702D02*
X39536Y-28473D01*
X39881Y-31048D02*
X39536Y-30702D01*
X45877Y-30698D02*
X46426Y-31247D01*
X43749Y-30698D02*
X45877Y-30698D01*
X43168Y-30117D02*
X43749Y-30698D01*
X46426Y-31761D02*
X46426Y-31247D01*
X42042Y-31633D02*
X41797Y-31633D01*
X41723Y-31633D02*
X41610Y-31746D01*
X41797Y-31633D02*
X41723Y-31633D01*
X41732Y-37788D02*
X40741Y-38779D01*
X41732Y-36848D02*
X41732Y-37788D01*
X43553Y-35027D02*
X41732Y-36848D01*
X45794Y-35027D02*
X43553Y-35027D01*
X45794Y-35541D02*
X45794Y-35027D01*
X40496Y-38779D02*
X40741Y-38779D01*
X51250Y-35487D02*
X51496Y-35487D01*
X50775Y-35012D02*
X51250Y-35487D01*
X50243Y-35012D02*
X50775Y-35012D01*
X48348Y-33117D02*
X50243Y-35012D01*
X48348Y-32861D02*
X48348Y-33117D01*
X47834Y-32861D02*
X48348Y-32861D01*
X51496Y-35733D02*
X51496Y-35487D01*
X43846Y-31633D02*
X42642Y-31633D01*
X44764Y-32551D02*
X43846Y-31633D01*
X47834Y-32551D02*
X44764Y-32551D01*
X40069Y-30693D02*
X39881Y-30693D01*
X40944Y-31569D02*
X40069Y-30693D01*
X39881Y-30448D02*
X39881Y-30693D01*
X39896Y-38779D02*
X39896Y-38434D01*
X40944Y-37386D02*
X40944Y-36569D01*
X39896Y-38434D02*
X40944Y-37386D01*
X45796Y-31761D02*
X45796Y-32275D01*
X47529Y-32275D02*
X47599Y-32204D01*
X45796Y-32275D02*
X47529Y-32275D01*
X43395Y-34754D02*
X44068Y-34754D01*
X42677Y-35472D02*
X43395Y-34754D01*
X42421Y-35472D02*
X42677Y-35472D01*
X44068Y-34754D02*
X44068Y-34754D01*
X39881Y-28676D02*
X39881Y-28921D01*
X40065Y-28921D02*
X39881Y-28921D01*
X40352Y-29208D02*
X40065Y-28921D01*
X40352Y-29976D02*
X40352Y-29208D01*
X40944Y-30569D02*
X40352Y-29976D01*
X50943Y-33569D02*
X51111Y-33400D01*
X50393Y-33569D02*
X50943Y-33569D01*
X51456Y-33400D02*
X51111Y-33400D01*
X46742Y-31761D02*
X46742Y-31247D01*
X46032Y-30538D02*
X46699Y-31204D01*
X44589Y-30538D02*
X46032Y-30538D01*
X44168Y-30117D02*
X44589Y-30538D01*
X46699Y-31204D02*
X46742Y-31247D01*
X47668Y-30235D02*
X46699Y-31204D01*
X47668Y-29996D02*
X47668Y-30235D01*
X50342Y-27322D02*
X47668Y-29996D01*
X50605Y-27322D02*
X50342Y-27322D01*
X51456Y-32345D02*
X51456Y-31914D01*
X51247Y-32555D02*
X51456Y-32345D01*
X47203Y-35027D02*
X46744Y-35027D01*
X47273Y-35097D02*
X47203Y-35027D01*
X47273Y-37100D02*
X47273Y-35097D01*
X47168Y-37205D02*
X47273Y-37100D01*
X46744Y-35541D02*
X46744Y-35027D01*
X39881Y-29768D02*
X39881Y-29276D01*
X40524Y-30410D02*
X39881Y-29768D01*
X40524Y-30745D02*
X40524Y-30410D01*
X40770Y-30990D02*
X40524Y-30745D01*
X41343Y-30990D02*
X40770Y-30990D01*
X41541Y-30792D02*
X41343Y-30990D01*
X47064Y-35541D02*
X47064Y-36055D01*
X46598Y-36521D02*
X47064Y-36055D01*
X45852Y-36521D02*
X46598Y-36521D01*
X45168Y-37205D02*
X45852Y-36521D01*
X42168Y-30117D02*
X42589Y-30117D01*
X46112Y-31761D02*
X46112Y-31247D01*
X45723Y-30858D02*
X46112Y-31247D01*
X43276Y-30858D02*
X45723Y-30858D01*
X42589Y-30170D02*
X43276Y-30858D01*
X42589Y-30117D02*
X42589Y-30170D01*
X43258Y-33494D02*
X44068Y-33494D01*
X42775Y-33011D02*
X43258Y-33494D01*
X42662Y-33011D02*
X42775Y-33011D01*
X47834Y-33811D02*
X47320Y-33811D01*
X44068Y-33494D02*
X44068Y-33494D01*
X44068Y-34124D02*
X44582Y-34124D01*
X47320Y-34106D02*
X47320Y-33811D01*
X44600Y-33512D02*
X44582Y-33494D01*
X44600Y-34106D02*
X44600Y-33512D01*
X47320Y-34106D02*
X44600Y-34106D01*
X44600Y-34106D02*
X44582Y-34124D01*
X44068Y-33494D02*
X44582Y-33494D01*
X47834Y-34441D02*
X47391Y-34441D01*
X47320Y-34371D02*
X47320Y-34106D01*
X47391Y-34441D02*
X47320Y-34371D01*
G54D22*
X48597Y-36776D02*
X48168Y-37205D01*
X48597Y-36161D02*
X48597Y-36776D01*
G54D21*
X48597Y-34690D02*
X48348Y-34441D01*
X48597Y-36161D02*
X48597Y-34690D01*
X47834Y-34441D02*
X48348Y-34441D01*
M02*
