G04 (created by PCBNEW (2013-jul-07)-stable) date Thu 02 Jun 2016 05:53:07 PM PDT*
%MOIN*%
G04 Gerber Fmt 3.4, Leading zero omitted, Abs format*
%FSLAX34Y34*%
G01*
G70*
G90*
G04 APERTURE LIST*
%ADD10C,0.00590551*%
%ADD11C,0.06*%
%ADD12R,0.06X0.06*%
%ADD13C,0.035*%
%ADD14C,0.008*%
%ADD15C,0.025*%
G04 APERTURE END LIST*
G54D10*
G54D11*
X40944Y-29569D03*
X40944Y-30569D03*
X40944Y-31569D03*
X40944Y-32569D03*
X40944Y-33569D03*
X40944Y-34569D03*
X40944Y-35569D03*
X40944Y-36569D03*
G54D12*
X50393Y-36569D03*
G54D11*
X50393Y-35569D03*
X50393Y-34569D03*
X50393Y-33569D03*
X50393Y-32569D03*
X50393Y-31569D03*
X50393Y-30569D03*
X50393Y-29569D03*
G54D12*
X42168Y-30117D03*
G54D11*
X43168Y-30117D03*
X44168Y-30117D03*
X45168Y-30117D03*
X46168Y-30117D03*
X47168Y-30117D03*
X48168Y-30117D03*
X49168Y-30117D03*
G54D12*
X42168Y-37205D03*
G54D11*
X43168Y-37205D03*
X44168Y-37205D03*
X45168Y-37205D03*
X46168Y-37205D03*
X47168Y-37205D03*
X48168Y-37205D03*
X49168Y-37205D03*
G54D13*
X41235Y-27342D03*
X40449Y-32165D03*
X40055Y-34303D03*
X49410Y-28671D03*
X49973Y-37795D03*
X50393Y-39015D03*
X41747Y-34539D03*
X41726Y-31238D03*
X50173Y-28736D03*
X44505Y-31313D03*
X43385Y-36537D03*
X43385Y-32840D03*
X50858Y-29168D03*
X44425Y-35630D03*
X48214Y-31974D03*
X45649Y-36195D03*
X49211Y-32701D03*
X49794Y-34000D03*
X46092Y-36190D03*
X40423Y-37286D03*
X44913Y-34677D03*
X40410Y-28684D03*
X41610Y-31746D03*
X47599Y-32204D03*
X51247Y-32555D03*
X41541Y-30792D03*
G54D14*
X40055Y-32471D02*
X40055Y-34303D01*
X40347Y-32179D02*
X40055Y-32471D01*
X40435Y-32179D02*
X40449Y-32165D01*
X40347Y-32179D02*
X40435Y-32179D01*
X48329Y-27590D02*
X41235Y-27590D01*
X49410Y-28671D02*
X48329Y-27590D01*
X41235Y-27342D02*
X41235Y-27590D01*
X40115Y-31947D02*
X40347Y-32179D01*
X40115Y-28555D02*
X40115Y-31947D01*
X41080Y-27590D02*
X40115Y-28555D01*
X41235Y-27590D02*
X41080Y-27590D01*
X49973Y-35989D02*
X49973Y-37795D01*
X50393Y-35569D02*
X49973Y-35989D01*
X50393Y-36569D02*
X50393Y-39015D01*
X41917Y-31429D02*
X41726Y-31238D01*
X41917Y-34369D02*
X41917Y-31429D01*
X41747Y-34539D02*
X41917Y-34369D01*
X49942Y-28966D02*
X50173Y-28736D01*
X46714Y-28966D02*
X49942Y-28966D01*
X45748Y-29932D02*
X46714Y-28966D01*
X45748Y-30153D02*
X45748Y-29932D01*
X44588Y-31313D02*
X45748Y-30153D01*
X44505Y-31313D02*
X44588Y-31313D01*
X43385Y-32840D02*
X43385Y-36537D01*
X45986Y-34069D02*
X44425Y-35630D01*
X45986Y-32926D02*
X45986Y-34069D01*
X47668Y-31244D02*
X45986Y-32926D01*
X47668Y-30005D02*
X47668Y-31244D01*
X48540Y-29134D02*
X47668Y-30005D01*
X50823Y-29134D02*
X48540Y-29134D01*
X50858Y-29168D02*
X50823Y-29134D01*
X48214Y-33629D02*
X45649Y-36195D01*
X48214Y-31974D02*
X48214Y-33629D01*
G54D15*
X49168Y-37205D02*
X49168Y-31951D01*
X49168Y-31951D02*
X49168Y-30117D01*
G54D14*
X49211Y-31994D02*
X49211Y-32701D01*
X49168Y-31951D02*
X49211Y-31994D01*
X49602Y-34192D02*
X49794Y-34000D01*
X49602Y-37383D02*
X49602Y-34192D01*
X49352Y-37634D02*
X49602Y-37383D01*
X47977Y-37634D02*
X49352Y-37634D01*
X47668Y-37325D02*
X47977Y-37634D01*
X47668Y-37105D02*
X47668Y-37325D01*
X47340Y-36777D02*
X47668Y-37105D01*
X46596Y-36777D02*
X47340Y-36777D01*
X46168Y-37205D02*
X46596Y-36777D01*
X45668Y-36614D02*
X46092Y-36190D01*
X45668Y-37310D02*
X45668Y-36614D01*
X45187Y-37792D02*
X45668Y-37310D01*
X40928Y-37792D02*
X45187Y-37792D01*
X40423Y-37286D02*
X40928Y-37792D01*
X43356Y-28684D02*
X40410Y-28684D01*
X44589Y-29916D02*
X43356Y-28684D01*
X44589Y-30377D02*
X44589Y-29916D01*
X44194Y-30772D02*
X44589Y-30377D01*
X44194Y-33958D02*
X44194Y-30772D01*
X44913Y-34677D02*
X44194Y-33958D01*
X43089Y-30197D02*
X43168Y-30117D01*
X43089Y-37125D02*
X43089Y-30197D01*
X43168Y-37205D02*
X43089Y-37125D01*
X41610Y-32903D02*
X41610Y-31746D01*
X40944Y-33569D02*
X41610Y-32903D01*
X47599Y-33774D02*
X44168Y-37205D01*
X47599Y-32204D02*
X47599Y-33774D01*
X51247Y-33309D02*
X51247Y-32555D01*
X50408Y-34148D02*
X51247Y-33309D01*
X50210Y-34148D02*
X50408Y-34148D01*
X49762Y-34596D02*
X50210Y-34148D01*
X49762Y-37474D02*
X49762Y-34596D01*
X49429Y-37807D02*
X49762Y-37474D01*
X47771Y-37807D02*
X49429Y-37807D01*
X47168Y-37205D02*
X47771Y-37807D01*
X41698Y-30792D02*
X41541Y-30792D01*
X42088Y-31183D02*
X41698Y-30792D01*
X42088Y-35058D02*
X42088Y-31183D01*
X41748Y-35398D02*
X42088Y-35058D01*
X41748Y-37554D02*
X41748Y-35398D01*
X41819Y-37625D02*
X41748Y-37554D01*
X44748Y-37625D02*
X41819Y-37625D01*
X45168Y-37205D02*
X44748Y-37625D01*
X42261Y-30630D02*
X42168Y-30538D01*
X42261Y-36692D02*
X42261Y-30630D01*
X42168Y-36784D02*
X42261Y-36692D01*
X42168Y-37205D02*
X42168Y-36784D01*
X42168Y-30117D02*
X42168Y-30538D01*
G54D15*
X48779Y-30728D02*
X48168Y-30117D01*
X48779Y-36574D02*
X48779Y-30728D01*
X48168Y-37185D02*
X48779Y-36574D01*
X48168Y-37205D02*
X48168Y-37185D01*
M02*
