G04 (created by PCBNEW (2013-jul-07)-stable) date Tue 09 Aug 2016 05:48:41 PM PDT*
%MOIN*%
G04 Gerber Fmt 3.4, Leading zero omitted, Abs format*
%FSLAX34Y34*%
G01*
G70*
G90*
G04 APERTURE LIST*
%ADD10C,0.00590551*%
%ADD11R,0.06X0.06*%
%ADD12C,0.06*%
%ADD13C,0.065*%
%ADD14R,0.019685X0.0147638*%
G04 APERTURE END LIST*
G54D10*
G54D11*
X21744Y-24500D03*
G54D12*
X21744Y-25500D03*
X22744Y-24500D03*
X22744Y-25500D03*
G54D11*
X21744Y-30799D03*
G54D12*
X21744Y-31799D03*
X22744Y-30799D03*
X22744Y-31799D03*
G54D11*
X32374Y-24500D03*
G54D12*
X32374Y-25500D03*
X33374Y-24500D03*
X33374Y-25500D03*
G54D11*
X32374Y-30799D03*
G54D12*
X32374Y-31799D03*
X33374Y-30799D03*
X33374Y-31799D03*
G54D13*
X28543Y-28051D03*
X28543Y-29035D03*
X28543Y-30019D03*
X28543Y-31003D03*
X28543Y-31988D03*
X28543Y-32972D03*
X28543Y-33956D03*
X28543Y-34940D03*
X34448Y-34940D03*
X34448Y-33956D03*
X34448Y-32972D03*
X34448Y-31988D03*
X34448Y-31003D03*
X34448Y-30019D03*
X34448Y-29035D03*
X34448Y-28051D03*
X28543Y-20177D03*
X28543Y-21161D03*
X28543Y-22145D03*
X28543Y-23129D03*
X28543Y-24114D03*
X28543Y-25098D03*
X28543Y-26082D03*
X28543Y-27066D03*
X34448Y-27066D03*
X34448Y-26082D03*
X34448Y-25098D03*
X34448Y-24114D03*
X34448Y-23129D03*
X34448Y-22145D03*
X34448Y-21161D03*
X34448Y-20177D03*
X20669Y-28051D03*
X20669Y-29035D03*
X20669Y-30019D03*
X20669Y-31003D03*
X20669Y-31988D03*
X20669Y-32972D03*
X20669Y-33956D03*
X20669Y-34940D03*
X26574Y-34940D03*
X26574Y-33956D03*
X26574Y-32972D03*
X26574Y-31988D03*
X26574Y-31003D03*
X26574Y-30019D03*
X26574Y-29035D03*
X26574Y-28051D03*
X20669Y-20177D03*
X20669Y-21161D03*
X20669Y-22145D03*
X20669Y-23129D03*
X20669Y-24114D03*
X20669Y-25098D03*
X20669Y-26082D03*
X20669Y-27066D03*
X26574Y-27066D03*
X26574Y-26082D03*
X26574Y-25098D03*
X26574Y-24114D03*
X26574Y-23129D03*
X26574Y-22145D03*
X26574Y-21161D03*
X26574Y-20177D03*
G54D14*
X27933Y-21259D03*
X27933Y-21456D03*
X27933Y-21653D03*
X27263Y-21653D03*
X27263Y-21456D03*
X27263Y-21259D03*
X30098Y-19921D03*
X30098Y-20118D03*
X30098Y-20314D03*
X29429Y-20314D03*
X29429Y-20118D03*
X29429Y-19921D03*
X31476Y-33897D03*
X31476Y-34094D03*
X31476Y-34291D03*
X30807Y-34291D03*
X30807Y-34094D03*
X30807Y-33897D03*
X33405Y-34724D03*
X33405Y-34921D03*
X33405Y-35118D03*
X32736Y-35118D03*
X32736Y-34921D03*
X32736Y-34724D03*
X33090Y-33031D03*
X33090Y-33228D03*
X33090Y-33425D03*
X32421Y-33425D03*
X32421Y-33228D03*
X32421Y-33031D03*
X33720Y-29488D03*
X33720Y-29685D03*
X33720Y-29881D03*
X33051Y-29881D03*
X33051Y-29685D03*
X33051Y-29488D03*
X27893Y-31929D03*
X27893Y-32125D03*
X27893Y-32322D03*
X27224Y-32322D03*
X27224Y-32125D03*
X27224Y-31929D03*
X27893Y-30551D03*
X27893Y-30748D03*
X27893Y-30944D03*
X27224Y-30944D03*
X27224Y-30748D03*
X27224Y-30551D03*
X29980Y-26023D03*
X29980Y-26220D03*
X29980Y-26417D03*
X29311Y-26417D03*
X29311Y-26220D03*
X29311Y-26023D03*
X33602Y-26496D03*
X33602Y-26692D03*
X33602Y-26889D03*
X32933Y-26889D03*
X32933Y-26692D03*
X32933Y-26496D03*
X31397Y-26220D03*
X31397Y-26417D03*
X31397Y-26614D03*
X30728Y-26614D03*
X30728Y-26417D03*
X30728Y-26220D03*
X33720Y-22992D03*
X33720Y-23188D03*
X33720Y-23385D03*
X33051Y-23385D03*
X33051Y-23188D03*
X33051Y-22992D03*
X33444Y-19960D03*
X33444Y-20157D03*
X33444Y-20354D03*
X32775Y-20354D03*
X32775Y-20157D03*
X32775Y-19960D03*
X27893Y-23503D03*
X27893Y-23700D03*
X27893Y-23897D03*
X27224Y-23897D03*
X27224Y-23700D03*
X27224Y-23503D03*
X22578Y-19921D03*
X22578Y-20118D03*
X22578Y-20314D03*
X21909Y-20314D03*
X21909Y-20118D03*
X21909Y-19921D03*
X27893Y-34606D03*
X27893Y-34803D03*
X27893Y-35000D03*
X27224Y-35000D03*
X27224Y-34803D03*
X27224Y-34606D03*
X25885Y-32834D03*
X25885Y-33031D03*
X25885Y-33228D03*
X25216Y-33228D03*
X25216Y-33031D03*
X25216Y-32834D03*
X27893Y-33228D03*
X27893Y-33425D03*
X27893Y-33622D03*
X27224Y-33622D03*
X27224Y-33425D03*
X27224Y-33228D03*
X22342Y-32755D03*
X22342Y-32952D03*
X22342Y-33149D03*
X21673Y-33149D03*
X21673Y-32952D03*
X21673Y-32755D03*
X23877Y-33700D03*
X23877Y-33897D03*
X23877Y-34094D03*
X23208Y-34094D03*
X23208Y-33897D03*
X23208Y-33700D03*
X22027Y-27244D03*
X22027Y-27440D03*
X22027Y-27637D03*
X21358Y-27637D03*
X21358Y-27440D03*
X21358Y-27244D03*
X27933Y-29055D03*
X27933Y-29251D03*
X27933Y-29448D03*
X27263Y-29448D03*
X27263Y-29251D03*
X27263Y-29055D03*
X27893Y-27677D03*
X27893Y-27874D03*
X27893Y-28070D03*
X27224Y-28070D03*
X27224Y-27874D03*
X27224Y-27677D03*
X27933Y-26456D03*
X27933Y-26653D03*
X27933Y-26850D03*
X27263Y-26850D03*
X27263Y-26653D03*
X27263Y-26456D03*
X27933Y-24881D03*
X27933Y-25078D03*
X27933Y-25275D03*
X27263Y-25275D03*
X27263Y-25078D03*
X27263Y-24881D03*
X21358Y-23149D03*
X21358Y-22952D03*
X21358Y-22755D03*
X22027Y-22755D03*
X22027Y-22952D03*
X22027Y-23149D03*
X22066Y-21023D03*
X22066Y-21220D03*
X22066Y-21417D03*
X21397Y-21417D03*
X21397Y-21220D03*
X21397Y-21023D03*
M02*
