G04 (created by PCBNEW (2013-jul-07)-stable) date Tue 09 Aug 2016 05:48:41 PM PDT*
%MOIN*%
G04 Gerber Fmt 3.4, Leading zero omitted, Abs format*
%FSLAX34Y34*%
G01*
G70*
G90*
G04 APERTURE LIST*
%ADD10C,0.00590551*%
%ADD11R,0.025X0.045*%
%ADD12R,0.0197X0.0512*%
%ADD13R,0.045X0.025*%
%ADD14R,0.03X0.01*%
%ADD15R,0.01X0.03*%
%ADD16R,0.1181X0.1181*%
%ADD17R,0.06X0.06*%
%ADD18C,0.06*%
%ADD19C,0.065*%
%ADD20R,0.019685X0.0147638*%
G04 APERTURE END LIST*
G54D10*
G54D11*
X24670Y-20039D03*
X24070Y-20039D03*
G54D12*
X25039Y-24763D03*
X25511Y-24763D03*
X24567Y-24763D03*
X25275Y-31220D03*
X25747Y-31220D03*
X24803Y-31220D03*
X30905Y-25118D03*
X31377Y-25118D03*
X30433Y-25118D03*
X30984Y-31299D03*
X31456Y-31299D03*
X30512Y-31299D03*
G54D13*
X23740Y-30999D03*
X23740Y-31599D03*
G54D14*
X23228Y-22834D03*
X23228Y-22637D03*
X23228Y-22440D03*
X23228Y-23031D03*
G54D15*
X23523Y-23326D03*
X23720Y-23326D03*
X23917Y-23326D03*
X24114Y-23326D03*
X24310Y-23326D03*
X24507Y-23326D03*
X24704Y-23326D03*
X24901Y-23326D03*
G54D14*
X25196Y-21653D03*
X25196Y-23031D03*
X25196Y-22834D03*
X25196Y-22637D03*
X25196Y-22440D03*
X25196Y-22244D03*
X25196Y-22047D03*
X25196Y-21850D03*
G54D15*
X24901Y-21358D03*
X24704Y-21358D03*
X24507Y-21358D03*
X24310Y-21358D03*
X24114Y-21358D03*
X23917Y-21358D03*
X23720Y-21358D03*
X23523Y-21358D03*
G54D14*
X23228Y-21653D03*
X23228Y-21850D03*
X23228Y-22047D03*
X23228Y-22244D03*
G54D16*
X24212Y-22342D03*
G54D14*
X23228Y-29133D03*
X23228Y-28936D03*
X23228Y-28739D03*
X23228Y-29330D03*
G54D15*
X23523Y-29625D03*
X23720Y-29625D03*
X23917Y-29625D03*
X24114Y-29625D03*
X24310Y-29625D03*
X24507Y-29625D03*
X24704Y-29625D03*
X24901Y-29625D03*
G54D14*
X25196Y-27952D03*
X25196Y-29330D03*
X25196Y-29133D03*
X25196Y-28936D03*
X25196Y-28739D03*
X25196Y-28543D03*
X25196Y-28346D03*
X25196Y-28149D03*
G54D15*
X24901Y-27657D03*
X24704Y-27657D03*
X24507Y-27657D03*
X24310Y-27657D03*
X24114Y-27657D03*
X23917Y-27657D03*
X23720Y-27657D03*
X23523Y-27657D03*
G54D14*
X23228Y-27952D03*
X23228Y-28149D03*
X23228Y-28346D03*
X23228Y-28543D03*
G54D16*
X24212Y-28641D03*
G54D14*
X30315Y-22834D03*
X30315Y-22637D03*
X30315Y-22440D03*
X30315Y-23031D03*
G54D15*
X30610Y-23326D03*
X30807Y-23326D03*
X31004Y-23326D03*
X31201Y-23326D03*
X31397Y-23326D03*
X31594Y-23326D03*
X31791Y-23326D03*
X31988Y-23326D03*
G54D14*
X32283Y-21653D03*
X32283Y-23031D03*
X32283Y-22834D03*
X32283Y-22637D03*
X32283Y-22440D03*
X32283Y-22244D03*
X32283Y-22047D03*
X32283Y-21850D03*
G54D15*
X31988Y-21358D03*
X31791Y-21358D03*
X31594Y-21358D03*
X31397Y-21358D03*
X31201Y-21358D03*
X31004Y-21358D03*
X30807Y-21358D03*
X30610Y-21358D03*
G54D14*
X30315Y-21653D03*
X30315Y-21850D03*
X30315Y-22047D03*
X30315Y-22244D03*
G54D16*
X31299Y-22342D03*
G54D14*
X30315Y-29133D03*
X30315Y-28936D03*
X30315Y-28739D03*
X30315Y-29330D03*
G54D15*
X30610Y-29625D03*
X30807Y-29625D03*
X31004Y-29625D03*
X31201Y-29625D03*
X31397Y-29625D03*
X31594Y-29625D03*
X31791Y-29625D03*
X31988Y-29625D03*
G54D14*
X32283Y-27952D03*
X32283Y-29330D03*
X32283Y-29133D03*
X32283Y-28936D03*
X32283Y-28739D03*
X32283Y-28543D03*
X32283Y-28346D03*
X32283Y-28149D03*
G54D15*
X31988Y-27657D03*
X31791Y-27657D03*
X31594Y-27657D03*
X31397Y-27657D03*
X31201Y-27657D03*
X31004Y-27657D03*
X30807Y-27657D03*
X30610Y-27657D03*
G54D14*
X30315Y-27952D03*
X30315Y-28149D03*
X30315Y-28346D03*
X30315Y-28543D03*
G54D16*
X31299Y-28641D03*
G54D11*
X31481Y-20078D03*
X30881Y-20078D03*
X30822Y-34094D03*
X31422Y-34094D03*
X32455Y-33228D03*
X33055Y-33228D03*
X32455Y-34055D03*
X33055Y-34055D03*
X32849Y-34960D03*
X33449Y-34960D03*
G54D13*
X33661Y-27259D03*
X33661Y-27859D03*
G54D11*
X29925Y-34940D03*
X29325Y-34940D03*
X29925Y-33956D03*
X29325Y-33956D03*
X29827Y-32972D03*
X29227Y-32972D03*
G54D13*
X29389Y-31629D03*
X29389Y-32229D03*
G54D11*
X32888Y-26535D03*
X33488Y-26535D03*
G54D13*
X33661Y-23016D03*
X33661Y-22416D03*
G54D11*
X32810Y-20118D03*
X33410Y-20118D03*
X29522Y-20078D03*
X30122Y-20078D03*
X27298Y-29251D03*
X27898Y-29251D03*
X27259Y-27874D03*
X27859Y-27874D03*
X27298Y-26653D03*
X27898Y-26653D03*
X27259Y-25039D03*
X27859Y-25039D03*
X25290Y-34940D03*
X25890Y-34940D03*
X25290Y-34055D03*
X25890Y-34055D03*
X25251Y-32992D03*
X25851Y-32992D03*
X27859Y-30748D03*
X27259Y-30748D03*
X23922Y-34842D03*
X23322Y-34842D03*
X23922Y-33858D03*
X23322Y-33858D03*
X22465Y-33897D03*
X21865Y-33897D03*
X22347Y-32952D03*
X21747Y-32952D03*
X27859Y-23700D03*
X27259Y-23700D03*
X27859Y-22519D03*
X27259Y-22519D03*
X27898Y-21456D03*
X27298Y-21456D03*
X27859Y-20078D03*
X27259Y-20078D03*
X25211Y-26141D03*
X25811Y-26141D03*
X21992Y-26496D03*
X21392Y-26496D03*
X21992Y-22992D03*
X21392Y-22992D03*
X22622Y-20157D03*
X22022Y-20157D03*
X31402Y-34921D03*
X30802Y-34921D03*
G54D13*
X29724Y-25881D03*
X29724Y-26481D03*
G54D11*
X23282Y-32913D03*
X23882Y-32913D03*
X22928Y-26476D03*
X23528Y-26476D03*
G54D17*
X21744Y-24500D03*
G54D18*
X21744Y-25500D03*
X22744Y-24500D03*
X22744Y-25500D03*
G54D17*
X21744Y-30799D03*
G54D18*
X21744Y-31799D03*
X22744Y-30799D03*
X22744Y-31799D03*
G54D17*
X32374Y-24500D03*
G54D18*
X32374Y-25500D03*
X33374Y-24500D03*
X33374Y-25500D03*
G54D17*
X32374Y-30799D03*
G54D18*
X32374Y-31799D03*
X33374Y-30799D03*
X33374Y-31799D03*
G54D19*
X28543Y-28051D03*
X28543Y-29035D03*
X28543Y-30019D03*
X28543Y-31003D03*
X28543Y-31988D03*
X28543Y-32972D03*
X28543Y-33956D03*
X28543Y-34940D03*
X34448Y-34940D03*
X34448Y-33956D03*
X34448Y-32972D03*
X34448Y-31988D03*
X34448Y-31003D03*
X34448Y-30019D03*
X34448Y-29035D03*
X34448Y-28051D03*
X28543Y-20177D03*
X28543Y-21161D03*
X28543Y-22145D03*
X28543Y-23129D03*
X28543Y-24114D03*
X28543Y-25098D03*
X28543Y-26082D03*
X28543Y-27066D03*
X34448Y-27066D03*
X34448Y-26082D03*
X34448Y-25098D03*
X34448Y-24114D03*
X34448Y-23129D03*
X34448Y-22145D03*
X34448Y-21161D03*
X34448Y-20177D03*
X20669Y-28051D03*
X20669Y-29035D03*
X20669Y-30019D03*
X20669Y-31003D03*
X20669Y-31988D03*
X20669Y-32972D03*
X20669Y-33956D03*
X20669Y-34940D03*
X26574Y-34940D03*
X26574Y-33956D03*
X26574Y-32972D03*
X26574Y-31988D03*
X26574Y-31003D03*
X26574Y-30019D03*
X26574Y-29035D03*
X26574Y-28051D03*
X20669Y-20177D03*
X20669Y-21161D03*
X20669Y-22145D03*
X20669Y-23129D03*
X20669Y-24114D03*
X20669Y-25098D03*
X20669Y-26082D03*
X20669Y-27066D03*
X26574Y-27066D03*
X26574Y-26082D03*
X26574Y-25098D03*
X26574Y-24114D03*
X26574Y-23129D03*
X26574Y-22145D03*
X26574Y-21161D03*
X26574Y-20177D03*
G54D20*
X27224Y-31929D03*
X27224Y-32125D03*
X27224Y-32322D03*
X27893Y-32322D03*
X27893Y-32125D03*
X27893Y-31929D03*
X29232Y-23858D03*
X29232Y-24055D03*
X29232Y-24251D03*
X29901Y-24251D03*
X29901Y-24055D03*
X29901Y-23858D03*
X27224Y-34606D03*
X27224Y-34803D03*
X27224Y-35000D03*
X27893Y-35000D03*
X27893Y-34803D03*
X27893Y-34606D03*
X21358Y-27283D03*
X21358Y-27480D03*
X21358Y-27677D03*
X22027Y-27677D03*
X22027Y-27480D03*
X22027Y-27283D03*
X21397Y-21023D03*
X21397Y-21220D03*
X21397Y-21417D03*
X22066Y-21417D03*
X22066Y-21220D03*
X22066Y-21023D03*
M02*
