G04 ================== begin FILE IDENTIFICATION RECORD ==================*
G04 Layout Name:  J:/LED_Panels/LED 8x8 Panel v5.brd*
G04 Film Name:    Assembly*
G04 File Format:  Gerber RS274X*
G04 File Origin:  Cadence Allegro 16.6-P004*
G04 Origin Date:  Sun Mar 26 00:02:32 2017*
G04 *
G04 Layer:  MANUFACTURING/PHOTOPLOT_OUTLINE*
G04 Layer:  MANUFACTURING/NO_GLOSS_ALL*
G04 Layer:  MANUFACTURING/NO_GLOSS_TOP*
G04 Layer:  MANUFACTURING/NO_GLOSS_BOTTOM*
G04 Layer:  MANUFACTURING/NO_GLOSS_INTERNAL*
G04 Layer:  MANUFACTURING/NCDRILL_LEGEND*
G04 Layer:  MANUFACTURING/NCDRILL_FIGURE*
G04 Layer:  MANUFACTURING/PROBE_TOP*
G04 Layer:  MANUFACTURING/PROBE_BOTTOM*
G04 Layer:  MANUFACTURING/AUTOSILK_TOP*
G04 Layer:  MANUFACTURING/AUTOSILK_BOTTOM*
G04 Layer:  MANUFACTURING/NO_PROBE_TOP*
G04 Layer:  MANUFACTURING/NO_PROBE_BOTTOM*
G04 Layer:  MANUFACTURING/XSECTION_CHART*
G04 Layer:  MANUFACTURING/NCLEGEND-1-6*
G04 Layer:  MANUFACTURING/NCLEGEND-1-4*
G04 Layer:  DRAWING FORMAT/OUTLINE*
G04 Layer:  DRAWING FORMAT/TITLE_BLOCK*
G04 Layer:  DRAWING FORMAT/TITLE_DATA*
G04 Layer:  DRAWING FORMAT/REVISION_BLOCK*
G04 Layer:  DRAWING FORMAT/REVISION_DATA*
G04 Layer:  BOARD GEOMETRY/OUTLINE*
G04 Layer:  BOARD GEOMETRY/PLATING_BAR*
G04 Layer:  BOARD GEOMETRY/ASSEMBLY_NOTES*
G04 Layer:  BOARD GEOMETRY/TOOLING_CORNERS*
G04 Layer:  BOARD GEOMETRY/DIMENSION*
G04 Layer:  BOARD GEOMETRY/PLACE_GRID_TOP*
G04 Layer:  BOARD GEOMETRY/PLACE_GRID_BOTTOM*
G04 Layer:  BOARD GEOMETRY/TOP_ROOM*
G04 Layer:  BOARD GEOMETRY/BOTTOM_ROOM*
G04 Layer:  BOARD GEOMETRY/BOTH_ROOMS*
G04 Layer:  BOARD GEOMETRY/SWITCH_AREA_TOP*
G04 Layer:  BOARD GEOMETRY/SWITCH_AREA_BOTTOM*
G04 Layer:  BOARD GEOMETRY/SILKSCREEN_BOTTOM*
G04 Layer:  BOARD GEOMETRY/ASSEMBLY_DETAIL*
G04 Layer:  BOARD GEOMETRY/SOLDERMASK_TOP*
G04 Layer:  BOARD GEOMETRY/SOLDERMASK_BOTTOM*
G04 Layer:  BOARD GEOMETRY/OFF_GRID_AREA*
G04 Layer:  BOARD GEOMETRY/WB_GUIDE_LINE*
G04 Layer:  BOARD GEOMETRY/NCROUTE_PATH*
G04 *
G04 Offset:    (0.0000 0.0000)*
G04 Mirror:    No*
G04 Mode:      Positive*
G04 Rotation:  0*
G04 FullContactRelief:  No*
G04 UndefLineWidth:     0.1000*
G04 ================== end FILE IDENTIFICATION RECORD ====================*
%FSLAX25Y25*MOMM*%
%IR0*IPPOS*OFA0.00000B0.00000*MIA0B0*SFA1.00000B1.00000*%
%AMMACRO11*
1,1,.1,.635,0.0*
20,1,.1,.635,0.0,.625353,-.110267,0.0*
1,1,.1,.625353,-.110267*
20,1,.1,.625353,-.110267,.596705,-.217183,0.0*
1,1,.1,.596705,-.217183*
20,1,.1,.596705,-.217183,.549926,-.3175,0.0*
1,1,.1,.549926,-.3175*
20,1,.1,.549926,-.3175,.486438,-.40817,0.0*
1,1,.1,.486438,-.40817*
20,1,.1,.486438,-.40817,.40817,-.486438,0.0*
1,1,.1,.40817,-.486438*
20,1,.1,.40817,-.486438,.3175,-.549926,0.0*
1,1,.1,.3175,-.549926*
20,1,.1,.3175,-.549926,.217183,-.596705,0.0*
1,1,.1,.217183,-.596705*
20,1,.1,.217183,-.596705,.110267,-.625353,0.0*
1,1,.1,.110267,-.625353*
20,1,.1,.110267,-.625353,0.0,-.635,0.0*
1,1,.1,0.0,-.635*
20,1,.1,0.0,-.635,-.110267,-.625353,0.0*
1,1,.1,-.110267,-.625353*
20,1,.1,-.110267,-.625353,-.217183,-.596705,0.0*
1,1,.1,-.217183,-.596705*
20,1,.1,-.217183,-.596705,-.3175,-.549926,0.0*
1,1,.1,-.3175,-.549926*
20,1,.1,-.3175,-.549926,-.40817,-.486438,0.0*
1,1,.1,-.40817,-.486438*
20,1,.1,-.40817,-.486438,-.486438,-.40817,0.0*
1,1,.1,-.486438,-.40817*
20,1,.1,-.486438,-.40817,-.549926,-.3175,0.0*
1,1,.1,-.549926,-.3175*
20,1,.1,-.549926,-.3175,-.596705,-.217183,0.0*
1,1,.1,-.596705,-.217183*
20,1,.1,-.596705,-.217183,-.625353,-.110267,0.0*
1,1,.1,-.625353,-.110267*
20,1,.1,-.625353,-.110267,-.635,0.0,0.0*
1,1,.1,-.635,0.0*
20,1,.1,-.635,0.0,-.625353,.110267,0.0*
1,1,.1,-.625353,.110267*
20,1,.1,-.625353,.110267,-.596705,.217183,0.0*
1,1,.1,-.596705,.217183*
20,1,.1,-.596705,.217183,-.549926,.3175,0.0*
1,1,.1,-.549926,.3175*
20,1,.1,-.549926,.3175,-.486438,.40817,0.0*
1,1,.1,-.486438,.40817*
20,1,.1,-.486438,.40817,-.40817,.486438,0.0*
1,1,.1,-.40817,.486438*
20,1,.1,-.40817,.486438,-.3175,.549926,0.0*
1,1,.1,-.3175,.549926*
20,1,.1,-.3175,.549926,-.217183,.596705,0.0*
1,1,.1,-.217183,.596705*
20,1,.1,-.217183,.596705,-.110267,.625353,0.0*
1,1,.1,-.110267,.625353*
20,1,.1,-.110267,.625353,0.0,.635,0.0*
1,1,.1,0.0,.635*
20,1,.1,0.0,.635,.110267,.625353,0.0*
1,1,.1,.110267,.625353*
20,1,.1,.110267,.625353,.217183,.596705,0.0*
1,1,.1,.217183,.596705*
20,1,.1,.217183,.596705,.3175,.549926,0.0*
1,1,.1,.3175,.549926*
20,1,.1,.3175,.549926,.40817,.486438,0.0*
1,1,.1,.40817,.486438*
20,1,.1,.40817,.486438,.486438,.40817,0.0*
1,1,.1,.486438,.40817*
20,1,.1,.486438,.40817,.549926,.3175,0.0*
1,1,.1,.549926,.3175*
20,1,.1,.549926,.3175,.596705,.217183,0.0*
1,1,.1,.596705,.217183*
20,1,.1,.596705,.217183,.625353,.110267,0.0*
1,1,.1,.625353,.110267*
20,1,.1,.625353,.110267,.635,0.0,0.0*
1,1,.1,.635,0.0*
1,1,.1,.3175,0.0*
20,1,.1,.3175,0.0,-.3175,0.0,0.0*
1,1,.1,-.3175,0.0*
1,1,.1,0.0,.3175*
20,1,.1,0.0,.3175,0.0,-.3175,0.0*
1,1,.1,0.0,-.3175*
%
%ADD11MACRO11*%
%AMMACRO10*
1,1,.1,0.0,.2*
20,1,.1,0.0,.2,.2,-.2,0.0*
1,1,.1,.2,-.2*
20,1,.1,.2,-.2,-.2,-.2,0.0*
1,1,.1,-.2,-.2*
20,1,.1,-.2,-.2,0.0,.2,0.0*
1,1,.1,0.0,.2*
%
%ADD10MACRO10*%
%ADD12C,.1*%
G75*
%LPD*%
G75*
G36*
G01X7108000Y4886780D02*
Y4758680D01*
X7171500D01*
Y-20920D01*
X7108000D01*
Y-149020D01*
X7489000D01*
Y-20920D01*
X7425500D01*
Y4758680D01*
X7489000D01*
Y4886780D01*
X7108000D01*
G37*
G36*
G01X6600000Y832520D02*
Y960620D01*
X8124000D01*
Y832520D01*
X6600000D01*
G37*
G36*
G01Y-149020D02*
Y-20920D01*
X8124000D01*
Y-149020D01*
X6600000D01*
G37*
G36*
G01Y3777140D02*
Y3905240D01*
X8124000D01*
Y3777140D01*
X6600000D01*
G37*
G36*
G01Y2795600D02*
Y2923700D01*
X8124000D01*
Y2795600D01*
X6600000D01*
G37*
G36*
G01Y1814060D02*
Y1942160D01*
X8124000D01*
Y1814060D01*
X6600000D01*
G37*
G36*
G01Y4758680D02*
Y4886780D01*
X8124000D01*
Y4758680D01*
X6600000D01*
G37*
G54D10*
X109340Y1040660D03*
D03*
X1060000Y1040000D03*
D03*
X800000Y960000D03*
D03*
X860000D03*
D03*
X920000D03*
D03*
X980000D03*
D03*
X1490000Y1230000D03*
D03*
X1180000Y480000D03*
D03*
X1500000Y530000D03*
D03*
X1421420Y265540D03*
D03*
X1374560Y687640D03*
D03*
X1358940Y750120D03*
D03*
X360000Y1200000D03*
D03*
X199910Y1221510D03*
D03*
X1450000Y49920D03*
D03*
X1200000D03*
D03*
X950000D03*
D03*
X700000D03*
D03*
X450000D03*
D03*
X200000D03*
D03*
X1450000Y450080D03*
D03*
X1200000Y299920D03*
D03*
X950000D03*
D03*
X700000D03*
D03*
X450000D03*
D03*
X200000D03*
D03*
X1450000Y549920D03*
D03*
X1200000D03*
D03*
X950000D03*
D03*
X700000D03*
D03*
X450000D03*
D03*
X200000D03*
D03*
X1450000Y950080D03*
D03*
X1200000Y799920D03*
D03*
X950000D03*
D03*
X700000D03*
D03*
X450000D03*
D03*
X200000D03*
D03*
X1450000Y1049920D03*
D03*
X1200000D03*
D03*
X950000D03*
D03*
X700000D03*
D03*
X450000D03*
D03*
X200000D03*
D03*
X108740Y1875000D03*
D03*
X1374560Y1640100D03*
D03*
X1050000Y1933420D03*
D03*
X374280Y1875000D03*
D03*
X608580D03*
D03*
X1499520Y1471180D03*
D03*
X874120Y1875000D03*
D03*
X190820Y2776980D03*
D03*
X1360000Y1470000D03*
D03*
X940000Y1460000D03*
D03*
X633620Y1446380D03*
D03*
X1350000Y1970000D03*
D03*
X1300000Y2300000D03*
D03*
X940000Y1960000D03*
D03*
X661360Y3461360D03*
D03*
X971360D03*
D03*
X1390000Y3490000D03*
D03*
X321360Y3461360D03*
D03*
X370000Y2950000D03*
D03*
X640000Y2960000D03*
D03*
X900000Y2970000D03*
D03*
X1380000D03*
D03*
X1360000Y2720000D03*
D03*
X363780Y1946220D03*
D03*
X633780D03*
D03*
X373620Y1446380D03*
D03*
X1374560Y3549740D03*
D03*
X1437040Y3530120D03*
D03*
X1480750Y3049050D03*
D03*
X108660Y2125000D03*
D03*
X1109020Y2452340D03*
D03*
X859100Y2405480D03*
D03*
X1499520Y1968120D03*
D03*
X359260Y2249280D03*
D03*
X1124640Y2639780D03*
D03*
X550000Y2311400D03*
D03*
X1375000Y3437500D03*
D03*
X187500Y3500000D03*
D03*
X625000Y3750000D03*
D03*
X875000Y3687500D03*
D03*
X1240000Y3550000D03*
D03*
X827860Y3199920D03*
D03*
X546700D03*
D03*
X249920D03*
D03*
X1140260D03*
D03*
X1375000Y2475000D03*
D03*
X1380000Y2320000D03*
D03*
X850000Y2250000D03*
D03*
X1100000Y2290000D03*
D03*
X870000Y1700000D03*
D03*
X620000D03*
D03*
X346380Y1546380D03*
D03*
X1090000Y1730000D03*
D03*
X200000Y2010000D03*
D03*
X590000Y2220000D03*
D03*
X1060000Y2010000D03*
D03*
X880000Y2060000D03*
D03*
X1421420Y3041560D03*
D03*
X1300000Y3290000D03*
D03*
X1218360Y2795980D03*
D03*
X164360Y2522980D03*
D03*
X905960Y3033420D03*
D03*
X1218360D03*
D03*
X1201420Y3511360D03*
D03*
X904640D03*
D03*
X607860D03*
D03*
X359260D03*
D03*
Y3033420D03*
D03*
X640420Y3030280D03*
D03*
X1200000Y2050560D03*
D03*
X950000Y2199440D03*
D03*
X700000D03*
D03*
X450000D03*
D03*
X200000D03*
D03*
X654220Y3262760D03*
D03*
X1450000Y2050560D03*
D03*
X1200000Y2433980D03*
D03*
X950000Y2310000D03*
D03*
X700000Y2300560D03*
D03*
X450000D03*
D03*
X125560Y2375000D03*
D03*
X357440Y3262760D03*
D03*
X1370000Y2200000D03*
D03*
X875560Y2625000D03*
D03*
X625560D03*
D03*
X375560D03*
D03*
X125560D03*
D03*
X1200000Y2699520D03*
D03*
X1375400Y2625000D03*
D03*
X450000Y2949440D03*
D03*
X125560Y2875000D03*
D03*
X593560Y3295820D03*
D03*
X700000Y2949440D03*
D03*
X950000D03*
D03*
X1200000D03*
D03*
X1374560Y2795980D03*
D03*
X1380000Y3200000D03*
D03*
X1200000Y3199360D03*
D03*
X450000Y3183500D03*
D03*
X125560Y3125000D03*
D03*
X890340Y3295820D03*
D03*
X700000Y3214820D03*
D03*
X1360000Y3300000D03*
D03*
X875560Y3375000D03*
D03*
X625560D03*
D03*
X375560D03*
D03*
X125560D03*
D03*
X1200000Y3298560D03*
D03*
X1124640Y3295820D03*
D03*
X1450000Y3699440D03*
D03*
X1200000D03*
D03*
X950000D03*
D03*
X700000D03*
D03*
X450000D03*
D03*
X200000D03*
D03*
X1120000Y1320000D03*
D03*
X890340Y1496380D03*
D03*
X1233980D03*
D03*
X1171500Y1996220D03*
D03*
X874720D03*
D03*
X593560D03*
D03*
X312400D03*
D03*
X390500Y1496380D03*
D03*
X671660D03*
D03*
X624800Y1546380D03*
D03*
X187440Y1483900D03*
D03*
X374880Y2046220D03*
D03*
X656040D03*
D03*
X937200D03*
D03*
X1450000Y1299920D03*
D03*
X1200000D03*
D03*
X950000D03*
D03*
X700000D03*
D03*
X450000D03*
D03*
X200000D03*
D03*
X1120000Y1820000D03*
D03*
X1200000Y1700080D03*
D03*
X950000D03*
D03*
X1450000Y1549040D03*
D03*
X450000Y1700080D03*
D03*
X200000Y1549920D03*
D03*
X700000Y1700080D03*
D03*
X1450000Y1799920D03*
D03*
X1200000D03*
D03*
X950000D03*
D03*
X700000D03*
D03*
X450000D03*
D03*
X200000D03*
D03*
X921580Y1546380D03*
D03*
X1450000Y3949440D03*
D03*
X1200000D03*
D03*
X950000D03*
D03*
X700000D03*
D03*
X450000D03*
D03*
X200000D03*
D03*
X2249280Y984060D03*
D03*
X2124320Y1046540D03*
D03*
X1624480Y1249600D03*
D03*
X2420000Y1219460D03*
D03*
X2170000Y266720D03*
D03*
X2311760Y452980D03*
D03*
X2180400Y475000D03*
D03*
X1620000Y690000D03*
D03*
X3376550Y550000D03*
D03*
X3646550D03*
D03*
X3280000Y700000D03*
D03*
X3700000Y710000D03*
D03*
X3251200Y203200D03*
D03*
X3683000Y215900D03*
D03*
X3059700Y40300D03*
D03*
X2700000Y200000D03*
D03*
X2760000Y520000D03*
D03*
X3010000Y530000D03*
D03*
X3256780Y296780D03*
D03*
X3513220D03*
D03*
X3256620Y796620D03*
D03*
X3526620D03*
D03*
X2860000Y450000D03*
D03*
X2430000Y710000D03*
D03*
X1910000Y500000D03*
D03*
X1960000D03*
D03*
X2010000D03*
D03*
X1910000Y550000D03*
D03*
X1960000D03*
D03*
X2010000D03*
D03*
X1910000Y700000D03*
D03*
X1960000D03*
D03*
X2020000D03*
D03*
X2506780Y296780D03*
D03*
X2590000Y700000D03*
D03*
X2890000D03*
D03*
X3858140Y1233980D03*
D03*
X1970000Y782880D03*
D03*
X2880000Y1220000D03*
D03*
X2880320Y999680D03*
D03*
X2061840Y203060D03*
D03*
X2952180Y246780D03*
D03*
X2317660Y725000D03*
D03*
X2639780Y246780D03*
D03*
X2371980Y775000D03*
D03*
X2655400Y746620D03*
D03*
X2202420Y952820D03*
D03*
X2936560Y746620D03*
D03*
X2120000Y976980D03*
D03*
X3217720Y746620D03*
D03*
X2070000Y1023460D03*
D03*
X3498880Y746620D03*
D03*
X2020000Y979040D03*
D03*
X3483260Y246780D03*
D03*
X1970000Y247780D03*
D03*
X3217720Y246780D03*
D03*
X2020000Y282160D03*
D03*
X3950000Y49920D03*
D03*
X3700000D03*
D03*
X3450000D03*
D03*
X3200000D03*
D03*
X2950000D03*
D03*
X2450000D03*
D03*
X2200000D03*
D03*
X2702260Y31240D03*
D03*
X2233660Y265540D03*
D03*
X2450000Y299920D03*
D03*
X2700000D03*
D03*
X2950000D03*
D03*
X3950000D03*
D03*
X3700000D03*
D03*
X3405160Y499840D03*
D03*
X3124000Y500000D03*
D03*
X2624160Y452980D03*
D03*
X2311760Y515460D03*
D03*
X2950000Y549920D03*
D03*
X2700000D03*
D03*
X2450000D03*
D03*
X3250000Y540000D03*
D03*
X3700000Y549920D03*
D03*
X3950000D03*
D03*
X3444010Y454010D03*
D03*
X3030000Y799920D03*
D03*
X3700000D03*
D03*
X3950000D03*
D03*
X2327380Y968440D03*
D03*
X2700000Y799920D03*
D03*
X2450000D03*
D03*
X3450000Y810000D03*
D03*
X2171180Y1015300D03*
D03*
X3950000Y1049920D03*
D03*
X3700000D03*
D03*
X3450000D03*
D03*
X3200000D03*
D03*
X2950000D03*
D03*
X2700000D03*
D03*
X2450000D03*
D03*
X3060000Y730000D03*
D03*
X2717880Y468600D03*
D03*
X2983420D03*
D03*
X2858460Y78100D03*
D03*
X3373920Y93720D03*
D03*
X1624480Y1187120D03*
D03*
X3858020Y375000D03*
D03*
X1998480Y1264340D03*
D03*
X2124320Y62480D03*
D03*
X1905640Y1265220D03*
D03*
X3117420Y71520D03*
D03*
X2369880Y1015300D03*
D03*
X2374240Y109820D03*
D03*
X2370000Y1253840D03*
D03*
X2264900Y1249600D03*
D03*
X2046220Y46860D03*
D03*
X1700000Y200000D03*
D03*
Y299920D03*
D03*
X1874400Y265540D03*
D03*
X1624480Y546700D03*
D03*
X1968120Y952820D03*
D03*
X1700000Y950080D03*
D03*
X1950000Y1218360D03*
D03*
X1700000Y1049920D03*
D03*
X2108700Y2218040D03*
D03*
X3248960Y3018500D03*
D03*
X1624480Y1655720D03*
D03*
X3514500Y3002880D03*
D03*
X2655400Y3511360D03*
D03*
X2014980Y3748800D03*
D03*
X2936560Y3511360D03*
D03*
X2046220Y3795660D03*
D03*
X1873880Y1625000D03*
D03*
X2249280Y2296140D03*
D03*
X3217720Y3511360D03*
D03*
X2390000Y3550000D03*
D03*
X2717180Y3015360D03*
D03*
X2952180Y3018500D03*
D03*
X2374240Y3311440D03*
D03*
X3373920Y3373920D03*
D03*
X2171180Y3467640D03*
D03*
X2450000Y3264580D03*
D03*
X2700000Y3280200D03*
D03*
X3700000Y3449440D03*
D03*
X3950000D03*
D03*
X2983420Y3467640D03*
D03*
X3200000Y3297920D03*
D03*
X1608420Y1375000D03*
D03*
X2139940Y2296140D03*
D03*
X3733180Y3045900D03*
D03*
X3950000Y2449440D03*
D03*
X3700000Y2300560D03*
D03*
X3450000D03*
D03*
X3200000D03*
D03*
X2950000D03*
D03*
X2700000Y2449440D03*
D03*
X2450000D03*
D03*
X2200000D03*
D03*
X3950000Y2949440D03*
D03*
X3140000Y3760000D03*
D03*
X3700000Y2949440D03*
D03*
X3450000D03*
D03*
X3200000D03*
D03*
X2950000D03*
D03*
X2700000D03*
D03*
X2450000D03*
D03*
X2200000D03*
D03*
X2171180Y3233340D03*
D03*
X2450000Y3199440D03*
D03*
X2700000D03*
D03*
X2950000D03*
D03*
X3200000D03*
D03*
X3450000D03*
D03*
X3700000D03*
D03*
X3950000D03*
D03*
X3264580Y3467640D03*
D03*
X3128010Y2776980D03*
D03*
X2070000Y3210260D03*
D03*
X1820000Y2038140D03*
D03*
X2093080Y3045900D03*
D03*
X1870000Y2066240D03*
D03*
X2218040Y3030280D03*
D03*
X2470000Y1267260D03*
D03*
X3442980Y2522980D03*
D03*
X1999360Y2218040D03*
D03*
X2319040Y3225000D03*
D03*
X2624160Y1468280D03*
D03*
X2900000Y2800000D03*
D03*
X1970000Y3715680D03*
D03*
X2700000Y1500000D03*
D03*
X1861930Y1530760D03*
D03*
X3127500Y3410000D03*
D03*
X3622020Y3422020D03*
D03*
X3670000Y3010000D03*
D03*
X3350000Y2950000D03*
D03*
X2760000Y2980000D03*
D03*
X3000000D03*
D03*
X3700000Y2740000D03*
D03*
X3620000D03*
D03*
X3700000Y2800000D03*
D03*
X3620000D03*
D03*
X2660000D03*
D03*
X1830000Y3460000D03*
D03*
X1820000Y3300000D03*
D03*
X2171180Y3289760D03*
D03*
X2610000Y3300000D03*
D03*
X3873760Y1483760D03*
D03*
X2093080Y2983420D03*
D03*
X1952500Y2795980D03*
D03*
X3124000Y2967800D03*
D03*
X2200000Y2262480D03*
D03*
X3950000Y2199440D03*
D03*
X3700000Y2050560D03*
D03*
X3450000D03*
D03*
X3200000D03*
D03*
X2950000D03*
D03*
X2700000Y2199440D03*
D03*
X2450000D03*
D03*
X3800000Y3795660D03*
D03*
X3550000D03*
D03*
X3300000D03*
D03*
X3050000D03*
D03*
X2702260Y3545740D03*
D03*
X2499200Y3514500D03*
D03*
X2325030Y3282550D03*
D03*
X1874400Y2842840D03*
D03*
X1600000Y1770000D03*
D03*
X1624480Y3045900D03*
D03*
X1968120Y2717880D03*
D03*
X1733820Y3030280D03*
D03*
X2130000Y2470000D03*
D03*
X2190000Y1550000D03*
D03*
X2240000D03*
D03*
X2190000Y1500000D03*
D03*
X2240000D03*
D03*
X2350000Y1550000D03*
D03*
Y1500000D03*
D03*
X2874080Y3639460D03*
D03*
X3108380Y3248960D03*
D03*
X2624160Y3186480D03*
D03*
X3373920Y3639460D03*
D03*
X3124000Y3623840D03*
D03*
X2624160Y3639460D03*
D03*
X2874080Y3170860D03*
D03*
X3373920D03*
D03*
X2330000Y3450000D03*
D03*
X2090000Y3300000D03*
D03*
X2060000Y3450000D03*
D03*
Y3500000D03*
D03*
X1910000Y3300000D03*
D03*
X2010000Y3450000D03*
D03*
X1960000D03*
D03*
X1910000D03*
D03*
X2010000Y3500000D03*
D03*
X1960000D03*
D03*
X1910000D03*
D03*
X1660000Y2500000D03*
D03*
X1600000D03*
D03*
X1720000D03*
D03*
X1600000Y2450000D03*
D03*
X1660000D03*
D03*
X1720000D03*
D03*
X1600000Y2300000D03*
D03*
X1720000D03*
D03*
X1640000Y1510000D03*
D03*
X3950000Y2699440D03*
D03*
X3624680Y2625000D03*
D03*
X3374760D03*
D03*
X3124840D03*
D03*
X2700000Y2699440D03*
D03*
X2450000D03*
D03*
X2200000D03*
D03*
X2858460Y2530440D03*
D03*
X2717880Y3452020D03*
D03*
X2108700Y1280840D03*
D03*
X2514820Y1296460D03*
D03*
X2700000Y1299920D03*
D03*
X2950000D03*
D03*
X3200000D03*
D03*
X3450000D03*
D03*
X3700000D03*
D03*
X3950000D03*
D03*
X2800000Y1540000D03*
D03*
X2950000Y1549920D03*
D03*
X3200000D03*
D03*
X3450000D03*
D03*
X3700000D03*
D03*
X3950000D03*
D03*
X2124840Y1625000D03*
D03*
X2639780Y1530760D03*
D03*
X2264900Y1968120D03*
D03*
X2624160Y1999360D03*
D03*
X3936240Y1811920D03*
D03*
X3700000Y1799920D03*
D03*
X3450000D03*
D03*
X3200000D03*
D03*
X2950000D03*
D03*
X1655720Y2780360D03*
D03*
X1770000Y2010000D03*
D03*
X3717560Y1718200D03*
D03*
X3550000Y1960000D03*
D03*
X2014980Y2483580D03*
D03*
Y2546060D03*
D03*
X1888820Y2717880D03*
D03*
X1843160Y2764740D03*
D03*
X1765060Y2749120D03*
D03*
X1720000Y2778560D03*
D03*
X1686960Y2046220D03*
D03*
X2009990Y1960010D03*
D03*
X1950000Y2048720D03*
D03*
X1530760Y2233660D03*
D03*
X2014980Y2296140D03*
D03*
X2077460Y2733500D03*
D03*
X2014980Y2795980D03*
D03*
X1749440Y2952180D03*
D03*
X1827540Y3045900D03*
D03*
X1600000Y3200000D03*
D03*
X1660000Y3480000D03*
D03*
X1843160Y3233340D03*
D03*
X1829000Y3545000D03*
D03*
X1700000Y3699440D03*
D03*
X1827540Y3748800D03*
D03*
X2264900Y1796300D03*
D03*
X2139940Y3795660D03*
D03*
X2405480Y3780040D03*
D03*
X3700000Y3797600D03*
D03*
X3450000D03*
D03*
X3200000D03*
D03*
X2655400Y3795660D03*
D03*
X2905320D03*
D03*
X2049370Y2043070D03*
D03*
X2171180Y1983740D03*
D03*
X2617660Y1725000D03*
D03*
X2671980Y1775000D03*
D03*
X2470000Y2028560D03*
D03*
X2420000Y1976980D03*
D03*
X2370000Y2010740D03*
D03*
X2320000Y1976980D03*
D03*
Y1282160D03*
D03*
X3950000Y3699440D03*
D03*
X3700000D03*
D03*
X3450000D03*
D03*
X3200000D03*
D03*
X2905320Y3733180D03*
D03*
X2700000Y3762160D03*
D03*
X2467960Y3764420D03*
D03*
X2218040D03*
D03*
X2505480Y3008380D03*
D03*
X1950000Y1299920D03*
D03*
X1700000D03*
D03*
X1950000Y1548880D03*
D03*
X1700000Y1548960D03*
D03*
Y1799920D03*
D03*
X1952500Y3967480D03*
D03*
X1874400D03*
D03*
X1796300D03*
D03*
X2276800Y3950400D03*
D03*
X1700000Y3949440D03*
D03*
X3950000D03*
D03*
G54D11*
X109340Y1040660D03*
X1060000Y1040000D03*
X800000Y960000D03*
X860000D03*
X920000D03*
X980000D03*
X1490000Y1230000D03*
X1180000Y480000D03*
X1500000Y530000D03*
X1421420Y265540D03*
X1374560Y687640D03*
X1358940Y750120D03*
X360000Y1200000D03*
X199910Y1221510D03*
X1450000Y49920D03*
X1200000D03*
X950000D03*
X700000D03*
X450000D03*
X200000D03*
X1450000Y450080D03*
X1200000Y299920D03*
X950000D03*
X700000D03*
X450000D03*
X200000D03*
X1450000Y549920D03*
X1200000D03*
X950000D03*
X700000D03*
X450000D03*
X200000D03*
X1450000Y950080D03*
X1200000Y799920D03*
X950000D03*
X700000D03*
X450000D03*
X200000D03*
X1450000Y1049920D03*
X1200000D03*
X950000D03*
X700000D03*
X450000D03*
X200000D03*
X108740Y1875000D03*
X1374560Y1640100D03*
X1050000Y1933420D03*
X374280Y1875000D03*
X608580D03*
X1499520Y1471180D03*
X874120Y1875000D03*
X190820Y2776980D03*
X1360000Y1470000D03*
X940000Y1460000D03*
X633620Y1446380D03*
X1350000Y1970000D03*
X1300000Y2300000D03*
X940000Y1960000D03*
X661360Y3461360D03*
X971360D03*
X1390000Y3490000D03*
X321360Y3461360D03*
X370000Y2950000D03*
X640000Y2960000D03*
X900000Y2970000D03*
X1380000D03*
X1360000Y2720000D03*
X363780Y1946220D03*
X633780D03*
X373620Y1446380D03*
X1374560Y3549740D03*
X1437040Y3530120D03*
X1480750Y3049050D03*
X108660Y2125000D03*
X1109020Y2452340D03*
X859100Y2405480D03*
X1499520Y1968120D03*
X359260Y2249280D03*
X1124640Y2639780D03*
X550000Y2311400D03*
X1375000Y3437500D03*
X187500Y3500000D03*
X625000Y3750000D03*
X875000Y3687500D03*
X1240000Y3550000D03*
X827860Y3199920D03*
X546700D03*
X249920D03*
X1140260D03*
X1375000Y2475000D03*
X1380000Y2320000D03*
X850000Y2250000D03*
X1100000Y2290000D03*
X870000Y1700000D03*
X620000D03*
X346380Y1546380D03*
X1090000Y1730000D03*
X200000Y2010000D03*
X590000Y2220000D03*
X1060000Y2010000D03*
X880000Y2060000D03*
X1421420Y3041560D03*
X1300000Y3290000D03*
X1218360Y2795980D03*
X164360Y2522980D03*
X905960Y3033420D03*
X1218360D03*
X1201420Y3511360D03*
X904640D03*
X607860D03*
X359260D03*
Y3033420D03*
X640420Y3030280D03*
X1200000Y2050560D03*
X950000Y2199440D03*
X700000D03*
X450000D03*
X200000D03*
X654220Y3262760D03*
X1450000Y2050560D03*
X1200000Y2433980D03*
X950000Y2310000D03*
X700000Y2300560D03*
X450000D03*
X125560Y2375000D03*
X357440Y3262760D03*
X1370000Y2200000D03*
X875560Y2625000D03*
X625560D03*
X375560D03*
X125560D03*
X1200000Y2699520D03*
X1375400Y2625000D03*
X450000Y2949440D03*
X125560Y2875000D03*
X593560Y3295820D03*
X700000Y2949440D03*
X950000D03*
X1200000D03*
X1374560Y2795980D03*
X1380000Y3200000D03*
X1200000Y3199360D03*
X450000Y3183500D03*
X125560Y3125000D03*
X890340Y3295820D03*
X700000Y3214820D03*
X1360000Y3300000D03*
X875560Y3375000D03*
X625560D03*
X375560D03*
X125560D03*
X1200000Y3298560D03*
X1124640Y3295820D03*
X1450000Y3699440D03*
X1200000D03*
X950000D03*
X700000D03*
X450000D03*
X200000D03*
X1120000Y1320000D03*
X890340Y1496380D03*
X1233980D03*
X1171500Y1996220D03*
X874720D03*
X593560D03*
X312400D03*
X390500Y1496380D03*
X671660D03*
X624800Y1546380D03*
X187440Y1483900D03*
X374880Y2046220D03*
X656040D03*
X937200D03*
X1450000Y1299920D03*
X1200000D03*
X950000D03*
X700000D03*
X450000D03*
X200000D03*
X1120000Y1820000D03*
X1200000Y1700080D03*
X950000D03*
X1450000Y1549040D03*
X450000Y1700080D03*
X200000Y1549920D03*
X700000Y1700080D03*
X1450000Y1799920D03*
X1200000D03*
X950000D03*
X700000D03*
X450000D03*
X200000D03*
X921580Y1546380D03*
X131730Y6195650D03*
X1450000Y3949440D03*
X1200000D03*
X950000D03*
X700000D03*
X450000D03*
X200000D03*
X2249280Y984060D03*
X2124320Y1046540D03*
X1624480Y1249600D03*
X2420000Y1219460D03*
X2170000Y266720D03*
X2311760Y452980D03*
X2180400Y475000D03*
X1620000Y690000D03*
X3376550Y550000D03*
X3646550D03*
X3280000Y700000D03*
X3700000Y710000D03*
X3251200Y203200D03*
X3683000Y215900D03*
X3059700Y40300D03*
X2700000Y200000D03*
X2760000Y520000D03*
X3010000Y530000D03*
X3256780Y296780D03*
X3513220D03*
X3256620Y796620D03*
X3526620D03*
X2860000Y450000D03*
X2430000Y710000D03*
X1910000Y500000D03*
X1960000D03*
X2010000D03*
X1910000Y550000D03*
X1960000D03*
X2010000D03*
X1910000Y700000D03*
X1960000D03*
X2020000D03*
X2506780Y296780D03*
X2590000Y700000D03*
X2890000D03*
X3858140Y1233980D03*
X1970000Y782880D03*
X2880000Y1220000D03*
X2880320Y999680D03*
X2061840Y203060D03*
X2952180Y246780D03*
X2317660Y725000D03*
X2639780Y246780D03*
X2371980Y775000D03*
X2655400Y746620D03*
X2202420Y952820D03*
X2936560Y746620D03*
X2120000Y976980D03*
X3217720Y746620D03*
X2070000Y1023460D03*
X3498880Y746620D03*
X2020000Y979040D03*
X3483260Y246780D03*
X1970000Y247780D03*
X3217720Y246780D03*
X2020000Y282160D03*
X3950000Y49920D03*
X3700000D03*
X3450000D03*
X3200000D03*
X2950000D03*
X2450000D03*
X2200000D03*
X2702260Y31240D03*
X2233660Y265540D03*
X2450000Y299920D03*
X2700000D03*
X2950000D03*
X3950000D03*
X3700000D03*
X3405160Y499840D03*
X3124000Y500000D03*
X2624160Y452980D03*
X2311760Y515460D03*
X2950000Y549920D03*
X2700000D03*
X2450000D03*
X3250000Y540000D03*
X3700000Y549920D03*
X3950000D03*
X3444010Y454010D03*
X3030000Y799920D03*
X3700000D03*
X3950000D03*
X2327380Y968440D03*
X2700000Y799920D03*
X2450000D03*
X3450000Y810000D03*
X2171180Y1015300D03*
X3950000Y1049920D03*
X3700000D03*
X3450000D03*
X3200000D03*
X2950000D03*
X2700000D03*
X2450000D03*
X3060000Y730000D03*
X2717880Y468600D03*
X2983420D03*
X2858460Y78100D03*
X3373920Y93720D03*
X1624480Y1187120D03*
X3858020Y375000D03*
X1998480Y1264340D03*
X2124320Y62480D03*
X1905640Y1265220D03*
X3117420Y71520D03*
X2369880Y1015300D03*
X2374240Y109820D03*
X2370000Y1253840D03*
X2264900Y1249600D03*
X2046220Y46860D03*
X1700000Y200000D03*
Y299920D03*
X1874400Y265540D03*
X1624480Y546700D03*
X1968120Y952820D03*
X1700000Y950080D03*
X1950000Y1218360D03*
X1700000Y1049920D03*
X2108700Y2218040D03*
X3248960Y3018500D03*
X1624480Y1655720D03*
X3514500Y3002880D03*
X2655400Y3511360D03*
X2014980Y3748800D03*
X2936560Y3511360D03*
X2046220Y3795660D03*
X1873880Y1625000D03*
X2249280Y2296140D03*
X3217720Y3511360D03*
X2390000Y3550000D03*
X2717180Y3015360D03*
X2952180Y3018500D03*
X2374240Y3311440D03*
X3373920Y3373920D03*
X2171180Y3467640D03*
X2450000Y3264580D03*
X2700000Y3280200D03*
X3700000Y3449440D03*
X3950000D03*
X2983420Y3467640D03*
X3200000Y3297920D03*
X1608420Y1375000D03*
X2139940Y2296140D03*
X3733180Y3045900D03*
X3950000Y2449440D03*
X3700000Y2300560D03*
X3450000D03*
X3200000D03*
X2950000D03*
X2700000Y2449440D03*
X2450000D03*
X2200000D03*
X3950000Y2949440D03*
X3140000Y3760000D03*
X3700000Y2949440D03*
X3450000D03*
X3200000D03*
X2950000D03*
X2700000D03*
X2450000D03*
X2200000D03*
X2171180Y3233340D03*
X2450000Y3199440D03*
X2700000D03*
X2950000D03*
X3200000D03*
X3450000D03*
X3700000D03*
X3950000D03*
X3264580Y3467640D03*
X3128010Y2776980D03*
X2070000Y3210260D03*
X1820000Y2038140D03*
X2093080Y3045900D03*
X1870000Y2066240D03*
X2218040Y3030280D03*
X2470000Y1267260D03*
X3442980Y2522980D03*
X1999360Y2218040D03*
X2319040Y3225000D03*
X2624160Y1468280D03*
X2900000Y2800000D03*
X1970000Y3715680D03*
X2700000Y1500000D03*
X1861930Y1530760D03*
X3127500Y3410000D03*
X3622020Y3422020D03*
X3670000Y3010000D03*
X3350000Y2950000D03*
X2760000Y2980000D03*
X3000000D03*
X3700000Y2740000D03*
X3620000D03*
X3700000Y2800000D03*
X3620000D03*
X2660000D03*
X1830000Y3460000D03*
X1820000Y3300000D03*
X2171180Y3289760D03*
X2610000Y3300000D03*
X3873760Y1483760D03*
X2093080Y2983420D03*
X1952500Y2795980D03*
X3124000Y2967800D03*
X2200000Y2262480D03*
X3950000Y2199440D03*
X3700000Y2050560D03*
X3450000D03*
X3200000D03*
X2950000D03*
X2700000Y2199440D03*
X2450000D03*
X3800000Y3795660D03*
X3550000D03*
X3300000D03*
X3050000D03*
X2702260Y3545740D03*
X2499200Y3514500D03*
X2325030Y3282550D03*
X1874400Y2842840D03*
X1600000Y1770000D03*
X1624480Y3045900D03*
X1968120Y2717880D03*
X1733820Y3030280D03*
X2130000Y2470000D03*
X2190000Y1550000D03*
X2240000D03*
X2190000Y1500000D03*
X2240000D03*
X2350000Y1550000D03*
Y1500000D03*
X2874080Y3639460D03*
X3108380Y3248960D03*
X2624160Y3186480D03*
X3373920Y3639460D03*
X3124000Y3623840D03*
X2624160Y3639460D03*
X2874080Y3170860D03*
X3373920D03*
X2330000Y3450000D03*
X2090000Y3300000D03*
X2060000Y3450000D03*
Y3500000D03*
X1910000Y3300000D03*
X2010000Y3450000D03*
X1960000D03*
X1910000D03*
X2010000Y3500000D03*
X1960000D03*
X1910000D03*
X1660000Y2500000D03*
X1600000D03*
X1720000D03*
X1600000Y2450000D03*
X1660000D03*
X1720000D03*
X1600000Y2300000D03*
X1720000D03*
X1640000Y1510000D03*
X3950000Y2699440D03*
X3624680Y2625000D03*
X3374760D03*
X3124840D03*
X2700000Y2699440D03*
X2450000D03*
X2200000D03*
X2858460Y2530440D03*
X2717880Y3452020D03*
X2108700Y1280840D03*
X2514820Y1296460D03*
X2700000Y1299920D03*
X2950000D03*
X3200000D03*
X3450000D03*
X3700000D03*
X3950000D03*
X2800000Y1540000D03*
X2950000Y1549920D03*
X3200000D03*
X3450000D03*
X3700000D03*
X3950000D03*
X2124840Y1625000D03*
X2639780Y1530760D03*
X2264900Y1968120D03*
X2624160Y1999360D03*
X3936240Y1811920D03*
X3700000Y1799920D03*
X3450000D03*
X3200000D03*
X2950000D03*
X1655720Y2780360D03*
X1770000Y2010000D03*
X3717560Y1718200D03*
X3550000Y1960000D03*
X2014980Y2483580D03*
Y2546060D03*
X1888820Y2717880D03*
X1843160Y2764740D03*
X1765060Y2749120D03*
X1720000Y2778560D03*
X1686960Y2046220D03*
X2009990Y1960010D03*
X1950000Y2048720D03*
X1530760Y2233660D03*
X2014980Y2296140D03*
X2077460Y2733500D03*
X2014980Y2795980D03*
X1749440Y2952180D03*
X1827540Y3045900D03*
X1600000Y3200000D03*
X1660000Y3480000D03*
X1843160Y3233340D03*
X1829000Y3545000D03*
X1700000Y3699440D03*
X1827540Y3748800D03*
X2264900Y1796300D03*
X2139940Y3795660D03*
X2405480Y3780040D03*
X3700000Y3797600D03*
X3450000D03*
X3200000D03*
X2655400Y3795660D03*
X2905320D03*
X2049370Y2043070D03*
X2171180Y1983740D03*
X2617660Y1725000D03*
X2671980Y1775000D03*
X2470000Y2028560D03*
X2420000Y1976980D03*
X2370000Y2010740D03*
X2320000Y1976980D03*
Y1282160D03*
X3950000Y3699440D03*
X3700000D03*
X3450000D03*
X3200000D03*
X2905320Y3733180D03*
X2700000Y3762160D03*
X2467960Y3764420D03*
X2218040D03*
X2505480Y3008380D03*
X1950000Y1299920D03*
X1700000D03*
X1950000Y1548880D03*
X1700000Y1548960D03*
Y1799920D03*
X1952500Y3967480D03*
X1874400D03*
X1796300D03*
X2276800Y3950400D03*
X1700000Y3949440D03*
X3950000D03*
G54D12*
G01X3999990Y3999990D02*
X0D01*
Y0D01*
X3999990D01*
Y3999990D01*
G01X0Y-140000D02*
X-240000D01*
G01X-120000Y-260000D02*
Y-20000D01*
G01X-50000Y-140000D02*
G03I-70000J0D01*
G01X-20000Y-130000D02*
G03I-100000J-10000D01*
G01X-1010000Y5838780D02*
Y8630000D01*
X11273440D01*
Y5838780D01*
X-1010000D01*
G01X-170000Y4130000D02*
G03I-100000J-10000D01*
G01X-200000Y4120000D02*
G03I-70000J0D01*
G01X-270000Y4000000D02*
Y4240000D01*
G01X-150000Y4120000D02*
X-390000D01*
G01X1273460Y7266260D02*
Y5838780D01*
G01X1527560Y4153750D02*
Y4471250D01*
X1480320Y4407750D01*
G01Y4153750D02*
X1574800D01*
G01X1842520Y4143170D02*
X1834640Y4148460D01*
Y4159040D01*
X1842520Y4164330D01*
X1850400Y4159040D01*
Y4148460D01*
X1842520Y4143170D01*
G01X2070870Y4201360D02*
X2094480Y4174910D01*
X2122040Y4159040D01*
X2157480Y4153750D01*
X2192920Y4164330D01*
X2220470Y4185490D01*
X2240160Y4222540D01*
X2244090Y4264870D01*
X2236220Y4307200D01*
X2216530Y4333670D01*
X2188970Y4354830D01*
X2161420Y4360120D01*
X2133860Y4354830D01*
X2098430Y4333670D01*
X2110240Y4471250D01*
X2216530D01*
G01X2464560Y4153750D02*
X2472440Y4222540D01*
X2484250Y4280740D01*
X2500000Y4333670D01*
X2519680Y4391870D01*
X2551180Y4471250D01*
X2393700D01*
G01X0Y4254000D02*
Y4566500D01*
G01X1171330Y4312500D02*
X0D01*
G01X381000Y4376000D02*
X0Y4312500D01*
X381000Y4249000D01*
Y4376000D01*
G01X1108110Y8153750D02*
Y8471250D01*
X1186840D01*
X1218340Y8455370D01*
X1241960Y8434210D01*
X1261650Y8402460D01*
X1277400Y8365410D01*
X1281330Y8312500D01*
X1277400Y8259580D01*
X1261650Y8222540D01*
X1241960Y8190780D01*
X1218340Y8169620D01*
X1186840Y8153750D01*
X1108110D01*
G01X1430940D02*
Y8471250D01*
X1529360D01*
X1560860Y8455370D01*
X1580550Y8434210D01*
X1588420Y8391870D01*
X1580550Y8349540D01*
X1556920Y8323090D01*
X1529360Y8307200D01*
X1430940D01*
G01X1529360D02*
X1588420Y8153750D01*
G01X1777400Y8471250D02*
X1871880D01*
G01X1824640D02*
Y8153750D01*
G01X1777400D02*
X1871880D01*
G01X2060860Y8471250D02*
Y8153750D01*
X2218340D01*
G01X2375820Y8471250D02*
Y8153750D01*
X2533300D01*
G01X3171090Y8444790D02*
X3147470Y8460670D01*
X3119920Y8471250D01*
X3088420D01*
X3052980Y8455370D01*
X3025430Y8428920D01*
X3005740Y8397160D01*
X2989990Y8344250D01*
X2986050Y8296620D01*
X2993930Y8249000D01*
X3005740Y8217250D01*
X3029360Y8185490D01*
X3056920Y8164330D01*
X3084480Y8153750D01*
X3112040D01*
X3139600Y8164330D01*
X3163220Y8180200D01*
X3182910Y8201360D01*
G01X3316760Y8153750D02*
Y8471250D01*
G01X3482120D02*
Y8153750D01*
G01Y8312500D02*
X3316760D01*
G01X3615970Y8153750D02*
X3714400Y8471250D01*
X3812830Y8153750D01*
G01X3777390Y8264870D02*
X3651400D01*
G01X3950620Y8153750D02*
Y8471250D01*
X4049040D01*
X4080540Y8455370D01*
X4100230Y8434210D01*
X4108100Y8391870D01*
X4100230Y8349540D01*
X4076600Y8323090D01*
X4049040Y8307200D01*
X3950620D01*
G01X4049040D02*
X4108100Y8153750D01*
G01X4344320Y8471250D02*
Y8153750D01*
G01X4253770Y8471250D02*
X4434870D01*
G01X4659280Y8143170D02*
X4651400Y8148460D01*
Y8159040D01*
X4659280Y8164330D01*
X4667160Y8159040D01*
Y8148460D01*
X4659280Y8143170D01*
G01Y8286030D02*
X4651400Y8291330D01*
Y8301910D01*
X4659280Y8307200D01*
X4667160Y8301910D01*
Y8291330D01*
X4659280Y8286030D01*
G01X5289200Y8471250D02*
Y8153750D01*
G01X5198650Y8471250D02*
X5379750D01*
G01X5604160Y8153750D02*
X5572660Y8159040D01*
X5545110Y8180200D01*
X5521480Y8211960D01*
X5505730Y8249000D01*
X5497860Y8291330D01*
Y8333670D01*
X5505730Y8376000D01*
X5521480Y8413040D01*
X5545110Y8444790D01*
X5572660Y8465960D01*
X5604160Y8471250D01*
X5635650Y8465960D01*
X5663210Y8444790D01*
X5686840Y8413040D01*
X5702590Y8376000D01*
X5710460Y8333670D01*
Y8291330D01*
X5702590Y8249000D01*
X5686840Y8211960D01*
X5663210Y8180200D01*
X5635650Y8159040D01*
X5604160Y8153750D01*
G01X5840380D02*
Y8471250D01*
X5934870D01*
X5966360Y8455370D01*
X5989990Y8418330D01*
X5997860Y8376000D01*
X5989990Y8333670D01*
X5970300Y8301910D01*
X5934870Y8286030D01*
X5840380D01*
G01X6549040Y8471250D02*
Y8153750D01*
G01X6493920Y8365410D02*
X6604160D01*
G01X6864000Y8153750D02*
X6840380Y8159040D01*
X6816760Y8180200D01*
X6801000Y8217250D01*
X6793130Y8259580D01*
X6801000Y8301910D01*
X6816760Y8338960D01*
X6840380Y8360120D01*
X6864000Y8365410D01*
X6887620Y8360120D01*
X6911240Y8338960D01*
X6926990Y8301910D01*
X6930930Y8259580D01*
X6926990Y8217250D01*
X6911240Y8180200D01*
X6887620Y8159040D01*
X6864000Y8153750D01*
G01X7525410Y8323090D02*
X7541160Y8338960D01*
X7552970Y8365410D01*
X7560850Y8402460D01*
X7552970Y8434210D01*
X7537230Y8455370D01*
X7509670Y8471250D01*
X7403370D01*
Y8153750D01*
X7533290D01*
X7560850Y8174910D01*
X7576600Y8206670D01*
X7584470Y8243710D01*
X7576600Y8280740D01*
X7552970Y8312500D01*
X7525410Y8323090D01*
X7403370D01*
G01X7808880Y8153750D02*
X7777380Y8159040D01*
X7749830Y8180200D01*
X7726200Y8211960D01*
X7710450Y8249000D01*
X7702580Y8291330D01*
Y8333670D01*
X7710450Y8376000D01*
X7726200Y8413040D01*
X7749830Y8444790D01*
X7777380Y8465960D01*
X7808880Y8471250D01*
X7840370Y8465960D01*
X7867930Y8444790D01*
X7891560Y8413040D01*
X7907310Y8376000D01*
X7915180Y8333670D01*
Y8291330D01*
X7907310Y8249000D01*
X7891560Y8211960D01*
X7867930Y8180200D01*
X7840370Y8159040D01*
X7808880Y8153750D01*
G01X8123840Y8471250D02*
Y8153750D01*
G01X8033290Y8471250D02*
X8214390D01*
G01X8438800D02*
Y8153750D01*
G01X8348250Y8471250D02*
X8529350D01*
G01X8753760Y8153750D02*
X8722260Y8159040D01*
X8694710Y8180200D01*
X8671080Y8211960D01*
X8655330Y8249000D01*
X8647460Y8291330D01*
Y8333670D01*
X8655330Y8376000D01*
X8671080Y8413040D01*
X8694710Y8444790D01*
X8722260Y8465960D01*
X8753760Y8471250D01*
X8785250Y8465960D01*
X8812810Y8444790D01*
X8836440Y8413040D01*
X8852190Y8376000D01*
X8860060Y8333670D01*
Y8291330D01*
X8852190Y8249000D01*
X8836440Y8211960D01*
X8812810Y8180200D01*
X8785250Y8159040D01*
X8753760Y8153750D01*
G01X8966350D02*
Y8471250D01*
X9068720Y8206670D01*
X9171090Y8471250D01*
Y8153750D01*
G01X781330Y7503750D02*
X879760Y7821250D01*
X978190Y7503750D01*
G01X942750Y7614870D02*
X816760D01*
G01X1115980Y7821250D02*
Y7503750D01*
X1273460D01*
G01X1430940Y7821250D02*
Y7503750D01*
X1588420D01*
G01X2052990Y7821250D02*
Y7593710D01*
X2068730Y7546070D01*
X2100230Y7514330D01*
X2139600Y7503750D01*
X2178970Y7514330D01*
X2210470Y7546070D01*
X2226210Y7593710D01*
Y7821250D01*
G01X2364010Y7503750D02*
Y7821250D01*
X2545110Y7503750D01*
Y7821250D01*
G01X2722280D02*
X2816760D01*
G01X2769520D02*
Y7503750D01*
G01X2722280D02*
X2816760D01*
G01X3084480Y7821250D02*
Y7503750D01*
G01X2993930Y7821250D02*
X3175030D01*
G01X3316760Y7546070D02*
X3348260Y7519620D01*
X3383690Y7503750D01*
X3415190D01*
X3446680Y7519620D01*
X3470310Y7546070D01*
X3482120Y7583130D01*
X3474250Y7620160D01*
X3454560Y7651910D01*
X3419120Y7673090D01*
X3371880Y7683670D01*
X3344320Y7704830D01*
X3332510Y7741870D01*
X3340390Y7778920D01*
X3360070Y7805370D01*
X3387630Y7821250D01*
X3415190D01*
X3442750Y7810670D01*
X3466370Y7784210D01*
G01X3930930Y7503750D02*
X4029360Y7821250D01*
X4127790Y7503750D01*
G01X4092350Y7614870D02*
X3966360D01*
G01X4265580Y7503750D02*
Y7821250D01*
X4364000D01*
X4395500Y7805370D01*
X4415190Y7784210D01*
X4423060Y7741870D01*
X4415190Y7699540D01*
X4391560Y7673090D01*
X4364000Y7657200D01*
X4265580D01*
G01X4364000D02*
X4423060Y7503750D01*
G01X4738020D02*
X4580540D01*
Y7821250D01*
X4738020D01*
G01X4675030Y7667800D02*
X4580540D01*
G01X5241960Y7821250D02*
X5336440D01*
G01X5289200D02*
Y7503750D01*
G01X5241960D02*
X5336440D01*
G01X5513610D02*
Y7821250D01*
X5694710Y7503750D01*
Y7821250D01*
G01X6131710Y7503750D02*
Y7821250D01*
X6234080Y7556670D01*
X6336450Y7821250D01*
Y7503750D01*
G01X6501800Y7821250D02*
X6596280D01*
G01X6549040D02*
Y7503750D01*
G01X6501800D02*
X6596280D01*
G01X6785260Y7821250D02*
Y7503750D01*
X6942740D01*
G01X7100220Y7821250D02*
Y7503750D01*
X7257700D01*
G01X7446680Y7821250D02*
X7541160D01*
G01X7493920D02*
Y7503750D01*
G01X7446680D02*
X7541160D01*
G01X7706510D02*
Y7821250D01*
X7808880Y7556670D01*
X7911250Y7821250D01*
Y7503750D01*
G01X8202580D02*
X8045100D01*
Y7821250D01*
X8202580D01*
G01X8139590Y7667800D02*
X8045100D01*
G01X8438800Y7821250D02*
Y7503750D01*
G01X8348250Y7821250D02*
X8529350D01*
G01X8832500Y7503750D02*
X8675020D01*
Y7821250D01*
X8832500D01*
G01X8769510Y7667800D02*
X8675020D01*
G01X8989980Y7503750D02*
Y7821250D01*
X9088400D01*
X9119900Y7805370D01*
X9139590Y7784210D01*
X9147460Y7741870D01*
X9139590Y7699540D01*
X9115960Y7673090D01*
X9088400Y7657200D01*
X8989980D01*
G01X9088400D02*
X9147460Y7503750D01*
G01X9301000Y7546070D02*
X9332500Y7519620D01*
X9367930Y7503750D01*
X9399430D01*
X9430920Y7519620D01*
X9454550Y7546070D01*
X9466360Y7583130D01*
X9458490Y7620160D01*
X9438800Y7651910D01*
X9403360Y7673090D01*
X9356120Y7683670D01*
X9328560Y7704830D01*
X9316750Y7741870D01*
X9324630Y7778920D01*
X9344310Y7805370D01*
X9371870Y7821250D01*
X9399430D01*
X9426990Y7810670D01*
X9450610Y7784210D01*
G01X-730480Y6790010D02*
Y7107510D01*
X-580860D01*
G01X-635990Y6954060D02*
X-730480D01*
G01X-387950Y7107510D02*
X-293470D01*
G01X-340710D02*
Y6790010D01*
G01X-387950D02*
X-293470D01*
G01X-2130Y6948760D02*
X76620D01*
Y6853510D01*
X52990Y6821750D01*
X25430Y6800590D01*
X-13940Y6790010D01*
X-53310Y6800590D01*
X-80870Y6821750D01*
X-104490Y6853510D01*
X-120240Y6890550D01*
X-128120Y6932880D01*
Y6969930D01*
X-120240Y7001670D01*
X-104490Y7038720D01*
X-80870Y7070470D01*
X-57250Y7091630D01*
X-25750Y7107510D01*
X1810D01*
X33300Y7096930D01*
X56930Y7075760D01*
G01X202600Y7107510D02*
Y6879970D01*
X218340Y6832330D01*
X249840Y6800590D01*
X289210Y6790010D01*
X328580Y6800590D01*
X360080Y6832330D01*
X375820Y6879970D01*
Y7107510D01*
G01X525430Y6790010D02*
Y7107510D01*
X623850D01*
X655350Y7091630D01*
X675040Y7070470D01*
X682910Y7028130D01*
X675040Y6985800D01*
X651410Y6959350D01*
X623850Y6943460D01*
X525430D01*
G01X623850D02*
X682910Y6790010D01*
G01X997870D02*
X840390D01*
Y7107510D01*
X997870D01*
G01X934880Y6954060D02*
X840390D01*
G01X-1010000Y7980000D02*
X11273440D01*
G01X-1010000Y7266260D02*
X11273440D01*
G01X-1010000Y6552520D02*
X11273440D01*
G01X4230000Y-130000D02*
X3990000D01*
G01X4210000Y-120000D02*
G03I-100000J-10000D01*
G01X3360070Y6354400D02*
X3328570Y6343820D01*
X3304950Y6317360D01*
X3289200Y6285610D01*
X3277390Y6243270D01*
X3273460Y6195650D01*
X3277390Y6148020D01*
X3289200Y6105690D01*
X3304950Y6073930D01*
X3328570Y6047480D01*
X3360070Y6036900D01*
X3391560Y6047480D01*
X3415190Y6073930D01*
X3430940Y6105690D01*
X3442750Y6148020D01*
X3446680Y6195650D01*
X3442750Y6243270D01*
X3430940Y6285610D01*
X3415190Y6317360D01*
X3391560Y6343820D01*
X3360070Y6354400D01*
G01X3675030Y6026320D02*
X3667150Y6031610D01*
Y6042190D01*
X3675030Y6047480D01*
X3682910Y6042190D01*
Y6031610D01*
X3675030Y6026320D01*
G01X3915180Y6301480D02*
X3938810Y6333230D01*
X3966370Y6349110D01*
X3997870Y6354400D01*
X4037230Y6343820D01*
X4064800Y6317360D01*
X4072670Y6285610D01*
X4068730Y6253850D01*
X4052980Y6227400D01*
X3974240Y6174480D01*
X3938810Y6137440D01*
X3915180Y6084510D01*
X3907310Y6036900D01*
X4072670D01*
G01X3999990Y4253990D02*
Y4566500D01*
G01X2828670Y4312500D02*
X3999990D01*
G01X3618990Y4249000D02*
X3999990Y4312500D01*
X3618990Y4376000D01*
Y4249000D01*
G01X3119910Y6832330D02*
X3151410Y6805880D01*
X3186840Y6790010D01*
X3218340D01*
X3249830Y6805880D01*
X3273460Y6832330D01*
X3285270Y6869390D01*
X3277400Y6906420D01*
X3257710Y6938170D01*
X3222270Y6959350D01*
X3175030Y6969930D01*
X3147470Y6991090D01*
X3135660Y7028130D01*
X3143540Y7065180D01*
X3163220Y7091630D01*
X3190780Y7107510D01*
X3218340D01*
X3245900Y7096930D01*
X3269520Y7070470D01*
G01X3470310Y7107510D02*
X3564790D01*
G01X3517550D02*
Y6790010D01*
G01X3470310D02*
X3564790D01*
G01X3757700Y7107510D02*
X3907320D01*
X3757700Y6790010D01*
X3907320D01*
G01X4226210D02*
X4068730D01*
Y7107510D01*
X4226210D01*
G01X4163220Y6954060D02*
X4068730D01*
G01X4110000Y-250000D02*
Y-10000D01*
G01X4180000Y-130000D02*
G03I-70000J0D01*
G01X4253990Y0D02*
X5441500D01*
G01X5187500Y1603130D02*
Y0D01*
G01X5124000Y381000D02*
X5187500Y0D01*
X5251000Y381000D01*
X5124000D01*
G01X4715060Y1841250D02*
Y2158750D01*
X4667820Y2095250D01*
G01Y1841250D02*
X4762300D01*
G01X5030020Y1830670D02*
X5022140Y1835960D01*
Y1846540D01*
X5030020Y1851830D01*
X5037900Y1846540D01*
Y1835960D01*
X5030020Y1830670D01*
G01X5258370Y1888860D02*
X5281980Y1862410D01*
X5309540Y1846540D01*
X5344980Y1841250D01*
X5380420Y1851830D01*
X5407970Y1872990D01*
X5427660Y1910040D01*
X5431590Y1952370D01*
X5423720Y1994700D01*
X5404030Y2021170D01*
X5376470Y2042330D01*
X5348920Y2047620D01*
X5321360Y2042330D01*
X5285930Y2021170D01*
X5297740Y2158750D01*
X5404030D01*
G01X5652060Y1841250D02*
X5659940Y1910040D01*
X5671750Y1968240D01*
X5687500Y2021170D01*
X5707180Y2079370D01*
X5738680Y2158750D01*
X5581200D01*
G01X5187500Y2396870D02*
Y3999990D01*
G01X5251000Y3618990D02*
X5187500Y3999990D01*
X5124000Y3618990D01*
X5251000D01*
G01X4290000Y4130000D02*
X4050000D01*
G01X4170000Y4010000D02*
Y4250000D01*
G01X4240000Y4130000D02*
G03I-70000J0D01*
G01X4270000Y4140000D02*
G03I-100000J-10000D01*
G01X6076600Y7266260D02*
Y5838780D01*
G01X4253990Y3999990D02*
X5441500D01*
G01X8186650Y939460D02*
Y875960D01*
X8213750D01*
G01X8241180Y885480D02*
X8245240Y880190D01*
X8249980Y877020D01*
X8256080Y875960D01*
X8262180Y878080D01*
X8266920Y882310D01*
X8270300Y889720D01*
X8270980Y898180D01*
X8269630Y906650D01*
X8266240Y911940D01*
X8261500Y916180D01*
X8256760Y917230D01*
X8252020Y916180D01*
X8245920Y911940D01*
X8247950Y939460D01*
X8266240D01*
G01X8311960Y873840D02*
X8310610Y874900D01*
Y877020D01*
X8311960Y878080D01*
X8313310Y877020D01*
Y874900D01*
X8311960Y873840D01*
G01Y902420D02*
X8310610Y903480D01*
Y905590D01*
X8311960Y906650D01*
X8313310Y905590D01*
Y903480D01*
X8311960Y902420D01*
G01X8410170Y875960D02*
Y939460D01*
X8426430D01*
X8431850Y936280D01*
X8435910Y928880D01*
X8437270Y920410D01*
X8435910Y911940D01*
X8432530Y905590D01*
X8426430Y902420D01*
X8410170D01*
G01X8459280Y939460D02*
X8468760Y875960D01*
X8479600Y939460D01*
X8490440Y875960D01*
X8499920Y939460D01*
G01X8521930Y875960D02*
Y939460D01*
X8538870D01*
X8544290Y936280D01*
X8547670Y932050D01*
X8549030Y923580D01*
X8547670Y915120D01*
X8543610Y909830D01*
X8538870Y906650D01*
X8521930D01*
G01X8538870D02*
X8549030Y875960D01*
G01X8662140Y934170D02*
X8658080Y937340D01*
X8653340Y939460D01*
X8647920D01*
X8641820Y936280D01*
X8637080Y930990D01*
X8633690Y924640D01*
X8630980Y914060D01*
X8630310Y904530D01*
X8631660Y895010D01*
X8633690Y888660D01*
X8637760Y882310D01*
X8642500Y878080D01*
X8647240Y875960D01*
X8651980D01*
X8656720Y878080D01*
X8660790Y881250D01*
X8664170Y885480D01*
G01X8703120Y875960D02*
X8697700Y877020D01*
X8692960Y881250D01*
X8688900Y887600D01*
X8686190Y895010D01*
X8684830Y903480D01*
Y911940D01*
X8686190Y920410D01*
X8688900Y927820D01*
X8692960Y934170D01*
X8697700Y938400D01*
X8703120Y939460D01*
X8708540Y938400D01*
X8713280Y934170D01*
X8717340Y927820D01*
X8720050Y920410D01*
X8721410Y911940D01*
Y903480D01*
X8720050Y895010D01*
X8717340Y887600D01*
X8713280Y881250D01*
X8708540Y877020D01*
X8703120Y875960D01*
G01X8743420D02*
Y939460D01*
X8774580Y875960D01*
Y939460D01*
G01X8799980Y875960D02*
Y939460D01*
X8813530D01*
X8818940Y936280D01*
X8823010Y932050D01*
X8826400Y925700D01*
X8829100Y918290D01*
X8829780Y907710D01*
X8829100Y897130D01*
X8826400Y889720D01*
X8823010Y883370D01*
X8818940Y879130D01*
X8813530Y875960D01*
X8799980D01*
G01X8855860Y939460D02*
Y893950D01*
X8858570Y884420D01*
X8863990Y878080D01*
X8870760Y875960D01*
X8877530Y878080D01*
X8882950Y884420D01*
X8885660Y893950D01*
Y939460D01*
G01X8941540Y934170D02*
X8937480Y937340D01*
X8932740Y939460D01*
X8927320D01*
X8921220Y936280D01*
X8916480Y930990D01*
X8913090Y924640D01*
X8910380Y914060D01*
X8909710Y904530D01*
X8911060Y895010D01*
X8913090Y888660D01*
X8917160Y882310D01*
X8921900Y878080D01*
X8926640Y875960D01*
X8931380D01*
X8936120Y878080D01*
X8940190Y881250D01*
X8943570Y885480D01*
G01X8982520Y939460D02*
Y875960D01*
G01X8966940Y939460D02*
X8998100D01*
G01X9038400Y875960D02*
X9032980Y877020D01*
X9028240Y881250D01*
X9024180Y887600D01*
X9021470Y895010D01*
X9020110Y903480D01*
Y911940D01*
X9021470Y920410D01*
X9024180Y927820D01*
X9028240Y934170D01*
X9032980Y938400D01*
X9038400Y939460D01*
X9043820Y938400D01*
X9048560Y934170D01*
X9052620Y927820D01*
X9055330Y920410D01*
X9056690Y911940D01*
Y903480D01*
X9055330Y895010D01*
X9052620Y887600D01*
X9048560Y881250D01*
X9043820Y877020D01*
X9038400Y875960D01*
G01X9080730D02*
Y939460D01*
X9097670D01*
X9103090Y936280D01*
X9106470Y932050D01*
X9107830Y923580D01*
X9106470Y915120D01*
X9102410Y909830D01*
X9097670Y906650D01*
X9080730D01*
G01X9097670D02*
X9107830Y875960D01*
G01X9197230Y897130D02*
X9214850D01*
G01X9332700Y934170D02*
X9328640Y937340D01*
X9323900Y939460D01*
X9318480D01*
X9312380Y936280D01*
X9307640Y930990D01*
X9304250Y924640D01*
X9301540Y914060D01*
X9300870Y904530D01*
X9302220Y895010D01*
X9304250Y888660D01*
X9308320Y882310D01*
X9313060Y878080D01*
X9317800Y875960D01*
X9322540D01*
X9327280Y878080D01*
X9331350Y881250D01*
X9334730Y885480D01*
G01X9373680Y875960D02*
X9368260Y877020D01*
X9363520Y881250D01*
X9359460Y887600D01*
X9356750Y895010D01*
X9355390Y903480D01*
Y911940D01*
X9356750Y920410D01*
X9359460Y927820D01*
X9363520Y934170D01*
X9368260Y938400D01*
X9373680Y939460D01*
X9379100Y938400D01*
X9383840Y934170D01*
X9387900Y927820D01*
X9390610Y920410D01*
X9391970Y911940D01*
Y903480D01*
X9390610Y895010D01*
X9387900Y887600D01*
X9383840Y881250D01*
X9379100Y877020D01*
X9373680Y875960D01*
G01X9416010D02*
Y939460D01*
X9432270D01*
X9437690Y936280D01*
X9441750Y928880D01*
X9443110Y920410D01*
X9441750Y911940D01*
X9438370Y905590D01*
X9432270Y902420D01*
X9416010D01*
G01X9471890Y875960D02*
Y939460D01*
X9488150D01*
X9493570Y936280D01*
X9497630Y928880D01*
X9498990Y920410D01*
X9497630Y911940D01*
X9494250Y905590D01*
X9488150Y902420D01*
X9471890D01*
G01X9554870Y875960D02*
X9527770D01*
Y939460D01*
X9554870D01*
G01X9544030Y908770D02*
X9527770D01*
G01X9583650Y875960D02*
Y939460D01*
X9600590D01*
X9606010Y936280D01*
X9609390Y932050D01*
X9610750Y923580D01*
X9609390Y915120D01*
X9605330Y909830D01*
X9600590Y906650D01*
X9583650D01*
G01X9600590D02*
X9610750Y875960D01*
G01X9708960Y939460D02*
X9703540Y937340D01*
X9699480Y932050D01*
X9696770Y925700D01*
X9694740Y917230D01*
X9694060Y907710D01*
X9694740Y898180D01*
X9696770Y889720D01*
X9699480Y883370D01*
X9703540Y878080D01*
X9708960Y875960D01*
X9714380Y878080D01*
X9718440Y883370D01*
X9721150Y889720D01*
X9723180Y898180D01*
X9723860Y907710D01*
X9723180Y917230D01*
X9721150Y925700D01*
X9718440Y932050D01*
X9714380Y937340D01*
X9708960Y939460D01*
G01X9764840Y873840D02*
X9763490Y874900D01*
Y877020D01*
X9764840Y878080D01*
X9766190Y877020D01*
Y874900D01*
X9764840Y873840D01*
G01X9820720Y939460D02*
X9815300Y937340D01*
X9811240Y932050D01*
X9808530Y925700D01*
X9806500Y917230D01*
X9805820Y907710D01*
X9806500Y898180D01*
X9808530Y889720D01*
X9811240Y883370D01*
X9815300Y878080D01*
X9820720Y875960D01*
X9826140Y878080D01*
X9830200Y883370D01*
X9832910Y889720D01*
X9834940Y898180D01*
X9835620Y907710D01*
X9834940Y917230D01*
X9832910Y925700D01*
X9830200Y932050D01*
X9826140Y937340D01*
X9820720Y939460D01*
G01X9861700Y888660D02*
X9865760Y881250D01*
X9871180Y877020D01*
X9877280Y875960D01*
X9882700Y877020D01*
X9888120Y882310D01*
X9891500Y888660D01*
X9892180Y895010D01*
X9890820Y902420D01*
X9886080Y907710D01*
X9881340Y909830D01*
X9875250D01*
G01X9881340D02*
X9885410Y913000D01*
X9888790Y918290D01*
X9890150Y924640D01*
X9888790Y930990D01*
X9885410Y936280D01*
X9879310Y939460D01*
X9873210Y938400D01*
X9867120Y934170D01*
G01X9932480Y939460D02*
X9927060Y937340D01*
X9923000Y932050D01*
X9920290Y925700D01*
X9918260Y917230D01*
X9917580Y907710D01*
X9918260Y898180D01*
X9920290Y889720D01*
X9923000Y883370D01*
X9927060Y878080D01*
X9932480Y875960D01*
X9937900Y878080D01*
X9941960Y883370D01*
X9944670Y889720D01*
X9946700Y898180D01*
X9947380Y907710D01*
X9946700Y917230D01*
X9944670Y925700D01*
X9941960Y932050D01*
X9937900Y937340D01*
X9932480Y939460D01*
G01X9973460Y885480D02*
X9977520Y880190D01*
X9982260Y877020D01*
X9988360Y875960D01*
X9994460Y878080D01*
X9999200Y882310D01*
X10002580Y889720D01*
X10003260Y898180D01*
X10001910Y906650D01*
X9998520Y911940D01*
X9993780Y916180D01*
X9989040Y917230D01*
X9984300Y916180D01*
X9978200Y911940D01*
X9980230Y939460D01*
X9998520D01*
G01X10082510Y875960D02*
Y939460D01*
X10100120Y886540D01*
X10117730Y939460D01*
Y875960D01*
G01X10138390D02*
Y939460D01*
X10156000Y886540D01*
X10173610Y939460D01*
Y875960D01*
G01X8297060Y403680D02*
X8326860Y450250D01*
G01X8311960Y458720D02*
Y395220D01*
G01X8326860Y403680D02*
X8297060Y450250D01*
G01X8291640Y426970D02*
X8332280D01*
G01X8464700Y405800D02*
Y469300D01*
X8478250D01*
X8483660Y466120D01*
X8487730Y461890D01*
X8491120Y455540D01*
X8493820Y448130D01*
X8494500Y437550D01*
X8493820Y426970D01*
X8491120Y419560D01*
X8487730Y413210D01*
X8483660Y408970D01*
X8478250Y405800D01*
X8464700D01*
G01X8527350Y469300D02*
X8543610D01*
G01X8535480D02*
Y405800D01*
G01X8527350D02*
X8543610D01*
G01X8604910D02*
X8577810D01*
Y469300D01*
X8604910D01*
G01X8594070Y438610D02*
X8577810D01*
G01X8633690Y469300D02*
Y405800D01*
X8660790D01*
G01X8716670D02*
X8689570D01*
Y469300D01*
X8716670D01*
G01X8705830Y438610D02*
X8689570D01*
G01X8773900Y464010D02*
X8769840Y467180D01*
X8765100Y469300D01*
X8759680D01*
X8753580Y466120D01*
X8748840Y460830D01*
X8745450Y454480D01*
X8742740Y443900D01*
X8742070Y434370D01*
X8743420Y424850D01*
X8745450Y418500D01*
X8749520Y412150D01*
X8754260Y407920D01*
X8759000Y405800D01*
X8763740D01*
X8768480Y407920D01*
X8772550Y411090D01*
X8775930Y415320D01*
G01X8814880Y469300D02*
Y405800D01*
G01X8799300Y469300D02*
X8830460D01*
G01X8857210Y405800D02*
Y469300D01*
X8874150D01*
X8879570Y466120D01*
X8882950Y461890D01*
X8884310Y453420D01*
X8882950Y444960D01*
X8878890Y439670D01*
X8874150Y436490D01*
X8857210D01*
G01X8874150D02*
X8884310Y405800D01*
G01X8918510Y469300D02*
X8934770D01*
G01X8926640D02*
Y405800D01*
G01X8918510D02*
X8934770D01*
G01X8997420Y464010D02*
X8993360Y467180D01*
X8988620Y469300D01*
X8983200D01*
X8977100Y466120D01*
X8972360Y460830D01*
X8968970Y454480D01*
X8966260Y443900D01*
X8965590Y434370D01*
X8966940Y424850D01*
X8968970Y418500D01*
X8973040Y412150D01*
X8977780Y407920D01*
X8982520Y405800D01*
X8987260D01*
X8992000Y407920D01*
X8996070Y411090D01*
X8999450Y415320D01*
G01X9085470Y426970D02*
X9103090D01*
G01X9193170Y405800D02*
Y469300D01*
X9218910D01*
G01X9209430Y438610D02*
X9193170D01*
G01X9248370Y405800D02*
Y469300D01*
X9265310D01*
X9270730Y466120D01*
X9274110Y461890D01*
X9275470Y453420D01*
X9274110Y444960D01*
X9270050Y439670D01*
X9265310Y436490D01*
X9248370D01*
G01X9265310D02*
X9275470Y405800D01*
G01X9308990Y426970D02*
X9326610D01*
G01X9381810Y405800D02*
Y469300D01*
X9356750Y423790D01*
X9390610D01*
G01X9485440Y469300D02*
X9480020Y467180D01*
X9475960Y461890D01*
X9473250Y455540D01*
X9471220Y447070D01*
X9470540Y437550D01*
X9471220Y428020D01*
X9473250Y419560D01*
X9475960Y413210D01*
X9480020Y407920D01*
X9485440Y405800D01*
X9490860Y407920D01*
X9494920Y413210D01*
X9497630Y419560D01*
X9499660Y428020D01*
X9500340Y437550D01*
X9499660Y447070D01*
X9497630Y455540D01*
X9494920Y461890D01*
X9490860Y467180D01*
X9485440Y469300D01*
G01X9541320Y403680D02*
X9539970Y404740D01*
Y406860D01*
X9541320Y407920D01*
X9542670Y406860D01*
Y404740D01*
X9541320Y403680D01*
G01X9584330Y458720D02*
X9588390Y465070D01*
X9593140Y468240D01*
X9598550Y469300D01*
X9605330Y467180D01*
X9610070Y461890D01*
X9611420Y455540D01*
X9610750Y449190D01*
X9608040Y443900D01*
X9594490Y433320D01*
X9588390Y425910D01*
X9584330Y415320D01*
X9582980Y405800D01*
X9611420D01*
G01X9653080Y469300D02*
X9647660Y467180D01*
X9643600Y461890D01*
X9640890Y455540D01*
X9638860Y447070D01*
X9638180Y437550D01*
X9638860Y428020D01*
X9640890Y419560D01*
X9643600Y413210D01*
X9647660Y407920D01*
X9653080Y405800D01*
X9658500Y407920D01*
X9662560Y413210D01*
X9665270Y419560D01*
X9667300Y428020D01*
X9667980Y437550D01*
X9667300Y447070D01*
X9665270Y455540D01*
X9662560Y461890D01*
X9658500Y467180D01*
X9653080Y469300D01*
G01X9694060Y418500D02*
X9698120Y411090D01*
X9703540Y406860D01*
X9709640Y405800D01*
X9715060Y406860D01*
X9720480Y412150D01*
X9723860Y418500D01*
X9724540Y424850D01*
X9723180Y432260D01*
X9718440Y437550D01*
X9713700Y439670D01*
X9707610D01*
G01X9713700D02*
X9717770Y442840D01*
X9721150Y448130D01*
X9722510Y454480D01*
X9721150Y460830D01*
X9717770Y466120D01*
X9711670Y469300D01*
X9705570Y468240D01*
X9699480Y464010D01*
G01X9751970Y458720D02*
X9756030Y465070D01*
X9760780Y468240D01*
X9766190Y469300D01*
X9772970Y467180D01*
X9777710Y461890D01*
X9779060Y455540D01*
X9778390Y449190D01*
X9775680Y443900D01*
X9762130Y433320D01*
X9756030Y425910D01*
X9751970Y415320D01*
X9750620Y405800D01*
X9779060D01*
G01X9858990D02*
Y469300D01*
X9876600Y416380D01*
X9894210Y469300D01*
Y405800D01*
G01X9914870D02*
Y469300D01*
X9932480Y416380D01*
X9950090Y469300D01*
Y405800D01*
G01X8186650Y-42080D02*
Y-105580D01*
X8213750D01*
G01X8243210Y-79120D02*
X8247950Y-71710D01*
X8252020Y-67480D01*
X8257430Y-65360D01*
X8262180Y-67480D01*
X8265560Y-71710D01*
X8268270Y-78060D01*
X8268950Y-85470D01*
X8268270Y-91820D01*
X8265560Y-98170D01*
X8261500Y-103460D01*
X8256760Y-105580D01*
X8251340Y-103460D01*
X8246600Y-97120D01*
X8243890Y-87590D01*
X8243210Y-77010D01*
X8244560Y-63250D01*
X8246600Y-55840D01*
X8249980Y-48430D01*
X8254730Y-43140D01*
X8259470Y-42080D01*
X8264210Y-44200D01*
X8267600Y-49490D01*
G01X8311960Y-107700D02*
X8310610Y-106640D01*
Y-104520D01*
X8311960Y-103460D01*
X8313310Y-104520D01*
Y-106640D01*
X8311960Y-107700D01*
G01Y-79120D02*
X8310610Y-78060D01*
Y-75950D01*
X8311960Y-74890D01*
X8313310Y-75950D01*
Y-78060D01*
X8311960Y-79120D01*
G01X8429140Y-71710D02*
X8431850Y-68540D01*
X8433880Y-63250D01*
X8435240Y-55840D01*
X8433880Y-49490D01*
X8431170Y-45260D01*
X8426430Y-42080D01*
X8408140D01*
Y-105580D01*
X8430490D01*
X8435240Y-101350D01*
X8437940Y-95000D01*
X8439300Y-87590D01*
X8437940Y-80180D01*
X8433880Y-73830D01*
X8429140Y-71710D01*
X8408140D01*
G01X8479600Y-105580D02*
X8474180Y-104520D01*
X8469440Y-100290D01*
X8465380Y-93940D01*
X8462670Y-86530D01*
X8461310Y-78060D01*
Y-69600D01*
X8462670Y-61130D01*
X8465380Y-53720D01*
X8469440Y-47370D01*
X8474180Y-43140D01*
X8479600Y-42080D01*
X8485020Y-43140D01*
X8489760Y-47370D01*
X8493820Y-53720D01*
X8496530Y-61130D01*
X8497890Y-69600D01*
Y-78060D01*
X8496530Y-86530D01*
X8493820Y-93940D01*
X8489760Y-100290D01*
X8485020Y-104520D01*
X8479600Y-105580D01*
G01X8535480Y-42080D02*
Y-105580D01*
G01X8519900Y-42080D02*
X8551060D01*
G01X8591360D02*
Y-105580D01*
G01X8575780Y-42080D02*
X8606940D01*
G01X8647240Y-105580D02*
X8641820Y-104520D01*
X8637080Y-100290D01*
X8633020Y-93940D01*
X8630310Y-86530D01*
X8628950Y-78060D01*
Y-69600D01*
X8630310Y-61130D01*
X8633020Y-53720D01*
X8637080Y-47370D01*
X8641820Y-43140D01*
X8647240Y-42080D01*
X8652660Y-43140D01*
X8657400Y-47370D01*
X8661460Y-53720D01*
X8664170Y-61130D01*
X8665530Y-69600D01*
Y-78060D01*
X8664170Y-86530D01*
X8661460Y-93940D01*
X8657400Y-100290D01*
X8652660Y-104520D01*
X8647240Y-105580D01*
G01X8685510D02*
Y-42080D01*
X8703120Y-95000D01*
X8720730Y-42080D01*
Y-105580D01*
G01X8829780Y-47370D02*
X8825720Y-44200D01*
X8820980Y-42080D01*
X8815560D01*
X8809460Y-45260D01*
X8804720Y-50550D01*
X8801330Y-56900D01*
X8798620Y-67480D01*
X8797950Y-77010D01*
X8799300Y-86530D01*
X8801330Y-92880D01*
X8805400Y-99230D01*
X8810140Y-103460D01*
X8814880Y-105580D01*
X8819620D01*
X8824360Y-103460D01*
X8828430Y-100290D01*
X8831810Y-96060D01*
G01X8870760Y-105580D02*
X8865340Y-104520D01*
X8860600Y-100290D01*
X8856540Y-93940D01*
X8853830Y-86530D01*
X8852470Y-78060D01*
Y-69600D01*
X8853830Y-61130D01*
X8856540Y-53720D01*
X8860600Y-47370D01*
X8865340Y-43140D01*
X8870760Y-42080D01*
X8876180Y-43140D01*
X8880920Y-47370D01*
X8884980Y-53720D01*
X8887690Y-61130D01*
X8889050Y-69600D01*
Y-78060D01*
X8887690Y-86530D01*
X8884980Y-93940D01*
X8880920Y-100290D01*
X8876180Y-104520D01*
X8870760Y-105580D01*
G01X8911060D02*
Y-42080D01*
X8942220Y-105580D01*
Y-42080D01*
G01X8967620Y-105580D02*
Y-42080D01*
X8981170D01*
X8986580Y-45260D01*
X8990650Y-49490D01*
X8994040Y-55840D01*
X8996740Y-63250D01*
X8997420Y-73830D01*
X8996740Y-84410D01*
X8994040Y-91820D01*
X8990650Y-98170D01*
X8986580Y-102410D01*
X8981170Y-105580D01*
X8967620D01*
G01X9023500Y-42080D02*
Y-87590D01*
X9026210Y-97120D01*
X9031630Y-103460D01*
X9038400Y-105580D01*
X9045170Y-103460D01*
X9050590Y-97120D01*
X9053300Y-87590D01*
Y-42080D01*
G01X9109180Y-47370D02*
X9105120Y-44200D01*
X9100380Y-42080D01*
X9094960D01*
X9088860Y-45260D01*
X9084120Y-50550D01*
X9080730Y-56900D01*
X9078020Y-67480D01*
X9077350Y-77010D01*
X9078700Y-86530D01*
X9080730Y-92880D01*
X9084800Y-99230D01*
X9089540Y-103460D01*
X9094280Y-105580D01*
X9099020D01*
X9103760Y-103460D01*
X9107830Y-100290D01*
X9111210Y-96060D01*
G01X9150160Y-42080D02*
Y-105580D01*
G01X9134580Y-42080D02*
X9165740D01*
G01X9206040Y-105580D02*
X9200620Y-104520D01*
X9195880Y-100290D01*
X9191820Y-93940D01*
X9189110Y-86530D01*
X9187750Y-78060D01*
Y-69600D01*
X9189110Y-61130D01*
X9191820Y-53720D01*
X9195880Y-47370D01*
X9200620Y-43140D01*
X9206040Y-42080D01*
X9211460Y-43140D01*
X9216200Y-47370D01*
X9220260Y-53720D01*
X9222970Y-61130D01*
X9224330Y-69600D01*
Y-78060D01*
X9222970Y-86530D01*
X9220260Y-93940D01*
X9216200Y-100290D01*
X9211460Y-104520D01*
X9206040Y-105580D01*
G01X9248370D02*
Y-42080D01*
X9265310D01*
X9270730Y-45260D01*
X9274110Y-49490D01*
X9275470Y-57960D01*
X9274110Y-66420D01*
X9270050Y-71710D01*
X9265310Y-74890D01*
X9248370D01*
G01X9265310D02*
X9275470Y-105580D01*
G01X9364870Y-84410D02*
X9382490D01*
G01X9500340Y-47370D02*
X9496280Y-44200D01*
X9491540Y-42080D01*
X9486120D01*
X9480020Y-45260D01*
X9475280Y-50550D01*
X9471890Y-56900D01*
X9469180Y-67480D01*
X9468510Y-77010D01*
X9469860Y-86530D01*
X9471890Y-92880D01*
X9475960Y-99230D01*
X9480700Y-103460D01*
X9485440Y-105580D01*
X9490180D01*
X9494920Y-103460D01*
X9498990Y-100290D01*
X9502370Y-96060D01*
G01X9541320Y-105580D02*
X9535900Y-104520D01*
X9531160Y-100290D01*
X9527100Y-93940D01*
X9524390Y-86530D01*
X9523030Y-78060D01*
Y-69600D01*
X9524390Y-61130D01*
X9527100Y-53720D01*
X9531160Y-47370D01*
X9535900Y-43140D01*
X9541320Y-42080D01*
X9546740Y-43140D01*
X9551480Y-47370D01*
X9555540Y-53720D01*
X9558250Y-61130D01*
X9559610Y-69600D01*
Y-78060D01*
X9558250Y-86530D01*
X9555540Y-93940D01*
X9551480Y-100290D01*
X9546740Y-104520D01*
X9541320Y-105580D01*
G01X9583650D02*
Y-42080D01*
X9599910D01*
X9605330Y-45260D01*
X9609390Y-52660D01*
X9610750Y-61130D01*
X9609390Y-69600D01*
X9606010Y-75950D01*
X9599910Y-79120D01*
X9583650D01*
G01X9639530Y-105580D02*
Y-42080D01*
X9655790D01*
X9661210Y-45260D01*
X9665270Y-52660D01*
X9666630Y-61130D01*
X9665270Y-69600D01*
X9661890Y-75950D01*
X9655790Y-79120D01*
X9639530D01*
G01X9722510Y-105580D02*
X9695410D01*
Y-42080D01*
X9722510D01*
G01X9711670Y-72770D02*
X9695410D01*
G01X9751290Y-105580D02*
Y-42080D01*
X9768230D01*
X9773650Y-45260D01*
X9777030Y-49490D01*
X9778390Y-57960D01*
X9777030Y-66420D01*
X9772970Y-71710D01*
X9768230Y-74890D01*
X9751290D01*
G01X9768230D02*
X9778390Y-105580D01*
G01X9876600Y-42080D02*
X9871180Y-44200D01*
X9867120Y-49490D01*
X9864410Y-55840D01*
X9862380Y-64310D01*
X9861700Y-73830D01*
X9862380Y-83360D01*
X9864410Y-91820D01*
X9867120Y-98170D01*
X9871180Y-103460D01*
X9876600Y-105580D01*
X9882020Y-103460D01*
X9886080Y-98170D01*
X9888790Y-91820D01*
X9890820Y-83360D01*
X9891500Y-73830D01*
X9890820Y-64310D01*
X9888790Y-55840D01*
X9886080Y-49490D01*
X9882020Y-44200D01*
X9876600Y-42080D01*
G01X9932480Y-107700D02*
X9931130Y-106640D01*
Y-104520D01*
X9932480Y-103460D01*
X9933830Y-104520D01*
Y-106640D01*
X9932480Y-107700D01*
G01X9988360Y-42080D02*
X9982940Y-44200D01*
X9978880Y-49490D01*
X9976170Y-55840D01*
X9974140Y-64310D01*
X9973460Y-73830D01*
X9974140Y-83360D01*
X9976170Y-91820D01*
X9978880Y-98170D01*
X9982940Y-103460D01*
X9988360Y-105580D01*
X9993780Y-103460D01*
X9997840Y-98170D01*
X10000550Y-91820D01*
X10002580Y-83360D01*
X10003260Y-73830D01*
X10002580Y-64310D01*
X10000550Y-55840D01*
X9997840Y-49490D01*
X9993780Y-44200D01*
X9988360Y-42080D01*
G01X10029340Y-92880D02*
X10033400Y-100290D01*
X10038820Y-104520D01*
X10044920Y-105580D01*
X10050340Y-104520D01*
X10055760Y-99230D01*
X10059140Y-92880D01*
X10059820Y-86530D01*
X10058460Y-79120D01*
X10053720Y-73830D01*
X10048980Y-71710D01*
X10042890D01*
G01X10048980D02*
X10053050Y-68540D01*
X10056430Y-63250D01*
X10057790Y-56900D01*
X10056430Y-50550D01*
X10053050Y-45260D01*
X10046950Y-42080D01*
X10040850Y-43140D01*
X10034760Y-47370D01*
G01X10100120Y-42080D02*
X10094700Y-44200D01*
X10090640Y-49490D01*
X10087930Y-55840D01*
X10085900Y-64310D01*
X10085220Y-73830D01*
X10085900Y-83360D01*
X10087930Y-91820D01*
X10090640Y-98170D01*
X10094700Y-103460D01*
X10100120Y-105580D01*
X10105540Y-103460D01*
X10109600Y-98170D01*
X10112310Y-91820D01*
X10114340Y-83360D01*
X10115020Y-73830D01*
X10114340Y-64310D01*
X10112310Y-55840D01*
X10109600Y-49490D01*
X10105540Y-44200D01*
X10100120Y-42080D01*
G01X10141100Y-96060D02*
X10145160Y-101350D01*
X10149900Y-104520D01*
X10156000Y-105580D01*
X10162100Y-103460D01*
X10166840Y-99230D01*
X10170220Y-91820D01*
X10170900Y-83360D01*
X10169550Y-74890D01*
X10166160Y-69600D01*
X10161420Y-65360D01*
X10156680Y-64310D01*
X10151940Y-65360D01*
X10145840Y-69600D01*
X10147870Y-42080D01*
X10166160D01*
G01X10250150Y-105580D02*
Y-42080D01*
X10267760Y-95000D01*
X10285370Y-42080D01*
Y-105580D01*
G01X10306030D02*
Y-42080D01*
X10323640Y-95000D01*
X10341250Y-42080D01*
Y-105580D01*
G01X8297060Y-235800D02*
X8326860Y-189230D01*
G01X8311960Y-180760D02*
Y-244260D01*
G01X8326860Y-235800D02*
X8297060Y-189230D01*
G01X8291640Y-212510D02*
X8332280D01*
G01X8465380Y-225220D02*
X8470790Y-230510D01*
X8476890Y-233680D01*
X8482310D01*
X8487730Y-230510D01*
X8491790Y-225220D01*
X8493820Y-217800D01*
X8492470Y-210400D01*
X8489080Y-204050D01*
X8482990Y-199810D01*
X8474860Y-197700D01*
X8470120Y-193460D01*
X8468080Y-186060D01*
X8469440Y-178650D01*
X8472830Y-173360D01*
X8477570Y-170180D01*
X8482310D01*
X8487050Y-172300D01*
X8491120Y-177590D01*
G01X8520580Y-170180D02*
Y-215690D01*
X8523290Y-225220D01*
X8528710Y-231560D01*
X8535480Y-233680D01*
X8542250Y-231560D01*
X8547670Y-225220D01*
X8550380Y-215690D01*
Y-170180D01*
G01X8577810Y-233680D02*
Y-170180D01*
X8594750D01*
X8600170Y-173360D01*
X8603550Y-177590D01*
X8604910Y-186060D01*
X8603550Y-194520D01*
X8599490Y-199810D01*
X8594750Y-202990D01*
X8577810D01*
G01X8594750D02*
X8604910Y-233680D01*
G01X8634370D02*
Y-170180D01*
X8660110D01*
G01X8650630Y-200870D02*
X8634370D01*
G01X8686190Y-233680D02*
X8703120Y-170180D01*
X8720050Y-233680D01*
G01X8713960Y-211460D02*
X8692280D01*
G01X8773900Y-175470D02*
X8769840Y-172300D01*
X8765100Y-170180D01*
X8759680D01*
X8753580Y-173360D01*
X8748840Y-178650D01*
X8745450Y-185000D01*
X8742740Y-195580D01*
X8742070Y-205110D01*
X8743420Y-214630D01*
X8745450Y-220980D01*
X8749520Y-227330D01*
X8754260Y-231560D01*
X8759000Y-233680D01*
X8763740D01*
X8768480Y-231560D01*
X8772550Y-228390D01*
X8775930Y-224160D01*
G01X8828430Y-233680D02*
X8801330D01*
Y-170180D01*
X8828430D01*
G01X8817590Y-200870D02*
X8801330D01*
G01X8917830Y-212510D02*
X8935450D01*
G01X9021470Y-233680D02*
X9038400Y-170180D01*
X9055330Y-233680D01*
G01X9049240Y-211460D02*
X9027560D01*
G01X9086150Y-170180D02*
X9102410D01*
G01X9094280D02*
Y-233680D01*
G01X9086150D02*
X9102410D01*
G01X9136610D02*
Y-170180D01*
X9153550D01*
X9158970Y-173360D01*
X9162350Y-177590D01*
X9163710Y-186060D01*
X9162350Y-194520D01*
X9158290Y-199810D01*
X9153550Y-202990D01*
X9136610D01*
G01X9153550D02*
X9163710Y-233680D01*
G01X9261920Y-170180D02*
X9256500Y-172300D01*
X9252440Y-177590D01*
X9249730Y-183940D01*
X9247700Y-192410D01*
X9247020Y-201930D01*
X9247700Y-211460D01*
X9249730Y-219920D01*
X9252440Y-226270D01*
X9256500Y-231560D01*
X9261920Y-233680D01*
X9267340Y-231560D01*
X9271400Y-226270D01*
X9274110Y-219920D01*
X9276140Y-211460D01*
X9276820Y-201930D01*
X9276140Y-192410D01*
X9274110Y-183940D01*
X9271400Y-177590D01*
X9267340Y-172300D01*
X9261920Y-170180D01*
G01X9356070Y-233680D02*
Y-170180D01*
X9373680Y-223100D01*
X9391290Y-170180D01*
Y-233680D01*
G01X9411950D02*
Y-170180D01*
X9429560Y-223100D01*
X9447170Y-170180D01*
Y-233680D01*
G01X6648600Y-381840D02*
Y-318340D01*
X6662150D01*
X6667560Y-321520D01*
X6671630Y-325750D01*
X6675020Y-332100D01*
X6677720Y-339510D01*
X6678400Y-350090D01*
X6677720Y-360670D01*
X6675020Y-368080D01*
X6671630Y-374430D01*
X6667560Y-378670D01*
X6662150Y-381840D01*
X6648600D01*
G01X6732930D02*
X6705830D01*
Y-318340D01*
X6732930D01*
G01X6722090Y-349030D02*
X6705830D01*
G01X6761040Y-373380D02*
X6766450Y-378670D01*
X6772550Y-381840D01*
X6777970D01*
X6783390Y-378670D01*
X6787450Y-373380D01*
X6789480Y-365960D01*
X6788130Y-358560D01*
X6784740Y-352210D01*
X6778650Y-347970D01*
X6770520Y-345860D01*
X6765780Y-341620D01*
X6763740Y-334220D01*
X6765100Y-326810D01*
X6768490Y-321520D01*
X6773230Y-318340D01*
X6777970D01*
X6782710Y-320460D01*
X6786780Y-325750D01*
G01X6823010Y-318340D02*
X6839270D01*
G01X6831140D02*
Y-381840D01*
G01X6823010D02*
X6839270D01*
G01X6891080Y-350090D02*
X6904630D01*
Y-369140D01*
X6900570Y-375490D01*
X6895830Y-379720D01*
X6889050Y-381840D01*
X6882280Y-379720D01*
X6877540Y-375490D01*
X6873470Y-369140D01*
X6870760Y-361730D01*
X6869410Y-353270D01*
Y-345860D01*
X6870760Y-339510D01*
X6873470Y-332100D01*
X6877540Y-325750D01*
X6881600Y-321520D01*
X6887020Y-318340D01*
X6891760D01*
X6897180Y-320460D01*
X6901240Y-324690D01*
G01X6927320Y-381840D02*
Y-318340D01*
X6958480Y-381840D01*
Y-318340D01*
G01X7069560Y-323630D02*
X7065500Y-320460D01*
X7060760Y-318340D01*
X7055340D01*
X7049240Y-321520D01*
X7044500Y-326810D01*
X7041110Y-333160D01*
X7038400Y-343740D01*
X7037730Y-353270D01*
X7039080Y-362790D01*
X7041110Y-369140D01*
X7045180Y-375490D01*
X7049920Y-379720D01*
X7054660Y-381840D01*
X7059400D01*
X7064140Y-379720D01*
X7068210Y-376550D01*
X7071590Y-372320D01*
G01X7096990Y-381840D02*
Y-318340D01*
X7113930D01*
X7119350Y-321520D01*
X7122730Y-325750D01*
X7124090Y-334220D01*
X7122730Y-342680D01*
X7118670Y-347970D01*
X7113930Y-351150D01*
X7096990D01*
G01X7113930D02*
X7124090Y-381840D01*
G01X7166420D02*
X7161000Y-380780D01*
X7156260Y-376550D01*
X7152200Y-370200D01*
X7149490Y-362790D01*
X7148130Y-354320D01*
Y-345860D01*
X7149490Y-337390D01*
X7152200Y-329980D01*
X7156260Y-323630D01*
X7161000Y-319400D01*
X7166420Y-318340D01*
X7171840Y-319400D01*
X7176580Y-323630D01*
X7180640Y-329980D01*
X7183350Y-337390D01*
X7184710Y-345860D01*
Y-354320D01*
X7183350Y-362790D01*
X7180640Y-370200D01*
X7176580Y-376550D01*
X7171840Y-380780D01*
X7166420Y-381840D01*
G01X7208080Y-373380D02*
X7213490Y-378670D01*
X7219590Y-381840D01*
X7225010D01*
X7230430Y-378670D01*
X7234490Y-373380D01*
X7236520Y-365960D01*
X7235170Y-358560D01*
X7231780Y-352210D01*
X7225690Y-347970D01*
X7217560Y-345860D01*
X7212820Y-341620D01*
X7210780Y-334220D01*
X7212140Y-326810D01*
X7215530Y-321520D01*
X7220270Y-318340D01*
X7225010D01*
X7229750Y-320460D01*
X7233820Y-325750D01*
G01X7263960Y-373380D02*
X7269370Y-378670D01*
X7275470Y-381840D01*
X7280890D01*
X7286310Y-378670D01*
X7290370Y-373380D01*
X7292400Y-365960D01*
X7291050Y-358560D01*
X7287660Y-352210D01*
X7281570Y-347970D01*
X7273440Y-345860D01*
X7268700Y-341620D01*
X7266660Y-334220D01*
X7268020Y-326810D01*
X7271410Y-321520D01*
X7276150Y-318340D01*
X7280890D01*
X7285630Y-320460D01*
X7289700Y-325750D01*
G01X7375720Y-373380D02*
X7381130Y-378670D01*
X7387230Y-381840D01*
X7392650D01*
X7398070Y-378670D01*
X7402130Y-373380D01*
X7404160Y-365960D01*
X7402810Y-358560D01*
X7399420Y-352210D01*
X7393330Y-347970D01*
X7385200Y-345860D01*
X7380460Y-341620D01*
X7378420Y-334220D01*
X7379780Y-326810D01*
X7383170Y-321520D01*
X7387910Y-318340D01*
X7392650D01*
X7397390Y-320460D01*
X7401460Y-325750D01*
G01X7459370Y-381840D02*
X7432270D01*
Y-318340D01*
X7459370D01*
G01X7448530Y-349030D02*
X7432270D01*
G01X7516600Y-323630D02*
X7512540Y-320460D01*
X7507800Y-318340D01*
X7502380D01*
X7496280Y-321520D01*
X7491540Y-326810D01*
X7488150Y-333160D01*
X7485440Y-343740D01*
X7484770Y-353270D01*
X7486120Y-362790D01*
X7488150Y-369140D01*
X7492220Y-375490D01*
X7496960Y-379720D01*
X7501700Y-381840D01*
X7506440D01*
X7511180Y-379720D01*
X7515250Y-376550D01*
X7518630Y-372320D01*
G01X7557580Y-318340D02*
Y-381840D01*
G01X7542000Y-318340D02*
X7573160D01*
G01X7605330D02*
X7621590D01*
G01X7613460D02*
Y-381840D01*
G01X7605330D02*
X7621590D01*
G01X7669340D02*
X7663920Y-380780D01*
X7659180Y-376550D01*
X7655120Y-370200D01*
X7652410Y-362790D01*
X7651050Y-354320D01*
Y-345860D01*
X7652410Y-337390D01*
X7655120Y-329980D01*
X7659180Y-323630D01*
X7663920Y-319400D01*
X7669340Y-318340D01*
X7674760Y-319400D01*
X7679500Y-323630D01*
X7683560Y-329980D01*
X7686270Y-337390D01*
X7687630Y-345860D01*
Y-354320D01*
X7686270Y-362790D01*
X7683560Y-370200D01*
X7679500Y-376550D01*
X7674760Y-380780D01*
X7669340Y-381840D01*
G01X7709640D02*
Y-318340D01*
X7740800Y-381840D01*
Y-318340D01*
G01X7851880Y-323630D02*
X7847820Y-320460D01*
X7843080Y-318340D01*
X7837660D01*
X7831560Y-321520D01*
X7826820Y-326810D01*
X7823430Y-333160D01*
X7820720Y-343740D01*
X7820050Y-353270D01*
X7821400Y-362790D01*
X7823430Y-369140D01*
X7827500Y-375490D01*
X7832240Y-379720D01*
X7836980Y-381840D01*
X7841720D01*
X7846460Y-379720D01*
X7850530Y-376550D01*
X7853910Y-372320D01*
G01X7878640Y-381840D02*
Y-318340D01*
G01X7907080D02*
Y-381840D01*
G01Y-350090D02*
X7878640D01*
G01X7931810Y-381840D02*
X7948740Y-318340D01*
X7965670Y-381840D01*
G01X7959580Y-359620D02*
X7937900D01*
G01X7991070Y-381840D02*
Y-318340D01*
X8008010D01*
X8013430Y-321520D01*
X8016810Y-325750D01*
X8018170Y-334220D01*
X8016810Y-342680D01*
X8012750Y-347970D01*
X8008010Y-351150D01*
X7991070D01*
G01X8008010D02*
X8018170Y-381840D01*
G01X8060500Y-318340D02*
Y-381840D01*
G01X8044920Y-318340D02*
X8076080D01*
G01X6615240Y-403010D02*
X6655880D01*
G01X6671120D02*
X6711760D01*
G01X6727000D02*
X6767640D01*
G01X6782880D02*
X6823520D01*
G01X6838760D02*
X6879400D01*
G01X6894640D02*
X6935280D01*
G01X6950520D02*
X6991160D01*
G01X7006400D02*
X7047040D01*
G01X7062280D02*
X7102920D01*
G01X7118160D02*
X7158800D01*
G01X7174040D02*
X7214680D01*
G01X7229920D02*
X7270560D01*
G01X7285800D02*
X7326440D01*
G01X7341680D02*
X7382320D01*
G01X7397560D02*
X7438200D01*
G01X7453440D02*
X7494080D01*
G01X7509320D02*
X7549960D01*
G01X7565200D02*
X7605840D01*
G01X7621080D02*
X7661720D01*
G01X7676960D02*
X7717600D01*
G01X7732840D02*
X7773480D01*
G01X7788720D02*
X7829360D01*
G01X7844600D02*
X7885240D01*
G01X7900480D02*
X7941120D01*
G01X7956360D02*
X7997000D01*
G01X8012240D02*
X8052880D01*
G01X8068120D02*
X8108760D01*
G01X6719380Y-445340D02*
Y-508840D01*
G01X6703800Y-445340D02*
X6734960D01*
G01X6775260Y-508840D02*
X6769840Y-507780D01*
X6765100Y-503550D01*
X6761040Y-497200D01*
X6758330Y-489790D01*
X6756970Y-481320D01*
Y-472860D01*
X6758330Y-464390D01*
X6761040Y-456980D01*
X6765100Y-450630D01*
X6769840Y-446400D01*
X6775260Y-445340D01*
X6780680Y-446400D01*
X6785420Y-450630D01*
X6789480Y-456980D01*
X6792190Y-464390D01*
X6793550Y-472860D01*
Y-481320D01*
X6792190Y-489790D01*
X6789480Y-497200D01*
X6785420Y-503550D01*
X6780680Y-507780D01*
X6775260Y-508840D01*
G01X6831140Y-445340D02*
Y-508840D01*
G01X6815560Y-445340D02*
X6846720D01*
G01X6870090Y-508840D02*
X6887020Y-445340D01*
X6903950Y-508840D01*
G01X6897860Y-486620D02*
X6876180D01*
G01X6929350Y-445340D02*
Y-508840D01*
X6956450D01*
G01X7054660Y-445340D02*
Y-508840D01*
G01X7039080Y-445340D02*
X7070240D01*
G01X7096320Y-508840D02*
Y-445340D01*
G01X7124760D02*
Y-508840D01*
G01Y-477090D02*
X7096320D01*
G01X7158290Y-445340D02*
X7174550D01*
G01X7166420D02*
Y-508840D01*
G01X7158290D02*
X7174550D01*
G01X7237200Y-450630D02*
X7233140Y-447460D01*
X7228400Y-445340D01*
X7222980D01*
X7216880Y-448520D01*
X7212140Y-453810D01*
X7208750Y-460160D01*
X7206040Y-470740D01*
X7205370Y-480270D01*
X7206720Y-489790D01*
X7208750Y-496140D01*
X7212820Y-502490D01*
X7217560Y-506720D01*
X7222300Y-508840D01*
X7227040D01*
X7231780Y-506720D01*
X7235850Y-503550D01*
X7239230Y-499320D01*
G01X7263280Y-508840D02*
Y-445340D01*
G01X7289020D02*
X7263280Y-484500D01*
G01X7293080Y-508840D02*
X7274790Y-466510D01*
G01X7318480Y-508840D02*
Y-445340D01*
X7349640Y-508840D01*
Y-445340D01*
G01X7403490Y-508840D02*
X7376390D01*
Y-445340D01*
X7403490D01*
G01X7392650Y-476030D02*
X7376390D01*
G01X7431600Y-500380D02*
X7437010Y-505670D01*
X7443110Y-508840D01*
X7448530D01*
X7453950Y-505670D01*
X7458010Y-500380D01*
X7460040Y-492960D01*
X7458690Y-485560D01*
X7455300Y-479210D01*
X7449210Y-474970D01*
X7441080Y-472860D01*
X7436340Y-468620D01*
X7434300Y-461220D01*
X7435660Y-453810D01*
X7439050Y-448520D01*
X7443790Y-445340D01*
X7448530D01*
X7453270Y-447460D01*
X7457340Y-452750D01*
G01X7487480Y-500380D02*
X7492890Y-505670D01*
X7498990Y-508840D01*
X7504410D01*
X7509830Y-505670D01*
X7513890Y-500380D01*
X7515920Y-492960D01*
X7514570Y-485560D01*
X7511180Y-479210D01*
X7505090Y-474970D01*
X7496960Y-472860D01*
X7492220Y-468620D01*
X7490180Y-461220D01*
X7491540Y-453810D01*
X7494930Y-448520D01*
X7499670Y-445340D01*
X7504410D01*
X7509150Y-447460D01*
X7513220Y-452750D01*
G01X7613460Y-508840D02*
Y-445340D01*
X7605330Y-458040D01*
G01Y-508840D02*
X7621590D01*
G01X7669340Y-510960D02*
X7667990Y-509900D01*
Y-507780D01*
X7669340Y-506720D01*
X7670690Y-507780D01*
Y-509900D01*
X7669340Y-510960D01*
G01X7725220Y-508840D02*
Y-445340D01*
X7717090Y-458040D01*
G01Y-508840D02*
X7733350D01*
G01X7769580Y-501430D02*
X7774330Y-506720D01*
X7779750Y-508840D01*
X7785160Y-506720D01*
X7789910Y-500380D01*
X7793290Y-490850D01*
X7794650Y-481320D01*
Y-469680D01*
X7793290Y-460160D01*
X7789910Y-451690D01*
X7785840Y-447460D01*
X7781100Y-445340D01*
X7775680Y-447460D01*
X7771620Y-451690D01*
X7768910Y-458040D01*
X7767550Y-466510D01*
X7768910Y-473910D01*
X7772290Y-481320D01*
X7776360Y-485560D01*
X7781100Y-486620D01*
X7786520Y-484500D01*
X7790580Y-479210D01*
X7794650Y-469680D01*
G01X7825460Y-501430D02*
X7830210Y-506720D01*
X7835630Y-508840D01*
X7841040Y-506720D01*
X7845790Y-500380D01*
X7849170Y-490850D01*
X7850530Y-481320D01*
Y-469680D01*
X7849170Y-460160D01*
X7845790Y-451690D01*
X7841720Y-447460D01*
X7836980Y-445340D01*
X7831560Y-447460D01*
X7827500Y-451690D01*
X7824790Y-458040D01*
X7823430Y-466510D01*
X7824790Y-473910D01*
X7828170Y-481320D01*
X7832240Y-485560D01*
X7836980Y-486620D01*
X7842400Y-484500D01*
X7846460Y-479210D01*
X7850530Y-469680D01*
G01X7931130Y-508840D02*
Y-445340D01*
X7948740Y-498260D01*
X7966350Y-445340D01*
Y-508840D01*
G01X7987010D02*
Y-445340D01*
X8004620Y-498260D01*
X8022230Y-445340D01*
Y-508840D01*
G01X6600000Y960620D02*
Y1814060D01*
X8124000D01*
Y960620D01*
X6600000D01*
G01Y-20920D02*
Y832520D01*
X8124000D01*
Y-20920D01*
X6600000D01*
G01X8297060Y3348300D02*
X8326860Y3394870D01*
G01X8311960Y3403340D02*
Y3339840D01*
G01X8326860Y3348300D02*
X8297060Y3394870D01*
G01X8291640Y3371590D02*
X8332280D01*
G01X8464700Y3350420D02*
Y3413920D01*
X8478250D01*
X8483660Y3410740D01*
X8487730Y3406510D01*
X8491120Y3400160D01*
X8493820Y3392750D01*
X8494500Y3382170D01*
X8493820Y3371590D01*
X8491120Y3364180D01*
X8487730Y3357830D01*
X8483660Y3353590D01*
X8478250Y3350420D01*
X8464700D01*
G01X8527350Y3413920D02*
X8543610D01*
G01X8535480D02*
Y3350420D01*
G01X8527350D02*
X8543610D01*
G01X8604910D02*
X8577810D01*
Y3413920D01*
X8604910D01*
G01X8594070Y3383230D02*
X8577810D01*
G01X8633690Y3413920D02*
Y3350420D01*
X8660790D01*
G01X8716670D02*
X8689570D01*
Y3413920D01*
X8716670D01*
G01X8705830Y3383230D02*
X8689570D01*
G01X8773900Y3408630D02*
X8769840Y3411800D01*
X8765100Y3413920D01*
X8759680D01*
X8753580Y3410740D01*
X8748840Y3405450D01*
X8745450Y3399100D01*
X8742740Y3388520D01*
X8742070Y3378990D01*
X8743420Y3369470D01*
X8745450Y3363120D01*
X8749520Y3356770D01*
X8754260Y3352540D01*
X8759000Y3350420D01*
X8763740D01*
X8768480Y3352540D01*
X8772550Y3355710D01*
X8775930Y3359940D01*
G01X8814880Y3413920D02*
Y3350420D01*
G01X8799300Y3413920D02*
X8830460D01*
G01X8857210Y3350420D02*
Y3413920D01*
X8874150D01*
X8879570Y3410740D01*
X8882950Y3406510D01*
X8884310Y3398040D01*
X8882950Y3389580D01*
X8878890Y3384290D01*
X8874150Y3381110D01*
X8857210D01*
G01X8874150D02*
X8884310Y3350420D01*
G01X8918510Y3413920D02*
X8934770D01*
G01X8926640D02*
Y3350420D01*
G01X8918510D02*
X8934770D01*
G01X8997420Y3408630D02*
X8993360Y3411800D01*
X8988620Y3413920D01*
X8983200D01*
X8977100Y3410740D01*
X8972360Y3405450D01*
X8968970Y3399100D01*
X8966260Y3388520D01*
X8965590Y3378990D01*
X8966940Y3369470D01*
X8968970Y3363120D01*
X8973040Y3356770D01*
X8977780Y3352540D01*
X8982520Y3350420D01*
X8987260D01*
X8992000Y3352540D01*
X8996070Y3355710D01*
X8999450Y3359940D01*
G01X9085470Y3371590D02*
X9103090D01*
G01X9193170Y3350420D02*
Y3413920D01*
X9218910D01*
G01X9209430Y3383230D02*
X9193170D01*
G01X9248370Y3350420D02*
Y3413920D01*
X9265310D01*
X9270730Y3410740D01*
X9274110Y3406510D01*
X9275470Y3398040D01*
X9274110Y3389580D01*
X9270050Y3384290D01*
X9265310Y3381110D01*
X9248370D01*
G01X9265310D02*
X9275470Y3350420D01*
G01X9308990Y3371590D02*
X9326610D01*
G01X9381810Y3350420D02*
Y3413920D01*
X9356750Y3368410D01*
X9390610D01*
G01X9485440Y3413920D02*
X9480020Y3411800D01*
X9475960Y3406510D01*
X9473250Y3400160D01*
X9471220Y3391690D01*
X9470540Y3382170D01*
X9471220Y3372640D01*
X9473250Y3364180D01*
X9475960Y3357830D01*
X9480020Y3352540D01*
X9485440Y3350420D01*
X9490860Y3352540D01*
X9494920Y3357830D01*
X9497630Y3364180D01*
X9499660Y3372640D01*
X9500340Y3382170D01*
X9499660Y3391690D01*
X9497630Y3400160D01*
X9494920Y3406510D01*
X9490860Y3411800D01*
X9485440Y3413920D01*
G01X9541320Y3348300D02*
X9539970Y3349360D01*
Y3351480D01*
X9541320Y3352540D01*
X9542670Y3351480D01*
Y3349360D01*
X9541320Y3348300D01*
G01X9584330Y3403340D02*
X9588390Y3409690D01*
X9593140Y3412860D01*
X9598550Y3413920D01*
X9605330Y3411800D01*
X9610070Y3406510D01*
X9611420Y3400160D01*
X9610750Y3393810D01*
X9608040Y3388520D01*
X9594490Y3377940D01*
X9588390Y3370530D01*
X9584330Y3359940D01*
X9582980Y3350420D01*
X9611420D01*
G01X9653080Y3413920D02*
X9647660Y3411800D01*
X9643600Y3406510D01*
X9640890Y3400160D01*
X9638860Y3391690D01*
X9638180Y3382170D01*
X9638860Y3372640D01*
X9640890Y3364180D01*
X9643600Y3357830D01*
X9647660Y3352540D01*
X9653080Y3350420D01*
X9658500Y3352540D01*
X9662560Y3357830D01*
X9665270Y3364180D01*
X9667300Y3372640D01*
X9667980Y3382170D01*
X9667300Y3391690D01*
X9665270Y3400160D01*
X9662560Y3406510D01*
X9658500Y3411800D01*
X9653080Y3413920D01*
G01X9694060Y3363120D02*
X9698120Y3355710D01*
X9703540Y3351480D01*
X9709640Y3350420D01*
X9715060Y3351480D01*
X9720480Y3356770D01*
X9723860Y3363120D01*
X9724540Y3369470D01*
X9723180Y3376880D01*
X9718440Y3382170D01*
X9713700Y3384290D01*
X9707610D01*
G01X9713700D02*
X9717770Y3387460D01*
X9721150Y3392750D01*
X9722510Y3399100D01*
X9721150Y3405450D01*
X9717770Y3410740D01*
X9711670Y3413920D01*
X9705570Y3412860D01*
X9699480Y3408630D01*
G01X9751970Y3403340D02*
X9756030Y3409690D01*
X9760780Y3412860D01*
X9766190Y3413920D01*
X9772970Y3411800D01*
X9777710Y3406510D01*
X9779060Y3400160D01*
X9778390Y3393810D01*
X9775680Y3388520D01*
X9762130Y3377940D01*
X9756030Y3370530D01*
X9751970Y3359940D01*
X9750620Y3350420D01*
X9779060D01*
G01X9858990D02*
Y3413920D01*
X9876600Y3361000D01*
X9894210Y3413920D01*
Y3350420D01*
G01X9914870D02*
Y3413920D01*
X9932480Y3361000D01*
X9950090Y3413920D01*
Y3350420D01*
G01X8186650Y2902540D02*
Y2839040D01*
X8213750D01*
G01X8241180Y2851740D02*
X8245240Y2844330D01*
X8250660Y2840100D01*
X8256760Y2839040D01*
X8262180Y2840100D01*
X8267600Y2845390D01*
X8270980Y2851740D01*
X8271660Y2858090D01*
X8270300Y2865500D01*
X8265560Y2870790D01*
X8260820Y2872910D01*
X8254730D01*
G01X8260820D02*
X8264890Y2876080D01*
X8268270Y2881370D01*
X8269630Y2887720D01*
X8268270Y2894070D01*
X8264890Y2899360D01*
X8258790Y2902540D01*
X8252690Y2901480D01*
X8246600Y2897250D01*
G01X8311960Y2836920D02*
X8310610Y2837980D01*
Y2840100D01*
X8311960Y2841160D01*
X8313310Y2840100D01*
Y2837980D01*
X8311960Y2836920D01*
G01Y2865500D02*
X8310610Y2866560D01*
Y2868670D01*
X8311960Y2869730D01*
X8313310Y2868670D01*
Y2866560D01*
X8311960Y2865500D01*
G01X8410170Y2902540D02*
Y2839040D01*
X8437270D01*
G01X8462670D02*
X8479600Y2902540D01*
X8496530Y2839040D01*
G01X8490440Y2861260D02*
X8468760D01*
G01X8535480Y2839040D02*
Y2867610D01*
X8521930Y2902540D01*
G01X8549030D02*
X8535480Y2867610D01*
G01X8604910Y2839040D02*
X8577810D01*
Y2902540D01*
X8604910D01*
G01X8594070Y2871850D02*
X8577810D01*
G01X8633690Y2839040D02*
Y2902540D01*
X8650630D01*
X8656050Y2899360D01*
X8659430Y2895130D01*
X8660790Y2886660D01*
X8659430Y2878200D01*
X8655370Y2872910D01*
X8650630Y2869730D01*
X8633690D01*
G01X8650630D02*
X8660790Y2839040D01*
G01X8759000D02*
Y2902540D01*
X8750870Y2889840D01*
G01Y2839040D02*
X8767130D01*
G01X8885660Y2897250D02*
X8881600Y2900420D01*
X8876860Y2902540D01*
X8871440D01*
X8865340Y2899360D01*
X8860600Y2894070D01*
X8857210Y2887720D01*
X8854500Y2877140D01*
X8853830Y2867610D01*
X8855180Y2858090D01*
X8857210Y2851740D01*
X8861280Y2845390D01*
X8866020Y2841160D01*
X8870760Y2839040D01*
X8875500D01*
X8880240Y2841160D01*
X8884310Y2844330D01*
X8887690Y2848560D01*
G01X8926640Y2839040D02*
X8921220Y2840100D01*
X8916480Y2844330D01*
X8912420Y2850680D01*
X8909710Y2858090D01*
X8908350Y2866560D01*
Y2875020D01*
X8909710Y2883490D01*
X8912420Y2890900D01*
X8916480Y2897250D01*
X8921220Y2901480D01*
X8926640Y2902540D01*
X8932060Y2901480D01*
X8936800Y2897250D01*
X8940860Y2890900D01*
X8943570Y2883490D01*
X8944930Y2875020D01*
Y2866560D01*
X8943570Y2858090D01*
X8940860Y2850680D01*
X8936800Y2844330D01*
X8932060Y2840100D01*
X8926640Y2839040D01*
G01X8966940D02*
Y2902540D01*
X8998100Y2839040D01*
Y2902540D01*
G01X9023500Y2839040D02*
Y2902540D01*
X9037050D01*
X9042460Y2899360D01*
X9046530Y2895130D01*
X9049920Y2888780D01*
X9052620Y2881370D01*
X9053300Y2870790D01*
X9052620Y2860210D01*
X9049920Y2852800D01*
X9046530Y2846450D01*
X9042460Y2842210D01*
X9037050Y2839040D01*
X9023500D01*
G01X9079380Y2902540D02*
Y2857030D01*
X9082090Y2847500D01*
X9087510Y2841160D01*
X9094280Y2839040D01*
X9101050Y2841160D01*
X9106470Y2847500D01*
X9109180Y2857030D01*
Y2902540D01*
G01X9165060Y2897250D02*
X9161000Y2900420D01*
X9156260Y2902540D01*
X9150840D01*
X9144740Y2899360D01*
X9140000Y2894070D01*
X9136610Y2887720D01*
X9133900Y2877140D01*
X9133230Y2867610D01*
X9134580Y2858090D01*
X9136610Y2851740D01*
X9140680Y2845390D01*
X9145420Y2841160D01*
X9150160Y2839040D01*
X9154900D01*
X9159640Y2841160D01*
X9163710Y2844330D01*
X9167090Y2848560D01*
G01X9206040Y2902540D02*
Y2839040D01*
G01X9190460Y2902540D02*
X9221620D01*
G01X9261920Y2839040D02*
X9256500Y2840100D01*
X9251760Y2844330D01*
X9247700Y2850680D01*
X9244990Y2858090D01*
X9243630Y2866560D01*
Y2875020D01*
X9244990Y2883490D01*
X9247700Y2890900D01*
X9251760Y2897250D01*
X9256500Y2901480D01*
X9261920Y2902540D01*
X9267340Y2901480D01*
X9272080Y2897250D01*
X9276140Y2890900D01*
X9278850Y2883490D01*
X9280210Y2875020D01*
Y2866560D01*
X9278850Y2858090D01*
X9276140Y2850680D01*
X9272080Y2844330D01*
X9267340Y2840100D01*
X9261920Y2839040D01*
G01X9304250D02*
Y2902540D01*
X9321190D01*
X9326610Y2899360D01*
X9329990Y2895130D01*
X9331350Y2886660D01*
X9329990Y2878200D01*
X9325930Y2872910D01*
X9321190Y2869730D01*
X9304250D01*
G01X9321190D02*
X9331350Y2839040D01*
G01X9420750Y2860210D02*
X9438370D01*
G01X9556220Y2897250D02*
X9552160Y2900420D01*
X9547420Y2902540D01*
X9542000D01*
X9535900Y2899360D01*
X9531160Y2894070D01*
X9527770Y2887720D01*
X9525060Y2877140D01*
X9524390Y2867610D01*
X9525740Y2858090D01*
X9527770Y2851740D01*
X9531840Y2845390D01*
X9536580Y2841160D01*
X9541320Y2839040D01*
X9546060D01*
X9550800Y2841160D01*
X9554870Y2844330D01*
X9558250Y2848560D01*
G01X9597200Y2839040D02*
X9591780Y2840100D01*
X9587040Y2844330D01*
X9582980Y2850680D01*
X9580270Y2858090D01*
X9578910Y2866560D01*
Y2875020D01*
X9580270Y2883490D01*
X9582980Y2890900D01*
X9587040Y2897250D01*
X9591780Y2901480D01*
X9597200Y2902540D01*
X9602620Y2901480D01*
X9607360Y2897250D01*
X9611420Y2890900D01*
X9614130Y2883490D01*
X9615490Y2875020D01*
Y2866560D01*
X9614130Y2858090D01*
X9611420Y2850680D01*
X9607360Y2844330D01*
X9602620Y2840100D01*
X9597200Y2839040D01*
G01X9639530D02*
Y2902540D01*
X9655790D01*
X9661210Y2899360D01*
X9665270Y2891960D01*
X9666630Y2883490D01*
X9665270Y2875020D01*
X9661890Y2868670D01*
X9655790Y2865500D01*
X9639530D01*
G01X9695410Y2839040D02*
Y2902540D01*
X9711670D01*
X9717090Y2899360D01*
X9721150Y2891960D01*
X9722510Y2883490D01*
X9721150Y2875020D01*
X9717770Y2868670D01*
X9711670Y2865500D01*
X9695410D01*
G01X9778390Y2839040D02*
X9751290D01*
Y2902540D01*
X9778390D01*
G01X9767550Y2871850D02*
X9751290D01*
G01X9807170Y2839040D02*
Y2902540D01*
X9824110D01*
X9829530Y2899360D01*
X9832910Y2895130D01*
X9834270Y2886660D01*
X9832910Y2878200D01*
X9828850Y2872910D01*
X9824110Y2869730D01*
X9807170D01*
G01X9824110D02*
X9834270Y2839040D01*
G01X9932480Y2902540D02*
X9927060Y2900420D01*
X9923000Y2895130D01*
X9920290Y2888780D01*
X9918260Y2880310D01*
X9917580Y2870790D01*
X9918260Y2861260D01*
X9920290Y2852800D01*
X9923000Y2846450D01*
X9927060Y2841160D01*
X9932480Y2839040D01*
X9937900Y2841160D01*
X9941960Y2846450D01*
X9944670Y2852800D01*
X9946700Y2861260D01*
X9947380Y2870790D01*
X9946700Y2880310D01*
X9944670Y2888780D01*
X9941960Y2895130D01*
X9937900Y2900420D01*
X9932480Y2902540D01*
G01X9988360Y2836920D02*
X9987010Y2837980D01*
Y2840100D01*
X9988360Y2841160D01*
X9989710Y2840100D01*
Y2837980D01*
X9988360Y2836920D01*
G01X10044240Y2902540D02*
X10038820Y2900420D01*
X10034760Y2895130D01*
X10032050Y2888780D01*
X10030020Y2880310D01*
X10029340Y2870790D01*
X10030020Y2861260D01*
X10032050Y2852800D01*
X10034760Y2846450D01*
X10038820Y2841160D01*
X10044240Y2839040D01*
X10049660Y2841160D01*
X10053720Y2846450D01*
X10056430Y2852800D01*
X10058460Y2861260D01*
X10059140Y2870790D01*
X10058460Y2880310D01*
X10056430Y2888780D01*
X10053720Y2895130D01*
X10049660Y2900420D01*
X10044240Y2902540D01*
G01X10085220Y2851740D02*
X10089280Y2844330D01*
X10094700Y2840100D01*
X10100800Y2839040D01*
X10106220Y2840100D01*
X10111640Y2845390D01*
X10115020Y2851740D01*
X10115700Y2858090D01*
X10114340Y2865500D01*
X10109600Y2870790D01*
X10104860Y2872910D01*
X10098770D01*
G01X10104860D02*
X10108930Y2876080D01*
X10112310Y2881370D01*
X10113670Y2887720D01*
X10112310Y2894070D01*
X10108930Y2899360D01*
X10102830Y2902540D01*
X10096730Y2901480D01*
X10090640Y2897250D01*
G01X10156000Y2902540D02*
X10150580Y2900420D01*
X10146520Y2895130D01*
X10143810Y2888780D01*
X10141780Y2880310D01*
X10141100Y2870790D01*
X10141780Y2861260D01*
X10143810Y2852800D01*
X10146520Y2846450D01*
X10150580Y2841160D01*
X10156000Y2839040D01*
X10161420Y2841160D01*
X10165480Y2846450D01*
X10168190Y2852800D01*
X10170220Y2861260D01*
X10170900Y2870790D01*
X10170220Y2880310D01*
X10168190Y2888780D01*
X10165480Y2895130D01*
X10161420Y2900420D01*
X10156000Y2902540D01*
G01X10196980Y2848560D02*
X10201040Y2843270D01*
X10205780Y2840100D01*
X10211880Y2839040D01*
X10217980Y2841160D01*
X10222720Y2845390D01*
X10226100Y2852800D01*
X10226780Y2861260D01*
X10225430Y2869730D01*
X10222040Y2875020D01*
X10217300Y2879260D01*
X10212560Y2880310D01*
X10207820Y2879260D01*
X10201720Y2875020D01*
X10203750Y2902540D01*
X10222040D01*
G01X10306030Y2839040D02*
Y2902540D01*
X10323640Y2849620D01*
X10341250Y2902540D01*
Y2839040D01*
G01X10361910D02*
Y2902540D01*
X10379520Y2849620D01*
X10397130Y2902540D01*
Y2839040D01*
G01X8297060Y2366760D02*
X8326860Y2413330D01*
G01X8311960Y2421800D02*
Y2358300D01*
G01X8326860Y2366760D02*
X8297060Y2413330D01*
G01X8291640Y2390050D02*
X8332280D01*
G01X8464700Y2368880D02*
Y2432380D01*
X8478250D01*
X8483660Y2429200D01*
X8487730Y2424970D01*
X8491120Y2418620D01*
X8493820Y2411210D01*
X8494500Y2400630D01*
X8493820Y2390050D01*
X8491120Y2382640D01*
X8487730Y2376290D01*
X8483660Y2372050D01*
X8478250Y2368880D01*
X8464700D01*
G01X8527350Y2432380D02*
X8543610D01*
G01X8535480D02*
Y2368880D01*
G01X8527350D02*
X8543610D01*
G01X8604910D02*
X8577810D01*
Y2432380D01*
X8604910D01*
G01X8594070Y2401690D02*
X8577810D01*
G01X8633690Y2432380D02*
Y2368880D01*
X8660790D01*
G01X8716670D02*
X8689570D01*
Y2432380D01*
X8716670D01*
G01X8705830Y2401690D02*
X8689570D01*
G01X8773900Y2427090D02*
X8769840Y2430260D01*
X8765100Y2432380D01*
X8759680D01*
X8753580Y2429200D01*
X8748840Y2423910D01*
X8745450Y2417560D01*
X8742740Y2406980D01*
X8742070Y2397450D01*
X8743420Y2387930D01*
X8745450Y2381580D01*
X8749520Y2375230D01*
X8754260Y2371000D01*
X8759000Y2368880D01*
X8763740D01*
X8768480Y2371000D01*
X8772550Y2374170D01*
X8775930Y2378400D01*
G01X8814880Y2432380D02*
Y2368880D01*
G01X8799300Y2432380D02*
X8830460D01*
G01X8857210Y2368880D02*
Y2432380D01*
X8874150D01*
X8879570Y2429200D01*
X8882950Y2424970D01*
X8884310Y2416500D01*
X8882950Y2408040D01*
X8878890Y2402750D01*
X8874150Y2399570D01*
X8857210D01*
G01X8874150D02*
X8884310Y2368880D01*
G01X8918510Y2432380D02*
X8934770D01*
G01X8926640D02*
Y2368880D01*
G01X8918510D02*
X8934770D01*
G01X8997420Y2427090D02*
X8993360Y2430260D01*
X8988620Y2432380D01*
X8983200D01*
X8977100Y2429200D01*
X8972360Y2423910D01*
X8968970Y2417560D01*
X8966260Y2406980D01*
X8965590Y2397450D01*
X8966940Y2387930D01*
X8968970Y2381580D01*
X8973040Y2375230D01*
X8977780Y2371000D01*
X8982520Y2368880D01*
X8987260D01*
X8992000Y2371000D01*
X8996070Y2374170D01*
X8999450Y2378400D01*
G01X9085470Y2390050D02*
X9103090D01*
G01X9193170Y2368880D02*
Y2432380D01*
X9218910D01*
G01X9209430Y2401690D02*
X9193170D01*
G01X9248370Y2368880D02*
Y2432380D01*
X9265310D01*
X9270730Y2429200D01*
X9274110Y2424970D01*
X9275470Y2416500D01*
X9274110Y2408040D01*
X9270050Y2402750D01*
X9265310Y2399570D01*
X9248370D01*
G01X9265310D02*
X9275470Y2368880D01*
G01X9308990Y2390050D02*
X9326610D01*
G01X9381810Y2368880D02*
Y2432380D01*
X9356750Y2386870D01*
X9390610D01*
G01X9485440Y2432380D02*
X9480020Y2430260D01*
X9475960Y2424970D01*
X9473250Y2418620D01*
X9471220Y2410150D01*
X9470540Y2400630D01*
X9471220Y2391100D01*
X9473250Y2382640D01*
X9475960Y2376290D01*
X9480020Y2371000D01*
X9485440Y2368880D01*
X9490860Y2371000D01*
X9494920Y2376290D01*
X9497630Y2382640D01*
X9499660Y2391100D01*
X9500340Y2400630D01*
X9499660Y2410150D01*
X9497630Y2418620D01*
X9494920Y2424970D01*
X9490860Y2430260D01*
X9485440Y2432380D01*
G01X9541320Y2366760D02*
X9539970Y2367820D01*
Y2369940D01*
X9541320Y2371000D01*
X9542670Y2369940D01*
Y2367820D01*
X9541320Y2366760D01*
G01X9584330Y2421800D02*
X9588390Y2428150D01*
X9593140Y2431320D01*
X9598550Y2432380D01*
X9605330Y2430260D01*
X9610070Y2424970D01*
X9611420Y2418620D01*
X9610750Y2412270D01*
X9608040Y2406980D01*
X9594490Y2396400D01*
X9588390Y2388990D01*
X9584330Y2378400D01*
X9582980Y2368880D01*
X9611420D01*
G01X9653080Y2432380D02*
X9647660Y2430260D01*
X9643600Y2424970D01*
X9640890Y2418620D01*
X9638860Y2410150D01*
X9638180Y2400630D01*
X9638860Y2391100D01*
X9640890Y2382640D01*
X9643600Y2376290D01*
X9647660Y2371000D01*
X9653080Y2368880D01*
X9658500Y2371000D01*
X9662560Y2376290D01*
X9665270Y2382640D01*
X9667300Y2391100D01*
X9667980Y2400630D01*
X9667300Y2410150D01*
X9665270Y2418620D01*
X9662560Y2424970D01*
X9658500Y2430260D01*
X9653080Y2432380D01*
G01X9694060Y2381580D02*
X9698120Y2374170D01*
X9703540Y2369940D01*
X9709640Y2368880D01*
X9715060Y2369940D01*
X9720480Y2375230D01*
X9723860Y2381580D01*
X9724540Y2387930D01*
X9723180Y2395340D01*
X9718440Y2400630D01*
X9713700Y2402750D01*
X9707610D01*
G01X9713700D02*
X9717770Y2405920D01*
X9721150Y2411210D01*
X9722510Y2417560D01*
X9721150Y2423910D01*
X9717770Y2429200D01*
X9711670Y2432380D01*
X9705570Y2431320D01*
X9699480Y2427090D01*
G01X9751970Y2421800D02*
X9756030Y2428150D01*
X9760780Y2431320D01*
X9766190Y2432380D01*
X9772970Y2430260D01*
X9777710Y2424970D01*
X9779060Y2418620D01*
X9778390Y2412270D01*
X9775680Y2406980D01*
X9762130Y2396400D01*
X9756030Y2388990D01*
X9751970Y2378400D01*
X9750620Y2368880D01*
X9779060D01*
G01X9858990D02*
Y2432380D01*
X9876600Y2379460D01*
X9894210Y2432380D01*
Y2368880D01*
G01X9914870D02*
Y2432380D01*
X9932480Y2379460D01*
X9950090Y2432380D01*
Y2368880D01*
G01X8186650Y1921000D02*
Y1857500D01*
X8213750D01*
G01X8264210D02*
Y1921000D01*
X8239150Y1875490D01*
X8273010D01*
G01X8311960Y1855380D02*
X8310610Y1856440D01*
Y1858560D01*
X8311960Y1859620D01*
X8313310Y1858560D01*
Y1856440D01*
X8311960Y1855380D01*
G01Y1883960D02*
X8310610Y1885020D01*
Y1887130D01*
X8311960Y1888190D01*
X8313310Y1887130D01*
Y1885020D01*
X8311960Y1883960D01*
G01X8410170Y1921000D02*
Y1857500D01*
X8437270D01*
G01X8462670D02*
X8479600Y1921000D01*
X8496530Y1857500D01*
G01X8490440Y1879720D02*
X8468760D01*
G01X8535480Y1857500D02*
Y1886070D01*
X8521930Y1921000D01*
G01X8549030D02*
X8535480Y1886070D01*
G01X8604910Y1857500D02*
X8577810D01*
Y1921000D01*
X8604910D01*
G01X8594070Y1890310D02*
X8577810D01*
G01X8633690Y1857500D02*
Y1921000D01*
X8650630D01*
X8656050Y1917820D01*
X8659430Y1913590D01*
X8660790Y1905120D01*
X8659430Y1896660D01*
X8655370Y1891370D01*
X8650630Y1888190D01*
X8633690D01*
G01X8650630D02*
X8660790Y1857500D01*
G01X8682800Y1836330D02*
X8723440D01*
G01X8746130Y1910420D02*
X8750190Y1916770D01*
X8754940Y1919940D01*
X8760350Y1921000D01*
X8767130Y1918880D01*
X8771870Y1913590D01*
X8773220Y1907240D01*
X8772550Y1900890D01*
X8769840Y1895600D01*
X8756290Y1885020D01*
X8750190Y1877610D01*
X8746130Y1867020D01*
X8744780Y1857500D01*
X8773220D01*
G01X8885660Y1915710D02*
X8881600Y1918880D01*
X8876860Y1921000D01*
X8871440D01*
X8865340Y1917820D01*
X8860600Y1912530D01*
X8857210Y1906180D01*
X8854500Y1895600D01*
X8853830Y1886070D01*
X8855180Y1876550D01*
X8857210Y1870200D01*
X8861280Y1863850D01*
X8866020Y1859620D01*
X8870760Y1857500D01*
X8875500D01*
X8880240Y1859620D01*
X8884310Y1862790D01*
X8887690Y1867020D01*
G01X8926640Y1857500D02*
X8921220Y1858560D01*
X8916480Y1862790D01*
X8912420Y1869140D01*
X8909710Y1876550D01*
X8908350Y1885020D01*
Y1893480D01*
X8909710Y1901950D01*
X8912420Y1909360D01*
X8916480Y1915710D01*
X8921220Y1919940D01*
X8926640Y1921000D01*
X8932060Y1919940D01*
X8936800Y1915710D01*
X8940860Y1909360D01*
X8943570Y1901950D01*
X8944930Y1893480D01*
Y1885020D01*
X8943570Y1876550D01*
X8940860Y1869140D01*
X8936800Y1862790D01*
X8932060Y1858560D01*
X8926640Y1857500D01*
G01X8966940D02*
Y1921000D01*
X8998100Y1857500D01*
Y1921000D01*
G01X9023500Y1857500D02*
Y1921000D01*
X9037050D01*
X9042460Y1917820D01*
X9046530Y1913590D01*
X9049920Y1907240D01*
X9052620Y1899830D01*
X9053300Y1889250D01*
X9052620Y1878670D01*
X9049920Y1871260D01*
X9046530Y1864910D01*
X9042460Y1860670D01*
X9037050Y1857500D01*
X9023500D01*
G01X9079380Y1921000D02*
Y1875490D01*
X9082090Y1865960D01*
X9087510Y1859620D01*
X9094280Y1857500D01*
X9101050Y1859620D01*
X9106470Y1865960D01*
X9109180Y1875490D01*
Y1921000D01*
G01X9165060Y1915710D02*
X9161000Y1918880D01*
X9156260Y1921000D01*
X9150840D01*
X9144740Y1917820D01*
X9140000Y1912530D01*
X9136610Y1906180D01*
X9133900Y1895600D01*
X9133230Y1886070D01*
X9134580Y1876550D01*
X9136610Y1870200D01*
X9140680Y1863850D01*
X9145420Y1859620D01*
X9150160Y1857500D01*
X9154900D01*
X9159640Y1859620D01*
X9163710Y1862790D01*
X9167090Y1867020D01*
G01X9206040Y1921000D02*
Y1857500D01*
G01X9190460Y1921000D02*
X9221620D01*
G01X9261920Y1857500D02*
X9256500Y1858560D01*
X9251760Y1862790D01*
X9247700Y1869140D01*
X9244990Y1876550D01*
X9243630Y1885020D01*
Y1893480D01*
X9244990Y1901950D01*
X9247700Y1909360D01*
X9251760Y1915710D01*
X9256500Y1919940D01*
X9261920Y1921000D01*
X9267340Y1919940D01*
X9272080Y1915710D01*
X9276140Y1909360D01*
X9278850Y1901950D01*
X9280210Y1893480D01*
Y1885020D01*
X9278850Y1876550D01*
X9276140Y1869140D01*
X9272080Y1862790D01*
X9267340Y1858560D01*
X9261920Y1857500D01*
G01X9304250D02*
Y1921000D01*
X9321190D01*
X9326610Y1917820D01*
X9329990Y1913590D01*
X9331350Y1905120D01*
X9329990Y1896660D01*
X9325930Y1891370D01*
X9321190Y1888190D01*
X9304250D01*
G01X9321190D02*
X9331350Y1857500D01*
G01X9420750Y1878670D02*
X9438370D01*
G01X9556220Y1915710D02*
X9552160Y1918880D01*
X9547420Y1921000D01*
X9542000D01*
X9535900Y1917820D01*
X9531160Y1912530D01*
X9527770Y1906180D01*
X9525060Y1895600D01*
X9524390Y1886070D01*
X9525740Y1876550D01*
X9527770Y1870200D01*
X9531840Y1863850D01*
X9536580Y1859620D01*
X9541320Y1857500D01*
X9546060D01*
X9550800Y1859620D01*
X9554870Y1862790D01*
X9558250Y1867020D01*
G01X9597200Y1857500D02*
X9591780Y1858560D01*
X9587040Y1862790D01*
X9582980Y1869140D01*
X9580270Y1876550D01*
X9578910Y1885020D01*
Y1893480D01*
X9580270Y1901950D01*
X9582980Y1909360D01*
X9587040Y1915710D01*
X9591780Y1919940D01*
X9597200Y1921000D01*
X9602620Y1919940D01*
X9607360Y1915710D01*
X9611420Y1909360D01*
X9614130Y1901950D01*
X9615490Y1893480D01*
Y1885020D01*
X9614130Y1876550D01*
X9611420Y1869140D01*
X9607360Y1862790D01*
X9602620Y1858560D01*
X9597200Y1857500D01*
G01X9639530D02*
Y1921000D01*
X9655790D01*
X9661210Y1917820D01*
X9665270Y1910420D01*
X9666630Y1901950D01*
X9665270Y1893480D01*
X9661890Y1887130D01*
X9655790Y1883960D01*
X9639530D01*
G01X9695410Y1857500D02*
Y1921000D01*
X9711670D01*
X9717090Y1917820D01*
X9721150Y1910420D01*
X9722510Y1901950D01*
X9721150Y1893480D01*
X9717770Y1887130D01*
X9711670Y1883960D01*
X9695410D01*
G01X9778390Y1857500D02*
X9751290D01*
Y1921000D01*
X9778390D01*
G01X9767550Y1890310D02*
X9751290D01*
G01X9807170Y1857500D02*
Y1921000D01*
X9824110D01*
X9829530Y1917820D01*
X9832910Y1913590D01*
X9834270Y1905120D01*
X9832910Y1896660D01*
X9828850Y1891370D01*
X9824110Y1888190D01*
X9807170D01*
G01X9824110D02*
X9834270Y1857500D01*
G01X9932480Y1921000D02*
X9927060Y1918880D01*
X9923000Y1913590D01*
X9920290Y1907240D01*
X9918260Y1898770D01*
X9917580Y1889250D01*
X9918260Y1879720D01*
X9920290Y1871260D01*
X9923000Y1864910D01*
X9927060Y1859620D01*
X9932480Y1857500D01*
X9937900Y1859620D01*
X9941960Y1864910D01*
X9944670Y1871260D01*
X9946700Y1879720D01*
X9947380Y1889250D01*
X9946700Y1898770D01*
X9944670Y1907240D01*
X9941960Y1913590D01*
X9937900Y1918880D01*
X9932480Y1921000D01*
G01X9988360Y1855380D02*
X9987010Y1856440D01*
Y1858560D01*
X9988360Y1859620D01*
X9989710Y1858560D01*
Y1856440D01*
X9988360Y1855380D01*
G01X10044240Y1921000D02*
X10038820Y1918880D01*
X10034760Y1913590D01*
X10032050Y1907240D01*
X10030020Y1898770D01*
X10029340Y1889250D01*
X10030020Y1879720D01*
X10032050Y1871260D01*
X10034760Y1864910D01*
X10038820Y1859620D01*
X10044240Y1857500D01*
X10049660Y1859620D01*
X10053720Y1864910D01*
X10056430Y1871260D01*
X10058460Y1879720D01*
X10059140Y1889250D01*
X10058460Y1898770D01*
X10056430Y1907240D01*
X10053720Y1913590D01*
X10049660Y1918880D01*
X10044240Y1921000D01*
G01X10085220Y1870200D02*
X10089280Y1862790D01*
X10094700Y1858560D01*
X10100800Y1857500D01*
X10106220Y1858560D01*
X10111640Y1863850D01*
X10115020Y1870200D01*
X10115700Y1876550D01*
X10114340Y1883960D01*
X10109600Y1889250D01*
X10104860Y1891370D01*
X10098770D01*
G01X10104860D02*
X10108930Y1894540D01*
X10112310Y1899830D01*
X10113670Y1906180D01*
X10112310Y1912530D01*
X10108930Y1917820D01*
X10102830Y1921000D01*
X10096730Y1919940D01*
X10090640Y1915710D01*
G01X10156000Y1921000D02*
X10150580Y1918880D01*
X10146520Y1913590D01*
X10143810Y1907240D01*
X10141780Y1898770D01*
X10141100Y1889250D01*
X10141780Y1879720D01*
X10143810Y1871260D01*
X10146520Y1864910D01*
X10150580Y1859620D01*
X10156000Y1857500D01*
X10161420Y1859620D01*
X10165480Y1864910D01*
X10168190Y1871260D01*
X10170220Y1879720D01*
X10170900Y1889250D01*
X10170220Y1898770D01*
X10168190Y1907240D01*
X10165480Y1913590D01*
X10161420Y1918880D01*
X10156000Y1921000D01*
G01X10196980Y1867020D02*
X10201040Y1861730D01*
X10205780Y1858560D01*
X10211880Y1857500D01*
X10217980Y1859620D01*
X10222720Y1863850D01*
X10226100Y1871260D01*
X10226780Y1879720D01*
X10225430Y1888190D01*
X10222040Y1893480D01*
X10217300Y1897720D01*
X10212560Y1898770D01*
X10207820Y1897720D01*
X10201720Y1893480D01*
X10203750Y1921000D01*
X10222040D01*
G01X10306030Y1857500D02*
Y1921000D01*
X10323640Y1868080D01*
X10341250Y1921000D01*
Y1857500D01*
G01X10361910D02*
Y1921000D01*
X10379520Y1868080D01*
X10397130Y1921000D01*
Y1857500D01*
G01X8297060Y1385220D02*
X8326860Y1431790D01*
G01X8311960Y1440260D02*
Y1376760D01*
G01X8326860Y1385220D02*
X8297060Y1431790D01*
G01X8291640Y1408510D02*
X8332280D01*
G01X8464700Y1387340D02*
Y1450840D01*
X8478250D01*
X8483660Y1447660D01*
X8487730Y1443430D01*
X8491120Y1437080D01*
X8493820Y1429670D01*
X8494500Y1419090D01*
X8493820Y1408510D01*
X8491120Y1401100D01*
X8487730Y1394750D01*
X8483660Y1390510D01*
X8478250Y1387340D01*
X8464700D01*
G01X8527350Y1450840D02*
X8543610D01*
G01X8535480D02*
Y1387340D01*
G01X8527350D02*
X8543610D01*
G01X8604910D02*
X8577810D01*
Y1450840D01*
X8604910D01*
G01X8594070Y1420150D02*
X8577810D01*
G01X8633690Y1450840D02*
Y1387340D01*
X8660790D01*
G01X8716670D02*
X8689570D01*
Y1450840D01*
X8716670D01*
G01X8705830Y1420150D02*
X8689570D01*
G01X8773900Y1445550D02*
X8769840Y1448720D01*
X8765100Y1450840D01*
X8759680D01*
X8753580Y1447660D01*
X8748840Y1442370D01*
X8745450Y1436020D01*
X8742740Y1425440D01*
X8742070Y1415910D01*
X8743420Y1406390D01*
X8745450Y1400040D01*
X8749520Y1393690D01*
X8754260Y1389460D01*
X8759000Y1387340D01*
X8763740D01*
X8768480Y1389460D01*
X8772550Y1392630D01*
X8775930Y1396860D01*
G01X8814880Y1450840D02*
Y1387340D01*
G01X8799300Y1450840D02*
X8830460D01*
G01X8857210Y1387340D02*
Y1450840D01*
X8874150D01*
X8879570Y1447660D01*
X8882950Y1443430D01*
X8884310Y1434960D01*
X8882950Y1426500D01*
X8878890Y1421210D01*
X8874150Y1418030D01*
X8857210D01*
G01X8874150D02*
X8884310Y1387340D01*
G01X8918510Y1450840D02*
X8934770D01*
G01X8926640D02*
Y1387340D01*
G01X8918510D02*
X8934770D01*
G01X8997420Y1445550D02*
X8993360Y1448720D01*
X8988620Y1450840D01*
X8983200D01*
X8977100Y1447660D01*
X8972360Y1442370D01*
X8968970Y1436020D01*
X8966260Y1425440D01*
X8965590Y1415910D01*
X8966940Y1406390D01*
X8968970Y1400040D01*
X8973040Y1393690D01*
X8977780Y1389460D01*
X8982520Y1387340D01*
X8987260D01*
X8992000Y1389460D01*
X8996070Y1392630D01*
X8999450Y1396860D01*
G01X9085470Y1408510D02*
X9103090D01*
G01X9193170Y1387340D02*
Y1450840D01*
X9218910D01*
G01X9209430Y1420150D02*
X9193170D01*
G01X9248370Y1387340D02*
Y1450840D01*
X9265310D01*
X9270730Y1447660D01*
X9274110Y1443430D01*
X9275470Y1434960D01*
X9274110Y1426500D01*
X9270050Y1421210D01*
X9265310Y1418030D01*
X9248370D01*
G01X9265310D02*
X9275470Y1387340D01*
G01X9308990Y1408510D02*
X9326610D01*
G01X9381810Y1387340D02*
Y1450840D01*
X9356750Y1405330D01*
X9390610D01*
G01X9485440Y1450840D02*
X9480020Y1448720D01*
X9475960Y1443430D01*
X9473250Y1437080D01*
X9471220Y1428610D01*
X9470540Y1419090D01*
X9471220Y1409560D01*
X9473250Y1401100D01*
X9475960Y1394750D01*
X9480020Y1389460D01*
X9485440Y1387340D01*
X9490860Y1389460D01*
X9494920Y1394750D01*
X9497630Y1401100D01*
X9499660Y1409560D01*
X9500340Y1419090D01*
X9499660Y1428610D01*
X9497630Y1437080D01*
X9494920Y1443430D01*
X9490860Y1448720D01*
X9485440Y1450840D01*
G01X9541320Y1385220D02*
X9539970Y1386280D01*
Y1388400D01*
X9541320Y1389460D01*
X9542670Y1388400D01*
Y1386280D01*
X9541320Y1385220D01*
G01X9584330Y1440260D02*
X9588390Y1446610D01*
X9593140Y1449780D01*
X9598550Y1450840D01*
X9605330Y1448720D01*
X9610070Y1443430D01*
X9611420Y1437080D01*
X9610750Y1430730D01*
X9608040Y1425440D01*
X9594490Y1414860D01*
X9588390Y1407450D01*
X9584330Y1396860D01*
X9582980Y1387340D01*
X9611420D01*
G01X9653080Y1450840D02*
X9647660Y1448720D01*
X9643600Y1443430D01*
X9640890Y1437080D01*
X9638860Y1428610D01*
X9638180Y1419090D01*
X9638860Y1409560D01*
X9640890Y1401100D01*
X9643600Y1394750D01*
X9647660Y1389460D01*
X9653080Y1387340D01*
X9658500Y1389460D01*
X9662560Y1394750D01*
X9665270Y1401100D01*
X9667300Y1409560D01*
X9667980Y1419090D01*
X9667300Y1428610D01*
X9665270Y1437080D01*
X9662560Y1443430D01*
X9658500Y1448720D01*
X9653080Y1450840D01*
G01X9694060Y1400040D02*
X9698120Y1392630D01*
X9703540Y1388400D01*
X9709640Y1387340D01*
X9715060Y1388400D01*
X9720480Y1393690D01*
X9723860Y1400040D01*
X9724540Y1406390D01*
X9723180Y1413800D01*
X9718440Y1419090D01*
X9713700Y1421210D01*
X9707610D01*
G01X9713700D02*
X9717770Y1424380D01*
X9721150Y1429670D01*
X9722510Y1436020D01*
X9721150Y1442370D01*
X9717770Y1447660D01*
X9711670Y1450840D01*
X9705570Y1449780D01*
X9699480Y1445550D01*
G01X9751970Y1440260D02*
X9756030Y1446610D01*
X9760780Y1449780D01*
X9766190Y1450840D01*
X9772970Y1448720D01*
X9777710Y1443430D01*
X9779060Y1437080D01*
X9778390Y1430730D01*
X9775680Y1425440D01*
X9762130Y1414860D01*
X9756030Y1407450D01*
X9751970Y1396860D01*
X9750620Y1387340D01*
X9779060D01*
G01X9858990D02*
Y1450840D01*
X9876600Y1397920D01*
X9894210Y1450840D01*
Y1387340D01*
G01X9914870D02*
Y1450840D01*
X9932480Y1397920D01*
X9950090Y1450840D01*
Y1387340D01*
G01X6600000Y2923700D02*
Y3777140D01*
X8124000D01*
Y2923700D01*
X6600000D01*
G01Y1942160D02*
Y2795600D01*
X8124000D01*
Y1942160D01*
X6600000D01*
G01X7298500Y4970600D02*
X7235000D01*
X7247700Y4962470D01*
G01X7298500D02*
Y4978730D01*
G01X7277330Y5017670D02*
Y5035290D01*
G01X7272040Y5069490D02*
X7264630Y5074230D01*
X7260400Y5078300D01*
X7258280Y5083710D01*
X7260400Y5088460D01*
X7264630Y5091840D01*
X7270980Y5094550D01*
X7278390Y5095230D01*
X7284740Y5094550D01*
X7291090Y5091840D01*
X7296380Y5087780D01*
X7298500Y5083040D01*
X7296380Y5077620D01*
X7290040Y5072880D01*
X7280510Y5070170D01*
X7269930Y5069490D01*
X7256170Y5070840D01*
X7248760Y5072880D01*
X7241350Y5076260D01*
X7236060Y5081010D01*
X7235000Y5085750D01*
X7237120Y5090490D01*
X7242410Y5093880D01*
G01X8297060Y4905820D02*
X8326860Y4952390D01*
G01X8311960Y4960860D02*
Y4897360D01*
G01X8326860Y4905820D02*
X8297060Y4952390D01*
G01X8291640Y4929110D02*
X8332280D01*
G01X8465380Y4916400D02*
X8470790Y4911110D01*
X8476890Y4907940D01*
X8482310D01*
X8487730Y4911110D01*
X8491790Y4916400D01*
X8493820Y4923820D01*
X8492470Y4931220D01*
X8489080Y4937570D01*
X8482990Y4941810D01*
X8474860Y4943920D01*
X8470120Y4948160D01*
X8468080Y4955560D01*
X8469440Y4962970D01*
X8472830Y4968260D01*
X8477570Y4971440D01*
X8482310D01*
X8487050Y4969320D01*
X8491120Y4964030D01*
G01X8520580Y4971440D02*
Y4925930D01*
X8523290Y4916400D01*
X8528710Y4910060D01*
X8535480Y4907940D01*
X8542250Y4910060D01*
X8547670Y4916400D01*
X8550380Y4925930D01*
Y4971440D01*
G01X8577810Y4907940D02*
Y4971440D01*
X8594750D01*
X8600170Y4968260D01*
X8603550Y4964030D01*
X8604910Y4955560D01*
X8603550Y4947100D01*
X8599490Y4941810D01*
X8594750Y4938630D01*
X8577810D01*
G01X8594750D02*
X8604910Y4907940D01*
G01X8634370D02*
Y4971440D01*
X8660110D01*
G01X8650630Y4940750D02*
X8634370D01*
G01X8686190Y4907940D02*
X8703120Y4971440D01*
X8720050Y4907940D01*
G01X8713960Y4930160D02*
X8692280D01*
G01X8773900Y4966150D02*
X8769840Y4969320D01*
X8765100Y4971440D01*
X8759680D01*
X8753580Y4968260D01*
X8748840Y4962970D01*
X8745450Y4956620D01*
X8742740Y4946040D01*
X8742070Y4936510D01*
X8743420Y4926990D01*
X8745450Y4920640D01*
X8749520Y4914290D01*
X8754260Y4910060D01*
X8759000Y4907940D01*
X8763740D01*
X8768480Y4910060D01*
X8772550Y4913230D01*
X8775930Y4917460D01*
G01X8828430Y4907940D02*
X8801330D01*
Y4971440D01*
X8828430D01*
G01X8817590Y4940750D02*
X8801330D01*
G01X8917830Y4929110D02*
X8935450D01*
G01X9021470Y4907940D02*
X9038400Y4971440D01*
X9055330Y4907940D01*
G01X9049240Y4930160D02*
X9027560D01*
G01X9086150Y4971440D02*
X9102410D01*
G01X9094280D02*
Y4907940D01*
G01X9086150D02*
X9102410D01*
G01X9136610D02*
Y4971440D01*
X9153550D01*
X9158970Y4968260D01*
X9162350Y4964030D01*
X9163710Y4955560D01*
X9162350Y4947100D01*
X9158290Y4941810D01*
X9153550Y4938630D01*
X9136610D01*
G01X9153550D02*
X9163710Y4907940D01*
G01X9261920Y4971440D02*
X9256500Y4969320D01*
X9252440Y4964030D01*
X9249730Y4957680D01*
X9247700Y4949210D01*
X9247020Y4939690D01*
X9247700Y4930160D01*
X9249730Y4921700D01*
X9252440Y4915350D01*
X9256500Y4910060D01*
X9261920Y4907940D01*
X9267340Y4910060D01*
X9271400Y4915350D01*
X9274110Y4921700D01*
X9276140Y4930160D01*
X9276820Y4939690D01*
X9276140Y4949210D01*
X9274110Y4957680D01*
X9271400Y4964030D01*
X9267340Y4969320D01*
X9261920Y4971440D01*
G01X9356070Y4907940D02*
Y4971440D01*
X9373680Y4918520D01*
X9391290Y4971440D01*
Y4907940D01*
G01X9411950D02*
Y4971440D01*
X9429560Y4918520D01*
X9447170Y4971440D01*
Y4907940D01*
G01X8186650Y4865620D02*
Y4802120D01*
X8213750D01*
G01X8256080D02*
Y4865620D01*
X8247950Y4852920D01*
G01Y4802120D02*
X8264210D01*
G01X8311960Y4800000D02*
X8310610Y4801060D01*
Y4803180D01*
X8311960Y4804240D01*
X8313310Y4803180D01*
Y4801060D01*
X8311960Y4800000D01*
G01Y4828580D02*
X8310610Y4829640D01*
Y4831750D01*
X8311960Y4832810D01*
X8313310Y4831750D01*
Y4829640D01*
X8311960Y4828580D01*
G01X8423720Y4865620D02*
Y4802120D01*
G01X8408140Y4865620D02*
X8439300D01*
G01X8479600Y4802120D02*
X8474180Y4803180D01*
X8469440Y4807410D01*
X8465380Y4813760D01*
X8462670Y4821170D01*
X8461310Y4829640D01*
Y4838100D01*
X8462670Y4846570D01*
X8465380Y4853980D01*
X8469440Y4860330D01*
X8474180Y4864560D01*
X8479600Y4865620D01*
X8485020Y4864560D01*
X8489760Y4860330D01*
X8493820Y4853980D01*
X8496530Y4846570D01*
X8497890Y4838100D01*
Y4829640D01*
X8496530Y4821170D01*
X8493820Y4813760D01*
X8489760Y4807410D01*
X8485020Y4803180D01*
X8479600Y4802120D01*
G01X8521930D02*
Y4865620D01*
X8538190D01*
X8543610Y4862440D01*
X8547670Y4855040D01*
X8549030Y4846570D01*
X8547670Y4838100D01*
X8544290Y4831750D01*
X8538190Y4828580D01*
X8521930D01*
G01X8662140Y4860330D02*
X8658080Y4863500D01*
X8653340Y4865620D01*
X8647920D01*
X8641820Y4862440D01*
X8637080Y4857150D01*
X8633690Y4850800D01*
X8630980Y4840220D01*
X8630310Y4830690D01*
X8631660Y4821170D01*
X8633690Y4814820D01*
X8637760Y4808470D01*
X8642500Y4804240D01*
X8647240Y4802120D01*
X8651980D01*
X8656720Y4804240D01*
X8660790Y4807410D01*
X8664170Y4811640D01*
G01X8703120Y4802120D02*
X8697700Y4803180D01*
X8692960Y4807410D01*
X8688900Y4813760D01*
X8686190Y4821170D01*
X8684830Y4829640D01*
Y4838100D01*
X8686190Y4846570D01*
X8688900Y4853980D01*
X8692960Y4860330D01*
X8697700Y4864560D01*
X8703120Y4865620D01*
X8708540Y4864560D01*
X8713280Y4860330D01*
X8717340Y4853980D01*
X8720050Y4846570D01*
X8721410Y4838100D01*
Y4829640D01*
X8720050Y4821170D01*
X8717340Y4813760D01*
X8713280Y4807410D01*
X8708540Y4803180D01*
X8703120Y4802120D01*
G01X8743420D02*
Y4865620D01*
X8774580Y4802120D01*
Y4865620D01*
G01X8799980Y4802120D02*
Y4865620D01*
X8813530D01*
X8818940Y4862440D01*
X8823010Y4858210D01*
X8826400Y4851860D01*
X8829100Y4844450D01*
X8829780Y4833870D01*
X8829100Y4823290D01*
X8826400Y4815880D01*
X8823010Y4809530D01*
X8818940Y4805290D01*
X8813530Y4802120D01*
X8799980D01*
G01X8855860Y4865620D02*
Y4820110D01*
X8858570Y4810580D01*
X8863990Y4804240D01*
X8870760Y4802120D01*
X8877530Y4804240D01*
X8882950Y4810580D01*
X8885660Y4820110D01*
Y4865620D01*
G01X8941540Y4860330D02*
X8937480Y4863500D01*
X8932740Y4865620D01*
X8927320D01*
X8921220Y4862440D01*
X8916480Y4857150D01*
X8913090Y4850800D01*
X8910380Y4840220D01*
X8909710Y4830690D01*
X8911060Y4821170D01*
X8913090Y4814820D01*
X8917160Y4808470D01*
X8921900Y4804240D01*
X8926640Y4802120D01*
X8931380D01*
X8936120Y4804240D01*
X8940190Y4807410D01*
X8943570Y4811640D01*
G01X8982520Y4865620D02*
Y4802120D01*
G01X8966940Y4865620D02*
X8998100D01*
G01X9038400Y4802120D02*
X9032980Y4803180D01*
X9028240Y4807410D01*
X9024180Y4813760D01*
X9021470Y4821170D01*
X9020110Y4829640D01*
Y4838100D01*
X9021470Y4846570D01*
X9024180Y4853980D01*
X9028240Y4860330D01*
X9032980Y4864560D01*
X9038400Y4865620D01*
X9043820Y4864560D01*
X9048560Y4860330D01*
X9052620Y4853980D01*
X9055330Y4846570D01*
X9056690Y4838100D01*
Y4829640D01*
X9055330Y4821170D01*
X9052620Y4813760D01*
X9048560Y4807410D01*
X9043820Y4803180D01*
X9038400Y4802120D01*
G01X9080730D02*
Y4865620D01*
X9097670D01*
X9103090Y4862440D01*
X9106470Y4858210D01*
X9107830Y4849740D01*
X9106470Y4841280D01*
X9102410Y4835990D01*
X9097670Y4832810D01*
X9080730D01*
G01X9097670D02*
X9107830Y4802120D01*
G01X9197230Y4823290D02*
X9214850D01*
G01X9332700Y4860330D02*
X9328640Y4863500D01*
X9323900Y4865620D01*
X9318480D01*
X9312380Y4862440D01*
X9307640Y4857150D01*
X9304250Y4850800D01*
X9301540Y4840220D01*
X9300870Y4830690D01*
X9302220Y4821170D01*
X9304250Y4814820D01*
X9308320Y4808470D01*
X9313060Y4804240D01*
X9317800Y4802120D01*
X9322540D01*
X9327280Y4804240D01*
X9331350Y4807410D01*
X9334730Y4811640D01*
G01X9373680Y4802120D02*
X9368260Y4803180D01*
X9363520Y4807410D01*
X9359460Y4813760D01*
X9356750Y4821170D01*
X9355390Y4829640D01*
Y4838100D01*
X9356750Y4846570D01*
X9359460Y4853980D01*
X9363520Y4860330D01*
X9368260Y4864560D01*
X9373680Y4865620D01*
X9379100Y4864560D01*
X9383840Y4860330D01*
X9387900Y4853980D01*
X9390610Y4846570D01*
X9391970Y4838100D01*
Y4829640D01*
X9390610Y4821170D01*
X9387900Y4813760D01*
X9383840Y4807410D01*
X9379100Y4803180D01*
X9373680Y4802120D01*
G01X9416010D02*
Y4865620D01*
X9432270D01*
X9437690Y4862440D01*
X9441750Y4855040D01*
X9443110Y4846570D01*
X9441750Y4838100D01*
X9438370Y4831750D01*
X9432270Y4828580D01*
X9416010D01*
G01X9471890Y4802120D02*
Y4865620D01*
X9488150D01*
X9493570Y4862440D01*
X9497630Y4855040D01*
X9498990Y4846570D01*
X9497630Y4838100D01*
X9494250Y4831750D01*
X9488150Y4828580D01*
X9471890D01*
G01X9554870Y4802120D02*
X9527770D01*
Y4865620D01*
X9554870D01*
G01X9544030Y4834930D02*
X9527770D01*
G01X9583650Y4802120D02*
Y4865620D01*
X9600590D01*
X9606010Y4862440D01*
X9609390Y4858210D01*
X9610750Y4849740D01*
X9609390Y4841280D01*
X9605330Y4835990D01*
X9600590Y4832810D01*
X9583650D01*
G01X9600590D02*
X9610750Y4802120D01*
G01X9708960Y4865620D02*
X9703540Y4863500D01*
X9699480Y4858210D01*
X9696770Y4851860D01*
X9694740Y4843390D01*
X9694060Y4833870D01*
X9694740Y4824340D01*
X9696770Y4815880D01*
X9699480Y4809530D01*
X9703540Y4804240D01*
X9708960Y4802120D01*
X9714380Y4804240D01*
X9718440Y4809530D01*
X9721150Y4815880D01*
X9723180Y4824340D01*
X9723860Y4833870D01*
X9723180Y4843390D01*
X9721150Y4851860D01*
X9718440Y4858210D01*
X9714380Y4863500D01*
X9708960Y4865620D01*
G01X9764840Y4800000D02*
X9763490Y4801060D01*
Y4803180D01*
X9764840Y4804240D01*
X9766190Y4803180D01*
Y4801060D01*
X9764840Y4800000D01*
G01X9820720Y4865620D02*
X9815300Y4863500D01*
X9811240Y4858210D01*
X9808530Y4851860D01*
X9806500Y4843390D01*
X9805820Y4833870D01*
X9806500Y4824340D01*
X9808530Y4815880D01*
X9811240Y4809530D01*
X9815300Y4804240D01*
X9820720Y4802120D01*
X9826140Y4804240D01*
X9830200Y4809530D01*
X9832910Y4815880D01*
X9834940Y4824340D01*
X9835620Y4833870D01*
X9834940Y4843390D01*
X9832910Y4851860D01*
X9830200Y4858210D01*
X9826140Y4863500D01*
X9820720Y4865620D01*
G01X9861700Y4814820D02*
X9865760Y4807410D01*
X9871180Y4803180D01*
X9877280Y4802120D01*
X9882700Y4803180D01*
X9888120Y4808470D01*
X9891500Y4814820D01*
X9892180Y4821170D01*
X9890820Y4828580D01*
X9886080Y4833870D01*
X9881340Y4835990D01*
X9875250D01*
G01X9881340D02*
X9885410Y4839160D01*
X9888790Y4844450D01*
X9890150Y4850800D01*
X9888790Y4857150D01*
X9885410Y4862440D01*
X9879310Y4865620D01*
X9873210Y4864560D01*
X9867120Y4860330D01*
G01X9932480Y4865620D02*
X9927060Y4863500D01*
X9923000Y4858210D01*
X9920290Y4851860D01*
X9918260Y4843390D01*
X9917580Y4833870D01*
X9918260Y4824340D01*
X9920290Y4815880D01*
X9923000Y4809530D01*
X9927060Y4804240D01*
X9932480Y4802120D01*
X9937900Y4804240D01*
X9941960Y4809530D01*
X9944670Y4815880D01*
X9946700Y4824340D01*
X9947380Y4833870D01*
X9946700Y4843390D01*
X9944670Y4851860D01*
X9941960Y4858210D01*
X9937900Y4863500D01*
X9932480Y4865620D01*
G01X9973460Y4811640D02*
X9977520Y4806350D01*
X9982260Y4803180D01*
X9988360Y4802120D01*
X9994460Y4804240D01*
X9999200Y4808470D01*
X10002580Y4815880D01*
X10003260Y4824340D01*
X10001910Y4832810D01*
X9998520Y4838100D01*
X9993780Y4842340D01*
X9989040Y4843390D01*
X9984300Y4842340D01*
X9978200Y4838100D01*
X9980230Y4865620D01*
X9998520D01*
G01X10082510Y4802120D02*
Y4865620D01*
X10100120Y4812700D01*
X10117730Y4865620D01*
Y4802120D01*
G01X10138390D02*
Y4865620D01*
X10156000Y4812700D01*
X10173610Y4865620D01*
Y4802120D01*
G01X8297060Y4329840D02*
X8326860Y4376410D01*
G01X8311960Y4384880D02*
Y4321380D01*
G01X8326860Y4329840D02*
X8297060Y4376410D01*
G01X8291640Y4353130D02*
X8332280D01*
G01X8464700Y4331960D02*
Y4395460D01*
X8478250D01*
X8483660Y4392280D01*
X8487730Y4388050D01*
X8491120Y4381700D01*
X8493820Y4374290D01*
X8494500Y4363710D01*
X8493820Y4353130D01*
X8491120Y4345720D01*
X8487730Y4339370D01*
X8483660Y4335130D01*
X8478250Y4331960D01*
X8464700D01*
G01X8527350Y4395460D02*
X8543610D01*
G01X8535480D02*
Y4331960D01*
G01X8527350D02*
X8543610D01*
G01X8604910D02*
X8577810D01*
Y4395460D01*
X8604910D01*
G01X8594070Y4364770D02*
X8577810D01*
G01X8633690Y4395460D02*
Y4331960D01*
X8660790D01*
G01X8716670D02*
X8689570D01*
Y4395460D01*
X8716670D01*
G01X8705830Y4364770D02*
X8689570D01*
G01X8773900Y4390170D02*
X8769840Y4393340D01*
X8765100Y4395460D01*
X8759680D01*
X8753580Y4392280D01*
X8748840Y4386990D01*
X8745450Y4380640D01*
X8742740Y4370060D01*
X8742070Y4360530D01*
X8743420Y4351010D01*
X8745450Y4344660D01*
X8749520Y4338310D01*
X8754260Y4334080D01*
X8759000Y4331960D01*
X8763740D01*
X8768480Y4334080D01*
X8772550Y4337250D01*
X8775930Y4341480D01*
G01X8814880Y4395460D02*
Y4331960D01*
G01X8799300Y4395460D02*
X8830460D01*
G01X8857210Y4331960D02*
Y4395460D01*
X8874150D01*
X8879570Y4392280D01*
X8882950Y4388050D01*
X8884310Y4379580D01*
X8882950Y4371120D01*
X8878890Y4365830D01*
X8874150Y4362650D01*
X8857210D01*
G01X8874150D02*
X8884310Y4331960D01*
G01X8918510Y4395460D02*
X8934770D01*
G01X8926640D02*
Y4331960D01*
G01X8918510D02*
X8934770D01*
G01X8997420Y4390170D02*
X8993360Y4393340D01*
X8988620Y4395460D01*
X8983200D01*
X8977100Y4392280D01*
X8972360Y4386990D01*
X8968970Y4380640D01*
X8966260Y4370060D01*
X8965590Y4360530D01*
X8966940Y4351010D01*
X8968970Y4344660D01*
X8973040Y4338310D01*
X8977780Y4334080D01*
X8982520Y4331960D01*
X8987260D01*
X8992000Y4334080D01*
X8996070Y4337250D01*
X8999450Y4341480D01*
G01X9085470Y4353130D02*
X9103090D01*
G01X9193170Y4331960D02*
Y4395460D01*
X9218910D01*
G01X9209430Y4364770D02*
X9193170D01*
G01X9248370Y4331960D02*
Y4395460D01*
X9265310D01*
X9270730Y4392280D01*
X9274110Y4388050D01*
X9275470Y4379580D01*
X9274110Y4371120D01*
X9270050Y4365830D01*
X9265310Y4362650D01*
X9248370D01*
G01X9265310D02*
X9275470Y4331960D01*
G01X9308990Y4353130D02*
X9326610D01*
G01X9381810Y4331960D02*
Y4395460D01*
X9356750Y4349950D01*
X9390610D01*
G01X9485440Y4395460D02*
X9480020Y4393340D01*
X9475960Y4388050D01*
X9473250Y4381700D01*
X9471220Y4373230D01*
X9470540Y4363710D01*
X9471220Y4354180D01*
X9473250Y4345720D01*
X9475960Y4339370D01*
X9480020Y4334080D01*
X9485440Y4331960D01*
X9490860Y4334080D01*
X9494920Y4339370D01*
X9497630Y4345720D01*
X9499660Y4354180D01*
X9500340Y4363710D01*
X9499660Y4373230D01*
X9497630Y4381700D01*
X9494920Y4388050D01*
X9490860Y4393340D01*
X9485440Y4395460D01*
G01X9541320Y4329840D02*
X9539970Y4330900D01*
Y4333020D01*
X9541320Y4334080D01*
X9542670Y4333020D01*
Y4330900D01*
X9541320Y4329840D01*
G01X9584330Y4384880D02*
X9588390Y4391230D01*
X9593140Y4394400D01*
X9598550Y4395460D01*
X9605330Y4393340D01*
X9610070Y4388050D01*
X9611420Y4381700D01*
X9610750Y4375350D01*
X9608040Y4370060D01*
X9594490Y4359480D01*
X9588390Y4352070D01*
X9584330Y4341480D01*
X9582980Y4331960D01*
X9611420D01*
G01X9653080Y4395460D02*
X9647660Y4393340D01*
X9643600Y4388050D01*
X9640890Y4381700D01*
X9638860Y4373230D01*
X9638180Y4363710D01*
X9638860Y4354180D01*
X9640890Y4345720D01*
X9643600Y4339370D01*
X9647660Y4334080D01*
X9653080Y4331960D01*
X9658500Y4334080D01*
X9662560Y4339370D01*
X9665270Y4345720D01*
X9667300Y4354180D01*
X9667980Y4363710D01*
X9667300Y4373230D01*
X9665270Y4381700D01*
X9662560Y4388050D01*
X9658500Y4393340D01*
X9653080Y4395460D01*
G01X9694060Y4344660D02*
X9698120Y4337250D01*
X9703540Y4333020D01*
X9709640Y4331960D01*
X9715060Y4333020D01*
X9720480Y4338310D01*
X9723860Y4344660D01*
X9724540Y4351010D01*
X9723180Y4358420D01*
X9718440Y4363710D01*
X9713700Y4365830D01*
X9707610D01*
G01X9713700D02*
X9717770Y4369000D01*
X9721150Y4374290D01*
X9722510Y4380640D01*
X9721150Y4386990D01*
X9717770Y4392280D01*
X9711670Y4395460D01*
X9705570Y4394400D01*
X9699480Y4390170D01*
G01X9751970Y4384880D02*
X9756030Y4391230D01*
X9760780Y4394400D01*
X9766190Y4395460D01*
X9772970Y4393340D01*
X9777710Y4388050D01*
X9779060Y4381700D01*
X9778390Y4375350D01*
X9775680Y4370060D01*
X9762130Y4359480D01*
X9756030Y4352070D01*
X9751970Y4341480D01*
X9750620Y4331960D01*
X9779060D01*
G01X9858990D02*
Y4395460D01*
X9876600Y4342540D01*
X9894210Y4395460D01*
Y4331960D01*
G01X9914870D02*
Y4395460D01*
X9932480Y4342540D01*
X9950090Y4395460D01*
Y4331960D01*
G01X8186650Y3884080D02*
Y3820580D01*
X8213750D01*
G01X8243210Y3873500D02*
X8247270Y3879850D01*
X8252020Y3883020D01*
X8257430Y3884080D01*
X8264210Y3881960D01*
X8268950Y3876670D01*
X8270300Y3870320D01*
X8269630Y3863970D01*
X8266920Y3858680D01*
X8253370Y3848100D01*
X8247270Y3840690D01*
X8243210Y3830100D01*
X8241860Y3820580D01*
X8270300D01*
G01X8311960Y3818460D02*
X8310610Y3819520D01*
Y3821640D01*
X8311960Y3822700D01*
X8313310Y3821640D01*
Y3819520D01*
X8311960Y3818460D01*
G01Y3847040D02*
X8310610Y3848100D01*
Y3850210D01*
X8311960Y3851270D01*
X8313310Y3850210D01*
Y3848100D01*
X8311960Y3847040D01*
G01X8427780Y3852330D02*
X8441330D01*
Y3833280D01*
X8437270Y3826930D01*
X8432530Y3822700D01*
X8425750Y3820580D01*
X8418980Y3822700D01*
X8414240Y3826930D01*
X8410170Y3833280D01*
X8407460Y3840690D01*
X8406110Y3849150D01*
Y3856560D01*
X8407460Y3862910D01*
X8410170Y3870320D01*
X8414240Y3876670D01*
X8418300Y3880900D01*
X8423720Y3884080D01*
X8428460D01*
X8433880Y3881960D01*
X8437940Y3877730D01*
G01X8464020Y3820580D02*
Y3884080D01*
X8495180Y3820580D01*
Y3884080D01*
G01X8520580Y3820580D02*
Y3884080D01*
X8534130D01*
X8539540Y3880900D01*
X8543610Y3876670D01*
X8547000Y3870320D01*
X8549700Y3862910D01*
X8550380Y3852330D01*
X8549700Y3841750D01*
X8547000Y3834340D01*
X8543610Y3827990D01*
X8539540Y3823750D01*
X8534130Y3820580D01*
X8520580D01*
G01X8662140Y3878790D02*
X8658080Y3881960D01*
X8653340Y3884080D01*
X8647920D01*
X8641820Y3880900D01*
X8637080Y3875610D01*
X8633690Y3869260D01*
X8630980Y3858680D01*
X8630310Y3849150D01*
X8631660Y3839630D01*
X8633690Y3833280D01*
X8637760Y3826930D01*
X8642500Y3822700D01*
X8647240Y3820580D01*
X8651980D01*
X8656720Y3822700D01*
X8660790Y3825870D01*
X8664170Y3830100D01*
G01X8703120Y3820580D02*
X8697700Y3821640D01*
X8692960Y3825870D01*
X8688900Y3832220D01*
X8686190Y3839630D01*
X8684830Y3848100D01*
Y3856560D01*
X8686190Y3865030D01*
X8688900Y3872440D01*
X8692960Y3878790D01*
X8697700Y3883020D01*
X8703120Y3884080D01*
X8708540Y3883020D01*
X8713280Y3878790D01*
X8717340Y3872440D01*
X8720050Y3865030D01*
X8721410Y3856560D01*
Y3848100D01*
X8720050Y3839630D01*
X8717340Y3832220D01*
X8713280Y3825870D01*
X8708540Y3821640D01*
X8703120Y3820580D01*
G01X8743420D02*
Y3884080D01*
X8774580Y3820580D01*
Y3884080D01*
G01X8799980Y3820580D02*
Y3884080D01*
X8813530D01*
X8818940Y3880900D01*
X8823010Y3876670D01*
X8826400Y3870320D01*
X8829100Y3862910D01*
X8829780Y3852330D01*
X8829100Y3841750D01*
X8826400Y3834340D01*
X8823010Y3827990D01*
X8818940Y3823750D01*
X8813530Y3820580D01*
X8799980D01*
G01X8855860Y3884080D02*
Y3838570D01*
X8858570Y3829040D01*
X8863990Y3822700D01*
X8870760Y3820580D01*
X8877530Y3822700D01*
X8882950Y3829040D01*
X8885660Y3838570D01*
Y3884080D01*
G01X8941540Y3878790D02*
X8937480Y3881960D01*
X8932740Y3884080D01*
X8927320D01*
X8921220Y3880900D01*
X8916480Y3875610D01*
X8913090Y3869260D01*
X8910380Y3858680D01*
X8909710Y3849150D01*
X8911060Y3839630D01*
X8913090Y3833280D01*
X8917160Y3826930D01*
X8921900Y3822700D01*
X8926640Y3820580D01*
X8931380D01*
X8936120Y3822700D01*
X8940190Y3825870D01*
X8943570Y3830100D01*
G01X8982520Y3884080D02*
Y3820580D01*
G01X8966940Y3884080D02*
X8998100D01*
G01X9038400Y3820580D02*
X9032980Y3821640D01*
X9028240Y3825870D01*
X9024180Y3832220D01*
X9021470Y3839630D01*
X9020110Y3848100D01*
Y3856560D01*
X9021470Y3865030D01*
X9024180Y3872440D01*
X9028240Y3878790D01*
X9032980Y3883020D01*
X9038400Y3884080D01*
X9043820Y3883020D01*
X9048560Y3878790D01*
X9052620Y3872440D01*
X9055330Y3865030D01*
X9056690Y3856560D01*
Y3848100D01*
X9055330Y3839630D01*
X9052620Y3832220D01*
X9048560Y3825870D01*
X9043820Y3821640D01*
X9038400Y3820580D01*
G01X9080730D02*
Y3884080D01*
X9097670D01*
X9103090Y3880900D01*
X9106470Y3876670D01*
X9107830Y3868200D01*
X9106470Y3859740D01*
X9102410Y3854450D01*
X9097670Y3851270D01*
X9080730D01*
G01X9097670D02*
X9107830Y3820580D01*
G01X9197230Y3841750D02*
X9214850D01*
G01X9332700Y3878790D02*
X9328640Y3881960D01*
X9323900Y3884080D01*
X9318480D01*
X9312380Y3880900D01*
X9307640Y3875610D01*
X9304250Y3869260D01*
X9301540Y3858680D01*
X9300870Y3849150D01*
X9302220Y3839630D01*
X9304250Y3833280D01*
X9308320Y3826930D01*
X9313060Y3822700D01*
X9317800Y3820580D01*
X9322540D01*
X9327280Y3822700D01*
X9331350Y3825870D01*
X9334730Y3830100D01*
G01X9373680Y3820580D02*
X9368260Y3821640D01*
X9363520Y3825870D01*
X9359460Y3832220D01*
X9356750Y3839630D01*
X9355390Y3848100D01*
Y3856560D01*
X9356750Y3865030D01*
X9359460Y3872440D01*
X9363520Y3878790D01*
X9368260Y3883020D01*
X9373680Y3884080D01*
X9379100Y3883020D01*
X9383840Y3878790D01*
X9387900Y3872440D01*
X9390610Y3865030D01*
X9391970Y3856560D01*
Y3848100D01*
X9390610Y3839630D01*
X9387900Y3832220D01*
X9383840Y3825870D01*
X9379100Y3821640D01*
X9373680Y3820580D01*
G01X9416010D02*
Y3884080D01*
X9432270D01*
X9437690Y3880900D01*
X9441750Y3873500D01*
X9443110Y3865030D01*
X9441750Y3856560D01*
X9438370Y3850210D01*
X9432270Y3847040D01*
X9416010D01*
G01X9471890Y3820580D02*
Y3884080D01*
X9488150D01*
X9493570Y3880900D01*
X9497630Y3873500D01*
X9498990Y3865030D01*
X9497630Y3856560D01*
X9494250Y3850210D01*
X9488150Y3847040D01*
X9471890D01*
G01X9554870Y3820580D02*
X9527770D01*
Y3884080D01*
X9554870D01*
G01X9544030Y3853390D02*
X9527770D01*
G01X9583650Y3820580D02*
Y3884080D01*
X9600590D01*
X9606010Y3880900D01*
X9609390Y3876670D01*
X9610750Y3868200D01*
X9609390Y3859740D01*
X9605330Y3854450D01*
X9600590Y3851270D01*
X9583650D01*
G01X9600590D02*
X9610750Y3820580D01*
G01X9708960Y3884080D02*
X9703540Y3881960D01*
X9699480Y3876670D01*
X9696770Y3870320D01*
X9694740Y3861850D01*
X9694060Y3852330D01*
X9694740Y3842800D01*
X9696770Y3834340D01*
X9699480Y3827990D01*
X9703540Y3822700D01*
X9708960Y3820580D01*
X9714380Y3822700D01*
X9718440Y3827990D01*
X9721150Y3834340D01*
X9723180Y3842800D01*
X9723860Y3852330D01*
X9723180Y3861850D01*
X9721150Y3870320D01*
X9718440Y3876670D01*
X9714380Y3881960D01*
X9708960Y3884080D01*
G01X9764840Y3818460D02*
X9763490Y3819520D01*
Y3821640D01*
X9764840Y3822700D01*
X9766190Y3821640D01*
Y3819520D01*
X9764840Y3818460D01*
G01X9820720Y3884080D02*
X9815300Y3881960D01*
X9811240Y3876670D01*
X9808530Y3870320D01*
X9806500Y3861850D01*
X9805820Y3852330D01*
X9806500Y3842800D01*
X9808530Y3834340D01*
X9811240Y3827990D01*
X9815300Y3822700D01*
X9820720Y3820580D01*
X9826140Y3822700D01*
X9830200Y3827990D01*
X9832910Y3834340D01*
X9834940Y3842800D01*
X9835620Y3852330D01*
X9834940Y3861850D01*
X9832910Y3870320D01*
X9830200Y3876670D01*
X9826140Y3881960D01*
X9820720Y3884080D01*
G01X9861700Y3833280D02*
X9865760Y3825870D01*
X9871180Y3821640D01*
X9877280Y3820580D01*
X9882700Y3821640D01*
X9888120Y3826930D01*
X9891500Y3833280D01*
X9892180Y3839630D01*
X9890820Y3847040D01*
X9886080Y3852330D01*
X9881340Y3854450D01*
X9875250D01*
G01X9881340D02*
X9885410Y3857620D01*
X9888790Y3862910D01*
X9890150Y3869260D01*
X9888790Y3875610D01*
X9885410Y3880900D01*
X9879310Y3884080D01*
X9873210Y3883020D01*
X9867120Y3878790D01*
G01X9932480Y3884080D02*
X9927060Y3881960D01*
X9923000Y3876670D01*
X9920290Y3870320D01*
X9918260Y3861850D01*
X9917580Y3852330D01*
X9918260Y3842800D01*
X9920290Y3834340D01*
X9923000Y3827990D01*
X9927060Y3822700D01*
X9932480Y3820580D01*
X9937900Y3822700D01*
X9941960Y3827990D01*
X9944670Y3834340D01*
X9946700Y3842800D01*
X9947380Y3852330D01*
X9946700Y3861850D01*
X9944670Y3870320D01*
X9941960Y3876670D01*
X9937900Y3881960D01*
X9932480Y3884080D01*
G01X9973460Y3830100D02*
X9977520Y3824810D01*
X9982260Y3821640D01*
X9988360Y3820580D01*
X9994460Y3822700D01*
X9999200Y3826930D01*
X10002580Y3834340D01*
X10003260Y3842800D01*
X10001910Y3851270D01*
X9998520Y3856560D01*
X9993780Y3860800D01*
X9989040Y3861850D01*
X9984300Y3860800D01*
X9978200Y3856560D01*
X9980230Y3884080D01*
X9998520D01*
G01X10082510Y3820580D02*
Y3884080D01*
X10100120Y3831160D01*
X10117730Y3884080D01*
Y3820580D01*
G01X10138390D02*
Y3884080D01*
X10156000Y3831160D01*
X10173610Y3884080D01*
Y3820580D01*
G01X6824630Y6036900D02*
Y6354400D01*
X6919120D01*
X6950610Y6338520D01*
X6974240Y6301480D01*
X6982110Y6259150D01*
X6974240Y6216820D01*
X6954550Y6185060D01*
X6919120Y6169180D01*
X6824630D01*
G01X7139590Y6354400D02*
Y6036900D01*
X7297070D01*
G01X7434860D02*
X7533290Y6354400D01*
X7631720Y6036900D01*
G01X7596280Y6148020D02*
X7470290D01*
G01X7848250Y6354400D02*
Y6036900D01*
G01X7757700Y6354400D02*
X7938800D01*
G01X8241950Y6036900D02*
X8084470D01*
Y6354400D01*
X8241950D01*
G01X8178960Y6200950D02*
X8084470D01*
G01X8391560Y6036900D02*
Y6354400D01*
X8470290D01*
X8501790Y6338520D01*
X8525410Y6317360D01*
X8545100Y6285610D01*
X8560850Y6248560D01*
X8564780Y6195650D01*
X8560850Y6142730D01*
X8545100Y6105690D01*
X8525410Y6073930D01*
X8501790Y6052770D01*
X8470290Y6036900D01*
X8391560D01*
G01X6600000Y3905240D02*
Y4758680D01*
X8124000D01*
Y3905240D01*
X6600000D01*
G01X6824630Y6790010D02*
Y7107510D01*
X6919120D01*
X6950610Y7091630D01*
X6974240Y7054590D01*
X6982110Y7012260D01*
X6974240Y6969930D01*
X6954550Y6938170D01*
X6919120Y6922290D01*
X6824630D01*
G01X7139590Y7107510D02*
Y6790010D01*
X7297070D01*
G01X7434860D02*
X7533290Y7107510D01*
X7631720Y6790010D01*
G01X7596280Y6901130D02*
X7470290D01*
G01X7848250Y7107510D02*
Y6790010D01*
G01X7757700Y7107510D02*
X7938800D01*
G01X8241950Y6790010D02*
X8084470D01*
Y7107510D01*
X8241950D01*
G01X8178960Y6954060D02*
X8084470D01*
G01X8391560Y6790010D02*
Y7107510D01*
X8470290D01*
X8501790Y7091630D01*
X8525410Y7070470D01*
X8545100Y7038720D01*
X8560850Y7001670D01*
X8564780Y6948760D01*
X8560850Y6895840D01*
X8545100Y6858800D01*
X8525410Y6827040D01*
X8501790Y6805880D01*
X8470290Y6790010D01*
X8391560D01*
G01X9887620Y6084510D02*
X9911230Y6058060D01*
X9938790Y6042190D01*
X9974230Y6036900D01*
X10009670Y6047480D01*
X10037220Y6068640D01*
X10056910Y6105690D01*
X10060840Y6148020D01*
X10052970Y6190350D01*
X10033280Y6216820D01*
X10005720Y6237980D01*
X9978170Y6243270D01*
X9950610Y6237980D01*
X9915180Y6216820D01*
X9926990Y6354400D01*
X10033280D01*
G01X10202580Y6084510D02*
X10226190Y6058060D01*
X10253750Y6042190D01*
X10289190Y6036900D01*
X10324630Y6047480D01*
X10352180Y6068640D01*
X10371870Y6105690D01*
X10375800Y6148020D01*
X10367930Y6190350D01*
X10348240Y6216820D01*
X10320680Y6237980D01*
X10293130Y6243270D01*
X10265570Y6237980D01*
X10230140Y6216820D01*
X10241950Y6354400D01*
X10348240D01*
G01X10517540Y6084510D02*
X10541150Y6058060D01*
X10568710Y6042190D01*
X10604150Y6036900D01*
X10639590Y6047480D01*
X10667140Y6068640D01*
X10686830Y6105690D01*
X10690760Y6148020D01*
X10682890Y6190350D01*
X10663200Y6216820D01*
X10635640Y6237980D01*
X10608090Y6243270D01*
X10580530Y6237980D01*
X10545100Y6216820D01*
X10556910Y6354400D01*
X10663200D01*
G01X9304940Y7266260D02*
Y5838780D01*
G01X9974230Y6790010D02*
X9942730Y6795300D01*
X9915180Y6816460D01*
X9891550Y6848220D01*
X9875800Y6885260D01*
X9867930Y6927590D01*
Y6969930D01*
X9875800Y7012260D01*
X9891550Y7049300D01*
X9915180Y7081050D01*
X9942730Y7102220D01*
X9974230Y7107510D01*
X10005720Y7102220D01*
X10033280Y7081050D01*
X10056910Y7049300D01*
X10072660Y7012260D01*
X10080530Y6969930D01*
Y6927590D01*
X10072660Y6885260D01*
X10056910Y6848220D01*
X10033280Y6816460D01*
X10005720Y6795300D01*
X9974230Y6790010D01*
G01X10005720Y6874680D02*
X10052970Y6790010D01*
G01X10289190Y7107510D02*
Y6790010D01*
G01X10198640Y7107510D02*
X10379740D01*
G01X10604150Y6790010D02*
Y6932880D01*
X10525410Y7107510D01*
G01X10682890D02*
X10604150Y6932880D01*
M02*
