G04 ================== begin FILE IDENTIFICATION RECORD ==================*
G04 Layout Name:  LED Panel G4 V1, 03-26-2017.brd*
G04 Film Name:    BOTTOM*
G04 File Format:  Gerber RS274X*
G04 File Origin:  Cadence Allegro 17.2-P019*
G04 Origin Date:  Wed Aug 12 17:31:22 2020*
G04 *
G04 Layer:  VIA CLASS/BOTTOM*
G04 Layer:  PIN/BOTTOM*
G04 Layer:  ETCH/BOTTOM*
G04 Layer:  BOARD GEOMETRY/OUTLINE*
G04 *
G04 Offset:    (0.0000 0.0000)*
G04 Mirror:    No*
G04 Mode:      Positive*
G04 Rotation:  0*
G04 FullContactRelief:  No*
G04 UndefLineWidth:     0.1000*
G04 ================== end FILE IDENTIFICATION RECORD ====================*
%FSLAX31Y31*MOMM*%
%IR0*IPPOS*OFA0.00000B0.00000*MIA0B0*SFA1.00000B1.00000*%
%ADD11C,.4*%
%ADD10R,.8X.8*%
%ADD12C,.2*%
%ADD13C,.127*%
%ADD14C,.1*%
%ADD15C,.6544*%
G75*
%LPD*%
G75*
G36*
G01X72Y3D02*
G03X73Y6I-2J2D01*
G02X74Y7I1J0D01*
G01X85D01*
Y18D01*
X82D01*
Y32D01*
X85D01*
Y43D01*
X82D01*
Y57D01*
X85D01*
Y68D01*
X82D01*
Y82D01*
X85D01*
Y93D01*
X80D01*
X78Y95D01*
Y101D01*
X82Y105D01*
Y107D01*
X85D01*
Y118D01*
X82D01*
Y132D01*
X85D01*
Y143D01*
X82D01*
Y157D01*
X85D01*
Y168D01*
X82D01*
Y182D01*
X85D01*
Y183D01*
G02X87Y184I1J0D01*
G03X88Y184I1J3D01*
G02X90Y183I0J-1D01*
G01Y182D01*
X91D01*
G02X92Y181I0J-1D01*
G03X98I3J-1D01*
G02X99Y182I1J0D01*
G01X103D01*
Y176D01*
X102Y176D01*
Y170D01*
X103Y170D01*
Y168D01*
X99D01*
G02X98Y169I0J1D01*
G03X92I-3J1D01*
G02X91Y168I-1J0D01*
G01X90D01*
Y157D01*
G03X89Y154I2J-2D01*
G02X88Y153I-1J0D01*
G03X90Y146I1J-3D01*
G02X91Y146I0J-1D01*
G03X91Y144I3J0D01*
G02X90Y143I-1J-1D01*
G01X90Y132D01*
X91D01*
G02X92Y131I0J-1D01*
G03X98I3J-1D01*
G02X99Y132I1J0D01*
G01X103D01*
Y118D01*
X90D01*
Y107D01*
X91D01*
G02X92Y106I0J-1D01*
G03X98Y107I3J-1D01*
G01X99Y107D01*
Y99D01*
X103Y96D01*
Y93D01*
X90D01*
Y82D01*
X91D01*
G02X92Y81I0J-1D01*
G03X98I3J-1D01*
G02X99Y82I1J0D01*
G01X103D01*
Y68D01*
X90D01*
Y57D01*
X91D01*
G02X92Y56I0J-1D01*
G03X98I3J-1D01*
G02X99Y57I1J0D01*
G01X103D01*
Y43D01*
X90D01*
Y32D01*
X91D01*
G02X92Y31I0J-1D01*
G03X98I3J-1D01*
G02X99Y32I1J0D01*
G01X103D01*
Y18D01*
X90D01*
Y7D01*
X91D01*
G02X92Y6I0J-1D01*
G03X93Y3I3J-1D01*
G02X92Y1I-1J-1D01*
G01X73D01*
G02X72Y3I0J1D01*
G37*
G36*
G01X97D02*
G03X98Y6I-2J2D01*
G02X99Y7I1J0D01*
G01X110D01*
Y18D01*
X107D01*
Y32D01*
X110D01*
Y43D01*
X107D01*
Y57D01*
X110D01*
Y68D01*
X107D01*
Y82D01*
X110D01*
Y93D01*
X107D01*
Y95D01*
X107Y98D01*
X104Y101D01*
Y107D01*
X105Y107D01*
X110D01*
Y118D01*
X107D01*
Y132D01*
X109D01*
G03X115Y132I3J0D01*
G01X116Y132D01*
G02X117Y131I0J-1D01*
G03X123I3J-1D01*
G02X124Y132I1J0D01*
G01X128D01*
Y118D01*
X115D01*
Y107D01*
X116D01*
G02X117Y106I0J-1D01*
G03X123I3J-1D01*
G02X124Y107I1J0D01*
G01X128D01*
Y93D01*
X115D01*
Y82D01*
X116D01*
G02X117Y81I0J-1D01*
G03X123I3J-1D01*
G02X124Y82I1J0D01*
G01X128D01*
Y68D01*
X115D01*
Y57D01*
X116D01*
G02X117Y56I0J-1D01*
G03X123I3J-1D01*
G02X124Y57I1J0D01*
G01X128D01*
Y43D01*
X115D01*
Y32D01*
X116D01*
G02X117Y31I0J-1D01*
G03X123I3J-1D01*
G02X124Y32I1J0D01*
G01X128D01*
Y18D01*
X115D01*
Y7D01*
X116D01*
G02X117Y6I0J-1D01*
G03X118Y3I3J-1D01*
G02X117Y1I-1J-1D01*
G01X98D01*
G02X97Y3I0J1D01*
G37*
G36*
G01X122D02*
G03X123Y6I-2J2D01*
G02X124Y7I1J0D01*
G01X135D01*
Y18D01*
X132D01*
Y32D01*
X135D01*
Y43D01*
X132D01*
Y57D01*
X135D01*
Y65D01*
G02X137Y66I1J0D01*
G03X138Y66I1J3D01*
G02X140Y65I0J-1D01*
G01Y57D01*
X141D01*
G02X142Y56I0J-1D01*
G03X148I3J-1D01*
G02X149Y57I1J0D01*
G01X153D01*
Y43D01*
X149D01*
G02X148Y44I0J1D01*
G03X142I-3J1D01*
G02X141Y43I-1J0D01*
G01X140D01*
Y32D01*
X153D01*
Y18D01*
X140D01*
Y7D01*
X141D01*
G02X142Y6I0J-1D01*
G03X143Y3I3J-1D01*
G02X142Y1I-1J-1D01*
G01X123D01*
G02X122Y3I0J1D01*
G37*
G36*
G01X142Y68D02*
G02X141Y69I0J1D01*
G03X139Y72I-3J0D01*
G02X139Y73I0J1D01*
G03X134Y78I-3J2D01*
G02X132Y79I-1J1D01*
G01Y82D01*
X135D01*
Y93D01*
X132D01*
Y107D01*
X135D01*
Y118D01*
X132D01*
Y132D01*
X135D01*
Y143D01*
G02X136Y144I1J0D01*
G03X134Y150I0J3D01*
G02X132Y150I-1J1D01*
G01Y157D01*
X135D01*
Y160D01*
X137D01*
X137Y161D01*
G03X138Y161I0J3D01*
G02X140Y160I0J-1D01*
G01Y157D01*
X141D01*
G02X142Y156I0J-1D01*
G03X148I3J-1D01*
G02X149Y157I1J0D01*
G01X153D01*
Y151D01*
G02X151Y150I-1J0D01*
G03X152Y144I-1J-3D01*
G02X153Y144I0J0D01*
G01Y143D01*
X140D01*
Y132D01*
X141D01*
G02X142Y131I0J-1D01*
G03X148I3J-1D01*
G02X149Y132I1J0D01*
G01X153D01*
Y118D01*
X140D01*
Y107D01*
X141D01*
G02X142Y106I0J-1D01*
G03X148I3J-1D01*
G02X149Y107I1J0D01*
G01X153D01*
Y93D01*
X149D01*
G02X148Y94I0J1D01*
G03X142I-3J1D01*
G02X141Y93I-1J0D01*
G01X140D01*
Y82D01*
X153D01*
Y68D01*
X142D01*
G37*
G36*
G01X39Y119D02*
G03X34Y123I-3J1D01*
G02X32Y123I-1J1D01*
G01Y132D01*
X35D01*
Y140D01*
G02X37Y141I1J0D01*
G03X38Y142I1J3D01*
G02X40Y141I0J-1D01*
G01Y132D01*
X41D01*
G02X42Y131I0J-1D01*
G03X48I3J-1D01*
G02X49Y132I1J0D01*
G01X53D01*
Y118D01*
X40D01*
G02X39Y119I0J1D01*
G37*
G36*
G01X47Y3D02*
G03X48Y6I-2J2D01*
G02X49Y7I1J0D01*
G01X60D01*
Y18D01*
X57D01*
Y32D01*
X60D01*
Y43D01*
X57D01*
Y57D01*
X60D01*
Y68D01*
X57D01*
Y82D01*
X60D01*
Y89D01*
X63Y92D01*
Y108D01*
X60Y111D01*
Y118D01*
X57D01*
Y132D01*
X60D01*
Y141D01*
G02X62Y142I1J0D01*
G03X64Y141I2J3D01*
G02X65Y140I0J-1D01*
G01Y132D01*
X66D01*
G02X67Y131I0J-1D01*
G03X73I3J-1D01*
G02X74Y132I1J0D01*
G01X78D01*
Y118D01*
X65D01*
Y107D01*
X66D01*
G02X67Y106I0J-1D01*
G03X72Y102I3J-1D01*
G02X73Y101I1J-1D01*
G01Y93D01*
X65D01*
Y82D01*
X66D01*
G02X67Y81I0J-1D01*
G03X73I3J-1D01*
G02X74Y82I1J0D01*
G01X78D01*
Y68D01*
X65D01*
Y57D01*
X66D01*
G02X67Y56I0J-1D01*
G03X73I3J-1D01*
G02X74Y57I1J0D01*
G01X78D01*
Y43D01*
X65D01*
Y32D01*
X66D01*
G02X67Y31I0J-1D01*
G03X73I3J-1D01*
G02X74Y32I1J0D01*
G01X78D01*
Y18D01*
X65D01*
Y7D01*
X66D01*
G02X67Y6I0J-1D01*
G03X68Y3I3J-1D01*
G02X67Y1I-1J-1D01*
G01X48D01*
G02X47Y3I0J1D01*
G37*
G36*
G01X22D02*
G03X23Y6I-2J2D01*
G02X24Y7I1J0D01*
G01X35D01*
Y18D01*
X32D01*
Y32D01*
X35D01*
Y43D01*
X32D01*
Y57D01*
X35D01*
Y68D01*
X32D01*
Y82D01*
X35D01*
Y93D01*
X32D01*
Y107D01*
X35D01*
Y116D01*
G02X36Y117I1J0D01*
G03X38Y117I0J3D01*
G02X40Y117I1J-1D01*
G01Y107D01*
X41D01*
G02X42Y106I0J-1D01*
G03X48I3J-1D01*
G02X49Y107I1J0D01*
G01X57D01*
X58Y106D01*
Y94D01*
X57Y93D01*
X40D01*
Y82D01*
X41D01*
G02X42Y81I0J-1D01*
G03X48I3J-1D01*
G02X49Y82I1J0D01*
G01X53D01*
Y68D01*
X40D01*
Y57D01*
X41D01*
G02X42Y56I0J-1D01*
G03X48I3J-1D01*
G02X49Y57I1J0D01*
G01X53D01*
Y43D01*
X40D01*
Y32D01*
X41D01*
G02X42Y31I0J-1D01*
G03X48I3J-1D01*
G02X49Y32I1J0D01*
G01X53D01*
Y18D01*
X40D01*
Y7D01*
X41D01*
G02X42Y6I0J-1D01*
G03X43Y3I3J-1D01*
G02X42Y1I-1J-1D01*
G01X23D01*
G02X22Y3I0J1D01*
G37*
G36*
G01X1Y1D02*
Y7D01*
X10D01*
Y18D01*
X7D01*
Y32D01*
X10D01*
Y43D01*
X7D01*
Y57D01*
X10D01*
Y68D01*
X7D01*
Y82D01*
X10D01*
Y93D01*
X7D01*
Y101D01*
G02X9Y101I1J0D01*
G03X11Y107I2J3D01*
G02X10Y108I0J1D01*
G01Y118D01*
X7D01*
Y132D01*
X10D01*
Y143D01*
X7D01*
Y157D01*
X10D01*
Y168D01*
X7D01*
Y182D01*
X10D01*
Y183D01*
G02X11Y184I1J0D01*
G03X13Y185I0J3D01*
G02X15Y184I1J-1D01*
G01Y182D01*
X16D01*
G02X17Y181I0J-1D01*
G03X23I3J-1D01*
G02X24Y182I1J0D01*
G01X28D01*
Y168D01*
X15D01*
Y157D01*
X16D01*
G02X17Y156I0J-1D01*
G03X18Y153I3J-1D01*
G02X17Y151I-1J-1D01*
G03X21Y151I2J-3D01*
G02X22Y152I1J1D01*
G03X23Y156I-2J3D01*
G02X24Y157I1J0D01*
G01X28D01*
Y143D01*
X15D01*
Y132D01*
X16D01*
G02X17Y131I0J-1D01*
G03X23I3J-1D01*
G02X24Y132I1J0D01*
G01X28D01*
Y118D01*
X15D01*
Y107D01*
X16D01*
G02X17Y106I0J-1D01*
G03X23I3J-1D01*
G02X24Y107I1J0D01*
G01X28D01*
Y93D01*
X15D01*
Y82D01*
X16D01*
G02X17Y81I0J-1D01*
G03X23I3J-1D01*
G02X24Y82I1J0D01*
G01X28D01*
Y68D01*
X15D01*
Y57D01*
X16D01*
G02X17Y56I0J-1D01*
G03X23I3J-1D01*
G02X24Y57I1J0D01*
G01X28D01*
Y43D01*
X15D01*
Y32D01*
X16D01*
G02X17Y31I0J-1D01*
G03X23I3J-1D01*
G02X24Y32I1J0D01*
G01X28D01*
Y18D01*
X15D01*
Y7D01*
X16D01*
G02X17Y6I0J-1D01*
G03X18Y3I3J-1D01*
G02X17Y1I-1J-1D01*
G01X1D01*
G37*
G36*
G01X147Y3D02*
G03X148Y6I-2J2D01*
G02X149Y7I1J0D01*
G01X161D01*
X164Y4D01*
X186D01*
X189Y7D01*
X193D01*
Y6D01*
X196Y3D01*
X202D01*
G03X203Y2I3J2D01*
G01X203Y1D01*
X148D01*
G02X147Y3I0J1D01*
G37*
G36*
G01X41Y147D02*
G03X36Y148I-1J3D01*
G03X34Y144I1J-4D01*
G02X33Y143I-1J0D01*
G01X32D01*
Y157D01*
X35D01*
Y168D01*
X32D01*
Y182D01*
X35D01*
Y183D01*
G02X37Y184I1J0D01*
G03X38Y184I1J3D01*
G02X40Y183I0J-1D01*
G01Y182D01*
X41D01*
G02X42Y181I0J-1D01*
G03X48I3J-1D01*
G02X49Y182I1J0D01*
G01X53D01*
Y168D01*
X49D01*
G02X48Y169I0J1D01*
G03X42I-3J1D01*
G02X41Y168I-1J0D01*
G01X40D01*
Y157D01*
X53D01*
Y143D01*
X42D01*
G02X41Y144I0J1D01*
G03X40Y146I-3J1D01*
G02X41Y147I0J0D01*
G37*
G36*
G01X143Y229D02*
X137Y223D01*
G03X134Y218I0J-3D01*
G01X132Y218D01*
Y225D01*
X132Y226D01*
G02X132Y227I1J1D01*
G03X133Y231I-2J3D01*
G02X134Y232I1J0D01*
G01X135D01*
Y243D01*
X132D01*
Y257D01*
X135D01*
Y258D01*
G02X137Y259I1J0D01*
G03X138Y259I1J3D01*
G02X140Y258I0J-1D01*
G01Y257D01*
X153D01*
Y243D01*
X140D01*
Y232D01*
X143D01*
Y229D01*
G37*
G36*
G01X13Y316D02*
G03X12Y316I-1J-3D01*
G02X10Y317I0J1D01*
G01Y318D01*
X7D01*
Y332D01*
X10D01*
Y333D01*
G02X12Y334I1J0D01*
G03X13Y334I1J3D01*
G02X15Y333I0J-1D01*
G01Y332D01*
X28D01*
Y318D01*
X15D01*
Y317D01*
G02X13Y316I-1J0D01*
G37*
G36*
G01X388Y40D02*
G03X386Y41I-2J-2D01*
G02X385Y41I0J1D01*
G01Y43D01*
X382D01*
Y57D01*
X385D01*
Y68D01*
X382D01*
Y82D01*
X385D01*
Y93D01*
X382D01*
Y107D01*
X385D01*
Y118D01*
X382D01*
Y120D01*
G02X384Y121I1J0D01*
G03Y126I2J3D01*
G02X382Y127I-1J1D01*
G01Y132D01*
X385D01*
Y143D01*
X382D01*
Y157D01*
X385D01*
Y168D01*
X382D01*
Y182D01*
X385D01*
Y193D01*
X365D01*
Y182D01*
X366D01*
G02X367Y181I0J-1D01*
G03X373I3J-1D01*
G02X374Y182I1J0D01*
G01X378D01*
Y174D01*
X374D01*
G03X369Y169I-3J-2D01*
G02X369Y168I-1J-1D01*
G01X365D01*
Y157D01*
X366D01*
G02X367Y156I0J-1D01*
G03X373I3J-1D01*
G02X374Y157I1J0D01*
G01X378D01*
Y143D01*
X365D01*
Y132D01*
X366D01*
G02X367Y131I0J-1D01*
G03X373I3J-1D01*
G02X374Y132I1J0D01*
G01X378D01*
Y118D01*
X365D01*
Y107D01*
X366D01*
G02X367Y106I0J-1D01*
G03X373I3J-1D01*
G02X374Y107I1J0D01*
G01X378D01*
Y93D01*
X365D01*
Y82D01*
X366D01*
G02X367Y81I0J-1D01*
G03X373I3J-1D01*
G02X374Y82I1J0D01*
G01X378D01*
Y68D01*
X374D01*
G02X373Y69I0J1D01*
G03X367I-3J2D01*
G02X366Y68I-1J-1D01*
G01X365D01*
Y58D01*
X364Y58D01*
G03X362Y54I0J-3D01*
G02X361Y52I-1J0D01*
G01X357D01*
Y57D01*
X360D01*
Y64D01*
X363Y67D01*
Y83D01*
X360Y86D01*
Y93D01*
X357D01*
Y107D01*
X360D01*
Y118D01*
X357D01*
Y132D01*
X360D01*
Y143D01*
X357D01*
Y157D01*
X360D01*
Y168D01*
X357D01*
Y182D01*
X360D01*
Y193D01*
X359D01*
G02X358Y194I0J1D01*
G03X352I-3J2D01*
G02X351Y193I-1J-1D01*
G01X340D01*
Y182D01*
X341D01*
G02X342Y181I0J-1D01*
G03X348I3J-1D01*
G02X349Y182I1J0D01*
G01X353D01*
Y168D01*
X340D01*
Y157D01*
X341D01*
G02X342Y156I0J-1D01*
G03X348I3J-1D01*
G02X349Y157I1J0D01*
G01X353D01*
Y143D01*
X340D01*
Y132D01*
X341D01*
G02X342Y131I0J-1D01*
G03X348I3J-1D01*
G02X349Y132I1J0D01*
G01X353D01*
Y118D01*
X340D01*
Y107D01*
X341D01*
G02X342Y106I0J-1D01*
G03X348I3J-1D01*
G02X349Y107I1J0D01*
G01X353D01*
Y93D01*
X340D01*
Y82D01*
X341D01*
G02X342Y81I0J-1D01*
G03X348I3J0D01*
G02X349Y82I1J0D01*
G01X357D01*
X358Y81D01*
Y69D01*
X357Y68D01*
X340D01*
Y59D01*
G02X338Y58I-1J0D01*
G03X337Y58I-1J-3D01*
G02X335Y59I0J1D01*
G01Y64D01*
X338Y67D01*
Y77D01*
X334Y81D01*
G02X335Y82I1J1D01*
G01X335Y93D01*
X332D01*
Y107D01*
X335D01*
Y118D01*
X332D01*
Y132D01*
X335D01*
Y143D01*
X332D01*
Y157D01*
X335D01*
Y168D01*
X332D01*
Y182D01*
X335D01*
Y193D01*
X315D01*
Y182D01*
X316D01*
G02X317Y181I0J-1D01*
G03X323I3J-1D01*
G02X324Y182I1J0D01*
G01X328D01*
Y168D01*
X315D01*
Y157D01*
X316D01*
G02X317Y156I0J-1D01*
G03X323I3J-1D01*
G02X324Y157I1J0D01*
G01X328D01*
Y143D01*
X315D01*
Y132D01*
X316D01*
G02X317Y131I0J-1D01*
G03X323I3J-1D01*
G02X324Y132I1J0D01*
G01X328D01*
Y118D01*
X315D01*
Y107D01*
X316D01*
G02X317Y106I0J-1D01*
G03X323I3J-1D01*
G02X324Y107I1J0D01*
G01X328D01*
Y93D01*
X315D01*
Y85D01*
X312Y82D01*
X310D01*
Y93D01*
X307D01*
Y107D01*
X310D01*
Y118D01*
X307D01*
Y132D01*
X310D01*
Y143D01*
X307D01*
Y157D01*
X310D01*
Y168D01*
X307D01*
Y182D01*
X310D01*
Y193D01*
X290D01*
Y182D01*
X291D01*
G02X292Y181I0J-1D01*
G03X298I3J-1D01*
G02X299Y182I1J0D01*
G01X303D01*
Y168D01*
X290D01*
Y159D01*
G02X288Y158I-1J0D01*
G01X285Y161D01*
Y168D01*
X282D01*
Y182D01*
X285D01*
Y193D01*
X268D01*
X264Y196D01*
Y197D01*
G03X260Y202I-2J3D01*
G01X251D01*
G02X250Y203I0J1D01*
G03X244Y202I-3J0D01*
G02X243Y201I-1J0D01*
G03X241Y201I-1J-3D01*
G02X240Y202I0J1D01*
G03X234I-3J-1D01*
G02X233Y201I-1J0D01*
G03X230Y200I-1J-3D01*
G02X228Y200I-1J1D01*
G03X224Y199I-2J-3D01*
G01X222D01*
X221Y198D01*
X220Y198D01*
X220Y199D01*
G03X217Y195I-3J0D01*
G02X218Y194I0J-1D01*
G01Y193D01*
X215D01*
Y182D01*
X223D01*
G02X223Y181I0J-1D01*
G03X230I3J-1D01*
G02X230Y182I1J0D01*
G01X232D01*
X235Y180D01*
Y170D01*
X232Y168D01*
X215D01*
Y167D01*
G02X213Y166I-1J0D01*
G03X212Y166I-1J-3D01*
G02X210Y167I0J1D01*
G01Y168D01*
X207D01*
Y182D01*
X210D01*
Y193D01*
X205D01*
G02X204Y194I0J1D01*
G03X198I-3J2D01*
G02X197Y193I-1J-1D01*
G01X193D01*
X189Y196D01*
X172D01*
X169Y193D01*
X165D01*
Y182D01*
X166D01*
G02X167Y181I0J-1D01*
G03X173I3J-1D01*
G02X174Y182I1J0D01*
G01X178D01*
Y168D01*
X165D01*
G03X160I-2J-2D01*
G01X157D01*
Y173D01*
G02X159Y174I1J0D01*
G03Y180I1J3D01*
G02X157Y181I0J1D01*
G01Y182D01*
X160D01*
Y193D01*
X153D01*
G02X152Y194I0J1D01*
G03X148I-2J2D01*
G02X147Y193I-1J-1D01*
G01X140D01*
Y182D01*
X141D01*
G02X142Y181I0J-1D01*
G03X148I3J-1D01*
G02X149Y182I1J0D01*
G01X153D01*
Y168D01*
X140D01*
G02X138Y167I-1J0D01*
G03X137Y167I-1J-3D01*
G02X135Y168I0J1D01*
G01X132D01*
Y182D01*
X135D01*
Y193D01*
X135Y194D01*
G03X133Y195I0J3D01*
G02X132Y193I-1J-1D01*
G01X115D01*
Y186D01*
G02X113Y185I-1J0D01*
G03X111Y185I-1J-3D01*
G02X110Y186I0J1D01*
G01Y193D01*
X109D01*
G02X108Y194I0J1D01*
G03X102I-3J0D01*
G02X101Y193I-1J0D01*
G01X98D01*
G02X97Y194I0J1D01*
G03X92Y199I-3J2D01*
G02X91Y200I-1J1D01*
G03X89Y197I-3J0D01*
G02X91Y196I1J-1D01*
G03X91Y194I3J0D01*
G02X90Y193I-1J-1D01*
G01X90Y192D01*
G02X88Y191I-1J0D01*
G03X87Y191I-1J-3D01*
G02X85Y192I0J1D01*
G01Y193D01*
X68D01*
G02X67Y194I0J1D01*
G03X64Y198I-3J1D01*
G02X63Y199I0J1D01*
G03X59Y196I-3J1D01*
G02X60Y195I0J-1D01*
G03X60Y194I3J-1D01*
G02X59Y193I-1J0D01*
G01X41D01*
G02X40Y194I0J1D01*
G03X36Y198I-3J1D01*
G02X34Y199I0J1D01*
G03X32Y196I-3J1D01*
G02X33Y195I0J-1D01*
G03X33Y194I3J-1D01*
G02X32Y193I-1J0D01*
G01X15D01*
Y191D01*
G02X13Y190I-1J0D01*
G03X11Y191I-2J-2D01*
G02X10Y192I0J1D01*
G01Y193D01*
X1D01*
Y207D01*
X10D01*
Y208D01*
G02X11Y209I1J0D01*
G03X13Y210I0J3D01*
G02X15Y209I1J-1D01*
G01Y207D01*
X34D01*
G02X34Y206I0J-1D01*
G03X41I3J-1D01*
G02X41Y207I1J0D01*
G01X60D01*
Y218D01*
X57D01*
Y221D01*
X57Y223D01*
X57Y229D01*
G03X58Y231I-2J2D01*
G02X59Y232I1J0D01*
G01X60D01*
Y243D01*
X57D01*
Y257D01*
X60D01*
Y258D01*
G02X62Y259I1J0D01*
G03X63Y259I1J3D01*
G02X65Y258I0J-1D01*
G01Y257D01*
X78D01*
Y243D01*
X65D01*
Y232D01*
X66D01*
G02X67Y231I0J-1D01*
G03X73I3J-1D01*
G02X74Y232I1J0D01*
G01X78D01*
Y218D01*
X74D01*
G02X73Y219I0J1D01*
G03X67I-3J1D01*
G02X66Y218I-1J0D01*
G01X65D01*
Y208D01*
X64Y208D01*
G03X69Y206I1J-3D01*
G02X70Y207I1J0D01*
G01X85D01*
Y218D01*
X82D01*
Y232D01*
X85D01*
Y236D01*
G02X86Y237I1J0D01*
G03X88Y238I0J3D01*
G02X90Y237I1J-1D01*
G01Y232D01*
X91D01*
G02X92Y231I0J-1D01*
G03X98I3J0D01*
G02X99Y232I1J0D01*
G01X103D01*
Y218D01*
X99D01*
G02X98Y219I0J1D01*
G03X92I-3J1D01*
G02X91Y218I-1J0D01*
G01X90D01*
Y207D01*
G02X91Y206I0J-1D01*
G03X97I3J-1D01*
G02X98Y207I1J0D01*
G01X110D01*
Y218D01*
X107D01*
Y232D01*
X110D01*
Y241D01*
G02X111Y242I1J0D01*
G03X109Y248I0J3D01*
G02X107Y249I-1J1D01*
G01Y257D01*
X110D01*
Y260D01*
G02X112Y261I1J0D01*
G03X113Y261I1J3D01*
G02X115Y260I0J-1D01*
G01Y257D01*
X128D01*
Y243D01*
X124D01*
G02X123Y244I0J1D01*
G03X117I-3J0D01*
G02X116Y243I-1J0D01*
G01X115D01*
Y232D01*
X123D01*
Y227D01*
X128Y223D01*
Y218D01*
X115D01*
Y207D01*
X116D01*
G02X117Y206I0J-1D01*
G03X117Y204I3J-1D01*
G02X116Y203I-1J0D01*
G03X120Y201I1J-3D01*
G02X121Y202I1J0D01*
G03X123Y206I-1J3D01*
G02X124Y207I1J0D01*
G01X135D01*
Y216D01*
G02X136Y217I1J0D01*
G03X138Y217I1J3D01*
G02X140Y216I0J-1D01*
G01Y207D01*
X141D01*
G02X142Y206I0J-1D01*
G03X148Y203I3J-1D01*
G01X163D01*
X164Y204D01*
G02X166Y203I1J-1D01*
G03X172Y206I3J1D01*
G02X173Y207I1J0D01*
G01X178D01*
G02X179Y206I0J-1D01*
G03X179Y205I3J-2D01*
G02X178Y204I-1J0D01*
G03X180Y200I-1J-3D01*
G02X181Y201I1J0D01*
G03X185Y203I1J3D01*
G02X186Y203I1J0D01*
G03X190Y206I1J3D01*
G02X191Y207I1J0D01*
G01X192D01*
X192Y206D01*
G03X198Y206I3J-2D01*
G02X199Y207I1J0D01*
G01X201D01*
G02X202Y206I0J-1D01*
G03X208I3J-1D01*
G02X209Y207I1J0D01*
G01X210D01*
Y218D01*
G02X211Y219I1J0D01*
G03X209Y224I0J3D01*
G02X207Y225I-1J1D01*
G01Y226D01*
X208Y227D01*
Y232D01*
X210D01*
Y235D01*
X213D01*
X214Y236D01*
G02X215Y236I0J0D01*
G01Y234D01*
G02X214Y233I-1J0D01*
G03X215Y227I0J-3D01*
G02X217Y226I0J-1D01*
G03X218Y224I3J0D01*
G01Y218D01*
X215D01*
Y207D01*
X235D01*
Y218D01*
X232D01*
Y232D01*
X235D01*
Y243D01*
X232D01*
Y257D01*
X235D01*
Y268D01*
X232D01*
Y282D01*
X235D01*
Y293D01*
X232D01*
Y307D01*
X235D01*
Y318D01*
X230D01*
G02X231Y319I1J1D01*
G03X235Y324I1J3D01*
G02X235Y326I1J1D01*
G03X236Y327I-2J2D01*
G02X237Y328I1J0D01*
G03X241Y331I1J3D01*
G02X242Y332I1J0D01*
G01X243D01*
Y329D01*
G03X243Y324I2J-3D01*
G02Y322I-1J-1D01*
G03X242Y319I2J-2D01*
G02X241Y318I-1J0D01*
G01X240D01*
Y307D01*
X253D01*
Y305D01*
G02X251Y304I-1J0D01*
G03Y298I-1J-3D01*
G02X253Y297I0J-1D01*
G01Y293D01*
X249D01*
G02X248Y294I0J1D01*
G03X242I-3J1D01*
G02X241Y293I-1J0D01*
G01X240D01*
Y282D01*
X253D01*
Y268D01*
X249D01*
G02X248Y269I0J1D01*
G03X242I-3J1D01*
G02X241Y268I-1J0D01*
G01X240D01*
Y257D01*
X253D01*
Y243D01*
X249D01*
G02X248Y244I0J1D01*
G03X242I-3J1D01*
G02X241Y243I-1J0D01*
G01X240D01*
Y232D01*
X253D01*
Y218D01*
X249D01*
G02X248Y219I0J1D01*
G03X242I-3J1D01*
G02X241Y218I-1J0D01*
G01X240D01*
Y207D01*
X260D01*
Y218D01*
X257D01*
Y232D01*
X260D01*
Y243D01*
X257D01*
Y257D01*
X260D01*
Y268D01*
X257D01*
Y282D01*
X260D01*
Y293D01*
X257D01*
Y307D01*
X260D01*
Y318D01*
X257D01*
Y327D01*
G02X259Y327I1J0D01*
G03X264Y331I2J3D01*
G02X265Y332I1J0D01*
G01X268D01*
Y331D01*
G03X272I2J-3D01*
G01Y332D01*
X278D01*
Y318D01*
X274D01*
G02X273Y319I0J1D01*
G03X267I-3J1D01*
G02X266Y318I-1J0D01*
G01X265D01*
Y307D01*
X278D01*
Y305D01*
X283Y300D01*
Y294D01*
X282Y293D01*
X274D01*
G02X273Y294I0J1D01*
G02X275Y295I1J0D01*
G03X276Y301I1J3D01*
G02X275Y302I0J1D01*
G03X269Y300I-3J-1D01*
G02X269Y298I-1J-1D01*
G03X267Y294I1J-3D01*
G02X266Y293I-1J0D01*
G01X265D01*
Y283D01*
X264Y283D01*
G03X269Y281I2J-3D01*
G02X270Y282I1J0D01*
G01X278D01*
Y268D01*
X274D01*
G02X273Y269I0J1D01*
G03X267I-3J1D01*
G02X266Y268I-1J0D01*
G01X265D01*
Y257D01*
X278D01*
Y243D01*
X274D01*
G02X273Y244I0J1D01*
G03X267I-3J1D01*
G02X266Y243I-1J0D01*
G01X265D01*
Y232D01*
X278D01*
Y218D01*
X274D01*
G02X273Y219I0J1D01*
G03X267I-3J1D01*
G02X266Y218I-1J0D01*
G01X265D01*
Y207D01*
X285D01*
Y218D01*
X282D01*
Y232D01*
X285D01*
Y243D01*
X282D01*
Y250D01*
G02X284Y250I1J0D01*
G03X289Y253I2J3D01*
G01X289Y254D01*
X293Y257D01*
X303D01*
Y243D01*
X290D01*
Y232D01*
X291D01*
G02X292Y231I0J-1D01*
G03X298I3J-1D01*
G02X299Y232I1J0D01*
G01X303D01*
Y218D01*
X290D01*
Y207D01*
X291D01*
G02X292Y206I0J-1D01*
G03X298I3J-1D01*
G02X299Y207I1J0D01*
G01X310D01*
Y218D01*
X307D01*
Y232D01*
X310D01*
Y243D01*
X307D01*
Y257D01*
X310D01*
Y258D01*
G02X312Y259I1J0D01*
G03X313Y259I1J3D01*
G02X315Y258I0J-1D01*
G01Y257D01*
X328D01*
Y243D01*
X315D01*
Y232D01*
X316D01*
G02X317Y231I0J-1D01*
G03X323I3J-1D01*
G02X324Y232I1J0D01*
G01X328D01*
Y218D01*
X315D01*
Y207D01*
X316D01*
G02X317Y206I0J-1D01*
G03X323I3J-1D01*
G02X324Y207I1J0D01*
G01X335D01*
Y218D01*
X332D01*
Y232D01*
X335D01*
Y243D01*
X332D01*
Y257D01*
X335D01*
Y258D01*
G02X337Y259I1J0D01*
G03X338Y259I1J3D01*
G02X340Y258I0J-1D01*
G01Y257D01*
X353D01*
Y243D01*
X340D01*
Y232D01*
X341D01*
G02X342Y231I0J-1D01*
G03X348I3J-1D01*
G02X349Y232I1J0D01*
G01X353D01*
Y218D01*
X340D01*
Y207D01*
X341D01*
G02X342Y206I0J-1D01*
G03X348I3J-1D01*
G02X349Y207I1J0D01*
G01X360D01*
Y218D01*
X357D01*
Y232D01*
X360D01*
Y243D01*
X357D01*
Y257D01*
X360D01*
Y258D01*
G02X362Y259I1J0D01*
G03X363Y259I1J3D01*
G02X365Y258I0J-1D01*
G01Y257D01*
X378D01*
Y243D01*
X365D01*
Y232D01*
X366D01*
G02X367Y231I0J-1D01*
G03X373I3J-1D01*
G02X374Y232I1J0D01*
G01X378D01*
Y218D01*
X365D01*
Y207D01*
X366D01*
G02X367Y206I0J-1D01*
G03X373I3J-1D01*
G02X374Y207I1J0D01*
G01X385D01*
Y218D01*
X382D01*
Y232D01*
X385D01*
Y243D01*
X382D01*
Y257D01*
X385D01*
Y268D01*
X382D01*
Y282D01*
X385D01*
Y293D01*
X382D01*
Y307D01*
X385D01*
Y318D01*
X382D01*
Y332D01*
X385D01*
Y343D01*
X382D01*
Y357D01*
X385D01*
Y368D01*
X382D01*
Y377D01*
G03X383Y381I-2J2D01*
G02X384Y382I1J0D01*
G01X385D01*
Y393D01*
X365D01*
Y382D01*
X366D01*
G02X367Y381I0J-1D01*
G03X373I3J-1D01*
G02X374Y382I1J0D01*
G01X376D01*
G02X377Y381I0J-1D01*
G03X378Y377I3J-1D01*
G01Y368D01*
X374D01*
G02X373Y369I0J1D01*
G03X367I-3J1D01*
G02X366Y368I-1J0D01*
G01X365D01*
Y357D01*
X378D01*
Y343D01*
X374D01*
G02X373Y344I0J1D01*
G03X367I-3J1D01*
G02X366Y343I-1J0D01*
G01X365D01*
G03X359Y343I-3J-1D01*
G01X357Y343D01*
Y357D01*
X360D01*
Y368D01*
X357D01*
Y377D01*
G03X358Y381I-2J2D01*
G02X359Y382I1J0D01*
G01X360D01*
Y393D01*
X340D01*
Y382D01*
X341D01*
G02X342Y381I0J-1D01*
G03X348I3J-1D01*
G02X349Y382I1J0D01*
G01X351D01*
G02X352Y381I0J-1D01*
G03X353Y377I3J-1D01*
G01Y368D01*
X349D01*
G02X348Y369I0J1D01*
G03X342I-3J1D01*
G02X341Y368I-1J0D01*
G01X340D01*
Y357D01*
X353D01*
Y343D01*
X340D01*
Y341D01*
G02X338Y340I-1J0D01*
G03X337Y341I-1J-3D01*
G02X335Y342I0J1D01*
G01Y343D01*
X334D01*
G02X333Y344I0J1D01*
G01Y356D01*
G02X334Y357I1J1D01*
G01X335D01*
Y368D01*
X332D01*
Y377D01*
G03X333Y381I-2J2D01*
G02X334Y382I1J0D01*
G01X335D01*
Y393D01*
X315D01*
Y382D01*
X316D01*
G02X317Y381I0J-1D01*
G03X317Y380I3J-1D01*
G02X315Y379I-1J0D01*
G03X317Y376I-1J-3D01*
G02X319Y377I1J0D01*
G03X323Y381I1J3D01*
G02X324Y382I1J0D01*
G01X326D01*
G02X327Y381I0J-1D01*
G03X328Y377I3J-1D01*
G01Y368D01*
X324D01*
G02X323Y369I0J1D01*
G03X317I-3J1D01*
G02X316Y368I-1J0D01*
G01X315D01*
Y357D01*
X328D01*
Y355D01*
X329Y354D01*
Y351D01*
G02X327Y350I-1J0D01*
G03X326Y350I-1J-3D01*
G02X325Y351I0J1D01*
G03X322Y348I-3J0D01*
G02X323Y347I0J-1D01*
G03X324Y344I3J0D01*
G02X323Y343I-1J-1D01*
G01X316D01*
G03X310I-3J-2D01*
G01X308D01*
G02X307Y344I0J1D01*
G03X307Y346I-2J2D01*
G01Y357D01*
X310D01*
Y368D01*
X307D01*
Y377D01*
G03X308Y381I-2J2D01*
G02X309Y382I1J0D01*
G01X310D01*
Y393D01*
X290D01*
Y383D01*
X289Y383D01*
G03X289Y382I1J-3D01*
G02X288Y383I0J0D01*
G01X285Y386D01*
Y393D01*
X265D01*
Y383D01*
X264Y383D01*
G03X263Y382I1J-3D01*
G02X262Y383I-1J1D01*
G01Y384D01*
X260Y386D01*
Y393D01*
X240D01*
Y382D01*
X240Y381D01*
G03X238Y380I0J-3D01*
G02X237Y381I-1J1D01*
G01Y384D01*
X235Y386D01*
Y393D01*
X215D01*
Y385D01*
X213Y383D01*
G02X212Y383I0J0D01*
G01Y384D01*
X210Y386D01*
Y393D01*
X198D01*
G02X198Y394I0J1D01*
G03X198Y398I-2J2D01*
G02X199Y399I1J0D01*
G01X392D01*
G02X393Y397I0J-1D01*
G03X392Y394I2J-2D01*
G02X391Y393I-1J0D01*
G01X390D01*
Y382D01*
X399D01*
Y373D01*
G02X397Y372I-1J0D01*
G03X392Y369I-2J-2D01*
G02X391Y368I-1J0D01*
G01X390D01*
Y357D01*
X399D01*
Y348D01*
G02X397Y347I-1J0D01*
G03X392Y344I-2J-2D01*
G02X391Y343I-1J0D01*
G01X390D01*
Y332D01*
X399D01*
Y323D01*
G02X397Y322I-1J0D01*
G03X392Y319I-2J-2D01*
G02X391Y318I-1J0D01*
G01X390D01*
Y307D01*
X399D01*
Y298D01*
G02X397Y297I-1J0D01*
G03X392Y294I-2J-2D01*
G02X391Y293I-1J0D01*
G01X390D01*
Y282D01*
X399D01*
Y273D01*
G02X397Y272I-1J0D01*
G03X392Y269I-2J-2D01*
G02X391Y268I-1J0D01*
G01X390D01*
Y257D01*
X399D01*
Y248D01*
G02X397Y247I-1J0D01*
G03X392Y244I-2J-2D01*
G02X391Y243I-1J0D01*
G01X390D01*
Y232D01*
X399D01*
Y223D01*
G02X397Y222I-1J0D01*
G03X392Y219I-2J-2D01*
G02X391Y218I-1J0D01*
G01X390D01*
Y207D01*
X399D01*
Y193D01*
X390D01*
Y182D01*
G02X390Y181I0J-1D01*
G03X397I3J0D01*
G02X398Y182I1J0D01*
G01X399D01*
Y168D01*
X390D01*
Y157D01*
X391D01*
G02X392Y156I0J-1D01*
G03X397Y153I3J-1D01*
G02X399Y152I1J-1D01*
G01Y143D01*
X390D01*
Y132D01*
X391D01*
G02X392Y131I0J-1D01*
G03X397Y128I3J-1D01*
G02X399Y127I1J-1D01*
G01Y118D01*
X390D01*
Y107D01*
X391D01*
G02X392Y106I0J-1D01*
G03X397Y103I3J-1D01*
G02X399Y102I1J-1D01*
G01Y93D01*
X390D01*
Y82D01*
X391D01*
G02X392Y81I0J-1D01*
G03X397Y78I3J-1D01*
G02X399Y77I1J-1D01*
G01Y68D01*
X390D01*
Y57D01*
X391D01*
G02X392Y56I0J-1D01*
G03X397Y53I3J-1D01*
G02X399Y52I1J-1D01*
G01Y43D01*
X390D01*
Y41D01*
G02X388Y40I-1J0D01*
G37*
G36*
G01X115Y136D02*
G02X113Y135I-1J0D01*
G03X111Y135I-1J-3D01*
G02X110Y136I0J1D01*
G01Y143D01*
X107D01*
Y157D01*
X110D01*
Y168D01*
X107D01*
Y172D01*
X107Y174D01*
X107Y182D01*
X109D01*
G03X115Y182I3J0D01*
G01X116Y182D01*
G02X117Y181I0J-1D01*
G03X123I3J-1D01*
G02X124Y182I1J0D01*
G01X128D01*
Y168D01*
X124D01*
G02X123Y169I0J1D01*
G03X117I-3J1D01*
G02X116Y168I-1J0D01*
G01X115D01*
Y157D01*
X128D01*
Y153D01*
G02X126Y152I-1J0D01*
G03Y147I-2J-2D01*
G02X128Y147I1J-1D01*
G01Y143D01*
X115D01*
Y136D01*
G37*
G36*
G01X63Y158D02*
G03X62Y158I-1J-3D01*
G02X60Y159I0J1D01*
G01Y168D01*
X57D01*
Y182D01*
X60D01*
Y183D01*
G02X61Y184I1J0D01*
G03X63Y185I0J3D01*
G02X65Y184I1J-1D01*
G01Y182D01*
X66D01*
G02X67Y181I0J-1D01*
G03X73I3J-1D01*
G02X74Y182I1J0D01*
G01X78D01*
Y168D01*
X74D01*
G02X73Y169I0J1D01*
G03X67I-3J1D01*
G02X66Y168I-1J0D01*
G01X65D01*
Y159D01*
G02X63Y158I-1J0D01*
G37*
G36*
G01X87Y266D02*
G02X85Y267I0J1D01*
G01Y268D01*
X82D01*
Y282D01*
X85D01*
Y293D01*
X82D01*
Y307D01*
X85D01*
Y318D01*
X79D01*
Y327D01*
X82Y330D01*
Y332D01*
X85D01*
Y333D01*
G02X87Y334I1J0D01*
G03X88Y334I1J3D01*
G02X90Y333I0J-1D01*
G02X89Y333I-1J0D01*
G03X89Y326I0J-3D01*
G01X93Y323D01*
Y318D01*
X90D01*
Y307D01*
X89Y306D01*
G03X88Y301I1J-3D01*
G02X88Y300I-1J-1D01*
G03X90Y294I2J-3D01*
G01X90Y293D01*
X90Y282D01*
X103D01*
Y268D01*
X90D01*
Y267D01*
G02X88Y266I-1J0D01*
G03X87Y266I-1J-3D01*
G37*
G36*
G01X115Y268D02*
G02X113Y267I-1J0D01*
G03X112Y267I-1J-3D01*
G02X110Y268I0J1D01*
G01X107D01*
Y282D01*
X110D01*
Y293D01*
X107D01*
Y307D01*
X110D01*
Y318D01*
X107D01*
Y332D01*
X109D01*
G02X109Y331I0J-1D01*
G03X115Y328I3J-1D01*
G02X117Y328I1J0D01*
G03X123Y331I3J2D01*
G02X124Y332I1J0D01*
G01X128D01*
Y331D01*
X127Y331D01*
G03X128Y327I3J-2D01*
G01Y318D01*
X124D01*
G02X123Y319I0J1D01*
G03X117I-3J1D01*
G02X116Y318I-1J0D01*
G01X115D01*
Y307D01*
X119D01*
G02X119Y306I0J-1D01*
G03X124I2J-2D01*
G02X125Y307I1J1D01*
G01X128D01*
Y293D01*
X124D01*
G02X123Y294I0J1D01*
G03X117I-3J1D01*
G02X116Y293I-1J0D01*
G01X115D01*
Y282D01*
X118D01*
G02X119Y281I0J-1D01*
G03X125I3J-1D01*
G02X126Y282I1J0D01*
G01X128D01*
Y268D01*
X124D01*
G02X123Y269I0J1D01*
G03X117I-3J1D01*
G02X116Y268I-1J0D01*
G01X115D01*
G37*
G36*
G01X32Y293D02*
Y300D01*
G02X34Y301I1J0D01*
G03X36Y307I2J3D01*
G02X35Y308I0J1D01*
G01Y318D01*
X32D01*
Y323D01*
G02X34Y324I1J0D01*
G03Y329I2J3D01*
G02X32Y330I-1J1D01*
G01Y332D01*
X35D01*
Y333D01*
G02X37Y334I1J0D01*
G03X38Y334I1J3D01*
G02X40Y333I0J-1D01*
G01Y332D01*
X53D01*
Y327D01*
X58Y321D01*
Y319D01*
X57Y318D01*
X49D01*
G02X48Y319I0J1D01*
G03X42I-3J0D01*
G02X41Y318I-1J0D01*
G01X40D01*
Y307D01*
X53D01*
Y293D01*
X49D01*
G02X48Y294I0J1D01*
G03X42I-3J1D01*
G02X41Y293I-1J0D01*
G01X40D01*
G03X34Y293I-3J2D01*
G01X32Y293D01*
G37*
G36*
G01X139Y332D02*
X138Y332D01*
G03X136Y333I-2J-2D01*
G02X135Y334I0J1D01*
G01Y343D01*
X132D01*
Y357D01*
X133D01*
G02X134Y356I0J-1D01*
G03X136Y352I3J-1D01*
G02X136Y351I-1J-1D01*
G03X142Y349I3J-2D01*
G02X143Y350I1J0D01*
G03X146Y355I0J3D01*
G02X147Y357I1J1D01*
G01X153D01*
Y343D01*
X140D01*
Y332D01*
X139D01*
G37*
G36*
G01X113Y333D02*
G03X112Y333I-1J-3D01*
G02X110Y334I0J1D01*
G01Y343D01*
X107D01*
Y357D01*
X110D01*
Y368D01*
X107D01*
Y382D01*
X110D01*
Y393D01*
X99D01*
G02X98Y394I0J1D01*
G03X97Y397I-3J1D01*
G02X98Y399I1J1D01*
G01X117D01*
G02X118Y397I0J-1D01*
G03X117Y394I2J-2D01*
G02X116Y393I-1J0D01*
G01X115D01*
Y382D01*
X128D01*
Y368D01*
X124D01*
G02X123Y369I0J1D01*
G03X117I-3J1D01*
G02X116Y368I-1J0D01*
G01X115D01*
Y357D01*
X128D01*
Y343D01*
X115D01*
Y334D01*
G02X113Y333I-1J0D01*
G37*
G36*
G01X12Y341D02*
G02X10Y342I0J1D01*
G01Y343D01*
X7D01*
Y357D01*
X10D01*
Y368D01*
X7D01*
Y382D01*
X10D01*
Y393D01*
X1D01*
Y399D01*
X17D01*
G02X18Y397I0J-1D01*
G03X17Y394I2J-2D01*
G02X16Y393I-1J0D01*
G01X15D01*
Y382D01*
X28D01*
Y368D01*
X24D01*
G02X23Y369I0J1D01*
G03X17I-3J1D01*
G02X16Y368I-1J0D01*
G01X15D01*
Y357D01*
X28D01*
Y355D01*
X25Y352D01*
Y343D01*
X15D01*
Y342D01*
G02X13Y341I-1J0D01*
G03X12Y341I-1J-3D01*
G37*
G36*
G01X87D02*
G02X85Y342I0J1D01*
G01Y343D01*
X82D01*
Y357D01*
X85D01*
Y368D01*
X82D01*
Y382D01*
X85D01*
Y393D01*
X74D01*
G02X73Y394I0J1D01*
G03X72Y397I-3J1D01*
G02X73Y399I1J1D01*
G01X92D01*
G02X93Y397I0J-1D01*
G03X92Y394I2J-2D01*
G02X91Y393I-1J0D01*
G01X90D01*
Y382D01*
X103D01*
Y368D01*
X99D01*
G02X98Y369I0J1D01*
G03X92I-3J1D01*
G02X91Y368I-1J0D01*
G01X90D01*
Y357D01*
X103D01*
Y343D01*
X101D01*
G02X100Y344I0J1D01*
G03X94I-3J2D01*
G02X94Y343I-1J-1D01*
G01X90D01*
Y342D01*
G02X88Y341I-1J0D01*
G03X87Y341I-1J-3D01*
G37*
G36*
G01X69Y344D02*
G03X65Y349I-3J2D01*
G02X64Y350I0J1D01*
G03X59Y354I-3J1D01*
G02X57Y355I-1J1D01*
G01Y357D01*
X60D01*
Y368D01*
X57D01*
Y382D01*
X60D01*
Y393D01*
X49D01*
G02X48Y394I0J1D01*
G03X47Y397I-3J1D01*
G02X48Y399I1J1D01*
G01X67D01*
G02X68Y397I0J-1D01*
G03X67Y394I2J-2D01*
G02X66Y393I-1J0D01*
G01X65D01*
Y382D01*
X78D01*
Y368D01*
X74D01*
G02X73Y369I0J1D01*
G03X67I-3J1D01*
G02X66Y368I-1J0D01*
G01X65D01*
Y357D01*
X78D01*
Y343D01*
X70D01*
G02X69Y344I0J1D01*
G37*
G36*
G01X140Y359D02*
G02X138Y358I-1J0D01*
G03X137Y358I-1J-3D01*
G02X135Y359I0J1D01*
G01Y368D01*
X132D01*
Y382D01*
X135D01*
Y393D01*
X124D01*
G02X123Y394I0J1D01*
G03X122Y397I-3J1D01*
G02X123Y399I1J1D01*
G01X142D01*
G02X143Y397I0J-1D01*
G03X142Y394I2J-2D01*
G02X141Y393I-1J0D01*
G01X140D01*
Y382D01*
X153D01*
Y368D01*
X149D01*
G02X148Y369I0J1D01*
G03X142I-3J1D01*
G02X141Y368I-1J0D01*
G01X140D01*
Y359D01*
G37*
G36*
G01X62Y341D02*
G02X60Y342I0J1D01*
G01Y343D01*
X57D01*
Y348D01*
G02X59Y348I1J0D01*
G03X62Y348I2J3D01*
G02X63Y347I0J-1D01*
G03X65Y343I3J-1D01*
G01Y342D01*
G02X63Y341I-1J0D01*
G03X62Y341I-1J-3D01*
G37*
G36*
G01X37D02*
G02X35Y342I0J1D01*
G01Y343D01*
G02X35Y344I0J1D01*
G03X35Y347I-3J2D01*
G02X36Y348I1J0D01*
G03X34Y354I0J3D01*
G02X32Y355I-1J1D01*
G01Y357D01*
X35D01*
Y368D01*
X32D01*
Y382D01*
X35D01*
Y393D01*
X24D01*
G02X23Y394I0J1D01*
G03X22Y397I-3J1D01*
G02X23Y399I1J1D01*
G01X42D01*
G02X43Y397I0J-1D01*
G03X42Y394I2J-2D01*
G02X41Y393I-1J0D01*
G01X40D01*
Y382D01*
X53D01*
Y368D01*
X49D01*
G02X48Y369I0J1D01*
G03X42I-3J1D01*
G02X41Y368I-1J0D01*
G01X40D01*
Y357D01*
X53D01*
Y343D01*
X40D01*
Y342D01*
G02X38Y341I-1J0D01*
G03X37Y341I-1J-3D01*
G37*
G36*
G01X132Y318D02*
Y327D01*
G03X133Y327I-2J2D01*
G02X134Y327I1J-1D01*
G03X139Y328I2J3D01*
G01X144D01*
X147Y331D01*
Y332D01*
X153D01*
Y318D01*
X143D01*
X141Y319D01*
G03X135Y319I-3J1D01*
G02X134Y318I-1J0D01*
G01X132D01*
G37*
G36*
G01X72D02*
Y319D01*
G03X70Y325I-2J3D01*
G02X69Y326I0J1D01*
G03X64Y329I-3J0D01*
G02X63Y330I0J1D01*
G03X61Y333I-3J0D01*
G01X60Y333D01*
G02X62Y334I1J1D01*
G03X63Y334I1J3D01*
G02X65Y333I0J-1D01*
G01Y332D01*
X75D01*
G02X76Y331I0J-1D01*
G01X75Y329D01*
Y318D01*
X72D01*
G37*
G36*
G01X99Y293D02*
G02X98Y294I0J1D01*
G03X94Y298I-3J1D01*
G02X93Y299I0J1D01*
G03X92Y299I-3J-2D01*
G02X93Y301I1J1D01*
G03X93Y306I-2J3D01*
G02X94Y307I1J1D01*
G01X103D01*
Y293D01*
X99D01*
G37*
G36*
G01X74D02*
G02X73Y294I0J1D01*
G03X68Y298I-3J1D01*
G02X67Y298I-1J1D01*
G03X66Y299I-3J-2D01*
G02X66Y300I1J1D01*
G03X66Y305I-2J3D01*
G02X67Y307I1J1D01*
G01X78D01*
Y293D01*
X74D01*
G37*
G36*
G01X135Y284D02*
Y293D01*
X132D01*
Y307D01*
X135D01*
Y316D01*
G02X137Y317I1J0D01*
G03X138Y317I1J3D01*
G01X140Y315D01*
Y306D01*
G03X145Y302I2J-2D01*
G02X146Y302I1J-1D01*
G03X151Y306I2J3D01*
G01X151Y307D01*
X153Y307D01*
Y293D01*
X140D01*
Y285D01*
X137Y283D01*
G02X135Y284I-1J1D01*
G37*
G36*
G01X137Y266D02*
G02X135Y267I0J1D01*
G01Y268D01*
G02X136Y269I1J0D01*
G03X134Y275I0J3D01*
G02X132Y275I-1J1D01*
G01Y282D01*
X133D01*
G02X134Y281I0J-1D01*
G03X141Y280I3J-1D01*
G01X143Y282D01*
X153D01*
Y268D01*
X140D01*
Y267D01*
G02X138Y266I-1J0D01*
G03X137Y266I-1J-3D01*
G37*
G36*
G01X62Y266D02*
G02X60Y267I0J1D01*
G01Y268D01*
X57D01*
Y282D01*
X60D01*
Y293D01*
X57D01*
Y307D01*
X60D01*
Y314D01*
X63Y317D01*
Y322D01*
G02X64Y323I1J0D01*
G03X66Y323I1J3D01*
G02X67Y322I0J-1D01*
G03X68Y319I3J0D01*
G01X68Y318D01*
X65D01*
Y307D01*
G02X64Y306I-1J0D01*
G03X62Y300I0J-3D01*
G02X62Y299I-1J-1D01*
G03X64Y293I2J-3D01*
G02X65Y292I0J-1D01*
G01Y282D01*
X78D01*
Y268D01*
X65D01*
Y267D01*
G02X63Y266I-1J0D01*
G03X62Y266I-1J-3D01*
G37*
G36*
G01X37D02*
G02X35Y267I0J1D01*
G01Y268D01*
X32D01*
Y282D01*
X35D01*
Y291D01*
G02X36Y292I1J0D01*
G03X38Y292I1J3D01*
G02X40Y291I0J-1D01*
G01Y282D01*
X53D01*
Y268D01*
X40D01*
Y267D01*
G02X38Y266I-1J0D01*
G03X37Y266I-1J-3D01*
G37*
G36*
G01X90Y242D02*
X89D01*
G03X84Y243I-3J-1D01*
G01X83Y243D01*
X82D01*
Y257D01*
X85D01*
Y258D01*
G02X87Y259I1J0D01*
G03X88Y259I1J3D01*
G02X90Y258I0J-1D01*
G01Y257D01*
X103D01*
Y243D01*
X90D01*
Y242D01*
G37*
G36*
G01X13Y215D02*
G03X11Y216I-2J-2D01*
G02X10Y217I0J1D01*
G01Y218D01*
X7D01*
Y232D01*
X10D01*
Y233D01*
G02X12Y234I1J0D01*
G03X13Y234I1J3D01*
G02X15Y233I0J-1D01*
G01Y232D01*
X28D01*
Y218D01*
X24D01*
G02X23Y219I0J1D01*
G03X17I-3J1D01*
G02X16Y218I-1J0D01*
G01X15D01*
Y216D01*
G02X13Y215I-1J0D01*
G37*
G36*
G01X38Y208D02*
G03X37Y208I-1J-3D01*
G02X35Y209I0J1D01*
G01Y218D01*
X32D01*
Y223D01*
X33D01*
X34Y223D01*
G03Y227I2J2D01*
G01X33Y227D01*
X32D01*
Y232D01*
X35D01*
Y243D01*
X32D01*
Y257D01*
X35D01*
Y258D01*
G02X37Y259I1J0D01*
G03X38Y259I1J3D01*
G02X40Y258I0J-1D01*
G01Y257D01*
X53D01*
Y243D01*
X40D01*
Y232D01*
X41D01*
G02X42Y231I0J-1D01*
G03X48I3J-1D01*
G02X49Y232I1J0D01*
G01X51D01*
G02X52Y231I0J-1D01*
G03X53Y229I3J0D01*
G01Y225D01*
X52Y225D01*
Y219D01*
X53Y219D01*
Y218D01*
X49D01*
G02X48Y219I0J1D01*
G03X42I-3J1D01*
G02X41Y218I-1J0D01*
G01X40D01*
Y209D01*
G02X38Y208I-1J0D01*
G37*
G36*
G01X57Y143D02*
Y157D01*
X58D01*
G02X59Y156I0J-1D01*
G03X63Y151I3J-1D01*
G02X64Y150I0J-1D01*
G03X64Y149I3J-1D01*
G02X63Y148I-1J0D01*
G03X60Y144I0J-3D01*
G02X59Y143I-1J0D01*
G01X57D01*
G37*
G36*
G01X68D02*
G02X67Y144I0J1D01*
G03X67Y145I-3J1D01*
G02X67Y146I1J0D01*
G03X67Y153I0J3D01*
G02X66Y154I0J1D01*
G03X66Y156I-3J1D01*
G02X66Y157I1J0D01*
G01X78D01*
Y143D01*
X68D01*
G37*
G36*
G01X97Y324D02*
X92Y329D01*
G03X92Y331I-3J0D01*
G02X93Y332I1J0D01*
G01X103D01*
Y318D01*
X97D01*
Y324D01*
G37*
G36*
G01X13Y291D02*
G03X12Y291I-1J-3D01*
G02X10Y292I0J1D01*
G01Y293D01*
X7D01*
Y307D01*
X10D01*
Y308D01*
G02X12Y309I1J0D01*
G03X13Y309I1J3D01*
G02X15Y308I0J-1D01*
G01Y307D01*
X28D01*
Y293D01*
X15D01*
Y292D01*
G02X13Y291I-1J0D01*
G37*
G36*
G01Y266D02*
G03X12Y266I-1J-3D01*
G02X10Y267I0J1D01*
G01Y268D01*
X7D01*
Y282D01*
X10D01*
Y283D01*
G02X12Y284I1J0D01*
G03X13Y284I1J3D01*
G02X15Y283I0J-1D01*
G01Y282D01*
X28D01*
Y268D01*
X15D01*
Y267D01*
G02X13Y266I-1J0D01*
G37*
G36*
G01Y241D02*
G03X12Y241I-1J-3D01*
G02X10Y242I0J1D01*
G01Y243D01*
X7D01*
Y257D01*
X10D01*
Y258D01*
G02X12Y259I1J0D01*
G03X13Y259I1J3D01*
G02X15Y258I0J-1D01*
G01Y257D01*
X28D01*
Y243D01*
X15D01*
Y242D01*
G02X13Y241I-1J0D01*
G37*
G36*
G01X97Y144D02*
G03X93Y149I-3J2D01*
G02X92Y150I0J1D01*
G02X93Y151I1J0D01*
G03X95Y156I-1J3D01*
G02X96Y157I1J0D01*
G01X103D01*
Y143D01*
X98D01*
G02X97Y144I0J1D01*
G37*
G36*
G01X172Y318D02*
Y319D01*
X169Y322D01*
X163D01*
G03X159Y323I-3J-2D01*
G02X157Y324I0J1D01*
G01Y332D01*
X160D01*
Y343D01*
X157D01*
Y357D01*
X160D01*
Y368D01*
X157D01*
Y382D01*
X160D01*
Y393D01*
X149D01*
G02X148Y394I0J1D01*
G03X147Y397I-3J1D01*
G02X148Y399I1J1D01*
G01X167D01*
G02X168Y397I0J-1D01*
G03X167Y394I2J-2D01*
G02X166Y393I-1J0D01*
G01X165D01*
Y382D01*
X178D01*
Y379D01*
X176Y378D01*
Y372D01*
X178Y371D01*
Y368D01*
X174D01*
G02X173Y369I0J1D01*
G03X167I-3J1D01*
G02X166Y368I-1J0D01*
G01X165D01*
Y357D01*
X176D01*
Y356D01*
X174Y354D01*
Y343D01*
X172D01*
Y345D01*
X169Y348D01*
G03X166Y345I-3J0D01*
G01X167Y344D01*
G02X166Y343I-1J-1D01*
G01X165D01*
Y332D01*
X172D01*
G02X173Y331I0J-1D01*
G01X173Y330D01*
Y323D01*
X176Y319D01*
G02X175Y318I-1J-1D01*
G01X172D01*
G37*
G36*
G01X288Y10D02*
G03X286Y11I-2J-2D01*
G02X285Y12I0J1D01*
G01Y18D01*
X282D01*
Y32D01*
X285D01*
Y43D01*
X282D01*
Y57D01*
X285D01*
Y68D01*
X282D01*
Y82D01*
X285D01*
Y81D01*
X290Y76D01*
G02X290Y75I0J-1D01*
G03X296Y73I3J-1D01*
G02X298Y73I1J-1D01*
G01X301Y69D01*
G02X301Y68I-1J-1D01*
G01X290D01*
Y57D01*
X291D01*
G02X292Y56I0J-1D01*
G03X297Y52I3J-1D01*
G02X298Y52I0J-1D01*
G03X298Y51I3J1D01*
G02X297Y50I-1J0D01*
G03X296Y45I1J-3D01*
G02X295Y43I-1J-1D01*
G01X290D01*
Y32D01*
X291D01*
G02X292Y31I0J-1D01*
G03X293Y28I3J-1D01*
G02X293Y27I0J0D01*
G03X297Y27I2J-2D01*
G02X297Y28I0J0D01*
G03X298Y31I-2J2D01*
G02X299Y32I1J0D01*
G01X303D01*
Y18D01*
X290D01*
Y11D01*
G02X288Y10I-1J0D01*
G37*
G36*
G01X340Y14D02*
G02X338Y13I-1J0D01*
G01X337Y15D01*
X335D01*
Y18D01*
X332D01*
Y22D01*
X332Y32D01*
X335D01*
Y43D01*
X332D01*
Y57D01*
X334D01*
G02X335Y56I0J-1D01*
G03X337Y52I3J-1D01*
G02X337Y51I0J-1D01*
G03X338Y47I3J-1D01*
G01Y41D01*
X340Y40D01*
Y32D01*
X357D01*
X358Y31D01*
Y29D01*
X354Y24D01*
X353Y24D01*
Y20D01*
X353Y18D01*
X340D01*
Y14D01*
G37*
G36*
G01X240Y15D02*
G02X238Y14I-1J0D01*
G03X237Y14I-1J-3D01*
G01X237Y15D01*
X235D01*
Y18D01*
X232D01*
Y32D01*
X235D01*
Y37D01*
X238Y40D01*
Y58D01*
X235Y61D01*
Y68D01*
X232D01*
Y69D01*
X233Y69D01*
G03X235Y73I-1J3D01*
G02X236Y74I1J0D01*
G03X234Y76I1J3D01*
G02X234Y75I0J0D01*
G03X233Y76I-2J-3D01*
G01X232Y76D01*
Y82D01*
X235D01*
Y86D01*
X238Y89D01*
G02X240Y88I1J-1D01*
G01Y82D01*
X241D01*
G02X242Y81I0J-1D01*
G03X246Y77I3J-1D01*
G02X248Y76I0J-1D01*
G01Y68D01*
X240D01*
Y57D01*
X241D01*
G02X242Y56I0J-1D01*
G03X248I3J-1D01*
G02X249Y57I1J0D01*
G01X253D01*
Y43D01*
X240D01*
Y32D01*
X241D01*
G02X242Y31I0J-1D01*
G03X248I3J-1D01*
G02X249Y32I1J0D01*
G01X253D01*
Y18D01*
X240D01*
Y15D01*
G37*
G36*
G01X189Y43D02*
Y57D01*
X206D01*
Y48D01*
X203Y45D01*
Y43D01*
X189D01*
G37*
G36*
G01X265Y44D02*
G03X259Y45I-3J1D01*
G01X258Y44D01*
G02X257Y44I0J0D01*
G01Y57D01*
X260D01*
Y68D01*
X254D01*
X252Y70D01*
Y76D01*
X257Y81D01*
Y82D01*
X260D01*
Y93D01*
X257D01*
Y107D01*
X260D01*
Y118D01*
X257D01*
Y126D01*
X258Y127D01*
Y132D01*
X260D01*
Y143D01*
X257D01*
Y149D01*
G02X257Y151I0J1D01*
G01X261D01*
G03X262Y151I3J2D01*
G02X261Y150I0J0D01*
G03X265Y149I1J-3D01*
G02X265Y150I1J1D01*
G03X266Y150I-2J3D01*
G02X267Y150I0J0D01*
G03X273Y151I3J0D01*
G02X274Y152I1J0D01*
G01X277D01*
G03X283Y154I3J2D01*
G02X285Y154I1J0D01*
G01X286Y154D01*
Y146D01*
X282Y143D01*
X265D01*
Y132D01*
X266D01*
G02X267Y131I0J-1D01*
G03X273I3J-1D01*
G02X274Y132I1J0D01*
G01X278D01*
Y118D01*
X265D01*
Y107D01*
X266D01*
G02X267Y106I0J-1D01*
G03X273I3J-1D01*
G02X274Y107I1J0D01*
G01X278D01*
Y93D01*
X265D01*
Y82D01*
X266D01*
G02X267Y81I0J-1D01*
G03X267Y79I3J-1D01*
G02X266Y78I-1J0D01*
G03X269Y75I0J-3D01*
G02X270Y77I1J0D01*
G03X273Y81I0J3D01*
G02X274Y82I1J0D01*
G01X278D01*
Y68D01*
X265D01*
Y57D01*
X266D01*
G02X267Y56I0J-1D01*
G03X271Y52I3J-1D01*
G02X273Y51I0J-1D01*
G02X272Y50I0J-1D01*
G03X270Y45I-1J-3D01*
G02X269Y43I-1J-1D01*
G01X266D01*
G02X265Y44I0J1D01*
G37*
G36*
G01X187Y63D02*
G02X185Y64I-1J1D01*
G01Y68D01*
X182D01*
Y82D01*
X185D01*
X195Y72D01*
X199D01*
X200Y73D01*
X203D01*
G03X203Y72I2J0D01*
G01X206Y69D01*
Y68D01*
X190D01*
Y65D01*
X189D01*
X187Y63D01*
G37*
G36*
G01X315Y11D02*
G02X313Y10I-1J0D01*
G03X311Y10I-2J-3D01*
G02X310Y11I0J1D01*
G01Y18D01*
X307D01*
Y32D01*
X310D01*
Y42D01*
G02X311Y43I1J0D01*
G01X307Y43D01*
Y57D01*
X310D01*
Y68D01*
X307D01*
Y70D01*
G03X303Y75I-1J3D01*
G02X302Y75I-1J1D01*
G01X300Y77D01*
G02X300Y78I0J0D01*
G01X301Y78D01*
G03X306Y78I2J2D01*
G01X313D01*
X318Y82D01*
X328D01*
Y80D01*
X333Y75D01*
Y69D01*
X332Y68D01*
X331D01*
G03X325Y69I-3J2D01*
G02X324Y68I-1J0D01*
G01X315D01*
Y57D01*
X318D01*
Y56D01*
X322Y52D01*
G03X326Y51I3J2D01*
G02X328Y50I0J-1D01*
G01Y43D01*
X318D01*
X314Y46D01*
Y47D01*
G03X310I-2J3D01*
G01Y44D01*
X311Y44D01*
G02X311Y43I0J0D01*
G03X312Y43I1J0D01*
G01X315Y40D01*
Y32D01*
X328D01*
Y24D01*
G02X326Y23I-1J0D01*
G03X326Y24I-1J-3D01*
G02X325Y25I0J1D01*
G03X321Y21I-3J0D01*
G02X322Y20I0J-1D01*
G03X322Y19I3J0D01*
G02X321Y18I-1J0D01*
G01X315D01*
Y11D01*
G37*
G36*
G01X244Y120D02*
G03X245Y122I-2J2D01*
G02X246Y124I1J0D01*
G03X250Y126I1J3D01*
G02X251Y126I0J0D01*
G03X252Y126I1J3D01*
G02X253Y125I0J-1D01*
G01Y118D01*
X245D01*
G02X244Y120I0J1D01*
G37*
G36*
G01X157Y118D02*
Y132D01*
X160D01*
Y133D01*
G02X161Y134I1J0D01*
G03X163Y135I0J3D01*
G02X165Y134I1J-1D01*
G01Y132D01*
X166D01*
G02X167Y131I0J-1D01*
G03X173I3J-1D01*
G02X174Y132I1J0D01*
G01X178D01*
Y118D01*
X167D01*
G02X166Y119I0J1D01*
G03X165Y121I-3J0D01*
G02Y123I1J1D01*
G03X160I-2J2D01*
G02Y121I-1J-1D01*
G03X159Y119I2J-2D01*
G02X158Y118I-1J0D01*
G01X157D01*
G37*
G36*
G01X213Y108D02*
G03X212Y108I-1J-3D01*
G02X210Y109I0J1D01*
G01Y118D01*
X207D01*
Y125D01*
G02X209Y125I1J0D01*
G03X213Y126I2J3D01*
G01X219D01*
X220Y126D01*
Y123D01*
X223Y119D01*
G02X222Y118I-1J-1D01*
G01X215D01*
Y109D01*
G02X213Y108I-1J0D01*
G37*
G36*
G01X238Y108D02*
X235Y111D01*
Y118D01*
X230D01*
X228Y120D01*
G02X228Y122I1J1D01*
G03X230Y124I-1J3D01*
G02X231Y125I1J0D01*
G03X233Y125I1J3D01*
G02X234Y124I0J-1D01*
G03X238Y122I3J1D01*
G02X239Y121I0J-1D01*
G03X241Y119I3J1D01*
G01X242Y119D01*
Y118D01*
X240D01*
Y109D01*
G02X238Y108I-1J0D01*
G37*
G36*
G01X182Y93D02*
Y107D01*
X185D01*
Y118D01*
X182D01*
Y132D01*
X185D01*
Y143D01*
X182D01*
Y150D01*
G02X184Y151I1J0D01*
G03X186Y156I2J2D01*
G02X185Y157I0J1D01*
G01Y158D01*
G02X187Y159I1J0D01*
G03X188Y159I1J3D01*
G02X190Y158I0J-1D01*
G01Y157D01*
X191D01*
G02X192Y156I0J-1D01*
G03X198I3J-1D01*
G02X199Y157I1J0D01*
G01X203D01*
Y143D01*
X190D01*
Y132D01*
X191D01*
G02X192Y131I0J-1D01*
G02X191Y130I-1J0D01*
G03X191Y123I0J-3D01*
G02X192Y122I0J-1D01*
G03X193Y119I3J0D01*
G01Y118D01*
X190D01*
Y107D01*
X200D01*
G02X201Y106I0J-1D01*
G01X201Y105D01*
X190D01*
X185Y101D01*
Y93D01*
X182D01*
G37*
G36*
G01X228Y96D02*
G03X222Y99I-3J2D01*
G02X221Y99I-1J0D01*
G03X220Y99I0J-3D01*
G03X220Y102I-3J3D01*
G01X222Y104D01*
Y107D01*
X232D01*
X235Y105D01*
Y104D01*
X234Y104D01*
G03X234Y101I3J-2D01*
G02X233Y100I-1J0D01*
G03X229Y97I0J-3D01*
G01X229Y96D01*
X228Y96D01*
G37*
G36*
G01X282Y93D02*
Y107D01*
X285D01*
Y118D01*
X282D01*
Y132D01*
X285D01*
Y139D01*
X288Y142D01*
G02X290Y141I1J-1D01*
G01Y132D01*
X291D01*
G02X292Y131I0J-1D01*
G03X298I3J-1D01*
G02X299Y132I1J0D01*
G01X303D01*
Y118D01*
X290D01*
Y107D01*
X291D01*
G02X292Y106I0J-1D01*
G03X298I3J-1D01*
G02X299Y107I1J0D01*
G01X303D01*
Y101D01*
X301Y100D01*
X293D01*
G02X291Y100I-1J1D01*
G03X288Y97I-3J0D01*
G02X288Y95I0J-1D01*
G01X286Y93D01*
X282D01*
G37*
G36*
G01X239D02*
Y99D01*
G03Y104I-2J2D01*
G01Y107D01*
X240Y107D01*
X241D01*
G02X242Y106I0J-1D01*
G03X248I3J-1D01*
G02X249Y107I1J0D01*
G01X253D01*
Y93D01*
X239D01*
G37*
G36*
G01X164Y43D02*
Y52D01*
G03X166Y55I-2J3D01*
G01X168Y57D01*
X175D01*
G02X176Y56I0J-1D01*
G01X174Y54D01*
Y44D01*
G02X174Y43I-1J-1D01*
G01X164D01*
G37*
G36*
G01X157Y18D02*
Y32D01*
X160D01*
Y18D01*
X157D01*
G37*
G36*
G01X189D02*
Y22D01*
G02X189Y24I1J1D01*
G03X191Y27I-2J3D01*
G01X196Y32D01*
X199D01*
G02X200Y31I0J-1D01*
G03X199Y29I2J-2D01*
G02X198Y28I-1J0D01*
G03X200Y24I-1J-3D01*
G02X201Y25I1J0D01*
G03X205Y27I1J3D01*
G02X207Y27I1J0D01*
G01X208Y25D01*
Y24D01*
G02X207Y23I-1J0D01*
G03X203Y19I-1J-3D01*
G02X202Y18I-1J0D01*
G01X189D01*
G37*
G36*
G01X164D02*
Y32D01*
X166D01*
G02X167Y31I0J-1D01*
G03X173I3J-1D01*
G02X174Y32I1J0D01*
G01X178D01*
Y18D01*
X174D01*
G02X173Y19I0J1D01*
G03X167I-3J1D01*
G02X166Y18I-1J0D01*
G01X164D01*
G37*
G36*
G01X215Y10D02*
G02X213Y9I-1J0D01*
G03X211Y9I-1J-3D01*
G01X210Y10D01*
Y15D01*
X212Y17D01*
Y27D01*
X209Y31D01*
G02X210Y32I1J1D01*
G01X210Y43D01*
G02X209Y44I0J1D01*
G01X210Y46D01*
Y60D01*
X210Y61D01*
Y64D01*
X210Y65D01*
Y71D01*
X207Y74D01*
Y82D01*
X210D01*
Y93D01*
X201D01*
G02X200Y94I0J1D01*
G02X201Y95I1J0D01*
G03X205Y98I1J3D01*
G02X206Y99I1J0D01*
G03X208Y99I1J3D01*
G02X209Y98I0J-1D01*
G03X215Y97I3J0D01*
G02X216Y98I1J0D01*
G03X217Y98I1J3D01*
G02X217Y97I0J-1D01*
G03X217Y94I3J-2D01*
G02X216Y93I-1J0D01*
G01X215D01*
Y82D01*
X228D01*
Y78D01*
X225Y75D01*
Y70D01*
X225Y69D01*
G02X225Y68I-1J-1D01*
G01X215D01*
Y57D01*
X218D01*
Y56D01*
X224Y50D01*
X229D01*
G03X229Y49I3J2D01*
G02Y48I-1J-1D01*
G03X228Y44I2J-2D01*
G02X227Y43I-1J0D01*
G01X215D01*
Y32D01*
X218D01*
Y31D01*
G02X217Y30I-1J0D01*
G03X219Y24I0J-3D01*
G02X221Y24I1J-1D01*
G03X226Y24I2J2D01*
G02X228Y24I1J-1D01*
G01Y18D01*
X215D01*
Y10D01*
G37*
G36*
G01X372Y3D02*
G03X373Y6I-2J2D01*
G02X374Y7I1J0D01*
G01X385D01*
Y18D01*
X382D01*
Y32D01*
X385D01*
Y34D01*
G02X386Y34I1J0D01*
G03X388Y35I0J3D01*
G02X390Y34I1J-1D01*
G01Y32D01*
X391D01*
G02X392Y31I0J-1D01*
G03X397Y28I3J-1D01*
G02X399Y27I1J-1D01*
G01Y18D01*
X390D01*
Y7D01*
X391D01*
G02X392Y6I0J-1D01*
G03X393Y3I3J-1D01*
G02X392Y1I-1J-1D01*
G01X373D01*
G02X372Y3I0J1D01*
G37*
G36*
G01X347D02*
G03X348Y6I-2J2D01*
G02X349Y7I1J0D01*
G01X360D01*
Y18D01*
X358D01*
Y22D01*
X359Y22D01*
X363Y27D01*
Y33D01*
X360Y36D01*
Y43D01*
X357D01*
Y48D01*
X361D01*
G03X363Y51I0J2D01*
G02X364Y52I1J0D01*
G03X367Y53I1J3D01*
G02X368Y53I0J0D01*
G03X373Y56I2J2D01*
G02X374Y57I1J0D01*
G01X378D01*
Y43D01*
X365D01*
Y32D01*
X366D01*
G02X367Y31I0J-1D01*
G03X373I3J-1D01*
G02X374Y32I1J0D01*
G01X378D01*
Y18D01*
X372D01*
G02X371Y19I0J1D01*
G03X366I-2J2D01*
G02X365Y18I-1J-1D01*
G01X365Y7D01*
X366D01*
G02X367Y6I0J-1D01*
G03X368Y3I3J-1D01*
G02X367Y1I-1J-1D01*
G01X348D01*
G02X347Y3I0J1D01*
G37*
G36*
G01X322D02*
G03X323Y6I-2J2D01*
G02X324Y7I1J0D01*
G01X335D01*
G03X340I2J2D01*
G01X341D01*
G02X342Y6I0J-1D01*
G03X343Y3I3J-1D01*
G02X342Y1I-1J-1D01*
G01X323D01*
G02X322Y3I0J1D01*
G37*
G36*
G01X222D02*
G03X223Y6I-2J2D01*
G02X224Y7I1J0D01*
G01X235D01*
G02X237Y8I1J0D01*
G03X238Y8I1J3D01*
G02X240Y7I0J-1D01*
G01X241D01*
G02X242Y6I0J-1D01*
G03X243Y3I3J-1D01*
G02X242Y1I-1J-1D01*
G01X223D01*
G02X222Y3I0J1D01*
G37*
G36*
G01X274Y1D02*
G02X273Y2I0J1D01*
G03X272Y6I-3J1D01*
G01Y7D01*
X283D01*
G03X289Y7I3J1D01*
G01X291Y7D01*
G02X292Y6I0J-1D01*
G03X293Y3I3J-1D01*
G02X292Y1I-1J-1D01*
G01X274D01*
G37*
G36*
G01X247Y3D02*
G03X248Y6I-2J2D01*
G02X249Y7I1J0D01*
G01X260D01*
Y18D01*
X257D01*
Y32D01*
X260D01*
Y40D01*
X262Y42D01*
X263Y42D01*
G02X265Y41I1J-1D01*
G01Y32D01*
X266D01*
G02X267Y31I0J-1D01*
G03X273I3J-1D01*
G02X274Y32I1J0D01*
G01X278D01*
Y18D01*
X274D01*
G02X273Y19I0J1D01*
G03X267I-3J1D01*
G02X266Y18I-1J0D01*
G01X265D01*
Y7D01*
X268D01*
Y5D01*
G03X267Y2I2J-2D01*
G02X266Y1I-1J0D01*
G01X248D01*
G02X247Y3I0J1D01*
G37*
G36*
G01X189Y99D02*
X191Y101D01*
X198D01*
G02X199Y100I0J-1D01*
G03X199Y99I3J-2D01*
G02X198Y98I-1J0D01*
G03X194Y95I-1J-3D01*
G01X193Y94D01*
Y93D01*
X189D01*
Y99D01*
G37*
G36*
G01X157Y68D02*
Y82D01*
X160D01*
Y93D01*
X157D01*
Y107D01*
X160D01*
Y115D01*
G02X162Y116I1J0D01*
G03X163Y116I1J3D01*
G02X165Y115I0J-1D01*
G01Y107D01*
X166D01*
G02X167Y106I0J-1D01*
G03X173I3J-1D01*
G02X174Y107I1J0D01*
G01X178D01*
Y93D01*
X174D01*
G02X173Y94I0J1D01*
G03X167I-3J1D01*
G02X166Y93I-1J0D01*
G01X165D01*
Y82D01*
X178D01*
Y68D01*
X166D01*
G02X165Y69I0J1D01*
G03X159Y68I-3J0D01*
G01X157Y68D01*
G37*
G36*
G01X182Y43D02*
X179Y46D01*
Y52D01*
X182Y56D01*
Y57D01*
X185D01*
Y43D01*
X182D01*
G37*
G36*
G01X347Y44D02*
G03X346Y48I-3J1D01*
G01Y54D01*
X347Y54D01*
Y57D01*
X353D01*
Y43D01*
X348D01*
G02X347Y44I0J1D01*
G37*
G36*
G01X154Y218D02*
X154Y219D01*
G02X154Y220I1J1D01*
G03X156Y221I-1J3D01*
G01X167D01*
X170Y224D01*
Y232D01*
X178D01*
Y218D01*
X165D01*
Y210D01*
X162Y207D01*
X160D01*
Y218D01*
X154D01*
G37*
G36*
G01X156Y225D02*
G03X152Y226I-3J-2D01*
G01X151Y226D01*
Y227D01*
X156Y232D01*
X160D01*
Y243D01*
X157D01*
Y257D01*
X160D01*
Y256D01*
X164Y252D01*
X175D01*
X178Y249D01*
Y243D01*
X165D01*
Y232D01*
X166D01*
Y226D01*
X165Y225D01*
X156D01*
G37*
G36*
G01X313Y266D02*
G03X312Y266I-1J-3D01*
G02X310Y267I0J1D01*
G01Y268D01*
X307D01*
Y282D01*
X310D01*
Y293D01*
X307D01*
Y307D01*
X310D01*
Y318D01*
X307D01*
Y332D01*
X310D01*
Y337D01*
G02X312Y338I1J0D01*
G03X313Y338I1J3D01*
G02X315Y337I0J-1D01*
G01Y332D01*
X316D01*
G02X317Y331I0J-1D01*
G03X323I3J-1D01*
G02X324Y332I1J0D01*
G01X328D01*
Y318D01*
X324D01*
G02X323Y319I0J1D01*
G03X317I-3J1D01*
G02X316Y318I-1J0D01*
G01X315D01*
Y307D01*
X328D01*
Y306D01*
G02X326Y305I-1J0D01*
G03Y299I-1J-3D01*
G02X328Y298I0J-1D01*
G01Y293D01*
X324D01*
G02X323Y294I0J1D01*
G03X317I-3J1D01*
G02X316Y293I-1J0D01*
G01X315D01*
Y282D01*
X328D01*
Y268D01*
X315D01*
Y267D01*
G02X313Y266I-1J0D01*
G37*
G36*
G01X243Y125D02*
G03X241Y125I-1J-3D01*
G02X240Y126I0J1D01*
G03X236Y129I-3J-1D01*
G02X235Y129I0J1D01*
G03X234Y131I-3J-1D01*
G02X235Y132I1J1D01*
G01X235Y143D01*
X232D01*
Y157D01*
X235D01*
G02X236Y158I1J0D01*
G01X237Y157D01*
Y154D01*
X243Y148D01*
X252D01*
X253Y147D01*
Y143D01*
X240D01*
Y132D01*
X246D01*
X247Y132D01*
G02X246Y130I-1J-1D01*
G03X244Y126I1J-3D01*
G02X243Y125I-1J0D01*
G37*
G36*
G01X213Y130D02*
G03X211Y131I-3J-2D01*
G02X210Y132I0J1D01*
G01Y143D01*
X207D01*
Y157D01*
X210D01*
Y158D01*
G02X212Y159I1J0D01*
G03X213Y159I1J3D01*
G02X215Y158I0J-1D01*
G01Y157D01*
X228D01*
Y143D01*
X215D01*
Y132D01*
X218D01*
Y131D01*
X217Y130D01*
X213D01*
G37*
G36*
G01X163Y140D02*
G03X161Y141I-2J-2D01*
G02X160Y142I0J1D01*
G01Y143D01*
X157D01*
Y157D01*
X160D01*
Y161D01*
G02X162Y162I1J0D01*
G03X163Y162I1J3D01*
G02X165Y161I0J-1D01*
G01Y157D01*
X166D01*
G02X167Y156I0J-1D01*
G03X173I3J-1D01*
G02X174Y157I1J0D01*
G01X178D01*
Y143D01*
X165D01*
Y141D01*
G02X163Y140I-1J0D01*
G37*
G36*
G01X216Y243D02*
X214Y245D01*
X212D01*
X210Y247D01*
Y257D01*
X210Y265D01*
X213Y268D01*
G02X215Y267I1J-1D01*
G01Y257D01*
X228D01*
Y243D01*
X224D01*
G02X223Y244I0J1D01*
G03X217Y243I-3J1D01*
G01X216Y243D01*
G37*
G36*
G01X285Y258D02*
Y268D01*
X282D01*
Y282D01*
X285D01*
Y289D01*
X288Y292D01*
Y302D01*
X284Y306D01*
G02X285Y307I1J1D01*
G01X285Y318D01*
X282D01*
Y332D01*
X285D01*
Y339D01*
X287Y341D01*
Y353D01*
X284Y356D01*
G02X285Y357I1J1D01*
G01X285Y368D01*
G02X284Y369I-1J1D01*
G01X286Y372D01*
G02X288Y372I1J-1D01*
G03X291Y370I3J2D01*
G01X291Y369D01*
G02X291Y368I-1J-1D01*
G01X290D01*
Y357D01*
X303D01*
Y348D01*
X302Y347D01*
X302Y348D01*
X301Y348D01*
G03X298Y350I-3J-1D01*
G02X297Y351I0J1D01*
G03X294Y348I-3J0D01*
G02X295Y347I0J-1D01*
G01X295Y346D01*
X293Y344D01*
Y343D01*
X290D01*
Y332D01*
X303D01*
Y318D01*
X299D01*
G02X298Y319I0J1D01*
G03X292I-3J1D01*
G02X291Y318I-1J0D01*
G01X290D01*
Y307D01*
X303D01*
Y302D01*
G02X301Y301I-1J0D01*
G03X300Y301I-1J-3D01*
G02X298Y302I0J1D01*
G03X293Y299I-3J0D01*
G02X293Y298I-1J-1D01*
G03X292Y294I2J-3D01*
G02X291Y293I-1J0D01*
G01X290D01*
Y283D01*
X289Y283D01*
G03X293Y281I1J-3D01*
G02X294Y282I1J0D01*
G01X303D01*
Y268D01*
X290D01*
Y260D01*
X287Y257D01*
G02X285Y258I-1J1D01*
G37*
G36*
G01X340Y267D02*
G02X338Y266I-1J0D01*
G03X337Y266I-1J-3D01*
G02X335Y267I0J1D01*
G01Y268D01*
X332D01*
Y282D01*
X335D01*
Y292D01*
X336Y292D01*
G03X334Y298I-1J3D01*
G02X332Y299I0J1D01*
G01Y307D01*
X335D01*
Y318D01*
X332D01*
Y332D01*
X335D01*
Y333D01*
G02X337Y334I1J0D01*
G03X338Y334I1J3D01*
G02X340Y333I0J-1D01*
G01Y332D01*
X353D01*
Y318D01*
X349D01*
G02X348Y319I0J1D01*
G03X342I-3J1D01*
G02X341Y318I-1J0D01*
G01X340D01*
Y307D01*
X353D01*
Y305D01*
X355Y303D01*
Y302D01*
X354D01*
G03X354Y299I-3J-1D01*
G01X355Y299D01*
Y297D01*
X353Y295D01*
Y293D01*
X349D01*
G02X348Y294I0J1D01*
G03X342I-3J1D01*
G02X341Y293I-1J0D01*
G01X340D01*
Y282D01*
X353D01*
Y268D01*
X340D01*
Y267D01*
G37*
G36*
G01X215Y289D02*
G02X213Y288I-1J0D01*
G01X212Y289D01*
X210D01*
Y293D01*
X207D01*
Y294D01*
G02X209Y295I1J0D01*
G03X212Y301I1J3D01*
G02Y302I1J1D01*
G03X211Y308I-2J2D01*
G01X210Y308D01*
Y318D01*
G02X210Y319I0J1D01*
G03X206Y324I-3J2D01*
G02X204Y325I0J1D01*
G01Y332D01*
X210D01*
Y339D01*
X213Y342D01*
Y344D01*
G02X215Y344I1J0D01*
G03X216Y344I2J2D01*
G01X216Y343D01*
X215D01*
Y332D01*
X215Y331D01*
G03X215Y327I2J-2D01*
G02Y325I-1J-1D01*
G03X217Y320I2J-2D01*
G01X218Y320D01*
Y318D01*
X215D01*
Y307D01*
X219D01*
G02X220Y305I0J-1D01*
G03X224I2J-2D01*
G02X225Y307I1J1D01*
G01X228D01*
Y293D01*
X224D01*
G02X223Y294I0J1D01*
G03X217I-3J1D01*
G02X216Y293I-1J0D01*
G01X215D01*
Y289D01*
G37*
G36*
G01X187Y325D02*
G03X185Y326I-3J-2D01*
G02X185Y328I0J1D01*
G03X185Y330I-3J2D01*
G01X185Y344D01*
G03X181Y348I-2J2D01*
G02X179Y349I-1J1D01*
G01Y352D01*
G02X181Y352I1J0D01*
G03X186Y354I2J2D01*
G01X189Y354D01*
X193Y357D01*
X207D01*
X208Y356D01*
Y344D01*
X207Y343D01*
X190D01*
Y332D01*
X195D01*
Y327D01*
X193Y325D01*
X187D01*
G37*
G36*
G01X263Y333D02*
G03X261Y333I-2J-3D01*
G02X260Y334I0J1D01*
G01Y343D01*
X257D01*
Y357D01*
X260D01*
Y368D01*
G02X259Y369I0J1D01*
G01X262Y372D01*
Y376D01*
G02X263Y377I1J0D01*
G03X266Y376I2J2D01*
G02X267Y376I0J-1D01*
G03X268Y374I3J1D01*
G01Y368D01*
X265D01*
Y357D01*
X266D01*
G02X267Y356I0J-1D01*
G03X267Y355I3J-1D01*
G02X266Y354I-1J0D01*
G03X269Y351I0J-3D01*
G02X270Y351I1J0D01*
G03X273Y353I0J3D01*
G01X279D01*
X280Y353D01*
X282Y351D01*
Y343D01*
X276Y343D01*
G02X275Y344I0J1D01*
G03X269I-3J1D01*
G02X268Y343I-1J0D01*
G01X265D01*
Y333D01*
G02X263Y333I-1J0D01*
G37*
G36*
G01X240Y335D02*
G02X238Y334I-1J0D01*
G03X237Y334I-1J-3D01*
G02X235Y335I0J1D01*
G01Y343D01*
X230D01*
X230Y344D01*
X232Y347D01*
Y357D01*
X235D01*
G02X236Y356I0J-1D01*
G03X242I3J-1D01*
G02X243Y357I1J0D01*
G01X253D01*
Y355D01*
G02X251Y354I-1J0D01*
G03X250Y348I-1J-3D01*
G01X252Y346D01*
X253D01*
Y343D01*
X240D01*
Y335D01*
G37*
G36*
G01X241Y172D02*
G02X239Y173I-1J1D01*
G01Y181D01*
G02X239Y182I0J0D01*
G03X238Y182I-1J0D01*
G01X235Y185D01*
Y193D01*
X230D01*
G02X229Y194I0J1D01*
G03X229Y195I-2J2D01*
G02X230Y195I1J-1D01*
G03X235Y197I2J3D01*
G02X236Y198I1J0D01*
G03X238I1J3D01*
G02X239Y197I0J-1D01*
G03X242Y194I3J1D01*
G02X243Y193I0J-1D01*
G01X240Y193D01*
Y183D01*
G02X239Y182I-1J0D01*
G01X253Y182D01*
Y173D01*
X242D01*
X241Y172D01*
G37*
G36*
G01X249Y155D02*
X249Y156D01*
G02X250Y157I1J1D01*
G01X260D01*
Y168D01*
X257D01*
Y182D01*
X260D01*
Y192D01*
G02X261Y193I1J0D01*
G01X250Y193D01*
G02X249Y194I0J1D01*
G01X252Y198D01*
X260D01*
G03X260Y197I3J2D01*
G01Y194D01*
X261Y194D01*
G02X261Y193I0J0D01*
G03X262Y193I1J0D01*
G01X265Y190D01*
Y182D01*
X278D01*
Y168D01*
X265D01*
Y157D01*
G02X264Y156I-1J0D01*
G03X261Y155I0J-3D01*
G01X249D01*
G37*
G36*
G01X185Y377D02*
G03X183Y378I-3J-2D01*
G02X182Y379I0J1D01*
G01Y382D01*
X185D01*
Y393D01*
X183D01*
G02X182Y394I0J1D01*
G03X183Y398I-2J2D01*
G02X184Y399I1J0D01*
G01X185D01*
Y398D01*
G03X191Y398I3J-2D01*
G02X192Y399I1J0D01*
G01X192Y398D01*
G03X193Y394I3J-2D01*
G02X192Y393I-1J-1D01*
G01X190D01*
Y382D01*
X193D01*
Y380D01*
X190Y377D01*
X185D01*
G37*
G36*
G01X185Y358D02*
Y368D01*
X182D01*
Y371D01*
G02X183Y372I1J0D01*
G03X185Y373I0J3D01*
G01X191D01*
X197Y378D01*
Y382D01*
X201D01*
G02X202Y381I0J-1D01*
G03X201Y379I3J-1D01*
G02X201Y378I-1J0D01*
G03X198Y376I1J-3D01*
G02X197Y375I-1J0D01*
G03X195Y369I0J-3D01*
G02X194Y368I-1J-1D01*
G01X190D01*
Y360D01*
X188Y358D01*
X185D01*
G37*
G36*
G01X235Y358D02*
Y368D01*
G02X234Y369I0J1D01*
G01X237Y372D01*
Y375D01*
G02X238Y376I1J0D01*
G03X242Y375I2J2D01*
G02X243Y374I0J-1D01*
G01Y368D01*
X240D01*
Y359D01*
G02X239Y358I-1J0D01*
G03X237Y358I0J-3D01*
G02X235Y358I-1J1D01*
G37*
G36*
G01X222Y343D02*
Y345D01*
X220Y346D01*
X220Y347D01*
G03X215Y349I-3J0D01*
G02X213Y350I-1J1D01*
G01Y358D01*
X210Y361D01*
Y368D01*
G02X209Y369I0J1D01*
G01X212Y372D01*
Y375D01*
G02X213Y376I1J0D01*
G03X217Y381I1J3D01*
G01X218Y382D01*
X232D01*
X232Y374D01*
X228Y370D01*
Y368D01*
X222D01*
Y373D01*
G03X219Y376I0J3D01*
G01X218Y375D01*
Y368D01*
X215D01*
Y357D01*
X228D01*
Y349D01*
X225Y346D01*
Y343D01*
X222D01*
G37*
G36*
G01Y318D02*
Y321D01*
X220Y323D01*
G03X220Y325I-3J0D01*
G02Y327I1J1D01*
G03X220Y331I-2J2D01*
G02X221Y332I1J1D01*
G01X228D01*
Y330D01*
X225Y327D01*
Y318D01*
X222D01*
G37*
G36*
G01X163Y308D02*
G03X162Y308I-1J-3D01*
G02X160Y309I0J1D01*
G01Y317D01*
X161Y317D01*
G03X163Y318I-1J3D01*
G01X165D01*
Y309D01*
G02X163Y308I-1J0D01*
G37*
G36*
G01X184Y320D02*
G03X187Y321I1J3D01*
G01X195D01*
X198Y324D01*
G02X200Y323I1J-1D01*
G01Y318D01*
X190D01*
Y307D01*
X185D01*
X185Y318D01*
X182D01*
Y319D01*
G02X184Y320I1J0D01*
G37*
G36*
G01X374Y293D02*
G02X373Y294I0J1D01*
G03X371Y298I-3J1D01*
G02X370Y300I0J1D01*
G03X370Y301I-3J1D01*
G02X372Y302I1J0D01*
G03X376Y302I2J3D01*
G02X378Y302I1J-1D01*
G01Y293D01*
X374D01*
G37*
G36*
G01X363Y283D02*
G03X361Y283I-1J-3D01*
G02X360Y284I0J1D01*
G01Y293D01*
G02X359Y294I0J1D01*
G01X360Y295D01*
Y305D01*
X359Y306D01*
G02X360Y307I1J1D01*
G01X360Y318D01*
X357D01*
Y332D01*
X360D01*
Y338D01*
G02X361Y339I1J0D01*
G03X363Y339I1J3D01*
G02X365Y338I0J-1D01*
G01Y332D01*
X378D01*
Y318D01*
X374D01*
G02X373Y319I0J1D01*
G03X367I-3J1D01*
G02X366Y318I-1J0D01*
G01X365D01*
Y307D01*
X369D01*
G02X370Y306I0J-1D01*
G03X370Y305I3J-1D01*
G02X369Y304I-1J0D01*
G03X366Y298I-2J-3D01*
G02X367Y296I0J-1D01*
G03X367Y294I3J-1D01*
G02X366Y293I-1J0D01*
G01X365D01*
Y284D01*
G02X363Y283I-1J0D01*
G37*
G36*
G01X165Y282D02*
X164D01*
X164Y295D01*
X170Y301D01*
X171D01*
G03X174Y300I3J2D01*
G01X175Y299D01*
X174Y298D01*
G03X172Y297I1J-3D01*
G01X171D01*
X168Y294D01*
Y293D01*
X165D01*
Y282D01*
G37*
G36*
G01X179Y272D02*
G03X176Y278I-2J2D01*
G02X175Y279I0J0D01*
G03X170Y280I-3J-1D01*
G02X168Y280I-1J1D01*
G02X168Y282I0J1D01*
G01X178D01*
Y281D01*
X180Y278D01*
X181D01*
G03X185Y273I3J-2D01*
G02X186Y272I0J-1D01*
G02X185Y271I-1J0D01*
G01X179D01*
G02X179Y272I0J1D01*
G37*
G36*
G01X201Y271D02*
G02X200Y272I0J1D01*
G03X197Y275I-3J0D01*
G01X196Y275D01*
X196Y276D01*
G03X198Y277I0J4D01*
G02X199I1J-1D01*
G03X205Y281I2J2D01*
G02X205Y282I1J0D01*
G01X210D01*
Y284D01*
G02X211Y284I1J0D01*
G01X212Y283D01*
Y282D01*
X212Y276D01*
G02X210Y276I-1J0D01*
G03X204Y273I-2J-2D01*
G01X204Y271D01*
X201Y271D01*
G37*
G36*
G01X224Y268D02*
G02X223Y269I0J1D01*
G03X218Y272I-3J1D01*
G02X216Y273I-1J1D01*
G01Y282D01*
X228D01*
Y268D01*
X224D01*
G37*
G36*
G01X365Y267D02*
G02X363Y266I-1J0D01*
G03X362Y266I-1J-3D01*
G02X360Y267I0J1D01*
G01Y268D01*
X357D01*
Y282D01*
X359D01*
G03X360Y278I3J-2D01*
G02Y276I-1J-1D01*
G03X364I2J-2D01*
G02Y278I1J1D01*
G03X365Y282I-2J2D01*
G01X366Y282D01*
G02X367Y281I0J-1D01*
G03X368Y278I3J-1D01*
G02Y276I-1J-1D01*
G03X372I2J-2D01*
G02Y278I1J1D01*
G03X373Y281I-2J2D01*
G02X374Y282I1J0D01*
G01X378D01*
Y268D01*
X365D01*
Y267D01*
G37*
G36*
G01X164Y258D02*
X164Y274D01*
G02X165Y275I1J0D01*
G03X168Y276I1J3D01*
G02X169Y276I1J-1D01*
G03X173Y275I3J2D01*
G02X173Y274I0J0D01*
G03X174Y272I3J1D01*
G02X174Y271I-1J-1D01*
G01X171D01*
X168Y268D01*
X165D01*
Y258D01*
G02X164Y258I-1J0D01*
G37*
G36*
G01X190Y211D02*
G02X188Y210I-1J0D01*
G03X186Y210I-1J-3D01*
G02X185Y211I0J1D01*
G01Y218D01*
X182D01*
Y232D01*
X185D01*
Y243D01*
X182D01*
Y257D01*
X185D01*
Y261D01*
G02X187Y262I1J0D01*
G01X188Y260D01*
X190D01*
Y257D01*
X198D01*
G02X198Y256I0J-1D01*
G03X199Y252I3J-1D01*
G02Y251I-1J-1D01*
G03X204I2J-2D01*
G02Y252I1J1D01*
G03X204Y256I-2J2D01*
G02X205Y257I0J0D01*
G01X206D01*
Y246D01*
X207Y244D01*
G02X206Y243I-1J-1D01*
G01X190D01*
Y232D01*
X193D01*
Y231D01*
X196Y228D01*
X199D01*
G03X202Y226I3J2D01*
G02X203Y225I0J-1D01*
G02X202Y224I-1J0D01*
G03X198Y219I-2J-3D01*
G02X197Y218I-1J-1D01*
G01X190D01*
Y211D01*
G37*
G36*
G01X290Y144D02*
X290Y145D01*
Y155D01*
X290Y156D01*
G02X290Y157I0J0D01*
G01X291D01*
G02X292Y156I0J-1D01*
G03X298I3J-1D01*
G02X299Y157I1J0D01*
G01X303D01*
Y143D01*
X291D01*
G02X290Y144I0J1D01*
G37*
G36*
G01X272Y380D02*
X272Y381D01*
Y382D01*
X282D01*
X283Y381D01*
Y376D01*
X278Y370D01*
Y368D01*
X272D01*
Y374D01*
G03X272Y379I-2J3D01*
G02X272Y380I1J1D01*
G37*
G36*
G01X247Y368D02*
Y373D01*
G03X247Y380I0J3D01*
G01X246Y380D01*
X247Y381D01*
Y382D01*
X257D01*
X257Y374D01*
X253Y370D01*
Y368D01*
X247D01*
G37*
G36*
G01X297D02*
Y370D01*
X294Y373D01*
G03X293Y376I-3J0D01*
G02Y377I1J1D01*
G03X293Y378I-2J2D01*
G01X294D01*
X297Y381D01*
Y382D01*
X301D01*
G02X302Y381I0J-1D01*
G03X303Y377I3J-1D01*
G01Y368D01*
X297D01*
G37*
G36*
G01X247Y329D02*
Y332D01*
X253D01*
Y318D01*
X249D01*
G02X248Y319I0J1D01*
G03X247Y322I-3J1D01*
G02Y324I1J1D01*
G03X247Y329I-2J2D01*
G37*
G36*
G01X194Y303D02*
X197Y306D01*
Y307D01*
X203D01*
Y293D01*
X190D01*
Y288D01*
G02X188Y287I-1J0D01*
G03X187Y287I-1J-3D01*
G02X185Y288I0J1D01*
G01Y293D01*
X182D01*
Y296D01*
G03X181Y299I-2J0D01*
G01X177Y303D01*
X178Y305D01*
G02X180Y304I1J-1D01*
G03X185Y303I3J1D01*
G01X194D01*
G37*
G36*
G01X222Y218D02*
Y224D01*
G03X223Y226I-2J3D01*
G02X224Y226I1J0D01*
G03X226Y227I1J3D01*
G02X228Y226I0J-1D01*
G01Y218D01*
X222D01*
G37*
G36*
G01X188Y166D02*
G03X187Y166I-1J-3D01*
G02X185Y167I0J1D01*
G01Y168D01*
X182D01*
Y182D01*
X185D01*
Y192D01*
X188D01*
X190Y190D01*
Y182D01*
X203D01*
Y168D01*
X190D01*
Y167D01*
G02X188Y166I-1J0D01*
G37*
%LPC*%
G75*
G36*
G01X265Y173D02*
G02X263Y176I-3J-1D01*
G03X264Y177I0J1D01*
G02X266Y174I3J1D01*
G03X265Y173I0J-1D01*
G37*
G54D15*
X142Y27D03*
X20Y122D03*
X350Y75D03*
X344Y252D03*
X387Y148D03*
X120Y351D03*
X90D03*
X138Y297D03*
X19Y278D03*
X16Y252D03*
X348Y25D03*
X322Y75D03*
X288Y122D03*
X218Y48D03*
X264Y25D03*
X313Y278D03*
X312Y297D03*
%LPD*%
G75*
G54D10*
X45Y12D03*
X30D03*
X70D03*
X55D03*
X20Y112D03*
X5D03*
X20Y88D03*
X5D03*
X145Y112D03*
X130D03*
X145Y88D03*
X130D03*
X145Y62D03*
X130D03*
X145Y38D03*
X130D03*
X145Y12D03*
X130D03*
X120Y112D03*
X105D03*
X120Y88D03*
X105D03*
X120Y62D03*
X105D03*
X120Y38D03*
X105D03*
X120Y12D03*
X105D03*
X95Y112D03*
X80D03*
X95Y88D03*
X80D03*
X95Y62D03*
X80D03*
X95Y38D03*
X80D03*
X95Y12D03*
X80D03*
X70Y112D03*
X55D03*
X70Y88D03*
X55D03*
X70Y62D03*
X55D03*
X70Y38D03*
X55D03*
X45Y112D03*
X30D03*
X45Y88D03*
X30D03*
X45Y62D03*
X30D03*
X45Y38D03*
X30D03*
X20D03*
X5D03*
X20Y12D03*
X5D03*
X20Y62D03*
X5D03*
X145Y188D03*
X130D03*
X120D03*
X105D03*
X95D03*
X80D03*
X70D03*
X55D03*
X45D03*
X30D03*
X70Y162D03*
X55D03*
X20Y188D03*
X5D03*
X20Y162D03*
X5D03*
X20Y138D03*
X5D03*
X145Y162D03*
X130D03*
X145Y138D03*
X130D03*
X120Y162D03*
X105D03*
X120Y138D03*
X105D03*
X95Y162D03*
X80D03*
X95Y138D03*
X80D03*
X70D03*
X55D03*
X45Y162D03*
X30D03*
X45Y138D03*
X30D03*
X145Y362D03*
X130D03*
X145Y338D03*
X130D03*
X145Y312D03*
X130D03*
X145Y288D03*
X130D03*
X145Y262D03*
X130D03*
X145Y238D03*
X130D03*
X145Y212D03*
X130D03*
X120Y362D03*
X105D03*
X120Y338D03*
X105D03*
X120Y312D03*
X105D03*
X120Y288D03*
X105D03*
X120Y262D03*
X105D03*
X120Y238D03*
X105D03*
X120Y212D03*
X105D03*
X95Y362D03*
X80D03*
X95Y338D03*
X80D03*
X95Y312D03*
X80D03*
X95Y288D03*
X80D03*
X95Y262D03*
X80D03*
X95Y238D03*
X80D03*
X95Y212D03*
X80D03*
X70Y362D03*
X55D03*
X70Y338D03*
X55D03*
X70Y312D03*
X55D03*
X70Y288D03*
X55D03*
X70Y262D03*
X55D03*
X70Y238D03*
X55D03*
X70Y212D03*
X55D03*
X45Y362D03*
X30D03*
X45Y338D03*
X30D03*
X45Y312D03*
X30D03*
X45Y288D03*
X30D03*
X45Y262D03*
X30D03*
X45Y212D03*
X30D03*
X45Y238D03*
X30D03*
X20Y362D03*
X5D03*
X20Y338D03*
X5D03*
X20Y312D03*
X5D03*
X20Y288D03*
X5D03*
X20Y262D03*
X5D03*
X20Y238D03*
X5D03*
X20Y212D03*
X5D03*
X145Y388D03*
X130D03*
X120D03*
X105D03*
X95D03*
X80D03*
X70D03*
X55D03*
X45D03*
X30D03*
X20D03*
X5D03*
X195Y12D03*
X180D03*
X195Y38D03*
X180D03*
X195Y62D03*
X180D03*
X195Y88D03*
X180D03*
X195Y112D03*
X180D03*
X170D03*
X155D03*
X170Y88D03*
X155D03*
X170Y62D03*
X155D03*
X170Y38D03*
X155D03*
X170Y12D03*
X155D03*
X395Y112D03*
X380D03*
X395Y88D03*
X380D03*
X395Y62D03*
X380D03*
X395Y38D03*
X380D03*
X395Y12D03*
X380D03*
X370Y112D03*
X355D03*
X370Y88D03*
X355D03*
X370Y62D03*
X355D03*
X370Y38D03*
X355D03*
X370Y12D03*
X355D03*
X345Y112D03*
X330D03*
X345Y88D03*
X330D03*
X345Y62D03*
X330D03*
X345Y38D03*
X330D03*
X345Y12D03*
X330D03*
X320Y112D03*
X305D03*
X320Y88D03*
X305D03*
X320Y62D03*
X305D03*
X320Y38D03*
X305D03*
X320Y12D03*
X305D03*
X295Y112D03*
X280D03*
X295Y88D03*
X280D03*
X295Y62D03*
X280D03*
X295Y38D03*
X280D03*
X295Y12D03*
X280D03*
X270Y112D03*
X255D03*
X270Y88D03*
X255D03*
X270Y62D03*
X255D03*
X270Y38D03*
X255D03*
X270Y12D03*
X255D03*
X245Y112D03*
X230D03*
X245Y88D03*
X230D03*
X245Y62D03*
X230D03*
X245Y38D03*
X230D03*
X245Y12D03*
X230D03*
X220Y112D03*
X205D03*
X220Y88D03*
X205D03*
X220Y62D03*
X205D03*
X220Y38D03*
X205D03*
X220Y12D03*
X205D03*
X195Y138D03*
X180D03*
X195Y162D03*
X180D03*
X195Y188D03*
X180D03*
X170D03*
X155D03*
X170Y162D03*
X155D03*
X170Y138D03*
X155D03*
X195Y362D03*
X180D03*
X195Y338D03*
X180D03*
X195Y312D03*
X180D03*
X195Y288D03*
X180D03*
X195Y262D03*
X180D03*
X195Y238D03*
X180D03*
X195Y212D03*
X180D03*
X170Y362D03*
X155D03*
X170Y338D03*
X155D03*
X170Y312D03*
X155D03*
X170Y288D03*
X155D03*
X170Y262D03*
X155D03*
X170Y238D03*
X155D03*
X170Y212D03*
X155D03*
X395Y188D03*
X380D03*
X395Y162D03*
X380D03*
X395Y138D03*
X380D03*
X370Y188D03*
X355D03*
X370Y162D03*
X355D03*
X370Y138D03*
X355D03*
X345Y188D03*
X330D03*
X345Y162D03*
X330D03*
X345Y138D03*
X330D03*
X320Y188D03*
X305D03*
X320Y162D03*
X305D03*
X320Y138D03*
X305D03*
X295Y188D03*
X280D03*
X295Y162D03*
X280D03*
X295Y138D03*
X280D03*
X270D03*
X255D03*
X270Y162D03*
X255D03*
X270Y188D03*
X255D03*
X245D03*
X230D03*
X245Y162D03*
X230D03*
X245Y138D03*
X230D03*
X220Y188D03*
X205D03*
X220Y162D03*
X205D03*
X220Y138D03*
X205D03*
X395Y362D03*
X380D03*
X395Y338D03*
X380D03*
X395Y312D03*
X380D03*
X395Y288D03*
X380D03*
X395Y262D03*
X380D03*
X395Y238D03*
X380D03*
X395Y212D03*
X380D03*
X370Y362D03*
X355D03*
X370Y338D03*
X355D03*
X370Y312D03*
X355D03*
X370Y288D03*
X355D03*
X370Y262D03*
X355D03*
X370Y238D03*
X355D03*
X370Y212D03*
X355D03*
X345Y362D03*
X330D03*
X345Y338D03*
X330D03*
X345Y312D03*
X330D03*
X345Y288D03*
X330D03*
X345Y262D03*
X330D03*
X345Y238D03*
X330D03*
X345Y212D03*
X330D03*
X320Y362D03*
X305D03*
X320Y338D03*
X305D03*
X320Y312D03*
X305D03*
X320Y288D03*
X305D03*
X320Y262D03*
X305D03*
X320Y238D03*
X305D03*
X320Y212D03*
X305D03*
X295Y362D03*
X280D03*
X295Y338D03*
X280D03*
X295Y312D03*
X280D03*
X295Y288D03*
X280D03*
X295Y262D03*
X280D03*
X295Y238D03*
X280D03*
X295Y212D03*
X280D03*
X270Y362D03*
X255D03*
X270Y338D03*
X255D03*
X270Y312D03*
X255D03*
X270Y288D03*
X255D03*
X270Y262D03*
X255D03*
X270Y238D03*
X255D03*
X270Y212D03*
X255D03*
X245Y362D03*
X230D03*
X245Y338D03*
X230D03*
X245Y312D03*
X230D03*
X245Y288D03*
X230D03*
X245Y262D03*
X230D03*
X245Y238D03*
X230D03*
X245Y212D03*
X230D03*
X220Y238D03*
X205D03*
X220Y362D03*
X205D03*
X220Y338D03*
X205D03*
X220Y312D03*
X205D03*
X220Y288D03*
X205D03*
X220Y262D03*
X205D03*
X220Y212D03*
X205D03*
X195Y388D03*
X180D03*
X170D03*
X155D03*
X395D03*
X380D03*
X370D03*
X355D03*
X345D03*
X330D03*
X320D03*
X305D03*
X295D03*
X280D03*
X270D03*
X255D03*
X245D03*
X230D03*
X220D03*
X205D03*
G54D11*
X11Y104D03*
X106Y104D03*
X80Y96D03*
X86D03*
X92D03*
X98D03*
X149Y123D03*
X118Y48D03*
X150Y53D03*
X142Y27D03*
X137Y69D03*
X136Y75D03*
X36Y120D03*
X20Y122D03*
X145Y5D03*
X120D03*
X95D03*
X70D03*
X45D03*
X20D03*
X145Y45D03*
X120Y30D03*
X95D03*
X70D03*
X45D03*
X20D03*
X145Y55D03*
X120D03*
X95D03*
X70D03*
X45D03*
X20D03*
X145Y95D03*
X120Y80D03*
X95D03*
X70D03*
X45D03*
X20D03*
X145Y105D03*
X120D03*
X95D03*
X70D03*
X45D03*
X20D03*
X11Y188D03*
X137Y164D03*
X105Y193D03*
X37Y188D03*
X61D03*
X150Y147D03*
X87Y188D03*
X19Y278D03*
X136Y147D03*
X94Y146D03*
X63Y145D03*
X135Y197D03*
X130Y230D03*
X94Y196D03*
X66Y346D03*
X97D03*
X139Y349D03*
X32Y346D03*
X37Y295D03*
X64Y296D03*
X90Y297D03*
X138D03*
X136Y272D03*
X36Y195D03*
X63D03*
X37Y145D03*
X137Y355D03*
X144Y353D03*
X148Y305D03*
X11Y212D03*
X111Y245D03*
X86Y241D03*
X150Y197D03*
X36Y225D03*
X112Y264D03*
X55Y231D03*
X138Y344D03*
X19Y350D03*
X62Y375D03*
X88Y369D03*
X124Y355D03*
X83Y320D03*
X55D03*
X25D03*
X114D03*
X138Y248D03*
X138Y232D03*
X85Y225D03*
X110Y229D03*
X87Y170D03*
X62D03*
X35Y155D03*
X109Y173D03*
X20Y201D03*
X59Y222D03*
X106Y201D03*
X88Y206D03*
X142Y304D03*
X130Y329D03*
X122Y280D03*
X16Y252D03*
X91Y303D03*
X122D03*
X120Y351D03*
X90D03*
X61D03*
X36D03*
Y303D03*
X64Y303D03*
X120Y205D03*
X95Y220D03*
X70D03*
X45D03*
X20D03*
X65Y326D03*
X145Y205D03*
X120Y243D03*
X95Y231D03*
X70Y230D03*
X45D03*
X13Y238D03*
X36Y326D03*
X137Y220D03*
X88Y262D03*
X63D03*
X38D03*
X13D03*
X120Y270D03*
X138Y262D03*
X45Y295D03*
X13Y288D03*
X59Y330D03*
X70Y295D03*
X95D03*
X120D03*
X137Y280D03*
X138Y320D03*
X120Y320D03*
X45Y318D03*
X13Y312D03*
X89Y330D03*
X70Y321D03*
X136Y330D03*
X88Y338D03*
X63D03*
X38D03*
X13D03*
X120Y330D03*
X112Y330D03*
X145Y370D03*
X120D03*
X95D03*
X70D03*
X45D03*
X20D03*
X112Y132D03*
X89Y150D03*
X123D03*
X117Y200D03*
X87D03*
X59D03*
X31D03*
X39Y150D03*
X67D03*
X62Y155D03*
X19Y148D03*
X37Y205D03*
X66D03*
X94D03*
X145Y130D03*
X120D03*
X95D03*
X70D03*
X45D03*
X20D03*
X112Y182D03*
X120Y170D03*
X95D03*
X145Y155D03*
X45Y170D03*
X20Y155D03*
X70Y170D03*
X145Y180D03*
X120D03*
X95D03*
X70D03*
X45D03*
X20D03*
X92Y155D03*
X145Y395D03*
X120D03*
X95D03*
X70D03*
X45D03*
X20D03*
X225Y98D03*
X212Y105D03*
X162Y125D03*
X242Y122D03*
X217Y27D03*
X231Y45D03*
X218Y48D03*
X162Y69D03*
X338Y55D03*
X365D03*
X328Y70D03*
X370Y71D03*
X325Y20D03*
X368Y22D03*
X306Y4D03*
X270Y20D03*
X276Y52D03*
X301Y53D03*
X326Y30D03*
X351D03*
X326Y80D03*
X353D03*
X286Y45D03*
X243Y71D03*
X191Y50D03*
X196D03*
X201D03*
X191Y55D03*
X196D03*
X201D03*
X191Y70D03*
X196D03*
X202D03*
X251Y30D03*
X259Y70D03*
X289D03*
X386Y123D03*
X197Y78D03*
X288Y122D03*
X288Y100D03*
X206Y20D03*
X295Y25D03*
X232Y72D03*
X264Y25D03*
X237Y78D03*
X266Y75D03*
X220Y95D03*
X294Y75D03*
X212Y98D03*
X322Y75D03*
X207Y102D03*
X350Y75D03*
X202Y98D03*
X348Y25D03*
X197Y25D03*
X322Y25D03*
X202Y28D03*
X395Y5D03*
X370D03*
X345D03*
X320D03*
X295D03*
X245D03*
X220D03*
X270Y3D03*
X223Y27D03*
X245Y30D03*
X270D03*
X295D03*
X395D03*
X370D03*
X341Y50D03*
X312Y50D03*
X262Y45D03*
X231Y52D03*
X295Y55D03*
X270D03*
X245D03*
X325Y54D03*
X370Y55D03*
X395D03*
X344Y45D03*
X303Y80D03*
X370D03*
X395D03*
X233Y97D03*
X270Y80D03*
X245D03*
X345Y81D03*
X217Y102D03*
X395Y105D03*
X370D03*
X345D03*
X320D03*
X295D03*
X270D03*
X245D03*
X306Y73D03*
X272Y47D03*
X298D03*
X286Y8D03*
X337Y9D03*
X162Y119D03*
X386Y38D03*
X200Y126D03*
X212Y6D03*
X191Y127D03*
X312Y7D03*
X237Y102D03*
X237Y11D03*
X237Y125D03*
X226Y125D03*
X205Y5D03*
X170Y20D03*
Y30D03*
X187Y27D03*
X162Y55D03*
X197Y95D03*
X170Y95D03*
X195Y122D03*
X170Y105D03*
X211Y222D03*
X325Y302D03*
X162Y166D03*
X351Y300D03*
X266Y351D03*
X201Y375D03*
X294Y351D03*
X205Y380D03*
X187Y162D03*
X225Y230D03*
X322Y351D03*
X239Y355D03*
X272Y302D03*
X295Y302D03*
X237Y331D03*
X337Y337D03*
X217Y347D03*
X245Y326D03*
X270Y328D03*
X370Y345D03*
X395D03*
X298Y347D03*
X320Y330D03*
X161Y138D03*
X214Y230D03*
X373Y305D03*
X395Y245D03*
X370Y230D03*
X345D03*
X320D03*
X295D03*
X270Y245D03*
X245D03*
X220D03*
X395Y295D03*
X314Y376D03*
X370Y295D03*
X345D03*
X320D03*
X295D03*
X270D03*
X245D03*
X220D03*
X217Y323D03*
X245Y320D03*
X270D03*
X295D03*
X320D03*
X345D03*
X370D03*
X395D03*
X326Y347D03*
X313Y278D03*
X207Y321D03*
X182Y204D03*
X209Y305D03*
X187Y207D03*
X222Y303D03*
X247Y127D03*
X344Y252D03*
X200Y222D03*
X232Y322D03*
X262Y147D03*
X290Y280D03*
X197Y372D03*
X270Y150D03*
X186Y153D03*
X313Y341D03*
X362Y342D03*
X367Y301D03*
X335Y295D03*
X276Y298D03*
X300D03*
X370Y274D03*
X362D03*
X370Y280D03*
X362D03*
X266D03*
X183Y346D03*
X182Y330D03*
X217Y329D03*
X261Y330D03*
X387Y148D03*
X209Y298D03*
X195Y280D03*
X312Y297D03*
X220Y226D03*
X395Y220D03*
X370Y205D03*
X345D03*
X320D03*
X295D03*
X270Y220D03*
X245D03*
X380Y380D03*
X355D03*
X330D03*
X305D03*
X270Y355D03*
X250Y351D03*
X233Y328D03*
X187Y284D03*
X160Y177D03*
X162Y305D03*
X197Y272D03*
X173Y303D03*
X213Y247D03*
X219Y155D03*
X224D03*
X219Y150D03*
X224D03*
X235Y155D03*
Y150D03*
X287Y364D03*
X311Y325D03*
X262Y319D03*
X337Y364D03*
X312Y362D03*
X262Y364D03*
X287Y317D03*
X337D03*
X233Y345D03*
X209Y330D03*
X206Y345D03*
Y350D03*
X191Y330D03*
X201Y345D03*
X196D03*
X191D03*
X201Y350D03*
X196D03*
X191D03*
X166Y250D03*
X160D03*
X172D03*
X160Y245D03*
X166D03*
X172D03*
X160Y230D03*
X172D03*
X164Y151D03*
X395Y270D03*
X362Y262D03*
X337D03*
X312D03*
X270Y270D03*
X245D03*
X220D03*
X286Y253D03*
X272Y345D03*
X211Y128D03*
X251Y130D03*
X270Y130D03*
X295D03*
X320D03*
X345D03*
X370D03*
X395D03*
X280Y154D03*
X295Y155D03*
X320D03*
X345D03*
X370D03*
X395D03*
X212Y162D03*
X264Y153D03*
X226Y197D03*
X262Y200D03*
X394Y181D03*
X370Y180D03*
X345D03*
X320D03*
X295D03*
X166Y278D03*
X177Y201D03*
X372Y172D03*
X355Y196D03*
X201Y248D03*
Y255D03*
X189Y272D03*
X184Y276D03*
X177Y275D03*
X172Y278D03*
X169Y205D03*
X201Y196D03*
X195Y205D03*
X153Y223D03*
X201Y230D03*
X208Y273D03*
X201Y280D03*
X175Y295D03*
X183Y305D03*
X160Y320D03*
X166Y348D03*
X184Y323D03*
X183Y354D03*
X170Y370D03*
X183Y375D03*
X226Y180D03*
X214Y380D03*
X241Y378D03*
X370Y380D03*
X345D03*
X320D03*
X266Y380D03*
X291D03*
X205Y204D03*
X217Y198D03*
X262Y172D03*
X267Y178D03*
X247Y203D03*
X242Y198D03*
X237Y201D03*
X232Y198D03*
Y128D03*
X395Y370D03*
X370D03*
X345D03*
X320D03*
X291Y373D03*
X270Y376D03*
X247Y376D03*
X222D03*
X251Y301D03*
X195Y130D03*
X170D03*
X195Y155D03*
X170Y155D03*
Y180D03*
X195Y397D03*
X187D03*
X180D03*
X228Y395D03*
X170Y395D03*
X395D03*
G54D12*
G01X5Y38D02*
Y12D01*
G01Y62D02*
Y38D01*
G01Y88D02*
Y62D01*
G01Y112D02*
Y88D01*
G01Y138D02*
Y112D01*
G01X130Y138D02*
Y112D01*
G01D02*
Y88D01*
G01D02*
Y62D01*
G01D02*
Y38D01*
G01D02*
Y12D01*
G01X105Y88D02*
Y94D01*
X105Y97D01*
X102Y100D01*
Y108D01*
X105Y111D01*
Y112D01*
G01Y138D02*
Y112D01*
G01Y88D02*
Y62D01*
G01D02*
Y38D01*
G01D02*
Y12D01*
G01X30Y138D02*
Y112D01*
G01D02*
Y88D01*
G01D02*
Y62D01*
G01D02*
Y38D01*
G01D02*
Y12D01*
G01X55Y112D02*
X61Y107D01*
Y93D01*
X55Y88D01*
G01Y138D02*
Y112D01*
G01Y88D02*
Y62D01*
G01D02*
Y38D01*
G01D02*
Y12D01*
G01X80Y138D02*
Y112D01*
G01Y88D02*
Y62D01*
G01D02*
Y38D01*
G01D02*
Y12D01*
G01Y112D02*
Y106D01*
X76Y102D01*
Y94D01*
X78Y92D01*
Y90D01*
X80Y88D01*
G01X5Y162D02*
Y138D01*
G01Y188D02*
Y162D01*
G01X130D02*
Y138D01*
G01Y188D02*
Y162D01*
G01X105D02*
Y138D01*
G01Y188D02*
Y175D01*
X105Y171D01*
X105Y162D01*
G01X30D02*
Y138D01*
G01Y188D02*
Y162D01*
G01X55D02*
Y138D01*
G01Y188D02*
Y162D01*
G01X80D02*
Y138D01*
G01Y188D02*
Y162D01*
G01X5Y362D02*
Y338D01*
G01Y388D02*
Y362D01*
G01Y338D02*
Y312D01*
G01D02*
Y288D01*
G01D02*
Y262D01*
G01Y238D02*
Y212D01*
G01Y238D02*
Y262D01*
G01X155Y238D02*
Y235D01*
X149Y228D01*
Y220D01*
X151Y217D01*
X155Y214D01*
Y212D01*
G01X80Y238D02*
Y212D01*
G01Y362D02*
Y338D01*
G01Y388D02*
Y362D01*
G01Y312D02*
Y288D01*
G01D02*
Y262D01*
G01D02*
Y238D01*
G01Y338D02*
Y331D01*
X77Y328D01*
Y316D01*
X80Y312D01*
G01X30Y238D02*
Y225D01*
G01Y338D02*
Y312D01*
G01D02*
Y288D01*
G01D02*
Y262D01*
G01D02*
Y238D01*
G01Y225D02*
Y212D01*
G01Y338D02*
X27Y340D01*
Y351D01*
X30Y354D01*
Y362D01*
G01Y388D02*
Y362D01*
G01X105Y238D02*
Y212D01*
G01Y362D02*
Y338D01*
G01Y388D02*
Y362D01*
G01Y338D02*
Y312D01*
G01D02*
Y288D01*
G01D02*
Y262D01*
G01D02*
Y238D01*
G01X55Y338D02*
Y328D01*
X61Y322D01*
Y318D01*
X55Y312D01*
G01Y362D02*
Y338D01*
G01Y388D02*
Y362D01*
G01Y312D02*
Y288D01*
G01D02*
Y262D01*
G01Y238D02*
Y231D01*
G01Y238D02*
Y262D01*
G01Y231D02*
Y224D01*
X55Y220D01*
X55Y212D01*
G01X130Y362D02*
Y338D01*
G01Y388D02*
Y362D01*
G01Y338D02*
Y329D01*
G01Y312D02*
Y288D01*
G01D02*
Y262D01*
G01D02*
Y238D01*
G01Y329D02*
Y312D01*
G01Y212D02*
Y224D01*
X126Y228D01*
Y232D01*
X128Y234D01*
X129D01*
X130Y236D01*
Y238D01*
G01X180Y138D02*
Y112D01*
G01D02*
Y88D01*
G01D02*
Y62D01*
G01Y38D02*
Y12D01*
G01X155Y138D02*
Y112D01*
G01D02*
Y88D01*
G01D02*
Y62D01*
G01D02*
Y38D01*
G01D02*
Y12D01*
G01X255Y64D02*
Y62D01*
G01Y112D02*
Y88D01*
G01Y62D02*
Y38D01*
G01D02*
Y12D01*
G01Y138D02*
Y132D01*
X256Y131D01*
Y128D01*
X255Y127D01*
Y112D01*
G01X280Y138D02*
Y112D01*
G01Y88D02*
Y62D01*
G01D02*
Y38D01*
G01D02*
Y12D01*
G01Y112D02*
Y88D01*
G01X330Y112D02*
Y88D01*
G01Y62D02*
Y38D01*
G01Y138D02*
Y112D01*
G01Y62D02*
X336Y68D01*
Y76D01*
X330Y81D01*
Y88D01*
G01Y38D02*
Y21D01*
X330Y18D01*
X330Y12D01*
G01X380Y112D02*
Y88D01*
G01D02*
Y62D01*
G01D02*
Y38D01*
G01D02*
Y12D01*
G01Y138D02*
Y112D01*
G01X205Y138D02*
Y112D01*
G01Y73D02*
X208Y70D01*
Y66D01*
X205Y62D01*
G01Y73D02*
Y88D01*
G01Y38D02*
Y44D01*
X208Y47D01*
Y60D01*
X205Y62D01*
G01X355Y12D02*
Y19D01*
X356Y19D01*
Y23D01*
X361Y28D01*
Y32D01*
X355Y38D01*
G01Y138D02*
Y112D01*
G01D02*
Y88D01*
G01Y62D02*
Y50D01*
G01D02*
Y38D01*
G01Y88D02*
X361Y82D01*
Y68D01*
X355Y62D01*
G01X305Y112D02*
Y101D01*
G01Y138D02*
Y112D01*
G01Y62D02*
Y38D01*
G01D02*
Y12D01*
G01Y101D02*
Y88D01*
G01X230Y112D02*
X237Y106D01*
Y102D01*
G01X230Y38D02*
X234Y38D01*
X236Y41D01*
Y57D01*
X230Y62D01*
G01Y38D02*
Y12D01*
G01Y88D02*
Y77D01*
X228Y74D01*
Y71D01*
X230Y68D01*
Y62D01*
G01X237Y102D02*
Y91D01*
X234Y88D01*
X230D01*
G01X180Y162D02*
Y138D01*
G01Y188D02*
Y162D01*
G01X155D02*
Y138D01*
G01Y188D02*
Y162D01*
G01X205Y362D02*
X211Y357D01*
Y343D01*
X205Y338D01*
G01X209Y298D02*
X205D01*
G01D02*
Y288D01*
G01Y312D02*
Y298D01*
G01Y388D02*
X209Y383D01*
Y373D01*
X205Y369D01*
Y362D01*
G01Y238D02*
Y232D01*
X206Y231D01*
Y228D01*
X205Y227D01*
Y212D01*
G01Y338D02*
X202Y334D01*
Y316D01*
X205Y312D01*
G01X380Y238D02*
Y212D01*
G01Y262D02*
Y238D01*
G01Y288D02*
Y262D01*
G01Y312D02*
Y288D01*
G01Y338D02*
Y312D01*
G01Y362D02*
Y338D01*
G01Y380D02*
Y362D01*
G01X355Y238D02*
Y212D01*
G01Y362D02*
Y338D01*
G01D02*
Y312D01*
G01Y288D02*
Y262D01*
G01D02*
Y238D01*
G01Y380D02*
Y362D01*
G01Y312D02*
Y306D01*
X358Y304D01*
Y296D01*
X355Y294D01*
Y288D01*
G01X330Y238D02*
Y212D01*
G01Y338D02*
Y312D01*
G01D02*
Y288D01*
G01D02*
Y262D01*
G01D02*
Y238D01*
G01Y380D02*
Y362D01*
G01D02*
Y356D01*
X331Y355D01*
Y345D01*
X330Y344D01*
Y338D01*
G01X305Y238D02*
Y212D01*
G01Y338D02*
Y312D01*
G01D02*
Y288D01*
G01D02*
Y262D01*
G01D02*
Y238D01*
G01Y380D02*
Y362D01*
G01D02*
Y346D01*
X304D01*
X302Y344D01*
Y340D01*
X304Y338D01*
X305D01*
G01X280Y388D02*
X286Y382D01*
Y375D01*
X280Y369D01*
Y362D01*
G01Y238D02*
Y212D01*
G01Y338D02*
Y312D01*
G01Y288D02*
Y262D01*
G01D02*
Y238D01*
G01Y338D02*
X284Y342D01*
Y352D01*
X280Y356D01*
Y357D01*
G01D02*
Y362D01*
G01Y312D02*
Y306D01*
X286Y301D01*
Y293D01*
X280Y288D01*
G01X255Y238D02*
Y212D01*
G01Y362D02*
Y348D01*
G01Y338D02*
Y312D01*
G01D02*
Y288D01*
G01D02*
Y262D01*
G01D02*
Y238D01*
G01Y388D02*
X259Y383D01*
Y373D01*
X255Y369D01*
Y362D01*
G01Y348D02*
Y338D01*
G01X230D02*
Y340D01*
X227Y342D01*
Y345D01*
X230Y348D01*
Y362D01*
G01Y238D02*
Y212D01*
G01Y312D02*
Y288D01*
G01D02*
Y262D01*
G01D02*
Y238D01*
G01Y338D02*
Y328D01*
G01Y388D02*
X234Y383D01*
Y373D01*
X230Y369D01*
Y362D01*
G01Y328D02*
X233D01*
G01X230Y312D02*
X228Y315D01*
Y326D01*
X230Y328D01*
G01X155Y362D02*
Y338D01*
G01Y388D02*
Y362D01*
G01Y312D02*
Y304D01*
G01Y288D02*
Y262D01*
G01D02*
Y238D01*
G01Y312D02*
Y338D01*
G01Y304D02*
Y288D01*
G01X180Y338D02*
Y340D01*
X177Y344D01*
Y353D01*
X179Y355D01*
Y356D01*
X179Y359D01*
X180Y360D01*
Y362D01*
G01Y238D02*
Y212D01*
G01Y262D02*
Y250D01*
G01Y388D02*
Y378D01*
X179Y377D01*
Y373D01*
X180Y372D01*
Y362D01*
G01Y296D02*
Y288D01*
G01Y312D02*
Y319D01*
X175Y324D01*
Y329D01*
X180Y334D01*
Y338D01*
G01Y250D02*
Y238D01*
G01X255Y188D02*
Y171D01*
G01D02*
Y162D01*
G01X280Y188D02*
Y162D01*
G01D02*
X288Y154D01*
Y146D01*
X280Y138D01*
G01X330Y162D02*
Y138D01*
G01Y188D02*
Y162D01*
G01X380D02*
Y138D01*
G01Y188D02*
Y168D01*
G01D02*
Y162D01*
G01X205D02*
Y138D01*
G01Y188D02*
Y162D01*
G01X355D02*
Y138D01*
G01Y188D02*
Y162D01*
G01X305Y188D02*
Y162D01*
G01D02*
Y138D01*
G01X380Y388D02*
Y380D01*
G01X355Y388D02*
Y380D01*
G01X330Y388D02*
Y380D01*
G01X305Y388D02*
Y380D01*
G54D13*
G01X145Y5D02*
Y12D01*
G01X120Y5D02*
Y12D01*
G01X95Y5D02*
Y12D01*
G01X70Y5D02*
Y12D01*
G01X45Y5D02*
Y12D01*
G01X20Y5D02*
Y12D01*
G01X145Y45D02*
Y38D01*
G01X120Y30D02*
Y38D01*
G01X95Y30D02*
Y38D01*
G01X70Y30D02*
Y38D01*
G01X45Y30D02*
Y38D01*
G01X20Y30D02*
Y38D01*
G01X145Y55D02*
Y62D01*
G01X120Y55D02*
Y62D01*
G01X95Y55D02*
Y62D01*
G01X70Y55D02*
Y62D01*
G01X45Y55D02*
Y62D01*
G01X20Y55D02*
Y62D01*
G01X145Y95D02*
Y88D01*
G01X120Y80D02*
Y88D01*
G01X95Y80D02*
Y88D01*
G01X70Y80D02*
Y88D01*
G01X45Y80D02*
Y88D01*
G01X20Y80D02*
Y88D01*
G01X145Y105D02*
Y112D01*
G01X120Y105D02*
Y112D01*
G01X95Y105D02*
Y112D01*
G01X70Y105D02*
Y112D01*
G01X45Y105D02*
Y112D01*
G01X20Y105D02*
Y112D01*
G01X5Y188D02*
X11D01*
G01X130Y162D02*
X136D01*
X137Y164D01*
G01X105Y188D02*
Y193D01*
G01X30Y188D02*
X37D01*
G01X55D02*
X61D01*
G01X80D02*
X87D01*
G01X5Y212D02*
X11D01*
G01X80Y238D02*
X83D01*
X86Y241D01*
G01X30Y225D02*
X36D01*
G01X105Y262D02*
X107D01*
X109Y264D01*
X112D01*
G01X120Y212D02*
Y205D01*
G01X95Y212D02*
Y220D01*
G01X70Y212D02*
Y220D01*
G01X45Y212D02*
Y220D01*
G01X20Y212D02*
Y220D01*
G01X145Y212D02*
Y205D01*
G01X170Y212D02*
X163Y205D01*
X145D01*
G01X120Y238D02*
Y243D01*
G01X70Y238D02*
Y230D01*
G01X45Y238D02*
Y230D01*
G01X20Y238D02*
X13D01*
G01X95D02*
Y231D01*
G01X145Y238D02*
Y228D01*
X137Y220D01*
G01X95Y262D02*
X88D01*
G01X70D02*
X63D01*
G01X45D02*
X38D01*
G01X20D02*
X13D01*
G01X120D02*
Y270D01*
G01X145Y262D02*
X138D01*
G01X45Y288D02*
Y295D01*
G01X20Y288D02*
X13D01*
G01X70D02*
Y295D01*
G01X95Y288D02*
Y295D01*
G01X120Y288D02*
Y295D01*
G01X137Y280D02*
X145Y288D01*
G01X138Y320D02*
X145Y312D01*
G01X120D02*
Y320D01*
G01X45Y312D02*
Y318D01*
G01X20Y312D02*
X13D01*
G01X95D02*
Y324D01*
X89Y330D01*
G01X70Y312D02*
Y321D01*
G01X136Y330D02*
X143D01*
X145Y332D01*
Y338D01*
G01X95D02*
X88D01*
G01X70D02*
X63D01*
G01X45D02*
X38D01*
G01X20D02*
X13D01*
G01X120D02*
Y330D01*
G01X145Y362D02*
Y370D01*
G01X120Y362D02*
Y370D01*
G01X95Y362D02*
Y370D01*
G01X70Y362D02*
Y370D01*
G01X45Y362D02*
Y370D01*
G01X20Y362D02*
Y370D01*
G01X145Y130D02*
Y138D01*
G01X120Y130D02*
Y138D01*
G01X95Y130D02*
Y138D01*
G01X70Y130D02*
Y138D01*
G01X45Y130D02*
Y138D01*
G01X20Y130D02*
Y138D01*
G01X120Y170D02*
Y162D01*
G01X95Y170D02*
Y162D01*
G01X145Y155D02*
Y162D01*
G01X45Y170D02*
Y162D01*
G01X20Y155D02*
Y162D01*
G01X70Y170D02*
Y162D01*
G01X145Y188D02*
Y180D01*
G01X120Y188D02*
Y180D01*
G01X95Y188D02*
Y180D01*
G01X70Y188D02*
Y180D01*
G01X45Y188D02*
Y180D01*
G01X20Y188D02*
Y180D01*
G01X145Y388D02*
Y395D01*
G01X120Y388D02*
Y395D01*
G01X95Y388D02*
Y395D01*
G01X70Y388D02*
Y395D01*
G01X45Y388D02*
Y395D01*
G01X20Y388D02*
Y395D01*
G01X180Y62D02*
Y57D01*
X177Y53D01*
Y45D01*
X180Y42D01*
Y38D01*
G01X395Y5D02*
Y12D01*
G01X370Y5D02*
Y12D01*
G01X345Y5D02*
Y12D01*
G01X320Y5D02*
Y12D01*
G01X295Y5D02*
Y12D01*
G01X245Y5D02*
Y12D01*
G01X220Y5D02*
Y12D01*
G01X270D02*
Y3D01*
G01X220Y38D02*
Y30D01*
X223Y27D01*
G01X245Y30D02*
Y38D01*
G01X270Y30D02*
Y38D01*
G01X295Y30D02*
Y38D01*
G01X395Y30D02*
Y38D01*
G01X370Y30D02*
Y38D01*
G01X341Y50D02*
Y42D01*
X345Y38D01*
G01X312Y50D02*
Y45D01*
X320Y38D01*
G01X255Y88D02*
Y82D01*
X250Y77D01*
Y69D01*
X252Y67D01*
X255Y64D01*
G01Y38D02*
X262Y45D01*
G01X220Y62D02*
Y57D01*
X225Y52D01*
X231D01*
G01X295Y55D02*
Y62D01*
G01X270Y55D02*
Y62D01*
G01X245Y55D02*
Y62D01*
G01X325Y54D02*
X323D01*
X320Y57D01*
Y62D01*
G01X370Y55D02*
Y62D01*
G01X395Y55D02*
Y62D01*
G01X344Y45D02*
Y54D01*
X345Y55D01*
Y62D01*
G01X303Y80D02*
X298D01*
X297Y80D01*
X295Y82D01*
Y88D01*
G01X303Y80D02*
X312D01*
X320Y88D01*
G01X370Y80D02*
Y88D01*
G01X395Y80D02*
Y88D01*
G01X270Y80D02*
Y88D01*
G01X245Y80D02*
Y88D01*
G01X345D02*
Y81D01*
G01X220Y88D02*
X224Y91D01*
Y92D01*
X225Y94D01*
X229D01*
X233Y97D01*
G01X220Y112D02*
Y104D01*
X217Y102D01*
G01X395Y105D02*
Y112D01*
G01X370Y105D02*
Y112D01*
G01X345Y105D02*
Y112D01*
G01X320Y105D02*
Y112D01*
G01X295Y105D02*
Y112D01*
G01X270Y105D02*
Y112D01*
G01X245Y105D02*
Y112D01*
G01X280Y12D02*
X281D01*
X286Y8D01*
G01X330Y12D02*
X336D01*
X337Y11D01*
Y9D01*
G01X380Y38D02*
X386D01*
G01X205Y73D02*
X203Y75D01*
X199D01*
X199Y74D01*
X195D01*
X187Y82D01*
Y100D01*
X191Y103D01*
X201D01*
X205Y106D01*
Y112D01*
G01X205Y38D02*
Y32D01*
X210Y26D01*
Y18D01*
X205Y12D01*
G01D02*
X211Y6D01*
X212D01*
G01X355Y50D02*
X361D01*
G01X305Y101D02*
X302Y98D01*
X294D01*
X287Y91D01*
Y82D01*
X290Y79D01*
X294D01*
X295Y78D01*
X296Y77D01*
X305Y69D01*
Y62D01*
G01Y12D02*
X310Y7D01*
X312D01*
G01X230Y138D02*
X227Y134D01*
Y132D01*
X222Y127D01*
Y123D01*
X230Y115D01*
Y112D01*
G01Y12D02*
X236D01*
X237Y11D01*
G01X195Y12D02*
Y7D01*
X197Y5D01*
X205D01*
G01X170Y12D02*
Y20D01*
G01Y30D02*
Y38D01*
G01X195D02*
Y34D01*
X187Y27D01*
G01X162Y55D02*
Y9D01*
X165Y6D01*
X185D01*
X187Y8D01*
Y21D01*
X184Y25D01*
Y30D01*
X187Y34D01*
Y60D01*
X190Y62D01*
X195D01*
G01X170D02*
X162Y55D01*
G01X195Y88D02*
Y93D01*
X197Y95D01*
G01X170Y95D02*
Y88D01*
G01X195Y112D02*
Y122D01*
G01X170Y105D02*
Y112D01*
G01X180Y162D02*
X187D01*
G01X220Y338D02*
Y344D01*
X217Y347D01*
G01X245Y338D02*
Y326D01*
G01X270Y338D02*
Y328D01*
G01X370Y338D02*
Y345D01*
G01X395Y338D02*
Y345D01*
G01X295Y338D02*
Y343D01*
X298Y347D01*
G01X345Y338D02*
X345Y337D01*
X337D01*
G01X320Y338D02*
Y330D01*
G01X155Y138D02*
X161D01*
G01X395Y238D02*
Y245D01*
G01X370Y238D02*
Y230D01*
G01X345Y238D02*
Y230D01*
G01X320Y238D02*
Y230D01*
G01X295Y238D02*
Y230D01*
G01X270Y238D02*
Y245D01*
G01X245Y238D02*
Y245D01*
G01X220Y238D02*
Y245D01*
G01X395Y288D02*
Y295D01*
G01X370Y288D02*
Y295D01*
G01X345Y288D02*
Y295D01*
G01X320Y288D02*
Y295D01*
G01X295Y288D02*
Y295D01*
G01X270Y288D02*
Y295D01*
G01X245Y288D02*
Y295D01*
G01X220Y288D02*
Y295D01*
G01Y312D02*
Y320D01*
X217Y323D01*
G01X245Y312D02*
Y320D01*
G01X270Y312D02*
Y320D01*
G01X295Y312D02*
Y320D01*
G01X320Y312D02*
Y320D01*
G01X345Y312D02*
Y320D01*
G01X370Y312D02*
Y320D01*
G01X395Y312D02*
Y320D01*
G01X205Y238D02*
X213D01*
X214Y239D01*
Y242D01*
X213Y243D01*
X211D01*
X208Y247D01*
Y260D01*
X205Y262D01*
G01D02*
X214Y271D01*
Y283D01*
X214Y284D01*
X211Y287D01*
X205D01*
X205Y288D01*
G01X220Y226D02*
Y212D01*
G01X395D02*
Y220D01*
G01X370Y212D02*
Y205D01*
G01X345Y212D02*
Y205D01*
G01X320Y212D02*
Y205D01*
G01X295Y212D02*
Y205D01*
G01X270Y212D02*
Y220D01*
G01X245Y212D02*
Y220D01*
G01X270Y355D02*
X278D01*
X280Y357D01*
G01X255Y348D02*
X253D01*
X250Y351D01*
G01X162Y305D02*
X156D01*
X155Y304D01*
G01X173Y303D02*
X169D01*
X162Y296D01*
Y257D01*
X165Y254D01*
X176D01*
X180Y250D01*
G01X173Y303D02*
X180Y296D01*
G01X173Y303D02*
X180Y310D01*
Y312D01*
G01Y288D02*
Y282D01*
X181Y280D01*
X188D01*
X197Y272D01*
G01X395Y262D02*
Y270D01*
G01X370Y262D02*
X362D01*
G01X345D02*
X337D01*
G01X320D02*
X312D01*
G01X270D02*
Y270D01*
G01X245Y262D02*
Y270D01*
G01X220Y262D02*
Y270D01*
G01X295Y262D02*
X286Y253D01*
G01X255Y138D02*
Y148D01*
X253Y150D01*
X244D01*
X239Y155D01*
Y158D01*
X238Y159D01*
Y166D01*
X240Y169D01*
X243Y171D01*
X255D01*
G01X211Y128D02*
X218D01*
X220Y130D01*
Y138D01*
G01X245D02*
Y136D01*
X251Y130D01*
G01X270Y130D02*
Y138D01*
G01X295Y130D02*
Y138D01*
G01X320Y130D02*
Y138D01*
G01X345Y130D02*
Y138D01*
G01X370Y130D02*
Y138D01*
G01X395Y130D02*
Y138D01*
G01X295Y155D02*
Y162D01*
G01X320Y155D02*
Y162D01*
G01X345Y155D02*
Y162D01*
G01X370Y155D02*
Y162D01*
G01X395Y155D02*
Y162D01*
G01X220D02*
X212D01*
G01X264Y153D02*
X249D01*
X245Y157D01*
Y162D01*
G01X280Y154D02*
X273D01*
X270Y157D01*
Y162D01*
G01X245Y188D02*
Y193D01*
X252Y200D01*
X262D01*
G01X270Y188D02*
X262Y195D01*
Y200D01*
G01X370Y188D02*
Y180D01*
G01X345Y188D02*
Y180D01*
G01X320Y188D02*
Y180D01*
G01X295Y188D02*
Y180D01*
G01X220Y188D02*
Y194D01*
X223Y197D01*
X226D01*
G01X395Y188D02*
Y186D01*
X394Y185D01*
Y181D01*
G01X380Y168D02*
X377Y172D01*
X372D01*
G01X355Y188D02*
Y196D01*
G01X230Y162D02*
Y138D01*
G01Y188D02*
X237Y180D01*
Y170D01*
X230Y162D01*
G01X195Y212D02*
Y205D01*
G01X170Y238D02*
X168Y236D01*
Y225D01*
X166Y223D01*
X153D01*
G01X195Y238D02*
Y232D01*
X197Y230D01*
X201D01*
G01X195Y262D02*
X189D01*
X187Y264D01*
Y267D01*
X186Y269D01*
X184D01*
X172Y269D01*
X170Y267D01*
Y262D01*
G01X208Y273D02*
X206Y272D01*
Y270D01*
X205Y269D01*
X200D01*
X195Y264D01*
Y262D01*
G01Y288D02*
Y286D01*
X201Y280D01*
G01X170Y288D02*
Y293D01*
X172Y295D01*
X175D01*
G01X195Y312D02*
Y307D01*
X193Y305D01*
X183D01*
G01X170Y312D02*
Y318D01*
X168Y320D01*
X160D01*
G01X195Y338D02*
X197Y336D01*
Y326D01*
X194Y323D01*
X184D01*
G01X170Y338D02*
Y344D01*
X166Y348D01*
G01X183Y354D02*
X184Y356D01*
X188D01*
X195Y362D01*
G01X170D02*
Y370D01*
G01X183Y375D02*
X191D01*
X195Y379D01*
Y388D01*
G01X245D02*
Y382D01*
X241Y378D01*
G01X395Y362D02*
Y370D01*
G01X370Y362D02*
Y370D01*
G01X345Y362D02*
Y370D01*
G01X320Y362D02*
Y370D01*
G01X295Y362D02*
Y369D01*
X291Y373D01*
G01X270Y362D02*
Y376D01*
G01X247Y376D02*
X245Y375D01*
Y362D01*
G01X220D02*
Y375D01*
X222Y376D01*
G01X195Y130D02*
Y138D01*
G01X170Y130D02*
Y138D01*
G01X195Y155D02*
Y162D01*
G01X170Y155D02*
Y162D01*
G01X195Y188D02*
X188Y194D01*
X173D01*
X170Y191D01*
Y188D01*
G01D02*
Y180D01*
G01Y388D02*
Y395D01*
G01X220Y388D02*
X214Y381D01*
Y380D01*
G01X395Y388D02*
Y395D01*
G01X370Y388D02*
Y380D01*
G01X345Y388D02*
Y380D01*
G01X320Y388D02*
Y380D01*
G01X270Y388D02*
Y382D01*
X268Y380D01*
X266D01*
G01X295Y388D02*
Y382D01*
X293Y380D01*
X291D01*
G54D14*
G01X400Y400D02*
X0D01*
Y0D01*
X400D01*
Y400D01*
G01X0Y-14D02*
X-24D01*
G01X-12Y-26D02*
Y-2D01*
G01X-5Y-14D02*
G03I-7J0D01*
G01X-2Y-13D02*
G03I-10J-1D01*
G01X-17Y413D02*
G03I-10J-1D01*
G01X-20Y412D02*
G03I-7J0D01*
G01X-27Y400D02*
Y424D01*
G01X-15Y412D02*
X-39D01*
G01X423Y-13D02*
X399D01*
G01X421Y-12D02*
G03I-10J-1D01*
G01X411Y-25D02*
Y-1D01*
G01X418Y-13D02*
G03I-7J0D01*
G01X429Y413D02*
X405D01*
G01X417Y401D02*
Y425D01*
G01X424Y413D02*
G03I-7J0D01*
G01X427Y414D02*
G03I-10J-1D01*
M02*
