G04 ================== begin FILE IDENTIFICATION RECORD ==================*
G04 Layout Name:  J:/LED_Panels/LED 8x8 Panel v5.brd*
G04 Film Name:    GND*
G04 File Format:  Gerber RS274X*
G04 File Origin:  Cadence Allegro 16.6-P004*
G04 Origin Date:  Sun Mar 26 00:02:32 2017*
G04 *
G04 Layer:  VIA CLASS/GND*
G04 Layer:  PIN/GND*
G04 Layer:  ETCH/GND*
G04 Layer:  BOARD GEOMETRY/OUTLINE*
G04 *
G04 Offset:    (0.0000 0.0000)*
G04 Mirror:    No*
G04 Mode:      Positive*
G04 Rotation:  0*
G04 FullContactRelief:  No*
G04 UndefLineWidth:     0.1000*
G04 ================== end FILE IDENTIFICATION RECORD ====================*
%FSLAX25Y25*MOMM*%
%IR0*IPPOS*OFA0.00000B0.00000*MIA0B0*SFA1.00000B1.00000*%
%ADD10C,.4*%
%ADD11C,.127*%
%ADD12C,.1*%
%ADD13C,.6544*%
G75*
%LPD*%
G75*
G36*
G01X10000Y10000D02*
Y3990000D01*
X169760D01*
G02X176920Y3972640I-4J-10158D01*
G03X223080I23080J-23200D01*
G02X230240Y3990000I7164J7202D01*
G01X419760D01*
G02X426920Y3972640I-4J-10158D01*
G03X473080I23080J-23200D01*
G02X480240Y3990000I7164J7202D01*
G01X669760D01*
G02X676920Y3972640I-4J-10158D01*
G03X723080I23080J-23200D01*
G02X730240Y3990000I7164J7202D01*
G01X919760D01*
G02X926920Y3972640I-4J-10158D01*
G03X973080I23080J-23200D01*
G02X980240Y3990000I7164J7202D01*
G01X1169760D01*
G02X1176920Y3972640I-4J-10158D01*
G03X1223080I23080J-23200D01*
G02X1230240Y3990000I7164J7202D01*
G01X1419760D01*
G02X1426920Y3972640I-4J-10158D01*
G03X1473080I23080J-23200D01*
G02X1480240Y3990000I7164J7202D01*
G01X1669760D01*
G02X1676920Y3972640I-4J-10158D01*
G03X1723080I23080J-23200D01*
G02X1730240Y3990000I7164J7202D01*
G01X1755240D01*
G02X1764970Y3976910I1J-10160D01*
G03X1827630I31330J-9430D01*
G02X1837360Y3990000I9729J2930D01*
G01X1845940D01*
Y3983680D01*
X1845370Y3982580D01*
G03X1905730Y3976910I29028J-15099D01*
G02X1915460Y3990000I9729J2930D01*
G01X1924040D01*
Y3983680D01*
X1923470Y3982580D01*
G03X1983830Y3976910I29028J-15099D01*
G02X1993560Y3990000I9729J2930D01*
G01X3919760D01*
G02X3926920Y3972640I-4J-10158D01*
G03X3972770Y3925940I23079J-23199D01*
G02X3990000Y3918650I7071J-7294D01*
G01Y3730230D01*
G02X3972770Y3722940I-10159J4D01*
G03Y3675940I-22770J-23500D01*
G02X3990000Y3668650I7071J-7294D01*
G01Y3480230D01*
G02X3972770Y3472940I-10159J4D01*
G03Y3425940I-22770J-23500D01*
G02X3990000Y3418650I7071J-7294D01*
G01Y3230230D01*
G02X3972770Y3222940I-10159J4D01*
G03Y3175940I-22770J-23500D01*
G02X3990000Y3168650I7071J-7294D01*
G01Y2980230D01*
G02X3972770Y2972940I-10159J4D01*
G03Y2925940I-22770J-23500D01*
G02X3990000Y2918650I7071J-7294D01*
G01Y2730230D01*
G02X3972770Y2722940I-10159J4D01*
G03Y2675940I-22770J-23500D01*
G02X3990000Y2668650I7071J-7294D01*
G01Y2480230D01*
G02X3972770Y2472940I-10159J4D01*
G03Y2425940I-22770J-23500D01*
G02X3990000Y2418650I7071J-7294D01*
G01Y2230230D01*
G02X3972770Y2222940I-10159J4D01*
G03Y2175940I-22770J-23500D01*
G02X3990000Y2168650I7071J-7294D01*
G01Y1580710D01*
G02X3972770Y1573420I-10159J4D01*
G03Y1526420I-22770J-23500D01*
G02X3990000Y1519130I7071J-7294D01*
G01Y1330710D01*
G02X3972770Y1323420I-10159J4D01*
G03Y1276420I-22770J-23500D01*
G02X3990000Y1269130I7071J-7294D01*
G01Y1080710D01*
G02X3972770Y1073420I-10159J4D01*
G03Y1026420I-22770J-23500D01*
G02X3990000Y1019130I7071J-7294D01*
G01Y830710D01*
G02X3972770Y823420I-10159J4D01*
G03Y776420I-22770J-23500D01*
G02X3990000Y769130I7071J-7294D01*
G01Y580710D01*
G02X3972770Y573420I-10159J4D01*
G03Y526420I-22770J-23500D01*
G02X3990000Y519130I7071J-7294D01*
G01Y330710D01*
G02X3972770Y323420I-10159J4D01*
G03Y276420I-22770J-23500D01*
G02X3990000Y269130I7071J-7294D01*
G01Y80710D01*
G02X3972770Y73420I-10159J4D01*
G03X3926440Y27210I-22771J-23501D01*
G02X3919130Y10000I-7313J-7051D01*
G01X3730870D01*
G02X3723560Y27210I3J10159D01*
G03X3676440I-23560J22710D01*
G02X3669130Y10000I-7313J-7051D01*
G01X3480870D01*
G02X3473560Y27210I3J10159D01*
G03X3426440I-23560J22710D01*
G02X3419130Y10000I-7313J-7051D01*
G01X3230870D01*
G02X3223560Y27210I3J10159D01*
G03X3176440I-23560J22710D01*
G02X3169130Y10000I-7313J-7051D01*
G01X3097560D01*
G02X3088590Y24930I-2J10158D01*
G03X3091740Y33680I-28899J15346D01*
G02X3105420Y41080I9951J-2052D01*
G03X3115890Y104200I12003J30437D01*
G01X3113650Y104100D01*
X3047380Y170370D01*
X2738200D01*
G02X2729150Y185140I4J10160D01*
G03X2670850I-29150J14860D01*
G02X2661800Y170370I-9054J-4610D01*
G01X2098320D01*
G02X2089680Y185870I3J10160D01*
G03X2034000I-27840J17190D01*
G02X2025360Y170370I-8643J-5340D01*
G01X1738200D01*
G02X1729150Y185140I4J10160D01*
G03X1670850I-29150J14860D01*
G02X1661800Y170370I-9054J-4610D01*
G01X1348440D01*
X1290370Y228440D01*
Y652740D01*
X1325130Y687500D01*
G02X1342320Y682050I7181J-7186D01*
G03X1389560Y716720I32239J5590D01*
G02X1385860Y731520I4660J9027D01*
G03X1326260Y748590I-26917J18601D01*
G01X1326360Y746350D01*
X1249630Y669620D01*
Y211560D01*
X1331560Y129630D01*
X2332460D01*
G02X2342360Y117180I1J-10160D01*
G03X2406120I31880J-7360D01*
G02X2416020Y129630I9899J2290D01*
G01X3030500D01*
X3084840Y75290D01*
X3084740Y73050D01*
G03X3084710Y72300I32675J-1683D01*
G02X3076950Y68100I-5080J117D01*
G03X3030810Y24930I-17253J-27802D01*
G02X3021840Y10000I-8968J-4772D01*
G01X2980870D01*
G02X2973560Y27210I3J10159D01*
G03X2926440I-23560J22710D01*
G02X2919130Y10000I-7313J-7051D01*
G01X2743680D01*
G02X2733870Y22780I5J10159D01*
G03X2670650I-31610J8460D01*
G02X2660840Y10000I-9815J-2621D01*
G01X2480870D01*
G02X2473560Y27210I3J10159D01*
G03X2426440I-23560J22710D01*
G02X2419130Y10000I-7313J-7051D01*
G01X2230870D01*
G02X2223560Y27210I3J10159D01*
G03X2176440I-23560J22710D01*
G02X2169130Y10000I-7313J-7051D01*
G01X2079770D01*
G02X2071820Y26490I0J10161D01*
G03X2020620I-25600J20370D01*
G02X2012670Y10000I-7950J-6329D01*
G01X1480870D01*
G02X1473560Y27210I3J10159D01*
G03X1426440I-23560J22710D01*
G02X1419130Y10000I-7313J-7051D01*
G01X1230870D01*
G02X1223560Y27210I3J10159D01*
G03X1176440I-23560J22710D01*
G02X1169130Y10000I-7313J-7051D01*
G01X980870D01*
G02X973560Y27210I3J10159D01*
G03X926440I-23560J22710D01*
G02X919130Y10000I-7313J-7051D01*
G01X730870D01*
G02X723560Y27210I3J10159D01*
G03X676440I-23560J22710D01*
G02X669130Y10000I-7313J-7051D01*
G01X480870D01*
G02X473560Y27210I3J10159D01*
G03X426440I-23560J22710D01*
G02X419130Y10000I-7313J-7051D01*
G01X230870D01*
G02X223560Y27210I3J10159D01*
G03X176440I-23560J22710D01*
G02X169130Y10000I-7313J-7051D01*
G01X10000D01*
G37*
%LPC*%
G75*
G36*
G01X2434560Y3795040D02*
G03X2449360Y3791340I9027J4659D01*
G02X2438880Y3749420I18600J-26920D01*
G03X2424080Y3753120I-9027J-4659D01*
G02X2434560Y3795040I-18600J26920D01*
G37*
G36*
G01X2687340Y3802750D02*
G03X2697910Y3794810I9920J2201D01*
G02X2668060Y3755070I2091J-32651D01*
G03X2657490Y3763010I-9920J-2201D01*
G02X2687340Y3802750I-2091J32651D01*
G37*
G36*
G01X2927730Y3771820D02*
G03Y3757020I6962J-7400D01*
G02X2882910I-22410J-23840D01*
G03Y3771820I-6962J7400D01*
G02X2927730I22410J23840D01*
G37*
G36*
G01X1972440Y3748310D02*
G03X1983100Y3756160I760J10131D01*
G02X2006370Y3780370I31883J-7357D01*
G03X2013770Y3791470I-2675J9800D01*
G02X2054830Y3764090I32452J4188D01*
G03X2047430Y3752990I2675J-9800D01*
G02X2012540Y3716170I-32451J-4191D01*
G03X2001880Y3708320I-760J-10131D01*
G02X1972440Y3748310I-31881J7361D01*
G37*
G36*
G01X2698610Y3513220D02*
G03X2687510Y3505080I-1131J-10096D01*
G02X2659050Y3543880I-32112J6284D01*
G03X2670150Y3552020I1131J10096D01*
G02X2698610Y3513220I32112J-6284D01*
G37*
G36*
G01X1433810Y3497560D02*
G03X1422660Y3488050I-1007J-10110D01*
G02X1362110Y3507110I-32661J1949D01*
G03X1358450Y3521260I-8663J5308D01*
G02X1404730Y3562410I16112J28479D01*
G03X1419530Y3557760I9366J3934D01*
G02X1433810Y3497560I17510J-27640D01*
G37*
G36*
G01X3250430Y3510580D02*
G03X3261530Y3500220I10156J-245D01*
G02X3231870Y3468420I3051J-32578D01*
G03X3220770Y3478780I-10156J245D01*
G02X3250430Y3510580I-3051J32578D01*
G37*
G36*
G01X2969270D02*
G03X2980370Y3500220I10156J-245D01*
G02X2950710Y3468420I3051J-32578D01*
G03X2939610Y3478780I-10156J245D01*
G02X2969270Y3510580I-3051J32578D01*
G37*
G36*
G01X362580Y3478810D02*
G03X353600Y3466960I1029J-10107D01*
G02X318040Y3493910I-32238J-5601D01*
G03X327020Y3505760I-1029J10107D01*
G02X362580Y3478810I32238J5601D01*
G37*
G36*
G01X1340900Y3273430D02*
G03X1326680Y3271060I-5933J-8247D01*
G02X1319100Y3316570I-26680J18943D01*
G03X1333320Y3318940I5933J8247D01*
G02X1340900Y3273430I26680J-18943D01*
G37*
G36*
G01X2195820Y3268230D02*
G03Y3254870I7653J-6680D01*
G02X2146540I-24640J-21530D01*
G03Y3268230I-7653J6680D01*
G02X2195820I24640J21530D01*
G37*
G36*
G01X2346770Y3258090D02*
G03X2345350Y3244460I6747J-7592D01*
G02X2297300Y3249460I-26310J-19458D01*
G03X2298720Y3263090I-6747J7592D01*
G02X2331440Y3314640I26306J19462D01*
G03X2343100Y3321480I1993J9962D01*
G02X2367830Y3279350I31141J-10043D01*
G03X2356170Y3272510I-1993J-9962D01*
G02X2346770Y3258090I-31146J10030D01*
G37*
G36*
G01X2471280Y3239730D02*
G03Y3224290I6610J-7720D01*
G02X2428720I-21280J-24850D01*
G03Y3239730I-6610J7720D01*
G02X2471280I21280J24850D01*
G37*
G36*
G01X1461050Y3022920D02*
G03X1446990Y3021150I-6121J-8109D01*
G02X1441120Y3067690I-25570J20415D01*
G03X1455180Y3069460I6121J8109D01*
G02X1461050Y3022920I25570J-20415D01*
G37*
G36*
G01X2115490Y3022060D02*
G03Y3007260I6962J-7400D01*
G02X2070670I-22410J-23840D01*
G03Y3022060I-6962J7400D01*
G02X2115490I22410J23840D01*
G37*
G36*
G01X2993380Y2947960D02*
G03X2981540Y2940720I-2049J-9951D01*
G02X2931460Y2976400I-31538J8720D01*
G03X2931980Y2992760I-5757J8371D01*
G02X2984750Y3021610I20199J25740D01*
G03X2996080Y3012480I10116J959D01*
G02X2993380Y2947960I3928J-32481D01*
G37*
G36*
G01X880460Y2996250D02*
G03X881870Y3011270I-6066J8146D01*
G02X925500Y3007170I24089J22148D01*
G03X924090Y2992150I6066J-8146D01*
G02X928740Y2985650I-24090J-22147D01*
G03X940580Y2980780I8920J4857D01*
G02X921260Y2933790I9418J-31339D01*
G03X909420Y2938660I-8920J-4857D01*
G02X880460Y2996250I-9428J31336D01*
G37*
G36*
G01X1991140Y2773570D02*
G03X1976340I-7400J-6962D01*
G02Y2818390I-23840J22410D01*
G03X1991140I7400J6962D01*
G02Y2773570I23840J-22410D01*
G37*
G36*
G01X1732990Y2742630D02*
G03X1726940Y2746580I-4976J-1014D01*
G02X1694870Y2757610I-6934J31977D01*
G03X1679640Y2758030I-7800J-6509D01*
G02X1680850Y2801310I-23920J22326D01*
G03X1696080Y2800890I7800J6509D01*
G02X1752070Y2785050I23919J-22328D01*
G03X1758120Y2781100I4976J1014D01*
G02X1732990Y2742630I6941J-31977D01*
G37*
G36*
G01X3723380Y2777110D02*
G03Y2762890I7258J-7110D01*
G02X3676620I-23380J-22890D01*
G03Y2777110I-7258J7110D01*
G02X3723380I23380J22890D01*
G37*
G36*
G01X3643380D02*
G03Y2762890I7258J-7110D01*
G02X3596620I-23380J-22890D01*
G03Y2777110I-7258J7110D01*
G02X3643380I23380J22890D01*
G37*
G36*
G01X1875730Y2761620D02*
G03X1886550Y2750520I10115J-964D01*
G02X1856250Y2721000I2270J-32640D01*
G03X1845430Y2732100I-10115J964D01*
G02X1875730Y2761620I-2270J32640D01*
G37*
G36*
G01X2037390Y2522220D02*
G03Y2507420I6962J-7400D01*
G02X1992570I-22410J-23840D01*
G03Y2522220I-6962J7400D01*
G02X2037390I22410J23840D01*
G37*
G36*
G01X1812850Y2006210D02*
G03X1801000Y1999540I-2222J-9915D01*
G02X1777150Y2041930I-31002J10462D01*
G03X1789000Y2048600I2222J9915D01*
G02X1827160Y2070070I31004J-10458D01*
G03X1839010Y2076730I2225J9913D01*
G02X1862840Y2034310I30992J-10493D01*
G03X1850990Y2027650I-2225J-9913D01*
G02X1812850Y2006210I-30992J10489D01*
G37*
G36*
G01X1209370Y2019210D02*
G03X1202620Y2006340I2911J-9732D01*
G02X1162130Y2027570I-31117J-10120D01*
G03X1168880Y2040440I-2911J9732D01*
G02X1209370Y2019210I31117J10120D01*
G37*
G36*
G01X922750Y1500880D02*
G03X934520Y1492260I10063J1394D01*
G02X907590Y1455500I5480J-32259D01*
G03X895820Y1464120I-10063J-1394D01*
G02X882110Y1528050I-5480J32260D01*
G03X889510Y1539890I-2559J9832D01*
G02X929810Y1514710I32071J6489D01*
G03X922410Y1502870I2559J-9832D01*
G02X922750Y1500880I-32068J-6503D01*
G37*
G36*
G01X358730Y1475510D02*
G03X361000Y1482230I-2314J4525D01*
G02X405390Y1467250I29498J14152D01*
G03X403120Y1460530I2314J-4525D01*
G02X358730Y1475510I-29498J-14152D01*
G37*
G36*
G01X1994100Y1231910D02*
G03X1982610Y1221020I-1365J-10067D01*
G02X1917420Y1221420I-32613J-2657D01*
G03X1906910Y1232520I-10112J951D01*
G02X1907360Y1297890I-1270J32695D01*
G03X1917870Y1306120I532J10146D01*
G02X1982300Y1305150I32129J-6197D01*
G03X1993790Y1296720I10029J1625D01*
G02X1994100Y1231910I4687J-32383D01*
G37*
G36*
G01X1646890Y1225760D02*
G03Y1210960I6962J-7400D01*
G02X1602070I-22410J-23840D01*
G03Y1225760I-6962J7400D01*
G02X1646890I22410J23840D01*
G37*
G36*
G01X2370030Y982580D02*
G03X2359960Y971480I45J-10159D01*
G02X2327230Y1001160I-32579J-3040D01*
G03X2337300Y1012260I-45J10159D01*
G02X2370030Y982580I32579J3040D01*
G37*
G36*
G01X3669720Y573100D02*
G03X3676900Y573090I3595J3591D01*
G02X3676830Y526820I23100J-23170D01*
G03X3669650Y526830I-3595J-3591D01*
G02X3669720Y573100I-23100J23170D01*
G37*
G36*
G01X3437790Y497450D02*
G03X3447000Y486590I10135J-741D01*
G02X3411380Y456400I-2989J-32581D01*
G03X3402170Y467260I-10135J741D01*
G02X3373230Y506990I2989J32582D01*
G03X3366450Y518880I-9913J2225D01*
G02X3408480Y542850I10101J31121D01*
G03X3415260Y530960I9913J-2225D01*
G02X3437790Y497450I-10101J-31120D01*
G37*
G36*
G01X2334170Y491620D02*
G03Y476820I6962J-7400D01*
G02X2289350I-22410J-23840D01*
G03Y491620I-6962J7400D01*
G02X2334170I22410J23840D01*
G37*
G36*
G01X2194690Y288190D02*
G03X2209780Y287910I7671J6661D01*
G02X2208970Y244070I23880J-22369D01*
G03X2193880Y244350I-7671J-6661D01*
G02X2194690Y288190I-23880J22369D01*
G37*
G36*
G01X2014020Y249990D02*
G03X2002180Y241840I-1850J-9988D01*
G02X1975980Y279950I-32178J5939D01*
G03X1987820Y288100I1850J9988D01*
G02X2014020Y249990I32178J-5939D01*
G37*
G36*
G01X2974180Y277870D02*
G03X2974470Y270730I3752J-3423D01*
G02X2928000Y268830I-22295J-23950D01*
G03X2927710Y275970I-3752J3423D01*
G02X2974180Y277870I22295J23950D01*
G37*
G36*
G01X3250410Y245460D02*
G03X3258350Y235130I10152J-413D01*
G02X3218510Y204520I-7147J-31929D01*
G03X3210570Y214850I-10152J413D01*
G02X3250410Y245460I7147J31929D01*
G37*
G36*
G01X3172690Y3758700D02*
G02X3153090Y3789990I-32693J1305D01*
G03X3167310Y3798900I4068J9311D01*
G02X3186910Y3767610I32693J-1305D01*
G03X3172690Y3758700I-4068J-9311D01*
G37*
G36*
G01X652580Y3492880D02*
G02X629320Y3467990I8781J-31519D01*
G03X616640Y3479840I-9948J2064D01*
G02X639900Y3504730I-8781J31519D01*
G03X652580Y3492880I9948J-2064D01*
G37*
G36*
G01X1153960Y3281290D02*
G02X1152830Y3312440I-29319J14532D01*
G03X1170680Y3313090I8749J5160D01*
G02X1171810Y3281940I29319J-14532D01*
G03X1153960Y3281290I-8749J-5160D01*
G37*
G36*
G01X1851890Y3264870D02*
G02X1816760Y3252670I-8733J-31532D01*
G03X1811270Y3268470I-8196J6006D01*
G02X1846400Y3280670I8733J31532D01*
G03X1851890Y3264870I8196J-6006D01*
G37*
G36*
G01X697550Y3247450D02*
G02X667520Y3218770I2451J-32628D01*
G03X656670Y3230130I-10085J1230D01*
G02X621800Y3258350I-2448J32628D01*
G03X607430Y3266180I-10066J-1372D01*
G02X625980Y3300230I-13872J29635D01*
G03X640350Y3292400I10066J1372D01*
G02X686700Y3258810I13868J-29637D01*
G03X697550Y3247450I10085J-1230D01*
G37*
G36*
G01X3706600Y2981490D02*
G02X3670500Y2963600I-6600J-32049D01*
G03X3663400Y2977950I-9155J4402D01*
G02X3685520Y3038800I6597J32047D01*
G03X3700490Y3047310I4818J8946D01*
G02X3717660Y3017100I32688J-1406D01*
G03X3702690Y3008590I-4818J-8946D01*
G02X3699500Y2995840I-32691J1405D01*
G03X3706600Y2981490I9155J-4402D01*
G37*
G36*
G01X2732090Y2943040D02*
G02X2687320Y2979600I-32088J6398D01*
G03X2691390Y2995220I-3937J9366D01*
G02X2749390Y3021090I25786J20140D01*
G03X2759540Y3012720I10001J1789D01*
G02X2746300Y2950280I453J-32720D01*
G03X2732090Y2943040I-4249J-9226D01*
G37*
G36*
G01X2232060Y2255920D02*
G02X2167550Y2258300I-32057J6557D01*
G03X2153320Y2266280I-10078J-1293D01*
G02X2172390Y2300320I-13381J29858D01*
G03X2186620Y2292340I10078J1293D01*
G02X2205550Y2294730I13386J-29858D01*
G03X2217220Y2302700I1720J10010D01*
G02X2243730Y2263890I32058J-6561D01*
G03X2232060Y2255920I-1720J-10010D01*
G37*
G36*
G01X2289870Y1946970D02*
G02X2281980Y1996030I-24969J21149D01*
G03X2295030Y1998130I5299J8666D01*
G02X2326060Y2009130I24963J-21152D01*
G03X2337910Y2017130I1885J9985D01*
G02X2402090I32090J-6390D01*
G03X2413940Y2009130I9965J1985D01*
G02X2426240Y2009100I6072J-32151D01*
G03X2438090Y2021320I1943J9972D01*
G02X2463760Y1996440I31909J7240D01*
G03X2451910Y1984220I-1943J-9972D01*
G02X2387910Y1970590I-31912J-7227D01*
G03X2376060Y1978590I-9965J-1985D01*
G02X2363940I-6060J32150D01*
G03X2352090Y1970590I-1885J-9985D01*
G02X2302920Y1949070I-32091J6389D01*
G03X2289870Y1946970I-5299J-8666D01*
G37*
G36*
G01X2030360Y1985710D02*
X2032020Y1984200D01*
G02X1989620Y1985620I-22034J-24190D01*
G01Y2007510D01*
X1989630Y2007520D01*
Y2017570D01*
G03X1972490Y2024950I-10159J0D01*
G02X1979910Y2061990I-22489J23768D01*
G01X1981250Y2058970D01*
X1989630D01*
Y2081560D01*
X1961560Y2109630D01*
X1071560D01*
X999630Y2181560D01*
Y2431560D01*
X951560Y2479630D01*
X851560D01*
X799630Y2531560D01*
Y2941560D01*
X731280Y3009910D01*
X666030D01*
G02X659010Y3003350I-25609J20369D01*
G03X658910Y2986700I5772J-8360D01*
G02X666880Y2978650I-18914J-26697D01*
G03X681100Y2976150I8348J5792D01*
G02X673120Y2930790I18901J-26707D01*
G03X658900Y2933290I-8348J-5792D01*
G02X621410Y2986930I-18901J26711D01*
G03X621510Y3003580I-5772J8360D01*
G02X666030Y3050650I18913J26701D01*
G01X748160D01*
X840370Y2958440D01*
Y2659820D01*
G03X856460Y2651570I10159J-2D01*
G02Y2598430I19100J-26570D01*
G03X840370Y2590180I-5931J-8248D01*
G01Y2548440D01*
X868440Y2520370D01*
X968440D01*
X1040370Y2448440D01*
Y2198440D01*
X1088440Y2150370D01*
X1978440D01*
X2030370Y2098440D01*
Y2085030D01*
G03X2042620Y2075090I10158J1D01*
G02Y2011050I6750J-32020D01*
G03X2030370Y2001110I-2092J-9941D01*
G01Y1990640D01*
X2030360Y1990630D01*
Y1985710D01*
G37*
G36*
G01X922910Y1987900D02*
G02X907280Y1959740I17089J-27903D01*
G03X891810Y1968320I-10160J-82D01*
G02X907440Y1996480I-17089J27903D01*
G03X922910Y1987900I10160J82D01*
G37*
G36*
G01X632790Y1897010D02*
G02X603600Y1907340I-24212J-22009D01*
G03X609570Y1924210I-1551J10040D01*
G02X601520Y1951690I24210J22011D01*
G03X591990Y1963540I-10017J1701D01*
G02X625820Y1990750I1571J32682D01*
G03X635350Y1978900I10017J-1701D01*
G02X638760Y1913880I-1572J-32682D01*
G03X632790Y1897010I1551J-10040D01*
G37*
G36*
G01X387870Y1904770D02*
G02X352680Y1899580I-13587J-29768D01*
G03X350190Y1916450I-6706J7629D01*
G02X331650Y1952430I13588J29769D01*
G03X319480Y1964280I-9975J1930D01*
G02X344530Y1990010I-7074J31946D01*
G03X356700Y1978160I9975J-1930D01*
G02X385380Y1921640I7080J-31944D01*
G03X387870Y1904770I6706J-7629D01*
G37*
G36*
G01X2649660Y1731830D02*
G02X2627110Y1756330I-32002J-6827D01*
G03X2639980Y1768170I2935J9725D01*
G02X2662530Y1743670I32002J6827D01*
G03X2649660Y1731830I-2935J-9725D01*
G37*
G36*
G01X212200Y1505290D02*
G02X172260Y1512890I-24763J-21389D01*
G03X175240Y1528530I-4709J9001D01*
G02X215180Y1520930I24763J21389D01*
G03X212200Y1505290I4709J-9001D01*
G37*
G36*
G01X2651080Y1486880D02*
G02X2609160Y1497360I-26920J-18600D01*
G03X2612860Y1512160I-4660J9027D01*
G02X2671910Y1536950I26921J18599D01*
G03X2686180Y1529660I9976J1917D01*
G02X2667280Y1500280I13820J-29659D01*
G03X2659190Y1504420I-5079J48D01*
G02X2654780Y1501680I-19418J26335D01*
G03X2651080Y1486880I4659J-9027D01*
G37*
G36*
G01X665860Y1451970D02*
G02X630410Y1478940I-32238J-5592D01*
G03X639420Y1490790I-1000J10111D01*
G02X639430Y1502000I32240J5576D01*
G03X628320Y1513850I-10009J1749D01*
G02X657030Y1540760I-3523J32529D01*
G03X668140Y1528910I10009J-1749D01*
G02X674870Y1463820I3520J-32529D01*
G03X665860Y1451970I1000J-10111D01*
G37*
G36*
G01X2452440Y1223720D02*
G02X2387820Y1213520I-32440J-4274D01*
G03X2375980Y1221670I-9990J-1838D01*
G02X2338950Y1243510I-5982J32170D01*
G03X2327110Y1250220I-9639J-3207D01*
G02X2310060Y1250990I-7100J31940D01*
G03X2297000Y1243270I-3089J-9680D01*
G02X2274840Y1280770I-32100J6328D01*
G03X2287900Y1288490I3089J9680D01*
G02X2351050Y1292490I32103J-6329D01*
G03X2362890Y1285780I9639J3207D01*
G02X2402180Y1259780I7112J-31940D01*
G03X2414020Y1251630I9990J1838D01*
G02X2425710Y1251680I5983J-32169D01*
G03X2437560Y1263000I1776J10003D01*
G02X2476780Y1299270I32441J4260D01*
G03X2482800Y1303190I1050J4970D01*
G02X2508040Y1264450I32020J-6730D01*
G03X2502020Y1260530I-1050J-4970D01*
G02X2464290Y1235040I-32021J6729D01*
G03X2452440Y1223720I-1776J-10003D01*
G37*
G36*
G01X1208440Y1119630D02*
X272980D01*
X203680Y1188930D01*
X201440Y1188830D01*
G02X232590Y1219980I-1530J32680D01*
G01X232490Y1217740D01*
X289860Y1160370D01*
X328850D01*
G03X336230Y1177510I0J10159D01*
G02X383770I23770J22490D01*
G03X391150Y1160370I7380J-6981D01*
G01X1191560D01*
X1279630Y1248440D01*
Y1668440D01*
X1351560Y1740370D01*
X1561800D01*
G03X1570850Y1755140I-4J10160D01*
G02X1629150I29150J14860D01*
G03X1638200Y1740370I9054J-4610D01*
G01X2180160D01*
X2232320Y1792530D01*
X2232220Y1794770D01*
G02X2263370Y1763620I32680J1530D01*
G01X2261130Y1763720D01*
X2197040Y1699630D01*
X1368440D01*
X1320370Y1651560D01*
Y1501150D01*
G03X1337510Y1493770I10159J0D01*
G02Y1446230I22490J-23770D01*
G03X1320370Y1438850I-6981J-7380D01*
G01Y1231560D01*
X1208440Y1119630D01*
G37*
G36*
G01X1998760Y941350D02*
G02X1977060Y984290I-30641J11468D01*
G03X1989360Y990510I2780J9775D01*
G02X2025470Y1011300I30643J-11469D01*
G03X2037320Y1021820I1703J10015D01*
G02X2081440Y1054110I32678J1637D01*
G03X2094310Y1059580I3551J9520D01*
G02X2155890Y1055150I30011J-13038D01*
G03X2166990Y1047750I9800J2675D01*
G02X2195890Y993850I4191J-32451D01*
G03X2200090Y985460I3839J-3324D01*
G02X2206610Y985270I2312J-32639D01*
G03X2217710Y992670I1300J10075D01*
G02X2245090Y951610I31568J-8608D01*
G03X2233990Y944210I-1300J-10075D01*
G02X2173520Y968170I-31567J8619D01*
G03X2166120Y982970I-8969J4766D01*
G02X2164720Y983220I5051J32330D01*
G03X2152600Y974140I-2001J-9958D01*
G02X2087440Y980210I-32598J2840D01*
G03X2075590Y991220I-10110J1001D01*
G02X2064530Y991200I-5588J32240D01*
G03X2052680Y980680I-1703J-10015D01*
G02X2011060Y947570I-32678J-1637D01*
G03X1998760Y941350I-2780J-9775D01*
G37*
G36*
G01X2687120Y754650D02*
G02X2657710Y779260I-31720J-8029D01*
G03X2668280Y791890I723J10133D01*
G02X2697690Y767280I31720J8029D01*
G03X2687120Y754650I-723J-10133D01*
G37*
G36*
G01X2349660Y731830D02*
G02X2327110Y756330I-32002J-6827D01*
G03X2339980Y768170I2935J9725D01*
G02X2362530Y743670I32002J6827D01*
G03X2349660Y731830I-2935J-9725D01*
G37*
G36*
G01X3012350Y483890D02*
G02X2974780Y500160I-28929J-15290D01*
G03X2981070Y514710I-2688J9797D01*
G02X2980140Y516620I28938J15272D01*
G03X2965930Y521340I-9270J-4158D01*
G02X2979860Y563300I-15930J28581D01*
G03X2994070Y558580I9270J4158D01*
G02X3018640Y498440I15929J-28581D01*
G03X3012350Y483890I2688J-9797D01*
G37*
G36*
G01X2749950Y475100D02*
G02X2717950Y501320I-32068J-6501D01*
G03X2727930Y513500I24J10159D01*
G02X2727290Y519420I32075J6462D01*
G03X2719220Y523440I-5081J-89D01*
G02X2732000Y556760I-19219J26482D01*
G03X2746210Y549670I9934J2126D01*
G02X2759930Y487280I13792J-29671D01*
G03X2749950Y475100I-24J-10159D01*
G37*
G54D13*
X109340Y1040660D03*
X1421420Y265540D03*
X1450000Y450080D03*
X1200000Y299920D03*
X950000D03*
X700000D03*
X450000D03*
X200000D03*
X1450000Y549920D03*
X1200000D03*
X950000D03*
X700000D03*
X450000D03*
X200000D03*
X1450000Y950080D03*
X1200000Y799920D03*
X950000D03*
X700000D03*
X450000D03*
X200000D03*
X1450000Y1049920D03*
X1200000D03*
X950000D03*
X700000D03*
X450000D03*
X200000D03*
X108740Y1875000D03*
X1374560Y1640100D03*
X1050000Y1933420D03*
X1499520Y1471180D03*
X874120Y1875000D03*
X190820Y2776980D03*
X1350000Y1970000D03*
X1300000Y2300000D03*
X971360Y3461360D03*
X370000Y2950000D03*
X1380000Y2970000D03*
X1360000Y2720000D03*
X108660Y2125000D03*
X1109020Y2452340D03*
X859100Y2405480D03*
X1499520Y1968120D03*
X359260Y2249280D03*
X1124640Y2639780D03*
X550000Y2311400D03*
X1218360Y2795980D03*
X164360Y2522980D03*
X1218360Y3033420D03*
X1201420Y3511360D03*
X904640D03*
X359260Y3033420D03*
X950000Y2199440D03*
X700000D03*
X450000D03*
X200000D03*
X1450000Y2050560D03*
X1200000Y2433980D03*
X950000Y2310000D03*
X700000Y2300560D03*
X450000D03*
X125560Y2375000D03*
X357440Y3262760D03*
X1370000Y2200000D03*
X625560Y2625000D03*
X375560D03*
X125560D03*
X1200000Y2699520D03*
X1375400Y2625000D03*
X450000Y2949440D03*
X125560Y2875000D03*
X1200000Y2949440D03*
X1374560Y2795980D03*
X1380000Y3200000D03*
X1200000Y3199360D03*
X450000Y3183500D03*
X125560Y3125000D03*
X890340Y3295820D03*
X875560Y3375000D03*
X625560D03*
X375560D03*
X125560D03*
X1450000Y3699440D03*
X1200000D03*
X950000D03*
X700000D03*
X450000D03*
X200000D03*
X1120000Y1320000D03*
X1233980Y1496380D03*
X374880Y2046220D03*
X656040D03*
X937200D03*
X1450000Y1299920D03*
X1200000D03*
X950000D03*
X700000D03*
X450000D03*
X200000D03*
X1120000Y1820000D03*
X1200000Y1700080D03*
X950000D03*
X1450000Y1549040D03*
X450000Y1700080D03*
X700000D03*
X1450000Y1799920D03*
X1200000D03*
X950000D03*
X700000D03*
X450000D03*
X200000D03*
X2180400Y475000D03*
X1620000Y690000D03*
X3280000Y700000D03*
X3700000Y710000D03*
X3683000Y215900D03*
X3858140Y1233980D03*
X1970000Y782880D03*
X2880000Y1220000D03*
X2880320Y999680D03*
X2639780Y246780D03*
X2936560Y746620D03*
X3217720D03*
X3498880D03*
X3483260Y246780D03*
X2450000Y299920D03*
X2700000D03*
X3700000D03*
X3124000Y500000D03*
X2624160Y452980D03*
X2450000Y549920D03*
X3250000Y540000D03*
X3030000Y799920D03*
X3700000D03*
X2450000D03*
X3450000Y810000D03*
X3700000Y1049920D03*
X3450000D03*
X3200000D03*
X2950000D03*
X2700000D03*
X2450000D03*
X3060000Y730000D03*
X2858460Y78100D03*
X3373920Y93720D03*
X3858020Y375000D03*
X2124320Y62480D03*
X1700000Y299920D03*
X1874400Y265540D03*
X1624480Y546700D03*
X1700000Y950080D03*
Y1049920D03*
X2108700Y2218040D03*
X3248960Y3018500D03*
X1624480Y1655720D03*
X3514500Y3002880D03*
X1873880Y1625000D03*
X2390000Y3550000D03*
X3373920Y3373920D03*
X2171180Y3467640D03*
X2700000Y3280200D03*
X3700000Y3449440D03*
X3200000Y3297920D03*
X1608420Y1375000D03*
X3700000Y2300560D03*
X3450000D03*
X3200000D03*
X2950000D03*
X2700000Y2449440D03*
X2450000D03*
X2200000D03*
X3450000Y2949440D03*
X3200000D03*
X2450000D03*
X2200000D03*
X2700000Y3199440D03*
X2950000D03*
X3200000D03*
X3450000D03*
X3700000D03*
X3128010Y2776980D03*
X2070000Y3210260D03*
X2218040Y3030280D03*
X3442980Y2522980D03*
X1999360Y2218040D03*
X2900000Y2800000D03*
X1861930Y1530760D03*
X3127500Y3410000D03*
X3622020Y3422020D03*
X3350000Y2950000D03*
X2660000Y2800000D03*
X1830000Y3460000D03*
X2610000Y3300000D03*
X3873760Y1483760D03*
X3124000Y2967800D03*
X3700000Y2050560D03*
X3450000D03*
X3200000D03*
X2950000D03*
X2700000Y2199440D03*
X2450000D03*
X3800000Y3795660D03*
X3550000D03*
X3300000D03*
X3050000D03*
X2499200Y3514500D03*
X1874400Y2842840D03*
X1624480Y3045900D03*
X1968120Y2717880D03*
X1733820Y3030280D03*
X3624680Y2625000D03*
X3374760D03*
X3124840D03*
X2700000Y2699440D03*
X2450000D03*
X2200000D03*
X2858460Y2530440D03*
X2717880Y3452020D03*
X2108700Y1280840D03*
X2700000Y1299920D03*
X2950000D03*
X3200000D03*
X3450000D03*
X3700000D03*
X2800000Y1540000D03*
X2950000Y1549920D03*
X3200000D03*
X3450000D03*
X3700000D03*
X2124840Y1625000D03*
X2624160Y1999360D03*
X3936240Y1811920D03*
X3700000Y1799920D03*
X3450000D03*
X3200000D03*
X2950000D03*
X3717560Y1718200D03*
X3550000Y1960000D03*
X1686960Y2046220D03*
X1530760Y2233660D03*
X2014980Y2296140D03*
X2077460Y2733500D03*
X1749440Y2952180D03*
X1827540Y3045900D03*
X1600000Y3200000D03*
X1660000Y3480000D03*
X1829000Y3545000D03*
X1700000Y3699440D03*
X1827540Y3748800D03*
X2139940Y3795660D03*
X3700000Y3797600D03*
X3450000D03*
X2171180Y1983740D03*
X3700000Y3699440D03*
X3450000D03*
X3200000D03*
X2218040Y3764420D03*
X2505480Y3008380D03*
X1700000Y1299920D03*
X1950000Y1548880D03*
X1700000Y1548960D03*
Y1799920D03*
%LPD*%
G75*
G54D10*
X109340Y1040660D03*
X1060000Y1040000D03*
X800000Y960000D03*
X860000D03*
X920000D03*
X980000D03*
X1490000Y1230000D03*
X1180000Y480000D03*
X1500000Y530000D03*
X1421420Y265540D03*
X1374560Y687640D03*
X1358940Y750120D03*
X360000Y1200000D03*
X199910Y1221510D03*
X1450000Y49920D03*
X1200000D03*
X950000D03*
X700000D03*
X450000D03*
X200000D03*
X1450000Y450080D03*
X1200000Y299920D03*
X950000D03*
X700000D03*
X450000D03*
X200000D03*
X1450000Y549920D03*
X1200000D03*
X950000D03*
X700000D03*
X450000D03*
X200000D03*
X1450000Y950080D03*
X1200000Y799920D03*
X950000D03*
X700000D03*
X450000D03*
X200000D03*
X1450000Y1049920D03*
X1200000D03*
X950000D03*
X700000D03*
X450000D03*
X200000D03*
X108740Y1875000D03*
X1374560Y1640100D03*
X1050000Y1933420D03*
X374280Y1875000D03*
X608580D03*
X1499520Y1471180D03*
X874120Y1875000D03*
X190820Y2776980D03*
X1360000Y1470000D03*
X940000Y1460000D03*
X633620Y1446380D03*
X1350000Y1970000D03*
X1300000Y2300000D03*
X940000Y1960000D03*
X661360Y3461360D03*
X971360D03*
X1390000Y3490000D03*
X321360Y3461360D03*
X370000Y2950000D03*
X640000Y2960000D03*
X900000Y2970000D03*
X1380000D03*
X1360000Y2720000D03*
X363780Y1946220D03*
X633780D03*
X373620Y1446380D03*
X1374560Y3549740D03*
X1437040Y3530120D03*
X1480750Y3049050D03*
X108660Y2125000D03*
X1109020Y2452340D03*
X859100Y2405480D03*
X1499520Y1968120D03*
X359260Y2249280D03*
X1124640Y2639780D03*
X550000Y2311400D03*
X1375000Y3437500D03*
X187500Y3500000D03*
X625000Y3750000D03*
X875000Y3687500D03*
X1240000Y3550000D03*
X827860Y3199920D03*
X546700D03*
X249920D03*
X1140260D03*
X1375000Y2475000D03*
X1380000Y2320000D03*
X850000Y2250000D03*
X1100000Y2290000D03*
X870000Y1700000D03*
X620000D03*
X346380Y1546380D03*
X1090000Y1730000D03*
X200000Y2010000D03*
X590000Y2220000D03*
X1060000Y2010000D03*
X880000Y2060000D03*
X1421420Y3041560D03*
X1300000Y3290000D03*
X1218360Y2795980D03*
X164360Y2522980D03*
X905960Y3033420D03*
X1218360D03*
X1201420Y3511360D03*
X904640D03*
X607860D03*
X359260D03*
Y3033420D03*
X640420Y3030280D03*
X1200000Y2050560D03*
X950000Y2199440D03*
X700000D03*
X450000D03*
X200000D03*
X654220Y3262760D03*
X1450000Y2050560D03*
X1200000Y2433980D03*
X950000Y2310000D03*
X700000Y2300560D03*
X450000D03*
X125560Y2375000D03*
X357440Y3262760D03*
X1370000Y2200000D03*
X875560Y2625000D03*
X625560D03*
X375560D03*
X125560D03*
X1200000Y2699520D03*
X1375400Y2625000D03*
X450000Y2949440D03*
X125560Y2875000D03*
X593560Y3295820D03*
X700000Y2949440D03*
X950000D03*
X1200000D03*
X1374560Y2795980D03*
X1380000Y3200000D03*
X1200000Y3199360D03*
X450000Y3183500D03*
X125560Y3125000D03*
X890340Y3295820D03*
X700000Y3214820D03*
X1360000Y3300000D03*
X875560Y3375000D03*
X625560D03*
X375560D03*
X125560D03*
X1200000Y3298560D03*
X1124640Y3295820D03*
X1450000Y3699440D03*
X1200000D03*
X950000D03*
X700000D03*
X450000D03*
X200000D03*
X1120000Y1320000D03*
X890340Y1496380D03*
X1233980D03*
X1171500Y1996220D03*
X874720D03*
X593560D03*
X312400D03*
X390500Y1496380D03*
X671660D03*
X624800Y1546380D03*
X187440Y1483900D03*
X374880Y2046220D03*
X656040D03*
X937200D03*
X1450000Y1299920D03*
X1200000D03*
X950000D03*
X700000D03*
X450000D03*
X200000D03*
X1120000Y1820000D03*
X1200000Y1700080D03*
X950000D03*
X1450000Y1549040D03*
X450000Y1700080D03*
X200000Y1549920D03*
X700000Y1700080D03*
X1450000Y1799920D03*
X1200000D03*
X950000D03*
X700000D03*
X450000D03*
X200000D03*
X921580Y1546380D03*
X1450000Y3949440D03*
X1200000D03*
X950000D03*
X700000D03*
X450000D03*
X200000D03*
X2249280Y984060D03*
X2124320Y1046540D03*
X1624480Y1249600D03*
X2420000Y1219460D03*
X2170000Y266720D03*
X2311760Y452980D03*
X2180400Y475000D03*
X1620000Y690000D03*
X3376550Y550000D03*
X3646550D03*
X3280000Y700000D03*
X3700000Y710000D03*
X3251200Y203200D03*
X3683000Y215900D03*
X3059700Y40300D03*
X2700000Y200000D03*
X2760000Y520000D03*
X3010000Y530000D03*
X3256780Y296780D03*
X3513220D03*
X3256620Y796620D03*
X3526620D03*
X2860000Y450000D03*
X2430000Y710000D03*
X1910000Y500000D03*
X1960000D03*
X2010000D03*
X1910000Y550000D03*
X1960000D03*
X2010000D03*
X1910000Y700000D03*
X1960000D03*
X2020000D03*
X2506780Y296780D03*
X2590000Y700000D03*
X2890000D03*
X3858140Y1233980D03*
X1970000Y782880D03*
X2880000Y1220000D03*
X2880320Y999680D03*
X2061840Y203060D03*
X2952180Y246780D03*
X2317660Y725000D03*
X2639780Y246780D03*
X2371980Y775000D03*
X2655400Y746620D03*
X2202420Y952820D03*
X2936560Y746620D03*
X2120000Y976980D03*
X3217720Y746620D03*
X2070000Y1023460D03*
X3498880Y746620D03*
X2020000Y979040D03*
X3483260Y246780D03*
X1970000Y247780D03*
X3217720Y246780D03*
X2020000Y282160D03*
X3950000Y49920D03*
X3700000D03*
X3450000D03*
X3200000D03*
X2950000D03*
X2450000D03*
X2200000D03*
X2702260Y31240D03*
X2233660Y265540D03*
X2450000Y299920D03*
X2700000D03*
X2950000D03*
X3950000D03*
X3700000D03*
X3405160Y499840D03*
X3124000Y500000D03*
X2624160Y452980D03*
X2311760Y515460D03*
X2950000Y549920D03*
X2700000D03*
X2450000D03*
X3250000Y540000D03*
X3700000Y549920D03*
X3950000D03*
X3444010Y454010D03*
X3030000Y799920D03*
X3700000D03*
X3950000D03*
X2327380Y968440D03*
X2700000Y799920D03*
X2450000D03*
X3450000Y810000D03*
X2171180Y1015300D03*
X3950000Y1049920D03*
X3700000D03*
X3450000D03*
X3200000D03*
X2950000D03*
X2700000D03*
X2450000D03*
X3060000Y730000D03*
X2717880Y468600D03*
X2983420D03*
X2858460Y78100D03*
X3373920Y93720D03*
X1624480Y1187120D03*
X3858020Y375000D03*
X1998480Y1264340D03*
X2124320Y62480D03*
X1905640Y1265220D03*
X3117420Y71520D03*
X2369880Y1015300D03*
X2374240Y109820D03*
X2370000Y1253840D03*
X2264900Y1249600D03*
X2046220Y46860D03*
X1700000Y200000D03*
Y299920D03*
X1874400Y265540D03*
X1624480Y546700D03*
X1968120Y952820D03*
X1700000Y950080D03*
X1950000Y1218360D03*
X1700000Y1049920D03*
X2108700Y2218040D03*
X3248960Y3018500D03*
X1624480Y1655720D03*
X3514500Y3002880D03*
X2655400Y3511360D03*
X2014980Y3748800D03*
X2936560Y3511360D03*
X2046220Y3795660D03*
X1873880Y1625000D03*
X2249280Y2296140D03*
X3217720Y3511360D03*
X2390000Y3550000D03*
X2717180Y3015360D03*
X2952180Y3018500D03*
X2374240Y3311440D03*
X3373920Y3373920D03*
X2171180Y3467640D03*
X2450000Y3264580D03*
X2700000Y3280200D03*
X3700000Y3449440D03*
X3950000D03*
X2983420Y3467640D03*
X3200000Y3297920D03*
X1608420Y1375000D03*
X2139940Y2296140D03*
X3733180Y3045900D03*
X3950000Y2449440D03*
X3700000Y2300560D03*
X3450000D03*
X3200000D03*
X2950000D03*
X2700000Y2449440D03*
X2450000D03*
X2200000D03*
X3950000Y2949440D03*
X3140000Y3760000D03*
X3700000Y2949440D03*
X3450000D03*
X3200000D03*
X2950000D03*
X2700000D03*
X2450000D03*
X2200000D03*
X2171180Y3233340D03*
X2450000Y3199440D03*
X2700000D03*
X2950000D03*
X3200000D03*
X3450000D03*
X3700000D03*
X3950000D03*
X3264580Y3467640D03*
X3128010Y2776980D03*
X2070000Y3210260D03*
X1820000Y2038140D03*
X2093080Y3045900D03*
X1870000Y2066240D03*
X2218040Y3030280D03*
X2470000Y1267260D03*
X3442980Y2522980D03*
X1999360Y2218040D03*
X2319040Y3225000D03*
X2624160Y1468280D03*
X2900000Y2800000D03*
X1970000Y3715680D03*
X2700000Y1500000D03*
X1861930Y1530760D03*
X3127500Y3410000D03*
X3622020Y3422020D03*
X3670000Y3010000D03*
X3350000Y2950000D03*
X2760000Y2980000D03*
X3000000D03*
X3700000Y2740000D03*
X3620000D03*
X3700000Y2800000D03*
X3620000D03*
X2660000D03*
X1830000Y3460000D03*
X1820000Y3300000D03*
X2171180Y3289760D03*
X2610000Y3300000D03*
X3873760Y1483760D03*
X2093080Y2983420D03*
X1952500Y2795980D03*
X3124000Y2967800D03*
X2200000Y2262480D03*
X3950000Y2199440D03*
X3700000Y2050560D03*
X3450000D03*
X3200000D03*
X2950000D03*
X2700000Y2199440D03*
X2450000D03*
X3800000Y3795660D03*
X3550000D03*
X3300000D03*
X3050000D03*
X2702260Y3545740D03*
X2499200Y3514500D03*
X2325030Y3282550D03*
X1874400Y2842840D03*
X1600000Y1770000D03*
X1624480Y3045900D03*
X1968120Y2717880D03*
X1733820Y3030280D03*
X2130000Y2470000D03*
X2190000Y1550000D03*
X2240000D03*
X2190000Y1500000D03*
X2240000D03*
X2350000Y1550000D03*
Y1500000D03*
X2874080Y3639460D03*
X3108380Y3248960D03*
X2624160Y3186480D03*
X3373920Y3639460D03*
X3124000Y3623840D03*
X2624160Y3639460D03*
X2874080Y3170860D03*
X3373920D03*
X2330000Y3450000D03*
X2090000Y3300000D03*
X2060000Y3450000D03*
Y3500000D03*
X1910000Y3300000D03*
X2010000Y3450000D03*
X1960000D03*
X1910000D03*
X2010000Y3500000D03*
X1960000D03*
X1910000D03*
X1660000Y2500000D03*
X1600000D03*
X1720000D03*
X1600000Y2450000D03*
X1660000D03*
X1720000D03*
X1600000Y2300000D03*
X1720000D03*
X1640000Y1510000D03*
X3950000Y2699440D03*
X3624680Y2625000D03*
X3374760D03*
X3124840D03*
X2700000Y2699440D03*
X2450000D03*
X2200000D03*
X2858460Y2530440D03*
X2717880Y3452020D03*
X2108700Y1280840D03*
X2514820Y1296460D03*
X2700000Y1299920D03*
X2950000D03*
X3200000D03*
X3450000D03*
X3700000D03*
X3950000D03*
X2800000Y1540000D03*
X2950000Y1549920D03*
X3200000D03*
X3450000D03*
X3700000D03*
X3950000D03*
X2124840Y1625000D03*
X2639780Y1530760D03*
X2264900Y1968120D03*
X2624160Y1999360D03*
X3936240Y1811920D03*
X3700000Y1799920D03*
X3450000D03*
X3200000D03*
X2950000D03*
X1655720Y2780360D03*
X1770000Y2010000D03*
X3717560Y1718200D03*
X3550000Y1960000D03*
X2014980Y2483580D03*
Y2546060D03*
X1888820Y2717880D03*
X1843160Y2764740D03*
X1765060Y2749120D03*
X1720000Y2778560D03*
X1686960Y2046220D03*
X2009990Y1960010D03*
X1950000Y2048720D03*
X1530760Y2233660D03*
X2014980Y2296140D03*
X2077460Y2733500D03*
X2014980Y2795980D03*
X1749440Y2952180D03*
X1827540Y3045900D03*
X1600000Y3200000D03*
X1660000Y3480000D03*
X1843160Y3233340D03*
X1829000Y3545000D03*
X1700000Y3699440D03*
X1827540Y3748800D03*
X2264900Y1796300D03*
X2139940Y3795660D03*
X2405480Y3780040D03*
X3700000Y3797600D03*
X3450000D03*
X3200000D03*
X2655400Y3795660D03*
X2905320D03*
X2049370Y2043070D03*
X2171180Y1983740D03*
X2617660Y1725000D03*
X2671980Y1775000D03*
X2470000Y2028560D03*
X2420000Y1976980D03*
X2370000Y2010740D03*
X2320000Y1976980D03*
Y1282160D03*
X3950000Y3699440D03*
X3700000D03*
X3450000D03*
X3200000D03*
X2905320Y3733180D03*
X2700000Y3762160D03*
X2467960Y3764420D03*
X2218040D03*
X2505480Y3008380D03*
X1950000Y1299920D03*
X1700000D03*
X1950000Y1548880D03*
X1700000Y1548960D03*
Y1799920D03*
X1952500Y3967480D03*
X1874400D03*
X1796300D03*
X2276800Y3950400D03*
X1700000Y3949440D03*
X3950000D03*
G54D11*
G01X3117420Y71520D02*
X3038940Y150000D01*
X1340000D01*
X1270000Y220000D01*
Y661180D01*
X1358940Y750120D01*
G01X2264900Y1796300D02*
X2188600Y1720000D01*
X1360000D01*
X1300000Y1660000D01*
Y1240000D01*
X1200000Y1140000D01*
X281420D01*
X199910Y1221510D01*
G01X2009990Y1960010D02*
Y1999070D01*
X2010000Y1999080D01*
Y2090000D01*
X1970000Y2130000D01*
X1080000D01*
X1020000Y2190000D01*
Y2440000D01*
X960000Y2500000D01*
X860000D01*
X820000Y2540000D01*
Y2950000D01*
X739720Y3030280D01*
X640420D01*
G54D12*
G01X3999990Y3999990D02*
X0D01*
Y0D01*
X3999990D01*
Y3999990D01*
G01X0Y-140000D02*
X-240000D01*
G01X-120000Y-260000D02*
Y-20000D01*
G01X-50000Y-140000D02*
G03I-70000J0D01*
G01X-20000Y-130000D02*
G03I-100000J-10000D01*
G01X-170000Y4130000D02*
G03I-100000J-10000D01*
G01X-200000Y4120000D02*
G03I-70000J0D01*
G01X-270000Y4000000D02*
Y4240000D01*
G01X-150000Y4120000D02*
X-390000D01*
G01X4230000Y-130000D02*
X3990000D01*
G01X4210000Y-120000D02*
G03I-100000J-10000D01*
G01X4110000Y-250000D02*
Y-10000D01*
G01X4180000Y-130000D02*
G03I-70000J0D01*
G01X4290000Y4130000D02*
X4050000D01*
G01X4170000Y4010000D02*
Y4250000D01*
G01X4240000Y4130000D02*
G03I-70000J0D01*
G01X4270000Y4140000D02*
G03I-100000J-10000D01*
M02*
