G04 ================== begin FILE IDENTIFICATION RECORD ==================*
G04 Layout Name:  J:/LED_Panels/LED 8x8 Panel v5.brd*
G04 Film Name:    LAYER_2*
G04 File Format:  Gerber RS274X*
G04 File Origin:  Cadence Allegro 16.6-P004*
G04 Origin Date:  Sun Mar 26 00:02:32 2017*
G04 *
G04 Layer:  VIA CLASS/LAYER_2*
G04 Layer:  PIN/LAYER_2*
G04 Layer:  ETCH/LAYER_2*
G04 Layer:  BOARD GEOMETRY/OUTLINE*
G04 *
G04 Offset:    (0.0000 0.0000)*
G04 Mirror:    No*
G04 Mode:      Positive*
G04 Rotation:  0*
G04 FullContactRelief:  No*
G04 UndefLineWidth:     0.1000*
G04 ================== end FILE IDENTIFICATION RECORD ====================*
%FSLAX25Y25*MOMM*%
%IR0*IPPOS*OFA0.00000B0.00000*MIA0B0*SFA1.00000B1.00000*%
%ADD10C,.4*%
%ADD11C,.2*%
%ADD12C,.127*%
%ADD13C,.1*%
%ADD14C,.6544*%
G75*
%LPD*%
G75*
G36*
G01X1373900Y1012210D02*
X1282060Y920370D01*
X708440D01*
X616600Y1012210D01*
G02X623790Y1029550I7186J7181D01*
G01X674390D01*
G03X725610I25610J20370D01*
G01X924390D01*
G03X951530Y1017240I25603J20374D01*
G01X953770Y1017340D01*
X990330Y980780D01*
X1159680D01*
X1182840Y1003940D01*
Y1003950D01*
X1196230Y1017340D01*
X1198470Y1017240D01*
G03X1225610Y1029550I1537J32684D01*
G01X1366710D01*
G02X1373900Y1012210I4J-10159D01*
G37*
G36*
G01X1741000Y1238730D02*
X1679630Y1177360D01*
Y1075530D01*
G03X1674390Y1070290I20370J-25610D01*
G01X1475610D01*
G03X1424390I-25610J-20370D01*
G01X1225610D01*
G03X1167320Y1048390I-25606J-20369D01*
G01X1167420Y1046150D01*
X1142790Y1021520D01*
X1007210D01*
X982580Y1046150D01*
X982680Y1048390D01*
G03X924390Y1070290I-32684J1531D01*
G01X725610D01*
G03X674390I-25610J-20370D01*
G01X475610D01*
G03X424390I-25610J-20370D01*
G01X225610D01*
G03X170940Y1034880I-25613J-20363D01*
G02X161920Y1020050I-9022J-4671D01*
G01X150930D01*
G02X141070Y1032690I-6J10161D01*
G03X96880Y1070910I-31732J7968D01*
G02X82850Y1080310I-3869J9396D01*
G01Y1143810D01*
G02X100190Y1151000I10159J4D01*
G01X121560Y1129630D01*
X1533320D01*
X1578900Y1175210D01*
G02X1595180Y1172550I7184J-7182D01*
G03X1646890Y1210960I29297J14571D01*
G02Y1225760I6962J7400D01*
G03X1653510Y1264700I-22409J23842D01*
G02X1662520Y1279550I9011J4691D01*
G01X1674390D01*
G03X1732680Y1301450I25606J20369D01*
G01X1732580Y1303690D01*
X1736060Y1307170D01*
X1876860D01*
G02X1883680Y1289480I2J-10159D01*
G03X1875390Y1252760I21962J-24254D01*
G02X1865990Y1238730I-9396J-3869D01*
G01X1741000D01*
G37*
G36*
G01X459630Y1478440D02*
X423570Y1442370D01*
G02X406250Y1448800I-7186J7184D01*
G03X403120Y1460530I-32629J-2424D01*
G02X405390Y1467250I4584J2195D01*
G03X410870Y1521990I-14890J29135D01*
G01Y1577940D01*
X359580Y1629230D01*
X85280D01*
X42110Y1586060D01*
Y1038100D01*
X52620Y1027590D01*
Y1017160D01*
X85840Y983940D01*
X96270D01*
X100900Y979310D01*
X591880D01*
X691560Y879630D01*
X1298940D01*
X1398940Y979630D01*
X1411760D01*
G02X1420820Y964880I-4J-10160D01*
G03X1429630Y924470I29180J-14804D01*
G01Y849260D01*
X1400660Y820290D01*
X1225610D01*
G03X1174390I-25610J-20370D01*
G01X975610D01*
G03X924390I-25610J-20370D01*
G01X725610D01*
G03X674390I-25610J-20370D01*
G01X475610D01*
G03X424390I-25610J-20370D01*
G01X225610D01*
G03Y779550I-25610J-20370D01*
G01X424390D01*
G03X475610I25610J20370D01*
G01X674390D01*
G03X725610I25610J20370D01*
G01X924390D01*
G03X975610I25610J20370D01*
G01X1174390D01*
G03X1225610I25610J20370D01*
G01X1320640D01*
G02X1329710Y764820I-5J-10160D01*
G03X1343940Y721040I29231J-14702D01*
G02X1347640Y706240I-4660J-9027D01*
G03X1389560Y716720I26920J-18600D01*
G02X1385860Y731520I4660J9027D01*
G03X1388170Y764820I-26920J18598D01*
G02X1397240Y779550I9075J4570D01*
G01X1417540D01*
X1470370Y832380D01*
Y924470D01*
G03X1475610Y929710I-20370J25610D01*
G01X1674390D01*
G03X1707230Y918170I25606J20371D01*
G02X1719630Y908260I2240J-9910D01*
G01Y426780D01*
G02X1702290Y419600I-10159J6D01*
G01X1651440Y470450D01*
X1475610D01*
G03X1424390I-25610J-20370D01*
G01X1238260D01*
X1179630Y411820D01*
Y325530D01*
G03X1174390Y320290I20370J-25610D01*
G01X975610D01*
G03X924390I-25610J-20370D01*
G01X725610D01*
G03X674390I-25610J-20370D01*
G01X475610D01*
G03X424390I-25610J-20370D01*
G01X225610D01*
G03Y279550I-25610J-20370D01*
G01X424390D01*
G03X475610I25610J20370D01*
G01X674390D01*
G03X725610I25610J20370D01*
G01X924390D01*
G03X975610I25610J20370D01*
G01X1174390D01*
G03X1220370Y325530I25610J20370D01*
G01Y394940D01*
X1255140Y429710D01*
X1424390D01*
G03X1475610I25610J20370D01*
G01X1634560D01*
X1679630Y384640D01*
Y325530D01*
G03X1701520Y267240I20369J-25606D01*
G01X1703770Y267340D01*
X1725940Y245170D01*
X1848790D01*
G03X1901790Y283440I25616J20359D01*
G02X1910290Y299160I8503J5560D01*
G01X1977670D01*
G02X1987700Y287380I0J-10160D01*
G03X1987420Y285180I32299J-5229D01*
G01X1987240Y283310D01*
X1982080Y278330D01*
X1979250Y279160D01*
G03X2002180Y241840I-9247J-31386D01*
G02X2014020Y249990I9990J-1838D01*
G03X2047190Y263960I5978J32169D01*
G02X2062810Y265490I8439J-5657D01*
G01X2081950Y246350D01*
X2144390D01*
G03X2193880Y244350I25609J20369D01*
G02X2208970Y244070I7419J-6941D01*
G03X2266340Y267060I24687J21472D01*
G01X2266240Y269310D01*
X2276480Y279550D01*
X2424390D01*
G03X2477250Y281810I25607J20369D01*
G03X2488300Y299920I-9315J18110D01*
G01Y304440D01*
X2499120Y315260D01*
X2655850D01*
X2667420Y303690D01*
X2667320Y301440D01*
G03X2725610Y279550I32684J-1521D01*
G01X2924390D01*
G03X2927020Y276630I25584J20398D01*
G01X2927720Y275940D01*
X2929330Y272250D01*
X2928010Y268860D01*
X2927430Y268190D01*
G03X2974470Y270730I24745J-21410D01*
G01X2970790Y274160D01*
X2975710Y279550D01*
X3128370D01*
X3178450Y329630D01*
X3641480D01*
X3667420Y303690D01*
X3667320Y301440D01*
G03X3725610Y279550I32684J-1521D01*
G01X3924390D01*
G03X3947820Y267270I25609J20369D01*
G02X3954320Y249950I-681J-10135D01*
G01X3882640Y178270D01*
X3715920D01*
G02X3708120Y194940I3J10161D01*
G03X3657880I-25120J20960D01*
G02X3650080Y178270I-7803J-6509D01*
G01X3291450D01*
G02X3281920Y191930I7J10159D01*
G03X3258350Y235130I-30719J11270D01*
G02X3250410Y245460I2212J9917D01*
G03X3210570Y214850I-32693J1319D01*
G02X3218510Y204520I-2212J-9917D01*
G03X3220480Y191930I32692J-1334D01*
G02X3210950Y178270I-9537J-3501D01*
G01X2741290D01*
G02X2731510Y191170I1J10158D01*
G03X2668490I-31510J8830D01*
G02X2658710Y178270I-9781J-2742D01*
G01X2115440D01*
X2094420Y199290D01*
X2094520Y201540D01*
G03X2063360Y170380I-32680J1520D01*
G01X2065610Y170480D01*
X2098560Y137530D01*
X2335120D01*
G02X2344390Y123210I-1J-10161D01*
G03X2350400Y87410I29852J-13393D01*
G02X2343000Y70290I-7401J-6960D01*
G01X2225610D01*
G03X2176440Y27210I-25610J-20370D01*
G02X2169130Y10000I-7313J-7051D01*
G01X2079770D01*
G02X2071820Y26490I0J10161D01*
G03X2022030Y68890I-25601J20371D01*
G01X2020520Y67230D01*
X2015600D01*
X2012540Y70290D01*
X1720370D01*
Y174390D01*
G03X1679630I-20370J25610D01*
G01Y70290D01*
X1475610D01*
G03X1424390I-25610J-20370D01*
G01X1225610D01*
G03X1174390I-25610J-20370D01*
G01X975610D01*
G03X924390I-25610J-20370D01*
G01X725610D01*
G03X674390I-25610J-20370D01*
G01X475610D01*
G03X424390I-25610J-20370D01*
G01X225610D01*
G03X176440Y27210I-25610J-20370D01*
G02X169130Y10000I-7313J-7051D01*
G01X10000D01*
Y2336110D01*
G02X27340Y2343290I10159J-6D01*
G01X167420Y2203210D01*
X167320Y2200960D01*
G03X225610Y2179070I32684J-1521D01*
G01X424390D01*
G03X451520Y2166760I25602J20374D01*
G01X453770Y2166860D01*
X457920Y2162710D01*
G02X450740Y2145370I-7186J-7181D01*
G01X134270D01*
G03X91100Y2097390I-25606J-20372D01*
G02X92830Y2081640I-5456J-8569D01*
G01X39630Y2028440D01*
Y1701560D01*
X101560Y1639630D01*
X411560D01*
X459630Y1591560D01*
Y1478440D01*
G37*
G36*
G01X138440Y1170370D02*
X120370Y1188440D01*
Y1361560D01*
X144240Y1385430D01*
X424240D01*
X500370Y1461560D01*
Y1608440D01*
X456540Y1652270D01*
G02X460470Y1669080I7182J7185D01*
G03X482680Y1701610I-10473J30997D01*
G01X482580Y1703850D01*
X498360Y1719630D01*
X658160D01*
G02X668070Y1707250I-2J-10158D01*
G03X731930I31930J-7170D01*
G02X741840Y1719630I9912J2222D01*
G01X901640D01*
X917420Y1703850D01*
X917320Y1701610D01*
G03X948470Y1732760I32680J-1530D01*
G01X946230Y1732660D01*
X918520Y1760370D01*
X731220D01*
G02X723830Y1777490I6J10158D01*
G03X725610Y1779550I-23850J22407D01*
G01X924390D01*
G03X951530Y1767240I25603J20374D01*
G01X953770Y1767340D01*
X969180Y1751930D01*
X1180820D01*
X1196230Y1767340D01*
X1198470Y1767240D01*
G03X1225610Y1779550I1537J32684D01*
G01X1424390D01*
G03X1426170Y1777490I25629J20346D01*
G02X1418780Y1760370I-7396J-6962D01*
G01X1231480D01*
X1203770Y1732660D01*
X1201530Y1732760D01*
G03X1232680Y1701610I-1530J-32680D01*
G01X1232580Y1703850D01*
X1248360Y1719630D01*
X1451560D01*
X1529630Y1641560D01*
Y1569410D01*
X1475610D01*
G03Y1528670I-25610J-20370D01*
G01X1652420D01*
X1652500Y1528590D01*
X1674390D01*
G03X1732680Y1550490I25606J20369D01*
G01X1732580Y1552730D01*
X1739480Y1559630D01*
X1823350D01*
G02X1832490Y1545040I-3J-10160D01*
G03X1891370I29440J-14280D01*
G02X1900510Y1559630I9143J4430D01*
G01X1910440D01*
X1917420Y1552650D01*
X1917320Y1550410D01*
G03X1948470Y1581560I32680J-1530D01*
G01X1946230Y1581460D01*
X1927320Y1600370D01*
X1914240D01*
G02X1904680Y1613960I4J10160D01*
G03X1843080I-30800J11040D01*
G02X1833520Y1600370I-9564J-3430D01*
G01X1722600D01*
X1703770Y1581540D01*
X1701530Y1581640D01*
G03X1675810Y1570990I-1532J-32682D01*
G01X1674300Y1569330D01*
X1669380D01*
X1669300Y1569410D01*
X1570370D01*
Y1658440D01*
X1536520Y1692290D01*
G02X1543710Y1709630I7186J7181D01*
G01X1638520D01*
X1696230Y1767340D01*
X1698470Y1767240D01*
G03X1667320Y1798390I1530J32680D01*
G01X1667420Y1796150D01*
X1647810Y1776540D01*
G02X1631000Y1780470I-7185J7182D01*
G03X1598470Y1802680I-30997J-10473D01*
G01X1596230Y1802580D01*
X1541950Y1856860D01*
G02X1549140Y1874200I7186J7181D01*
G01X1883010D01*
X1962210Y1953400D01*
G02X1979010Y1949480I7181J-7186D01*
G03X1993860Y1931540I30981J10528D01*
G02X1996040Y1915520I-5006J-8840D01*
G01X1994610Y1914090D01*
Y1513420D01*
X1933890Y1452700D01*
X1541580D01*
G02X1531620Y1464830I6J10159D01*
G03X1467420I-32100J6350D01*
G02X1457460Y1452700I-9966J-1971D01*
G01X1402280D01*
G02X1392260Y1464550I-1J10161D01*
G03X1355560Y1502420I-32262J5452D01*
G02X1344020Y1512480I-1381J10064D01*
G01Y1580750D01*
X1370790Y1607520D01*
X1373030Y1607420D01*
G03X1341880Y1638570I1530J32680D01*
G01X1341980Y1636330D01*
X1303280Y1597630D01*
Y1446500D01*
X1337820Y1411960D01*
X1574950D01*
G02X1582880Y1395450I-2J-10160D01*
G03X1576980Y1384050I25543J-20446D01*
G01X1575920Y1380370D01*
X1168450D01*
X1145750Y1403070D01*
X715740D01*
X692030Y1426780D01*
Y1470770D01*
G03X668140Y1528910I-20368J25609D01*
G02X657030Y1540760I-1101J10101D01*
G03X628320Y1513850I-32233J5619D01*
G02X639430Y1502000I1101J-10101D01*
G03X639420Y1490790I32230J-5634D01*
G02X630410Y1478940I-10010J-1739D01*
G03X644520Y1415530I3206J-32562D01*
G01X645340Y1415820D01*
X651290D01*
Y1409900D01*
X698860Y1362330D01*
X1091650D01*
G02X1098370Y1344550I0J-10160D01*
G03X1088090Y1312770I21631J-24550D01*
G02X1078180Y1300370I-9910J-2240D01*
G01X1017420D01*
X997500Y1320290D01*
X975610D01*
G03X924390I-25610J-20370D01*
G01X725610D01*
G03X674390I-25610J-20370D01*
G01X475610D01*
G03X424390I-25610J-20370D01*
G01X225610D01*
G03Y1279550I-25610J-20370D01*
G01X424390D01*
G03X475610I25610J20370D01*
G01X674390D01*
G03X725610I25610J20370D01*
G01X924390D01*
G03X974190Y1277890I25607J20370D01*
G01X975700Y1279550D01*
X980620D01*
X1000540Y1259630D01*
X1149460D01*
X1169380Y1279550D01*
X1174300D01*
X1175810Y1277890D01*
G03X1225610Y1279550I24193J22030D01*
G01X1424390D01*
G03X1475610I25610J20370D01*
G01X1586440D01*
G02X1595450Y1264700I-1J-10159D01*
G03X1591800Y1248070I29033J-15088D01*
G01X1591900Y1245830D01*
X1516440Y1170370D01*
X398200D01*
G02X389150Y1185140I4J10160D01*
G03X330850I-29150J14860D01*
G02X321800Y1170370I-9054J-4610D01*
G01X138440D01*
G37*
G36*
G01X1480870Y10000D02*
G02X1473560Y27210I3J10159D01*
G03X1475610Y29550I-23560J22708D01*
G01X1995660D01*
X1998720Y26490D01*
X2020610D01*
G03X2025780Y21300I25624J20355D01*
G01X2028450Y19170D01*
X2025750Y10000D01*
X1480870D01*
G37*
G36*
G01X149060Y3181720D02*
X111060D01*
G02X103870Y3199060I-4J10159D01*
G01X147200Y3242390D01*
X331830D01*
G03X339240Y3235570I25600J20379D01*
G02X340770Y3219950I-5657J-8439D01*
G01X302260Y3181440D01*
X149340D01*
X149060Y3181720D01*
G37*
G36*
G01X100190Y1399000D02*
G02X82850Y1406190I-7181J7186D01*
G01Y1569180D01*
X102160Y1588490D01*
X167880D01*
G02X175490Y1571600I1J-10159D01*
G03X175240Y1528530I24509J-21678D01*
G02X172260Y1512890I-7689J-6639D01*
G03X212200Y1505290I15177J-28989D01*
G02X215180Y1520930I7689J6639D01*
G03X224510Y1571600I-15178J28989D01*
G02X232120Y1588490I7609J6731D01*
G01X342700D01*
X370130Y1561060D01*
Y1521990D01*
G03X361000Y1482230I20371J-25606D01*
G02X358730Y1475510I-4584J-2195D01*
G03X341810Y1438710I14888J-29135D01*
G02X331930Y1426170I-9876J-2381D01*
G01X127360D01*
X100190Y1399000D01*
G37*
G36*
G01X118440Y1680370D02*
X80370Y1718440D01*
Y1836180D01*
G02X94840Y1845380I10160J0D01*
G03Y1904620I13900J29620D01*
G02X80370Y1913820I-4310J9200D01*
G01Y2011560D01*
X131010Y2062200D01*
X332400D01*
G02X342460Y2050660I-4J-10159D01*
G03X407300I32420J-4440D01*
G02X417360Y2062200I10064J1381D01*
G01X488990D01*
X509630Y2041560D01*
Y1945140D01*
X576000Y1878770D01*
X575900Y1876530D01*
G03X632790Y1897010I32683J-1531D01*
G02X638760Y1913880I7521J6830D01*
G03X635350Y1978900I-4982J32338D01*
G02X625820Y1990750I487J10149D01*
G03X591990Y1963540I-32259J5472D01*
G02X601520Y1951690I-487J-10149D01*
G03X621720Y1915800I32260J-5472D01*
G02X618330Y1906230I-1873J-4722D01*
G03X607050Y1907680I-9748J-31232D01*
G01X604810Y1907580D01*
X550370Y1962020D01*
Y2058440D01*
X521520Y2087290D01*
G02X528710Y2104630I7186J7181D01*
G01X686560D01*
X719630Y2071560D01*
Y1877710D01*
X759710Y1837630D01*
G02X752520Y1820290I-7186J-7181D01*
G01X725610D01*
G03X674390I-25610J-20370D01*
G01X475610D01*
G03X424390I-25610J-20370D01*
G01X225610D01*
G03Y1779550I-25610J-20370D01*
G01X424390D01*
G03X475610I25610J20370D01*
G01X674390D01*
G03X676170Y1777490I25630J20347D01*
G02X668780Y1760370I-7396J-6962D01*
G01X481480D01*
X453770Y1732660D01*
X451530Y1732760D01*
G03X418100Y1692790I-1532J-32683D01*
G02X408200Y1680370I-9904J-2261D01*
G01X118440D01*
G37*
G36*
G01X993860Y1914940D02*
X967270Y1941530D01*
X969000Y1944840D01*
G03X922910Y1987900I-28997J15159D01*
G02X907440Y1996480I-5310J8662D01*
G03X891810Y1968320I-32719J-257D01*
G02X907280Y1959740I5310J-8662D01*
G03X908090Y1952770I32719J270D01*
G02X898180Y1940370I-9910J-2240D01*
G01X828440D01*
X800370Y1968440D01*
Y2179070D01*
X924390D01*
G03X975610I25610J20370D01*
G01X1042680D01*
X1167420Y2054330D01*
X1167320Y2052090D01*
G03X1168880Y2040440I32683J-1553D01*
G02X1162130Y2027570I-9661J-3138D01*
G03X1202620Y2006340I9373J-31350D01*
G02X1209370Y2019210I9661J3138D01*
G03X1198470Y2083240I-9375J31347D01*
G01X1196230Y2083140D01*
X1059560Y2219810D01*
X975610D01*
G03X924390I-25610J-20370D01*
G01X725610D01*
G03X667320Y2197910I-25606J-20369D01*
G01X667420Y2195670D01*
X652120Y2180370D01*
X497880D01*
X482580Y2195670D01*
X482680Y2197910D01*
G03X424390Y2219810I-32684J1531D01*
G01X397550D01*
G02X388470Y2234540I-5J10160D01*
G03X330050I-29210J14740D01*
G02X320970Y2219810I-9075J-4570D01*
G01X225610D01*
G03X198470Y2232120I-25603J-20374D01*
G01X196230Y2232020D01*
X50370Y2377880D01*
Y2396850D01*
G02X67710Y2404040I10159J4D01*
G01X92980Y2378770D01*
X92880Y2376530D01*
G03X151170Y2354630I32684J-1531D01*
G01X367120D01*
X417420Y2304330D01*
X417320Y2302090D01*
G03X451530Y2267880I32680J-1530D01*
G01X453770Y2267980D01*
X469570Y2252180D01*
X680430D01*
X696230Y2267980D01*
X698470Y2267880D01*
G03X725610Y2280190I1537J32684D01*
G01X909940D01*
X919380Y2289630D01*
X924300D01*
X925810Y2287970D01*
G03X981860Y2302530I24193J22030D01*
G01X982190Y2303940D01*
X1017880Y2339630D01*
X1134460D01*
X1196230Y2401400D01*
X1198470Y2401300D01*
G03X1225610Y2413610I1537J32684D01*
G01X1437580D01*
X1510390Y2340800D01*
Y2259270D01*
G03X1498080Y2232130I20374J-25603D01*
G01X1498180Y2229890D01*
X1488660Y2220370D01*
X1395610D01*
G03Y2179630I-25610J-20370D01*
G01X1505540D01*
X1526990Y2201080D01*
X1529230Y2200980D01*
G03X1556370Y2213290I1537J32684D01*
G01X1966750D01*
X1967770Y2209530D01*
G03X1977540Y2193660I31593J8507D01*
G02X1970760Y2175930I-6777J-7570D01*
G01X1787860D01*
X1749630Y2137700D01*
Y2035610D01*
G03X1801000Y1999540I20368J-25608D01*
G02X1812850Y2006210I9628J-3245D01*
G03X1850990Y2027650I7148J31929D01*
G02X1862840Y2034310I9625J-3253D01*
G03X1901430Y2075340I7160J31928D01*
G02X1911190Y2088330I9757J2831D01*
G01X1918830D01*
G02X1926220Y2071190I5J-10161D01*
G03X1929630Y2023110I23780J-22474D01*
G01Y1978440D01*
X1866130Y1914940D01*
X1470370D01*
Y1929670D01*
G02X1485030Y1938780I10159J3D01*
G03Y1997460I14490J29340D01*
G02X1470370Y2006570I-4501J9107D01*
G01Y2024950D01*
G03X1429630I-20370J25610D01*
G01Y1914940D01*
X1092060D01*
G02X1082100Y1927070I6J10159D01*
G03X1017900I-32100J6350D01*
G02X1007940Y1914940I-9966J-1971D01*
G01X993860D01*
G37*
G36*
G01X1556370Y2254030D02*
G03X1551130Y2259270I-25610J-20370D01*
G01Y2357680D01*
X1454460Y2454350D01*
X1225610D01*
G03X1167320Y2432450I-25606J-20369D01*
G01X1167420Y2430210D01*
X1117580Y2380370D01*
X1090390D01*
G02X1083200Y2397710I-4J10159D01*
G01X1105250Y2419760D01*
X1107490Y2419660D01*
G03X1076340Y2450810I1530J32680D01*
G01X1076440Y2448570D01*
X1053720Y2425850D01*
X884710D01*
G03Y2385110I-25610J-20370D01*
G01X981210D01*
G02X988400Y2367770I4J-10159D01*
G01X961430Y2340800D01*
X958590Y2341570D01*
G03X924390Y2330370I-8595J-31571D01*
G01X902500D01*
X893060Y2320930D01*
X725610D01*
G03X667320Y2299030I-25606J-20369D01*
G01X667420Y2296790D01*
X663550Y2292920D01*
X592060D01*
G02X582100Y2305050I6J10159D01*
G03X517900I-32100J6350D01*
G02X507940Y2292920I-9966J-1971D01*
G01X486450D01*
X482580Y2296790D01*
X482680Y2299030D01*
G03X448470Y2333240I-32680J1530D01*
G01X446230Y2333140D01*
X384000Y2395370D01*
X151170D01*
G03X124030Y2407680I-25603J-20374D01*
G01X121790Y2407580D01*
X80370Y2449000D01*
Y2879120D01*
G02X89040Y2882710I5079J-2D01*
G01X92980Y2878770D01*
X92880Y2876530D01*
G03X151170Y2854630I32684J-1531D01*
G01X384000D01*
X446230Y2916860D01*
X448470Y2916760D01*
G03X451530I1530J32680D01*
G01X453770Y2916860D01*
X536960Y2833670D01*
X1185490D01*
G02X1193270Y2816990I-8J-10158D01*
G03X1219890Y2763300I25087J-21006D01*
G01X1222130Y2763400D01*
X1288020Y2697510D01*
X1336230D01*
G03X1386990Y2701500I23769J22489D01*
G01X1445480Y2759990D01*
X1630110D01*
G03X1679640Y2758030I25610J20368D01*
G02X1694870Y2757610I7430J-6929D01*
G03X1726940Y2746580I25136J20947D01*
G02X1732990Y2742630I1074J-4964D01*
G03X1758120Y2781100I32071J6493D01*
G02X1752070Y2785050I-1074J4964D01*
G03X1696080Y2800890I-32071J-6488D01*
G02X1680850Y2801310I-7430J6929D01*
G03X1630110Y2800730I-25134J-20950D01*
G01X1428600D01*
X1423990Y2796120D01*
G02X1406800Y2801570I-7181J7186D01*
G03X1396590Y2820170I-32238J-5594D01*
G01X1394930Y2821680D01*
Y2833670D01*
X1659740D01*
X1745670Y2919600D01*
X1747910Y2919500D01*
G03X1775050Y2931810I1537J32684D01*
G01X1850340D01*
X1940590Y2841560D01*
G02X1937930Y2825280I-7182J-7184D01*
G03X1976340Y2773570I14571J-29297D01*
G02X1991140I7400J-6962D01*
G03X2004470Y2764990I23847J22405D01*
G02X2008390Y2748190I-3264J-9619D01*
G01X2003340Y2743140D01*
G02X1989510Y2742640I-7184J7183D01*
G03X1938200Y2704640I-21389J-24761D01*
G02X1928910Y2690370I-9292J-4110D01*
G01X1928030D01*
G02X1918740Y2704640I2J10160D01*
G03X1886550Y2750520I-29921J13240D01*
G02X1875730Y2761620I-705J10136D01*
G03X1845430Y2732100I-32570J3120D01*
G02X1856250Y2721000I705J-10136D01*
G03X1858900Y2704640I32570J-3119D01*
G02X1849610Y2690370I-9292J-4110D01*
G01X1411960D01*
X1379170Y2657580D01*
X1376930Y2657680D01*
G03X1349790Y2645370I-1537J-32684D01*
G01X1282960D01*
X1232580Y2695750D01*
X1232680Y2697990D01*
G03X1174390Y2719890I-32684J1531D01*
G01X941640D01*
X879330Y2657580D01*
X877090Y2657680D01*
G03X849950Y2645370I-1537J-32684D01*
G01X651170D01*
G03X599950I-25610J-20370D01*
G01X401170D01*
G03X349950I-25610J-20370D01*
G01X151170D01*
G03Y2604630I-25610J-20370D01*
G01X349950D01*
G03X401170I25610J20370D01*
G01X599950D01*
G03X651170I25610J20370D01*
G01X849950D01*
G03X908240Y2626530I25606J20369D01*
G01X908140Y2628770D01*
X958520Y2679150D01*
X1093250D01*
G02X1100690Y2662070I0J-10160D01*
G03X1100710Y2617460I23950J-22294D01*
G02X1093290Y2600370I-7426J-6931D01*
G01X1087660D01*
X991240Y2503950D01*
X617620D01*
X578220Y2543350D01*
X189970D01*
G03Y2502610I-25610J-20370D01*
G01X561340D01*
X600740Y2463210D01*
X1008120D01*
X1104540Y2559630D01*
X1408440D01*
X1468440Y2619630D01*
X1891560D01*
X1896930Y2614260D01*
Y2439590D01*
X1946890Y2389630D01*
X2032690D01*
X2033460Y2388860D01*
Y2338200D01*
G02X2021330Y2328240I-10159J6D01*
G03X1982300Y2294610I-6347J-32098D01*
G01X1982400Y2292370D01*
X1944060Y2254030D01*
X1556370D01*
G37*
G36*
G01X1175060Y3008660D02*
X1146010Y3037720D01*
Y3116560D01*
X1196230Y3166780D01*
X1198470Y3166680D01*
G03X1225610Y3178990I1537J32684D01*
G01X1247500D01*
X1248140Y3179630D01*
X1354390D01*
G03X1405610I25610J20370D01*
G01X1574390D01*
G03Y3220370I25610J20370D01*
G01X1405610D01*
G03X1354390I-25610J-20370D01*
G01X1231260D01*
X1230620Y3219730D01*
X1225700D01*
X1224190Y3221390D01*
G03X1167320Y3197830I-24188J-22032D01*
G01X1167420Y3195590D01*
X1117200Y3145370D01*
X910710D01*
Y3270210D01*
G03X869970I-20370J25610D01*
G01Y3145370D01*
X724020D01*
Y3192600D01*
G03X697550Y3247450I-24019J22221D01*
G02X686700Y3258810I-765J10130D01*
G03X674590Y3288370I-32481J3954D01*
G01Y3310260D01*
X648020Y3336830D01*
G02X648180Y3351360I7181J7187D01*
G03X651170Y3354630I-22597J23664D01*
G01X849950D01*
G03X901170I25610J20370D01*
G01X1179630D01*
Y3324170D01*
G03X1170680Y3313090I20370J-25609D01*
G02X1152830Y3312440I-9101J4510D01*
G03X1153960Y3281290I-28189J-16618D01*
G02X1171810Y3281940I9101J-4510D01*
G03X1220370Y3324170I28185J16625D01*
G01Y3354630D01*
X1646560D01*
X1788220Y3212970D01*
X1817550D01*
G03X1851890Y3264870I25608J20367D01*
G02X1846400Y3280670I2706J9794D01*
G03X1818940Y3267300I-26397J19332D01*
G02X1822050Y3258340I-167J-5078D01*
G03X1817550Y3253710I21100J-25009D01*
G01X1805100D01*
X1663440Y3395370D01*
X1614690D01*
Y3405880D01*
X1656230Y3447420D01*
X1658470Y3447320D01*
G03X1684790Y3501350I1527J32682D01*
G01X1683560Y3502780D01*
Y3509750D01*
X1694140D01*
X1739630Y3464260D01*
Y3431560D01*
X1780410Y3390780D01*
X2027440D01*
G02X2034630Y3373440I4J-10159D01*
G01X2019630Y3358440D01*
Y3271560D01*
X2045190Y3246000D01*
G02X2045590Y3232050I-7180J-7187D01*
G03X2071530Y3177580I24410J-21787D01*
G01X2073770Y3177680D01*
X2112930Y3138520D01*
Y3087670D01*
G02X2100470Y3077770I-10161J-2D01*
G03X2086430Y3077940I-7407J-31870D01*
G02X2074200Y3087880I-2071J9945D01*
G01Y3093810D01*
X2026340Y3141670D01*
X1297800D01*
X1222130Y3066000D01*
X1219890Y3066100D01*
G03X1187600Y3022280I-1528J-32681D01*
G02X1178040Y3008660I-9555J-3459D01*
G01X1175060D01*
G37*
G36*
G01X482500Y3145370D02*
G02X474800Y3162160I0J10161D01*
G03X476720Y3202380I-24801J21340D01*
G02X485020Y3218400I8301J5859D01*
G01X591810D01*
X613930Y3240520D01*
Y3254090D01*
X622480D01*
X623740Y3250860D01*
G03X656670Y3230130I30481J11899D01*
G02X667520Y3218770I765J-10130D01*
G03X675980Y3192600I32481J-3952D01*
G01Y3145370D01*
X482500D01*
G37*
G36*
G01X27340Y3246150D02*
G02X10000Y3253340I-7181J7186D01*
G01Y3990000D01*
X169760D01*
G02X176920Y3972640I-4J-10158D01*
G03X225610Y3929070I23079J-23199D01*
G01X424390D01*
G03X475610I25610J20370D01*
G01X674390D01*
G03X725610I25610J20370D01*
G01X924390D01*
G03X975610I25610J20370D01*
G01X1174390D01*
G03X1225610I25610J20370D01*
G01X1424390D01*
G03X1475610I25610J20370D01*
G01X1674390D01*
G03X1679630Y3923830I25610J20370D01*
G01Y3867900D01*
X1794960Y3752570D01*
X1794860Y3750330D01*
G03X1798140Y3734430I32683J-1546D01*
G02X1789020Y3719810I-9126J-4462D01*
G01X1725610D01*
G03X1674390I-25610J-20370D01*
G01X1475610D01*
G03X1424390I-25610J-20370D01*
G01X1225610D01*
G03X1174390I-25610J-20370D01*
G01X975610D01*
G03X948470Y3732120I-25603J-20374D01*
G01X946230Y3732020D01*
X917880Y3760370D01*
X801560D01*
X761290Y3720100D01*
X730910D01*
X730620Y3719810D01*
X725700D01*
X724190Y3721470D01*
G03X674390Y3719810I-24193J-22030D01*
G01X475610D01*
G03X424390I-25610J-20370D01*
G01X225610D01*
G03Y3679070I-25610J-20370D01*
G01X424390D01*
G03X475610I25610J20370D01*
G01X674390D01*
G03X725610I25610J20370D01*
G01X747500D01*
X747790Y3679360D01*
X778170D01*
X818440Y3719630D01*
X901000D01*
X917420Y3703210D01*
X917320Y3700970D01*
G03X975610Y3679070I32684J-1531D01*
G01X1174390D01*
G03X1225610I25610J20370D01*
G01X1424390D01*
G03X1475610I25610J20370D01*
G01X1674390D01*
G03X1725610I25610J20370D01*
G01X1782120D01*
X1808630Y3652560D01*
Y3570610D01*
G03X1849370I20370J-25610D01*
G01Y3607290D01*
G02X1866710Y3614480I10159J4D01*
G01X1911560Y3569630D01*
X2061560D01*
X2078480Y3552710D01*
Y3442340D01*
X2067660Y3431520D01*
X1868770D01*
G02X1859580Y3446020I-3J10161D01*
G03X1804300Y3439740I-29585J13979D01*
G01X1805390Y3438360D01*
Y3431520D01*
X1797290D01*
X1780370Y3448440D01*
Y3481140D01*
X1711020Y3550490D01*
X1462650D01*
G03X1419530Y3557760I-25607J-20370D01*
G02X1404730Y3562410I-5434J8584D01*
G03X1358450Y3521260I-30168J-12671D01*
G02X1362110Y3507110I-5003J-8842D01*
G03X1422660Y3488050I27889J-17111D01*
G02X1433810Y3497560I10143J-600D01*
G03X1462650Y3509750I3233J32561D01*
G01X1621860D01*
G02X1630890Y3494950I-6J-10158D01*
G03X1627320Y3478470I29114J-14933D01*
G01X1627420Y3476230D01*
X1573950Y3422760D01*
Y3395370D01*
X901170D01*
G03X849950I-25610J-20370D01*
G01X651170D01*
G03X599950I-25610J-20370D01*
G01X401170D01*
G03X349950I-25610J-20370D01*
G01X151170D01*
G03X109480Y3346510I-25609J-20365D01*
G02X111670Y3330470I-4994J-8851D01*
G01X27340Y3246150D01*
G37*
G36*
G01X553840Y2874410D02*
X482580Y2945670D01*
X482680Y2947910D01*
G03X417320I-32680J1530D01*
G01X417420Y2945670D01*
X407040Y2935290D01*
X401520Y2940810D01*
X402070Y2943490D01*
G03X366050Y2917520I-32067J6511D01*
G02X372000Y2900250I-1232J-10084D01*
G01X367120Y2895370D01*
X151170D01*
G03X124030Y2907680I-25603J-20374D01*
G01X121790Y2907580D01*
X109580Y2919790D01*
Y3082520D01*
G02X121120Y3092580I10159J-4D01*
G03X151170Y3104630I4441J32419D01*
G01X687200D01*
X688350Y3103990D01*
G03X711650I11650J21010D01*
G01X712800Y3104630D01*
X1105270D01*
Y3020860D01*
X1158180Y2967920D01*
G02X1167900Y2955790I-247J-10157D01*
G03X1179630Y2923830I32099J-6351D01*
G01Y2874410D01*
X970370D01*
Y2923830D01*
G03X940580Y2980780I-20364J25614D01*
G02X928740Y2985650I-2920J9727D01*
G03X924090Y2992150I-28740J-15647D01*
G02X925500Y3007170I7476J6874D01*
G03X881870Y3011270I-19541J26248D01*
G02X880460Y2996250I-7476J-6874D01*
G03X912850Y2939910I19535J-26250D01*
G03X923310Y2930520I18001J9531D01*
G03X929630Y2923830I26708J18901D01*
G01Y2874410D01*
X720370D01*
Y2923830D01*
G03X681100Y2976150I-20369J25609D01*
G02X666880Y2978650I-5872J8292D01*
G03X658910Y2986700I-26884J-18647D01*
G02X659010Y3003350I5872J8290D01*
G03X621510Y3003580I-18586J26930D01*
G02X621410Y2986930I-5872J-8290D01*
G03X658900Y2933290I18589J-26929D01*
G02X673120Y2930790I5872J-8292D01*
G03X679630Y2923830I26896J18633D01*
G01Y2874410D01*
X553840D01*
G37*
G36*
G01X2011210Y2828560D02*
X1867220Y2972550D01*
X1807530D01*
G02X1800340Y2989890I-4J10159D01*
G01X1823770Y3013320D01*
X1826010Y3013220D01*
G03X1794860Y3044370I1530J32680D01*
G01X1794960Y3042130D01*
X1783250Y3030420D01*
G02X1766060Y3035870I-7181J7186D01*
G03X1701780Y3023630I-32241J-5590D01*
G02X1691840Y3011400I-9945J-2071D01*
G01X1659780D01*
G02X1651420Y3027330I2J10160D01*
G03X1592490Y3039020I-26941J18569D01*
G02X1582560Y3026720I-9931J-2141D01*
G01X1521870D01*
G02X1512120Y3039760I-6J10161D01*
G03X1455180Y3069460I-31373J9285D01*
G02X1441120Y3067690I-7939J6339D01*
G03X1388900Y3037990I-19696J-26128D01*
G02X1378800Y3026720I-10101J-1109D01*
G01X1251050D01*
Y3032020D01*
G03X1251040Y3034950I-32690J1353D01*
G01X1250940Y3037190D01*
X1314680Y3100930D01*
X2009460D01*
X2033460Y3076930D01*
Y3043200D01*
X2009630Y3019370D01*
Y2846220D01*
X2022070Y2833780D01*
X2017000Y2828700D01*
X2014900D01*
G03X2013450Y2828660I177J-32717D01*
G01X2011210Y2828560D01*
G37*
G36*
G01X1301460Y2741680D02*
X1250940Y2792210D01*
X1251040Y2794450D01*
G03X1243450Y2816990I-32684J1542D01*
G02X1251230Y2833670I7788J6522D01*
G01X1354190D01*
Y2821680D01*
X1352530Y2820170D01*
G03X1344230Y2783710I22031J-24190D01*
G01X1344600Y2782790D01*
Y2776720D01*
X1336500D01*
X1301460Y2741680D01*
G37*
G36*
G01X1148570Y2617460D02*
G03X1148590Y2662070I-23930J22316D01*
G02X1156030Y2679150I7440J6920D01*
G01X1174390D01*
G03X1201530Y2666840I25603J20374D01*
G01X1203770Y2666940D01*
X1253000Y2617710D01*
G02X1245810Y2600370I-7186J-7181D01*
G01X1155990D01*
G02X1148570Y2617460I6J10159D01*
G37*
G36*
G01X986060Y1792670D02*
X982580Y1796150D01*
X982680Y1798390D01*
G03X973710Y1822470I-32683J1536D01*
G02X981070Y1839630I7362J7001D01*
G01X1078180D01*
G02X1088090Y1827230I0J-10160D01*
G03X1090020Y1806900I31910J-7227D01*
G02X1080710Y1792670I-9310J-4069D01*
G01X986060D01*
G37*
G36*
G01X1528360Y1750370D02*
X1482580Y1796150D01*
X1482680Y1798390D01*
G03X1473710Y1822470I-32683J1536D01*
G02X1481070Y1839630I7362J7001D01*
G01X1501560D01*
X1567420Y1773770D01*
X1567320Y1771530D01*
G03X1568090Y1762770I32682J-1541D01*
G02X1558180Y1750370I-9910J-2240D01*
G01X1528360D01*
G37*
G36*
G01X331830Y3283130D02*
X146470D01*
G02X139280Y3300470I-4J10159D01*
G01X154590Y3315780D01*
X551820D01*
G02X561710Y3303300I-3J-10161D01*
G03X571530Y3271630I31851J-7481D01*
G01X573190Y3270120D01*
Y3259140D01*
X390320D01*
X390140Y3264020D01*
G03X331830Y3283130I-32698J-1257D01*
G37*
G36*
G01X1716860Y2948410D02*
X1642860Y2874410D01*
X1220370D01*
Y2923830D01*
G03X1232100Y2955790I-20369J25609D01*
G02X1242060Y2967920I9966J1971D01*
G01X1246720D01*
X1264780Y2985980D01*
X1337520D01*
G02X1347580Y2974440I-4J-10159D01*
G03X1412520Y2973570I32416J-4443D01*
G02X1422620Y2984840I10101J1109D01*
G01X1444920D01*
X1446060Y2985980D01*
X1575220D01*
X1590540Y2970660D01*
X1707380D01*
G02X1717340Y2958530I-6J-10159D01*
G03X1716760Y2950650I32102J-6324D01*
G01X1716860Y2948410D01*
G37*
G36*
G01X1475610Y3969810D02*
G03X1473080Y3972640I-25619J-20358D01*
G02X1480240Y3990000I7164J7202D01*
G01X1669760D01*
G02X1676920Y3972640I-4J-10158D01*
G03X1674390Y3969810I23089J-23188D01*
G01X1475610D01*
G37*
G36*
G01X1225610D02*
G03X1223080Y3972640I-25619J-20358D01*
G02X1230240Y3990000I7164J7202D01*
G01X1419760D01*
G02X1426920Y3972640I-4J-10158D01*
G03X1424390Y3969810I23089J-23188D01*
G01X1225610D01*
G37*
G36*
G01X475610D02*
G03X473080Y3972640I-25619J-20358D01*
G02X480240Y3990000I7164J7202D01*
G01X669760D01*
G02X676920Y3972640I-4J-10158D01*
G03X674390Y3969810I23089J-23188D01*
G01X475610D01*
G37*
G36*
G01X225610D02*
G03X223080Y3972640I-25619J-20358D01*
G02X230240Y3990000I7164J7202D01*
G01X419760D01*
G02X426920Y3972640I-4J-10158D01*
G03X424390Y3969810I23089J-23188D01*
G01X225610D01*
G37*
G36*
G01X975610D02*
G03X973080Y3972640I-25619J-20358D01*
G02X980240Y3990000I7164J7202D01*
G01X1169760D01*
G02X1176920Y3972640I-4J-10158D01*
G03X1174390Y3969810I23089J-23188D01*
G01X975610D01*
G37*
G36*
G01X1999630Y901560D02*
X2088260Y812930D01*
X2188260D01*
X2199630Y801560D01*
Y655120D01*
X2281560Y573190D01*
X2316150D01*
G02X2323340Y555850I4J-10159D01*
G01X2315530Y548040D01*
X2313290Y548140D01*
G03X2289350Y491620I-1529J-32683D01*
G02Y476820I-6962J-7400D01*
G03X2289730Y428790I22411J-23839D01*
G01X2291390Y427280D01*
Y422360D01*
X2289630Y420600D01*
Y368440D01*
X2287770Y366580D01*
X2057100D01*
X2057080Y366600D01*
X1822240D01*
X1821770Y367070D01*
X1821740D01*
X1790370Y398440D01*
Y918080D01*
X1891560Y1019270D01*
G02X1908900Y1012080I7181J-7186D01*
G01Y815170D01*
X1937420Y786650D01*
X1937320Y784410D01*
G03X1968470Y815560I32680J-1530D01*
G01X1966230Y815460D01*
X1949640Y832050D01*
Y910760D01*
G02X1961770Y920720I10159J-6D01*
G03X1984410Y924440I6351J32099D01*
G02X1999630Y915630I5061J-8808D01*
G01Y901560D01*
G37*
G36*
G01X2316440Y337630D02*
X2330370Y351560D01*
Y403720D01*
X2332130Y405480D01*
Y427370D01*
G03X2334170Y476820I-20369J25607D01*
G02Y491620I6962J7400D01*
G03X2344440Y516990I-22412J23836D01*
G01X2344340Y519230D01*
X2354660Y529550D01*
X2424390D01*
G03X2475610I25610J20370D01*
G01X2674390D01*
G03X2713790Y520250I25606J20371D01*
G02X2728000Y513160I4276J-9216D01*
G03X2729700Y507640I32001J6834D01*
G02X2724040Y500730I-4703J-1921D01*
G03X2749950Y475100I-6156J-32135D01*
G02X2759930Y487280I9956J2021D01*
G03X2791910Y527230I69J32720D01*
G02X2801820Y539630I9910J2240D01*
G01X2892420D01*
X2902500Y529550D01*
X2924390D01*
G03X2965930Y521340I25607J20370D01*
G02X2980140Y516620I4940J-8878D01*
G03X2981070Y514710I29868J13362D01*
G02X2974780Y500160I-8978J-4753D01*
G03X3012350Y483890I8641J-31560D01*
G02X3018640Y498440I8978J4753D01*
G03X3042420Y534440I-8639J31560D01*
G02X3052480Y545980I10064J1381D01*
G01X3176150D01*
X3202500Y519630D01*
X3224390D01*
G03X3282680Y541530I25606J20369D01*
G01X3282580Y543770D01*
X3338440Y599630D01*
X3621480D01*
X3628940Y592170D01*
G02X3627630Y576700I-7183J-7182D01*
G03X3627700Y523250I18918J-26700D01*
G02X3629040Y507760I-5847J-8309D01*
G01X3595650Y474380D01*
X3469620D01*
G03X3447000Y486590I-25603J-20374D01*
G02X3437790Y497450I925J10119D01*
G03X3415260Y530960I-32631J2390D01*
G02X3408480Y542850I3133J9665D01*
G03X3366450Y518880I-31929J7151D01*
G02X3373230Y506990I-3133J-9665D01*
G03X3384790Y474230I31930J-7152D01*
G01Y370370D01*
X3178450D01*
X3144370Y404450D01*
Y474390D01*
G03X3103630I-20370J25610D01*
G01Y387570D01*
X3141200Y350000D01*
X3111490Y320290D01*
X2975610D01*
G03X2924390I-25610J-20370D01*
G01X2725610D01*
G03X2698470Y332600I-25603J-20374D01*
G01X2696230Y332500D01*
X2672730Y356000D01*
X2482240D01*
X2458000Y331760D01*
X2455420Y332190D01*
G03X2424390Y320290I-5421J-32269D01*
G01X2323630D01*
G02X2316440Y337630I-4J10159D01*
G37*
G36*
G01X3725610Y570290D02*
G03X3698470Y582600I-25603J-20374D01*
G01X3696230Y582500D01*
X3638360Y640370D01*
X3333490D01*
G02X3326300Y657710I-4J10159D01*
G01X3394840Y726250D01*
X3473270D01*
G03Y766990I25610J20370D01*
G01X3377960D01*
X3324650Y713680D01*
G02X3308590Y715920I-7185J7181D01*
G03X3264080Y671410I-28590J-15920D01*
G02X3266320Y655350I-4941J-8875D01*
G01X3224900Y613930D01*
X3138370D01*
G02X3131180Y631270I-4J10159D01*
G01X3213950Y714040D01*
X3216190Y713940D01*
G03X3185040Y745090I1530J32680D01*
G01X3185140Y742850D01*
X3092660Y650370D01*
X2703710D01*
G02X2696520Y667710I-4J10159D01*
G01X2755060Y726250D01*
X2910950D01*
G03X2964290Y764000I25611J20371D01*
G02X2972890Y779550I8608J5392D01*
G01X3004390D01*
G03X3054190Y777890I25607J20370D01*
G01X3055700Y779550D01*
X3058360D01*
X3138440Y859630D01*
X3429630D01*
Y835610D01*
G03X3470370I20370J-25610D01*
G01Y859630D01*
X3611480D01*
X3667420Y803690D01*
X3667320Y801450D01*
G03X3725610Y779550I32684J-1531D01*
G01X3924390D01*
G03X3956350Y767820I25609J20369D01*
G02X3968480Y757860I1971J-9966D01*
G01Y591980D01*
G02X3956350Y582020I-10159J6D01*
G03X3924390Y570290I-6351J-32099D01*
G01X3725610D01*
G37*
G36*
G01X2339390Y670370D02*
X2330080Y679680D01*
G02X2332620Y695900I7183J7184D01*
G03X2349660Y731830I-14960J29100D01*
G02X2362530Y743670I9935J2115D01*
G03X2395050Y751800I9444J31328D01*
G02X2409400Y751780I7165J-7203D01*
G01X2434930Y726250D01*
X2629790D01*
G03X2687120Y754650I25610J20367D01*
G02X2697690Y767280I9847J2497D01*
G03X2725610Y779550I2312J32640D01*
G01X2911000D01*
X2914440Y770730D01*
G03X2910950Y766990I22105J-24126D01*
G01X2738180D01*
X2641560Y670370D01*
X2339390D01*
G37*
G36*
G01X3972770Y1073420D02*
G03X3924390Y1070290I-22771J-23499D01*
G01X3779030D01*
G02X3771840Y1087630I-4J10159D01*
G01X3800410Y1116200D01*
Y1186500D01*
X3827520Y1213610D01*
X3832440D01*
X3833950Y1211950D01*
G03X3887440Y1219410I24193J22030D01*
G02X3903720Y1222070I9096J-4522D01*
G01X3912180Y1213610D01*
X3975920D01*
X3981330Y1219020D01*
G02X3990000Y1215430I3591J-3592D01*
G01Y1080710D01*
G02X3972770Y1073420I-10159J4D01*
G37*
G36*
G01X2271000Y945570D02*
X2269500Y947070D01*
X2264460D01*
Y954940D01*
X2266820Y956440D01*
G03X2217710Y992670I-17542J27621D01*
G02X2206610Y985270I-9800J2675D01*
G03X2200090Y985460I-4208J-32449D01*
G02X2195890Y993850I-361J5066D01*
G03X2203860Y1016830I-24713J21443D01*
G01X2203760Y1019070D01*
X2214240Y1029550D01*
X2327200D01*
G02X2337310Y1018420I-4J-10160D01*
G03X2337300Y1012260I32570J-3133D01*
G02X2327230Y1001160I-10115J-941D01*
G03X2296130Y958740I150J-32720D01*
G02X2286430Y945570I-9703J-3011D01*
G01X2271000D01*
G37*
G36*
G01X2327110Y756330D02*
G03X2311310Y757100I-9446J-31329D01*
G02X2299180Y767060I-1971J9966D01*
G01Y879630D01*
X2291320Y887490D01*
G02X2298510Y904830I7186J7181D01*
G01X2336360D01*
X2390460Y850730D01*
Y817060D01*
G02X2378330Y807100I-10159J6D01*
G03X2339980Y768170I-6350J-32099D01*
G02X2327110Y756330I-9935J-2115D01*
G37*
G36*
G01X2209780Y287910D02*
G02X2194690Y288190I-7419J6941D01*
G03X2144390Y287090I-24693J-21469D01*
G01X2098830D01*
X2077420Y308500D01*
G02X2084610Y325840I7186J7181D01*
G01X2240620D01*
G02X2247810Y308500I4J-10159D01*
G01X2237430Y298120D01*
X2235190Y298220D01*
G03X2209780Y287910I-1536J-32683D01*
G37*
G36*
G01X2398080Y87410D02*
G03X2404090Y123210I-23842J22407D01*
G02X2413360Y137530I9271J4159D01*
G01X2694190D01*
G02X2701380Y120190I4J-10159D01*
G01X2681890Y100700D01*
Y70290D01*
X2475610D01*
G03X2424390I-25610J-20370D01*
G01X2405480D01*
G02X2398080Y87410I1J10160D01*
G37*
G36*
G01X3972770Y73420D02*
G03X3924390Y70290I-22771J-23499D01*
G01X3725610D01*
G03X3674390I-25610J-20370D01*
G01X3475610D01*
G03X3424390I-25610J-20370D01*
G01X3414690D01*
G02X3405030Y83590I3J10160D01*
G03X3342810I-31110J10130D01*
G02X3333150Y70290I-9663J-3140D01*
G01X3225610D01*
G03X3220370Y75530I-25610J-20370D01*
G01Y88440D01*
X3188620Y120190D01*
G02X3195810Y137530I7186J7181D01*
G01X3899520D01*
X3972660Y210670D01*
G02X3990000Y203480I7181J-7186D01*
G01Y80710D01*
G02X3972770Y73420I-10159J4D01*
G37*
G36*
G01X2973560Y27210D02*
G03X2970370Y75530I-23558J22710D01*
G01Y99630D01*
X3078480D01*
G02X3087700Y85220I-5J-10158D01*
G03X3085380Y78140I29732J-13663D01*
G02X3071700Y70740I-9951J2052D01*
G03X3030810Y24930I-12003J-30440D01*
G02X3021840Y10000I-8968J-4772D01*
G01X2980870D01*
G02X2973560Y27210I3J10159D01*
G37*
G36*
G01X2743680Y10000D02*
G02X2733870Y22780I5J10159D01*
G03X2722630Y56850I-31609J8461D01*
G01Y83820D01*
X2738440Y99630D01*
X2817120D01*
G02X2826910Y86780I-6J-10159D01*
G03X2890010I31550J-8680D01*
G02X2899800Y99630I9796J2691D01*
G01X2929630D01*
Y75530D01*
G03X2926440Y27210I20368J-25610D01*
G02X2919130Y10000I-7313J-7051D01*
G01X2743680D01*
G37*
G36*
G01X2231820Y1187710D02*
X2261130Y1217020D01*
X2263370Y1216920D01*
G03X2297000Y1243270I1531J32682D01*
G02X2310060Y1250990I9971J-1960D01*
G03X2327110Y1250220I9950J31170D01*
G02X2338950Y1243510I2201J-9917D01*
G03X2375980Y1221670I31048J10330D01*
G02X2387820Y1213520I1850J-9988D01*
G03X2441250Y1194580I32177J5940D01*
G02X2449630Y1190720I3300J-3862D01*
G01Y1181980D01*
X2438020Y1170370D01*
X2239010D01*
G02X2231820Y1187710I-4J10159D01*
G37*
G36*
G01X2482980Y1157710D02*
X2490370Y1165100D01*
Y1241650D01*
G03X2502020Y1260530I-20372J25605D01*
G02X2508040Y1264450I4970J-1050D01*
G03X2540430Y1276090I6783J32010D01*
G01X2562320D01*
X2565780Y1279550D01*
X2674390D01*
G03X2725610I25610J20370D01*
G01X2924390D01*
G03X2975610I25610J20370D01*
G01X3174390D01*
G03X3225610I25610J20370D01*
G01X3424390D01*
G03X3475610I25610J20370D01*
G01X3674390D01*
G03X3680590Y1273580I25599J20381D01*
G02X3681750Y1258220I-6026J-8179D01*
G01X3665950Y1242420D01*
Y1164320D01*
X3642000Y1140370D01*
X2490170D01*
G02X2482980Y1157710I-4J10159D01*
G37*
G36*
G01X3791410Y1235120D02*
X3759670Y1203380D01*
Y1133080D01*
X3735730Y1109140D01*
X3692920D01*
G02X3685730Y1126480I-4J10159D01*
G01X3706690Y1147440D01*
Y1225540D01*
X3721850Y1240700D01*
X3724540D01*
X3736300Y1252460D01*
X3784220D01*
G02X3791410Y1235120I4J-10159D01*
G37*
G36*
G01X1881840Y1180650D02*
X1749680Y1048480D01*
G02X1732420Y1054310I-7188J7185D01*
G03X1720370Y1075530I-32425J-4382D01*
G01Y1160480D01*
X1757880Y1197990D01*
X1874650D01*
G02X1881840Y1180650I4J-10159D01*
G37*
G36*
G01X1949640Y1014880D02*
X2003160Y1068400D01*
X2083070D01*
G02X2092840Y1055470I-4J-10159D01*
G03X2092810Y1055370I31324J-9452D01*
G02X2085510Y1052270I-4890J1371D01*
G03X2037320Y1021820I-15511J-28810D01*
G02X2025470Y1011300I-10147J-505D01*
G03X1989360Y990510I-5467J-32259D01*
G02X1977060Y984290I-9520J3555D01*
G03X1961770Y984920I-8955J-31470D01*
G02X1949640Y994880I-1971J9966D01*
G01Y1014880D01*
G37*
G36*
G01X3696230Y832500D02*
X3628360Y900370D01*
X3121560D01*
X3048410Y827220D01*
X3045110Y828940D01*
G03X3004390Y820290I-15114J-29021D01*
G01X2725610D01*
G03X2674390I-25610J-20370D01*
G01X2475610D01*
G03X2470370Y825530I-25610J-20370D01*
G01Y932360D01*
X2413920Y988810D01*
X2409530D01*
G02X2400130Y1002840I-4J10161D01*
G03X2402450Y1018420I-30250J12467D01*
G02X2412560Y1029550I10114J970D01*
G01X2424390D01*
G03X2475610I25610J20370D01*
G01X2674390D01*
G03X2725610I25610J20370D01*
G01X2842240D01*
G02X2851260Y1014720I-2J-10159D01*
G03X2905930Y979310I29057J-15047D01*
G01X3912180D01*
X3968480Y923010D01*
Y841980D01*
G02X3956350Y832020I-10159J6D01*
G03X3924390Y820290I-6351J-32099D01*
G01X3725610D01*
G03X3698470Y832600I-25603J-20374D01*
G01X3696230Y832500D01*
G37*
G36*
G01Y332500D02*
X3658360Y370370D01*
X3425530D01*
Y411950D01*
G02X3437660Y421910I10159J-6D01*
G03X3469620Y433640I6351J32099D01*
G01X3612530D01*
X3696230Y517340D01*
X3698470Y517240D01*
G03X3725610Y529550I1537J32684D01*
G01X3924390D01*
G03X3956350Y517820I25609J20369D01*
G02X3968480Y507860I1971J-9966D01*
G01Y341980D01*
G02X3956350Y332020I-10159J6D01*
G03X3924390Y320290I-6351J-32099D01*
G01X3725610D01*
G03X3698470Y332600I-25603J-20374D01*
G01X3696230Y332500D01*
G37*
G36*
G01X2066750Y1307660D02*
X1993790Y1380620D01*
G02X1988840Y1397710I2236J9910D01*
G01X2066580Y1475450D01*
Y1887780D01*
X2136670Y1957880D01*
G02X2150330Y1958520I7182J-7187D01*
G03X2170680Y2016460I20847J25222D01*
G02X2160370Y2026610I-152J10157D01*
G01Y2171550D01*
X2175930Y2187110D01*
Y2221920D01*
G02X2189390Y2231530I10160J0D01*
G03X2201530Y2229800I10604J30952D01*
G01X2203770Y2229900D01*
X2254600Y2179070D01*
X2424390D01*
G03X2475610I25610J20370D01*
G01X2674390D01*
G03X2725610I25610J20370D01*
G01X2792680D01*
X2917420Y2054330D01*
X2917320Y2052090D01*
G03X2948470Y2083240I32680J-1530D01*
G01X2946230Y2083140D01*
X2867640Y2161730D01*
G02X2874830Y2179070I7186J7181D01*
G01X3042680D01*
X3167420Y2054330D01*
X3167320Y2052090D01*
G03X3198470Y2083240I32680J-1530D01*
G01X3196230Y2083140D01*
X3117640Y2161730D01*
G02X3124830Y2179070I7186J7181D01*
G01X3292680D01*
X3417420Y2054330D01*
X3417320Y2052090D01*
G03X3448470Y2083240I32680J-1530D01*
G01X3446230Y2083140D01*
X3367640Y2161730D01*
G02X3374830Y2179070I7186J7181D01*
G01X3542680D01*
X3667420Y2054330D01*
X3667320Y2052090D01*
G03X3698470Y2083240I32680J-1530D01*
G01X3696230Y2083140D01*
X3617640Y2161730D01*
G02X3624830Y2179070I7186J7181D01*
G01X3924390D01*
G03X3972770Y2175940I25609J20369D01*
G02X3990000Y2168650I7071J-7294D01*
G01Y1580710D01*
G02X3972770Y1573420I-10159J4D01*
G03X3924390Y1570290I-22771J-23499D01*
G01X3725610D01*
G03X3674390I-25610J-20370D01*
G01X3475610D01*
G03X3424390I-25610J-20370D01*
G01X3225610D01*
G03X3174390I-25610J-20370D01*
G01X2975610D01*
G03X2924390I-25610J-20370D01*
G01X2840540D01*
X2830620Y1560370D01*
X2825700D01*
X2824190Y1562030D01*
G03X2774390Y1560370I-24193J-22030D01*
G01X2718360D01*
X2633360Y1645370D01*
X2150450D01*
G03Y1604630I-25610J-20370D01*
G01X2616480D01*
X2640740Y1580370D01*
G02X2635030Y1563130I-7182J-7187D01*
G03X2612860Y1512160I4750J-32373D01*
G02X2609160Y1497360I-8360J-5773D01*
G03X2625690Y1435600I15002J-29077D01*
G01X2627930Y1435700D01*
X2693820Y1369810D01*
X3961960D01*
X3968480Y1363290D01*
Y1341980D01*
G02X3956350Y1332020I-10159J6D01*
G03X3924390Y1320290I-6351J-32099D01*
G01X3725610D01*
G03X3674390I-25610J-20370D01*
G01X3475610D01*
G03X3424390I-25610J-20370D01*
G01X3225610D01*
G03X3174390I-25610J-20370D01*
G01X2975610D01*
G03X2924390I-25610J-20370D01*
G01X2725610D01*
G03X2674390I-25610J-20370D01*
G01X2548900D01*
X2545440Y1316830D01*
X2540520D01*
X2539010Y1318490D01*
G03X2513290Y1329140I-24188J-22032D01*
G01X2511050Y1329040D01*
X2495640Y1344450D01*
X2143500D01*
X2112470Y1313420D01*
X2110230Y1313520D01*
G03X2084320Y1302660I-1532J-32682D01*
G02X2066750Y1307660I-7568J6778D01*
G37*
G36*
G01X3972770Y2222940D02*
G03X3924390Y2219810I-22771J-23499D01*
G01X2725610D01*
G03X2674390I-25610J-20370D01*
G01X2475610D01*
G03X2424390I-25610J-20370D01*
G01X2271480D01*
X2245110Y2246180D01*
G02X2251580Y2263500I7181J7186D01*
G03X2217220Y2302700I-2302J32641D01*
G02X2205550Y2294730I-9950J2040D01*
G03X2186620Y2292340I-5544J-32248D01*
G02X2172390Y2300320I-4152J9273D01*
G03X2125130Y2325320I-32453J-4178D01*
G02X2110370Y2334370I-4601J9057D01*
G01Y2476510D01*
X2137860Y2504000D01*
Y2811250D01*
X2100900Y2848210D01*
Y2850330D01*
X2077070Y2874160D01*
Y2940940D01*
G02X2088620Y2951010I10161J4D01*
G03X2100470Y2951550I4460J32412D01*
G02X2112930Y2941650I2299J-9898D01*
G01Y2878260D01*
X2251560Y2739630D01*
X2419390D01*
G02X2426640Y2722360I-2J-10158D01*
G03X2424390Y2719810I23379J-22896D01*
G01X2225610D01*
G03Y2679070I-25610J-20370D01*
G01X2424390D01*
G03X2475610I25610J20370D01*
G01X2674390D01*
G03X2725610I25610J20370D01*
G01X2838090D01*
Y2556050D01*
G03X2878830I20370J-25610D01*
G01Y2679070D01*
X3104470D01*
Y2650610D01*
G03X3145210I20370J-25610D01*
G01Y2679070D01*
X3354390D01*
Y2650610D01*
G03X3395130I20370J-25610D01*
G01Y2679070D01*
X3604310D01*
Y2650610D01*
G03X3645050I20370J-25610D01*
G01Y2679070D01*
X3924390D01*
G03X3972770Y2675940I25609J20369D01*
G02X3990000Y2668650I7071J-7294D01*
G01Y2480230D01*
G02X3972770Y2472940I-10159J4D01*
G03X3924390Y2469810I-22771J-23499D01*
G01X2725610D01*
G03X2674390I-25610J-20370D01*
G01X2475610D01*
G03X2424390I-25610J-20370D01*
G01X2225610D01*
G03Y2429070I-25610J-20370D01*
G01X2424390D01*
G03X2475610I25610J20370D01*
G01X2674390D01*
G03X2725610I25610J20370D01*
G01X2929630D01*
Y2326170D01*
G03X2970370I20370J-25610D01*
G01Y2429070D01*
X3179630D01*
Y2326170D01*
G03X3220370I20370J-25610D01*
G01Y2429070D01*
X3429630D01*
Y2326170D01*
G03X3470370I20370J-25610D01*
G01Y2429070D01*
X3679630D01*
Y2326170D01*
G03X3720370I20370J-25610D01*
G01Y2429070D01*
X3924390D01*
G03X3972770Y2425940I25609J20369D01*
G02X3990000Y2418650I7071J-7294D01*
G01Y2230230D01*
G02X3972770Y2222940I-10159J4D01*
G37*
G36*
G01X3257880Y2920370D02*
X3232580Y2945670D01*
X3232680Y2947910D01*
G03X3167320I-32680J1530D01*
G01X3167420Y2945670D01*
X3152120Y2930370D01*
X3138470D01*
Y2938320D01*
X3140920Y2939800D01*
G03X3098750Y2946990I-16924J28002D01*
G02X3090910Y2930370I-7841J-6460D01*
G01X2997880D01*
X2985290Y2942960D01*
X2990810Y2948480D01*
X2993490Y2947930D01*
G03X2996080Y3012480I6510J32066D01*
G02X2984750Y3021610I-1214J10089D01*
G03X2931980Y2992760I-32571J-3110D01*
G02X2931460Y2976400I-6277J-7989D01*
G03X2917320Y2947910I18543J-26957D01*
G01X2917420Y2945670D01*
X2912120Y2940370D01*
X2791150D01*
G02X2783770Y2957510I0J10159D01*
G03X2759540Y3012720I-23767J22491D01*
G02X2749390Y3021090I-149J10159D01*
G03X2691390Y2995220I-32214J-5730D01*
G02X2687320Y2979600I-8007J-6254D01*
G03X2674390Y2969810I12670J-30167D01*
G01X2537600D01*
G02X2529990Y2986700I-1J10159D01*
G03X2490310Y2979390I-24507J21680D01*
G01X2493030Y2977960D01*
Y2969810D01*
X2475610D01*
G03X2424390I-25610J-20370D01*
G01X2225610D01*
G03X2192770Y2981350I-25606J-20371D01*
G02X2180370Y2991260I-2240J9910D01*
G01Y2997390D01*
G02X2197050Y3005180I10160J-1D01*
G03Y3055380I20990J25100D01*
G02X2180370Y3063170I-6520J7791D01*
G01Y3168450D01*
X2165510Y3183300D01*
G02X2172340Y3200640I7185J7185D01*
G03X2172710Y3200660I-1581J32677D01*
G01X2174950Y3200760D01*
X2225220Y3150490D01*
X2429860D01*
X2446230Y3166860D01*
X2448470Y3166760D01*
G03X2482680Y3200970I1530J32680D01*
G01X2482580Y3203210D01*
X2492340Y3212970D01*
X2657660D01*
X2667420Y3203210D01*
X2667320Y3200970D01*
G03X2732680I32680J-1530D01*
G01X2732580Y3203210D01*
X2742340Y3212970D01*
X2858110D01*
X2892010Y3179070D01*
X2924390D01*
G03Y3219810I25610J20370D01*
G01X2908890D01*
X2874990Y3253710D01*
X2739650D01*
G02X2730250Y3267740I-4J10161D01*
G03X2720370Y3305810I-30252J12466D01*
G01Y3384790D01*
X3033590D01*
X3178640Y3529840D01*
X3187450D01*
Y3523830D01*
X3187130Y3522960D01*
G03X3220770Y3478780I30593J-11603D01*
G02X3231870Y3468420I944J-10115D01*
G03X3244210Y3442030I32711J-784D01*
G01Y3272460D01*
X3203770Y3232020D01*
X3201530Y3232120D01*
G03X3232680Y3200970I-1530J-32680D01*
G01X3232580Y3203210D01*
X3273580Y3244210D01*
X3376420D01*
X3417420Y3203210D01*
X3417320Y3200970D01*
G03X3475610Y3179070I32684J-1531D01*
G01X3674390D01*
G03X3725610I25610J20370D01*
G01X3924390D01*
G03X3972770Y3175940I25609J20369D01*
G02X3990000Y3168650I7071J-7294D01*
G01Y2980230D01*
G02X3972770Y2972940I-10159J4D01*
G03X3927780Y2973460I-22770J-23499D01*
G01X3722220D01*
G03X3706600Y2981490I-22222J-24018D01*
G02X3699500Y2995840I2055J9948D01*
G03X3702690Y3008590I-29501J14155D01*
G02X3717660Y3017100I10152J-436D01*
G03X3700490Y3047310I15518J28804D01*
G02X3685520Y3038800I-10152J436D01*
G03X3646640Y2987080I-15525J-28803D01*
G02X3639390Y2969810I-7252J-7112D01*
G01X3550750D01*
G02X3542160Y2985400I-4J10160D01*
G03X3486840I-27660J17480D01*
G02X3478250Y2969810I-8586J-5430D01*
G01X3475700D01*
X3474190Y2971470D01*
G03X3417320Y2947910I-24188J-22032D01*
G01X3417420Y2945670D01*
X3392120Y2920370D01*
X3388200D01*
G02X3379150Y2935140I4J10160D01*
G03X3320850I-29150J14860D01*
G02X3311800Y2920370I-9054J-4610D01*
G01X3257880D01*
G37*
G36*
G01X2242100Y3191230D02*
X2203760Y3229570D01*
X2203860Y3231810D01*
G03X2195820Y3254870I-32683J1537D01*
G02Y3268230I7653J6680D01*
G03X2146540I-24640J21530D01*
G02Y3254870I-7653J-6680D01*
G03X2144120Y3251740I24630J-21543D01*
G02X2128540Y3250270I-8398J5714D01*
G01X2098440Y3280370D01*
X2068440D01*
X2060370Y3288440D01*
Y3341560D01*
X2068440Y3349630D01*
X2103220D01*
X2150400Y3396810D01*
G02X2167710Y3403240I10130J-757D01*
G01X2192690Y3378260D01*
X2337020D01*
X2343550Y3384790D01*
X2429630D01*
Y3290190D01*
G03X2428720Y3239730I20370J-25606D01*
G02Y3224290I-6610J-7720D01*
G03X2417320Y3197910I21282J-24850D01*
G01X2417420Y3195670D01*
X2412980Y3191230D01*
X2354830D01*
G02X2346350Y3206980I4J10160D01*
G03X2345350Y3244460I-27309J18025D01*
G02X2346770Y3258090I8167J6038D01*
G03X2356170Y3272510I-21746J24450D01*
G02X2367830Y3279350I9667J-3122D01*
G03X2343100Y3321480I6411J32087D01*
G02X2331440Y3314640I-9667J3122D01*
G03X2298720Y3263090I-6414J-32088D01*
G02X2297300Y3249460I-8167J-6038D01*
G03X2291730Y3206980I21740J-24456D01*
G02X2283250Y3191230I-8484J-5590D01*
G01X2242100D01*
G37*
G36*
G01X2209570Y3419000D02*
X2191550Y3437020D01*
Y3441940D01*
X2193210Y3443450D01*
G03X2163050Y3499330I-22033J24187D01*
G02X2150370Y3509180I-2519J9844D01*
G01Y3626300D01*
G02X2167710Y3633490I10159J4D01*
G01X2222720Y3578480D01*
X2351230D01*
G02X2360420Y3563980I3J-10161D01*
G03X2419580I29580J-13980D01*
G02X2428770Y3578480I9187J4339D01*
G01X2640710D01*
X2658010Y3561180D01*
G02X2651910Y3543890I-7181J-7187D01*
G03X2687510Y3505080I3490J-32532D01*
G02X2698610Y3513220I9969J-1956D01*
G03X2700730Y3578420I3650J32516D01*
G01X2698490Y3578320D01*
X2657590Y3619220D01*
X2239600D01*
X2121460Y3737360D01*
Y3753600D01*
G02X2133590Y3763560I10159J-6D01*
G03X2172620Y3797190I6347J32098D01*
G01X2172520Y3799430D01*
X2195240Y3822150D01*
X2385110D01*
Y3805650D01*
G03X2424080Y3753120I20369J-25609D01*
G02X2438880Y3749420I5773J-8359D01*
G03X2447590Y3738810I29083J14995D01*
G01Y3722310D01*
X2288960D01*
X2250620Y3760650D01*
X2250720Y3762890D01*
G03X2219570Y3731740I-32680J1530D01*
G01X2221810Y3731840D01*
X2272080Y3681570D01*
X2872890D01*
X2904170Y3650330D01*
X3179700D01*
X3196230Y3666860D01*
X3198470Y3666760D01*
G03X3225610Y3679070I1537J32684D01*
G01X3424390D01*
G03X3475610I25610J20370D01*
G01X3674390D01*
G03X3725610I25610J20370D01*
G01X3924390D01*
G03X3972770Y3675940I25609J20369D01*
G02X3990000Y3668650I7071J-7294D01*
G01Y3480230D01*
G02X3972770Y3472940I-10159J4D01*
G03X3924390Y3469810I-22771J-23499D01*
G01X3725610D01*
G03X3674390I-25610J-20370D01*
G01X3654450D01*
X3645520Y3478740D01*
X3449510D01*
X3357670Y3570580D01*
X3161760D01*
X3016710Y3425530D01*
X3003790D01*
Y3442030D01*
G03X2980370Y3500220I-20367J25611D01*
G02X2969270Y3510580I-944J10115D01*
G03X2939610Y3478780I-32711J778D01*
G02X2950710Y3468420I944J-10115D01*
G03X2963050Y3442030I32711J-784D01*
G01Y3425530D01*
X2757530D01*
G02X2748130Y3439560I-4J10161D01*
G03X2687630I-30250J12460D01*
G02X2678230Y3425530I-9396J-3869D01*
G01X2326670D01*
X2320140Y3419000D01*
X2209570D01*
G37*
G36*
G01X1849630Y3789990D02*
G02X1836640Y3780230I-10159J-3D01*
G03X1826010Y3781480I-9085J-31432D01*
G01X1823770Y3781380D01*
X1720370Y3884780D01*
Y3923830D01*
G03X1723080Y3972640I-20368J25611D01*
G02X1730240Y3990000I7164J7202D01*
G01X1755240D01*
G02X1764970Y3976910I1J-10160D01*
G03X1827630I31330J-9430D01*
G02X1837360Y3990000I9729J2930D01*
G01X1845940D01*
Y3983680D01*
X1845370Y3982580D01*
G03X1905730Y3976910I29028J-15099D01*
G02X1915460Y3990000I9729J2930D01*
G01X1924040D01*
Y3983680D01*
X1923470Y3982580D01*
G03X1983830Y3976910I29028J-15099D01*
G02X1993560Y3990000I9729J2930D01*
G01X3919760D01*
G02X3926920Y3972640I-4J-10158D01*
G03X3917320Y3947910I23084J-23189D01*
G01X3917420Y3945670D01*
X3834640Y3862890D01*
X2178360D01*
X2143710Y3828240D01*
X2141470Y3828340D01*
G03X2127360Y3825860I-1529J-32681D01*
G01X2124220Y3824560D01*
X2070280Y3878510D01*
X1879700D01*
X1849630Y3848440D01*
Y3789990D01*
G37*
G36*
G01X2921030Y3691070D02*
X2913470Y3698620D01*
X2917720Y3702890D01*
X2918590Y3703270D01*
G03X2927730Y3757020I-13270J29909D01*
G02Y3771820I6962J7400D01*
G03X2935570Y3808120I-22412J23837D01*
G02X2944970Y3822150I9396J3869D01*
G01X3010350D01*
G02X3019750Y3808120I4J-10161D01*
G03X3080250I30250J-12460D01*
G02X3089650Y3822150I9396J3869D01*
G01X3159610D01*
G02X3169180Y3808580I-1J-10161D01*
G03X3167310Y3798900I30822J-10975D01*
G02X3153090Y3789990I-10152J401D01*
G03X3172690Y3758700I-13093J-29985D01*
G02X3186910Y3767610I10152J-401D01*
G03X3230820Y3808580I13088J29988D01*
G02X3240390Y3822150I9571J3409D01*
G01X3260350D01*
G02X3269750Y3808120I4J-10161D01*
G03X3330250I30250J-12460D01*
G02X3339650Y3822150I9396J3869D01*
G01X3409610D01*
G02X3419180Y3808580I-1J-10161D01*
G03X3480820I30820J-10980D01*
G02X3490390Y3822150I9571J3409D01*
G01X3510350D01*
G02X3519750Y3808120I4J-10161D01*
G03X3580250I30250J-12460D01*
G02X3589650Y3822150I9396J3869D01*
G01X3659610D01*
G02X3669180Y3808580I-1J-10161D01*
G03X3730820I30820J-10980D01*
G02X3740390Y3822150I9571J3409D01*
G01X3760350D01*
G02X3769750Y3808120I4J-10161D01*
G03X3830250I30250J-12460D01*
G02X3839650Y3822150I9396J3869D01*
G01X3851520D01*
X3946230Y3916860D01*
X3948470Y3916760D01*
G03X3972770Y3925940I1537J32683D01*
G02X3990000Y3918650I7071J-7294D01*
G01Y3730230D01*
G02X3972770Y3722940I-10159J4D01*
G03X3924390Y3719810I-22771J-23499D01*
G01X3725610D01*
G03X3674390I-25610J-20370D01*
G01X3475610D01*
G03X3424390I-25610J-20370D01*
G01X3225610D01*
G03X3167320Y3697910I-25606J-20369D01*
G01X3167420Y3695670D01*
X3162820Y3691070D01*
X2921030D01*
G37*
G36*
G01X2109630Y3603710D02*
G02X2092290Y3596520I-10159J-4D01*
G01X2078440Y3610370D01*
X1928440D01*
X1890370Y3648440D01*
Y3831560D01*
X1896580Y3837770D01*
X2017620D01*
G02X2024400Y3820040I3J-10160D01*
G03X2013770Y3791470I21820J-24381D01*
G02X2006370Y3780370I-10075J-1300D01*
G03X1983100Y3756160I8613J-31567D01*
G02X1972440Y3748310I-9900J2281D01*
G03X1971530Y3683000I-2448J-32627D01*
G01X1973770Y3683100D01*
X1987240Y3669630D01*
X2081560D01*
X2109630Y3641560D01*
Y3603710D01*
G37*
G36*
G01X2492870Y3253710D02*
G02X2482720Y3264040I7J10158D01*
G03X2470370Y3290190I-32718J539D01*
G01Y3384790D01*
X2679630D01*
Y3305810D01*
G03X2669750Y3267740I20372J-25604D01*
G02X2660350Y3253710I-9396J-3869D01*
G01X2492870D01*
G37*
G36*
G01X3972770Y3222940D02*
G03X3924390Y3219810I-22771J-23499D01*
G01X3725610D01*
G03X3674390I-25610J-20370D01*
G01X3475610D01*
G03X3448470Y3232120I-25603J-20374D01*
G01X3446230Y3232020D01*
X3393300Y3284950D01*
X3284950D01*
Y3442030D01*
G03X3261530Y3500220I-20367J25611D01*
G02X3250430Y3510580I-944J10115D01*
G03X3249820Y3517710I-32711J793D01*
G02X3259780Y3529840I9966J1971D01*
G01X3340790D01*
X3432630Y3438000D01*
X3579540D01*
G02X3589600Y3426460I-4J-10159D01*
G03X3654650Y3419650I32416J-4447D01*
G02X3664790Y3429070I10134J-741D01*
G01X3674390D01*
G03X3725610I25610J20370D01*
G01X3924390D01*
G03X3972770Y3425940I25609J20369D01*
G02X3990000Y3418650I7071J-7294D01*
G01Y3230230D01*
G02X3972770Y3222940I-10159J4D01*
G37*
G36*
G01X2701820Y2780370D02*
G02X2691910Y2792770I0J10160D01*
G03X2683770Y2822490I-31911J7235D01*
G02X2691150Y2839630I7380J6981D01*
G01X2831560D01*
X2867420Y2803770D01*
X2867320Y2801530D01*
G03X2868090Y2792770I32682J-1541D01*
G02X2858180Y2780370I-9910J-2240D01*
G01X2701820D01*
G37*
G36*
G01X2268440D02*
X2226520Y2822290D01*
G02X2233710Y2839630I7186J7181D01*
G01X2628850D01*
G02X2636230Y2822490I0J-10159D01*
G03X2628090Y2792770I23771J-22485D01*
G02X2618180Y2780370I-9910J-2240D01*
G01X2268440D01*
G37*
G36*
G01X2475610Y2719810D02*
G03X2473360Y2722360I-25629J-20346D01*
G02X2480610Y2739630I7252J7112D01*
G01X2669390D01*
G02X2676640Y2722360I-2J-10158D01*
G03X2674390Y2719810I23380J-22897D01*
G01X2475610D01*
G37*
G36*
G01X3972770Y2722940D02*
G03X3924390Y2719810I-22771J-23499D01*
G01X3741690D01*
G02X3731810Y2732350I-2J10161D01*
G03X3723380Y2762890I-31811J7653D01*
G02Y2777110I7258J7110D01*
G03X3676620I-23380J22890D01*
G02Y2762890I-7258J-7110D01*
G03X3670010Y2726920I23381J-22889D01*
G01X3670430Y2725950D01*
Y2719810D01*
X3661690D01*
G02X3651810Y2732350I-2J10161D01*
G03X3643380Y2762890I-31811J7653D01*
G02Y2777110I7258J7110D01*
G03X3596620I-23380J22890D01*
G02Y2762890I-7258J-7110D01*
G03X3588190Y2732350I23381J-22887D01*
G02X3578310Y2719810I-9878J-2379D01*
G01X2725610D01*
G03X2723360Y2722360I-25630J-20347D01*
G02X2730610Y2739630I7252J7112D01*
G01X3080410D01*
X3097390Y2756610D01*
X3102310D01*
X3103820Y2754950D01*
G03X3102400Y2797350I24190J22034D01*
G01X3080510D01*
X3063530Y2780370D01*
X2941820D01*
G02X2931910Y2792770I0J10160D01*
G03X2898470Y2832680I-31910J7228D01*
G01X2896230Y2832580D01*
X2848440Y2880370D01*
X2218450D01*
X2198990Y2899820D01*
G02X2204710Y2917060I7185J7185D01*
G03X2225610Y2929070I-4707J32381D01*
G01X2424390D01*
G03X2475610I25610J20370D01*
G01X2674390D01*
G03X2701530Y2916760I25603J20374D01*
G01X2703770Y2916860D01*
X2721000Y2899630D01*
X2929000D01*
X2946230Y2916860D01*
X2948470Y2916760D01*
G03X2951530I1530J32680D01*
G01X2953770Y2916860D01*
X2981000Y2889630D01*
X3169000D01*
X3196230Y2916860D01*
X3198470Y2916760D01*
G03X3201530I1530J32680D01*
G01X3203770Y2916860D01*
X3241000Y2879630D01*
X3409000D01*
X3446230Y2916860D01*
X3448470Y2916760D01*
G03X3475610Y2929070I1537J32684D01*
G01X3674390D01*
G03X3722220Y2925420I25609J20369D01*
G01X3927780D01*
G03X3972770Y2925940I22220J24019D01*
G02X3990000Y2918650I7071J-7294D01*
G01Y2730230D01*
G02X3972770Y2722940I-10159J4D01*
G37*
G36*
G01X1971530Y2460370D02*
X1964370Y2467530D01*
Y2642210D01*
X1960370Y2646210D01*
Y2665740D01*
X1958200Y2667900D01*
G02X1966040Y2685230I7184J7188D01*
G03X1980580Y2687630I2079J32651D01*
G02X1994610Y2678230I3869J-9396D01*
G01Y2571670D01*
G03X1992570Y2522220I20369J-25607D01*
G02Y2507420I-6962J-7400D01*
G03X1983810Y2473620I22409J-23843D01*
G02X1974130Y2460370I-9677J-3091D01*
G01X1971530D01*
G37*
G36*
G01X1970370Y1991170D02*
Y2023110D01*
G03X1973780Y2071190I-20370J25606D01*
G02X1981170Y2088330I7385J6979D01*
G01X2039040D01*
X2070990Y2120280D01*
G02X2088330Y2113090I7181J-7186D01*
G01Y2074840D01*
G02X2071350Y2067310I-10159J-1D01*
G03X2078700Y2028560I-21979J-24241D01*
G01X2080100Y2031390D01*
X2088330D01*
Y2018870D01*
X2087760Y2018300D01*
Y2007240D01*
X2054480Y1973960D01*
G02X2038460Y1976140I-7180J7186D01*
G03X1987510Y1983780I-28467J-16131D01*
G02X1970370Y1991170I-6979J7385D01*
G37*
G36*
G01X3981330Y1408060D02*
X3978840Y1410550D01*
X2710700D01*
X2656740Y1464510D01*
X2656840Y1466750D01*
G03X2651080Y1486880I-32683J1537D01*
G02X2654780Y1501680I8359J5773D01*
G03X2659190Y1504420I-15008J29075D01*
G02X2667280Y1500280I3011J-4092D01*
G03X2731910Y1507230I32719J-280D01*
G02X2741820Y1519630I9910J2240D01*
G01X2774390D01*
G03X2825610I25610J20370D01*
G01X2847500D01*
X2857420Y1529550D01*
X2924390D01*
G03X2975610I25610J20370D01*
G01X3174390D01*
G03X3225610I25610J20370D01*
G01X3424390D01*
G03X3475610I25610J20370D01*
G01X3674390D01*
G03X3725610I25610J20370D01*
G01X3924390D01*
G03X3972770Y1526420I25609J20369D01*
G02X3990000Y1519130I7071J-7294D01*
G01Y1411650D01*
G02X3981330Y1408060I-5079J2D01*
G37*
G36*
G01X2425850Y3805650D02*
Y3822150D01*
X2615750D01*
G02X2625150Y3808120I4J-10161D01*
G03X2657490Y3763010I30252J-12459D01*
G02X2668060Y3755070I650J-10141D01*
G03X2679630Y3736550I31944J7083D01*
G01Y3722310D01*
X2488330D01*
Y3738810D01*
G03X2449360Y3791340I-20369J25609D01*
G02X2434560Y3795040I-5773J8359D01*
G03X2425850Y3805650I-29083J-14995D01*
G37*
G36*
G01X2720370Y3722310D02*
Y3736550D01*
G03X2697910Y3794810I-20369J25607D01*
G02X2687340Y3802750I-650J10141D01*
G03X2685650Y3808120I-31938J-7100D01*
G02X2695050Y3822150I9396J3869D01*
G01X2865670D01*
G02X2875070Y3808120I4J-10161D01*
G03X2882910Y3771820I30252J-12463D01*
G02Y3757020I-6962J-7400D01*
G03X2872640Y3731650I22412J-23836D01*
G01X2872740Y3729410D01*
X2865640Y3722310D01*
X2720370D01*
G37*
%LPC*%
G75*
G36*
G01X1591800Y548230D02*
X1591900Y550470D01*
X1572740Y569630D01*
X1498520D01*
X1482580Y553690D01*
X1482680Y551450D01*
G02X1424390Y529550I-32684J-1531D01*
G01X1225610D01*
G02X1174390I-25610J20370D01*
G01X975610D01*
G02X924390I-25610J20370D01*
G01X725610D01*
G02X674390I-25610J20370D01*
G01X475610D01*
G02X424390I-25610J20370D01*
G01X225610D01*
G02Y570290I-25610J20370D01*
G01X424390D01*
G02X475610I25610J-20370D01*
G01X674390D01*
G02X725610I25610J-20370D01*
G01X924390D01*
G02X975610I25610J-20370D01*
G01X1174390D01*
G02X1225610I25610J-20370D01*
G01X1424390D01*
G02X1451530Y582600I25603J-20374D01*
G01X1453770Y582500D01*
X1481640Y610370D01*
X1589620D01*
X1620710Y579280D01*
X1622950Y579380D01*
G02X1591800Y548230I1530J-32680D01*
G37*
G36*
G01X922750Y1500880D02*
G03X934520Y1492260I10063J1394D01*
G02X907590Y1455500I5480J-32259D01*
G03X895820Y1464120I-10063J-1394D01*
G02X882110Y1528050I-5480J32260D01*
G03X889510Y1539890I-2559J9832D01*
G02X929810Y1514710I32071J6489D01*
G03X922410Y1502870I2559J-9832D01*
G02X922750Y1500880I-32068J-6503D01*
G37*
G36*
G01X387870Y1904770D02*
G02X352680Y1899580I-13587J-29768D01*
G03X350190Y1916450I-6706J7629D01*
G02X331650Y1952430I13588J29769D01*
G03X319480Y1964280I-9975J1930D01*
G02X344530Y1990010I-7074J31946D01*
G03X356700Y1978160I9975J-1930D01*
G02X385380Y1921640I7080J-31944D01*
G03X387870Y1904770I6706J-7629D01*
G37*
G36*
G01X1340900Y3273430D02*
G03X1326680Y3271060I-5933J-8247D01*
G02X1319100Y3316570I-26680J18943D01*
G03X1333320Y3318940I5933J8247D01*
G02X1340900Y3273430I26680J-18943D01*
G37*
G36*
G01X362580Y3478810D02*
G03X353600Y3466960I1029J-10107D01*
G02X318040Y3493910I-32238J-5601D01*
G03X327020Y3505760I-1029J10107D01*
G02X362580Y3478810I32238J5601D01*
G37*
G36*
G01X652580Y3492880D02*
G02X629320Y3467990I8781J-31519D01*
G03X616640Y3479840I-9948J2064D01*
G02X639900Y3504730I-8781J31519D01*
G03X652580Y3492880I9948J-2064D01*
G37*
G36*
G01X2649660Y1731830D02*
G02X2627110Y1756330I-32002J-6827D01*
G03X2639980Y1768170I2935J9725D01*
G02X2659900Y1805410I32000J6831D01*
G03X2663340Y1822040I-3745J9446D01*
G01X2615720Y1869650D01*
X2334560D01*
X2268670Y1935540D01*
X2266430Y1935440D01*
G02X2281980Y1996030I-1531J32683D01*
G03X2295030Y1998130I5299J8666D01*
G02X2326060Y2009130I24963J-21152D01*
G03X2337910Y2017130I1885J9985D01*
G02X2402090I32090J-6390D01*
G03X2413940Y2009130I9965J1985D01*
G02X2426240Y2009100I6072J-32151D01*
G03X2438090Y2021320I1943J9972D01*
G02X2463760Y1996440I31909J7240D01*
G03X2451910Y1984220I-1943J-9972D01*
G02X2387910Y1970590I-31912J-7227D01*
G03X2376060Y1978590I-9965J-1985D01*
G02X2363940I-6060J32150D01*
G03X2352090Y1970590I-1885J-9985D01*
G02X2333810Y1947310I-32093J6384D01*
G03X2330910Y1930920I4284J-9209D01*
G01X2351440Y1910390D01*
X2603790D01*
Y1973750D01*
G02X2644530I20370J25610D01*
G01Y1898460D01*
X2722700Y1820290D01*
X2924390D01*
G02X2975610I25610J-20370D01*
G01X3174390D01*
G02X3225610I25610J-20370D01*
G01X3424390D01*
G02X3475610I25610J-20370D01*
G01X3674390D01*
G02X3725610I25610J-20370D01*
G01X3876940D01*
X3888940Y1832290D01*
X3910630D01*
G02X3912050Y1789890I25610J-20366D01*
G01X3910540Y1791550D01*
X3905820D01*
X3893820Y1779550D01*
X3725610D01*
G02X3674390I-25610J20370D01*
G01X3475610D01*
G02X3424390I-25610J20370D01*
G01X3225610D01*
G02X3174390I-25610J20370D01*
G01X2975610D01*
G02X2924390I-25610J20370D01*
G01X2704770D01*
X2704700Y1774540D01*
G02X2662530Y1743670I-32719J458D01*
G03X2649660Y1731830I-2935J-9725D01*
G37*
G54D14*
X2124320Y62480D03*
X3483260Y246780D03*
X2639780D03*
X1620000Y690000D03*
X1421420Y265540D03*
X199910Y1221510D03*
X1233980Y1496380D03*
X1624480Y1655720D03*
X656040Y2046220D03*
X1350000Y1970000D03*
X1300000Y2300000D03*
X937200Y2046220D03*
X1686960D03*
X190820Y2776980D03*
X1874400Y2842840D03*
X971360Y3461360D03*
X1201420Y3511360D03*
X904640D03*
X359260Y3033420D03*
X2180400Y475000D03*
X2624160Y452980D03*
X3700000Y710000D03*
X3060000Y730000D03*
X2880000Y1220000D03*
X3858020Y375000D03*
X3717560Y1718200D03*
X3550000Y1960000D03*
X2264900Y1796300D03*
X3442980Y2522980D03*
X3248960Y3018500D03*
X3200000Y3297920D03*
X3127500Y3410000D03*
X2499200Y3514500D03*
X2610000Y3300000D03*
X3373920Y3373920D03*
X3873760Y1483760D03*
%LPD*%
G75*
G54D10*
X109340Y1040660D03*
X1060000Y1040000D03*
X800000Y960000D03*
X860000D03*
X920000D03*
X980000D03*
X1490000Y1230000D03*
X1180000Y480000D03*
X1500000Y530000D03*
X1421420Y265540D03*
X1374560Y687640D03*
X1358940Y750120D03*
X360000Y1200000D03*
X199910Y1221510D03*
X1450000Y49920D03*
X1200000D03*
X950000D03*
X700000D03*
X450000D03*
X200000D03*
X1450000Y450080D03*
X1200000Y299920D03*
X950000D03*
X700000D03*
X450000D03*
X200000D03*
X1450000Y549920D03*
X1200000D03*
X950000D03*
X700000D03*
X450000D03*
X200000D03*
X1450000Y950080D03*
X1200000Y799920D03*
X950000D03*
X700000D03*
X450000D03*
X200000D03*
X1450000Y1049920D03*
X1200000D03*
X950000D03*
X700000D03*
X450000D03*
X200000D03*
X108740Y1875000D03*
X1374560Y1640100D03*
X1050000Y1933420D03*
X374280Y1875000D03*
X608580D03*
X1499520Y1471180D03*
X874120Y1875000D03*
X190820Y2776980D03*
X1360000Y1470000D03*
X940000Y1460000D03*
X633620Y1446380D03*
X1350000Y1970000D03*
X1300000Y2300000D03*
X940000Y1960000D03*
X661360Y3461360D03*
X971360D03*
X1390000Y3490000D03*
X321360Y3461360D03*
X370000Y2950000D03*
X640000Y2960000D03*
X900000Y2970000D03*
X1380000D03*
X1360000Y2720000D03*
X363780Y1946220D03*
X633780D03*
X373620Y1446380D03*
X1374560Y3549740D03*
X1437040Y3530120D03*
X1480750Y3049050D03*
X108660Y2125000D03*
X1109020Y2452340D03*
X859100Y2405480D03*
X1499520Y1968120D03*
X359260Y2249280D03*
X1124640Y2639780D03*
X550000Y2311400D03*
X1375000Y3437500D03*
X187500Y3500000D03*
X625000Y3750000D03*
X875000Y3687500D03*
X1240000Y3550000D03*
X827860Y3199920D03*
X546700D03*
X249920D03*
X1140260D03*
X1375000Y2475000D03*
X1380000Y2320000D03*
X850000Y2250000D03*
X1100000Y2290000D03*
X870000Y1700000D03*
X620000D03*
X346380Y1546380D03*
X1090000Y1730000D03*
X200000Y2010000D03*
X590000Y2220000D03*
X1060000Y2010000D03*
X880000Y2060000D03*
X1421420Y3041560D03*
X1300000Y3290000D03*
X1218360Y2795980D03*
X164360Y2522980D03*
X905960Y3033420D03*
X1218360D03*
X1201420Y3511360D03*
X904640D03*
X607860D03*
X359260D03*
Y3033420D03*
X640420Y3030280D03*
X1200000Y2050560D03*
X950000Y2199440D03*
X700000D03*
X450000D03*
X200000D03*
X654220Y3262760D03*
X1450000Y2050560D03*
X1200000Y2433980D03*
X950000Y2310000D03*
X700000Y2300560D03*
X450000D03*
X125560Y2375000D03*
X357440Y3262760D03*
X1370000Y2200000D03*
X875560Y2625000D03*
X625560D03*
X375560D03*
X125560D03*
X1200000Y2699520D03*
X1375400Y2625000D03*
X450000Y2949440D03*
X125560Y2875000D03*
X593560Y3295820D03*
X700000Y2949440D03*
X950000D03*
X1200000D03*
X1374560Y2795980D03*
X1380000Y3200000D03*
X1200000Y3199360D03*
X450000Y3183500D03*
X125560Y3125000D03*
X890340Y3295820D03*
X700000Y3214820D03*
X1360000Y3300000D03*
X875560Y3375000D03*
X625560D03*
X375560D03*
X125560D03*
X1200000Y3298560D03*
X1124640Y3295820D03*
X1450000Y3699440D03*
X1200000D03*
X950000D03*
X700000D03*
X450000D03*
X200000D03*
X1120000Y1320000D03*
X890340Y1496380D03*
X1233980D03*
X1171500Y1996220D03*
X874720D03*
X593560D03*
X312400D03*
X390500Y1496380D03*
X671660D03*
X624800Y1546380D03*
X187440Y1483900D03*
X374880Y2046220D03*
X656040D03*
X937200D03*
X1450000Y1299920D03*
X1200000D03*
X950000D03*
X700000D03*
X450000D03*
X200000D03*
X1120000Y1820000D03*
X1200000Y1700080D03*
X950000D03*
X1450000Y1549040D03*
X450000Y1700080D03*
X200000Y1549920D03*
X700000Y1700080D03*
X1450000Y1799920D03*
X1200000D03*
X950000D03*
X700000D03*
X450000D03*
X200000D03*
X921580Y1546380D03*
X1450000Y3949440D03*
X1200000D03*
X950000D03*
X700000D03*
X450000D03*
X200000D03*
X2249280Y984060D03*
X2124320Y1046540D03*
X1624480Y1249600D03*
X2420000Y1219460D03*
X2170000Y266720D03*
X2311760Y452980D03*
X2180400Y475000D03*
X1620000Y690000D03*
X3376550Y550000D03*
X3646550D03*
X3280000Y700000D03*
X3700000Y710000D03*
X3251200Y203200D03*
X3683000Y215900D03*
X3059700Y40300D03*
X2700000Y200000D03*
X2760000Y520000D03*
X3010000Y530000D03*
X3256780Y296780D03*
X3513220D03*
X3256620Y796620D03*
X3526620D03*
X2860000Y450000D03*
X2430000Y710000D03*
X1910000Y500000D03*
X1960000D03*
X2010000D03*
X1910000Y550000D03*
X1960000D03*
X2010000D03*
X1910000Y700000D03*
X1960000D03*
X2020000D03*
X2506780Y296780D03*
X2590000Y700000D03*
X2890000D03*
X3858140Y1233980D03*
X1970000Y782880D03*
X2880000Y1220000D03*
X2880320Y999680D03*
X2061840Y203060D03*
X2952180Y246780D03*
X2317660Y725000D03*
X2639780Y246780D03*
X2371980Y775000D03*
X2655400Y746620D03*
X2202420Y952820D03*
X2936560Y746620D03*
X2120000Y976980D03*
X3217720Y746620D03*
X2070000Y1023460D03*
X3498880Y746620D03*
X2020000Y979040D03*
X3483260Y246780D03*
X1970000Y247780D03*
X3217720Y246780D03*
X2020000Y282160D03*
X3950000Y49920D03*
X3700000D03*
X3450000D03*
X3200000D03*
X2950000D03*
X2450000D03*
X2200000D03*
X2702260Y31240D03*
X2233660Y265540D03*
X2450000Y299920D03*
X2700000D03*
X2950000D03*
X3950000D03*
X3700000D03*
X3405160Y499840D03*
X3124000Y500000D03*
X2624160Y452980D03*
X2311760Y515460D03*
X2950000Y549920D03*
X2700000D03*
X2450000D03*
X3250000Y540000D03*
X3700000Y549920D03*
X3950000D03*
X3444010Y454010D03*
X3030000Y799920D03*
X3700000D03*
X3950000D03*
X2327380Y968440D03*
X2700000Y799920D03*
X2450000D03*
X3450000Y810000D03*
X2171180Y1015300D03*
X3950000Y1049920D03*
X3700000D03*
X3450000D03*
X3200000D03*
X2950000D03*
X2700000D03*
X2450000D03*
X3060000Y730000D03*
X2717880Y468600D03*
X2983420D03*
X2858460Y78100D03*
X3373920Y93720D03*
X1624480Y1187120D03*
X3858020Y375000D03*
X1998480Y1264340D03*
X2124320Y62480D03*
X1905640Y1265220D03*
X3117420Y71520D03*
X2369880Y1015300D03*
X2374240Y109820D03*
X2370000Y1253840D03*
X2264900Y1249600D03*
X2046220Y46860D03*
X1700000Y200000D03*
Y299920D03*
X1874400Y265540D03*
X1624480Y546700D03*
X1968120Y952820D03*
X1700000Y950080D03*
X1950000Y1218360D03*
X1700000Y1049920D03*
X2108700Y2218040D03*
X3248960Y3018500D03*
X1624480Y1655720D03*
X3514500Y3002880D03*
X2655400Y3511360D03*
X2014980Y3748800D03*
X2936560Y3511360D03*
X2046220Y3795660D03*
X1873880Y1625000D03*
X2249280Y2296140D03*
X3217720Y3511360D03*
X2390000Y3550000D03*
X2717180Y3015360D03*
X2952180Y3018500D03*
X2374240Y3311440D03*
X3373920Y3373920D03*
X2171180Y3467640D03*
X2450000Y3264580D03*
X2700000Y3280200D03*
X3700000Y3449440D03*
X3950000D03*
X2983420Y3467640D03*
X3200000Y3297920D03*
X1608420Y1375000D03*
X2139940Y2296140D03*
X3733180Y3045900D03*
X3950000Y2449440D03*
X3700000Y2300560D03*
X3450000D03*
X3200000D03*
X2950000D03*
X2700000Y2449440D03*
X2450000D03*
X2200000D03*
X3950000Y2949440D03*
X3140000Y3760000D03*
X3700000Y2949440D03*
X3450000D03*
X3200000D03*
X2950000D03*
X2700000D03*
X2450000D03*
X2200000D03*
X2171180Y3233340D03*
X2450000Y3199440D03*
X2700000D03*
X2950000D03*
X3200000D03*
X3450000D03*
X3700000D03*
X3950000D03*
X3264580Y3467640D03*
X3128010Y2776980D03*
X2070000Y3210260D03*
X1820000Y2038140D03*
X2093080Y3045900D03*
X1870000Y2066240D03*
X2218040Y3030280D03*
X2470000Y1267260D03*
X3442980Y2522980D03*
X1999360Y2218040D03*
X2319040Y3225000D03*
X2624160Y1468280D03*
X2900000Y2800000D03*
X1970000Y3715680D03*
X2700000Y1500000D03*
X1861930Y1530760D03*
X3127500Y3410000D03*
X3622020Y3422020D03*
X3670000Y3010000D03*
X3350000Y2950000D03*
X2760000Y2980000D03*
X3000000D03*
X3700000Y2740000D03*
X3620000D03*
X3700000Y2800000D03*
X3620000D03*
X2660000D03*
X1830000Y3460000D03*
X1820000Y3300000D03*
X2171180Y3289760D03*
X2610000Y3300000D03*
X3873760Y1483760D03*
X2093080Y2983420D03*
X1952500Y2795980D03*
X3124000Y2967800D03*
X2200000Y2262480D03*
X3950000Y2199440D03*
X3700000Y2050560D03*
X3450000D03*
X3200000D03*
X2950000D03*
X2700000Y2199440D03*
X2450000D03*
X3800000Y3795660D03*
X3550000D03*
X3300000D03*
X3050000D03*
X2702260Y3545740D03*
X2499200Y3514500D03*
X2325030Y3282550D03*
X1874400Y2842840D03*
X1600000Y1770000D03*
X1624480Y3045900D03*
X1968120Y2717880D03*
X1733820Y3030280D03*
X2130000Y2470000D03*
X2190000Y1550000D03*
X2240000D03*
X2190000Y1500000D03*
X2240000D03*
X2350000Y1550000D03*
Y1500000D03*
X2874080Y3639460D03*
X3108380Y3248960D03*
X2624160Y3186480D03*
X3373920Y3639460D03*
X3124000Y3623840D03*
X2624160Y3639460D03*
X2874080Y3170860D03*
X3373920D03*
X2330000Y3450000D03*
X2090000Y3300000D03*
X2060000Y3450000D03*
Y3500000D03*
X1910000Y3300000D03*
X2010000Y3450000D03*
X1960000D03*
X1910000D03*
X2010000Y3500000D03*
X1960000D03*
X1910000D03*
X1660000Y2500000D03*
X1600000D03*
X1720000D03*
X1600000Y2450000D03*
X1660000D03*
X1720000D03*
X1600000Y2300000D03*
X1720000D03*
X1640000Y1510000D03*
X3950000Y2699440D03*
X3624680Y2625000D03*
X3374760D03*
X3124840D03*
X2700000Y2699440D03*
X2450000D03*
X2200000D03*
X2858460Y2530440D03*
X2717880Y3452020D03*
X2108700Y1280840D03*
X2514820Y1296460D03*
X2700000Y1299920D03*
X2950000D03*
X3200000D03*
X3450000D03*
X3700000D03*
X3950000D03*
X2800000Y1540000D03*
X2950000Y1549920D03*
X3200000D03*
X3450000D03*
X3700000D03*
X3950000D03*
X2124840Y1625000D03*
X2639780Y1530760D03*
X2264900Y1968120D03*
X2624160Y1999360D03*
X3936240Y1811920D03*
X3700000Y1799920D03*
X3450000D03*
X3200000D03*
X2950000D03*
X1655720Y2780360D03*
X1770000Y2010000D03*
X3717560Y1718200D03*
X3550000Y1960000D03*
X2014980Y2483580D03*
Y2546060D03*
X1888820Y2717880D03*
X1843160Y2764740D03*
X1765060Y2749120D03*
X1720000Y2778560D03*
X1686960Y2046220D03*
X2009990Y1960010D03*
X1950000Y2048720D03*
X1530760Y2233660D03*
X2014980Y2296140D03*
X2077460Y2733500D03*
X2014980Y2795980D03*
X1749440Y2952180D03*
X1827540Y3045900D03*
X1600000Y3200000D03*
X1660000Y3480000D03*
X1843160Y3233340D03*
X1829000Y3545000D03*
X1700000Y3699440D03*
X1827540Y3748800D03*
X2264900Y1796300D03*
X2139940Y3795660D03*
X2405480Y3780040D03*
X3700000Y3797600D03*
X3450000D03*
X3200000D03*
X2655400Y3795660D03*
X2905320D03*
X2049370Y2043070D03*
X2171180Y1983740D03*
X2617660Y1725000D03*
X2671980Y1775000D03*
X2470000Y2028560D03*
X2420000Y1976980D03*
X2370000Y2010740D03*
X2320000Y1976980D03*
Y1282160D03*
X3950000Y3699440D03*
X3700000D03*
X3450000D03*
X3200000D03*
X2905320Y3733180D03*
X2700000Y3762160D03*
X2467960Y3764420D03*
X2218040D03*
X2505480Y3008380D03*
X1950000Y1299920D03*
X1700000D03*
X1950000Y1548880D03*
X1700000Y1548960D03*
Y1799920D03*
X1952500Y3967480D03*
X1874400D03*
X1796300D03*
X2276800Y3950400D03*
X1700000Y3949440D03*
X3950000D03*
G54D11*
G01X700000Y3214820D02*
Y3125000D01*
G01X3700000Y2949440D02*
X3950000D01*
G54D12*
G01X1624480Y1249600D02*
X1524880Y1150000D01*
X130000D01*
X100000Y1180000D01*
Y1370000D01*
X135800Y1405800D01*
X415800D01*
X480000Y1470000D01*
Y1600000D01*
X420000Y1660000D01*
X110000D01*
X60000Y1710000D01*
Y2020000D01*
X122570Y2082570D01*
X497430D01*
X530000Y2050000D01*
Y1953580D01*
X608580Y1875000D01*
G01X390500Y1496380D02*
Y1569500D01*
X351140Y1608860D01*
X93720D01*
X62480Y1577620D01*
Y1046540D01*
X72990Y1036030D01*
Y1025600D01*
X94280Y1004310D01*
X104710D01*
X109340Y999680D01*
X600320D01*
X700000Y900000D01*
X1290500D01*
X1390500Y1000000D01*
X1730000D01*
X1912010Y1182010D01*
X2197310D01*
X2264900Y1249600D01*
G01X1450000Y49920D02*
X1700000D01*
G01X1200000D02*
X1450000D01*
G01X950000D02*
X1200000D01*
G01X700000D02*
X950000D01*
G01X450000D02*
X700000D01*
G01X200000D02*
X450000D01*
G01X1700000Y299920D02*
Y393080D01*
X1643000Y450080D01*
X1450000D01*
G01D02*
X1246700D01*
X1200000Y403380D01*
Y299920D01*
G01X950000D02*
X1200000D01*
G01X700000D02*
X950000D01*
G01X450000D02*
X700000D01*
G01X200000D02*
X450000D01*
G01X1200000Y549920D02*
X1450000D01*
G01X950000D02*
X1200000D01*
G01X700000D02*
X950000D01*
G01X450000D02*
X700000D01*
G01X200000D02*
X450000D01*
G01X1624480Y546700D02*
X1581180Y590000D01*
X1490080D01*
X1450000Y549920D01*
G01Y950080D02*
Y840820D01*
X1409100Y799920D01*
X1200000D01*
G01X1450000Y950080D02*
X1700000D01*
G01X950000Y799920D02*
X1200000D01*
G01X700000D02*
X950000D01*
G01X450000D02*
X700000D01*
G01X200000D02*
X450000D01*
G01X1450000Y1049920D02*
X1700000D01*
G01X1200000D02*
X1450000D01*
G01X700000D02*
X950000D01*
G01X450000D02*
X700000D01*
G01X200000D02*
X450000D01*
G01X950000D02*
X998770Y1001150D01*
X1151240D01*
X1162470Y1012380D01*
Y1012390D01*
X1200000Y1049920D01*
G01X2108700Y2218040D02*
Y2010430D01*
X2108130Y2009860D01*
Y1998800D01*
X2014980Y1905650D01*
Y1504980D01*
X1942330Y1432330D01*
X1346260D01*
X1323650Y1454940D01*
Y1589190D01*
X1374560Y1640100D01*
G01X2702260Y3545740D02*
X2649150Y3598850D01*
X2231160D01*
X2101090Y3728920D01*
Y3818880D01*
X2061840Y3858140D01*
X1888140D01*
X1870000Y3840000D01*
Y3640000D01*
X1920000Y3590000D01*
X2070000D01*
X2098850Y3561150D01*
Y3433900D01*
X2076100Y3411150D01*
X1788850D01*
X1760000Y3440000D01*
Y3472700D01*
X1702580Y3530120D01*
X1437040D01*
G01X108660Y2125000D02*
X695000D01*
X740000Y2080000D01*
Y1886150D01*
X790000Y1836150D01*
X890220D01*
X914070Y1860000D01*
X1510000D01*
X1600000Y1770000D01*
G01X859100Y2405480D02*
X1062160D01*
X1109020Y2452340D01*
G01X1655720Y2780360D02*
X1437040D01*
X1394050Y2737370D01*
X1375060Y2756350D01*
X1344940D01*
X1323650Y2735060D01*
Y2717880D01*
X1296460D01*
X1218360Y2795980D01*
G01X1770000Y2010000D02*
Y2129260D01*
X1796300Y2155560D01*
X2014980D01*
X2041180Y2181760D01*
Y2269510D01*
X2053830Y2282160D01*
Y2397300D01*
X2041130Y2410000D01*
X1955330D01*
X1917300Y2448030D01*
Y2622700D01*
X1900000Y2640000D01*
X1460000D01*
X1400000Y2580000D01*
X1096100D01*
X999680Y2483580D01*
X609180D01*
X569780Y2522980D01*
X164360D01*
G01X1218360Y3033420D02*
X1306240Y3121300D01*
X2017900D01*
X2053830Y3085370D01*
Y3034760D01*
X2030000Y3010930D01*
Y2854660D01*
X2053830Y2830830D01*
Y2764820D01*
X2014980Y2725970D01*
Y2546060D01*
G01X950000Y2199440D02*
X1051120D01*
X1200000Y2050560D01*
G01X700000Y2199440D02*
X780000D01*
G01X200000D02*
X450000D01*
G01X780000D02*
X950000D01*
G01X700000D02*
X660560Y2160000D01*
X489440D01*
X450000Y2199440D01*
G01X780000D02*
Y1960000D01*
X820000Y1920000D01*
X959990D01*
X985420Y1894570D01*
X1450000D01*
G01D02*
X1874570D01*
X1950000Y1970000D01*
Y2048720D01*
G01X1450000Y2050560D02*
Y1894570D01*
G01X200000Y2199440D02*
X30000Y2369440D01*
Y3220000D01*
X146150Y3336150D01*
X619890D01*
X654220Y3301820D01*
Y3262760D01*
G01X1530760Y2233660D02*
Y2349240D01*
X1446020Y2433980D01*
X1200000D01*
G01X950000Y2310000D02*
X959440D01*
X1009440Y2360000D01*
X1126020D01*
X1200000Y2433980D01*
G01X125560Y2375000D02*
X375560D01*
X450000Y2300560D01*
G01X1370000Y2200000D02*
X1497100D01*
X1530760Y2233660D01*
G01X700000Y2300560D02*
X901500D01*
X910940Y2310000D01*
X950000D01*
G01X700000Y2300560D02*
X671990Y2272550D01*
X478010D01*
X450000Y2300560D01*
G01X125560Y2375000D02*
X60000Y2440560D01*
Y3184000D01*
X138760Y3262760D01*
X357440D01*
G01X625560Y2625000D02*
X875560D01*
G01X375560D02*
X625560D01*
G01X125560D02*
X375560D01*
G01X1200000Y2699520D02*
X950080D01*
X875560Y2625000D01*
G01X1375400D02*
X1274520D01*
X1200000Y2699520D01*
G01X2077460Y2733500D02*
Y2517450D01*
X2053830Y2493820D01*
Y2452700D01*
X2041130Y2440000D01*
X1963090D01*
X1944000Y2459090D01*
Y2633770D01*
X1940000Y2637770D01*
Y2657300D01*
X1927300Y2670000D01*
X1420400D01*
X1375400Y2625000D01*
G01X125560Y2875000D02*
X89210Y2911350D01*
Y3140060D01*
X90000Y3140850D01*
Y3145660D01*
X105690Y3161350D01*
X140620D01*
X140900Y3161070D01*
X310700D01*
X388400Y3238770D01*
X583370D01*
X593560Y3248960D01*
Y3295820D01*
G01X125560Y2875000D02*
X375560D01*
X450000Y2949440D01*
G01X950000Y2854040D02*
X700000D01*
G01X950000Y2949440D02*
Y2854040D01*
G01X930850Y2949440D02*
X950000D01*
G01X1210000Y2854040D02*
X950000D01*
G01X1200000Y2949440D02*
Y2864040D01*
X1210000Y2854040D01*
G01X1380000D02*
X1210000D01*
G01X1374560Y2795980D02*
Y2848600D01*
X1380000Y2854040D01*
G01D02*
X1651300D01*
X1749440Y2952180D01*
G01X700000Y2854040D02*
X545400D01*
X450000Y2949440D01*
G01X700000Y2854040D02*
Y2949440D01*
G01X1125640Y3125000D02*
Y3029290D01*
X1166620Y2988290D01*
X1238280D01*
X1256340Y3006350D01*
X1405220D01*
X1406360Y3005210D01*
X1436480D01*
X1437620Y3006350D01*
X1583660D01*
X1598980Y2991030D01*
X1765540D01*
X1768280Y2988290D01*
X1769930D01*
X1827540Y3045900D01*
G01X1380000Y3200000D02*
X1239700D01*
X1239060Y3199360D01*
X1200000D01*
G01X1125640Y3125000D02*
X890000D01*
G01X125560D02*
X391500D01*
G01D02*
X450000Y3183500D01*
G01X1125640Y3125000D02*
X1200000Y3199360D01*
G01X890000Y3125000D02*
X700000D01*
G01X890340Y3295820D02*
Y3125340D01*
X890000Y3125000D01*
G01X700000D02*
X391500D01*
G01X1600000Y3200000D02*
X1380000D01*
G01X875560Y3375000D02*
X1202740D01*
G01X625560D02*
X875560D01*
G01X375560D02*
X625560D01*
G01X125560D02*
X375560D01*
G01X1202740D02*
X1594320D01*
G01X1200000Y3298560D02*
Y3372260D01*
X1202740Y3375000D01*
G01X700000Y3699440D02*
X739060D01*
X739350Y3699730D01*
X769730D01*
X810000Y3740000D01*
X909440D01*
X950000Y3699440D01*
G01X1450000D02*
X1700000D01*
G01X1200000D02*
X1450000D01*
G01X950000D02*
X1200000D01*
G01X450000D02*
X700000D01*
G01X200000D02*
X450000D01*
G01X671660Y1496380D02*
Y1418340D01*
X707300Y1382700D01*
X1137310D01*
X1160010Y1360000D01*
X1572010D01*
X1593360Y1338650D01*
X1623480D01*
X1644830Y1360000D01*
X1985600D01*
X2046220Y1299380D01*
Y1231060D01*
X2066530Y1210750D01*
X2147950D01*
X2171180Y1233980D01*
Y1275740D01*
X2183890Y1288450D01*
X2281000D01*
X2287290Y1282160D01*
X2320000D01*
G01X1200000Y1299920D02*
X1450000D01*
G01X700000D02*
X950000D01*
G01X450000D02*
X700000D01*
G01X200000D02*
X450000D01*
G01X950000D02*
X989060D01*
X1008980Y1280000D01*
X1141020D01*
X1160940Y1299920D01*
X1200000D01*
G01X1450000D02*
X1700000D01*
G01X950000Y1700080D02*
X910080Y1740000D01*
X700000D01*
G01X1450000Y1549040D02*
X1550000D01*
G01X1200000Y1700080D02*
X1239920Y1740000D01*
X1460000D01*
X1550000Y1650000D01*
Y1549040D01*
G01X700000Y1740000D02*
X489920D01*
X450000Y1700080D01*
G01X700000D02*
Y1740000D01*
G01X1200000Y1799920D02*
X1450000D01*
G01X700000D02*
X950000D01*
G01X450000D02*
X700000D01*
G01X200000D02*
X450000D01*
G01X1200000D02*
X1172380Y1772300D01*
X977620D01*
X950000Y1799920D01*
G01X1700000D02*
X1630080Y1730000D01*
X1519920D01*
X1450000Y1799920D01*
G01Y3949440D02*
X1700000D01*
G01X1200000D02*
X1450000D01*
G01X950000D02*
X1200000D01*
G01X734140Y3951860D02*
X947580D01*
X950000Y3949440D01*
G01X700000D02*
X950000D01*
G01X450000D02*
X700000D01*
G01X200000D02*
X450000D01*
G01X2470000Y1267260D02*
Y1173540D01*
X2446460Y1150000D01*
X1955720D01*
X1740000Y934280D01*
Y370000D01*
X1790000Y320000D01*
X1802270D01*
X1802740Y319530D01*
X2037580D01*
X2090390Y266720D01*
X2170000D01*
G01X2311760Y452980D02*
Y413920D01*
X2310000Y412160D01*
Y360000D01*
X2296210Y346210D01*
X2048660D01*
X2048640Y346230D01*
X1813800D01*
X1813330Y346700D01*
X1813300D01*
X1770000Y390000D01*
Y926520D01*
X1963480Y1120000D01*
X3650440D01*
X3686320Y1155880D01*
Y1233980D01*
X3713410Y1261070D01*
X3716100D01*
X3727860Y1272830D01*
X3881770D01*
X3920620Y1233980D01*
X3967480D01*
X3988850Y1255350D01*
Y1371730D01*
X3970400Y1390180D01*
X2702260D01*
X2624160Y1468280D01*
G01X3858140Y1233980D02*
X3819080D01*
X3780040Y1194940D01*
Y1124640D01*
X3744170Y1088770D01*
X1994720D01*
X1929270Y1023320D01*
Y823610D01*
X1970000Y782880D01*
G01X2880320Y999680D02*
X3920620D01*
X3988850Y931450D01*
Y255670D01*
X3891080Y157900D01*
X2107000D01*
X2061840Y203060D01*
G01X2202420Y952820D02*
X2228540Y926700D01*
X2261060D01*
X2262560Y925200D01*
X2344800D01*
X2410830Y859170D01*
Y779160D01*
X2443370Y746620D01*
X2655400D01*
G01X2120000Y976980D02*
Y920000D01*
X2140000Y900000D01*
X2250000D01*
X2278810Y871190D01*
Y702140D01*
X2330950Y650000D01*
X2650000D01*
X2746620Y746620D01*
X2936560D01*
G01X3217720D02*
X3101100Y630000D01*
X2667760D01*
X2661060Y623300D01*
X2319890D01*
X2318390Y624800D01*
X2310000D01*
X2250000Y684800D01*
Y830000D01*
X2220000Y860000D01*
X2130000D01*
X2070000Y920000D01*
Y1023460D01*
G01X2020000Y979040D02*
Y910000D01*
X2096700Y833300D01*
X2196700D01*
X2220000Y810000D01*
Y663560D01*
X2290000Y593560D01*
X3233340D01*
X3386400Y746620D01*
X3498880D01*
G01X3700000Y49920D02*
X3950000D01*
G01X3450000D02*
X3700000D01*
G01X3200000D02*
X3450000D01*
G01X2450000D02*
X2702260D01*
G01X2200000D02*
X2450000D01*
G01X2702260Y31240D02*
Y49920D01*
G01D02*
Y92260D01*
X2730000Y120000D01*
X2950000D01*
G01D02*
X3160000D01*
X3200000Y80000D01*
Y49920D01*
G01X2950000D02*
Y120000D01*
G01X2700000Y299920D02*
X2664290Y335630D01*
X2490680D01*
X2467930Y312880D01*
Y299920D01*
X2450000D01*
G01D02*
X2268040D01*
X2233660Y265540D01*
G01X2950000Y299920D02*
X2700000D01*
G01X3950000D02*
X3700000D01*
G01D02*
X3649920Y350000D01*
X3410000D01*
G01D02*
X3170010D01*
G01X3405160Y499840D02*
Y354840D01*
X3410000Y350000D01*
G01X3170010D02*
X3124000Y396010D01*
Y500000D01*
G01X3170010Y350000D02*
X3119930Y299920D01*
X2950000D01*
G01X2700000Y549920D02*
X2739060D01*
X2749140Y560000D01*
X2900860D01*
X2910940Y549920D01*
X2950000D01*
G01X3250000Y540000D02*
X3210940D01*
X3184590Y566350D01*
X2966430D01*
X2950000Y549920D01*
G01X2450000D02*
X2346220D01*
X2311760Y515460D01*
G01X2450000Y549920D02*
X2700000D01*
G01X3700000D02*
X3950000D01*
G01X3700000D02*
X3629920Y620000D01*
X3330000D01*
X3250000Y540000D01*
G01X3444010Y454010D02*
X3604090D01*
X3700000Y549920D01*
G01Y799920D02*
X3619920Y880000D01*
X3455490D01*
G01X3950000Y799920D02*
X3700000D01*
G01X3030000D02*
X2700000D01*
G01D02*
X2450000D01*
G01D02*
Y923920D01*
X2405480Y968440D01*
X2327380D01*
G01X3455490Y880000D02*
X3130000D01*
X3049920Y799920D01*
X3030000D01*
G01X3450000Y810000D02*
Y874510D01*
X3455490Y880000D01*
G01X2450000Y1049920D02*
X2390210D01*
X2385980Y1054150D01*
X2353780D01*
X2349550Y1049920D01*
X2205800D01*
X2171180Y1015300D01*
G01X3700000Y1049920D02*
X3950000D01*
G01X3450000D02*
X3700000D01*
G01X3200000D02*
X3450000D01*
G01X2950000D02*
X3200000D01*
G01X2700000D02*
X2950000D01*
G01X2450000D02*
X2700000D01*
G01X1700000Y49920D02*
X2004100D01*
X2007160Y46860D01*
X2046220D01*
G01X1700000Y200000D02*
Y49920D01*
G01X1874400Y265540D02*
X1734380D01*
X1700000Y299920D01*
G01X1950000Y1218360D02*
X1749440D01*
X1700000Y1168920D01*
Y1049920D01*
G01X3950000Y3449440D02*
X3700000D01*
G01X2440000Y3405160D02*
X2700000D01*
G01X2450000Y3264580D02*
Y3395160D01*
X2440000Y3405160D01*
G01X2700000Y3280200D02*
Y3405160D01*
G01X2171180Y3467640D02*
Y3428580D01*
X2201130Y3398630D01*
X2328580D01*
X2335110Y3405160D01*
X2440000D01*
G01X3700000Y3449440D02*
X3646010D01*
X3637080Y3458370D01*
X3441070D01*
X3349230Y3550210D01*
X3170200D01*
X3025150Y3405160D01*
X2980000D01*
G01D02*
X2700000D01*
G01X2983420Y3467640D02*
Y3408580D01*
X2980000Y3405160D01*
G01X2139940Y2296140D02*
Y2257080D01*
X2155560Y2241460D01*
Y2195550D01*
X2140000Y2179990D01*
Y2003970D01*
X2134830Y1998800D01*
Y1984840D01*
X2046210Y1896220D01*
Y1483890D01*
X1964940Y1402620D01*
X1636040D01*
X1608420Y1375000D01*
G01X2450000Y2449440D02*
X2700000D01*
G01X2200000D02*
X2450000D01*
G01X3450000D02*
X3700000D01*
G01X2960000D02*
X2700000D01*
G01X2950000Y2300560D02*
Y2439440D01*
X2960000Y2449440D01*
G01X3200000D02*
X2960000D01*
G01X3200000Y2300560D02*
Y2449440D01*
G01X3450000D02*
X3200000D01*
G01X3450000Y2300560D02*
Y2449440D01*
G01X3700000D02*
X3950000D01*
G01X3700000Y2300560D02*
Y2449440D01*
G01X3450000Y2949440D02*
X3700000D01*
G01X2450000D02*
X2700000D01*
G01X2200000D02*
X2450000D01*
G01X3200000D02*
X3249440Y2900000D01*
X3400560D01*
X3450000Y2949440D01*
G01X3200000D02*
X3160560Y2910000D01*
X2989440D01*
X2950000Y2949440D01*
G01X2700000D02*
X2729440Y2920000D01*
X2920560D01*
X2950000Y2949440D01*
G01X2700000Y3199440D02*
X2666100Y3233340D01*
X2483900D01*
X2450000Y3199440D01*
G01X3700000D02*
X3450000D01*
G01X3950000D02*
X3700000D01*
G01X3450000D02*
X3384860Y3264580D01*
X3265140D01*
X3264580Y3264020D01*
G01X2700000Y3199440D02*
X2733900Y3233340D01*
X2866550D01*
X2900450Y3199440D01*
X2950000D01*
G01X2171180Y3233340D02*
X2233660Y3170860D01*
X2421420D01*
X2450000Y3199440D01*
G01X3264580Y3264020D02*
X3200000Y3199440D01*
G01X3264580Y3467640D02*
Y3264020D01*
G01X3128010Y2776980D02*
X3088950D01*
X3071970Y2760000D01*
X2260000D01*
X2133300Y2886700D01*
Y3146960D01*
X2070000Y3210260D01*
G01X2093080Y3045900D02*
Y3038370D01*
X2080530Y3025820D01*
Y3023700D01*
X2056700Y2999870D01*
Y2865720D01*
X2080530Y2841890D01*
Y2839770D01*
X2117490Y2802810D01*
Y2512440D01*
X2090000Y2484950D01*
Y2280570D01*
X2067880Y2258450D01*
Y2145980D01*
X2030600Y2108700D01*
X1851240D01*
X1820000Y2077460D01*
Y2038140D01*
G01X2900000Y2800000D02*
X2840000Y2860000D01*
X2210010D01*
X2160000Y2910010D01*
Y3160010D01*
X2124780Y3195230D01*
Y3225220D01*
X2090000Y3260000D01*
X2060000D01*
X2040000Y3280000D01*
Y3350000D01*
X2060000Y3370000D01*
X2094780D01*
X2130000Y3405220D01*
Y3650000D01*
X2090000Y3690000D01*
X1995680D01*
X1970000Y3715680D01*
G01X3551120Y2199440D02*
X3950000D01*
G01X3051120D02*
X3301120D01*
G01X2801120D02*
X3051120D01*
G01X2450000D02*
X2700000D01*
G01X2801120D02*
X2950000Y2050560D01*
G01X2801120Y2199440D02*
X2700000D01*
G01X3051120D02*
X3200000Y2050560D01*
G01X3301120Y2199440D02*
X3450000Y2050560D01*
G01X3551120Y2199440D02*
X3700000Y2050560D01*
G01X3551120Y2199440D02*
X3301120D01*
G01X2450000D02*
X2263040D01*
X2200000Y2262480D01*
G01X2700000Y2699440D02*
X2858460D01*
G01X2450000D02*
X2700000D01*
G01X2200000D02*
X2450000D01*
G01X2858460D02*
X3130000D01*
G01X2858460Y2530440D02*
Y2699440D01*
G01X3130000D02*
X3380000D01*
G01X3124840Y2625000D02*
Y2694280D01*
X3130000Y2699440D01*
G01X3380000D02*
X3620000D01*
G01X3374760Y2625000D02*
Y2694200D01*
X3380000Y2699440D01*
G01X3620000D02*
X3950000D01*
G01X3624680Y2625000D02*
Y2694760D01*
X3620000Y2699440D01*
G01X2700000Y1299920D02*
X2557340D01*
X2553880Y1296460D01*
X2514820D01*
G01X2950000Y1299920D02*
X2700000D01*
G01X3200000D02*
X2950000D01*
G01X3450000D02*
X3200000D01*
G01X3700000D02*
X3450000D01*
G01X3950000D02*
X3700000D01*
G01X2108700Y1280840D02*
X2151940Y1324080D01*
X2487200D01*
X2514820Y1296460D01*
G01X3200000Y1549920D02*
X2950000D01*
G01X3450000D02*
X3200000D01*
G01X3700000D02*
X3450000D01*
G01X3950000D02*
X3700000D01*
G01X2639780Y1530760D02*
X2679350D01*
X2684940Y1536350D01*
X2693510D01*
X2703540Y1546380D01*
G01D02*
X2624920Y1625000D01*
X2124840D01*
G01X2703540Y1546380D02*
X2709920Y1540000D01*
X2800000D01*
G01D02*
X2839060D01*
X2848980Y1549920D01*
X2950000D01*
G01X2264900Y1968120D02*
X2343000Y1890020D01*
X2624160D01*
G01Y1999360D02*
Y1890020D01*
G01X3700000Y1799920D02*
X3885380D01*
X3897380Y1811920D01*
X3936240D01*
G01X3450000Y1799920D02*
X3700000D01*
G01X3200000D02*
X3450000D01*
G01X2950000D02*
X3200000D01*
G01X2624160Y1890020D02*
X2714260Y1799920D01*
X2950000D01*
G01X1530760Y2233660D02*
X1952500D01*
X2014980Y2296140D01*
G01X1749440Y2952180D02*
X1858780D01*
X2014980Y2795980D01*
G01X1594320Y3375000D02*
Y3414320D01*
X1660000Y3480000D01*
G01X1843160Y3233340D02*
X1796660D01*
X1655000Y3375000D01*
X1594320D01*
G01X1829000Y3545000D02*
Y3661000D01*
X1790560Y3699440D01*
X1700000D01*
G01Y3949440D02*
Y3876340D01*
X1827540Y3748800D01*
G01X2405480Y3780040D02*
Y3838000D01*
X2410000Y3842520D01*
G01X3700000Y3699440D02*
X3950000D01*
G01X3450000D02*
X3700000D01*
G01X3200000D02*
X3450000D01*
G01X2470000Y3701940D02*
X2700000D01*
G01X2874080D02*
X2905320Y3733180D01*
G01X3200000Y3699440D02*
X3171260Y3670700D01*
X2912600D01*
X2881320Y3701940D01*
X2874080D01*
G01X2470000D02*
X2280520D01*
X2218040Y3764420D01*
G01X2467960D02*
Y3703980D01*
X2470000Y3701940D01*
G01X2700000D02*
X2874080D01*
G01X2700000Y3762160D02*
Y3701940D01*
G01X1700000Y1299920D02*
X1727620Y1327540D01*
X1922380D01*
X1950000Y1299920D01*
G01Y1548880D02*
X1918880Y1580000D01*
X1731040D01*
X1700000Y1548960D01*
G01D02*
X1660940D01*
X1660860Y1549040D01*
X1550000D01*
G01X2905320Y3842520D02*
X3200000D01*
G01X2905320D02*
X2650000D01*
G01X2410000D02*
X2186800D01*
X2139940Y3795660D01*
G01X2650000Y3842520D02*
X2410000D01*
G01X2655400Y3795660D02*
Y3837120D01*
X2650000Y3842520D01*
G01X2905320Y3795660D02*
Y3842520D01*
G01X3200000D02*
X3460000D01*
G01X3200000Y3797600D02*
Y3842520D01*
G01X3460000D02*
X3710000D01*
G01X3450000Y3797600D02*
Y3832520D01*
X3460000Y3842520D01*
G01X3710000D02*
X3843080D01*
X3950000Y3949440D01*
G01X3700000Y3797600D02*
Y3832520D01*
X3710000Y3842520D01*
G54D13*
G01X3999990Y3999990D02*
X0D01*
Y0D01*
X3999990D01*
Y3999990D01*
G01X0Y-140000D02*
X-240000D01*
G01X-120000Y-260000D02*
Y-20000D01*
G01X-50000Y-140000D02*
G03I-70000J0D01*
G01X-20000Y-130000D02*
G03I-100000J-10000D01*
G01X-170000Y4130000D02*
G03I-100000J-10000D01*
G01X-200000Y4120000D02*
G03I-70000J0D01*
G01X-270000Y4000000D02*
Y4240000D01*
G01X-150000Y4120000D02*
X-390000D01*
G01X4230000Y-130000D02*
X3990000D01*
G01X4210000Y-120000D02*
G03I-100000J-10000D01*
G01X4110000Y-250000D02*
Y-10000D01*
G01X4180000Y-130000D02*
G03I-70000J0D01*
G01X4290000Y4130000D02*
X4050000D01*
G01X4170000Y4010000D02*
Y4250000D01*
G01X4240000Y4130000D02*
G03I-70000J0D01*
G01X4270000Y4140000D02*
G03I-100000J-10000D01*
M02*
