G04 ================== begin FILE IDENTIFICATION RECORD ==================*
G04 Layout Name:  J:/LED_Panels/LED 8x8 Panel v5.brd*
G04 Film Name:    PWR*
G04 File Format:  Gerber RS274X*
G04 File Origin:  Cadence Allegro 16.6-P004*
G04 Origin Date:  Sun Mar 26 00:02:32 2017*
G04 *
G04 Layer:  VIA CLASS/PWR*
G04 Layer:  PIN/PWR*
G04 Layer:  ETCH/PWR*
G04 Layer:  BOARD GEOMETRY/OUTLINE*
G04 *
G04 Offset:    (0.0000 0.0000)*
G04 Mirror:    No*
G04 Mode:      Positive*
G04 Rotation:  0*
G04 FullContactRelief:  No*
G04 UndefLineWidth:     0.1000*
G04 ================== end FILE IDENTIFICATION RECORD ====================*
%FSLAX25Y25*MOMM*%
%IR0*IPPOS*OFA0.00000B0.00000*MIA0B0*SFA1.00000B1.00000*%
%ADD10C,.4*%
%ADD11C,.1*%
%ADD12C,.6544*%
G75*
%LPD*%
G75*
G36*
G01X40000Y40000D02*
Y3970000D01*
X158400D01*
G02X168260Y3957380I2J-10160D01*
G03X231740I31740J-7940D01*
G02X241600Y3970000I9858J2460D01*
G01X408400D01*
G02X418260Y3957380I2J-10160D01*
G03X481740I31740J-7940D01*
G02X491600Y3970000I9858J2460D01*
G01X658400D01*
G02X668260Y3957380I2J-10160D01*
G03X731740I31740J-7940D01*
G02X741600Y3970000I9858J2460D01*
G01X908400D01*
G02X918260Y3957380I2J-10160D01*
G03X981740I31740J-7940D01*
G02X991600Y3970000I9858J2460D01*
G01X1158400D01*
G02X1168260Y3957380I2J-10160D01*
G03X1231740I31740J-7940D01*
G02X1241600Y3970000I9858J2460D01*
G01X1408400D01*
G02X1418260Y3957380I2J-10160D01*
G03X1481740I31740J-7940D01*
G02X1491600Y3970000I9858J2460D01*
G01X1658400D01*
G02X1668260Y3957380I2J-10160D01*
G03X1731740I31740J-7940D01*
G02X1741600Y3970000I9858J2460D01*
G01X1763330D01*
X1763660Y3965260D01*
G03X1828940I32640J2220D01*
G01X1829270Y3970000D01*
X1841430D01*
X1841760Y3965260D01*
G03X1907040I32640J2220D01*
G01X1907370Y3970000D01*
X1919530D01*
X1919860Y3965260D01*
G03X1985140I32640J2220D01*
G01X1985470Y3970000D01*
X2234970D01*
G02X2244880Y3957600I1J-10159D01*
G03X2308720I31920J-7200D01*
G02X2318630Y3970000I9909J2241D01*
G01X3908400D01*
G02X3918260Y3957380I2J-10160D01*
G03X3949880Y3916720I31741J-7941D01*
G02X3960000Y3906560I-40J-10160D01*
G01Y3742320D01*
G02X3949880Y3732160I-10160J0D01*
G03Y3666720I120J-32720D01*
G02X3960000Y3656560I-40J-10160D01*
G01Y3492320D01*
G02X3949880Y3482160I-10160J0D01*
G03Y3416720I120J-32720D01*
G02X3960000Y3406560I-40J-10160D01*
G01Y3242320D01*
G02X3949880Y3232160I-10160J0D01*
G03Y3166720I120J-32720D01*
G02X3960000Y3156560I-40J-10160D01*
G01Y2992320D01*
G02X3949880Y2982160I-10160J0D01*
G03Y2916720I120J-32720D01*
G02X3960000Y2906560I-40J-10160D01*
G01Y2742320D01*
G02X3949880Y2732160I-10160J0D01*
G03Y2666720I120J-32720D01*
G02X3960000Y2656560I-40J-10160D01*
G01Y2492320D01*
G02X3949880Y2482160I-10160J0D01*
G03Y2416720I120J-32720D01*
G02X3960000Y2406560I-40J-10160D01*
G01Y2242320D01*
G02X3949880Y2232160I-10160J0D01*
G03Y2166720I120J-32720D01*
G02X3960000Y2156560I-40J-10160D01*
G01Y1852590D01*
G02X3946620Y1842950I-10160J-4D01*
G03Y1780890I-10380J-31030D01*
G02X3960000Y1771250I3220J-9636D01*
G01Y1592800D01*
G02X3949880Y1582640I-10160J0D01*
G03Y1517200I120J-32720D01*
G02X3960000Y1507040I-40J-10160D01*
G01Y1342800D01*
G02X3949880Y1332640I-10160J0D01*
G03Y1267200I120J-32720D01*
G02X3960000Y1257040I-40J-10160D01*
G01Y1092800D01*
G02X3949880Y1082640I-10160J0D01*
G03Y1017200I120J-32720D01*
G02X3960000Y1007040I-40J-10160D01*
G01Y842800D01*
G02X3949880Y832640I-10160J0D01*
G03Y767200I120J-32720D01*
G02X3960000Y757040I-40J-10160D01*
G01Y592800D01*
G02X3949880Y582640I-10160J0D01*
G03Y517200I120J-32720D01*
G02X3960000Y507040I-40J-10160D01*
G01Y342800D01*
G02X3949880Y332640I-10160J0D01*
G03Y267200I120J-32720D01*
G02X3960000Y257040I-40J-10160D01*
G01Y92800D01*
G02X3949880Y82640I-10160J0D01*
G03X3917280Y50100I120J-32720D01*
G02X3907120Y40000I-10159J60D01*
G01X3742880D01*
G02X3732720Y50100I-1J10160D01*
G03X3667280I-32720J-180D01*
G02X3657120Y40000I-10159J60D01*
G01X3492880D01*
G02X3482720Y50100I-1J10160D01*
G03X3417280I-32720J-180D01*
G02X3407120Y40000I-10159J60D01*
G01X3242880D01*
G02X3232720Y50100I-1J10160D01*
G03X3167280I-32720J-180D01*
G02X3157120Y40000I-10159J60D01*
G01X3154600D01*
G02X3145790Y55220I0J10160D01*
G03X3089050I-28370J16300D01*
G02X3080240Y40000I-8810J-5060D01*
G01X2992880D01*
G02X2982720Y50100I-1J10160D01*
G03X2917280I-32720J-180D01*
G02X2907120Y40000I-10159J60D01*
G01X2890990D01*
G02X2883280Y56780I-3J10160D01*
G03X2833640I-24820J21320D01*
G02X2825930Y40000I-7707J-6620D01*
G01X2733970D01*
X2732710Y43220D01*
G03X2671810I-30450J-11980D01*
G01X2670550Y40000D01*
X2492880D01*
G02X2482720Y50100I-1J10160D01*
G03X2417280I-32720J-180D01*
G02X2407120Y40000I-10159J60D01*
G01X2242880D01*
G02X2232720Y50100I-1J10160D01*
G03X2167550Y45730I-32719J-180D01*
G01X2167590Y45410D01*
Y40000D01*
X2152800D01*
Y46320D01*
X2153370Y47420D01*
G03X2095270I-29050J15060D01*
G01X2095840Y46320D01*
Y40000D01*
X2088970D01*
G02X2078840Y49380I1J10161D01*
G03X2013600I-32620J-2520D01*
G02X2003470Y40000I-10131J781D01*
G01X1492880D01*
G02X1482720Y50100I-1J10160D01*
G03X1417280I-32720J-180D01*
G02X1407120Y40000I-10159J60D01*
G01X1242880D01*
G02X1232720Y50100I-1J10160D01*
G03X1167280I-32720J-180D01*
G02X1157120Y40000I-10159J60D01*
G01X992880D01*
G02X982720Y50100I-1J10160D01*
G03X917280I-32720J-180D01*
G02X907120Y40000I-10159J60D01*
G01X742880D01*
G02X732720Y50100I-1J10160D01*
G03X667280I-32720J-180D01*
G02X657120Y40000I-10159J60D01*
G01X492880D01*
G02X482720Y50100I-1J10160D01*
G03X417280I-32720J-180D01*
G02X407120Y40000I-10159J60D01*
G01X242880D01*
G02X232720Y50100I-1J10160D01*
G03X167280I-32720J-180D01*
G02X157120Y40000I-10159J60D01*
G01X40000D01*
G37*
%LPC*%
G75*
G36*
G01X2434560Y3795040D02*
G03X2449360Y3791340I9027J4659D01*
G02X2438880Y3749420I18600J-26920D01*
G03X2424080Y3753120I-9027J-4659D01*
G02X2434560Y3795040I-18600J26920D01*
G37*
G36*
G01X2687340Y3802750D02*
G03X2697910Y3794810I9920J2201D01*
G02X2668060Y3755070I2091J-32651D01*
G03X2657490Y3763010I-9920J-2201D01*
G02X2687340Y3802750I-2091J32651D01*
G37*
G36*
G01X2927730Y3771820D02*
G03Y3757020I6962J-7400D01*
G02X2882910I-22410J-23840D01*
G03Y3771820I-6962J7400D01*
G02X2927730I22410J23840D01*
G37*
G36*
G01X1972440Y3748310D02*
G03X1983100Y3756160I760J10131D01*
G02X2006370Y3780370I31883J-7357D01*
G03X2013770Y3791470I-2675J9800D01*
G02X2054830Y3764090I32452J4188D01*
G03X2047430Y3752990I2675J-9800D01*
G02X2012540Y3716170I-32451J-4191D01*
G03X2001880Y3708320I-760J-10131D01*
G02X1972440Y3748310I-31881J7361D01*
G37*
G36*
G01X2698610Y3513220D02*
G03X2687510Y3505080I-1131J-10096D01*
G02X2659050Y3543880I-32112J6284D01*
G03X2670150Y3552020I1131J10096D01*
G02X2698610Y3513220I32112J-6284D01*
G37*
G36*
G01X1243140Y3517430D02*
G03X1233990Y3508280I965J-10115D01*
G02X1198280Y3543930I-32573J3082D01*
G03X1207430Y3553080I-965J10115D01*
G02X1243140Y3517430I32573J-3082D01*
G37*
G36*
G01X3250430Y3510580D02*
G03X3261530Y3500220I10156J-245D01*
G02X3231870Y3468420I3051J-32578D01*
G03X3220770Y3478780I-10156J245D01*
G02X3250430Y3510580I-3051J32578D01*
G37*
G36*
G01X2969270D02*
G03X2980370Y3500220I10156J-245D01*
G02X2950710Y3468420I3051J-32578D01*
G03X2939610Y3478780I-10156J245D01*
G02X2969270Y3510580I-3051J32578D01*
G37*
G36*
G01X1938360Y3425460D02*
G03X1931640I-3360J-3812D01*
G02X1885460Y3471640I-21640J24540D01*
G03Y3478360I-3812J3360D01*
G02X1931640Y3524540I24540J21640D01*
G03X1938360I3360J3812D01*
G02X1981640I21640J-24540D01*
G03X1988360I3360J3812D01*
G02X2031640I21640J-24540D01*
G03X2038360I3360J3812D01*
G02X2084540Y3478360I21640J-24540D01*
G03Y3471640I3812J-3360D01*
G02X2038360Y3425460I-24540J-21640D01*
G03X2031640I-3360J-3812D01*
G02X1988360I-21640J24540D01*
G03X1981640I-3360J-3812D01*
G02X1938360I-21640J24540D01*
G37*
G36*
G01X1340900Y3273430D02*
G03X1326680Y3271060I-5933J-8247D01*
G02X1319100Y3316570I-26680J18943D01*
G03X1333320Y3318940I5933J8247D01*
G02X1340900Y3273430I26680J-18943D01*
G37*
G36*
G01X2346770Y3258090D02*
G03X2345350Y3244460I6747J-7592D01*
G02X2297300Y3249460I-26310J-19458D01*
G03X2298720Y3263090I-6747J7592D01*
G02X2331440Y3314640I26306J19462D01*
G03X2343100Y3321480I1993J9962D01*
G02X2367830Y3279350I31141J-10043D01*
G03X2356170Y3272510I-1993J-9962D01*
G02X2346770Y3258090I-31146J10030D01*
G37*
G36*
G01X2471280Y3239730D02*
G03Y3224290I6610J-7720D01*
G02X2428720I-21280J-24850D01*
G03Y3239730I-6610J7720D01*
G02X2471280I21280J24850D01*
G37*
G36*
G01X1176990Y3176100D02*
G03X1162830Y3176230I-7147J-7222D01*
G02X1163270Y3223180I-22570J23689D01*
G03X1177430Y3223050I7147J7222D01*
G02X1176990Y3176100I22570J-23689D01*
G37*
G36*
G01X1461050Y3022920D02*
G03X1446990Y3021150I-6121J-8109D01*
G02X1441120Y3067690I-25570J20415D01*
G03X1455180Y3069460I6121J8109D01*
G02X1461050Y3022920I25570J-20415D01*
G37*
G36*
G01X2115490Y3022060D02*
G03Y3007260I6962J-7400D01*
G02X2070670I-22410J-23840D01*
G03Y3022060I-6962J7400D01*
G02X2115490I22410J23840D01*
G37*
G36*
G01X1991140Y2773570D02*
G03X1976340I-7400J-6962D01*
G02Y2818390I-23840J22410D01*
G03X1991140I7400J6962D01*
G02Y2773570I23840J-22410D01*
G37*
G36*
G01X1732990Y2742630D02*
G03X1726940Y2746580I-4976J-1014D01*
G02X1694870Y2757610I-6934J31977D01*
G03X1679640Y2758030I-7800J-6509D01*
G02X1680850Y2801310I-23920J22326D01*
G03X1696080Y2800890I7800J6509D01*
G02X1752070Y2785050I23919J-22328D01*
G03X1758120Y2781100I4976J1014D01*
G02X1732990Y2742630I6941J-31977D01*
G37*
G36*
G01X1875730Y2761620D02*
G03X1886550Y2750520I10115J-964D01*
G02X1856250Y2721000I2270J-32640D01*
G03X1845430Y2732100I-10115J964D01*
G02X1875730Y2761620I-2270J32640D01*
G37*
G36*
G01X2037390Y2522220D02*
G03Y2507420I6962J-7400D01*
G02X1992570I-22410J-23840D01*
G03Y2522220I-6962J7400D01*
G02X2037390I22410J23840D01*
G37*
G36*
G01X1637110Y2426620D02*
G03X1622890I-7110J-7258D01*
G02X1575460Y2471640I-22884J23386D01*
G03Y2478360I-3812J3360D01*
G02X1622890Y2523380I24546J21634D01*
G03X1637110I7110J7258D01*
G02X1682890I22890J-23380D01*
G03X1697110I7110J7258D01*
G02X1744540Y2478360I22884J-23386D01*
G03Y2471640I3812J-3360D01*
G02X1697110Y2426620I-24546J-21634D01*
G03X1682890I-7110J-7258D01*
G02X1637110I-22890J23380D01*
G37*
G36*
G01X1812850Y2006210D02*
G03X1801000Y1999540I-2222J-9915D01*
G02X1777150Y2041930I-31002J10462D01*
G03X1789000Y2048600I2222J9915D01*
G02X1827160Y2070070I31004J-10458D01*
G03X1839010Y2076730I2225J9913D01*
G02X1862840Y2034310I30992J-10493D01*
G03X1850990Y2027650I-2225J-9913D01*
G02X1812850Y2006210I-30992J10489D01*
G37*
G36*
G01X1209370Y2019210D02*
G03X1202620Y2006340I2911J-9732D01*
G02X1162130Y2027570I-31117J-10120D01*
G03X1168880Y2040440I-2911J9732D01*
G02X1209370Y2019210I31117J10120D01*
G37*
G36*
G01X855030Y2022350D02*
G03X856280Y2037460I-6116J8113D01*
G02X907400Y2077890I23726J22534D01*
G03X920950Y2074620I8509J5549D01*
G02X909800Y2028330I16249J-28402D01*
G03X896250Y2031600I-8509J-5549D01*
G02X895070Y2030960I-16186J28435D01*
G03X894360Y2022390I2343J-4508D01*
G02X855030Y2022350I-19638J-26170D01*
G37*
G36*
G01X2374540Y1528360D02*
G03Y1521640I3812J-3360D01*
G02X2325460I-24540J-21640D01*
G03Y1528360I-3812J3360D01*
G02X2374540I24540J21640D01*
G37*
G36*
G01X2218360Y1475460D02*
G03X2211640I-3360J-3812D01*
G02X2165460Y1521640I-21640J24540D01*
G03Y1528360I-3812J3360D01*
G02X2211640Y1574540I24540J21640D01*
G03X2218360I3360J3812D01*
G02X2264540Y1528360I21640J-24540D01*
G03Y1521640I3812J-3360D01*
G02X2218360Y1475460I-24540J-21640D01*
G37*
G36*
G01X929810Y1514710D02*
G03X922410Y1502870I2559J-9832D01*
G02X882110Y1528050I-32071J-6489D01*
G03X889510Y1539890I-2559J9832D01*
G02X929810Y1514710I32071J6489D01*
G37*
G36*
G01X2654780Y1501680D02*
G03X2651080Y1486880I4659J-9027D01*
G02X2609160Y1497360I-26920J-18600D01*
G03X2612860Y1512160I-4660J9027D01*
G02X2654780Y1501680I26920J18600D01*
G37*
G36*
G01X1994100Y1231910D02*
G03X1982610Y1221020I-1365J-10067D01*
G02X1917420Y1221420I-32613J-2657D01*
G03X1906910Y1232520I-10112J951D01*
G02X1907360Y1297890I-1270J32695D01*
G03X1917870Y1306120I532J10146D01*
G02X1982300Y1305150I32129J-6197D01*
G03X1993790Y1296720I10029J1625D01*
G02X1994100Y1231910I4687J-32383D01*
G37*
G36*
G01X1646890Y1225760D02*
G03Y1210960I6962J-7400D01*
G02X1602070I-22410J-23840D01*
G03Y1225760I-6962J7400D01*
G02X1646890I22410J23840D01*
G37*
G36*
G01X2370030Y982580D02*
G03X2359960Y971480I45J-10159D01*
G02X2327230Y1001160I-32579J-3040D01*
G03X2337300Y1012260I-45J10159D01*
G02X2370030Y982580I32579J3040D01*
G37*
G36*
G01X837110Y936620D02*
G03X822890I-7110J-7258D01*
G02Y983380I-22890J23380D01*
G03X837110I7110J7258D01*
G02X882890I22890J-23380D01*
G03X897110I7110J7258D01*
G02X942890I22890J-23380D01*
G03X957110I7110J7258D01*
G02Y936620I22890J-23380D01*
G03X942890I-7110J-7258D01*
G02X897110I-22890J23380D01*
G03X882890I-7110J-7258D01*
G02X837110I-22890J23380D01*
G37*
G36*
G01X3537360Y765710D02*
G03X3530790Y753870I3336J-9594D01*
G02X3488140Y777530I-31909J-7249D01*
G03X3494710Y789370I-3336J9594D01*
G02X3537360Y765710I31909J7249D01*
G37*
G36*
G01X3259190Y764000D02*
G03X3249970Y752150I792J-10128D01*
G02X3215150Y779240I-32250J-5530D01*
G03X3224370Y791090I-792J10128D01*
G02X3259190Y764000I32250J5530D01*
G37*
G36*
G01X1938360Y675460D02*
G03X1931640I-3360J-3812D01*
G02Y724540I-21640J24540D01*
G03X1938360I3360J3812D01*
G02X1982890Y723380I21641J-24540D01*
G03X1997110I7110J7258D01*
G02Y676620I22890J-23380D01*
G03X1982890I-7110J-7258D01*
G02X1938360Y675460I-22889J23380D01*
G37*
G36*
G01X1385860Y731520D02*
G03X1389560Y716720I8360J-5773D01*
G02X1347640Y706240I-15000J-29080D01*
G03X1343940Y721040I-8360J5773D01*
G02X1385860Y731520I15000J29080D01*
G37*
G36*
G01X1480140Y562640D02*
G03X1486860Y559970I4678J1982D01*
G02X1469860Y517280I13143J-29964D01*
G03X1463140Y519950I-4678J-1982D01*
G02X1480140Y562640I-13143J29964D01*
G37*
G36*
G01X1938360Y475460D02*
G03X1931640I-3360J-3812D01*
G02X1885460Y521640I-21640J24540D01*
G03Y528360I-3812J3360D01*
G02X1931640Y574540I24540J21640D01*
G03X1938360I3360J3812D01*
G02X1981640I21640J-24540D01*
G03X1988360I3360J3812D01*
G02X2034540Y528360I21640J-24540D01*
G03Y521640I3812J-3360D01*
G02X1988360Y475460I-24540J-21640D01*
G03X1981640I-3360J-3812D01*
G02X1938360I-21640J24540D01*
G37*
G36*
G01X3437790Y497450D02*
G03X3447000Y486590I10135J-741D01*
G02X3411380Y456400I-2989J-32581D01*
G03X3402170Y467260I-10135J741D01*
G02X3437790Y497450I2989J32581D01*
G37*
G36*
G01X2334170Y491620D02*
G03Y476820I6962J-7400D01*
G02X2289350I-22410J-23840D01*
G03Y491620I-6962J7400D01*
G02X2334170I22410J23840D01*
G37*
G36*
G01X2473020Y323180D02*
G03X2486470Y322430I7148J7218D01*
G02X2483760Y273520I20309J-25655D01*
G03X2470310Y274270I-7148J-7218D01*
G02X2473020Y323180I-20309J25655D01*
G37*
G36*
G01X2194690Y288190D02*
G03X2209780Y287910I7671J6661D01*
G02X2208970Y244070I23880J-22369D01*
G03X2193880Y244350I-7671J-6661D01*
G02X2194690Y288190I-23880J22369D01*
G37*
G36*
G01X2014020Y249990D02*
G03X2002180Y241840I-1850J-9988D01*
G02X1975980Y279950I-32178J5939D01*
G03X1987820Y288100I1850J9988D01*
G02X2014020Y249990I32178J-5939D01*
G37*
G36*
G01X3522380Y265370D02*
G03X3515280Y253520I2841J-9754D01*
G02X3474100Y278190I-32018J-6741D01*
G03X3481200Y290040I-2841J9754D01*
G02X3522380Y265370I32018J6741D01*
G37*
G36*
G01X3259220Y264150D02*
G03X3249970Y252300I763J-10131D01*
G02X3215280Y279410I-32251J-5519D01*
G03X3224530Y291260I-763J10131D01*
G02X3259220Y264150I32251J5519D01*
G37*
G36*
G01X2974180Y277870D02*
G03X2974470Y270730I3752J-3423D01*
G02X2928000Y268830I-22295J-23950D01*
G03X2927710Y275970I-3752J3423D01*
G02X2974180Y277870I22295J23950D01*
G37*
G36*
G01X3172690Y3758700D02*
G02X3153090Y3789990I-32693J1305D01*
G03X3167310Y3798900I4068J9311D01*
G02X3186910Y3767610I32693J-1305D01*
G03X3172690Y3758700I-4068J-9311D01*
G37*
G36*
G01X1419530Y3557760D02*
G02X1406870Y3517450I17509J-27642D01*
G03X1392070Y3522100I-9366J-3934D01*
G02X1404730Y3562410I-17509J27642D01*
G03X1419530Y3557760I9366J3934D01*
G37*
G36*
G01X1153960Y3281290D02*
G02X1152830Y3312440I-29319J14532D01*
G03X1170680Y3313090I8749J5160D01*
G02X1171810Y3281940I29319J-14532D01*
G03X1153960Y3281290I-8749J-5160D01*
G37*
G36*
G01X697550Y3247450D02*
G02X667520Y3218770I2451J-32628D01*
G03X656670Y3230130I-10085J1230D01*
G02X621800Y3258350I-2448J32628D01*
G03X607430Y3266180I-10066J-1372D01*
G02X625980Y3300230I-13872J29635D01*
G03X640350Y3292400I10066J1372D01*
G02X686700Y3258810I13868J-29637D01*
G03X697550Y3247450I10085J-1230D01*
G37*
G36*
G01X2970200Y2975180D02*
G02X2931460Y2976400I-20200J-25740D01*
G03X2931980Y2992760I-5757J8371D01*
G02X2970720Y2991540I20200J25740D01*
G03X2970200Y2975180I5757J-8371D01*
G37*
G36*
G01X2725790Y2969580D02*
G02X2687320Y2979600I-25786J-20141D01*
G03X2691390Y2995220I-3937J9366D01*
G02X2729860Y2985200I25786J20141D01*
G03X2725790Y2969580I3937J-9366D01*
G37*
G36*
G01X2178140Y2473790D02*
G02X2168450Y2440780I21862J-24345D01*
G03X2151860Y2445650I-9798J-2686D01*
G02X2161550Y2478660I-21862J24345D01*
G03X2178140Y2473790I9798J2686D01*
G37*
G36*
G01X2232060Y2255920D02*
G02X2167550Y2258300I-32057J6557D01*
G03X2153320Y2266280I-10078J-1293D01*
G02X2172390Y2300320I-13381J29858D01*
G03X2186620Y2292340I10078J1293D01*
G02X2205550Y2294730I13386J-29858D01*
G03X2217220Y2302700I1720J10010D01*
G02X2243730Y2263890I32058J-6561D01*
G03X2232060Y2255920I-1720J-10010D01*
G37*
G36*
G01X2289870Y1946970D02*
G02X2281980Y1996030I-24969J21149D01*
G03X2295030Y1998130I5299J8666D01*
G02X2326060Y2009130I24963J-21152D01*
G03X2337910Y2017130I1885J9985D01*
G02X2402090I32090J-6390D01*
G03X2413940Y2009130I9965J1985D01*
G02X2426240Y2009100I6072J-32151D01*
G03X2438090Y2021320I1943J9972D01*
G02X2463760Y1996440I31909J7240D01*
G03X2451910Y1984220I-1943J-9972D01*
G02X2387910Y1970590I-31912J-7227D01*
G03X2376060Y1978590I-9965J-1985D01*
G02X2363940I-6060J32150D01*
G03X2352090Y1970590I-1885J-9985D01*
G02X2302920Y1949070I-32091J6389D01*
G03X2289870Y1946970I-5299J-8666D01*
G37*
G36*
G01X2649660Y1731830D02*
G02X2627110Y1756330I-32002J-6827D01*
G03X2639980Y1768170I2935J9725D01*
G02X2662530Y1743670I32002J6827D01*
G03X2649660Y1731830I-2935J-9725D01*
G37*
G36*
G01X1672720Y1509730D02*
G02X1653070Y1540000I-32720J272D01*
G03X1667280Y1549230I4052J9315D01*
G02X1686930Y1518960I32720J-272D01*
G03X1672720Y1509730I-4052J-9315D01*
G37*
G36*
G01X668140Y1528910D02*
G02X639430Y1502000I3523J-32529D01*
G03X628320Y1513850I-10009J1749D01*
G02X657030Y1540760I-3523J32529D01*
G03X668140Y1528910I10009J-1749D01*
G37*
G36*
G01X389090Y1529070D02*
G02X358240Y1501840I1411J-32689D01*
G03X347790Y1513690I-10017J1699D01*
G02X378640Y1540920I-1411J32689D01*
G03X389090Y1529070I10017J-1699D01*
G37*
G36*
G01X212200Y1505290D02*
G02X172260Y1512890I-24763J-21389D01*
G03X175240Y1528530I-4709J9001D01*
G02X215180Y1520930I24763J21389D01*
G03X212200Y1505290I4709J-9001D01*
G37*
G36*
G01X2452440Y1223720D02*
G02X2387820Y1213520I-32440J-4274D01*
G03X2375980Y1221670I-9990J-1838D01*
G02X2338950Y1243510I-5982J32170D01*
G03X2327110Y1250220I-9639J-3207D01*
G02X2310060Y1250990I-7100J31940D01*
G03X2297000Y1243270I-3089J-9680D01*
G02X2274840Y1280770I-32100J6328D01*
G03X2287900Y1288490I3089J9680D01*
G02X2351050Y1292490I32103J-6329D01*
G03X2362890Y1285780I9639J3207D01*
G02X2402180Y1259780I7112J-31940D01*
G03X2414020Y1251630I9990J1838D01*
G02X2425710Y1251680I5983J-32169D01*
G03X2437560Y1263000I1776J10003D01*
G02X2476780Y1299270I32441J4260D01*
G03X2482800Y1303190I1050J4970D01*
G02X2508040Y1264450I32020J-6730D01*
G03X2502020Y1260530I-1050J-4970D01*
G02X2464290Y1235040I-32021J6729D01*
G03X2452440Y1223720I-1776J-10003D01*
G37*
G36*
G01X1998760Y941350D02*
G02X1977060Y984290I-30641J11468D01*
G03X1989360Y990510I2780J9775D01*
G02X2025470Y1011300I30643J-11469D01*
G03X2037320Y1021820I1703J10015D01*
G02X2081440Y1054110I32678J1637D01*
G03X2094310Y1059580I3551J9520D01*
G02X2155890Y1055150I30011J-13038D01*
G03X2166990Y1047750I9800J2675D01*
G02X2195890Y993850I4191J-32451D01*
G03X2200090Y985460I3839J-3324D01*
G02X2206610Y985270I2312J-32639D01*
G03X2217710Y992670I1300J10075D01*
G02X2245090Y951610I31568J-8608D01*
G03X2233990Y944210I-1300J-10075D01*
G02X2173520Y968170I-31567J8619D01*
G03X2166120Y982970I-8969J4766D01*
G02X2164720Y983220I5051J32330D01*
G03X2152600Y974140I-2001J-9958D01*
G02X2087440Y980210I-32598J2840D01*
G03X2075590Y991220I-10110J1001D01*
G02X2064530Y991200I-5588J32240D01*
G03X2052680Y980680I-1703J-10015D01*
G02X2011060Y947570I-32678J-1637D01*
G03X1998760Y941350I-2780J-9775D01*
G37*
G36*
G01X2687120Y754650D02*
G02X2657710Y779260I-31720J-8029D01*
G03X2668280Y791890I723J10133D01*
G02X2697690Y767280I31720J8029D01*
G03X2687120Y754650I-723J-10133D01*
G37*
G36*
G01X2349660Y731830D02*
G02X2327110Y756330I-32002J-6827D01*
G03X2339980Y768170I2935J9725D01*
G02X2362530Y743670I32002J6827D01*
G03X2349660Y731830I-2935J-9725D01*
G37*
G36*
G01X2922580Y702990D02*
G02X2892940Y732590I-32583J-2987D01*
G03X2903980Y743630I922J10118D01*
G02X2933620Y714030I32583J2987D01*
G03X2922580Y702990I-922J-10118D01*
G37*
G36*
G01X1204300Y501910D02*
G02X1170960Y511450I-24304J-21908D01*
G03X1175700Y528010I-2810J9763D01*
G02X1209040Y518470I24304J21908D01*
G03X1204300Y501910I2810J-9763D01*
G37*
G54D12*
X1060000Y1040000D03*
X1490000Y1230000D03*
X1421420Y265540D03*
X360000Y1200000D03*
X199910Y1221510D03*
X1450000Y450080D03*
X1200000Y299920D03*
X950000D03*
X700000D03*
X450000D03*
X200000D03*
X950000Y549920D03*
X700000D03*
X450000D03*
X200000D03*
X1450000Y950080D03*
X1200000Y799920D03*
X950000D03*
X700000D03*
X450000D03*
X200000D03*
X1450000Y1049920D03*
X1200000D03*
X950000D03*
X700000D03*
X450000D03*
X200000D03*
X108740Y1875000D03*
X1374560Y1640100D03*
X1050000Y1933420D03*
X374280Y1875000D03*
X608580D03*
X1499520Y1471180D03*
X874120Y1875000D03*
X190820Y2776980D03*
X108660Y2125000D03*
X1109020Y2452340D03*
X859100Y2405480D03*
X1499520Y1968120D03*
X359260Y2249280D03*
X1124640Y2639780D03*
X550000Y2311400D03*
X1375000Y3437500D03*
X187500Y3500000D03*
X625000Y3750000D03*
X875000Y3687500D03*
X827860Y3199920D03*
X546700D03*
X249920D03*
X1375000Y2475000D03*
X1380000Y2320000D03*
X850000Y2250000D03*
X1100000Y2290000D03*
X870000Y1700000D03*
X620000D03*
X1090000Y1730000D03*
X200000Y2010000D03*
X590000Y2220000D03*
X1060000Y2010000D03*
X1218360Y2795980D03*
X164360Y2522980D03*
X905960Y3033420D03*
X1218360D03*
X904640Y3511360D03*
X607860D03*
X359260D03*
Y3033420D03*
X640420Y3030280D03*
X950000Y2199440D03*
X700000D03*
X450000D03*
X200000D03*
X1450000Y2050560D03*
X1200000Y2433980D03*
X950000Y2310000D03*
X700000Y2300560D03*
X450000D03*
X125560Y2375000D03*
X357440Y3262760D03*
X1370000Y2200000D03*
X875560Y2625000D03*
X625560D03*
X375560D03*
X125560D03*
X1200000Y2699520D03*
X1375400Y2625000D03*
X450000Y2949440D03*
X125560Y2875000D03*
X700000Y2949440D03*
X950000D03*
X1200000D03*
X1374560Y2795980D03*
X1380000Y3200000D03*
X450000Y3183500D03*
X125560Y3125000D03*
X890340Y3295820D03*
X875560Y3375000D03*
X625560D03*
X375560D03*
X125560D03*
X1450000Y3699440D03*
X1200000D03*
X950000D03*
X700000D03*
X450000D03*
X200000D03*
X1120000Y1320000D03*
X1233980Y1496380D03*
X593560Y1996220D03*
X312400D03*
X374880Y2046220D03*
X656040D03*
X1450000Y1299920D03*
X1200000D03*
X950000D03*
X700000D03*
X450000D03*
X200000D03*
X1120000Y1820000D03*
X1200000Y1700080D03*
X950000D03*
X1450000Y1549040D03*
X450000Y1700080D03*
X700000D03*
X1450000Y1799920D03*
X1200000D03*
X950000D03*
X700000D03*
X450000D03*
X200000D03*
X1700000Y200000D03*
X2860000Y450000D03*
X2430000Y710000D03*
X2590000Y700000D03*
X3858140Y1233980D03*
X1970000Y782880D03*
X2880000Y1220000D03*
X2880320Y999680D03*
X2061840Y203060D03*
X2639780Y246780D03*
X2700000Y299920D03*
X3700000D03*
X3124000Y500000D03*
X2624160Y452980D03*
X2950000Y549920D03*
X2700000D03*
X2450000D03*
X3250000Y540000D03*
X3700000Y549920D03*
X3030000Y799920D03*
X3700000D03*
X2450000D03*
X3450000Y810000D03*
X3700000Y1049920D03*
X3450000D03*
X3200000D03*
X2950000D03*
X2700000D03*
X2450000D03*
X3060000Y730000D03*
X2717880Y468600D03*
X2983420D03*
X3373920Y93720D03*
X3858020Y375000D03*
X2374240Y109820D03*
X1700000Y299920D03*
X1874400Y265540D03*
X1624480Y546700D03*
X1700000Y950080D03*
Y1049920D03*
X2009990Y1960010D03*
X2108700Y2218040D03*
X3248960Y3018500D03*
X1624480Y1655720D03*
X3514500Y3002880D03*
X1873880Y1625000D03*
X2390000Y3550000D03*
X3373920Y3373920D03*
X2171180Y3467640D03*
X2700000Y3280200D03*
X3700000Y3449440D03*
X3200000Y3297920D03*
X1608420Y1375000D03*
X3733180Y3045900D03*
X3700000Y2300560D03*
X3450000D03*
X3200000D03*
X2950000D03*
X2700000Y2449440D03*
X2450000D03*
X3700000Y2949440D03*
X3450000D03*
X3200000D03*
X2450000D03*
X2200000D03*
X2171180Y3233340D03*
X2700000Y3199440D03*
X2950000D03*
X3200000D03*
X3450000D03*
X3700000D03*
X3128010Y2776980D03*
X2070000Y3210260D03*
X2218040Y3030280D03*
X3442980Y2522980D03*
X1999360Y2218040D03*
X2900000Y2800000D03*
X3124000Y2967800D03*
X3700000Y2050560D03*
X3450000D03*
X3200000D03*
X2950000D03*
X2700000Y2199440D03*
X2450000D03*
X3800000Y3795660D03*
X3550000D03*
X3300000D03*
X3050000D03*
X2499200Y3514500D03*
X1874400Y2842840D03*
X1600000Y1770000D03*
X1624480Y3045900D03*
X1968120Y2717880D03*
X1733820Y3030280D03*
X2874080Y3639460D03*
X3108380Y3248960D03*
X2624160Y3186480D03*
X3373920Y3639460D03*
X3124000Y3623840D03*
X2624160Y3639460D03*
X2874080Y3170860D03*
X3373920D03*
X2330000Y3450000D03*
X2090000Y3300000D03*
X1910000D03*
X1600000Y2300000D03*
X1720000D03*
X3624680Y2625000D03*
X3374760D03*
X3124840D03*
X2700000Y2699440D03*
X2450000D03*
X2200000D03*
X2858460Y2530440D03*
X2717880Y3452020D03*
X2108700Y1280840D03*
X2700000Y1299920D03*
X2950000D03*
X3200000D03*
X3450000D03*
X3700000D03*
X2800000Y1540000D03*
X2950000Y1549920D03*
X3200000D03*
X3450000D03*
X3700000D03*
X2124840Y1625000D03*
X2624160Y1999360D03*
X3700000Y1799920D03*
X3450000D03*
X3200000D03*
X2950000D03*
X3717560Y1718200D03*
X3550000Y1960000D03*
X1686960Y2046220D03*
X1950000Y2048720D03*
X1530760Y2233660D03*
X2014980Y2296140D03*
X2077460Y2733500D03*
X1749440Y2952180D03*
X1827540Y3045900D03*
X1600000Y3200000D03*
X1660000Y3480000D03*
X1843160Y3233340D03*
X1829000Y3545000D03*
X1700000Y3699440D03*
X1827540Y3748800D03*
X2264900Y1796300D03*
X2139940Y3795660D03*
X3700000Y3797600D03*
X3450000D03*
X2049370Y2043070D03*
X2171180Y1983740D03*
X3700000Y3699440D03*
X3450000D03*
X3200000D03*
X2218040Y3764420D03*
X2505480Y3008380D03*
X1700000Y1299920D03*
X1950000Y1548880D03*
X1700000Y1799920D03*
%LPD*%
G75*
G54D10*
X109340Y1040660D03*
X1060000Y1040000D03*
X800000Y960000D03*
X860000D03*
X920000D03*
X980000D03*
X1490000Y1230000D03*
X1180000Y480000D03*
X1500000Y530000D03*
X1421420Y265540D03*
X1374560Y687640D03*
X1358940Y750120D03*
X360000Y1200000D03*
X199910Y1221510D03*
X1450000Y49920D03*
X1200000D03*
X950000D03*
X700000D03*
X450000D03*
X200000D03*
X1450000Y450080D03*
X1200000Y299920D03*
X950000D03*
X700000D03*
X450000D03*
X200000D03*
X1450000Y549920D03*
X1200000D03*
X950000D03*
X700000D03*
X450000D03*
X200000D03*
X1450000Y950080D03*
X1200000Y799920D03*
X950000D03*
X700000D03*
X450000D03*
X200000D03*
X1450000Y1049920D03*
X1200000D03*
X950000D03*
X700000D03*
X450000D03*
X200000D03*
X108740Y1875000D03*
X1374560Y1640100D03*
X1050000Y1933420D03*
X374280Y1875000D03*
X608580D03*
X1499520Y1471180D03*
X874120Y1875000D03*
X190820Y2776980D03*
X1360000Y1470000D03*
X940000Y1460000D03*
X633620Y1446380D03*
X1350000Y1970000D03*
X1300000Y2300000D03*
X940000Y1960000D03*
X661360Y3461360D03*
X971360D03*
X1390000Y3490000D03*
X321360Y3461360D03*
X370000Y2950000D03*
X640000Y2960000D03*
X900000Y2970000D03*
X1380000D03*
X1360000Y2720000D03*
X363780Y1946220D03*
X633780D03*
X373620Y1446380D03*
X1374560Y3549740D03*
X1437040Y3530120D03*
X1480750Y3049050D03*
X108660Y2125000D03*
X1109020Y2452340D03*
X859100Y2405480D03*
X1499520Y1968120D03*
X359260Y2249280D03*
X1124640Y2639780D03*
X550000Y2311400D03*
X1375000Y3437500D03*
X187500Y3500000D03*
X625000Y3750000D03*
X875000Y3687500D03*
X1240000Y3550000D03*
X827860Y3199920D03*
X546700D03*
X249920D03*
X1140260D03*
X1375000Y2475000D03*
X1380000Y2320000D03*
X850000Y2250000D03*
X1100000Y2290000D03*
X870000Y1700000D03*
X620000D03*
X346380Y1546380D03*
X1090000Y1730000D03*
X200000Y2010000D03*
X590000Y2220000D03*
X1060000Y2010000D03*
X880000Y2060000D03*
X1421420Y3041560D03*
X1300000Y3290000D03*
X1218360Y2795980D03*
X164360Y2522980D03*
X905960Y3033420D03*
X1218360D03*
X1201420Y3511360D03*
X904640D03*
X607860D03*
X359260D03*
Y3033420D03*
X640420Y3030280D03*
X1200000Y2050560D03*
X950000Y2199440D03*
X700000D03*
X450000D03*
X200000D03*
X654220Y3262760D03*
X1450000Y2050560D03*
X1200000Y2433980D03*
X950000Y2310000D03*
X700000Y2300560D03*
X450000D03*
X125560Y2375000D03*
X357440Y3262760D03*
X1370000Y2200000D03*
X875560Y2625000D03*
X625560D03*
X375560D03*
X125560D03*
X1200000Y2699520D03*
X1375400Y2625000D03*
X450000Y2949440D03*
X125560Y2875000D03*
X593560Y3295820D03*
X700000Y2949440D03*
X950000D03*
X1200000D03*
X1374560Y2795980D03*
X1380000Y3200000D03*
X1200000Y3199360D03*
X450000Y3183500D03*
X125560Y3125000D03*
X890340Y3295820D03*
X700000Y3214820D03*
X1360000Y3300000D03*
X875560Y3375000D03*
X625560D03*
X375560D03*
X125560D03*
X1200000Y3298560D03*
X1124640Y3295820D03*
X1450000Y3699440D03*
X1200000D03*
X950000D03*
X700000D03*
X450000D03*
X200000D03*
X1120000Y1320000D03*
X890340Y1496380D03*
X1233980D03*
X1171500Y1996220D03*
X874720D03*
X593560D03*
X312400D03*
X390500Y1496380D03*
X671660D03*
X624800Y1546380D03*
X187440Y1483900D03*
X374880Y2046220D03*
X656040D03*
X937200D03*
X1450000Y1299920D03*
X1200000D03*
X950000D03*
X700000D03*
X450000D03*
X200000D03*
X1120000Y1820000D03*
X1200000Y1700080D03*
X950000D03*
X1450000Y1549040D03*
X450000Y1700080D03*
X200000Y1549920D03*
X700000Y1700080D03*
X1450000Y1799920D03*
X1200000D03*
X950000D03*
X700000D03*
X450000D03*
X200000D03*
X921580Y1546380D03*
X1450000Y3949440D03*
X1200000D03*
X950000D03*
X700000D03*
X450000D03*
X200000D03*
X2249280Y984060D03*
X2124320Y1046540D03*
X1624480Y1249600D03*
X2420000Y1219460D03*
X2170000Y266720D03*
X2311760Y452980D03*
X2180400Y475000D03*
X1620000Y690000D03*
X3376550Y550000D03*
X3646550D03*
X3280000Y700000D03*
X3700000Y710000D03*
X3251200Y203200D03*
X3683000Y215900D03*
X3059700Y40300D03*
X2700000Y200000D03*
X2760000Y520000D03*
X3010000Y530000D03*
X3256780Y296780D03*
X3513220D03*
X3256620Y796620D03*
X3526620D03*
X2860000Y450000D03*
X2430000Y710000D03*
X1910000Y500000D03*
X1960000D03*
X2010000D03*
X1910000Y550000D03*
X1960000D03*
X2010000D03*
X1910000Y700000D03*
X1960000D03*
X2020000D03*
X2506780Y296780D03*
X2590000Y700000D03*
X2890000D03*
X3858140Y1233980D03*
X1970000Y782880D03*
X2880000Y1220000D03*
X2880320Y999680D03*
X2061840Y203060D03*
X2952180Y246780D03*
X2317660Y725000D03*
X2639780Y246780D03*
X2371980Y775000D03*
X2655400Y746620D03*
X2202420Y952820D03*
X2936560Y746620D03*
X2120000Y976980D03*
X3217720Y746620D03*
X2070000Y1023460D03*
X3498880Y746620D03*
X2020000Y979040D03*
X3483260Y246780D03*
X1970000Y247780D03*
X3217720Y246780D03*
X2020000Y282160D03*
X3950000Y49920D03*
X3700000D03*
X3450000D03*
X3200000D03*
X2950000D03*
X2450000D03*
X2200000D03*
X2702260Y31240D03*
X2233660Y265540D03*
X2450000Y299920D03*
X2700000D03*
X2950000D03*
X3950000D03*
X3700000D03*
X3405160Y499840D03*
X3124000Y500000D03*
X2624160Y452980D03*
X2311760Y515460D03*
X2950000Y549920D03*
X2700000D03*
X2450000D03*
X3250000Y540000D03*
X3700000Y549920D03*
X3950000D03*
X3444010Y454010D03*
X3030000Y799920D03*
X3700000D03*
X3950000D03*
X2327380Y968440D03*
X2700000Y799920D03*
X2450000D03*
X3450000Y810000D03*
X2171180Y1015300D03*
X3950000Y1049920D03*
X3700000D03*
X3450000D03*
X3200000D03*
X2950000D03*
X2700000D03*
X2450000D03*
X3060000Y730000D03*
X2717880Y468600D03*
X2983420D03*
X2858460Y78100D03*
X3373920Y93720D03*
X1624480Y1187120D03*
X3858020Y375000D03*
X1998480Y1264340D03*
X2124320Y62480D03*
X1905640Y1265220D03*
X3117420Y71520D03*
X2369880Y1015300D03*
X2374240Y109820D03*
X2370000Y1253840D03*
X2264900Y1249600D03*
X2046220Y46860D03*
X1700000Y200000D03*
Y299920D03*
X1874400Y265540D03*
X1624480Y546700D03*
X1968120Y952820D03*
X1700000Y950080D03*
X1950000Y1218360D03*
X1700000Y1049920D03*
X2108700Y2218040D03*
X3248960Y3018500D03*
X1624480Y1655720D03*
X3514500Y3002880D03*
X2655400Y3511360D03*
X2014980Y3748800D03*
X2936560Y3511360D03*
X2046220Y3795660D03*
X1873880Y1625000D03*
X2249280Y2296140D03*
X3217720Y3511360D03*
X2390000Y3550000D03*
X2717180Y3015360D03*
X2952180Y3018500D03*
X2374240Y3311440D03*
X3373920Y3373920D03*
X2171180Y3467640D03*
X2450000Y3264580D03*
X2700000Y3280200D03*
X3700000Y3449440D03*
X3950000D03*
X2983420Y3467640D03*
X3200000Y3297920D03*
X1608420Y1375000D03*
X2139940Y2296140D03*
X3733180Y3045900D03*
X3950000Y2449440D03*
X3700000Y2300560D03*
X3450000D03*
X3200000D03*
X2950000D03*
X2700000Y2449440D03*
X2450000D03*
X2200000D03*
X3950000Y2949440D03*
X3140000Y3760000D03*
X3700000Y2949440D03*
X3450000D03*
X3200000D03*
X2950000D03*
X2700000D03*
X2450000D03*
X2200000D03*
X2171180Y3233340D03*
X2450000Y3199440D03*
X2700000D03*
X2950000D03*
X3200000D03*
X3450000D03*
X3700000D03*
X3950000D03*
X3264580Y3467640D03*
X3128010Y2776980D03*
X2070000Y3210260D03*
X1820000Y2038140D03*
X2093080Y3045900D03*
X1870000Y2066240D03*
X2218040Y3030280D03*
X2470000Y1267260D03*
X3442980Y2522980D03*
X1999360Y2218040D03*
X2319040Y3225000D03*
X2624160Y1468280D03*
X2900000Y2800000D03*
X1970000Y3715680D03*
X2700000Y1500000D03*
X1861930Y1530760D03*
X3127500Y3410000D03*
X3622020Y3422020D03*
X3670000Y3010000D03*
X3350000Y2950000D03*
X2760000Y2980000D03*
X3000000D03*
X3700000Y2740000D03*
X3620000D03*
X3700000Y2800000D03*
X3620000D03*
X2660000D03*
X1830000Y3460000D03*
X1820000Y3300000D03*
X2171180Y3289760D03*
X2610000Y3300000D03*
X3873760Y1483760D03*
X2093080Y2983420D03*
X1952500Y2795980D03*
X3124000Y2967800D03*
X2200000Y2262480D03*
X3950000Y2199440D03*
X3700000Y2050560D03*
X3450000D03*
X3200000D03*
X2950000D03*
X2700000Y2199440D03*
X2450000D03*
X3800000Y3795660D03*
X3550000D03*
X3300000D03*
X3050000D03*
X2702260Y3545740D03*
X2499200Y3514500D03*
X2325030Y3282550D03*
X1874400Y2842840D03*
X1600000Y1770000D03*
X1624480Y3045900D03*
X1968120Y2717880D03*
X1733820Y3030280D03*
X2130000Y2470000D03*
X2190000Y1550000D03*
X2240000D03*
X2190000Y1500000D03*
X2240000D03*
X2350000Y1550000D03*
Y1500000D03*
X2874080Y3639460D03*
X3108380Y3248960D03*
X2624160Y3186480D03*
X3373920Y3639460D03*
X3124000Y3623840D03*
X2624160Y3639460D03*
X2874080Y3170860D03*
X3373920D03*
X2330000Y3450000D03*
X2090000Y3300000D03*
X2060000Y3450000D03*
Y3500000D03*
X1910000Y3300000D03*
X2010000Y3450000D03*
X1960000D03*
X1910000D03*
X2010000Y3500000D03*
X1960000D03*
X1910000D03*
X1660000Y2500000D03*
X1600000D03*
X1720000D03*
X1600000Y2450000D03*
X1660000D03*
X1720000D03*
X1600000Y2300000D03*
X1720000D03*
X1640000Y1510000D03*
X3950000Y2699440D03*
X3624680Y2625000D03*
X3374760D03*
X3124840D03*
X2700000Y2699440D03*
X2450000D03*
X2200000D03*
X2858460Y2530440D03*
X2717880Y3452020D03*
X2108700Y1280840D03*
X2514820Y1296460D03*
X2700000Y1299920D03*
X2950000D03*
X3200000D03*
X3450000D03*
X3700000D03*
X3950000D03*
X2800000Y1540000D03*
X2950000Y1549920D03*
X3200000D03*
X3450000D03*
X3700000D03*
X3950000D03*
X2124840Y1625000D03*
X2639780Y1530760D03*
X2264900Y1968120D03*
X2624160Y1999360D03*
X3936240Y1811920D03*
X3700000Y1799920D03*
X3450000D03*
X3200000D03*
X2950000D03*
X1655720Y2780360D03*
X1770000Y2010000D03*
X3717560Y1718200D03*
X3550000Y1960000D03*
X2014980Y2483580D03*
Y2546060D03*
X1888820Y2717880D03*
X1843160Y2764740D03*
X1765060Y2749120D03*
X1720000Y2778560D03*
X1686960Y2046220D03*
X2009990Y1960010D03*
X1950000Y2048720D03*
X1530760Y2233660D03*
X2014980Y2296140D03*
X2077460Y2733500D03*
X2014980Y2795980D03*
X1749440Y2952180D03*
X1827540Y3045900D03*
X1600000Y3200000D03*
X1660000Y3480000D03*
X1843160Y3233340D03*
X1829000Y3545000D03*
X1700000Y3699440D03*
X1827540Y3748800D03*
X2264900Y1796300D03*
X2139940Y3795660D03*
X2405480Y3780040D03*
X3700000Y3797600D03*
X3450000D03*
X3200000D03*
X2655400Y3795660D03*
X2905320D03*
X2049370Y2043070D03*
X2171180Y1983740D03*
X2617660Y1725000D03*
X2671980Y1775000D03*
X2470000Y2028560D03*
X2420000Y1976980D03*
X2370000Y2010740D03*
X2320000Y1976980D03*
Y1282160D03*
X3950000Y3699440D03*
X3700000D03*
X3450000D03*
X3200000D03*
X2905320Y3733180D03*
X2700000Y3762160D03*
X2467960Y3764420D03*
X2218040D03*
X2505480Y3008380D03*
X1950000Y1299920D03*
X1700000D03*
X1950000Y1548880D03*
X1700000Y1548960D03*
Y1799920D03*
X1952500Y3967480D03*
X1874400D03*
X1796300D03*
X2276800Y3950400D03*
X1700000Y3949440D03*
X3950000D03*
G54D11*
G01X3999990Y3999990D02*
X0D01*
Y0D01*
X3999990D01*
Y3999990D01*
G01X0Y-140000D02*
X-240000D01*
G01X-120000Y-260000D02*
Y-20000D01*
G01X-50000Y-140000D02*
G03I-70000J0D01*
G01X-20000Y-130000D02*
G03I-100000J-10000D01*
G01X-170000Y4130000D02*
G03I-100000J-10000D01*
G01X-200000Y4120000D02*
G03I-70000J0D01*
G01X-270000Y4000000D02*
Y4240000D01*
G01X-150000Y4120000D02*
X-390000D01*
G01X4230000Y-130000D02*
X3990000D01*
G01X4210000Y-120000D02*
G03I-100000J-10000D01*
G01X4110000Y-250000D02*
Y-10000D01*
G01X4180000Y-130000D02*
G03I-70000J0D01*
G01X4290000Y4130000D02*
X4050000D01*
G01X4170000Y4010000D02*
Y4250000D01*
G01X4240000Y4130000D02*
G03I-70000J0D01*
G01X4270000Y4140000D02*
G03I-100000J-10000D01*
M02*
