G04 ================== begin FILE IDENTIFICATION RECORD ==================*
G04 Layout Name:  J:/LED_Panels/LED 8x8 Panel v5.brd*
G04 Film Name:    SilkScreen_Top*
G04 File Format:  Gerber RS274X*
G04 File Origin:  Cadence Allegro 16.6-P004*
G04 Origin Date:  Sun Mar 26 00:02:32 2017*
G04 *
G04 Layer:  USER PART NUMBER/SILKSCREEN_TOP*
G04 Layer:  TOLERANCE/SILKSCREEN_TOP*
G04 Layer:  REF DES/SILKSCREEN_TOP*
G04 Layer:  PIN/TOP*
G04 Layer:  PACKAGE GEOMETRY/SILKSCREEN_TOP*
G04 Layer:  PACKAGE GEOMETRY/SOLDERMASK_TOP*
G04 Layer:  DRC ERROR CLASS/TOP*
G04 Layer:  DEVICE TYPE/SILKSCREEN_TOP*
G04 Layer:  COMPONENT VALUE/SILKSCREEN_TOP*
G04 Layer:  BOARD GEOMETRY/OUTLINE*
G04 Layer:  BOARD GEOMETRY/SILKSCREEN_TOP*
G04 *
G04 Offset:    (0.0000 0.0000)*
G04 Mirror:    No*
G04 Mode:      Positive*
G04 Rotation:  0*
G04 FullContactRelief:  No*
G04 UndefLineWidth:     0.1000*
G04 ================== end FILE IDENTIFICATION RECORD ====================*
%FSLAX25Y25*MOMM*%
%IR0*IPPOS*OFA0.00000B0.00000*MIA0B0*SFA1.00000B1.00000*%
%ADD14R,1.5X.4*%
%ADD13R,.4X1.5*%
%ADD15R,.375X.375*%
%ADD18R,.3X.7*%
%ADD16R,.7X.3*%
%ADD11R,.65X.5001*%
%ADD10R,.5001X.65*%
%ADD12R,3.68X1.27*%
%ADD17R,2.7X2.7*%
%ADD19C,.1*%
%ADD20C,.0508*%
G75*
%LPD*%
G75*
G36*
G01X1378000Y2637500D02*
G03I-28000J0D01*
G37*
G36*
G01X20000Y3980000D02*
X200000D01*
X20000Y3800000D01*
Y3980000D01*
G37*
G36*
G01X1678000Y837500D02*
G03I-28000J0D01*
G37*
G36*
G01X1975000Y1837500D02*
G03I-25000J0D01*
G37*
G36*
G01X1678000Y3637500D02*
G03I-28000J0D01*
G37*
G36*
G01X3980000Y3980000D02*
Y3800000D01*
X3800000Y3980000D01*
X3980000D01*
G37*
G36*
G01X1375000Y2637500D02*
G03I-25000J0D01*
G37*
G36*
G01X1675000Y837500D02*
G03I-25000J0D01*
G37*
G36*
G01Y3637500D02*
G03I-25000J0D01*
G37*
G54D10*
X1449510Y624800D03*
X1433890Y343640D03*
X1449510Y718520D03*
Y796620D03*
X1479990Y3440000D03*
X1146450Y2327380D03*
X1246470D03*
X1479990Y3130000D03*
X1480750Y3530120D03*
Y3608220D03*
X1315230Y2858460D03*
X1215210D03*
X1146450Y2155560D03*
X1246470D03*
X1146450Y2499200D03*
X1246470D03*
X1146450Y2577300D03*
X1246470D03*
X269990Y1640000D03*
X370010D03*
X1549530Y624800D03*
X1533910Y343640D03*
X1549530Y718520D03*
Y796620D03*
X2883690Y368300D03*
X2983710D03*
X2591590D03*
X2691610D03*
X2870990Y812800D03*
X2971010D03*
X3277390Y774700D03*
X3377410D03*
X3442490Y368300D03*
X3542510D03*
X3175790D03*
X3275810D03*
X1580010Y3440000D03*
X1761910Y1530760D03*
X1861930D03*
X1761910Y1358940D03*
X1861930D03*
X1761910Y1702580D03*
X1861930D03*
X1761910Y1780680D03*
X1861930D03*
X2749990Y2800000D03*
X2850010D03*
X1580010Y3130000D03*
X1580770Y3530120D03*
Y3608220D03*
X2793210Y1689100D03*
X2693190D03*
X2856710Y1790700D03*
X2756690D03*
X2856710Y1879600D03*
X2756690D03*
X2856710Y1968500D03*
X2756690D03*
X2856710Y2057400D03*
X2756690D03*
X2856710Y2146300D03*
X2756690D03*
X2450010Y3580000D03*
X2349990D03*
X2440010Y3680000D03*
X2339990D03*
X2889990Y3650000D03*
X2990010D03*
X2619990D03*
X2720010D03*
X2390010Y2370000D03*
X2289990D03*
X2390010Y2460000D03*
X2289990D03*
X2390010Y2540000D03*
X2289990D03*
X2390010Y2620000D03*
X2289990D03*
X2390010Y2700000D03*
X2289990D03*
X2390010Y2780000D03*
X2289990D03*
X2220010Y3920000D03*
X2119990D03*
G54D20*
G01X1578260Y586700D02*
X1418240D01*
Y662900D01*
X1580800D01*
Y586700D01*
X1575720D01*
G01X147440Y1250240D02*
Y1090220D01*
X71240D01*
Y1252780D01*
X147440D01*
Y1247700D01*
G01X1562640Y305540D02*
X1402620D01*
Y381740D01*
X1565180D01*
Y305540D01*
X1560100D01*
G01X1578260Y680420D02*
X1418240D01*
Y756620D01*
X1580800D01*
Y680420D01*
X1575720D01*
G01X1578260Y758520D02*
X1418240D01*
Y834720D01*
X1580800D01*
Y758520D01*
X1575720D01*
G01X1608740Y3401900D02*
X1448720D01*
Y3478100D01*
X1611280D01*
Y3401900D01*
X1606200D01*
G01X1275200Y2289280D02*
X1115180D01*
Y2365480D01*
X1277740D01*
Y2289280D01*
X1272660D01*
G01X1608740Y3091900D02*
X1448720D01*
Y3168100D01*
X1611280D01*
Y3091900D01*
X1606200D01*
G01X1609500Y3492020D02*
X1449480D01*
Y3568220D01*
X1612040D01*
Y3492020D01*
X1606960D01*
G01X1609500Y3570120D02*
X1449480D01*
Y3646320D01*
X1612040D01*
Y3570120D01*
X1606960D01*
G01X1186480Y2896560D02*
X1346500D01*
Y2820360D01*
X1183940D01*
Y2896560D01*
X1189020D01*
G01X1275200Y2117460D02*
X1115180D01*
Y2193660D01*
X1277740D01*
Y2117460D01*
X1272660D01*
G01X1275200Y2461100D02*
X1115180D01*
Y2537300D01*
X1277740D01*
Y2461100D01*
X1272660D01*
G01X1275200Y2539200D02*
X1115180D01*
Y2615400D01*
X1277740D01*
Y2539200D01*
X1272660D01*
G01X1445800Y2826580D02*
Y2986600D01*
X1522000D01*
Y2824040D01*
X1445800D01*
Y2829120D01*
G01X398740Y1601900D02*
X238720D01*
Y1678100D01*
X401280D01*
Y1601900D01*
X396200D01*
G01X2287380Y1219000D02*
Y1058980D01*
X2211180D01*
Y1221540D01*
X2287380D01*
Y1216460D01*
G01X2209280Y1219000D02*
Y1058980D01*
X2133080D01*
Y1221540D01*
X2209280D01*
Y1216460D01*
G01X1959360Y219320D02*
Y59300D01*
X1883160D01*
Y221860D01*
X1959360D01*
Y216780D01*
G01X1881260Y219320D02*
Y59300D01*
X1805060D01*
Y221860D01*
X1881260D01*
Y216780D01*
G01X1758200Y1014660D02*
Y1174680D01*
X1834400D01*
Y1012120D01*
X1758200D01*
Y1017200D01*
G01X1836300Y1014660D02*
Y1174680D01*
X1912500D01*
Y1012120D01*
X1836300D01*
Y1017200D01*
G01X1914400Y1014660D02*
Y1174680D01*
X1990600D01*
Y1012120D01*
X1914400D01*
Y1017200D01*
G01X2374900Y1221740D02*
Y1061720D01*
X2298700D01*
Y1224280D01*
X2374900D01*
Y1219200D01*
G01X3012440Y330200D02*
X2852420D01*
Y406400D01*
X3014980D01*
Y330200D01*
X3009900D01*
G01X2720340D02*
X2560320D01*
Y406400D01*
X2722880D01*
Y330200D01*
X2717800D01*
G01X2628900Y929640D02*
Y769620D01*
X2552700D01*
Y932180D01*
X2628900D01*
Y927100D01*
G01X2999740Y774700D02*
X2839720D01*
Y850900D01*
X3002280D01*
Y774700D01*
X2997200D01*
G01X3406140Y736600D02*
X3246120D01*
Y812800D01*
X3408680D01*
Y736600D01*
X3403600D01*
G01X3568700Y683260D02*
Y843280D01*
X3644900D01*
Y680720D01*
X3568700D01*
Y685800D01*
G01X3571240Y330200D02*
X3411220D01*
Y406400D01*
X3573780D01*
Y330200D01*
X3568700D01*
G01X3304540D02*
X3144520D01*
Y406400D01*
X3307080D01*
Y330200D01*
X3302000D01*
G01X1890660Y1492660D02*
X1730640D01*
Y1568860D01*
X1893200D01*
Y1492660D01*
X1888120D01*
G01X1890660Y1320840D02*
X1730640D01*
Y1397040D01*
X1893200D01*
Y1320840D01*
X1888120D01*
G01X1890660Y1664480D02*
X1730640D01*
Y1740680D01*
X1893200D01*
Y1664480D01*
X1888120D01*
G01X1890660Y1742580D02*
X1730640D01*
Y1818780D01*
X1893200D01*
Y1742580D01*
X1888120D01*
G01X2054980Y2014340D02*
Y2174360D01*
X2131180D01*
Y2011800D01*
X2054980D01*
Y2016880D01*
G01X2133080Y2014340D02*
Y2174360D01*
X2209280D01*
Y2011800D01*
X2133080D01*
Y2016880D01*
G01X2211180Y2014340D02*
Y2174360D01*
X2287380D01*
Y2011800D01*
X2211180D01*
Y2016880D01*
G01X2878740Y2761900D02*
X2718720D01*
Y2838100D01*
X2881280D01*
Y2761900D01*
X2876200D01*
G01X1990600Y3015300D02*
Y2855280D01*
X1914400D01*
Y3017840D01*
X1990600D01*
Y3012760D01*
G01X1912500Y3015300D02*
Y2855280D01*
X1836300D01*
Y3017840D01*
X1912500D01*
Y3012760D01*
G01X1687540Y2015620D02*
Y1855600D01*
X1611340D01*
Y2018160D01*
X1687540D01*
Y2013080D01*
G01X1609440Y2015620D02*
Y1855600D01*
X1533240D01*
Y2018160D01*
X1609440D01*
Y2013080D01*
G01X1539520Y2826580D02*
Y2986600D01*
X1615720D01*
Y2824040D01*
X1539520D01*
Y2829120D01*
G01X1617620Y2826580D02*
Y2986600D01*
X1693820D01*
Y2824040D01*
X1617620D01*
Y2829120D01*
G01X3835660Y1311440D02*
Y1471460D01*
X3911860D01*
Y1308900D01*
X3835660D01*
Y1313980D01*
G01X2664460Y1727200D02*
X2824480D01*
Y1651000D01*
X2661920D01*
Y1727200D01*
X2667000D01*
G01X2727960Y1828800D02*
X2887980D01*
Y1752600D01*
X2725420D01*
Y1828800D01*
X2730500D01*
G01X2727960Y1917700D02*
X2887980D01*
Y1841500D01*
X2725420D01*
Y1917700D01*
X2730500D01*
G01X2727960Y2006600D02*
X2887980D01*
Y1930400D01*
X2725420D01*
Y2006600D01*
X2730500D01*
G01X2727960Y2095500D02*
X2887980D01*
Y2019300D01*
X2725420D01*
Y2095500D01*
X2730500D01*
G01X2727960Y2184400D02*
X2887980D01*
Y2108200D01*
X2725420D01*
Y2184400D01*
X2730500D01*
G01X2458100Y3168740D02*
Y3008720D01*
X2381900D01*
Y3171280D01*
X2458100D01*
Y3166200D01*
G01X2321260Y3618100D02*
X2481280D01*
Y3541900D01*
X2318720D01*
Y3618100D01*
X2323800D01*
G01X2311260Y3718100D02*
X2471280D01*
Y3641900D01*
X2308720D01*
Y3718100D01*
X2313800D01*
G01X3018740Y3611900D02*
X2858720D01*
Y3688100D01*
X3021280D01*
Y3611900D01*
X3016200D01*
G01X2748740D02*
X2588720D01*
Y3688100D01*
X2751280D01*
Y3611900D01*
X2746200D01*
G01X2588100Y2838740D02*
Y2678720D01*
X2511900D01*
Y2841280D01*
X2588100D01*
Y2836200D01*
G01X2291900Y2931260D02*
Y3091280D01*
X2368100D01*
Y2928720D01*
X2291900D01*
Y2933800D01*
G01X2261260Y2408100D02*
X2421280D01*
Y2331900D01*
X2258720D01*
Y2408100D01*
X2263800D01*
G01X2261260Y2498100D02*
X2421280D01*
Y2421900D01*
X2258720D01*
Y2498100D01*
X2263800D01*
G01X2261260Y2578100D02*
X2421280D01*
Y2501900D01*
X2258720D01*
Y2578100D01*
X2263800D01*
G01X2261260Y2658100D02*
X2421280D01*
Y2581900D01*
X2258720D01*
Y2658100D01*
X2263800D01*
G01X2261260Y2738100D02*
X2421280D01*
Y2661900D01*
X2258720D01*
Y2738100D01*
X2263800D01*
G01X2261260Y2818100D02*
X2421280D01*
Y2741900D01*
X2258720D01*
Y2818100D01*
X2263800D01*
G01X1918100Y1988740D02*
Y1828720D01*
X1841900D01*
Y1991280D01*
X1918100D01*
Y1986200D01*
G01X1998100Y1988740D02*
Y1828720D01*
X1921900D01*
Y1991280D01*
X1998100D01*
Y1986200D01*
G01X1758200Y3795020D02*
Y3955040D01*
X1834400D01*
Y3792480D01*
X1758200D01*
Y3797560D01*
G01X1836300Y3795020D02*
Y3955040D01*
X1912500D01*
Y3792480D01*
X1836300D01*
Y3797560D01*
G01X1914400Y3795020D02*
Y3955040D01*
X1990600D01*
Y3792480D01*
X1914400D01*
Y3797560D01*
G01X2091260Y3958100D02*
X2251280D01*
Y3881900D01*
X2088720D01*
Y3958100D01*
X2093800D01*
G54D11*
X109340Y1121490D03*
Y1221510D03*
X1483900Y2955330D03*
Y2855310D03*
X2249280Y1090250D03*
Y1190270D03*
X2171180Y1090250D03*
Y1190270D03*
X1921260Y90570D03*
Y190590D03*
X1843160Y90570D03*
Y190590D03*
X1796300Y1143410D03*
Y1043390D03*
X1874400Y1143410D03*
Y1043390D03*
X1952500Y1143410D03*
Y1043390D03*
X2336800Y1092990D03*
Y1193010D03*
X2590800Y800890D03*
Y900910D03*
X3606800Y812010D03*
Y711990D03*
X2093080Y2143090D03*
Y2043070D03*
X2171180Y2143090D03*
Y2043070D03*
X2249280Y2143090D03*
Y2043070D03*
X1952500Y2886550D03*
Y2986570D03*
X1874400Y2886550D03*
Y2986570D03*
X1649440Y1886870D03*
Y1986890D03*
X1571340Y1886870D03*
Y1986890D03*
X1577620Y2955330D03*
Y2855310D03*
X1655720Y2955330D03*
Y2855310D03*
X3873760Y1440190D03*
Y1340170D03*
X2420000Y3039990D03*
Y3140010D03*
X2550000Y2709990D03*
Y2810010D03*
X2330000Y3060010D03*
Y2959990D03*
X1880000Y1859990D03*
Y1960010D03*
X1960000Y1859990D03*
Y1960010D03*
X1796300Y3923770D03*
Y3823750D03*
X1874400Y3923770D03*
Y3823750D03*
X1952500Y3923770D03*
Y3823750D03*
G54D12*
X884690Y1177040D03*
Y923040D03*
X440690D03*
Y1177040D03*
X884690Y2776980D03*
Y2522980D03*
X440690D03*
Y2776980D03*
X3572010Y1177040D03*
Y923040D03*
X3128010D03*
Y1177040D03*
X3572010Y2776980D03*
Y2522980D03*
X3128010D03*
Y2776980D03*
G54D13*
X1430000Y1170000D03*
X1310000D03*
X1420000Y3320000D03*
X890000Y2250000D03*
X1010000D03*
X770000D03*
X1550000Y1170000D03*
X1540000Y3320000D03*
X1660000D03*
G54D14*
X1320000Y480000D03*
Y600000D03*
Y360000D03*
G54D15*
X997860Y1546380D03*
Y1496380D03*
Y1446380D03*
X827860D03*
Y1496380D03*
Y1546380D03*
X1294640D03*
Y1496380D03*
Y1446380D03*
X1124640D03*
Y1496380D03*
Y1546380D03*
X1294640Y2046220D03*
Y1996220D03*
Y1946220D03*
X1124640D03*
Y1996220D03*
Y2046220D03*
X997860D03*
Y1996220D03*
Y1946220D03*
X827860D03*
Y1996220D03*
Y2046220D03*
X716700D03*
Y1996220D03*
Y1946220D03*
X546700D03*
Y1996220D03*
Y2046220D03*
X435540D03*
Y1996220D03*
Y1946220D03*
X265540D03*
Y1996220D03*
Y2046220D03*
X435540Y1546380D03*
Y1496380D03*
Y1446380D03*
X265540D03*
Y1496380D03*
Y1546380D03*
X716700D03*
Y1496380D03*
Y1446380D03*
X546700D03*
Y1496380D03*
Y1546380D03*
X997860Y3108380D03*
Y3058380D03*
Y3008380D03*
X827860D03*
Y3058380D03*
Y3108380D03*
X1310260D03*
Y3058380D03*
Y3008380D03*
X1140260D03*
Y3058380D03*
Y3108380D03*
X1310260Y3561360D03*
Y3511360D03*
Y3461360D03*
X1140260D03*
Y3511360D03*
Y3561360D03*
X1013480D03*
Y3511360D03*
Y3461360D03*
X843480D03*
Y3511360D03*
Y3561360D03*
X716700D03*
Y3511360D03*
Y3461360D03*
X546700D03*
Y3511360D03*
Y3561360D03*
X419920D03*
Y3511360D03*
Y3461360D03*
X249920D03*
Y3511360D03*
Y3561360D03*
X419920Y3108380D03*
Y3058380D03*
Y3008380D03*
X249920D03*
Y3058380D03*
Y3108380D03*
X716700D03*
Y3058380D03*
Y3008380D03*
X546700D03*
Y3058380D03*
Y3108380D03*
X3059700Y296780D03*
Y246780D03*
Y196780D03*
X2889700D03*
Y246780D03*
Y296780D03*
X2762920D03*
Y246780D03*
Y196780D03*
X2592920D03*
Y246780D03*
Y296780D03*
X2760000Y650000D03*
Y600000D03*
Y550000D03*
X2590000D03*
Y600000D03*
Y650000D03*
X3060000D03*
Y600000D03*
Y550000D03*
X2890000D03*
Y600000D03*
Y650000D03*
X3340000D03*
Y600000D03*
Y550000D03*
X3170000D03*
Y600000D03*
Y650000D03*
X3610000D03*
Y600000D03*
Y550000D03*
X3440000D03*
Y600000D03*
Y650000D03*
X3606400Y296780D03*
Y246780D03*
Y196780D03*
X3436400D03*
Y246780D03*
Y296780D03*
X3340860D03*
Y246780D03*
Y196780D03*
X3170860D03*
Y246780D03*
Y296780D03*
X3059700Y3108380D03*
Y3058380D03*
Y3008380D03*
X2889700D03*
Y3058380D03*
Y3108380D03*
X2778540D03*
Y3058380D03*
Y3008380D03*
X2608540D03*
Y3058380D03*
Y3108380D03*
X3622020Y3561360D03*
Y3511360D03*
Y3461360D03*
X3452020D03*
Y3511360D03*
Y3561360D03*
X3340860D03*
Y3511360D03*
Y3461360D03*
X3170860D03*
Y3511360D03*
Y3561360D03*
X3059700D03*
Y3511360D03*
Y3461360D03*
X2889700D03*
Y3511360D03*
Y3561360D03*
X2778540D03*
Y3511360D03*
Y3461360D03*
X2608540D03*
Y3511360D03*
Y3561360D03*
X3622020Y3108380D03*
Y3058380D03*
Y3008380D03*
X3452020D03*
Y3058380D03*
Y3108380D03*
X3340860D03*
Y3058380D03*
Y3008380D03*
X3170860D03*
Y3058380D03*
Y3108380D03*
G54D16*
X1450000Y2225000D03*
Y2275000D03*
Y2325000D03*
Y2375000D03*
Y2425000D03*
Y2475000D03*
Y2525000D03*
Y2575000D03*
X2240000Y775000D03*
Y725000D03*
Y675000D03*
Y625000D03*
Y575000D03*
Y525000D03*
Y475000D03*
Y425000D03*
X1750000D03*
Y475000D03*
Y525000D03*
Y575000D03*
Y625000D03*
Y675000D03*
Y725000D03*
Y775000D03*
X2540000Y1775000D03*
Y1725000D03*
Y1675000D03*
Y1625000D03*
Y1575000D03*
Y1525000D03*
Y1475000D03*
Y1425000D03*
X2050000D03*
Y1475000D03*
Y1525000D03*
Y1575000D03*
Y1625000D03*
Y1675000D03*
Y1725000D03*
Y1775000D03*
X2240000Y3575000D03*
Y3525000D03*
Y3475000D03*
Y3425000D03*
Y3375000D03*
Y3325000D03*
Y3275000D03*
Y3225000D03*
X1750000D03*
Y3275000D03*
Y3325000D03*
Y3375000D03*
Y3425000D03*
Y3475000D03*
Y3525000D03*
Y3575000D03*
X1940000Y2575000D03*
Y2525000D03*
Y2475000D03*
Y2425000D03*
Y2375000D03*
Y2325000D03*
Y2275000D03*
Y2225000D03*
G54D17*
X2000000Y600000D03*
X2300000Y1600000D03*
X2000000Y3400000D03*
X1700000Y2400000D03*
G54D18*
X1820000Y845000D03*
X1870000D03*
X1920000D03*
X1970000D03*
X2020000D03*
X2070000D03*
X2120000D03*
X2170000D03*
Y355000D03*
X2120000D03*
X2070000D03*
X2020000D03*
X1970000D03*
X1920000D03*
X1870000D03*
X1820000D03*
X2120000Y1845000D03*
X2170000D03*
X2220000D03*
X2270000D03*
X2320000D03*
X2370000D03*
X2420000D03*
X2470000D03*
Y1355000D03*
X2420000D03*
X2370000D03*
X2320000D03*
X2270000D03*
X2220000D03*
X2170000D03*
X2120000D03*
X1820000Y3645000D03*
X1870000D03*
X1920000D03*
X1970000D03*
X2020000D03*
X2070000D03*
X2120000D03*
X2170000D03*
Y3155000D03*
X2120000D03*
X2070000D03*
X2020000D03*
X1970000D03*
X1920000D03*
X1870000D03*
X1820000D03*
X1520000Y2645000D03*
X1570000D03*
X1620000D03*
X1670000D03*
X1720000D03*
X1770000D03*
X1820000D03*
X1870000D03*
Y2155000D03*
X1820000D03*
X1770000D03*
X1720000D03*
X1670000D03*
X1620000D03*
X1570000D03*
X1520000D03*
G54D19*
G01X1136670Y1000000D02*
Y1050000D01*
X1153330D01*
X1160000Y1047500D01*
X1165000Y1044170D01*
X1169170Y1039170D01*
X1172500Y1033330D01*
X1173330Y1025000D01*
X1172500Y1016670D01*
X1169170Y1010830D01*
X1165000Y1005830D01*
X1160000Y1002500D01*
X1153330Y1000000D01*
X1136670D01*
G01X1193330D02*
Y1033330D01*
G01Y1026670D02*
X1197500Y1030000D01*
X1201670Y1032500D01*
X1207500Y1033330D01*
X1211670Y1032500D01*
X1216670Y1030000D01*
G01X1240000Y1033330D02*
X1255000Y1000000D01*
X1270000Y1033330D01*
G01X1286670Y1010000D02*
X1291670Y1004170D01*
X1298330Y1000830D01*
X1305830Y1000000D01*
X1312500Y1000830D01*
X1319170Y1005000D01*
X1323330Y1010000D01*
X1324170Y1015000D01*
X1322500Y1020830D01*
X1316670Y1025000D01*
X1310830Y1026670D01*
X1303330D01*
G01X1310830D02*
X1315830Y1029170D01*
X1320000Y1033330D01*
X1321670Y1038330D01*
X1320000Y1043330D01*
X1315830Y1047500D01*
X1308330Y1050000D01*
X1300830Y1049170D01*
X1293330Y1045830D01*
G01X1388330Y1000000D02*
Y1050000D01*
X1409170D01*
X1415830Y1047500D01*
X1420000Y1044170D01*
X1421670Y1037500D01*
X1420000Y1030830D01*
X1415000Y1026670D01*
X1409170Y1024170D01*
X1388330D01*
G01X1409170D02*
X1421670Y1000000D01*
G01X1442500Y1005830D02*
X1446670Y1002500D01*
X1452500Y1000000D01*
X1457500D01*
X1462500Y1001670D01*
X1465830Y1004170D01*
X1467500Y1007500D01*
X1466670Y1012500D01*
X1463330Y1015000D01*
X1448330Y1020000D01*
X1445000Y1025830D01*
X1446670Y1030000D01*
X1450000Y1032500D01*
X1455000Y1033330D01*
X1460000Y1032500D01*
X1465000Y1030000D01*
G01X1505000Y1050000D02*
Y1000000D01*
G01X1493330Y1033330D02*
X1516670D01*
G01X1170000Y945000D02*
X1186670D01*
Y930000D01*
X1181670Y925000D01*
X1175830Y921670D01*
X1167500Y920000D01*
X1159170Y921670D01*
X1153330Y925000D01*
X1148330Y930000D01*
X1145000Y935830D01*
X1143330Y942500D01*
Y948330D01*
X1145000Y953330D01*
X1148330Y959170D01*
X1153330Y964170D01*
X1158330Y967500D01*
X1165000Y970000D01*
X1170830D01*
X1177500Y968330D01*
X1182500Y965000D01*
G01X1195830Y920000D02*
Y970000D01*
X1234170Y920000D01*
Y970000D01*
G01X1246670Y920000D02*
Y970000D01*
X1263330D01*
X1270000Y967500D01*
X1275000Y964170D01*
X1279170Y959170D01*
X1282500Y953330D01*
X1283330Y945000D01*
X1282500Y936670D01*
X1279170Y930830D01*
X1275000Y925830D01*
X1270000Y922500D01*
X1263330Y920000D01*
X1246670D01*
G01X75830Y680000D02*
Y730000D01*
X114170Y680000D01*
Y730000D01*
G01X163330Y725830D02*
X158330Y728330D01*
X152500Y730000D01*
X145830D01*
X138330Y727500D01*
X132500Y723330D01*
X128330Y718330D01*
X125000Y710000D01*
X124170Y702500D01*
X125830Y695000D01*
X128330Y690000D01*
X133330Y685000D01*
X139170Y681670D01*
X145000Y680000D01*
X150830D01*
X156670Y681670D01*
X161670Y684170D01*
X165830Y687500D01*
G01X103330Y835830D02*
X98330Y838330D01*
X92500Y840000D01*
X85830D01*
X78330Y837500D01*
X72500Y833330D01*
X68330Y828330D01*
X65000Y820000D01*
X64170Y812500D01*
X65830Y805000D01*
X68330Y800000D01*
X73330Y795000D01*
X79170Y791670D01*
X85000Y790000D01*
X90830D01*
X96670Y791670D01*
X101670Y794170D01*
X105830Y797500D01*
G01X117500Y796670D02*
X124170Y792500D01*
X131670Y790000D01*
X138330D01*
X145000Y792500D01*
X150000Y796670D01*
X152500Y802500D01*
X150830Y808330D01*
X146670Y813330D01*
X139170Y816670D01*
X129170Y818330D01*
X123330Y821670D01*
X120830Y827500D01*
X122500Y833330D01*
X126670Y837500D01*
X132500Y840000D01*
X138330D01*
X144170Y838330D01*
X149170Y834170D01*
G01X166670Y800000D02*
X171670Y794170D01*
X178330Y790830D01*
X185830Y790000D01*
X192500Y790830D01*
X199170Y795000D01*
X203330Y800000D01*
X204170Y805000D01*
X202500Y810830D01*
X196670Y815000D01*
X190830Y816670D01*
X183330D01*
G01X190830D02*
X195830Y819170D01*
X200000Y823330D01*
X201670Y828330D01*
X200000Y833330D01*
X195830Y837500D01*
X188330Y840000D01*
X180830Y839170D01*
X173330Y835830D01*
G01X66670Y70000D02*
X71670Y64170D01*
X78330Y60830D01*
X85830Y60000D01*
X92500Y60830D01*
X99170Y65000D01*
X103330Y70000D01*
X104170Y75000D01*
X102500Y80830D01*
X96670Y85000D01*
X90830Y86670D01*
X83330D01*
G01X90830D02*
X95830Y89170D01*
X100000Y93330D01*
X101670Y98330D01*
X100000Y103330D01*
X95830Y107500D01*
X88330Y110000D01*
X80830Y109170D01*
X73330Y105830D01*
G01X133330Y50830D02*
X136670Y61670D01*
G01X169170Y101670D02*
X174170Y106670D01*
X180000Y109170D01*
X186670Y110000D01*
X195000Y108330D01*
X200830Y104170D01*
X202500Y99170D01*
X201670Y94170D01*
X198330Y90000D01*
X181670Y81670D01*
X174170Y75830D01*
X169170Y67500D01*
X167500Y60000D01*
X202500D01*
G01X235000Y110000D02*
X228330Y108330D01*
X223330Y104170D01*
X220000Y99170D01*
X217500Y92500D01*
X216670Y85000D01*
X217500Y77500D01*
X220000Y70830D01*
X223330Y65830D01*
X228330Y61670D01*
X235000Y60000D01*
X241670Y61670D01*
X246670Y65830D01*
X250000Y70830D01*
X252500Y77500D01*
X253330Y85000D01*
X252500Y92500D01*
X250000Y99170D01*
X246670Y104170D01*
X241670Y108330D01*
X235000Y110000D01*
G01X285000Y60000D02*
Y110000D01*
X275000Y100000D01*
G01Y60000D02*
X295000D01*
G01X333330D02*
X335000Y70830D01*
X337500Y80000D01*
X340830Y88330D01*
X345000Y97500D01*
X351670Y110000D01*
X318330D01*
G01X414170D02*
X435000Y60000D01*
X455830Y110000D01*
G01X469170Y101670D02*
X474170Y106670D01*
X480000Y109170D01*
X486670Y110000D01*
X495000Y108330D01*
X500830Y104170D01*
X502500Y99170D01*
X501670Y94170D01*
X498330Y90000D01*
X481670Y81670D01*
X474170Y75830D01*
X469170Y67500D01*
X467500Y60000D01*
X502500D01*
G01X1473330Y565830D02*
X1468330Y568330D01*
X1462500Y570000D01*
X1455830D01*
X1448330Y567500D01*
X1442500Y563330D01*
X1438330Y558330D01*
X1435000Y550000D01*
X1434170Y542500D01*
X1435830Y535000D01*
X1438330Y530000D01*
X1443330Y525000D01*
X1449170Y521670D01*
X1455000Y520000D01*
X1460830D01*
X1466670Y521670D01*
X1471670Y524170D01*
X1475830Y527500D01*
G01X1489170Y561670D02*
X1494170Y566670D01*
X1500000Y569170D01*
X1506670Y570000D01*
X1515000Y568330D01*
X1520830Y564170D01*
X1522500Y559170D01*
X1521670Y554170D01*
X1518330Y550000D01*
X1501670Y541670D01*
X1494170Y535830D01*
X1489170Y527500D01*
X1487500Y520000D01*
X1522500D01*
G01X90000Y1341670D02*
X140000D01*
Y1320830D01*
X137500Y1314170D01*
X134170Y1310000D01*
X127500Y1308330D01*
X120830Y1310000D01*
X116670Y1315000D01*
X114170Y1320830D01*
Y1341670D01*
G01Y1320830D02*
X90000Y1308330D01*
G01Y1275000D02*
X140000D01*
X130000Y1285000D01*
G01X90000D02*
Y1265000D01*
G01X1278330Y720000D02*
Y770000D01*
X1299170D01*
X1305830Y767500D01*
X1310000Y764170D01*
X1311670Y757500D01*
X1310000Y750830D01*
X1305000Y746670D01*
X1299170Y744170D01*
X1278330D01*
G01X1299170D02*
X1311670Y720000D01*
G01X1326670Y730000D02*
X1331670Y724170D01*
X1338330Y720830D01*
X1345830Y720000D01*
X1352500Y720830D01*
X1359170Y725000D01*
X1363330Y730000D01*
X1364170Y735000D01*
X1362500Y740830D01*
X1356670Y745000D01*
X1350830Y746670D01*
X1343330D01*
G01X1350830D02*
X1355830Y749170D01*
X1360000Y753330D01*
X1361670Y758330D01*
X1360000Y763330D01*
X1355830Y767500D01*
X1348330Y770000D01*
X1340830Y769170D01*
X1333330Y765830D01*
G01X1379170Y761670D02*
X1384170Y766670D01*
X1390000Y769170D01*
X1396670Y770000D01*
X1405000Y768330D01*
X1410830Y764170D01*
X1412500Y759170D01*
X1411670Y754170D01*
X1408330Y750000D01*
X1391670Y741670D01*
X1384170Y735830D01*
X1379170Y727500D01*
X1377500Y720000D01*
X1412500D01*
G01X1438330Y840000D02*
Y890000D01*
X1459170D01*
X1465830Y887500D01*
X1470000Y884170D01*
X1471670Y877500D01*
X1470000Y870830D01*
X1465000Y866670D01*
X1459170Y864170D01*
X1438330D01*
G01X1459170D02*
X1471670Y840000D01*
G01X1486670Y850000D02*
X1491670Y844170D01*
X1498330Y840830D01*
X1505830Y840000D01*
X1512500Y840830D01*
X1519170Y845000D01*
X1523330Y850000D01*
X1524170Y855000D01*
X1522500Y860830D01*
X1516670Y865000D01*
X1510830Y866670D01*
X1503330D01*
G01X1510830D02*
X1515830Y869170D01*
X1520000Y873330D01*
X1521670Y878330D01*
X1520000Y883330D01*
X1515830Y887500D01*
X1508330Y890000D01*
X1500830Y889170D01*
X1493330Y885830D01*
G01X1536670Y850000D02*
X1541670Y844170D01*
X1548330Y840830D01*
X1555830Y840000D01*
X1562500Y840830D01*
X1569170Y845000D01*
X1573330Y850000D01*
X1574170Y855000D01*
X1572500Y860830D01*
X1566670Y865000D01*
X1560830Y866670D01*
X1553330D01*
G01X1560830D02*
X1565830Y869170D01*
X1570000Y873330D01*
X1571670Y878330D01*
X1570000Y883330D01*
X1565830Y887500D01*
X1558330Y890000D01*
X1550830Y889170D01*
X1543330Y885830D01*
G01X38330Y910000D02*
X42500Y905000D01*
X47500Y901670D01*
X53330Y900000D01*
X60000Y901670D01*
X65000Y905000D01*
X70000Y910000D01*
X71670Y916670D01*
Y950000D01*
G01X115000Y900000D02*
Y950000D01*
X84170Y914170D01*
X125830D01*
G01X1105000Y450000D02*
Y472500D01*
X1088330Y500000D01*
G01X1121670D02*
X1105000Y472500D01*
G01X1165000Y450000D02*
Y500000D01*
X1134170Y464170D01*
X1175830D01*
G01X56670Y2220000D02*
Y2270000D01*
X73330D01*
X80000Y2267500D01*
X85000Y2264170D01*
X89170Y2259170D01*
X92500Y2253330D01*
X93330Y2245000D01*
X92500Y2236670D01*
X89170Y2230830D01*
X85000Y2225830D01*
X80000Y2222500D01*
X73330Y2220000D01*
X56670D01*
G01X108330D02*
Y2270000D01*
X129170D01*
X135830Y2267500D01*
X140000Y2264170D01*
X141670Y2257500D01*
X140000Y2250830D01*
X135000Y2246670D01*
X129170Y2244170D01*
X108330D01*
G01X129170D02*
X141670Y2220000D01*
G01X154170Y2270000D02*
X175000Y2220000D01*
X195830Y2270000D01*
G01X209170Y2261670D02*
X214170Y2266670D01*
X220000Y2269170D01*
X226670Y2270000D01*
X235000Y2268330D01*
X240830Y2264170D01*
X242500Y2259170D01*
X241670Y2254170D01*
X238330Y2250000D01*
X221670Y2241670D01*
X214170Y2235830D01*
X209170Y2227500D01*
X207500Y2220000D01*
X242500D01*
G01X308330D02*
Y2270000D01*
X329170D01*
X335830Y2267500D01*
X340000Y2264170D01*
X341670Y2257500D01*
X340000Y2250830D01*
X335000Y2246670D01*
X329170Y2244170D01*
X308330D01*
G01X329170D02*
X341670Y2220000D01*
G01X362500Y2242500D02*
X389170D01*
X386670Y2248330D01*
X382500Y2251670D01*
X376670Y2253330D01*
X370830Y2252500D01*
X365830Y2250000D01*
X362500Y2244170D01*
X360830Y2239170D01*
Y2234170D01*
X362500Y2229170D01*
X366670Y2224170D01*
X371670Y2220830D01*
X377500Y2220000D01*
X383330Y2221670D01*
X389170Y2226670D01*
G01X412500Y2225830D02*
X416670Y2222500D01*
X422500Y2220000D01*
X427500D01*
X432500Y2221670D01*
X435830Y2224170D01*
X437500Y2227500D01*
X436670Y2232500D01*
X433330Y2235000D01*
X418330Y2240000D01*
X415000Y2245830D01*
X416670Y2250000D01*
X420000Y2252500D01*
X425000Y2253330D01*
X430000Y2252500D01*
X435000Y2250000D01*
G01X462500Y2242500D02*
X489170D01*
X486670Y2248330D01*
X482500Y2251670D01*
X476670Y2253330D01*
X470830Y2252500D01*
X465830Y2250000D01*
X462500Y2244170D01*
X460830Y2239170D01*
Y2234170D01*
X462500Y2229170D01*
X466670Y2224170D01*
X471670Y2220830D01*
X477500Y2220000D01*
X483330Y2221670D01*
X489170Y2226670D01*
G01X525000Y2270000D02*
Y2220000D01*
G01X513330Y2253330D02*
X536670D01*
G01X75830Y2300000D02*
Y2350000D01*
X114170Y2300000D01*
Y2350000D01*
G01X163330Y2345830D02*
X158330Y2348330D01*
X152500Y2350000D01*
X145830D01*
X138330Y2347500D01*
X132500Y2343330D01*
X128330Y2338330D01*
X125000Y2330000D01*
X124170Y2322500D01*
X125830Y2315000D01*
X128330Y2310000D01*
X133330Y2305000D01*
X139170Y2301670D01*
X145000Y2300000D01*
X150830D01*
X156670Y2301670D01*
X161670Y2304170D01*
X165830Y2307500D01*
G01X1113330Y2740000D02*
Y2790000D01*
X1135000Y2748330D01*
X1156670Y2790000D01*
Y2740000D01*
G01X1185000D02*
X1178330Y2740830D01*
X1172500Y2744170D01*
X1167500Y2749170D01*
X1164170Y2755000D01*
X1162500Y2761670D01*
Y2768330D01*
X1164170Y2775000D01*
X1167500Y2780830D01*
X1172500Y2785830D01*
X1178330Y2789170D01*
X1185000Y2790000D01*
X1191670Y2789170D01*
X1197500Y2785830D01*
X1202500Y2780830D01*
X1205830Y2775000D01*
X1207500Y2768330D01*
Y2761670D01*
X1205830Y2755000D01*
X1202500Y2749170D01*
X1197500Y2744170D01*
X1191670Y2740830D01*
X1185000Y2740000D01*
G01X1217500Y2746670D02*
X1224170Y2742500D01*
X1231670Y2740000D01*
X1238330D01*
X1245000Y2742500D01*
X1250000Y2746670D01*
X1252500Y2752500D01*
X1250830Y2758330D01*
X1246670Y2763330D01*
X1239170Y2766670D01*
X1229170Y2768330D01*
X1223330Y2771670D01*
X1220830Y2777500D01*
X1222500Y2783330D01*
X1226670Y2787500D01*
X1232500Y2790000D01*
X1238330D01*
X1244170Y2788330D01*
X1249170Y2784170D01*
G01X1275000Y2790000D02*
X1295000D01*
G01X1285000D02*
Y2740000D01*
G01X1275000D02*
X1295000D01*
G01X1003330Y2425830D02*
X998330Y2428330D01*
X992500Y2430000D01*
X985830D01*
X978330Y2427500D01*
X972500Y2423330D01*
X968330Y2418330D01*
X965000Y2410000D01*
X964170Y2402500D01*
X965830Y2395000D01*
X968330Y2390000D01*
X973330Y2385000D01*
X979170Y2381670D01*
X985000Y2380000D01*
X990830D01*
X996670Y2381670D01*
X1001670Y2384170D01*
X1005830Y2387500D01*
G01X1017500Y2386670D02*
X1024170Y2382500D01*
X1031670Y2380000D01*
X1038330D01*
X1045000Y2382500D01*
X1050000Y2386670D01*
X1052500Y2392500D01*
X1050830Y2398330D01*
X1046670Y2403330D01*
X1039170Y2406670D01*
X1029170Y2408330D01*
X1023330Y2411670D01*
X1020830Y2417500D01*
X1022500Y2423330D01*
X1026670Y2427500D01*
X1032500Y2430000D01*
X1038330D01*
X1044170Y2428330D01*
X1049170Y2424170D01*
G01X1069170Y2421670D02*
X1074170Y2426670D01*
X1080000Y2429170D01*
X1086670Y2430000D01*
X1095000Y2428330D01*
X1100830Y2424170D01*
X1102500Y2419170D01*
X1101670Y2414170D01*
X1098330Y2410000D01*
X1081670Y2401670D01*
X1074170Y2395830D01*
X1069170Y2387500D01*
X1067500Y2380000D01*
X1102500D01*
G01X1183330Y2285830D02*
X1178330Y2288330D01*
X1172500Y2290000D01*
X1165830D01*
X1158330Y2287500D01*
X1152500Y2283330D01*
X1148330Y2278330D01*
X1145000Y2270000D01*
X1144170Y2262500D01*
X1145830Y2255000D01*
X1148330Y2250000D01*
X1153330Y2245000D01*
X1159170Y2241670D01*
X1165000Y2240000D01*
X1170830D01*
X1176670Y2241670D01*
X1181670Y2244170D01*
X1185830Y2247500D01*
G01X1225000Y2240000D02*
Y2290000D01*
X1194170Y2254170D01*
X1235830D01*
G01X1488330Y3170000D02*
Y3220000D01*
X1509170D01*
X1515830Y3217500D01*
X1520000Y3214170D01*
X1521670Y3207500D01*
X1520000Y3200830D01*
X1515000Y3196670D01*
X1509170Y3194170D01*
X1488330D01*
G01X1509170D02*
X1521670Y3170000D01*
G01X1555000D02*
Y3220000D01*
X1545000Y3210000D01*
G01Y3170000D02*
X1565000D01*
G01X1605000D02*
Y3220000D01*
X1595000Y3210000D01*
G01Y3170000D02*
X1615000D01*
G01X1458330Y3680000D02*
Y3730000D01*
X1479170D01*
X1485830Y3727500D01*
X1490000Y3724170D01*
X1491670Y3717500D01*
X1490000Y3710830D01*
X1485000Y3706670D01*
X1479170Y3704170D01*
X1458330D01*
G01X1479170D02*
X1491670Y3680000D01*
G01X1525000D02*
Y3730000D01*
X1515000Y3720000D01*
G01Y3680000D02*
X1535000D01*
G01X1585000D02*
Y3730000D01*
X1554170Y3694170D01*
X1595830D01*
G01X1458330Y3750000D02*
Y3800000D01*
X1479170D01*
X1485830Y3797500D01*
X1490000Y3794170D01*
X1491670Y3787500D01*
X1490000Y3780830D01*
X1485000Y3776670D01*
X1479170Y3774170D01*
X1458330D01*
G01X1479170D02*
X1491670Y3750000D01*
G01X1525000D02*
Y3800000D01*
X1515000Y3790000D01*
G01Y3750000D02*
X1535000D01*
G01X1556670Y3757500D02*
X1561670Y3753330D01*
X1567500Y3750830D01*
X1575000Y3750000D01*
X1582500Y3751670D01*
X1588330Y3755000D01*
X1592500Y3760830D01*
X1593330Y3767500D01*
X1591670Y3774170D01*
X1587500Y3778330D01*
X1581670Y3781670D01*
X1575830Y3782500D01*
X1570000Y3781670D01*
X1562500Y3778330D01*
X1565000Y3800000D01*
X1587500D01*
G01X1189730Y2934660D02*
Y2984660D01*
X1210570D01*
X1217230Y2982160D01*
X1221400Y2978830D01*
X1223070Y2972160D01*
X1221400Y2965490D01*
X1216400Y2961330D01*
X1210570Y2958830D01*
X1189730D01*
G01X1210570D02*
X1223070Y2934660D01*
G01X1256400D02*
Y2984660D01*
X1246400Y2974660D01*
G01Y2934660D02*
X1266400D01*
G01X1292230Y2940490D02*
X1298070Y2936330D01*
X1304730Y2934660D01*
X1311400Y2936330D01*
X1317230Y2941330D01*
X1321400Y2948830D01*
X1323070Y2956330D01*
Y2965490D01*
X1321400Y2972990D01*
X1317230Y2979660D01*
X1312230Y2982990D01*
X1306400Y2984660D01*
X1299730Y2982990D01*
X1294730Y2979660D01*
X1291400Y2974660D01*
X1289730Y2967990D01*
X1291400Y2962160D01*
X1295570Y2956330D01*
X1300570Y2952990D01*
X1306400Y2952160D01*
X1313070Y2953830D01*
X1318070Y2957990D01*
X1323070Y2965490D01*
G01X1480000Y1961670D02*
X1530000D01*
Y1940830D01*
X1527500Y1934170D01*
X1524170Y1930000D01*
X1517500Y1928330D01*
X1510830Y1930000D01*
X1506670Y1935000D01*
X1504170Y1940830D01*
Y1961670D01*
G01Y1940830D02*
X1480000Y1928330D01*
G01X1521670Y1910830D02*
X1526670Y1905830D01*
X1529170Y1900000D01*
X1530000Y1893330D01*
X1528330Y1885000D01*
X1524170Y1879170D01*
X1519170Y1877500D01*
X1514170Y1878330D01*
X1510000Y1881670D01*
X1501670Y1898330D01*
X1495830Y1905830D01*
X1487500Y1910830D01*
X1480000Y1912500D01*
Y1877500D01*
G01Y1845000D02*
X1530000D01*
X1520000Y1855000D01*
G01X1480000D02*
Y1835000D01*
G01X1298330Y2140000D02*
Y2190000D01*
X1319170D01*
X1325830Y2187500D01*
X1330000Y2184170D01*
X1331670Y2177500D01*
X1330000Y2170830D01*
X1325000Y2166670D01*
X1319170Y2164170D01*
X1298330D01*
G01X1319170D02*
X1331670Y2140000D01*
G01X1349170Y2181670D02*
X1354170Y2186670D01*
X1360000Y2189170D01*
X1366670Y2190000D01*
X1375000Y2188330D01*
X1380830Y2184170D01*
X1382500Y2179170D01*
X1381670Y2174170D01*
X1378330Y2170000D01*
X1361670Y2161670D01*
X1354170Y2155830D01*
X1349170Y2147500D01*
X1347500Y2140000D01*
X1382500D01*
G01X1399170Y2181670D02*
X1404170Y2186670D01*
X1410000Y2189170D01*
X1416670Y2190000D01*
X1425000Y2188330D01*
X1430830Y2184170D01*
X1432500Y2179170D01*
X1431670Y2174170D01*
X1428330Y2170000D01*
X1411670Y2161670D01*
X1404170Y2155830D01*
X1399170Y2147500D01*
X1397500Y2140000D01*
X1432500D01*
G01X1128330Y2400000D02*
Y2450000D01*
X1149170D01*
X1155830Y2447500D01*
X1160000Y2444170D01*
X1161670Y2437500D01*
X1160000Y2430830D01*
X1155000Y2426670D01*
X1149170Y2424170D01*
X1128330D01*
G01X1149170D02*
X1161670Y2400000D01*
G01X1179170Y2441670D02*
X1184170Y2446670D01*
X1190000Y2449170D01*
X1196670Y2450000D01*
X1205000Y2448330D01*
X1210830Y2444170D01*
X1212500Y2439170D01*
X1211670Y2434170D01*
X1208330Y2430000D01*
X1191670Y2421670D01*
X1184170Y2415830D01*
X1179170Y2407500D01*
X1177500Y2400000D01*
X1212500D01*
G01X1226670Y2410000D02*
X1231670Y2404170D01*
X1238330Y2400830D01*
X1245830Y2400000D01*
X1252500Y2400830D01*
X1259170Y2405000D01*
X1263330Y2410000D01*
X1264170Y2415000D01*
X1262500Y2420830D01*
X1256670Y2425000D01*
X1250830Y2426670D01*
X1243330D01*
G01X1250830D02*
X1255830Y2429170D01*
X1260000Y2433330D01*
X1261670Y2438330D01*
X1260000Y2443330D01*
X1255830Y2447500D01*
X1248330Y2450000D01*
X1240830Y2449170D01*
X1233330Y2445830D01*
G01X1128330Y2620000D02*
Y2670000D01*
X1149170D01*
X1155830Y2667500D01*
X1160000Y2664170D01*
X1161670Y2657500D01*
X1160000Y2650830D01*
X1155000Y2646670D01*
X1149170Y2644170D01*
X1128330D01*
G01X1149170D02*
X1161670Y2620000D01*
G01X1179170Y2661670D02*
X1184170Y2666670D01*
X1190000Y2669170D01*
X1196670Y2670000D01*
X1205000Y2668330D01*
X1210830Y2664170D01*
X1212500Y2659170D01*
X1211670Y2654170D01*
X1208330Y2650000D01*
X1191670Y2641670D01*
X1184170Y2635830D01*
X1179170Y2627500D01*
X1177500Y2620000D01*
X1212500D01*
G01X1255000D02*
Y2670000D01*
X1224170Y2634170D01*
X1265830D01*
G01X1430000Y2848330D02*
X1380000D01*
Y2869170D01*
X1382500Y2875830D01*
X1385830Y2880000D01*
X1392500Y2881670D01*
X1399170Y2880000D01*
X1403330Y2875000D01*
X1405830Y2869170D01*
Y2848330D01*
G01Y2869170D02*
X1430000Y2881670D01*
G01X1388330Y2899170D02*
X1383330Y2904170D01*
X1380830Y2910000D01*
X1380000Y2916670D01*
X1381670Y2925000D01*
X1385830Y2930830D01*
X1390830Y2932500D01*
X1395830Y2931670D01*
X1400000Y2928330D01*
X1408330Y2911670D01*
X1414170Y2904170D01*
X1422500Y2899170D01*
X1430000Y2897500D01*
Y2932500D01*
G01X1422500Y2946670D02*
X1426670Y2951670D01*
X1429170Y2957500D01*
X1430000Y2965000D01*
X1428330Y2972500D01*
X1425000Y2978330D01*
X1419170Y2982500D01*
X1412500Y2983330D01*
X1405830Y2981670D01*
X1401670Y2977500D01*
X1398330Y2971670D01*
X1397500Y2965830D01*
X1398330Y2960000D01*
X1401670Y2952500D01*
X1380000Y2955000D01*
Y2977500D01*
G01X258330Y1680000D02*
Y1730000D01*
X279170D01*
X285830Y1727500D01*
X290000Y1724170D01*
X291670Y1717500D01*
X290000Y1710830D01*
X285000Y1706670D01*
X279170Y1704170D01*
X258330D01*
G01X279170D02*
X291670Y1680000D01*
G01X335000D02*
Y1730000D01*
X304170Y1694170D01*
X345830D01*
G01X356670Y1690000D02*
X361670Y1684170D01*
X368330Y1680830D01*
X375830Y1680000D01*
X382500Y1680830D01*
X389170Y1685000D01*
X393330Y1690000D01*
X394170Y1695000D01*
X392500Y1700830D01*
X386670Y1705000D01*
X380830Y1706670D01*
X373330D01*
G01X380830D02*
X385830Y1709170D01*
X390000Y1713330D01*
X391670Y1718330D01*
X390000Y1723330D01*
X385830Y1727500D01*
X378330Y1730000D01*
X370830Y1729170D01*
X363330Y1725830D01*
G01X895000Y1370000D02*
X888330Y1370830D01*
X882500Y1374170D01*
X877500Y1379170D01*
X874170Y1385000D01*
X872500Y1391670D01*
Y1398330D01*
X874170Y1405000D01*
X877500Y1410830D01*
X882500Y1415830D01*
X888330Y1419170D01*
X895000Y1420000D01*
X901670Y1419170D01*
X907500Y1415830D01*
X912500Y1410830D01*
X915830Y1405000D01*
X917500Y1398330D01*
Y1391670D01*
X915830Y1385000D01*
X912500Y1379170D01*
X907500Y1374170D01*
X901670Y1370830D01*
X895000Y1370000D01*
G01X901670Y1383330D02*
X911670Y1370000D01*
G01X945000D02*
Y1420000D01*
X935000Y1410000D01*
G01Y1370000D02*
X955000D01*
G01X847860Y1586380D02*
G03I-10000J0D01*
G01X1185000Y1360000D02*
X1178330Y1360830D01*
X1172500Y1364170D01*
X1167500Y1369170D01*
X1164170Y1375000D01*
X1162500Y1381670D01*
Y1388330D01*
X1164170Y1395000D01*
X1167500Y1400830D01*
X1172500Y1405830D01*
X1178330Y1409170D01*
X1185000Y1410000D01*
X1191670Y1409170D01*
X1197500Y1405830D01*
X1202500Y1400830D01*
X1205830Y1395000D01*
X1207500Y1388330D01*
Y1381670D01*
X1205830Y1375000D01*
X1202500Y1369170D01*
X1197500Y1364170D01*
X1191670Y1360830D01*
X1185000Y1360000D01*
G01X1191670Y1373330D02*
X1201670Y1360000D01*
G01X1219170Y1401670D02*
X1224170Y1406670D01*
X1230000Y1409170D01*
X1236670Y1410000D01*
X1245000Y1408330D01*
X1250830Y1404170D01*
X1252500Y1399170D01*
X1251670Y1394170D01*
X1248330Y1390000D01*
X1231670Y1381670D01*
X1224170Y1375830D01*
X1219170Y1367500D01*
X1217500Y1360000D01*
X1252500D01*
G01X1144640Y1586380D02*
G03I-10000J0D01*
G01X1205000Y1870000D02*
X1198330Y1870830D01*
X1192500Y1874170D01*
X1187500Y1879170D01*
X1184170Y1885000D01*
X1182500Y1891670D01*
Y1898330D01*
X1184170Y1905000D01*
X1187500Y1910830D01*
X1192500Y1915830D01*
X1198330Y1919170D01*
X1205000Y1920000D01*
X1211670Y1919170D01*
X1217500Y1915830D01*
X1222500Y1910830D01*
X1225830Y1905000D01*
X1227500Y1898330D01*
Y1891670D01*
X1225830Y1885000D01*
X1222500Y1879170D01*
X1217500Y1874170D01*
X1211670Y1870830D01*
X1205000Y1870000D01*
G01X1211670Y1883330D02*
X1221670Y1870000D01*
G01X1236670Y1880000D02*
X1241670Y1874170D01*
X1248330Y1870830D01*
X1255830Y1870000D01*
X1262500Y1870830D01*
X1269170Y1875000D01*
X1273330Y1880000D01*
X1274170Y1885000D01*
X1272500Y1890830D01*
X1266670Y1895000D01*
X1260830Y1896670D01*
X1253330D01*
G01X1260830D02*
X1265830Y1899170D01*
X1270000Y1903330D01*
X1271670Y1908330D01*
X1270000Y1913330D01*
X1265830Y1917500D01*
X1258330Y1920000D01*
X1250830Y1919170D01*
X1243330Y1915830D01*
G01X1144640Y2086220D02*
G03I-10000J0D01*
G01X895000Y1860000D02*
X888330Y1860830D01*
X882500Y1864170D01*
X877500Y1869170D01*
X874170Y1875000D01*
X872500Y1881670D01*
Y1888330D01*
X874170Y1895000D01*
X877500Y1900830D01*
X882500Y1905830D01*
X888330Y1909170D01*
X895000Y1910000D01*
X901670Y1909170D01*
X907500Y1905830D01*
X912500Y1900830D01*
X915830Y1895000D01*
X917500Y1888330D01*
Y1881670D01*
X915830Y1875000D01*
X912500Y1869170D01*
X907500Y1864170D01*
X901670Y1860830D01*
X895000Y1860000D01*
G01X901670Y1873330D02*
X911670Y1860000D01*
G01X955000D02*
Y1910000D01*
X924170Y1874170D01*
X965830D01*
G01X847860Y2086220D02*
G03I-10000J0D01*
G01X605000Y1860000D02*
X598330Y1860830D01*
X592500Y1864170D01*
X587500Y1869170D01*
X584170Y1875000D01*
X582500Y1881670D01*
Y1888330D01*
X584170Y1895000D01*
X587500Y1900830D01*
X592500Y1905830D01*
X598330Y1909170D01*
X605000Y1910000D01*
X611670Y1909170D01*
X617500Y1905830D01*
X622500Y1900830D01*
X625830Y1895000D01*
X627500Y1888330D01*
Y1881670D01*
X625830Y1875000D01*
X622500Y1869170D01*
X617500Y1864170D01*
X611670Y1860830D01*
X605000Y1860000D01*
G01X611670Y1873330D02*
X621670Y1860000D01*
G01X636670Y1867500D02*
X641670Y1863330D01*
X647500Y1860830D01*
X655000Y1860000D01*
X662500Y1861670D01*
X668330Y1865000D01*
X672500Y1870830D01*
X673330Y1877500D01*
X671670Y1884170D01*
X667500Y1888330D01*
X661670Y1891670D01*
X655830Y1892500D01*
X650000Y1891670D01*
X642500Y1888330D01*
X645000Y1910000D01*
X667500D01*
G01X566700Y2086220D02*
G03I-10000J0D01*
G01X335000Y1870000D02*
X328330Y1870830D01*
X322500Y1874170D01*
X317500Y1879170D01*
X314170Y1885000D01*
X312500Y1891670D01*
Y1898330D01*
X314170Y1905000D01*
X317500Y1910830D01*
X322500Y1915830D01*
X328330Y1919170D01*
X335000Y1920000D01*
X341670Y1919170D01*
X347500Y1915830D01*
X352500Y1910830D01*
X355830Y1905000D01*
X357500Y1898330D01*
Y1891670D01*
X355830Y1885000D01*
X352500Y1879170D01*
X347500Y1874170D01*
X341670Y1870830D01*
X335000Y1870000D01*
G01X341670Y1883330D02*
X351670Y1870000D01*
G01X369170Y1890830D02*
X375000Y1896670D01*
X380000Y1900000D01*
X386670Y1901670D01*
X392500Y1900000D01*
X396670Y1896670D01*
X400000Y1891670D01*
X400830Y1885830D01*
X400000Y1880830D01*
X396670Y1875830D01*
X391670Y1871670D01*
X385830Y1870000D01*
X379170Y1871670D01*
X373330Y1876670D01*
X370000Y1884170D01*
X369170Y1892500D01*
X370830Y1903330D01*
X373330Y1909170D01*
X377500Y1915000D01*
X383330Y1919170D01*
X389170Y1920000D01*
X395000Y1918330D01*
X399170Y1914170D01*
G01X285540Y2086220D02*
G03I-10000J0D01*
G01X315000Y1360000D02*
X308330Y1360830D01*
X302500Y1364170D01*
X297500Y1369170D01*
X294170Y1375000D01*
X292500Y1381670D01*
Y1388330D01*
X294170Y1395000D01*
X297500Y1400830D01*
X302500Y1405830D01*
X308330Y1409170D01*
X315000Y1410000D01*
X321670Y1409170D01*
X327500Y1405830D01*
X332500Y1400830D01*
X335830Y1395000D01*
X337500Y1388330D01*
Y1381670D01*
X335830Y1375000D01*
X332500Y1369170D01*
X327500Y1364170D01*
X321670Y1360830D01*
X315000Y1360000D01*
G01X321670Y1373330D02*
X331670Y1360000D01*
G01X363330D02*
X365000Y1370830D01*
X367500Y1380000D01*
X370830Y1388330D01*
X375000Y1397500D01*
X381670Y1410000D01*
X348330D01*
G01X285540Y1586380D02*
G03I-10000J0D01*
G01X605000Y1370000D02*
X598330Y1370830D01*
X592500Y1374170D01*
X587500Y1379170D01*
X584170Y1385000D01*
X582500Y1391670D01*
Y1398330D01*
X584170Y1405000D01*
X587500Y1410830D01*
X592500Y1415830D01*
X598330Y1419170D01*
X605000Y1420000D01*
X611670Y1419170D01*
X617500Y1415830D01*
X622500Y1410830D01*
X625830Y1405000D01*
X627500Y1398330D01*
Y1391670D01*
X625830Y1385000D01*
X622500Y1379170D01*
X617500Y1374170D01*
X611670Y1370830D01*
X605000Y1370000D01*
G01X611670Y1383330D02*
X621670Y1370000D01*
G01X655000D02*
X660830Y1370830D01*
X667500Y1373330D01*
X671670Y1377500D01*
X673330Y1383330D01*
X671670Y1389170D01*
X666670Y1394170D01*
X659170Y1396670D01*
X650830D01*
X645830Y1398330D01*
X641670Y1402500D01*
X640000Y1408330D01*
X642500Y1414170D01*
X648330Y1418330D01*
X655000Y1420000D01*
X661670Y1418330D01*
X667500Y1414170D01*
X670000Y1408330D01*
X668330Y1402500D01*
X664170Y1398330D01*
X659170Y1396670D01*
X650830D01*
X643330Y1394170D01*
X638330Y1389170D01*
X636670Y1383330D01*
X638330Y1377500D01*
X642500Y1373330D01*
X649170Y1370830D01*
X655000Y1370000D01*
G01X566700Y1586380D02*
G03I-10000J0D01*
G01X895000Y3140000D02*
X888330Y3140830D01*
X882500Y3144170D01*
X877500Y3149170D01*
X874170Y3155000D01*
X872500Y3161670D01*
Y3168330D01*
X874170Y3175000D01*
X877500Y3180830D01*
X882500Y3185830D01*
X888330Y3189170D01*
X895000Y3190000D01*
X901670Y3189170D01*
X907500Y3185830D01*
X912500Y3180830D01*
X915830Y3175000D01*
X917500Y3168330D01*
Y3161670D01*
X915830Y3155000D01*
X912500Y3149170D01*
X907500Y3144170D01*
X901670Y3140830D01*
X895000Y3140000D01*
G01X901670Y3153330D02*
X911670Y3140000D01*
G01X945000D02*
Y3190000D01*
X935000Y3180000D01*
G01Y3140000D02*
X955000D01*
G01X993330D02*
X995000Y3150830D01*
X997500Y3160000D01*
X1000830Y3168330D01*
X1005000Y3177500D01*
X1011670Y3190000D01*
X978330D01*
G01X847860Y3148380D02*
G03I-10000J0D01*
G01X1195000Y3150000D02*
X1188330Y3150830D01*
X1182500Y3154170D01*
X1177500Y3159170D01*
X1174170Y3165000D01*
X1172500Y3171670D01*
Y3178330D01*
X1174170Y3185000D01*
X1177500Y3190830D01*
X1182500Y3195830D01*
X1188330Y3199170D01*
X1195000Y3200000D01*
X1201670Y3199170D01*
X1207500Y3195830D01*
X1212500Y3190830D01*
X1215830Y3185000D01*
X1217500Y3178330D01*
Y3171670D01*
X1215830Y3165000D01*
X1212500Y3159170D01*
X1207500Y3154170D01*
X1201670Y3150830D01*
X1195000Y3150000D01*
G01X1201670Y3163330D02*
X1211670Y3150000D01*
G01X1245000D02*
Y3200000D01*
X1235000Y3190000D01*
G01Y3150000D02*
X1255000D01*
G01X1295000D02*
X1300830Y3150830D01*
X1307500Y3153330D01*
X1311670Y3157500D01*
X1313330Y3163330D01*
X1311670Y3169170D01*
X1306670Y3174170D01*
X1299170Y3176670D01*
X1290830D01*
X1285830Y3178330D01*
X1281670Y3182500D01*
X1280000Y3188330D01*
X1282500Y3194170D01*
X1288330Y3198330D01*
X1295000Y3200000D01*
X1301670Y3198330D01*
X1307500Y3194170D01*
X1310000Y3188330D01*
X1308330Y3182500D01*
X1304170Y3178330D01*
X1299170Y3176670D01*
X1290830D01*
X1283330Y3174170D01*
X1278330Y3169170D01*
X1276670Y3163330D01*
X1278330Y3157500D01*
X1282500Y3153330D01*
X1289170Y3150830D01*
X1295000Y3150000D01*
G01X1160260Y3148380D02*
G03I-10000J0D01*
G01X1175000Y3370000D02*
X1168330Y3370830D01*
X1162500Y3374170D01*
X1157500Y3379170D01*
X1154170Y3385000D01*
X1152500Y3391670D01*
Y3398330D01*
X1154170Y3405000D01*
X1157500Y3410830D01*
X1162500Y3415830D01*
X1168330Y3419170D01*
X1175000Y3420000D01*
X1181670Y3419170D01*
X1187500Y3415830D01*
X1192500Y3410830D01*
X1195830Y3405000D01*
X1197500Y3398330D01*
Y3391670D01*
X1195830Y3385000D01*
X1192500Y3379170D01*
X1187500Y3374170D01*
X1181670Y3370830D01*
X1175000Y3370000D01*
G01X1181670Y3383330D02*
X1191670Y3370000D01*
G01X1225000D02*
Y3420000D01*
X1215000Y3410000D01*
G01Y3370000D02*
X1235000D01*
G01X1260830Y3375830D02*
X1266670Y3371670D01*
X1273330Y3370000D01*
X1280000Y3371670D01*
X1285830Y3376670D01*
X1290000Y3384170D01*
X1291670Y3391670D01*
Y3400830D01*
X1290000Y3408330D01*
X1285830Y3415000D01*
X1280830Y3418330D01*
X1275000Y3420000D01*
X1268330Y3418330D01*
X1263330Y3415000D01*
X1260000Y3410000D01*
X1258330Y3403330D01*
X1260000Y3397500D01*
X1264170Y3391670D01*
X1269170Y3388330D01*
X1275000Y3387500D01*
X1281670Y3389170D01*
X1286670Y3393330D01*
X1291670Y3400830D01*
G01X1160260Y3601360D02*
G03I-10000J0D01*
G01X875000Y3370000D02*
X868330Y3370830D01*
X862500Y3374170D01*
X857500Y3379170D01*
X854170Y3385000D01*
X852500Y3391670D01*
Y3398330D01*
X854170Y3405000D01*
X857500Y3410830D01*
X862500Y3415830D01*
X868330Y3419170D01*
X875000Y3420000D01*
X881670Y3419170D01*
X887500Y3415830D01*
X892500Y3410830D01*
X895830Y3405000D01*
X897500Y3398330D01*
Y3391670D01*
X895830Y3385000D01*
X892500Y3379170D01*
X887500Y3374170D01*
X881670Y3370830D01*
X875000Y3370000D01*
G01X881670Y3383330D02*
X891670Y3370000D01*
G01X909170Y3411670D02*
X914170Y3416670D01*
X920000Y3419170D01*
X926670Y3420000D01*
X935000Y3418330D01*
X940830Y3414170D01*
X942500Y3409170D01*
X941670Y3404170D01*
X938330Y3400000D01*
X921670Y3391670D01*
X914170Y3385830D01*
X909170Y3377500D01*
X907500Y3370000D01*
X942500D01*
G01X975000Y3420000D02*
X968330Y3418330D01*
X963330Y3414170D01*
X960000Y3409170D01*
X957500Y3402500D01*
X956670Y3395000D01*
X957500Y3387500D01*
X960000Y3380830D01*
X963330Y3375830D01*
X968330Y3371670D01*
X975000Y3370000D01*
X981670Y3371670D01*
X986670Y3375830D01*
X990000Y3380830D01*
X992500Y3387500D01*
X993330Y3395000D01*
X992500Y3402500D01*
X990000Y3409170D01*
X986670Y3414170D01*
X981670Y3418330D01*
X975000Y3420000D01*
G01X863480Y3601360D02*
G03I-10000J0D01*
G01X585000Y3370000D02*
X578330Y3370830D01*
X572500Y3374170D01*
X567500Y3379170D01*
X564170Y3385000D01*
X562500Y3391670D01*
Y3398330D01*
X564170Y3405000D01*
X567500Y3410830D01*
X572500Y3415830D01*
X578330Y3419170D01*
X585000Y3420000D01*
X591670Y3419170D01*
X597500Y3415830D01*
X602500Y3410830D01*
X605830Y3405000D01*
X607500Y3398330D01*
Y3391670D01*
X605830Y3385000D01*
X602500Y3379170D01*
X597500Y3374170D01*
X591670Y3370830D01*
X585000Y3370000D01*
G01X591670Y3383330D02*
X601670Y3370000D01*
G01X619170Y3411670D02*
X624170Y3416670D01*
X630000Y3419170D01*
X636670Y3420000D01*
X645000Y3418330D01*
X650830Y3414170D01*
X652500Y3409170D01*
X651670Y3404170D01*
X648330Y3400000D01*
X631670Y3391670D01*
X624170Y3385830D01*
X619170Y3377500D01*
X617500Y3370000D01*
X652500D01*
G01X685000D02*
Y3420000D01*
X675000Y3410000D01*
G01Y3370000D02*
X695000D01*
G01X566700Y3601360D02*
G03I-10000J0D01*
G01X275000Y3360000D02*
X268330Y3360830D01*
X262500Y3364170D01*
X257500Y3369170D01*
X254170Y3375000D01*
X252500Y3381670D01*
Y3388330D01*
X254170Y3395000D01*
X257500Y3400830D01*
X262500Y3405830D01*
X268330Y3409170D01*
X275000Y3410000D01*
X281670Y3409170D01*
X287500Y3405830D01*
X292500Y3400830D01*
X295830Y3395000D01*
X297500Y3388330D01*
Y3381670D01*
X295830Y3375000D01*
X292500Y3369170D01*
X287500Y3364170D01*
X281670Y3360830D01*
X275000Y3360000D01*
G01X281670Y3373330D02*
X291670Y3360000D01*
G01X309170Y3401670D02*
X314170Y3406670D01*
X320000Y3409170D01*
X326670Y3410000D01*
X335000Y3408330D01*
X340830Y3404170D01*
X342500Y3399170D01*
X341670Y3394170D01*
X338330Y3390000D01*
X321670Y3381670D01*
X314170Y3375830D01*
X309170Y3367500D01*
X307500Y3360000D01*
X342500D01*
G01X359170Y3401670D02*
X364170Y3406670D01*
X370000Y3409170D01*
X376670Y3410000D01*
X385000Y3408330D01*
X390830Y3404170D01*
X392500Y3399170D01*
X391670Y3394170D01*
X388330Y3390000D01*
X371670Y3381670D01*
X364170Y3375830D01*
X359170Y3367500D01*
X357500Y3360000D01*
X392500D01*
G01X269920Y3601360D02*
G03I-10000J0D01*
G01X315000Y3140000D02*
X308330Y3140830D01*
X302500Y3144170D01*
X297500Y3149170D01*
X294170Y3155000D01*
X292500Y3161670D01*
Y3168330D01*
X294170Y3175000D01*
X297500Y3180830D01*
X302500Y3185830D01*
X308330Y3189170D01*
X315000Y3190000D01*
X321670Y3189170D01*
X327500Y3185830D01*
X332500Y3180830D01*
X335830Y3175000D01*
X337500Y3168330D01*
Y3161670D01*
X335830Y3155000D01*
X332500Y3149170D01*
X327500Y3144170D01*
X321670Y3140830D01*
X315000Y3140000D01*
G01X321670Y3153330D02*
X331670Y3140000D01*
G01X349170Y3181670D02*
X354170Y3186670D01*
X360000Y3189170D01*
X366670Y3190000D01*
X375000Y3188330D01*
X380830Y3184170D01*
X382500Y3179170D01*
X381670Y3174170D01*
X378330Y3170000D01*
X361670Y3161670D01*
X354170Y3155830D01*
X349170Y3147500D01*
X347500Y3140000D01*
X382500D01*
G01X396670Y3150000D02*
X401670Y3144170D01*
X408330Y3140830D01*
X415830Y3140000D01*
X422500Y3140830D01*
X429170Y3145000D01*
X433330Y3150000D01*
X434170Y3155000D01*
X432500Y3160830D01*
X426670Y3165000D01*
X420830Y3166670D01*
X413330D01*
G01X420830D02*
X425830Y3169170D01*
X430000Y3173330D01*
X431670Y3178330D01*
X430000Y3183330D01*
X425830Y3187500D01*
X418330Y3190000D01*
X410830Y3189170D01*
X403330Y3185830D01*
G01X269920Y3148380D02*
G03I-10000J0D01*
G01X605000Y3140000D02*
X598330Y3140830D01*
X592500Y3144170D01*
X587500Y3149170D01*
X584170Y3155000D01*
X582500Y3161670D01*
Y3168330D01*
X584170Y3175000D01*
X587500Y3180830D01*
X592500Y3185830D01*
X598330Y3189170D01*
X605000Y3190000D01*
X611670Y3189170D01*
X617500Y3185830D01*
X622500Y3180830D01*
X625830Y3175000D01*
X627500Y3168330D01*
Y3161670D01*
X625830Y3155000D01*
X622500Y3149170D01*
X617500Y3144170D01*
X611670Y3140830D01*
X605000Y3140000D01*
G01X611670Y3153330D02*
X621670Y3140000D01*
G01X639170Y3181670D02*
X644170Y3186670D01*
X650000Y3189170D01*
X656670Y3190000D01*
X665000Y3188330D01*
X670830Y3184170D01*
X672500Y3179170D01*
X671670Y3174170D01*
X668330Y3170000D01*
X651670Y3161670D01*
X644170Y3155830D01*
X639170Y3147500D01*
X637500Y3140000D01*
X672500D01*
G01X715000D02*
Y3190000D01*
X684170Y3154170D01*
X725830D01*
G01X566700Y3148380D02*
G03I-10000J0D01*
G01X28330Y2790000D02*
X32500Y2785000D01*
X37500Y2781670D01*
X43330Y2780000D01*
X50000Y2781670D01*
X55000Y2785000D01*
X60000Y2790000D01*
X61670Y2796670D01*
Y2830000D01*
G01X76670Y2790000D02*
X81670Y2784170D01*
X88330Y2780830D01*
X95830Y2780000D01*
X102500Y2780830D01*
X109170Y2785000D01*
X113330Y2790000D01*
X114170Y2795000D01*
X112500Y2800830D01*
X106670Y2805000D01*
X100830Y2806670D01*
X93330D01*
G01X100830D02*
X105830Y2809170D01*
X110000Y2813330D01*
X111670Y2818330D01*
X110000Y2823330D01*
X105830Y2827500D01*
X98330Y2830000D01*
X90830Y2829170D01*
X83330Y2825830D01*
G01X1395000Y1300000D02*
Y1322500D01*
X1378330Y1350000D01*
G01X1411670D02*
X1395000Y1322500D01*
G01X1445000Y1300000D02*
Y1350000D01*
X1435000Y1340000D01*
G01Y1300000D02*
X1455000D01*
G01X1325000Y3350000D02*
Y3372500D01*
X1308330Y3400000D01*
G01X1341670D02*
X1325000Y3372500D01*
G01X1359170Y3391670D02*
X1364170Y3396670D01*
X1370000Y3399170D01*
X1376670Y3400000D01*
X1385000Y3398330D01*
X1390830Y3394170D01*
X1392500Y3389170D01*
X1391670Y3384170D01*
X1388330Y3380000D01*
X1371670Y3371670D01*
X1364170Y3365830D01*
X1359170Y3357500D01*
X1357500Y3350000D01*
X1392500D01*
G01X665000Y2270000D02*
Y2292500D01*
X648330Y2320000D01*
G01X681670D02*
X665000Y2292500D01*
G01X696670Y2280000D02*
X701670Y2274170D01*
X708330Y2270830D01*
X715830Y2270000D01*
X722500Y2270830D01*
X729170Y2275000D01*
X733330Y2280000D01*
X734170Y2285000D01*
X732500Y2290830D01*
X726670Y2295000D01*
X720830Y2296670D01*
X713330D01*
G01X720830D02*
X725830Y2299170D01*
X730000Y2303330D01*
X731670Y2308330D01*
X730000Y2313330D01*
X725830Y2317500D01*
X718330Y2320000D01*
X710830Y2319170D01*
X703330Y2315830D01*
G01X2526670Y1040000D02*
Y1090000D01*
X2543330D01*
X2550000Y1087500D01*
X2555000Y1084170D01*
X2559170Y1079170D01*
X2562500Y1073330D01*
X2563330Y1065000D01*
X2562500Y1056670D01*
X2559170Y1050830D01*
X2555000Y1045830D01*
X2550000Y1042500D01*
X2543330Y1040000D01*
X2526670D01*
G01X2578330D02*
Y1090000D01*
X2599170D01*
X2605830Y1087500D01*
X2610000Y1084170D01*
X2611670Y1077500D01*
X2610000Y1070830D01*
X2605000Y1066670D01*
X2599170Y1064170D01*
X2578330D01*
G01X2599170D02*
X2611670Y1040000D01*
G01X2624170Y1090000D02*
X2645000Y1040000D01*
X2665830Y1090000D01*
G01X2695000Y1040000D02*
Y1090000D01*
X2685000Y1080000D01*
G01Y1040000D02*
X2705000D01*
G01X2778330D02*
Y1090000D01*
X2799170D01*
X2805830Y1087500D01*
X2810000Y1084170D01*
X2811670Y1077500D01*
X2810000Y1070830D01*
X2805000Y1066670D01*
X2799170Y1064170D01*
X2778330D01*
G01X2799170D02*
X2811670Y1040000D01*
G01X2832500Y1045830D02*
X2836670Y1042500D01*
X2842500Y1040000D01*
X2847500D01*
X2852500Y1041670D01*
X2855830Y1044170D01*
X2857500Y1047500D01*
X2856670Y1052500D01*
X2853330Y1055000D01*
X2838330Y1060000D01*
X2835000Y1065830D01*
X2836670Y1070000D01*
X2840000Y1072500D01*
X2845000Y1073330D01*
X2850000Y1072500D01*
X2855000Y1070000D01*
G01X2895000Y1090000D02*
Y1040000D01*
G01X2883330Y1073330D02*
X2906670D01*
G01X3795830Y930000D02*
Y980000D01*
X3834170Y930000D01*
Y980000D01*
G01X3883330Y975830D02*
X3878330Y978330D01*
X3872500Y980000D01*
X3865830D01*
X3858330Y977500D01*
X3852500Y973330D01*
X3848330Y968330D01*
X3845000Y960000D01*
X3844170Y952500D01*
X3845830Y945000D01*
X3848330Y940000D01*
X3853330Y935000D01*
X3859170Y931670D01*
X3865000Y930000D01*
X3870830D01*
X3876670Y931670D01*
X3881670Y934170D01*
X3885830Y937500D01*
G01X3793330Y1180000D02*
Y1230000D01*
X3815000Y1188330D01*
X3836670Y1230000D01*
Y1180000D01*
G01X3855000Y1230000D02*
X3875000D01*
G01X3865000D02*
Y1180000D01*
G01X3855000D02*
X3875000D01*
G01X3897500Y1186670D02*
X3904170Y1182500D01*
X3911670Y1180000D01*
X3918330D01*
X3925000Y1182500D01*
X3930000Y1186670D01*
X3932500Y1192500D01*
X3930830Y1198330D01*
X3926670Y1203330D01*
X3919170Y1206670D01*
X3909170Y1208330D01*
X3903330Y1211670D01*
X3900830Y1217500D01*
X3902500Y1223330D01*
X3906670Y1227500D01*
X3912500Y1230000D01*
X3918330D01*
X3924170Y1228330D01*
X3929170Y1224170D01*
G01X3965000Y1180000D02*
X3958330Y1180830D01*
X3952500Y1184170D01*
X3947500Y1189170D01*
X3944170Y1195000D01*
X3942500Y1201670D01*
Y1208330D01*
X3944170Y1215000D01*
X3947500Y1220830D01*
X3952500Y1225830D01*
X3958330Y1229170D01*
X3965000Y1230000D01*
X3971670Y1229170D01*
X3977500Y1225830D01*
X3982500Y1220830D01*
X3985830Y1215000D01*
X3987500Y1208330D01*
Y1201670D01*
X3985830Y1195000D01*
X3982500Y1189170D01*
X3977500Y1184170D01*
X3971670Y1180830D01*
X3965000Y1180000D01*
G01X2703330Y1225830D02*
X2698330Y1228330D01*
X2692500Y1230000D01*
X2685830D01*
X2678330Y1227500D01*
X2672500Y1223330D01*
X2668330Y1218330D01*
X2665000Y1210000D01*
X2664170Y1202500D01*
X2665830Y1195000D01*
X2668330Y1190000D01*
X2673330Y1185000D01*
X2679170Y1181670D01*
X2685000Y1180000D01*
X2690830D01*
X2696670Y1181670D01*
X2701670Y1184170D01*
X2705830Y1187500D01*
G01X2717500Y1186670D02*
X2724170Y1182500D01*
X2731670Y1180000D01*
X2738330D01*
X2745000Y1182500D01*
X2750000Y1186670D01*
X2752500Y1192500D01*
X2750830Y1198330D01*
X2746670Y1203330D01*
X2739170Y1206670D01*
X2729170Y1208330D01*
X2723330Y1211670D01*
X2720830Y1217500D01*
X2722500Y1223330D01*
X2726670Y1227500D01*
X2732500Y1230000D01*
X2738330D01*
X2744170Y1228330D01*
X2749170Y1224170D01*
G01X2785000Y1180000D02*
Y1230000D01*
X2775000Y1220000D01*
G01Y1180000D02*
X2795000D01*
G01X2220000Y1031670D02*
X2270000D01*
Y1010830D01*
X2267500Y1004170D01*
X2264170Y1000000D01*
X2257500Y998330D01*
X2250830Y1000000D01*
X2246670Y1005000D01*
X2244170Y1010830D01*
Y1031670D01*
G01Y1010830D02*
X2220000Y998330D01*
G01X2230000Y983330D02*
X2224170Y978330D01*
X2220830Y971670D01*
X2220000Y964170D01*
X2220830Y957500D01*
X2225000Y950830D01*
X2230000Y946670D01*
X2235000Y945830D01*
X2240830Y947500D01*
X2245000Y953330D01*
X2246670Y959170D01*
Y966670D01*
G01Y959170D02*
X2249170Y954170D01*
X2253330Y950000D01*
X2258330Y948330D01*
X2263330Y950000D01*
X2267500Y954170D01*
X2270000Y961670D01*
X2269170Y969170D01*
X2265830Y976670D01*
G01X2150000Y1031670D02*
X2200000D01*
Y1010830D01*
X2197500Y1004170D01*
X2194170Y1000000D01*
X2187500Y998330D01*
X2180830Y1000000D01*
X2176670Y1005000D01*
X2174170Y1010830D01*
Y1031670D01*
G01Y1010830D02*
X2150000Y998330D01*
G01Y955000D02*
X2200000D01*
X2164170Y985830D01*
Y944170D01*
G01X1588330Y330000D02*
Y380000D01*
X1609170D01*
X1615830Y377500D01*
X1620000Y374170D01*
X1621670Y367500D01*
X1620000Y360830D01*
X1615000Y356670D01*
X1609170Y354170D01*
X1588330D01*
G01X1609170D02*
X1621670Y330000D01*
G01X1639170Y371670D02*
X1644170Y376670D01*
X1650000Y379170D01*
X1656670Y380000D01*
X1665000Y378330D01*
X1670830Y374170D01*
X1672500Y369170D01*
X1671670Y364170D01*
X1668330Y360000D01*
X1651670Y351670D01*
X1644170Y345830D01*
X1639170Y337500D01*
X1637500Y330000D01*
X1672500D01*
G01X1690830Y335830D02*
X1696670Y331670D01*
X1703330Y330000D01*
X1710000Y331670D01*
X1715830Y336670D01*
X1720000Y344170D01*
X1721670Y351670D01*
Y360830D01*
X1720000Y368330D01*
X1715830Y375000D01*
X1710830Y378330D01*
X1705000Y380000D01*
X1698330Y378330D01*
X1693330Y375000D01*
X1690000Y370000D01*
X1688330Y363330D01*
X1690000Y357500D01*
X1694170Y351670D01*
X1699170Y348330D01*
X1705000Y347500D01*
X1711670Y349170D01*
X1716670Y353330D01*
X1721670Y360830D01*
G01X1980000Y201670D02*
X2030000D01*
Y180830D01*
X2027500Y174170D01*
X2024170Y170000D01*
X2017500Y168330D01*
X2010830Y170000D01*
X2006670Y175000D01*
X2004170Y180830D01*
Y201670D01*
G01Y180830D02*
X1980000Y168330D01*
G01X1990000Y153330D02*
X1984170Y148330D01*
X1980830Y141670D01*
X1980000Y134170D01*
X1980830Y127500D01*
X1985000Y120830D01*
X1990000Y116670D01*
X1995000Y115830D01*
X2000830Y117500D01*
X2005000Y123330D01*
X2006670Y129170D01*
Y136670D01*
G01Y129170D02*
X2009170Y124170D01*
X2013330Y120000D01*
X2018330Y118330D01*
X2023330Y120000D01*
X2027500Y124170D01*
X2030000Y131670D01*
X2029170Y139170D01*
X2025830Y146670D01*
G01X2030000Y85000D02*
X2028330Y91670D01*
X2024170Y96670D01*
X2019170Y100000D01*
X2012500Y102500D01*
X2005000Y103330D01*
X1997500Y102500D01*
X1990830Y100000D01*
X1985830Y96670D01*
X1981670Y91670D01*
X1980000Y85000D01*
X1981670Y78330D01*
X1985830Y73330D01*
X1990830Y70000D01*
X1997500Y67500D01*
X2005000Y66670D01*
X2012500Y67500D01*
X2019170Y70000D01*
X2024170Y73330D01*
X2028330Y78330D01*
X2030000Y85000D01*
G01X1750000Y191670D02*
X1800000D01*
Y170830D01*
X1797500Y164170D01*
X1794170Y160000D01*
X1787500Y158330D01*
X1780830Y160000D01*
X1776670Y165000D01*
X1774170Y170830D01*
Y191670D01*
G01Y170830D02*
X1750000Y158330D01*
G01X1760000Y143330D02*
X1754170Y138330D01*
X1750830Y131670D01*
X1750000Y124170D01*
X1750830Y117500D01*
X1755000Y110830D01*
X1760000Y106670D01*
X1765000Y105830D01*
X1770830Y107500D01*
X1775000Y113330D01*
X1776670Y119170D01*
Y126670D01*
G01Y119170D02*
X1779170Y114170D01*
X1783330Y110000D01*
X1788330Y108330D01*
X1793330Y110000D01*
X1797500Y114170D01*
X1800000Y121670D01*
X1799170Y129170D01*
X1795830Y136670D01*
G01X1750000Y75000D02*
X1800000D01*
X1790000Y85000D01*
G01X1750000D02*
Y65000D01*
G01X1810000Y1198330D02*
X1760000D01*
Y1219170D01*
X1762500Y1225830D01*
X1765830Y1230000D01*
X1772500Y1231670D01*
X1779170Y1230000D01*
X1783330Y1225000D01*
X1785830Y1219170D01*
Y1198330D01*
G01Y1219170D02*
X1810000Y1231670D01*
G01X1800000Y1246670D02*
X1805830Y1251670D01*
X1809170Y1258330D01*
X1810000Y1265830D01*
X1809170Y1272500D01*
X1805000Y1279170D01*
X1800000Y1283330D01*
X1795000Y1284170D01*
X1789170Y1282500D01*
X1785000Y1276670D01*
X1783330Y1270830D01*
Y1263330D01*
G01Y1270830D02*
X1780830Y1275830D01*
X1776670Y1280000D01*
X1771670Y1281670D01*
X1766670Y1280000D01*
X1762500Y1275830D01*
X1760000Y1268330D01*
X1760830Y1260830D01*
X1764170Y1253330D01*
G01X1810000Y1325000D02*
X1760000D01*
X1795830Y1294170D01*
Y1335830D01*
G01X1880000Y1198330D02*
X1830000D01*
Y1219170D01*
X1832500Y1225830D01*
X1835830Y1230000D01*
X1842500Y1231670D01*
X1849170Y1230000D01*
X1853330Y1225000D01*
X1855830Y1219170D01*
Y1198330D01*
G01Y1219170D02*
X1880000Y1231670D01*
G01X1870000Y1246670D02*
X1875830Y1251670D01*
X1879170Y1258330D01*
X1880000Y1265830D01*
X1879170Y1272500D01*
X1875000Y1279170D01*
X1870000Y1283330D01*
X1865000Y1284170D01*
X1859170Y1282500D01*
X1855000Y1276670D01*
X1853330Y1270830D01*
Y1263330D01*
G01Y1270830D02*
X1850830Y1275830D01*
X1846670Y1280000D01*
X1841670Y1281670D01*
X1836670Y1280000D01*
X1832500Y1275830D01*
X1830000Y1268330D01*
X1830830Y1260830D01*
X1834170Y1253330D01*
G01X1872500Y1296670D02*
X1876670Y1301670D01*
X1879170Y1307500D01*
X1880000Y1315000D01*
X1878330Y1322500D01*
X1875000Y1328330D01*
X1869170Y1332500D01*
X1862500Y1333330D01*
X1855830Y1331670D01*
X1851670Y1327500D01*
X1848330Y1321670D01*
X1847500Y1315830D01*
X1848330Y1310000D01*
X1851670Y1302500D01*
X1830000Y1305000D01*
Y1327500D01*
G01X1960000Y1208330D02*
X1910000D01*
Y1229170D01*
X1912500Y1235830D01*
X1915830Y1240000D01*
X1922500Y1241670D01*
X1929170Y1240000D01*
X1933330Y1235000D01*
X1935830Y1229170D01*
Y1208330D01*
G01Y1229170D02*
X1960000Y1241670D01*
G01X1950000Y1256670D02*
X1955830Y1261670D01*
X1959170Y1268330D01*
X1960000Y1275830D01*
X1959170Y1282500D01*
X1955000Y1289170D01*
X1950000Y1293330D01*
X1945000Y1294170D01*
X1939170Y1292500D01*
X1935000Y1286670D01*
X1933330Y1280830D01*
Y1273330D01*
G01Y1280830D02*
X1930830Y1285830D01*
X1926670Y1290000D01*
X1921670Y1291670D01*
X1916670Y1290000D01*
X1912500Y1285830D01*
X1910000Y1278330D01*
X1910830Y1270830D01*
X1914170Y1263330D01*
G01X1939170Y1309170D02*
X1933330Y1315000D01*
X1930000Y1320000D01*
X1928330Y1326670D01*
X1930000Y1332500D01*
X1933330Y1336670D01*
X1938330Y1340000D01*
X1944170Y1340830D01*
X1949170Y1340000D01*
X1954170Y1336670D01*
X1958330Y1331670D01*
X1960000Y1325830D01*
X1958330Y1319170D01*
X1953330Y1313330D01*
X1945830Y1310000D01*
X1937500Y1309170D01*
X1926670Y1310830D01*
X1920830Y1313330D01*
X1915000Y1317500D01*
X1910830Y1323330D01*
X1910000Y1329170D01*
X1911670Y1335000D01*
X1915830Y1339170D01*
G01X2413000Y1218490D02*
X2463000D01*
Y1197650D01*
X2460500Y1190990D01*
X2457170Y1186820D01*
X2450500Y1185150D01*
X2443830Y1186820D01*
X2439670Y1191820D01*
X2437170Y1197650D01*
Y1218490D01*
G01Y1197650D02*
X2413000Y1185150D01*
G01Y1141820D02*
X2463000D01*
X2427170Y1172650D01*
Y1130990D01*
G01X2413000Y1091820D02*
X2463000D01*
X2427170Y1122650D01*
Y1080990D01*
G01X2728330Y350000D02*
Y400000D01*
X2749170D01*
X2755830Y397500D01*
X2760000Y394170D01*
X2761670Y387500D01*
X2760000Y380830D01*
X2755000Y376670D01*
X2749170Y374170D01*
X2728330D01*
G01X2749170D02*
X2761670Y350000D01*
G01X2779170Y370830D02*
X2785000Y376670D01*
X2790000Y380000D01*
X2796670Y381670D01*
X2802500Y380000D01*
X2806670Y376670D01*
X2810000Y371670D01*
X2810830Y365830D01*
X2810000Y360830D01*
X2806670Y355830D01*
X2801670Y351670D01*
X2795830Y350000D01*
X2789170Y351670D01*
X2783330Y356670D01*
X2780000Y364170D01*
X2779170Y372500D01*
X2780830Y383330D01*
X2783330Y389170D01*
X2787500Y395000D01*
X2793330Y399170D01*
X2799170Y400000D01*
X2805000Y398330D01*
X2809170Y394170D01*
G01X2845000Y350000D02*
Y400000D01*
X2835000Y390000D01*
G01Y350000D02*
X2855000D01*
G01X2418330D02*
Y400000D01*
X2439170D01*
X2445830Y397500D01*
X2450000Y394170D01*
X2451670Y387500D01*
X2450000Y380830D01*
X2445000Y376670D01*
X2439170Y374170D01*
X2418330D01*
G01X2439170D02*
X2451670Y350000D01*
G01X2469170Y370830D02*
X2475000Y376670D01*
X2480000Y380000D01*
X2486670Y381670D01*
X2492500Y380000D01*
X2496670Y376670D01*
X2500000Y371670D01*
X2500830Y365830D01*
X2500000Y360830D01*
X2496670Y355830D01*
X2491670Y351670D01*
X2485830Y350000D01*
X2479170Y351670D01*
X2473330Y356670D01*
X2470000Y364170D01*
X2469170Y372500D01*
X2470830Y383330D01*
X2473330Y389170D01*
X2477500Y395000D01*
X2483330Y399170D01*
X2489170Y400000D01*
X2495000Y398330D01*
X2499170Y394170D01*
G01X2519170Y391670D02*
X2524170Y396670D01*
X2530000Y399170D01*
X2536670Y400000D01*
X2545000Y398330D01*
X2550830Y394170D01*
X2552500Y389170D01*
X2551670Y384170D01*
X2548330Y380000D01*
X2531670Y371670D01*
X2524170Y365830D01*
X2519170Y357500D01*
X2517500Y350000D01*
X2552500D01*
G01X2667000Y926390D02*
X2717000D01*
Y905550D01*
X2714500Y898890D01*
X2711170Y894720D01*
X2704500Y893050D01*
X2697830Y894720D01*
X2693670Y899720D01*
X2691170Y905550D01*
Y926390D01*
G01Y905550D02*
X2667000Y893050D01*
G01X2687830Y875550D02*
X2693670Y869720D01*
X2697000Y864720D01*
X2698670Y858050D01*
X2697000Y852220D01*
X2693670Y848050D01*
X2688670Y844720D01*
X2682830Y843890D01*
X2677830Y844720D01*
X2672830Y848050D01*
X2668670Y853050D01*
X2667000Y858890D01*
X2668670Y865550D01*
X2673670Y871390D01*
X2681170Y874720D01*
X2689500Y875550D01*
X2700330Y873890D01*
X2706170Y871390D01*
X2712000Y867220D01*
X2716170Y861390D01*
X2717000Y855550D01*
X2715330Y849720D01*
X2711170Y845550D01*
G01X2677000Y828050D02*
X2671170Y823050D01*
X2667830Y816390D01*
X2667000Y808890D01*
X2667830Y802220D01*
X2672000Y795550D01*
X2677000Y791390D01*
X2682000Y790550D01*
X2687830Y792220D01*
X2692000Y798050D01*
X2693670Y803890D01*
Y811390D01*
G01Y803890D02*
X2696170Y798890D01*
X2700330Y794720D01*
X2705330Y793050D01*
X2710330Y794720D01*
X2714500Y798890D01*
X2717000Y806390D01*
X2716170Y813890D01*
X2712830Y821390D01*
G01X3028330Y790000D02*
Y840000D01*
X3049170D01*
X3055830Y837500D01*
X3060000Y834170D01*
X3061670Y827500D01*
X3060000Y820830D01*
X3055000Y816670D01*
X3049170Y814170D01*
X3028330D01*
G01X3049170D02*
X3061670Y790000D01*
G01X3079170Y810830D02*
X3085000Y816670D01*
X3090000Y820000D01*
X3096670Y821670D01*
X3102500Y820000D01*
X3106670Y816670D01*
X3110000Y811670D01*
X3110830Y805830D01*
X3110000Y800830D01*
X3106670Y795830D01*
X3101670Y791670D01*
X3095830Y790000D01*
X3089170Y791670D01*
X3083330Y796670D01*
X3080000Y804170D01*
X3079170Y812500D01*
X3080830Y823330D01*
X3083330Y829170D01*
X3087500Y835000D01*
X3093330Y839170D01*
X3099170Y840000D01*
X3105000Y838330D01*
X3109170Y834170D01*
G01X3155000Y790000D02*
Y840000D01*
X3124170Y804170D01*
X3165830D01*
G01X3418330Y750000D02*
Y800000D01*
X3439170D01*
X3445830Y797500D01*
X3450000Y794170D01*
X3451670Y787500D01*
X3450000Y780830D01*
X3445000Y776670D01*
X3439170Y774170D01*
X3418330D01*
G01X3439170D02*
X3451670Y750000D01*
G01X3469170Y770830D02*
X3475000Y776670D01*
X3480000Y780000D01*
X3486670Y781670D01*
X3492500Y780000D01*
X3496670Y776670D01*
X3500000Y771670D01*
X3500830Y765830D01*
X3500000Y760830D01*
X3496670Y755830D01*
X3491670Y751670D01*
X3485830Y750000D01*
X3479170Y751670D01*
X3473330Y756670D01*
X3470000Y764170D01*
X3469170Y772500D01*
X3470830Y783330D01*
X3473330Y789170D01*
X3477500Y795000D01*
X3483330Y799170D01*
X3489170Y800000D01*
X3495000Y798330D01*
X3499170Y794170D01*
G01X3516670Y757500D02*
X3521670Y753330D01*
X3527500Y750830D01*
X3535000Y750000D01*
X3542500Y751670D01*
X3548330Y755000D01*
X3552500Y760830D01*
X3553330Y767500D01*
X3551670Y774170D01*
X3547500Y778330D01*
X3541670Y781670D01*
X3535830Y782500D01*
X3530000Y781670D01*
X3522500Y778330D01*
X3525000Y800000D01*
X3547500D01*
G01X3668330Y700000D02*
Y750000D01*
X3689170D01*
X3695830Y747500D01*
X3700000Y744170D01*
X3701670Y737500D01*
X3700000Y730830D01*
X3695000Y726670D01*
X3689170Y724170D01*
X3668330D01*
G01X3689170D02*
X3701670Y700000D01*
G01X3719170Y720830D02*
X3725000Y726670D01*
X3730000Y730000D01*
X3736670Y731670D01*
X3742500Y730000D01*
X3746670Y726670D01*
X3750000Y721670D01*
X3750830Y715830D01*
X3750000Y710830D01*
X3746670Y705830D01*
X3741670Y701670D01*
X3735830Y700000D01*
X3729170Y701670D01*
X3723330Y706670D01*
X3720000Y714170D01*
X3719170Y722500D01*
X3720830Y733330D01*
X3723330Y739170D01*
X3727500Y745000D01*
X3733330Y749170D01*
X3739170Y750000D01*
X3745000Y748330D01*
X3749170Y744170D01*
G01X3769170Y720830D02*
X3775000Y726670D01*
X3780000Y730000D01*
X3786670Y731670D01*
X3792500Y730000D01*
X3796670Y726670D01*
X3800000Y721670D01*
X3800830Y715830D01*
X3800000Y710830D01*
X3796670Y705830D01*
X3791670Y701670D01*
X3785830Y700000D01*
X3779170Y701670D01*
X3773330Y706670D01*
X3770000Y714170D01*
X3769170Y722500D01*
X3770830Y733330D01*
X3773330Y739170D01*
X3777500Y745000D01*
X3783330Y749170D01*
X3789170Y750000D01*
X3795000Y748330D01*
X3799170Y744170D01*
G01X3588330Y360000D02*
Y410000D01*
X3609170D01*
X3615830Y407500D01*
X3620000Y404170D01*
X3621670Y397500D01*
X3620000Y390830D01*
X3615000Y386670D01*
X3609170Y384170D01*
X3588330D01*
G01X3609170D02*
X3621670Y360000D01*
G01X3639170Y380830D02*
X3645000Y386670D01*
X3650000Y390000D01*
X3656670Y391670D01*
X3662500Y390000D01*
X3666670Y386670D01*
X3670000Y381670D01*
X3670830Y375830D01*
X3670000Y370830D01*
X3666670Y365830D01*
X3661670Y361670D01*
X3655830Y360000D01*
X3649170Y361670D01*
X3643330Y366670D01*
X3640000Y374170D01*
X3639170Y382500D01*
X3640830Y393330D01*
X3643330Y399170D01*
X3647500Y405000D01*
X3653330Y409170D01*
X3659170Y410000D01*
X3665000Y408330D01*
X3669170Y404170D01*
G01X3703330Y360000D02*
X3705000Y370830D01*
X3707500Y380000D01*
X3710830Y388330D01*
X3715000Y397500D01*
X3721670Y410000D01*
X3688330D01*
G01X3018330Y350000D02*
Y400000D01*
X3039170D01*
X3045830Y397500D01*
X3050000Y394170D01*
X3051670Y387500D01*
X3050000Y380830D01*
X3045000Y376670D01*
X3039170Y374170D01*
X3018330D01*
G01X3039170D02*
X3051670Y350000D01*
G01X3069170Y370830D02*
X3075000Y376670D01*
X3080000Y380000D01*
X3086670Y381670D01*
X3092500Y380000D01*
X3096670Y376670D01*
X3100000Y371670D01*
X3100830Y365830D01*
X3100000Y360830D01*
X3096670Y355830D01*
X3091670Y351670D01*
X3085830Y350000D01*
X3079170Y351670D01*
X3073330Y356670D01*
X3070000Y364170D01*
X3069170Y372500D01*
X3070830Y383330D01*
X3073330Y389170D01*
X3077500Y395000D01*
X3083330Y399170D01*
X3089170Y400000D01*
X3095000Y398330D01*
X3099170Y394170D01*
G01X3135000Y350000D02*
X3140830Y350830D01*
X3147500Y353330D01*
X3151670Y357500D01*
X3153330Y363330D01*
X3151670Y369170D01*
X3146670Y374170D01*
X3139170Y376670D01*
X3130830D01*
X3125830Y378330D01*
X3121670Y382500D01*
X3120000Y388330D01*
X3122500Y394170D01*
X3128330Y398330D01*
X3135000Y400000D01*
X3141670Y398330D01*
X3147500Y394170D01*
X3150000Y388330D01*
X3148330Y382500D01*
X3144170Y378330D01*
X3139170Y376670D01*
X3130830D01*
X3123330Y374170D01*
X3118330Y369170D01*
X3116670Y363330D01*
X3118330Y357500D01*
X3122500Y353330D01*
X3129170Y350830D01*
X3135000Y350000D01*
G01X2925000Y100000D02*
X2918330Y100830D01*
X2912500Y104170D01*
X2907500Y109170D01*
X2904170Y115000D01*
X2902500Y121670D01*
Y128330D01*
X2904170Y135000D01*
X2907500Y140830D01*
X2912500Y145830D01*
X2918330Y149170D01*
X2925000Y150000D01*
X2931670Y149170D01*
X2937500Y145830D01*
X2942500Y140830D01*
X2945830Y135000D01*
X2947500Y128330D01*
Y121670D01*
X2945830Y115000D01*
X2942500Y109170D01*
X2937500Y104170D01*
X2931670Y100830D01*
X2925000Y100000D01*
G01X2931670Y113330D02*
X2941670Y100000D01*
G01X2959170Y141670D02*
X2964170Y146670D01*
X2970000Y149170D01*
X2976670Y150000D01*
X2985000Y148330D01*
X2990830Y144170D01*
X2992500Y139170D01*
X2991670Y134170D01*
X2988330Y130000D01*
X2971670Y121670D01*
X2964170Y115830D01*
X2959170Y107500D01*
X2957500Y100000D01*
X2992500D01*
G01X3006670Y107500D02*
X3011670Y103330D01*
X3017500Y100830D01*
X3025000Y100000D01*
X3032500Y101670D01*
X3038330Y105000D01*
X3042500Y110830D01*
X3043330Y117500D01*
X3041670Y124170D01*
X3037500Y128330D01*
X3031670Y131670D01*
X3025830Y132500D01*
X3020000Y131670D01*
X3012500Y128330D01*
X3015000Y150000D01*
X3037500D01*
G01X2909700Y336780D02*
G03I-10000J0D01*
G01X2635000Y100000D02*
X2628330Y100830D01*
X2622500Y104170D01*
X2617500Y109170D01*
X2614170Y115000D01*
X2612500Y121670D01*
Y128330D01*
X2614170Y135000D01*
X2617500Y140830D01*
X2622500Y145830D01*
X2628330Y149170D01*
X2635000Y150000D01*
X2641670Y149170D01*
X2647500Y145830D01*
X2652500Y140830D01*
X2655830Y135000D01*
X2657500Y128330D01*
Y121670D01*
X2655830Y115000D01*
X2652500Y109170D01*
X2647500Y104170D01*
X2641670Y100830D01*
X2635000Y100000D01*
G01X2641670Y113330D02*
X2651670Y100000D01*
G01X2669170Y141670D02*
X2674170Y146670D01*
X2680000Y149170D01*
X2686670Y150000D01*
X2695000Y148330D01*
X2700830Y144170D01*
X2702500Y139170D01*
X2701670Y134170D01*
X2698330Y130000D01*
X2681670Y121670D01*
X2674170Y115830D01*
X2669170Y107500D01*
X2667500Y100000D01*
X2702500D01*
G01X2719170Y120830D02*
X2725000Y126670D01*
X2730000Y130000D01*
X2736670Y131670D01*
X2742500Y130000D01*
X2746670Y126670D01*
X2750000Y121670D01*
X2750830Y115830D01*
X2750000Y110830D01*
X2746670Y105830D01*
X2741670Y101670D01*
X2735830Y100000D01*
X2729170Y101670D01*
X2723330Y106670D01*
X2720000Y114170D01*
X2719170Y122500D01*
X2720830Y133330D01*
X2723330Y139170D01*
X2727500Y145000D01*
X2733330Y149170D01*
X2739170Y150000D01*
X2745000Y148330D01*
X2749170Y144170D01*
G01X2612920Y336780D02*
G03I-10000J0D01*
G01X2646460Y463380D02*
X2639790Y464210D01*
X2633960Y467550D01*
X2628960Y472550D01*
X2625630Y478380D01*
X2623960Y485050D01*
Y491710D01*
X2625630Y498380D01*
X2628960Y504210D01*
X2633960Y509210D01*
X2639790Y512550D01*
X2646460Y513380D01*
X2653130Y512550D01*
X2658960Y509210D01*
X2663960Y504210D01*
X2667290Y498380D01*
X2668960Y491710D01*
Y485050D01*
X2667290Y478380D01*
X2663960Y472550D01*
X2658960Y467550D01*
X2653130Y464210D01*
X2646460Y463380D01*
G01X2653130Y476710D02*
X2663130Y463380D01*
G01X2680630Y505050D02*
X2685630Y510050D01*
X2691460Y512550D01*
X2698130Y513380D01*
X2706460Y511710D01*
X2712290Y507550D01*
X2713960Y502550D01*
X2713130Y497550D01*
X2709790Y493380D01*
X2693130Y485050D01*
X2685630Y479210D01*
X2680630Y470880D01*
X2678960Y463380D01*
X2713960D01*
G01X2744790D02*
X2746460Y474210D01*
X2748960Y483380D01*
X2752290Y491710D01*
X2756460Y500880D01*
X2763130Y513380D01*
X2729790D01*
G01X2610000Y690000D02*
G03I-10000J0D01*
G01X2955300Y473380D02*
X2948630Y474210D01*
X2942800Y477550D01*
X2937800Y482550D01*
X2934470Y488380D01*
X2932800Y495050D01*
Y501710D01*
X2934470Y508380D01*
X2937800Y514210D01*
X2942800Y519210D01*
X2948630Y522550D01*
X2955300Y523380D01*
X2961970Y522550D01*
X2967800Y519210D01*
X2972800Y514210D01*
X2976130Y508380D01*
X2977800Y501710D01*
Y495050D01*
X2976130Y488380D01*
X2972800Y482550D01*
X2967800Y477550D01*
X2961970Y474210D01*
X2955300Y473380D01*
G01X2961970Y486710D02*
X2971970Y473380D01*
G01X2989470Y515050D02*
X2994470Y520050D01*
X3000300Y522550D01*
X3006970Y523380D01*
X3015300Y521710D01*
X3021130Y517550D01*
X3022800Y512550D01*
X3021970Y507550D01*
X3018630Y503380D01*
X3001970Y495050D01*
X2994470Y489210D01*
X2989470Y480880D01*
X2987800Y473380D01*
X3022800D01*
G01X3055300D02*
X3061130Y474210D01*
X3067800Y476710D01*
X3071970Y480880D01*
X3073630Y486710D01*
X3071970Y492550D01*
X3066970Y497550D01*
X3059470Y500050D01*
X3051130D01*
X3046130Y501710D01*
X3041970Y505880D01*
X3040300Y511710D01*
X3042800Y517550D01*
X3048630Y521710D01*
X3055300Y523380D01*
X3061970Y521710D01*
X3067800Y517550D01*
X3070300Y511710D01*
X3068630Y505880D01*
X3064470Y501710D01*
X3059470Y500050D01*
X3051130D01*
X3043630Y497550D01*
X3038630Y492550D01*
X3036970Y486710D01*
X3038630Y480880D01*
X3042800Y476710D01*
X3049470Y474210D01*
X3055300Y473380D01*
G01X2910000Y690000D02*
G03I-10000J0D01*
G01X3244140Y473380D02*
X3237470Y474210D01*
X3231640Y477550D01*
X3226640Y482550D01*
X3223310Y488380D01*
X3221640Y495050D01*
Y501710D01*
X3223310Y508380D01*
X3226640Y514210D01*
X3231640Y519210D01*
X3237470Y522550D01*
X3244140Y523380D01*
X3250810Y522550D01*
X3256640Y519210D01*
X3261640Y514210D01*
X3264970Y508380D01*
X3266640Y501710D01*
Y495050D01*
X3264970Y488380D01*
X3261640Y482550D01*
X3256640Y477550D01*
X3250810Y474210D01*
X3244140Y473380D01*
G01X3250810Y486710D02*
X3260810Y473380D01*
G01X3278310Y515050D02*
X3283310Y520050D01*
X3289140Y522550D01*
X3295810Y523380D01*
X3304140Y521710D01*
X3309970Y517550D01*
X3311640Y512550D01*
X3310810Y507550D01*
X3307470Y503380D01*
X3290810Y495050D01*
X3283310Y489210D01*
X3278310Y480880D01*
X3276640Y473380D01*
X3311640D01*
G01X3329970Y479210D02*
X3335810Y475050D01*
X3342470Y473380D01*
X3349140Y475050D01*
X3354970Y480050D01*
X3359140Y487550D01*
X3360810Y495050D01*
Y504210D01*
X3359140Y511710D01*
X3354970Y518380D01*
X3349970Y521710D01*
X3344140Y523380D01*
X3337470Y521710D01*
X3332470Y518380D01*
X3329140Y513380D01*
X3327470Y506710D01*
X3329140Y500880D01*
X3333310Y495050D01*
X3338310Y491710D01*
X3344140Y490880D01*
X3350810Y492550D01*
X3355810Y496710D01*
X3360810Y504210D01*
G01X3190000Y690000D02*
G03I-10000J0D01*
G01X3522980Y473380D02*
X3516310Y474210D01*
X3510480Y477550D01*
X3505480Y482550D01*
X3502150Y488380D01*
X3500480Y495050D01*
Y501710D01*
X3502150Y508380D01*
X3505480Y514210D01*
X3510480Y519210D01*
X3516310Y522550D01*
X3522980Y523380D01*
X3529650Y522550D01*
X3535480Y519210D01*
X3540480Y514210D01*
X3543810Y508380D01*
X3545480Y501710D01*
Y495050D01*
X3543810Y488380D01*
X3540480Y482550D01*
X3535480Y477550D01*
X3529650Y474210D01*
X3522980Y473380D01*
G01X3529650Y486710D02*
X3539650Y473380D01*
G01X3554650Y483380D02*
X3559650Y477550D01*
X3566310Y474210D01*
X3573810Y473380D01*
X3580480Y474210D01*
X3587150Y478380D01*
X3591310Y483380D01*
X3592150Y488380D01*
X3590480Y494210D01*
X3584650Y498380D01*
X3578810Y500050D01*
X3571310D01*
G01X3578810D02*
X3583810Y502550D01*
X3587980Y506710D01*
X3589650Y511710D01*
X3587980Y516710D01*
X3583810Y520880D01*
X3576310Y523380D01*
X3568810Y522550D01*
X3561310Y519210D01*
G01X3622980Y523380D02*
X3616310Y521710D01*
X3611310Y517550D01*
X3607980Y512550D01*
X3605480Y505880D01*
X3604650Y498380D01*
X3605480Y490880D01*
X3607980Y484210D01*
X3611310Y479210D01*
X3616310Y475050D01*
X3622980Y473380D01*
X3629650Y475050D01*
X3634650Y479210D01*
X3637980Y484210D01*
X3640480Y490880D01*
X3641310Y498380D01*
X3640480Y505880D01*
X3637980Y512550D01*
X3634650Y517550D01*
X3629650Y521710D01*
X3622980Y523380D01*
G01X3460000Y690000D02*
G03I-10000J0D01*
G01X3475000Y100000D02*
X3468330Y100830D01*
X3462500Y104170D01*
X3457500Y109170D01*
X3454170Y115000D01*
X3452500Y121670D01*
Y128330D01*
X3454170Y135000D01*
X3457500Y140830D01*
X3462500Y145830D01*
X3468330Y149170D01*
X3475000Y150000D01*
X3481670Y149170D01*
X3487500Y145830D01*
X3492500Y140830D01*
X3495830Y135000D01*
X3497500Y128330D01*
Y121670D01*
X3495830Y115000D01*
X3492500Y109170D01*
X3487500Y104170D01*
X3481670Y100830D01*
X3475000Y100000D01*
G01X3481670Y113330D02*
X3491670Y100000D01*
G01X3506670Y110000D02*
X3511670Y104170D01*
X3518330Y100830D01*
X3525830Y100000D01*
X3532500Y100830D01*
X3539170Y105000D01*
X3543330Y110000D01*
X3544170Y115000D01*
X3542500Y120830D01*
X3536670Y125000D01*
X3530830Y126670D01*
X3523330D01*
G01X3530830D02*
X3535830Y129170D01*
X3540000Y133330D01*
X3541670Y138330D01*
X3540000Y143330D01*
X3535830Y147500D01*
X3528330Y150000D01*
X3520830Y149170D01*
X3513330Y145830D01*
G01X3575000Y100000D02*
Y150000D01*
X3565000Y140000D01*
G01Y100000D02*
X3585000D01*
G01X3456400Y336780D02*
G03I-10000J0D01*
G01X3215000Y100000D02*
X3208330Y100830D01*
X3202500Y104170D01*
X3197500Y109170D01*
X3194170Y115000D01*
X3192500Y121670D01*
Y128330D01*
X3194170Y135000D01*
X3197500Y140830D01*
X3202500Y145830D01*
X3208330Y149170D01*
X3215000Y150000D01*
X3221670Y149170D01*
X3227500Y145830D01*
X3232500Y140830D01*
X3235830Y135000D01*
X3237500Y128330D01*
Y121670D01*
X3235830Y115000D01*
X3232500Y109170D01*
X3227500Y104170D01*
X3221670Y100830D01*
X3215000Y100000D01*
G01X3221670Y113330D02*
X3231670Y100000D01*
G01X3246670Y110000D02*
X3251670Y104170D01*
X3258330Y100830D01*
X3265830Y100000D01*
X3272500Y100830D01*
X3279170Y105000D01*
X3283330Y110000D01*
X3284170Y115000D01*
X3282500Y120830D01*
X3276670Y125000D01*
X3270830Y126670D01*
X3263330D01*
G01X3270830D02*
X3275830Y129170D01*
X3280000Y133330D01*
X3281670Y138330D01*
X3280000Y143330D01*
X3275830Y147500D01*
X3268330Y150000D01*
X3260830Y149170D01*
X3253330Y145830D01*
G01X3299170Y141670D02*
X3304170Y146670D01*
X3310000Y149170D01*
X3316670Y150000D01*
X3325000Y148330D01*
X3330830Y144170D01*
X3332500Y139170D01*
X3331670Y134170D01*
X3328330Y130000D01*
X3311670Y121670D01*
X3304170Y115830D01*
X3299170Y107500D01*
X3297500Y100000D01*
X3332500D01*
G01X3190860Y336780D02*
G03I-10000J0D01*
G01X1707670Y944000D02*
Y908170D01*
X1711000Y900670D01*
X1717670Y895670D01*
X1726000Y894000D01*
X1734330Y895670D01*
X1741000Y900670D01*
X1744330Y908170D01*
Y944000D01*
G01X1786000Y894000D02*
Y944000D01*
X1755170Y908170D01*
X1796830D01*
G01X2596670Y2370000D02*
Y2420000D01*
X2613330D01*
X2620000Y2417500D01*
X2625000Y2414170D01*
X2629170Y2409170D01*
X2632500Y2403330D01*
X2633330Y2395000D01*
X2632500Y2386670D01*
X2629170Y2380830D01*
X2625000Y2375830D01*
X2620000Y2372500D01*
X2613330Y2370000D01*
X2596670D01*
G01X2648330D02*
Y2420000D01*
X2669170D01*
X2675830Y2417500D01*
X2680000Y2414170D01*
X2681670Y2407500D01*
X2680000Y2400830D01*
X2675000Y2396670D01*
X2669170Y2394170D01*
X2648330D01*
G01X2669170D02*
X2681670Y2370000D01*
G01X2694170Y2420000D02*
X2715000Y2370000D01*
X2735830Y2420000D01*
G01X2765000D02*
X2758330Y2418330D01*
X2753330Y2414170D01*
X2750000Y2409170D01*
X2747500Y2402500D01*
X2746670Y2395000D01*
X2747500Y2387500D01*
X2750000Y2380830D01*
X2753330Y2375830D01*
X2758330Y2371670D01*
X2765000Y2370000D01*
X2771670Y2371670D01*
X2776670Y2375830D01*
X2780000Y2380830D01*
X2782500Y2387500D01*
X2783330Y2395000D01*
X2782500Y2402500D01*
X2780000Y2409170D01*
X2776670Y2414170D01*
X2771670Y2418330D01*
X2765000Y2420000D01*
G01X2848330Y2370000D02*
Y2420000D01*
X2869170D01*
X2875830Y2417500D01*
X2880000Y2414170D01*
X2881670Y2407500D01*
X2880000Y2400830D01*
X2875000Y2396670D01*
X2869170Y2394170D01*
X2848330D01*
G01X2869170D02*
X2881670Y2370000D01*
G01X2897500Y2376670D02*
X2904170Y2372500D01*
X2911670Y2370000D01*
X2918330D01*
X2925000Y2372500D01*
X2930000Y2376670D01*
X2932500Y2382500D01*
X2930830Y2388330D01*
X2926670Y2393330D01*
X2919170Y2396670D01*
X2909170Y2398330D01*
X2903330Y2401670D01*
X2900830Y2407500D01*
X2902500Y2413330D01*
X2906670Y2417500D01*
X2912500Y2420000D01*
X2918330D01*
X2924170Y2418330D01*
X2929170Y2414170D01*
G01X2965000Y2420000D02*
Y2370000D01*
G01X2945830Y2420000D02*
X2984170D01*
G01X3817500Y2366670D02*
X3824170Y2362500D01*
X3831670Y2360000D01*
X3838330D01*
X3845000Y2362500D01*
X3850000Y2366670D01*
X3852500Y2372500D01*
X3850830Y2378330D01*
X3846670Y2383330D01*
X3839170Y2386670D01*
X3829170Y2388330D01*
X3823330Y2391670D01*
X3820830Y2397500D01*
X3822500Y2403330D01*
X3826670Y2407500D01*
X3832500Y2410000D01*
X3838330D01*
X3844170Y2408330D01*
X3849170Y2404170D01*
G01X3903330Y2405830D02*
X3898330Y2408330D01*
X3892500Y2410000D01*
X3885830D01*
X3878330Y2407500D01*
X3872500Y2403330D01*
X3868330Y2398330D01*
X3865000Y2390000D01*
X3864170Y2382500D01*
X3865830Y2375000D01*
X3868330Y2370000D01*
X3873330Y2365000D01*
X3879170Y2361670D01*
X3885000Y2360000D01*
X3890830D01*
X3896670Y2361670D01*
X3901670Y2364170D01*
X3905830Y2367500D01*
G01X3916670Y2360000D02*
Y2410000D01*
G01X3948330D02*
X3916670Y2379170D01*
G01X3953330Y2360000D02*
X3930830Y2393330D01*
G01X3836670Y2457500D02*
X3841670Y2453330D01*
X3847500Y2450830D01*
X3855000Y2450000D01*
X3862500Y2451670D01*
X3868330Y2455000D01*
X3872500Y2460830D01*
X3873330Y2467500D01*
X3871670Y2474170D01*
X3867500Y2478330D01*
X3861670Y2481670D01*
X3855830Y2482500D01*
X3850000Y2481670D01*
X3842500Y2478330D01*
X3845000Y2500000D01*
X3867500D01*
G01X3884170D02*
X3905000Y2450000D01*
X3925830Y2500000D01*
G01X2623330Y2505830D02*
X2618330Y2508330D01*
X2612500Y2510000D01*
X2605830D01*
X2598330Y2507500D01*
X2592500Y2503330D01*
X2588330Y2498330D01*
X2585000Y2490000D01*
X2584170Y2482500D01*
X2585830Y2475000D01*
X2588330Y2470000D01*
X2593330Y2465000D01*
X2599170Y2461670D01*
X2605000Y2460000D01*
X2610830D01*
X2616670Y2461670D01*
X2621670Y2464170D01*
X2625830Y2467500D01*
G01X2637500Y2466670D02*
X2644170Y2462500D01*
X2651670Y2460000D01*
X2658330D01*
X2665000Y2462500D01*
X2670000Y2466670D01*
X2672500Y2472500D01*
X2670830Y2478330D01*
X2666670Y2483330D01*
X2659170Y2486670D01*
X2649170Y2488330D01*
X2643330Y2491670D01*
X2640830Y2497500D01*
X2642500Y2503330D01*
X2646670Y2507500D01*
X2652500Y2510000D01*
X2658330D01*
X2664170Y2508330D01*
X2669170Y2504170D01*
G01X2705000Y2510000D02*
X2698330Y2508330D01*
X2693330Y2504170D01*
X2690000Y2499170D01*
X2687500Y2492500D01*
X2686670Y2485000D01*
X2687500Y2477500D01*
X2690000Y2470830D01*
X2693330Y2465830D01*
X2698330Y2461670D01*
X2705000Y2460000D01*
X2711670Y2461670D01*
X2716670Y2465830D01*
X2720000Y2470830D01*
X2722500Y2477500D01*
X2723330Y2485000D01*
X2722500Y2492500D01*
X2720000Y2499170D01*
X2716670Y2504170D01*
X2711670Y2508330D01*
X2705000Y2510000D01*
G01X1663330Y3475830D02*
X1658330Y3478330D01*
X1652500Y3480000D01*
X1645830D01*
X1638330Y3477500D01*
X1632500Y3473330D01*
X1628330Y3468330D01*
X1625000Y3460000D01*
X1624170Y3452500D01*
X1625830Y3445000D01*
X1628330Y3440000D01*
X1633330Y3435000D01*
X1639170Y3431670D01*
X1645000Y3430000D01*
X1650830D01*
X1656670Y3431670D01*
X1661670Y3434170D01*
X1665830Y3437500D01*
G01X1695000Y3430000D02*
Y3480000D01*
X1685000Y3470000D01*
G01Y3430000D02*
X1705000D01*
G01X1653330Y1555830D02*
X1648330Y1558330D01*
X1642500Y1560000D01*
X1635830D01*
X1628330Y1557500D01*
X1622500Y1553330D01*
X1618330Y1548330D01*
X1615000Y1540000D01*
X1614170Y1532500D01*
X1615830Y1525000D01*
X1618330Y1520000D01*
X1623330Y1515000D01*
X1629170Y1511670D01*
X1635000Y1510000D01*
X1640830D01*
X1646670Y1511670D01*
X1651670Y1514170D01*
X1655830Y1517500D01*
G01X1666670Y1520000D02*
X1671670Y1514170D01*
X1678330Y1510830D01*
X1685830Y1510000D01*
X1692500Y1510830D01*
X1699170Y1515000D01*
X1703330Y1520000D01*
X1704170Y1525000D01*
X1702500Y1530830D01*
X1696670Y1535000D01*
X1690830Y1536670D01*
X1683330D01*
G01X1690830D02*
X1695830Y1539170D01*
X1700000Y1543330D01*
X1701670Y1548330D01*
X1700000Y1553330D01*
X1695830Y1557500D01*
X1688330Y1560000D01*
X1680830Y1559170D01*
X1673330Y1555830D01*
G01X1618330Y1340000D02*
Y1390000D01*
X1639170D01*
X1645830Y1387500D01*
X1650000Y1384170D01*
X1651670Y1377500D01*
X1650000Y1370830D01*
X1645000Y1366670D01*
X1639170Y1364170D01*
X1618330D01*
G01X1639170D02*
X1651670Y1340000D01*
G01X1669170Y1381670D02*
X1674170Y1386670D01*
X1680000Y1389170D01*
X1686670Y1390000D01*
X1695000Y1388330D01*
X1700830Y1384170D01*
X1702500Y1379170D01*
X1701670Y1374170D01*
X1698330Y1370000D01*
X1681670Y1361670D01*
X1674170Y1355830D01*
X1669170Y1347500D01*
X1667500Y1340000D01*
X1702500D01*
G01X1618330Y1680000D02*
Y1730000D01*
X1639170D01*
X1645830Y1727500D01*
X1650000Y1724170D01*
X1651670Y1717500D01*
X1650000Y1710830D01*
X1645000Y1706670D01*
X1639170Y1704170D01*
X1618330D01*
G01X1639170D02*
X1651670Y1680000D01*
G01X1666670Y1687500D02*
X1671670Y1683330D01*
X1677500Y1680830D01*
X1685000Y1680000D01*
X1692500Y1681670D01*
X1698330Y1685000D01*
X1702500Y1690830D01*
X1703330Y1697500D01*
X1701670Y1704170D01*
X1697500Y1708330D01*
X1691670Y1711670D01*
X1685830Y1712500D01*
X1680000Y1711670D01*
X1672500Y1708330D01*
X1675000Y1730000D01*
X1697500D01*
G01X1618330Y1760000D02*
Y1810000D01*
X1639170D01*
X1645830Y1807500D01*
X1650000Y1804170D01*
X1651670Y1797500D01*
X1650000Y1790830D01*
X1645000Y1786670D01*
X1639170Y1784170D01*
X1618330D01*
G01X1639170D02*
X1651670Y1760000D01*
G01X1669170Y1780830D02*
X1675000Y1786670D01*
X1680000Y1790000D01*
X1686670Y1791670D01*
X1692500Y1790000D01*
X1696670Y1786670D01*
X1700000Y1781670D01*
X1700830Y1775830D01*
X1700000Y1770830D01*
X1696670Y1765830D01*
X1691670Y1761670D01*
X1685830Y1760000D01*
X1679170Y1761670D01*
X1673330Y1766670D01*
X1670000Y1774170D01*
X1669170Y1782500D01*
X1670830Y1793330D01*
X1673330Y1799170D01*
X1677500Y1805000D01*
X1683330Y1809170D01*
X1689170Y1810000D01*
X1695000Y1808330D01*
X1699170Y1804170D01*
G01X2110000Y2188330D02*
X2060000D01*
Y2209170D01*
X2062500Y2215830D01*
X2065830Y2220000D01*
X2072500Y2221670D01*
X2079170Y2220000D01*
X2083330Y2215000D01*
X2085830Y2209170D01*
Y2188330D01*
G01Y2209170D02*
X2110000Y2221670D01*
G01Y2253330D02*
X2099170Y2255000D01*
X2090000Y2257500D01*
X2081670Y2260830D01*
X2072500Y2265000D01*
X2060000Y2271670D01*
Y2238330D01*
G01X2180000Y2188330D02*
X2130000D01*
Y2209170D01*
X2132500Y2215830D01*
X2135830Y2220000D01*
X2142500Y2221670D01*
X2149170Y2220000D01*
X2153330Y2215000D01*
X2155830Y2209170D01*
Y2188330D01*
G01Y2209170D02*
X2180000Y2221670D01*
G01Y2255000D02*
X2179170Y2260830D01*
X2176670Y2267500D01*
X2172500Y2271670D01*
X2166670Y2273330D01*
X2160830Y2271670D01*
X2155830Y2266670D01*
X2153330Y2259170D01*
Y2250830D01*
X2151670Y2245830D01*
X2147500Y2241670D01*
X2141670Y2240000D01*
X2135830Y2242500D01*
X2131670Y2248330D01*
X2130000Y2255000D01*
X2131670Y2261670D01*
X2135830Y2267500D01*
X2141670Y2270000D01*
X2147500Y2268330D01*
X2151670Y2264170D01*
X2153330Y2259170D01*
Y2250830D01*
X2155830Y2243330D01*
X2160830Y2238330D01*
X2166670Y2236670D01*
X2172500Y2238330D01*
X2176670Y2242500D01*
X2179170Y2249170D01*
X2180000Y2255000D01*
G01X2250000Y2188330D02*
X2200000D01*
Y2209170D01*
X2202500Y2215830D01*
X2205830Y2220000D01*
X2212500Y2221670D01*
X2219170Y2220000D01*
X2223330Y2215000D01*
X2225830Y2209170D01*
Y2188330D01*
G01Y2209170D02*
X2250000Y2221670D01*
G01X2244170Y2240830D02*
X2248330Y2246670D01*
X2250000Y2253330D01*
X2248330Y2260000D01*
X2243330Y2265830D01*
X2235830Y2270000D01*
X2228330Y2271670D01*
X2219170D01*
X2211670Y2270000D01*
X2205000Y2265830D01*
X2201670Y2260830D01*
X2200000Y2255000D01*
X2201670Y2248330D01*
X2205000Y2243330D01*
X2210000Y2240000D01*
X2216670Y2238330D01*
X2222500Y2240000D01*
X2228330Y2244170D01*
X2231670Y2249170D01*
X2232500Y2255000D01*
X2230830Y2261670D01*
X2226670Y2266670D01*
X2219170Y2271670D01*
G01X2738330Y2850000D02*
Y2900000D01*
X2759170D01*
X2765830Y2897500D01*
X2770000Y2894170D01*
X2771670Y2887500D01*
X2770000Y2880830D01*
X2765000Y2876670D01*
X2759170Y2874170D01*
X2738330D01*
G01X2759170D02*
X2771670Y2850000D01*
G01X2805000D02*
Y2900000D01*
X2795000Y2890000D01*
G01Y2850000D02*
X2815000D01*
G01X2855000Y2900000D02*
X2848330Y2898330D01*
X2843330Y2894170D01*
X2840000Y2889170D01*
X2837500Y2882500D01*
X2836670Y2875000D01*
X2837500Y2867500D01*
X2840000Y2860830D01*
X2843330Y2855830D01*
X2848330Y2851670D01*
X2855000Y2850000D01*
X2861670Y2851670D01*
X2866670Y2855830D01*
X2870000Y2860830D01*
X2872500Y2867500D01*
X2873330Y2875000D01*
X2872500Y2882500D01*
X2870000Y2889170D01*
X2866670Y2894170D01*
X2861670Y2898330D01*
X2855000Y2900000D01*
G01X1990000Y2991670D02*
X2040000D01*
Y2970830D01*
X2037500Y2964170D01*
X2034170Y2960000D01*
X2027500Y2958330D01*
X2020830Y2960000D01*
X2016670Y2965000D01*
X2014170Y2970830D01*
Y2991670D01*
G01Y2970830D02*
X1990000Y2958330D01*
G01Y2925000D02*
X2040000D01*
X2030000Y2935000D01*
G01X1990000D02*
Y2915000D01*
G01X2031670Y2890830D02*
X2036670Y2885830D01*
X2039170Y2880000D01*
X2040000Y2873330D01*
X2038330Y2865000D01*
X2034170Y2859170D01*
X2029170Y2857500D01*
X2024170Y2858330D01*
X2020000Y2861670D01*
X2011670Y2878330D01*
X2005830Y2885830D01*
X1997500Y2890830D01*
X1990000Y2892500D01*
Y2857500D01*
G01X1790000Y3001670D02*
X1840000D01*
Y2980830D01*
X1837500Y2974170D01*
X1834170Y2970000D01*
X1827500Y2968330D01*
X1820830Y2970000D01*
X1816670Y2975000D01*
X1814170Y2980830D01*
Y3001670D01*
G01Y2980830D02*
X1790000Y2968330D01*
G01Y2935000D02*
X1840000D01*
X1830000Y2945000D01*
G01X1790000D02*
Y2925000D01*
G01X1800000Y2903330D02*
X1794170Y2898330D01*
X1790830Y2891670D01*
X1790000Y2884170D01*
X1790830Y2877500D01*
X1795000Y2870830D01*
X1800000Y2866670D01*
X1805000Y2865830D01*
X1810830Y2867500D01*
X1815000Y2873330D01*
X1816670Y2879170D01*
Y2886670D01*
G01Y2879170D02*
X1819170Y2874170D01*
X1823330Y2870000D01*
X1828330Y2868330D01*
X1833330Y2870000D01*
X1837500Y2874170D01*
X1840000Y2881670D01*
X1839170Y2889170D01*
X1835830Y2896670D01*
G01X1690000Y1961670D02*
X1740000D01*
Y1940830D01*
X1737500Y1934170D01*
X1734170Y1930000D01*
X1727500Y1928330D01*
X1720830Y1930000D01*
X1716670Y1935000D01*
X1714170Y1940830D01*
Y1961670D01*
G01Y1940830D02*
X1690000Y1928330D01*
G01X1731670Y1910830D02*
X1736670Y1905830D01*
X1739170Y1900000D01*
X1740000Y1893330D01*
X1738330Y1885000D01*
X1734170Y1879170D01*
X1729170Y1877500D01*
X1724170Y1878330D01*
X1720000Y1881670D01*
X1711670Y1898330D01*
X1705830Y1905830D01*
X1697500Y1910830D01*
X1690000Y1912500D01*
Y1877500D01*
G01X1740000Y1845000D02*
X1738330Y1851670D01*
X1734170Y1856670D01*
X1729170Y1860000D01*
X1722500Y1862500D01*
X1715000Y1863330D01*
X1707500Y1862500D01*
X1700830Y1860000D01*
X1695830Y1856670D01*
X1691670Y1851670D01*
X1690000Y1845000D01*
X1691670Y1838330D01*
X1695830Y1833330D01*
X1700830Y1830000D01*
X1707500Y1827500D01*
X1715000Y1826670D01*
X1722500Y1827500D01*
X1729170Y1830000D01*
X1734170Y1833330D01*
X1738330Y1838330D01*
X1740000Y1845000D01*
G01X1600000Y2998330D02*
X1550000D01*
Y3019170D01*
X1552500Y3025830D01*
X1555830Y3030000D01*
X1562500Y3031670D01*
X1569170Y3030000D01*
X1573330Y3025000D01*
X1575830Y3019170D01*
Y2998330D01*
G01Y3019170D02*
X1600000Y3031670D01*
G01X1558330Y3049170D02*
X1553330Y3054170D01*
X1550830Y3060000D01*
X1550000Y3066670D01*
X1551670Y3075000D01*
X1555830Y3080830D01*
X1560830Y3082500D01*
X1565830Y3081670D01*
X1570000Y3078330D01*
X1578330Y3061670D01*
X1584170Y3054170D01*
X1592500Y3049170D01*
X1600000Y3047500D01*
Y3082500D01*
G01X1579170Y3099170D02*
X1573330Y3105000D01*
X1570000Y3110000D01*
X1568330Y3116670D01*
X1570000Y3122500D01*
X1573330Y3126670D01*
X1578330Y3130000D01*
X1584170Y3130830D01*
X1589170Y3130000D01*
X1594170Y3126670D01*
X1598330Y3121670D01*
X1600000Y3115830D01*
X1598330Y3109170D01*
X1593330Y3103330D01*
X1585830Y3100000D01*
X1577500Y3099170D01*
X1566670Y3100830D01*
X1560830Y3103330D01*
X1555000Y3107500D01*
X1550830Y3113330D01*
X1550000Y3119170D01*
X1551670Y3125000D01*
X1555830Y3129170D01*
G01X1760000Y2838330D02*
X1710000D01*
Y2859170D01*
X1712500Y2865830D01*
X1715830Y2870000D01*
X1722500Y2871670D01*
X1729170Y2870000D01*
X1733330Y2865000D01*
X1735830Y2859170D01*
Y2838330D01*
G01Y2859170D02*
X1760000Y2871670D01*
G01X1718330Y2889170D02*
X1713330Y2894170D01*
X1710830Y2900000D01*
X1710000Y2906670D01*
X1711670Y2915000D01*
X1715830Y2920830D01*
X1720830Y2922500D01*
X1725830Y2921670D01*
X1730000Y2918330D01*
X1738330Y2901670D01*
X1744170Y2894170D01*
X1752500Y2889170D01*
X1760000Y2887500D01*
Y2922500D01*
G01Y2953330D02*
X1749170Y2955000D01*
X1740000Y2957500D01*
X1731670Y2960830D01*
X1722500Y2965000D01*
X1710000Y2971670D01*
Y2938330D01*
G01X3820000Y1348330D02*
X3770000D01*
Y1369170D01*
X3772500Y1375830D01*
X3775830Y1380000D01*
X3782500Y1381670D01*
X3789170Y1380000D01*
X3793330Y1375000D01*
X3795830Y1369170D01*
Y1348330D01*
G01Y1369170D02*
X3820000Y1381670D01*
G01X3778330Y1399170D02*
X3773330Y1404170D01*
X3770830Y1410000D01*
X3770000Y1416670D01*
X3771670Y1425000D01*
X3775830Y1430830D01*
X3780830Y1432500D01*
X3785830Y1431670D01*
X3790000Y1428330D01*
X3798330Y1411670D01*
X3804170Y1404170D01*
X3812500Y1399170D01*
X3820000Y1397500D01*
Y1432500D01*
G01Y1465000D02*
X3819170Y1470830D01*
X3816670Y1477500D01*
X3812500Y1481670D01*
X3806670Y1483330D01*
X3800830Y1481670D01*
X3795830Y1476670D01*
X3793330Y1469170D01*
Y1460830D01*
X3791670Y1455830D01*
X3787500Y1451670D01*
X3781670Y1450000D01*
X3775830Y1452500D01*
X3771670Y1458330D01*
X3770000Y1465000D01*
X3771670Y1471670D01*
X3775830Y1477500D01*
X3781670Y1480000D01*
X3787500Y1478330D01*
X3791670Y1474170D01*
X3793330Y1469170D01*
Y1460830D01*
X3795830Y1453330D01*
X3800830Y1448330D01*
X3806670Y1446670D01*
X3812500Y1448330D01*
X3816670Y1452500D01*
X3819170Y1459170D01*
X3820000Y1465000D01*
G01X2848330Y1670000D02*
Y1720000D01*
X2869170D01*
X2875830Y1717500D01*
X2880000Y1714170D01*
X2881670Y1707500D01*
X2880000Y1700830D01*
X2875000Y1696670D01*
X2869170Y1694170D01*
X2848330D01*
G01X2869170D02*
X2881670Y1670000D01*
G01X2896670Y1680000D02*
X2901670Y1674170D01*
X2908330Y1670830D01*
X2915830Y1670000D01*
X2922500Y1670830D01*
X2929170Y1675000D01*
X2933330Y1680000D01*
X2934170Y1685000D01*
X2932500Y1690830D01*
X2926670Y1695000D01*
X2920830Y1696670D01*
X2913330D01*
G01X2920830D02*
X2925830Y1699170D01*
X2930000Y1703330D01*
X2931670Y1708330D01*
X2930000Y1713330D01*
X2925830Y1717500D01*
X2918330Y1720000D01*
X2910830Y1719170D01*
X2903330Y1715830D01*
G01X2963330Y1670000D02*
X2965000Y1680830D01*
X2967500Y1690000D01*
X2970830Y1698330D01*
X2975000Y1707500D01*
X2981670Y1720000D01*
X2948330D01*
G01X2898330Y1770000D02*
Y1820000D01*
X2919170D01*
X2925830Y1817500D01*
X2930000Y1814170D01*
X2931670Y1807500D01*
X2930000Y1800830D01*
X2925000Y1796670D01*
X2919170Y1794170D01*
X2898330D01*
G01X2919170D02*
X2931670Y1770000D01*
G01X2946670Y1780000D02*
X2951670Y1774170D01*
X2958330Y1770830D01*
X2965830Y1770000D01*
X2972500Y1770830D01*
X2979170Y1775000D01*
X2983330Y1780000D01*
X2984170Y1785000D01*
X2982500Y1790830D01*
X2976670Y1795000D01*
X2970830Y1796670D01*
X2963330D01*
G01X2970830D02*
X2975830Y1799170D01*
X2980000Y1803330D01*
X2981670Y1808330D01*
X2980000Y1813330D01*
X2975830Y1817500D01*
X2968330Y1820000D01*
X2960830Y1819170D01*
X2953330Y1815830D01*
G01X3015000Y1770000D02*
X3020830Y1770830D01*
X3027500Y1773330D01*
X3031670Y1777500D01*
X3033330Y1783330D01*
X3031670Y1789170D01*
X3026670Y1794170D01*
X3019170Y1796670D01*
X3010830D01*
X3005830Y1798330D01*
X3001670Y1802500D01*
X3000000Y1808330D01*
X3002500Y1814170D01*
X3008330Y1818330D01*
X3015000Y1820000D01*
X3021670Y1818330D01*
X3027500Y1814170D01*
X3030000Y1808330D01*
X3028330Y1802500D01*
X3024170Y1798330D01*
X3019170Y1796670D01*
X3010830D01*
X3003330Y1794170D01*
X2998330Y1789170D01*
X2996670Y1783330D01*
X2998330Y1777500D01*
X3002500Y1773330D01*
X3009170Y1770830D01*
X3015000Y1770000D01*
G01X2898330Y1860000D02*
Y1910000D01*
X2919170D01*
X2925830Y1907500D01*
X2930000Y1904170D01*
X2931670Y1897500D01*
X2930000Y1890830D01*
X2925000Y1886670D01*
X2919170Y1884170D01*
X2898330D01*
G01X2919170D02*
X2931670Y1860000D01*
G01X2946670Y1870000D02*
X2951670Y1864170D01*
X2958330Y1860830D01*
X2965830Y1860000D01*
X2972500Y1860830D01*
X2979170Y1865000D01*
X2983330Y1870000D01*
X2984170Y1875000D01*
X2982500Y1880830D01*
X2976670Y1885000D01*
X2970830Y1886670D01*
X2963330D01*
G01X2970830D02*
X2975830Y1889170D01*
X2980000Y1893330D01*
X2981670Y1898330D01*
X2980000Y1903330D01*
X2975830Y1907500D01*
X2968330Y1910000D01*
X2960830Y1909170D01*
X2953330Y1905830D01*
G01X3000830Y1865830D02*
X3006670Y1861670D01*
X3013330Y1860000D01*
X3020000Y1861670D01*
X3025830Y1866670D01*
X3030000Y1874170D01*
X3031670Y1881670D01*
Y1890830D01*
X3030000Y1898330D01*
X3025830Y1905000D01*
X3020830Y1908330D01*
X3015000Y1910000D01*
X3008330Y1908330D01*
X3003330Y1905000D01*
X3000000Y1900000D01*
X2998330Y1893330D01*
X3000000Y1887500D01*
X3004170Y1881670D01*
X3009170Y1878330D01*
X3015000Y1877500D01*
X3021670Y1879170D01*
X3026670Y1883330D01*
X3031670Y1890830D01*
G01X2898330Y1950000D02*
Y2000000D01*
X2919170D01*
X2925830Y1997500D01*
X2930000Y1994170D01*
X2931670Y1987500D01*
X2930000Y1980830D01*
X2925000Y1976670D01*
X2919170Y1974170D01*
X2898330D01*
G01X2919170D02*
X2931670Y1950000D01*
G01X2975000D02*
Y2000000D01*
X2944170Y1964170D01*
X2985830D01*
G01X3015000Y2000000D02*
X3008330Y1998330D01*
X3003330Y1994170D01*
X3000000Y1989170D01*
X2997500Y1982500D01*
X2996670Y1975000D01*
X2997500Y1967500D01*
X3000000Y1960830D01*
X3003330Y1955830D01*
X3008330Y1951670D01*
X3015000Y1950000D01*
X3021670Y1951670D01*
X3026670Y1955830D01*
X3030000Y1960830D01*
X3032500Y1967500D01*
X3033330Y1975000D01*
X3032500Y1982500D01*
X3030000Y1989170D01*
X3026670Y1994170D01*
X3021670Y1998330D01*
X3015000Y2000000D01*
G01X2898330Y2040000D02*
Y2090000D01*
X2919170D01*
X2925830Y2087500D01*
X2930000Y2084170D01*
X2931670Y2077500D01*
X2930000Y2070830D01*
X2925000Y2066670D01*
X2919170Y2064170D01*
X2898330D01*
G01X2919170D02*
X2931670Y2040000D01*
G01X2975000D02*
Y2090000D01*
X2944170Y2054170D01*
X2985830D01*
G01X3015000Y2040000D02*
Y2090000D01*
X3005000Y2080000D01*
G01Y2040000D02*
X3025000D01*
G01X2898330Y2120000D02*
Y2170000D01*
X2919170D01*
X2925830Y2167500D01*
X2930000Y2164170D01*
X2931670Y2157500D01*
X2930000Y2150830D01*
X2925000Y2146670D01*
X2919170Y2144170D01*
X2898330D01*
G01X2919170D02*
X2931670Y2120000D01*
G01X2975000D02*
Y2170000D01*
X2944170Y2134170D01*
X2985830D01*
G01X2999170Y2161670D02*
X3004170Y2166670D01*
X3010000Y2169170D01*
X3016670Y2170000D01*
X3025000Y2168330D01*
X3030830Y2164170D01*
X3032500Y2159170D01*
X3031670Y2154170D01*
X3028330Y2150000D01*
X3011670Y2141670D01*
X3004170Y2135830D01*
X2999170Y2127500D01*
X2997500Y2120000D01*
X3032500D01*
G01X2460000Y3151670D02*
X2510000D01*
Y3130830D01*
X2507500Y3124170D01*
X2504170Y3120000D01*
X2497500Y3118330D01*
X2490830Y3120000D01*
X2486670Y3125000D01*
X2484170Y3130830D01*
Y3151670D01*
G01Y3130830D02*
X2460000Y3118330D01*
G01Y3075000D02*
X2510000D01*
X2474170Y3105830D01*
Y3064170D01*
G01X2467500Y3053330D02*
X2463330Y3048330D01*
X2460830Y3042500D01*
X2460000Y3035000D01*
X2461670Y3027500D01*
X2465000Y3021670D01*
X2470830Y3017500D01*
X2477500Y3016670D01*
X2484170Y3018330D01*
X2488330Y3022500D01*
X2491670Y3028330D01*
X2492500Y3034170D01*
X2491670Y3040000D01*
X2488330Y3047500D01*
X2510000Y3045000D01*
Y3022500D01*
G01X2338330Y3480000D02*
Y3530000D01*
X2359170D01*
X2365830Y3527500D01*
X2370000Y3524170D01*
X2371670Y3517500D01*
X2370000Y3510830D01*
X2365000Y3506670D01*
X2359170Y3504170D01*
X2338330D01*
G01X2359170D02*
X2371670Y3480000D01*
G01X2415000D02*
Y3530000D01*
X2384170Y3494170D01*
X2425830D01*
G01X2439170Y3500830D02*
X2445000Y3506670D01*
X2450000Y3510000D01*
X2456670Y3511670D01*
X2462500Y3510000D01*
X2466670Y3506670D01*
X2470000Y3501670D01*
X2470830Y3495830D01*
X2470000Y3490830D01*
X2466670Y3485830D01*
X2461670Y3481670D01*
X2455830Y3480000D01*
X2449170Y3481670D01*
X2443330Y3486670D01*
X2440000Y3494170D01*
X2439170Y3502500D01*
X2440830Y3513330D01*
X2443330Y3519170D01*
X2447500Y3525000D01*
X2453330Y3529170D01*
X2459170Y3530000D01*
X2465000Y3528330D01*
X2469170Y3524170D01*
G01X2328330Y3730000D02*
Y3780000D01*
X2349170D01*
X2355830Y3777500D01*
X2360000Y3774170D01*
X2361670Y3767500D01*
X2360000Y3760830D01*
X2355000Y3756670D01*
X2349170Y3754170D01*
X2328330D01*
G01X2349170D02*
X2361670Y3730000D01*
G01X2405000D02*
Y3780000D01*
X2374170Y3744170D01*
X2415830D01*
G01X2443330Y3730000D02*
X2445000Y3740830D01*
X2447500Y3750000D01*
X2450830Y3758330D01*
X2455000Y3767500D01*
X2461670Y3780000D01*
X2428330D01*
G01X2878330Y3710000D02*
Y3760000D01*
X2899170D01*
X2905830Y3757500D01*
X2910000Y3754170D01*
X2911670Y3747500D01*
X2910000Y3740830D01*
X2905000Y3736670D01*
X2899170Y3734170D01*
X2878330D01*
G01X2899170D02*
X2911670Y3710000D01*
G01X2955000D02*
Y3760000D01*
X2924170Y3724170D01*
X2965830D01*
G01X2980830Y3715830D02*
X2986670Y3711670D01*
X2993330Y3710000D01*
X3000000Y3711670D01*
X3005830Y3716670D01*
X3010000Y3724170D01*
X3011670Y3731670D01*
Y3740830D01*
X3010000Y3748330D01*
X3005830Y3755000D01*
X3000830Y3758330D01*
X2995000Y3760000D01*
X2988330Y3758330D01*
X2983330Y3755000D01*
X2980000Y3750000D01*
X2978330Y3743330D01*
X2980000Y3737500D01*
X2984170Y3731670D01*
X2989170Y3728330D01*
X2995000Y3727500D01*
X3001670Y3729170D01*
X3006670Y3733330D01*
X3011670Y3740830D01*
G01X2608330Y3700000D02*
Y3750000D01*
X2629170D01*
X2635830Y3747500D01*
X2640000Y3744170D01*
X2641670Y3737500D01*
X2640000Y3730830D01*
X2635000Y3726670D01*
X2629170Y3724170D01*
X2608330D01*
G01X2629170D02*
X2641670Y3700000D01*
G01X2656670Y3707500D02*
X2661670Y3703330D01*
X2667500Y3700830D01*
X2675000Y3700000D01*
X2682500Y3701670D01*
X2688330Y3705000D01*
X2692500Y3710830D01*
X2693330Y3717500D01*
X2691670Y3724170D01*
X2687500Y3728330D01*
X2681670Y3731670D01*
X2675830Y3732500D01*
X2670000Y3731670D01*
X2662500Y3728330D01*
X2665000Y3750000D01*
X2687500D01*
G01X2725000D02*
X2718330Y3748330D01*
X2713330Y3744170D01*
X2710000Y3739170D01*
X2707500Y3732500D01*
X2706670Y3725000D01*
X2707500Y3717500D01*
X2710000Y3710830D01*
X2713330Y3705830D01*
X2718330Y3701670D01*
X2725000Y3700000D01*
X2731670Y3701670D01*
X2736670Y3705830D01*
X2740000Y3710830D01*
X2742500Y3717500D01*
X2743330Y3725000D01*
X2742500Y3732500D01*
X2740000Y3739170D01*
X2736670Y3744170D01*
X2731670Y3748330D01*
X2725000Y3750000D01*
G01X2520000Y2661670D02*
X2570000D01*
Y2640830D01*
X2567500Y2634170D01*
X2564170Y2630000D01*
X2557500Y2628330D01*
X2550830Y2630000D01*
X2546670Y2635000D01*
X2544170Y2640830D01*
Y2661670D01*
G01Y2640830D02*
X2520000Y2628330D01*
G01X2527500Y2613330D02*
X2523330Y2608330D01*
X2520830Y2602500D01*
X2520000Y2595000D01*
X2521670Y2587500D01*
X2525000Y2581670D01*
X2530830Y2577500D01*
X2537500Y2576670D01*
X2544170Y2578330D01*
X2548330Y2582500D01*
X2551670Y2588330D01*
X2552500Y2594170D01*
X2551670Y2600000D01*
X2548330Y2607500D01*
X2570000Y2605000D01*
Y2582500D01*
G01X2520000Y2545000D02*
X2570000D01*
X2560000Y2555000D01*
G01X2520000D02*
Y2535000D01*
G01X2280000Y2948330D02*
X2230000D01*
Y2969170D01*
X2232500Y2975830D01*
X2235830Y2980000D01*
X2242500Y2981670D01*
X2249170Y2980000D01*
X2253330Y2975000D01*
X2255830Y2969170D01*
Y2948330D01*
G01Y2969170D02*
X2280000Y2981670D01*
G01X2272500Y2996670D02*
X2276670Y3001670D01*
X2279170Y3007500D01*
X2280000Y3015000D01*
X2278330Y3022500D01*
X2275000Y3028330D01*
X2269170Y3032500D01*
X2262500Y3033330D01*
X2255830Y3031670D01*
X2251670Y3027500D01*
X2248330Y3021670D01*
X2247500Y3015830D01*
X2248330Y3010000D01*
X2251670Y3002500D01*
X2230000Y3005000D01*
Y3027500D01*
G01X2238330Y3049170D02*
X2233330Y3054170D01*
X2230830Y3060000D01*
X2230000Y3066670D01*
X2231670Y3075000D01*
X2235830Y3080830D01*
X2240830Y3082500D01*
X2245830Y3081670D01*
X2250000Y3078330D01*
X2258330Y3061670D01*
X2264170Y3054170D01*
X2272500Y3049170D01*
X2280000Y3047500D01*
Y3082500D01*
G01X2118330Y2360000D02*
Y2410000D01*
X2139170D01*
X2145830Y2407500D01*
X2150000Y2404170D01*
X2151670Y2397500D01*
X2150000Y2390830D01*
X2145000Y2386670D01*
X2139170Y2384170D01*
X2118330D01*
G01X2139170D02*
X2151670Y2360000D01*
G01X2166670Y2367500D02*
X2171670Y2363330D01*
X2177500Y2360830D01*
X2185000Y2360000D01*
X2192500Y2361670D01*
X2198330Y2365000D01*
X2202500Y2370830D01*
X2203330Y2377500D01*
X2201670Y2384170D01*
X2197500Y2388330D01*
X2191670Y2391670D01*
X2185830Y2392500D01*
X2180000Y2391670D01*
X2172500Y2388330D01*
X2175000Y2410000D01*
X2197500D01*
G01X2216670Y2370000D02*
X2221670Y2364170D01*
X2228330Y2360830D01*
X2235830Y2360000D01*
X2242500Y2360830D01*
X2249170Y2365000D01*
X2253330Y2370000D01*
X2254170Y2375000D01*
X2252500Y2380830D01*
X2246670Y2385000D01*
X2240830Y2386670D01*
X2233330D01*
G01X2240830D02*
X2245830Y2389170D01*
X2250000Y2393330D01*
X2251670Y2398330D01*
X2250000Y2403330D01*
X2245830Y2407500D01*
X2238330Y2410000D01*
X2230830Y2409170D01*
X2223330Y2405830D01*
G01X2118330Y2440000D02*
Y2490000D01*
X2139170D01*
X2145830Y2487500D01*
X2150000Y2484170D01*
X2151670Y2477500D01*
X2150000Y2470830D01*
X2145000Y2466670D01*
X2139170Y2464170D01*
X2118330D01*
G01X2139170D02*
X2151670Y2440000D01*
G01X2166670Y2447500D02*
X2171670Y2443330D01*
X2177500Y2440830D01*
X2185000Y2440000D01*
X2192500Y2441670D01*
X2198330Y2445000D01*
X2202500Y2450830D01*
X2203330Y2457500D01*
X2201670Y2464170D01*
X2197500Y2468330D01*
X2191670Y2471670D01*
X2185830Y2472500D01*
X2180000Y2471670D01*
X2172500Y2468330D01*
X2175000Y2490000D01*
X2197500D01*
G01X2245000Y2440000D02*
Y2490000D01*
X2214170Y2454170D01*
X2255830D01*
G01X2118330Y2520000D02*
Y2570000D01*
X2139170D01*
X2145830Y2567500D01*
X2150000Y2564170D01*
X2151670Y2557500D01*
X2150000Y2550830D01*
X2145000Y2546670D01*
X2139170Y2544170D01*
X2118330D01*
G01X2139170D02*
X2151670Y2520000D01*
G01X2166670Y2527500D02*
X2171670Y2523330D01*
X2177500Y2520830D01*
X2185000Y2520000D01*
X2192500Y2521670D01*
X2198330Y2525000D01*
X2202500Y2530830D01*
X2203330Y2537500D01*
X2201670Y2544170D01*
X2197500Y2548330D01*
X2191670Y2551670D01*
X2185830Y2552500D01*
X2180000Y2551670D01*
X2172500Y2548330D01*
X2175000Y2570000D01*
X2197500D01*
G01X2216670Y2527500D02*
X2221670Y2523330D01*
X2227500Y2520830D01*
X2235000Y2520000D01*
X2242500Y2521670D01*
X2248330Y2525000D01*
X2252500Y2530830D01*
X2253330Y2537500D01*
X2251670Y2544170D01*
X2247500Y2548330D01*
X2241670Y2551670D01*
X2235830Y2552500D01*
X2230000Y2551670D01*
X2222500Y2548330D01*
X2225000Y2570000D01*
X2247500D01*
G01X2118330Y2600000D02*
Y2650000D01*
X2139170D01*
X2145830Y2647500D01*
X2150000Y2644170D01*
X2151670Y2637500D01*
X2150000Y2630830D01*
X2145000Y2626670D01*
X2139170Y2624170D01*
X2118330D01*
G01X2139170D02*
X2151670Y2600000D01*
G01X2166670Y2607500D02*
X2171670Y2603330D01*
X2177500Y2600830D01*
X2185000Y2600000D01*
X2192500Y2601670D01*
X2198330Y2605000D01*
X2202500Y2610830D01*
X2203330Y2617500D01*
X2201670Y2624170D01*
X2197500Y2628330D01*
X2191670Y2631670D01*
X2185830Y2632500D01*
X2180000Y2631670D01*
X2172500Y2628330D01*
X2175000Y2650000D01*
X2197500D01*
G01X2219170Y2620830D02*
X2225000Y2626670D01*
X2230000Y2630000D01*
X2236670Y2631670D01*
X2242500Y2630000D01*
X2246670Y2626670D01*
X2250000Y2621670D01*
X2250830Y2615830D01*
X2250000Y2610830D01*
X2246670Y2605830D01*
X2241670Y2601670D01*
X2235830Y2600000D01*
X2229170Y2601670D01*
X2223330Y2606670D01*
X2220000Y2614170D01*
X2219170Y2622500D01*
X2220830Y2633330D01*
X2223330Y2639170D01*
X2227500Y2645000D01*
X2233330Y2649170D01*
X2239170Y2650000D01*
X2245000Y2648330D01*
X2249170Y2644170D01*
G01X2118330Y2690000D02*
Y2740000D01*
X2139170D01*
X2145830Y2737500D01*
X2150000Y2734170D01*
X2151670Y2727500D01*
X2150000Y2720830D01*
X2145000Y2716670D01*
X2139170Y2714170D01*
X2118330D01*
G01X2139170D02*
X2151670Y2690000D01*
G01X2166670Y2697500D02*
X2171670Y2693330D01*
X2177500Y2690830D01*
X2185000Y2690000D01*
X2192500Y2691670D01*
X2198330Y2695000D01*
X2202500Y2700830D01*
X2203330Y2707500D01*
X2201670Y2714170D01*
X2197500Y2718330D01*
X2191670Y2721670D01*
X2185830Y2722500D01*
X2180000Y2721670D01*
X2172500Y2718330D01*
X2175000Y2740000D01*
X2197500D01*
G01X2233330Y2690000D02*
X2235000Y2700830D01*
X2237500Y2710000D01*
X2240830Y2718330D01*
X2245000Y2727500D01*
X2251670Y2740000D01*
X2218330D01*
G01X2118330Y2770000D02*
Y2820000D01*
X2139170D01*
X2145830Y2817500D01*
X2150000Y2814170D01*
X2151670Y2807500D01*
X2150000Y2800830D01*
X2145000Y2796670D01*
X2139170Y2794170D01*
X2118330D01*
G01X2139170D02*
X2151670Y2770000D01*
G01X2166670Y2777500D02*
X2171670Y2773330D01*
X2177500Y2770830D01*
X2185000Y2770000D01*
X2192500Y2771670D01*
X2198330Y2775000D01*
X2202500Y2780830D01*
X2203330Y2787500D01*
X2201670Y2794170D01*
X2197500Y2798330D01*
X2191670Y2801670D01*
X2185830Y2802500D01*
X2180000Y2801670D01*
X2172500Y2798330D01*
X2175000Y2820000D01*
X2197500D01*
G01X2235000Y2770000D02*
X2240830Y2770830D01*
X2247500Y2773330D01*
X2251670Y2777500D01*
X2253330Y2783330D01*
X2251670Y2789170D01*
X2246670Y2794170D01*
X2239170Y2796670D01*
X2230830D01*
X2225830Y2798330D01*
X2221670Y2802500D01*
X2220000Y2808330D01*
X2222500Y2814170D01*
X2228330Y2818330D01*
X2235000Y2820000D01*
X2241670Y2818330D01*
X2247500Y2814170D01*
X2250000Y2808330D01*
X2248330Y2802500D01*
X2244170Y2798330D01*
X2239170Y2796670D01*
X2230830D01*
X2223330Y2794170D01*
X2218330Y2789170D01*
X2216670Y2783330D01*
X2218330Y2777500D01*
X2222500Y2773330D01*
X2229170Y2770830D01*
X2235000Y2770000D01*
G01X1758330Y2010000D02*
Y2060000D01*
X1779170D01*
X1785830Y2057500D01*
X1790000Y2054170D01*
X1791670Y2047500D01*
X1790000Y2040830D01*
X1785000Y2036670D01*
X1779170Y2034170D01*
X1758330D01*
G01X1779170D02*
X1791670Y2010000D01*
G01X1806670Y2017500D02*
X1811670Y2013330D01*
X1817500Y2010830D01*
X1825000Y2010000D01*
X1832500Y2011670D01*
X1838330Y2015000D01*
X1842500Y2020830D01*
X1843330Y2027500D01*
X1841670Y2034170D01*
X1837500Y2038330D01*
X1831670Y2041670D01*
X1825830Y2042500D01*
X1820000Y2041670D01*
X1812500Y2038330D01*
X1815000Y2060000D01*
X1837500D01*
G01X1860830Y2015830D02*
X1866670Y2011670D01*
X1873330Y2010000D01*
X1880000Y2011670D01*
X1885830Y2016670D01*
X1890000Y2024170D01*
X1891670Y2031670D01*
Y2040830D01*
X1890000Y2048330D01*
X1885830Y2055000D01*
X1880830Y2058330D01*
X1875000Y2060000D01*
X1868330Y2058330D01*
X1863330Y2055000D01*
X1860000Y2050000D01*
X1858330Y2043330D01*
X1860000Y2037500D01*
X1864170Y2031670D01*
X1869170Y2028330D01*
X1875000Y2027500D01*
X1881670Y2029170D01*
X1886670Y2033330D01*
X1891670Y2040830D01*
G01X1940000Y2131670D02*
X1990000D01*
Y2110830D01*
X1987500Y2104170D01*
X1984170Y2100000D01*
X1977500Y2098330D01*
X1970830Y2100000D01*
X1966670Y2105000D01*
X1964170Y2110830D01*
Y2131670D01*
G01Y2110830D02*
X1940000Y2098330D01*
G01X1960830Y2080830D02*
X1966670Y2075000D01*
X1970000Y2070000D01*
X1971670Y2063330D01*
X1970000Y2057500D01*
X1966670Y2053330D01*
X1961670Y2050000D01*
X1955830Y2049170D01*
X1950830Y2050000D01*
X1945830Y2053330D01*
X1941670Y2058330D01*
X1940000Y2064170D01*
X1941670Y2070830D01*
X1946670Y2076670D01*
X1954170Y2080000D01*
X1962500Y2080830D01*
X1973330Y2079170D01*
X1979170Y2076670D01*
X1985000Y2072500D01*
X1989170Y2066670D01*
X1990000Y2060830D01*
X1988330Y2055000D01*
X1984170Y2050830D01*
G01X1990000Y2015000D02*
X1988330Y2021670D01*
X1984170Y2026670D01*
X1979170Y2030000D01*
X1972500Y2032500D01*
X1965000Y2033330D01*
X1957500Y2032500D01*
X1950830Y2030000D01*
X1945830Y2026670D01*
X1941670Y2021670D01*
X1940000Y2015000D01*
X1941670Y2008330D01*
X1945830Y2003330D01*
X1950830Y2000000D01*
X1957500Y1997500D01*
X1965000Y1996670D01*
X1972500Y1997500D01*
X1979170Y2000000D01*
X1984170Y2003330D01*
X1988330Y2008330D01*
X1990000Y2015000D01*
G01X2965000Y3140000D02*
X2958330Y3140830D01*
X2952500Y3144170D01*
X2947500Y3149170D01*
X2944170Y3155000D01*
X2942500Y3161670D01*
Y3168330D01*
X2944170Y3175000D01*
X2947500Y3180830D01*
X2952500Y3185830D01*
X2958330Y3189170D01*
X2965000Y3190000D01*
X2971670Y3189170D01*
X2977500Y3185830D01*
X2982500Y3180830D01*
X2985830Y3175000D01*
X2987500Y3168330D01*
Y3161670D01*
X2985830Y3155000D01*
X2982500Y3149170D01*
X2977500Y3144170D01*
X2971670Y3140830D01*
X2965000Y3140000D01*
G01X2971670Y3153330D02*
X2981670Y3140000D01*
G01X3000830Y3145830D02*
X3006670Y3141670D01*
X3013330Y3140000D01*
X3020000Y3141670D01*
X3025830Y3146670D01*
X3030000Y3154170D01*
X3031670Y3161670D01*
Y3170830D01*
X3030000Y3178330D01*
X3025830Y3185000D01*
X3020830Y3188330D01*
X3015000Y3190000D01*
X3008330Y3188330D01*
X3003330Y3185000D01*
X3000000Y3180000D01*
X2998330Y3173330D01*
X3000000Y3167500D01*
X3004170Y3161670D01*
X3009170Y3158330D01*
X3015000Y3157500D01*
X3021670Y3159170D01*
X3026670Y3163330D01*
X3031670Y3170830D01*
G01X2909700Y3148380D02*
G03I-10000J0D01*
G01X2665000Y3140000D02*
X2658330Y3140830D01*
X2652500Y3144170D01*
X2647500Y3149170D01*
X2644170Y3155000D01*
X2642500Y3161670D01*
Y3168330D01*
X2644170Y3175000D01*
X2647500Y3180830D01*
X2652500Y3185830D01*
X2658330Y3189170D01*
X2665000Y3190000D01*
X2671670Y3189170D01*
X2677500Y3185830D01*
X2682500Y3180830D01*
X2685830Y3175000D01*
X2687500Y3168330D01*
Y3161670D01*
X2685830Y3155000D01*
X2682500Y3149170D01*
X2677500Y3144170D01*
X2671670Y3140830D01*
X2665000Y3140000D01*
G01X2671670Y3153330D02*
X2681670Y3140000D01*
G01X2715000D02*
Y3190000D01*
X2705000Y3180000D01*
G01Y3140000D02*
X2725000D01*
G01X2765000Y3190000D02*
X2758330Y3188330D01*
X2753330Y3184170D01*
X2750000Y3179170D01*
X2747500Y3172500D01*
X2746670Y3165000D01*
X2747500Y3157500D01*
X2750000Y3150830D01*
X2753330Y3145830D01*
X2758330Y3141670D01*
X2765000Y3140000D01*
X2771670Y3141670D01*
X2776670Y3145830D01*
X2780000Y3150830D01*
X2782500Y3157500D01*
X2783330Y3165000D01*
X2782500Y3172500D01*
X2780000Y3179170D01*
X2776670Y3184170D01*
X2771670Y3188330D01*
X2765000Y3190000D01*
G01X2628540Y3148380D02*
G03I-10000J0D01*
G01X3525000Y3380000D02*
X3518330Y3380830D01*
X3512500Y3384170D01*
X3507500Y3389170D01*
X3504170Y3395000D01*
X3502500Y3401670D01*
Y3408330D01*
X3504170Y3415000D01*
X3507500Y3420830D01*
X3512500Y3425830D01*
X3518330Y3429170D01*
X3525000Y3430000D01*
X3531670Y3429170D01*
X3537500Y3425830D01*
X3542500Y3420830D01*
X3545830Y3415000D01*
X3547500Y3408330D01*
Y3401670D01*
X3545830Y3395000D01*
X3542500Y3389170D01*
X3537500Y3384170D01*
X3531670Y3380830D01*
X3525000Y3380000D01*
G01X3531670Y3393330D02*
X3541670Y3380000D01*
G01X3575000D02*
Y3430000D01*
X3565000Y3420000D01*
G01Y3380000D02*
X3585000D01*
G01X3625000D02*
Y3430000D01*
X3615000Y3420000D01*
G01Y3380000D02*
X3635000D01*
G01X3472020Y3601360D02*
G03I-10000J0D01*
G01X3225000Y3380000D02*
X3218330Y3380830D01*
X3212500Y3384170D01*
X3207500Y3389170D01*
X3204170Y3395000D01*
X3202500Y3401670D01*
Y3408330D01*
X3204170Y3415000D01*
X3207500Y3420830D01*
X3212500Y3425830D01*
X3218330Y3429170D01*
X3225000Y3430000D01*
X3231670Y3429170D01*
X3237500Y3425830D01*
X3242500Y3420830D01*
X3245830Y3415000D01*
X3247500Y3408330D01*
Y3401670D01*
X3245830Y3395000D01*
X3242500Y3389170D01*
X3237500Y3384170D01*
X3231670Y3380830D01*
X3225000Y3380000D01*
G01X3231670Y3393330D02*
X3241670Y3380000D01*
G01X3275000D02*
Y3430000D01*
X3265000Y3420000D01*
G01Y3380000D02*
X3285000D01*
G01X3309170Y3421670D02*
X3314170Y3426670D01*
X3320000Y3429170D01*
X3326670Y3430000D01*
X3335000Y3428330D01*
X3340830Y3424170D01*
X3342500Y3419170D01*
X3341670Y3414170D01*
X3338330Y3410000D01*
X3321670Y3401670D01*
X3314170Y3395830D01*
X3309170Y3387500D01*
X3307500Y3380000D01*
X3342500D01*
G01X3190860Y3601360D02*
G03I-10000J0D01*
G01X2945000Y3380000D02*
X2938330Y3380830D01*
X2932500Y3384170D01*
X2927500Y3389170D01*
X2924170Y3395000D01*
X2922500Y3401670D01*
Y3408330D01*
X2924170Y3415000D01*
X2927500Y3420830D01*
X2932500Y3425830D01*
X2938330Y3429170D01*
X2945000Y3430000D01*
X2951670Y3429170D01*
X2957500Y3425830D01*
X2962500Y3420830D01*
X2965830Y3415000D01*
X2967500Y3408330D01*
Y3401670D01*
X2965830Y3395000D01*
X2962500Y3389170D01*
X2957500Y3384170D01*
X2951670Y3380830D01*
X2945000Y3380000D01*
G01X2951670Y3393330D02*
X2961670Y3380000D01*
G01X2995000D02*
Y3430000D01*
X2985000Y3420000D01*
G01Y3380000D02*
X3005000D01*
G01X3026670Y3390000D02*
X3031670Y3384170D01*
X3038330Y3380830D01*
X3045830Y3380000D01*
X3052500Y3380830D01*
X3059170Y3385000D01*
X3063330Y3390000D01*
X3064170Y3395000D01*
X3062500Y3400830D01*
X3056670Y3405000D01*
X3050830Y3406670D01*
X3043330D01*
G01X3050830D02*
X3055830Y3409170D01*
X3060000Y3413330D01*
X3061670Y3418330D01*
X3060000Y3423330D01*
X3055830Y3427500D01*
X3048330Y3430000D01*
X3040830Y3429170D01*
X3033330Y3425830D01*
G01X2909700Y3601360D02*
G03I-10000J0D01*
G01X2655000Y3380000D02*
X2648330Y3380830D01*
X2642500Y3384170D01*
X2637500Y3389170D01*
X2634170Y3395000D01*
X2632500Y3401670D01*
Y3408330D01*
X2634170Y3415000D01*
X2637500Y3420830D01*
X2642500Y3425830D01*
X2648330Y3429170D01*
X2655000Y3430000D01*
X2661670Y3429170D01*
X2667500Y3425830D01*
X2672500Y3420830D01*
X2675830Y3415000D01*
X2677500Y3408330D01*
Y3401670D01*
X2675830Y3395000D01*
X2672500Y3389170D01*
X2667500Y3384170D01*
X2661670Y3380830D01*
X2655000Y3380000D01*
G01X2661670Y3393330D02*
X2671670Y3380000D01*
G01X2705000D02*
Y3430000D01*
X2695000Y3420000D01*
G01Y3380000D02*
X2715000D01*
G01X2765000D02*
Y3430000D01*
X2734170Y3394170D01*
X2775830D01*
G01X2628540Y3601360D02*
G03I-10000J0D01*
G01X3525000Y3140000D02*
X3518330Y3140830D01*
X3512500Y3144170D01*
X3507500Y3149170D01*
X3504170Y3155000D01*
X3502500Y3161670D01*
Y3168330D01*
X3504170Y3175000D01*
X3507500Y3180830D01*
X3512500Y3185830D01*
X3518330Y3189170D01*
X3525000Y3190000D01*
X3531670Y3189170D01*
X3537500Y3185830D01*
X3542500Y3180830D01*
X3545830Y3175000D01*
X3547500Y3168330D01*
Y3161670D01*
X3545830Y3155000D01*
X3542500Y3149170D01*
X3537500Y3144170D01*
X3531670Y3140830D01*
X3525000Y3140000D01*
G01X3531670Y3153330D02*
X3541670Y3140000D01*
G01X3575000D02*
Y3190000D01*
X3565000Y3180000D01*
G01Y3140000D02*
X3585000D01*
G01X3606670Y3147500D02*
X3611670Y3143330D01*
X3617500Y3140830D01*
X3625000Y3140000D01*
X3632500Y3141670D01*
X3638330Y3145000D01*
X3642500Y3150830D01*
X3643330Y3157500D01*
X3641670Y3164170D01*
X3637500Y3168330D01*
X3631670Y3171670D01*
X3625830Y3172500D01*
X3620000Y3171670D01*
X3612500Y3168330D01*
X3615000Y3190000D01*
X3637500D01*
G01X3472020Y3148380D02*
G03I-10000J0D01*
G01X3225000Y3140000D02*
X3218330Y3140830D01*
X3212500Y3144170D01*
X3207500Y3149170D01*
X3204170Y3155000D01*
X3202500Y3161670D01*
Y3168330D01*
X3204170Y3175000D01*
X3207500Y3180830D01*
X3212500Y3185830D01*
X3218330Y3189170D01*
X3225000Y3190000D01*
X3231670Y3189170D01*
X3237500Y3185830D01*
X3242500Y3180830D01*
X3245830Y3175000D01*
X3247500Y3168330D01*
Y3161670D01*
X3245830Y3155000D01*
X3242500Y3149170D01*
X3237500Y3144170D01*
X3231670Y3140830D01*
X3225000Y3140000D01*
G01X3231670Y3153330D02*
X3241670Y3140000D01*
G01X3275000D02*
Y3190000D01*
X3265000Y3180000D01*
G01Y3140000D02*
X3285000D01*
G01X3309170Y3160830D02*
X3315000Y3166670D01*
X3320000Y3170000D01*
X3326670Y3171670D01*
X3332500Y3170000D01*
X3336670Y3166670D01*
X3340000Y3161670D01*
X3340830Y3155830D01*
X3340000Y3150830D01*
X3336670Y3145830D01*
X3331670Y3141670D01*
X3325830Y3140000D01*
X3319170Y3141670D01*
X3313330Y3146670D01*
X3310000Y3154170D01*
X3309170Y3162500D01*
X3310830Y3173330D01*
X3313330Y3179170D01*
X3317500Y3185000D01*
X3323330Y3189170D01*
X3329170Y3190000D01*
X3335000Y3188330D01*
X3339170Y3184170D01*
G01X3190860Y3148380D02*
G03I-10000J0D01*
G01X2426670Y1960000D02*
Y1924170D01*
X2430000Y1916670D01*
X2436670Y1911670D01*
X2445000Y1910000D01*
X2453330Y1911670D01*
X2460000Y1916670D01*
X2463330Y1924170D01*
Y1960000D01*
G01X2495000Y1910000D02*
Y1960000D01*
X2485000Y1950000D01*
G01Y1910000D02*
X2505000D01*
G01X2206670Y3750000D02*
Y3714170D01*
X2210000Y3706670D01*
X2216670Y3701670D01*
X2225000Y3700000D01*
X2233330Y3701670D01*
X2240000Y3706670D01*
X2243330Y3714170D01*
Y3750000D01*
G01X2259170Y3741670D02*
X2264170Y3746670D01*
X2270000Y3749170D01*
X2276670Y3750000D01*
X2285000Y3748330D01*
X2290830Y3744170D01*
X2292500Y3739170D01*
X2291670Y3734170D01*
X2288330Y3730000D01*
X2271670Y3721670D01*
X2264170Y3715830D01*
X2259170Y3707500D01*
X2257500Y3700000D01*
X2292500D01*
G01X1896670Y2750000D02*
Y2714170D01*
X1900000Y2706670D01*
X1906670Y2701670D01*
X1915000Y2700000D01*
X1923330Y2701670D01*
X1930000Y2706670D01*
X1933330Y2714170D01*
Y2750000D01*
G01X1946670Y2710000D02*
X1951670Y2704170D01*
X1958330Y2700830D01*
X1965830Y2700000D01*
X1972500Y2700830D01*
X1979170Y2705000D01*
X1983330Y2710000D01*
X1984170Y2715000D01*
X1982500Y2720830D01*
X1976670Y2725000D01*
X1970830Y2726670D01*
X1963330D01*
G01X1970830D02*
X1975830Y2729170D01*
X1980000Y2733330D01*
X1981670Y2738330D01*
X1980000Y2743330D01*
X1975830Y2747500D01*
X1968330Y2750000D01*
X1960830Y2749170D01*
X1953330Y2745830D01*
G01X3888330Y2800000D02*
X3892500Y2795000D01*
X3897500Y2791670D01*
X3903330Y2790000D01*
X3910000Y2791670D01*
X3915000Y2795000D01*
X3920000Y2800000D01*
X3921670Y2806670D01*
Y2840000D01*
G01X3955000Y2790000D02*
Y2840000D01*
X3945000Y2830000D01*
G01Y2790000D02*
X3965000D01*
G01X3038330Y1390000D02*
X3042500Y1385000D01*
X3047500Y1381670D01*
X3053330Y1380000D01*
X3060000Y1381670D01*
X3065000Y1385000D01*
X3070000Y1390000D01*
X3071670Y1396670D01*
Y1430000D01*
G01X3089170Y1421670D02*
X3094170Y1426670D01*
X3100000Y1429170D01*
X3106670Y1430000D01*
X3115000Y1428330D01*
X3120830Y1424170D01*
X3122500Y1419170D01*
X3121670Y1414170D01*
X3118330Y1410000D01*
X3101670Y1401670D01*
X3094170Y1395830D01*
X3089170Y1387500D01*
X3087500Y1380000D01*
X3122500D01*
G01X1630000Y3818330D02*
X1580000D01*
Y3839170D01*
X1582500Y3845830D01*
X1585830Y3850000D01*
X1592500Y3851670D01*
X1599170Y3850000D01*
X1603330Y3845000D01*
X1605830Y3839170D01*
Y3818330D01*
G01Y3839170D02*
X1630000Y3851670D01*
G01Y3885000D02*
X1580000D01*
X1590000Y3875000D01*
G01X1630000D02*
Y3895000D01*
G01X1609170Y3919170D02*
X1603330Y3925000D01*
X1600000Y3930000D01*
X1598330Y3936670D01*
X1600000Y3942500D01*
X1603330Y3946670D01*
X1608330Y3950000D01*
X1614170Y3950830D01*
X1619170Y3950000D01*
X1624170Y3946670D01*
X1628330Y3941670D01*
X1630000Y3935830D01*
X1628330Y3929170D01*
X1623330Y3923330D01*
X1615830Y3920000D01*
X1607500Y3919170D01*
X1596670Y3920830D01*
X1590830Y3923330D01*
X1585000Y3927500D01*
X1580830Y3933330D01*
X1580000Y3939170D01*
X1581670Y3945000D01*
X1585830Y3949170D01*
G01X1700000Y3818330D02*
X1650000D01*
Y3839170D01*
X1652500Y3845830D01*
X1655830Y3850000D01*
X1662500Y3851670D01*
X1669170Y3850000D01*
X1673330Y3845000D01*
X1675830Y3839170D01*
Y3818330D01*
G01Y3839170D02*
X1700000Y3851670D01*
G01Y3885000D02*
X1650000D01*
X1660000Y3875000D01*
G01X1700000D02*
Y3895000D01*
G01Y3933330D02*
X1689170Y3935000D01*
X1680000Y3937500D01*
X1671670Y3940830D01*
X1662500Y3945000D01*
X1650000Y3951670D01*
Y3918330D01*
G01X2050000Y3838330D02*
X2000000D01*
Y3859170D01*
X2002500Y3865830D01*
X2005830Y3870000D01*
X2012500Y3871670D01*
X2019170Y3870000D01*
X2023330Y3865000D01*
X2025830Y3859170D01*
Y3838330D01*
G01Y3859170D02*
X2050000Y3871670D01*
G01Y3905000D02*
X2000000D01*
X2010000Y3895000D01*
G01X2050000D02*
Y3915000D01*
G01Y3955000D02*
X2049170Y3960830D01*
X2046670Y3967500D01*
X2042500Y3971670D01*
X2036670Y3973330D01*
X2030830Y3971670D01*
X2025830Y3966670D01*
X2023330Y3959170D01*
Y3950830D01*
X2021670Y3945830D01*
X2017500Y3941670D01*
X2011670Y3940000D01*
X2005830Y3942500D01*
X2001670Y3948330D01*
X2000000Y3955000D01*
X2001670Y3961670D01*
X2005830Y3967500D01*
X2011670Y3970000D01*
X2017500Y3968330D01*
X2021670Y3964170D01*
X2023330Y3959170D01*
Y3950830D01*
X2025830Y3943330D01*
X2030830Y3938330D01*
X2036670Y3936670D01*
X2042500Y3938330D01*
X2046670Y3942500D01*
X2049170Y3949170D01*
X2050000Y3955000D01*
G01X2118330Y3820000D02*
Y3870000D01*
X2139170D01*
X2145830Y3867500D01*
X2150000Y3864170D01*
X2151670Y3857500D01*
X2150000Y3850830D01*
X2145000Y3846670D01*
X2139170Y3844170D01*
X2118330D01*
G01X2139170D02*
X2151670Y3820000D01*
G01X2195000D02*
Y3870000D01*
X2164170Y3834170D01*
X2205830D01*
G01X2235000Y3820000D02*
X2240830Y3820830D01*
X2247500Y3823330D01*
X2251670Y3827500D01*
X2253330Y3833330D01*
X2251670Y3839170D01*
X2246670Y3844170D01*
X2239170Y3846670D01*
X2230830D01*
X2225830Y3848330D01*
X2221670Y3852500D01*
X2220000Y3858330D01*
X2222500Y3864170D01*
X2228330Y3868330D01*
X2235000Y3870000D01*
X2241670Y3868330D01*
X2247500Y3864170D01*
X2250000Y3858330D01*
X2248330Y3852500D01*
X2244170Y3848330D01*
X2239170Y3846670D01*
X2230830D01*
X2223330Y3844170D01*
X2218330Y3839170D01*
X2216670Y3833330D01*
X2218330Y3827500D01*
X2222500Y3823330D01*
X2229170Y3820830D01*
X2235000Y3820000D01*
G01X3999990Y3999990D02*
X0D01*
Y0D01*
X3999990D01*
Y3999990D01*
G01X0Y-140000D02*
X-240000D01*
G01X-120000Y-260000D02*
Y-20000D01*
G01X-50000Y-140000D02*
G03I-70000J0D01*
G01X-20000Y-130000D02*
G03I-100000J-10000D01*
G01X357690Y745040D02*
X967690D01*
Y1355040D01*
X357690D01*
Y745040D01*
G01X1590000Y1235000D02*
X1270000D01*
Y1105000D01*
X1590000D01*
Y1235000D01*
G01X1385000Y320000D02*
Y640000D01*
X1255000D01*
Y320000D01*
X1385000D01*
G01X850360Y1411380D02*
X975360D01*
Y1581380D01*
X850360D01*
Y1411380D01*
G01X1147140D02*
X1272140D01*
Y1581380D01*
X1147140D01*
Y1411380D01*
G01Y1911220D02*
X1272140D01*
Y2081220D01*
X1147140D01*
Y1911220D01*
G01X850360D02*
X975360D01*
Y2081220D01*
X850360D01*
Y1911220D01*
G01X569200D02*
X694200D01*
Y2081220D01*
X569200D01*
Y1911220D01*
G01X288040D02*
X413040D01*
Y2081220D01*
X288040D01*
Y1911220D01*
G01Y1411380D02*
X413040D01*
Y1581380D01*
X288040D01*
Y1411380D01*
G01X569200D02*
X694200D01*
Y1581380D01*
X569200D01*
Y1411380D01*
G01X850360Y2973380D02*
X975360D01*
Y3143380D01*
X850360D01*
Y2973380D01*
G01X1162760D02*
X1287760D01*
Y3143380D01*
X1162760D01*
Y2973380D01*
G01Y3426360D02*
X1287760D01*
Y3596360D01*
X1162760D01*
Y3426360D01*
G01X865980D02*
X990980D01*
Y3596360D01*
X865980D01*
Y3426360D01*
G01X569200D02*
X694200D01*
Y3596360D01*
X569200D01*
Y3426360D01*
G01X272420D02*
X397420D01*
Y3596360D01*
X272420D01*
Y3426360D01*
G01Y2973380D02*
X397420D01*
Y3143380D01*
X272420D01*
Y2973380D01*
G01X569200D02*
X694200D01*
Y3143380D01*
X569200D01*
Y2973380D01*
G01X1445000Y2150000D02*
X1945000D01*
Y2650000D01*
X1445000D01*
Y2150000D01*
G01X357690Y2344980D02*
X967690D01*
Y2954980D01*
X357690D01*
Y2344980D01*
G01X1380000Y3255000D02*
X1700000D01*
Y3385000D01*
X1380000D01*
Y3255000D01*
G01X730000Y2185000D02*
X1050000D01*
Y2315000D01*
X730000D01*
Y2185000D01*
G01X-170000Y4130000D02*
G03I-100000J-10000D01*
G01X-200000Y4120000D02*
G03I-70000J0D01*
G01X-270000Y4000000D02*
Y4240000D01*
G01X-150000Y4120000D02*
X-390000D01*
G01X4230000Y-130000D02*
X3990000D01*
G01X4210000Y-120000D02*
G03I-100000J-10000D01*
G01X2912200Y161780D02*
X3037200D01*
Y331780D01*
X2912200D01*
Y161780D01*
G01X2615420D02*
X2740420D01*
Y331780D01*
X2615420D01*
Y161780D01*
G01X2612500Y515000D02*
X2737500D01*
Y685000D01*
X2612500D01*
Y515000D01*
G01X2912500D02*
X3037500D01*
Y685000D01*
X2912500D01*
Y515000D01*
G01X3192500D02*
X3317500D01*
Y685000D01*
X3192500D01*
Y515000D01*
G01X3462500D02*
X3587500D01*
Y685000D01*
X3462500D01*
Y515000D01*
G01X3458900Y161780D02*
X3583900D01*
Y331780D01*
X3458900D01*
Y161780D01*
G01X3193360D02*
X3318360D01*
Y331780D01*
X3193360D01*
Y161780D01*
G01X1745000Y350000D02*
X2245000D01*
Y850000D01*
X1745000D01*
Y350000D01*
G01X3045010Y745040D02*
X3655010D01*
Y1355040D01*
X3045010D01*
Y745040D01*
G01X2912200Y2973380D02*
X3037200D01*
Y3143380D01*
X2912200D01*
Y2973380D01*
G01X2631040D02*
X2756040D01*
Y3143380D01*
X2631040D01*
Y2973380D01*
G01X3474520Y3426360D02*
X3599520D01*
Y3596360D01*
X3474520D01*
Y3426360D01*
G01X3193360D02*
X3318360D01*
Y3596360D01*
X3193360D01*
Y3426360D01*
G01X2912200D02*
X3037200D01*
Y3596360D01*
X2912200D01*
Y3426360D01*
G01X2631040D02*
X2756040D01*
Y3596360D01*
X2631040D01*
Y3426360D01*
G01X3474520Y2973380D02*
X3599520D01*
Y3143380D01*
X3474520D01*
Y2973380D01*
G01X3193360D02*
X3318360D01*
Y3143380D01*
X3193360D01*
Y2973380D01*
G01X2045000Y1350000D02*
X2545000D01*
Y1850000D01*
X2045000D01*
Y1350000D01*
G01X1745000Y3150000D02*
X2245000D01*
Y3650000D01*
X1745000D01*
Y3150000D01*
G01X3045010Y2344980D02*
X3655010D01*
Y2954980D01*
X3045010D01*
Y2344980D01*
G01X4110000Y-250000D02*
Y-10000D01*
G01X4180000Y-130000D02*
G03I-70000J0D01*
G01X4290000Y4130000D02*
X4050000D01*
G01X4170000Y4010000D02*
Y4250000D01*
G01X4240000Y4130000D02*
G03I-70000J0D01*
G01X4270000Y4140000D02*
G03I-100000J-10000D01*
M02*
