G04 ================== begin FILE IDENTIFICATION RECORD ==================*
G04 Layout Name:  LED Panel G4 V1, 03-26-2017.brd*
G04 Film Name:    SilkScreen_Top*
G04 File Format:  Gerber RS274X*
G04 File Origin:  Cadence Allegro 17.2-P019*
G04 Origin Date:  Wed Aug 12 17:31:23 2020*
G04 *
G04 Layer:  USER PART NUMBER/SILKSCREEN_TOP*
G04 Layer:  TOLERANCE/SILKSCREEN_TOP*
G04 Layer:  REF DES/SILKSCREEN_TOP*
G04 Layer:  PIN/TOP*
G04 Layer:  PACKAGE GEOMETRY/SILKSCREEN_TOP*
G04 Layer:  PACKAGE GEOMETRY/SOLDERMASK_TOP*
G04 Layer:  DRC ERROR CLASS/TOP*
G04 Layer:  DEVICE TYPE/SILKSCREEN_TOP*
G04 Layer:  COMPONENT VALUE/SILKSCREEN_TOP*
G04 Layer:  BOARD GEOMETRY/OUTLINE*
G04 Layer:  BOARD GEOMETRY/SILKSCREEN_TOP*
G04 *
G04 Offset:    (0.0000 0.0000)*
G04 Mirror:    No*
G04 Mode:      Positive*
G04 Rotation:  0*
G04 FullContactRelief:  No*
G04 UndefLineWidth:     0.1000*
G04 ================== end FILE IDENTIFICATION RECORD ====================*
%FSLAX31Y31*MOMM*%
%IR0*IPPOS*OFA0.00000B0.00000*MIA0B0*SFA1.00000B1.00000*%
%ADD14R,1.5X.4*%
%ADD13R,.4X1.5*%
%ADD15R,.375X.375*%
%ADD18R,.3X.7*%
%ADD16R,.7X.3*%
%ADD11R,.65X.5001*%
%ADD10R,.5001X.65*%
%ADD12R,3.68X1.27*%
%ADD17R,2.7X2.7*%
%ADD19C,.1*%
%ADD20C,.0508*%
G75*
%LPD*%
G75*
G36*
G01X138Y264D02*
G03I-3J0D01*
G37*
G36*
G01X2Y398D02*
X20D01*
X2Y380D01*
Y398D01*
G37*
G36*
G01X168Y84D02*
G03I-3J0D01*
G37*
G36*
G01X198Y184D02*
G03I-2J0D01*
G37*
G36*
G01X168Y364D02*
G03I-3J0D01*
G37*
G36*
G01X398Y398D02*
Y380D01*
X380Y398D01*
X398D01*
G37*
G36*
G01X138Y264D02*
G03I-2J0D01*
G37*
G36*
G01X168Y84D02*
G03I-2J0D01*
G37*
G36*
G01Y364D02*
G03I-2J0D01*
G37*
G54D10*
X145Y62D03*
X143Y34D03*
X145Y72D03*
Y80D03*
X148Y344D03*
X115Y233D03*
X125D03*
X148Y313D03*
X148Y353D03*
Y361D03*
X132Y286D03*
X122D03*
X115Y216D03*
X125D03*
X115Y250D03*
X125D03*
X115Y258D03*
X125D03*
X27Y164D03*
X37D03*
X155Y62D03*
X153Y34D03*
X155Y72D03*
Y80D03*
X288Y37D03*
X298D03*
X259D03*
X269D03*
X287Y81D03*
X297D03*
X328Y77D03*
X338D03*
X344Y37D03*
X354D03*
X318D03*
X328D03*
X158Y344D03*
X176Y153D03*
X186D03*
X176Y136D03*
X186D03*
X176Y170D03*
X186D03*
X176Y178D03*
X186D03*
X275Y280D03*
X285D03*
X158Y313D03*
X158Y353D03*
Y361D03*
X279Y169D03*
X269D03*
X286Y179D03*
X276D03*
X286Y188D03*
X276D03*
X286Y197D03*
X276D03*
X286Y206D03*
X276D03*
X286Y215D03*
X276D03*
X245Y358D03*
X235D03*
X244Y368D03*
X234D03*
X289Y365D03*
X299D03*
X262D03*
X272D03*
X239Y237D03*
X229D03*
X239Y246D03*
X229D03*
X239Y254D03*
X229D03*
X239Y262D03*
X229D03*
X239Y270D03*
X229D03*
X239Y278D03*
X229D03*
X222Y392D03*
X212D03*
G54D20*
G01X158Y59D02*
X142D01*
Y66D01*
X158D01*
Y59D01*
G01X15Y125D02*
Y109D01*
X7D01*
Y125D01*
X15D01*
G01X156Y31D02*
X140D01*
Y38D01*
X157D01*
Y31D01*
X156D01*
G01X158Y68D02*
X142D01*
Y76D01*
X158D01*
Y68D01*
G01X158Y76D02*
X142D01*
Y83D01*
X158D01*
Y76D01*
G01X161Y340D02*
X145D01*
Y348D01*
X161D01*
Y340D01*
G01X128Y229D02*
X112D01*
Y237D01*
X128D01*
Y229D01*
X127D01*
G01X161Y309D02*
X145D01*
Y317D01*
X161D01*
Y309D01*
G01X161Y349D02*
X145D01*
Y357D01*
X161D01*
Y349D01*
G01X161Y357D02*
X145D01*
Y365D01*
X161D01*
Y357D01*
G01X119Y290D02*
X135D01*
Y282D01*
X118D01*
Y290D01*
X119D01*
G01X128Y212D02*
X112D01*
Y219D01*
X128D01*
Y212D01*
X127D01*
G01X128Y246D02*
X112D01*
Y254D01*
X128D01*
Y246D01*
X127D01*
G01X128Y254D02*
X112D01*
Y262D01*
X128D01*
Y254D01*
X127D01*
G01X145Y283D02*
Y299D01*
X152D01*
Y282D01*
X145D01*
Y283D01*
G01X40Y160D02*
X24D01*
Y168D01*
X40D01*
Y160D01*
G01X229Y122D02*
Y106D01*
X221D01*
Y122D01*
X229D01*
G01X221Y122D02*
Y106D01*
X213D01*
Y122D01*
X221D01*
G01X196Y22D02*
Y6D01*
X188D01*
Y22D01*
X196D01*
G01X188Y22D02*
Y6D01*
X181D01*
Y22D01*
X188D01*
G01X176Y101D02*
Y117D01*
X183D01*
Y101D01*
X176D01*
Y102D01*
G01X184Y101D02*
Y117D01*
X191D01*
Y101D01*
X184D01*
Y102D01*
G01X191Y101D02*
Y117D01*
X199D01*
Y101D01*
X191D01*
Y102D01*
G01X237Y122D02*
Y106D01*
X230D01*
Y122D01*
X237D01*
G01X301Y33D02*
X285D01*
Y41D01*
X301D01*
Y33D01*
G01X272D02*
X256D01*
Y41D01*
X272D01*
Y33D01*
G01X263Y93D02*
Y77D01*
X255D01*
Y93D01*
X263D01*
G01X300Y77D02*
X284D01*
Y85D01*
X300D01*
Y77D01*
G01X341Y74D02*
X325D01*
Y81D01*
X341D01*
Y74D01*
X340D01*
G01X357Y68D02*
Y84D01*
X364D01*
Y68D01*
X357D01*
Y69D01*
G01X357Y33D02*
X341D01*
Y41D01*
X357D01*
Y33D01*
G01X330D02*
X314D01*
Y41D01*
X331D01*
Y33D01*
X330D01*
G01X189Y149D02*
X173D01*
Y157D01*
X189D01*
Y149D01*
G01X189Y132D02*
X173D01*
Y140D01*
X189D01*
Y132D01*
G01X189Y166D02*
X173D01*
Y174D01*
X189D01*
Y166D01*
G01X189Y174D02*
X173D01*
Y182D01*
X189D01*
Y174D01*
G01X205Y201D02*
Y217D01*
X213D01*
Y201D01*
X205D01*
Y202D01*
G01X213Y201D02*
Y217D01*
X221D01*
Y201D01*
X213D01*
Y202D01*
G01X221Y201D02*
Y217D01*
X229D01*
Y201D01*
X221D01*
Y202D01*
G01X288Y276D02*
X272D01*
Y284D01*
X288D01*
Y276D01*
G01X199Y302D02*
Y286D01*
X191D01*
Y302D01*
X199D01*
Y301D01*
G01X191Y302D02*
Y286D01*
X184D01*
Y302D01*
X191D01*
Y301D01*
G01X169Y202D02*
Y186D01*
X161D01*
Y202D01*
X169D01*
Y201D01*
G01X161Y202D02*
Y186D01*
X153D01*
Y202D01*
X161D01*
Y201D01*
G01X154Y283D02*
Y299D01*
X162D01*
Y282D01*
X154D01*
Y283D01*
G01X162Y283D02*
Y299D01*
X169D01*
Y282D01*
X162D01*
Y283D01*
G01X384Y131D02*
Y147D01*
X391D01*
Y131D01*
X384D01*
G01X266Y173D02*
X282D01*
Y165D01*
X266D01*
Y173D01*
X267D01*
G01X273Y183D02*
X289D01*
Y175D01*
X273D01*
Y183D01*
G01X273Y192D02*
X289D01*
Y184D01*
X273D01*
Y192D01*
G01X273Y201D02*
X289D01*
Y193D01*
X273D01*
Y201D01*
G01X273Y210D02*
X289D01*
Y202D01*
X273D01*
Y210D01*
G01X273Y218D02*
X289D01*
Y211D01*
X273D01*
Y218D01*
G01X246Y317D02*
Y301D01*
X238D01*
Y317D01*
X246D01*
G01X232Y362D02*
X248D01*
Y354D01*
X232D01*
Y362D01*
G01X231Y372D02*
X247D01*
Y364D01*
X231D01*
Y372D01*
G01X302Y361D02*
X286D01*
Y369D01*
X302D01*
Y361D01*
G01X275D02*
X259D01*
Y369D01*
X275D01*
Y361D01*
G01X259Y284D02*
Y268D01*
X251D01*
Y284D01*
X259D01*
G01X229Y293D02*
Y309D01*
X237D01*
Y293D01*
X229D01*
G01X226Y241D02*
X242D01*
Y233D01*
X226D01*
Y241D01*
G01X226Y250D02*
X242D01*
Y242D01*
X226D01*
Y250D01*
G01X226Y258D02*
X242D01*
Y250D01*
X226D01*
Y258D01*
G01X226Y266D02*
X242D01*
Y258D01*
X226D01*
Y266D01*
G01X226Y274D02*
X242D01*
Y266D01*
X226D01*
Y274D01*
G01X226Y282D02*
X242D01*
Y274D01*
X226D01*
Y282D01*
G01X192Y199D02*
Y183D01*
X184D01*
Y199D01*
X192D01*
G01X200Y199D02*
Y183D01*
X192D01*
Y199D01*
X200D01*
G01X176Y380D02*
Y396D01*
X183D01*
Y379D01*
X176D01*
Y380D01*
G01X184Y380D02*
Y396D01*
X191D01*
Y379D01*
X184D01*
Y380D01*
G01X191Y380D02*
Y396D01*
X199D01*
Y379D01*
X191D01*
Y380D01*
G01X209Y396D02*
X225D01*
Y388D01*
X209D01*
Y396D01*
G54D11*
X11Y112D03*
Y122D03*
X148Y296D03*
Y286D03*
X225Y109D03*
Y119D03*
X217Y109D03*
Y119D03*
X192Y9D03*
Y19D03*
X184Y9D03*
Y19D03*
X180Y114D03*
Y104D03*
X187Y114D03*
Y104D03*
X195Y114D03*
Y104D03*
X234Y109D03*
Y119D03*
X259Y80D03*
Y90D03*
X361Y81D03*
Y71D03*
X209Y214D03*
Y204D03*
X217Y214D03*
Y204D03*
X225Y214D03*
Y204D03*
X195Y289D03*
Y299D03*
X187Y289D03*
Y299D03*
X165Y189D03*
Y199D03*
X157Y189D03*
Y199D03*
X158Y296D03*
Y286D03*
X166Y296D03*
Y286D03*
X387Y144D03*
Y134D03*
X242Y304D03*
Y314D03*
X255Y271D03*
Y281D03*
X233Y306D03*
Y296D03*
X188Y186D03*
Y196D03*
X196Y186D03*
Y196D03*
X180Y392D03*
Y382D03*
X187Y392D03*
Y382D03*
X195Y392D03*
Y382D03*
G54D12*
X88Y118D03*
Y92D03*
X44D03*
Y118D03*
X88Y278D03*
Y252D03*
X44D03*
Y278D03*
X357Y118D03*
Y92D03*
X313D03*
Y118D03*
X357Y278D03*
Y252D03*
X313D03*
Y278D03*
G54D13*
X143Y117D03*
X131D03*
X142Y332D03*
X89Y225D03*
X101D03*
X77D03*
X155Y117D03*
X154Y332D03*
X166D03*
G54D14*
X132Y48D03*
Y60D03*
Y36D03*
G54D15*
X100Y155D03*
Y150D03*
Y145D03*
X83D03*
Y150D03*
Y155D03*
X129D03*
Y150D03*
Y145D03*
X112D03*
Y150D03*
Y155D03*
X129Y205D03*
Y200D03*
Y195D03*
X112D03*
Y200D03*
Y205D03*
X100D03*
Y200D03*
Y195D03*
X83D03*
Y200D03*
Y205D03*
X72D03*
Y200D03*
Y195D03*
X55D03*
Y200D03*
Y205D03*
X44D03*
Y200D03*
Y195D03*
X27D03*
Y200D03*
Y205D03*
X44Y155D03*
Y150D03*
Y145D03*
X27D03*
Y150D03*
Y155D03*
X72D03*
Y150D03*
Y145D03*
X55D03*
Y150D03*
Y155D03*
X100Y311D03*
Y306D03*
Y301D03*
X83D03*
Y306D03*
Y311D03*
X131D03*
Y306D03*
Y301D03*
X114D03*
Y306D03*
Y311D03*
X131Y356D03*
Y351D03*
Y346D03*
X114D03*
Y351D03*
Y356D03*
X101D03*
Y351D03*
Y346D03*
X84D03*
Y351D03*
Y356D03*
X72D03*
Y351D03*
Y346D03*
X55D03*
Y351D03*
Y356D03*
X42D03*
Y351D03*
Y346D03*
X25D03*
Y351D03*
Y356D03*
X42Y311D03*
Y306D03*
Y301D03*
X25D03*
Y306D03*
Y311D03*
X72D03*
Y306D03*
Y301D03*
X55D03*
Y306D03*
Y311D03*
X306Y30D03*
Y25D03*
Y20D03*
X289D03*
Y25D03*
Y30D03*
X276D03*
Y25D03*
Y20D03*
X259D03*
Y25D03*
Y30D03*
X276Y65D03*
Y60D03*
Y55D03*
X259D03*
Y60D03*
Y65D03*
X306D03*
Y60D03*
Y55D03*
X289D03*
Y60D03*
Y65D03*
X334D03*
Y60D03*
Y55D03*
X317D03*
Y60D03*
Y65D03*
X361D03*
Y60D03*
Y55D03*
X344D03*
Y60D03*
Y65D03*
X361Y30D03*
Y25D03*
Y20D03*
X344D03*
Y25D03*
Y30D03*
X334D03*
Y25D03*
Y20D03*
X317D03*
Y25D03*
Y30D03*
X306Y311D03*
Y306D03*
Y301D03*
X289D03*
Y306D03*
Y311D03*
X278D03*
Y306D03*
Y301D03*
X261D03*
Y306D03*
Y311D03*
X362Y356D03*
Y351D03*
Y346D03*
X345D03*
Y351D03*
Y356D03*
X334D03*
Y351D03*
Y346D03*
X317D03*
Y351D03*
Y356D03*
X306D03*
Y351D03*
Y346D03*
X289D03*
Y351D03*
Y356D03*
X278D03*
Y351D03*
Y346D03*
X261D03*
Y351D03*
Y356D03*
X362Y311D03*
Y306D03*
Y301D03*
X345D03*
Y306D03*
Y311D03*
X334D03*
Y306D03*
Y301D03*
X317D03*
Y306D03*
Y311D03*
G54D16*
X145Y222D03*
Y228D03*
Y232D03*
Y238D03*
Y242D03*
Y248D03*
Y252D03*
Y258D03*
X224Y78D03*
Y72D03*
Y68D03*
Y62D03*
Y58D03*
Y52D03*
Y48D03*
Y42D03*
X175D03*
Y48D03*
Y52D03*
Y58D03*
Y62D03*
Y68D03*
Y72D03*
Y78D03*
X254Y178D03*
Y172D03*
Y168D03*
Y162D03*
Y158D03*
Y152D03*
Y148D03*
Y142D03*
X205D03*
Y148D03*
Y152D03*
Y158D03*
Y162D03*
Y168D03*
Y172D03*
Y178D03*
X224Y358D03*
Y352D03*
Y348D03*
Y342D03*
Y338D03*
Y332D03*
Y328D03*
Y322D03*
X175D03*
Y328D03*
Y332D03*
Y338D03*
Y342D03*
Y348D03*
Y352D03*
Y358D03*
X194Y258D03*
Y252D03*
Y248D03*
Y242D03*
Y238D03*
Y232D03*
Y228D03*
Y222D03*
G54D17*
X200Y60D03*
X230Y160D03*
X200Y340D03*
X170Y240D03*
G54D18*
X182Y84D03*
X187D03*
X192D03*
X197D03*
X202D03*
X207D03*
X212D03*
X217D03*
Y36D03*
X212D03*
X207D03*
X202D03*
X197D03*
X192D03*
X187D03*
X182D03*
X212Y184D03*
X217D03*
X222D03*
X227D03*
X232D03*
X237D03*
X242D03*
X247D03*
Y136D03*
X242D03*
X237D03*
X232D03*
X227D03*
X222D03*
X217D03*
X212D03*
X182Y364D03*
X187D03*
X192D03*
X197D03*
X202D03*
X207D03*
X212D03*
X217D03*
Y316D03*
X212D03*
X207D03*
X202D03*
X197D03*
X192D03*
X187D03*
X182D03*
X152Y264D03*
X157D03*
X162D03*
X167D03*
X172D03*
X177D03*
X182D03*
X187D03*
Y216D03*
X182D03*
X177D03*
X172D03*
X167D03*
X162D03*
X157D03*
X152D03*
G54D19*
G01X114Y100D02*
Y105D01*
X115D01*
X116Y105D01*
X116Y104D01*
X117Y104D01*
X117Y103D01*
X117Y102D01*
X117Y101D01*
X116Y101D01*
X116Y100D01*
X115Y100D01*
X114D01*
G01X119D02*
Y103D01*
G01Y103D02*
X120Y103D01*
X121Y103D01*
X122Y103D01*
G01X124Y103D02*
X126Y100D01*
X127Y103D01*
G01X129Y101D02*
X129Y100D01*
X130Y100D01*
X131Y100D01*
X132Y100D01*
X132Y101D01*
X132Y102D01*
X131Y103D01*
X130D01*
G01X131D02*
X132Y103D01*
X132Y104D01*
X132Y105D01*
X131Y105D01*
X130Y105D01*
X129Y105D01*
G01X139Y100D02*
Y105D01*
X141D01*
X142Y105D01*
X142Y104D01*
Y103D01*
X141Y102D01*
X139D01*
G01X141D02*
X142Y100D01*
G01X144Y101D02*
X145Y100D01*
X146Y100D01*
X147Y100D01*
X147Y101D01*
X146Y102D01*
X145Y102D01*
X144Y103D01*
X145Y103D01*
X146Y103D01*
G01X150Y105D02*
Y100D01*
G01X149Y103D02*
X152D01*
G01X117Y94D02*
X119D01*
Y93D01*
X118Y92D01*
X117Y92D01*
X116Y92D01*
X115Y92D01*
X115Y93D01*
X114Y94D01*
X114Y95D01*
X115Y96D01*
X116Y97D01*
X117Y97D01*
X118Y97D01*
X118Y96D01*
G01X120Y92D02*
Y97D01*
X123Y92D01*
Y97D01*
G01X125Y92D02*
Y97D01*
X126D01*
X127Y97D01*
X128Y96D01*
X128Y95D01*
X128Y94D01*
X128Y93D01*
X127Y92D01*
X126Y92D01*
X125D01*
G01X8Y68D02*
Y73D01*
X11Y68D01*
Y73D01*
G01X16Y73D02*
X15Y73D01*
X14Y73D01*
X13Y72D01*
X12Y71D01*
X12Y70D01*
X13Y70D01*
X13Y69D01*
X13Y68D01*
X14Y68D01*
X15Y68D01*
X16Y68D01*
X17Y69D01*
G01X10Y84D02*
X9Y84D01*
X8Y84D01*
X7Y83D01*
X6Y82D01*
X6Y81D01*
X7Y80D01*
X8Y79D01*
X9Y79D01*
X10Y79D01*
X11Y80D01*
G01X12Y80D02*
X12Y79D01*
X13Y79D01*
X14D01*
X15Y80D01*
X15Y81D01*
X14Y82D01*
X13Y82D01*
X12Y82D01*
X12Y83D01*
X13Y84D01*
X14Y84D01*
X15Y83D01*
G01X17Y80D02*
X17Y79D01*
X18Y79D01*
X19Y79D01*
X20Y80D01*
X20Y81D01*
X20Y82D01*
X19Y82D01*
X18D01*
G01X19D02*
X20Y82D01*
X20Y83D01*
X20Y84D01*
X19Y84D01*
X18Y84D01*
X17Y84D01*
G01X7Y7D02*
X7Y6D01*
X8Y6D01*
X9Y6D01*
X10Y6D01*
X10Y7D01*
X10Y8D01*
X9Y9D01*
X8D01*
G01X9D02*
X10Y9D01*
X10Y10D01*
X10Y11D01*
X9Y11D01*
X8Y11D01*
X7Y11D01*
G01X13Y5D02*
X14Y6D01*
G01X17Y10D02*
X17Y11D01*
X18Y11D01*
X19Y11D01*
X20Y11D01*
X20Y10D01*
X20Y9D01*
X18Y8D01*
X17Y8D01*
X17Y7D01*
X17Y6D01*
X20D01*
G01X24Y11D02*
X23Y11D01*
X22Y10D01*
X22Y9D01*
X22Y8D01*
X22Y7D01*
X23Y6D01*
X24Y6D01*
X25Y7D01*
X25Y8D01*
Y9D01*
X25Y10D01*
X24Y11D01*
G01X28Y6D02*
Y11D01*
X28Y10D01*
G01Y6D02*
X30D01*
G01X33D02*
X34Y7D01*
X34Y8D01*
X34Y9D01*
X34Y10D01*
X35Y11D01*
X32D01*
G01X41D02*
X44Y6D01*
X46Y11D01*
G01X47Y10D02*
X47Y11D01*
X48Y11D01*
X49Y11D01*
X50Y11D01*
X50Y10D01*
X50Y9D01*
X48Y8D01*
X47Y8D01*
X47Y7D01*
X47Y6D01*
X50D01*
G01X147Y57D02*
X146Y57D01*
X145Y57D01*
X144Y56D01*
X144Y55D01*
X143Y54D01*
X144Y54D01*
X144Y53D01*
X144Y52D01*
X145Y52D01*
X146Y52D01*
X147Y52D01*
X148Y53D01*
G01X149Y56D02*
X149Y57D01*
X150Y57D01*
X151Y57D01*
X152Y57D01*
X152Y56D01*
X152Y55D01*
X150Y54D01*
X149Y54D01*
X149Y53D01*
X149Y52D01*
X152D01*
G01X9Y134D02*
X14D01*
Y132D01*
X14Y131D01*
X13Y131D01*
X12D01*
X12Y132D01*
X11Y132D01*
Y134D01*
G01Y132D02*
X9Y131D01*
G01Y128D02*
X14D01*
X13Y128D01*
G01X9D02*
Y126D01*
G01X128Y72D02*
Y77D01*
X130D01*
X131Y77D01*
X131Y76D01*
Y75D01*
X130Y75D01*
X130Y74D01*
X128D01*
G01X130D02*
X131Y72D01*
G01X133Y73D02*
X133Y72D01*
X134Y72D01*
X135Y72D01*
X136Y72D01*
X136Y73D01*
X136Y74D01*
X135Y75D01*
X134D01*
G01X135D02*
X136Y75D01*
X136Y76D01*
X136Y77D01*
X135Y77D01*
X134Y77D01*
X133Y77D01*
G01X138Y76D02*
X138Y77D01*
X139Y77D01*
X140Y77D01*
X141Y76D01*
X141Y75D01*
X139Y74D01*
X138Y74D01*
X138Y73D01*
X138Y72D01*
X141D01*
G01X144Y84D02*
Y89D01*
X146D01*
X147Y89D01*
X147Y88D01*
Y87D01*
X146Y87D01*
X146Y86D01*
X144D01*
G01X146D02*
X147Y84D01*
G01X149Y85D02*
X149Y84D01*
X150Y84D01*
X151Y84D01*
X152Y84D01*
X152Y85D01*
X152Y86D01*
X151Y87D01*
X150D01*
G01X151D02*
X152Y87D01*
X152Y88D01*
X152Y89D01*
X151Y89D01*
X150Y89D01*
X149Y89D01*
G01X154Y85D02*
X154Y84D01*
X155Y84D01*
X156Y84D01*
X157Y84D01*
X157Y85D01*
X157Y86D01*
X156Y87D01*
X155D01*
G01X156D02*
X157Y87D01*
X157Y88D01*
X157Y89D01*
X156Y89D01*
X155Y89D01*
X154Y89D01*
G01X4Y91D02*
X4Y90D01*
X5Y90D01*
X6D01*
X7Y91D01*
X7Y92D01*
Y95D01*
G01X12Y90D02*
Y95D01*
X8Y91D01*
X13D01*
G01X110Y45D02*
Y47D01*
X109Y50D01*
G01X112D02*
X110Y47D01*
G01X116Y45D02*
Y50D01*
X113Y46D01*
X118D01*
G01X6Y222D02*
Y227D01*
X7D01*
X8Y227D01*
X8Y226D01*
X9Y226D01*
X9Y225D01*
X9Y224D01*
X9Y223D01*
X8Y223D01*
X8Y222D01*
X7Y222D01*
X6D01*
G01X11D02*
Y227D01*
X13D01*
X14Y227D01*
X14Y226D01*
Y225D01*
X13Y224D01*
X11D01*
G01X13D02*
X14Y222D01*
G01X15Y227D02*
X18Y222D01*
X20Y227D01*
G01X21Y226D02*
X21Y227D01*
X22Y227D01*
X23Y227D01*
X24Y227D01*
X24Y226D01*
X24Y225D01*
X22Y224D01*
X21Y224D01*
X21Y223D01*
X21Y222D01*
X24D01*
G01X31D02*
Y227D01*
X33D01*
X34Y227D01*
X34Y226D01*
Y225D01*
X33Y224D01*
X31D01*
G01X33D02*
X34Y222D01*
G01X36Y224D02*
X39D01*
X39Y225D01*
X38Y225D01*
X37Y225D01*
X36Y224D01*
X36Y223D01*
X37Y222D01*
X38Y222D01*
X39Y223D01*
G01X41Y223D02*
X42Y222D01*
X43Y222D01*
X44Y222D01*
X44Y223D01*
X43Y224D01*
X42Y224D01*
X42Y225D01*
X43Y225D01*
X44Y225D01*
G01X46Y224D02*
X49D01*
X49Y225D01*
X48Y225D01*
X47Y225D01*
X46Y224D01*
X46Y223D01*
X47Y222D01*
X48Y222D01*
X49Y223D01*
G01X52Y227D02*
Y222D01*
G01X51Y225D02*
X54D01*
G01X8Y230D02*
Y235D01*
X11Y230D01*
Y235D01*
G01X16Y235D02*
X15Y235D01*
X14Y235D01*
X13Y234D01*
X12Y233D01*
X12Y232D01*
X13Y232D01*
X13Y231D01*
X13Y230D01*
X14Y230D01*
X15Y230D01*
X16Y230D01*
X17Y231D01*
G01X111Y274D02*
Y279D01*
X114Y275D01*
X116Y279D01*
Y274D01*
G01X118D02*
X117Y274D01*
X117Y275D01*
X116Y276D01*
X116Y277D01*
X116Y278D01*
X117Y278D01*
X117Y279D01*
X118Y279D01*
X119D01*
X120Y279D01*
X120Y278D01*
X121Y278D01*
X121Y277D01*
Y276D01*
X120Y275D01*
X120Y274D01*
X119Y274D01*
X118Y274D01*
G01X122Y275D02*
X122Y274D01*
X123Y274D01*
X124D01*
X125Y275D01*
X125Y276D01*
X124Y277D01*
X123Y277D01*
X122Y277D01*
X122Y278D01*
X123Y279D01*
X124Y279D01*
X125Y278D01*
G01X128Y279D02*
X130D01*
G01X128D02*
Y274D01*
G01X128D02*
X130D01*
G01X100Y243D02*
X99Y243D01*
X98Y243D01*
X97Y242D01*
X96Y241D01*
X96Y240D01*
X97Y240D01*
X97Y239D01*
X97Y238D01*
X98Y238D01*
X99Y238D01*
X100Y238D01*
X101Y239D01*
G01X102Y239D02*
X102Y238D01*
X103Y238D01*
X104D01*
X105Y239D01*
X105Y240D01*
X104Y241D01*
X103Y241D01*
X102Y241D01*
X102Y242D01*
X103Y243D01*
X104Y243D01*
X105Y242D01*
G01X107Y242D02*
X107Y243D01*
X108Y243D01*
X109Y243D01*
X110Y243D01*
X110Y242D01*
X110Y241D01*
X108Y240D01*
X107Y240D01*
X107Y239D01*
X107Y238D01*
X110D01*
G01X118Y229D02*
X117Y229D01*
X116Y229D01*
X115Y228D01*
X114Y227D01*
X114Y226D01*
X115Y226D01*
X115Y225D01*
X115Y224D01*
X116Y224D01*
X117Y224D01*
X118Y224D01*
X119Y225D01*
G01X122Y224D02*
Y229D01*
X119Y225D01*
X124D01*
G01X149Y317D02*
Y322D01*
X151D01*
X152Y322D01*
X152Y321D01*
Y320D01*
X151Y319D01*
X149D01*
G01X151D02*
X152Y317D01*
G01X156D02*
Y322D01*
X154Y321D01*
G01Y317D02*
X156D01*
G01X160D02*
Y322D01*
X160Y321D01*
G01Y317D02*
X162D01*
G01X146Y368D02*
Y373D01*
X148D01*
X149Y373D01*
X149Y372D01*
Y371D01*
X148Y371D01*
X148Y370D01*
X146D01*
G01X148D02*
X149Y368D01*
G01X152D02*
Y373D01*
X152Y372D01*
G01Y368D02*
X154D01*
G01X158D02*
Y373D01*
X155Y369D01*
X160D01*
G01X146Y375D02*
Y380D01*
X148D01*
X149Y380D01*
X149Y379D01*
Y378D01*
X148Y378D01*
X148Y377D01*
X146D01*
G01X148D02*
X149Y375D01*
G01X152D02*
Y380D01*
X152Y379D01*
G01Y375D02*
X154D01*
G01X156Y376D02*
X156Y375D01*
X157Y375D01*
X158Y375D01*
X159Y376D01*
X159Y377D01*
X159Y378D01*
X158Y378D01*
X157D01*
X156Y378D01*
X156Y380D01*
X159D01*
G01X119Y293D02*
Y298D01*
X121D01*
X122Y298D01*
X122Y297D01*
X122Y296D01*
X121Y296D01*
X119D01*
G01X121D02*
X122Y293D01*
G01X126D02*
Y298D01*
X125Y297D01*
G01Y293D02*
X127D01*
G01X129Y294D02*
X130Y294D01*
X130Y293D01*
X131Y294D01*
X132Y294D01*
X132Y295D01*
X132Y296D01*
Y297D01*
X132Y298D01*
X131Y298D01*
X130D01*
X129Y298D01*
X129Y297D01*
Y296D01*
X130Y296D01*
X130Y295D01*
X131Y295D01*
X132Y296D01*
X132Y297D01*
G01X148Y196D02*
X153D01*
Y194D01*
X153Y193D01*
X152Y193D01*
X151D01*
X151Y194D01*
X150Y194D01*
Y196D01*
G01Y194D02*
X148Y193D01*
G01X152Y191D02*
X153Y191D01*
X153Y190D01*
X153Y189D01*
X153Y188D01*
X152Y188D01*
X151Y188D01*
X150Y190D01*
X150Y191D01*
X149Y191D01*
X148Y191D01*
Y188D01*
G01Y184D02*
X153D01*
X152Y186D01*
G01X148D02*
Y184D01*
G01X130Y214D02*
Y219D01*
X132D01*
X133Y219D01*
X133Y218D01*
Y217D01*
X132Y217D01*
X132Y216D01*
X130D01*
G01X132D02*
X133Y214D01*
G01X135Y218D02*
X135Y219D01*
X136Y219D01*
X137Y219D01*
X138Y219D01*
X138Y218D01*
X138Y217D01*
X136Y216D01*
X135Y216D01*
X135Y215D01*
X135Y214D01*
X138D01*
G01X140Y218D02*
X140Y219D01*
X141Y219D01*
X142Y219D01*
X143Y218D01*
X143Y217D01*
X141Y216D01*
X140Y216D01*
X140Y215D01*
X140Y214D01*
X143D01*
G01X113Y240D02*
Y245D01*
X115D01*
X116Y245D01*
X116Y244D01*
Y243D01*
X115Y242D01*
X113D01*
G01X115D02*
X116Y240D01*
G01X118Y244D02*
X118Y245D01*
X119Y245D01*
X120Y245D01*
X121Y244D01*
X121Y243D01*
X119Y242D01*
X118Y242D01*
X118Y241D01*
X118Y240D01*
X121D01*
G01X123Y241D02*
X123Y240D01*
X124Y240D01*
X125Y240D01*
X126Y240D01*
X126Y241D01*
X126Y242D01*
X125Y243D01*
X124D01*
G01X125D02*
X126Y243D01*
X126Y244D01*
X126Y245D01*
X125Y245D01*
X124Y245D01*
X123Y245D01*
G01X113Y262D02*
Y267D01*
X115D01*
X116Y267D01*
X116Y266D01*
Y265D01*
X115Y264D01*
X113D01*
G01X115D02*
X116Y262D01*
G01X118Y266D02*
X118Y267D01*
X119Y267D01*
X120Y267D01*
X121Y266D01*
X121Y265D01*
X119Y264D01*
X118Y264D01*
X118Y263D01*
X118Y262D01*
X121D01*
G01X126D02*
Y267D01*
X122Y263D01*
X127D01*
G01X143Y285D02*
X138D01*
Y287D01*
X138Y288D01*
X139Y288D01*
X140D01*
X141Y287D01*
Y285D01*
G01Y287D02*
X143Y288D01*
G01X139Y290D02*
X138Y290D01*
X138Y291D01*
X138Y292D01*
X139Y293D01*
X140Y293D01*
X141Y291D01*
X141Y290D01*
X142Y290D01*
X143Y290D01*
Y293D01*
G01X142Y295D02*
X143Y295D01*
X143Y296D01*
X143Y297D01*
X142Y298D01*
X141Y298D01*
X140Y298D01*
X140Y297D01*
Y296D01*
X140Y295D01*
X138Y296D01*
Y298D01*
G01X26Y168D02*
Y173D01*
X28D01*
X29Y173D01*
X29Y172D01*
Y171D01*
X28Y171D01*
X28Y170D01*
X26D01*
G01X28D02*
X29Y168D01*
G01X34D02*
Y173D01*
X30Y169D01*
X35D01*
G01X36Y169D02*
X36Y168D01*
X37Y168D01*
X38Y168D01*
X39Y168D01*
X39Y169D01*
X39Y170D01*
X38Y171D01*
X37D01*
G01X38D02*
X39Y171D01*
X39Y172D01*
X39Y173D01*
X38Y173D01*
X37Y173D01*
X36Y173D01*
G01X90Y137D02*
X89Y137D01*
X88Y137D01*
X88Y138D01*
X87Y138D01*
X87Y139D01*
Y140D01*
X88Y141D01*
X88Y142D01*
X89Y142D01*
X90Y142D01*
X91Y142D01*
X91Y141D01*
X92Y140D01*
X92Y139D01*
X92Y138D01*
X91Y138D01*
X91Y137D01*
X90Y137D01*
G01Y138D02*
X91Y137D01*
G01X94D02*
Y142D01*
X94Y141D01*
G01Y137D02*
X96D01*
G01X85Y159D02*
G03I-1J0D01*
G01X118Y136D02*
X117Y136D01*
X117Y137D01*
X116Y138D01*
X116Y139D01*
X116Y140D01*
X117Y140D01*
X117Y141D01*
X118Y141D01*
X119D01*
X120Y141D01*
X120Y140D01*
X121Y140D01*
X121Y139D01*
Y138D01*
X120Y137D01*
X120Y136D01*
X119Y136D01*
X118Y136D01*
G01X119Y137D02*
X120Y136D01*
G01X122Y140D02*
X122Y141D01*
X123Y141D01*
X124Y141D01*
X125Y140D01*
X125Y139D01*
X123Y138D01*
X122Y138D01*
X122Y137D01*
X122Y136D01*
X125D01*
G01X114Y159D02*
G03I-1J0D01*
G01X120Y187D02*
X119Y187D01*
X119Y188D01*
X118Y188D01*
X118Y189D01*
Y190D01*
X119Y191D01*
X119Y192D01*
X120Y192D01*
X121D01*
X122Y192D01*
X122Y191D01*
X123Y190D01*
X123Y189D01*
X123Y188D01*
X122Y188D01*
X122Y187D01*
X121Y187D01*
X120Y187D01*
G01X121Y188D02*
X122Y187D01*
G01X124Y188D02*
X124Y187D01*
X125Y187D01*
X126Y187D01*
X127Y188D01*
X127Y189D01*
X127Y190D01*
X126Y190D01*
X125D01*
G01X126D02*
X127Y190D01*
X127Y191D01*
X127Y192D01*
X126Y192D01*
X125Y192D01*
X124Y192D01*
G01X114Y209D02*
G03I-1J0D01*
G01X90Y186D02*
X89Y186D01*
X88Y186D01*
X88Y187D01*
X87Y188D01*
X87Y189D01*
X87Y190D01*
X88Y190D01*
X88Y191D01*
X89Y191D01*
X90Y191D01*
X91Y191D01*
X91Y190D01*
X92Y190D01*
X92Y189D01*
Y188D01*
X91Y187D01*
X91Y186D01*
X90Y186D01*
G01Y187D02*
X91Y186D01*
G01X96D02*
Y191D01*
X92Y187D01*
X97D01*
G01X85Y209D02*
G03I-1J0D01*
G01X60Y186D02*
X59Y186D01*
X59Y187D01*
X58Y188D01*
X58Y189D01*
X58Y190D01*
X59Y190D01*
X59Y191D01*
X60Y191D01*
X61D01*
X62Y191D01*
X62Y190D01*
X63Y190D01*
X63Y189D01*
Y188D01*
X62Y187D01*
X62Y186D01*
X61Y186D01*
X60Y186D01*
G01X61Y187D02*
X62Y186D01*
G01X64Y187D02*
X64Y186D01*
X65Y186D01*
X66Y186D01*
X67Y186D01*
X67Y187D01*
X67Y188D01*
X67Y189D01*
X66Y189D01*
X65D01*
X64Y189D01*
X64Y191D01*
X67D01*
G01X57Y209D02*
G03I-1J0D01*
G01X34Y187D02*
X33Y187D01*
X32Y187D01*
X32Y188D01*
X31Y188D01*
X31Y189D01*
Y190D01*
X32Y191D01*
X32Y192D01*
X33Y192D01*
X34Y192D01*
X35Y192D01*
X35Y191D01*
X36Y190D01*
X36Y189D01*
X36Y188D01*
X35Y188D01*
X35Y187D01*
X34Y187D01*
G01Y188D02*
X35Y187D01*
G01X37Y189D02*
X38Y190D01*
X39Y190D01*
X40Y190D01*
X40Y189D01*
Y188D01*
X39Y187D01*
X38D01*
X37Y188D01*
X37Y189D01*
X37Y190D01*
X37Y191D01*
X38Y192D01*
X39Y192D01*
X40Y192D01*
X40Y191D01*
G01X29Y209D02*
G03I-1J0D01*
G01X32Y136D02*
X31Y136D01*
X30Y136D01*
X30Y137D01*
X29Y138D01*
X29Y139D01*
X29Y140D01*
X30Y140D01*
X30Y141D01*
X31Y141D01*
X32Y141D01*
X33Y141D01*
X33Y140D01*
X34Y140D01*
X34Y139D01*
Y138D01*
X33Y137D01*
X33Y136D01*
X32Y136D01*
G01Y137D02*
X33Y136D01*
G01X36D02*
X36Y137D01*
X37Y138D01*
X37Y139D01*
X38Y140D01*
X38Y141D01*
X35D01*
G01X29Y159D02*
G03I-1J0D01*
G01X60Y137D02*
X59Y137D01*
X59Y138D01*
X58Y138D01*
X58Y139D01*
Y140D01*
X59Y141D01*
X59Y142D01*
X60Y142D01*
X61D01*
X62Y142D01*
X62Y141D01*
X63Y140D01*
X63Y139D01*
X63Y138D01*
X62Y138D01*
X62Y137D01*
X61Y137D01*
X60Y137D01*
G01X61Y138D02*
X62Y137D01*
G01X66D02*
X67Y137D01*
X67Y138D01*
Y139D01*
X66Y140D01*
X65D01*
X64Y140D01*
X64Y141D01*
X65Y142D01*
X66Y142D01*
X67Y141D01*
X67Y140D01*
X66Y140D01*
X65Y140D01*
X64Y139D01*
X64Y138D01*
X64Y137D01*
X65Y137D01*
X66Y137D01*
G01X57Y159D02*
G03I-1J0D01*
G01X90Y314D02*
X89Y314D01*
X88Y314D01*
X88Y315D01*
X87Y316D01*
X87Y317D01*
X87Y318D01*
X88Y318D01*
X88Y319D01*
X89Y319D01*
X90Y319D01*
X91Y319D01*
X91Y318D01*
X92Y318D01*
X92Y317D01*
Y316D01*
X91Y315D01*
X91Y314D01*
X90Y314D01*
G01Y315D02*
X91Y314D01*
G01X94D02*
Y319D01*
X94Y318D01*
G01Y314D02*
X96D01*
G01X99D02*
X100Y315D01*
X100Y316D01*
X100Y317D01*
X100Y318D01*
X101Y319D01*
X98D01*
G01X85Y315D02*
G03I-1J0D01*
G01X120Y315D02*
X119Y315D01*
X118Y315D01*
X118Y316D01*
X117Y316D01*
X117Y317D01*
Y318D01*
X118Y319D01*
X118Y320D01*
X119Y320D01*
X120Y320D01*
X121Y320D01*
X121Y319D01*
X122Y318D01*
X122Y317D01*
X122Y316D01*
X121Y316D01*
X121Y315D01*
X120Y315D01*
G01Y316D02*
X121Y315D01*
G01X124D02*
Y320D01*
X124Y319D01*
G01Y315D02*
X126D01*
G01X130D02*
X131Y315D01*
X131Y316D01*
Y317D01*
X130Y318D01*
X129D01*
X128Y318D01*
X128Y319D01*
X129Y320D01*
X130Y320D01*
X131Y319D01*
X131Y318D01*
X130Y318D01*
X129Y318D01*
X128Y317D01*
X128Y316D01*
X128Y315D01*
X129Y315D01*
X130Y315D01*
G01X116Y315D02*
G03I-1J0D01*
G01X118Y337D02*
X117Y337D01*
X116Y337D01*
X116Y338D01*
X115Y338D01*
X115Y339D01*
Y340D01*
X116Y341D01*
X116Y342D01*
X117Y342D01*
X118Y342D01*
X119Y342D01*
X119Y341D01*
X120Y340D01*
X120Y339D01*
X120Y338D01*
X119Y338D01*
X119Y337D01*
X118Y337D01*
G01Y338D02*
X119Y337D01*
G01X122D02*
Y342D01*
X122Y341D01*
G01Y337D02*
X124D01*
G01X126Y338D02*
X127Y337D01*
X128D01*
X129Y338D01*
X129Y339D01*
Y340D01*
X129Y341D01*
X129Y342D01*
X128Y342D01*
X127D01*
X126Y342D01*
X126Y341D01*
X126Y340D01*
X126Y339D01*
X127Y339D01*
X128Y339D01*
X129Y339D01*
X129Y340D01*
G01X116Y360D02*
G03I-1J0D01*
G01X88Y337D02*
X87Y337D01*
X86Y337D01*
X86Y338D01*
X85Y338D01*
X85Y339D01*
Y340D01*
X86Y341D01*
X86Y342D01*
X87Y342D01*
X88Y342D01*
X89Y342D01*
X89Y341D01*
X90Y340D01*
X90Y339D01*
X90Y338D01*
X89Y338D01*
X89Y337D01*
X88Y337D01*
G01Y338D02*
X89Y337D01*
G01X91Y341D02*
X91Y342D01*
X92Y342D01*
X93Y342D01*
X94Y342D01*
X94Y341D01*
X94Y340D01*
X92Y339D01*
X91Y339D01*
X91Y338D01*
X91Y337D01*
X94D01*
G01X98Y342D02*
X97Y342D01*
X96Y341D01*
X96Y340D01*
Y339D01*
X96Y338D01*
X97Y337D01*
X98Y337D01*
X99Y338D01*
X99Y339D01*
X99Y340D01*
X99Y341D01*
X98Y342D01*
G01X86Y360D02*
G03I-1J0D01*
G01X58Y337D02*
X57Y337D01*
X57Y338D01*
X56Y338D01*
X56Y339D01*
Y340D01*
X57Y341D01*
X57Y342D01*
X58Y342D01*
X59D01*
X60Y342D01*
X60Y341D01*
X61Y340D01*
X61Y339D01*
X61Y338D01*
X60Y338D01*
X60Y337D01*
X59Y337D01*
X58Y337D01*
G01X59Y338D02*
X60Y337D01*
G01X62Y341D02*
X62Y342D01*
X63Y342D01*
X64Y342D01*
X65Y341D01*
X65Y340D01*
X63Y339D01*
X62Y339D01*
X62Y338D01*
X62Y337D01*
X65D01*
G01X68D02*
Y342D01*
X68Y341D01*
G01Y337D02*
X70D01*
G01X57Y360D02*
G03I-1J0D01*
G01X28Y336D02*
X27Y336D01*
X26Y336D01*
X26Y337D01*
X25Y338D01*
X25Y339D01*
X25Y340D01*
X26Y340D01*
X26Y341D01*
X27Y341D01*
X28Y341D01*
X29Y341D01*
X29Y340D01*
X30Y340D01*
X30Y339D01*
Y338D01*
X29Y337D01*
X29Y336D01*
X28Y336D01*
G01Y337D02*
X29Y336D01*
G01X31Y340D02*
X31Y341D01*
X32Y341D01*
X33Y341D01*
X34Y341D01*
X34Y340D01*
X34Y339D01*
X32Y338D01*
X31Y338D01*
X31Y337D01*
X31Y336D01*
X34D01*
G01X36Y340D02*
X36Y341D01*
X37Y341D01*
X38Y341D01*
X39Y340D01*
X39Y339D01*
X37Y338D01*
X36Y338D01*
X36Y337D01*
X36Y336D01*
X39D01*
G01X27Y360D02*
G03I-1J0D01*
G01X32Y314D02*
X31Y314D01*
X30Y314D01*
X30Y315D01*
X29Y316D01*
X29Y317D01*
X29Y318D01*
X30Y318D01*
X30Y319D01*
X31Y319D01*
X32Y319D01*
X33Y319D01*
X33Y318D01*
X34Y318D01*
X34Y317D01*
Y316D01*
X33Y315D01*
X33Y314D01*
X32Y314D01*
G01Y315D02*
X33Y314D01*
G01X35Y318D02*
X35Y319D01*
X36Y319D01*
X37Y319D01*
X38Y319D01*
X38Y318D01*
X38Y317D01*
X36Y316D01*
X35Y316D01*
X35Y315D01*
X35Y314D01*
X38D01*
G01X40Y315D02*
X40Y314D01*
X41Y314D01*
X42Y314D01*
X43Y314D01*
X43Y315D01*
X43Y316D01*
X42Y317D01*
X41D01*
G01X42D02*
X43Y317D01*
X43Y318D01*
X43Y319D01*
X42Y319D01*
X41Y319D01*
X40Y319D01*
G01X27Y315D02*
G03I-1J0D01*
G01X60Y314D02*
X59Y314D01*
X59Y315D01*
X58Y316D01*
X58Y317D01*
X58Y318D01*
X59Y318D01*
X59Y319D01*
X60Y319D01*
X61D01*
X62Y319D01*
X62Y318D01*
X63Y318D01*
X63Y317D01*
Y316D01*
X62Y315D01*
X62Y314D01*
X61Y314D01*
X60Y314D01*
G01X61Y315D02*
X62Y314D01*
G01X64Y318D02*
X64Y319D01*
X65Y319D01*
X66Y319D01*
X67Y318D01*
X67Y317D01*
X65Y316D01*
X64Y316D01*
X64Y315D01*
X64Y314D01*
X67D01*
G01X72D02*
Y319D01*
X68Y315D01*
X73D01*
G01X57Y315D02*
G03I-1J0D01*
G01X3Y279D02*
X3Y278D01*
X4Y278D01*
X5D01*
X6Y278D01*
X6Y279D01*
X6Y280D01*
Y283D01*
G01X8Y279D02*
X8Y278D01*
X9Y278D01*
X10Y278D01*
X11Y278D01*
X11Y279D01*
X11Y280D01*
X10Y281D01*
X9D01*
G01X10D02*
X11Y281D01*
X11Y282D01*
X11Y283D01*
X10Y283D01*
X9Y283D01*
X8Y283D01*
G01X140Y130D02*
Y132D01*
X138Y135D01*
G01X141D02*
X140Y132D01*
G01X144Y130D02*
Y135D01*
X144Y134D01*
G01Y130D02*
X146D01*
G01X132Y335D02*
Y337D01*
X131Y340D01*
G01X134D02*
X132Y337D01*
G01X136Y339D02*
X136Y340D01*
X137Y340D01*
X138Y340D01*
X139Y339D01*
X139Y338D01*
X137Y337D01*
X136Y337D01*
X136Y336D01*
X136Y335D01*
X139D01*
G01X66Y227D02*
Y229D01*
X65Y232D01*
G01X68D02*
X66Y229D01*
G01X70Y228D02*
X70Y227D01*
X71Y227D01*
X72Y227D01*
X73Y228D01*
X73Y229D01*
X73Y230D01*
X72Y230D01*
X71D01*
G01X72D02*
X73Y230D01*
X73Y231D01*
X73Y232D01*
X72Y232D01*
X71Y232D01*
X70Y232D01*
G01X253Y104D02*
Y109D01*
X254D01*
X255Y109D01*
X256Y108D01*
X256Y107D01*
X256Y106D01*
X256Y105D01*
X255Y104D01*
X254Y104D01*
X253D01*
G01X258D02*
Y109D01*
X260D01*
X261Y109D01*
X261Y108D01*
Y107D01*
X260Y107D01*
X260Y106D01*
X258D01*
G01X260D02*
X261Y104D01*
G01X262Y109D02*
X264Y104D01*
X267Y109D01*
G01X270Y104D02*
Y109D01*
X268Y108D01*
G01Y104D02*
X270D01*
G01X278D02*
Y109D01*
X280D01*
X281Y109D01*
X281Y108D01*
Y107D01*
X280Y107D01*
X280Y106D01*
X278D01*
G01X280D02*
X281Y104D01*
G01X283Y105D02*
X284Y104D01*
X285Y104D01*
X286Y104D01*
X286Y105D01*
X285Y106D01*
X284Y106D01*
X284Y107D01*
X285Y107D01*
X286Y107D01*
G01X290Y109D02*
Y104D01*
G01X288Y107D02*
X291D01*
G01X380Y93D02*
Y98D01*
X383Y93D01*
Y98D01*
G01X388Y98D02*
X387Y98D01*
X386Y98D01*
X385Y97D01*
X384Y96D01*
X384Y95D01*
X385Y94D01*
X386Y93D01*
X387Y93D01*
X388Y93D01*
X389Y94D01*
G01X379Y118D02*
Y123D01*
X382Y119D01*
X384Y123D01*
Y118D01*
G01X386Y123D02*
X388D01*
G01X386D02*
Y118D01*
G01X386D02*
X388D01*
G01X390Y119D02*
X390Y118D01*
X391Y118D01*
X392D01*
X393Y119D01*
X393Y120D01*
X392Y121D01*
X391Y121D01*
X390Y121D01*
X390Y122D01*
X391Y123D01*
X392Y123D01*
X393Y122D01*
G01X396Y118D02*
X395Y118D01*
X395Y119D01*
X394Y120D01*
X394Y121D01*
X394Y122D01*
X395Y122D01*
X395Y123D01*
X396Y123D01*
X397D01*
X398Y123D01*
X398Y122D01*
X399Y122D01*
X399Y121D01*
Y120D01*
X398Y119D01*
X398Y118D01*
X397Y118D01*
X396Y118D01*
G01X270Y123D02*
X269Y123D01*
X268Y123D01*
X267Y122D01*
X266Y121D01*
X266Y120D01*
X267Y120D01*
X267Y119D01*
X267Y118D01*
X268Y118D01*
X269Y118D01*
X270Y118D01*
X271Y119D01*
G01X272Y119D02*
X272Y118D01*
X273Y118D01*
X274D01*
X275Y119D01*
X275Y120D01*
X274Y121D01*
X273Y121D01*
X272Y121D01*
X272Y122D01*
X273Y123D01*
X274Y123D01*
X275Y122D01*
G01X278Y118D02*
Y123D01*
X278Y122D01*
G01Y118D02*
X280D01*
G01X222Y103D02*
X227D01*
Y101D01*
X227Y100D01*
X226Y100D01*
X225D01*
X224Y101D01*
Y103D01*
G01Y101D02*
X222Y100D01*
G01X223Y98D02*
X222Y98D01*
X222Y97D01*
X222Y96D01*
X222Y95D01*
X223Y95D01*
X224Y95D01*
X225Y96D01*
Y97D01*
G01Y96D02*
X225Y95D01*
X226Y95D01*
X227Y95D01*
X227Y96D01*
X227Y97D01*
X227Y98D01*
G01X215Y103D02*
X220D01*
Y101D01*
X220Y100D01*
X219Y100D01*
X218D01*
X217Y101D01*
Y103D01*
G01Y101D02*
X215Y100D01*
G01Y96D02*
X220D01*
X216Y99D01*
Y94D01*
G01X159Y33D02*
Y38D01*
X161D01*
X162Y38D01*
X162Y37D01*
Y36D01*
X161Y35D01*
X159D01*
G01X161D02*
X162Y33D01*
G01X164Y37D02*
X164Y38D01*
X165Y38D01*
X166Y38D01*
X167Y37D01*
X167Y36D01*
X165Y35D01*
X164Y35D01*
X164Y34D01*
X164Y33D01*
X167D01*
G01X169Y34D02*
X170Y33D01*
X171D01*
X172Y34D01*
X172Y35D01*
Y36D01*
X172Y37D01*
X172Y38D01*
X171Y38D01*
X170Y38D01*
X169Y38D01*
X169Y37D01*
X169Y36D01*
X169Y35D01*
X170Y35D01*
X171Y35D01*
X172Y35D01*
X172Y36D01*
G01X198Y20D02*
X203D01*
Y18D01*
X203Y17D01*
X202Y17D01*
X201D01*
X201Y18D01*
X200Y18D01*
Y20D01*
G01Y18D02*
X198Y17D01*
G01X199Y15D02*
X198Y15D01*
X198Y14D01*
X198Y13D01*
X198Y12D01*
X199Y12D01*
X200Y12D01*
X201Y13D01*
Y14D01*
G01Y13D02*
X201Y12D01*
X202Y12D01*
X203Y12D01*
X203Y13D01*
X203Y14D01*
X203Y15D01*
G01X203Y8D02*
X203Y9D01*
X202Y10D01*
X201Y10D01*
X200Y10D01*
X199Y10D01*
X198Y9D01*
X198Y8D01*
X199Y7D01*
X200Y7D01*
X201D01*
X202Y7D01*
X203Y8D01*
G01X175Y19D02*
X180D01*
Y17D01*
X180Y16D01*
X179Y16D01*
X178D01*
X177Y17D01*
Y19D01*
G01Y17D02*
X175Y16D01*
G01X176Y14D02*
X175Y14D01*
X175Y13D01*
X175Y12D01*
X176Y11D01*
X177Y11D01*
X178Y11D01*
X178Y12D01*
Y13D01*
G01Y12D02*
X178Y11D01*
X179Y11D01*
X180Y11D01*
X180Y12D01*
X180Y13D01*
X180Y14D01*
G01X175Y8D02*
X180D01*
X179Y8D01*
G01X175D02*
Y6D01*
G01X181Y120D02*
X176D01*
Y122D01*
X176Y123D01*
X177Y123D01*
X178D01*
X178Y122D01*
X179Y122D01*
Y120D01*
G01Y122D02*
X181Y123D01*
G01X180Y125D02*
X181Y125D01*
X181Y126D01*
X181Y127D01*
X180Y128D01*
X179Y128D01*
X178Y128D01*
X178Y127D01*
Y126D01*
G01Y127D02*
X178Y128D01*
X177Y128D01*
X176Y128D01*
X176Y127D01*
X176Y126D01*
X176Y125D01*
G01X181Y132D02*
X176D01*
X180Y129D01*
Y134D01*
G01X188Y120D02*
X183D01*
Y122D01*
X183Y123D01*
X184Y123D01*
X185D01*
X185Y122D01*
X186Y122D01*
Y120D01*
G01Y122D02*
X188Y123D01*
G01X187Y125D02*
X188Y125D01*
X188Y126D01*
X188Y127D01*
X188Y128D01*
X187Y128D01*
X186Y128D01*
X185Y127D01*
Y126D01*
G01Y127D02*
X185Y128D01*
X184Y128D01*
X183Y128D01*
X183Y127D01*
X183Y126D01*
X183Y125D01*
G01X187Y130D02*
X188Y130D01*
X188Y131D01*
X188Y132D01*
X188Y133D01*
X187Y133D01*
X186Y133D01*
X185Y133D01*
X185Y132D01*
Y131D01*
X185Y130D01*
X183Y130D01*
Y133D01*
G01X196Y121D02*
X191D01*
Y123D01*
X191Y124D01*
X192Y124D01*
X193D01*
X194Y123D01*
Y121D01*
G01Y123D02*
X196Y124D01*
G01X195Y126D02*
X196Y126D01*
X196Y127D01*
X196Y128D01*
X196Y129D01*
X195Y129D01*
X194Y129D01*
X193Y128D01*
Y127D01*
G01Y128D02*
X193Y129D01*
X192Y129D01*
X191Y129D01*
X191Y128D01*
X191Y127D01*
X191Y126D01*
G01X194Y131D02*
X193Y132D01*
X193Y133D01*
X193Y134D01*
X194Y134D01*
X195D01*
X196Y133D01*
Y132D01*
X195Y131D01*
X194Y131D01*
X193Y131D01*
X192Y131D01*
X192Y132D01*
X191Y132D01*
X191Y133D01*
X191Y134D01*
X192Y134D01*
G01X241Y122D02*
X246D01*
Y120D01*
X246Y119D01*
X245Y119D01*
X244Y119D01*
X244Y120D01*
Y122D01*
G01Y120D02*
X241Y119D01*
G01Y114D02*
X246D01*
X243Y117D01*
Y113D01*
G01X241Y109D02*
X246D01*
X243Y112D01*
Y108D01*
G01X273Y35D02*
Y40D01*
X275D01*
X276Y40D01*
X276Y39D01*
Y38D01*
X275Y37D01*
X273D01*
G01X275D02*
X276Y35D01*
G01X278Y37D02*
X278Y38D01*
X279Y38D01*
X280Y38D01*
X281Y38D01*
X281Y37D01*
Y36D01*
X280Y35D01*
X279D01*
X278Y36D01*
X278Y37D01*
X278Y38D01*
X278Y39D01*
X279Y40D01*
X280Y40D01*
X281Y39D01*
G01X284Y35D02*
Y40D01*
X284Y39D01*
G01Y35D02*
X286D01*
G01X242D02*
Y40D01*
X244D01*
X245Y40D01*
X245Y39D01*
Y38D01*
X244Y38D01*
X244Y37D01*
X242D01*
G01X244D02*
X245Y35D01*
G01X247Y37D02*
X248Y38D01*
X249Y38D01*
X250Y38D01*
X250Y37D01*
Y36D01*
X249Y35D01*
X248D01*
X247Y36D01*
X247Y37D01*
X247Y38D01*
X247Y39D01*
X248Y40D01*
X249Y40D01*
X250Y40D01*
X250Y39D01*
G01X252Y39D02*
X252Y40D01*
X253Y40D01*
X254Y40D01*
X255Y39D01*
X255Y38D01*
X253Y37D01*
X252Y37D01*
X252Y36D01*
X252Y35D01*
X255D01*
G01X267Y93D02*
X272D01*
Y91D01*
X271Y90D01*
X271Y89D01*
X270Y89D01*
X269Y90D01*
X269Y91D01*
Y93D01*
G01Y91D02*
X267Y89D01*
G01X269Y88D02*
X269Y87D01*
X270Y86D01*
Y85D01*
X269Y85D01*
X269Y84D01*
X268Y84D01*
X267Y85D01*
X267Y86D01*
X267Y87D01*
X268Y87D01*
X269Y88D01*
X270Y87D01*
X271Y87D01*
X272Y86D01*
X272Y85D01*
X271Y85D01*
G01X268Y83D02*
X267Y82D01*
X267Y81D01*
X267Y80D01*
X268Y79D01*
X269Y79D01*
X269Y80D01*
X269Y81D01*
G01Y80D02*
X270Y80D01*
X270Y79D01*
X271Y79D01*
X271Y80D01*
X272Y81D01*
X271Y82D01*
G01X303Y79D02*
Y84D01*
X305D01*
X306Y84D01*
X306Y83D01*
Y82D01*
X305Y81D01*
X303D01*
G01X305D02*
X306Y79D01*
G01X308Y81D02*
X308Y82D01*
X309Y82D01*
X310Y82D01*
X311Y82D01*
X311Y81D01*
Y80D01*
X310Y79D01*
X309D01*
X308Y80D01*
X308Y81D01*
X308Y82D01*
X308Y83D01*
X309Y84D01*
X310Y84D01*
X311Y83D01*
G01X316Y79D02*
Y84D01*
X312Y80D01*
X317D01*
G01X342Y75D02*
Y80D01*
X344D01*
X345Y80D01*
X345Y79D01*
Y78D01*
X344Y78D01*
X344Y77D01*
X342D01*
G01X344D02*
X345Y75D01*
G01X347Y77D02*
X348Y78D01*
X349Y78D01*
X350Y78D01*
X350Y77D01*
Y76D01*
X349Y75D01*
X348D01*
X347Y76D01*
X347Y77D01*
X347Y78D01*
X347Y79D01*
X348Y80D01*
X349Y80D01*
X350Y80D01*
X350Y79D01*
G01X352Y76D02*
X352Y75D01*
X353Y75D01*
X354Y75D01*
X355Y76D01*
X355Y77D01*
X355Y78D01*
X354Y78D01*
X353D01*
X352Y78D01*
X352Y80D01*
X355D01*
G01X367Y70D02*
Y75D01*
X369D01*
X370Y75D01*
X370Y74D01*
Y73D01*
X369Y72D01*
X367D01*
G01X369D02*
X370Y70D01*
G01X372Y72D02*
X372Y73D01*
X373Y73D01*
X374Y73D01*
X375Y73D01*
X375Y72D01*
Y71D01*
X374Y70D01*
X373D01*
X372Y71D01*
X372Y72D01*
X372Y73D01*
X372Y74D01*
X373Y74D01*
X373Y75D01*
X374Y75D01*
X375Y74D01*
G01X377Y72D02*
X378Y73D01*
X379Y73D01*
X380Y73D01*
X380Y72D01*
Y71D01*
X379Y70D01*
X378D01*
X377Y71D01*
X377Y72D01*
X377Y73D01*
X377Y74D01*
X378Y74D01*
X378Y75D01*
X379Y75D01*
X380Y75D01*
X380Y74D01*
G01X359Y36D02*
Y41D01*
X361D01*
X362Y41D01*
X362Y40D01*
Y39D01*
X361Y38D01*
X359D01*
G01X361D02*
X362Y36D01*
G01X364Y38D02*
X364Y39D01*
X365Y39D01*
X366Y39D01*
X367Y39D01*
X367Y38D01*
Y37D01*
X366Y36D01*
X365D01*
X364Y37D01*
X364Y38D01*
X364Y39D01*
X364Y40D01*
X365Y40D01*
X365Y41D01*
X366Y41D01*
X367Y40D01*
G01X370Y36D02*
X370Y37D01*
X371Y38D01*
X371Y39D01*
X372Y40D01*
X372Y41D01*
X369D01*
G01X302Y35D02*
Y40D01*
X304D01*
X305Y40D01*
X305Y39D01*
Y38D01*
X304Y38D01*
X304Y37D01*
X302D01*
G01X304D02*
X305Y35D01*
G01X307Y37D02*
X308Y38D01*
X309Y38D01*
X310Y38D01*
X310Y37D01*
Y36D01*
X309Y35D01*
X308D01*
X307Y36D01*
X307Y37D01*
X307Y38D01*
X307Y39D01*
X308Y40D01*
X309Y40D01*
X310Y40D01*
X310Y39D01*
G01X314Y35D02*
X315Y35D01*
X315Y36D01*
Y37D01*
X314Y38D01*
X313D01*
X312Y38D01*
X312Y39D01*
X313Y40D01*
X314Y40D01*
X315Y39D01*
X315Y38D01*
X314Y38D01*
X313Y38D01*
X312Y37D01*
X312Y36D01*
X312Y35D01*
X313Y35D01*
X314Y35D01*
G01X292Y10D02*
X291Y10D01*
X291Y11D01*
X290Y12D01*
X290Y13D01*
X290Y14D01*
X291Y14D01*
X291Y15D01*
X292Y15D01*
X293D01*
X294Y15D01*
X294Y14D01*
X295Y14D01*
X295Y13D01*
Y12D01*
X294Y11D01*
X294Y10D01*
X293Y10D01*
X292Y10D01*
G01X293Y11D02*
X294Y10D01*
G01X296Y14D02*
X296Y15D01*
X297Y15D01*
X298Y15D01*
X299Y14D01*
X299Y13D01*
X297Y12D01*
X296Y12D01*
X296Y11D01*
X296Y10D01*
X299D01*
G01X301Y11D02*
X301Y10D01*
X302Y10D01*
X303Y10D01*
X304Y10D01*
X304Y11D01*
X304Y12D01*
X304Y13D01*
X303Y13D01*
X302D01*
X301Y13D01*
X302Y15D01*
X304D01*
G01X291Y34D02*
G03I-1J0D01*
G01X264Y10D02*
X263Y10D01*
X262Y10D01*
X262Y11D01*
X261Y12D01*
X261Y13D01*
X261Y14D01*
X262Y14D01*
X262Y15D01*
X263Y15D01*
X264Y15D01*
X265Y15D01*
X265Y14D01*
X266Y14D01*
X266Y13D01*
Y12D01*
X265Y11D01*
X265Y10D01*
X264Y10D01*
G01Y11D02*
X265Y10D01*
G01X267Y14D02*
X267Y15D01*
X268Y15D01*
X269Y15D01*
X270Y15D01*
X270Y14D01*
X270Y13D01*
X268Y12D01*
X267Y12D01*
X267Y11D01*
X267Y10D01*
X270D01*
G01X272Y12D02*
X272Y13D01*
X273Y13D01*
X274Y13D01*
X275Y13D01*
X275Y12D01*
Y11D01*
X274Y10D01*
X273D01*
X272Y11D01*
X272Y12D01*
X272Y13D01*
X272Y14D01*
X273Y14D01*
X273Y15D01*
X274Y15D01*
X275Y14D01*
G01X261Y34D02*
G03I-1J0D01*
G01X265Y46D02*
X264Y46D01*
X263Y47D01*
X263Y48D01*
X262Y49D01*
X263Y50D01*
X263Y51D01*
X264Y51D01*
X265Y51D01*
X266Y51D01*
X266Y50D01*
X267Y50D01*
X267Y49D01*
X267Y48D01*
X266Y47D01*
X265Y46D01*
G01Y48D02*
X266Y46D01*
G01X268Y51D02*
X269Y51D01*
X270Y51D01*
X271Y51D01*
X271Y50D01*
X271Y49D01*
X269Y49D01*
X269Y48D01*
X268Y47D01*
X268Y46D01*
X271D01*
G01X274D02*
X275Y47D01*
X275Y48D01*
X275Y49D01*
X276Y50D01*
X276Y51D01*
X273D01*
G01X261Y69D02*
G03I-1J0D01*
G01X296Y47D02*
X295Y47D01*
X294Y48D01*
X293Y49D01*
X293Y50D01*
X293Y51D01*
X294Y51D01*
X294Y52D01*
X295Y52D01*
X296Y52D01*
X297Y52D01*
X297Y51D01*
X298Y51D01*
X298Y50D01*
X298Y49D01*
X297Y48D01*
X296Y47D01*
G01Y49D02*
X297Y47D01*
G01X299Y52D02*
X300Y52D01*
X301Y52D01*
X302Y52D01*
X302Y51D01*
X302Y50D01*
X300Y50D01*
X299Y49D01*
X299Y48D01*
X299Y47D01*
X302D01*
G01X306D02*
X307Y48D01*
X307Y49D01*
X307Y50D01*
X306Y50D01*
X305D01*
X304Y51D01*
X304Y52D01*
X305Y52D01*
X306Y52D01*
X307Y52D01*
X307Y51D01*
X306Y50D01*
X305Y50D01*
X304Y50D01*
X304Y49D01*
Y48D01*
X305Y47D01*
X306Y47D01*
G01X291Y69D02*
G03I-1J0D01*
G01X324Y47D02*
X323Y48D01*
X322Y49D01*
X322Y50D01*
X322Y51D01*
X323Y51D01*
X323Y52D01*
X324Y52D01*
X325D01*
X326Y52D01*
X326Y51D01*
X327Y50D01*
X326Y49D01*
X326Y48D01*
X325Y47D01*
X324Y47D01*
G01X325Y49D02*
X326Y47D01*
G01X328Y52D02*
X329Y52D01*
X330Y52D01*
X331Y52D01*
X331Y51D01*
X331Y50D01*
X329Y50D01*
X328Y49D01*
X328Y48D01*
X328Y47D01*
X331D01*
G01X333Y48D02*
X334Y48D01*
X334Y47D01*
X335Y48D01*
X336Y49D01*
X336Y50D01*
X336Y51D01*
X335Y52D01*
X334Y52D01*
X333Y52D01*
X333Y51D01*
Y50D01*
X334Y49D01*
X335Y49D01*
X336Y50D01*
G01X319Y69D02*
G03I-1J0D01*
G01X352Y47D02*
X351Y48D01*
X350Y49D01*
X350Y50D01*
X350Y51D01*
X351Y51D01*
X351Y52D01*
X352Y52D01*
X353D01*
X354Y52D01*
X354Y51D01*
X355Y50D01*
X354Y49D01*
X354Y48D01*
X353Y47D01*
X352Y47D01*
G01X353Y49D02*
X354Y47D01*
G01X355Y48D02*
X356Y48D01*
X357Y47D01*
X358D01*
X359Y48D01*
X359Y49D01*
X358Y50D01*
X357Y50D01*
G01X358D02*
X359Y51D01*
Y52D01*
X358Y52D01*
X357Y52D01*
X356Y52D01*
G01X362Y52D02*
X361Y52D01*
X361Y51D01*
X360Y50D01*
X361Y49D01*
X361Y48D01*
X362Y48D01*
X362Y47D01*
X363Y48D01*
X364Y48D01*
X364Y49D01*
X364Y50D01*
X364Y51D01*
X363Y52D01*
X362Y52D01*
G01X346Y69D02*
G03I-1J0D01*
G01X348Y10D02*
X347Y10D01*
X346Y10D01*
X346Y11D01*
X345Y12D01*
X345Y13D01*
X345Y14D01*
X346Y14D01*
X346Y15D01*
X347Y15D01*
X348Y15D01*
X349Y15D01*
X349Y14D01*
X350Y14D01*
X350Y13D01*
Y12D01*
X349Y11D01*
X349Y10D01*
X348Y10D01*
G01Y11D02*
X349Y10D01*
G01X351Y11D02*
X351Y10D01*
X352Y10D01*
X353Y10D01*
X354Y10D01*
X354Y11D01*
X354Y12D01*
X353Y13D01*
X352D01*
G01X353D02*
X354Y13D01*
X354Y14D01*
X354Y15D01*
X353Y15D01*
X352Y15D01*
X351Y15D01*
G01X358Y10D02*
Y15D01*
X356Y14D01*
G01Y10D02*
X358D01*
G01X346Y34D02*
G03I-1J0D01*
G01X322Y10D02*
X321Y10D01*
X320Y10D01*
X320Y11D01*
X319Y12D01*
X319Y13D01*
X319Y14D01*
X320Y14D01*
X320Y15D01*
X321Y15D01*
X322Y15D01*
X323Y15D01*
X323Y14D01*
X324Y14D01*
X324Y13D01*
Y12D01*
X323Y11D01*
X323Y10D01*
X322Y10D01*
G01Y11D02*
X323Y10D01*
G01X325Y11D02*
X325Y10D01*
X326Y10D01*
X327Y10D01*
X328Y10D01*
X328Y11D01*
X328Y12D01*
X327Y13D01*
X326D01*
G01X327D02*
X328Y13D01*
X328Y14D01*
X328Y15D01*
X327Y15D01*
X326Y15D01*
X325Y15D01*
G01X330Y14D02*
X330Y15D01*
X331Y15D01*
X332Y15D01*
X333Y14D01*
X333Y13D01*
X331Y12D01*
X330Y12D01*
X330Y11D01*
X330Y10D01*
X333D01*
G01X319Y34D02*
G03I-1J0D01*
G01X171Y94D02*
Y91D01*
X171Y90D01*
X172Y90D01*
X173Y89D01*
X173Y90D01*
X174Y90D01*
X174Y91D01*
Y94D01*
G01X179Y89D02*
Y94D01*
X176Y91D01*
X180D01*
G01X260Y237D02*
Y242D01*
X261D01*
X262Y242D01*
X262Y241D01*
X263Y241D01*
X263Y240D01*
Y239D01*
X263Y238D01*
X262Y238D01*
X262Y237D01*
X261Y237D01*
X260D01*
G01X265D02*
Y242D01*
X267D01*
X268Y242D01*
X268Y241D01*
Y240D01*
X267Y239D01*
X265D01*
G01X267D02*
X268Y237D01*
G01X269Y242D02*
X272Y237D01*
X274Y242D01*
G01X276D02*
X275Y241D01*
X275Y240D01*
Y239D01*
X275Y238D01*
X276Y237D01*
X277D01*
X278Y238D01*
X278Y239D01*
X278Y240D01*
X278Y241D01*
X277Y242D01*
X276Y242D01*
G01X285Y237D02*
Y242D01*
X287D01*
X288Y242D01*
X288Y241D01*
Y240D01*
X287Y239D01*
X285D01*
G01X287D02*
X288Y237D01*
G01X290Y238D02*
X290Y237D01*
X291Y237D01*
X292D01*
X293Y238D01*
X293Y239D01*
X292Y240D01*
X291Y240D01*
X290Y240D01*
X290Y241D01*
X291Y242D01*
X292Y242D01*
X293Y241D01*
G01X296Y242D02*
Y237D01*
G01X295Y242D02*
X298D01*
G01X382Y237D02*
X382Y236D01*
X383Y236D01*
X384D01*
X385Y237D01*
X385Y238D01*
X384Y239D01*
X383Y239D01*
X382Y239D01*
X382Y240D01*
X383Y241D01*
X384Y241D01*
X385Y240D01*
G01X390Y241D02*
X389Y241D01*
X388Y241D01*
X387Y240D01*
X386Y239D01*
X386Y238D01*
X387Y238D01*
X387Y237D01*
X387Y236D01*
X388Y236D01*
X389Y236D01*
X390Y236D01*
X391Y237D01*
G01X392Y236D02*
Y241D01*
G01X395D02*
X392Y238D01*
G01X395Y236D02*
X393Y239D01*
G01X384Y246D02*
X384Y245D01*
X385Y245D01*
X386Y245D01*
X387Y246D01*
X387Y247D01*
X387Y248D01*
X386Y248D01*
X385D01*
X384Y248D01*
X384Y250D01*
X387D01*
G01X388D02*
X390Y245D01*
X393Y250D01*
G01X262Y251D02*
X261Y251D01*
X260Y251D01*
X259Y250D01*
X258Y249D01*
X258Y248D01*
X259Y248D01*
X259Y247D01*
X259Y246D01*
X260Y246D01*
X261Y246D01*
X262Y246D01*
X263Y247D01*
G01X264Y247D02*
X264Y246D01*
X265Y246D01*
X266D01*
X267Y247D01*
X267Y248D01*
X266Y249D01*
X265Y249D01*
X264Y249D01*
X264Y250D01*
X265Y251D01*
X266Y251D01*
X267Y250D01*
G01X270Y251D02*
X269Y250D01*
X269Y249D01*
X269Y248D01*
X269Y247D01*
X270Y246D01*
X271D01*
X272Y247D01*
X272Y248D01*
Y249D01*
X272Y250D01*
X271Y251D01*
X270Y251D01*
G01X166Y348D02*
X165Y348D01*
X164Y348D01*
X163Y347D01*
X162Y346D01*
X162Y345D01*
X163Y344D01*
X164Y343D01*
X165Y343D01*
X166Y343D01*
X167Y344D01*
G01X170Y343D02*
Y348D01*
X168Y347D01*
G01Y343D02*
X170D01*
G01X165Y156D02*
X164Y156D01*
X163Y156D01*
X162Y155D01*
X162Y154D01*
X161Y153D01*
X162Y152D01*
X163Y151D01*
X164Y151D01*
X165Y151D01*
X166Y152D01*
G01X167Y152D02*
X167Y151D01*
X168Y151D01*
X169Y151D01*
X170Y152D01*
X170Y153D01*
X170Y154D01*
X169Y154D01*
X168D01*
G01X169D02*
X170Y154D01*
X170Y155D01*
X170Y156D01*
X169Y156D01*
X168Y156D01*
X167Y156D01*
G01X162Y134D02*
Y139D01*
X164D01*
X165Y139D01*
X165Y138D01*
Y137D01*
X164Y137D01*
X164Y136D01*
X162D01*
G01X164D02*
X165Y134D01*
G01X167Y138D02*
X167Y139D01*
X168Y139D01*
X169Y139D01*
X170Y139D01*
X170Y138D01*
X170Y137D01*
X168Y136D01*
X167Y136D01*
X167Y135D01*
X167Y134D01*
X170D01*
G01X162Y168D02*
Y173D01*
X164D01*
X165Y173D01*
X165Y172D01*
Y171D01*
X164Y171D01*
X164Y170D01*
X162D01*
G01X164D02*
X165Y168D01*
G01X167Y169D02*
X167Y168D01*
X168Y168D01*
X169Y168D01*
X170Y168D01*
X170Y169D01*
X170Y170D01*
X170Y171D01*
X169Y171D01*
X168D01*
X167Y171D01*
X168Y173D01*
X170D01*
G01X162Y176D02*
Y181D01*
X164D01*
X165Y181D01*
X165Y180D01*
Y179D01*
X164Y179D01*
X164Y178D01*
X162D01*
G01X164D02*
X165Y176D01*
G01X167Y178D02*
X168Y179D01*
X169Y179D01*
X170Y179D01*
X170Y178D01*
Y177D01*
X169Y176D01*
X168D01*
X167Y177D01*
X167Y178D01*
X167Y179D01*
X167Y180D01*
X168Y180D01*
X168Y181D01*
X169Y181D01*
X170Y181D01*
X170Y180D01*
G01X211Y219D02*
X206D01*
Y221D01*
X206Y222D01*
X207Y222D01*
X208D01*
X209Y221D01*
Y219D01*
G01Y221D02*
X211Y222D01*
G01Y225D02*
X210Y226D01*
X209Y226D01*
X208Y226D01*
X207Y226D01*
X206Y227D01*
Y224D01*
G01X218Y219D02*
X213D01*
Y221D01*
X213Y222D01*
X214Y222D01*
X215D01*
X216Y221D01*
Y219D01*
G01Y221D02*
X218Y222D01*
G01Y226D02*
X218Y227D01*
X217Y227D01*
X216D01*
X215Y226D01*
Y225D01*
X215Y224D01*
X214Y224D01*
X213Y225D01*
X213Y226D01*
X214Y227D01*
X215Y227D01*
X215Y226D01*
X215Y225D01*
X216Y224D01*
X217Y224D01*
X218Y224D01*
X218Y225D01*
X218Y226D01*
G01X225Y219D02*
X220D01*
Y221D01*
X220Y222D01*
X221Y222D01*
X222D01*
X223Y221D01*
Y219D01*
G01Y221D02*
X225Y222D01*
G01X224Y224D02*
X225Y225D01*
Y226D01*
X224Y227D01*
X223Y227D01*
X222D01*
X221Y227D01*
X220Y227D01*
X220Y226D01*
Y225D01*
X220Y224D01*
X221Y224D01*
X222Y224D01*
X223Y224D01*
X223Y225D01*
X223Y226D01*
X223Y227D01*
X222Y227D01*
G01X274Y285D02*
Y290D01*
X276D01*
X277Y290D01*
X277Y289D01*
Y288D01*
X276Y288D01*
X276Y287D01*
X274D01*
G01X276D02*
X277Y285D01*
G01X280D02*
Y290D01*
X280Y289D01*
G01Y285D02*
X282D01*
G01X286Y290D02*
X285Y290D01*
X284Y289D01*
X284Y288D01*
Y287D01*
X284Y286D01*
X285Y285D01*
X286Y285D01*
X287Y286D01*
X287Y287D01*
X287Y288D01*
X287Y289D01*
X286Y290D01*
G01X199Y299D02*
X204D01*
Y297D01*
X204Y296D01*
X203Y296D01*
X202D01*
X201Y297D01*
Y299D01*
G01Y297D02*
X199Y296D01*
G01Y292D02*
X204D01*
X203Y294D01*
G01X199D02*
Y292D01*
G01X203Y289D02*
X204Y289D01*
X204Y288D01*
X204Y287D01*
X204Y286D01*
X203Y286D01*
X202Y286D01*
X201Y288D01*
X201Y289D01*
X200Y289D01*
X199Y289D01*
Y286D01*
G01X179Y300D02*
X184D01*
Y298D01*
X184Y297D01*
X183Y297D01*
X182D01*
X182Y298D01*
X181Y298D01*
Y300D01*
G01Y298D02*
X179Y297D01*
G01Y294D02*
X184D01*
X183Y294D01*
G01X179D02*
Y292D01*
G01X180Y290D02*
X179Y290D01*
X179Y289D01*
X179Y288D01*
X180Y287D01*
X181Y287D01*
X182Y287D01*
X182Y288D01*
Y289D01*
G01Y288D02*
X182Y287D01*
X183Y287D01*
X184Y287D01*
X184Y288D01*
X184Y289D01*
X184Y290D01*
G01X169Y196D02*
X174D01*
Y194D01*
X174Y193D01*
X173Y193D01*
X172D01*
X172Y194D01*
X171Y194D01*
Y196D01*
G01Y194D02*
X169Y193D01*
G01X173Y191D02*
X174Y191D01*
X174Y190D01*
X174Y189D01*
X174Y188D01*
X173Y188D01*
X172Y188D01*
X171Y190D01*
X171Y191D01*
X170Y191D01*
X169Y191D01*
Y188D01*
G01X174Y184D02*
X174Y185D01*
X173Y186D01*
X172Y186D01*
X171D01*
X170Y186D01*
X169Y185D01*
X169Y184D01*
X170Y183D01*
X171Y183D01*
X172Y183D01*
X173Y183D01*
X174Y184D01*
G01X160Y300D02*
X155D01*
Y302D01*
X155Y303D01*
X156Y303D01*
X157D01*
X157Y302D01*
X158Y302D01*
Y300D01*
G01Y302D02*
X160Y303D01*
G01X156Y305D02*
X155Y305D01*
X155Y306D01*
X155Y307D01*
X155Y308D01*
X156Y308D01*
X157Y308D01*
X158Y306D01*
X158Y305D01*
X159Y305D01*
X160Y305D01*
Y308D01*
G01X158Y310D02*
X157Y310D01*
X157Y311D01*
X157Y312D01*
X157Y313D01*
X158Y313D01*
X159D01*
X160Y312D01*
Y311D01*
X159Y310D01*
X158Y310D01*
X157Y310D01*
X156Y310D01*
X156Y311D01*
X155Y311D01*
X155Y312D01*
X156Y313D01*
G01X176Y284D02*
X171D01*
Y286D01*
X171Y287D01*
X172Y287D01*
X173D01*
X173Y286D01*
X174Y286D01*
Y284D01*
G01Y286D02*
X176Y287D01*
G01X172Y289D02*
X171Y289D01*
X171Y290D01*
X171Y291D01*
X171Y292D01*
X172Y292D01*
X173Y292D01*
X174Y290D01*
X174Y289D01*
X175Y289D01*
X176Y289D01*
Y292D01*
G01Y295D02*
X175Y296D01*
X174Y296D01*
X173Y296D01*
X172Y296D01*
X171Y297D01*
Y294D01*
G01X382Y135D02*
X377D01*
Y137D01*
X377Y138D01*
X378Y138D01*
X379D01*
X380Y137D01*
Y135D01*
G01Y137D02*
X382Y138D01*
G01X378Y140D02*
X377Y140D01*
X377Y141D01*
X377Y142D01*
X378Y143D01*
X379Y143D01*
X380Y141D01*
X380Y140D01*
X381Y140D01*
X382Y140D01*
Y143D01*
G01Y146D02*
X382Y147D01*
X382Y148D01*
X381Y148D01*
X380D01*
X379Y147D01*
Y146D01*
X379Y145D01*
X378Y145D01*
X377Y146D01*
Y147D01*
X378Y148D01*
X379Y148D01*
X379Y147D01*
X379Y146D01*
X380Y145D01*
X381Y145D01*
X382Y145D01*
X382Y146D01*
G01X285Y167D02*
Y172D01*
X287D01*
X288Y172D01*
X288Y171D01*
Y170D01*
X287Y169D01*
X285D01*
G01X287D02*
X288Y167D01*
G01X290Y168D02*
X290Y167D01*
X291Y167D01*
X292Y167D01*
X293Y168D01*
X293Y169D01*
X293Y170D01*
X292Y170D01*
X291D01*
G01X292D02*
X293Y170D01*
X293Y171D01*
X293Y172D01*
X292Y172D01*
X291Y172D01*
X290Y172D01*
G01X296Y167D02*
X296Y168D01*
X297Y169D01*
X297Y170D01*
X298Y171D01*
X298Y172D01*
X295D01*
G01X290Y177D02*
Y182D01*
X292D01*
X293Y182D01*
X293Y181D01*
Y180D01*
X292Y180D01*
X292Y179D01*
X290D01*
G01X292D02*
X293Y177D01*
G01X295Y178D02*
X295Y177D01*
X296Y177D01*
X297Y177D01*
X298Y178D01*
X298Y179D01*
X298Y180D01*
X297Y180D01*
X296D01*
G01X297D02*
X298Y180D01*
X298Y181D01*
X298Y182D01*
X297Y182D01*
X296Y182D01*
X295Y182D01*
G01X302Y177D02*
X303Y177D01*
X303Y178D01*
Y179D01*
X302Y180D01*
X301D01*
X300Y180D01*
X300Y181D01*
X301Y182D01*
X302Y182D01*
X303Y181D01*
X303Y180D01*
X302Y180D01*
X301Y180D01*
X300Y179D01*
X300Y178D01*
X300Y177D01*
X301Y177D01*
X302Y177D01*
G01X290Y186D02*
Y191D01*
X292D01*
X293Y191D01*
X293Y190D01*
Y189D01*
X292Y189D01*
X292Y188D01*
X290D01*
G01X292D02*
X293Y186D01*
G01X295Y187D02*
X295Y186D01*
X296Y186D01*
X297Y186D01*
X298Y186D01*
X298Y187D01*
X298Y188D01*
X297Y189D01*
X296D01*
G01X297D02*
X298Y189D01*
X298Y190D01*
X298Y191D01*
X297Y191D01*
X296Y191D01*
X295Y191D01*
G01X300Y187D02*
X301Y186D01*
X302D01*
X303Y187D01*
X303Y188D01*
Y189D01*
X303Y190D01*
X302Y191D01*
X301D01*
X300Y190D01*
X300Y189D01*
X300Y188D01*
X301Y188D01*
X302Y188D01*
X303Y188D01*
X303Y189D01*
G01X290Y195D02*
Y200D01*
X292D01*
X293Y200D01*
X293Y199D01*
Y198D01*
X292Y198D01*
X292Y197D01*
X290D01*
G01X292D02*
X293Y195D01*
G01X298D02*
Y200D01*
X294Y196D01*
X299D01*
G01X302Y200D02*
X301Y200D01*
X300Y199D01*
X300Y198D01*
Y197D01*
X300Y196D01*
X301Y195D01*
X302Y195D01*
X303Y196D01*
X303Y197D01*
X303Y198D01*
X303Y199D01*
X302Y200D01*
G01X290Y204D02*
Y209D01*
X292D01*
X293Y209D01*
X293Y208D01*
Y207D01*
X292Y207D01*
X292Y206D01*
X290D01*
G01X292D02*
X293Y204D01*
G01X298D02*
Y209D01*
X294Y205D01*
X299D01*
G01X302Y204D02*
Y209D01*
X300Y208D01*
G01Y204D02*
X302D01*
G01X290Y212D02*
Y217D01*
X292D01*
X293Y217D01*
X293Y216D01*
Y215D01*
X292Y215D01*
X292Y214D01*
X290D01*
G01X292D02*
X293Y212D01*
G01X298D02*
Y217D01*
X294Y213D01*
X299D01*
G01X300Y216D02*
X300Y217D01*
X301Y217D01*
X302Y217D01*
X303Y216D01*
X303Y215D01*
X301Y214D01*
X300Y214D01*
X300Y213D01*
X300Y212D01*
X303D01*
G01X246Y315D02*
X251D01*
Y313D01*
X251Y312D01*
X250Y312D01*
X249D01*
X248Y313D01*
Y315D01*
G01Y313D02*
X246Y312D01*
G01Y308D02*
X251D01*
X247Y311D01*
Y306D01*
G01X247Y305D02*
X246Y305D01*
X246Y304D01*
X246Y303D01*
X246Y302D01*
X247Y302D01*
X248Y302D01*
X249Y302D01*
X249Y303D01*
Y304D01*
X249Y305D01*
X251Y304D01*
Y302D01*
G01X234Y348D02*
Y353D01*
X236D01*
X237Y353D01*
X237Y352D01*
Y351D01*
X236Y351D01*
X236Y350D01*
X234D01*
G01X236D02*
X237Y348D01*
G01X242D02*
Y353D01*
X238Y349D01*
X243D01*
G01X244Y350D02*
X244Y351D01*
X245Y351D01*
X246Y351D01*
X247Y351D01*
X247Y350D01*
Y349D01*
X246Y348D01*
X245D01*
X244Y349D01*
X244Y350D01*
X244Y351D01*
X244Y352D01*
X245Y352D01*
X245Y353D01*
X246Y353D01*
X247Y352D01*
G01X233Y373D02*
Y378D01*
X235D01*
X236Y378D01*
X236Y377D01*
Y376D01*
X235Y375D01*
X233D01*
G01X235D02*
X236Y373D01*
G01X240D02*
Y378D01*
X237Y374D01*
X242D01*
G01X244Y373D02*
X244Y374D01*
X245Y375D01*
X245Y376D01*
X246Y377D01*
X246Y378D01*
X243D01*
G01X288Y371D02*
Y376D01*
X290D01*
X291Y376D01*
X291Y375D01*
Y374D01*
X290Y374D01*
X290Y373D01*
X288D01*
G01X290D02*
X291Y371D01*
G01X296D02*
Y376D01*
X292Y372D01*
X297D01*
G01X298Y372D02*
X299Y371D01*
X300D01*
X301Y372D01*
X301Y373D01*
Y374D01*
X301Y375D01*
X301Y376D01*
X300Y376D01*
X299D01*
X298Y376D01*
X298Y375D01*
X298Y374D01*
X298Y373D01*
X299Y373D01*
X300Y373D01*
X301Y373D01*
X301Y374D01*
G01X261Y370D02*
Y375D01*
X263D01*
X264Y375D01*
X264Y374D01*
Y373D01*
X263Y372D01*
X261D01*
G01X263D02*
X264Y370D01*
G01X266Y371D02*
X266Y370D01*
X267Y370D01*
X268Y370D01*
X269Y370D01*
X269Y371D01*
X269Y372D01*
X269Y373D01*
X268Y373D01*
X267D01*
X266Y373D01*
X266Y375D01*
X269D01*
G01X272D02*
X271Y374D01*
X271Y373D01*
X271Y372D01*
X271Y371D01*
X272Y370D01*
X273D01*
X274Y371D01*
X274Y372D01*
Y373D01*
X274Y374D01*
X273Y375D01*
X272Y375D01*
G01X252Y266D02*
X257D01*
Y264D01*
X257Y263D01*
X256Y263D01*
X255D01*
X255Y264D01*
X254Y264D01*
Y266D01*
G01Y264D02*
X252Y263D01*
G01X253Y261D02*
X252Y261D01*
X252Y260D01*
X252Y259D01*
X252Y258D01*
X253Y258D01*
X254Y258D01*
X255Y258D01*
X255Y259D01*
Y260D01*
X255Y261D01*
X257Y260D01*
Y258D01*
G01X252Y254D02*
X257D01*
X256Y256D01*
G01X252D02*
Y254D01*
G01X228Y295D02*
X223D01*
Y297D01*
X223Y298D01*
X224Y298D01*
X225D01*
X226Y297D01*
Y295D01*
G01Y297D02*
X228Y298D01*
G01X227Y300D02*
X228Y300D01*
X228Y301D01*
X228Y302D01*
X228Y303D01*
X227Y303D01*
X226Y303D01*
X225Y303D01*
X225Y302D01*
Y301D01*
X225Y300D01*
X223Y300D01*
Y303D01*
G01X224Y305D02*
X223Y305D01*
X223Y306D01*
X223Y307D01*
X223Y308D01*
X224Y308D01*
X225Y308D01*
X226Y306D01*
X226Y305D01*
X227Y305D01*
X228Y305D01*
Y308D01*
G01X212Y236D02*
Y241D01*
X214D01*
X215Y241D01*
X215Y240D01*
Y239D01*
X214Y239D01*
X214Y238D01*
X212D01*
G01X214D02*
X215Y236D01*
G01X217Y237D02*
X217Y236D01*
X218Y236D01*
X219Y236D01*
X220Y236D01*
X220Y237D01*
X220Y238D01*
X220Y239D01*
X219Y239D01*
X218D01*
X217Y239D01*
X218Y241D01*
X220D01*
G01X222Y237D02*
X222Y236D01*
X223Y236D01*
X224Y236D01*
X225Y236D01*
X225Y237D01*
X225Y238D01*
X224Y239D01*
X223D01*
G01X224D02*
X225Y239D01*
X225Y240D01*
X225Y241D01*
X224Y241D01*
X223Y241D01*
X222Y241D01*
G01X212Y244D02*
Y249D01*
X214D01*
X215Y249D01*
X215Y248D01*
Y247D01*
X214Y247D01*
X214Y246D01*
X212D01*
G01X214D02*
X215Y244D01*
G01X217Y245D02*
X217Y244D01*
X218Y244D01*
X219Y244D01*
X220Y244D01*
X220Y245D01*
X220Y246D01*
X220Y247D01*
X219Y247D01*
X218D01*
X217Y247D01*
X218Y249D01*
X220D01*
G01X224Y244D02*
Y249D01*
X221Y245D01*
X226D01*
G01X212Y252D02*
Y257D01*
X214D01*
X215Y257D01*
X215Y256D01*
Y255D01*
X214Y255D01*
X214Y254D01*
X212D01*
G01X214D02*
X215Y252D01*
G01X217Y253D02*
X217Y252D01*
X218Y252D01*
X219Y252D01*
X220Y252D01*
X220Y253D01*
X220Y254D01*
X220Y255D01*
X219Y255D01*
X218D01*
X217Y255D01*
X218Y257D01*
X220D01*
G01X222Y253D02*
X222Y252D01*
X223Y252D01*
X224Y252D01*
X225Y252D01*
X225Y253D01*
X225Y254D01*
X225Y255D01*
X224Y255D01*
X223D01*
X222Y255D01*
X222Y257D01*
X225D01*
G01X212Y260D02*
Y265D01*
X214D01*
X215Y265D01*
X215Y264D01*
Y263D01*
X214Y263D01*
X214Y262D01*
X212D01*
G01X214D02*
X215Y260D01*
G01X217Y261D02*
X217Y260D01*
X218Y260D01*
X219Y260D01*
X220Y260D01*
X220Y261D01*
X220Y262D01*
X220Y263D01*
X219Y263D01*
X218D01*
X217Y263D01*
X218Y265D01*
X220D01*
G01X222Y262D02*
X222Y263D01*
X223Y263D01*
X224Y263D01*
X225Y263D01*
X225Y262D01*
Y261D01*
X224Y260D01*
X223D01*
X222Y261D01*
X222Y262D01*
X222Y263D01*
X222Y264D01*
X223Y264D01*
X223Y265D01*
X224Y265D01*
X225Y264D01*
G01X212Y269D02*
Y274D01*
X214D01*
X215Y274D01*
X215Y273D01*
Y272D01*
X214Y272D01*
X214Y271D01*
X212D01*
G01X214D02*
X215Y269D01*
G01X217Y270D02*
X217Y269D01*
X218Y269D01*
X219Y269D01*
X220Y270D01*
X220Y271D01*
X220Y272D01*
X219Y272D01*
X218D01*
X217Y272D01*
X218Y274D01*
X220D01*
G01X223Y269D02*
X224Y270D01*
X224Y271D01*
X224Y272D01*
X224Y273D01*
X225Y274D01*
X222D01*
G01X212Y277D02*
Y282D01*
X214D01*
X215Y282D01*
X215Y281D01*
Y280D01*
X214Y280D01*
X214Y279D01*
X212D01*
G01X214D02*
X215Y277D01*
G01X217Y278D02*
X217Y277D01*
X218Y277D01*
X219Y277D01*
X220Y278D01*
X220Y279D01*
X220Y280D01*
X219Y280D01*
X218D01*
X217Y280D01*
X218Y282D01*
X220D01*
G01X224Y277D02*
X225Y277D01*
X225Y278D01*
Y279D01*
X224Y280D01*
X223D01*
X222Y280D01*
X222Y281D01*
X223Y282D01*
X224Y282D01*
X225Y281D01*
X225Y280D01*
X224Y280D01*
X223Y280D01*
X222Y279D01*
X222Y278D01*
X222Y277D01*
X223Y277D01*
X224Y277D01*
G01X176Y201D02*
Y206D01*
X178D01*
X179Y206D01*
X179Y205D01*
Y204D01*
X178Y204D01*
X178Y203D01*
X176D01*
G01X178D02*
X179Y201D01*
G01X181Y202D02*
X181Y201D01*
X182Y201D01*
X183Y201D01*
X184Y202D01*
X184Y203D01*
X184Y204D01*
X183Y204D01*
X182D01*
X181Y204D01*
X182Y206D01*
X184D01*
G01X186Y202D02*
X187Y201D01*
X188D01*
X189Y202D01*
X189Y203D01*
Y204D01*
X189Y205D01*
X189Y206D01*
X188Y206D01*
X187D01*
X186Y206D01*
X186Y205D01*
X186Y204D01*
X186Y203D01*
X187Y203D01*
X188Y203D01*
X189Y203D01*
X189Y204D01*
G01X194Y213D02*
X199D01*
Y211D01*
X199Y210D01*
X198Y210D01*
X197D01*
X196Y211D01*
Y213D01*
G01Y211D02*
X194Y210D01*
G01X196Y208D02*
X197Y208D01*
X197Y207D01*
X197Y206D01*
X197Y205D01*
X196Y205D01*
X195D01*
X194Y206D01*
Y207D01*
X195Y208D01*
X196Y208D01*
X197Y208D01*
X198Y208D01*
X198Y207D01*
X199Y207D01*
X199Y206D01*
X198Y205D01*
G01X199Y202D02*
X198Y203D01*
X197Y203D01*
X196Y203D01*
X195Y203D01*
X194Y202D01*
Y201D01*
X195Y200D01*
X196Y200D01*
X197D01*
X198Y200D01*
X199Y201D01*
X199Y202D01*
G01X296Y314D02*
X295Y314D01*
X295Y315D01*
X294Y316D01*
X294Y317D01*
X294Y318D01*
X295Y318D01*
X295Y319D01*
X296Y319D01*
X297D01*
X298Y319D01*
X298Y318D01*
X299Y318D01*
X299Y317D01*
Y316D01*
X298Y315D01*
X298Y314D01*
X297Y314D01*
X296Y314D01*
G01X297Y315D02*
X298Y314D01*
G01X300Y315D02*
X301Y314D01*
X302D01*
X303Y315D01*
X303Y316D01*
Y317D01*
X303Y318D01*
X302Y319D01*
X301D01*
X300Y318D01*
X300Y317D01*
X300Y316D01*
X301Y316D01*
X302Y316D01*
X303Y316D01*
X303Y317D01*
G01X291Y315D02*
G03I-1J0D01*
G01X266Y314D02*
X265Y314D01*
X265Y315D01*
X264Y316D01*
X264Y317D01*
X264Y318D01*
X265Y318D01*
X265Y319D01*
X266Y319D01*
X267D01*
X268Y319D01*
X268Y318D01*
X269Y318D01*
X269Y317D01*
Y316D01*
X268Y315D01*
X268Y314D01*
X267Y314D01*
X266Y314D01*
G01X267Y315D02*
X268Y314D01*
G01X272D02*
Y319D01*
X270Y318D01*
G01Y314D02*
X272D01*
G01X276Y319D02*
X275Y318D01*
X275Y317D01*
X275Y316D01*
X275Y315D01*
X276Y314D01*
X277D01*
X278Y315D01*
X278Y316D01*
Y317D01*
X278Y318D01*
X277Y319D01*
X276Y319D01*
G01X263Y315D02*
G03I-1J0D01*
G01X352Y338D02*
X351Y338D01*
X351Y339D01*
X350Y340D01*
X350Y341D01*
X350Y342D01*
X351Y342D01*
X351Y343D01*
X352Y343D01*
X353D01*
X354Y343D01*
X354Y342D01*
X355Y342D01*
X355Y341D01*
Y340D01*
X354Y339D01*
X354Y338D01*
X353Y338D01*
X352Y338D01*
G01X353Y339D02*
X354Y338D01*
G01X358D02*
Y343D01*
X356Y342D01*
G01Y338D02*
X358D01*
G01X362D02*
Y343D01*
X362Y342D01*
G01Y338D02*
X364D01*
G01X347Y360D02*
G03I-1J0D01*
G01X322Y338D02*
X321Y338D01*
X321Y339D01*
X320Y340D01*
X320Y341D01*
X320Y342D01*
X321Y342D01*
X321Y343D01*
X322Y343D01*
X323D01*
X324Y343D01*
X324Y342D01*
X325Y342D01*
X325Y341D01*
Y340D01*
X324Y339D01*
X324Y338D01*
X323Y338D01*
X322Y338D01*
G01X323Y339D02*
X324Y338D01*
G01X328D02*
Y343D01*
X326Y342D01*
G01Y338D02*
X328D01*
G01X331Y342D02*
X331Y343D01*
X332Y343D01*
X333Y343D01*
X334Y343D01*
X334Y342D01*
X334Y341D01*
X332Y340D01*
X331Y340D01*
X331Y339D01*
X331Y338D01*
X334D01*
G01X319Y360D02*
G03I-1J0D01*
G01X294Y338D02*
X293Y338D01*
X293Y339D01*
X292Y340D01*
X292Y341D01*
X292Y342D01*
X293Y342D01*
X293Y343D01*
X294Y343D01*
X295D01*
X296Y343D01*
X296Y342D01*
X297Y342D01*
X297Y341D01*
Y340D01*
X296Y339D01*
X296Y338D01*
X295Y338D01*
X294Y338D01*
G01X295Y339D02*
X296Y338D01*
G01X300D02*
Y343D01*
X298Y342D01*
G01Y338D02*
X300D01*
G01X303Y339D02*
X303Y338D01*
X304Y338D01*
X305Y338D01*
X306Y338D01*
X306Y339D01*
X306Y340D01*
X305Y341D01*
X304D01*
G01X305D02*
X306Y341D01*
X306Y342D01*
X306Y343D01*
X305Y343D01*
X304Y343D01*
X303Y343D01*
G01X291Y360D02*
G03I-1J0D01*
G01X266Y338D02*
X265Y338D01*
X264Y338D01*
X264Y339D01*
X263Y340D01*
X263Y341D01*
X263Y342D01*
X264Y342D01*
X264Y343D01*
X265Y343D01*
X266Y343D01*
X267Y343D01*
X267Y342D01*
X268Y342D01*
X268Y341D01*
Y340D01*
X267Y339D01*
X267Y338D01*
X266Y338D01*
G01Y339D02*
X267Y338D01*
G01X270D02*
Y343D01*
X270Y342D01*
G01Y338D02*
X272D01*
G01X276D02*
Y343D01*
X273Y339D01*
X278D01*
G01X263Y360D02*
G03I-1J0D01*
G01X352Y314D02*
X351Y314D01*
X351Y315D01*
X350Y316D01*
X350Y317D01*
X350Y318D01*
X351Y318D01*
X351Y319D01*
X352Y319D01*
X353D01*
X354Y319D01*
X354Y318D01*
X355Y318D01*
X355Y317D01*
Y316D01*
X354Y315D01*
X354Y314D01*
X353Y314D01*
X352Y314D01*
G01X353Y315D02*
X354Y314D01*
G01X358D02*
Y319D01*
X356Y318D01*
G01Y314D02*
X358D01*
G01X361Y315D02*
X361Y314D01*
X362Y314D01*
X363Y314D01*
X364Y314D01*
X364Y315D01*
X364Y316D01*
X364Y317D01*
X363Y317D01*
X362D01*
X361Y317D01*
X362Y319D01*
X364D01*
G01X347Y315D02*
G03I-1J0D01*
G01X322Y314D02*
X321Y314D01*
X321Y315D01*
X320Y316D01*
X320Y317D01*
X320Y318D01*
X321Y318D01*
X321Y319D01*
X322Y319D01*
X323D01*
X324Y319D01*
X324Y318D01*
X325Y318D01*
X325Y317D01*
Y316D01*
X324Y315D01*
X324Y314D01*
X323Y314D01*
X322Y314D01*
G01X323Y315D02*
X324Y314D01*
G01X328D02*
Y319D01*
X326Y318D01*
G01Y314D02*
X328D01*
G01X331Y316D02*
X332Y317D01*
X333Y317D01*
X334Y317D01*
X334Y316D01*
Y315D01*
X333Y314D01*
X332D01*
X331Y315D01*
X331Y316D01*
X331Y317D01*
X331Y318D01*
X332Y318D01*
X332Y319D01*
X333Y319D01*
X334Y319D01*
X334Y318D01*
G01X319Y315D02*
G03I-1J0D01*
G01X243Y196D02*
Y192D01*
X244Y191D01*
X245D01*
X246Y192D01*
X246Y196D01*
G01X250Y191D02*
Y196D01*
X248Y195D01*
G01Y191D02*
X250D01*
G01X221Y375D02*
Y371D01*
X222Y370D01*
X223D01*
X224Y371D01*
X224Y375D01*
G01X226Y374D02*
X226Y375D01*
X227Y375D01*
X228Y375D01*
X229Y374D01*
X229Y373D01*
X227Y372D01*
X226Y372D01*
X226Y371D01*
X226Y370D01*
X229D01*
G01X190Y275D02*
Y271D01*
X191Y270D01*
X192Y270D01*
X193Y271D01*
X193Y275D01*
G01X195Y271D02*
X195Y270D01*
X196Y270D01*
X197Y270D01*
X198Y270D01*
X198Y271D01*
X198Y272D01*
X197Y273D01*
X196D01*
G01X197D02*
X198Y273D01*
X198Y274D01*
X198Y275D01*
X197Y275D01*
X196Y275D01*
X195Y275D01*
G01X389Y280D02*
X390Y279D01*
X391D01*
X392Y280D01*
X392Y281D01*
Y284D01*
G01X396Y279D02*
Y284D01*
X394Y283D01*
G01Y279D02*
X396D01*
G01X304Y139D02*
X304Y138D01*
X305Y138D01*
X306D01*
X307Y139D01*
X307Y140D01*
Y143D01*
G01X309Y142D02*
X309Y143D01*
X310Y143D01*
X311Y143D01*
X312Y143D01*
X312Y142D01*
X312Y141D01*
X310Y140D01*
X309Y140D01*
X309Y139D01*
X309Y138D01*
X312D01*
G01X163Y382D02*
X158D01*
Y384D01*
X158Y385D01*
X159Y385D01*
X160D01*
X160Y384D01*
X161Y384D01*
Y382D01*
G01Y384D02*
X163Y385D01*
G01Y388D02*
X158D01*
X159Y388D01*
G01X163D02*
Y390D01*
G01X161Y392D02*
X160Y392D01*
X160Y393D01*
X160Y394D01*
X160Y395D01*
X161Y395D01*
X162D01*
X163Y394D01*
Y393D01*
X162Y392D01*
X161Y392D01*
X160Y392D01*
X159Y392D01*
X158Y393D01*
X158Y394D01*
X159Y395D01*
G01X170Y382D02*
X165D01*
Y384D01*
X165Y385D01*
X166Y385D01*
X167D01*
X167Y384D01*
X168Y384D01*
Y382D01*
G01Y384D02*
X170Y385D01*
G01Y388D02*
X165D01*
X166Y388D01*
G01X170D02*
Y390D01*
G01Y393D02*
X169Y394D01*
X168Y394D01*
X167Y394D01*
X166Y394D01*
X165Y395D01*
Y392D01*
G01X205Y384D02*
X200D01*
Y386D01*
X200Y387D01*
X201Y387D01*
X202D01*
X202Y386D01*
X203Y386D01*
Y384D01*
G01Y386D02*
X205Y387D01*
G01Y390D02*
X200D01*
X201Y390D01*
G01X205D02*
Y392D01*
G01Y396D02*
X205Y397D01*
X204Y397D01*
X203D01*
X202Y396D01*
Y395D01*
X202Y394D01*
X201Y394D01*
X200Y395D01*
X200Y396D01*
X201Y397D01*
X202Y397D01*
X202Y396D01*
X202Y395D01*
X203Y394D01*
X204Y394D01*
X205Y394D01*
X205Y395D01*
X205Y396D01*
G01X212Y382D02*
Y387D01*
X214D01*
X215Y387D01*
X215Y386D01*
Y385D01*
X214Y385D01*
X214Y384D01*
X212D01*
G01X214D02*
X215Y382D01*
G01X220D02*
Y387D01*
X216Y383D01*
X221D01*
G01X224Y382D02*
X225Y382D01*
X225Y383D01*
Y384D01*
X224Y385D01*
X223D01*
X222Y385D01*
X222Y386D01*
X223Y387D01*
X224Y387D01*
X225Y386D01*
X225Y385D01*
X224Y385D01*
X223Y385D01*
X222Y384D01*
X222Y383D01*
X222Y382D01*
X223Y382D01*
X224Y382D01*
G01X400Y400D02*
X0D01*
Y0D01*
X400D01*
Y400D01*
G01X0Y-14D02*
X-24D01*
G01X-12Y-26D02*
Y-2D01*
G01X-5Y-14D02*
G03I-7J0D01*
G01X-2Y-13D02*
G03I-10J-1D01*
G01X36Y75D02*
X97D01*
Y136D01*
X36D01*
Y75D01*
G01X159Y124D02*
X127D01*
Y110D01*
X159D01*
Y124D01*
G01X138Y32D02*
Y64D01*
X126D01*
Y32D01*
X138D01*
G01X85Y141D02*
X98D01*
Y158D01*
X85D01*
Y141D01*
G01X115D02*
X127D01*
Y158D01*
X115D01*
Y141D01*
G01Y191D02*
X127D01*
Y208D01*
X115D01*
Y191D01*
G01X85D02*
X98D01*
Y208D01*
X85D01*
Y191D01*
G01X57D02*
X69D01*
Y208D01*
X57D01*
Y191D01*
G01X29D02*
X41D01*
Y208D01*
X29D01*
Y191D01*
G01Y141D02*
X41D01*
Y158D01*
X29D01*
Y141D01*
G01X57D02*
X69D01*
Y158D01*
X57D01*
Y141D01*
G01X85Y297D02*
X98D01*
Y314D01*
X85D01*
Y297D01*
G01X116D02*
X129D01*
Y314D01*
X116D01*
Y297D01*
G01Y343D02*
X129D01*
Y360D01*
X116D01*
Y343D01*
G01X87D02*
X99D01*
Y360D01*
X87D01*
Y343D01*
G01X57D02*
X69D01*
Y360D01*
X57D01*
Y343D01*
G01X27D02*
X40D01*
Y360D01*
X27D01*
Y343D01*
G01Y297D02*
X40D01*
Y314D01*
X27D01*
Y297D01*
G01X57D02*
X69D01*
Y314D01*
X57D01*
Y297D01*
G01X144Y215D02*
X194D01*
Y265D01*
X144D01*
Y215D01*
G01X36Y234D02*
X97D01*
Y295D01*
X36D01*
Y234D01*
G01X138Y326D02*
X170D01*
Y338D01*
X138D01*
Y326D01*
G01X73Y218D02*
X105D01*
Y232D01*
X73D01*
Y218D01*
G01X-17Y413D02*
G03I-10J-1D01*
G01X-20Y412D02*
G03I-7J0D01*
G01X-27Y400D02*
Y424D01*
G01X-15Y412D02*
X-39D01*
G01X423Y-13D02*
X399D01*
G01X421Y-12D02*
G03I-10J-1D01*
G01X291Y16D02*
X304D01*
Y33D01*
X291D01*
Y16D01*
G01X262D02*
X274D01*
Y33D01*
X262D01*
Y16D01*
G01X261Y52D02*
X274D01*
Y68D01*
X261D01*
Y52D01*
G01X291D02*
X304D01*
Y68D01*
X291D01*
Y52D01*
G01X319D02*
X332D01*
Y68D01*
X319D01*
Y52D01*
G01X346D02*
X359D01*
Y68D01*
X346D01*
Y52D01*
G01X346Y16D02*
X358D01*
Y33D01*
X346D01*
Y16D01*
G01X319D02*
X332D01*
Y33D01*
X319D01*
Y16D01*
G01X174Y35D02*
X224D01*
Y85D01*
X174D01*
Y35D01*
G01X305Y75D02*
X366D01*
Y136D01*
X305D01*
Y75D01*
G01X291Y297D02*
X304D01*
Y314D01*
X291D01*
Y297D01*
G01X263D02*
X276D01*
Y314D01*
X263D01*
Y297D01*
G01X347Y343D02*
X360D01*
Y360D01*
X347D01*
Y343D01*
G01X319D02*
X332D01*
Y360D01*
X319D01*
Y343D01*
G01X291D02*
X304D01*
Y360D01*
X291D01*
Y343D01*
G01X263D02*
X276D01*
Y360D01*
X263D01*
Y343D01*
G01X347Y297D02*
X360D01*
Y314D01*
X347D01*
Y297D01*
G01X319D02*
X332D01*
Y314D01*
X319D01*
Y297D01*
G01X204Y135D02*
X254D01*
Y185D01*
X204D01*
Y135D01*
G01X174Y315D02*
X224D01*
Y365D01*
X174D01*
Y315D01*
G01X305Y234D02*
X366D01*
Y295D01*
X305D01*
Y234D01*
G01X411Y-25D02*
Y-1D01*
G01X418Y-13D02*
G03I-7J0D01*
G01X429Y413D02*
X405D01*
G01X417Y401D02*
Y425D01*
G01X424Y413D02*
G03I-7J0D01*
G01X427Y414D02*
G03I-10J-1D01*
M02*
