G04 ================== begin FILE IDENTIFICATION RECORD ==================*
G04 Layout Name:  LED Panel G4 V1, 03-26-2017.brd*
G04 Film Name:    Soldermask_top*
G04 File Format:  Gerber RS274X*
G04 File Origin:  Cadence Allegro 17.2-P019*
G04 Origin Date:  Wed Aug 12 17:31:23 2020*
G04 *
G04 Layer:  VIA CLASS/SOLDERMASK_TOP*
G04 Layer:  PIN/SOLDERMASK_TOP*
G04 Layer:  DRC ERROR CLASS/SOLDERMASK_TOP*
G04 Layer:  BOARD GEOMETRY/OUTLINE*
G04 *
G04 Offset:    (0.0000 0.0000)*
G04 Mirror:    No*
G04 Mode:      Positive*
G04 Rotation:  0*
G04 FullContactRelief:  No*
G04 UndefLineWidth:     0.1000*
G04 ================== end FILE IDENTIFICATION RECORD ====================*
%FSLAX31Y31*MOMM*%
%IR0*IPPOS*OFA0.00000B0.00000*MIA0B0*SFA1.00000B1.00000*%
%ADD14R,1.5X.4*%
%ADD13R,.4X1.5*%
%ADD15C,.4*%
%ADD16R,.375X.375*%
%ADD19R,.3X.7*%
%ADD17R,.7X.3*%
%ADD11R,.65X.5001*%
%ADD10R,.5001X.65*%
%ADD12R,3.68X1.27*%
%ADD18R,2.7X2.7*%
%ADD20C,.1*%
G75*
%LPD*%
G75*
G54D10*
X145Y62D03*
X143Y34D03*
X145Y72D03*
Y80D03*
X148Y344D03*
X115Y233D03*
X125D03*
X148Y313D03*
X148Y353D03*
Y361D03*
X132Y286D03*
X122D03*
X115Y216D03*
X125D03*
X115Y250D03*
X125D03*
X115Y258D03*
X125D03*
X27Y164D03*
X37D03*
X155Y62D03*
X153Y34D03*
X155Y72D03*
Y80D03*
X288Y37D03*
X298D03*
X259D03*
X269D03*
X287Y81D03*
X297D03*
X328Y77D03*
X338D03*
X344Y37D03*
X354D03*
X318D03*
X328D03*
X158Y344D03*
X176Y153D03*
X186D03*
X176Y136D03*
X186D03*
X176Y170D03*
X186D03*
X176Y178D03*
X186D03*
X275Y280D03*
X285D03*
X158Y313D03*
X158Y353D03*
Y361D03*
X279Y169D03*
X269D03*
X286Y179D03*
X276D03*
X286Y188D03*
X276D03*
X286Y197D03*
X276D03*
X286Y206D03*
X276D03*
X286Y215D03*
X276D03*
X245Y358D03*
X235D03*
X244Y368D03*
X234D03*
X289Y365D03*
X299D03*
X262D03*
X272D03*
X239Y237D03*
X229D03*
X239Y246D03*
X229D03*
X239Y254D03*
X229D03*
X239Y262D03*
X229D03*
X239Y270D03*
X229D03*
X239Y278D03*
X229D03*
X222Y392D03*
X212D03*
G54D20*
G01X400Y400D02*
X0D01*
Y0D01*
X400D01*
Y400D01*
G01X0Y-14D02*
X-24D01*
G01X-12Y-26D02*
Y-2D01*
G01X-5Y-14D02*
G03I-7J0D01*
G01X-2Y-13D02*
G03I-10J-1D01*
G01X-17Y413D02*
G03I-10J-1D01*
G01X-20Y412D02*
G03I-7J0D01*
G01X-27Y400D02*
Y424D01*
G01X-15Y412D02*
X-39D01*
G01X423Y-13D02*
X399D01*
G01X421Y-12D02*
G03I-10J-1D01*
G01X411Y-25D02*
Y-1D01*
G01X418Y-13D02*
G03I-7J0D01*
G01X429Y413D02*
X405D01*
G01X417Y401D02*
Y425D01*
G01X424Y413D02*
G03I-7J0D01*
G01X427Y414D02*
G03I-10J-1D01*
G54D11*
X11Y112D03*
Y122D03*
X148Y296D03*
Y286D03*
X225Y109D03*
Y119D03*
X217Y109D03*
Y119D03*
X192Y9D03*
Y19D03*
X184Y9D03*
Y19D03*
X180Y114D03*
Y104D03*
X187Y114D03*
Y104D03*
X195Y114D03*
Y104D03*
X234Y109D03*
Y119D03*
X259Y80D03*
Y90D03*
X361Y81D03*
Y71D03*
X209Y214D03*
Y204D03*
X217Y214D03*
Y204D03*
X225Y214D03*
Y204D03*
X195Y289D03*
Y299D03*
X187Y289D03*
Y299D03*
X165Y189D03*
Y199D03*
X157Y189D03*
Y199D03*
X158Y296D03*
Y286D03*
X166Y296D03*
Y286D03*
X387Y144D03*
Y134D03*
X242Y304D03*
Y314D03*
X255Y271D03*
Y281D03*
X233Y306D03*
Y296D03*
X188Y186D03*
Y196D03*
X196Y186D03*
Y196D03*
X180Y392D03*
Y382D03*
X187Y392D03*
Y382D03*
X195Y392D03*
Y382D03*
G54D12*
X88Y118D03*
Y92D03*
X44D03*
Y118D03*
X88Y278D03*
Y252D03*
X44D03*
Y278D03*
X357Y118D03*
Y92D03*
X313D03*
Y118D03*
X357Y278D03*
Y252D03*
X313D03*
Y278D03*
G54D13*
X143Y117D03*
X131D03*
X142Y332D03*
X89Y225D03*
X101D03*
X77D03*
X155Y117D03*
X154Y332D03*
X166D03*
G54D14*
X132Y48D03*
Y60D03*
Y36D03*
G54D15*
X11Y104D03*
X106Y104D03*
X80Y96D03*
X86D03*
X92D03*
X98D03*
X149Y123D03*
X118Y48D03*
X150Y53D03*
X142Y27D03*
X137Y69D03*
X136Y75D03*
X36Y120D03*
X20Y122D03*
X145Y5D03*
X120D03*
X95D03*
X70D03*
X45D03*
X20D03*
X145Y45D03*
X120Y30D03*
X95D03*
X70D03*
X45D03*
X20D03*
X145Y55D03*
X120D03*
X95D03*
X70D03*
X45D03*
X20D03*
X145Y95D03*
X120Y80D03*
X95D03*
X70D03*
X45D03*
X20D03*
X145Y105D03*
X120D03*
X95D03*
X70D03*
X45D03*
X20D03*
X11Y188D03*
X137Y164D03*
X105Y193D03*
X37Y188D03*
X61D03*
X150Y147D03*
X87Y188D03*
X19Y278D03*
X136Y147D03*
X94Y146D03*
X63Y145D03*
X135Y197D03*
X130Y230D03*
X94Y196D03*
X66Y346D03*
X97D03*
X139Y349D03*
X32Y346D03*
X37Y295D03*
X64Y296D03*
X90Y297D03*
X138D03*
X136Y272D03*
X36Y195D03*
X63D03*
X37Y145D03*
X137Y355D03*
X144Y353D03*
X148Y305D03*
X11Y212D03*
X111Y245D03*
X86Y241D03*
X150Y197D03*
X36Y225D03*
X112Y264D03*
X55Y231D03*
X138Y344D03*
X19Y350D03*
X62Y375D03*
X88Y369D03*
X124Y355D03*
X83Y320D03*
X55D03*
X25D03*
X114D03*
X138Y248D03*
X138Y232D03*
X85Y225D03*
X110Y229D03*
X87Y170D03*
X62D03*
X35Y155D03*
X109Y173D03*
X20Y201D03*
X59Y222D03*
X106Y201D03*
X88Y206D03*
X142Y304D03*
X130Y329D03*
X122Y280D03*
X16Y252D03*
X91Y303D03*
X122D03*
X120Y351D03*
X90D03*
X61D03*
X36D03*
Y303D03*
X64Y303D03*
X120Y205D03*
X95Y220D03*
X70D03*
X45D03*
X20D03*
X65Y326D03*
X145Y205D03*
X120Y243D03*
X95Y231D03*
X70Y230D03*
X45D03*
X13Y238D03*
X36Y326D03*
X137Y220D03*
X88Y262D03*
X63D03*
X38D03*
X13D03*
X120Y270D03*
X138Y262D03*
X45Y295D03*
X13Y288D03*
X59Y330D03*
X70Y295D03*
X95D03*
X120D03*
X137Y280D03*
X138Y320D03*
X120Y320D03*
X45Y318D03*
X13Y312D03*
X89Y330D03*
X70Y321D03*
X136Y330D03*
X88Y338D03*
X63D03*
X38D03*
X13D03*
X120Y330D03*
X112Y330D03*
X145Y370D03*
X120D03*
X95D03*
X70D03*
X45D03*
X20D03*
X112Y132D03*
X89Y150D03*
X123D03*
X117Y200D03*
X87D03*
X59D03*
X31D03*
X39Y150D03*
X67D03*
X62Y155D03*
X19Y148D03*
X37Y205D03*
X66D03*
X94D03*
X145Y130D03*
X120D03*
X95D03*
X70D03*
X45D03*
X20D03*
X112Y182D03*
X120Y170D03*
X95D03*
X145Y155D03*
X45Y170D03*
X20Y155D03*
X70Y170D03*
X145Y180D03*
X120D03*
X95D03*
X70D03*
X45D03*
X20D03*
X92Y155D03*
X145Y395D03*
X120D03*
X95D03*
X70D03*
X45D03*
X20D03*
X225Y98D03*
X212Y105D03*
X162Y125D03*
X242Y122D03*
X217Y27D03*
X231Y45D03*
X218Y48D03*
X162Y69D03*
X338Y55D03*
X365D03*
X328Y70D03*
X370Y71D03*
X325Y20D03*
X368Y22D03*
X306Y4D03*
X270Y20D03*
X276Y52D03*
X301Y53D03*
X326Y30D03*
X351D03*
X326Y80D03*
X353D03*
X286Y45D03*
X243Y71D03*
X191Y50D03*
X196D03*
X201D03*
X191Y55D03*
X196D03*
X201D03*
X191Y70D03*
X196D03*
X202D03*
X251Y30D03*
X259Y70D03*
X289D03*
X386Y123D03*
X197Y78D03*
X288Y122D03*
X288Y100D03*
X206Y20D03*
X295Y25D03*
X232Y72D03*
X264Y25D03*
X237Y78D03*
X266Y75D03*
X220Y95D03*
X294Y75D03*
X212Y98D03*
X322Y75D03*
X207Y102D03*
X350Y75D03*
X202Y98D03*
X348Y25D03*
X197Y25D03*
X322Y25D03*
X202Y28D03*
X395Y5D03*
X370D03*
X345D03*
X320D03*
X295D03*
X245D03*
X220D03*
X270Y3D03*
X223Y27D03*
X245Y30D03*
X270D03*
X295D03*
X395D03*
X370D03*
X341Y50D03*
X312Y50D03*
X262Y45D03*
X231Y52D03*
X295Y55D03*
X270D03*
X245D03*
X325Y54D03*
X370Y55D03*
X395D03*
X344Y45D03*
X303Y80D03*
X370D03*
X395D03*
X233Y97D03*
X270Y80D03*
X245D03*
X345Y81D03*
X217Y102D03*
X395Y105D03*
X370D03*
X345D03*
X320D03*
X295D03*
X270D03*
X245D03*
X306Y73D03*
X272Y47D03*
X298D03*
X286Y8D03*
X337Y9D03*
X162Y119D03*
X386Y38D03*
X200Y126D03*
X212Y6D03*
X191Y127D03*
X312Y7D03*
X237Y102D03*
X237Y11D03*
X237Y125D03*
X226Y125D03*
X205Y5D03*
X170Y20D03*
Y30D03*
X187Y27D03*
X162Y55D03*
X197Y95D03*
X170Y95D03*
X195Y122D03*
X170Y105D03*
X211Y222D03*
X325Y302D03*
X162Y166D03*
X351Y300D03*
X266Y351D03*
X201Y375D03*
X294Y351D03*
X205Y380D03*
X187Y162D03*
X225Y230D03*
X322Y351D03*
X239Y355D03*
X272Y302D03*
X295Y302D03*
X237Y331D03*
X337Y337D03*
X217Y347D03*
X245Y326D03*
X270Y328D03*
X370Y345D03*
X395D03*
X298Y347D03*
X320Y330D03*
X161Y138D03*
X214Y230D03*
X373Y305D03*
X395Y245D03*
X370Y230D03*
X345D03*
X320D03*
X295D03*
X270Y245D03*
X245D03*
X220D03*
X395Y295D03*
X314Y376D03*
X370Y295D03*
X345D03*
X320D03*
X295D03*
X270D03*
X245D03*
X220D03*
X217Y323D03*
X245Y320D03*
X270D03*
X295D03*
X320D03*
X345D03*
X370D03*
X395D03*
X326Y347D03*
X313Y278D03*
X207Y321D03*
X182Y204D03*
X209Y305D03*
X187Y207D03*
X222Y303D03*
X247Y127D03*
X344Y252D03*
X200Y222D03*
X232Y322D03*
X262Y147D03*
X290Y280D03*
X197Y372D03*
X270Y150D03*
X186Y153D03*
X313Y341D03*
X362Y342D03*
X367Y301D03*
X335Y295D03*
X276Y298D03*
X300D03*
X370Y274D03*
X362D03*
X370Y280D03*
X362D03*
X266D03*
X183Y346D03*
X182Y330D03*
X217Y329D03*
X261Y330D03*
X387Y148D03*
X209Y298D03*
X195Y280D03*
X312Y297D03*
X220Y226D03*
X395Y220D03*
X370Y205D03*
X345D03*
X320D03*
X295D03*
X270Y220D03*
X245D03*
X380Y380D03*
X355D03*
X330D03*
X305D03*
X270Y355D03*
X250Y351D03*
X233Y328D03*
X187Y284D03*
X160Y177D03*
X162Y305D03*
X197Y272D03*
X173Y303D03*
X213Y247D03*
X219Y155D03*
X224D03*
X219Y150D03*
X224D03*
X235Y155D03*
Y150D03*
X287Y364D03*
X311Y325D03*
X262Y319D03*
X337Y364D03*
X312Y362D03*
X262Y364D03*
X287Y317D03*
X337D03*
X233Y345D03*
X209Y330D03*
X206Y345D03*
Y350D03*
X191Y330D03*
X201Y345D03*
X196D03*
X191D03*
X201Y350D03*
X196D03*
X191D03*
X166Y250D03*
X160D03*
X172D03*
X160Y245D03*
X166D03*
X172D03*
X160Y230D03*
X172D03*
X164Y151D03*
X395Y270D03*
X362Y262D03*
X337D03*
X312D03*
X270Y270D03*
X245D03*
X220D03*
X286Y253D03*
X272Y345D03*
X211Y128D03*
X251Y130D03*
X270Y130D03*
X295D03*
X320D03*
X345D03*
X370D03*
X395D03*
X280Y154D03*
X295Y155D03*
X320D03*
X345D03*
X370D03*
X395D03*
X212Y162D03*
X264Y153D03*
X226Y197D03*
X262Y200D03*
X394Y181D03*
X370Y180D03*
X345D03*
X320D03*
X295D03*
X166Y278D03*
X177Y201D03*
X372Y172D03*
X355Y196D03*
X201Y248D03*
Y255D03*
X189Y272D03*
X184Y276D03*
X177Y275D03*
X172Y278D03*
X169Y205D03*
X201Y196D03*
X195Y205D03*
X153Y223D03*
X201Y230D03*
X208Y273D03*
X201Y280D03*
X175Y295D03*
X183Y305D03*
X160Y320D03*
X166Y348D03*
X184Y323D03*
X183Y354D03*
X170Y370D03*
X183Y375D03*
X226Y180D03*
X214Y380D03*
X241Y378D03*
X370Y380D03*
X345D03*
X320D03*
X266Y380D03*
X291D03*
X205Y204D03*
X217Y198D03*
X262Y172D03*
X267Y178D03*
X247Y203D03*
X242Y198D03*
X237Y201D03*
X232Y198D03*
Y128D03*
X395Y370D03*
X370D03*
X345D03*
X320D03*
X291Y373D03*
X270Y376D03*
X247Y376D03*
X222D03*
X251Y301D03*
X195Y130D03*
X170D03*
X195Y155D03*
X170Y155D03*
Y180D03*
X195Y397D03*
X187D03*
X180D03*
X228Y395D03*
X170Y395D03*
X395D03*
G54D16*
X100Y155D03*
Y150D03*
Y145D03*
X83D03*
Y150D03*
Y155D03*
X129D03*
Y150D03*
Y145D03*
X112D03*
Y150D03*
Y155D03*
X129Y205D03*
Y200D03*
Y195D03*
X112D03*
Y200D03*
Y205D03*
X100D03*
Y200D03*
Y195D03*
X83D03*
Y200D03*
Y205D03*
X72D03*
Y200D03*
Y195D03*
X55D03*
Y200D03*
Y205D03*
X44D03*
Y200D03*
Y195D03*
X27D03*
Y200D03*
Y205D03*
X44Y155D03*
Y150D03*
Y145D03*
X27D03*
Y150D03*
Y155D03*
X72D03*
Y150D03*
Y145D03*
X55D03*
Y150D03*
Y155D03*
X100Y311D03*
Y306D03*
Y301D03*
X83D03*
Y306D03*
Y311D03*
X131D03*
Y306D03*
Y301D03*
X114D03*
Y306D03*
Y311D03*
X131Y356D03*
Y351D03*
Y346D03*
X114D03*
Y351D03*
Y356D03*
X101D03*
Y351D03*
Y346D03*
X84D03*
Y351D03*
Y356D03*
X72D03*
Y351D03*
Y346D03*
X55D03*
Y351D03*
Y356D03*
X42D03*
Y351D03*
Y346D03*
X25D03*
Y351D03*
Y356D03*
X42Y311D03*
Y306D03*
Y301D03*
X25D03*
Y306D03*
Y311D03*
X72D03*
Y306D03*
Y301D03*
X55D03*
Y306D03*
Y311D03*
X306Y30D03*
Y25D03*
Y20D03*
X289D03*
Y25D03*
Y30D03*
X276D03*
Y25D03*
Y20D03*
X259D03*
Y25D03*
Y30D03*
X276Y65D03*
Y60D03*
Y55D03*
X259D03*
Y60D03*
Y65D03*
X306D03*
Y60D03*
Y55D03*
X289D03*
Y60D03*
Y65D03*
X334D03*
Y60D03*
Y55D03*
X317D03*
Y60D03*
Y65D03*
X361D03*
Y60D03*
Y55D03*
X344D03*
Y60D03*
Y65D03*
X361Y30D03*
Y25D03*
Y20D03*
X344D03*
Y25D03*
Y30D03*
X334D03*
Y25D03*
Y20D03*
X317D03*
Y25D03*
Y30D03*
X306Y311D03*
Y306D03*
Y301D03*
X289D03*
Y306D03*
Y311D03*
X278D03*
Y306D03*
Y301D03*
X261D03*
Y306D03*
Y311D03*
X362Y356D03*
Y351D03*
Y346D03*
X345D03*
Y351D03*
Y356D03*
X334D03*
Y351D03*
Y346D03*
X317D03*
Y351D03*
Y356D03*
X306D03*
Y351D03*
Y346D03*
X289D03*
Y351D03*
Y356D03*
X278D03*
Y351D03*
Y346D03*
X261D03*
Y351D03*
Y356D03*
X362Y311D03*
Y306D03*
Y301D03*
X345D03*
Y306D03*
Y311D03*
X334D03*
Y306D03*
Y301D03*
X317D03*
Y306D03*
Y311D03*
G54D17*
X145Y222D03*
Y228D03*
Y232D03*
Y238D03*
Y242D03*
Y248D03*
Y252D03*
Y258D03*
X224Y78D03*
Y72D03*
Y68D03*
Y62D03*
Y58D03*
Y52D03*
Y48D03*
Y42D03*
X175D03*
Y48D03*
Y52D03*
Y58D03*
Y62D03*
Y68D03*
Y72D03*
Y78D03*
X254Y178D03*
Y172D03*
Y168D03*
Y162D03*
Y158D03*
Y152D03*
Y148D03*
Y142D03*
X205D03*
Y148D03*
Y152D03*
Y158D03*
Y162D03*
Y168D03*
Y172D03*
Y178D03*
X224Y358D03*
Y352D03*
Y348D03*
Y342D03*
Y338D03*
Y332D03*
Y328D03*
Y322D03*
X175D03*
Y328D03*
Y332D03*
Y338D03*
Y342D03*
Y348D03*
Y352D03*
Y358D03*
X194Y258D03*
Y252D03*
Y248D03*
Y242D03*
Y238D03*
Y232D03*
Y228D03*
Y222D03*
G54D18*
X200Y60D03*
X230Y160D03*
X200Y340D03*
X170Y240D03*
G54D19*
X182Y84D03*
X187D03*
X192D03*
X197D03*
X202D03*
X207D03*
X212D03*
X217D03*
Y36D03*
X212D03*
X207D03*
X202D03*
X197D03*
X192D03*
X187D03*
X182D03*
X212Y184D03*
X217D03*
X222D03*
X227D03*
X232D03*
X237D03*
X242D03*
X247D03*
Y136D03*
X242D03*
X237D03*
X232D03*
X227D03*
X222D03*
X217D03*
X212D03*
X182Y364D03*
X187D03*
X192D03*
X197D03*
X202D03*
X207D03*
X212D03*
X217D03*
Y316D03*
X212D03*
X207D03*
X202D03*
X197D03*
X192D03*
X187D03*
X182D03*
X152Y264D03*
X157D03*
X162D03*
X167D03*
X172D03*
X177D03*
X182D03*
X187D03*
Y216D03*
X182D03*
X177D03*
X172D03*
X167D03*
X162D03*
X157D03*
X152D03*
M02*
