M48
;DRILL file {Pcbnew (2013-mar-13)-testing} date Mon 26 Aug 2013 08:11:54 AM PDT
;FORMAT={2:4/ absolute / inch / suppress trailing zeros}
FMAT,2
INCH,LZ
T1C0.012
T2C0.040
T3C0.055
%
G90
G05
M72
T1
X021582Y-02728
X021626Y-028933
X021632Y-030007
X021696Y-026491
X021727Y-027792
X021763Y-028619
X021776Y-027048
X021783Y-028095
X021881Y-027511
X021907Y-030166
X021944Y-026791
X021957Y-025699
X021958Y-026209
X021959Y-029327
X023512Y-025155
X023545Y-025455
X02363Y-029282
X025268Y-025488
X025341Y-025057
X025357Y-028393
X025384Y-028093
X02542Y-027737
X02556Y-026074
X02558Y-027294
X025667Y-02677
X026778Y-024982
X027175Y-031098
X028085Y-032248
X029103Y-030304
X029103Y-031546
X029157Y-026782
X029381Y-028171
X029393Y-029992
X029435Y-031479
X029537Y-031903
X029553Y-029068
X029614Y-030294
X02964Y-027673
X029693Y-027316
X029697Y-026572
X02976Y-027014
X029762Y-030879
X029772Y-028858
X02983Y-026245
X029831Y-025633
X029832Y-029213
X029848Y-029926
X029875Y-024963
X030782Y-024356
X031394Y-025601
X031583Y-030959
X031605Y-029334
X032293Y-024401
X033206Y-028346
X033219Y-025419
X033287Y-028046
X033298Y-027746
X033367Y-02741
X033437Y-025841
X033561Y-026862
T2
X020559Y-022894
X020559Y-033433
X021559Y-022894
X021559Y-033433
X022559Y-022894
X022559Y-033433
X023559Y-022894
X023559Y-033433
X023622Y-032329
X024559Y-022894
X024559Y-033433
X025559Y-022894
X025559Y-033433
X026559Y-022894
X026559Y-033433
X027559Y-022894
X027559Y-033433
X028559Y-022894
X028559Y-033433
X029559Y-022894
X029559Y-033433
X030559Y-022894
X030559Y-033433
X031496Y-032329
X031559Y-022894
X031559Y-033433
X032559Y-022894
X032559Y-033433
X033559Y-022894
X033559Y-033433
X034559Y-022894
X034559Y-033433
T3
X023622Y-024089
X031496Y-024089
T0
M30
