G04 (created by PCBNEW (2013-mar-13)-testing) date Mon 26 Aug 2013 08:11:51 AM PDT*
%MOIN*%
G04 Gerber Fmt 3.4, Leading zero omitted, Abs format*
%FSLAX34Y34*%
G01*
G70*
G90*
G04 APERTURE LIST*
%ADD10C,0.005906*%
%ADD11C,0.008000*%
%ADD12C,0.015000*%
%ADD13C,0.006000*%
%ADD14C,0.004700*%
%ADD15C,0.004000*%
%ADD16C,0.004500*%
G04 APERTURE END LIST*
G54D10*
G54D11*
X31743Y-20386D02*
X31743Y-20653D01*
X31838Y-20234D02*
X31933Y-20520D01*
X31686Y-20520D01*
X31533Y-20501D02*
X31228Y-20501D01*
X31038Y-20653D02*
X31038Y-20253D01*
X30905Y-20539D01*
X30771Y-20253D01*
X30771Y-20653D01*
X30409Y-20653D02*
X30409Y-20443D01*
X30428Y-20405D01*
X30466Y-20386D01*
X30543Y-20386D01*
X30581Y-20405D01*
X30409Y-20634D02*
X30447Y-20653D01*
X30543Y-20653D01*
X30581Y-20634D01*
X30600Y-20596D01*
X30600Y-20558D01*
X30581Y-20520D01*
X30543Y-20501D01*
X30447Y-20501D01*
X30409Y-20481D01*
X30276Y-20386D02*
X30124Y-20386D01*
X30219Y-20253D02*
X30219Y-20596D01*
X30200Y-20634D01*
X30162Y-20653D01*
X30124Y-20653D01*
X29990Y-20653D02*
X29990Y-20386D01*
X29990Y-20462D02*
X29971Y-20424D01*
X29952Y-20405D01*
X29914Y-20386D01*
X29876Y-20386D01*
X29743Y-20653D02*
X29743Y-20386D01*
X29743Y-20253D02*
X29762Y-20272D01*
X29743Y-20291D01*
X29724Y-20272D01*
X29743Y-20253D01*
X29743Y-20291D01*
X29590Y-20653D02*
X29381Y-20386D01*
X29590Y-20386D02*
X29381Y-20653D01*
X28924Y-20653D02*
X28924Y-20253D01*
X28790Y-20539D01*
X28657Y-20253D01*
X28657Y-20653D01*
X28486Y-20539D02*
X28295Y-20539D01*
X28524Y-20653D02*
X28390Y-20253D01*
X28257Y-20653D01*
X28162Y-20253D02*
X27895Y-20653D01*
X27895Y-20253D02*
X28162Y-20653D01*
X27571Y-20253D02*
X27647Y-20253D01*
X27686Y-20272D01*
X27705Y-20291D01*
X27743Y-20348D01*
X27762Y-20424D01*
X27762Y-20577D01*
X27743Y-20615D01*
X27724Y-20634D01*
X27686Y-20653D01*
X27609Y-20653D01*
X27571Y-20634D01*
X27552Y-20615D01*
X27533Y-20577D01*
X27533Y-20481D01*
X27552Y-20443D01*
X27571Y-20424D01*
X27609Y-20405D01*
X27686Y-20405D01*
X27724Y-20424D01*
X27743Y-20443D01*
X27762Y-20481D01*
X27343Y-20653D02*
X27266Y-20653D01*
X27228Y-20634D01*
X27209Y-20615D01*
X27171Y-20558D01*
X27152Y-20481D01*
X27152Y-20329D01*
X27171Y-20291D01*
X27190Y-20272D01*
X27228Y-20253D01*
X27305Y-20253D01*
X27343Y-20272D01*
X27362Y-20291D01*
X27381Y-20329D01*
X27381Y-20424D01*
X27362Y-20462D01*
X27343Y-20481D01*
X27305Y-20501D01*
X27228Y-20501D01*
X27190Y-20481D01*
X27171Y-20462D01*
X27152Y-20424D01*
X26809Y-20253D02*
X26886Y-20253D01*
X26924Y-20272D01*
X26943Y-20291D01*
X26981Y-20348D01*
X27000Y-20424D01*
X27000Y-20577D01*
X26981Y-20615D01*
X26962Y-20634D01*
X26924Y-20653D01*
X26847Y-20653D01*
X26809Y-20634D01*
X26790Y-20615D01*
X26771Y-20577D01*
X26771Y-20481D01*
X26790Y-20443D01*
X26809Y-20424D01*
X26847Y-20405D01*
X26924Y-20405D01*
X26962Y-20424D01*
X26981Y-20443D01*
X27000Y-20481D01*
X26524Y-20253D02*
X26486Y-20253D01*
X26447Y-20272D01*
X26428Y-20291D01*
X26409Y-20329D01*
X26390Y-20405D01*
X26390Y-20501D01*
X26409Y-20577D01*
X26428Y-20615D01*
X26447Y-20634D01*
X26486Y-20653D01*
X26524Y-20653D01*
X26562Y-20634D01*
X26581Y-20615D01*
X26600Y-20577D01*
X26619Y-20501D01*
X26619Y-20405D01*
X26600Y-20329D01*
X26581Y-20291D01*
X26562Y-20272D01*
X26524Y-20253D01*
X25914Y-20653D02*
X25914Y-20253D01*
X25819Y-20253D01*
X25762Y-20272D01*
X25724Y-20310D01*
X25705Y-20348D01*
X25686Y-20424D01*
X25686Y-20481D01*
X25705Y-20558D01*
X25724Y-20596D01*
X25762Y-20634D01*
X25819Y-20653D01*
X25914Y-20653D01*
X25514Y-20653D02*
X25514Y-20386D01*
X25514Y-20462D02*
X25495Y-20424D01*
X25476Y-20405D01*
X25438Y-20386D01*
X25400Y-20386D01*
X25266Y-20653D02*
X25266Y-20386D01*
X25266Y-20253D02*
X25286Y-20272D01*
X25266Y-20291D01*
X25247Y-20272D01*
X25266Y-20253D01*
X25266Y-20291D01*
X25114Y-20386D02*
X25019Y-20653D01*
X24924Y-20386D01*
X24619Y-20634D02*
X24657Y-20653D01*
X24733Y-20653D01*
X24771Y-20634D01*
X24790Y-20596D01*
X24790Y-20443D01*
X24771Y-20405D01*
X24733Y-20386D01*
X24657Y-20386D01*
X24619Y-20405D01*
X24600Y-20443D01*
X24600Y-20481D01*
X24790Y-20520D01*
X24428Y-20653D02*
X24428Y-20386D01*
X24428Y-20462D02*
X24409Y-20424D01*
X24390Y-20405D01*
X24352Y-20386D01*
X24314Y-20386D01*
X23914Y-20386D02*
X23819Y-20653D01*
X23724Y-20386D01*
X23495Y-20253D02*
X23457Y-20253D01*
X23419Y-20272D01*
X23400Y-20291D01*
X23381Y-20329D01*
X23362Y-20405D01*
X23362Y-20501D01*
X23381Y-20577D01*
X23400Y-20615D01*
X23419Y-20634D01*
X23457Y-20653D01*
X23495Y-20653D01*
X23533Y-20634D01*
X23552Y-20615D01*
X23571Y-20577D01*
X23590Y-20501D01*
X23590Y-20405D01*
X23571Y-20329D01*
X23552Y-20291D01*
X23533Y-20272D01*
X23495Y-20253D01*
X23190Y-20615D02*
X23171Y-20634D01*
X23190Y-20653D01*
X23209Y-20634D01*
X23190Y-20615D01*
X23190Y-20653D01*
X22790Y-20653D02*
X23019Y-20653D01*
X22905Y-20653D02*
X22905Y-20253D01*
X22943Y-20310D01*
X22981Y-20348D01*
X23019Y-20367D01*
X29857Y-21026D02*
X29781Y-21293D01*
X29705Y-21102D01*
X29628Y-21293D01*
X29552Y-21026D01*
X29438Y-21026D02*
X29362Y-21293D01*
X29286Y-21102D01*
X29209Y-21293D01*
X29133Y-21026D01*
X29019Y-21026D02*
X28943Y-21293D01*
X28866Y-21102D01*
X28790Y-21293D01*
X28714Y-21026D01*
X28562Y-21255D02*
X28543Y-21274D01*
X28562Y-21293D01*
X28581Y-21274D01*
X28562Y-21255D01*
X28562Y-21293D01*
X28371Y-21293D02*
X28371Y-21026D01*
X28371Y-20893D02*
X28390Y-20912D01*
X28371Y-20931D01*
X28352Y-20912D01*
X28371Y-20893D01*
X28371Y-20931D01*
X28124Y-21293D02*
X28162Y-21274D01*
X28181Y-21255D01*
X28200Y-21217D01*
X28200Y-21102D01*
X28181Y-21064D01*
X28162Y-21045D01*
X28124Y-21026D01*
X28066Y-21026D01*
X28028Y-21045D01*
X28009Y-21064D01*
X27990Y-21102D01*
X27990Y-21217D01*
X28009Y-21255D01*
X28028Y-21274D01*
X28066Y-21293D01*
X28124Y-21293D01*
X27819Y-21293D02*
X27819Y-21026D01*
X27819Y-21102D02*
X27800Y-21064D01*
X27781Y-21045D01*
X27743Y-21026D01*
X27705Y-21026D01*
X27514Y-21293D02*
X27552Y-21274D01*
X27571Y-21255D01*
X27590Y-21217D01*
X27590Y-21102D01*
X27571Y-21064D01*
X27552Y-21045D01*
X27514Y-21026D01*
X27457Y-21026D01*
X27419Y-21045D01*
X27400Y-21064D01*
X27381Y-21102D01*
X27381Y-21217D01*
X27400Y-21255D01*
X27419Y-21274D01*
X27457Y-21293D01*
X27514Y-21293D01*
X27038Y-21293D02*
X27038Y-20893D01*
X27038Y-21274D02*
X27076Y-21293D01*
X27152Y-21293D01*
X27190Y-21274D01*
X27209Y-21255D01*
X27228Y-21217D01*
X27228Y-21102D01*
X27209Y-21064D01*
X27190Y-21045D01*
X27152Y-21026D01*
X27076Y-21026D01*
X27038Y-21045D01*
X26695Y-21274D02*
X26733Y-21293D01*
X26809Y-21293D01*
X26847Y-21274D01*
X26866Y-21236D01*
X26866Y-21083D01*
X26847Y-21045D01*
X26809Y-21026D01*
X26733Y-21026D01*
X26695Y-21045D01*
X26676Y-21083D01*
X26676Y-21121D01*
X26866Y-21160D01*
X26447Y-21293D02*
X26486Y-21274D01*
X26505Y-21255D01*
X26524Y-21217D01*
X26524Y-21102D01*
X26505Y-21064D01*
X26486Y-21045D01*
X26447Y-21026D01*
X26390Y-21026D01*
X26352Y-21045D01*
X26333Y-21064D01*
X26314Y-21102D01*
X26314Y-21217D01*
X26333Y-21255D01*
X26352Y-21274D01*
X26390Y-21293D01*
X26447Y-21293D01*
X26143Y-21255D02*
X26124Y-21274D01*
X26143Y-21293D01*
X26162Y-21274D01*
X26143Y-21255D01*
X26143Y-21293D01*
X25781Y-21274D02*
X25819Y-21293D01*
X25895Y-21293D01*
X25933Y-21274D01*
X25952Y-21255D01*
X25971Y-21217D01*
X25971Y-21102D01*
X25952Y-21064D01*
X25933Y-21045D01*
X25895Y-21026D01*
X25819Y-21026D01*
X25781Y-21045D01*
X25552Y-21293D02*
X25590Y-21274D01*
X25609Y-21255D01*
X25628Y-21217D01*
X25628Y-21102D01*
X25609Y-21064D01*
X25590Y-21045D01*
X25552Y-21026D01*
X25495Y-21026D01*
X25457Y-21045D01*
X25438Y-21064D01*
X25419Y-21102D01*
X25419Y-21217D01*
X25438Y-21255D01*
X25457Y-21274D01*
X25495Y-21293D01*
X25552Y-21293D01*
X25247Y-21293D02*
X25247Y-21026D01*
X25247Y-21064D02*
X25228Y-21045D01*
X25190Y-21026D01*
X25133Y-21026D01*
X25095Y-21045D01*
X25076Y-21083D01*
X25076Y-21293D01*
X25076Y-21083D02*
X25057Y-21045D01*
X25019Y-21026D01*
X24962Y-21026D01*
X24924Y-21045D01*
X24905Y-21083D01*
X24905Y-21293D01*
X34979Y-35010D02*
X34921Y-35029D01*
X34902Y-35048D01*
X34883Y-35086D01*
X34883Y-35144D01*
X34902Y-35182D01*
X34921Y-35201D01*
X34959Y-35220D01*
X35112Y-35220D01*
X35112Y-34820D01*
X34979Y-34820D01*
X34940Y-34839D01*
X34921Y-34858D01*
X34902Y-34896D01*
X34902Y-34934D01*
X34921Y-34972D01*
X34940Y-34991D01*
X34979Y-35010D01*
X35112Y-35010D01*
X34636Y-34820D02*
X34559Y-34820D01*
X34521Y-34839D01*
X34483Y-34877D01*
X34464Y-34953D01*
X34464Y-35086D01*
X34483Y-35163D01*
X34521Y-35201D01*
X34559Y-35220D01*
X34636Y-35220D01*
X34674Y-35201D01*
X34712Y-35163D01*
X34731Y-35086D01*
X34731Y-34953D01*
X34712Y-34877D01*
X34674Y-34839D01*
X34636Y-34820D01*
X34350Y-34820D02*
X34121Y-34820D01*
X34236Y-35220D02*
X34236Y-34820D01*
X35169Y-20056D02*
X34940Y-20056D01*
X35055Y-20456D02*
X35055Y-20056D01*
X34731Y-20056D02*
X34655Y-20056D01*
X34617Y-20075D01*
X34579Y-20113D01*
X34559Y-20189D01*
X34559Y-20323D01*
X34579Y-20399D01*
X34617Y-20437D01*
X34655Y-20456D01*
X34731Y-20456D01*
X34769Y-20437D01*
X34807Y-20399D01*
X34826Y-20323D01*
X34826Y-20189D01*
X34807Y-20113D01*
X34769Y-20075D01*
X34731Y-20056D01*
X34388Y-20456D02*
X34388Y-20056D01*
X34236Y-20056D01*
X34198Y-20075D01*
X34179Y-20094D01*
X34159Y-20132D01*
X34159Y-20189D01*
X34179Y-20227D01*
X34198Y-20247D01*
X34236Y-20266D01*
X34388Y-20266D01*
G54D12*
X25272Y-26409D02*
X25272Y-29209D01*
X25272Y-29209D02*
X21972Y-29209D01*
X21972Y-29209D02*
X21972Y-25909D01*
X21972Y-25909D02*
X24722Y-25909D01*
X24722Y-25909D02*
X25272Y-26409D01*
G54D13*
X26804Y-29159D02*
X27604Y-29159D01*
X27604Y-29159D02*
X27604Y-29659D01*
X27604Y-29659D02*
X26804Y-29659D01*
X26804Y-29659D02*
X26804Y-29159D01*
G54D12*
X33146Y-26409D02*
X33146Y-29209D01*
X33146Y-29209D02*
X29846Y-29209D01*
X29846Y-29209D02*
X29846Y-25909D01*
X29846Y-25909D02*
X32596Y-25909D01*
X32596Y-25909D02*
X33146Y-26409D01*
G54D14*
X20866Y-31869D02*
X21141Y-31869D01*
X20472Y-31869D02*
X20197Y-31869D01*
X20866Y-32381D02*
X21141Y-32381D01*
X20197Y-32381D02*
X20472Y-32381D01*
X21141Y-32375D02*
X21141Y-31875D01*
X20197Y-31875D02*
X20197Y-32375D01*
X27972Y-30964D02*
X27972Y-31239D01*
X27972Y-30570D02*
X27972Y-30295D01*
X27460Y-30964D02*
X27460Y-31239D01*
X27460Y-30295D02*
X27460Y-30570D01*
X27466Y-31239D02*
X27966Y-31239D01*
X27966Y-30295D02*
X27466Y-30295D01*
X20866Y-30925D02*
X21141Y-30925D01*
X20472Y-30925D02*
X20197Y-30925D01*
X20866Y-31437D02*
X21141Y-31437D01*
X20197Y-31437D02*
X20472Y-31437D01*
X21141Y-31431D02*
X21141Y-30931D01*
X20197Y-30931D02*
X20197Y-31431D01*
G54D11*
X23936Y-25290D02*
X23936Y-25613D01*
X23917Y-25651D01*
X23898Y-25670D01*
X23860Y-25690D01*
X23784Y-25690D01*
X23746Y-25670D01*
X23727Y-25651D01*
X23708Y-25613D01*
X23708Y-25290D01*
X23308Y-25690D02*
X23536Y-25690D01*
X23422Y-25690D02*
X23422Y-25290D01*
X23460Y-25347D01*
X23498Y-25385D01*
X23536Y-25404D01*
X24869Y-29980D02*
X24869Y-29580D01*
X24735Y-29865D01*
X24602Y-29580D01*
X24602Y-29980D01*
X24431Y-29865D02*
X24240Y-29865D01*
X24469Y-29980D02*
X24335Y-29580D01*
X24202Y-29980D01*
X24107Y-29580D02*
X23840Y-29980D01*
X23840Y-29580D02*
X24107Y-29980D01*
X23516Y-29580D02*
X23592Y-29580D01*
X23631Y-29599D01*
X23650Y-29618D01*
X23688Y-29675D01*
X23707Y-29751D01*
X23707Y-29903D01*
X23688Y-29941D01*
X23669Y-29960D01*
X23631Y-29980D01*
X23554Y-29980D01*
X23516Y-29960D01*
X23497Y-29941D01*
X23478Y-29903D01*
X23478Y-29808D01*
X23497Y-29770D01*
X23516Y-29751D01*
X23554Y-29732D01*
X23631Y-29732D01*
X23669Y-29751D01*
X23688Y-29770D01*
X23707Y-29808D01*
X23288Y-29980D02*
X23212Y-29980D01*
X23173Y-29960D01*
X23154Y-29941D01*
X23116Y-29884D01*
X23097Y-29808D01*
X23097Y-29656D01*
X23116Y-29618D01*
X23135Y-29599D01*
X23173Y-29580D01*
X23250Y-29580D01*
X23288Y-29599D01*
X23307Y-29618D01*
X23326Y-29656D01*
X23326Y-29751D01*
X23307Y-29789D01*
X23288Y-29808D01*
X23250Y-29827D01*
X23173Y-29827D01*
X23135Y-29808D01*
X23116Y-29789D01*
X23097Y-29751D01*
X22754Y-29580D02*
X22831Y-29580D01*
X22869Y-29599D01*
X22888Y-29618D01*
X22926Y-29675D01*
X22945Y-29751D01*
X22945Y-29903D01*
X22926Y-29941D01*
X22907Y-29960D01*
X22869Y-29980D01*
X22792Y-29980D01*
X22754Y-29960D01*
X22735Y-29941D01*
X22716Y-29903D01*
X22716Y-29808D01*
X22735Y-29770D01*
X22754Y-29751D01*
X22792Y-29732D01*
X22869Y-29732D01*
X22907Y-29751D01*
X22926Y-29770D01*
X22945Y-29808D01*
X22469Y-29580D02*
X22431Y-29580D01*
X22392Y-29599D01*
X22373Y-29618D01*
X22354Y-29656D01*
X22335Y-29732D01*
X22335Y-29827D01*
X22354Y-29903D01*
X22373Y-29941D01*
X22392Y-29960D01*
X22431Y-29980D01*
X22469Y-29980D01*
X22507Y-29960D01*
X22526Y-29941D01*
X22545Y-29903D01*
X22564Y-29827D01*
X22564Y-29732D01*
X22545Y-29656D01*
X22526Y-29618D01*
X22507Y-29599D01*
X22469Y-29580D01*
G54D15*
X26648Y-29299D02*
X26648Y-29461D01*
X26638Y-29480D01*
X26629Y-29490D01*
X26610Y-29499D01*
X26572Y-29499D01*
X26553Y-29490D01*
X26543Y-29480D01*
X26534Y-29461D01*
X26534Y-29299D01*
X26448Y-29318D02*
X26438Y-29309D01*
X26419Y-29299D01*
X26372Y-29299D01*
X26353Y-29309D01*
X26343Y-29318D01*
X26334Y-29338D01*
X26334Y-29357D01*
X26343Y-29385D01*
X26457Y-29499D01*
X26334Y-29499D01*
G54D11*
X31810Y-25290D02*
X31810Y-25613D01*
X31791Y-25651D01*
X31772Y-25670D01*
X31734Y-25690D01*
X31658Y-25690D01*
X31620Y-25670D01*
X31601Y-25651D01*
X31582Y-25613D01*
X31582Y-25290D01*
X31429Y-25290D02*
X31182Y-25290D01*
X31315Y-25442D01*
X31258Y-25442D01*
X31220Y-25461D01*
X31201Y-25480D01*
X31182Y-25518D01*
X31182Y-25613D01*
X31201Y-25651D01*
X31220Y-25670D01*
X31258Y-25690D01*
X31372Y-25690D01*
X31410Y-25670D01*
X31429Y-25651D01*
X32743Y-29980D02*
X32743Y-29580D01*
X32609Y-29865D01*
X32476Y-29580D01*
X32476Y-29980D01*
X32305Y-29865D02*
X32114Y-29865D01*
X32343Y-29980D02*
X32209Y-29580D01*
X32076Y-29980D01*
X31981Y-29580D02*
X31714Y-29980D01*
X31714Y-29580D02*
X31981Y-29980D01*
X31390Y-29580D02*
X31467Y-29580D01*
X31505Y-29599D01*
X31524Y-29618D01*
X31562Y-29675D01*
X31581Y-29751D01*
X31581Y-29903D01*
X31562Y-29941D01*
X31543Y-29960D01*
X31505Y-29980D01*
X31428Y-29980D01*
X31390Y-29960D01*
X31371Y-29941D01*
X31352Y-29903D01*
X31352Y-29808D01*
X31371Y-29770D01*
X31390Y-29751D01*
X31428Y-29732D01*
X31505Y-29732D01*
X31543Y-29751D01*
X31562Y-29770D01*
X31581Y-29808D01*
X31162Y-29980D02*
X31086Y-29980D01*
X31047Y-29960D01*
X31028Y-29941D01*
X30990Y-29884D01*
X30971Y-29808D01*
X30971Y-29656D01*
X30990Y-29618D01*
X31009Y-29599D01*
X31047Y-29580D01*
X31124Y-29580D01*
X31162Y-29599D01*
X31181Y-29618D01*
X31200Y-29656D01*
X31200Y-29751D01*
X31181Y-29789D01*
X31162Y-29808D01*
X31124Y-29827D01*
X31047Y-29827D01*
X31009Y-29808D01*
X30990Y-29789D01*
X30971Y-29751D01*
X30628Y-29580D02*
X30705Y-29580D01*
X30743Y-29599D01*
X30762Y-29618D01*
X30800Y-29675D01*
X30819Y-29751D01*
X30819Y-29903D01*
X30800Y-29941D01*
X30781Y-29960D01*
X30743Y-29980D01*
X30667Y-29980D01*
X30628Y-29960D01*
X30609Y-29941D01*
X30590Y-29903D01*
X30590Y-29808D01*
X30609Y-29770D01*
X30628Y-29751D01*
X30667Y-29732D01*
X30743Y-29732D01*
X30781Y-29751D01*
X30800Y-29770D01*
X30819Y-29808D01*
X30343Y-29580D02*
X30305Y-29580D01*
X30267Y-29599D01*
X30247Y-29618D01*
X30228Y-29656D01*
X30209Y-29732D01*
X30209Y-29827D01*
X30228Y-29903D01*
X30247Y-29941D01*
X30267Y-29960D01*
X30305Y-29980D01*
X30343Y-29980D01*
X30381Y-29960D01*
X30400Y-29941D01*
X30419Y-29903D01*
X30438Y-29827D01*
X30438Y-29732D01*
X30419Y-29656D01*
X30400Y-29618D01*
X30381Y-29599D01*
X30343Y-29580D01*
G54D15*
X21449Y-32072D02*
X21458Y-32063D01*
X21468Y-32034D01*
X21468Y-32015D01*
X21458Y-31987D01*
X21439Y-31968D01*
X21420Y-31958D01*
X21382Y-31949D01*
X21354Y-31949D01*
X21316Y-31958D01*
X21297Y-31968D01*
X21277Y-31987D01*
X21268Y-32015D01*
X21268Y-32034D01*
X21277Y-32063D01*
X21287Y-32072D01*
X21468Y-32263D02*
X21468Y-32149D01*
X21468Y-32206D02*
X21268Y-32206D01*
X21297Y-32187D01*
X21316Y-32168D01*
X21325Y-32149D01*
G54D16*
X19976Y-31915D02*
X20109Y-31915D01*
X19900Y-31873D02*
X20043Y-31830D01*
X20043Y-31941D01*
X19909Y-31993D02*
X19909Y-32113D01*
X20109Y-32035D01*
X19976Y-32258D02*
X20109Y-32258D01*
X19976Y-32181D02*
X20081Y-32181D01*
X20100Y-32190D01*
X20109Y-32207D01*
X20109Y-32233D01*
X20100Y-32250D01*
X20090Y-32258D01*
X20005Y-32404D02*
X20005Y-32344D01*
X20109Y-32344D02*
X19909Y-32344D01*
X19909Y-32430D01*
G54D15*
X27749Y-31528D02*
X27759Y-31537D01*
X27787Y-31547D01*
X27807Y-31547D01*
X27835Y-31537D01*
X27854Y-31518D01*
X27864Y-31499D01*
X27873Y-31461D01*
X27873Y-31432D01*
X27864Y-31394D01*
X27854Y-31375D01*
X27835Y-31356D01*
X27807Y-31347D01*
X27787Y-31347D01*
X27759Y-31356D01*
X27749Y-31366D01*
X27673Y-31366D02*
X27664Y-31356D01*
X27645Y-31347D01*
X27597Y-31347D01*
X27578Y-31356D01*
X27568Y-31366D01*
X27559Y-31385D01*
X27559Y-31404D01*
X27568Y-31432D01*
X27683Y-31547D01*
X27559Y-31547D01*
G54D16*
X28366Y-29929D02*
X28349Y-29929D01*
X28332Y-29939D01*
X28323Y-29948D01*
X28315Y-29967D01*
X28306Y-30006D01*
X28306Y-30053D01*
X28315Y-30091D01*
X28323Y-30110D01*
X28332Y-30120D01*
X28349Y-30129D01*
X28366Y-30129D01*
X28383Y-30120D01*
X28392Y-30110D01*
X28400Y-30091D01*
X28409Y-30053D01*
X28409Y-30006D01*
X28400Y-29967D01*
X28392Y-29948D01*
X28383Y-29939D01*
X28366Y-29929D01*
X28229Y-30110D02*
X28220Y-30120D01*
X28229Y-30129D01*
X28238Y-30120D01*
X28229Y-30110D01*
X28229Y-30129D01*
X28049Y-30129D02*
X28152Y-30129D01*
X28100Y-30129D02*
X28100Y-29929D01*
X28118Y-29958D01*
X28135Y-29977D01*
X28152Y-29986D01*
X27895Y-29996D02*
X27895Y-30129D01*
X27972Y-29996D02*
X27972Y-30101D01*
X27963Y-30120D01*
X27946Y-30129D01*
X27920Y-30129D01*
X27903Y-30120D01*
X27895Y-30110D01*
X27749Y-30025D02*
X27809Y-30025D01*
X27809Y-30129D02*
X27809Y-29929D01*
X27723Y-29929D01*
G54D15*
X21449Y-31128D02*
X21458Y-31118D01*
X21468Y-31089D01*
X21468Y-31070D01*
X21458Y-31042D01*
X21439Y-31023D01*
X21420Y-31013D01*
X21382Y-31004D01*
X21354Y-31004D01*
X21316Y-31013D01*
X21297Y-31023D01*
X21277Y-31042D01*
X21268Y-31070D01*
X21268Y-31089D01*
X21277Y-31118D01*
X21287Y-31128D01*
X21268Y-31194D02*
X21268Y-31318D01*
X21344Y-31251D01*
X21344Y-31280D01*
X21354Y-31299D01*
X21363Y-31309D01*
X21382Y-31318D01*
X21430Y-31318D01*
X21449Y-31309D01*
X21458Y-31299D01*
X21468Y-31280D01*
X21468Y-31223D01*
X21458Y-31204D01*
X21449Y-31194D01*
G54D16*
X19909Y-30885D02*
X19909Y-30902D01*
X19919Y-30919D01*
X19928Y-30928D01*
X19947Y-30936D01*
X19985Y-30945D01*
X20033Y-30945D01*
X20071Y-30936D01*
X20090Y-30928D01*
X20100Y-30919D01*
X20109Y-30902D01*
X20109Y-30885D01*
X20100Y-30868D01*
X20090Y-30859D01*
X20071Y-30851D01*
X20033Y-30842D01*
X19985Y-30842D01*
X19947Y-30851D01*
X19928Y-30859D01*
X19919Y-30868D01*
X19909Y-30885D01*
X20090Y-31022D02*
X20100Y-31031D01*
X20109Y-31022D01*
X20100Y-31013D01*
X20090Y-31022D01*
X20109Y-31022D01*
X20109Y-31202D02*
X20109Y-31099D01*
X20109Y-31151D02*
X19909Y-31151D01*
X19938Y-31133D01*
X19957Y-31116D01*
X19966Y-31099D01*
X19976Y-31356D02*
X20109Y-31356D01*
X19976Y-31279D02*
X20081Y-31279D01*
X20100Y-31288D01*
X20109Y-31305D01*
X20109Y-31331D01*
X20100Y-31348D01*
X20090Y-31356D01*
X20005Y-31502D02*
X20005Y-31442D01*
X20109Y-31442D02*
X19909Y-31442D01*
X19909Y-31528D01*
M02*
