G04 (created by PCBNEW (2013-mar-13)-testing) date Mon 26 Aug 2013 08:11:51 AM PDT*
%MOIN*%
G04 Gerber Fmt 3.4, Leading zero omitted, Abs format*
%FSLAX34Y34*%
G01*
G70*
G90*
G04 APERTURE LIST*
%ADD10C,0.005906*%
%ADD11R,0.075748X0.075748*%
%ADD12C,0.075748*%
%ADD13R,0.134748X0.041248*%
%ADD14C,0.080748*%
%ADD15C,0.065748*%
G04 APERTURE END LIST*
G54D10*
G54D11*
X20559Y-33433D03*
G54D12*
X21559Y-33433D03*
X22559Y-33433D03*
X23559Y-33433D03*
X24559Y-33433D03*
X25559Y-33433D03*
X26559Y-33433D03*
X27559Y-33433D03*
X28559Y-33433D03*
X29559Y-33433D03*
X30559Y-33433D03*
X31559Y-33433D03*
X32559Y-33433D03*
X33559Y-33433D03*
X34559Y-33433D03*
G54D11*
X20559Y-22893D03*
G54D12*
X21559Y-22893D03*
X22559Y-22893D03*
X23559Y-22893D03*
X24559Y-22893D03*
X25559Y-22893D03*
X26559Y-22893D03*
X27559Y-22893D03*
X28559Y-22893D03*
X29559Y-22893D03*
X30559Y-22893D03*
X31559Y-22893D03*
X32559Y-22893D03*
X33559Y-22893D03*
X34559Y-22893D03*
G54D13*
X22734Y-24708D03*
X24509Y-24708D03*
X22734Y-25208D03*
X24509Y-25208D03*
X22734Y-25708D03*
X24509Y-25708D03*
X22734Y-26208D03*
X24509Y-26208D03*
X22734Y-26708D03*
X24509Y-26708D03*
X22734Y-27208D03*
X24509Y-27208D03*
X22734Y-27708D03*
X24509Y-27708D03*
X22734Y-28208D03*
X24509Y-28208D03*
X22734Y-28708D03*
X24509Y-28708D03*
X22734Y-29208D03*
X24509Y-29208D03*
X22734Y-29708D03*
X24509Y-29708D03*
X22734Y-30208D03*
X24509Y-30208D03*
X22734Y-30708D03*
X24509Y-30708D03*
X22734Y-31208D03*
X24509Y-31208D03*
X22734Y-31708D03*
X24509Y-31708D03*
G54D14*
X23622Y-24088D03*
G54D15*
X23622Y-32328D03*
G54D13*
X30608Y-24708D03*
X32383Y-24708D03*
X30608Y-25208D03*
X32383Y-25208D03*
X30608Y-25708D03*
X32383Y-25708D03*
X30608Y-26208D03*
X32383Y-26208D03*
X30608Y-26708D03*
X32383Y-26708D03*
X30608Y-27208D03*
X32383Y-27208D03*
X30608Y-27708D03*
X32383Y-27708D03*
X30608Y-28208D03*
X32383Y-28208D03*
X30608Y-28708D03*
X32383Y-28708D03*
X30608Y-29208D03*
X32383Y-29208D03*
X30608Y-29708D03*
X32383Y-29708D03*
X30608Y-30208D03*
X32383Y-30208D03*
X30608Y-30708D03*
X32383Y-30708D03*
X30608Y-31208D03*
X32383Y-31208D03*
X30608Y-31708D03*
X32383Y-31708D03*
G54D14*
X31496Y-24088D03*
G54D15*
X31496Y-32328D03*
M02*
