G04 (created by PCBNEW (2013-mar-13)-testing) date Mon 26 Aug 2013 08:11:51 AM PDT*
%MOIN*%
G04 Gerber Fmt 3.4, Leading zero omitted, Abs format*
%FSLAX34Y34*%
G01*
G70*
G90*
G04 APERTURE LIST*
%ADD10C,0.005906*%
%ADD11C,0.015000*%
%ADD12C,0.007874*%
%ADD13C,0.008000*%
G04 APERTURE END LIST*
G54D10*
G54D11*
X35059Y-35433D02*
X35059Y-32933D01*
X33609Y-35433D02*
X35059Y-35433D01*
X33609Y-32933D02*
X35009Y-32933D01*
X35009Y-32933D02*
X35059Y-32933D01*
X21559Y-32933D02*
X20059Y-32933D01*
X20059Y-32933D02*
X20059Y-35433D01*
X20059Y-35433D02*
X22059Y-35433D01*
X21559Y-32933D02*
X33559Y-32933D01*
X21559Y-35433D02*
X33559Y-35433D01*
X33559Y-19693D02*
X35059Y-19693D01*
X35059Y-19693D02*
X35059Y-19993D01*
X21559Y-19693D02*
X20059Y-19693D01*
X20059Y-19693D02*
X20059Y-19893D01*
X21559Y-23393D02*
X20059Y-23393D01*
X20059Y-23393D02*
X20059Y-19893D01*
X33559Y-23393D02*
X35059Y-23393D01*
X35059Y-23393D02*
X35059Y-19893D01*
X33559Y-23393D02*
X21559Y-23393D01*
X21559Y-19693D02*
X33559Y-19693D01*
G54D12*
X23772Y-32758D02*
X25322Y-32758D01*
X25322Y-23558D02*
X25322Y-32758D01*
X23622Y-23558D02*
X25322Y-23558D01*
X23622Y-23558D02*
X21922Y-23558D01*
X21922Y-23558D02*
X21922Y-24933D01*
X21922Y-24933D02*
X21922Y-32008D01*
X21922Y-32008D02*
X21922Y-32758D01*
X21922Y-32758D02*
X23772Y-32758D01*
X31646Y-32758D02*
X33196Y-32758D01*
X33196Y-23558D02*
X33196Y-32758D01*
X31496Y-23558D02*
X33196Y-23558D01*
X31496Y-23558D02*
X29796Y-23558D01*
X29796Y-23558D02*
X29796Y-24933D01*
X29796Y-24933D02*
X29796Y-32008D01*
X29796Y-32008D02*
X29796Y-32758D01*
X29796Y-32758D02*
X31646Y-32758D01*
G54D13*
X27263Y-32740D02*
X27263Y-32340D01*
X27416Y-32340D01*
X27454Y-32359D01*
X27473Y-32378D01*
X27492Y-32416D01*
X27492Y-32473D01*
X27473Y-32511D01*
X27454Y-32530D01*
X27416Y-32549D01*
X27263Y-32549D01*
X27625Y-32340D02*
X27873Y-32340D01*
X27740Y-32492D01*
X27797Y-32492D01*
X27835Y-32511D01*
X27854Y-32530D01*
X27873Y-32568D01*
X27873Y-32663D01*
X27854Y-32701D01*
X27835Y-32720D01*
X27797Y-32740D01*
X27682Y-32740D01*
X27644Y-32720D01*
X27625Y-32701D01*
X27283Y-24039D02*
X27283Y-23639D01*
X27435Y-23639D01*
X27473Y-23658D01*
X27493Y-23677D01*
X27512Y-23715D01*
X27512Y-23772D01*
X27493Y-23810D01*
X27473Y-23829D01*
X27435Y-23848D01*
X27283Y-23848D01*
X27854Y-23772D02*
X27854Y-24039D01*
X27759Y-23620D02*
X27664Y-23905D01*
X27912Y-23905D01*
X21161Y-28232D02*
X21161Y-27832D01*
X21313Y-27832D01*
X21351Y-27851D01*
X21370Y-27870D01*
X21390Y-27908D01*
X21390Y-27965D01*
X21370Y-28003D01*
X21351Y-28022D01*
X21313Y-28041D01*
X21161Y-28041D01*
X21770Y-28232D02*
X21542Y-28232D01*
X21656Y-28232D02*
X21656Y-27832D01*
X21618Y-27889D01*
X21580Y-27927D01*
X21542Y-27946D01*
X29035Y-28232D02*
X29035Y-27832D01*
X29187Y-27832D01*
X29225Y-27851D01*
X29244Y-27870D01*
X29264Y-27908D01*
X29264Y-27965D01*
X29244Y-28003D01*
X29225Y-28022D01*
X29187Y-28041D01*
X29035Y-28041D01*
X29416Y-27870D02*
X29435Y-27851D01*
X29473Y-27832D01*
X29568Y-27832D01*
X29606Y-27851D01*
X29625Y-27870D01*
X29644Y-27908D01*
X29644Y-27946D01*
X29625Y-28003D01*
X29397Y-28232D01*
X29644Y-28232D01*
M02*
