G04 (created by PCBNEW-RS274X (2011-aug-04)-testing) date Wed 17 Apr 2013 04:09:18 PM PDT*
G01*
G70*
G90*
%MOIN*%
G04 Gerber Fmt 3.4, Leading zero omitted, Abs format*
%FSLAX34Y34*%
G04 APERTURE LIST*
%ADD10C,0.006000*%
%ADD11R,0.080000X0.080000*%
%ADD12C,0.080000*%
G04 APERTURE END LIST*
G54D10*
G54D11*
X31400Y-35800D03*
G54D12*
X31400Y-34800D03*
G54D11*
X20799Y-23200D03*
G54D12*
X21799Y-23200D03*
X22799Y-23200D03*
X23799Y-23200D03*
X24799Y-23200D03*
X25799Y-23200D03*
X26799Y-23200D03*
X27799Y-23200D03*
X28799Y-23200D03*
X29799Y-23200D03*
X30799Y-23200D03*
X31799Y-23200D03*
G54D11*
X20799Y-43197D03*
G54D12*
X21799Y-43197D03*
X22799Y-43197D03*
X23799Y-43197D03*
X24799Y-43197D03*
X25799Y-43197D03*
X26799Y-43197D03*
X27799Y-43197D03*
X28799Y-43197D03*
X29799Y-43197D03*
X30799Y-43197D03*
X31799Y-43197D03*
G54D11*
X22799Y-39398D03*
G54D12*
X22799Y-38398D03*
X23799Y-39398D03*
X23799Y-38398D03*
X24799Y-39398D03*
X24799Y-38398D03*
X25799Y-39398D03*
X25799Y-38398D03*
X26799Y-39398D03*
X26799Y-38398D03*
X27799Y-39398D03*
X27799Y-38398D03*
X28799Y-39398D03*
X28799Y-38398D03*
X29799Y-39398D03*
X29799Y-38398D03*
G54D11*
X22799Y-26799D03*
G54D12*
X22799Y-25799D03*
X23799Y-26799D03*
X23799Y-25799D03*
X24799Y-26799D03*
X24799Y-25799D03*
X25799Y-26799D03*
X25799Y-25799D03*
X26799Y-26799D03*
X26799Y-25799D03*
X27799Y-26799D03*
X27799Y-25799D03*
X28799Y-26799D03*
X28799Y-25799D03*
X29799Y-26799D03*
X29799Y-25799D03*
M02*
