M48
;DRILL file {PCBnew (2011-aug-04)-testing} date Wed 17 Apr 2013 04:09:22 PM PDT
;FORMAT={2:4/ absolute / inch / suppress trailing zeros}
FMAT,2
INCH,LZ
T1C0.025
T2C0.040
%
G90
G05
M72
T1
X023262Y-032598
X023513Y-029325
X025054Y-031332
X025068Y-032791
X025098Y-033431
X025354Y-035643
X025389Y-034271
X025744Y-027785
X025865Y-034253
X026164Y-031321
X026224Y-029436
X026908Y-031554
X026914Y-032009
X026934Y-033405
X026988Y-034382
X027074Y-036563
X027415Y-029567
X027552Y-02816
X028458Y-030605
X029077Y-030284
X029117Y-028667
X029395Y-029832
X030438Y-035391
T2
X020799Y-0232
X020799Y-043197
X021799Y-0232
X021799Y-043197
X022799Y-0232
X022799Y-025799
X022799Y-026799
X022799Y-038398
X022799Y-039398
X022799Y-043197
X023799Y-0232
X023799Y-025799
X023799Y-026799
X023799Y-038398
X023799Y-039398
X023799Y-043197
X024799Y-0232
X024799Y-025799
X024799Y-026799
X024799Y-038398
X024799Y-039398
X024799Y-043197
X025799Y-0232
X025799Y-025799
X025799Y-026799
X025799Y-038398
X025799Y-039398
X025799Y-043197
X026799Y-0232
X026799Y-025799
X026799Y-026799
X026799Y-038398
X026799Y-039398
X026799Y-043197
X027799Y-0232
X027799Y-025799
X027799Y-026799
X027799Y-038398
X027799Y-039398
X027799Y-043197
X028799Y-0232
X028799Y-025799
X028799Y-026799
X028799Y-038398
X028799Y-039398
X028799Y-043197
X029799Y-0232
X029799Y-025799
X029799Y-026799
X029799Y-038398
X029799Y-039398
X029799Y-043197
X030799Y-0232
X030799Y-043197
X0314Y-0348
X0314Y-0358
X031799Y-0232
X031799Y-043197
T0
M30
