G04 (created by PCBNEW-RS274X (2011-aug-04)-testing) date Wed 17 Apr 2013 04:09:18 PM PDT*
G01*
G70*
G90*
%MOIN*%
G04 Gerber Fmt 3.4, Leading zero omitted, Abs format*
%FSLAX34Y34*%
G04 APERTURE LIST*
%ADD10C,0.006000*%
%ADD11C,0.008000*%
G04 APERTURE END LIST*
G54D10*
G54D11*
X30281Y-20973D02*
X30052Y-20973D01*
X30167Y-21573D02*
X30167Y-20973D01*
X29957Y-21173D02*
X29881Y-21573D01*
X29804Y-21287D01*
X29728Y-21573D01*
X29652Y-21173D01*
X29443Y-21573D02*
X29481Y-21544D01*
X29500Y-21516D01*
X29519Y-21459D01*
X29519Y-21287D01*
X29500Y-21230D01*
X29481Y-21201D01*
X29443Y-21173D01*
X29385Y-21173D01*
X29347Y-21201D01*
X29328Y-21230D01*
X29309Y-21287D01*
X29309Y-21459D01*
X29328Y-21516D01*
X29347Y-21544D01*
X29385Y-21573D01*
X29443Y-21573D01*
X28833Y-21573D02*
X28833Y-20973D01*
X28680Y-20973D01*
X28642Y-21001D01*
X28623Y-21030D01*
X28604Y-21087D01*
X28604Y-21173D01*
X28623Y-21230D01*
X28642Y-21259D01*
X28680Y-21287D01*
X28833Y-21287D01*
X28261Y-21573D02*
X28261Y-21259D01*
X28280Y-21201D01*
X28318Y-21173D01*
X28395Y-21173D01*
X28433Y-21201D01*
X28261Y-21544D02*
X28299Y-21573D01*
X28395Y-21573D01*
X28433Y-21544D01*
X28452Y-21487D01*
X28452Y-21430D01*
X28433Y-21373D01*
X28395Y-21344D01*
X28299Y-21344D01*
X28261Y-21316D01*
X28071Y-21173D02*
X28071Y-21573D01*
X28071Y-21230D02*
X28052Y-21201D01*
X28014Y-21173D01*
X27956Y-21173D01*
X27918Y-21201D01*
X27899Y-21259D01*
X27899Y-21573D01*
X27556Y-21544D02*
X27594Y-21573D01*
X27671Y-21573D01*
X27709Y-21544D01*
X27728Y-21487D01*
X27728Y-21259D01*
X27709Y-21201D01*
X27671Y-21173D01*
X27594Y-21173D01*
X27556Y-21201D01*
X27537Y-21259D01*
X27537Y-21316D01*
X27728Y-21373D01*
X27309Y-21573D02*
X27347Y-21544D01*
X27366Y-21487D01*
X27366Y-20973D01*
X26851Y-21573D02*
X26851Y-20973D01*
X26717Y-21401D01*
X26584Y-20973D01*
X26584Y-21573D01*
X26413Y-21401D02*
X26222Y-21401D01*
X26451Y-21573D02*
X26318Y-20973D01*
X26184Y-21573D01*
X26089Y-20973D02*
X25822Y-21573D01*
X25822Y-20973D02*
X26089Y-21573D01*
X25498Y-20973D02*
X25575Y-20973D01*
X25613Y-21001D01*
X25632Y-21030D01*
X25670Y-21116D01*
X25689Y-21230D01*
X25689Y-21459D01*
X25670Y-21516D01*
X25651Y-21544D01*
X25613Y-21573D01*
X25536Y-21573D01*
X25498Y-21544D01*
X25479Y-21516D01*
X25460Y-21459D01*
X25460Y-21316D01*
X25479Y-21259D01*
X25498Y-21230D01*
X25536Y-21201D01*
X25613Y-21201D01*
X25651Y-21230D01*
X25670Y-21259D01*
X25689Y-21316D01*
X25270Y-21573D02*
X25194Y-21573D01*
X25155Y-21544D01*
X25136Y-21516D01*
X25098Y-21430D01*
X25079Y-21316D01*
X25079Y-21087D01*
X25098Y-21030D01*
X25117Y-21001D01*
X25155Y-20973D01*
X25232Y-20973D01*
X25270Y-21001D01*
X25289Y-21030D01*
X25308Y-21087D01*
X25308Y-21230D01*
X25289Y-21287D01*
X25270Y-21316D01*
X25232Y-21344D01*
X25155Y-21344D01*
X25117Y-21316D01*
X25098Y-21287D01*
X25079Y-21230D01*
X24736Y-20973D02*
X24813Y-20973D01*
X24851Y-21001D01*
X24870Y-21030D01*
X24908Y-21116D01*
X24927Y-21230D01*
X24927Y-21459D01*
X24908Y-21516D01*
X24889Y-21544D01*
X24851Y-21573D01*
X24774Y-21573D01*
X24736Y-21544D01*
X24717Y-21516D01*
X24698Y-21459D01*
X24698Y-21316D01*
X24717Y-21259D01*
X24736Y-21230D01*
X24774Y-21201D01*
X24851Y-21201D01*
X24889Y-21230D01*
X24908Y-21259D01*
X24927Y-21316D01*
X24451Y-20973D02*
X24412Y-20973D01*
X24374Y-21001D01*
X24355Y-21030D01*
X24336Y-21087D01*
X24317Y-21201D01*
X24317Y-21344D01*
X24336Y-21459D01*
X24355Y-21516D01*
X24374Y-21544D01*
X24412Y-21573D01*
X24451Y-21573D01*
X24489Y-21544D01*
X24508Y-21516D01*
X24527Y-21459D01*
X24546Y-21344D01*
X24546Y-21201D01*
X24527Y-21087D01*
X24508Y-21030D01*
X24489Y-21001D01*
X24451Y-20973D01*
X23898Y-20973D02*
X23765Y-21573D01*
X23631Y-20973D01*
X23422Y-20973D02*
X23383Y-20973D01*
X23345Y-21001D01*
X23326Y-21030D01*
X23307Y-21087D01*
X23288Y-21201D01*
X23288Y-21344D01*
X23307Y-21459D01*
X23326Y-21516D01*
X23345Y-21544D01*
X23383Y-21573D01*
X23422Y-21573D01*
X23460Y-21544D01*
X23479Y-21516D01*
X23498Y-21459D01*
X23517Y-21344D01*
X23517Y-21201D01*
X23498Y-21087D01*
X23479Y-21030D01*
X23460Y-21001D01*
X23422Y-20973D01*
X23117Y-21516D02*
X23098Y-21544D01*
X23117Y-21573D01*
X23136Y-21544D01*
X23117Y-21516D01*
X23117Y-21573D01*
X22717Y-21573D02*
X22946Y-21573D01*
X22832Y-21573D02*
X22832Y-20973D01*
X22870Y-21059D01*
X22908Y-21116D01*
X22946Y-21144D01*
X28451Y-22493D02*
X28451Y-21893D01*
X28185Y-21893D02*
X28108Y-21893D01*
X28070Y-21921D01*
X28032Y-21979D01*
X28013Y-22093D01*
X28013Y-22293D01*
X28032Y-22407D01*
X28070Y-22464D01*
X28108Y-22493D01*
X28185Y-22493D01*
X28223Y-22464D01*
X28261Y-22407D01*
X28280Y-22293D01*
X28280Y-22093D01*
X28261Y-21979D01*
X28223Y-21921D01*
X28185Y-21893D01*
X27308Y-22493D02*
X27442Y-22207D01*
X27537Y-22493D02*
X27537Y-21893D01*
X27384Y-21893D01*
X27346Y-21921D01*
X27327Y-21950D01*
X27308Y-22007D01*
X27308Y-22093D01*
X27327Y-22150D01*
X27346Y-22179D01*
X27384Y-22207D01*
X27537Y-22207D01*
X27080Y-22493D02*
X27118Y-22464D01*
X27137Y-22436D01*
X27156Y-22379D01*
X27156Y-22207D01*
X27137Y-22150D01*
X27118Y-22121D01*
X27080Y-22093D01*
X27022Y-22093D01*
X26984Y-22121D01*
X26965Y-22150D01*
X26946Y-22207D01*
X26946Y-22379D01*
X26965Y-22436D01*
X26984Y-22464D01*
X27022Y-22493D01*
X27080Y-22493D01*
X26603Y-22493D02*
X26603Y-21893D01*
X26603Y-22464D02*
X26641Y-22493D01*
X26718Y-22493D01*
X26756Y-22464D01*
X26775Y-22436D01*
X26794Y-22379D01*
X26794Y-22207D01*
X26775Y-22150D01*
X26756Y-22121D01*
X26718Y-22093D01*
X26641Y-22093D01*
X26603Y-22121D01*
X26260Y-22464D02*
X26298Y-22493D01*
X26375Y-22493D01*
X26413Y-22464D01*
X26432Y-22407D01*
X26432Y-22179D01*
X26413Y-22121D01*
X26375Y-22093D01*
X26298Y-22093D01*
X26260Y-22121D01*
X26241Y-22179D01*
X26241Y-22236D01*
X26432Y-22293D01*
X26013Y-22493D02*
X26051Y-22464D01*
X26070Y-22436D01*
X26089Y-22379D01*
X26089Y-22207D01*
X26070Y-22150D01*
X26051Y-22121D01*
X26013Y-22093D01*
X25955Y-22093D01*
X25917Y-22121D01*
X25898Y-22150D01*
X25879Y-22207D01*
X25879Y-22379D01*
X25898Y-22436D01*
X25917Y-22464D01*
X25955Y-22493D01*
X26013Y-22493D01*
X25403Y-22493D02*
X25403Y-21893D01*
X25213Y-22093D02*
X25213Y-22493D01*
X25213Y-22150D02*
X25194Y-22121D01*
X25156Y-22093D01*
X25098Y-22093D01*
X25060Y-22121D01*
X25041Y-22179D01*
X25041Y-22493D01*
X24679Y-22464D02*
X24717Y-22493D01*
X24794Y-22493D01*
X24832Y-22464D01*
X24851Y-22436D01*
X24870Y-22379D01*
X24870Y-22207D01*
X24851Y-22150D01*
X24832Y-22121D01*
X24794Y-22093D01*
X24717Y-22093D01*
X24679Y-22121D01*
X24508Y-22436D02*
X24489Y-22464D01*
X24508Y-22493D01*
X24527Y-22464D01*
X24508Y-22436D01*
X24508Y-22493D01*
X32203Y-44729D02*
X32146Y-44757D01*
X32127Y-44786D01*
X32108Y-44843D01*
X32108Y-44929D01*
X32127Y-44986D01*
X32146Y-45014D01*
X32184Y-45043D01*
X32337Y-45043D01*
X32337Y-44443D01*
X32203Y-44443D01*
X32165Y-44471D01*
X32146Y-44500D01*
X32127Y-44557D01*
X32127Y-44614D01*
X32146Y-44671D01*
X32165Y-44700D01*
X32203Y-44729D01*
X32337Y-44729D01*
X31861Y-44443D02*
X31784Y-44443D01*
X31746Y-44471D01*
X31708Y-44529D01*
X31689Y-44643D01*
X31689Y-44843D01*
X31708Y-44957D01*
X31746Y-45014D01*
X31784Y-45043D01*
X31861Y-45043D01*
X31899Y-45014D01*
X31937Y-44957D01*
X31956Y-44843D01*
X31956Y-44643D01*
X31937Y-44529D01*
X31899Y-44471D01*
X31861Y-44443D01*
X31575Y-44443D02*
X31346Y-44443D01*
X31461Y-45043D02*
X31461Y-44443D01*
X32414Y-20163D02*
X32185Y-20163D01*
X32300Y-20763D02*
X32300Y-20163D01*
X31976Y-20163D02*
X31899Y-20163D01*
X31861Y-20191D01*
X31823Y-20249D01*
X31804Y-20363D01*
X31804Y-20563D01*
X31823Y-20677D01*
X31861Y-20734D01*
X31899Y-20763D01*
X31976Y-20763D01*
X32014Y-20734D01*
X32052Y-20677D01*
X32071Y-20563D01*
X32071Y-20363D01*
X32052Y-20249D01*
X32014Y-20191D01*
X31976Y-20163D01*
X31633Y-20763D02*
X31633Y-20163D01*
X31480Y-20163D01*
X31442Y-20191D01*
X31423Y-20220D01*
X31404Y-20277D01*
X31404Y-20363D01*
X31423Y-20420D01*
X31442Y-20449D01*
X31480Y-20477D01*
X31633Y-20477D01*
G54D10*
X30900Y-36300D02*
X31900Y-36300D01*
X31900Y-36300D02*
X31900Y-34300D01*
X31900Y-34300D02*
X30900Y-34300D01*
X30900Y-34300D02*
X30900Y-36300D01*
X31521Y-33678D02*
X31221Y-33678D01*
X31221Y-33793D01*
X31236Y-33821D01*
X31250Y-33836D01*
X31279Y-33850D01*
X31321Y-33850D01*
X31350Y-33836D01*
X31364Y-33821D01*
X31379Y-33793D01*
X31379Y-33678D01*
X31221Y-33950D02*
X31221Y-34136D01*
X31336Y-34036D01*
X31336Y-34078D01*
X31350Y-34107D01*
X31364Y-34121D01*
X31393Y-34136D01*
X31464Y-34136D01*
X31493Y-34121D01*
X31507Y-34107D01*
X31521Y-34078D01*
X31521Y-33993D01*
X31507Y-33964D01*
X31493Y-33950D01*
M02*
