G04 (created by PCBNEW-RS274X (2011-aug-04)-testing) date Wed 17 Apr 2013 04:09:18 PM PDT*
G01*
G70*
G90*
%MOIN*%
G04 Gerber Fmt 3.4, Leading zero omitted, Abs format*
%FSLAX34Y34*%
G04 APERTURE LIST*
%ADD10C,0.006000*%
%ADD11R,0.025000X0.045000*%
%ADD12R,0.045000X0.025000*%
%ADD13R,0.060000X0.060000*%
%ADD14C,0.060000*%
%ADD15R,0.068100X0.019700*%
%ADD16R,0.019700X0.068100*%
%ADD17C,0.035000*%
%ADD18C,0.008000*%
%ADD19C,0.019000*%
G04 APERTURE END LIST*
G54D10*
G54D11*
X21000Y-42100D03*
X21600Y-42100D03*
G54D12*
X28500Y-36100D03*
X28500Y-36700D03*
G54D11*
X29900Y-32600D03*
X30500Y-32600D03*
X28500Y-29300D03*
X29100Y-29300D03*
G54D12*
X26600Y-29000D03*
X26600Y-28400D03*
G54D13*
X31400Y-35800D03*
G54D14*
X31400Y-34800D03*
G54D15*
X23892Y-31023D03*
X23892Y-31338D03*
X23892Y-31653D03*
X23892Y-31968D03*
X23892Y-32283D03*
X23892Y-32598D03*
X23892Y-32913D03*
X23892Y-33228D03*
X23892Y-33543D03*
X23892Y-33858D03*
X23892Y-34173D03*
G54D16*
X24724Y-35005D03*
X25039Y-35005D03*
X25354Y-35005D03*
X25669Y-35005D03*
X25984Y-35005D03*
X26299Y-35005D03*
X26614Y-35005D03*
X26929Y-35005D03*
X27244Y-35005D03*
X27559Y-35005D03*
X27874Y-35005D03*
G54D15*
X28706Y-34173D03*
X28706Y-33858D03*
X28706Y-33543D03*
X28706Y-33228D03*
X28706Y-32913D03*
X28706Y-32598D03*
X28706Y-32283D03*
X28706Y-31968D03*
X28706Y-31653D03*
X28706Y-31338D03*
X28706Y-31023D03*
G54D16*
X27874Y-30191D03*
X27559Y-30191D03*
X27244Y-30191D03*
X26929Y-30191D03*
X26614Y-30191D03*
X26299Y-30191D03*
X25984Y-30191D03*
X25669Y-30191D03*
X25354Y-30191D03*
X25039Y-30191D03*
X24724Y-30191D03*
G54D13*
X20799Y-23200D03*
G54D14*
X21799Y-23200D03*
X22799Y-23200D03*
X23799Y-23200D03*
X24799Y-23200D03*
X25799Y-23200D03*
X26799Y-23200D03*
X27799Y-23200D03*
X28799Y-23200D03*
X29799Y-23200D03*
X30799Y-23200D03*
X31799Y-23200D03*
G54D13*
X20799Y-43197D03*
G54D14*
X21799Y-43197D03*
X22799Y-43197D03*
X23799Y-43197D03*
X24799Y-43197D03*
X25799Y-43197D03*
X26799Y-43197D03*
X27799Y-43197D03*
X28799Y-43197D03*
X29799Y-43197D03*
X30799Y-43197D03*
X31799Y-43197D03*
G54D13*
X22799Y-39398D03*
G54D14*
X22799Y-38398D03*
X23799Y-39398D03*
X23799Y-38398D03*
X24799Y-39398D03*
X24799Y-38398D03*
X25799Y-39398D03*
X25799Y-38398D03*
X26799Y-39398D03*
X26799Y-38398D03*
X27799Y-39398D03*
X27799Y-38398D03*
X28799Y-39398D03*
X28799Y-38398D03*
X29799Y-39398D03*
X29799Y-38398D03*
G54D13*
X22799Y-26799D03*
G54D14*
X22799Y-25799D03*
X23799Y-26799D03*
X23799Y-25799D03*
X24799Y-26799D03*
X24799Y-25799D03*
X25799Y-26799D03*
X25799Y-25799D03*
X26799Y-26799D03*
X26799Y-25799D03*
X27799Y-26799D03*
X27799Y-25799D03*
X28799Y-26799D03*
X28799Y-25799D03*
X29799Y-26799D03*
X29799Y-25799D03*
G54D17*
X26934Y-33405D03*
X26224Y-29436D03*
X25098Y-33431D03*
X27074Y-36563D03*
X26914Y-32009D03*
X26908Y-31554D03*
X29077Y-30284D03*
X26164Y-31321D03*
X27415Y-29567D03*
X29117Y-28667D03*
X28458Y-30605D03*
X26988Y-34382D03*
X29395Y-29832D03*
X25354Y-35643D03*
X25865Y-34253D03*
X25389Y-34271D03*
X25054Y-31332D03*
X27552Y-28160D03*
X25744Y-27785D03*
X23513Y-29325D03*
X25068Y-32791D03*
X30438Y-35391D03*
X23262Y-32598D03*
G54D18*
X29115Y-28201D02*
X28299Y-28201D01*
X31844Y-30930D02*
X29115Y-28201D01*
X31844Y-39152D02*
X31844Y-30930D01*
X27799Y-43197D02*
X31844Y-39152D01*
X28299Y-23700D02*
X28299Y-28201D01*
X27799Y-23200D02*
X28299Y-23700D01*
X25669Y-29369D02*
X25669Y-30191D01*
X26354Y-28684D02*
X25669Y-29369D01*
X27816Y-28684D02*
X26354Y-28684D01*
X28299Y-28201D02*
X27816Y-28684D01*
X25522Y-31993D02*
X26934Y-33405D01*
X25522Y-31099D02*
X25522Y-31993D01*
X25984Y-30637D02*
X25522Y-31099D01*
X25984Y-30191D02*
X25984Y-30637D01*
X29799Y-25095D02*
X29799Y-23200D01*
X32139Y-27435D02*
X29799Y-25095D01*
X32139Y-39857D02*
X32139Y-27435D01*
X28799Y-43197D02*
X32139Y-39857D01*
X26299Y-29511D02*
X26224Y-29436D01*
X26299Y-30191D02*
X26299Y-29511D01*
X26299Y-33948D02*
X26299Y-35005D01*
X25782Y-33431D02*
X26299Y-33948D01*
X25098Y-33431D02*
X25782Y-33431D01*
X26929Y-35005D02*
X26929Y-35488D01*
X26929Y-36418D02*
X27074Y-36563D01*
X26929Y-35488D02*
X26929Y-36418D01*
X28706Y-31968D02*
X28223Y-31968D01*
X28182Y-32009D02*
X28223Y-31968D01*
X26914Y-32009D02*
X28182Y-32009D01*
X27007Y-31653D02*
X28706Y-31653D01*
X26908Y-31554D02*
X27007Y-31653D01*
X29190Y-30397D02*
X29190Y-31338D01*
X29077Y-30284D02*
X29190Y-30397D01*
X28706Y-31338D02*
X29190Y-31338D01*
X28301Y-31023D02*
X28706Y-31023D01*
X28089Y-31235D02*
X28301Y-31023D01*
X26250Y-31235D02*
X28089Y-31235D01*
X26164Y-31321D02*
X26250Y-31235D01*
X27559Y-30191D02*
X27559Y-29707D01*
X27555Y-29707D02*
X27415Y-29567D01*
X27559Y-29707D02*
X27555Y-29707D01*
X27244Y-30191D02*
X27244Y-30674D01*
X28831Y-28953D02*
X29117Y-28667D01*
X28831Y-29544D02*
X28831Y-28953D01*
X28121Y-30254D02*
X28831Y-29544D01*
X28121Y-30620D02*
X28121Y-30254D01*
X28067Y-30674D02*
X28121Y-30620D01*
X27244Y-30674D02*
X28067Y-30674D01*
X28206Y-30857D02*
X28458Y-30605D01*
X27024Y-30857D02*
X28206Y-30857D01*
X26929Y-30762D02*
X27024Y-30857D01*
X26929Y-30191D02*
X26929Y-30762D01*
X27244Y-35551D02*
X27244Y-35005D01*
X28061Y-36368D02*
X27244Y-35551D01*
X28720Y-36368D02*
X28061Y-36368D01*
X28868Y-36516D02*
X28720Y-36368D01*
X28868Y-36904D02*
X28868Y-36516D01*
X28581Y-37191D02*
X28868Y-36904D01*
X25369Y-37191D02*
X28581Y-37191D01*
X24299Y-38261D02*
X25369Y-37191D01*
X24299Y-38898D02*
X24299Y-38261D01*
X23799Y-39398D02*
X24299Y-38898D01*
X27559Y-35005D02*
X27559Y-34521D01*
X27127Y-34521D02*
X26988Y-34382D01*
X27559Y-34521D02*
X27127Y-34521D01*
X28706Y-34173D02*
X29190Y-34173D01*
X29234Y-34217D02*
X29190Y-34173D01*
X29234Y-37058D02*
X29234Y-34217D01*
X28670Y-37622D02*
X29234Y-37058D01*
X27575Y-37622D02*
X28670Y-37622D01*
X26799Y-38398D02*
X27575Y-37622D01*
X28706Y-33858D02*
X28223Y-33858D01*
X28223Y-34521D02*
X28223Y-33858D01*
X29051Y-35349D02*
X28223Y-34521D01*
X29051Y-36981D02*
X29051Y-35349D01*
X28631Y-37401D02*
X29051Y-36981D01*
X25796Y-37401D02*
X28631Y-37401D01*
X24799Y-38398D02*
X25796Y-37401D01*
X28706Y-33543D02*
X29190Y-33543D01*
X29417Y-33770D02*
X29190Y-33543D01*
X29417Y-37134D02*
X29417Y-33770D01*
X28243Y-38308D02*
X29417Y-37134D01*
X28243Y-38954D02*
X28243Y-38308D01*
X27799Y-39398D02*
X28243Y-38954D01*
X28706Y-33228D02*
X29190Y-33228D01*
X29601Y-33639D02*
X29190Y-33228D01*
X29601Y-37308D02*
X29601Y-33639D01*
X29255Y-37654D02*
X29601Y-37308D01*
X29255Y-38854D02*
X29255Y-37654D01*
X29799Y-39398D02*
X29255Y-38854D01*
X28706Y-32913D02*
X29190Y-32913D01*
X29799Y-33522D02*
X29190Y-32913D01*
X29799Y-38398D02*
X29799Y-33522D01*
X29395Y-32182D02*
X29395Y-29832D01*
X29294Y-32283D02*
X29395Y-32182D01*
X28706Y-32283D02*
X29294Y-32283D01*
X25354Y-35643D02*
X25354Y-35005D01*
X25984Y-34372D02*
X25984Y-35005D01*
X25865Y-34253D02*
X25984Y-34372D01*
X25669Y-35005D02*
X25669Y-34521D01*
X25639Y-34521D02*
X25669Y-34521D01*
X25389Y-34271D02*
X25639Y-34521D01*
X25039Y-34373D02*
X25039Y-35005D01*
X24750Y-34084D02*
X25039Y-34373D01*
X24750Y-31636D02*
X24750Y-34084D01*
X25054Y-31332D02*
X24750Y-31636D01*
X23892Y-31338D02*
X23409Y-31338D01*
X27870Y-27870D02*
X26799Y-26799D01*
X27870Y-28293D02*
X27870Y-27870D01*
X27685Y-28478D02*
X27870Y-28293D01*
X27314Y-28478D02*
X27685Y-28478D01*
X26968Y-28132D02*
X27314Y-28478D01*
X26107Y-28132D02*
X26968Y-28132D01*
X23409Y-30830D02*
X26107Y-28132D01*
X23409Y-31338D02*
X23409Y-30830D01*
X23892Y-31653D02*
X23409Y-31653D01*
X27341Y-27949D02*
X27552Y-28160D01*
X26030Y-27949D02*
X27341Y-27949D01*
X23226Y-30753D02*
X26030Y-27949D01*
X23226Y-31470D02*
X23226Y-30753D01*
X23409Y-31653D02*
X23226Y-31470D01*
X26343Y-38942D02*
X25799Y-38398D01*
X26343Y-43619D02*
X26343Y-38942D01*
X26365Y-43641D02*
X26343Y-43619D01*
X29223Y-43641D02*
X26365Y-43641D01*
X29245Y-43619D02*
X29223Y-43641D01*
X29245Y-43012D02*
X29245Y-43619D01*
X32323Y-39934D02*
X29245Y-43012D01*
X32323Y-25595D02*
X32323Y-39934D01*
X30243Y-23515D02*
X32323Y-25595D01*
X30243Y-22778D02*
X30243Y-23515D01*
X30221Y-22756D02*
X30243Y-22778D01*
X27541Y-22756D02*
X30221Y-22756D01*
X27243Y-23054D02*
X27541Y-22756D01*
X27243Y-24355D02*
X27243Y-23054D01*
X25799Y-25799D02*
X27243Y-24355D01*
X25744Y-27805D02*
X25744Y-27785D01*
X22992Y-30557D02*
X25744Y-27805D01*
X22992Y-31752D02*
X22992Y-30557D01*
X23208Y-31968D02*
X22992Y-31752D01*
X23892Y-31968D02*
X23208Y-31968D01*
X27243Y-26355D02*
X27799Y-25799D01*
X26365Y-26355D02*
X27243Y-26355D01*
X26343Y-26377D02*
X26365Y-26355D01*
X26343Y-26991D02*
X26343Y-26377D01*
X25868Y-27466D02*
X26343Y-26991D01*
X25612Y-27466D02*
X25868Y-27466D01*
X23831Y-29247D02*
X25612Y-27466D01*
X23831Y-29458D02*
X23831Y-29247D01*
X22808Y-30481D02*
X23831Y-29458D01*
X22808Y-31831D02*
X22808Y-30481D01*
X23137Y-32160D02*
X22808Y-31831D01*
X23275Y-32160D02*
X23137Y-32160D01*
X23398Y-32283D02*
X23275Y-32160D01*
X23892Y-32283D02*
X23398Y-32283D01*
X23387Y-32935D02*
X23409Y-32913D01*
X23116Y-32935D02*
X23387Y-32935D01*
X22624Y-32443D02*
X23116Y-32935D01*
X22624Y-30214D02*
X22624Y-32443D01*
X23513Y-29325D02*
X22624Y-30214D01*
X23892Y-32913D02*
X23409Y-32913D01*
X23892Y-33228D02*
X23409Y-33228D01*
X23149Y-33228D02*
X23409Y-33228D01*
X22350Y-32429D02*
X23149Y-33228D01*
X22350Y-30038D02*
X22350Y-32429D01*
X25589Y-26799D02*
X22350Y-30038D01*
X25799Y-26799D02*
X25589Y-26799D01*
X23892Y-33543D02*
X23409Y-33543D01*
X23409Y-33543D02*
X22901Y-33543D01*
X22799Y-33645D02*
X22799Y-38398D01*
X22901Y-33543D02*
X22799Y-33645D01*
X22167Y-26431D02*
X22799Y-25799D01*
X22167Y-32809D02*
X22167Y-26431D01*
X22901Y-33543D02*
X22167Y-32809D01*
X22157Y-38954D02*
X23221Y-38954D01*
X21346Y-38143D02*
X22157Y-38954D01*
X21346Y-26374D02*
X21346Y-38143D01*
X22377Y-25343D02*
X21346Y-26374D01*
X23221Y-25343D02*
X22377Y-25343D01*
X23243Y-25365D02*
X23221Y-25343D01*
X23243Y-25945D02*
X23243Y-25365D01*
X23653Y-26355D02*
X23243Y-25945D01*
X24355Y-26355D02*
X23653Y-26355D01*
X24799Y-26799D02*
X24355Y-26355D01*
X24134Y-40063D02*
X24799Y-39398D01*
X23763Y-40063D02*
X24134Y-40063D01*
X23243Y-39543D02*
X23763Y-40063D01*
X23243Y-38976D02*
X23243Y-39543D01*
X23221Y-38954D02*
X23243Y-38976D01*
X23343Y-33924D02*
X23409Y-33858D01*
X23343Y-38832D02*
X23343Y-33924D01*
X23221Y-38954D02*
X23343Y-38832D01*
X23892Y-33858D02*
X23409Y-33858D01*
X26614Y-35005D02*
X26614Y-34521D01*
X25914Y-32791D02*
X25068Y-32791D01*
X26614Y-33491D02*
X25914Y-32791D01*
X26614Y-34521D02*
X26614Y-33491D01*
G54D19*
X26600Y-29638D02*
X26614Y-29652D01*
X26600Y-29323D02*
X26600Y-29638D01*
X26614Y-30191D02*
X26614Y-29652D01*
X27874Y-32892D02*
X28168Y-32598D01*
X28437Y-32598D02*
X28168Y-32598D01*
X26614Y-30191D02*
X26614Y-30729D01*
X26600Y-29101D02*
X26600Y-29323D01*
X26600Y-29101D02*
X26600Y-29054D01*
X28437Y-32598D02*
X28706Y-32598D01*
X30038Y-33161D02*
X29900Y-33023D01*
X30038Y-35519D02*
X30038Y-33161D01*
X30319Y-35800D02*
X30038Y-35519D01*
X31400Y-35800D02*
X30319Y-35800D01*
X29900Y-32681D02*
X29900Y-33023D01*
X29900Y-32681D02*
X29900Y-32615D01*
X29900Y-32600D02*
X29900Y-32615D01*
X29262Y-32615D02*
X29245Y-32598D01*
X29900Y-32615D02*
X29262Y-32615D01*
X28706Y-32598D02*
X29245Y-32598D01*
X26600Y-29000D02*
X26600Y-29027D01*
X26600Y-29027D02*
X26600Y-29054D01*
X27874Y-30191D02*
X27874Y-29652D01*
X28500Y-29300D02*
X28177Y-29300D01*
X27961Y-29300D02*
X28177Y-29300D01*
X27688Y-29027D02*
X27961Y-29300D01*
X26600Y-29027D02*
X27688Y-29027D01*
X27961Y-29565D02*
X27874Y-29652D01*
X27961Y-29300D02*
X27961Y-29565D01*
X27874Y-35005D02*
X27874Y-32892D01*
X28266Y-35543D02*
X28500Y-35777D01*
X27874Y-35543D02*
X28266Y-35543D01*
X27874Y-35005D02*
X27874Y-35543D01*
X28500Y-36100D02*
X28500Y-35777D01*
X20975Y-42523D02*
X21000Y-42523D01*
X20799Y-42699D02*
X20975Y-42523D01*
X20799Y-43197D02*
X20799Y-42699D01*
X21000Y-42100D02*
X21000Y-42523D01*
X27108Y-32892D02*
X27874Y-32892D01*
X25791Y-31575D02*
X27108Y-32892D01*
X25791Y-31167D02*
X25791Y-31575D01*
X26229Y-30729D02*
X25791Y-31167D01*
X26614Y-30729D02*
X26229Y-30729D01*
X25039Y-29538D02*
X25039Y-30191D01*
X26177Y-28400D02*
X25039Y-29538D01*
X26600Y-28400D02*
X26177Y-28400D01*
X25039Y-30191D02*
X25039Y-30460D01*
X25354Y-30191D02*
X25354Y-30729D01*
X30500Y-30377D02*
X30500Y-32600D01*
X29423Y-29300D02*
X30500Y-30377D01*
X29100Y-29300D02*
X29423Y-29300D01*
X25039Y-30675D02*
X25039Y-30460D01*
X25093Y-30729D02*
X25039Y-30675D01*
X25354Y-30729D02*
X25093Y-30729D01*
X24724Y-30460D02*
X25039Y-30460D01*
X24724Y-30191D02*
X24724Y-30460D01*
X24724Y-30460D02*
X24724Y-30729D01*
X23892Y-31023D02*
X24431Y-31023D01*
X30500Y-32600D02*
X30500Y-33023D01*
X30438Y-33085D02*
X30438Y-35391D01*
X30500Y-33023D02*
X30438Y-33085D01*
X28500Y-36700D02*
X28077Y-36700D01*
X21600Y-42998D02*
X21600Y-42100D01*
X21799Y-43197D02*
X21600Y-42998D01*
X26125Y-36944D02*
X24724Y-35543D01*
X27833Y-36944D02*
X26125Y-36944D01*
X28077Y-36700D02*
X27833Y-36944D01*
X24724Y-35005D02*
X24724Y-35543D01*
X24431Y-31022D02*
X24431Y-31023D01*
X24724Y-30729D02*
X24431Y-31022D01*
X23892Y-32598D02*
X24358Y-32598D01*
X23892Y-34173D02*
X24431Y-34173D01*
X24724Y-35005D02*
X24724Y-34466D01*
X24431Y-32598D02*
X24431Y-31023D01*
X24358Y-32598D02*
X24431Y-32598D01*
X24431Y-34173D02*
X24724Y-34466D01*
X24431Y-32598D02*
X24431Y-34173D01*
X23262Y-32598D02*
X23892Y-32598D01*
M02*
