M48
METRIC
T01C.2
;LEADER: 12 
;HEADER: 
;CODE  : ASCII 
;FILE  : LED Panel G4 V1, 03-26-2017-1-6.drl for  ... layers TOP and BOTTOM
;DESIGN: LED Panel G4 V1, 03-26-2017.brd
;   Holesize 1. = 0.200000 Tolerance = +0.000000/-0.000000 PLATED MM Quantity = 555
%
G90
T01
X0921580Y1546380
X0200000Y1799920
R06X0250000
X0700000Y1700080
X0200000Y1549920
X0450000Y1700080
X1450000Y1549040
X0950000Y1700080
X1200000Y1700080
X1700000Y1548960
X1950000Y1548880
X1120000Y1820000
X0200000Y1299920
R07X0250000
X0937200Y2046220
X0200000Y1049920
R06X0250000
X1950000Y1218360
X0656040Y2046220
X0200000Y0799920
R04X0250000
X1450000Y0950080
X1700000Y0950080
X1968120Y0952820
X0374880Y2046220
X0200000Y0549920
R05X0250000
X1624480Y0546700
X2505480Y3008380
X2218040Y3764420
X2467960Y3764420
X2700000Y3762160
X2905320Y3733180
X3200000Y3699440
R03X0250000
X1874400Y0265540
X0200000Y0299920
R04X0250000
X1450000Y0450080
X1700000Y0299920
X0187440Y1483900
X1700000Y0200000
X0624800Y1546380
X0200000Y0049920
R05X0250000
X2046220Y0046860
X2320000Y1282160
X0671660Y1496380
X0390500Y1496380
X2264900Y1249600
X0312400Y1996220
X2320000Y1976980
X0593560Y1996220
X2370000Y2010740
X0874720Y1996220
X2420000Y1976980
X1171500Y1996220
X2470000Y2028560
X1233980Y1496380
X2671980Y1775000
X0890340Y1496380
X2617660Y1725000
X2171180Y1983740
X2049370Y2043070
X2905320Y3795660
X2655400Y3795660
X3200000Y3797600
R02X0250000
X3950000Y3949440
X2405480Y3780040
X2139940Y3795660
X0199910Y1221510
X2264900Y1796300
X0360000Y1200000
X1120000Y1320000
X2370000Y1253840
X0200000Y3949440
R06X0250000
X1827540Y3748800
X0200000Y3699440
R06X0250000
X1829000Y3545000
X1124640Y3295820
X1200000Y3298560
X0125560Y3375000
R03X0250000
X1843160Y3233340
X1360000Y3300000
X1660000Y3480000
X1600000Y3200000
X0700000Y3214820
X0890340Y3295820
X1827540Y3045900
X0125560Y3125000
X0450000Y3183500
X1200000Y3199360
X1380000Y3200000
X1374560Y2795980
X1200000Y2949440
R02X-0250000
X0593560Y3295820
X0125560Y2875000
X0450000Y2949440
X1749440Y2952180
X2014980Y2795980
X2077460Y2733500
X1375400Y2625000
X1200000Y2699520
X0125560Y2625000
R03X0250000
X1370000Y2200000
X0357440Y3262760
X0125560Y2375000
X0450000Y2300560
X0700000Y2300560
X0950000Y2310000
X2014980Y2296140
X1530760Y2233660
X1200000Y2433980
X1950000Y2048720
X1450000Y2050560
X0654220Y3262760
X0200000Y2199440
R03X0250000
X1200000Y2050560
X0640420Y3030280
X2009990Y1960010
X0359260Y3033420
X1686960Y2046220
X0359260Y3511360
X1720000Y2778560
X0607860Y3511360
X1765060Y2749120
X2374240Y0109820
X2369880Y1015300
X0904640Y3511360
X1843160Y2764740
X1201420Y3511360
X1888820Y2717880
X1218360Y3033420
X2014980Y2546060
X1358940Y0750120
X3117420Y0071520
X0905960Y3033420
X2014980Y2483580
X1905640Y1265220
X3550000Y1960000
X2124320Y0062480
X1998480Y1264340
X3858020Y0375000
X3717560Y1718200
X0164360Y2522980
X1770000Y2010000
X1624480Y1187120
X3373920Y0093720
X1655720Y2780360
X1218360Y2795980
X1374560Y0687640
X2858460Y0078100
X2983420Y0468600
X2950000Y1799920
R03X0250000
X3936240Y1811920
X2624160Y1999360
X2264900Y1968120
X2639780Y1530760
X2124840Y1625000
X2717880Y0468600
X3950000Y1549920
R04X-0250000
X2800000Y1540000
X3950000Y1299920
R05X-0250000
X2514820Y1296460
X2108700Y1280840
X3060000Y0730000
X2450000Y1049920
R06X0250000
X2171180Y1015300
X3450000Y0810000
X2450000Y0799920
X2700000Y0799920
X2327380Y0968440
X3950000Y0799920
X3700000Y0799920
X3030000Y0799920
X3444010Y0454010
X3950000Y0549920
X3700000Y0549920
X3250000Y0540000
X2450000Y0549920
R02X0250000
X2311760Y0515460
X1421420Y0265540
X2624160Y0452980
X3124000Y0500000
X3405160Y0499840
X3700000Y0299920
X3950000Y0299920
X2950000Y0299920
R02X-0250000
X2233660Y0265540
X2702260Y0031240
X2200000Y0049920
X2450000Y0049920
X2950000Y0049920
R04X0250000
X2020000Y0282160
X3217720Y0246780
X1970000Y0247780
X3483260Y0246780
X2020000Y0979040
X3498880Y0746620
X2070000Y1023460
X3217720Y0746620
X2120000Y0976980
X2936560Y0746620
X2202420Y0952820
X2655400Y0746620
X2371980Y0775000
X2639780Y0246780
X2317660Y0725000
X2952180Y0246780
X2061840Y0203060
X2880320Y0999680
X2880000Y1220000
X1970000Y0782880
X3858140Y1233980
X2717880Y3452020
X2858460Y2530440
X2200000Y2699440
R02X0250000
X3124840Y2625000
R02X0249920
X3950000Y2699440
X1300000Y3290000
X1421420Y3041560
X2276800Y3950400
X2890000Y0700000
X2590000Y0700000
X2506780Y0296780
X0880000Y2060000
X1060000Y2010000
X0590000Y2220000
X0200000Y2010000
X1090000Y1730000
X0346380Y1546380
X0620000Y1700000
X0870000Y1700000
X1100000Y2290000
X1640000Y1510000
X1500000Y0530000
X2020000Y0700000
X1960000Y0700000
X1910000Y0700000
X2010000Y0550000
R02X-0050000
X2010000Y0500000
R02X-0050000
X0850000Y2250000
X2430000Y0710000
X1180000Y0480000
X1490000Y1230000
X1380000Y2320000
X1720000Y2300000
X1600000Y2300000
X1720000Y2450000
R02X-0060000
X1720000Y2500000
X1600000Y2500000
X1660000Y2500000
X1375000Y2475000
X2860000Y0450000
X1140260Y3199920
X0249920Y3199920
X0546700Y3199920
X0827860Y3199920
X1240000Y3550000
X0875000Y3687500
X0625000Y3750000
X0187500Y3500000
X1375000Y3437500
X1910000Y3500000
R02X0050000
X1910000Y3450000
R02X0050000
X1910000Y3300000
X2060000Y3500000
X2060000Y3450000
X2090000Y3300000
X2330000Y3450000
X3373920Y3170860
X2874080Y3170860
X2624160Y3639460
X3124000Y3623840
X3373920Y3639460
X2624160Y3186480
X3108380Y3248960
X2874080Y3639460
X3526620Y0796620
X3256620Y0796620
X3513220Y0296780
X3256780Y0296780
X0980000Y0960000
R03X-0060000
X1060000Y1040000
X2350000Y1500000
X2350000Y1550000
X2240000Y1500000
X2190000Y1500000
X2240000Y1550000
X2190000Y1550000
X2130000Y2470000
X0550000Y2311400
X1124640Y2639780
X0359260Y2249280
X1499520Y1968120
X0859100Y2405480
X1109020Y2452340
X1733820Y3030280
X1968120Y2717880
X1624480Y3045900
X0108660Y2125000
X1600000Y1770000
X1874400Y2842840
X2325030Y3282550
X1480750Y3049050
X2499200Y3514500
X1437040Y3530120
X2702260Y3545740
X1374560Y3549740
X3050000Y3795660
X1796300Y3967480
X3300000Y3795660
X1874400Y3967480
X3550000Y3795660
X1952500Y3967480
X3800000Y3795660
X2450000Y2199440
X2700000Y2199440
X2950000Y2050560
R03X0250000
X3950000Y2199440
X2200000Y2262480
X3124000Y2967800
X1952500Y2795980
X2093080Y2983420
X0109340Y1040660
X0373620Y1446380
X0633780Y1946220
X0363780Y1946220
X3873760Y1483760
X3010000Y0530000
X2760000Y0520000
X2700000Y0200000
X1360000Y2720000
X1380000Y2970000
X0900000Y2970000
X0640000Y2960000
X0370000Y2950000
X0321360Y3461360
X3059700Y0040300
X3683000Y0215900
X3251200Y0203200
X3700000Y0710000
X3280000Y0700000
X3646550Y0550000
X3376550Y0550000
X2610000Y3300000
X2171180Y3289760
X1820000Y3300000
X1390000Y3490000
X0971360Y3461360
X0661360Y3461360
X0940000Y1960000
X1830000Y3460000
X1300000Y2300000
X1350000Y1970000
X2660000Y2800000
X3620000Y2800000
X3700000Y2800000
X3620000Y2740000
X3700000Y2740000
X3000000Y2980000
X2760000Y2980000
X3350000Y2950000
X3670000Y3010000
X3622020Y3422020
X1620000Y0690000
X3127500Y3410000
X0633620Y1446380
X0940000Y1460000
X1360000Y1470000
X1861930Y1530760
X2700000Y1500000
X2180400Y0475000
X1970000Y3715680
X2900000Y2800000
X2311760Y0452980
X2624160Y1468280
X2319040Y3225000
X1999360Y2218040
X3442980Y2522980
X2170000Y0266720
X2470000Y1267260
X2218040Y3030280
X1870000Y2066240
X2420000Y1219460
X2093080Y3045900
X1820000Y2038140
X0190820Y2776980
X2070000Y3210260
X3128010Y2776980
X3264580Y3467640
X3950000Y3199440
R06X-0250000
X2171180Y3233340
X0874120Y1875000
X1499520Y1471180
X2200000Y2949440
R06X0250000
X3140000Y3760000
X3950000Y2949440
X1624480Y1249600
X0608580Y1875000
X2200000Y2449440
R02X0250000
X2950000Y2300560
R03X0250000
X3950000Y2449440
X3733180Y3045900
X2139940Y2296140
X1608420Y1375000
X3200000Y3297920
X2983420Y3467640
X3950000Y3449440
X3700000Y3449440
X2700000Y3280200
X2450000Y3264580
X2171180Y3467640
X3373920Y3373920
X2124320Y1046540
X0374280Y1875000
X2374240Y3311440
X2952180Y3018500
X2717180Y3015360
X2390000Y3550000
X3217720Y3511360
X2249280Y2296140
X1873880Y1625000
X2046220Y3795660
X2936560Y3511360
X2014980Y3748800
X2655400Y3511360
X3514500Y3002880
X1050000Y1933420
X1624480Y1655720
X3248960Y3018500
X1374560Y1640100
X2108700Y2218040
X0108740Y1875000
X2249280Y0984060
M30
