M48
METRIC,LZ
T01C.2
;LEADER: 12 
;HEADER: 
;CODE  : ASCII 
;FILE  : 2017-03-26_LED-Panel_G4_V1-1-6.drl for  ... layers TOP and BOTTOM
;DESIGN: 2017-03-26_LED-Panel_G4_V1.brd
;T01 Holesize 1. = 0.200000 Tolerance = +0.000000/-0.000000 PLATED MM Quantity = 555
%
G90
T01
X002Y010499
X0045Y010499
X007Y010499
X0095Y010499
X012Y010499
X0145Y010499
X017Y010499
X002Y007999
X0045Y007999
X007Y007999
X0095Y007999
X012Y007999
X0145Y009501
X017Y009501
X019681Y009528
X002Y005499
X0045Y005499
X007Y005499
X0095Y005499
X012Y005499
X0145Y005499
X016245Y005467
X018744Y002655
X002Y002999
X0045Y002999
X007Y002999
X0095Y002999
X012Y002999
X0145Y004501
X017Y002999
X017Y002
X002Y000499
X0045Y000499
X007Y000499
X0095Y000499
X012Y000499
X0145Y000499
X020462Y000469
X023742Y001098
X023699Y010153
X013589Y007501
X031174Y000715
X021243Y000625
X03858Y00375
X033739Y000937
X013746Y006876
X028585Y000781
X029834Y004686
X027179Y004686
X0306Y0073
X0245Y010499
X027Y010499
X0295Y010499
X032Y010499
X0345Y010499
X037Y010499
X021712Y010153
X0345Y0081
X0245Y007999
X027Y007999
X023274Y009684
X037Y007999
X0303Y007999
X03444Y00454
X037Y005499
X0325Y0054
X0245Y005499
X027Y005499
X0295Y005499
X023118Y005155
X014214Y002655
X026242Y00453
X03124Y005
X034052Y004998
X037Y002999
X0295Y002999
X027Y002999
X0245Y002999
X022337Y002655
X027023Y000312
X022Y000499
X0245Y000499
X0295Y000499
X032Y000499
X0345Y000499
X037Y000499
X0202Y002822
X032177Y002468
X0197Y002478
X034833Y002468
X0202Y00979
X034989Y007466
X0207Y010235
X032177Y007466
X0212Y00977
X029366Y007466
X022024Y009528
X026554Y007466
X02372Y00775
X026398Y002468
X023177Y00725
X029522Y002468
X020618Y002031
X028803Y009997
X0197Y007829
X0289Y007
X0259Y007
X025068Y002968
X015Y0053
X0202Y007
X0196Y007
X0191Y007
X0201Y0055
X0196Y0055
X0191Y0055
X0201Y005
X0196Y005
X0191Y005
X0243Y0071
X0118Y0048
X0286Y0045
X035266Y007966
X032566Y007966
X035132Y002968
X032568Y002968
X0098Y0096
X0092Y0096
X0086Y0096
X008Y0096
X0106Y0104
X001093Y010407
X0301Y0053
X0276Y0052
X027Y002
X030597Y000403
X03683Y002159
X032512Y002032
X037Y0071
X0328Y007
X036466Y0055
X033766Y0055
X0162Y0069
X021804Y00475
X023118Y00453
X0217Y002667
X021243Y010465
X022493Y009841
X009216Y015464
X002Y017999
X0045Y017999
X007Y017999
X0095Y017999
X012Y017999
X0145Y017999
X017Y017999
X007Y017001
X002Y015499
X0045Y017001
X0145Y01549
X0095Y017001
X012Y017001
X017Y01549
X0195Y015489
X0112Y0182
X002Y012999
X0045Y012999
X007Y012999
X0095Y012999
X012Y012999
X0145Y012999
X017Y012999
X0195Y012999
X009372Y020462
X0195Y012184
X00656Y020462
X003749Y020462
X025055Y030084
X02218Y037644
X02468Y037644
X027Y037622
X029053Y037332
X032Y036994
X0345Y036994
X037Y036994
X001874Y014839
X006248Y015464
X0232Y012822
X006717Y014964
X003905Y014964
X022649Y012496
X003124Y019962
X0232Y01977
X005936Y019962
X0237Y020107
X008747Y019962
X0242Y01977
X011715Y019962
X0247Y020286
X01234Y014964
X02672Y01775
X008903Y014964
X026177Y01725
X021712Y019837
X020494Y020431
X029053Y037957
X026554Y037957
X032Y037976
X0345Y037976
X037Y037976
X024055Y0378
X021399Y037957
X001999Y012215
X022649Y017963
X0036Y012
X0112Y0132
X0237Y012538
X002Y039494
X0045Y039494
X007Y039494
X0095Y039494
X012Y039494
X0145Y039494
X017Y039494
X018275Y037488
X002Y036994
X0045Y036994
X007Y036994
X0095Y036994
X012Y036994
X0145Y036994
X017Y036994
X01829Y03545
X011246Y032958
X012Y032986
X001256Y03375
X003756Y03375
X006256Y03375
X008756Y03375
X018432Y032333
X0136Y033
X0166Y0348
X016Y032
X007Y032148
X008903Y032958
X018275Y030459
X001256Y03125
X0045Y031835
X012Y031994
X0138Y032
X013746Y02796
X012Y029494
X0095Y029494
X007Y029494
X005936Y032958
X001256Y02875
X0045Y029494
X017494Y029522
X02015Y02796
X020775Y027335
X013754Y02625
X012Y026995
X001256Y02625
X003756Y02625
X006256Y02625
X008756Y02625
X0137Y022
X003574Y032628
X001256Y02375
X0045Y023006
X007Y023006
X0095Y0231
X02015Y022961
X015308Y022337
X012Y02434
X0195Y020487
X0145Y020506
X006542Y032628
X002Y021994
X0045Y021994
X007Y021994
X0095Y021994
X012Y020506
X006404Y030303
X0201Y0196
X003593Y030334
X01687Y020462
X003593Y035114
X0172Y027786
X006079Y035114
X017651Y027491
X009046Y035114
X018432Y027647
X012014Y035114
X018888Y027179
X012184Y030334
X02015Y025461
X00906Y030334
X02015Y024836
X019056Y012652
X0355Y0196
X019985Y012643
X037176Y017182
X001644Y02523
X0177Y0201
X016245Y011871
X016557Y027804
X012184Y02796
X0295Y017999
X032Y017999
X0345Y017999
X037Y017999
X039362Y018119
X026242Y019994
X022649Y019681
X026398Y015308
X021248Y01625
X037Y015499
X0345Y015499
X032Y015499
X0295Y015499
X028Y0154
X037Y012999
X0345Y012999
X032Y012999
X0295Y012999
X027Y012999
X025148Y012965
X021087Y012808
X0288Y0122
X038581Y01234
X027179Y03452
X028585Y025304
X022Y026994
X0245Y026994
X027Y026994
X031248Y02625
X033748Y02625
X036247Y02625
X013Y0329
X014214Y030416
X022768Y039504
X0088Y0206
X0106Y0201
X0059Y0222
X002Y0201
X0109Y0173
X003464Y015464
X0062Y017
X0087Y017
X011Y0229
X0164Y0151
X0085Y0225
X0149Y0123
X0138Y0232
X0172Y023
X016Y023
X0172Y0245
X0166Y0245
X016Y0245
X0172Y025
X016Y025
X0166Y025
X01375Y02475
X011403Y031999
X002499Y031999
X005467Y031999
X008279Y031999
X0124Y0355
X00875Y036875
X00625Y0375
X001875Y035
X01375Y034375
X0191Y035
X0196Y035
X0201Y035
X0191Y0345
X0196Y0345
X0201Y0345
X0191Y033
X0206Y035
X0206Y0345
X0209Y033
X0233Y0345
X033739Y031709
X028741Y031709
X026242Y036395
X03124Y036238
X033739Y036395
X026242Y031865
X031084Y03249
X028741Y036395
X0235Y015
X0235Y0155
X0224Y015
X0219Y015
X0224Y0155
X0219Y0155
X0213Y0247
X0055Y023114
X011246Y026398
X003593Y022493
X014995Y019681
X008591Y024055
X01109Y024523
X017338Y030303
X019681Y027179
X016245Y030459
X001087Y02125
X016Y0177
X018744Y028428
X02325Y032826
X014808Y03049
X024992Y035145
X01437Y035301
X027023Y035457
X013746Y035497
X0305Y037957
X017963Y039675
X033Y037957
X018744Y039675
X0355Y037957
X019525Y039675
X038Y037957
X0245Y021994
X027Y021994
X0295Y020506
X032Y020506
X0345Y020506
X037Y020506
X022Y022625
X03124Y029678
X019525Y02796
X020931Y029834
X003736Y014464
X006338Y019462
X003638Y019462
X038738Y014838
X0136Y0272
X0138Y0297
X009Y0297
X0064Y0296
X0037Y0295
X003214Y034614
X0261Y033
X021712Y032898
X0182Y033
X0139Y0349
X009714Y034614
X006614Y034614
X0094Y0196
X0183Y0346
X013Y023
X0135Y0197
X0266Y028
X0362Y028
X037Y028
X0362Y0274
X037Y0274
X03Y0298
X0276Y0298
X0335Y0295
X0367Y0301
X03622Y03422
X031275Y0341
X006336Y014464
X0094Y0146
X0136Y0147
X018619Y015308
X027Y015
X0197Y037157
X029Y028
X026242Y014683
X02319Y03225
X019994Y02218
X03443Y02523
X0247Y012673
X02218Y030303
X0187Y020662
X0242Y012195
X020931Y030459
X0182Y020381
X001908Y02777
X0207Y032103
X03128Y02777
X032646Y034676
X037Y031994
X0345Y031994
X032Y031994
X0295Y031994
X027Y031994
X0245Y031994
X021712Y032333
X008741Y01875
X014995Y014712
X022Y029494
X0245Y029494
X027Y029494
X0295Y029494
X032Y029494
X0345Y029494
X037Y029494
X0314Y0376
X016245Y012496
X006086Y01875
X022Y024494
X0245Y024494
X027Y024494
X0295Y023006
X032Y023006
X0345Y023006
X037Y023006
X037332Y030459
X021399Y022961
X016084Y01375
X032Y032979
X029834Y034676
X037Y034494
X027Y032802
X0245Y032646
X021712Y034676
X033739Y033739
X003743Y01875
X023742Y033114
X029522Y030185
X027172Y030154
X0239Y0355
X032177Y035114
X022493Y022961
X018739Y01625
X020462Y037957
X029366Y035114
X02015Y037488
X026554Y035114
X035145Y030029
X0105Y019334
X016245Y016557
X03249Y030185
X013746Y016401
X021087Y02218
X001087Y01875
X0395Y036994
X0395Y039494
X0395Y015499
X0395Y012999
X0395Y026994
X0395Y021994
X0395Y031994
X0395Y029494
X0395Y024494
X0395Y034494
X0395Y010499
X0395Y007999
X0395Y005499
X0395Y002999
X0395Y000499
M30
