G04 ================== begin FILE IDENTIFICATION RECORD ==================*
G04 Layout Name:  LED Panel G4 V1, 03-26-2017.brd*
G04 Film Name:    GND*
G04 File Format:  Gerber RS274X*
G04 File Origin:  Cadence Allegro 17.2-P019*
G04 Origin Date:  Tue Aug 25 16:25:07 2020*
G04 *
G04 Layer:  VIA CLASS/GND*
G04 Layer:  PIN/GND*
G04 Layer:  ETCH/GND*
G04 Layer:  BOARD GEOMETRY/OUTLINE*
G04 *
G04 Offset:    (0.0000 0.0000)*
G04 Mirror:    No*
G04 Mode:      Positive*
G04 Rotation:  0*
G04 FullContactRelief:  No*
G04 UndefLineWidth:     0.1000*
G04 ================== end FILE IDENTIFICATION RECORD ====================*
%FSLAX33Y33*MOMM*%
%IR0*IPPOS*OFA0.00000B0.00000*MIA0B0*SFA1.00000B1.00000*%
%ADD10C,.4*%
%ADD11C,.127*%
%ADD12C,.1*%
%ADD13C,.6544*%
G75*
%LPD*%
G75*
G36*
G01X100Y100D02*
Y39900D01*
X1698D01*
G02X1769Y39726I0J-102D01*
G03X2231I231J-232D01*
G02X2302Y39900I72J72D01*
G01X4198D01*
G02X4269Y39726I0J-102D01*
G03X4731I231J-232D01*
G02X4802Y39900I72J72D01*
G01X6698D01*
G02X6769Y39726I0J-102D01*
G03X7231I231J-232D01*
G02X7302Y39900I72J72D01*
G01X9198D01*
G02X9269Y39726I0J-102D01*
G03X9731I231J-232D01*
G02X9802Y39900I72J72D01*
G01X11698D01*
G02X11769Y39726I0J-102D01*
G03X12231I231J-232D01*
G02X12302Y39900I72J72D01*
G01X14198D01*
G02X14269Y39726I0J-102D01*
G03X14731I231J-232D01*
G02X14802Y39900I72J72D01*
G01X16698D01*
G02X16769Y39726I0J-102D01*
G03X17231I231J-232D01*
G02X17302Y39900I72J72D01*
G01X17552D01*
G02X17650Y39769I0J-102D01*
G03X18276I313J-94D01*
G02X18374Y39900I97J29D01*
G01X18459D01*
Y39837D01*
X18454Y39826D01*
G03X19057Y39769I290J-151D01*
G02X19155Y39900I97J29D01*
G01X19240D01*
Y39837D01*
X19235Y39826D01*
G03X19838Y39769I290J-151D01*
G02X19936Y39900I97J29D01*
G01X39198D01*
G02X39269Y39726I0J-102D01*
G03X39728Y39259I231J-232D01*
G02X39900Y39186I71J-73D01*
G01Y37302D01*
G02X39728Y37229I-102J0D01*
G03Y36759I-228J-235D01*
G02X39900Y36686I71J-73D01*
G01Y34802D01*
G02X39728Y34729I-102J0D01*
G03Y34259I-228J-235D01*
G02X39900Y34186I71J-73D01*
G01Y32302D01*
G02X39728Y32229I-102J0D01*
G03Y31759I-228J-235D01*
G02X39900Y31686I71J-73D01*
G01Y29802D01*
G02X39728Y29729I-102J0D01*
G03Y29259I-228J-235D01*
G02X39900Y29186I71J-73D01*
G01Y27302D01*
G02X39728Y27229I-102J0D01*
G03Y26759I-228J-235D01*
G02X39900Y26686I71J-73D01*
G01Y24802D01*
G02X39728Y24729I-102J0D01*
G03Y24259I-228J-235D01*
G02X39900Y24186I71J-73D01*
G01Y22302D01*
G02X39728Y22229I-102J0D01*
G03Y21759I-228J-235D01*
G02X39900Y21686I71J-73D01*
G01Y15807D01*
G02X39728Y15734I-102J0D01*
G03Y15264I-228J-235D01*
G02X39900Y15191I71J-73D01*
G01Y13307D01*
G02X39728Y13234I-102J0D01*
G03Y12764I-228J-235D01*
G02X39900Y12691I71J-73D01*
G01Y10807D01*
G02X39728Y10734I-102J0D01*
G03Y10264I-228J-235D01*
G02X39900Y10191I71J-73D01*
G01Y8307D01*
G02X39728Y8234I-102J0D01*
G03Y7764I-228J-235D01*
G02X39900Y7691I71J-73D01*
G01Y5807D01*
G02X39728Y5734I-102J0D01*
G03Y5264I-228J-235D01*
G02X39900Y5191I71J-73D01*
G01Y3307D01*
G02X39728Y3234I-102J0D01*
G03Y2764I-228J-235D01*
G02X39900Y2691I71J-73D01*
G01Y807D01*
G02X39728Y734I-102J0D01*
G03X39264Y272I-228J-235D01*
G02X39191Y100I-73J-71D01*
G01X37309D01*
G02X37236Y272I0J102D01*
G03X36764I-236J227D01*
G02X36691Y100I-73J-71D01*
G01X34809D01*
G02X34736Y272I0J102D01*
G03X34264I-236J227D01*
G02X34191Y100I-73J-71D01*
G01X32309D01*
G02X32236Y272I0J102D01*
G03X31764I-236J227D01*
G02X31691Y100I-73J-71D01*
G01X30976D01*
G02X30886Y249I0J102D01*
G03X30917Y337I-289J153D01*
G02X31054Y411I100J-21D01*
G03X31159Y1042I120J304D01*
G01X31136Y1041D01*
X30474Y1704D01*
X27382D01*
G02X27292Y1851I0J102D01*
G03X26708I-291J149D01*
G02X26618Y1704I-91J-46D01*
G01X20983D01*
G02X20897Y1859I0J102D01*
G03X20340I-278J172D01*
G02X20254Y1704I-86J-53D01*
G01X17382D01*
G02X17292Y1851I0J102D01*
G03X16708I-291J149D01*
G02X16618Y1704I-91J-46D01*
G01X13484D01*
X12904Y2284D01*
Y6527D01*
X13251Y6875D01*
G02X13423Y6820I72J-72D01*
G03X13896Y7167I322J56D01*
G02X13859Y7315I47J90D01*
G03X13263Y7486I-269J186D01*
G01X13264Y7464D01*
X12496Y6696D01*
Y2116D01*
X13316Y1296D01*
X23325D01*
G02X23424Y1172I0J-102D01*
G03X24061I319J-74D01*
G02X24160Y1296I99J23D01*
G01X30305D01*
X30848Y753D01*
X30847Y730D01*
G03X30847Y723I327J-17D01*
G02X30770Y681I-51J1D01*
G03X30308Y249I-173J-278D01*
G02X30218Y100I-90J-48D01*
G01X29809D01*
G02X29736Y272I0J102D01*
G03X29264I-236J227D01*
G02X29191Y100I-73J-71D01*
G01X27437D01*
G02X27339Y228I0J102D01*
G03X26706I-316J85D01*
G02X26608Y100I-98J-26D01*
G01X24809D01*
G02X24736Y272I0J102D01*
G03X24264I-236J227D01*
G02X24191Y100I-73J-71D01*
G01X22309D01*
G02X22236Y272I0J102D01*
G03X21764I-236J227D01*
G02X21691Y100I-73J-71D01*
G01X20798D01*
G02X20718Y265I0J102D01*
G03X20206I-256J204D01*
G02X20127Y100I-79J-63D01*
G01X14809D01*
G02X14736Y272I0J102D01*
G03X14264I-236J227D01*
G02X14191Y100I-73J-71D01*
G01X12309D01*
G02X12236Y272I0J102D01*
G03X11764I-236J227D01*
G02X11691Y100I-73J-71D01*
G01X9809D01*
G02X9736Y272I0J102D01*
G03X9264I-236J227D01*
G02X9191Y100I-73J-71D01*
G01X7309D01*
G02X7236Y272I0J102D01*
G03X6764I-236J227D01*
G02X6691Y100I-73J-71D01*
G01X4809D01*
G02X4736Y272I0J102D01*
G03X4264I-236J227D01*
G02X4191Y100I-73J-71D01*
G01X2309D01*
G02X2236Y272I0J102D01*
G03X1764I-236J227D01*
G02X1691Y100I-73J-71D01*
G01X100D01*
G37*
%LPC*%
G75*
G36*
G01X24346Y37950D02*
G03X24494Y37913I90J47D01*
G02X24389Y37494I186J-269D01*
G03X24241Y37531I-90J-47D01*
G02X24346Y37950I-186J269D01*
G37*
G36*
G01X26873Y38028D02*
G03X26979Y37948I99J22D01*
G02X26681Y37551I21J-327D01*
G03X26575Y37630I-99J-22D01*
G02X26873Y38028I-21J327D01*
G37*
G36*
G01X29277Y37718D02*
G03Y37570I70J-74D01*
G02X28829I-224J-238D01*
G03Y37718I-70J74D01*
G02X29277I224J238D01*
G37*
G36*
G01X19724Y37483D02*
G03X19831Y37562I8J101D01*
G02X20064Y37804I319J-74D01*
G03X20138Y37915I-27J98D01*
G02X20548Y37641I325J42D01*
G03X20474Y37530I27J-98D01*
G02X20125Y37162I-325J-42D01*
G03X20019Y37083I-8J-101D01*
G02X19724Y37483I-319J74D01*
G37*
G36*
G01X26986Y35132D02*
G03X26875Y35051I-11J-101D01*
G02X26590Y35439I-321J63D01*
G03X26702Y35520I11J101D01*
G02X26986Y35132I321J-63D01*
G37*
G36*
G01X14338Y34976D02*
G03X14227Y34880I-10J-101D01*
G02X13621Y35071I-327J19D01*
G03X13584Y35213I-87J53D01*
G02X14047Y35624I161J285D01*
G03X14195Y35578I94J39D01*
G02X14338Y34976I175J-276D01*
G37*
G36*
G01X32504Y35106D02*
G03X32615Y35002I102J-2D01*
G02X32319Y34684I31J-326D01*
G03X32208Y34788I-102J2D01*
G02X32504Y35106I-31J326D01*
G37*
G36*
G01X29693D02*
G03X29804Y35002I102J-2D01*
G02X29507Y34684I31J-326D01*
G03X29396Y34788I-102J2D01*
G02X29693Y35106I-31J326D01*
G37*
G36*
G01X3626Y34788D02*
G03X3536Y34670I10J-101D01*
G02X3180Y34939I-322J-56D01*
G03X3270Y35058I-10J101D01*
G02X3626Y34788I322J56D01*
G37*
G36*
G01X13409Y32734D02*
G03X13267Y32711I-59J-82D01*
G02X13191Y33166I-267J189D01*
G03X13333Y33189I59J82D01*
G02X13409Y32734I267J-189D01*
G37*
G36*
G01X21958Y32682D02*
G03Y32549I77J-67D01*
G02X21465I-246J-215D01*
G03Y32682I-77J67D01*
G02X21958I246J215D01*
G37*
G36*
G01X23468Y32581D02*
G03X23454Y32445I67J-76D01*
G02X22973Y32495I-263J-195D01*
G03X22987Y32631I-67J76D01*
G02X23314Y33146I263J195D01*
G03X23431Y33215I20J100D01*
G02X23678Y32794I311J-100D01*
G03X23562Y32725I-20J-100D01*
G02X23468Y32581I-311J100D01*
G37*
G36*
G01X24713Y32397D02*
G03Y32243I66J-77D01*
G02X24287I-213J-248D01*
G03Y32397I-66J77D01*
G02X24713I213J248D01*
G37*
G36*
G01X14610Y30229D02*
G03X14470Y30212I-61J-81D01*
G02X14411Y30677I-256J204D01*
G03X14552Y30695I61J81D01*
G02X14610Y30229I256J-204D01*
G37*
G36*
G01X21155Y30221D02*
G03Y30073I70J-74D01*
G02X20707I-224J-238D01*
G03Y30221I-70J74D01*
G02X21155I224J238D01*
G37*
G36*
G01X29934Y29480D02*
G03X29815Y29407I-20J-100D01*
G02X29315Y29764I-315J87D01*
G03X29320Y29928I-58J84D01*
G02X29848Y30216I202J257D01*
G03X29961Y30125I101J10D01*
G02X29934Y29480I39J-325D01*
G37*
G36*
G01X8805Y29962D02*
G03X8819Y30113I-61J81D01*
G02X9255Y30072I241J221D01*
G03X9241Y29922I61J-81D01*
G02X9287Y29856I-241J-221D01*
G03X9406Y29808I89J49D01*
G02X9213Y29338I94J-313D01*
G03X9094Y29387I-89J-49D01*
G02X8805Y29962I-94J313D01*
G37*
G36*
G01X19911Y27736D02*
G03X19763I-74J-70D01*
G02Y28184I-238J224D01*
G03X19911I74J70D01*
G02Y27736I238J-224D01*
G37*
G36*
G01X17330Y27426D02*
G03X17269Y27466I-50J-10D01*
G02X16949Y27576I-69J320D01*
G03X16796Y27580I-78J-65D01*
G02X16808Y28013I-239J223D01*
G03X16961Y28009I78J65D01*
G02X17521Y27850I239J-223D01*
G03X17581Y27811I50J10D01*
G02X17330Y27426I69J-320D01*
G37*
G36*
G01X37234Y27771D02*
G03Y27629I73J-71D01*
G02X36766I-234J-229D01*
G03Y27771I-73J71D01*
G02X37234I234J229D01*
G37*
G36*
G01X36434D02*
G03Y27629I73J-71D01*
G02X35966I-234J-229D01*
G03Y27771I-73J71D01*
G02X36434I234J229D01*
G37*
G36*
G01X18757Y27616D02*
G03X18866Y27505I101J-10D01*
G02X18562Y27210I23J-326D01*
G03X18454Y27321I-101J10D01*
G02X18757Y27616I-23J326D01*
G37*
G36*
G01X20374Y25222D02*
G03Y25074I70J-74D01*
G02X19926I-224J-238D01*
G03Y25222I-70J74D01*
G02X20374I224J238D01*
G37*
G36*
G01X18128Y20062D02*
G03X18010Y19995I-22J-99D01*
G02X17772Y20419I-310J105D01*
G03X17890Y20486I22J99D01*
G02X18272Y20701I310J-105D01*
G03X18390Y20767I22J99D01*
G02X18628Y20343I310J-105D01*
G03X18510Y20276I-22J-99D01*
G02X18128Y20062I-310J105D01*
G37*
G36*
G01X12094Y20192D02*
G03X12026Y20063I29J-97D01*
G02X11621Y20276I-311J-101D01*
G03X11689Y20404I-29J97D01*
G02X12094Y20192I311J101D01*
G37*
G36*
G01X9228Y15009D02*
G03X9345Y14923I101J14D01*
G02X9076Y14555I55J-323D01*
G03X8958Y14641I-101J-14D01*
G02X8821Y15280I-55J323D01*
G03X8895Y15399I-26J98D01*
G02X9298Y15147I321J65D01*
G03X9224Y15029I26J-98D01*
G02X9228Y15009I-321J-65D01*
G37*
G36*
G01X3587Y14755D02*
G03X3610Y14822I-23J45D01*
G02X4054Y14672I295J142D01*
G03X4031Y14605I23J-45D01*
G02X3587Y14755I-295J-142D01*
G37*
G36*
G01X19941Y12319D02*
G03X19826Y12210I-14J-101D01*
G02X19174Y12214I-326J-27D01*
G03X19069Y12325I-101J10D01*
G02X19074Y12979I-13J327D01*
G03X19179Y13061I5J101D01*
G02X19823Y13052I321J-62D01*
G03X19938Y12967I100J16D01*
G02X19941Y12319I47J-324D01*
G37*
G36*
G01X16469Y12258D02*
G03Y12110I70J-74D01*
G02X16021I-224J-238D01*
G03Y12258I-70J74D01*
G02X16469I224J238D01*
G37*
G36*
G01X23700Y9826D02*
G03X23600Y9715I0J-102D01*
G02X23272Y10012I-326J-30D01*
G03X23373Y10123I0J102D01*
G02X23700Y9826I326J30D01*
G37*
G36*
G01X36697Y5731D02*
G03X36769Y5731I36J36D01*
G02X36768Y5268I231J-232D01*
G03X36696Y5268I-36J-36D01*
G02X36697Y5731I-231J232D01*
G37*
G36*
G01X34378Y4974D02*
G03X34470Y4866I101J-7D01*
G02X34114Y4564I-30J-326D01*
G03X34022Y4673I-101J7D01*
G02X33732Y5070I30J326D01*
G03X33664Y5189I-99J22D01*
G02X34085Y5428I101J311D01*
G03X34153Y5310I99J-22D01*
G02X34378Y4974I-101J-311D01*
G37*
G36*
G01X23342Y4916D02*
G03Y4768I70J-74D01*
G02X22894I-224J-238D01*
G03Y4916I-70J74D01*
G02X23342I224J238D01*
G37*
G36*
G01X21947Y2882D02*
G03X22098Y2879I77J67D01*
G02X22090Y2441I239J-224D01*
G03X21939Y2444I-77J-67D01*
G02X21947Y2882I-239J224D01*
G37*
G36*
G01X20140Y2500D02*
G03X20022Y2418I-18J-100D01*
G02X19760Y2800I-322J59D01*
G03X19878Y2881I18J100D01*
G02X20140Y2500I322J-59D01*
G37*
G36*
G01X29742Y2779D02*
G03X29745Y2707I38J-34D01*
G02X29280Y2688I-223J-239D01*
G03X29277Y2760I-38J34D01*
G02X29742Y2779I223J239D01*
G37*
G36*
G01X32504Y2455D02*
G03X32584Y2351I102J-4D01*
G02X32185Y2045I-71J-319D01*
G03X32106Y2148I-102J4D01*
G02X32504Y2455I71J319D01*
G37*
G36*
G01X31727Y37587D02*
G02X31531Y37900I-327J13D01*
G03X31673Y37989I41J93D01*
G02X31869Y37676I327J-13D01*
G03X31727Y37587I-41J-93D01*
G37*
G36*
G01X6526Y34929D02*
G02X6293Y34680I88J-315D01*
G03X6166Y34798I-99J21D01*
G02X6399Y35047I-88J315D01*
G03X6526Y34929I99J-21D01*
G37*
G36*
G01X11540Y32813D02*
G02X11528Y33124I-293J145D01*
G03X11707Y33131I87J52D01*
G02X11718Y32819I293J-145D01*
G03X11540Y32813I-87J-52D01*
G37*
G36*
G01X18519Y32649D02*
G02X18168Y32527I-87J-315D01*
G03X18113Y32685I-82J60D01*
G02X18464Y32807I87J315D01*
G03X18519Y32649I82J-60D01*
G37*
G36*
G01X6976Y32474D02*
G02X6675Y32188I25J-326D01*
G03X6567Y32301I-101J12D01*
G02X6218Y32584I-24J326D01*
G03X6074Y32662I-101J-14D01*
G02X6260Y33002I-139J296D01*
G03X6404Y32924I101J14D01*
G02X6867Y32588I139J-296D01*
G03X6976Y32474I101J-12D01*
G37*
G36*
G01X37066Y29815D02*
G02X36705Y29636I-66J-320D01*
G03X36634Y29780I-92J44D01*
G02X36855Y30388I66J320D01*
G03X37005Y30473I48J89D01*
G02X37177Y30171I327J-14D01*
G03X37027Y30086I-48J-89D01*
G02X36995Y29958I-327J14D01*
G03X37066Y29815I92J-44D01*
G37*
G36*
G01X27321Y29430D02*
G02X26873Y29796I-321J64D01*
G03X26914Y29952I-39J94D01*
G02X27494Y30211I258J201D01*
G03X27595Y30127I100J18D01*
G02X27463Y29503I5J-327D01*
G03X27321Y29430I-42J-92D01*
G37*
G36*
G01X22321Y22559D02*
G02X21676Y22583I-321J66D01*
G03X21533Y22663I-101J-13D01*
G02X21724Y23003I-134J299D01*
G03X21866Y22923I101J13D01*
G02X22056Y22947I134J-299D01*
G03X22172Y23027I17J100D01*
G02X22437Y22639I321J-66D01*
G03X22321Y22559I-17J-100D01*
G37*
G36*
G01X22899Y19470D02*
G02X22820Y19960I-250J211D01*
G03X22950Y19981I53J87D01*
G02X23261Y20091I250J-212D01*
G03X23379Y20171I19J100D01*
G02X24021I321J-64D01*
G03X24139Y20091I100J20D01*
G02X24262Y20091I61J-322D01*
G03X24381Y20213I19J100D01*
G02X24638Y19964I319J72D01*
G03X24519Y19842I-19J-100D01*
G02X23879Y19706I-319J-72D01*
G03X23761Y19786I-100J-20D01*
G02X23639I-61J321D01*
G03X23521Y19706I-19J-100D01*
G02X23029Y19491I-321J64D01*
G03X22899Y19470I-53J-87D01*
G37*
G36*
G01X20304Y19857D02*
X20320Y19842D01*
G02X19896Y19856I-220J-242D01*
G01Y20075D01*
X19896Y20176D01*
G03X19725Y20250I-102J0D01*
G02X19799Y20620I-225J238D01*
G01X19812Y20590D01*
X19896D01*
Y20816D01*
X19616Y21096D01*
X10716D01*
X9996Y21816D01*
Y24316D01*
X9516Y24796D01*
X8516D01*
X7996Y25316D01*
Y29416D01*
X7313Y30099D01*
X6660D01*
G02X6590Y30034I-256J204D01*
G03X6589Y29867I58J-84D01*
G02X6669Y29786I-189J-267D01*
G03X6811Y29762I83J58D01*
G02X6731Y29308I189J-267D01*
G03X6589Y29333I-83J-58D01*
G02X6214Y29869I-189J267D01*
G03X6215Y30036I-58J84D01*
G02X6660Y30506I189J267D01*
G01X7482D01*
X8404Y29584D01*
Y26598D01*
G03X8565Y26516I102J0D01*
G02Y25984I191J-266D01*
G03X8404Y25902I-59J-82D01*
G01Y25484D01*
X8684Y25204D01*
X9684D01*
X10404Y24484D01*
Y21984D01*
X10884Y21504D01*
X19784D01*
X20304Y20984D01*
Y20850D01*
G03X20426Y20751I102J0D01*
G02Y20110I67J-320D01*
G03X20304Y20011I-21J-99D01*
G01Y19906D01*
X20304Y19857D01*
G37*
G36*
G01X9229Y19879D02*
G02X9073Y19597I171J-279D01*
G03X8918Y19683I-102J-1D01*
G02X9074Y19965I-171J279D01*
G03X9229Y19879I102J1D01*
G37*
G36*
G01X6328Y18970D02*
G02X6036Y19073I-242J-220D01*
G03X6096Y19242I-16J100D01*
G02X6015Y19517I242J220D01*
G03X5920Y19635I-100J17D01*
G02X6258Y19908I16J327D01*
G03X6354Y19789I100J-17D01*
G02X6388Y19139I-16J-327D01*
G03X6328Y18970I16J-100D01*
G37*
G36*
G01X3879Y19048D02*
G02X3527Y18996I-136J-298D01*
G03X3502Y19164I-67J76D01*
G02X3316Y19524I136J298D01*
G03X3195Y19643I-100J19D01*
G02X3445Y19900I-71J319D01*
G03X3567Y19782I100J-19D01*
G02X3854Y19216I71J-319D01*
G03X3879Y19048I67J-76D01*
G37*
G36*
G01X26497Y17318D02*
G02X26271Y17563I-320J-68D01*
G03X26400Y17682I29J97D01*
G02X26625Y17437I320J68D01*
G03X26497Y17318I-29J-97D01*
G37*
G36*
G01X2122Y15053D02*
G02X1723Y15129I-248J-214D01*
G03X1752Y15285I-47J90D01*
G02X2152Y15209I248J214D01*
G03X2122Y15053I47J-90D01*
G37*
G36*
G01X26511Y14869D02*
G02X26092Y14974I-269J-186D01*
G03X26129Y15122I-47J90D01*
G02X26719Y15370I269J186D01*
G03X26862Y15297I100J19D01*
G02X26673Y15003I138J-297D01*
G03X26592Y15044I-51J0D01*
G02X26548Y15017I-194J263D01*
G03X26511Y14869I47J-90D01*
G37*
G36*
G01X6659Y14520D02*
G02X6304Y14789I-322J-56D01*
G03X6394Y14908I-10J101D01*
G02X6394Y15020I322J56D01*
G03X6283Y15138I-100J17D01*
G02X6570Y15408I-35J325D01*
G03X6681Y15289I100J-17D01*
G02X6749Y14638I35J-325D01*
G03X6659Y14520I10J-101D01*
G37*
G36*
G01X24524Y12237D02*
G02X23878Y12135I-324J-43D01*
G03X23760Y12217I-100J-18D01*
G02X23390Y12435I-60J322D01*
G03X23271Y12502I-96J-32D01*
G02X23101Y12510I-71J319D01*
G03X22970Y12433I-31J-97D01*
G02X22748Y12808I-321J63D01*
G03X22879Y12885I31J97D01*
G02X23510Y12925I321J-63D01*
G03X23629Y12858I96J32D01*
G02X24022Y12598I71J-319D01*
G03X24140Y12516I100J18D01*
G02X24257Y12517I60J-322D01*
G03X24376Y12630I18J100D01*
G02X24768Y12993I324J43D01*
G03X24828Y13032I10J50D01*
G02X25080Y12644I320J-67D01*
G03X25020Y12605I-10J-50D01*
G02X24643Y12350I-320J67D01*
G03X24524Y12237I-18J-100D01*
G37*
G36*
G01X12084Y11196D02*
X2730D01*
X2037Y11889D01*
X2014Y11888D01*
G02X2326Y12200I-15J327D01*
G01X2325Y12177D01*
X2899Y11604D01*
X3288D01*
G03X3362Y11775I0J102D01*
G02X3838I238J225D01*
G03X3912Y11604I74J-70D01*
G01X11916D01*
X12796Y12484D01*
Y16684D01*
X13516Y17404D01*
X15618D01*
G03X15708Y17551I0J102D01*
G02X16292I291J149D01*
G03X16382Y17404I91J-46D01*
G01X21802D01*
X22323Y17925D01*
X22322Y17948D01*
G02X22634Y17636I327J15D01*
G01X22611Y17637D01*
X21970Y16996D01*
X13684D01*
X13204Y16516D01*
Y15012D01*
G03X13375Y14938I102J0D01*
G02Y14462I225J-238D01*
G03X13204Y14388I-70J-74D01*
G01Y12316D01*
X12084Y11196D01*
G37*
G36*
G01X19988Y9414D02*
G02X19771Y9843I-306J115D01*
G03X19894Y9905I28J98D01*
G02X20255Y10113I306J-115D01*
G03X20373Y10218I17J100D01*
G02X20814Y10541I327J16D01*
G03X20943Y10596I36J95D01*
G02X21559Y10552I300J-130D01*
G03X21670Y10478I98J27D01*
G02X21959Y9938I42J-325D01*
G03X22001Y9855I38J-33D01*
G02X22066Y9853I23J-326D01*
G03X22177Y9927I13J101D01*
G02X22451Y9516I316J-86D01*
G03X22340Y9442I-13J-101D01*
G02X21735Y9682I-316J86D01*
G03X21661Y9830I-90J48D01*
G02X21647Y9832I51J323D01*
G03X21526Y9741I-20J-100D01*
G02X20874Y9802I-326J28D01*
G03X20756Y9912I-101J10D01*
G02X20645Y9912I-56J322D01*
G03X20527Y9807I-17J-100D01*
G02X20111Y9476I-327J-16D01*
G03X19988Y9414I-28J-98D01*
G37*
G36*
G01X26871Y7546D02*
G02X26577Y7793I-317J-80D01*
G03X26683Y7919I7J101D01*
G02X26977Y7673I317J80D01*
G03X26871Y7546I-7J-101D01*
G37*
G36*
G01X23497Y7318D02*
G02X23271Y7563I-320J-68D01*
G03X23400Y7682I29J97D01*
G02X23625Y7437I320J68D01*
G03X23497Y7318I-29J-97D01*
G37*
G36*
G01X30124Y4839D02*
G02X29748Y5002I-289J-153D01*
G03X29811Y5147I-27J98D01*
G02X29801Y5166I289J153D01*
G03X29659Y5213I-93J-42D01*
G02X29799Y5633I-159J286D01*
G03X29941Y5586I93J42D01*
G02X30186Y4984I159J-286D01*
G03X30124Y4839I27J-98D01*
G37*
G36*
G01X27500Y4751D02*
G02X27180Y5013I-321J-65D01*
G03X27279Y5135I0J102D01*
G02X27273Y5194I321J65D01*
G03X27192Y5234I-51J-1D01*
G02X27320Y5568I-192J265D01*
G03X27462Y5497I99J21D01*
G02X27599Y4873I138J-297D01*
G03X27500Y4751I0J-102D01*
G37*
G54D13*
X1093Y10407D03*
X14214Y2655D03*
X14500Y4501D03*
X12000Y2999D03*
X9500D03*
X7000D03*
X4500D03*
X2000D03*
X14500Y5499D03*
X12000D03*
X9500D03*
X7000D03*
X4500D03*
X2000D03*
X14500Y9501D03*
X12000Y7999D03*
X9500D03*
X7000D03*
X4500D03*
X2000D03*
X14500Y10499D03*
X12000D03*
X9500D03*
X7000D03*
X4500D03*
X2000D03*
X1087Y18750D03*
X13746Y16401D03*
X10500Y19334D03*
X14995Y14712D03*
X8741Y18750D03*
X1908Y27770D03*
X13500Y19700D03*
X13000Y23000D03*
X9714Y34614D03*
X3700Y29500D03*
X13800Y29700D03*
X13600Y27200D03*
X1087Y21250D03*
X11090Y24523D03*
X8591Y24055D03*
X14995Y19681D03*
X3593Y22493D03*
X11246Y26398D03*
X5500Y23114D03*
X12184Y27960D03*
X1644Y25230D03*
X12184Y30334D03*
X12014Y35114D03*
X9046D03*
X3593Y30334D03*
X9500Y21994D03*
X7000D03*
X4500D03*
X2000D03*
X14500Y20506D03*
X12000Y24340D03*
X9500Y23100D03*
X7000Y23006D03*
X4500D03*
X1256Y23750D03*
X3574Y32628D03*
X13700Y22000D03*
X6256Y26250D03*
X3756D03*
X1256D03*
X12000Y26995D03*
X13754Y26250D03*
X4500Y29494D03*
X1256Y28750D03*
X12000Y29494D03*
X13746Y27960D03*
X13800Y32000D03*
X12000Y31994D03*
X4500Y31835D03*
X1256Y31250D03*
X8903Y32958D03*
X8756Y33750D03*
X6256D03*
X3756D03*
X1256D03*
X14500Y36994D03*
X12000D03*
X9500D03*
X7000D03*
X4500D03*
X2000D03*
X11200Y13200D03*
X12340Y14964D03*
X3749Y20462D03*
X6560D03*
X9372D03*
X14500Y12999D03*
X12000D03*
X9500D03*
X7000D03*
X4500D03*
X2000D03*
X11200Y18200D03*
X12000Y17001D03*
X9500D03*
X14500Y15490D03*
X4500Y17001D03*
X7000D03*
X14500Y17999D03*
X12000D03*
X9500D03*
X7000D03*
X4500D03*
X2000D03*
X21804Y4750D03*
X16200Y6900D03*
X32800Y7000D03*
X37000Y7100D03*
X36830Y2159D03*
X38581Y12340D03*
X19700Y7829D03*
X28800Y12200D03*
X28803Y9997D03*
X26398Y2468D03*
X29366Y7466D03*
X32177D03*
X34989D03*
X34833Y2468D03*
X24500Y2999D03*
X27000D03*
X37000D03*
X31240Y5000D03*
X26242Y4530D03*
X24500Y5499D03*
X32500Y5400D03*
X30300Y7999D03*
X37000D03*
X24500D03*
X34500Y8100D03*
X37000Y10499D03*
X34500D03*
X32000D03*
X29500D03*
X27000D03*
X24500D03*
X30600Y7300D03*
X28585Y781D03*
X33739Y937D03*
X38580Y3750D03*
X21243Y625D03*
X17000Y2999D03*
X18744Y2655D03*
X16245Y5467D03*
X17000Y9501D03*
Y10499D03*
X21087Y22180D03*
X32490Y30185D03*
X16245Y16557D03*
X35145Y30029D03*
X18739Y16250D03*
X23900Y35500D03*
X33739Y33739D03*
X21712Y34676D03*
X27000Y32802D03*
X37000Y34494D03*
X32000Y32979D03*
X16084Y13750D03*
X37000Y23006D03*
X34500D03*
X32000D03*
X29500D03*
X27000Y24494D03*
X24500D03*
X22000D03*
X34500Y29494D03*
X32000D03*
X24500D03*
X22000D03*
X27000Y31994D03*
X29500D03*
X32000D03*
X34500D03*
X37000D03*
X31280Y27770D03*
X20700Y32103D03*
X22180Y30303D03*
X34430Y25230D03*
X19994Y22180D03*
X29000Y28000D03*
X18619Y15308D03*
X31275Y34100D03*
X36220Y34220D03*
X33500Y29500D03*
X26600Y28000D03*
X18300Y34600D03*
X26100Y33000D03*
X38738Y14838D03*
X31240Y29678D03*
X37000Y20506D03*
X34500D03*
X32000D03*
X29500D03*
X27000Y21994D03*
X24500D03*
X38000Y37957D03*
X35500D03*
X33000D03*
X30500D03*
X24992Y35145D03*
X18744Y28428D03*
X16245Y30459D03*
X19681Y27179D03*
X17338Y30303D03*
X36247Y26250D03*
X33748D03*
X31248D03*
X27000Y26994D03*
X24500D03*
X22000D03*
X28585Y25304D03*
X27179Y34520D03*
X21087Y12808D03*
X27000Y12999D03*
X29500D03*
X32000D03*
X34500D03*
X37000D03*
X28000Y15400D03*
X29500Y15499D03*
X32000D03*
X34500D03*
X37000D03*
X21248Y16250D03*
X26242Y19994D03*
X39362Y18119D03*
X37000Y17999D03*
X34500D03*
X32000D03*
X29500D03*
X37176Y17182D03*
X35500Y19600D03*
X16870Y20462D03*
X15308Y22337D03*
X20150Y22961D03*
X20775Y27335D03*
X17494Y29522D03*
X18275Y30459D03*
X16000Y32000D03*
X16600Y34800D03*
X18290Y35450D03*
X17000Y36994D03*
X18275Y37488D03*
X21399Y37957D03*
X37000Y37976D03*
X34500D03*
X21712Y19837D03*
X37000Y36994D03*
X34500D03*
X32000D03*
X22180Y37644D03*
X25055Y30084D03*
X17000Y12999D03*
X19500Y15489D03*
X17000Y15490D03*
Y17999D03*
%LPD*%
G75*
G54D10*
X1093Y10407D03*
X10600Y10400D03*
X8000Y9600D03*
X8600D03*
X9200D03*
X9800D03*
X14900Y12300D03*
X11800Y4800D03*
X15000Y5300D03*
X14214Y2655D03*
X13746Y6876D03*
X13589Y7501D03*
X3600Y12000D03*
X1999Y12215D03*
X14500Y499D03*
X12000D03*
X9500D03*
X7000D03*
X4500D03*
X2000D03*
X14500Y4501D03*
X12000Y2999D03*
X9500D03*
X7000D03*
X4500D03*
X2000D03*
X14500Y5499D03*
X12000D03*
X9500D03*
X7000D03*
X4500D03*
X2000D03*
X14500Y9501D03*
X12000Y7999D03*
X9500D03*
X7000D03*
X4500D03*
X2000D03*
X14500Y10499D03*
X12000D03*
X9500D03*
X7000D03*
X4500D03*
X2000D03*
X1087Y18750D03*
X13746Y16401D03*
X10500Y19334D03*
X3743Y18750D03*
X6086D03*
X14995Y14712D03*
X8741Y18750D03*
X1908Y27770D03*
X13600Y14700D03*
X9400Y14600D03*
X6336Y14464D03*
X13500Y19700D03*
X13000Y23000D03*
X9400Y19600D03*
X6614Y34614D03*
X9714D03*
X13900Y34900D03*
X3214Y34614D03*
X3700Y29500D03*
X6400Y29600D03*
X9000Y29700D03*
X13800D03*
X13600Y27200D03*
X3638Y19462D03*
X6338D03*
X3736Y14464D03*
X13746Y35497D03*
X14370Y35301D03*
X14808Y30490D03*
X1087Y21250D03*
X11090Y24523D03*
X8591Y24055D03*
X14995Y19681D03*
X3593Y22493D03*
X11246Y26398D03*
X5500Y23114D03*
X13750Y34375D03*
X1875Y35000D03*
X6250Y37500D03*
X8750Y36875D03*
X12400Y35500D03*
X8279Y31999D03*
X5467D03*
X2499D03*
X11403D03*
X13750Y24750D03*
X13800Y23200D03*
X8500Y22500D03*
X11000Y22900D03*
X8700Y17000D03*
X6200D03*
X3464Y15464D03*
X10900Y17300D03*
X2000Y20100D03*
X5900Y22200D03*
X10600Y20100D03*
X8800Y20600D03*
X14214Y30416D03*
X13000Y32900D03*
X12184Y27960D03*
X1644Y25230D03*
X9060Y30334D03*
X12184D03*
X12014Y35114D03*
X9046D03*
X6079D03*
X3593D03*
Y30334D03*
X6404Y30303D03*
X12000Y20506D03*
X9500Y21994D03*
X7000D03*
X4500D03*
X2000D03*
X6542Y32628D03*
X14500Y20506D03*
X12000Y24340D03*
X9500Y23100D03*
X7000Y23006D03*
X4500D03*
X1256Y23750D03*
X3574Y32628D03*
X13700Y22000D03*
X8756Y26250D03*
X6256D03*
X3756D03*
X1256D03*
X12000Y26995D03*
X13754Y26250D03*
X4500Y29494D03*
X1256Y28750D03*
X5936Y32958D03*
X7000Y29494D03*
X9500D03*
X12000D03*
X13746Y27960D03*
X13800Y32000D03*
X12000Y31994D03*
X4500Y31835D03*
X1256Y31250D03*
X8903Y32958D03*
X7000Y32148D03*
X13600Y33000D03*
X8756Y33750D03*
X6256D03*
X3756D03*
X1256D03*
X12000Y32986D03*
X11246Y32958D03*
X14500Y36994D03*
X12000D03*
X9500D03*
X7000D03*
X4500D03*
X2000D03*
X11200Y13200D03*
X8903Y14964D03*
X12340D03*
X11715Y19962D03*
X8747D03*
X5936D03*
X3124D03*
X3905Y14964D03*
X6717D03*
X6248Y15464D03*
X1874Y14839D03*
X3749Y20462D03*
X6560D03*
X9372D03*
X14500Y12999D03*
X12000D03*
X9500D03*
X7000D03*
X4500D03*
X2000D03*
X11200Y18200D03*
X12000Y17001D03*
X9500D03*
X14500Y15490D03*
X4500Y17001D03*
X2000Y15499D03*
X7000Y17001D03*
X14500Y17999D03*
X12000D03*
X9500D03*
X7000D03*
X4500D03*
X2000D03*
X9216Y15464D03*
X14500Y39494D03*
X12000D03*
X9500D03*
X7000D03*
X4500D03*
X2000D03*
X22493Y9841D03*
X21243Y10465D03*
X16245Y12496D03*
X24200Y12195D03*
X21700Y2667D03*
X23118Y4530D03*
X21804Y4750D03*
X16200Y6900D03*
X33766Y5500D03*
X36466D03*
X32800Y7000D03*
X37000Y7100D03*
X32512Y2032D03*
X36830Y2159D03*
X30597Y403D03*
X27000Y2000D03*
X27600Y5200D03*
X30100Y5300D03*
X32568Y2968D03*
X35132D03*
X32566Y7966D03*
X35266D03*
X28600Y4500D03*
X24300Y7100D03*
X19100Y5000D03*
X19600D03*
X20100D03*
X19100Y5500D03*
X19600D03*
X20100D03*
X19100Y7000D03*
X19600D03*
X20200D03*
X25068Y2968D03*
X25900Y7000D03*
X28900D03*
X38581Y12340D03*
X19700Y7829D03*
X28800Y12200D03*
X28803Y9997D03*
X20618Y2031D03*
X29522Y2468D03*
X23177Y7250D03*
X26398Y2468D03*
X23720Y7750D03*
X26554Y7466D03*
X22024Y9528D03*
X29366Y7466D03*
X21200Y9770D03*
X32177Y7466D03*
X20700Y10235D03*
X34989Y7466D03*
X20200Y9790D03*
X34833Y2468D03*
X19700Y2478D03*
X32177Y2468D03*
X20200Y2822D03*
X39500Y499D03*
X37000D03*
X34500D03*
X32000D03*
X29500D03*
X24500D03*
X22000D03*
X27023Y312D03*
X22337Y2655D03*
X24500Y2999D03*
X27000D03*
X29500D03*
X39500D03*
X37000D03*
X34052Y4998D03*
X31240Y5000D03*
X26242Y4530D03*
X23118Y5155D03*
X29500Y5499D03*
X27000D03*
X24500D03*
X32500Y5400D03*
X37000Y5499D03*
X39500D03*
X34440Y4540D03*
X30300Y7999D03*
X37000D03*
X39500D03*
X23274Y9684D03*
X27000Y7999D03*
X24500D03*
X34500Y8100D03*
X21712Y10153D03*
X39500Y10499D03*
X37000D03*
X34500D03*
X32000D03*
X29500D03*
X27000D03*
X24500D03*
X30600Y7300D03*
X27179Y4686D03*
X29834D03*
X28585Y781D03*
X33739Y937D03*
X16245Y11871D03*
X38580Y3750D03*
X19985Y12643D03*
X21243Y625D03*
X19056Y12652D03*
X31174Y715D03*
X23699Y10153D03*
X23742Y1098D03*
X23700Y12538D03*
X22649Y12496D03*
X20462Y469D03*
X17000Y2000D03*
Y2999D03*
X18744Y2655D03*
X16245Y5467D03*
X19681Y9528D03*
X17000Y9501D03*
X19500Y12184D03*
X17000Y10499D03*
X21087Y22180D03*
X32490Y30185D03*
X16245Y16557D03*
X35145Y30029D03*
X26554Y35114D03*
X20150Y37488D03*
X29366Y35114D03*
X20462Y37957D03*
X18739Y16250D03*
X22493Y22961D03*
X32177Y35114D03*
X23900Y35500D03*
X27172Y30154D03*
X29522Y30185D03*
X23742Y33114D03*
X33739Y33739D03*
X21712Y34676D03*
X24500Y32646D03*
X27000Y32802D03*
X37000Y34494D03*
X39500D03*
X29834Y34676D03*
X32000Y32979D03*
X16084Y13750D03*
X21399Y22961D03*
X37332Y30459D03*
X39500Y24494D03*
X37000Y23006D03*
X34500D03*
X32000D03*
X29500D03*
X27000Y24494D03*
X24500D03*
X22000D03*
X39500Y29494D03*
X31400Y37600D03*
X37000Y29494D03*
X34500D03*
X32000D03*
X29500D03*
X27000D03*
X24500D03*
X22000D03*
X21712Y32333D03*
X24500Y31994D03*
X27000D03*
X29500D03*
X32000D03*
X34500D03*
X37000D03*
X39500D03*
X32646Y34676D03*
X31280Y27770D03*
X20700Y32103D03*
X18200Y20381D03*
X20931Y30459D03*
X18700Y20662D03*
X22180Y30303D03*
X24700Y12673D03*
X34430Y25230D03*
X19994Y22180D03*
X23190Y32250D03*
X26242Y14683D03*
X29000Y28000D03*
X19700Y37157D03*
X27000Y15000D03*
X18619Y15308D03*
X31275Y34100D03*
X36220Y34220D03*
X36700Y30100D03*
X33500Y29500D03*
X27600Y29800D03*
X30000D03*
X37000Y27400D03*
X36200D03*
X37000Y28000D03*
X36200D03*
X26600D03*
X18300Y34600D03*
X18200Y33000D03*
X21712Y32898D03*
X26100Y33000D03*
X38738Y14838D03*
X20931Y29834D03*
X19525Y27960D03*
X31240Y29678D03*
X22000Y22625D03*
X39500Y21994D03*
X37000Y20506D03*
X34500D03*
X32000D03*
X29500D03*
X27000Y21994D03*
X24500D03*
X38000Y37957D03*
X35500D03*
X33000D03*
X30500D03*
X27023Y35457D03*
X24992Y35145D03*
X23250Y32826D03*
X18744Y28428D03*
X16000Y17700D03*
X16245Y30459D03*
X19681Y27179D03*
X17338Y30303D03*
X21300Y24700D03*
X21900Y15500D03*
X22400D03*
X21900Y15000D03*
X22400D03*
X23500Y15500D03*
Y15000D03*
X28741Y36395D03*
X31084Y32490D03*
X26242Y31865D03*
X33739Y36395D03*
X31240Y36238D03*
X26242Y36395D03*
X28741Y31709D03*
X33739D03*
X23300Y34500D03*
X20900Y33000D03*
X20600Y34500D03*
Y35000D03*
X19100Y33000D03*
X20100Y34500D03*
X19600D03*
X19100D03*
X20100Y35000D03*
X19600D03*
X19100D03*
X16600Y25000D03*
X16000D03*
X17200D03*
X16000Y24500D03*
X16600D03*
X17200D03*
X16000Y23000D03*
X17200D03*
X16400Y15100D03*
X39500Y26994D03*
X36247Y26250D03*
X33748D03*
X31248D03*
X27000Y26994D03*
X24500D03*
X22000D03*
X28585Y25304D03*
X27179Y34520D03*
X21087Y12808D03*
X25148Y12965D03*
X27000Y12999D03*
X29500D03*
X32000D03*
X34500D03*
X37000D03*
X39500D03*
X28000Y15400D03*
X29500Y15499D03*
X32000D03*
X34500D03*
X37000D03*
X39500D03*
X21248Y16250D03*
X26398Y15308D03*
X22649Y19681D03*
X26242Y19994D03*
X39362Y18119D03*
X37000Y17999D03*
X34500D03*
X32000D03*
X29500D03*
X16557Y27804D03*
X17700Y20100D03*
X37176Y17182D03*
X35500Y19600D03*
X20150Y24836D03*
Y25461D03*
X18888Y27179D03*
X18432Y27647D03*
X17651Y27491D03*
X17200Y27786D03*
X16870Y20462D03*
X20100Y19600D03*
X19500Y20487D03*
X15308Y22337D03*
X20150Y22961D03*
X20775Y27335D03*
X20150Y27960D03*
X17494Y29522D03*
X18275Y30459D03*
X16000Y32000D03*
X16600Y34800D03*
X18432Y32333D03*
X18290Y35450D03*
X17000Y36994D03*
X18275Y37488D03*
X22649Y17963D03*
X21399Y37957D03*
X24055Y37800D03*
X37000Y37976D03*
X34500D03*
X32000D03*
X26554Y37957D03*
X29053D03*
X20494Y20431D03*
X21712Y19837D03*
X26177Y17250D03*
X26720Y17750D03*
X24700Y20286D03*
X24200Y19770D03*
X23700Y20107D03*
X23200Y19770D03*
Y12822D03*
X39500Y36994D03*
X37000D03*
X34500D03*
X32000D03*
X29053Y37332D03*
X27000Y37622D03*
X24680Y37644D03*
X22180D03*
X25055Y30084D03*
X19500Y12999D03*
X17000D03*
X19500Y15489D03*
X17000Y15490D03*
Y17999D03*
X19525Y39675D03*
X18744D03*
X17963D03*
X22768Y39504D03*
X17000Y39494D03*
X39500D03*
G54D11*
G01X31174Y715D02*
X30389Y1500D01*
X13400D01*
X12700Y2200D01*
Y6612D01*
X13589Y7501D01*
G01X22649Y17963D02*
X21886Y17200D01*
X13600D01*
X13000Y16600D01*
Y12400D01*
X12000Y11400D01*
X2814D01*
X1999Y12215D01*
G01X20100Y19600D02*
Y19991D01*
X20100Y20900D01*
X19700Y21300D01*
X10800D01*
X10200Y21900D01*
Y24400D01*
X9600Y25000D01*
X8600D01*
X8200Y25400D01*
Y29500D01*
X7397Y30303D01*
X6404D01*
G54D12*
G01X40000Y40000D02*
X0D01*
Y0D01*
X40000D01*
Y40000D01*
G01X0Y-1400D02*
X-2400D01*
G01X-1200Y-2600D02*
Y-200D01*
G01X-500Y-1400D02*
G03I-700J0D01*
G01X-200Y-1300D02*
G03I-1000J-100D01*
G01X-1700Y41300D02*
G03I-1000J-100D01*
G01X-2000Y41200D02*
G03I-700J0D01*
G01X-2700Y40000D02*
Y42400D01*
G01X-1500Y41200D02*
X-3900D01*
G01X42300Y-1300D02*
X39900D01*
G01X42100Y-1200D02*
G03I-1000J-100D01*
G01X41100Y-2500D02*
Y-100D01*
G01X41800Y-1300D02*
G03I-700J0D01*
G01X42900Y41300D02*
X40500D01*
G01X41700Y40100D02*
Y42500D01*
G01X42400Y41300D02*
G03I-700J0D01*
G01X42700Y41400D02*
G03I-1000J-100D01*
M02*
