G04 ================== begin FILE IDENTIFICATION RECORD ==================*
G04 Layout Name:  LED Panel G4 V1, 03-26-2017.brd*
G04 Film Name:    TOP*
G04 File Format:  Gerber RS274X*
G04 File Origin:  Cadence Allegro 17.2-P019*
G04 Origin Date:  Tue Aug 25 16:25:07 2020*
G04 *
G04 Layer:  VIA CLASS/TOP*
G04 Layer:  PIN/TOP*
G04 Layer:  ETCH/TOP*
G04 Layer:  BOARD GEOMETRY/OUTLINE*
G04 *
G04 Offset:    (0.0000 0.0000)*
G04 Mirror:    No*
G04 Mode:      Positive*
G04 Rotation:  0*
G04 FullContactRelief:  No*
G04 UndefLineWidth:     0.1000*
G04 ================== end FILE IDENTIFICATION RECORD ====================*
%FSLAX33Y33*MOMM*%
%IR0*IPPOS*OFA0.00000B0.00000*MIA0B0*SFA1.00000B1.00000*%
%ADD14R,1.5X.4*%
%ADD13R,.4X1.5*%
%ADD15C,.4*%
%ADD16R,.375X.375*%
%ADD19R,.3X.7*%
%ADD17R,.7X.3*%
%ADD11R,.65X.5001*%
%ADD10R,.5001X.65*%
%ADD12R,3.68X1.27*%
%ADD18R,2.7X2.7*%
%ADD20C,.2*%
%ADD21C,.25*%
%ADD22C,.127*%
%ADD23C,.1*%
%ADD26C,.6544*%
%ADD27R,.7546X4.4604*%
%ADD25R,3.9304X1.5204*%
%ADD24R,3.9344X1.5244*%
%ADD29R,.9044X.7546*%
%ADD28R,.7546X.9044*%
G75*
%LPD*%
G75*
G36*
G01X17242Y14856D02*
X15811D01*
X15759Y14804D01*
X15716D01*
X14996Y14084D01*
Y13684D01*
X14903Y13591D01*
X14153D01*
X13137Y12575D01*
X12775D01*
Y10825D01*
X13425D01*
Y12287D01*
X14036Y12898D01*
G02X14201Y12867I72J-72D01*
G03X14282Y12755I299J132D01*
G02X14215Y12577I-67J-76D01*
G01X13973D01*
Y10823D01*
X14133D01*
G02X14220Y10669I0J-102D01*
G03X14654Y10788I280J-169D01*
G01X14627Y10802D01*
Y12577D01*
X14521D01*
Y12670D01*
X14562Y12678D01*
G03X14821Y13063I-62J321D01*
G02X14921Y13184I100J20D01*
G01X15072D01*
X15123Y13235D01*
G02X15296Y13163I72J-72D01*
G01Y12575D01*
X15175D01*
Y10825D01*
X15825D01*
Y11584D01*
G02X16002Y11652I102J0D01*
G03X16260Y11544I243J220D01*
G01X16282Y11545D01*
X16598Y11230D01*
X17513D01*
Y11059D01*
X19975D01*
Y11521D01*
X20188Y11735D01*
Y12387D01*
G03X19938Y12967I-204J256D01*
G02X19823Y13052I-15J101D01*
G03X19768Y13186I-323J-52D01*
G02X19852Y13346I83J58D01*
G01X20925D01*
Y13093D01*
G03X21322Y12580I162J-284D01*
G02X21496Y12510I73J-71D01*
G01Y12278D01*
X21262D01*
Y11527D01*
X22943D01*
Y11555D01*
X23818D01*
Y11870D01*
G02X23986Y11947I102J0D01*
G03X24215Y11868I214J248D01*
G01X24238Y11869D01*
X24896Y11210D01*
Y10811D01*
G02X24725Y10737I-102J0D01*
G03Y10262I-225J-238D01*
G02X24896Y10188I70J-74D01*
G01Y8311D01*
G02X24725Y8237I-102J0D01*
G03Y7762I-225J-238D01*
G02X24896Y7688I70J-74D01*
G01Y7184D01*
X23696Y5984D01*
Y3884D01*
X23496Y3684D01*
Y2684D01*
X23216Y2404D01*
X22929D01*
X22916Y2390D01*
X22733D01*
G02X22639Y2531I0J102D01*
G03X22098Y2879I-303J125D01*
G02X21947Y2882I-74J69D01*
G03X21904Y2923I-247J-215D01*
G01Y3075D01*
X21975D01*
Y3975D01*
X22875D01*
Y4046D01*
X23025D01*
X23189Y4210D01*
X23202Y4214D01*
G03X23342Y4768I-84J316D01*
G02Y4916I70J74D01*
G03X23010Y5464I-224J238D01*
G02X22875Y5560I-33J96D01*
G01Y5973D01*
X22877D01*
Y6527D01*
X22875D01*
Y7010D01*
X22954D01*
X22968Y6998D01*
G03X23497Y7318I209J252D01*
G02X23625Y7437I99J21D01*
G03X23498Y7990I94J313D01*
G01X22875D01*
Y8025D01*
X21975D01*
Y8925D01*
X21904D01*
Y9120D01*
X21986Y9202D01*
X22009Y9201D01*
G03X22340Y9442I15J327D01*
G02X22451Y9516I98J-27D01*
G03X22696Y10097I42J325D01*
G01Y10527D01*
X22943D01*
Y10553D01*
X23391D01*
G02X23464Y10380I0J-102D01*
G03X23373Y10123I235J-227D01*
G02X23272Y10012I-101J-9D01*
G03X23600Y9715I2J-327D01*
G02X23700Y9826I101J9D01*
G03X23825Y10455I-1J327D01*
G01X23794Y10468D01*
Y10553D01*
X23820D01*
Y11307D01*
X22916D01*
Y11278D01*
X21262D01*
Y10842D01*
X21215Y10791D01*
G03X20943Y10596I28J-326D01*
G02X20814Y10541I-93J41D01*
G03X20373Y10218I-114J-307D01*
G02X20255Y10113I-101J-5D01*
G03X20106Y10104I-55J-323D01*
G02X19975Y10201I-29J97D01*
G01Y10809D01*
X17513D01*
Y10059D01*
X17759D01*
Y9143D01*
X17925Y8978D01*
Y8025D01*
X17025D01*
Y7954D01*
X16237D01*
X16020Y8170D01*
X15871D01*
Y8416D01*
X15120D01*
Y5798D01*
X15871D01*
Y6044D01*
X16020D01*
X16022Y6046D01*
X16510D01*
Y5863D01*
G02X16369Y5770I-102J0D01*
G03X15979Y5276I-125J-303D01*
G02X15897Y5115I-83J-59D01*
G01X14823D01*
G02X14746Y5284I0J102D01*
G03X14791Y5648I-246J216D01*
G02X14872Y5795I90J46D01*
G01Y6700D01*
X14870D01*
Y8416D01*
X14120D01*
Y8170D01*
X13970D01*
X13627Y7827D01*
X13605Y7828D01*
G03X13439Y7210I-15J-327D01*
G02X13476Y7062I-47J-90D01*
G03X13952Y6623I269J-186D01*
G02X14118Y6544I64J-79D01*
G01Y6325D01*
X12325D01*
Y5865D01*
G02X12170Y5779I-102J0D01*
G03X12322Y5556I-170J-279D01*
G02X12422Y5675I100J18D01*
G01X12996D01*
Y5525D01*
X13221Y5301D01*
G02X13149Y5127I-72J-72D01*
G01X12323D01*
Y4473D01*
X14077D01*
Y4484D01*
X14170D01*
X14178Y4443D01*
G03X14181Y4428I322J58D01*
G02X14082Y4304I-99J-23D01*
G01X13225D01*
X12996Y4075D01*
Y3925D01*
X12325D01*
Y3365D01*
G02X12170Y3279I-102J0D01*
G03X12299Y3132I-170J-279D01*
G02X12392Y3275I93J41D01*
G01X13964D01*
Y2986D01*
X14011D01*
Y2913D01*
X13994Y2898D01*
G03X14541Y2671I220J-242D01*
G01X14540Y2693D01*
X14543Y2696D01*
Y2986D01*
X14714D01*
Y3896D01*
X14964D01*
Y2986D01*
X15714D01*
Y3233D01*
X15864D01*
X15978Y3346D01*
X16648D01*
G02X16732Y3186I0J-102D01*
G03X17268I268J-187D01*
G02X17352Y3346I83J58D01*
G01X17925D01*
Y3075D01*
X18081D01*
G02X18152Y2901I0J-102D01*
G01X18152Y2281D01*
X17981D01*
Y1531D01*
X18336D01*
G02X18407Y1357I0J-102D01*
G01X18331Y1281D01*
X17981D01*
Y530D01*
X19663D01*
Y702D01*
X20054D01*
G02X20151Y569I0J-102D01*
G03X20206Y265I311J-101D01*
G02X20127Y100I-79J-63D01*
G01X14809D01*
G02X14736Y272I0J102D01*
G03X14264I-236J227D01*
G02X14191Y100I-73J-71D01*
G01X12309D01*
G02X12236Y272I0J102D01*
G03X11764I-236J227D01*
G02X11691Y100I-73J-71D01*
G01X9809D01*
G02X9736Y272I0J102D01*
G03X9264I-236J227D01*
G02X9191Y100I-73J-71D01*
G01X7309D01*
G02X7236Y272I0J102D01*
G03X6764I-236J227D01*
G02X6691Y100I-73J-71D01*
G01X4809D01*
G02X4736Y272I0J102D01*
G03X4264I-236J227D01*
G02X4191Y100I-73J-71D01*
G01X2309D01*
G02X2236Y272I0J102D01*
G03X1764I-236J227D01*
G02X1691Y100I-73J-71D01*
G01X100D01*
Y39900D01*
X1698D01*
G02X1769Y39726I0J-102D01*
G03X2231I231J-232D01*
G02X2302Y39900I72J72D01*
G01X4198D01*
G02X4269Y39726I0J-102D01*
G03X4731I231J-232D01*
G02X4802Y39900I72J72D01*
G01X6698D01*
G02X6769Y39726I0J-102D01*
G03X7015Y39168I231J-232D01*
G01X7038Y39169D01*
X7450Y38756D01*
Y35926D01*
X7142D01*
X6815Y36254D01*
Y36574D01*
G02X6936Y36673I102J0D01*
G03X7112Y37302I64J321D01*
G01X7079Y37314D01*
Y37817D01*
X6569Y38327D01*
X5041D01*
X4795Y38081D01*
Y37377D01*
G02X4647Y37286I-102J0D01*
G03Y36702I-147J-292D01*
G02X4795Y36612I46J-91D01*
G01Y34620D01*
X5004Y34410D01*
X5154D01*
Y34301D01*
X5263D01*
Y33342D01*
X5610Y32996D01*
X5609Y32974D01*
G03X5630Y32842I327J-15D01*
G02X5535Y32704I-95J-36D01*
G01X5116D01*
X4696Y32284D01*
Y32253D01*
G02X4572Y32154I-102J0D01*
G03Y31516I-72J-319D01*
G02X4696Y31417I22J-99D01*
G01Y30188D01*
X5004Y29880D01*
X5154D01*
Y29771D01*
X5780D01*
Y30380D01*
X5976D01*
G02X6078Y30284I0J-102D01*
G03X6207Y30042I327J18D01*
G02X6218Y29889I-61J-81D01*
G01X6160Y29831D01*
Y29823D01*
X6148Y29809D01*
G03X6589Y29333I252J-209D01*
G02X6731Y29308I59J-83D01*
G03X7299Y29628I269J187D01*
G02X7391Y29771I93J42D01*
G01X7480D01*
Y29971D01*
G02X7653Y30043I102J0D01*
G01X7816Y29880D01*
X7966D01*
Y29771D01*
X8572D01*
G02X8674Y29677I0J-102D01*
G03X9094Y29387I326J23D01*
G02X9213Y29338I29J-97D01*
G03X9799Y29628I287J156D01*
G02X9891Y29771I93J42D01*
G01X10291D01*
Y31396D01*
X10182D01*
Y32106D01*
X9684Y32604D01*
X9250D01*
G02X9168Y32765I0J102D01*
G03X8647Y33162I-264J193D01*
G01X8519D01*
X8482Y33199D01*
Y33357D01*
G02X8625Y33450I102J0D01*
G03X8690Y34070I131J300D01*
G01X8663Y34065D01*
X8608Y34120D01*
X8638Y34151D01*
Y34301D01*
X8748D01*
Y34733D01*
G02X8896Y34823I102J0D01*
G03X9288Y34893I151J290D01*
G01X9303Y34910D01*
X9332D01*
G02X9422Y34762I0J-102D01*
G03X9803Y34299I292J-149D01*
G01X9810Y34301D01*
X10418D01*
Y32886D01*
X10396Y32865D01*
Y30424D01*
X10940Y29880D01*
X11090D01*
Y29771D01*
X11609D01*
G02X11701Y29628I0J-102D01*
G03X11860Y29790I299J-134D01*
G02X11715Y29882I-43J92D01*
G01Y30380D01*
X11856D01*
X11856Y30330D01*
G03X12511I327J4D01*
G01X12511Y30380D01*
X12790D01*
Y29771D01*
X13372D01*
G02X13474Y29677I0J-102D01*
G03X13956Y29988I326J23D01*
G01X13949Y29991D01*
X13617Y30324D01*
X13415D01*
Y31193D01*
G02X13589Y31265I102J0D01*
G01X14010Y30843D01*
Y30672D01*
G03X14230Y30089I204J-256D01*
G01X14252Y30090D01*
X14396Y29946D01*
X14389Y29929D01*
Y29178D01*
X17007D01*
Y29929D01*
X16902D01*
G02X16866Y30015I0J51D01*
G01X16950Y30099D01*
X17082D01*
G03Y30506I256J204D01*
G01X16782D01*
X16739Y30464D01*
G02X16567Y30517I-72J72D01*
G03X16269Y30785I-322J-58D01*
G02X16175Y30887I8J101D01*
G01Y31310D01*
X17925D01*
Y31075D01*
X18460D01*
Y30880D01*
G02X18339Y30780I-102J0D01*
G03X18247Y30133I-63J-321D01*
G01X18294Y30082D01*
Y29604D01*
X17813D01*
X17801Y29637D01*
G03X17302Y29257I-306J-115D01*
G02X17315Y29103I-60J-82D01*
G01X17094Y28882D01*
G02X17007Y28918I-36J36D01*
G01Y28928D01*
X14389D01*
Y28178D01*
X14926D01*
X14996Y28108D01*
Y26925D01*
X14925D01*
Y26025D01*
X14165D01*
G02X14067Y26156I0J102D01*
G03X13450Y26129I-313J94D01*
G02X13356Y25990I-94J-37D01*
G01X13064D01*
X13041Y26013D01*
X12840D01*
Y26223D01*
X12089D01*
Y24768D01*
G02X11991Y24667I-102J0D01*
G03X11955Y24664I10J-327D01*
G02X11840Y24764I-14J101D01*
G01Y26223D01*
X11668D01*
Y26373D01*
X11564Y26477D01*
X11560Y26490D01*
G03X11254Y26725I-314J-92D01*
G02X11184Y26898I2J102D01*
G01X11380Y27094D01*
Y27494D01*
X11641Y27756D01*
X11928D01*
G03X12493Y28067I256J204D01*
G01X12490Y28075D01*
Y28134D01*
X12527D01*
Y29035D01*
X11777D01*
Y28164D01*
X11473D01*
X10972Y27663D01*
Y27262D01*
X10899Y27189D01*
G02X10812Y27225I-36J36D01*
G01Y28530D01*
X9051D01*
Y28680D01*
X8727Y29004D01*
X2316D01*
X1704Y28393D01*
Y28026D01*
G03X2112I204J-256D01*
G01Y28224D01*
X2268Y28380D01*
G02X2442Y28308I72J-72D01*
G01Y27010D01*
X4378D01*
G02X4450Y26836I0J-102D01*
G01X4203Y26589D01*
Y25990D01*
X4070D01*
G02X4028Y26069I0J51D01*
G03X3452Y26129I-273J181D01*
G02X3357Y25990I-94J-38D01*
G01X2442D01*
Y24427D01*
X2150D01*
X1847Y24730D01*
Y24974D01*
G03X1440I-204J256D01*
G01Y24561D01*
X1982Y24019D01*
X6720D01*
X7170Y24470D01*
X8298D01*
G02X8368Y24294I0J-102D01*
G03X8814I223J-239D01*
G02X8884Y24470I69J74D01*
G01X10765D01*
X10776Y24433D01*
G03X11416Y24495I314J91D01*
G01X11420Y24542D01*
X11583D01*
G02X11682Y24416I0J-102D01*
G03X12318I318J-77D01*
G02X12417Y24542I99J24D01*
G01X12840D01*
Y24752D01*
X13041D01*
X13349Y25060D01*
X13774D01*
X13824Y25010D01*
X14023D01*
Y24454D01*
X13388D01*
X12917Y23983D01*
Y23724D01*
X12089D01*
Y22824D01*
X12627D01*
X12643Y22807D01*
G02X12607Y22721I-36J-36D01*
G01X11842D01*
Y23726D01*
X11087D01*
Y22721D01*
X10955D01*
X10938Y22704D01*
X10425D01*
Y23375D01*
X9677D01*
G03X9337Y23384I-177J-275D01*
G01X9326Y23377D01*
X8573D01*
Y21771D01*
X8167D01*
X8025Y21913D01*
Y23375D01*
X7375D01*
Y23336D01*
G02X7208Y23258I-102J0D01*
G03X6689Y23108I-208J-252D01*
G02X6521Y23067I-97J32D01*
G01X6270Y23318D01*
X5756D01*
G03X5214Y22955I-256J-204D01*
G02X5125Y22804I-89J-49D01*
G01X5116D01*
X4795Y22483D01*
Y22377D01*
G02X4647Y22286I-102J0D01*
G03Y21702I-147J-292D01*
G02X4795Y21612I46J-91D01*
G01Y19468D01*
X5004Y19258D01*
X5154D01*
Y19150D01*
X5780D01*
Y19537D01*
G02X5894Y19638I102J0D01*
G03X5920Y19635I41J325D01*
G02X6015Y19517I-5J-101D01*
G03X6096Y19242I323J-55D01*
G02X6036Y19073I-75J-68D01*
G03X6328Y18970I50J-323D01*
G02X6388Y19139I75J68D01*
G03X6594Y19258I-50J323D01*
G01X6854D01*
Y19150D01*
X7480D01*
Y19230D01*
G02X7653Y19302I102J0D01*
G01X7696Y19258D01*
X7966D01*
Y19150D01*
X8433D01*
G02X8506Y18977I0J-102D01*
G03X8704Y19075I235J-227D01*
G02X8591Y19176I-11J101D01*
G01Y19537D01*
G02X8706Y19638I102J0D01*
G03X8989Y19742I41J325D01*
G01X9004Y19758D01*
X9088D01*
Y19700D01*
X9086Y19693D01*
G03X9415Y19273I314J-93D01*
G01X9438Y19274D01*
X9453Y19258D01*
X9666D01*
Y19150D01*
X10230D01*
G03X10418Y19651I270J185D01*
G02X10291Y19749I-25J98D01*
G01Y20775D01*
X9576D01*
Y20937D01*
X9524Y20989D01*
G02X9560Y21076I36J36D01*
G01X10579D01*
X10600Y21096D01*
X10746D01*
X11001Y21352D01*
X11089D01*
Y21105D01*
X11840D01*
Y22046D01*
X12089D01*
Y21105D01*
X12840D01*
Y21315D01*
X14718D01*
X14724Y21310D01*
X14925D01*
Y21075D01*
X15460D01*
Y20244D01*
X15263D01*
Y20076D01*
G02X15122Y19983I-102J0D01*
G03X14799Y19419I-127J-302D01*
G01X14802Y19417D01*
X15263Y18956D01*
Y18493D01*
X16291D01*
Y18279D01*
X16038Y18026D01*
X16015Y18027D01*
G03X15992Y17373I-15J-327D01*
G01X16041Y17322D01*
Y16813D01*
G03X15939Y16441I204J-256D01*
G02X15844Y16304I-95J-36D01*
G01X15316D01*
X14732Y15721D01*
G03X14351Y15782I-233J-230D01*
G02X14204Y15872I-46J91D01*
G01Y15916D01*
X14604Y16316D01*
Y17284D01*
X14004Y17884D01*
Y18316D01*
X14204Y18516D01*
Y20124D01*
G02X14351Y20214I102J0D01*
G03X14173Y20518I149J292D01*
G02X14000Y20450I-102J4D01*
G01X13784Y20666D01*
X13259D01*
Y20775D01*
X12634D01*
Y20166D01*
X12357D01*
G02X12272Y20324I0J102D01*
G03X11707Y20359I-272J182D01*
G01X11713Y20336D01*
X11669Y20286D01*
G03X11626Y20277I46J-324D01*
G01X11619Y20275D01*
X11561D01*
Y20777D01*
X10932D01*
Y20148D01*
X10934D01*
Y19150D01*
X11043D01*
Y18487D01*
G03X10908Y18051I157J-287D01*
G02X10818Y17904I-91J-46D01*
G01X10115D01*
X9538Y17327D01*
X9515Y17328D01*
G03X9320Y17274I-15J-327D01*
G01X9286Y17252D01*
X8934Y17604D01*
X7916D01*
X7450Y17138D01*
Y15776D01*
X7142D01*
X6804Y16115D01*
Y16583D01*
G02X6928Y16682I102J0D01*
G03X6820Y17274I72J319D01*
G01X6786Y17252D01*
X6434Y17604D01*
X5116D01*
X4740Y17228D01*
X4704Y17256D01*
G03X4205Y17142I-204J-255D01*
G01X4201Y17134D01*
X4159Y17092D01*
X4119Y17132D01*
X1744D01*
X1358Y16746D01*
Y15067D01*
X1549Y14877D01*
X1548Y14854D01*
G03X1890Y14512I327J-15D01*
G01X1912Y14513D01*
X2163Y14262D01*
X2343D01*
Y14151D01*
X2968D01*
Y14760D01*
X3354D01*
G02X3445Y14612I0J-102D01*
G03X3958Y14223I292J-149D01*
G02X4043Y14185I34J-37D01*
G01Y14151D01*
X4668D01*
Y14351D01*
G02X4842Y14423I102J0D01*
G01X5004Y14260D01*
X5154D01*
Y14151D01*
X5780D01*
Y14760D01*
X5954D01*
G02X6045Y14612I0J-102D01*
G03X6592Y14260I291J-149D01*
G01X6854D01*
Y14151D01*
X7480D01*
Y14351D01*
G02X7653Y14423I102J0D01*
G01X7816Y14260D01*
X7966D01*
Y14151D01*
X8591D01*
Y14590D01*
G02X8743Y14679I102J0D01*
G03X8958Y14641I161J285D01*
G02X9076Y14555I17J-100D01*
G03X9428Y14274I324J45D01*
G01X9449Y14253D01*
X9666D01*
Y14151D01*
X10291D01*
Y15776D01*
X9666D01*
Y15668D01*
X9472D01*
G03X9420Y15720I-256J-204D01*
G01Y15939D01*
X9304Y16055D01*
Y16583D01*
G02X9428Y16682I102J0D01*
G03X9756Y16797I72J319D01*
G01X10315D01*
X10418Y16694D01*
Y14598D01*
X10756Y14260D01*
X10934D01*
Y14151D01*
X11559D01*
Y14760D01*
X12084D01*
G03X12486Y14671I256J204D01*
G02X12634Y14581I46J-91D01*
G01Y14151D01*
X13259D01*
Y14260D01*
X13448D01*
X13562Y14374D01*
X13585Y14373D01*
G03X13672Y14381I15J327D01*
G02X13796Y14282I22J-99D01*
G01Y14084D01*
X13366Y13654D01*
X13066D01*
X12615Y13203D01*
X12256D01*
G03Y12796I-256J-204D01*
G01X12784D01*
X13234Y13246D01*
X13534D01*
X14204Y13916D01*
Y15108D01*
G02X14351Y15199I102J0D01*
G03X14645Y15197I149J291D01*
G02X14792Y15106I45J-91D01*
G01Y14968D01*
G03X15199I204J-256D01*
G01Y15611D01*
X15484Y15896D01*
X16699D01*
G02X16770Y15722I0J-102D01*
G03X17107Y15180I230J-233D01*
G02X17242Y15084I33J-96D01*
G01Y14856D01*
G37*
G36*
G01X14819Y4428D02*
G03X14817Y4581I-319J73D01*
G02X14916Y4708I98J25D01*
G01X16454D01*
X16616Y4546D01*
X16722D01*
G02X16794Y4373I0J-102D01*
G01X16725Y4304D01*
X14918D01*
G02X14819Y4428I0J102D01*
G37*
G36*
G01X10825Y33244D02*
Y34345D01*
G02X10999Y34417I102J0D01*
G01X11006Y34410D01*
X11090D01*
Y34301D01*
X11199D01*
Y33284D01*
X11161Y33274D01*
G03X11003Y33176I85J-316D01*
G02X10825Y33244I-76J68D01*
G37*
G36*
G01X7858Y32604D02*
Y34402D01*
G02X7944Y34438I51J0D01*
G01X7972Y34410D01*
X8122D01*
Y34301D01*
X8124D01*
X8150Y34238D01*
X8075Y34164D01*
Y33030D01*
X8350Y32754D01*
X8647D01*
G03X8709Y32695I256J204D01*
G01X8678Y32604D01*
X7858D01*
G37*
G36*
G01X14989Y29929D02*
X14897Y30021D01*
G02X14930Y30187I72J72D01*
G03X15059Y30699I-123J303D01*
G01X15048Y30713D01*
Y30850D01*
X15175D01*
Y31750D01*
X14425D01*
Y31250D01*
G02X14251Y31179I-102J0D01*
G01X13896Y31534D01*
G02X13928Y31699I72J72D01*
G03X14025Y32237I-128J301D01*
G01X14010Y32252D01*
Y32325D01*
X14087D01*
X14416Y31996D01*
X15670D01*
X15676Y31953D01*
G03X15693Y31887I324J47D01*
G02X15598Y31750I-95J-35D01*
G01X15425D01*
Y30850D01*
X15928D01*
G02X16003Y30680I0J-102D01*
G03X15918Y30444I242J-221D01*
G01X15919Y30421D01*
X15572Y30075D01*
Y29929D01*
X14989D01*
G37*
G36*
G01X10825Y16863D02*
X10484Y17204D01*
X10237D01*
G02X10165Y17378I0J102D01*
G01X10284Y17496D01*
X11665D01*
X11796Y17365D01*
Y17257D01*
G03X12015Y16674I204J-256D01*
G01X12038Y16675D01*
X12743Y15970D01*
Y15776D01*
X12634D01*
Y15347D01*
G02X12486Y15256I-102J0D01*
G03X12084Y15168I-147J-292D01*
G01X11561D01*
Y15778D01*
X10932D01*
Y15149D01*
X10934D01*
Y14781D01*
G02X10847Y14746I-51J0D01*
G01X10825Y14767D01*
Y16863D01*
G37*
G36*
G01X7858Y16969D02*
X8084Y17196D01*
X8765D01*
X8885Y17077D01*
Y17027D01*
X8896Y17016D01*
Y15886D01*
X9012Y15770D01*
Y15721D01*
X8996Y15706D01*
G03X8895Y15399I220J-242D01*
G02X8821Y15280I-100J-20D01*
G03X8744Y15250I82J-317D01*
G02X8593Y15338I-49J89D01*
G01Y15778D01*
X7964D01*
Y15149D01*
X7966D01*
Y14809D01*
G02X7879Y14773I-51J0D01*
G01X7858Y14795D01*
Y16969D01*
G37*
G36*
G01X5965Y22396D02*
X6085Y22277D01*
Y22227D01*
X6096Y22216D01*
Y21029D01*
X6357Y20768D01*
Y20719D01*
X6340Y20704D01*
G03X6312Y20250I220J-242D01*
G02X6273Y20166I-39J-33D01*
G01X6192D01*
G03X5896Y20287I-256J-204D01*
G02X5782Y20388I-12J101D01*
G01Y20777D01*
X5202D01*
Y22314D01*
X5284Y22396D01*
X5965D01*
G37*
G36*
G01X7966Y30769D02*
Y30429D01*
G02X7879Y30393I-51J0D01*
G01X7858Y30415D01*
Y32196D01*
X9516D01*
X9775Y31937D01*
Y31396D01*
X9666D01*
Y30788D01*
X8593D01*
Y31398D01*
X7964D01*
Y30769D01*
X7966D01*
G37*
G36*
G01X11090D02*
Y30552D01*
G02X10916Y30480I-102J0D01*
G01X10804Y30593D01*
Y32209D01*
G02X10890Y32245I51J0D01*
G01X10939Y32196D01*
X11583D01*
G02X11682Y32071I0J-102D01*
G03X12318I318J-77D01*
G02X12417Y32196I99J24D01*
G01X12621D01*
X12899Y31918D01*
Y31827D01*
X12899Y31396D01*
X12790D01*
Y30788D01*
X11717D01*
Y31398D01*
X11088D01*
Y30769D01*
X11090D01*
G37*
G36*
G01X14525Y32463D02*
Y33948D01*
X15073D01*
Y32404D01*
X14584D01*
X14525Y32463D01*
G37*
G36*
G01X12393Y36035D02*
X12790Y35638D01*
Y35317D01*
X12487D01*
X12390Y35220D01*
X12325D01*
X12312Y35250D01*
G03X11865Y35405I-297J-136D01*
G02X11717Y35495I-46J90D01*
G01Y35928D01*
X11204D01*
Y36027D01*
X11211Y36035D01*
X12393D01*
G37*
G36*
G01X6400Y37920D02*
X6671Y37648D01*
Y37503D01*
X6408Y37240D01*
Y36085D01*
X6854Y35638D01*
Y35317D01*
X6335D01*
G03X5930Y35405I-256J-204D01*
G02X5782Y35495I-46J90D01*
G01Y35928D01*
X5202D01*
Y37912D01*
X5210Y37920D01*
X6400D01*
G37*
G36*
G01X8750Y35495D02*
Y35928D01*
X8170D01*
Y37257D01*
X8209Y37296D01*
X9121D01*
G02X9211Y37147I0J-102D01*
G03X9798Y36860I289J-153D01*
G01X9802Y36869D01*
X9845Y36911D01*
X9931Y36825D01*
Y35926D01*
X9822D01*
Y35317D01*
X9302D01*
G03X8897Y35405I-256J-204D01*
G02X8750Y35495I-46J90D01*
G37*
G36*
G01X2970Y15168D02*
Y15778D01*
X2341D01*
Y15742D01*
X2251Y15709D01*
G03X1899Y15810I-251J-210D01*
G02X1766Y15907I-31J97D01*
G01Y16578D01*
X1913Y16725D01*
X2323D01*
Y15948D01*
X3077D01*
Y16725D01*
X3325D01*
Y15950D01*
X3496D01*
Y15800D01*
X3701Y15595D01*
Y15220D01*
G03X3649Y15168I204J-256D01*
G01X2970D01*
G37*
G36*
G01X5782D02*
Y15778D01*
X5092D01*
Y17004D01*
X5284Y17196D01*
X6265D01*
X6385Y17077D01*
Y17027D01*
X6396Y17016D01*
Y15900D01*
X6286Y15790D01*
X6263Y15791D01*
G03X5956Y15315I-15J-327D01*
G02X5866Y15168I-91J-46D01*
G01X5782D01*
G37*
G36*
G01X13326Y22970D02*
G03X13228Y23235I-326J30D01*
G02X13227Y23307I35J36D01*
G01X13324Y23405D01*
Y23814D01*
X13557Y24046D01*
X14023D01*
Y23473D01*
X14025D01*
Y22954D01*
X13875D01*
X13780Y22859D01*
X13427D01*
G02X13326Y22970I0J102D01*
G37*
G36*
G01X5782Y30788D02*
Y31398D01*
X5104D01*
Y32116D01*
X5284Y32296D01*
X6016D01*
X6338Y31973D01*
Y31624D01*
X6854Y31108D01*
Y30788D01*
X5782D01*
G37*
G36*
G01X11606Y33300D02*
Y34301D01*
X11715D01*
Y34733D01*
G02X11864Y34823I102J0D01*
G03X12134Y34809I151J291D01*
G01X12143Y34813D01*
X12559D01*
X12656Y34910D01*
X12790D01*
Y34301D01*
X13415D01*
Y34427D01*
X13660Y34672D01*
X13696Y34644D01*
G03X14227Y34880I204J256D01*
G02X14338Y34976I101J-6D01*
G03X14380Y34974I33J326D01*
G02X14432Y34923I1J-51D01*
G01Y34852D01*
X14423D01*
Y34075D01*
X13875D01*
Y33392D01*
G02X13732Y33299I-102J0D01*
G03X13585Y33327I-132J-299D01*
G01X13562Y33326D01*
X13287Y33601D01*
X12718D01*
X12306Y33189D01*
X12257D01*
X12242Y33206D01*
G03X11777Y33225I-242J-220D01*
G02X11606Y33300I-69J74D01*
G37*
G36*
G01X15177Y34077D02*
Y34851D01*
X15183D01*
Y36532D01*
X14432D01*
Y36322D01*
X14231D01*
X13733Y35825D01*
X13715Y35823D01*
G03X13571Y35774I30J-326D01*
G02X13415Y35860I-54J86D01*
G01Y35926D01*
X13078D01*
X12562Y36442D01*
X11043D01*
X10999Y36398D01*
G02X10825Y36470I-72J72D01*
G01Y37239D01*
X10833Y37246D01*
X11460D01*
X11674Y37032D01*
X11673Y37010D01*
G03X11985Y37321I327J-15D01*
G01X11962Y37320D01*
X11629Y37654D01*
X10664D01*
X10418Y37407D01*
Y37159D01*
G02X10244Y37088I-102J0D01*
G01X9628Y37704D01*
X8040D01*
X8031Y37694D01*
G02X7858Y37766I-72J72D01*
G01Y38925D01*
X7326Y39457D01*
X7327Y39479D01*
G03X7231Y39726I-327J15D01*
G02X7302Y39900I72J72D01*
G01X9198D01*
G02X9269Y39726I0J-102D01*
G03X9731I231J-232D01*
G02X9802Y39900I72J72D01*
G01X11698D01*
G02X11769Y39726I0J-102D01*
G03X12231I231J-232D01*
G02X12302Y39900I72J72D01*
G01X14198D01*
G02X14269Y39726I0J-102D01*
G03X14731I231J-232D01*
G02X14802Y39900I72J72D01*
G01X16698D01*
G02X16769Y39726I0J-102D01*
G03X17231I231J-232D01*
G02X17302Y39900I72J72D01*
G01X17552D01*
G02X17650Y39769I0J-102D01*
G03X17637Y39705I313J-94D01*
G02X17536Y39613I-101J9D01*
G01X17513D01*
Y38862D01*
X19975D01*
Y39613D01*
X19952D01*
G02X19851Y39705I0J102D01*
G03X19838Y39769I-326J-30D01*
G02X19936Y39900I97J29D01*
G01X23367D01*
G02X23438Y39727I0J-102D01*
G01X22751Y39039D01*
G02X22577Y39111I-72J72D01*
G01Y39652D01*
X21823D01*
Y38748D01*
X22596D01*
Y37936D01*
G02X22420Y37867I-102J0D01*
G03X21859Y37581I-240J-223D01*
G02X21760Y37459I-100J-20D01*
G01X21204D01*
Y37538D01*
G02X21328Y37637I102J0D01*
G03X21395Y38284I72J319D01*
G01X21374Y38284D01*
X21323Y38335D01*
X21404Y38416D01*
Y38750D01*
X21575D01*
Y39650D01*
X20825D01*
Y38750D01*
X20996D01*
Y38584D01*
X20796Y38384D01*
Y38317D01*
G02X20640Y38232I-102J0D01*
G03X20138Y37915I-177J-275D01*
G02X20064Y37804I-101J-13D01*
G03X20043Y37797I86J-316D01*
G01X20035Y37794D01*
X19975D01*
Y38613D01*
X17513D01*
Y38107D01*
X17291Y37885D01*
Y37379D01*
G02X17144Y37288I-102J0D01*
G03X17300Y36865I-144J-294D01*
G02X17466Y36896I93J-40D01*
G01X17631Y36731D01*
X17831D01*
X17925Y36637D01*
Y36025D01*
X17025D01*
Y35990D01*
X16824D01*
X16492Y36322D01*
X16183D01*
Y36532D01*
X15432D01*
Y34850D01*
X15425D01*
Y34077D01*
X15177D01*
G37*
G36*
G01X6372Y27001D02*
Y28596D01*
X6882D01*
Y27001D01*
X6372D01*
G37*
G36*
G01X4611Y25990D02*
Y26420D01*
X4783Y26593D01*
X5901D01*
G02X5985Y26434I0J-102D01*
G03X5952Y26129I270J-184D01*
G02X5857Y25990I-94J-38D01*
G01X4611D01*
G37*
G36*
G01X10956Y24822D02*
G02X10812Y24914I-42J93D01*
G01Y25990D01*
X9154D01*
G02X9060Y26129I0J102D01*
G03X9026Y26434I-304J121D01*
G02X9110Y26593I84J57D01*
G01X10828D01*
G02X10927Y26470I0J-102D01*
G03X11089Y26111I319J-72D01*
G01Y24854D01*
X11045Y24848D01*
G03X10956Y24822I45J-324D01*
G37*
G36*
G01X6372Y24427D02*
Y25943D01*
X6400Y25957D01*
G03X6526Y26434I-145J293D01*
G02X6610Y26593I84J57D01*
G01X8401D01*
G02X8485Y26434I0J-102D01*
G03X8452Y26129I270J-184D01*
G02X8357Y25990I-94J-38D01*
G01X6882D01*
Y24758D01*
X6551Y24427D01*
X6372D01*
G37*
G36*
G01X5898Y33284D02*
X5671Y33511D01*
Y34301D01*
X5780D01*
Y34733D01*
G02X5928Y34823I102J0D01*
G03X6166Y34798I151J290D01*
G02X6293Y34680I27J-98D01*
G03X6703Y34299I320J-66D01*
G01X6710Y34301D01*
X7450D01*
Y31396D01*
X7142D01*
X6746Y31793D01*
Y31830D01*
G02X6824Y31872I51J0D01*
G03X6976Y32474I176J276D01*
G02X6867Y32588I-8J101D01*
G03X6404Y32924I-325J40D01*
G02X6260Y33002I-43J92D01*
G03X5920Y33285I-324J-44D01*
G01X5898Y33284D01*
G37*
G36*
G01X13623Y18865D02*
X13484Y19004D01*
X11450D01*
Y19150D01*
X11559D01*
Y19537D01*
G02X11674Y19638I102J0D01*
G03X11971Y19758I41J325D01*
G01X12634D01*
Y19150D01*
X13259D01*
Y19258D01*
X13409D01*
X13524Y19373D01*
X13541Y19375D01*
G03X13649Y19408I-41J325D01*
G02X13796Y19318I46J-91D01*
G01Y18937D01*
G02X13623Y18865I-102J0D01*
G37*
G36*
G01X12204Y17257D02*
Y17534D01*
X12167Y17571D01*
G02X12182Y17727I72J72D01*
G03X11673Y18004I-182J272D01*
G02X11571Y17904I-102J1D01*
G01X11487D01*
G02X11449Y17988I0J51D01*
G03X11450Y18411I-249J213D01*
G01Y18596D01*
X13316D01*
X13596Y18316D01*
Y17716D01*
X14196Y17116D01*
Y16484D01*
X14116Y16404D01*
X14069Y16451D01*
X14066Y16466D01*
G03X13746Y16074I-321J-65D01*
G02X13796Y16023I0J-51D01*
G01Y15118D01*
G02X13672Y15019I-102J0D01*
G03X13417Y14972I-72J-319D01*
G02X13259Y15056I-57J84D01*
G01Y15776D01*
X13150D01*
Y16139D01*
X12326Y16963D01*
X12327Y16986D01*
G03X12204Y17257I-327J15D01*
G37*
G36*
G01X26467Y3522D02*
G02X26293Y3593I-72J72D01*
G01Y4204D01*
X26330Y4215D01*
G03X26558Y4445I-89J315D01*
G01X26568Y4482D01*
X26923D01*
G03X27194Y4359I256J204D01*
G01X27216Y4360D01*
X27270Y4307D01*
G02X27198Y4133I-72J-72D01*
G01X26541D01*
Y3596D01*
X26467Y3522D01*
G37*
G36*
G01X31262Y7999D02*
X31451Y8188D01*
X32155D01*
G02X32252Y8058I0J-102D01*
G03X32244Y7911I314J-92D01*
G02X32152Y7792I-100J-17D01*
G03X31974Y7210I26J-326D01*
G01Y6815D01*
X31513D01*
Y7748D01*
X31262Y7999D01*
G37*
G36*
G01X32236Y272D02*
G03X31985Y826I-236J227D01*
G01X31962Y825D01*
X31912Y875D01*
Y1655D01*
X32021D01*
Y2156D01*
X32079D01*
X32086Y2154D01*
G03X32106Y2148I91J314D01*
G02X32185Y2045I-22J-99D01*
G03X32700Y1764I327J-13D01*
G01X33096D01*
Y1655D01*
X33721D01*
Y1914D01*
G02X33895Y1986I102J0D01*
G01X34008Y1873D01*
X34039D01*
X34051Y1861D01*
Y1655D01*
X34677D01*
Y2042D01*
G02X34791Y2143I102J0D01*
G03X35089Y2264I41J325D01*
G01X35751D01*
Y1655D01*
X36377D01*
Y1764D01*
X36723D01*
X36792Y1833D01*
X36815Y1832D01*
G03X36507Y2214I15J327D01*
G01X36500Y2172D01*
X36377D01*
Y2764D01*
X36772D01*
G03X36722Y3172I228J235D01*
G01X36377D01*
Y3280D01*
X35800D01*
Y4133D01*
X35050D01*
Y3233D01*
X35221D01*
Y3105D01*
X35469Y2857D01*
Y2672D01*
X35089D01*
G03X34793Y2793I-256J-204D01*
G02X34679Y2893I-12J101D01*
G01Y3231D01*
X34802D01*
Y4135D01*
X34743D01*
G02X34671Y4309I0J102D01*
G03X34470Y4866I-231J231D01*
G02X34378Y4974I9J101D01*
G03X34356Y5118I-326J24D01*
G01X34353Y5127D01*
Y5187D01*
X34425D01*
X34916Y4696D01*
X36876D01*
X37204Y5024D01*
Y5243D01*
G03Y5755I-204J256D01*
G01Y6284D01*
X36784Y6704D01*
X36518D01*
Y7495D01*
X35618D01*
Y7324D01*
X35416D01*
G02X35314Y7435I0J102D01*
G03X34785Y7210I-326J31D01*
G01Y6964D01*
X34975Y6774D01*
Y6204D01*
X34715D01*
Y6815D01*
X33995D01*
Y6856D01*
X33978Y6873D01*
Y7297D01*
X34149D01*
Y7751D01*
G02X34310Y7834I102J0D01*
G03X34755Y8305I190J266D01*
G02X34834Y8470I79J64D01*
G01X35616D01*
Y7743D01*
X36520D01*
Y8470D01*
X37685D01*
Y9896D01*
X38384D01*
X38785Y10297D01*
Y12084D01*
G03Y12596I-204J256D01*
G01Y12720D01*
X38941Y12877D01*
Y13026D01*
X39170D01*
X39173Y12979D01*
G03X39728Y12764I327J20D01*
G02X39900Y12691I71J-73D01*
G01Y10807D01*
G02X39728Y10734I-102J0D01*
G03Y10264I-228J-235D01*
G02X39900Y10191I71J-73D01*
G01Y8307D01*
G02X39728Y8234I-102J0D01*
G03Y7764I-228J-235D01*
G02X39900Y7691I71J-73D01*
G01Y5807D01*
G02X39728Y5734I-102J0D01*
G03Y5264I-228J-235D01*
G02X39900Y5191I71J-73D01*
G01Y3307D01*
G02X39728Y3234I-102J0D01*
G03Y2764I-228J-235D01*
G02X39900Y2691I71J-73D01*
G01Y807D01*
G02X39728Y734I-102J0D01*
G03X39264Y272I-228J-235D01*
G02X39191Y100I-73J-71D01*
G01X37309D01*
G02X37236Y272I0J102D01*
G03X36764I-236J227D01*
G02X36691Y100I-73J-71D01*
G01X34809D01*
G02X34736Y272I0J102D01*
G03X34264I-236J227D01*
G02X34191Y100I-73J-71D01*
G01X32309D01*
G02X32236Y272I0J102D01*
G37*
G36*
G01X24417Y2172D02*
X24304Y2284D01*
Y2581D01*
G02X24428Y2680I102J0D01*
G03Y3318I72J319D01*
G02X24304Y3417I-22J99D01*
G01Y3516D01*
X24484Y3696D01*
X25084D01*
X25404Y4016D01*
Y4316D01*
X25595Y4507D01*
X25912D01*
X25921Y4466D01*
G03X26003Y4306I321J64D01*
G02X25928Y4135I-74J-69D01*
G01X25539D01*
Y3231D01*
X25614D01*
Y2653D01*
X25616D01*
Y2172D01*
X24417D01*
G37*
G36*
G01X32433Y2672D02*
G03X32137Y2793I-256J-204D01*
G02X32023Y2893I-12J101D01*
G01Y3231D01*
X32135D01*
Y4196D01*
X32383D01*
Y3233D01*
X32564D01*
X32814Y2983D01*
Y2672D01*
X32433D01*
G37*
G36*
G01X29214Y3386D02*
Y4135D01*
X28504D01*
Y4370D01*
X28440Y4434D01*
Y4566D01*
X28504Y4630D01*
Y4652D01*
X28511Y4660D01*
X28666D01*
X28844Y4482D01*
X29578D01*
G03X30100Y4495I256J204D01*
G01X30269D01*
X30393Y4371D01*
Y3280D01*
X30212D01*
Y4133D01*
X29462D01*
Y3327D01*
X29423Y3317D01*
G03X29359Y3295I77J-318D01*
G02X29214Y3386I-44J92D01*
G37*
G36*
G01X17975Y4025D02*
Y5473D01*
X17977D01*
Y6027D01*
X17975D01*
Y6473D01*
X17977D01*
Y7027D01*
X17975D01*
Y7975D01*
X19274D01*
G02X19375Y7863I0J-102D01*
G03X19434Y7638I325J-34D01*
G02X19352Y7477I-83J-59D01*
G01X18523D01*
Y4523D01*
X21568D01*
G03X21819Y4423I235J227D01*
G02X21925Y4322I5J-101D01*
G01Y4025D01*
X17975D01*
G37*
G36*
G01X21651Y5829D02*
G02X21477Y5901I-72J72D01*
G01Y7477D01*
X20048D01*
G02X19966Y7638I0J102D01*
G03X20025Y7863I-266J191D01*
G02X20126Y7975I101J10D01*
G01X21925D01*
Y6527D01*
X21923D01*
Y5954D01*
X21775D01*
X21651Y5829D01*
G37*
G36*
G01X26215Y6204D02*
Y6815D01*
X25603D01*
G02X25567Y6901I0J51D01*
G01X25571Y6905D01*
Y7632D01*
X26130D01*
G02X26230Y7515I0J-102D01*
G03X26350Y7210I324J-49D01*
G01Y6204D01*
X26215D01*
G37*
G36*
G01X28547Y6815D02*
Y7428D01*
X28473Y7502D01*
G02X28545Y7676I72J72D01*
G01X28951D01*
G02X29049Y7549I0J-102D01*
G03X29162Y7210I317J-82D01*
G01Y6815D01*
X28547D01*
G37*
G36*
G01X28159Y7816D02*
X28144Y7831D01*
Y10203D01*
X28237Y10296D01*
X28422D01*
G02X28513Y10147I0J-102D01*
G03X29094I291J-150D01*
G02X29184Y10296I90J47D01*
G01X29243D01*
X29258Y10279D01*
G03X29244Y10703I242J220D01*
G01X28068D01*
X27977Y10612D01*
G02X27804Y10684I-72J72D01*
G01Y12484D01*
X27326Y12962D01*
X27327Y12984D01*
G03X27268Y13186I-327J15D01*
G02X27352Y13346I83J58D01*
G01X29148D01*
G02X29232Y13186I0J-102D01*
G03X29768I268J-187D01*
G02X29852Y13346I83J58D01*
G01X31648D01*
G02X31732Y13186I0J-102D01*
G03X32268I268J-187D01*
G02X32352Y13346I83J58D01*
G01X34148D01*
G02X34232Y13186I0J-102D01*
G03X34768I268J-187D01*
G02X34852Y13346I83J58D01*
G01X35261D01*
X35610Y12997D01*
Y12774D01*
X35516Y12680D01*
Y12531D01*
X33755D01*
Y11010D01*
X37685D01*
Y12531D01*
X36031D01*
X36005Y12593D01*
X36018Y12606D01*
Y13165D01*
X35429Y13754D01*
X24975D01*
Y13975D01*
X25875D01*
Y14046D01*
X26049D01*
X26399Y14396D01*
X26405Y14399D01*
G03X26475Y14912I-163J284D01*
G02X26496Y14996I36J35D01*
G03X26536Y15011I-99J312D01*
G02X26679Y14938I43J-92D01*
G03X27204Y15256I321J62D01*
G01Y15384D01*
X26634Y15954D01*
X25877D01*
Y16527D01*
X25875D01*
Y17010D01*
X25954D01*
X25968Y16998D01*
G03X26418Y17030I209J252D01*
G01X26434Y17046D01*
X26488D01*
X26557Y16978D01*
Y16441D01*
X27307D01*
Y17341D01*
X27019D01*
G02X26948Y17516I0J102D01*
G03X27036Y17666I-228J234D01*
G01X27046Y17703D01*
X27192D01*
Y17457D01*
X27942D01*
Y21913D01*
X27428D01*
G02X27327Y22010I0J102D01*
G03X26722Y21822I-327J-16D01*
G02X26636Y21667I-86J-54D01*
G01X24864D01*
G02X24778Y21822I0J102D01*
G03X24222I-278J172D01*
G02X24136Y21667I-86J-54D01*
G01X23579D01*
X23116Y21204D01*
G02X22943Y21276I-72J72D01*
G01Y21806D01*
X22696D01*
Y22705D01*
G03X22787Y23104I-204J256D01*
G02X22879Y23250I91J44D01*
G01X23275D01*
Y28250D01*
X23104D01*
Y28400D01*
X23053Y28450D01*
G02X23089Y28537I36J36D01*
G01X25050D01*
Y27725D01*
X25950D01*
Y28537D01*
X27125D01*
Y28240D01*
X26822D01*
G03Y27760I-222J-240D01*
G01X27125D01*
Y27550D01*
X27875D01*
Y28537D01*
X28125D01*
Y27550D01*
X28296D01*
Y26416D01*
X28796Y25916D01*
Y25719D01*
G02X28669Y25621I-102J0D01*
G03X28868Y25142I-84J-316D01*
G02X29028Y25163I88J-51D01*
G01X29165Y25026D01*
X29315D01*
Y24470D01*
X33245D01*
Y25990D01*
X31647D01*
G02X31552Y26129I0J102D01*
G03X30944I-304J121D01*
G02X30850Y25990I-94J-38D01*
G01X29315D01*
Y25575D01*
G02X29228Y25539I-51J0D01*
G01X29204Y25564D01*
Y26084D01*
X28704Y26584D01*
Y27550D01*
X28875D01*
Y27572D01*
G02X28982Y27673I102J0D01*
G03X29163Y27716I18J327D01*
G02X29315Y27628I50J-88D01*
G01Y27010D01*
X33245D01*
Y28537D01*
X33667D01*
X33668Y28538D01*
G02X33755Y28502I36J-36D01*
G01Y27010D01*
X37685D01*
Y28530D01*
X33906D01*
G02X33834Y28703I0J102D01*
G01X34099Y28969D01*
Y29187D01*
G02X34272Y29260I102J0D01*
G03X34789Y29341I228J234D01*
G02X34951Y29365I90J-48D01*
G01X35520Y28796D01*
X37584D01*
X37904Y29116D01*
Y30175D01*
X37658Y30421D01*
X37659Y30444D01*
G03X37316Y30786I-327J15D01*
G01X37294Y30785D01*
X36791Y31288D01*
X36533D01*
Y31396D01*
X37984D01*
X38704Y32116D01*
Y38090D01*
X38245Y38549D01*
X37755D01*
X37386Y38180D01*
X37256D01*
G03Y37772I-256J-204D01*
G01X37569D01*
X37578Y37781D01*
G02X37733Y37768I72J-72D01*
G03X38149Y37665I267J189D01*
G02X38296Y37575I46J-91D01*
G01Y32284D01*
X37816Y31804D01*
X37419D01*
G02X37320Y31926I0J102D01*
G03X36680I-320J68D01*
G02X36581Y31804I-99J-21D01*
G01X36384D01*
X35584Y32604D01*
X33869D01*
X33550Y32923D01*
G02X33622Y33096I72J72D01*
G01X35684D01*
X36184Y33596D01*
X37534D01*
X38004Y34066D01*
Y34216D01*
X38004Y36184D01*
X37544Y36644D01*
G03X37400Y36703I-144J-144D01*
G01X37361D01*
X37358Y36704D01*
X37292D01*
G02X37253Y36787I0J51D01*
G03X36747I-253J208D01*
G01X36759Y36773D01*
Y36704D01*
X36684D01*
X36504Y36884D01*
Y39284D01*
X36062Y39727D01*
G02X36134Y39900I72J72D01*
G01X39198D01*
G02X39269Y39726I0J-102D01*
G03X39728Y39259I231J-232D01*
G02X39900Y39186I71J-73D01*
G01Y37302D01*
G02X39728Y37229I-102J0D01*
G03Y36759I-228J-235D01*
G02X39900Y36686I71J-73D01*
G01Y34802D01*
G02X39728Y34729I-102J0D01*
G03Y34259I-228J-235D01*
G02X39900Y34186I71J-73D01*
G01Y32302D01*
G02X39728Y32229I-102J0D01*
G03Y31759I-228J-235D01*
G02X39900Y31686I71J-73D01*
G01Y29802D01*
G02X39728Y29729I-102J0D01*
G03Y29259I-228J-235D01*
G02X39900Y29186I71J-73D01*
G01Y27302D01*
G02X39728Y27229I-102J0D01*
G03Y26759I-228J-235D01*
G02X39900Y26686I71J-73D01*
G01Y24802D01*
G02X39728Y24729I-102J0D01*
G03Y24259I-228J-235D01*
G02X39900Y24186I71J-73D01*
G01Y22302D01*
G02X39728Y22229I-102J0D01*
G03Y21759I-228J-235D01*
G02X39900Y21686I71J-73D01*
G01Y15807D01*
G02X39728Y15734I-102J0D01*
G03Y15264I-228J-235D01*
G02X39900Y15191I71J-73D01*
G01Y13307D01*
G02X39728Y13234I-102J0D01*
G03X39339Y13284I-228J-235D01*
G02X39188Y13373I-50J89D01*
G01Y13777D01*
X38287D01*
Y13026D01*
X38392D01*
G02X38428Y12940I0J-51D01*
G01X38378Y12889D01*
Y12596D01*
G03Y12084I204J-256D01*
G01Y10466D01*
X38216Y10304D01*
X37418D01*
G02X37319Y10428I0J102D01*
G03X36681I-319J72D01*
G02X36582Y10304I-99J-22D01*
G01X34918D01*
G02X34819Y10428I0J102D01*
G03X34181I-319J72D01*
G02X34082Y10304I-99J-22D01*
G01X33270D01*
X32957Y9991D01*
X29315D01*
Y8470D01*
X29335D01*
Y7794D01*
X29295Y7786D01*
G03X29231Y7764I70J-320D01*
G02X29087Y7857I-42J93D01*
G01Y8580D01*
X28333D01*
Y7888D01*
G02X28159Y7816I-102J0D01*
G37*
G36*
G01X16766Y11638D02*
X16571Y11834D01*
X16572Y11856D01*
G03X16547Y11996I-327J15D01*
G02X16641Y12136I94J39D01*
G01X17266D01*
X17823Y12692D01*
Y13139D01*
X17994D01*
Y14046D01*
X18244D01*
Y13139D01*
X18995D01*
Y13346D01*
X19148D01*
G02X19232Y13186I0J-102D01*
G03X19179Y13061I268J-187D01*
G02X19074Y12979I-100J19D01*
G03X18730Y12637I-17J-327D01*
G01X18731Y12614D01*
X18540Y12424D01*
Y11809D01*
X17513D01*
Y11638D01*
X16766D01*
G37*
G36*
G01X33493Y8197D02*
X33245Y8445D01*
Y9702D01*
X33439Y9896D01*
X33755D01*
Y8470D01*
X34166D01*
G02X34245Y8305I0J-102D01*
G03X34199Y8228I255J-205D01*
G01X34186Y8197D01*
X33493D01*
G37*
G36*
G01X27225Y8237D02*
G03X26893Y8308I-225J-238D01*
G02X26758Y8404I-33J96D01*
G01Y8522D01*
X26358Y8922D01*
Y9384D01*
X25571D01*
Y11490D01*
X25482Y11578D01*
Y12229D01*
X26048Y12796D01*
X26744D01*
G03X27015Y12672I256J204D01*
G01X27038Y12673D01*
X27396Y12315D01*
Y10811D01*
G02X27225Y10737I-102J0D01*
G03Y10262I-225J-238D01*
G02X27396Y10188I70J-74D01*
G01Y8311D01*
G02X27225Y8237I-102J0D01*
G37*
G36*
G01X26758Y6204D02*
Y7210D01*
G03X26871Y7546I-204J256D01*
G02X26977Y7673I98J25D01*
G03X27225Y7762I23J326D01*
G02X27396Y7688I70J-74D01*
G01Y6813D01*
X27287D01*
Y6204D01*
X26758D01*
G37*
G36*
G01X35084Y5104D02*
X34713Y5475D01*
Y5796D01*
X35787D01*
Y5104D01*
X35084D01*
G37*
G36*
G01X30913Y5365D02*
Y6813D01*
X30804D01*
Y7044D01*
G03X30396I-204J256D01*
G01Y6813D01*
X30287D01*
Y6204D01*
X29569D01*
Y7210D01*
G03X29692Y7482I-204J256D01*
G01X29691Y7504D01*
X29865Y7678D01*
X30238D01*
X30243Y7677D01*
G03X30556Y7796I57J322D01*
G01X30889D01*
X31105Y7580D01*
Y5644D01*
X31253Y5496D01*
G02X31195Y5324I-72J-72D01*
G03X31068Y5278I45J-324D01*
G02X30913Y5365I-53J86D01*
G37*
G36*
G01X26684Y4890D02*
X26477Y5097D01*
X26213D01*
Y5796D01*
X26618D01*
G02X26709Y5648I0J-102D01*
G03X27138Y5202I291J-149D01*
G02X27280Y5132I43J-92D01*
G03X27297Y5076I320J68D01*
G02X27240Y5007I-47J-19D01*
G03X26923Y4890I-62J-321D01*
G01X26684D01*
G37*
G36*
G01X33696Y4437D02*
G02X33523Y4365I-102J0D01*
G01X33284Y4604D01*
X31552D01*
G02X31478Y4775I0J102D01*
G03X31561Y5065I-238J225D01*
G02X31660Y5187I100J20D01*
G01X32013D01*
Y5796D01*
X32188D01*
G02X32262Y5625I0J-102D01*
G03X32738I238J-225D01*
G02X32812Y5796I74J70D01*
G01X33087D01*
Y5187D01*
X33669D01*
X33676Y5185D01*
G03X33706Y5178I90J315D01*
G02X33744Y5111I-9J-50D01*
G03X33831Y4756I307J-112D01*
G01X33848Y4741D01*
Y4692D01*
X33696Y4541D01*
Y4437D01*
G37*
G36*
G01X30801Y3280D02*
Y4539D01*
X30437Y4903D01*
X30410D01*
G02X30337Y5074I0J102D01*
G03X30395Y5158I-237J226D01*
G01X30409Y5187D01*
X30820D01*
G02X30919Y5065I0J-102D01*
G03X31171Y4680I321J-65D01*
G02X31221Y4509I-22J-99D01*
G01X30996Y4284D01*
Y3280D01*
X30801D01*
G37*
G36*
G01X24277Y4065D02*
G02X24104Y4137I-72J72D01*
G01Y5188D01*
G02X24275Y5262I102J0D01*
G03X24201Y5632I225J238D01*
G01X24188Y5602D01*
X24104D01*
Y5816D01*
X24901Y6613D01*
G02X25075Y6541I72J-72D01*
G01Y5637D01*
X25416Y5296D01*
X25587D01*
Y5187D01*
X25852D01*
G02X25924Y5014I0J-102D01*
G01X25824Y4914D01*
X25426D01*
X24996Y4484D01*
Y4184D01*
X24916Y4104D01*
X24316D01*
X24277Y4065D01*
G37*
G36*
G01X19663Y1610D02*
Y2100D01*
G02X19712Y2151I51J0D01*
G03X20022Y2418I-12J327D01*
G02X20140Y2500I100J-18D01*
G03X20349Y2530I60J322D01*
G02X20496Y2440I46J-91D01*
G01Y2336D01*
X20469Y2322D01*
G03X20400Y1787I150J-291D01*
G02X20332Y1610I-68J-76D01*
G01X19663D01*
G37*
G36*
G01X30801Y1047D02*
Y1655D01*
X30910D01*
Y1855D01*
G02X31083Y1927I102J0D01*
G01X31246Y1764D01*
X31396D01*
Y1655D01*
X31505D01*
Y1078D01*
G02X31349Y992I-102J0D01*
G03X30967Y968I-175J-277D01*
G02X30801Y1047I-64J79D01*
G37*
G36*
G01X20718Y265D02*
G03X20749Y627I-256J204D01*
G01X20742Y638D01*
Y702D01*
X20878D01*
X20917Y662D01*
X20916Y640D01*
G03X21228Y952I327J-15D01*
G01X21206Y951D01*
X21136Y1020D01*
G02X21208Y1194I72J72D01*
G01X23359D01*
X23417Y1136D01*
X23416Y1114D01*
G03X23727Y1425I327J-15D01*
G01X23705Y1424D01*
X23527Y1601D01*
X21038D01*
X21030Y1610D01*
X20904D01*
G02X20837Y1787I0J102D01*
G03X20909Y2180I-218J244D01*
G01X20904Y2191D01*
Y2227D01*
G02X21077Y2299I102J0D01*
G01X21393Y1983D01*
X23084D01*
X23098Y1996D01*
X23384D01*
X23723Y2335D01*
G02X23896Y2263I72J-72D01*
G01Y2116D01*
X24248Y1764D01*
X25616D01*
Y1655D01*
X26242D01*
Y2042D01*
G02X26356Y2143I102J0D01*
G03X26640Y2248I41J325D01*
G01X26655Y2264D01*
X26739D01*
Y2198D01*
X26730Y2185D01*
G03X27170Y1720I270J-185D01*
G01X27182Y1728D01*
X27316D01*
Y1655D01*
X27942D01*
Y3280D01*
X27833D01*
Y4320D01*
X27505Y4648D01*
X27506Y4671D01*
G03X27500Y4751I-327J16D01*
G02X27599Y4873I100J20D01*
G03X27915Y5290I1J327D01*
G01X27913Y5297D01*
Y6813D01*
X27804D01*
Y7350D01*
G02X27977Y7422I102J0D01*
G01X28140Y7259D01*
Y5594D01*
X28438Y5296D01*
X28587D01*
Y5187D01*
X29213D01*
Y5204D01*
G02X29295Y5244I51J0D01*
G03X29659Y5213I205J255D01*
G02X29801Y5166I49J-89D01*
G03X29811Y5147I299J134D01*
G02X29748Y5002I-90J-48D01*
G03X29578Y4890I86J-316D01*
G01X29012D01*
X28835Y5067D01*
X28343D01*
X28096Y4821D01*
Y4798D01*
X28033Y4735D01*
Y4265D01*
X28096Y4202D01*
Y2016D01*
X28348Y1764D01*
X28584D01*
Y1655D01*
X29210D01*
Y2094D01*
G02X29361Y2183I102J0D01*
G03X29778Y2264I161J285D01*
G01X30284D01*
Y1655D01*
X30393D01*
Y659D01*
G03X30308Y249I204J-256D01*
G02X30218Y100I-90J-48D01*
G01X29809D01*
G02X29736Y272I0J102D01*
G03X29264I-236J227D01*
G02X29191Y100I-73J-71D01*
G01X27437D01*
G02X27339Y228I0J102D01*
G03X26706I-316J85D01*
G02X26608Y100I-98J-26D01*
G01X24809D01*
G02X24736Y272I0J102D01*
G03X24264I-236J227D01*
G02X24191Y100I-73J-71D01*
G01X22309D01*
G02X22236Y272I0J102D01*
G03X21764I-236J227D01*
G02X21691Y100I-73J-71D01*
G01X20798D01*
G02X20718Y265I0J102D01*
G37*
G36*
G01X25559Y32604D02*
Y34410D01*
X25773D01*
Y34301D01*
X26398D01*
Y34410D01*
X26869D01*
X26883Y34381D01*
G03X27191Y34193I296J139D01*
G02X27266Y34020I4J-102D01*
G01X26487Y33240D01*
X26322D01*
G03X25862Y32775I-222J-240D01*
G02X25788Y32604I-74J-70D01*
G01X25559D01*
G37*
G36*
G01X29907Y29257D02*
G02X29810Y29391I0J102D01*
G03X29815Y29407I-310J105D01*
G02X29934Y29480I98J-27D01*
G03X30320Y29731I66J320D01*
G01X30328Y29771D01*
X30811D01*
G02X30913Y29672I0J-102D01*
G03X31022Y29434I327J6D01*
G02X30954Y29257I-68J-76D01*
G01X29907D01*
G37*
G36*
G01X25129Y35572D02*
G02X25019Y35471I-102J0D01*
G03X24982Y35472I-27J-326D01*
G02X24877Y35574I-3J102D01*
G01Y36252D01*
X24777D01*
Y37013D01*
G02X24951Y37085I102J0D01*
G01X25129Y36906D01*
Y35572D01*
G37*
G36*
G01X26996Y35786D02*
X26956Y35778D01*
G03X26702Y35520I67J-320D01*
G02X26590Y35439I-100J20D01*
G03X26514Y35438I-36J-325D01*
G02X26400Y35539I-12J101D01*
G01Y35928D01*
X25804D01*
Y36048D01*
X26577D01*
Y36902D01*
X26825D01*
Y36050D01*
X26996D01*
Y35786D01*
G37*
G36*
G01X21477Y35084D02*
Y35477D01*
X18619D01*
X18610Y35518D01*
G03X18127Y35734I-320J-67D01*
G02X17975Y35822I-51J88D01*
G01Y35975D01*
X21925D01*
Y35090D01*
G02X21797Y34992I-102J0D01*
G03X21610Y34988I-85J-316D01*
G02X21477Y35084I-32J97D01*
G37*
G36*
G01X25258Y30340D02*
Y30449D01*
X25559Y30750D01*
Y32196D01*
X26583D01*
G02X26682Y32071I0J-102D01*
G03X27325Y31955I318J-77D01*
G02X27498Y32014I101J-12D01*
G01X27582Y31930D01*
Y31396D01*
X27473D01*
Y30788D01*
X26400D01*
Y31398D01*
X25771D01*
Y30769D01*
X25773D01*
Y30288D01*
X25311D01*
G03X25258Y30340I-256J-204D01*
G37*
G36*
G01X31309Y30393D02*
X31288Y30415D01*
Y31401D01*
X30899Y31789D01*
Y32769D01*
X31327Y33196D01*
X31587D01*
G02X31685Y33067I0J-102D01*
G03X32326Y32955I315J-88D01*
G02X32499Y33020I101J-7D01*
G01X32754Y32765D01*
Y31450D01*
X33096Y31108D01*
Y30788D01*
X32023D01*
Y31398D01*
X31394D01*
Y30769D01*
X31396D01*
Y30429D01*
G02X31309Y30393I-51J0D01*
G37*
G36*
G01X33721Y30696D02*
Y31396D01*
X33384D01*
X33162Y31619D01*
Y32490D01*
G02X33335Y32562I102J0D01*
G01X33700Y32196D01*
X34083D01*
G02X34182Y32071I0J-102D01*
G03X34818I318J-77D01*
G02X34917Y32196I99J24D01*
G01X35416D01*
X36042Y31570D01*
G02X35970Y31396I-72J-72D01*
G01X35908D01*
Y30788D01*
X34835D01*
Y31398D01*
X34206D01*
Y30788D01*
X34058D01*
X33895Y30624D01*
G02X33721Y30696I-72J72D01*
G37*
G36*
G01X28710Y31499D02*
X28571Y31638D01*
Y32188D01*
X28825Y32442D01*
X28836D01*
X30062Y32442D01*
X30071Y32433D01*
Y31322D01*
X30284Y31108D01*
Y30788D01*
X29212D01*
Y31398D01*
X28710D01*
Y31499D01*
G37*
G36*
G01X18256Y33323D02*
X18125Y33454D01*
X17977D01*
Y34046D01*
X18125D01*
X18356Y34277D01*
X18370Y34280D01*
G03X18392Y34286I-69J320D01*
G02X18523Y34189I29J-97D01*
G01Y33367D01*
G02X18369Y33280I-102J0D01*
G03X18270Y33320I-169J-280D01*
G01X18256Y33323D01*
G37*
G36*
G01X31222Y35010D02*
X31192Y35040D01*
Y35970D01*
X31068Y36094D01*
Y36328D01*
X31163Y36423D01*
X31734D01*
X32122Y36035D01*
X33078D01*
X33123Y35989D01*
X33097Y35926D01*
X33096D01*
Y35317D01*
X32433D01*
G03X32137Y35438I-256J-204D01*
G02X32023Y35539I-12J101D01*
G01Y35928D01*
X31394D01*
Y35299D01*
X31396D01*
Y35082D01*
G02X31222Y35010I-102J0D01*
G37*
G36*
G01X20975Y14025D02*
Y15473D01*
X20977D01*
Y15856D01*
G02X21119Y15950I102J0D01*
G03X21380Y15950I130J300D01*
G02X21523Y15858I41J-93D01*
G01Y14523D01*
X24477D01*
Y17477D01*
X21523D01*
Y16642D01*
G02X21380Y16550I-102J0D01*
G03X21119Y16550I-132J-299D01*
G02X20977Y16644I-40J93D01*
G01Y17027D01*
X20975D01*
Y17975D01*
X22319D01*
X22324Y17929D01*
G03X22974I326J34D01*
G01X22979Y17975D01*
X24925D01*
Y16527D01*
X24923D01*
Y15954D01*
X24881D01*
X24632Y15704D01*
Y14822D01*
X24908Y14546D01*
X24925D01*
Y14025D01*
X20975D01*
G37*
G36*
G01X19201Y17954D02*
X19144Y18010D01*
X18995D01*
Y18223D01*
X20052D01*
Y18977D01*
X18636D01*
G02X18564Y19151I0J102D01*
G01X18638Y19225D01*
X20050D01*
Y19277D01*
G03Y19924I50J323D01*
G01Y19975D01*
X19613D01*
X19576Y20013D01*
G02X19612Y20180I72J72D01*
G03X19179Y20425I-112J307D01*
G02X19079Y20304I-100J-19D01*
G01X19043D01*
G02X18962Y20466I0J102D01*
G03X18904Y20918I-262J196D01*
G01Y21075D01*
X18975D01*
Y21975D01*
X19739D01*
G03X19981Y22507I255J206D01*
G02X19875Y22609I-4J102D01*
G01Y22657D01*
G02X19956Y22698I51J0D01*
G03X20018Y23261I194J264D01*
G02X19875Y23354I-41J93D01*
G01Y23973D01*
X19877D01*
Y24443D01*
G02X20019Y24536I102J0D01*
G03X20477Y24851I130J300D01*
G01X20476Y24874D01*
X20510Y24908D01*
X21318D01*
X21572Y24654D01*
X21575D01*
G02X21676Y24539I0J-102D01*
G03X22044Y24170I324J-44D01*
G02X22160Y24070I14J-101D01*
G01Y23711D01*
X22375Y23496D01*
X22525D01*
Y23339D01*
G02X22476Y23288I-51J0D01*
G03X22172Y23027I16J-327D01*
G02X22056Y22947I-99J20D01*
G03X21814Y22894I-55J-322D01*
G01X21779Y22870D01*
X21725Y22924D01*
X21726Y22946D01*
G03X21314Y22646I-327J15D01*
G01X21352Y22635D01*
Y22577D01*
G02X21212Y22483I-102J0D01*
G03X20760Y22165I-125J-303D01*
G01X20761Y22143D01*
X20727Y22109D01*
Y21806D01*
X20481D01*
Y21056D01*
X22996D01*
Y20806D01*
X20481D01*
Y20760D01*
X20438Y20753D01*
G03Y20108I55J-322D01*
G01X20481Y20101D01*
Y20055D01*
X20727D01*
Y19906D01*
X20996Y19636D01*
Y18925D01*
X20925D01*
Y18025D01*
X20025D01*
Y17954D01*
X19201D01*
G37*
G36*
G01X24652Y30389D02*
Y30777D01*
X23752D01*
Y31025D01*
X24650D01*
Y31704D01*
G03X24713Y32243I-150J291D01*
G02Y32397I66J77D01*
G03X24287I-213J248D01*
G02Y32243I-66J-77D01*
G03X24207Y31849I213J-249D01*
G01X24212Y31838D01*
Y31775D01*
X24113D01*
X23946Y31942D01*
Y32858D01*
G03Y33370I-204J256D01*
G01Y34842D01*
X23525Y35263D01*
G02X23561Y35350I36J36D01*
G01X23609D01*
G03X24190Y35348I291J150D01*
G01X24575D01*
G02X24674Y35222I0J-102D01*
G03X25019Y34819I318J-77D01*
G02X25129Y34718I9J-101D01*
G01Y34526D01*
X25152Y34503D01*
Y30919D01*
X24851Y30618D01*
Y30340D01*
G03X24825Y30317I204J-256D01*
G02X24652Y30389I-71J72D01*
G37*
G36*
G01X22875Y33156D02*
Y33973D01*
X22877D01*
Y34527D01*
X22875D01*
Y35046D01*
X23166D01*
X23539Y34673D01*
Y33370D01*
G03X23431Y33215I204J-256D01*
G02X23314Y33146I-97J31D01*
G03X23042Y33078I-64J-321D01*
G02X22875Y33156I-65J78D01*
G37*
G36*
G01X28272Y34660D02*
G02X28098Y34732I-72J72D01*
G01Y35926D01*
X27989D01*
Y37063D01*
X27743Y37309D01*
X27373D01*
G02X27285Y37460I0J102D01*
G03X26979Y37948I-285J161D01*
G02X26873Y38028I-6J101D01*
G03X26575Y37630I-319J-71D01*
G02X26681Y37551I6J-101D01*
G03X26715Y37460I319J71D01*
G02X26627Y37309I-88J-50D01*
G01X25721D01*
X25512Y37100D01*
X25005Y37606D01*
X25006Y37629D01*
G03X24494Y37913I-327J15D01*
G02X24346Y37950I-58J84D01*
G03X24241Y37531I-291J-150D01*
G02X24389Y37494I58J-84D01*
G03X24439Y37423I291J150D01*
G02X24364Y37252I-75J-69D01*
G01X24023D01*
Y36348D01*
X24123D01*
Y35911D01*
G02X23992Y35814I-102J0D01*
G03X23922Y35826I-93J-314D01*
G02X23875Y35877I3J51D01*
G01Y36250D01*
X23775D01*
Y37250D01*
X23634D01*
Y37433D01*
X23304Y37763D01*
Y38616D01*
X23784Y39096D01*
X34516D01*
X34785Y38827D01*
Y38364D01*
G02X34640Y38272I-102J0D01*
G03Y37680I-140J-296D01*
G02X34785Y37588I43J-92D01*
G01Y37382D01*
G02X34640Y37290I-102J0D01*
G03Y36699I-140J-296D01*
G02X34785Y36607I43J-92D01*
G01Y35928D01*
X34206D01*
Y35299D01*
X34208D01*
Y35203D01*
G02X34121Y35167I-51J0D01*
G01X33971Y35317D01*
X33721D01*
Y35926D01*
X33612D01*
Y36076D01*
X33246Y36442D01*
X32291D01*
X32167Y36566D01*
G02X32182Y36722I72J72D01*
G03X31676Y36947I-182J272D01*
G02X31576Y36831I-101J-15D01*
G01X31164D01*
G02X31092Y37004I0J102D01*
G01X31362Y37274D01*
X31385Y37273D01*
G03X31727Y37587I15J327D01*
G02X31869Y37676I102J-4D01*
G03X31673Y37989I131J300D01*
G02X31531Y37900I-102J4D01*
G03X31073Y37585I-131J-300D01*
G01X31074Y37562D01*
X30393Y36881D01*
Y35926D01*
X30284D01*
Y35317D01*
X30104D01*
Y36050D01*
X30275D01*
Y36950D01*
X29525D01*
Y36050D01*
X29696D01*
Y35317D01*
X29623D01*
X29608Y35334D01*
G03X29326Y35438I-242J-220D01*
G02X29212Y35539I-12J101D01*
G01Y35928D01*
X28582D01*
Y35299D01*
X28584D01*
Y34817D01*
X28429D01*
X28272Y34660D01*
G37*
G36*
G01X17996Y14856D02*
Y15760D01*
X17184D01*
G03X17014Y15816I-185J-270D01*
G02X16946Y15990I4J102D01*
G01X17532Y16576D01*
X17994D01*
Y18257D01*
X17202D01*
G03X16847Y18288I-201J-258D01*
G02X16698Y18378I-47J90D01*
G01Y18493D01*
X16945D01*
Y19022D01*
G02X17118Y19094I102J0D01*
G01X17200Y19012D01*
X18348D01*
Y18257D01*
X18244D01*
Y16576D01*
X18373D01*
G02X18460Y16421I0J-102D01*
G03X18995Y16454I279J-171D01*
G01Y16822D01*
X19144D01*
X19369Y17046D01*
X20023D01*
Y16473D01*
X20025D01*
Y16330D01*
X20002Y16307D01*
X19981D01*
X19743Y16069D01*
Y15894D01*
G02X19608Y15798I-102J0D01*
G03X19179Y15552I-108J-309D01*
G01X19171Y15511D01*
X18995D01*
Y15758D01*
X18244D01*
Y14856D01*
X17996D01*
G37*
G36*
G01X18807Y32025D02*
G02X18718Y32176I0J102D01*
G03X18752Y32400I-287J158D01*
G02X18851Y32523I99J21D01*
G01X20413D01*
G02X20481Y32346I0J-102D01*
G03X20373Y32121I219J-243D01*
G02X20272Y32025I-101J6D01*
G01X18807D01*
G37*
G36*
G01X21015Y29257D02*
X20932Y29340D01*
G02X20987Y29512I72J72D01*
G03X21155Y30073I-56J322D01*
G02Y30221I70J74D01*
G03X21258Y30474I-224J238D01*
G01X21257Y30497D01*
X21404Y30644D01*
Y30669D01*
G02X21490Y30705I51J0D01*
G01X21855Y30340D01*
X21854Y30318D01*
G03X22165Y30630I327J-15D01*
G01X22143Y30629D01*
X21904Y30868D01*
Y31075D01*
X21975D01*
Y31975D01*
X22875D01*
Y32031D01*
X22947D01*
X22962Y32016D01*
G03X23379Y31982I229J234D01*
G02X23539Y31899I58J-83D01*
G01Y31773D01*
X23750Y31562D01*
Y30977D01*
X22848D01*
Y30223D01*
X23748D01*
Y29975D01*
X22850D01*
Y29257D01*
X22407D01*
G02X22310Y29391I0J102D01*
G03X21690I-310J104D01*
G02X21593Y29257I-96J-32D01*
G01X21015D01*
G37*
G36*
G01X23750D02*
Y30023D01*
X24731D01*
X24742Y29987D01*
G03X25311Y29880I313J97D01*
G01X25773D01*
Y29771D01*
X26398D01*
Y30380D01*
X26762D01*
G02X26859Y30249I0J-102D01*
G03X26914Y29952I313J-95D01*
G02X26873Y29796I-80J-63D01*
G03X26690Y29391I127J-302D01*
G02X26593Y29257I-96J-32D01*
G01X24907D01*
G02X24810Y29391I0J102D01*
G03X24190I-310J104D01*
G02X24093Y29257I-96J-32D01*
G01X23750D01*
G37*
G36*
G01X28390D02*
G02X28318Y29430I0J102D01*
G01X28443Y29555D01*
Y29965D01*
G02X28529Y30000I51J0D01*
G01X28541Y29989D01*
X28562D01*
X28584Y29967D01*
Y29771D01*
X29109D01*
G02X29201Y29628I0J-102D01*
G03X29190Y29391I299J-134D01*
G02X29093Y29257I-96J-32D01*
G01X28390D01*
G37*
G36*
G01X35688Y29204D02*
X35299Y29593D01*
G02X35318Y29751I72J72D01*
G03X35365Y30271I-173J278D01*
G01X35349Y30286D01*
Y30380D01*
X35908D01*
Y29771D01*
X36533D01*
Y29791D01*
X36592D01*
X36599Y29789D01*
G03X36634Y29780I101J311D01*
G02X36705Y29636I-21J-99D01*
G03X36706Y29350I295J-142D01*
G02X36615Y29204I-91J-45D01*
G01X35688D01*
G37*
G36*
G01X15682Y22025D02*
G02X15593Y22176I0J102D01*
G03X15628Y22401I-285J160D01*
G02X15728Y22523I100J20D01*
G01X18477D01*
Y22695D01*
G02X18651Y22767I102J0D01*
G01X18816Y22602D01*
X18925D01*
Y22025D01*
X15682D01*
G37*
G36*
G01X26650Y19762D02*
G02X26553Y19894I0J102D01*
G03X25974Y20182I-312J99D01*
G02X25819Y20169I-83J59D01*
G01X25265Y20723D01*
G02X25337Y20896I72J72D01*
G01X25933D01*
X26459Y20370D01*
X27192D01*
Y19889D01*
X27042D01*
X26915Y19762D01*
X26650D01*
G37*
G36*
G01X19184Y13754D02*
X19144Y13793D01*
X18995D01*
Y14046D01*
X20025D01*
Y13975D01*
X20925D01*
Y13754D01*
X19184D01*
G37*
G36*
G01X15825Y12528D02*
Y12575D01*
X15704D01*
Y13424D01*
G02X15871Y13502I102J0D01*
G03X16376Y13899I213J249D01*
G02X16466Y14046I91J46D01*
G01X17244D01*
Y13404D01*
G02X17108Y13308I-102J0D01*
G03X17108Y12690I-108J-309D01*
G01X17138Y12701D01*
X17196Y12642D01*
X17098Y12544D01*
X16571D01*
X16561Y12581D01*
G03X15926Y12568I-316J-85D01*
G01X15917Y12528D01*
X15825D01*
G37*
G36*
G01X22640Y37052D02*
X23039Y37451D01*
X23154Y37337D01*
G02X23118Y37250I-36J-36D01*
G01X23025D01*
Y36654D01*
X21975D01*
Y36925D01*
X21404D01*
Y37044D01*
X21411Y37052D01*
X22640D01*
G37*
G36*
G01X36535Y34132D02*
G03X36535Y34310I-315J88D01*
G01X36533Y34317D01*
Y35410D01*
X36623D01*
X36816Y35217D01*
Y34989D01*
X36796Y34969D01*
Y34750D01*
G03X37220Y34736I204J-256D01*
G01X37204Y34751D01*
Y34801D01*
X37223Y34820D01*
Y35386D01*
X36791Y35817D01*
X36533D01*
Y35926D01*
X35908D01*
Y35317D01*
X35192D01*
Y37580D01*
G02X35343Y37670I102J0D01*
G03Y38244I157J287D01*
G02X35192Y38333I-49J89D01*
G01Y38996D01*
X34765Y39423D01*
G02X34837Y39596I72J72D01*
G01X35616D01*
X36096Y39116D01*
Y36716D01*
X36516Y36296D01*
X37316D01*
X37596Y36016D01*
Y34384D01*
X37596Y34235D01*
X37365Y34004D01*
X36633D01*
G02X36535Y34132I0J102D01*
G37*
G36*
G01X34356Y33677D02*
X34724Y34045D01*
Y34301D01*
X34833D01*
Y34910D01*
X35908D01*
Y34317D01*
X35906Y34310D01*
G03X35964Y34016I315J-90D01*
G02X35961Y33949I-40J-32D01*
G01X35516Y33504D01*
X34428D01*
G02X34356Y33677I0J102D01*
G37*
G36*
G01X28304Y32742D02*
Y34116D01*
X28522Y34334D01*
X28584Y34308D01*
Y34301D01*
X29210D01*
Y34688D01*
G02X29324Y34789I102J0D01*
G03X29396Y34788I41J325D01*
G02X29507Y34684I9J-101D01*
G03X30121Y34834I327J-8D01*
G01X30114Y34846D01*
Y34910D01*
X30284D01*
Y34301D01*
X30570D01*
X30794Y34077D01*
G02X30722Y33904I-72J-72D01*
G01X30516D01*
X30071Y33459D01*
Y32850D01*
X28668D01*
X28667Y32849D01*
X28656D01*
X28477Y32670D01*
G02X28304Y32742I-72J72D01*
G37*
G36*
G01X16275Y32592D02*
X15727D01*
Y33950D01*
X16275D01*
Y32592D01*
G37*
G36*
G01X27319Y32728D02*
G03X27177Y33077I-319J74D01*
G02X27160Y33234I55J85D01*
G01X27723Y33797D01*
G02X27897Y33725I72J-72D01*
G01Y32437D01*
G02X27723Y32365I-102J0D01*
G01X27484Y32604D01*
X27418D01*
G02X27319Y32728I0J102D01*
G37*
G36*
G01X32530Y29118D02*
X32693Y29281D01*
Y29929D01*
G03X32809Y30256I-204J256D01*
G02X32908Y30380I99J22D01*
G01X33096D01*
Y29771D01*
X33106D01*
G02X33199Y29629I0J-102D01*
G03X33486Y29173I301J-129D01*
G02X33554Y29000I-4J-102D01*
G01X33499Y28944D01*
X32602D01*
G02X32530Y29118I0J102D01*
G37*
G36*
G01X18086Y28215D02*
X17688Y27817D01*
X17666Y27818D01*
G03X17581Y27811I-16J-327D01*
G02X17521Y27850I-11J50D01*
G03X17404Y28042I-321J-65D01*
G01Y28616D01*
X17984Y29196D01*
X18294D01*
Y28490D01*
X18317D01*
G02X18418Y28398I0J-102D01*
G03X18428Y28343I326J30D01*
G02X18330Y28215I-98J-27D01*
G01X18086D01*
G37*
G36*
G01X22413Y27475D02*
X21986Y27902D01*
X20576D01*
G02X20475Y27993I0J102D01*
G03X20436Y28119I-325J-34D01*
G02X20524Y28270I89J49D01*
G01X22525D01*
Y27475D01*
X22413D01*
G37*
G36*
G01X21817Y27495D02*
X21868Y27444D01*
G02X21845Y27282I-72J-72D01*
G03X22326Y26973I155J-288D01*
G02X22428Y27068I101J-7D01*
G01X22525D01*
Y26404D01*
X21884D01*
X21384Y26904D01*
X20073D01*
G02X19980Y27046I0J102D01*
G03X20005Y27223I-299J132D01*
G02X20106Y27339I101J14D01*
G01X20444D01*
X20450Y27294D01*
G03X21099Y27379I325J41D01*
G02X21199Y27495I101J14D01*
G01X21817D01*
G37*
G36*
G01X19875Y25954D02*
Y26025D01*
X18975D01*
Y26246D01*
X19288D01*
X19305Y26229D01*
X20883D01*
X20985Y26127D01*
G02X20913Y25954I-72J-72D01*
G01X19875D01*
G37*
G36*
G01X24904Y18925D02*
Y20030D01*
G03X25012Y20189I-204J256D01*
G02X25181Y20230I97J-30D01*
G01X26058Y19354D01*
X27084D01*
X27105Y19376D01*
G02X27192Y19340I36J-36D01*
G01Y19000D01*
X27042D01*
X26696Y18654D01*
X24975D01*
Y18925D01*
X24904D01*
G37*
G36*
G01X25875Y17990D02*
Y18025D01*
X24975D01*
Y18246D01*
X26865D01*
X27018Y18400D01*
G02X27192Y18328I72J-72D01*
G01Y18111D01*
X26792D01*
X26758Y18076D01*
X26735Y18077D01*
G03X26498Y17990I-15J-327D01*
G01X25875D01*
G37*
G36*
G01X17244Y16864D02*
X16684Y16304D01*
X16646D01*
G02X16551Y16441I0J102D01*
G03X16448Y16813I-306J116D01*
G01Y17254D01*
X16602Y17407D01*
X17244D01*
Y16864D01*
G37*
%LPC*%
G75*
G36*
G01X13528Y29035D02*
Y28372D01*
G03X13657Y28275I102J0D01*
G02X13620Y27658I89J-315D01*
G01X13589Y27670D01*
X13529Y27611D01*
X13612Y27528D01*
X13630Y27526D01*
G02X13274Y27170I-30J-326D01*
G01X13272Y27188D01*
X12912Y27548D01*
Y28134D01*
X12777D01*
Y29035D01*
X13528D01*
G37*
G36*
G01X7143Y10793D02*
G02X6681Y10572I-143J-294D01*
G03X6582Y10696I-99J23D01*
G01X4918D01*
G03X4819Y10572I0J-102D01*
G02X4181I-319J-73D01*
G03X4082Y10696I-99J23D01*
G01X2451D01*
X2419Y10728D01*
X2398D01*
X2160Y10967D01*
Y10988D01*
X1795Y11352D01*
Y11959D01*
G02X1743Y12011I204J256D01*
G01X1544D01*
Y11840D01*
X643D01*
Y12590D01*
X1544D01*
Y12419D01*
X1743D01*
G02X2203Y11959I256J-204D01*
G01Y11521D01*
X2268Y11456D01*
G03X2442Y11527I72J72D01*
G01Y12531D01*
X6084D01*
X6178Y12625D01*
Y13066D01*
X6716Y13604D01*
X10696D01*
X10896Y13404D01*
X10943D01*
X10958Y13420D01*
G02X10944Y12996I242J-220D01*
G01X10727D01*
X10527Y13196D01*
X9918D01*
G03X9819Y13072I0J-102D01*
G02X9181I-319J-73D01*
G03X9082Y13196I-99J23D01*
G01X7418D01*
G03X7319Y13072I0J-102D01*
G02X6689Y12897I-319J-73D01*
G01X6685Y12908D01*
X6641Y12953D01*
X6585Y12897D01*
Y12456D01*
X6372Y12242D01*
Y11104D01*
X6687D01*
X6882Y11298D01*
Y12531D01*
X10812D01*
Y11010D01*
X7170D01*
X7116Y10956D01*
G03X7143Y10793I72J-72D01*
G37*
G36*
G01X890Y10663D02*
Y10840D01*
X643D01*
Y11590D01*
X1544D01*
Y10840D01*
X1297D01*
Y10663D01*
G02X890I-204J-256D01*
G37*
G36*
G01X4190Y29599D02*
X4200Y29628D01*
X4142Y29687D01*
X4021Y29566D01*
X4025Y29542D01*
G02X3571Y29801I-325J-42D01*
G01X3580Y29805D01*
X3612Y29837D01*
G03X3553Y30009I-72J72D01*
G02X3265Y30330I40J325D01*
G01X3265Y30380D01*
X2812D01*
Y29771D01*
X2186D01*
Y29880D01*
X2037D01*
X1827Y30090D01*
Y32270D01*
X2148Y32591D01*
X2980D01*
X3284Y32287D01*
G03X3371Y32323I36J36D01*
G01Y32371D01*
X3354Y32386D01*
G02X3778Y32371I220J242D01*
G01Y31793D01*
X4175Y31396D01*
X4512D01*
Y29824D01*
X4554Y29817D01*
G02X4190Y29599I-54J-323D01*
G37*
G36*
G01X929Y26265D02*
X930Y26288D01*
X663Y26554D01*
Y35632D01*
X1474Y36442D01*
X3659D01*
X4175Y35926D01*
X4512D01*
Y34301D01*
X3886D01*
Y34348D01*
X3405D01*
G02X2985Y34380I-192J265D01*
G03X2812Y34307I-71J-73D01*
G01Y34301D01*
X2186D01*
Y34410D01*
X2101D01*
X2099Y34408D01*
X1630D01*
X1628Y34410D01*
X1071D01*
Y34171D01*
G03X1192Y34071I102J0D01*
G02Y33429I64J-321D01*
G03X1071Y33329I-20J-100D01*
G01Y31671D01*
G03X1192Y31571I102J0D01*
G02Y30929I64J-321D01*
G03X1071Y30829I-20J-100D01*
G01Y29171D01*
G03X1192Y29071I102J0D01*
G02Y28429I64J-321D01*
G03X1071Y28329I-20J-100D01*
G01Y26723D01*
X1218Y26576D01*
X1240Y26577D01*
G02X929Y26265I15J-327D01*
G37*
G36*
G01X3879Y19048D02*
G02X3527Y18996I-136J-298D01*
G03X3502Y19164I-67J76D01*
G02X3316Y19524I136J298D01*
G03X3195Y19643I-100J19D01*
G02X3083Y19638I-71J319D01*
G03X2968Y19537I-13J-101D01*
G01Y19150D01*
X2343D01*
Y19258D01*
X1654D01*
X1408Y19505D01*
Y20696D01*
X1769Y21057D01*
X3442D01*
X3711Y20788D01*
X3734Y20789D01*
G02X3959Y20713I15J-327D01*
G03X4043Y20752I33J39D01*
G01Y20775D01*
X4668D01*
Y19150D01*
X4043D01*
Y19258D01*
X3894D01*
G02X3854Y19216I-256J204D01*
G03X3879Y19048I67J-76D01*
G37*
G36*
G01X33755Y24470D02*
Y25920D01*
X33710Y25925D01*
G02X34052Y26129I38J325D01*
G03X34146Y25990I94J-38D01*
G01X35848D01*
G03X35943Y26129I0J102D01*
G02X36551I304J121D01*
G03X36645Y25990I94J-38D01*
G01X37685D01*
Y24470D01*
X33755D01*
G37*
G36*
G01X24277Y24083D02*
Y23248D01*
X23523D01*
Y28252D01*
X24277D01*
Y27406D01*
G03X24408Y27308I102J0D01*
G02Y26680I92J-314D01*
G03X24277Y26583I-29J-97D01*
G01Y24906D01*
G03X24408Y24808I102J0D01*
G02Y24180I92J-314D01*
G03X24277Y24083I-29J-97D01*
G37*
G36*
G01X39188Y14777D02*
Y14027D01*
X38287D01*
Y14777D01*
X38311D01*
G03X38412Y14869I0J102D01*
G02X39063I326J-31D01*
G03X39164Y14777I101J10D01*
G01X39188D01*
G37*
G36*
G01X33245Y12531D02*
Y11010D01*
X29315D01*
Y11567D01*
X29145D01*
X28838Y11874D01*
X28815Y11873D01*
G02X29127Y12185I-15J327D01*
G01X29126Y12162D01*
X29228Y12060D01*
G03X29315Y12096I36J36D01*
G01Y12531D01*
X33245D01*
G37*
G36*
G01X29277Y36048D02*
X28523D01*
Y36151D01*
G02Y36638I218J244D01*
G01Y36952D01*
X28727D01*
G03X28804Y37120I0J102D01*
G02X28829Y37570I249J212D01*
G03Y37718I-70J74D01*
G02X29277I224J238D01*
G03Y37570I70J-74D01*
G02X29215Y37047I-224J-238D01*
G01X29189Y37033D01*
Y36952D01*
X29277D01*
Y36048D01*
G37*
G54D26*
X9500Y2999D03*
X7000D03*
X4500D03*
X2000D03*
X9500Y5499D03*
X7000D03*
X4500D03*
X2000D03*
X14500Y9501D03*
X12000Y7999D03*
X9500D03*
X7000D03*
X4500D03*
X2000D03*
X12000Y10499D03*
X9500D03*
X2000D03*
X1087Y18750D03*
X1087Y21250D03*
X3593Y22493D03*
X2000Y21994D03*
X4500Y23006D03*
X1256Y23750D03*
X12000Y26995D03*
X3756Y33750D03*
X2000Y36994D03*
X4500Y12999D03*
X2000D03*
X14500Y17999D03*
X9500D03*
X7000D03*
X4500D03*
X2000D03*
X17000Y2000D03*
Y9501D03*
Y10499D03*
X14500Y36994D03*
X6256Y33750D03*
X37000Y7100D03*
Y7999D03*
X33739Y937D03*
X38580Y3750D03*
X32000Y10499D03*
X37000Y23006D03*
X34500D03*
X32000D03*
X29500D03*
X27000Y24494D03*
X37000Y20506D03*
X34500D03*
X32000D03*
X29500D03*
X27000Y26994D03*
X37000Y12999D03*
X28000Y15400D03*
X29500Y15499D03*
X32000D03*
X34500D03*
X37000D03*
X39362Y18119D03*
X37000Y17999D03*
X34500D03*
X32000D03*
X29500D03*
X37176Y17182D03*
X35500Y19600D03*
X28585Y781D03*
X32000Y31994D03*
X29500D03*
X33000Y37957D03*
X30500D03*
G54D27*
X28567Y19685D03*
G54D25*
X4407Y9230D03*
G54D24*
X8847D03*
G54D29*
X25500Y27100D03*
G54D28*
X27932Y16891D03*
%LPD*%
G75*
G36*
G01X1823Y19666D02*
X1815Y19674D01*
Y20527D01*
X1938Y20650D01*
X2341D01*
Y20148D01*
X2343D01*
Y19666D01*
X1823D01*
G37*
G36*
G01X2811Y32184D02*
X3886Y31108D01*
Y30788D01*
X2814D01*
Y31398D01*
X2234D01*
Y32101D01*
X2317Y32184D01*
X2811D01*
G37*
G36*
G01X1071Y35463D02*
X1643Y36035D01*
X3490D01*
X3886Y35638D01*
Y35497D01*
G02X3739Y35406I-102J0D01*
G03X3336Y35317I-147J-292D01*
G01X2814D01*
Y35928D01*
X2184D01*
Y35299D01*
X2186D01*
Y34817D01*
X1954D01*
X1952Y34815D01*
X1798D01*
X1796Y34817D01*
X1071D01*
Y35463D01*
G37*
G54D10*
X14495Y6248D03*
X14339Y3436D03*
X14495Y7185D03*
Y7966D03*
X14800Y34400D03*
X11464Y23274D03*
X12465D03*
X14800Y31300D03*
X14808Y35301D03*
Y36082D03*
X13152Y28585D03*
X12152D03*
X11464Y21556D03*
X12465D03*
X11464Y24992D03*
X12465D03*
X11464Y25773D03*
X12465D03*
X2700Y16400D03*
X3700D03*
X15495Y6248D03*
X15339Y3436D03*
X15495Y7185D03*
Y7966D03*
X28837Y3683D03*
X29837D03*
X25916D03*
X26916D03*
X28710Y8128D03*
X29710D03*
X32774Y7747D03*
X33774D03*
X34425Y3683D03*
X35425D03*
X31758D03*
X32758D03*
X15800Y34400D03*
X17619Y15308D03*
X18619D03*
X17619Y13589D03*
X18619D03*
X17619Y17026D03*
X18619D03*
X17619Y17807D03*
X18619D03*
X27500Y28000D03*
X28500D03*
X15800Y31300D03*
X15808Y35301D03*
Y36082D03*
X27932Y16891D03*
X26932D03*
X28567Y17907D03*
X27567D03*
X28567Y18796D03*
X27567D03*
X28567Y19685D03*
X27567D03*
X28567Y20574D03*
X27567D03*
X28567Y21463D03*
X27567D03*
X24500Y35800D03*
X23500D03*
X24400Y36800D03*
X23400D03*
X28900Y36500D03*
X29900D03*
X26200D03*
X27200D03*
X23900Y23700D03*
X22900D03*
X23900Y24600D03*
X22900D03*
X23900Y25400D03*
X22900D03*
X23900Y26200D03*
X22900D03*
X23900Y27000D03*
X22900D03*
X23900Y27800D03*
X22900D03*
X22200Y39200D03*
X21200D03*
G54D20*
G01X4199Y30084D02*
X3700Y29585D01*
Y29500D01*
G01X7167Y30084D02*
X6752D01*
X6400Y29731D01*
Y29600D01*
G01X9979Y30084D02*
X9384D01*
X9000Y29700D01*
G01X13103Y30084D02*
X13517D01*
X13800Y29801D01*
Y29700D01*
G01X13152Y28585D02*
Y27648D01*
X13600Y27200D01*
G01X13746Y35497D02*
X14330Y36082D01*
X14808D01*
G01Y35301D02*
X14370D01*
G01X14808Y31292D02*
Y30490D01*
G01X14500Y24750D02*
X13750D01*
G01X12465Y21556D02*
X14817D01*
X14823Y21550D01*
X15200D01*
G01X14500Y25250D02*
X13923D01*
X13873Y25300D01*
X13250D01*
X12942Y24992D01*
X12465D01*
G01X14500Y25750D02*
X12965D01*
X12942Y25773D01*
X12465D01*
G01X27629Y1968D02*
X27032D01*
X27000Y2000D01*
G01X27600Y5500D02*
Y5200D01*
G01X30600Y5500D02*
X30300D01*
X30100Y5300D01*
G01X22400Y7250D02*
X23177D01*
G01X22400Y7750D02*
X23720D01*
G01X21200Y8450D02*
Y9770D01*
G01X20200Y8450D02*
Y9790D01*
G01X19700Y3550D02*
Y2478D01*
G01X20200Y3550D02*
Y2822D01*
G01X36220Y34614D02*
Y34220D01*
G01D02*
X36200Y34200D01*
G01X27785Y34614D02*
Y34199D01*
X26586Y33000D01*
X26100D01*
G01X31275Y34100D02*
X32895D01*
X33409Y34614D01*
G01X31275Y34100D02*
X31111D01*
X30597Y34614D01*
G01Y30084D02*
X30579Y30102D01*
X30302D01*
X30000Y29800D01*
G01X33409Y30084D02*
X33500Y29992D01*
Y29500D01*
G01X36220Y30084D02*
X36236Y30100D01*
X36700D01*
G01X27500Y28000D02*
X26600D01*
G01X38738Y14402D02*
Y14838D01*
G01X19525Y27960D02*
Y28866D01*
G01X18744D02*
Y28428D01*
G01X18700Y31550D02*
Y30636D01*
X18700Y30635D01*
Y30386D01*
X18744Y30343D01*
Y29866D01*
G01X19525D02*
Y30170D01*
X19412Y30283D01*
Y30455D01*
X19200Y30668D01*
Y31550D01*
G01X18200D02*
X16050D01*
X15800Y31300D01*
G01X15808Y35301D02*
X15859Y35250D01*
X17500D01*
G01X15808Y36082D02*
X16392D01*
X16724Y35750D01*
X17500D01*
G01X19200Y36450D02*
Y37466D01*
X19525Y37792D01*
Y38238D01*
G01X16494Y19869D02*
X16300Y20063D01*
Y20722D01*
X16200Y20822D01*
Y21550D01*
G01X15700D02*
Y19882D01*
X15713Y19869D01*
G01X25400Y17250D02*
X26177D01*
G01X25400Y17750D02*
X26720D01*
G01X24200Y18450D02*
Y19770D01*
G01X23200Y18450D02*
Y19770D01*
G01Y13550D02*
Y12822D01*
G01X19525Y39238D02*
Y39675D01*
G01X18744Y39238D02*
Y39675D01*
G01X17963Y39238D02*
Y39675D01*
G54D11*
X1093Y11215D03*
Y12215D03*
X14839Y29553D03*
Y28553D03*
X22493Y10902D03*
Y11903D03*
X21712Y10902D03*
Y11903D03*
X19213Y906D03*
Y1906D03*
X18432Y906D03*
Y1906D03*
X17963Y11434D03*
Y10434D03*
X18744Y11434D03*
Y10434D03*
X19525Y11434D03*
Y10434D03*
X23368Y10930D03*
Y11930D03*
X25908Y8009D03*
Y9009D03*
X36068Y8120D03*
Y7120D03*
X20931Y21431D03*
Y20431D03*
X21712Y21431D03*
Y20431D03*
X22493Y21431D03*
Y20431D03*
X19525Y28866D03*
Y29866D03*
X18744Y28866D03*
Y29866D03*
X16494Y18869D03*
Y19869D03*
X15713Y18869D03*
Y19869D03*
X15776Y29553D03*
Y28553D03*
X16557Y29553D03*
Y28553D03*
X38738Y14402D03*
Y13402D03*
X24200Y30400D03*
Y31400D03*
X25500Y27100D03*
Y28100D03*
X23300Y30600D03*
Y29600D03*
X18800Y18600D03*
Y19600D03*
X19600Y18600D03*
Y19600D03*
X17963Y39238D03*
Y38238D03*
X18744Y39238D03*
Y38238D03*
X19525Y39238D03*
Y38238D03*
G54D21*
G01X4199Y34614D02*
X3214D01*
G01X23900Y27800D02*
Y27000D01*
G01X23300Y30600D02*
X24000D01*
X24200Y30400D01*
G01X18800Y18600D02*
X19600D01*
G01X24400Y36800D02*
Y35900D01*
X24500Y35800D01*
G01X23900Y27000D02*
Y26200D01*
G01Y24600D02*
Y23700D01*
G01Y24600D02*
Y25400D01*
G01X28567Y17907D02*
Y17167D01*
G01D02*
X28291Y16891D01*
X27932D01*
G54D12*
X8847Y11770D03*
Y9230D03*
X4407D03*
Y11770D03*
X8847Y27770D03*
Y25230D03*
X4407D03*
Y27770D03*
X35720Y11770D03*
Y9230D03*
X31280D03*
Y11770D03*
X35720Y27770D03*
Y25230D03*
X31280D03*
Y27770D03*
G54D22*
G01X13100Y11700D02*
Y12250D01*
X14238Y13388D01*
X14988D01*
X15200Y13600D01*
Y14000D01*
X15800Y14600D01*
X15844D01*
X15896Y14652D01*
X19861D01*
X19959Y14750D01*
X20500D01*
G01X1093Y11215D02*
Y10407D01*
G01X11800Y4800D02*
X13200D01*
G01X14300Y11700D02*
X14691D01*
G01X14495Y6248D02*
X14652D01*
X15000Y5900D01*
G01X10600Y10400D02*
X10200Y10000D01*
X10190D01*
G01X14691Y11700D02*
X14900Y11909D01*
Y12300D01*
G01X15000Y5900D02*
Y5300D01*
G01X10190Y10000D02*
Y9438D01*
X9962Y9210D01*
X9038D01*
X9017Y9230D01*
X8847D01*
G01X13200Y4422D02*
Y4800D01*
G01D02*
Y5178D01*
G01X14300Y11700D02*
Y12628D01*
G01X13922Y11700D02*
X14300D01*
G01X8847Y8417D02*
Y9230D01*
G01D02*
Y10043D01*
G01X6829Y9230D02*
X8847D01*
G01X14339Y3436D02*
Y2780D01*
X14214Y2655D01*
G01X13200Y6000D02*
Y5609D01*
X13509Y5300D01*
X14012D01*
X14400Y4912D01*
X16538D01*
X16700Y4750D01*
X17500D01*
G01X14495Y7185D02*
X14054D01*
X13746Y6876D01*
G01X13200Y3600D02*
Y3991D01*
X13309Y4100D01*
X16809D01*
X16959Y4250D01*
X17500D01*
G01X14495Y7966D02*
X14054D01*
X13589Y7501D01*
G01X4407Y11770D02*
X3830D01*
X3600Y12000D01*
G01X4407Y11770D02*
X5612D01*
X6382Y12540D01*
Y12982D01*
X6800Y13400D01*
X10611D01*
X10811Y13200D01*
X11200D01*
G01X8847Y11770D02*
X7642D01*
X6772Y10900D01*
X2536D01*
X2504Y10932D01*
X2483D01*
X2363Y11051D01*
Y11072D01*
X1999Y11437D01*
Y12215D01*
G01X1093D02*
X1999D01*
G01X17500Y32250D02*
X16888D01*
X16884Y32246D01*
X16316D01*
X16312Y32250D01*
X16299D01*
X16161Y32388D01*
X15839D01*
X15650Y32200D01*
X14500D01*
X14200Y32500D01*
Y33200D01*
G01X14995Y14712D02*
Y15695D01*
X15400Y16100D01*
X16768D01*
X17619Y16951D01*
Y17026D01*
G01X8847Y27770D02*
Y28595D01*
X8642Y28800D01*
X2400D01*
X1908Y28308D01*
Y27770D01*
G01X13900Y34900D02*
X13600D01*
X13314Y34614D01*
X13103D01*
G01X12465Y23274D02*
X12905D01*
G01X13000Y23000D02*
X12738D01*
X12465Y23274D01*
G01X6614Y34614D02*
X6600Y34600D01*
G01X6614Y34614D02*
X7167D01*
G01X9714D02*
X9700Y34600D01*
G01X9714Y34614D02*
X10135D01*
G01X9400Y19600D02*
X9538Y19462D01*
X9979D01*
G01X13500Y19700D02*
Y19638D01*
X13324Y19462D01*
X12946D01*
G01X14500Y23250D02*
X15150D01*
X15300Y23400D01*
Y24000D01*
G01D02*
X15050Y24250D01*
X14500D01*
G01X12905Y23274D02*
X13121Y23489D01*
Y23899D01*
X13472Y24250D01*
X14500D01*
G01X12926Y23274D02*
X12905D01*
G01X4355Y19462D02*
X3638D01*
G01X7167D02*
X6338D01*
G01X4355Y14464D02*
X3736D01*
G01X7167D02*
X6336D01*
G01X9979D02*
X9536D01*
X9400Y14600D01*
G01X12946Y14464D02*
X13364D01*
X13600Y14700D01*
G01X14800Y31300D02*
X14808Y31292D01*
G01X10100Y22500D02*
X11022D01*
X11039Y22517D01*
X13290D01*
X13428Y22656D01*
X13865D01*
X13959Y22750D01*
X14500D01*
G01X11464Y24992D02*
Y24898D01*
X11090Y24523D01*
G01X15713Y18869D02*
X15638D01*
X14995Y19512D01*
Y19681D01*
G01X11464Y25773D02*
Y26289D01*
X11355Y26398D01*
X11246D01*
G01X11464Y21556D02*
X10917D01*
X10661Y21300D01*
X10515D01*
X10495Y21280D01*
X8505D01*
X8485Y21300D01*
X7100D01*
X6600Y21800D01*
Y22700D01*
X6186Y23114D01*
X5500D01*
G01X14500Y22250D02*
X14000D01*
X13861Y22388D01*
X13539D01*
X13400Y22250D01*
X11150D01*
X10467Y21567D01*
X10405D01*
X10384Y21546D01*
X8616D01*
X8595Y21567D01*
X8083D01*
X7700Y21950D01*
Y22500D01*
G01X2655Y15464D02*
Y16356D01*
X2700Y16400D01*
G01X8279Y31084D02*
Y31999D01*
G01X5467Y31084D02*
Y31999D01*
G01X2499Y31084D02*
Y31999D01*
G01X11403Y31084D02*
Y31999D01*
G01X13750Y34375D02*
X14775D01*
X14800Y34400D01*
G01X8900Y22500D02*
X8500D01*
G01X11464Y23274D02*
X11374D01*
X11000Y22900D01*
G01X2655Y15464D02*
X3464D01*
G01X2655Y20462D02*
X2362D01*
X2000Y20100D01*
G01X8279Y20462D02*
X8662D01*
X8800Y20600D01*
G01X7185Y13902D02*
X7167Y13920D01*
G01X11246Y20462D02*
X10868D01*
G01X14500Y23750D02*
X13959D01*
G01X5467Y15464D02*
Y16267D01*
G01X8435Y35614D02*
X8623D01*
X8750Y35741D01*
G01X5467Y35614D02*
Y36717D01*
G01X11403Y35614D02*
X12286D01*
G01X2499D02*
X2002D01*
G01X14800Y34400D02*
Y33410D01*
G01X5467Y20462D02*
X5900Y20895D01*
G01X8279Y15464D02*
Y16579D01*
G01X11246Y15464D02*
Y16954D01*
G01X10868Y20462D02*
X10600Y20194D01*
Y20100D01*
G01X13959Y23750D02*
X13800Y23591D01*
Y23200D01*
G01X5467Y16267D02*
X6200Y17000D01*
G01X8750Y35741D02*
Y36875D01*
G01X5467Y36717D02*
X6250Y37500D01*
G01X12286Y35614D02*
X12400Y35500D01*
G01X2002Y35614D02*
X1875Y35487D01*
Y35000D01*
G01X15009Y33200D02*
X15400D01*
G01X14800Y33410D02*
X15009Y33200D01*
G01X5900Y20895D02*
Y22200D01*
G01X8279Y16579D02*
X8700Y17000D01*
G01X11246Y16954D02*
X10900Y17300D01*
G01X11037Y31084D02*
X11403D01*
G01D02*
X11768D01*
G01X5467Y20462D02*
Y20828D01*
G01Y20462D02*
X5832D01*
G01X11246D02*
Y20828D01*
G01Y20462D02*
X11612D01*
G01X2700Y15897D02*
Y16400D01*
G01X2272D02*
X2700D01*
G01D02*
X3128D01*
G01X11464Y23274D02*
Y23777D01*
G01Y23274D02*
X11893D01*
G01X14372Y34400D02*
X14800D01*
G01D02*
X15228D01*
G01X13000Y32900D02*
X13400Y32500D01*
Y31742D01*
X14214Y30928D01*
Y30416D01*
G01X14839Y29553D02*
Y29791D01*
X14214Y30416D01*
G01X12184Y27960D02*
X11557D01*
X11176Y27579D01*
Y27178D01*
X10795Y26797D01*
X4699D01*
X4407Y26505D01*
Y25230D01*
G01X12152Y28585D02*
X12184Y28553D01*
Y27960D01*
G01X8847Y25230D02*
X7642D01*
X6635Y24223D01*
X2066D01*
X1644Y24645D01*
Y25230D01*
G01X15200Y26450D02*
Y28192D01*
X14839Y28553D01*
G01X9060Y30584D02*
Y30334D01*
G01X8279Y30584D02*
X9060D01*
G01D02*
X9979D01*
G01X12184D02*
Y30334D01*
G01X11403Y30584D02*
X12184D01*
G01D02*
X13103D01*
G01X11403Y35114D02*
X12014D01*
G01D02*
X12111Y35016D01*
X12475D01*
X12572Y35114D01*
X13103D01*
G01X9046D02*
X10135D01*
G01X8435D02*
X9046D01*
G01X6079D02*
X7167D01*
G01X5467D02*
X6079D01*
G01X2499D02*
X3593D01*
G01D02*
X4199D01*
G01X3593Y30584D02*
Y30334D01*
G01X2499Y30584D02*
X3593D01*
G01D02*
X4199D01*
G01X5467D02*
X6404D01*
G01D02*
X7167D01*
G01X6404D02*
Y30303D01*
G01X6542Y32628D02*
Y32058D01*
G01D02*
X6100Y32500D01*
X5200D01*
X4900Y32200D01*
Y30273D01*
X5089Y30084D01*
X5467D01*
G01X6542Y32058D02*
Y31709D01*
X7167Y31084D01*
G01X3574Y31709D02*
X2895Y32388D01*
X2233D01*
X2031Y32185D01*
Y30174D01*
X2121Y30084D01*
X2499D01*
G01X3574Y32628D02*
Y31709D01*
G01D02*
X4199Y31084D01*
G01X1256Y26250D02*
X867Y26638D01*
Y34600D01*
G01D02*
Y35547D01*
X1558Y36238D01*
X3574D01*
X4199Y35614D01*
G01X2499Y34614D02*
X2038D01*
X2036Y34612D01*
X1714D01*
X1712Y34614D01*
X881D01*
X867Y34600D01*
G01X7167Y35614D02*
X6612Y36169D01*
Y37155D01*
X6875Y37419D01*
Y37733D01*
X6484Y38123D01*
X5125D01*
X4998Y37996D01*
Y34704D01*
X5089Y34614D01*
X5467D01*
G01D02*
Y33427D01*
X5936Y32958D01*
G01X8903D02*
X8435D01*
X8279Y33114D01*
Y34079D01*
X8435Y34236D01*
Y34614D01*
G01X10135Y35614D02*
Y36909D01*
X9544Y37500D01*
X8125D01*
X7966Y37341D01*
Y34704D01*
X8057Y34614D01*
X8435D01*
G01X11403D02*
X11090D01*
X11000Y34704D01*
Y36111D01*
X11127Y36238D01*
X12478D01*
X13103Y35614D01*
G01X13600Y33000D02*
X13203Y33397D01*
X12802D01*
X12391Y32986D01*
X12000D01*
G01X11403Y34614D02*
Y33114D01*
X11246Y32958D01*
G01X10622Y32802D02*
Y37323D01*
X10749Y37450D01*
X11544D01*
X12000Y36994D01*
G01X13103Y31084D02*
Y31911D01*
X13102Y31911D01*
Y32003D01*
X12705Y32400D01*
X11024D01*
X10622Y32802D01*
G01D02*
X10600Y32780D01*
Y30508D01*
X11024Y30084D01*
X11403D01*
G01X8279D02*
X7900D01*
X7654Y30330D01*
Y32400D01*
G01D02*
Y38841D01*
X7000Y39494D01*
G01X7654Y32400D02*
X9600D01*
X9979Y32021D01*
Y31084D01*
G01X8279Y14964D02*
X8903D01*
G01D02*
X9979D01*
G01X11246D02*
X12340D01*
G01D02*
X12946D01*
G01X11246Y19962D02*
X11715D01*
G01D02*
X12946D01*
G01X8279D02*
X8747D01*
G01D02*
X9138D01*
X9249Y20074D01*
X9489D01*
X9600Y19962D01*
X9979D01*
G01X5467D02*
X5936D01*
G01D02*
X7167D01*
G01X2655D02*
X3124D01*
G01D02*
X4355D01*
G01X2655Y14964D02*
X3905D01*
G01D02*
X4355D01*
G01X3905D02*
Y15680D01*
X3700Y15884D01*
Y16400D01*
G01X5467Y14964D02*
X6717D01*
G01D02*
X7167D01*
G01X5467Y14464D02*
X5089D01*
X4888Y14664D01*
Y17088D01*
X5200Y17400D01*
X6350D01*
X6588Y17161D01*
Y17112D01*
X6600Y17100D01*
Y16031D01*
G01D02*
Y15816D01*
X6248Y15464D01*
G01X7167D02*
X6600Y16031D01*
G01X1874Y14839D02*
X1562Y15151D01*
Y16662D01*
X1828Y16928D01*
X4035D01*
X4063Y16900D01*
X4087D01*
X4355Y16631D01*
Y15464D01*
G01X2655Y14464D02*
X2534D01*
X2531Y14466D01*
X2247D01*
X1874Y14839D01*
G01X4355Y20462D02*
X3749D01*
G01D02*
X3358Y20853D01*
X1853D01*
X1612Y20611D01*
Y19589D01*
X1738Y19462D01*
X2655D01*
G01X7167Y20462D02*
X6560D01*
G01D02*
Y20853D01*
X6300Y21113D01*
Y22300D01*
X6288Y22312D01*
Y22361D01*
X6050Y22600D01*
X5200D01*
X4998Y22398D01*
Y19553D01*
X5089Y19462D01*
X5467D01*
G01X8279D02*
X7781D01*
X7558Y19685D01*
Y20758D01*
X7788Y20988D01*
X9236D01*
X9372Y20853D01*
Y20462D01*
G01X9979D02*
X9372D01*
G01X13800Y18400D02*
X14000Y18600D01*
Y20161D01*
X13699Y20462D01*
X12946D01*
G01X11246Y19462D02*
Y18800D01*
G01D02*
Y18246D01*
X11200Y18200D01*
G01X12000Y12999D02*
X12699D01*
X13150Y13450D01*
X13450D01*
X14000Y14000D01*
Y16000D01*
X14400Y16400D01*
Y17200D01*
X13800Y17800D01*
Y18400D01*
G01D02*
X13400Y18800D01*
X11246D01*
G01X9500Y17001D02*
X10199Y17700D01*
X11750D01*
X12000Y17450D01*
Y17001D01*
G01X12946Y15464D02*
Y16054D01*
X12000Y17001D01*
G01X9500D02*
X10399D01*
X10622Y16778D01*
Y14683D01*
X10841Y14464D01*
X11246D01*
G01X9979Y15464D02*
X9216D01*
G01D02*
Y15854D01*
X9100Y15970D01*
Y17100D01*
X9088Y17112D01*
Y17161D01*
X8850Y17400D01*
X8000D01*
X7654Y17054D01*
Y14710D01*
X7900Y14464D01*
X8279D01*
G01X22493Y10902D02*
Y9841D01*
G01X21712Y10902D02*
X21680D01*
X21243Y10465D01*
G01X20500Y14250D02*
X15850D01*
X15500Y13900D01*
Y11700D01*
G01X16245Y12496D02*
X16401Y12340D01*
X17182D01*
X17619Y12777D01*
Y13589D01*
G01X24200Y12195D02*
X25100Y11295D01*
Y7100D01*
X23900Y5900D01*
Y3800D01*
X23700Y3600D01*
Y2600D01*
X23300Y2200D01*
X23013D01*
X23000Y2187D01*
X21477D01*
X21200Y2464D01*
Y3550D01*
G01X24200Y13550D02*
Y12195D01*
G01X35720Y11770D02*
Y12596D01*
X35814Y12690D01*
Y13081D01*
X35345Y13550D01*
X24700D01*
G01X21700Y3550D02*
Y2667D01*
G01X22400Y4250D02*
X22941D01*
X23118Y4427D01*
Y4530D01*
G01X33766Y5500D02*
X33400D01*
G01X36100D02*
X36466D01*
G01X30597Y403D02*
Y1968D01*
G01Y403D02*
X30600Y400D01*
G01X15548Y6248D02*
X16200Y6900D01*
G01X15548Y6248D02*
X15495D01*
G01X17500Y6250D02*
X16713D01*
G01X32512Y2032D02*
X32576Y1968D01*
X33409D01*
G01X36064D02*
X36639D01*
X36830Y2159D01*
G01X16713Y6250D02*
X15938D01*
X15936Y6248D01*
X15548D01*
G01X16713Y6250D02*
Y5467D01*
X16930Y5250D01*
X17500D01*
G01X21804Y4750D02*
X21712Y4842D01*
Y5602D01*
X21859Y5750D01*
X22400D01*
G01Y4750D02*
X21804D01*
G01X25929Y2968D02*
Y3670D01*
X25916Y3683D01*
G01X28837D02*
X28897Y3623D01*
G01X31709Y2968D02*
X32568D01*
G01X34364D02*
X35132D01*
G01X17500Y6750D02*
X18798D01*
X18938Y6610D01*
X19390D01*
X20000Y6000D01*
G01X25929Y2968D02*
X25068D01*
G01X25900Y6500D02*
Y7000D01*
G01X28900Y6500D02*
Y7000D01*
G01X34425Y3683D02*
Y3029D01*
X34364Y2968D01*
G01X31758Y3683D02*
Y3017D01*
X31709Y2968D01*
G01X25908Y8009D02*
X25900Y8001D01*
Y7000D01*
G01X24300Y7100D02*
Y7491D01*
X24130Y7661D01*
Y10684D01*
X23884Y10930D01*
G01X22400Y6250D02*
X23450D01*
G01X28710Y8128D02*
X28624Y8042D01*
Y7276D01*
G01X22400Y6250D02*
X21791D01*
G01X17500Y5750D02*
X18209D01*
G01X36068Y8120D02*
X35946Y8242D01*
X35542D01*
G01X34400Y6500D02*
Y7427D01*
G01X32566Y7966D02*
X31866D01*
G01X28897Y3623D02*
Y4203D01*
G01Y3623D02*
Y2968D01*
G01X23884Y10930D02*
X23368D01*
G01X23450Y6250D02*
X24300Y7100D01*
G01X28624Y7276D02*
X28900Y7000D01*
G01X21541Y6000D02*
X20000D01*
G01X21791Y6250D02*
X21541Y6000D01*
G01X18459D02*
X20000D01*
G01X18209Y5750D02*
X18459Y6000D01*
G01X28897Y4203D02*
X28600Y4500D01*
G01X35542Y8242D02*
X35266Y7966D01*
G01X34400Y7427D02*
X34939Y7966D01*
X35266D01*
G01X31700Y7800D02*
Y6500D01*
G01X31866Y7966D02*
X31700Y7800D01*
G01X20000Y4472D02*
Y6000D01*
G01D02*
Y7528D01*
G01X36068Y7692D02*
Y8120D01*
G01X35565D02*
X36068D01*
G01D02*
X36571D01*
G01X28710Y7625D02*
Y8128D01*
G01D02*
Y8631D01*
G01X28282Y8128D02*
X28710D01*
G01D02*
X29138D01*
G01X25916Y3683D02*
Y4186D01*
G01X25488Y3683D02*
X25916D01*
G01D02*
X26344D01*
G01X28837D02*
Y4186D01*
G01Y3683D02*
X29265D01*
G01X23368Y10502D02*
Y10930D01*
G01D02*
Y11358D01*
G01X38581Y12340D02*
Y10381D01*
X38300Y10100D01*
X33355D01*
X32485Y9230D01*
X31280D01*
G01X38581Y12340D02*
Y12805D01*
X38738Y12961D01*
Y13402D01*
G01X19700Y8450D02*
Y7829D01*
G01X31280Y11770D02*
X29230D01*
X28800Y12200D01*
G01X20700Y3550D02*
Y2112D01*
X20618Y2031D01*
G01X19213Y1906D02*
Y2997D01*
X19200Y3009D01*
Y3550D01*
G01X18432Y1906D02*
Y2347D01*
X18356Y2423D01*
Y2816D01*
X18700Y3161D01*
Y3550D01*
G01X18200D02*
X15893D01*
X15780Y3436D01*
X15339D01*
G01X15495Y7185D02*
X15936D01*
X16001Y7250D01*
X16036D01*
X16049Y7264D01*
X16557D01*
X16570Y7250D01*
X17500D01*
G01Y7750D02*
X16152D01*
X15936Y7966D01*
X15495D01*
G01X17963Y10434D02*
Y9228D01*
X18200Y8991D01*
Y8450D01*
G01X18744Y10434D02*
Y9035D01*
X18700Y8991D01*
Y8450D01*
G01X19200D02*
Y9668D01*
X19525Y9993D01*
Y10434D01*
G01X28897Y2468D02*
X29522D01*
G01D02*
X30099D01*
G01D02*
X30597D01*
G01X29837Y3683D02*
Y3212D01*
X30099Y2950D01*
Y2468D01*
G01X26398D02*
Y3165D01*
X26916Y3683D01*
G01X25929Y2468D02*
X26398D01*
G01D02*
X27629D01*
G01X25900Y6000D02*
X26543D01*
G01D02*
X27600D01*
G01X26554Y7466D02*
Y6011D01*
X26543Y6000D01*
G01X21700Y8450D02*
Y9204D01*
X22024Y9528D01*
G01X26554Y7466D02*
Y8438D01*
X25983Y9009D01*
X25908D01*
G01X28900Y6000D02*
X29400D01*
G01D02*
X30600D01*
G01X29366Y7466D02*
Y6034D01*
X29400Y6000D01*
G01X29710Y8128D02*
Y7811D01*
X29366Y7466D01*
G01X31700Y6000D02*
X32100D01*
G01D02*
X33400D01*
G01X32177Y7466D02*
Y6077D01*
X32100Y6000D01*
G01X20700Y8450D02*
Y10235D01*
G01X33774Y7747D02*
Y6789D01*
X33791Y6772D01*
Y6228D01*
X33672Y6109D01*
X33615D01*
X33506Y6000D01*
X33400D01*
G01X34400D02*
X35179D01*
G01D02*
X36100D01*
G01X35179D02*
Y6858D01*
G01D02*
X35441Y7120D01*
X36068D01*
G01X34989Y7466D02*
Y7048D01*
X35179Y6858D01*
G01X35687Y2468D02*
Y2682D01*
X35673Y2696D01*
Y2941D01*
X35425Y3189D01*
Y3683D01*
G01X34364Y2468D02*
X34833D01*
G01D02*
X35687D01*
G01D02*
X36064D01*
G01X31709D02*
X32177D01*
G01D02*
X33020D01*
G01D02*
X33409D01*
G01X33020D02*
Y2694D01*
X33018Y2696D01*
Y3068D01*
X32758Y3327D01*
Y3683D01*
G01X33409Y2968D02*
Y4191D01*
X33200Y4400D01*
X31400D01*
X31200Y4200D01*
Y2098D01*
X31330Y1968D01*
X31709D01*
G01D02*
Y791D01*
X32000Y499D01*
G01X34364Y1968D02*
X34232D01*
X34123Y2077D01*
X34092D01*
X33973Y2196D01*
Y2227D01*
X33900Y2300D01*
Y4456D01*
X34052Y4608D01*
Y4998D01*
G01X37000Y2999D02*
Y2968D01*
X36064D01*
G01X34400Y5500D02*
X35000Y4900D01*
X36791D01*
X37000Y5109D01*
Y5499D01*
G01D02*
Y6200D01*
X36700Y6500D01*
X36100D01*
G01X31700Y5500D02*
X31556D01*
X31447Y5609D01*
X31428D01*
X31309Y5728D01*
Y7664D01*
X30974Y7999D01*
G01D02*
X30300D01*
G01X30974D02*
X31366Y8392D01*
X33010D01*
X33274Y8128D01*
Y7004D01*
X33400Y6878D01*
Y6500D01*
G01X29500Y10499D02*
X28152D01*
X27940Y10287D01*
Y7747D01*
X28344Y7343D01*
Y5678D01*
X28522Y5500D01*
X28900D01*
G01X30600Y6500D02*
Y7300D01*
G01X27000Y12999D02*
X25964D01*
X25278Y12314D01*
Y11494D01*
X25367Y11405D01*
Y6989D01*
X25278Y6901D01*
Y5722D01*
X25500Y5500D01*
X25900D01*
G01X27600Y6500D02*
Y12399D01*
X27000Y12999D01*
G01X27629Y2968D02*
Y4236D01*
X27179Y4686D01*
G01D02*
X26600D01*
X26393Y4893D01*
X26091D01*
X25908Y4711D01*
X25511D01*
X25200Y4400D01*
Y4100D01*
X25000Y3900D01*
X24400D01*
X24100Y3600D01*
Y2200D01*
X24332Y1968D01*
X25929D01*
G01X29834Y4686D02*
X28928D01*
X28751Y4864D01*
X28427D01*
X28300Y4736D01*
Y4714D01*
X28236Y4651D01*
Y4349D01*
X28300Y4286D01*
Y2100D01*
X28432Y1968D01*
X28897D01*
G01X29834Y4686D02*
X29847Y4699D01*
X30353D01*
X30597Y4455D01*
Y2968D01*
G01X17963Y11434D02*
X16682D01*
X16245Y11871D01*
G01X19525Y11434D02*
X19600D01*
X19985Y11819D01*
Y12643D01*
G01X19213Y906D02*
X20962D01*
X21243Y625D01*
G01X18744Y11434D02*
Y12340D01*
X19056Y12652D01*
G01X23742Y1098D02*
X23443Y1398D01*
X20953D01*
X20945Y1406D01*
X18744D01*
X18432Y1093D01*
Y906D01*
G01X22200Y13550D02*
Y13009D01*
X22225Y12984D01*
Y12252D01*
X22240Y12237D01*
Y12155D01*
X22493Y11903D01*
G01X21700Y13550D02*
Y12355D01*
X21712Y12343D01*
Y11903D01*
G01X22700Y13550D02*
Y12547D01*
X22649Y12496D01*
G01X23200Y12822D02*
Y12098D01*
X23368Y11930D01*
G01X20931Y21431D02*
Y22024D01*
X21087Y22180D01*
G01X20200Y31550D02*
Y30567D01*
X20567Y30200D01*
Y29417D01*
X20931Y29053D01*
X23300D01*
G01X32490Y30185D02*
Y29366D01*
X32177Y29053D01*
X27848D01*
X27842Y29048D01*
X27090D01*
X27085Y29053D01*
X23300D01*
G01X32490Y30584D02*
Y30185D01*
G01X31709Y30584D02*
X32490D01*
G01D02*
X33409D01*
G01X23300Y29600D02*
Y29053D01*
G01X16245Y16557D02*
Y17338D01*
X16517Y17611D01*
X17161D01*
X17357Y17807D01*
X17619D01*
G01X25500Y28741D02*
X20559D01*
X20320Y28980D01*
Y29310D01*
X20300Y29331D01*
Y29500D01*
X20100Y29700D01*
Y30196D01*
X19700Y30596D01*
Y31550D01*
G01X35145Y30029D02*
Y30584D01*
G01D02*
X36220D01*
G01X34520D02*
X35145D01*
G01X25500Y28100D02*
Y28741D01*
G01D02*
X33583D01*
X33895Y29053D01*
Y30337D01*
X34142Y30584D01*
X34520D01*
G01X26085Y35114D02*
X26554D01*
G01X20200Y36450D02*
Y37438D01*
X20150Y37488D01*
G01X26554Y35114D02*
X26817D01*
X26862Y35069D01*
X27184D01*
X27228Y35114D01*
X27400D01*
G01D02*
X27785D01*
G01X27200Y36500D02*
Y35900D01*
X27394Y35706D01*
Y35342D01*
X27400Y35336D01*
Y35114D01*
G01X28897D02*
X29366D01*
G01D02*
X29900D01*
G01D02*
X30597D01*
G01X29900Y36500D02*
Y35114D01*
G01X20700Y36450D02*
Y37719D01*
X20462Y37957D01*
G01X22493Y21431D02*
Y22961D01*
G01X21200Y37129D02*
X21000Y37329D01*
Y38300D01*
X21200Y38500D01*
Y39200D01*
G01X21200Y36450D02*
Y37129D01*
G01X31709Y35114D02*
X32177D01*
G01D02*
X33409D01*
G01D02*
X33886D01*
X34004Y34996D01*
Y34241D01*
X33891Y34128D01*
X33578D01*
X33350Y33900D01*
Y33550D01*
X33600Y33300D01*
X35600D01*
X36100Y33800D01*
X37450D01*
X37800Y34150D01*
Y34300D01*
X37800Y36100D01*
X37400Y36500D01*
X37343D01*
X37340Y36500D01*
X36600D01*
X36300Y36800D01*
Y39200D01*
X35700Y39800D01*
X23800D01*
X22800Y38800D01*
Y37500D01*
X22556Y37256D01*
X21327D01*
X21200Y37129D01*
G01X23430Y36707D02*
Y37349D01*
X23100Y37679D01*
Y38700D01*
X23700Y39300D01*
X34600D01*
X34989Y38911D01*
Y35114D01*
G01X36220D02*
X34989D01*
G01X23400Y36800D02*
Y36737D01*
X23430Y36707D01*
G01X34989Y35114D02*
X34520D01*
G01X23430Y36707D02*
X23173Y36450D01*
X21700D01*
G01X22400Y35750D02*
X23450D01*
X23500Y35800D01*
G01X26085Y30584D02*
X27172D01*
G01D02*
X27785D01*
G01X27172D02*
Y30154D01*
G01X22400Y35750D02*
X22426Y35776D01*
X23624D01*
X23900Y35500D01*
G01X23742Y33114D02*
Y31858D01*
X24200Y31400D01*
G01X29522Y30584D02*
Y30185D01*
G01X28897Y30584D02*
X29522D01*
G01D02*
X30597D01*
G01X23742Y33114D02*
Y34758D01*
X23250Y35250D01*
X22400D01*
G01X37000Y34494D02*
Y34885D01*
X37019Y34904D01*
Y35301D01*
X36707Y35614D01*
X36220D01*
G01X34520Y34614D02*
Y34130D01*
X34130Y33739D01*
X33739D01*
G01X21712Y21431D02*
Y21872D01*
X21556Y22028D01*
Y22805D01*
X21399Y22961D01*
G01X36220Y31084D02*
X36707D01*
X37332Y30459D01*
G01X34520Y30084D02*
X35604Y29000D01*
X37500D01*
X37700Y29200D01*
Y30091D01*
X37332Y30459D01*
G01X17500Y32750D02*
X17450Y32700D01*
X16900D01*
X16600Y33000D01*
Y33200D01*
G01X28897Y34614D02*
X28514D01*
X28100Y34200D01*
Y31443D01*
X28239Y31304D01*
Y29639D01*
X28000Y29400D01*
X27485D01*
X27391Y29494D01*
X27000D01*
G01X30597Y35614D02*
Y36797D01*
X31400Y37600D01*
G01X31709Y34614D02*
X31330D01*
X30988Y34956D01*
Y35885D01*
X30864Y36009D01*
Y36412D01*
X31079Y36627D01*
X31818D01*
X32206Y36238D01*
X33162D01*
X33409Y35992D01*
Y35614D01*
G01X31709Y34614D02*
X32583D01*
X32646Y34676D01*
G01X20700Y31550D02*
Y32103D01*
G01X18200Y21550D02*
Y20381D01*
G01X21200Y31550D02*
Y30728D01*
X20931Y30459D01*
G01X18700Y21550D02*
Y20662D01*
G01X22180Y30303D02*
X21700Y30783D01*
Y31550D01*
G01X24700Y13550D02*
Y12673D01*
G01X35720Y25230D02*
X34430D01*
G01X19400Y22250D02*
X19924D01*
X19994Y22180D01*
G01X22400Y32250D02*
X23190D01*
G01X26242Y14683D02*
Y14527D01*
X25965Y14250D01*
X25400D01*
G01X31280Y25230D02*
X29250D01*
X29000Y25479D01*
Y26000D01*
X28500Y26500D01*
Y28000D01*
G01D02*
X29000D01*
G01X19700Y36450D02*
Y37157D01*
G01X19959Y15250D02*
Y15503D01*
X19946Y15516D01*
Y15984D01*
X20066Y16104D01*
X20087D01*
X20233Y16250D01*
X20500D01*
G01X27000Y15000D02*
Y15300D01*
X26550Y15750D01*
X25400D01*
G01D02*
X24966D01*
X24836Y15620D01*
Y14906D01*
X24992Y14750D01*
X25400D01*
G01X20500Y15250D02*
X19959D01*
G01X27785Y30084D02*
Y29985D01*
X27600Y29800D01*
G01X17500Y34250D02*
X18041D01*
X18300Y34509D01*
Y34600D01*
G01X15800Y34400D02*
X16241D01*
X16391Y34250D01*
X17500D01*
G01X21712Y32898D02*
Y33602D01*
X21859Y33750D01*
X22400D01*
G01Y32750D02*
X21859D01*
X21712Y32898D01*
G01X18200Y33000D02*
Y33091D01*
X18041Y33250D01*
X17500D01*
G01X19400Y22750D02*
X19345Y22805D01*
X18900D01*
X18744Y22961D01*
Y23635D01*
G01X15300Y24000D02*
Y25600D01*
X15500Y25800D01*
X18500D01*
X18700Y25600D01*
Y23679D01*
X18744Y23635D01*
G01D02*
X18859Y23750D01*
X19400D01*
G01X19959Y15250D02*
X19705Y14995D01*
X19372D01*
X19060Y15308D01*
X18619D01*
G01X31709Y30084D02*
X31330D01*
X31084Y30330D01*
Y31316D01*
X30695Y31705D01*
Y32853D01*
X31242Y33400D01*
X32407D01*
X32958Y32849D01*
Y31534D01*
X33409Y31084D01*
G01X31709Y30084D02*
X31303Y29678D01*
X31240D01*
G01X16494Y18869D02*
Y18194D01*
X16000Y17700D01*
G01X15776Y29553D02*
Y29990D01*
X16245Y30459D01*
G01X16557Y29553D02*
Y29994D01*
X16866Y30303D01*
X17338D01*
G01X20500Y15750D02*
X21598D01*
X21738Y15890D01*
X22890D01*
X23000Y16000D01*
G01X20000Y34000D02*
X19890Y34110D01*
X18938D01*
X18710Y34338D01*
Y34792D01*
X18440Y35062D01*
X18129D01*
X18126Y35065D01*
X18114D01*
X17800Y34750D01*
X17500D01*
G01X28897Y35614D02*
Y36238D01*
X28741Y36395D01*
G01X34520Y35614D02*
X33739Y36395D01*
G01X22400Y34250D02*
X21859D01*
X21609Y34000D01*
X20000D01*
G01X17619Y15308D02*
X17368D01*
X17161Y15101D01*
G01X22400Y34250D02*
X23050D01*
G01X24200Y30400D02*
X24275D01*
X24864Y30988D01*
G01X19400Y24250D02*
X20850D01*
G01X20500Y16750D02*
X19750D01*
G01X25400Y16250D02*
X24791D01*
G01X27932Y16891D02*
Y16816D01*
X27366Y16250D01*
G01X31709Y35614D02*
X31240Y36082D01*
G01X17500Y33750D02*
X18041D01*
G01X28897Y31084D02*
Y31552D01*
G01X33739Y31709D02*
Y31679D01*
X33866Y31552D01*
X34052D01*
G01X31084Y32490D02*
Y31709D01*
G01X26085Y31084D02*
Y31709D01*
G01X23000Y16000D02*
X22250Y16750D01*
X21360D01*
G01X28741Y36395D02*
X28300Y36835D01*
G01X26242Y36395D02*
X26000Y36153D01*
Y35699D01*
X26085Y35614D01*
G01X17161Y15101D02*
X16401D01*
X16400Y15100D01*
G01X23573Y37702D02*
X24400Y36875D01*
Y36800D01*
G01X28300Y36835D02*
Y38600D01*
X27900Y39000D01*
X23900D01*
X23573Y38673D01*
Y37702D01*
G01X23050Y34250D02*
X23300Y34500D01*
G01X24864Y30988D02*
Y33236D01*
X24500Y33600D01*
G01D02*
Y35800D01*
G01X20850Y24250D02*
X21300Y24700D01*
G01X19750Y16750D02*
X19500Y16500D01*
Y16100D01*
X19286Y15886D01*
X18314D01*
X18100Y16100D01*
Y18416D01*
X18284Y18600D01*
G01X18100Y15300D02*
X18108Y15308D01*
G01X18284Y18600D02*
X18800D01*
G01X21298Y16750D02*
X20500D01*
G01X21360D02*
X21328Y16720D01*
X21298Y16750D01*
G01X24541Y16000D02*
X23000D01*
G01X24791Y16250D02*
X24541Y16000D01*
G01X27366Y16250D02*
X25400D01*
G01X31240Y36082D02*
Y36238D01*
G01X18291Y34000D02*
X20000D01*
G01X18041Y33750D02*
X18291Y34000D01*
G01X28897Y31552D02*
X28741Y31709D01*
G01X34052Y31552D02*
X34520Y31084D01*
G01X31084Y31709D02*
X31709Y31084D01*
G01X26085Y31709D02*
X26242Y31865D01*
G01X20000Y32472D02*
Y34000D01*
G01D02*
Y35528D01*
G01X23000Y14472D02*
Y16000D01*
G01D02*
Y17528D01*
G01X31709Y31084D02*
Y31449D01*
G01Y31084D02*
X32074D01*
G01X34520D02*
Y31449D01*
G01X34155Y31084D02*
X34520D01*
G01D02*
X34886D01*
G01X26085Y35614D02*
Y35979D01*
G01Y35614D02*
X26451D01*
G01X28532D02*
X28897D01*
G01D02*
X29262D01*
G01X31709D02*
Y35979D01*
G01X31343Y35614D02*
X31709D01*
G01D02*
X32074D01*
G01X34520D02*
Y35979D01*
G01X34155Y35614D02*
X34520D01*
G01X25720Y31084D02*
X26085D01*
G01D02*
X26451D01*
G01X19600Y18172D02*
Y18600D01*
G01D02*
Y19028D01*
G01Y18600D02*
X20103D01*
G01X23900Y27800D02*
Y28303D01*
G01X23472Y27800D02*
X23900D01*
G01D02*
X24328D01*
G01X23472Y26200D02*
X23900D01*
G01D02*
X24328D01*
G01X23472Y25400D02*
X23900D01*
G01D02*
X24328D01*
G01X23900Y23197D02*
Y23700D01*
G01X23472D02*
X23900D01*
G01D02*
X24328D01*
G01X23300Y30172D02*
Y30600D01*
G01D02*
Y31028D01*
G01X22797Y30600D02*
X23300D01*
G01X25500Y26672D02*
Y27100D01*
G01D02*
Y27528D01*
G01X24997Y27100D02*
X25500D01*
G01D02*
X26003D01*
G01X26200Y35997D02*
Y36500D01*
G01D02*
X26628D01*
G01X28900Y35997D02*
Y36500D01*
G01D02*
X29328D01*
G01X23972Y36800D02*
X24400D01*
G01D02*
X24828D01*
G01X24200Y29972D02*
Y30400D01*
G01D02*
Y30828D01*
G01X28567Y21463D02*
Y21966D01*
G01X28139Y21463D02*
X28567D01*
G01D02*
X28995D01*
G01X28139Y20574D02*
X28567D01*
G01D02*
X28995D01*
G01X28139Y19685D02*
X28567D01*
G01D02*
X28995D01*
G01X28139Y18796D02*
X28567D01*
G01D02*
X28995D01*
G01X28139Y17907D02*
X28567D01*
G01D02*
X28995D01*
G01X27932Y16891D02*
Y17394D01*
G01X27504Y16891D02*
X27932D01*
G01X17619Y15308D02*
Y15811D01*
G01Y15308D02*
X18047D01*
G01X27785Y35614D02*
Y36978D01*
X27658Y37105D01*
X25805D01*
X25600Y36900D01*
Y35429D01*
X25622Y35406D01*
Y34884D01*
X25600Y34861D01*
Y34721D01*
X25707Y34614D01*
X26085D01*
G01D02*
X27085D01*
X27179Y34520D01*
G01X18200Y36450D02*
Y36650D01*
X17915Y36935D01*
X17715D01*
X17494Y37156D01*
Y37800D01*
X17932Y38238D01*
X17963D01*
G01X18700Y36450D02*
Y37753D01*
X18744Y37797D01*
Y38238D01*
G01X16700Y26450D02*
Y27661D01*
X16557Y27804D01*
G01X17700Y21550D02*
Y20100D01*
G01X15700Y26450D02*
Y28036D01*
X15776Y28112D01*
Y28553D01*
G01X16557D02*
X16305Y28301D01*
Y28219D01*
X16290Y28204D01*
Y28190D01*
X16169Y28069D01*
Y27643D01*
X16200Y27611D01*
Y26450D01*
G01X20150Y24836D02*
X20426Y25112D01*
X21402D01*
X21656Y24858D01*
X22151D01*
X22364Y24645D01*
Y23796D01*
X22459Y23700D01*
X22900D01*
G01X19400Y25250D02*
X19736D01*
X20150Y24836D01*
G01X19941Y25750D02*
X21250D01*
X21875Y25125D01*
X22261D01*
X22286Y25100D01*
X22300D01*
X22800Y24600D01*
X22900D01*
G01X19400Y25750D02*
X19941D01*
G01D02*
X20150Y25541D01*
Y25461D01*
G01X18700Y26450D02*
Y26991D01*
X18888Y27179D01*
G01X18700Y26450D02*
X19372D01*
X19389Y26433D01*
X20967D01*
X22000Y25400D01*
X22900D01*
G01X18432Y27647D02*
X18934D01*
X19252Y27329D01*
Y26948D01*
X19500Y26700D01*
X21300D01*
X21800Y26200D01*
X22900D01*
G01X18200Y26450D02*
Y27416D01*
X18432Y27647D01*
G01X17651Y27491D02*
X18170Y28011D01*
X18960D01*
X19428Y27542D01*
X20468D01*
X20624Y27698D01*
X21901D01*
X22328Y27272D01*
X22628D01*
X22900Y27000D01*
G01X17700Y26450D02*
Y27442D01*
X17651Y27491D01*
G01X17200Y27786D02*
Y28700D01*
X17900Y29400D01*
X19853D01*
X20054Y29200D01*
Y28747D01*
X20326Y28474D01*
X22742D01*
X22900Y28316D01*
Y27800D01*
G01X17200Y26450D02*
Y27786D01*
G01X18800Y19600D02*
X18725D01*
X18340Y19215D01*
X17285D01*
X17051Y19449D01*
Y20280D01*
X16870Y20462D01*
G01X16700Y21550D02*
Y20632D01*
X16870Y20462D01*
G01X19600Y19600D02*
X20100D01*
G01X17200Y21550D02*
Y21009D01*
X17367Y20842D01*
Y20281D01*
X17336Y20251D01*
Y19863D01*
X17519Y19681D01*
X18014D01*
X18433Y20100D01*
X19200D01*
X19600Y19700D01*
Y19600D01*
G01X23700Y13550D02*
Y12538D01*
G01X22700Y18450D02*
Y18014D01*
X22649Y17963D01*
G01X37000Y37976D02*
X37484D01*
X37612Y38103D01*
Y38118D01*
X37839Y38345D01*
X38161D01*
X38500Y38006D01*
Y32200D01*
X37900Y31600D01*
X36300D01*
X35500Y32400D01*
X33785D01*
X32485Y33700D01*
X30600D01*
X30275Y33375D01*
Y32518D01*
G01X28897Y30084D02*
X28755D01*
X28646Y30193D01*
X28625D01*
X28506Y30312D01*
Y31415D01*
X28367Y31554D01*
Y32272D01*
X28741Y32646D01*
X28752D01*
X30147Y32646D01*
X30275Y32518D01*
G01D02*
Y31406D01*
X30597Y31084D01*
G01X21200Y13550D02*
X19099D01*
X19060Y13589D01*
X18619D01*
G01X20500Y17250D02*
X19284D01*
X19060Y17026D01*
X18619D01*
G01X20500Y17750D02*
X19117D01*
X19060Y17807D01*
X18619D01*
G01X20931Y20431D02*
X20494D01*
G01X21200Y18450D02*
Y19721D01*
X20931Y19990D01*
Y20431D01*
G01X21712D02*
Y19837D01*
G01X21700Y18450D02*
X21712Y18462D01*
Y19837D01*
G01X22493Y20431D02*
X22300Y20238D01*
Y19846D01*
X22286Y19832D01*
Y19531D01*
X22300Y19516D01*
Y19091D01*
X22200Y18991D01*
Y18450D01*
G01X26177Y17250D02*
X26573D01*
X26932Y16891D01*
G01X26720Y17750D02*
X26877Y17907D01*
X27567D01*
G01X24700Y18450D02*
X26780D01*
X27126Y18796D01*
X27567D01*
G01X24700Y18450D02*
Y20286D01*
G01X24200Y19770D02*
Y20500D01*
X24349Y20649D01*
X25051D01*
X26142Y19558D01*
X26999D01*
X27126Y19685D01*
X27567D01*
G01Y20574D02*
X26543D01*
X26017Y21100D01*
X24148D01*
X23700Y20652D01*
Y20107D01*
G01Y18450D02*
Y20107D01*
G01X27567Y21463D02*
X23663D01*
X23200Y21000D01*
Y19770D01*
G01X26085Y30084D02*
X25055D01*
G01X27785Y31084D02*
Y32015D01*
X27400Y32400D01*
X25356D01*
G01D02*
Y34588D01*
X25333Y34610D01*
Y34972D01*
X25356Y34994D01*
Y35296D01*
X25333Y35318D01*
Y36991D01*
X24680Y37644D01*
G01X25356Y32400D02*
Y30834D01*
X25055Y30534D01*
Y30084D01*
G01X22200Y39200D02*
X22400D01*
X22704Y39504D01*
G01D02*
X22768D01*
G01X22200Y38697D02*
Y39200D01*
G01D02*
Y39703D01*
G01X21772Y39200D02*
X22200D01*
G54D13*
X14300Y11700D03*
X13100D03*
X14200Y33200D03*
X8900Y22500D03*
X10100D03*
X7700D03*
X15500Y11700D03*
X15400Y33200D03*
X16600D03*
G54D23*
G01X40000Y40000D02*
X0D01*
Y0D01*
X40000D01*
Y40000D01*
G01X0Y-1400D02*
X-2400D01*
G01X-1200Y-2600D02*
Y-200D01*
G01X-500Y-1400D02*
G03I-700J0D01*
G01X-200Y-1300D02*
G03I-1000J-100D01*
G01X-1700Y41300D02*
G03I-1000J-100D01*
G01X-2000Y41200D02*
G03I-700J0D01*
G01X-2700Y40000D02*
Y42400D01*
G01X-1500Y41200D02*
X-3900D01*
G01X42300Y-1300D02*
X39900D01*
G01X42100Y-1200D02*
G03I-1000J-100D01*
G01X41100Y-2500D02*
Y-100D01*
G01X41800Y-1300D02*
G03I-700J0D01*
G01X42900Y41300D02*
X40500D01*
G01X41700Y40100D02*
Y42500D01*
G01X42400Y41300D02*
G03I-700J0D01*
G01X42700Y41400D02*
G03I-1000J-100D01*
G54D14*
X13200Y4800D03*
Y6000D03*
Y3600D03*
G54D15*
X1093Y10407D03*
X10600Y10400D03*
X8000Y9600D03*
X8600D03*
X9200D03*
X9800D03*
X14900Y12300D03*
X11800Y4800D03*
X15000Y5300D03*
X14214Y2655D03*
X13746Y6876D03*
X13589Y7501D03*
X3600Y12000D03*
X1999Y12215D03*
X14500Y499D03*
X12000D03*
X9500D03*
X7000D03*
X4500D03*
X2000D03*
X14500Y4501D03*
X12000Y2999D03*
X9500D03*
X7000D03*
X4500D03*
X2000D03*
X14500Y5499D03*
X12000D03*
X9500D03*
X7000D03*
X4500D03*
X2000D03*
X14500Y9501D03*
X12000Y7999D03*
X9500D03*
X7000D03*
X4500D03*
X2000D03*
X14500Y10499D03*
X12000D03*
X9500D03*
X7000D03*
X4500D03*
X2000D03*
X1087Y18750D03*
X13746Y16401D03*
X10500Y19334D03*
X3743Y18750D03*
X6086D03*
X14995Y14712D03*
X8741Y18750D03*
X1908Y27770D03*
X13600Y14700D03*
X9400Y14600D03*
X6336Y14464D03*
X13500Y19700D03*
X13000Y23000D03*
X9400Y19600D03*
X6614Y34614D03*
X9714D03*
X13900Y34900D03*
X3214Y34614D03*
X3700Y29500D03*
X6400Y29600D03*
X9000Y29700D03*
X13800D03*
X13600Y27200D03*
X3638Y19462D03*
X6338D03*
X3736Y14464D03*
X13746Y35497D03*
X14370Y35301D03*
X14808Y30490D03*
X1087Y21250D03*
X11090Y24523D03*
X8591Y24055D03*
X14995Y19681D03*
X3593Y22493D03*
X11246Y26398D03*
X5500Y23114D03*
X13750Y34375D03*
X1875Y35000D03*
X6250Y37500D03*
X8750Y36875D03*
X12400Y35500D03*
X8279Y31999D03*
X5467D03*
X2499D03*
X11403D03*
X13750Y24750D03*
X13800Y23200D03*
X8500Y22500D03*
X11000Y22900D03*
X8700Y17000D03*
X6200D03*
X3464Y15464D03*
X10900Y17300D03*
X2000Y20100D03*
X5900Y22200D03*
X10600Y20100D03*
X8800Y20600D03*
X14214Y30416D03*
X13000Y32900D03*
X12184Y27960D03*
X1644Y25230D03*
X9060Y30334D03*
X12184D03*
X12014Y35114D03*
X9046D03*
X6079D03*
X3593D03*
Y30334D03*
X6404Y30303D03*
X12000Y20506D03*
X9500Y21994D03*
X7000D03*
X4500D03*
X2000D03*
X6542Y32628D03*
X14500Y20506D03*
X12000Y24340D03*
X9500Y23100D03*
X7000Y23006D03*
X4500D03*
X1256Y23750D03*
X3574Y32628D03*
X13700Y22000D03*
X8756Y26250D03*
X6256D03*
X3756D03*
X1256D03*
X12000Y26995D03*
X13754Y26250D03*
X4500Y29494D03*
X1256Y28750D03*
X5936Y32958D03*
X7000Y29494D03*
X9500D03*
X12000D03*
X13746Y27960D03*
X13800Y32000D03*
X12000Y31994D03*
X4500Y31835D03*
X1256Y31250D03*
X8903Y32958D03*
X7000Y32148D03*
X13600Y33000D03*
X8756Y33750D03*
X6256D03*
X3756D03*
X1256D03*
X12000Y32986D03*
X11246Y32958D03*
X14500Y36994D03*
X12000D03*
X9500D03*
X7000D03*
X4500D03*
X2000D03*
X11200Y13200D03*
X8903Y14964D03*
X12340D03*
X11715Y19962D03*
X8747D03*
X5936D03*
X3124D03*
X3905Y14964D03*
X6717D03*
X6248Y15464D03*
X1874Y14839D03*
X3749Y20462D03*
X6560D03*
X9372D03*
X14500Y12999D03*
X12000D03*
X9500D03*
X7000D03*
X4500D03*
X2000D03*
X11200Y18200D03*
X12000Y17001D03*
X9500D03*
X14500Y15490D03*
X4500Y17001D03*
X2000Y15499D03*
X7000Y17001D03*
X14500Y17999D03*
X12000D03*
X9500D03*
X7000D03*
X4500D03*
X2000D03*
X9216Y15464D03*
X14500Y39494D03*
X12000D03*
X9500D03*
X7000D03*
X4500D03*
X2000D03*
X22493Y9841D03*
X21243Y10465D03*
X16245Y12496D03*
X24200Y12195D03*
X21700Y2667D03*
X23118Y4530D03*
X21804Y4750D03*
X16200Y6900D03*
X33766Y5500D03*
X36466D03*
X32800Y7000D03*
X37000Y7100D03*
X32512Y2032D03*
X36830Y2159D03*
X30597Y403D03*
X27000Y2000D03*
X27600Y5200D03*
X30100Y5300D03*
X32568Y2968D03*
X35132D03*
X32566Y7966D03*
X35266D03*
X28600Y4500D03*
X24300Y7100D03*
X19100Y5000D03*
X19600D03*
X20100D03*
X19100Y5500D03*
X19600D03*
X20100D03*
X19100Y7000D03*
X19600D03*
X20200D03*
X25068Y2968D03*
X25900Y7000D03*
X28900D03*
X38581Y12340D03*
X19700Y7829D03*
X28800Y12200D03*
X28803Y9997D03*
X20618Y2031D03*
X29522Y2468D03*
X23177Y7250D03*
X26398Y2468D03*
X23720Y7750D03*
X26554Y7466D03*
X22024Y9528D03*
X29366Y7466D03*
X21200Y9770D03*
X32177Y7466D03*
X20700Y10235D03*
X34989Y7466D03*
X20200Y9790D03*
X34833Y2468D03*
X19700Y2478D03*
X32177Y2468D03*
X20200Y2822D03*
X39500Y499D03*
X37000D03*
X34500D03*
X32000D03*
X29500D03*
X24500D03*
X22000D03*
X27023Y312D03*
X22337Y2655D03*
X24500Y2999D03*
X27000D03*
X29500D03*
X39500D03*
X37000D03*
X34052Y4998D03*
X31240Y5000D03*
X26242Y4530D03*
X23118Y5155D03*
X29500Y5499D03*
X27000D03*
X24500D03*
X32500Y5400D03*
X37000Y5499D03*
X39500D03*
X34440Y4540D03*
X30300Y7999D03*
X37000D03*
X39500D03*
X23274Y9684D03*
X27000Y7999D03*
X24500D03*
X34500Y8100D03*
X21712Y10153D03*
X39500Y10499D03*
X37000D03*
X34500D03*
X32000D03*
X29500D03*
X27000D03*
X24500D03*
X30600Y7300D03*
X27179Y4686D03*
X29834D03*
X28585Y781D03*
X33739Y937D03*
X16245Y11871D03*
X38580Y3750D03*
X19985Y12643D03*
X21243Y625D03*
X19056Y12652D03*
X31174Y715D03*
X23699Y10153D03*
X23742Y1098D03*
X23700Y12538D03*
X22649Y12496D03*
X20462Y469D03*
X17000Y2000D03*
Y2999D03*
X18744Y2655D03*
X16245Y5467D03*
X19681Y9528D03*
X17000Y9501D03*
X19500Y12184D03*
X17000Y10499D03*
X21087Y22180D03*
X32490Y30185D03*
X16245Y16557D03*
X35145Y30029D03*
X26554Y35114D03*
X20150Y37488D03*
X29366Y35114D03*
X20462Y37957D03*
X18739Y16250D03*
X22493Y22961D03*
X32177Y35114D03*
X23900Y35500D03*
X27172Y30154D03*
X29522Y30185D03*
X23742Y33114D03*
X33739Y33739D03*
X21712Y34676D03*
X24500Y32646D03*
X27000Y32802D03*
X37000Y34494D03*
X39500D03*
X29834Y34676D03*
X32000Y32979D03*
X16084Y13750D03*
X21399Y22961D03*
X37332Y30459D03*
X39500Y24494D03*
X37000Y23006D03*
X34500D03*
X32000D03*
X29500D03*
X27000Y24494D03*
X24500D03*
X22000D03*
X39500Y29494D03*
X31400Y37600D03*
X37000Y29494D03*
X34500D03*
X32000D03*
X29500D03*
X27000D03*
X24500D03*
X22000D03*
X21712Y32333D03*
X24500Y31994D03*
X27000D03*
X29500D03*
X32000D03*
X34500D03*
X37000D03*
X39500D03*
X32646Y34676D03*
X31280Y27770D03*
X20700Y32103D03*
X18200Y20381D03*
X20931Y30459D03*
X18700Y20662D03*
X22180Y30303D03*
X24700Y12673D03*
X34430Y25230D03*
X19994Y22180D03*
X23190Y32250D03*
X26242Y14683D03*
X29000Y28000D03*
X19700Y37157D03*
X27000Y15000D03*
X18619Y15308D03*
X31275Y34100D03*
X36220Y34220D03*
X36700Y30100D03*
X33500Y29500D03*
X27600Y29800D03*
X30000D03*
X37000Y27400D03*
X36200D03*
X37000Y28000D03*
X36200D03*
X26600D03*
X18300Y34600D03*
X18200Y33000D03*
X21712Y32898D03*
X26100Y33000D03*
X38738Y14838D03*
X20931Y29834D03*
X19525Y27960D03*
X31240Y29678D03*
X22000Y22625D03*
X39500Y21994D03*
X37000Y20506D03*
X34500D03*
X32000D03*
X29500D03*
X27000Y21994D03*
X24500D03*
X38000Y37957D03*
X35500D03*
X33000D03*
X30500D03*
X27023Y35457D03*
X24992Y35145D03*
X23250Y32826D03*
X18744Y28428D03*
X16000Y17700D03*
X16245Y30459D03*
X19681Y27179D03*
X17338Y30303D03*
X21300Y24700D03*
X21900Y15500D03*
X22400D03*
X21900Y15000D03*
X22400D03*
X23500Y15500D03*
Y15000D03*
X28741Y36395D03*
X31084Y32490D03*
X26242Y31865D03*
X33739Y36395D03*
X31240Y36238D03*
X26242Y36395D03*
X28741Y31709D03*
X33739D03*
X23300Y34500D03*
X20900Y33000D03*
X20600Y34500D03*
Y35000D03*
X19100Y33000D03*
X20100Y34500D03*
X19600D03*
X19100D03*
X20100Y35000D03*
X19600D03*
X19100D03*
X16600Y25000D03*
X16000D03*
X17200D03*
X16000Y24500D03*
X16600D03*
X17200D03*
X16000Y23000D03*
X17200D03*
X16400Y15100D03*
X39500Y26994D03*
X36247Y26250D03*
X33748D03*
X31248D03*
X27000Y26994D03*
X24500D03*
X22000D03*
X28585Y25304D03*
X27179Y34520D03*
X21087Y12808D03*
X25148Y12965D03*
X27000Y12999D03*
X29500D03*
X32000D03*
X34500D03*
X37000D03*
X39500D03*
X28000Y15400D03*
X29500Y15499D03*
X32000D03*
X34500D03*
X37000D03*
X39500D03*
X21248Y16250D03*
X26398Y15308D03*
X22649Y19681D03*
X26242Y19994D03*
X39362Y18119D03*
X37000Y17999D03*
X34500D03*
X32000D03*
X29500D03*
X16557Y27804D03*
X17700Y20100D03*
X37176Y17182D03*
X35500Y19600D03*
X20150Y24836D03*
Y25461D03*
X18888Y27179D03*
X18432Y27647D03*
X17651Y27491D03*
X17200Y27786D03*
X16870Y20462D03*
X20100Y19600D03*
X19500Y20487D03*
X15308Y22337D03*
X20150Y22961D03*
X20775Y27335D03*
X20150Y27960D03*
X17494Y29522D03*
X18275Y30459D03*
X16000Y32000D03*
X16600Y34800D03*
X18432Y32333D03*
X18290Y35450D03*
X17000Y36994D03*
X18275Y37488D03*
X22649Y17963D03*
X21399Y37957D03*
X24055Y37800D03*
X37000Y37976D03*
X34500D03*
X32000D03*
X26554Y37957D03*
X29053D03*
X20494Y20431D03*
X21712Y19837D03*
X26177Y17250D03*
X26720Y17750D03*
X24700Y20286D03*
X24200Y19770D03*
X23700Y20107D03*
X23200Y19770D03*
Y12822D03*
X39500Y36994D03*
X37000D03*
X34500D03*
X32000D03*
X29053Y37332D03*
X27000Y37622D03*
X24680Y37644D03*
X22180D03*
X25055Y30084D03*
X19500Y12999D03*
X17000D03*
X19500Y15489D03*
X17000Y15490D03*
Y17999D03*
X19525Y39675D03*
X18744D03*
X17963D03*
X22768Y39504D03*
X17000Y39494D03*
X39500D03*
G54D16*
X9979Y15464D03*
Y14964D03*
Y14464D03*
X8279D03*
Y14964D03*
Y15464D03*
X12946D03*
Y14964D03*
Y14464D03*
X11246D03*
Y14964D03*
Y15464D03*
X12946Y20462D03*
Y19962D03*
Y19462D03*
X11246D03*
Y19962D03*
Y20462D03*
X9979D03*
Y19962D03*
Y19462D03*
X8279D03*
Y19962D03*
Y20462D03*
X7167D03*
Y19962D03*
Y19462D03*
X5467D03*
Y19962D03*
Y20462D03*
X4355D03*
Y19962D03*
Y19462D03*
X2655D03*
Y19962D03*
Y20462D03*
X4355Y15464D03*
Y14964D03*
Y14464D03*
X2655D03*
Y14964D03*
Y15464D03*
X7167D03*
Y14964D03*
Y14464D03*
X5467D03*
Y14964D03*
Y15464D03*
X9979Y31084D03*
Y30584D03*
Y30084D03*
X8279D03*
Y30584D03*
Y31084D03*
X13103D03*
Y30584D03*
Y30084D03*
X11403D03*
Y30584D03*
Y31084D03*
X13103Y35614D03*
Y35114D03*
Y34614D03*
X11403D03*
Y35114D03*
Y35614D03*
X10135D03*
Y35114D03*
Y34614D03*
X8435D03*
Y35114D03*
Y35614D03*
X7167D03*
Y35114D03*
Y34614D03*
X5467D03*
Y35114D03*
Y35614D03*
X4199D03*
Y35114D03*
Y34614D03*
X2499D03*
Y35114D03*
Y35614D03*
X4199Y31084D03*
Y30584D03*
Y30084D03*
X2499D03*
Y30584D03*
Y31084D03*
X7167D03*
Y30584D03*
Y30084D03*
X5467D03*
Y30584D03*
Y31084D03*
X30597Y2968D03*
Y2468D03*
Y1968D03*
X28897D03*
Y2468D03*
Y2968D03*
X27629D03*
Y2468D03*
Y1968D03*
X25929D03*
Y2468D03*
Y2968D03*
X27600Y6500D03*
Y6000D03*
Y5500D03*
X25900D03*
Y6000D03*
Y6500D03*
X30600D03*
Y6000D03*
Y5500D03*
X28900D03*
Y6000D03*
Y6500D03*
X33400D03*
Y6000D03*
Y5500D03*
X31700D03*
Y6000D03*
Y6500D03*
X36100D03*
Y6000D03*
Y5500D03*
X34400D03*
Y6000D03*
Y6500D03*
X36064Y2968D03*
Y2468D03*
Y1968D03*
X34364D03*
Y2468D03*
Y2968D03*
X33409D03*
Y2468D03*
Y1968D03*
X31709D03*
Y2468D03*
Y2968D03*
X30597Y31084D03*
Y30584D03*
Y30084D03*
X28897D03*
Y30584D03*
Y31084D03*
X27785D03*
Y30584D03*
Y30084D03*
X26085D03*
Y30584D03*
Y31084D03*
X36220Y35614D03*
Y35114D03*
Y34614D03*
X34520D03*
Y35114D03*
Y35614D03*
X33409D03*
Y35114D03*
Y34614D03*
X31709D03*
Y35114D03*
Y35614D03*
X30597D03*
Y35114D03*
Y34614D03*
X28897D03*
Y35114D03*
Y35614D03*
X27785D03*
Y35114D03*
Y34614D03*
X26085D03*
Y35114D03*
Y35614D03*
X36220Y31084D03*
Y30584D03*
Y30084D03*
X34520D03*
Y30584D03*
Y31084D03*
X33409D03*
Y30584D03*
Y30084D03*
X31709D03*
Y30584D03*
Y31084D03*
G54D17*
X14500Y22250D03*
Y22750D03*
Y23250D03*
Y23750D03*
Y24250D03*
Y24750D03*
Y25250D03*
Y25750D03*
X22400Y7750D03*
Y7250D03*
Y6750D03*
Y6250D03*
Y5750D03*
Y5250D03*
Y4750D03*
Y4250D03*
X17500D03*
Y4750D03*
Y5250D03*
Y5750D03*
Y6250D03*
Y6750D03*
Y7250D03*
Y7750D03*
X25400Y17750D03*
Y17250D03*
Y16750D03*
Y16250D03*
Y15750D03*
Y15250D03*
Y14750D03*
Y14250D03*
X20500D03*
Y14750D03*
Y15250D03*
Y15750D03*
Y16250D03*
Y16750D03*
Y17250D03*
Y17750D03*
X22400Y35750D03*
Y35250D03*
Y34750D03*
Y34250D03*
Y33750D03*
Y33250D03*
Y32750D03*
Y32250D03*
X17500D03*
Y32750D03*
Y33250D03*
Y33750D03*
Y34250D03*
Y34750D03*
Y35250D03*
Y35750D03*
X19400Y25750D03*
Y25250D03*
Y24750D03*
Y24250D03*
Y23750D03*
Y23250D03*
Y22750D03*
Y22250D03*
G54D18*
X20000Y6000D03*
X23000Y16000D03*
X20000Y34000D03*
X17000Y24000D03*
G54D19*
X18200Y8450D03*
X18700D03*
X19200D03*
X19700D03*
X20200D03*
X20700D03*
X21200D03*
X21700D03*
Y3550D03*
X21200D03*
X20700D03*
X20200D03*
X19700D03*
X19200D03*
X18700D03*
X18200D03*
X21200Y18450D03*
X21700D03*
X22200D03*
X22700D03*
X23200D03*
X23700D03*
X24200D03*
X24700D03*
Y13550D03*
X24200D03*
X23700D03*
X23200D03*
X22700D03*
X22200D03*
X21700D03*
X21200D03*
X18200Y36450D03*
X18700D03*
X19200D03*
X19700D03*
X20200D03*
X20700D03*
X21200D03*
X21700D03*
Y31550D03*
X21200D03*
X20700D03*
X20200D03*
X19700D03*
X19200D03*
X18700D03*
X18200D03*
X15200Y26450D03*
X15700D03*
X16200D03*
X16700D03*
X17200D03*
X17700D03*
X18200D03*
X18700D03*
Y21550D03*
X18200D03*
X17700D03*
X17200D03*
X16700D03*
X16200D03*
X15700D03*
X15200D03*
M02*
