G04 #@! TF.GenerationSoftware,KiCad,Pcbnew,7.0.2-6a45011f42~172~ubuntu22.04.1*
G04 #@! TF.CreationDate,2023-07-30T19:01:30-07:00*
G04 #@! TF.ProjectId,driver_40mm_atmega_v0p5,64726976-6572-45f3-9430-6d6d5f61746d,rev?*
G04 #@! TF.SameCoordinates,Original*
G04 #@! TF.FileFunction,Copper,L4,Inr*
G04 #@! TF.FilePolarity,Positive*
%FSLAX46Y46*%
G04 Gerber Fmt 4.6, Leading zero omitted, Abs format (unit mm)*
G04 Created by KiCad (PCBNEW 7.0.2-6a45011f42~172~ubuntu22.04.1) date 2023-07-30 19:01:30*
%MOMM*%
%LPD*%
G01*
G04 APERTURE LIST*
G04 #@! TA.AperFunction,ViaPad*
%ADD10C,0.600000*%
G04 #@! TD*
G04 #@! TA.AperFunction,Conductor*
%ADD11C,0.150000*%
G04 #@! TD*
G04 APERTURE END LIST*
D10*
X86940000Y-87270000D03*
X80950000Y-52780000D03*
X59220000Y-54670000D03*
X53100000Y-83070000D03*
X53010000Y-67310000D03*
X59387184Y-56962400D03*
X55030000Y-61170000D03*
X80000000Y-73850000D03*
X52910000Y-52800000D03*
X80280000Y-70770000D03*
X59080000Y-84610000D03*
X86950000Y-59760000D03*
X86880000Y-84600000D03*
X66448400Y-85123000D03*
X53020000Y-70800000D03*
X60390000Y-75290000D03*
X80630000Y-85710000D03*
X65418900Y-55981100D03*
X53080000Y-55470000D03*
X58990000Y-72320000D03*
X86810000Y-57020000D03*
X65770000Y-75120000D03*
X74670000Y-83930000D03*
X80820000Y-82910000D03*
X69980000Y-61310000D03*
X87867000Y-75138200D03*
X73750000Y-55000000D03*
X74430000Y-64880000D03*
X79680000Y-67180000D03*
X80580000Y-58220000D03*
X80890000Y-55480000D03*
X73510000Y-72760000D03*
X53030000Y-85750000D03*
X69960000Y-79020000D03*
X87020000Y-72320000D03*
X86940000Y-54340000D03*
X52460000Y-73850000D03*
X87520000Y-68730000D03*
X66670000Y-67020000D03*
X53060000Y-58220000D03*
X59000000Y-59740000D03*
X59430000Y-69310000D03*
X59010000Y-87330000D03*
X51457700Y-59596900D03*
X68583600Y-60045600D03*
X52398900Y-89088900D03*
X71910600Y-79704000D03*
X70204000Y-89419100D03*
X66659100Y-77594000D03*
X67407200Y-58905000D03*
X52116500Y-54617500D03*
X71007700Y-79899600D03*
X52440000Y-88070000D03*
X74526400Y-86870000D03*
X67601600Y-78037200D03*
X72396800Y-80897500D03*
X59966900Y-88827600D03*
X67660200Y-77207300D03*
X75001500Y-87956100D03*
X73041500Y-80347900D03*
X60694600Y-85672800D03*
X62929000Y-75633200D03*
X65079500Y-87738200D03*
X77469000Y-88783000D03*
X62065700Y-89016400D03*
X73304600Y-82635200D03*
X80425200Y-88473100D03*
X65300000Y-77160500D03*
X72050000Y-87390000D03*
X61610000Y-87380000D03*
X75174900Y-61891300D03*
X72409000Y-68321500D03*
X68106900Y-70830400D03*
X82390000Y-89229500D03*
X68059500Y-69900987D03*
X85989900Y-87948800D03*
X74656600Y-69299200D03*
X88521000Y-62395500D03*
X87985200Y-88448900D03*
X69130000Y-69590000D03*
X61219600Y-59962600D03*
X69912500Y-50891200D03*
X59720000Y-79180000D03*
X68945500Y-87555500D03*
X66780000Y-69529500D03*
X80092893Y-68300000D03*
X70720000Y-70640000D03*
X86810000Y-77270000D03*
X65147900Y-74570100D03*
X74599900Y-71825800D03*
X72333400Y-53750000D03*
X67677400Y-68703400D03*
X71240000Y-52704600D03*
X75370300Y-70125900D03*
X67092400Y-87344551D03*
X79770600Y-76895200D03*
X69730000Y-77581600D03*
X73540000Y-57470000D03*
X60020000Y-52950000D03*
X61007900Y-72416500D03*
X65083900Y-81504400D03*
X66689000Y-64744700D03*
X88286600Y-54907200D03*
X52488200Y-52108200D03*
X55618000Y-70483500D03*
X86526400Y-52178100D03*
X86515600Y-70100100D03*
X72428800Y-58473000D03*
X52540000Y-53593400D03*
X51949900Y-77109000D03*
X67365100Y-80601500D03*
X67552500Y-63593400D03*
X78828500Y-57228500D03*
X52936800Y-54657000D03*
X63951000Y-74636800D03*
X53175100Y-73282300D03*
X67237500Y-71885700D03*
X58225900Y-73139700D03*
X83138900Y-54865000D03*
X78915400Y-54887100D03*
X75988800Y-74899700D03*
X78718900Y-74837900D03*
X80389500Y-74610500D03*
X87640000Y-73430000D03*
X82639200Y-73252800D03*
X72455800Y-59549700D03*
X60150000Y-57320300D03*
X64761000Y-80149700D03*
X59811900Y-74428300D03*
X87413500Y-55988500D03*
X67599275Y-62655675D03*
X86802500Y-74769100D03*
X74614500Y-76651300D03*
X60180000Y-55250000D03*
X62153100Y-77030900D03*
X59573200Y-76794600D03*
X65219800Y-76139300D03*
X88363100Y-57439100D03*
X74873500Y-75508500D03*
X83692400Y-77473800D03*
X77822300Y-77801000D03*
X87731600Y-76189500D03*
X52496300Y-57300000D03*
X72103011Y-60399589D03*
X63760000Y-79990000D03*
X53089600Y-74866800D03*
X80281900Y-56074600D03*
X77762300Y-66078500D03*
X63471300Y-67402900D03*
X62769500Y-58404500D03*
X52404000Y-59062600D03*
X55238100Y-57526500D03*
X56303100Y-77619400D03*
X61601900Y-79457100D03*
X80960200Y-57443600D03*
X84263000Y-57353200D03*
X77890000Y-79610000D03*
X83291800Y-78280400D03*
X85292000Y-79500000D03*
X75932700Y-77972500D03*
X70828400Y-60420700D03*
X62247900Y-60265900D03*
X62170000Y-82617600D03*
X58865100Y-82589800D03*
X87328000Y-60488100D03*
X63743900Y-65188800D03*
X60118700Y-59537200D03*
X60058500Y-58124400D03*
X59935000Y-82087700D03*
X63628300Y-82404900D03*
X52744000Y-81979900D03*
X56128000Y-82437200D03*
X85437000Y-60962000D03*
X80360000Y-61055700D03*
X87042000Y-81836300D03*
X77697000Y-81903600D03*
X79850300Y-84136000D03*
X70242900Y-59872200D03*
X52350000Y-60150000D03*
X69593700Y-80338800D03*
X54960000Y-81829502D03*
X69657800Y-62615200D03*
X80485200Y-59715600D03*
X70700000Y-77820000D03*
X83435400Y-82401500D03*
X55772900Y-63291800D03*
X61666500Y-62078900D03*
X62878300Y-63564100D03*
X60559000Y-84772100D03*
X63941300Y-84620200D03*
X52860000Y-84935400D03*
X79895400Y-65836700D03*
X82716700Y-63402500D03*
X78069700Y-82903900D03*
X84488100Y-82555200D03*
X58842800Y-67580300D03*
X69688000Y-52857000D03*
X67344361Y-88197987D03*
X70422500Y-87852192D03*
X86898800Y-67092400D03*
X76297700Y-69760500D03*
X88080500Y-84970000D03*
X69719600Y-70361100D03*
X59887600Y-66687400D03*
X52837000Y-66006300D03*
X62925700Y-66017500D03*
X57710300Y-66184100D03*
X52310000Y-86270000D03*
X64758900Y-84260900D03*
X56706400Y-85003800D03*
X80883500Y-67690100D03*
X85364200Y-66035000D03*
X75713100Y-65623800D03*
X77889800Y-87110200D03*
X84968100Y-85212500D03*
X72594300Y-86343100D03*
X79910100Y-86873300D03*
X54649600Y-66427300D03*
X69770900Y-51896400D03*
X52335901Y-87074099D03*
X58290000Y-87970000D03*
X69707346Y-87285154D03*
X80173400Y-69471600D03*
X70080000Y-69556700D03*
X73071800Y-70099400D03*
X76295400Y-87647900D03*
X54828400Y-69318400D03*
X54792200Y-88850000D03*
X85249400Y-69458000D03*
X85090800Y-88261700D03*
X72417500Y-71876400D03*
X64910000Y-82504000D03*
X70793100Y-62415900D03*
X62610700Y-67959200D03*
X66020000Y-55412000D03*
X84560000Y-55080000D03*
X65757803Y-65257505D03*
X55352000Y-84990000D03*
X65760000Y-83070000D03*
X56820000Y-66850000D03*
X55340000Y-75860000D03*
X55370000Y-60100000D03*
X62160000Y-72700000D03*
X74441100Y-56760000D03*
X74370000Y-74530000D03*
X56014800Y-52798600D03*
X78046800Y-85203200D03*
X55360000Y-72760000D03*
X84560000Y-52460000D03*
X83130000Y-87680000D03*
X82200000Y-81840000D03*
X65360000Y-73439500D03*
X74220000Y-84700500D03*
X77830700Y-67201711D03*
X83130000Y-60160000D03*
X83710000Y-72600000D03*
X84560000Y-66820000D03*
X55360000Y-87750000D03*
X83070000Y-85060000D03*
X56030000Y-55360000D03*
X74620000Y-66620000D03*
X62060000Y-54680000D03*
X83000000Y-75790000D03*
X50730950Y-50710950D03*
X53020000Y-50710000D03*
X54903500Y-52294900D03*
X53245100Y-63291800D03*
X53090800Y-60853200D03*
X56592900Y-57381300D03*
X57403200Y-60907100D03*
X57095500Y-51470500D03*
X59496600Y-51574600D03*
X59896300Y-61129200D03*
X58632118Y-57586025D03*
X62583500Y-62078900D03*
X60978100Y-57899500D03*
X62525806Y-50882443D03*
X64744900Y-63000400D03*
X64568800Y-67453300D03*
X62795100Y-52025900D03*
X64696800Y-57942900D03*
X64244300Y-61725000D03*
X65519700Y-62225600D03*
X66893600Y-51796100D03*
X65780100Y-58139900D03*
X65663500Y-67459100D03*
X65116700Y-66018400D03*
X66631200Y-59543700D03*
X68094700Y-50845200D03*
X50791600Y-88206300D03*
X53103900Y-87505000D03*
X54092900Y-82413400D03*
X52640000Y-76040000D03*
X57400400Y-88218100D03*
X57392700Y-76041600D03*
X59896500Y-73375000D03*
X59893200Y-83407100D03*
X59784700Y-87570800D03*
X59934900Y-76045800D03*
X60940000Y-88030000D03*
X63313300Y-87489000D03*
X62456200Y-78819900D03*
X66330000Y-80028800D03*
X65430000Y-78160000D03*
X65995100Y-87714600D03*
X66527600Y-82220200D03*
X68120746Y-87844051D03*
X70810700Y-50609600D03*
X73298300Y-62487800D03*
X74041000Y-52602000D03*
X74950000Y-50850000D03*
X74324600Y-62428000D03*
X74584900Y-59628400D03*
X75560700Y-55061200D03*
X74894900Y-65801300D03*
X75440800Y-58490900D03*
X76670400Y-52595200D03*
X77445500Y-64812700D03*
X77440000Y-50900000D03*
X77594600Y-60798500D03*
X79092900Y-59624400D03*
X78045900Y-63262200D03*
X80006800Y-50726800D03*
X77831300Y-68230300D03*
X79092900Y-52590300D03*
X82144300Y-51458500D03*
X82399600Y-61132600D03*
X84860000Y-51179500D03*
X83454600Y-57816400D03*
X87402300Y-53309300D03*
X87398300Y-63407100D03*
X85692004Y-50597997D03*
X87394500Y-58407100D03*
X87700000Y-67620000D03*
X88170000Y-50770000D03*
X72525900Y-88304700D03*
X73358300Y-78067300D03*
X74650100Y-82897000D03*
X74895200Y-73384400D03*
X72550100Y-76910600D03*
X73641000Y-87785200D03*
X77690200Y-86207300D03*
X77361800Y-81028200D03*
X75540300Y-83404100D03*
X75916300Y-82568400D03*
X79685400Y-87972900D03*
X81271800Y-85152300D03*
X81046000Y-87890800D03*
X84399000Y-87676200D03*
X88254000Y-80110700D03*
X87397000Y-85907100D03*
X87251700Y-88029000D03*
X88783800Y-87630600D03*
X64989000Y-64204700D03*
X84906400Y-63441600D03*
D11*
X59716300Y-66184100D02*
X59887600Y-66355400D01*
X59887600Y-66355400D02*
X59887600Y-66687400D01*
X52398900Y-89088900D02*
X52720000Y-89410000D01*
X73552200Y-80148900D02*
X73107300Y-79704000D01*
X52720000Y-89410000D02*
X60685100Y-89410000D01*
X60685100Y-89410000D02*
X63990900Y-86104200D01*
X63990900Y-86104200D02*
X68004600Y-86104200D01*
X68004600Y-86104200D02*
X73552200Y-80556600D01*
X73552200Y-80556600D02*
X73552200Y-80148900D01*
X73107300Y-79704000D02*
X71910600Y-79704000D01*
X62779100Y-85829100D02*
X67465200Y-85829100D01*
X59966900Y-88827600D02*
X59966900Y-88295993D01*
X59966900Y-88295993D02*
X62433893Y-85829000D01*
X62433893Y-85829000D02*
X62779000Y-85829000D01*
X62779000Y-85829000D02*
X62779100Y-85829100D01*
X67465200Y-85829100D02*
X72396800Y-80897500D01*
X60866400Y-82892800D02*
X61572500Y-83598900D01*
X59364600Y-82892800D02*
X60866400Y-82892800D01*
X59075100Y-83182300D02*
X59364600Y-82892800D01*
X55399200Y-83898400D02*
X56115300Y-83182300D01*
X56115300Y-83182300D02*
X59075100Y-83182300D01*
X52321600Y-83898400D02*
X55399200Y-83898400D01*
X61572500Y-83598900D02*
X67308400Y-83598900D01*
X51682300Y-84537700D02*
X52321600Y-83898400D01*
X67308400Y-83598900D02*
X71007700Y-79899600D01*
X51682300Y-87312300D02*
X51682300Y-84537700D01*
X52440000Y-88070000D02*
X51682300Y-87312300D01*
X59617400Y-59827700D02*
X60108700Y-60319000D01*
X60108700Y-60319000D02*
X60868800Y-60319000D01*
X59207200Y-59239900D02*
X59617400Y-59650100D01*
X68035100Y-60594100D02*
X68583600Y-60045600D01*
X62743800Y-60594100D02*
X68035100Y-60594100D01*
X52968600Y-59596900D02*
X53325600Y-59239900D01*
X59617400Y-59650100D02*
X59617400Y-59827700D01*
X62571900Y-60766000D02*
X62743800Y-60594100D01*
X61315800Y-60766000D02*
X62571900Y-60766000D01*
X51457700Y-59596900D02*
X52968600Y-59596900D01*
X60868800Y-60319000D02*
X61315800Y-60766000D01*
X53325600Y-59239900D02*
X59207200Y-59239900D01*
X64580000Y-87430000D02*
X64580000Y-88210000D01*
X72970400Y-79177200D02*
X73874800Y-80081600D01*
X65789100Y-89419100D02*
X70204000Y-89419100D01*
X65187900Y-86822100D02*
X64580000Y-87430000D01*
X68078000Y-86822100D02*
X65187900Y-86822100D01*
X73422700Y-83283400D02*
X71616700Y-83283400D01*
X73874800Y-80081600D02*
X73874800Y-82831300D01*
X66659100Y-77594000D02*
X66659100Y-77811300D01*
X73874800Y-82831300D02*
X73422700Y-83283400D01*
X70478500Y-79549200D02*
X70850500Y-79177200D01*
X70850500Y-79177200D02*
X72970400Y-79177200D01*
X66659100Y-77811300D02*
X68397000Y-79549200D01*
X71616700Y-83283400D02*
X68078000Y-86822100D01*
X68397000Y-79549200D02*
X70478500Y-79549200D01*
X64580000Y-88210000D02*
X65789100Y-89419100D01*
X52116500Y-55235400D02*
X55786100Y-58905000D01*
X55786100Y-58905000D02*
X67407200Y-58905000D01*
X52116500Y-54617500D02*
X52116500Y-55235400D01*
X60813400Y-85554000D02*
X60694600Y-85672800D01*
X64174100Y-85554000D02*
X60813400Y-85554000D01*
X73041500Y-80347900D02*
X71594300Y-80347900D01*
X67990000Y-83952200D02*
X65775900Y-83952200D01*
X65775900Y-83952200D02*
X64174100Y-85554000D01*
X71594300Y-80347900D02*
X67990000Y-83952200D01*
X66485400Y-89144100D02*
X69771893Y-89144100D01*
X69771893Y-89144100D02*
X69996893Y-88919100D01*
X65079500Y-87738200D02*
X66485400Y-89144100D01*
X77332900Y-88919100D02*
X77469000Y-88783000D01*
X69996893Y-88919100D02*
X77332900Y-88919100D01*
X62498600Y-89016400D02*
X62065700Y-89016400D01*
X73304600Y-82635200D02*
X71875700Y-82635200D01*
X64968200Y-86546800D02*
X62498600Y-89016400D01*
X71875700Y-82635200D02*
X67964100Y-86546800D01*
X67964100Y-86546800D02*
X64968200Y-86546800D01*
X74656600Y-69299200D02*
X74984400Y-68971400D01*
X79268100Y-69040200D02*
X79336900Y-68971400D01*
X79336900Y-68971400D02*
X83145100Y-68971400D01*
X77217200Y-69040200D02*
X79268100Y-69040200D01*
X74984400Y-68971400D02*
X77148400Y-68971400D01*
X83145100Y-68971400D02*
X88521000Y-63595500D01*
X88521000Y-63595500D02*
X88521000Y-62395500D01*
X77148400Y-68971400D02*
X77217200Y-69040200D01*
X77468600Y-68765100D02*
X79154291Y-68765100D01*
X66780000Y-69529500D02*
X66959500Y-69350000D01*
X79154291Y-68765100D02*
X79619391Y-68300000D01*
X66959500Y-69350000D02*
X67939200Y-69350000D01*
X67939200Y-69350000D02*
X68232000Y-69057200D01*
X73767300Y-69057200D02*
X74128300Y-68696200D01*
X79619391Y-68300000D02*
X80092893Y-68300000D01*
X68232000Y-69057200D02*
X73767300Y-69057200D01*
X77399700Y-68696200D02*
X77468600Y-68765100D01*
X74128300Y-68696200D02*
X77399700Y-68696200D01*
X65147900Y-74570100D02*
X70955700Y-74570100D01*
X70955700Y-74570100D02*
X73700000Y-71825800D01*
X73700000Y-71825800D02*
X74599900Y-71825800D01*
X67092400Y-87344551D02*
X67944649Y-87344551D01*
X73042300Y-73562100D02*
X73601100Y-73562100D01*
X74149900Y-79967600D02*
X72662300Y-78480000D01*
X73601100Y-73562100D02*
X75370300Y-71792900D01*
X69229800Y-77374600D02*
X73042300Y-73562100D01*
X69229800Y-77811000D02*
X69229800Y-77374600D01*
X74149900Y-82945300D02*
X74149900Y-79967600D01*
X71730700Y-83558500D02*
X73536700Y-83558500D01*
X67944649Y-87344551D02*
X71730700Y-83558500D01*
X72662300Y-78480000D02*
X69898800Y-78480000D01*
X69898800Y-78480000D02*
X69229800Y-77811000D01*
X75370300Y-71792900D02*
X75370300Y-70125900D01*
X73536700Y-83558500D02*
X74149900Y-82945300D01*
X72998000Y-77170000D02*
X72757300Y-77410700D01*
X70675500Y-77081500D02*
X70230100Y-77081500D01*
X70230100Y-77081500D02*
X69730000Y-77581600D01*
X71004700Y-77410700D02*
X70675500Y-77081500D01*
X79770600Y-76895200D02*
X79495800Y-77170000D01*
X72757300Y-77410700D02*
X71004700Y-77410700D01*
X79495800Y-77170000D02*
X72998000Y-77170000D01*
X67830000Y-52950000D02*
X60020000Y-52950000D01*
X72350000Y-57470000D02*
X67830000Y-52950000D01*
X73540000Y-57470000D02*
X72350000Y-57470000D01*
X80784200Y-63762400D02*
X68988800Y-63762400D01*
X88286600Y-54907200D02*
X88286600Y-56260000D01*
X88286600Y-56260000D02*
X80784200Y-63762400D01*
X68988800Y-63762400D02*
X68006500Y-64744700D01*
X68006500Y-64744700D02*
X66689000Y-64744700D01*
X52563400Y-53570000D02*
X67525800Y-53570000D01*
X52540000Y-53593400D02*
X52563400Y-53570000D01*
X67525800Y-53570000D02*
X72428800Y-58473000D01*
X51949900Y-77109000D02*
X55506200Y-80665300D01*
X67301300Y-80665300D02*
X67365100Y-80601500D01*
X55506200Y-80665300D02*
X67301300Y-80665300D01*
X74141200Y-61915800D02*
X78828500Y-57228500D01*
X67552500Y-63593400D02*
X69230100Y-61915800D01*
X69230100Y-61915800D02*
X74141200Y-61915800D01*
X63951000Y-73513000D02*
X63951000Y-74636800D01*
X60741800Y-73513000D02*
X60103700Y-72874900D01*
X58490700Y-72874900D02*
X58225900Y-73139700D01*
X63951000Y-73513000D02*
X60741800Y-73513000D01*
X63951000Y-73513000D02*
X65578300Y-71885700D01*
X60103700Y-72874900D02*
X58490700Y-72874900D01*
X65578300Y-71885700D02*
X67237500Y-71885700D01*
X78937500Y-54865000D02*
X78915400Y-54887100D01*
X83138900Y-54865000D02*
X78937500Y-54865000D01*
X82639200Y-73252800D02*
X82646400Y-73260000D01*
X80389500Y-74610500D02*
X80162100Y-74837900D01*
X87470000Y-73260000D02*
X87640000Y-73430000D01*
X76050600Y-74837900D02*
X75988800Y-74899700D01*
X82646400Y-73260000D02*
X87470000Y-73260000D01*
X82639200Y-73252800D02*
X81281500Y-74610500D01*
X78718900Y-74837900D02*
X76050600Y-74837900D01*
X81281500Y-74610500D02*
X80389500Y-74610500D01*
X80162100Y-74837900D02*
X78718900Y-74837900D01*
X70226400Y-57320300D02*
X60150000Y-57320300D01*
X72455800Y-59549700D02*
X70226400Y-57320300D01*
X82954500Y-57609300D02*
X84575300Y-55988500D01*
X68874800Y-63487300D02*
X77110100Y-63487300D01*
X82954500Y-57953600D02*
X82954500Y-57609300D01*
X77110100Y-63487300D02*
X80097400Y-60500000D01*
X80097400Y-60500000D02*
X80408100Y-60500000D01*
X84575300Y-55988500D02*
X87413500Y-55988500D01*
X67018300Y-63236650D02*
X67018300Y-63784200D01*
X67599275Y-62655675D02*
X67018300Y-63236650D01*
X80408100Y-60500000D02*
X82954500Y-57953600D01*
X67018300Y-63784200D02*
X67333900Y-64099800D01*
X67333900Y-64099800D02*
X68262300Y-64099800D01*
X68262300Y-64099800D02*
X68874800Y-63487300D01*
X86802500Y-74769100D02*
X85176500Y-76395100D01*
X85176500Y-76395100D02*
X74870700Y-76395100D01*
X74870700Y-76395100D02*
X74614500Y-76651300D01*
X62153100Y-77030900D02*
X62153100Y-76794600D01*
X59573200Y-76794600D02*
X62153100Y-76794600D01*
X63279107Y-76139300D02*
X63273007Y-76133200D01*
X65219800Y-76139300D02*
X63279107Y-76139300D01*
X63273007Y-76133200D02*
X62814500Y-76133200D01*
X62814500Y-76133200D02*
X62153100Y-76794600D01*
X87731600Y-76189500D02*
X87046800Y-76189500D01*
X85762500Y-77473800D02*
X83692400Y-77473800D01*
X87046800Y-76189500D02*
X85762500Y-77473800D01*
X77822300Y-77801000D02*
X78149500Y-77473800D01*
X78149500Y-77473800D02*
X83692400Y-77473800D01*
X61189300Y-61712700D02*
X52820900Y-61712700D01*
X72103011Y-60399589D02*
X71581800Y-60920800D01*
X62799900Y-61316200D02*
X61585800Y-61316200D01*
X50957500Y-58838800D02*
X52496300Y-57300000D01*
X69277500Y-61144300D02*
X62971800Y-61144300D01*
X52820900Y-61712700D02*
X50957500Y-59849300D01*
X70484000Y-60783500D02*
X69638300Y-60783500D01*
X71581800Y-60920800D02*
X70621300Y-60920800D01*
X62971800Y-61144300D02*
X62799900Y-61316200D01*
X50957500Y-59849300D02*
X50957500Y-58838800D01*
X69638300Y-60783500D02*
X69277500Y-61144300D01*
X61585800Y-61316200D02*
X61189300Y-61712700D01*
X70621300Y-60920800D02*
X70484000Y-60783500D01*
X63760000Y-79416400D02*
X61638300Y-77294700D01*
X61638300Y-77294700D02*
X56796500Y-77294700D01*
X56796500Y-77294700D02*
X55981100Y-76479300D01*
X55981100Y-76479300D02*
X54702100Y-76479300D01*
X54702100Y-76479300D02*
X53089600Y-74866800D01*
X63760000Y-79990000D02*
X63760000Y-79416400D01*
X75302100Y-67133200D02*
X72681400Y-67133200D01*
X72032900Y-66484700D02*
X66445000Y-66484700D01*
X66445000Y-66484700D02*
X65976600Y-66953100D01*
X77762300Y-66078500D02*
X76356800Y-66078500D01*
X65976600Y-66953100D02*
X63921100Y-66953100D01*
X63921100Y-66953100D02*
X63471300Y-67402900D01*
X72681400Y-67133200D02*
X72032900Y-66484700D01*
X76356800Y-66078500D02*
X75302100Y-67133200D01*
X62769500Y-58404500D02*
X62544400Y-58629600D01*
X62544400Y-58629600D02*
X56341200Y-58629600D01*
X56341200Y-58629600D02*
X55238100Y-57526500D01*
X56303100Y-77619400D02*
X59764200Y-77619400D01*
X59764200Y-77619400D02*
X61601900Y-79457100D01*
X85292000Y-79500000D02*
X84072400Y-78280400D01*
X77890000Y-78301200D02*
X76261400Y-78301200D01*
X83291800Y-78280400D02*
X83271000Y-78301200D01*
X83271000Y-78301200D02*
X77890000Y-78301200D01*
X84072400Y-78280400D02*
X83291800Y-78280400D01*
X76261400Y-78301200D02*
X75932700Y-77972500D01*
X77890000Y-78301200D02*
X77890000Y-79610000D01*
X70828400Y-59732600D02*
X70467900Y-59372100D01*
X68060100Y-59372100D02*
X67166300Y-60265900D01*
X70467900Y-59372100D02*
X68060100Y-59372100D01*
X67166300Y-60265900D02*
X62247900Y-60265900D01*
X70828400Y-60420700D02*
X70828400Y-59732600D01*
X58865100Y-82589800D02*
X58892900Y-82617600D01*
X58892900Y-82617600D02*
X62170000Y-82617600D01*
X87328000Y-61795400D02*
X87328000Y-60488100D01*
X66193300Y-66209600D02*
X72308000Y-66209600D01*
X74205000Y-64312600D02*
X84810800Y-64312600D01*
X64909600Y-66518500D02*
X65884400Y-66518500D01*
X65884400Y-66518500D02*
X66193300Y-66209600D01*
X84810800Y-64312600D02*
X87328000Y-61795400D01*
X63743900Y-65188800D02*
X63743900Y-65352800D01*
X72308000Y-66209600D02*
X74205000Y-64312600D01*
X63743900Y-65352800D02*
X64909600Y-66518500D01*
X52599800Y-82124100D02*
X52744000Y-81979900D01*
X52599800Y-83299400D02*
X52599800Y-82124100D01*
X56477500Y-82087700D02*
X56128000Y-82437200D01*
X56128000Y-82722300D02*
X55280100Y-83570200D01*
X52870600Y-83570200D02*
X52599800Y-83299400D01*
X59935000Y-82087700D02*
X56477500Y-82087700D01*
X55280100Y-83570200D02*
X52870600Y-83570200D01*
X63628300Y-82404900D02*
X63311100Y-82087700D01*
X63311100Y-82087700D02*
X59935000Y-82087700D01*
X56128000Y-82437200D02*
X56128000Y-82722300D01*
X77776700Y-81903600D02*
X77697000Y-81903600D01*
X79850300Y-83977200D02*
X77776700Y-81903600D01*
X79850300Y-84136000D02*
X79850300Y-83977200D01*
X84742300Y-84136000D02*
X79850300Y-84136000D01*
X87042000Y-81836300D02*
X84742300Y-84136000D01*
X70242900Y-59872300D02*
X70242900Y-59872200D01*
X53448800Y-59581200D02*
X57641000Y-59581200D01*
X58653900Y-60594100D02*
X60754800Y-60594100D01*
X52350000Y-60150000D02*
X52880000Y-60150000D01*
X62857800Y-60869200D02*
X68969000Y-60869200D01*
X61201800Y-61041100D02*
X62685900Y-61041100D01*
X62685900Y-61041100D02*
X62857800Y-60869200D01*
X69965900Y-59872300D02*
X70242900Y-59872300D01*
X52880000Y-60150000D02*
X53448800Y-59581200D01*
X57641000Y-59581200D02*
X58653900Y-60594100D01*
X68969000Y-60869200D02*
X69965900Y-59872300D01*
X60754800Y-60594100D02*
X61201800Y-61041100D01*
X55785302Y-81004200D02*
X67060600Y-81004200D01*
X68830900Y-81101600D02*
X69593700Y-80338800D01*
X67158000Y-81101600D02*
X68830900Y-81101600D01*
X54960000Y-81829502D02*
X55785302Y-81004200D01*
X67060600Y-81004200D02*
X67158000Y-81101600D01*
X69657800Y-62615200D02*
X70030500Y-62987900D01*
X70030500Y-62987900D02*
X77212900Y-62987900D01*
X77212900Y-62987900D02*
X80485200Y-59715600D01*
X75079300Y-77559300D02*
X75432700Y-77912700D01*
X70700000Y-77820000D02*
X72737100Y-77820000D01*
X75432700Y-77912700D02*
X75432700Y-78179607D01*
X75992500Y-78472500D02*
X79921500Y-82401500D01*
X75725593Y-78472500D02*
X75992500Y-78472500D01*
X72997800Y-77559300D02*
X75079300Y-77559300D01*
X75432700Y-78179607D02*
X75725593Y-78472500D01*
X72737100Y-77820000D02*
X72997800Y-77559300D01*
X79921500Y-82401500D02*
X83435400Y-82401500D01*
X62606000Y-63291800D02*
X62878300Y-63564100D01*
X55772900Y-63291800D02*
X61666500Y-63291800D01*
X61666500Y-63291800D02*
X62606000Y-63291800D01*
X61666500Y-63291800D02*
X61666500Y-62078900D01*
X60710900Y-84620200D02*
X60559000Y-84772100D01*
X59823300Y-85507800D02*
X60559000Y-84772100D01*
X52922507Y-84935400D02*
X53494907Y-85507800D01*
X63941300Y-84620200D02*
X60710900Y-84620200D01*
X52860000Y-84935400D02*
X52922507Y-84935400D01*
X53494907Y-85507800D02*
X59823300Y-85507800D01*
X69644692Y-88630000D02*
X67776374Y-88630000D01*
X70422500Y-87852192D02*
X69644692Y-88630000D01*
X67776374Y-88630000D02*
X67344361Y-88197987D01*
X86890000Y-67092400D02*
X84010700Y-69971700D01*
X76508900Y-69971700D02*
X76297700Y-69760500D01*
X84010700Y-69971700D02*
X76508900Y-69971700D01*
X86898800Y-67092400D02*
X86890000Y-67092400D01*
X59716300Y-66184100D02*
X59882900Y-66017500D01*
X57426800Y-65900600D02*
X52942700Y-65900600D01*
X57710300Y-66184100D02*
X57426800Y-65900600D01*
X59882900Y-66017500D02*
X62925700Y-66017500D01*
X57710300Y-66184100D02*
X59716300Y-66184100D01*
X52942700Y-65900600D02*
X52837000Y-66006300D01*
X52310000Y-86270000D02*
X52310000Y-84680000D01*
X64758900Y-84260900D02*
X64577000Y-84079000D01*
X52310000Y-84680000D02*
X52554100Y-84435900D01*
X56162800Y-84435900D02*
X56717000Y-84990100D01*
X64577000Y-84079000D02*
X57628100Y-84079000D01*
X56717000Y-84993200D02*
X56706400Y-85003800D01*
X52554100Y-84435900D02*
X56162800Y-84435900D01*
X57628100Y-84079000D02*
X56717000Y-84990100D01*
X56717000Y-84990100D02*
X56717000Y-84993200D01*
X78850800Y-65578400D02*
X75758500Y-65578400D01*
X85364200Y-66035000D02*
X82538600Y-66035000D01*
X82538600Y-66035000D02*
X80923000Y-67650600D01*
X80923000Y-67650600D02*
X78850800Y-65578400D01*
X75758500Y-65578400D02*
X75713100Y-65623800D01*
X80923000Y-67650600D02*
X80883500Y-67690100D01*
X79910100Y-86873300D02*
X83307300Y-86873300D01*
X77889800Y-87110200D02*
X79673200Y-87110200D01*
X77889800Y-87110200D02*
X76526500Y-88473500D01*
X73550200Y-88473500D02*
X72594300Y-87517600D01*
X72594300Y-87517600D02*
X72594300Y-86343100D01*
X79673200Y-87110200D02*
X79910100Y-86873300D01*
X76526500Y-88473500D02*
X73550200Y-88473500D01*
X83307300Y-86873300D02*
X84968100Y-85212500D01*
X56975196Y-86655196D02*
X58290000Y-87970000D01*
X52335901Y-87074099D02*
X52754804Y-86655196D01*
X52754804Y-86655196D02*
X56975196Y-86655196D01*
X70091100Y-69567800D02*
X73247500Y-69567800D01*
X74955900Y-69826600D02*
X75531100Y-69251400D01*
X75531100Y-69251400D02*
X77039300Y-69251400D01*
X77259500Y-69471600D02*
X80173400Y-69471600D01*
X73506300Y-69826600D02*
X74955900Y-69826600D01*
X77039300Y-69251400D02*
X77259500Y-69471600D01*
X70080000Y-69556700D02*
X70091100Y-69567800D01*
X73247500Y-69567800D02*
X73506300Y-69826600D01*
X62610700Y-67959200D02*
X64407600Y-67959200D01*
X64407600Y-67959200D02*
X68324800Y-71876400D01*
X68324800Y-71876400D02*
X72417500Y-71876400D01*
X64244300Y-61725000D02*
X64744900Y-62225600D01*
X64744900Y-62225600D02*
X64744900Y-63000400D01*
X60312000Y-74635500D02*
X60312000Y-73790500D01*
X59934900Y-76045800D02*
X59842600Y-75953500D01*
X59842600Y-75953500D02*
X59842600Y-75104900D01*
X60312000Y-73790500D02*
X59896500Y-73375000D01*
X59842600Y-75104900D02*
X60312000Y-74635500D01*
X74940600Y-59272700D02*
X74940600Y-55681300D01*
X74584900Y-59628400D02*
X74940600Y-59272700D01*
X74940600Y-55681300D02*
X75560700Y-55061200D01*
X78369300Y-53313900D02*
X78369300Y-55387300D01*
X79331600Y-56349600D02*
X79331600Y-59385700D01*
X79092900Y-52590300D02*
X78369300Y-53313900D01*
X79331600Y-59385700D02*
X79092900Y-59624400D01*
X78369300Y-55387300D02*
X79331600Y-56349600D01*
X74603000Y-79312000D02*
X73358300Y-78067300D01*
X74603000Y-82897000D02*
X74650100Y-82897000D01*
X72550100Y-76910600D02*
X72550100Y-75624900D01*
X74790600Y-73384400D02*
X74895200Y-73384400D01*
X73641000Y-83859000D02*
X73641000Y-87785200D01*
X74603000Y-82897000D02*
X74603000Y-79312000D01*
X74603000Y-82897000D02*
X73641000Y-83859000D01*
X72550100Y-75624900D02*
X74790600Y-73384400D01*
X76930000Y-82262000D02*
X75787900Y-83404100D01*
X77361800Y-81028200D02*
X77350000Y-81040000D01*
X77350000Y-81543493D02*
X76930000Y-81963493D01*
X75787900Y-83404100D02*
X75540300Y-83404100D01*
X76930000Y-81963493D02*
X76930000Y-82262000D01*
X77350000Y-81040000D02*
X77350000Y-81543493D01*
X81873300Y-84550800D02*
X81271800Y-85152300D01*
X85043900Y-84550800D02*
X81873300Y-84550800D01*
X85468600Y-85422200D02*
X85468600Y-84975500D01*
X81757000Y-87179800D02*
X83711000Y-87179800D01*
X81046000Y-87890800D02*
X81757000Y-87179800D01*
X83711000Y-87179800D02*
X85468600Y-85422200D01*
X85468600Y-84975500D02*
X85043900Y-84550800D01*
X66462800Y-65256100D02*
X65411400Y-64204700D01*
X72734700Y-65256100D02*
X66462800Y-65256100D01*
X65411400Y-64204700D02*
X64989000Y-64204700D01*
X84310500Y-64037500D02*
X73953300Y-64037500D01*
X84906400Y-63441600D02*
X84310500Y-64037500D01*
X73953300Y-64037500D02*
X72734700Y-65256100D01*
M02*
