G04 #@! TF.GenerationSoftware,KiCad,Pcbnew,7.0.2-6a45011f42~172~ubuntu22.04.1*
G04 #@! TF.CreationDate,2023-07-30T19:01:30-07:00*
G04 #@! TF.ProjectId,driver_40mm_atmega_v0p5,64726976-6572-45f3-9430-6d6d5f61746d,rev?*
G04 #@! TF.SameCoordinates,Original*
G04 #@! TF.FileFunction,Soldermask,Top*
G04 #@! TF.FilePolarity,Negative*
%FSLAX46Y46*%
G04 Gerber Fmt 4.6, Leading zero omitted, Abs format (unit mm)*
G04 Created by KiCad (PCBNEW 7.0.2-6a45011f42~172~ubuntu22.04.1) date 2023-07-30 19:01:30*
%MOMM*%
%LPD*%
G01*
G04 APERTURE LIST*
G04 Aperture macros list*
%AMRoundRect*
0 Rectangle with rounded corners*
0 $1 Rounding radius*
0 $2 $3 $4 $5 $6 $7 $8 $9 X,Y pos of 4 corners*
0 Add a 4 corners polygon primitive as box body*
4,1,4,$2,$3,$4,$5,$6,$7,$8,$9,$2,$3,0*
0 Add four circle primitives for the rounded corners*
1,1,$1+$1,$2,$3*
1,1,$1+$1,$4,$5*
1,1,$1+$1,$6,$7*
1,1,$1+$1,$8,$9*
0 Add four rect primitives between the rounded corners*
20,1,$1+$1,$2,$3,$4,$5,0*
20,1,$1+$1,$4,$5,$6,$7,0*
20,1,$1+$1,$6,$7,$8,$9,0*
20,1,$1+$1,$8,$9,$2,$3,0*%
G04 Aperture macros list end*
%ADD10RoundRect,0.147500X0.017678X-0.226274X0.226274X-0.017678X-0.017678X0.226274X-0.226274X0.017678X0*%
G04 APERTURE END LIST*
D10*
X85907053Y-64092947D03*
X86592947Y-63407053D03*
X83407053Y-64092947D03*
X84092947Y-63407053D03*
X80907053Y-64092947D03*
X81592947Y-63407053D03*
X78407053Y-64092947D03*
X79092947Y-63407053D03*
X75907053Y-64092947D03*
X76592947Y-63407053D03*
X73407053Y-64092947D03*
X74092947Y-63407053D03*
X70907053Y-64092947D03*
X71592947Y-63407053D03*
X88407053Y-61592947D03*
X89092947Y-60907053D03*
X85907053Y-61592947D03*
X86592947Y-60907053D03*
X83407053Y-61592947D03*
X84092947Y-60907053D03*
X80907053Y-61592947D03*
X81592947Y-60907053D03*
X78407053Y-61592947D03*
X79092947Y-60907053D03*
X75907053Y-61592947D03*
X76592947Y-60907053D03*
X73407053Y-61592947D03*
X74092947Y-60907053D03*
X88407053Y-59092947D03*
X89092947Y-58407053D03*
X70907053Y-61592947D03*
X71592947Y-60907053D03*
X88407053Y-66592947D03*
X89092947Y-65907053D03*
X80907053Y-69092947D03*
X81592947Y-68407053D03*
X83407053Y-69092947D03*
X84092947Y-68407053D03*
X68407053Y-89092947D03*
X69092947Y-88407053D03*
X85907053Y-69092947D03*
X86592947Y-68407053D03*
X78407053Y-69092947D03*
X79092947Y-68407053D03*
X75907053Y-69092947D03*
X76592947Y-68407053D03*
X73407053Y-69092947D03*
X74092947Y-68407053D03*
X70907053Y-69092947D03*
X71592947Y-68407053D03*
X88407053Y-64092947D03*
X89092947Y-63407053D03*
X85907053Y-66592947D03*
X86592947Y-65907053D03*
X83407053Y-66592947D03*
X84092947Y-65907053D03*
X80907053Y-66592947D03*
X81592947Y-65907053D03*
X78407053Y-66592947D03*
X79092947Y-65907053D03*
X75907053Y-66592947D03*
X76592947Y-65907053D03*
X73407053Y-66592947D03*
X74092947Y-65907053D03*
X70907053Y-66592947D03*
X71592947Y-65907053D03*
X85907053Y-54092947D03*
X86592947Y-53407053D03*
X65907053Y-86592947D03*
X66592947Y-85907053D03*
X70907053Y-51592947D03*
X71592947Y-50907053D03*
X73407053Y-51592947D03*
X74092947Y-50907053D03*
X75907053Y-51592947D03*
X76592947Y-50907053D03*
X78407053Y-51592947D03*
X79092947Y-50907053D03*
X80907053Y-51592947D03*
X81592947Y-50907053D03*
X83407053Y-51592947D03*
X84092947Y-50907053D03*
X85907053Y-51592947D03*
X86592947Y-50907053D03*
X88407053Y-51592947D03*
X89092947Y-50907053D03*
X70907053Y-54092947D03*
X71592947Y-53407053D03*
X73407053Y-54092947D03*
X74092947Y-53407053D03*
X75907053Y-54092947D03*
X76592947Y-53407053D03*
X78407053Y-54092947D03*
X79092947Y-53407053D03*
X80907053Y-54092947D03*
X81592947Y-53407053D03*
X83407053Y-54092947D03*
X84092947Y-53407053D03*
X85907053Y-59092947D03*
X86592947Y-58407053D03*
X88407053Y-54092947D03*
X89092947Y-53407053D03*
X70907053Y-56592947D03*
X71592947Y-55907053D03*
X73407053Y-56592947D03*
X74092947Y-55907053D03*
X75907053Y-56592947D03*
X76592947Y-55907053D03*
X78407053Y-56592947D03*
X79092947Y-55907053D03*
X80907053Y-56592947D03*
X81592947Y-55907053D03*
X83407053Y-56592947D03*
X84092947Y-55907053D03*
X85907053Y-56592947D03*
X86592947Y-55907053D03*
X88407053Y-56592947D03*
X89092947Y-55907053D03*
X70907053Y-59092947D03*
X71592947Y-58407053D03*
X73407053Y-59092947D03*
X74092947Y-58407053D03*
X75907053Y-59092947D03*
X76592947Y-58407053D03*
X78407053Y-59092947D03*
X79092947Y-58407053D03*
X80907053Y-59092947D03*
X81592947Y-58407053D03*
X83407053Y-59092947D03*
X84092947Y-58407053D03*
X88407053Y-81592947D03*
X89092947Y-80907053D03*
X88407053Y-84092947D03*
X89092947Y-83407053D03*
X85907053Y-84092947D03*
X86592947Y-83407053D03*
X83407053Y-84092947D03*
X84092947Y-83407053D03*
X80907053Y-84092947D03*
X81592947Y-83407053D03*
X78407053Y-84092947D03*
X79092947Y-83407053D03*
X75907053Y-84092947D03*
X76592947Y-83407053D03*
X73407053Y-84092947D03*
X74092947Y-83407053D03*
X70907053Y-84092947D03*
X71592947Y-83407053D03*
X70907053Y-86592947D03*
X71592947Y-85907053D03*
X85907053Y-81592947D03*
X86592947Y-80907053D03*
X83407053Y-81592947D03*
X84092947Y-80907053D03*
X80907053Y-81592947D03*
X81592947Y-80907053D03*
X78407053Y-81592947D03*
X79092947Y-80907053D03*
X75907053Y-81592947D03*
X76592947Y-80907053D03*
X73407053Y-81592947D03*
X74092947Y-80907053D03*
X70907053Y-81592947D03*
X71592947Y-80907053D03*
X88407053Y-79092947D03*
X89092947Y-78407053D03*
X73407053Y-86592947D03*
X74092947Y-85907053D03*
X75907053Y-86592947D03*
X76592947Y-85907053D03*
X78407053Y-86592947D03*
X79092947Y-85907053D03*
X80907053Y-86592947D03*
X81592947Y-85907053D03*
X83407053Y-86592947D03*
X84092947Y-85907053D03*
X85907053Y-86592947D03*
X86592947Y-85907053D03*
X88407053Y-86592947D03*
X89092947Y-85907053D03*
X70907053Y-89092947D03*
X71592947Y-88407053D03*
X73407053Y-89092947D03*
X74092947Y-88407053D03*
X75907053Y-89092947D03*
X76592947Y-88407053D03*
X78407053Y-89092947D03*
X79092947Y-88407053D03*
X80907053Y-89092947D03*
X81592947Y-88407053D03*
X83407053Y-89092947D03*
X84092947Y-88407053D03*
X85907053Y-89092947D03*
X86592947Y-88407053D03*
X88407053Y-89092947D03*
X89092947Y-88407053D03*
X88407053Y-74092947D03*
X89092947Y-73407053D03*
X70907053Y-71592947D03*
X71592947Y-70907053D03*
X73407053Y-71592947D03*
X74092947Y-70907053D03*
X75907053Y-71592947D03*
X76592947Y-70907053D03*
X78407053Y-71592947D03*
X79092947Y-70907053D03*
X80907053Y-71592947D03*
X81592947Y-70907053D03*
X83407053Y-71592947D03*
X84092947Y-70907053D03*
X85907053Y-71592947D03*
X86592947Y-70907053D03*
X88407053Y-71592947D03*
X89092947Y-70907053D03*
X70907053Y-74092947D03*
X71592947Y-73407053D03*
X73407053Y-74092947D03*
X74092947Y-73407053D03*
X75907053Y-74092947D03*
X76592947Y-73407053D03*
X78407053Y-74092947D03*
X79092947Y-73407053D03*
X80907053Y-74092947D03*
X81592947Y-73407053D03*
X83407053Y-74092947D03*
X84092947Y-73407053D03*
X85907053Y-74092947D03*
X86592947Y-73407053D03*
X88407053Y-69092947D03*
X89092947Y-68407053D03*
X70907053Y-76592947D03*
X71592947Y-75907053D03*
X73407053Y-76592947D03*
X74092947Y-75907053D03*
X75907053Y-76592947D03*
X76592947Y-75907053D03*
X78407053Y-76592947D03*
X79092947Y-75907053D03*
X80907053Y-76592947D03*
X81592947Y-75907053D03*
X83407053Y-76592947D03*
X84092947Y-75907053D03*
X85907053Y-76592947D03*
X86592947Y-75907053D03*
X88407053Y-76592947D03*
X89092947Y-75907053D03*
X70907053Y-79092947D03*
X71592947Y-78407053D03*
X73407053Y-79092947D03*
X74092947Y-78407053D03*
X75907053Y-79092947D03*
X76592947Y-78407053D03*
X78407053Y-79092947D03*
X79092947Y-78407053D03*
X80907053Y-79092947D03*
X81592947Y-78407053D03*
X83407053Y-79092947D03*
X84092947Y-78407053D03*
X85907053Y-79092947D03*
X86592947Y-78407053D03*
X68407053Y-64092947D03*
X69092947Y-63407053D03*
X50907053Y-61592947D03*
X51592947Y-60907053D03*
X53407053Y-61592947D03*
X54092947Y-60907053D03*
X55907053Y-61592947D03*
X56592947Y-60907053D03*
X58407053Y-61592947D03*
X59092947Y-60907053D03*
X60907053Y-61592947D03*
X61592947Y-60907053D03*
X63407053Y-61592947D03*
X64092947Y-60907053D03*
X65907053Y-61592947D03*
X66592947Y-60907053D03*
X68407053Y-61592947D03*
X69092947Y-60907053D03*
X50907053Y-64092947D03*
X51592947Y-63407053D03*
X53407053Y-64092947D03*
X54092947Y-63407053D03*
X55907053Y-64092947D03*
X56592947Y-63407053D03*
X58407053Y-64092947D03*
X59092947Y-63407053D03*
X60907053Y-64092947D03*
X61592947Y-63407053D03*
X63407053Y-64092947D03*
X64092947Y-63407053D03*
X65907053Y-64092947D03*
X66592947Y-63407053D03*
X68407053Y-59092947D03*
X69092947Y-58407053D03*
X50907053Y-66592947D03*
X51592947Y-65907053D03*
X53407053Y-66592947D03*
X54092947Y-65907053D03*
X55907053Y-66592947D03*
X56592947Y-65907053D03*
X58407053Y-66592947D03*
X59092947Y-65907053D03*
X60907053Y-66592947D03*
X61592947Y-65907053D03*
X63407053Y-66592947D03*
X64092947Y-65907053D03*
X65907053Y-66592947D03*
X66592947Y-65907053D03*
X68407053Y-66592947D03*
X69092947Y-65907053D03*
X50907053Y-69092947D03*
X51592947Y-68407053D03*
X53407053Y-69092947D03*
X54092947Y-68407053D03*
X55907053Y-69092947D03*
X56592947Y-68407053D03*
X58407053Y-69092947D03*
X59092947Y-68407053D03*
X60907053Y-69092947D03*
X61592947Y-68407053D03*
X63407053Y-69092947D03*
X64092947Y-68407053D03*
X65907053Y-69092947D03*
X66592947Y-68407053D03*
X68407053Y-54092947D03*
X69092947Y-53407053D03*
X50907053Y-51592947D03*
X51592947Y-50907053D03*
X53407053Y-51592947D03*
X54092947Y-50907053D03*
X55907053Y-51592947D03*
X56592947Y-50907053D03*
X58407053Y-51592947D03*
X59092947Y-50907053D03*
X60907053Y-51592947D03*
X61592947Y-50907053D03*
X63407053Y-51592947D03*
X64092947Y-50907053D03*
X65907053Y-51592947D03*
X66592947Y-50907053D03*
X68407053Y-51592947D03*
X69092947Y-50907053D03*
X50907053Y-54092947D03*
X51592947Y-53407053D03*
X53407053Y-54092947D03*
X54092947Y-53407053D03*
X55907053Y-54092947D03*
X56592947Y-53407053D03*
X58407053Y-54092947D03*
X59092947Y-53407053D03*
X60907053Y-54092947D03*
X61592947Y-53407053D03*
X63407053Y-54092947D03*
X64092947Y-53407053D03*
X65907053Y-54092947D03*
X66592947Y-53407053D03*
X63407053Y-89092947D03*
X64092947Y-88407053D03*
X50907053Y-56592947D03*
X51592947Y-55907053D03*
X53407053Y-56592947D03*
X54092947Y-55907053D03*
X55907053Y-56592947D03*
X56592947Y-55907053D03*
X58407053Y-56592947D03*
X59092947Y-55907053D03*
X60907053Y-56592947D03*
X61592947Y-55907053D03*
X63407053Y-56592947D03*
X64092947Y-55907053D03*
X65907053Y-56592947D03*
X66592947Y-55907053D03*
X68407053Y-56592947D03*
X69092947Y-55907053D03*
X50907053Y-59092947D03*
X51592947Y-58407053D03*
X53407053Y-59092947D03*
X54092947Y-58407053D03*
X55907053Y-59092947D03*
X56592947Y-58407053D03*
X58407053Y-59092947D03*
X59092947Y-58407053D03*
X60907053Y-59092947D03*
X61592947Y-58407053D03*
X63407053Y-59092947D03*
X64092947Y-58407053D03*
X65907053Y-59092947D03*
X66592947Y-58407053D03*
X65907053Y-84092947D03*
X66592947Y-83407053D03*
X68407053Y-79092947D03*
X69092947Y-78407053D03*
X50907053Y-81592947D03*
X51592947Y-80907053D03*
X53407053Y-81592947D03*
X54092947Y-80907053D03*
X55907053Y-81592947D03*
X56592947Y-80907053D03*
X58407053Y-81592947D03*
X59092947Y-80907053D03*
X60907053Y-81592947D03*
X61592947Y-80907053D03*
X63407053Y-81592947D03*
X64092947Y-80907053D03*
X65907053Y-81592947D03*
X66592947Y-80907053D03*
X68407053Y-81592947D03*
X69092947Y-80907053D03*
X50907053Y-84092947D03*
X51592947Y-83407053D03*
X53407053Y-84092947D03*
X54092947Y-83407053D03*
X55907053Y-84092947D03*
X56592947Y-83407053D03*
X58407053Y-84092947D03*
X59092947Y-83407053D03*
X60907053Y-84092947D03*
X61592947Y-83407053D03*
X63407053Y-84092947D03*
X64092947Y-83407053D03*
X50907053Y-71592947D03*
X51592947Y-70907053D03*
X68407053Y-84092947D03*
X69092947Y-83407053D03*
X50907053Y-86592947D03*
X51592947Y-85907053D03*
X53407053Y-86592947D03*
X54092947Y-85907053D03*
X55907053Y-86592947D03*
X56592947Y-85907053D03*
X58407053Y-86592947D03*
X59092947Y-85907053D03*
X60907053Y-86592947D03*
X61592947Y-85907053D03*
X63407053Y-86592947D03*
X64092947Y-85907053D03*
X68407053Y-86592947D03*
X69092947Y-85907053D03*
X50907053Y-89092947D03*
X51592947Y-88407053D03*
X53407053Y-89092947D03*
X54092947Y-88407053D03*
X55907053Y-89092947D03*
X56592947Y-88407053D03*
X58407053Y-89092947D03*
X59092947Y-88407053D03*
X60907053Y-89092947D03*
X61592947Y-88407053D03*
X65907053Y-89092947D03*
X66592947Y-88407053D03*
X63407053Y-79092947D03*
X64092947Y-78407053D03*
X68407053Y-69092947D03*
X69092947Y-68407053D03*
X53407053Y-71592947D03*
X54092947Y-70907053D03*
X55907053Y-71592947D03*
X56592947Y-70907053D03*
X58407053Y-71592947D03*
X59092947Y-70907053D03*
X60907053Y-71592947D03*
X61592947Y-70907053D03*
X63407053Y-71592947D03*
X64092947Y-70907053D03*
X65907053Y-71592947D03*
X66592947Y-70907053D03*
X65907053Y-79092947D03*
X66592947Y-78407053D03*
X68407053Y-71592947D03*
X69092947Y-70907053D03*
X50907053Y-74092947D03*
X51592947Y-73407053D03*
X53407053Y-74092947D03*
X54092947Y-73407053D03*
X55907053Y-74092947D03*
X56592947Y-73407053D03*
X58407053Y-74092947D03*
X59092947Y-73407053D03*
X60907053Y-74092947D03*
X61592947Y-73407053D03*
X63407053Y-74092947D03*
X64092947Y-73407053D03*
X68407053Y-74092947D03*
X69092947Y-73407053D03*
X65907053Y-74092947D03*
X66592947Y-73407053D03*
X60907053Y-79092947D03*
X61592947Y-78407053D03*
X58407053Y-79092947D03*
X59092947Y-78407053D03*
X55907053Y-79092947D03*
X56592947Y-78407053D03*
X53407053Y-79092947D03*
X54092947Y-78407053D03*
X50907053Y-79092947D03*
X51592947Y-78407053D03*
X68407053Y-76592947D03*
X69092947Y-75907053D03*
X65907053Y-76592947D03*
X66592947Y-75907053D03*
X63407053Y-76592947D03*
X64092947Y-75907053D03*
X60907053Y-76592947D03*
X61592947Y-75907053D03*
X58407053Y-76592947D03*
X59092947Y-75907053D03*
X55907053Y-76592947D03*
X56592947Y-75907053D03*
X53407053Y-76592947D03*
X54092947Y-75907053D03*
X50907053Y-76592947D03*
X51592947Y-75907053D03*
M02*
