G04 ================== begin FILE IDENTIFICATION RECORD ==================*
G04 Layout Name:  LED Panel G4 V1, 03-26-2017.brd*
G04 Film Name:    BOTTOM*
G04 File Format:  Gerber RS274X*
G04 File Origin:  Cadence Allegro 17.4-S007*
G04 Origin Date:  Wed Nov 11 20:24:19 2020*
G04 *
G04 Layer:  VIA CLASS/BOTTOM*
G04 Layer:  PIN/BOTTOM*
G04 Layer:  ETCH/BOTTOM*
G04 Layer:  BOARD GEOMETRY/OUTLINE*
G04 *
G04 Offset:    (0.0000 0.0000)*
G04 Mirror:    No*
G04 Mode:      Positive*
G04 Rotation:  0*
G04 FullContactRelief:  No*
G04 UndefLineWidth:     0.1000*
G04 ================== end FILE IDENTIFICATION RECORD ====================*
%FSLAX46Y46*MOMM*%
%IR0*IPPOS*OFA0.00000B0.00000*MIA0B0*SFA1.00000B1.00000*%
%ADD11C,.4*%
%ADD10R,.8X.8*%
%ADD12C,.2*%
%ADD13C,.127*%
%ADD14C,.1*%
%ADD15C,.6544*%
G75*
%LPD*%
G75*
G36*
G01X2235600Y272100D02*
G03X2313200Y593800I-235612J227043D01*
G02X2410500Y724800I97260J29395D01*
G01X3525200D01*
Y1775200D01*
X3240200D01*
Y3224800D01*
X3525200D01*
Y4275200D01*
X3240200D01*
Y5724800D01*
X3525200D01*
Y6775200D01*
X3240200D01*
Y8224800D01*
X3525200D01*
Y9275200D01*
X3240200D01*
Y10724800D01*
X3525200D01*
Y11572000D01*
G02X3620400Y11673400I101585J16D01*
G03X3808500Y11747800I-20411J326584D01*
G02X3974800Y11669500I64712J-78310D01*
G01Y10724800D01*
X4089500D01*
G02X4186800Y10593800I40J-101605D01*
G03X4813200I313200J-94600D01*
G02X4910500Y10724800I97260J29395D01*
G01X5685500D01*
X5820400Y10589900D01*
Y9410100D01*
X5685500Y9275200D01*
X3974800D01*
Y8224800D01*
X4089500D01*
G02X4186800Y8093800I40J-101605D01*
G03X4813200I313200J-94600D01*
G02X4910500Y8224800I97260J29395D01*
G01X5259800D01*
Y6775200D01*
X3974800D01*
Y5724800D01*
X4089500D01*
G02X4186800Y5593800I40J-101605D01*
G03X4813200I313200J-94600D01*
G02X4910500Y5724800I97260J29395D01*
G01X5259800D01*
Y4275200D01*
X3974800D01*
Y3224800D01*
X4089500D01*
G02X4186800Y3093800I40J-101605D01*
G03X4813200I313200J-94600D01*
G02X4910500Y3224800I97260J29395D01*
G01X5259800D01*
Y1775200D01*
X3974800D01*
Y724800D01*
X4089500D01*
G02X4186800Y593800I40J-101605D01*
G03X4264400Y272100I313212J-94657D01*
G02X4191300Y100000I-73126J-70514D01*
G01X2308700D01*
G02X2235600Y272100I26J101586D01*
G37*
G36*
G01X100000Y100000D02*
Y724800D01*
X1025200D01*
Y1775200D01*
X740200D01*
Y3224800D01*
X1025200D01*
Y4275200D01*
X740200D01*
Y5724800D01*
X1025200D01*
Y6775200D01*
X740200D01*
Y8224800D01*
X1025200D01*
Y9275200D01*
X740200D01*
Y10059400D01*
G02X901400Y10141600I101582J-47D01*
G03X1118900Y10732800I191968J264984D01*
G02X1025200Y10834100I7898J101291D01*
G01Y11775200D01*
X740200D01*
Y13224800D01*
X1025200D01*
Y14275200D01*
X740200D01*
Y15724800D01*
X1025200D01*
Y16775200D01*
X740200D01*
Y18224800D01*
X1025200D01*
Y18323000D01*
G02X1117500Y18424200I101601J26D01*
G03X1305500Y18506100I-30094J325806D01*
G02X1474800Y18430300I67701J-75757D01*
G01Y18224800D01*
X1589500D01*
G02X1686800Y18093800I40J-101605D01*
G03X2313200I313200J-94600D01*
G02X2410500Y18224800I97260J29395D01*
G01X2759800D01*
Y16775200D01*
X1474800D01*
Y15724800D01*
X1589500D01*
G02X1686800Y15593800I40J-101605D01*
G03X1752400Y15285300I313210J-94623D01*
G02X1722600Y15128900I-76889J-66389D01*
G03X2122000Y15052900I151770J-289886D01*
G02X2151800Y15209300I76889J66389D01*
G03X2313200Y15593800I-151817J289853D01*
G02X2410500Y15724800I97260J29395D01*
G01X2759800D01*
Y14275200D01*
X1474800D01*
Y13224800D01*
X1589500D01*
G02X1686800Y13093800I40J-101605D01*
G03X2313200I313200J-94600D01*
G02X2410500Y13224800I97260J29395D01*
G01X2759800D01*
Y11775200D01*
X1474800D01*
Y10724800D01*
X1589500D01*
G02X1686800Y10593800I40J-101605D01*
G03X2313200I313200J-94600D01*
G02X2410500Y10724800I97260J29395D01*
G01X2759800D01*
Y9275200D01*
X1474800D01*
Y8224800D01*
X1589500D01*
G02X1686800Y8093800I40J-101605D01*
G03X2313200I313200J-94600D01*
G02X2410500Y8224800I97260J29395D01*
G01X2759800D01*
Y6775200D01*
X1474800D01*
Y5724800D01*
X1589500D01*
G02X1686800Y5593800I40J-101605D01*
G03X2313200I313200J-94600D01*
G02X2410500Y5724800I97260J29395D01*
G01X2759800D01*
Y4275200D01*
X1474800D01*
Y3224800D01*
X1589500D01*
G02X1686800Y3093800I40J-101605D01*
G03X2313200I313200J-94600D01*
G02X2410500Y3224800I97260J29395D01*
G01X2759800D01*
Y1775200D01*
X1474800D01*
Y724800D01*
X1589500D01*
G02X1686800Y593800I40J-101605D01*
G03X1764400Y272100I313212J-94657D01*
G02X1691300Y100000I-73126J-70514D01*
G01X100000D01*
G37*
G36*
G01X38803800Y3988900D02*
G03X38576600Y4077200I-223603J-238892D01*
G02X38525200Y4128000I-608J50788D01*
G01Y4275200D01*
X38240200D01*
Y5724800D01*
X38525200D01*
Y6775200D01*
X38240200D01*
Y8224800D01*
X38525200D01*
Y9275200D01*
X38240200D01*
Y10724800D01*
X38525200D01*
Y11775200D01*
X38240200D01*
Y11984200D01*
G02X38398600Y12068400I101590J-20D01*
G03Y12611200I182800J271400D01*
G02X38240200Y12695400I-56810J84220D01*
G01Y13224800D01*
X38525200D01*
Y14275200D01*
X38240200D01*
Y15724800D01*
X38525200D01*
Y16775200D01*
X38240200D01*
Y18224800D01*
X38525200D01*
Y19275200D01*
X36474800D01*
Y18224800D01*
X36589500D01*
G02X36686800Y18093800I40J-101605D01*
G03X37313200I313200J-94600D01*
G02X37410500Y18224800I97260J29395D01*
G01X37759800D01*
Y17385700D01*
X37431700D01*
G03X36945800Y16949100I-256050J-203721D01*
G02X36874400Y16775200I-71385J-72298D01*
G01X36474800D01*
Y15724800D01*
X36589500D01*
G02X36686800Y15593800I40J-101605D01*
G03X37313200I313200J-94600D01*
G02X37410500Y15724800I97260J29395D01*
G01X37759800D01*
Y14275200D01*
X36474800D01*
Y13224800D01*
X36589500D01*
G02X36686800Y13093800I40J-101605D01*
G03X37313200I313200J-94600D01*
G02X37410500Y13224800I97260J29395D01*
G01X37759800D01*
Y11775200D01*
X36474800D01*
Y10724800D01*
X36589500D01*
G02X36686800Y10593800I40J-101605D01*
G03X37313200I313200J-94600D01*
G02X37410500Y10724800I97260J29395D01*
G01X37759800D01*
Y9275200D01*
X36474800D01*
Y8224800D01*
X36589500D01*
G02X36686800Y8093800I40J-101605D01*
G03X37313200I313200J-94600D01*
G02X37410500Y8224800I97260J29395D01*
G01X37759800D01*
Y6775200D01*
X37366100D01*
G02X37279400Y6929700I30J101594D01*
G03X36720600I-279400J170300D01*
G02X36633900Y6775200I-86730J-52906D01*
G01X36474800D01*
Y5830200D01*
X36429600Y5825200D01*
G03X36174600Y5350200I35897J-325218D01*
G02X36083600Y5202100I-90323J-46509D01*
G01X35740200D01*
Y5724800D01*
X36025200D01*
Y6435500D01*
X36300800Y6711100D01*
Y8288900D01*
X36025200Y8564500D01*
Y9275200D01*
X35740200D01*
Y10724800D01*
X36025200D01*
Y11775200D01*
X35740200D01*
Y13224800D01*
X36025200D01*
Y14275200D01*
X35740200D01*
Y15724800D01*
X36025200D01*
Y16775200D01*
X35740200D01*
Y18224800D01*
X36025200D01*
Y19275200D01*
X35866100D01*
G02X35779400Y19429700I30J101594D01*
G03X35220600I-279400J170300D01*
G02X35133900Y19275200I-86730J-52906D01*
G01X33974800D01*
Y18224800D01*
X34089500D01*
G02X34186800Y18093800I40J-101605D01*
G03X34813200I313200J-94600D01*
G02X34910500Y18224800I97260J29395D01*
G01X35259800D01*
Y16775200D01*
X33974800D01*
Y15724800D01*
X34089500D01*
G02X34186800Y15593800I40J-101605D01*
G03X34813200I313200J-94600D01*
G02X34910500Y15724800I97260J29395D01*
G01X35259800D01*
Y14275200D01*
X33974800D01*
Y13224800D01*
X34089500D01*
G02X34186800Y13093800I40J-101605D01*
G03X34813200I313200J-94600D01*
G02X34910500Y13224800I97260J29395D01*
G01X35259800D01*
Y11775200D01*
X33974800D01*
Y10724800D01*
X34089500D01*
G02X34186800Y10593800I40J-101605D01*
G03X34813200I313200J-94600D01*
G02X34910500Y10724800I97260J29395D01*
G01X35259800D01*
Y9275200D01*
X33974800D01*
Y8224800D01*
X34071800D01*
G02X34173300Y8117700I45J-101604D01*
G03X34826700I326700J-17700D01*
G02X34928200Y8224800I101455J5496D01*
G01X35685500D01*
X35820400Y8089900D01*
Y6910100D01*
X35685500Y6775200D01*
X33974800D01*
Y5915100D01*
G02X33847700Y5816700I-101599J-53D01*
G03X33659700Y5809600I-82173J-316704D01*
G02X33525200Y5905700I-32896J96131D01*
G01Y6435500D01*
X33800800Y6711100D01*
Y7661900D01*
X33411300Y8051400D01*
G02X33483200Y8224800I71873J71805D01*
G01X33525200D01*
Y9275200D01*
X33240200D01*
Y10724800D01*
X33525200D01*
Y11775200D01*
X33240200D01*
Y13224800D01*
X33525200D01*
Y14275200D01*
X33240200D01*
Y15724800D01*
X33525200D01*
Y16775200D01*
X33240200D01*
Y18224800D01*
X33525200D01*
Y19275200D01*
X31474800D01*
Y18224800D01*
X31589500D01*
G02X31686800Y18093800I40J-101605D01*
G03X32313200I313200J-94600D01*
G02X32410500Y18224800I97260J29395D01*
G01X32759800D01*
Y16775200D01*
X31474800D01*
Y15724800D01*
X31589500D01*
G02X31686800Y15593800I40J-101605D01*
G03X32313200I313200J-94600D01*
G02X32410500Y15724800I97260J29395D01*
G01X32759800D01*
Y14275200D01*
X31474800D01*
Y13224800D01*
X31589500D01*
G02X31686800Y13093800I40J-101605D01*
G03X32313200I313200J-94600D01*
G02X32410500Y13224800I97260J29395D01*
G01X32759800D01*
Y11775200D01*
X31474800D01*
Y10724800D01*
X31589500D01*
G02X31686800Y10593800I40J-101605D01*
G03X32313200I313200J-94600D01*
G02X32410500Y10724800I97260J29395D01*
G01X32759800D01*
Y9275200D01*
X31474800D01*
Y8512900D01*
X31164800Y8202900D01*
X31025200D01*
Y9275200D01*
X30740200D01*
Y10724800D01*
X31025200D01*
Y11775200D01*
X30740200D01*
Y13224800D01*
X31025200D01*
Y14275200D01*
X30740200D01*
Y15724800D01*
X31025200D01*
Y16775200D01*
X30740200D01*
Y18224800D01*
X31025200D01*
Y19275200D01*
X28974800D01*
Y18224800D01*
X29089500D01*
G02X29186800Y18093800I40J-101605D01*
G03X29813200I313200J-94600D01*
G02X29910500Y18224800I97260J29395D01*
G01X30259800D01*
Y16775200D01*
X28974800D01*
Y15860200D01*
G02X28801400Y15788300I-101595J-27D01*
G01X28525200Y16064500D01*
Y16775200D01*
X28240200D01*
Y18224800D01*
X28525200D01*
Y19275200D01*
X26762900D01*
X26445300Y19592800D01*
Y19737500D01*
G03X25985500Y20197300I-203700J256100D01*
G01X25128600D01*
G02X25027000Y20295700I-39J101612D01*
G03X24380900Y20213200I-327034J-10045D01*
G02X24262400Y20091000I-99073J-22483D01*
G03X24139400Y20091300I-62284J-321206D01*
G02X24020900Y20171300I-18847J99846D01*
G03X23379100I-320900J-63900D01*
G02X23260600Y20091300I-99653J19846D01*
G03X22950300Y19981300I-60668J-321525D01*
G02X22819800Y19960300I-77506J65662D01*
G03X22392900Y19884900I-170815J-279092D01*
G01X22174000D01*
X22088300Y19799200D01*
X22039300Y19848100D01*
X22037700Y19866500D01*
G03X21698800Y19510500I-325891J-29074D01*
G02X21796300Y19408900I-4111J-101528D01*
G01Y19275200D01*
X21474800D01*
Y18224800D01*
X22251300D01*
G02X22345500Y18085200I-33J-101604D01*
G03X22952500I303500J-122200D01*
G02X23046700Y18224800I94233J37996D01*
G01X23237100D01*
X23496300Y17965600D01*
Y17034400D01*
X23237100Y16775200D01*
X21474800D01*
Y16660200D01*
G02X21343600Y16563000I-101611J7D01*
G03X21155600Y16563800I-95334J-313001D01*
G02X21025200Y16661200I-28815J97413D01*
G01Y16775200D01*
X20740200D01*
Y18224800D01*
X21025200D01*
Y19275200D01*
X20466000D01*
G02X20379200Y19429700I-50J101605D01*
G03X19820600I-279300J170400D01*
G02X19733800Y19275200I-86750J-52895D01*
G01X19262900D01*
X18934400Y19603700D01*
X17215600D01*
X16887100Y19275200D01*
X16474800D01*
Y18224800D01*
X16589500D01*
G02X16686800Y18093800I40J-101605D01*
G03X17313200I313200J-94600D01*
G02X17410500Y18224800I97260J29395D01*
G01X17759800D01*
Y16775200D01*
X16488800D01*
G03X16000800I-244000J-218000D01*
G01X15740200D01*
Y17301500D01*
G02X15879300Y17395900I101604J-33D01*
G03Y18004100I120700J304100D01*
G02X15740200Y18098500I-37496J94433D01*
G01Y18224800D01*
X16025200D01*
Y19275200D01*
X15297200D01*
G02X15225600Y19448900I-9J101603D01*
G03X14764800I-230400J232300D01*
G02X14693200Y19275200I-71591J-72097D01*
G01X13974800D01*
Y18224800D01*
X14089500D01*
G02X14186800Y18093800I40J-101605D01*
G03X14813200I313200J-94600D01*
G02X14910500Y18224800I97260J29395D01*
G01X15259800D01*
Y16775200D01*
X13968500D01*
G02X13843000Y16713400I-95292J35185D01*
G03X13654900Y16715400I-97382J-312391D01*
G02X13532500Y16775200I-28114J97621D01*
G01X13240200D01*
Y18224800D01*
X13525200D01*
Y19275200D01*
X13504000D01*
Y19369900D01*
X13547500Y19376300D01*
G03X13285000Y19453400I-47494J323711D01*
G02X13218200Y19275200I-66769J-76591D01*
G01X11474800D01*
Y18592300D01*
G02X11332200Y18499300I-101598J-43D01*
G03X11144100Y18522400I-132224J-299296D01*
G02X11025200Y18622500I-17307J100109D01*
G01Y19275200D01*
X10926700D01*
G02X10825600Y19366700I-12J101591D01*
G03X10174400I-325600J-32500D01*
G02X10073300Y19275200I-101088J10091D01*
G01X9766100D01*
G02X9679400Y19429700I30J101594D01*
G03X9229100Y19879000I-279394J170285D01*
G02X9074400Y19964800I-53104J86617D01*
G03X8918100Y19683200I-327187J-2574D01*
G02X9072800Y19597400I53104J-86617D01*
G03X9120600Y19429700I327196J2599D01*
G02X9033900Y19275200I-86730J-52906D01*
G01X8974800D01*
Y19158000D01*
G02X8841900Y19061300I-101603J-38D01*
G03X8653900Y19065300I-100666J-311310D01*
G02X8525200Y19163300I-27091J97931D01*
G01Y19275200D01*
X6758000D01*
G02X6658400Y19397000I-17J101609D01*
G03X6353500Y19789000I-320618J65198D01*
G02X6258200Y19907500I4868J101486D01*
G03X5919900Y19635400I-322586J54716D01*
G02X6015200Y19516900I-4868J-101486D01*
G03X6017200Y19397000I322604J-54585D01*
G02X5917600Y19275200I-99583J-20191D01*
G01X4058000D01*
G02X3958400Y19397000I-17J101609D01*
G03X3567000Y19781600I-320614J65177D01*
G02X3445300Y19900100I-21953J99197D01*
G03X3194800Y19642800I-321241J62161D01*
G02X3316500Y19524300I21953J-99197D01*
G03X3317200Y19397000I321299J-61885D01*
G02X3217600Y19275200I-99583J-20191D01*
G01X1474800D01*
Y19069700D01*
G02X1305500Y18993900I-101599J-43D01*
G03X1117500Y19075800I-218094J-243906D01*
G02X1025200Y19177000I9301J101174D01*
G01Y19275200D01*
X100000D01*
Y20724800D01*
X1025200D01*
Y20823100D01*
G02X1117300Y20924200I101582J-39D01*
G03X1305300Y21006600I-30729J325775D01*
G02X1474800Y20931100I67910J-75556D01*
G01Y20724800D01*
X3351400D01*
G02X3445500Y20585100I-54J-101579D01*
G03X4052100I303300J-122900D01*
G02X4146200Y20724800I94154J38121D01*
G01X6025200D01*
Y21775200D01*
X5740200D01*
Y22098400D01*
X5715200Y22123400D01*
Y22276600D01*
X5740200Y22301600D01*
Y22891800D01*
G03X5827100Y23121000I-240220J222152D01*
G02X5928700Y23224800I101582J2195D01*
G01X6025200D01*
Y24275200D01*
X5740200D01*
Y25724800D01*
X6025200D01*
Y25841000D01*
G02X6157300Y25937900I101592J-3D01*
G03X6345300Y25935300I98334J312091D01*
G02X6474800Y25837600I27914J-97675D01*
G01Y25724800D01*
X7759800D01*
Y24275200D01*
X6474800D01*
Y23224800D01*
X6587600D01*
G02X6685300Y23095300I25J-101586D01*
G03X7314700I314700J-89700D01*
G02X7412400Y23224800I97675J27914D01*
G01X7759800D01*
Y21775200D01*
X7412400D01*
G02X7314700Y21904700I-25J101586D01*
G03X6685300I-314700J89700D01*
G02X6587600Y21775200I-97675J-27914D01*
G01X6474800D01*
Y20779900D01*
X6442300Y20767400D01*
G03X6863700Y20585100I118111J-305177D01*
G02X6957800Y20724800I94154J38121D01*
G01X8525200D01*
Y21775200D01*
X8240200D01*
Y23224800D01*
X8525200D01*
Y23627500D01*
G02X8618300Y23728700I101583J-28D01*
G03X8806300Y23808400I-27340J326073D01*
G02X8974800Y23732000I66907J-76450D01*
G01Y23224800D01*
X9071800D01*
G02X9173300Y23117700I45J-101604D01*
G03X9826700I326700J-17700D01*
G02X9928200Y23224800I101455J5496D01*
G01X10259800D01*
Y21775200D01*
X9912400D01*
G02X9814700Y21904700I-25J101586D01*
G03X9185300I-314700J89700D01*
G02X9087600Y21775200I-97675J-27914D01*
G01X8974800D01*
Y20724800D01*
G02X9068700Y20585100I-254J-101579D01*
G03X9675300I303300J-122900D01*
G02X9769400Y20724800I94154J38121D01*
G01X11025200D01*
Y21775200D01*
X10740200D01*
Y23224800D01*
X11025200D01*
Y24096200D01*
G02X11118100Y24197400I101600J-26D01*
G03X10900700Y24790100I-27872J325997D01*
G02X10740200Y24872900I-58893J82799D01*
G01Y25724800D01*
X11025200D01*
Y25986000D01*
G02X11155100Y26083600I101598J23D01*
G03X11343200Y26085200I91384J314194D01*
G02X11474800Y25988200I30018J-97045D01*
G01Y25724800D01*
X12759800D01*
Y24275200D01*
X12427200D01*
G02X12326000Y24368000I10J101591D01*
G03X11674000I-326000J-28200D01*
G02X11572800Y24275200I-101210J8791D01*
G01X11474800D01*
Y23224800D01*
X12334800D01*
Y22724400D01*
X12759800Y22299400D01*
Y21775200D01*
X11474800D01*
Y20724800D01*
X11587600D01*
G02X11685300Y20595300I25J-101586D01*
G03X11688800Y20404400I314687J-89713D01*
G02X11621300Y20275700I-96614J-31379D01*
G03X12026200Y20063400I93729J-313503D01*
G02X12093700Y20192100I96614J31379D01*
G03X12314700Y20595300I-93682J313515D01*
G02X12412400Y20724800I97675J27914D01*
G01X13525200D01*
Y21577500D01*
G02X13644100Y21677600I101593J-9D01*
G03X13832200Y21700700I55876J322396D01*
G02X13974800Y21607700I41002J-92957D01*
G01Y20724800D01*
X14087600D01*
G02X14185300Y20595300I25J-101586D01*
G03X14756100Y20301900I314673J-89750D01*
G01X16340000D01*
X16403500Y20365400D01*
G02X16568800Y20333500I71869J-71813D01*
G03X17172900Y20585100I300836J128715D01*
G02X17267000Y20724800I94154J38121D01*
G01X17845900D01*
G02X17929800Y20565900I-6J-101603D01*
G03X17890000Y20486000I270225J-184468D01*
G02X17771500Y20419300I-96284J32445D01*
G03X18010000Y19995400I-71516J-319281D01*
G02X18128500Y20062100I96284J-32445D01*
G03X18509900Y20276500I71475J319291D01*
G02X18628400Y20343100I96248J-32529D01*
G03X19025800Y20632500I71567J319277D01*
G02X19127000Y20724800I101180J-9307D01*
G01X19222200D01*
Y20660600D01*
X19215500Y20648900D01*
G03X19810300Y20591000I284480J-161680D01*
G02X19906700Y20724800I96358J32203D01*
G01X20110500D01*
G02X20201300Y20577600I27J-101588D01*
G03X20786100I292400J-146900D01*
G02X20876900Y20724800I90773J45612D01*
G01X21025200D01*
Y21753500D01*
G02X21117400Y21854600I101592J-57D01*
G03X20899900Y22448800I-30389J325783D01*
G02X20740200Y22532200I-58096J83357D01*
G01Y22611000D01*
X20815000Y22685800D01*
Y23224800D01*
X21025200D01*
Y23546300D01*
X21335200D01*
X21388100Y23599200D01*
G02X21474800Y23563300I35907J-35924D01*
G01Y23389400D01*
G02X21379400Y23288000I-101593J4D01*
G03X21533200Y22662800I20016J-326593D01*
G02X21675500Y22583000I41525J-92728D01*
G03X21796300Y22368700I324531J41740D01*
G01Y21775200D01*
X21474800D01*
Y20724800D01*
X23525200D01*
Y21775200D01*
X23240200D01*
Y23224800D01*
X23525200D01*
Y24275200D01*
X23240200D01*
Y25724800D01*
X23525200D01*
Y26775200D01*
X23240200D01*
Y28224800D01*
X23525200D01*
Y29275200D01*
X23240200D01*
Y30724800D01*
X23525200D01*
Y31775200D01*
X23005600D01*
Y31829400D01*
G02X23126900Y31929000I101590J-60D01*
G03X23453500Y32444600I63534J320995D01*
G02X23467700Y32580900I81667J60381D01*
G03X23561700Y32725100I-217461J244495D01*
G02X23678300Y32793500I96674J-31215D01*
G03X24069500Y33121100I64067J320869D01*
G02X24171100Y33224800I101586J2093D01*
G01X24296300D01*
Y32901900D01*
G03X24287200Y32397300I203702J-256056D01*
G02Y32242900I-66102J-77200D01*
G03X24185300Y31904700I212782J-248563D01*
G02X24087600Y31775200I-97675J-27914D01*
G01X23974800D01*
Y30724800D01*
X25259800D01*
Y30499900D01*
G02X25133700Y30401300I-101611J16D01*
G03Y29766300I-78900J-317500D01*
G02X25259800Y29667700I24489J-98616D01*
G01Y29275200D01*
X24912400D01*
G02X24814700Y29404700I-25J101586D01*
G03X24185300I-314700J89700D01*
G02X24087600Y29275200I-97675J-27914D01*
G01X23974800D01*
Y28224800D01*
X25259800D01*
Y26775200D01*
X24912400D01*
G02X24814700Y26904700I-25J101586D01*
G03X24185300I-314700J89700D01*
G02X24087600Y26775200I-97675J-27914D01*
G01X23974800D01*
Y25724800D01*
X25259800D01*
Y24275200D01*
X24912400D01*
G02X24814700Y24404700I-25J101586D01*
G03X24185300I-314700J89700D01*
G02X24087600Y24275200I-97675J-27914D01*
G01X23974800D01*
Y23224800D01*
X25259800D01*
Y21775200D01*
X24912400D01*
G02X24814700Y21904700I-25J101586D01*
G03X24185300I-314700J89700D01*
G02X24087600Y21775200I-97675J-27914D01*
G01X23974800D01*
Y20724800D01*
X26025200D01*
Y21775200D01*
X25740200D01*
Y23224800D01*
X26025200D01*
Y24275200D01*
X25740200D01*
Y25724800D01*
X26025200D01*
Y26775200D01*
X25740200D01*
Y28224800D01*
X26025200D01*
Y29275200D01*
X25740200D01*
Y30724800D01*
X26025200D01*
Y31775200D01*
X25740200D01*
Y32657700D01*
G02X25903000Y32738800I101610J-19D01*
G03X26413400Y33094000I197000J261230D01*
G02X26510700Y33224800I97312J29201D01*
G01X26796300D01*
Y33058100D01*
G03X27203700I203700J-256100D01*
G01Y33224800D01*
X27759800D01*
Y31775200D01*
X27412400D01*
G02X27314700Y31904700I-25J101586D01*
G03X26685300I-314700J89700D01*
G02X26587600Y31775200I-97675J-27914D01*
G01X26474800D01*
Y30724800D01*
X27759800D01*
Y30523500D01*
X28320400Y29962900D01*
Y29410100D01*
X28185500Y29275200D01*
X27412400D01*
G02X27314700Y29404700I-25J101586D01*
G03X27320900Y29430400I-314733J89526D01*
G02X27463000Y29502800I99611J-19858D01*
G03X27595400Y30127200I136932J297202D01*
G02X27493900Y30210900I-1487J101590D01*
G03X26913900Y29952200I-322137J-57301D01*
G02X26873200Y29796000I-80070J-62539D01*
G03X26685300Y29404700I126778J-301642D01*
G02X26587600Y29275200I-97675J-27914D01*
G01X26474800D01*
Y28303900D01*
X26447700Y28289600D01*
G03X26913400Y28094000I152293J-289597D01*
G02X27010700Y28224800I97312J29201D01*
G01X27759800D01*
Y26775200D01*
X27412400D01*
G02X27314700Y26904700I-25J101586D01*
G03X26685300I-314700J89700D01*
G02X26587600Y26775200I-97675J-27914D01*
G01X26474800D01*
Y25724800D01*
X27759800D01*
Y24275200D01*
X27412400D01*
G02X27314700Y24404700I-25J101586D01*
G03X26685300I-314700J89700D01*
G02X26587600Y24275200I-97675J-27914D01*
G01X26474800D01*
Y23224800D01*
X27759800D01*
Y21775200D01*
X27412400D01*
G02X27314700Y21904700I-25J101586D01*
G03X26685300I-314700J89700D01*
G02X26587600Y21775200I-97675J-27914D01*
G01X26474800D01*
Y20724800D01*
X28525200D01*
Y21775200D01*
X28240200D01*
Y23224800D01*
X28525200D01*
Y24275200D01*
X28240200D01*
Y24951000D01*
G02X28399300Y25034700I101590J-44D01*
G03X28909400Y25343800I185281J269687D01*
G01X28906400Y25368400D01*
X29262900Y25724800D01*
X30259800D01*
Y24275200D01*
X28974800D01*
Y23224800D01*
X29087600D01*
G02X29185300Y23095300I25J-101586D01*
G03X29814700I314700J-89700D01*
G02X29912400Y23224800I97675J27914D01*
G01X30259800D01*
Y21775200D01*
X28974800D01*
Y20724800D01*
X29087600D01*
G02X29185300Y20595300I25J-101586D01*
G03X29814700I314700J-89700D01*
G02X29912400Y20724800I97675J27914D01*
G01X31025200D01*
Y21775200D01*
X30740200D01*
Y23224800D01*
X31025200D01*
Y24275200D01*
X30740200D01*
Y25724800D01*
X31025200D01*
Y25838800D01*
G02X31155600Y25936200I101585J-13D01*
G03X31343600Y25937000I92666J313801D01*
G02X31474800Y25839800I29589J-97207D01*
G01Y25724800D01*
X32759800D01*
Y24275200D01*
X31474800D01*
Y23224800D01*
X31587600D01*
G02X31685300Y23095300I25J-101586D01*
G03X32314700I314700J-89700D01*
G02X32412400Y23224800I97675J27914D01*
G01X32759800D01*
Y21775200D01*
X31474800D01*
Y20724800D01*
X31587600D01*
G02X31685300Y20595300I25J-101586D01*
G03X32314700I314700J-89700D01*
G02X32412400Y20724800I97675J27914D01*
G01X33525200D01*
Y21775200D01*
X33240200D01*
Y23224800D01*
X33525200D01*
Y24275200D01*
X33240200D01*
Y25724800D01*
X33525200D01*
Y25838600D01*
G02X33655400Y25936100I101610J-5D01*
G03X33843400Y25937200I92166J313917D01*
G02X33974800Y25840000I29784J-97154D01*
G01Y25724800D01*
X35259800D01*
Y24275200D01*
X33974800D01*
Y23224800D01*
X34087600D01*
G02X34185300Y23095300I25J-101586D01*
G03X34814700I314700J-89700D01*
G02X34912400Y23224800I97675J27914D01*
G01X35259800D01*
Y21775200D01*
X33974800D01*
Y20724800D01*
X34087600D01*
G02X34185300Y20595300I25J-101586D01*
G03X34814700I314700J-89700D01*
G02X34912400Y20724800I97675J27914D01*
G01X36025200D01*
Y21775200D01*
X35740200D01*
Y23224800D01*
X36025200D01*
Y24275200D01*
X35740200D01*
Y25724800D01*
X36025200D01*
Y25838300D01*
G02X36155200Y25935900I101602J47D01*
G03X36343300Y25937300I91717J314095D01*
G02X36474800Y25840300I29920J-97073D01*
G01Y25724800D01*
X37759800D01*
Y24275200D01*
X36474800D01*
Y23224800D01*
X36587600D01*
G02X36685300Y23095300I25J-101586D01*
G03X37314700I314700J-89700D01*
G02X37412400Y23224800I97675J27914D01*
G01X37759800D01*
Y21775200D01*
X36474800D01*
Y20724800D01*
X36587600D01*
G02X36685300Y20595300I25J-101586D01*
G03X37314700I314700J-89700D01*
G02X37412400Y20724800I97675J27914D01*
G01X38525200D01*
Y21775200D01*
X38240200D01*
Y23224800D01*
X38525200D01*
Y24275200D01*
X38240200D01*
Y25724800D01*
X38525200D01*
Y26775200D01*
X38240200D01*
Y28224800D01*
X38525200D01*
Y29275200D01*
X38240200D01*
Y30724800D01*
X38525200D01*
Y31775200D01*
X38240200D01*
Y33224800D01*
X38525200D01*
Y34275200D01*
X38240200D01*
Y35724800D01*
X38525200D01*
Y36775200D01*
X38240200D01*
Y37734400D01*
G03X38301500Y38083700I-240201J222183D01*
G02X38395100Y38224800I93605J39502D01*
G01X38525200D01*
Y39275200D01*
X36474800D01*
Y38224800D01*
X36597300D01*
G02X36692700Y38088300I-24J-101605D01*
G03X37307300I307300J-112300D01*
G02X37402700Y38224800I95424J34895D01*
G01X37604900D01*
G02X37698500Y38083700I-5J-101598D01*
G03X37759800Y37734400I301501J-127117D01*
G01Y36775200D01*
X37412400D01*
G02X37314700Y36904700I-25J101586D01*
G03X36685300I-314700J89700D01*
G02X36587600Y36775200I-97675J-27914D01*
G01X36474800D01*
Y35724800D01*
X37759800D01*
Y34275200D01*
X37412400D01*
G02X37314700Y34404700I-25J101586D01*
G03X36685300I-314700J89700D01*
G02X36587600Y34275200I-97675J-27914D01*
G01X36545000D01*
X36534300Y34311800D01*
G03X35906100I-314100J-91600D01*
G01X35895400Y34275200D01*
X35740200D01*
Y35724800D01*
X36025200D01*
Y36775200D01*
X35740200D01*
Y37734400D01*
G03X35801500Y38083700I-240201J222183D01*
G02X35895100Y38224800I93605J39502D01*
G01X36025200D01*
Y39275200D01*
X33974800D01*
Y38224800D01*
X34097300D01*
G02X34192700Y38088300I-24J-101605D01*
G03X34807300I307300J-112300D01*
G02X34902700Y38224800I95424J34895D01*
G01X35104900D01*
G02X35198500Y38083700I-5J-101598D01*
G03X35259800Y37734400I301501J-127117D01*
G01Y36775200D01*
X34912400D01*
G02X34814700Y36904700I-25J101586D01*
G03X34185300I-314700J89700D01*
G02X34087600Y36775200I-97675J-27914D01*
G01X33974800D01*
Y35724800D01*
X35259800D01*
Y34275200D01*
X33974800D01*
Y34146500D01*
G02X33841500Y34050000I-101596J22D01*
G03X33653400Y34055000I-102378J-310789D01*
G02X33525200Y34153000I-26619J98031D01*
G01Y34275200D01*
X33430700D01*
G02X33345600Y34432300I-17J101590D01*
G01Y35569500D01*
G02X33431900Y35724800I86257J53695D01*
G01X33525200D01*
Y36775200D01*
X33240200D01*
Y37734400D01*
G03X33301500Y38083700I-240201J222183D01*
G02X33395100Y38224800I93605J39502D01*
G01X33525200D01*
Y39275200D01*
X31474800D01*
Y38224800D01*
X31597300D01*
G02X31692700Y38088300I-24J-101605D01*
G03X31673100Y37989000I307322J-112244D01*
G02X31530900Y37899900I-101524J4006D01*
G03X31726900Y37587000I-130934J-299854D01*
G02X31869100Y37676100I101524J-4006D01*
G03X32307300Y38088300I130882J299883D01*
G02X32402700Y38224800I95424J34895D01*
G01X32604900D01*
G02X32698500Y38083700I-5J-101598D01*
G03X32759800Y37734400I301501J-127117D01*
G01Y36775200D01*
X32412400D01*
G02X32314700Y36904700I-25J101586D01*
G03X31685300I-314700J89700D01*
G02X31587600Y36775200I-97675J-27914D01*
G01X31474800D01*
Y35724800D01*
X32759800D01*
Y35472200D01*
X32865200Y35366800D01*
Y35088700D01*
G02X32735700Y34991000I-101599J-7D01*
G03X32615300Y35002200I-89985J-314589D01*
G02X32504300Y35105800I-9438J101152D01*
G03X32207700Y34787800I-327113J7780D01*
G02X32318700Y34684200I9438J-101152D01*
G03X32411700Y34447800I327105J-7810D01*
G02X32339000Y34275200I-72666J-71004D01*
G01X31551300D01*
G03X30998700I-276300J-175200D01*
G01X30756200D01*
G02X30680100Y34444000I63J101582D01*
G03X30740200Y34603000I-180122J158942D01*
G01Y35724800D01*
X31025200D01*
Y36775200D01*
X30740200D01*
Y37734400D01*
G03X30801500Y38083700I-240201J222183D01*
G02X30895100Y38224800I93605J39502D01*
G01X31025200D01*
Y39275200D01*
X28974800D01*
Y38276300D01*
X28941400Y38264100D01*
G03X28878700Y38233400I111716J-307540D01*
G02X28800800Y38276300I-27106J42957D01*
G01Y38288900D01*
X28525200Y38564500D01*
Y39275200D01*
X26474800D01*
Y38276000D01*
X26441500Y38263800D01*
G03X26338100Y38202400I112500J-307219D01*
G02X26169400Y38278700I-67088J76316D01*
G01Y38420300D01*
X26025200Y38564500D01*
Y39275200D01*
X23974800D01*
Y38224800D01*
X24048100D01*
Y38130400D01*
X24005000Y38123800D01*
G03X23838900Y38046200I49894J-323362D01*
G02X23670200Y38122500I-67088J76316D01*
G01Y38419500D01*
X23525200Y38564500D01*
Y39275200D01*
X21474800D01*
Y38512900D01*
X21257700Y38295800D01*
G02X21171000Y38331700I-35907J35924D01*
G01Y38418700D01*
X21025200Y38564500D01*
Y39275200D01*
X19833300D01*
G02X19760300Y39447400I35J101588D01*
G03X19838300Y39769100I-235308J227359D01*
G02X19935600Y39900000I97286J29298D01*
G01X39197600D01*
G02X39269200Y39726400I-36J-101580D01*
G03X39185300Y39404700I230788J-231981D01*
G02X39087600Y39275200I-97675J-27914D01*
G01X38974800D01*
Y38224800D01*
X39900000D01*
Y37302300D01*
G02X39727700Y37229400I-101591J44D01*
G03X39185300Y36904700I-227724J-234975D01*
G02X39087600Y36775200I-97675J-27914D01*
G01X38974800D01*
Y35724800D01*
X39900000D01*
Y34802300D01*
G02X39727700Y34729400I-101591J44D01*
G03X39185300Y34404700I-227724J-234975D01*
G02X39087600Y34275200I-97675J-27914D01*
G01X38974800D01*
Y33224800D01*
X39900000D01*
Y32302300D01*
G02X39727700Y32229400I-101591J44D01*
G03X39185300Y31904700I-227724J-234975D01*
G02X39087600Y31775200I-97675J-27914D01*
G01X38974800D01*
Y30724800D01*
X39900000D01*
Y29802300D01*
G02X39727700Y29729400I-101591J44D01*
G03X39185300Y29404700I-227724J-234975D01*
G02X39087600Y29275200I-97675J-27914D01*
G01X38974800D01*
Y28224800D01*
X39900000D01*
Y27302300D01*
G02X39727700Y27229400I-101591J44D01*
G03X39185300Y26904700I-227724J-234975D01*
G02X39087600Y26775200I-97675J-27914D01*
G01X38974800D01*
Y25724800D01*
X39900000D01*
Y24802300D01*
G02X39727700Y24729400I-101591J44D01*
G03X39185300Y24404700I-227724J-234975D01*
G02X39087600Y24275200I-97675J-27914D01*
G01X38974800D01*
Y23224800D01*
X39900000D01*
Y22302300D01*
G02X39727700Y22229400I-101591J44D01*
G03X39185300Y21904700I-227724J-234975D01*
G02X39087600Y21775200I-97675J-27914D01*
G01X38974800D01*
Y20724800D01*
X39900000D01*
Y19275200D01*
X38974800D01*
Y18216100D01*
G02X39035200Y18122300I-41194J-92872D01*
G03X39689600I327200J-3100D01*
G02X39791200Y18224800I101588J908D01*
G01X39900000D01*
Y16775200D01*
X38974800D01*
Y15724800D01*
X39089500D01*
G02X39186800Y15593800I40J-101605D01*
G03X39727700Y15264200I313222J-94608D01*
G02X39900000Y15191300I70709J-72944D01*
G01Y14275200D01*
X38974800D01*
Y13224800D01*
X39089500D01*
G02X39186800Y13093800I40J-101605D01*
G03X39727700Y12764200I313222J-94608D01*
G02X39900000Y12691300I70709J-72944D01*
G01Y11775200D01*
X38974800D01*
Y10724800D01*
X39089500D01*
G02X39186800Y10593800I40J-101605D01*
G03X39727700Y10264200I313222J-94608D01*
G02X39900000Y10191300I70709J-72944D01*
G01Y9275200D01*
X38974800D01*
Y8224800D01*
X39089500D01*
G02X39186800Y8093800I40J-101605D01*
G03X39727700Y7764200I313222J-94608D01*
G02X39900000Y7691300I70709J-72944D01*
G01Y6775200D01*
X38974800D01*
Y5724800D01*
X39089500D01*
G02X39186800Y5593800I40J-101605D01*
G03X39727700Y5264200I313222J-94608D01*
G02X39900000Y5191300I70709J-72944D01*
G01Y4275200D01*
X38974800D01*
Y4063100D01*
G02X38803800Y3988900I-101592J-16D01*
G37*
G36*
G01X1305300Y21493400D02*
G03X1117300Y21575800I-218729J-243375D01*
G02X1025200Y21676900I9482J101139D01*
G01Y21775200D01*
X740200D01*
Y23224800D01*
X1025200D01*
Y23341000D01*
G02X1157300Y23437900I101592J-3D01*
G03X1345300Y23435300I98334J312091D01*
G02X1474800Y23337600I27914J-97675D01*
G01Y23224800D01*
X2759800D01*
Y21775200D01*
X2412400D01*
G02X2314700Y21904700I-25J101586D01*
G03X1685300I-314700J89700D01*
G02X1587600Y21775200I-97675J-27914D01*
G01X1474800D01*
Y21568900D01*
G02X1305300Y21493400I-101590J56D01*
G37*
G36*
G01X1345300Y24064700D02*
G03X1157300Y24062100I-89666J-314691D01*
G02X1025200Y24159000I-30508J96903D01*
G01Y24275200D01*
X740200D01*
Y25724800D01*
X1025200D01*
Y25841000D01*
G02X1157300Y25937900I101592J-3D01*
G03X1345300Y25935300I98334J312091D01*
G02X1474800Y25837600I27914J-97675D01*
G01Y25724800D01*
X2759800D01*
Y24275200D01*
X1474800D01*
Y24162400D01*
G02X1345300Y24064700I-101586J-25D01*
G37*
G36*
G01Y26564700D02*
G03X1157300Y26562100I-89666J-314691D01*
G02X1025200Y26659000I-30508J96903D01*
G01Y26775200D01*
X740200D01*
Y28224800D01*
X1025200D01*
Y28341000D01*
G02X1157300Y28437900I101592J-3D01*
G03X1345300Y28435300I98334J312091D01*
G02X1474800Y28337600I27914J-97675D01*
G01Y28224800D01*
X2759800D01*
Y26775200D01*
X1474800D01*
Y26662400D01*
G02X1345300Y26564700I-101586J-25D01*
G37*
G36*
G01Y29064700D02*
G03X1157300Y29062100I-89666J-314691D01*
G02X1025200Y29159000I-30508J96903D01*
G01Y29275200D01*
X740200D01*
Y30724800D01*
X1025200D01*
Y30841000D01*
G02X1157300Y30937900I101592J-3D01*
G03X1345300Y30935300I98334J312091D01*
G02X1474800Y30837600I27914J-97675D01*
G01Y30724800D01*
X2759800D01*
Y29275200D01*
X1474800D01*
Y29162400D01*
G02X1345300Y29064700I-101586J-25D01*
G37*
G36*
G01Y31564700D02*
G03X1157300Y31562100I-89666J-314691D01*
G02X1025200Y31659000I-30508J96903D01*
G01Y31775200D01*
X740200D01*
Y33224800D01*
X1025200D01*
Y33341000D01*
G02X1157300Y33437900I101592J-3D01*
G03X1345300Y33435300I98334J312091D01*
G02X1474800Y33337600I27914J-97675D01*
G01Y33224800D01*
X2759800D01*
Y31775200D01*
X1474800D01*
Y31662400D01*
G02X1345300Y31564700I-101586J-25D01*
G37*
G36*
G01X1157300Y34062100D02*
G02X1025200Y34159000I-30508J96903D01*
G01Y34275200D01*
X740200D01*
Y35724800D01*
X1025200D01*
Y36775200D01*
X740200D01*
Y38224800D01*
X1025200D01*
Y39275200D01*
X100000D01*
Y39900000D01*
X1697600D01*
G02X1769200Y39726400I-36J-101580D01*
G03X1685300Y39404700I230788J-231981D01*
G02X1587600Y39275200I-97675J-27914D01*
G01X1474800D01*
Y38224800D01*
X2759800D01*
Y36775200D01*
X2412400D01*
G02X2314700Y36904700I-25J101586D01*
G03X1685300I-314700J89700D01*
G02X1587600Y36775200I-97675J-27914D01*
G01X1474800D01*
Y35724800D01*
X2759800D01*
Y35499500D01*
X2459800Y35199500D01*
Y34275200D01*
X1474800D01*
Y34162400D01*
G02X1345300Y34064700I-101586J-25D01*
G03X1157300Y34062100I-89666J-314691D01*
G37*
G36*
G01X3657300D02*
G02X3525200Y34159000I-30508J96903D01*
G01Y34286100D01*
G02X3486400Y34432900I45884J90655D01*
G03X3536000Y34669600I-272790J180709D01*
G02X3625800Y34788100I100085J17430D01*
G03X3401200Y35379000I-33209J325512D01*
G02X3240200Y35461400I-59409J82410D01*
G01Y35724800D01*
X3525200D01*
Y36775200D01*
X3240200D01*
Y38224800D01*
X3525200D01*
Y39275200D01*
X2412400D01*
G02X2314700Y39404700I-25J101586D01*
G03X2230800Y39726400I-314688J89719D01*
G02X2302400Y39900000I71636J72020D01*
G01X4197600D01*
G02X4269200Y39726400I-36J-101580D01*
G03X4185300Y39404700I230788J-231981D01*
G02X4087600Y39275200I-97675J-27914D01*
G01X3974800D01*
Y38224800D01*
X5259800D01*
Y36775200D01*
X4912400D01*
G02X4814700Y36904700I-25J101586D01*
G03X4185300I-314700J89700D01*
G02X4087600Y36775200I-97675J-27914D01*
G01X3974800D01*
Y35724800D01*
X5259800D01*
Y34275200D01*
X3974800D01*
Y34162400D01*
G02X3845300Y34064700I-101586J-25D01*
G03X3657300Y34062100I-89666J-314691D01*
G37*
G36*
G01X4735600Y272100D02*
G03X4813200Y593800I-235612J227043D01*
G02X4910500Y724800I97260J29395D01*
G01X6025200D01*
Y1775200D01*
X5740200D01*
Y3224800D01*
X6025200D01*
Y4275200D01*
X5740200D01*
Y5724800D01*
X6025200D01*
Y6775200D01*
X5740200D01*
Y8224800D01*
X6025200D01*
Y8935500D01*
X6300800Y9211100D01*
Y10788900D01*
X6025200Y11064500D01*
Y11775200D01*
X5740200D01*
Y13224800D01*
X6025200D01*
Y14089600D01*
G02X6176400Y14178300I101604J23D01*
G03X6364400Y14137800I159864J285487D01*
G02X6474800Y14036600I8809J-101208D01*
G01Y13224800D01*
X6589500D01*
G02X6686800Y13093800I40J-101605D01*
G03X7313200I313200J-94600D01*
G02X7410500Y13224800I97260J29395D01*
G01X7759800D01*
Y11775200D01*
X6474800D01*
Y10724800D01*
X6589500D01*
G02X6686800Y10593800I40J-101605D01*
G03X7177900Y10224600I313217J-94592D01*
G02X7334800Y10139400I55300J-85232D01*
G01Y9275200D01*
X6474800D01*
Y8224800D01*
X6589500D01*
G02X6686800Y8093800I40J-101605D01*
G03X7313200I313200J-94600D01*
G02X7410500Y8224800I97260J29395D01*
G01X7759800D01*
Y6775200D01*
X6474800D01*
Y5724800D01*
X6589500D01*
G02X6686800Y5593800I40J-101605D01*
G03X7313200I313200J-94600D01*
G02X7410500Y5724800I97260J29395D01*
G01X7759800D01*
Y4275200D01*
X6474800D01*
Y3224800D01*
X6589500D01*
G02X6686800Y3093800I40J-101605D01*
G03X7313200I313200J-94600D01*
G02X7410500Y3224800I97260J29395D01*
G01X7759800D01*
Y1775200D01*
X6474800D01*
Y724800D01*
X6589500D01*
G02X6686800Y593800I40J-101605D01*
G03X6764400Y272100I313212J-94657D01*
G02X6691300Y100000I-73126J-70514D01*
G01X4808700D01*
G02X4735600Y272100I26J101586D01*
G37*
G36*
G01X3913400Y11906000D02*
G03X3403000Y12261200I-313400J93970D01*
G02X3240200Y12342300I-61190J81119D01*
G01Y13224800D01*
X3525200D01*
Y14049200D01*
G02X3652700Y14147400I101586J-25D01*
G03X3840700Y14153800I83338J316394D01*
G02X3974800Y14057500I32483J-96285D01*
G01Y13224800D01*
X4089500D01*
G02X4186800Y13093800I40J-101605D01*
G03X4813200I313200J-94600D01*
G02X4910500Y13224800I97260J29395D01*
G01X5259800D01*
Y11775200D01*
X4010700D01*
G02X3913400Y11906000I12J101599D01*
G37*
G36*
G01X4053900Y14672500D02*
G03X3610000Y14822300I-148915J291323D01*
G02X3587300Y14755100I-45837J-21950D01*
G03X3415800Y14397400I148887J-291347D01*
G02X3316300Y14275200I-99483J-20606D01*
G01X3240200D01*
Y15724800D01*
X3525200D01*
Y16775200D01*
X3240200D01*
Y18224800D01*
X3525200D01*
Y18337200D01*
G02X3654300Y18435000I101598J-5D01*
G03X3842300Y18438300I88500J315001D01*
G02X3974800Y18341500I30902J-96785D01*
G01Y18224800D01*
X4089500D01*
G02X4186800Y18093800I40J-101605D01*
G03X4813200I313200J-94600D01*
G02X4910500Y18224800I97260J29395D01*
G01X5259800D01*
Y16775200D01*
X4910500D01*
G02X4813200Y16906200I-40J101605D01*
G03X4186800I-313200J94600D01*
G02X4089500Y16775200I-97260J-29395D01*
G01X3974800D01*
Y15724800D01*
X5259800D01*
Y14275200D01*
X4156100D01*
G02X4056600Y14397400I-17J101594D01*
G03X4031200Y14605300I-320397J66357D01*
G02X4053900Y14672500I45837J21950D01*
G37*
G36*
G01X3843700Y20775300D02*
G03X3655700Y20775900I-95000J-313101D01*
G02X3525200Y20873300I-28911J97388D01*
G01Y21775200D01*
X3240200D01*
Y22289100D01*
X3335600D01*
X3350700Y22272500D01*
G03Y22713100I241900J220300D01*
G01X3335600Y22696500D01*
X3240200D01*
Y23224800D01*
X3525200D01*
Y24275200D01*
X3240200D01*
Y25724800D01*
X3525200D01*
Y25841000D01*
G02X3657300Y25937900I101592J-3D01*
G03X3845300Y25935300I98334J312091D01*
G02X3974800Y25837600I27914J-97675D01*
G01Y25724800D01*
X5259800D01*
Y24275200D01*
X3974800D01*
Y23224800D01*
X4087600D01*
G02X4185300Y23095300I25J-101586D01*
G03X4814700I314700J-89700D01*
G02X4912400Y23224800I97675J27914D01*
G01X5071300D01*
G02X5172900Y23121000I18J-101605D01*
G03X5259800Y22891800I327120J-7048D01*
G01Y22500600D01*
X5234800Y22475600D01*
Y21924400D01*
X5259800Y21899400D01*
Y21775200D01*
X4912400D01*
G02X4814700Y21904700I-25J101586D01*
G03X4185300I-314700J89700D01*
G02X4087600Y21775200I-97675J-27914D01*
G01X3974800D01*
Y20872600D01*
G02X3843700Y20775300I-101608J-66D01*
G37*
G36*
G01X3657300Y26562100D02*
G02X3525200Y26659000I-30508J96903D01*
G01Y26775200D01*
X3240200D01*
Y28224800D01*
X3525200D01*
Y29077500D01*
G02X3644100Y29177600I101593J-9D01*
G03X3832200Y29200700I55876J322396D01*
G02X3974800Y29107700I41002J-92957D01*
G01Y28224800D01*
X5259800D01*
Y26775200D01*
X3974800D01*
Y26662400D01*
G02X3845300Y26564700I-101586J-25D01*
G03X3657300Y26562100I-89666J-314691D01*
G37*
G36*
G01X3240200Y29275200D02*
Y29986400D01*
G02X3401200Y30068800I101591J-10D01*
G03X3618700Y30660400I191370J265425D01*
G02X3525200Y30761600I8083J101261D01*
G01Y31775200D01*
X3240200D01*
Y32267400D01*
G02X3396900Y32352700I101589J-40D01*
G03Y32902500I177500J274900D01*
G02X3240200Y32987800I-55111J85340D01*
G01Y33224800D01*
X3525200D01*
Y33341000D01*
G02X3657300Y33437900I101592J-3D01*
G03X3845300Y33435300I98334J312091D01*
G02X3974800Y33337600I27914J-97675D01*
G01Y33224800D01*
X5259800D01*
Y32693200D01*
X5820400Y32132600D01*
Y31910100D01*
X5685500Y31775200D01*
X4926800D01*
G02X4825600Y31866900I-74J101611D01*
G03X4174400I-325600J-31900D01*
G02X4073200Y31775200I-101126J9911D01*
G01X3974800D01*
Y30724800D01*
X5259800D01*
Y29275200D01*
X4912400D01*
G02X4814700Y29404700I-25J101586D01*
G03X4185300I-314700J89700D01*
G02X4087600Y29275200I-97675J-27914D01*
G01X3984800D01*
Y29338400D01*
X3990500Y29349400D01*
G03X3409500I-290500J150600D01*
G01X3415200Y29338400D01*
Y29275200D01*
X3240200D01*
G37*
G36*
G01X6886400Y34432900D02*
G03X6525800Y34928800I-272787J180697D01*
G02X6399000Y35047300I-27318J97860D01*
G03X5897900Y35386400I-320412J66312D01*
G02X5740200Y35471100I-56109J84690D01*
G01Y35724800D01*
X6025200D01*
Y36775200D01*
X5740200D01*
Y38224800D01*
X6025200D01*
Y39275200D01*
X4912400D01*
G02X4814700Y39404700I-25J101586D01*
G03X4730800Y39726400I-314688J89719D01*
G02X4802400Y39900000I71636J72020D01*
G01X6697600D01*
G02X6769200Y39726400I-36J-101580D01*
G03X6685300Y39404700I230788J-231981D01*
G02X6587600Y39275200I-97675J-27914D01*
G01X6474800D01*
Y38224800D01*
X7759800D01*
Y36775200D01*
X7412400D01*
G02X7314700Y36904700I-25J101586D01*
G03X6685300I-314700J89700D01*
G02X6587600Y36775200I-97675J-27914D01*
G01X6474800D01*
Y35724800D01*
X7759800D01*
Y34275200D01*
X6971100D01*
G02X6886400Y34432900I-10J101591D01*
G37*
G36*
G01X7235600Y272100D02*
G03X7313200Y593800I-235612J227043D01*
G02X7410500Y724800I97260J29395D01*
G01X8525200D01*
Y1775200D01*
X8240200D01*
Y3224800D01*
X8525200D01*
Y4275200D01*
X8240200D01*
Y5724800D01*
X8525200D01*
Y6775200D01*
X8240200D01*
Y8224800D01*
X8525200D01*
Y9275200D01*
X8040200D01*
Y9298400D01*
X7815200Y9523400D01*
Y10075400D01*
X8240200Y10500400D01*
Y10724800D01*
X8525200D01*
Y11775200D01*
X8240200D01*
Y13224800D01*
X8525200D01*
Y14275200D01*
X8240200D01*
Y15724800D01*
X8525200D01*
Y16775200D01*
X8240200D01*
Y18224800D01*
X8525200D01*
Y18336700D01*
G02X8653900Y18434700I101609J69D01*
G03X8841900Y18438700I87334J315310D01*
G02X8974800Y18342000I31297J-96662D01*
G01Y18224800D01*
X9089500D01*
G02X9186800Y18093800I40J-101605D01*
G03X9813200I313200J-94600D01*
G02X9910500Y18224800I97260J29395D01*
G01X10259800D01*
Y17600600D01*
X10234800Y17575600D01*
Y17024400D01*
X10259800Y16999400D01*
Y16775200D01*
X9910500D01*
G02X9813200Y16906200I-40J101605D01*
G03X9186800I-313200J94600D01*
G02X9089500Y16775200I-97260J-29395D01*
G01X8974800D01*
Y15685100D01*
G03X8895100Y15398900I240999J-221310D01*
G02X8821100Y15280500I-99585J-20084D01*
G03X8958200Y14641200I82300J-316701D01*
G02X9075900Y14555000I17074J-100142D01*
G03X9120600Y14429700I324098J44997D01*
G02X9033900Y14275200I-86730J-52906D01*
G01X8974800D01*
Y13224800D01*
X9089500D01*
G02X9186800Y13093800I40J-101605D01*
G03X9813200I313200J-94600D01*
G02X9910500Y13224800I97260J29395D01*
G01X10259800D01*
Y11775200D01*
X8974800D01*
Y10724800D01*
X9089500D01*
G02X9186800Y10593800I40J-101605D01*
G03X9790100Y10650500I313207J-94617D01*
G01X9784400Y10661600D01*
Y10724800D01*
X9934800D01*
Y9925600D01*
X10259400Y9601000D01*
Y9275200D01*
X8974800D01*
Y8224800D01*
X9089500D01*
G02X9186800Y8093800I40J-101605D01*
G03X9813200I313200J-94600D01*
G02X9910500Y8224800I97260J29395D01*
G01X10259800D01*
Y6775200D01*
X8974800D01*
Y5724800D01*
X9089500D01*
G02X9186800Y5593800I40J-101605D01*
G03X9813200I313200J-94600D01*
G02X9910500Y5724800I97260J29395D01*
G01X10259800D01*
Y4275200D01*
X8974800D01*
Y3224800D01*
X9089500D01*
G02X9186800Y3093800I40J-101605D01*
G03X9813200I313200J-94600D01*
G02X9910500Y3224800I97260J29395D01*
G01X10259800D01*
Y1775200D01*
X8974800D01*
Y724800D01*
X9089500D01*
G02X9186800Y593800I40J-101605D01*
G03X9264400Y272100I313212J-94657D01*
G02X9191300Y100000I-73126J-70514D01*
G01X7308700D01*
G02X7235600Y272100I26J101586D01*
G37*
G36*
G01X5740200Y14275200D02*
Y15724800D01*
X5849900D01*
G02X5944200Y15585400I14J-101586D01*
G03X6283200Y15138500I303780J-121591D01*
G02X6394300Y15020000I11007J-101012D01*
G03X6394200Y14907900I322304J-56338D01*
G02X6304100Y14789400I-100101J-17393D01*
G03X6015800Y14397400I32091J-325618D01*
G02X5916300Y14275200I-99483J-20606D01*
G01X5740200D01*
G37*
G36*
G01X6756100D02*
G02X6656600Y14397400I-17J101594D01*
G03X6658600Y14519700I-320397J66406D01*
G02X6748700Y14638200I100101J17393D01*
G03X6681400Y15289100I-32101J325610D01*
G02X6570300Y15407600I-11007J101012D01*
G03X6551800Y15585400I-322314J56326D01*
G02X6646100Y15724800I94286J37814D01*
G01X7759800D01*
Y14275200D01*
X6756100D01*
G37*
G36*
G01X6343500Y15776700D02*
G03X6155500Y15777700I-95667J-312899D01*
G02X6025200Y15875100I-28718J97438D01*
G01Y16775200D01*
X5740200D01*
Y18224800D01*
X6025200D01*
Y18323200D01*
G02X6117100Y18424300I101597J-33D01*
G03X6305100Y18507200I-31337J325688D01*
G02X6474800Y18431800I68095J-75409D01*
G01Y18224800D01*
X6589500D01*
G02X6686800Y18093800I40J-101605D01*
G03X7313200I313200J-94600D01*
G02X7410500Y18224800I97260J29395D01*
G01X7759800D01*
Y16775200D01*
X7410500D01*
G02X7313200Y16906200I-40J101605D01*
G03X6686800I-313200J94600D01*
G02X6589500Y16775200I-97260J-29395D01*
G01X6474800D01*
Y15873900D01*
G02X6343500Y15776700I-101614J-19D01*
G37*
G36*
G01X8974800Y24182900D02*
X8893600D01*
X8879300Y24209600D01*
G03X8363100Y24289600I-288288J-154789D01*
G01X8348300Y24275200D01*
X8240200D01*
Y25724800D01*
X8525200D01*
Y25841000D01*
G02X8657300Y25937900I101592J-3D01*
G03X8845300Y25935300I98334J312091D01*
G02X8974800Y25837600I27914J-97675D01*
G01Y25724800D01*
X10259800D01*
Y24275200D01*
X8974800D01*
Y24182900D01*
G37*
G36*
G01X8657300Y26562100D02*
G02X8525200Y26659000I-30508J96903D01*
G01Y26775200D01*
X8240200D01*
Y28224800D01*
X8525200D01*
Y29275200D01*
X8240200D01*
Y30724800D01*
X8525200D01*
Y31775200D01*
X7940200D01*
Y32723500D01*
X8240200Y33023500D01*
Y33224800D01*
X8525200D01*
Y33341000D01*
G02X8657300Y33437900I101592J-3D01*
G03X8845300Y33435300I98334J312091D01*
G02X8974800Y33337600I27914J-97675D01*
G01Y33335600D01*
G02X8921200Y33284900I-50804J27D01*
G03X8918700Y32631400I-17800J-326687D01*
G01X8941100Y32632400D01*
X9296300Y32277200D01*
Y31775200D01*
X8974800D01*
Y30652100D01*
X8942200Y30639600D01*
G03X8818700Y30112700I117379J-305436D01*
G02X8804600Y29962500I-74765J-68743D01*
G03X8952500Y29376300I195386J-262461D01*
G01X8996000Y29369900D01*
Y29275200D01*
X8974800D01*
Y28224800D01*
X10259800D01*
Y26775200D01*
X8974800D01*
Y26662400D01*
G02X8845300Y26564700I-101586J-25D01*
G03X8657300Y26562100I-89666J-314691D01*
G37*
G36*
G01X6157300D02*
G02X6025200Y26659000I-30508J96903D01*
G01Y26775200D01*
X5740200D01*
Y28224800D01*
X6025200D01*
Y29275200D01*
X5740200D01*
Y30724800D01*
X6025200D01*
Y31435500D01*
X6300800Y31711100D01*
Y32222200D01*
G02X6435500Y32318300I101601J41D01*
G03X6566700Y32301300I106777J309289D01*
G02X6675200Y32187700I7654J-101304D01*
G03X6779700Y31906300I324800J-39486D01*
G01X6796300Y31891200D01*
Y31775200D01*
X6474800D01*
Y30730500D01*
G02X6380500Y30629100I-101610J-53D01*
G03X6215100Y30035800I23725J-326319D01*
G02X6214100Y29869300I-58724J-82900D01*
G03X6379600Y29273400I185867J-269311D01*
G02X6474800Y29172000I-6385J-101384D01*
G01Y28224800D01*
X7759800D01*
Y26775200D01*
X6474800D01*
Y26662400D01*
G02X6345300Y26564700I-101586J-25D01*
G03X6157300Y26562100I-89666J-314691D01*
G37*
G36*
G01X7412400Y29275200D02*
G02X7314700Y29404700I-25J101586D01*
G03X6811000Y29761500I-314676J89707D01*
G02X6668800Y29786500I-58719J82922D01*
G03X6589100Y29867000I-268844J-186469D01*
G02X6590100Y30033500I58724J82900D01*
G03X6621700Y30547300I-185880J269304D01*
G02X6689200Y30724800I67497J75917D01*
G01X7759800D01*
Y29275200D01*
X7412400D01*
G37*
G36*
G01X8657300Y34062100D02*
G02X8525200Y34159000I-30508J96903D01*
G01Y34275200D01*
X8240200D01*
Y35724800D01*
X8525200D01*
Y36775200D01*
X8240200D01*
Y38224800D01*
X8525200D01*
Y39275200D01*
X7412400D01*
G02X7314700Y39404700I-25J101586D01*
G03X7230800Y39726400I-314688J89719D01*
G02X7302400Y39900000I71636J72020D01*
G01X9197600D01*
G02X9269200Y39726400I-36J-101580D01*
G03X9185300Y39404700I230788J-231981D01*
G02X9087600Y39275200I-97675J-27914D01*
G01X8974800D01*
Y38224800D01*
X10259800D01*
Y36775200D01*
X9912400D01*
G02X9814700Y36904700I-25J101586D01*
G03X9185300I-314700J89700D01*
G02X9087600Y36775200I-97675J-27914D01*
G01X8974800D01*
Y35724800D01*
X10259800D01*
Y34275200D01*
X10071100D01*
G02X9986400Y34432900I-10J101591D01*
G03X9440800I-272800J180700D01*
G02X9356100Y34275200I-84690J-56109D01*
G01X8974800D01*
Y34162400D01*
G02X8845300Y34064700I-101586J-25D01*
G03X8657300Y34062100I-89666J-314691D01*
G37*
G36*
G01X6157300D02*
G02X6025200Y34159000I-30508J96903D01*
G01Y34275200D01*
X5740200D01*
Y34756100D01*
G02X5897900Y34840800I101591J10D01*
G03X6166400Y34798400I180677J272800D01*
G02X6293200Y34679900I27318J-97860D01*
G03X6474800Y34317300I320407J-66307D01*
G01Y34162400D01*
G02X6345300Y34064700I-101586J-25D01*
G03X6157300Y34062100I-89666J-314691D01*
G37*
G36*
G01X7203700Y31775200D02*
Y31891200D01*
X7220300Y31906300D01*
G03X6975500Y32474500I-220308J241918D01*
G02X6867000Y32588100I-7654J101304D01*
G03X6403500Y32924000I-324817J39529D01*
G02X6259800Y33002300I-43044J92016D01*
G03X6057100Y33262000I-324209J-44095D01*
G01X6025200Y33274800D01*
Y33341000D01*
G02X6157300Y33437900I101592J-3D01*
G03X6345300Y33435300I98334J312091D01*
G02X6474800Y33337600I27914J-97675D01*
G01Y33224800D01*
X7516800D01*
G02X7588700Y33051400I27J-101595D01*
G01X7459800Y32922500D01*
Y31775200D01*
X7203700D01*
G37*
G36*
G01X9735600Y272100D02*
G03X9813200Y593800I-235612J227043D01*
G02X9910500Y724800I97260J29395D01*
G01X11025200D01*
Y1775200D01*
X10740200D01*
Y3224800D01*
X11025200D01*
Y4275200D01*
X10740200D01*
Y5724800D01*
X11025200D01*
Y6775200D01*
X10740200D01*
Y8224800D01*
X11025200D01*
Y9275200D01*
X10740200D01*
Y9476500D01*
X10739800Y9476900D01*
Y9800000D01*
X10415200Y10124600D01*
Y10676600D01*
X10463400Y10724800D01*
X11025200D01*
Y11775200D01*
X10740200D01*
Y13224800D01*
X10870300D01*
X10873600Y13177500D01*
G03X11526400I326400J22500D01*
G01X11529700Y13224800D01*
X11589500D01*
G02X11686800Y13093800I40J-101605D01*
G03X12313200I313200J-94600D01*
G02X12410500Y13224800I97260J29395D01*
G01X12759800D01*
Y11775200D01*
X11474800D01*
Y10724800D01*
X11589500D01*
G02X11686800Y10593800I40J-101605D01*
G03X12313200I313200J-94600D01*
G02X12410500Y10724800I97260J29395D01*
G01X12759800D01*
Y9275200D01*
X11474800D01*
Y8224800D01*
X11589500D01*
G02X11686800Y8093800I40J-101605D01*
G03X12313200I313200J-94600D01*
G02X12410500Y8224800I97260J29395D01*
G01X12759800D01*
Y6775200D01*
X11474800D01*
Y5724800D01*
X11589500D01*
G02X11686800Y5593800I40J-101605D01*
G03X12313200I313200J-94600D01*
G02X12410500Y5724800I97260J29395D01*
G01X12759800D01*
Y4275200D01*
X11474800D01*
Y3224800D01*
X11589500D01*
G02X11686800Y3093800I40J-101605D01*
G03X12313200I313200J-94600D01*
G02X12410500Y3224800I97260J29395D01*
G01X12759800D01*
Y1775200D01*
X11474800D01*
Y724800D01*
X11589500D01*
G02X11686800Y593800I40J-101605D01*
G03X11764400Y272100I313212J-94657D01*
G02X11691300Y100000I-73126J-70514D01*
G01X9808700D01*
G02X9735600Y272100I26J101586D01*
G37*
G36*
G01X11474800Y13592300D02*
G02X11332200Y13499300I-101598J-43D01*
G03X11144100Y13522400I-132224J-299296D01*
G02X11025200Y13622500I-17307J100109D01*
G01Y14275200D01*
X10740200D01*
Y15724800D01*
X11025200D01*
Y16775200D01*
X10740200D01*
Y17198400D01*
X10715200Y17223400D01*
Y17376600D01*
X10740200Y17401600D01*
Y18224800D01*
X10870300D01*
X10873600Y18177500D01*
G03X11526400I326400J22500D01*
G01X11529700Y18224800D01*
X11589500D01*
G02X11686800Y18093800I40J-101605D01*
G03X12313200I313200J-94600D01*
G02X12410500Y18224800I97260J29395D01*
G01X12759800D01*
Y16775200D01*
X12410500D01*
G02X12313200Y16906200I-40J101605D01*
G03X11686800I-313200J94600D01*
G02X11589500Y16775200I-97260J-29395D01*
G01X11474800D01*
Y15724800D01*
X12759800D01*
Y15251000D01*
G02X12582800Y15183000I-101578J40D01*
G03Y14744600I-243000J-219200D01*
G02X12759800Y14676600I75422J-68040D01*
G01Y14275200D01*
X11474800D01*
Y13592300D01*
G37*
G36*
G01X9679400Y14429700D02*
G03X9345200Y14922600I-279393J170312D01*
G02X9227500Y15008800I-17074J100142D01*
G03X9224100Y15028700I-324076J-45129D01*
G02X9298100Y15147100I99585J20084D01*
G03X9519600Y15585400I-82284J316702D01*
G02X9613900Y15724800I94286J37814D01*
G01X10259800D01*
Y14275200D01*
X9766100D01*
G02X9679400Y14429700I30J101594D01*
G37*
G36*
G01X11469600Y26775200D02*
G02X11343200Y26710400I-96342J32248D01*
G03X11155100Y26712000I-96716J-312594D01*
G02X11031200Y26775200I-28296J97576D01*
G01X10740200D01*
Y28224800D01*
X11025200D01*
Y29275200D01*
X10740200D01*
Y30724800D01*
X11025200D01*
Y31775200D01*
X10740200D01*
Y33224800D01*
X10850600D01*
G02X10944400Y33084100I26J-101599D01*
G03X11539600Y32812900I301972J-126004D01*
G02X11718100Y32819400I91011J-45099D01*
G03X12309900Y33090600I281916J166116D01*
G02X12406100Y33224800I96221J32605D01*
G01X12759800D01*
Y33122900D01*
X12748100Y33108800D01*
G03X12759800Y32677800I251900J-208821D01*
G01Y31775200D01*
X12412600D01*
G02X12314800Y31904500I-38J101608D01*
G03X11685200I-314800J89100D01*
G02X11587400Y31775200I-97762J-27692D01*
G01X11474800D01*
Y30724800D01*
X11866800D01*
G02X11941900Y30554700I48J-101607D01*
G03X12425300I241700J-220500D01*
G02X12500400Y30724800I75052J68493D01*
G01X12759800D01*
Y29275200D01*
X12412400D01*
G02X12314700Y29404700I-25J101586D01*
G03X11685300I-314700J89700D01*
G02X11587600Y29275200I-97675J-27914D01*
G01X11474800D01*
Y28224800D01*
X11787200D01*
G02X11881100Y28084500I-39J-101599D01*
G03X12486100I302500J-124700D01*
G02X12580000Y28224800I93939J38701D01*
G01X12759800D01*
Y26775200D01*
X12412100D01*
G02X12314500Y26904900I30J101595D01*
G03X11685500I-314500J90300D01*
G02X11587900Y26775200I-97630J-28105D01*
G01X11469600D01*
G37*
G36*
G01X9912400Y29275200D02*
G02X9814700Y29404700I-25J101586D01*
G03X9405800Y29807800I-314686J89728D01*
G02X9287400Y29856500I-29205J97274D01*
G03X9240900Y29921500I-287401J-156469D01*
G02X9255000Y30071700I74765J68743D01*
G03X9301300Y30554700I-195402J262450D01*
G02X9376400Y30724800I75052J68493D01*
G01X10259800D01*
Y29275200D01*
X9912400D01*
G37*
G36*
G01X11343200Y33270800D02*
G03X11155100Y33272400I-96716J-312594D01*
G02X11025200Y33370000I-28302J97577D01*
G01Y34275200D01*
X10740200D01*
Y35724800D01*
X11025200D01*
Y36775200D01*
X10740200D01*
Y38224800D01*
X11025200D01*
Y39275200D01*
X9912400D01*
G02X9814700Y39404700I-25J101586D01*
G03X9730800Y39726400I-314688J89719D01*
G02X9802400Y39900000I71636J72020D01*
G01X11697600D01*
G02X11769200Y39726400I-36J-101580D01*
G03X11685300Y39404700I230788J-231981D01*
G02X11587600Y39275200I-97675J-27914D01*
G01X11474800D01*
Y38224800D01*
X12759800D01*
Y36775200D01*
X12412400D01*
G02X12314700Y36904700I-25J101586D01*
G03X11685300I-314700J89700D01*
G02X11587600Y36775200I-97675J-27914D01*
G01X11474800D01*
Y35724800D01*
X12759800D01*
Y34275200D01*
X11474800D01*
Y33367800D01*
G02X11343200Y33270800I-101582J45D01*
G37*
G36*
G01X9703700Y32446000D02*
X9229200Y32920500D01*
X9230200Y32942900D01*
G03X9205400Y33084100I-326822J15376D01*
G02X9299200Y33224800I93774J39101D01*
G01X10259800D01*
Y31775200D01*
X9703700D01*
Y32446000D01*
G37*
G36*
G01X12235600Y272100D02*
G03X12313200Y593800I-235612J227043D01*
G02X12410500Y724800I97260J29395D01*
G01X13525200D01*
Y1775200D01*
X13240200D01*
Y3224800D01*
X13525200D01*
Y4275200D01*
X13240200D01*
Y5724800D01*
X13525200D01*
Y6464400D01*
G02X13654900Y6562000I101590J-23D01*
G03X13843000Y6564000I90718J314391D01*
G02X13974800Y6467000I30214J-96989D01*
G01Y5724800D01*
X14089500D01*
G02X14186800Y5593800I40J-101605D01*
G03X14813200I313200J-94600D01*
G02X14910500Y5724800I97260J29395D01*
G01X15259800D01*
Y4275200D01*
X14910500D01*
G02X14813200Y4406200I-40J101605D01*
G03X14186800I-313200J94600D01*
G02X14089500Y4275200I-97260J-29395D01*
G01X13974800D01*
Y3224800D01*
X15259800D01*
Y1775200D01*
X13974800D01*
Y724800D01*
X14089500D01*
G02X14186800Y593800I40J-101605D01*
G03X14264400Y272100I313212J-94657D01*
G02X14191300Y100000I-73126J-70514D01*
G01X12308700D01*
G02X12235600Y272100I26J101586D01*
G37*
G36*
G01X14735600D02*
G03X14813200Y593800I-235612J227043D01*
G02X14910500Y724800I97260J29395D01*
G01X16087100D01*
X16415600Y396300D01*
X18584400D01*
X18912900Y724800D01*
X19296300D01*
Y575000D01*
X19606400Y264900D01*
X20206100D01*
G03X20285000Y193500I256089J203695D01*
G01X20257500Y100000D01*
X14808700D01*
G02X14735600Y272100I26J101586D01*
G37*
G36*
G01X14174400Y6775200D02*
G02X14072800Y6876700I-3J101597D01*
G03X13895600Y7167200I-327202J-293D01*
G02X13858600Y7315200I46599J90275D01*
G03X13400500Y7768300I-269209J185948D01*
G02X13240200Y7851300I-58686J82955D01*
G01Y8224800D01*
X13525200D01*
Y9275200D01*
X13240200D01*
Y10724800D01*
X13525200D01*
Y11775200D01*
X13240200D01*
Y13224800D01*
X13525200D01*
Y14272000D01*
G02X13620400Y14373400I101585J16D01*
G03X13403000Y14961200I-20385J326564D01*
G02X13240200Y15042300I-61190J81119D01*
G01Y15724800D01*
X13525200D01*
Y16046300D01*
X13679000D01*
X13707900Y16075200D01*
X13730300Y16074200D01*
G03X13843000Y16088600I15510J326827D01*
G02X13974800Y15991600I30214J-96989D01*
G01Y15724800D01*
X14092300D01*
G02X14188900Y15591700I0J-101604D01*
G03X14811100I311100J-101300D01*
G02X14907700Y15724800I96600J31496D01*
G01X15259800D01*
Y15108400D01*
G02X15119600Y15014400I-101606J-9D01*
G03X15180300Y14442000I-124411J-302612D01*
G02X15259800Y14400100I28699J-41919D01*
G01Y14275200D01*
X13974800D01*
Y13224800D01*
X14089500D01*
G02X14186800Y13093800I40J-101605D01*
G03X14813200I313200J-94600D01*
G02X14910500Y13224800I97260J29395D01*
G01X15259800D01*
Y11775200D01*
X13974800D01*
Y10724800D01*
X14089500D01*
G02X14186800Y10593800I40J-101605D01*
G03X14813200I313200J-94600D01*
G02X14910500Y10724800I97260J29395D01*
G01X15259800D01*
Y9275200D01*
X14910500D01*
G02X14813200Y9406200I-40J101605D01*
G03X14186800I-313200J94600D01*
G02X14089500Y9275200I-97260J-29395D01*
G01X13974800D01*
Y8224800D01*
X15259800D01*
Y6775200D01*
X14174400D01*
G37*
G36*
G01X14296300Y22884400D02*
X13737700Y22325800D01*
X13715300Y22326800D01*
G03X13409500Y21849400I-15311J-326833D01*
G01X13415200Y21838400D01*
Y21775200D01*
X13240200D01*
Y22498400D01*
X13166700Y22571900D01*
G02X13182000Y22728100I71873J71809D01*
G03X13313400Y23094000I-182002J271903D01*
G02X13410700Y23224800I97312J29201D01*
G01X13525200D01*
Y24275200D01*
X13240200D01*
Y25724800D01*
X13525200D01*
Y25840500D01*
G02X13656900Y25937500I101584J-18D01*
G03X13845000Y25935700I97049J312492D01*
G02X13974800Y25838100I28206J-97600D01*
G01Y25724800D01*
X15259800D01*
Y24275200D01*
X13974800D01*
Y23224800D01*
X14296300D01*
Y22884400D01*
G37*
G36*
G01X13525200Y28371800D02*
Y29275200D01*
X13240200D01*
Y30724800D01*
X13525200D01*
Y31607700D01*
G02X13667800Y31700700I101598J43D01*
G03X13771100Y31674100I132150J299317D01*
G01X13789500Y31672400D01*
X13974800Y31487100D01*
Y30638600D01*
G03X14469900Y30211500I239399J-222999D01*
G02X14610500Y30229200I79394J-63387D01*
G03X15093600Y30649300I197021J261257D01*
G01X15087200Y30660800D01*
Y30724800D01*
X15259800D01*
Y29275200D01*
X13974800D01*
Y28512900D01*
X13749500Y28287600D01*
X13729900Y28286600D01*
G03X13654900Y28274200I15511J-326831D01*
G02X13525200Y28371800I-28110J97623D01*
G37*
G36*
G01X13656900Y26562500D02*
G02X13525200Y26659500I-30116J97018D01*
G01Y26772000D01*
G02X13620400Y26873400I101585J16D01*
G03X13403000Y27461200I-20385J326564D01*
G02X13240200Y27542300I-61190J81119D01*
G01Y28224800D01*
X13349200D01*
G02X13443100Y28084500I-39J-101599D01*
G03X14069900Y28003500I302521J-124686D01*
G01X14066500Y28028400D01*
X14262900Y28224800D01*
X15259800D01*
Y26775200D01*
X13974800D01*
Y26661900D01*
G02X13845000Y26564300I-101594J0D01*
G03X13656900Y26562500I-91051J-314292D01*
G37*
G36*
G01X13857000Y33203700D02*
X13841900Y33220300D01*
G03X13620400Y33326600I-241965J-220265D01*
G02X13525200Y33428000I6385J101384D01*
G01Y34275200D01*
X13240200D01*
Y35724800D01*
X13335700D01*
G02X13432800Y35593400I-27J-101597D01*
G03X13584500Y35212600I312801J-96006D01*
G02X13621100Y35071100I-50027J-88423D01*
G03X14226600Y34880500I278887J-171108D01*
G02X14338100Y34975600I101426J-6003D01*
G03X14586500Y35546900I32308J325604D01*
G02X14653600Y35724800I67070J76307D01*
G01X15259800D01*
Y34275200D01*
X13974800D01*
Y33203700D01*
X13857000D01*
G37*
G36*
G01X13240200Y31775200D02*
Y32677800D01*
G03X13266800Y32710600I-240306J222068D01*
G02X13409000Y32734300I82869J-58765D01*
G03X13856100Y32796300I191006J265687D01*
G01X14425000D01*
X14703700Y33075000D01*
Y33224800D01*
X15259800D01*
Y31775200D01*
X14262900D01*
X14118300Y31919800D01*
X14122600Y31945600D01*
G03X13486600Y31906000I-322622J54437D01*
G02X13389300Y31775200I-97312J-29201D01*
G01X13240200D01*
G37*
G36*
G01X13974800Y35906800D02*
G02X13843000Y35809800I-101586J-11D01*
G03X13654900Y35811800I-97382J-312391D01*
G02X13525200Y35909400I-28110J97623D01*
G01Y36775200D01*
X13240200D01*
Y38224800D01*
X13525200D01*
Y39275200D01*
X12412400D01*
G02X12314700Y39404700I-25J101586D01*
G03X12230800Y39726400I-314688J89719D01*
G02X12302400Y39900000I71636J72020D01*
G01X14197600D01*
G02X14269200Y39726400I-36J-101580D01*
G03X14185300Y39404700I230788J-231981D01*
G02X14087600Y39275200I-97675J-27914D01*
G01X13974800D01*
Y38224800D01*
X15259800D01*
Y36775200D01*
X14912400D01*
G02X14814700Y36904700I-25J101586D01*
G03X14185300I-314700J89700D01*
G02X14087600Y36775200I-97675J-27914D01*
G01X13974800D01*
Y35906800D01*
G37*
G36*
G01X17203700Y31775200D02*
Y31925000D01*
X16925000Y32203700D01*
X16256100D01*
G03X15879300Y32304100I-256055J-203710D01*
G02X15740200Y32398500I-37496J94433D01*
G01Y33224800D01*
X16025200D01*
Y34275200D01*
X15740200D01*
Y35724800D01*
X16025200D01*
Y36775200D01*
X15740200D01*
Y38224800D01*
X16025200D01*
Y39275200D01*
X14912400D01*
G02X14814700Y39404700I-25J101586D01*
G03X14730800Y39726400I-314688J89719D01*
G02X14802400Y39900000I71636J72020D01*
G01X16697600D01*
G02X16769200Y39726400I-36J-101580D01*
G03X16685300Y39404700I230788J-231981D01*
G02X16587600Y39275200I-97675J-27914D01*
G01X16474800D01*
Y38224800D01*
X17759800D01*
Y37913200D01*
X17610200Y37763600D01*
Y37212400D01*
X17759800Y37062800D01*
Y36775200D01*
X17412400D01*
G02X17314700Y36904700I-25J101586D01*
G03X16685300I-314700J89700D01*
G02X16587600Y36775200I-97675J-27914D01*
G01X16474800D01*
Y35724800D01*
X17624800D01*
Y35587500D01*
X17410400Y35373100D01*
Y34275200D01*
X17203700D01*
Y34484400D01*
X16925800Y34762300D01*
X16926800Y34784700D01*
G03X16615300Y34473200I-326800J15300D01*
G01X16637700Y34474200D01*
X16663300Y34448600D01*
G02X16591400Y34275200I-71862J-71809D01*
G01X16474800D01*
Y33224800D01*
X17238700D01*
G02X17310600Y33051400I27J-101595D01*
G01X17259800Y33000600D01*
Y32277500D01*
X17588700Y31948600D01*
G02X17516800Y31775200I-71873J-71805D01*
G01X17203700D01*
G37*
G36*
G01X15740200Y1775200D02*
Y3224800D01*
X16041100D01*
Y1775200D01*
X15740200D01*
G37*
G36*
G01X16448500D02*
Y3224800D01*
X16589500D01*
G02X16686800Y3093800I40J-101605D01*
G03X17313200I313200J-94600D01*
G02X17410500Y3224800I97260J29395D01*
G01X17759800D01*
Y1775200D01*
X17410700D01*
G02X17313400Y1906000I12J101599D01*
G03X16686600I-313400J94000D01*
G02X16589300Y1775200I-97312J-29201D01*
G01X16448500D01*
G37*
G36*
G01Y4275200D02*
Y5210900D01*
G03X16569800Y5504600I-203725J256039D01*
G01X16567000Y5528900D01*
X16762900Y5724800D01*
X17532000D01*
G02X17603900Y5551400I38J-101591D01*
G01X17446900Y5394400D01*
Y4445300D01*
G02X17371800Y4275200I-75041J-68497D01*
G01X16448500D01*
G37*
G36*
G01X18193300D02*
X17854300Y4614200D01*
Y5225600D01*
X18203700Y5575000D01*
Y5724800D01*
X18496300D01*
Y4275200D01*
X18193300D01*
G37*
G36*
G01X15740200Y6775200D02*
Y8224800D01*
X16025200D01*
Y9275200D01*
X15740200D01*
Y10724800D01*
X16025200D01*
Y11459000D01*
G02X16154800Y11556600I101590J-52D01*
G03X16342800Y11559000I89999J314593D01*
G02X16474800Y11462100I30410J-96932D01*
G01Y10724800D01*
X16589500D01*
G02X16686800Y10593800I40J-101605D01*
G03X17313200I313200J-94600D01*
G02X17410500Y10724800I97260J29395D01*
G01X17759800D01*
Y9275200D01*
X17410500D01*
G02X17313200Y9406200I-40J101605D01*
G03X16686800I-313200J94600D01*
G02X16589500Y9275200I-97260J-29395D01*
G01X16474800D01*
Y8224800D01*
X17759800D01*
Y6775200D01*
X16628200D01*
G02X16526700Y6882300I-45J101604D01*
G03X15879100Y6835900I-326729J17673D01*
G01X15880100Y6831000D01*
Y6775200D01*
X15740200D01*
G37*
G36*
G01Y11775200D02*
Y13224800D01*
X16025200D01*
Y13323300D01*
G02X16116700Y13424400I101591J12D01*
G03X16304700Y13508300I-32573J325570D01*
G02X16474800Y13433200I68493J-75052D01*
G01Y13224800D01*
X16589500D01*
G02X16686800Y13093800I40J-101605D01*
G03X17313200I313200J-94600D01*
G02X17410500Y13224800I97260J29395D01*
G01X17759800D01*
Y11775200D01*
X16673600D01*
G02X16572000Y11875500I-21J101587D01*
G03X16468900Y12109600I-327178J-4340D01*
G02Y12257600I69623J74000D01*
G03X16020700I-224100J238400D01*
G02Y12109600I-69623J-74000D01*
G03X15917600Y11875500I224078J-238440D01*
G02X15816000Y11775200I-101579J1287D01*
G01X15740200D01*
G37*
G36*
G01X16304700Y13991700D02*
G03X16116700Y14075600I-220573J-241670D01*
G02X16025200Y14176700I10091J101088D01*
G01Y14275200D01*
X15740200D01*
Y15724800D01*
X16025200D01*
Y16145000D01*
G02X16154800Y16242600I101590J-52D01*
G03X16342800Y16245000I89999J314593D01*
G02X16474800Y16148100I30410J-96932D01*
G01Y15724800D01*
X16592500D01*
G02X16689100Y15591500I64J-101606D01*
G03X17310900I310900J-101900D01*
G02X17407500Y15724800I96536J31694D01*
G01X17759800D01*
Y14275200D01*
X16474800D01*
Y14066800D01*
G02X16304700Y13991700I-101607J-48D01*
G37*
G36*
G01X15380200Y21849000D02*
X15371300Y21857900D01*
G02X15411000Y22026200I71796J71897D01*
G03X15563700Y22132900I-103309J310463D01*
G01X16694000D01*
X17003700Y22442600D01*
Y23224800D01*
X17759800D01*
Y21775200D01*
X16474800D01*
Y21012900D01*
X16171200Y20709300D01*
X16025200D01*
Y21775200D01*
X15427800D01*
X15380200Y21822800D01*
Y21849000D01*
G37*
G36*
G01X15563700Y22540300D02*
G03X15191600Y22642500I-256038J-203720D01*
G01X15182900Y22639300D01*
X15122800D01*
Y22749400D01*
X15598200Y23224800D01*
X16025200D01*
Y24275200D01*
X15740200D01*
Y25724800D01*
X15965000D01*
Y25646900D01*
X16415600Y25196300D01*
X17507600D01*
X17759800Y24944100D01*
Y24275200D01*
X16474800D01*
Y23224800D01*
X16596300D01*
Y22611400D01*
X16525200Y22540300D01*
X15563700D01*
G37*
G36*
G01X16474800Y28164500D02*
X16381500D01*
X16374000Y28206300D01*
G02X16372400Y28224200I99996J17960D01*
G01Y29517500D01*
X16954000Y30099100D01*
X17082100D01*
G03X17353500Y29976000I256027J203735D01*
G01X17375900Y29977000D01*
X17466500Y29886400D01*
X17421100Y29841000D01*
X17408100Y29837400D01*
G03X17238300Y29725500I86237J-315638D01*
G01X17096800D01*
X16796300Y29425000D01*
Y29275200D01*
X16474800D01*
Y28164500D01*
G37*
G36*
G01X17868800Y27247400D02*
G03X17581200Y27811000I-218198J243836D01*
G02X17520700Y27850500I-10738J49635D01*
G03X16960800Y28008900I-320713J-64885D01*
G02X16808500Y28013100I-74297J69294D01*
G03X16775300Y28047500I-251398J-209407D01*
G02X16843100Y28224800I67763J75701D01*
G01X17796300D01*
Y28075000D01*
X18035100Y27836200D01*
X18130500D01*
Y27775800D01*
X18127000Y27766900D01*
G03X18454300Y27321000I304597J-119492D01*
G02X18562500Y27210000I7055J-101359D01*
G03X18561000Y27173400I325675J-31678D01*
G02X18459500Y27070100I-101567J-1718D01*
G01X17936600D01*
G02X17868800Y27247400I-30J101602D01*
G37*
G36*
G01X16388100Y25800000D02*
X16372400Y25815700D01*
Y27383000D01*
G02X16493700Y27482600I101590J-60D01*
G03X16796400Y27580300I63512J320994D01*
G02X16948700Y27576100I74297J-69294D01*
G03X17269400Y27465800I251364J209475D01*
G02X17329900Y27426300I10738J-49635D01*
G03X17432400Y27247400I320689J64924D01*
G02X17364600Y27070100I-67770J-75698D01*
G01X17097600D01*
X16802700Y26775200D01*
X16474800D01*
Y25835900D01*
G02X16388100Y25800000I-50793J24D01*
G37*
G36*
G01X16342800Y30771200D02*
G03X16154800Y30773600I-98001J-312193D01*
G02X16025200Y30871200I-28010J97652D01*
G01Y31671200D01*
X16065800Y31679500D01*
G03X16256100Y31796300I-65739J320534D01*
G01X16474800D01*
Y30868100D01*
G02X16342800Y30771200I-101590J32D01*
G37*
G36*
G01X19384000Y30255300D02*
X19703700Y30575000D01*
Y30724800D01*
X20259800D01*
Y29275200D01*
X18974800D01*
Y28837300D01*
G02X18842600Y28740400I-101594J-26D01*
G03X18654600Y28743100I-98500J-312008D01*
G02X18525200Y28840900I-27787J97740D01*
G01Y29275200D01*
X18240200D01*
Y29641000D01*
G03X18066200Y29871900I-240203J0D01*
G01X18053600Y29875500D01*
X17664000Y30265100D01*
X17665000Y30287500D01*
G03Y30318100I-326800J15300D01*
G01X17664000Y30340500D01*
X17781100Y30457600D01*
G02X17953000Y30403100I71807J-71860D01*
G03X18531500Y30255300I322407J55880D01*
G01X19384000D01*
G37*
G36*
G01X18687700Y32537100D02*
G03X18518900Y32648700I-256007J-203763D01*
G02X18464000Y32806700I27058J97940D01*
G03X18525500Y33033600I-263984J193336D01*
G01X18525200Y33036200D01*
Y34362600D01*
G03X18065300Y34828000I-225197J237397D01*
G02X17890800Y34898700I-72907J70750D01*
G01Y35174100D01*
X17925300Y35208600D01*
G02X18066500Y35211000I71841J-71827D01*
G03X18604400Y35359500I223468J238996D01*
G01X18615000Y35396300D01*
X18934400D01*
X19262900Y35724800D01*
X20685500D01*
X20820400Y35589900D01*
Y34410100D01*
X20685500Y34275200D01*
X18974800D01*
Y33224800D01*
X19496300D01*
Y32684400D01*
X19349000Y32537100D01*
X18687700D01*
G37*
G36*
G01X18903700Y1775200D02*
Y2235000D01*
G02X18926000Y2383500I78852J64083D01*
G03X19070800Y2670700I-182024J271875D01*
G01X19069800Y2693100D01*
X19601500Y3224800D01*
X19895200D01*
G02X19967400Y3051700I11J-101603D01*
G03X19878200Y2881000I232555J-230179D01*
G02X19759800Y2799500I-99904J18383D01*
G03X20021800Y2418400I-59781J-321709D01*
G02X20140200Y2499900I99904J-18383D01*
G03X20496200Y2682600I59788J321693D01*
G02X20660000Y2711300I91975J-43149D01*
G01X20831100Y2540200D01*
Y2444800D01*
G02X20703200Y2346600I-101603J-59D01*
G03X20313000Y1913200I-84794J-316011D01*
G02X20218100Y1775200I-94857J-36399D01*
G01X18903700D01*
G37*
G36*
G01X21474800Y1033400D02*
G02X21342400Y936600I-101597J15D01*
G03X21141600Y935800I-99159J-311804D01*
G01X21111900Y926100D01*
X21025200Y1012900D01*
Y1487100D01*
X21238500Y1700400D01*
Y2709000D01*
X20896100Y3051400D01*
G02X20968000Y3224800I71862J71809D01*
G01X21025200D01*
Y4275200D01*
X20983200D01*
G02X20911300Y4448600I-27J101595D01*
G01X21040200Y4577500D01*
Y6049500D01*
X21025200Y6064500D01*
Y6435500D01*
X21040200Y6450500D01*
Y7140900D01*
X20740200Y7440900D01*
Y8224800D01*
X21025200D01*
Y9275200D01*
X20082400D01*
G02X19987300Y9412700I-42J101608D01*
G03X19987600Y9413500I-306184J115275D01*
G02X20110600Y9475700I95204J-35549D01*
G03X20526800Y9806800I89422J314731D01*
G02X20645300Y9912000I101466J5047D01*
G03X20755900Y9912200I54717J322598D01*
G02X20874400Y9802100I17400J-100093D01*
G03X21526000Y9741400I325618J-32302D01*
G02X21647200Y9832200I101192J-8782D01*
G03X21661200Y9829700I64510J320803D01*
G02X21735200Y9681700I-15685J-100343D01*
G03X21718100Y9412700I289005J-153415D01*
G02X21623000Y9275200I-95058J-35892D01*
G01X21474800D01*
Y8224800D01*
X22759800D01*
Y7774000D01*
X22511400Y7525600D01*
Y6974400D01*
X22537200Y6948600D01*
G02X22465300Y6775200I-71873J-71805D01*
G01X21474800D01*
Y5724800D01*
X21796300D01*
Y5575000D01*
X22420400Y4950900D01*
X22861500D01*
G03X22893500Y4916200I255917J203899D01*
G02Y4768200I-69623J-74000D01*
G03X22811900Y4413000I224079J-238451D01*
G02X22717000Y4275200I-94902J-36221D01*
G01X21474800D01*
Y3224800D01*
X21796300D01*
Y3096000D01*
G02X21696000Y2994400I-101589J-19D01*
G03X21938800Y2443500I4011J-327187D01*
G02X22089700Y2440700I74188J-69410D01*
G03X22582000Y2439000I246894J214705D01*
G02X22759800Y2371800I76198J-67207D01*
G01Y1775200D01*
X21474800D01*
Y1033400D01*
G37*
G36*
G01X18903700Y4275200D02*
Y5724800D01*
X20559800D01*
Y4776500D01*
X20259800Y4476500D01*
Y4275200D01*
X18903700D01*
G37*
G36*
G01X18698600Y6286700D02*
G02X18525200Y6358600I-71809J71862D01*
G01Y6775200D01*
X18240200D01*
Y8224800D01*
X18540300D01*
Y8150900D01*
X19454600Y7236600D01*
X19945400D01*
X20005100Y7296300D01*
X20257000D01*
X20266000Y7287400D01*
G03X20330200Y7171600I234003J54036D01*
G01X20559800Y6941900D01*
Y6775200D01*
X18974800D01*
Y6453700D01*
X18865600D01*
X18698600Y6286700D01*
G37*
G36*
G01X18240200Y9275200D02*
Y10724800D01*
X18525200D01*
Y11775200D01*
X18240200D01*
Y13224800D01*
X18525200D01*
Y14275200D01*
X18240200D01*
Y14980700D01*
G02X18407500Y15058200I101597J8D01*
G03X18625000Y15634700I211814J249366D01*
G02X18525200Y15736300I1814J101597D01*
G01Y15836100D01*
G02X18653300Y15934200I101607J8D01*
G03X18841400Y15939300I85557J315806D01*
G02X18974800Y15842800I31804J-96490D01*
G01Y15724800D01*
X19092800D01*
G02X19189300Y15591400I10J-101596D01*
G03X19810700I310700J-102600D01*
G02X19907200Y15724800I96490J31804D01*
G01X20259800D01*
Y14275200D01*
X18974800D01*
Y13224800D01*
X19089500D01*
G02X19186800Y13093800I40J-101605D01*
G03X19178700Y13061200I313077J-95095D01*
G02X19073600Y12978900I-99780J19164D01*
G03X19069100Y12325200I-17204J-326747D01*
G02X19174200Y12214200I3976J-101492D01*
G03X19296300Y11927500I325788J-30603D01*
G01Y11775200D01*
X18974800D01*
Y10724800D01*
X20032000D01*
G02X20103900Y10551400I38J-101591D01*
G01X20065400Y10512900D01*
X18972000D01*
X18540300Y10081200D01*
Y9275200D01*
X18240200D01*
G37*
G36*
G01X18947700Y9912400D02*
X19140800Y10105500D01*
X19828100D01*
G02X19916200Y9953300I19J-101587D01*
G03X19893600Y9905100I283968J-162545D01*
G02X19770600Y9842900I-95204J35549D01*
G03X19354400Y9512900I-89387J-314722D01*
G01X19355400Y9490500D01*
X19296300Y9431400D01*
Y9275200D01*
X18947700D01*
Y9912400D01*
G37*
G36*
G01X21342400Y10777200D02*
G03X21154400Y10780300I-99167J-311804D01*
G02X21025200Y10878100I-27597J97784D01*
G01Y11775200D01*
X20740200D01*
Y12456600D01*
G02X20899900Y12540000I101604J43D01*
G03X21343100Y12604700I187140J268404D01*
G01X21893600D01*
X21914100Y12625200D01*
X21976700Y12599200D01*
Y12255400D01*
X22283500Y11948600D01*
G02X22211600Y11775200I-71862J-71809D01*
G01X21474800D01*
Y10874000D01*
G02X21342400Y10777200I-101597J15D01*
G37*
G36*
G01X21343100Y13012100D02*
G03X21117400Y13134200I-256077J-203703D01*
G02X21025200Y13235300I9392J101157D01*
G01Y14275200D01*
X20740200D01*
Y15724800D01*
X21025200D01*
Y15838800D01*
G02X21155600Y15936200I101585J-13D01*
G03X21343600Y15937000I92666J313801D01*
G02X21474800Y15839800I29589J-97207D01*
G01Y15724800D01*
X22796300D01*
Y14275200D01*
X21474800D01*
Y13224800D01*
X21796300D01*
Y13083600D01*
X21724800Y13012100D01*
X21343100D01*
G37*
G36*
G01X18841400Y16560700D02*
G03X18653300Y16565800I-102543J-310706D01*
G02X18525200Y16663900I-26493J98092D01*
G01Y16775200D01*
X18240200D01*
Y18224800D01*
X18525200D01*
Y19196300D01*
X18765600D01*
X18974800Y18987100D01*
Y18224800D01*
X20259800D01*
Y16775200D01*
X18974800D01*
Y16657200D01*
G02X18841400Y16560700I-101596J-10D01*
G37*
G36*
G01X18974800Y21054700D02*
G02X18832200Y20961700I-101598J-43D01*
G03X18644100Y20984800I-132224J-299296D01*
G02X18525200Y21084900I-17307J100109D01*
G01Y21775200D01*
X18240200D01*
Y23224800D01*
X18525200D01*
Y24275200D01*
X18240200D01*
Y25724800D01*
X18525200D01*
Y26100800D01*
G02X18698600Y26172700I101591J38D01*
G01X18825000Y26046300D01*
X18974800D01*
Y25724800D01*
X19753000D01*
G02X19847000Y25584700I4J-101582D01*
G03X19925700Y25222200I302783J-124058D01*
G02Y25074200I-69623J-74000D01*
G03X20373900I224100J-238400D01*
G02Y25222200I69623J74000D01*
G03X20419900Y25645300I-224097J238415D01*
G02X20461800Y25724800I41905J28706D01*
G01X20596300D01*
Y24566100D01*
X20713800Y24448600D01*
G02X20641900Y24275200I-71862J-71809D01*
G01X18974800D01*
Y23224800D01*
X19296300D01*
Y23075000D01*
X19613600Y22757700D01*
X19893700D01*
G03X20156200Y22634300I256029J203734D01*
G02X20259800Y22532700I1991J-101590D01*
G01Y22491000D01*
G02X20180100Y22449300I-50783J47D01*
G03X19762500Y21948700I-186501J-268902D01*
G02X19690800Y21775200I-71737J-71920D01*
G01X18974800D01*
Y21054700D01*
G37*
G36*
G01X21593900Y24275200D02*
X21353900Y24515200D01*
X21223400D01*
X21003700Y24734900D01*
Y25724800D01*
X21025200D01*
Y26487100D01*
X21301400Y26763300D01*
G02X21474800Y26691400I71809J-71862D01*
G01Y25724800D01*
X22759800D01*
Y24275200D01*
X22412400D01*
G02X22314700Y24404700I-25J101586D01*
G03X21707100Y24348600I-314671J89695D01*
G01X21712400Y24337900D01*
Y24275200D01*
X21593900D01*
G37*
G36*
G01X20109900Y27070100D02*
G02X20008400Y27173400I67J101582D01*
G03X19665900Y27505600I-327157J5359D01*
G01X19643500Y27504600D01*
X19552900Y27595200D01*
X19598300Y27640600D01*
X19611300Y27644200D01*
G03X19763400Y27735700I-86291J315609D01*
G02X19911400I74000J-69623D01*
G03X20452300Y28084500I238395J224110D01*
G02X20546200Y28224800I93939J38701D01*
G01X21025200D01*
Y28391900D01*
G02X21111900Y28427800I50793J-24D01*
G01X21192800Y28346900D01*
Y28181300D01*
X21195700Y28178400D01*
Y27621000D01*
G02X21018400Y27553200I-101602J-30D01*
G03X20447800Y27319700I-243776J-218221D01*
G01X20448800Y27297300D01*
X20414700Y27263200D01*
Y27107000D01*
X20377800Y27070100D01*
X20109900D01*
G37*
G36*
G01X21474800Y28886400D02*
G02X21301400Y28814500I-101591J-38D01*
G01X21171400Y28944500D01*
X21025200D01*
Y29275200D01*
X20740200D01*
Y29414700D01*
G02X20862900Y29514100I101589J28D01*
G03X21154900Y30072600I67901J320082D01*
G02Y30220600I69623J74000D01*
G03X21056500Y30761100I-224101J238409D01*
G01X21025200Y30774100D01*
Y31783100D01*
G02X20978200Y31930300I39341J93665D01*
G03X20579300Y32406700I-278176J172281D01*
G02X20440200Y32501100I-37496J94433D01*
G01Y33224800D01*
X21025200D01*
Y33935500D01*
X21300800Y34211100D01*
Y34379500D01*
G02X21475700Y34449900I101604J36D01*
G03X21589100Y34373100I236106J226505D01*
G01X21620800Y34360200D01*
Y34275200D01*
X21474800D01*
Y33224800D01*
X21504800D01*
Y33151900D01*
X21488600Y33136900D01*
G03X21465400Y32682300I223190J-239282D01*
G02Y32548700I-76534J-66800D01*
G03X21727100Y32006600I246399J-215268D01*
G01X21749500Y32007600D01*
X21796300Y31960800D01*
Y31775200D01*
X21474800D01*
Y30724800D01*
X21895400D01*
G02X21962900Y30547300I3J-101583D01*
G03X22397900I217500J-244500D01*
G02X22465400Y30724800I67497J75917D01*
G01X22759800D01*
Y29275200D01*
X22412400D01*
G02X22314700Y29404700I-25J101586D01*
G03X21685300I-314700J89700D01*
G02X21587600Y29275200I-97675J-27914D01*
G01X21474800D01*
Y28886400D01*
G37*
G36*
G01X18363100Y32013500D02*
G03X18687700Y32129700I68571J319929D01*
G01X19517800D01*
X19786400Y32398300D01*
G02X19959800Y32326500I71809J-71862D01*
G01Y31775200D01*
X18974800D01*
Y30662700D01*
X18537600D01*
G03X18525200Y30677700I-261986J-203950D01*
G01Y31775200D01*
X18240200D01*
Y31914200D01*
G02X18363100Y32013500I101613J-58D01*
G37*
G36*
G01X18531500Y37691700D02*
G03X18288900Y37814900I-256042J-203727D01*
G02X18240200Y37865700I2106J50762D01*
G01Y38224800D01*
X18525200D01*
Y39275200D01*
X18271300D01*
G02X18198300Y39447400I35J101588D01*
G03X18276300Y39769100I-235308J227359D01*
G02X18373600Y39900000I97286J29298D01*
G01X18459400D01*
Y39836800D01*
X18453700Y39825800D01*
G03X19057300Y39769100I290279J-150995D01*
G02X19154600Y39900000I97286J29298D01*
G01X19240400D01*
Y39836800D01*
X19234700Y39825800D01*
G03X19289700Y39447400I290290J-151004D01*
G02X19216700Y39275200I-73035J-70612D01*
G01X18974800D01*
Y38224800D01*
X19296300D01*
Y38016000D01*
X18972000Y37691700D01*
X18531500D01*
G37*
G36*
G01X18525200Y35803700D02*
Y36775200D01*
X18240200D01*
Y37110300D01*
G02X18288900Y37161100I50806J38D01*
G03X18531500Y37284300I-13442J326927D01*
G01X19140800D01*
X19703700Y37847200D01*
Y38224800D01*
X20067100D01*
G02X20160700Y38083700I-5J-101598D01*
G03X20137700Y37914700I301502J-127098D01*
G02X20063700Y37803700I-100754J-12997D01*
G03X19831000Y37561600I86128J-315666D01*
G02X19724400Y37483100I-99004J22814D01*
G03X19452200Y36943100I-24414J-326298D01*
G02X19375200Y36775200I-76965J-66310D01*
G01X18974800D01*
Y36012900D01*
X18765600Y35803700D01*
X18525200D01*
G37*
G36*
G01X22203700Y34275200D02*
Y34472600D01*
X22037600Y34638700D01*
X22038600Y34661100D01*
G03X21475700Y34902900I-326822J15276D01*
G02X21300800Y34973300I-73296J70364D01*
G01Y35788900D01*
X21025200Y36064500D01*
Y36775200D01*
X20983200D01*
G02X20911300Y36948600I-27J101595D01*
G01X21171000Y37208300D01*
Y37547000D01*
G02X21302600Y37644000I101582J-45D01*
G03X21691500Y38104000I96788J312567D01*
G01X21674900Y38136900D01*
X21762900Y38224800D01*
X23185500D01*
X23189800Y38220500D01*
Y37406500D01*
X22759800Y36976500D01*
Y36775200D01*
X22203700D01*
Y37315200D01*
X22244500Y37323300D01*
G03X21853600Y37628900I-64057J320867D01*
G01X21854600Y37606500D01*
X21796300Y37548200D01*
Y36775200D01*
X21474800D01*
Y35724800D01*
X22759800D01*
Y34901000D01*
X22475500Y34616700D01*
Y34275200D01*
X22203700D01*
G37*
G36*
G01X23974800Y1506600D02*
G02X23842200Y1409800I-101600J-45D01*
G03X23727100Y1425000I-99706J-311621D01*
G01X23704700Y1424000D01*
X23675000Y1453700D01*
X23525200D01*
Y1775200D01*
X23240200D01*
Y3224800D01*
X23525200D01*
Y3660400D01*
X23826400Y3961600D01*
Y5763300D01*
X23525200Y6064500D01*
Y6775200D01*
X23240200D01*
Y6926900D01*
X23275600Y6938100D01*
G03X23496600Y7318300I-99002J311878D01*
G02X23625300Y7436700I99354J21151D01*
G03X23437000Y7585400I94523J313269D01*
G02X23364000Y7518200I-43898J-25564D01*
G03X23275600Y7561900I-187548J-268127D01*
G01X23240200Y7573100D01*
Y8224800D01*
X23525200D01*
Y8574900D01*
X23801400Y8851100D01*
G02X23974800Y8779200I71805J-71873D01*
G01Y8224800D01*
X24089500D01*
G02X24186800Y8093800I40J-101605D01*
G03X24648700Y7707800I313210J-94565D01*
G02X24796500Y7617300I46186J-90512D01*
G01Y6775200D01*
X23974800D01*
Y5724800D01*
X24089500D01*
G02X24186800Y5593800I40J-101605D01*
G03X24813200I313200J-94600D01*
G02X24910500Y5724800I97260J29395D01*
G01X25259800D01*
Y4275200D01*
X23974800D01*
Y3224800D01*
X24089500D01*
G02X24186800Y3093800I40J-101605D01*
G03X24813200I313200J-94600D01*
G02X24910500Y3224800I97260J29395D01*
G01X25259800D01*
Y1775200D01*
X23974800D01*
Y1506600D01*
G37*
G36*
G01X22235600Y272100D02*
G03X22313200Y593800I-235612J227043D01*
G02X22410500Y724800I97260J29395D01*
G01X23533200D01*
G02X23654200Y783100I93589J-39526D01*
G03X23842200Y786600I88166J315099D01*
G02X23968600Y724800I31002J-96756D01*
G01X24089500D01*
G02X24186800Y593800I40J-101605D01*
G03X24264400Y272100I313212J-94657D01*
G02X24191300Y100000I-73126J-70514D01*
G01X22308700D01*
G02X22235600Y272100I26J101586D01*
G37*
G36*
G01X23939000Y9275200D02*
Y9930800D01*
G03Y10375200I-240200J222200D01*
G01Y10650700D01*
X23927500Y10662200D01*
X23953500Y10724800D01*
X24089500D01*
G02X24186800Y10593800I40J-101605D01*
G03X24813200I313200J-94600D01*
G02X24910500Y10724800I97260J29395D01*
G01X25259800D01*
Y9275200D01*
X23939000D01*
G37*
G36*
G01X24419700Y11952100D02*
G03X24524400Y12237200I-219712J242462D01*
G02X24642900Y12350400I100738J13170D01*
G03X25020200Y12605300I57088J322187D01*
G02X25080400Y12644500I49702J-10503D01*
G03X25155800Y12637500I67743J320107D01*
G02X25259800Y12535900I2399J-101572D01*
G01Y11775200D01*
X24487900D01*
G02X24419700Y11952100I-18J101589D01*
G37*
G36*
G01X23801400Y10788300D02*
X23525200Y11064500D01*
Y11775200D01*
X23033100D01*
X22768100Y12040200D01*
G02X22794700Y12203000I71820J71838D01*
G03X22970000Y12432700I-145730J292958D01*
G02X23100600Y12509900I99705J-19604D01*
G03X23271100Y12502200I99501J311698D01*
G02X23389500Y12435100I22014J-99166D01*
G03X23759800Y12216700I310481J103300D01*
G02X23878200Y12135200I18496J-99883D01*
G03X24127500Y11875500I321788J59393D01*
G01X24167000Y11866500D01*
Y11775200D01*
X23974800D01*
Y10860200D01*
G02X23801400Y10788300I-101595J-27D01*
G37*
G36*
G01X22750700Y9639300D02*
G03X22177100Y9926700I-257928J201323D01*
G02X22066100Y9852700I-98003J26754D01*
G03X22000900Y9854600I-42084J-324495D01*
G02X21958900Y9938500I-3610J50655D01*
G03X22038600Y10168300I-247129J214431D01*
G01X22037600Y10190700D01*
X22203700Y10356800D01*
Y10724800D01*
X23185500D01*
X23458600Y10451700D01*
Y10375900D01*
X23446900Y10361800D01*
G03X23373000Y10122600I251889J-208836D01*
G02X23272300Y10011600I-101154J-9410D01*
G03X22947000Y9669100I1528J-327184D01*
G01X22948000Y9646700D01*
X22858500Y9557200D01*
X22790800D01*
G02X22750700Y9639300I-64J50812D01*
G37*
G36*
G01X24257100Y12516800D02*
G03X24140200Y12516300I-57073J-322195D01*
G02X24021800Y12597800I-18496J99883D01*
G03X23628900Y12857800I-321782J-59396D01*
G02X23510500Y12924900I-22014J99166D01*
G03X23432600Y13051700I-310441J-103391D01*
G02X23504800Y13224800I72189J71497D01*
G01X23525200D01*
Y14275200D01*
X23203700D01*
Y15724800D01*
X23525200D01*
Y15726300D01*
G02X23611900Y15762200I50793J-24D01*
G01X23707800Y15666300D01*
Y15404100D01*
X24315600Y14796300D01*
X25215600D01*
X25296300Y14715600D01*
Y14275200D01*
X23974800D01*
Y13224800D01*
X24599900D01*
X24665000Y13159700D01*
G02X24618500Y12989500I-71841J-71825D01*
G03X24375600Y12630000I81512J-316883D01*
G02X24257100Y12516800I-100738J-13170D01*
G37*
G36*
G01X24077100Y17181800D02*
G02X23903700Y17253700I-71809J71862D01*
G01Y18134400D01*
X23900000Y18138100D01*
G02X23885500Y18167500I35877J35970D01*
G03X23847800Y18210200I-50378J-6486D01*
G02X23801400Y18236700I25406J98357D01*
G01X23525200Y18512900D01*
Y19275200D01*
X22951000D01*
G02X22879400Y19448900I-9J101603D01*
G03X22898700Y19469700I-229982J232751D01*
G02X23029200Y19490700I77506J-65662D01*
G03X23520900Y19705900I170794J279092D01*
G02X23639400Y19785900I99653J-19846D01*
G03X23760600I60600J321500D01*
G02X23879100Y19705900I18847J-99846D01*
G03X24196000Y19442600I320911J63884D01*
G02X24296300Y19341000I-1289J-101581D01*
G01Y19275200D01*
X23974800D01*
Y18308600D01*
G02X23930300Y18224500I-101602J-63D01*
G02X23935900Y18224800I5514J-50502D01*
G01X25259800D01*
Y17303700D01*
X24199000D01*
X24077100Y17181800D01*
G37*
G36*
G01X22203700Y21775200D02*
Y22368700D01*
G03X22320600Y22559200I-203681J256106D01*
G02X22437300Y22638900I99499J-20402D01*
G03X22619000Y22659500I55456J322485D01*
G02X22759800Y22565800I39208J-93721D01*
G01Y21775200D01*
X22203700D01*
G37*
G36*
G01X22412400Y26775200D02*
G02X22314700Y26904700I-25J101586D01*
G03X21774700Y27231600I-314667J89665D01*
G02X21603100Y27305300I-69985J73673D01*
G01Y28224800D01*
X22759800D01*
Y26775200D01*
X22412400D01*
G37*
G36*
G01X23974800Y33522800D02*
G02X23842200Y33426000I-101600J-45D01*
G03X23654200Y33429500I-99834J-311599D01*
G02X23525200Y33527300I-27407J97826D01*
G01Y34275200D01*
X23014500D01*
X22955900Y34333800D01*
Y34417700D01*
X23240200Y34702000D01*
Y35724800D01*
X23489300D01*
G02X23586600Y35594000I-12J-101599D01*
G03X24213400I313400J-94000D01*
G02X24310700Y35724800I97312J29201D01*
G01X25259800D01*
Y35540300D01*
G02X25118800Y35446600I-101607J-41D01*
G03X25007300Y34818200I-126852J-301584D01*
G01X25029700Y34819200D01*
X25220000Y34628900D01*
X25259800D01*
Y34275200D01*
X23974800D01*
Y33522800D01*
G37*
G36*
G01X22203700Y31775200D02*
Y32129600D01*
X22037600Y32295700D01*
X22038600Y32318100D01*
G03X21958200Y32548700I-326829J15365D01*
G02Y32682300I76534J66800D01*
G03X21990100Y33069700I-246395J215302D01*
G02X22076500Y33224800I86359J53508D01*
G01X22759800D01*
Y32959600D01*
X22525200Y32725000D01*
Y31775200D01*
X22203700D01*
G37*
G36*
G01X23525200Y35830500D02*
Y36775200D01*
X23483200D01*
G02X23411300Y36948600I-27J101595D01*
G01X23670200Y37207500D01*
Y37478300D01*
G02X23838900Y37554600I101612J-16D01*
G03X24161600Y37491100I215964J245792D01*
G02X24296300Y37395100I33110J-96043D01*
G01Y36775200D01*
X23974800D01*
Y35928000D01*
G02X23879600Y35826600I-101585J-16D01*
G03X23691500Y35752200I20411J-326584D01*
G02X23525200Y35830500I-64712J78310D01*
G37*
G36*
G01X27436800Y100000D02*
G02X27338700Y227800I49J101588D01*
G03X27203700Y584900I-316086J84573D01*
G01Y724800D01*
X28260000D01*
X28270800Y688400D01*
G03X28898400I313800J92600D01*
G01X28909200Y724800D01*
X29089500D01*
G02X29186800Y593800I40J-101605D01*
G03X29264400Y272100I313212J-94657D01*
G02X29191300Y100000I-73126J-70514D01*
G01X27436800D01*
G37*
G36*
G01X24735600Y272100D02*
G03X24813200Y593800I-235612J227043D01*
G02X24910500Y724800I97260J29395D01*
G01X26025200D01*
Y1775200D01*
X25740200D01*
Y3224800D01*
X26025200D01*
Y3987100D01*
X26240100Y4202000D01*
X26259500Y4203100D01*
G03X26342000Y4218400I-17919J326701D01*
G02X26474800Y4121700I31198J-96693D01*
G01Y3224800D01*
X26589500D01*
G02X26686800Y3093800I40J-101605D01*
G03X27313200I313200J-94600D01*
G02X27410500Y3224800I97260J29395D01*
G01X27759800D01*
Y1775200D01*
X27410700D01*
G02X27313400Y1906000I12J101599D01*
G03X26686600I-313400J94000D01*
G02X26589300Y1775200I-97312J-29201D01*
G01X26474800D01*
Y724800D01*
X26796300D01*
Y548700D01*
G03X26706500Y227800I226287J-236339D01*
G02X26608400Y100000I-98149J-26212D01*
G01X24808700D01*
G02X24735600Y272100I26J101586D01*
G37*
G36*
G01X26547300Y4413000D02*
G03X25917600Y4484300I-305664J116774D01*
G01X25921100Y4459200D01*
X25826900Y4365000D01*
G02X25740200Y4400900I-35907J35924D01*
G01Y5724800D01*
X26025200D01*
Y6775200D01*
X25413200D01*
X25203900Y6984500D01*
Y7575200D01*
X25703700Y8075000D01*
Y8224800D01*
X26025200D01*
Y9275200D01*
X25740200D01*
Y10724800D01*
X26025200D01*
Y11775200D01*
X25740200D01*
Y12615800D01*
X25813400Y12689000D01*
Y13224800D01*
X26025200D01*
Y14275200D01*
X25703700D01*
Y14884400D01*
X25657600Y14930500D01*
G02X25729500Y15103900I71862J71809D01*
G01X26141700D01*
G03X26164000Y15078700I255868J203956D01*
G02X26143000Y14994800I-36353J-35479D01*
G03X26510800Y14868800I98600J-311996D01*
G02X26547800Y15016800I83595J57726D01*
G03X26591900Y15044200I-150084J290748D01*
G02X26672800Y15002800I30105J-40915D01*
G03X27319100Y15072300I327188J-2801D01*
G02X27418200Y15196300I99101J22399D01*
G01X27743900D01*
G03X28324200Y15355600I256103J203675D01*
G02X28496700Y15413600I100644J-13809D01*
G01X28559800Y15350500D01*
Y14649500D01*
X28185500Y14275200D01*
X26474800D01*
Y13224800D01*
X26589500D01*
G02X26686800Y13093800I40J-101605D01*
G03X27313200I313200J-94600D01*
G02X27410500Y13224800I97260J29395D01*
G01X27759800D01*
Y11775200D01*
X26474800D01*
Y10724800D01*
X26589500D01*
G02X26686800Y10593800I40J-101605D01*
G03X27313200I313200J-94600D01*
G02X27410500Y10724800I97260J29395D01*
G01X27759800D01*
Y9275200D01*
X26474800D01*
Y8224800D01*
X26589500D01*
G02X26686800Y8093800I40J-101605D01*
G03X26682800Y7918900I313202J-94659D01*
G02X26577100Y7792600I-98473J-24968D01*
G03X26871200Y7546500I-23104J-326391D01*
G02X26976900Y7672800I98473J24968D01*
G03X27313200Y8093800I23082J326382D01*
G02X27410500Y8224800I97260J29395D01*
G01X27759800D01*
Y6775200D01*
X26474800D01*
Y5724800D01*
X26589500D01*
G02X26686800Y5593800I40J-101605D01*
G03X27137900Y5202500I313214J-94589D01*
G02X27280000Y5131600I42755J-92159D01*
G03X27297000Y5076400I320008J68335D01*
G02X27240400Y5007300I-47030J-19208D01*
G03X26952100Y4450100I-61565J-321330D01*
G02X26881700Y4275200I-70369J-73294D01*
G01X26642200D01*
G02X26547300Y4413000I2J101579D01*
G37*
G36*
G01X24936200Y15511300D02*
X24896100Y15551400D01*
G02X24968000Y15724800I71862J71809D01*
G01X26025200D01*
Y16775200D01*
X25740200D01*
Y18224800D01*
X26025200D01*
Y19191400D01*
G02X26069700Y19275500I101602J63D01*
G02X26064100Y19275200I-5514J50502D01*
G01X24968000D01*
G02X24896100Y19448600I-38J101591D01*
G01X25237400Y19789900D01*
X25985500D01*
G03X26037900Y19737500I256100J203700D01*
G01Y19424000D01*
X26100000Y19361900D01*
G02X26114500Y19332500I-35877J-35970D01*
G03X26152200Y19289800I50378J6486D01*
G02X26198600Y19263300I-25406J-98357D01*
G01X26474800Y18987100D01*
Y18224800D01*
X27759800D01*
Y16775200D01*
X26474800D01*
Y15735700D01*
G02X26379000Y15634300I-101583J19D01*
G03X26141700Y15511300I18803J-326684D01*
G01X24936200D01*
G37*
G36*
G01X26308500Y33252200D02*
G03X26120400Y33326600I-208511J-252184D01*
G02X26025200Y33428000I6385J101384D01*
G01Y34275200D01*
X25740200D01*
Y35724800D01*
X26025200D01*
Y36775200D01*
X25983200D01*
G02X25911300Y36948600I-27J101595D01*
G01X26169400Y37206700D01*
Y37634500D01*
G02X26338100Y37710800I101612J-16D01*
G03X26574900Y37630100I215921J245808D01*
G02X26680600Y37550700I6496J-101408D01*
G03X26796300Y37365500I319445J70826D01*
G01Y36775200D01*
X26474800D01*
Y35724800D01*
X26627200D01*
G02X26720900Y35583900I-13J-101615D01*
G03X26701500Y35520200I301648J-126672D01*
G02X26590500Y35438800I-99688J19557D01*
G03X26875100Y35050800I-36518J-325164D01*
G02X26986100Y35132200I99688J-19557D01*
G03X27278700Y35253700I36496J325183D01*
G01X27882400D01*
X27956000Y35327300D01*
X28188200Y35095100D01*
Y34277900D01*
X28185500Y34275200D01*
X27582900D01*
G02X27487200Y34410800I24J101587D01*
G03X26870400I-308400J109400D01*
G02X26774700Y34275200I-95724J-34013D01*
G01X26474800D01*
Y33330500D01*
G02X26308500Y33252200I-101588J10D01*
G37*
G36*
G01X24703700Y32901900D02*
Y33224800D01*
X25259800D01*
Y31775200D01*
X24912400D01*
G02X24814700Y31904700I-25J101586D01*
G03X24712800Y32242900I-314682J89637D01*
G02Y32397300I66102J77200D01*
G03X24703700Y32901900I-212802J248544D01*
G37*
G36*
G01X27173700Y38045000D02*
X27203700Y38075000D01*
Y38224800D01*
X28185500D01*
X28320400Y38089900D01*
Y37563600D01*
X27759800Y37003000D01*
Y36775200D01*
X27203700D01*
Y37365500D01*
G03X27187300Y37889900I-203688J256086D01*
G02X27173700Y38045000I58218J83251D01*
G37*
G36*
G01X24703700Y36775200D02*
Y37315300D01*
X24744400Y37323500D01*
G03X24715000Y37969500I-64799J320720D01*
G01X24697200Y37971400D01*
X24648700Y38020000D01*
X24703700Y38075000D01*
Y38224800D01*
X25685500D01*
X25689000Y38221300D01*
Y37405700D01*
X25259800Y36976500D01*
Y36775200D01*
X24703700D01*
G37*
G36*
G01X28804800Y1023000D02*
G03X28616800Y1106600I-220202J-242004D01*
G02X28525200Y1207700I10001J101107D01*
G01Y1775200D01*
X28240200D01*
Y3224800D01*
X28525200D01*
Y4275200D01*
X28240200D01*
Y5724800D01*
X28525200D01*
Y6775200D01*
X28240200D01*
Y8224800D01*
X28496300D01*
Y8115700D01*
X28962600Y7649500D01*
G02X29044600Y7529700I-17668J-100057D01*
G03X29637500Y7284200I320982J-63503D01*
G02X29793700Y7299500I84390J-56566D01*
G01X30144600Y6948600D01*
G02X30072700Y6775200I-71862J-71809D01*
G01X28974800D01*
Y5724800D01*
X29089500D01*
G02X29186800Y5593800I40J-101605D01*
G03X29659300Y5213400I313217J-94598D01*
G02X29801400Y5166200I49401J-88776D01*
G03X29810700Y5147100I298684J133618D01*
G02X29747800Y5001600I-89778J-47534D01*
G03X29607500Y4450100I86411J-315579D01*
G02X29537100Y4275200I-70369J-73294D01*
G01X28974800D01*
Y3224800D01*
X29089500D01*
G02X29186800Y3093800I40J-101605D01*
G03X29277100Y2759700I313210J-94599D01*
G02X29280000Y2688300I-34621J-37165D01*
G03X29744700Y2707300I241754J-220497D01*
G02X29741800Y2778700I34621J37165D01*
G03X29813200Y3093800I-241812J220433D01*
G02X29910500Y3224800I97260J29395D01*
G01X30259800D01*
Y1775200D01*
X28974800D01*
Y1098100D01*
G02X28804800Y1023000I-101601J28D01*
G37*
G36*
G01X31474800Y1095000D02*
G02X31326100Y1005000I-101598J20D01*
G03X31138000Y1040400I-151920J-289795D01*
G02X31025200Y1141400I-11206J100974D01*
G01Y1775200D01*
X30740200D01*
Y3224800D01*
X31025200D01*
Y4191400D01*
G02X31069700Y4275500I101602J63D01*
G02X31064100Y4275200I-5514J50502D01*
G01X30740200D01*
Y5724800D01*
X31025200D01*
Y6775200D01*
X30703700D01*
Y6987900D01*
X30733700Y7001400D01*
G03X30337900Y7495800I-133660J298628D01*
G02X30184600Y7484800I-81407J60797D01*
G01X29960600Y7708800D01*
G02X29996500Y7795500I35924J35907D01*
G01X30043000D01*
X30058100Y7778900D01*
G03X30556100Y7795500I241933J220298D01*
G01X31333600D01*
X31762900Y8224800D01*
X32759800D01*
Y8023500D01*
X33320400Y7462900D01*
Y6910100D01*
X33185500Y6775200D01*
X33084800D01*
Y6838400D01*
X33090500Y6849400D01*
G03X32486600Y6906000I-290488J150594D01*
G02X32389300Y6775200I-97312J-29201D01*
G01X31474800D01*
Y5724800D01*
X31796300D01*
Y5575000D01*
X32175000Y5196300D01*
X32243900D01*
G03X32620700Y5095900I256055J203710D01*
G02X32759800Y5001500I37496J-94433D01*
G01Y4275200D01*
X31762900D01*
X31443700Y4594400D01*
Y4743900D01*
G03X31036300I-203700J256100D01*
G01Y4425600D01*
X31100000Y4361900D01*
G02X31114500Y4332500I-35877J-35970D01*
G03X31152200Y4289800I50378J6486D01*
G02X31198600Y4263300I-25406J-98357D01*
G01X31474800Y3987100D01*
Y3224800D01*
X32759800D01*
Y2435100D01*
G02X32623600Y2339600I-101591J13D01*
G03X32583500Y2351300I-111512J-307621D01*
G02X32504100Y2454600I22122J99168D01*
G03X32105700Y2148500I-326925J13189D01*
G02X32185100Y2045200I-22122J-99168D01*
G03X32207000Y1913600I326913J-13219D01*
G02X32112300Y1775200I-94709J-36795D01*
G01X31474800D01*
Y1095000D01*
G37*
G36*
G01X28240200Y9275200D02*
Y10724800D01*
X28525200D01*
Y11775200D01*
X28240200D01*
Y13224800D01*
X28525200D01*
Y13935500D01*
X28801400Y14211700D01*
G02X28974800Y14139800I71805J-71873D01*
G01Y13224800D01*
X29089500D01*
G02X29186800Y13093800I40J-101605D01*
G03X29813200I313200J-94600D01*
G02X29910500Y13224800I97260J29395D01*
G01X30259800D01*
Y11775200D01*
X28974800D01*
Y10724800D01*
X29089500D01*
G02X29186800Y10593800I40J-101605D01*
G03X29813200I313200J-94600D01*
G02X29910500Y10724800I97260J29395D01*
G01X30259800D01*
Y10147900D01*
X30115600Y10003700D01*
X29315600D01*
X29299300Y9987300D01*
G02X29126900Y10044400I-71856J71857D01*
G03X28755600Y9673100I-323700J-47600D01*
G02X28812700Y9500700I-14757J-100544D01*
G01X28587100Y9275200D01*
X28240200D01*
G37*
G36*
G01X29038300Y14448600D02*
X29040200Y14450500D01*
Y15549500D01*
X28951600Y15638100D01*
G02X28987500Y15724800I35935J35903D01*
G01X29089500D01*
G02X29186800Y15593800I40J-101605D01*
G03X29813200I313200J-94600D01*
G02X29910500Y15724800I97260J29395D01*
G01X30259800D01*
Y14275200D01*
X29110200D01*
G02X29038300Y14448600I-27J101595D01*
G37*
G36*
G01X31343600Y26563000D02*
G03X31155600Y26563800I-95334J-313001D01*
G02X31025200Y26661200I-28815J97413D01*
G01Y26775200D01*
X30740200D01*
Y28224800D01*
X31025200D01*
Y29275200D01*
X30740200D01*
Y30724800D01*
X31025200D01*
Y31775200D01*
X30740200D01*
Y33224800D01*
X31025200D01*
Y33697600D01*
G02X31161900Y33793000I101607J46D01*
G03X31349900Y33781500I113131J307005D01*
G02X31474800Y33682600I23299J-98893D01*
G01Y33224800D01*
X31596100D01*
G02X31691800Y33089100I2J-101594D01*
G03X32308200I308200J-109900D01*
G02X32403900Y33224800I95698J34106D01*
G01X32759800D01*
Y31775200D01*
X32412400D01*
G02X32314700Y31904700I-25J101586D01*
G03X31685300I-314700J89700D01*
G02X31587600Y31775200I-97675J-27914D01*
G01X31474800D01*
Y30724800D01*
X32759800D01*
Y30579300D01*
G02X32618300Y30485800I-101605J-55D01*
G03Y29884200I-128700J-300800D01*
G02X32759800Y29790700I39895J-93445D01*
G01Y29275200D01*
X32412400D01*
G02X32314700Y29404700I-25J101586D01*
G03X31685300I-314700J89700D01*
G02X31587600Y29275200I-97675J-27914D01*
G01X31474800D01*
Y28224800D01*
X32759800D01*
Y26775200D01*
X31474800D01*
Y26660200D01*
G02X31343600Y26563000I-101611J7D01*
G37*
G36*
G01X28525200Y25808600D02*
Y26775200D01*
X28240200D01*
Y28224800D01*
X28525200D01*
Y28935500D01*
X28800800Y29211100D01*
Y30161900D01*
X28411300Y30551400D01*
G02X28483200Y30724800I71873J71805D01*
G01X28525200D01*
Y31775200D01*
X28240200D01*
Y33224800D01*
X28525200D01*
Y33935500D01*
X28668600Y34078900D01*
Y35294100D01*
X28411300Y35551400D01*
G02X28483200Y35724800I71873J71805D01*
G01X28525200D01*
Y36775200D01*
X28456700D01*
G02X28384800Y36948600I-27J101595D01*
G01X28615800Y37179600D01*
G02X28774200Y37160800I71785J-71877D01*
G03X29068500Y37005000I278935J171036D01*
G01X29090900Y37006000D01*
X29148300Y36948600D01*
G02X29076400Y36775200I-71862J-71809D01*
G01X28974800D01*
Y35724800D01*
X30259800D01*
Y34771300D01*
X30197500Y34709000D01*
X30152300Y34754200D01*
X30148700Y34766800D01*
G03X29803700Y35002200I-314486J-90394D01*
G02X29692700Y35105800I-9438J101152D01*
G03X29396100Y34787800I-327113J7780D01*
G02X29507100Y34684200I9438J-101152D01*
G03X29507400Y34661100I327094J-7304D01*
G01X29508400Y34638700D01*
X29296300Y34426600D01*
Y34275200D01*
X28974800D01*
Y33224800D01*
X30259800D01*
Y31775200D01*
X29912400D01*
G02X29814700Y31904700I-25J101586D01*
G03X29185300I-314700J89700D01*
G02X29087600Y31775200I-97675J-27914D01*
G01X28974800D01*
Y30724800D01*
X30259800D01*
Y30198500D01*
G02X30120700Y30104100I-101604J33D01*
G03X29960800Y30124800I-120660J-304117D01*
G02X29847500Y30216100I-12136J100890D01*
G03X29319800Y29927600I-325712J-31097D01*
G02X29314600Y29764000I-62772J-79887D01*
G03X29185300Y29404700I185383J-269629D01*
G02X29087600Y29275200I-97675J-27914D01*
G01X28974800D01*
Y28328800D01*
X28934200Y28320500D01*
G03X29313400Y28094000I65803J-320508D01*
G02X29410700Y28224800I97312J29201D01*
G01X30259800D01*
Y26775200D01*
X28974800D01*
Y26012900D01*
X28698600Y25736700D01*
G02X28525200Y25808600I-71809J71862D01*
G37*
G36*
G01X29703700Y36775200D02*
Y36969400D01*
X29379000Y37294100D01*
X29380000Y37316500D01*
G03X29277300Y37570200I-326824J15336D01*
G02Y37718200I69623J74000D01*
G03X29309300Y37752900I-223914J238596D01*
G01X29381600D01*
X29703700Y38075000D01*
Y38224800D01*
X30104900D01*
G02X30198500Y38083700I-5J-101598D01*
G03X30259800Y37734400I301501J-127117D01*
G01Y36775200D01*
X29703700D01*
G37*
G36*
G01X33974800Y1399200D02*
G02X33801400Y1327300I-101591J-38D01*
G01X33675000Y1453700D01*
X33525200D01*
Y1775200D01*
X33241400D01*
Y2243400D01*
X33240200Y2244600D01*
Y3224800D01*
X33525200D01*
Y4275200D01*
X33240200D01*
Y5724800D01*
X33354800D01*
G02X33452100Y5594000I-12J-101599D01*
G03X33664500Y5188800I313401J-93988D01*
G02X33732300Y5069900I-31335J-96649D01*
G03X33847900Y4742300I319300J-71525D01*
G01Y4114000D01*
X33974800Y3987100D01*
Y3224800D01*
X35685500D01*
X35820400Y3089900D01*
Y2861000D01*
X35392300Y2432900D01*
Y2432700D01*
X35328000Y2368400D01*
Y2044700D01*
X35259800Y1976500D01*
Y1775200D01*
X33974800D01*
Y1399200D01*
G37*
G36*
G01X32235600Y272100D02*
G03X32313200Y593800I-235612J227043D01*
G02X32410500Y724800I97260J29395D01*
G01X33490300D01*
G03X33988100I248900J212400D01*
G01X34089500D01*
G02X34186800Y593800I40J-101605D01*
G03X34264400Y272100I313212J-94657D01*
G02X34191300Y100000I-73126J-70514D01*
G01X32308700D01*
G02X32235600Y272100I26J101586D01*
G37*
G36*
G01X33974800Y26660000D02*
G02X33843400Y26562800I-101616J-46D01*
G03X33655400Y26563900I-95834J-312817D01*
G02X33525200Y26661400I-28590J97505D01*
G01Y26775200D01*
X33240200D01*
Y28224800D01*
X33525200D01*
Y29171200D01*
X33565800Y29179500D01*
G03X33379300Y29804100I-65731J320517D01*
G02X33240200Y29898500I-37496J94433D01*
G01Y30724800D01*
X33525200D01*
Y31775200D01*
X33240200D01*
Y33224800D01*
X33525200D01*
Y33325400D01*
G02X33653400Y33423400I101581J-31D01*
G03X33841500Y33428400I85722J315789D01*
G02X33974800Y33331900I31704J-96522D01*
G01Y33224800D01*
X35259800D01*
Y31775200D01*
X34912400D01*
G02X34814700Y31904700I-25J101586D01*
G03X34185300I-314700J89700D01*
G02X34087600Y31775200I-97675J-27914D01*
G01X33974800D01*
Y30724800D01*
X35259800D01*
Y30523500D01*
X35529600Y30253700D01*
Y30155400D01*
X35448300D01*
X35433900Y30182300D01*
G03Y29875300I-288900J-153500D01*
G01X35448300Y29902200D01*
X35529600D01*
Y29746300D01*
X35259800Y29476500D01*
Y29275200D01*
X34912400D01*
G02X34814700Y29404700I-25J101586D01*
G03X34185300I-314700J89700D01*
G02X34087600Y29275200I-97675J-27914D01*
G01X33974800D01*
Y28224800D01*
X35259800D01*
Y26775200D01*
X33974800D01*
Y26660000D01*
G37*
G36*
G01X34735600Y272100D02*
G03X34813200Y593800I-235612J227043D01*
G02X34910500Y724800I97260J29395D01*
G01X36025200D01*
Y1775200D01*
X35808400D01*
Y2169400D01*
X35872700Y2233700D01*
Y2233900D01*
X36300800Y2662000D01*
Y3288900D01*
X36025200Y3564500D01*
Y4275200D01*
X35740200D01*
Y4794700D01*
X36082200D01*
G03X36278400Y5053200I0J203707D01*
G02X36397400Y5180000I97834J27424D01*
G03X36696500Y5268300I68110J320014D01*
G02X36768300Y5268200I35850J-36010D01*
G03X37313200Y5593800I231682J231026D01*
G02X37410500Y5724800I97260J29395D01*
G01X37759800D01*
Y4275200D01*
X36474800D01*
Y3224800D01*
X36589500D01*
G02X36686800Y3093800I40J-101605D01*
G03X37313200I313200J-94600D01*
G02X37410500Y3224800I97260J29395D01*
G01X37759800D01*
Y1775200D01*
X37152800D01*
G02X37076400Y1943700I50J101593D01*
G03X36583600I-246400J215300D01*
G02X36507200Y1775200I-76450J-66907D01*
G01X36474800D01*
Y724800D01*
X36589500D01*
G02X36686800Y593800I40J-101605D01*
G03X36764400Y272100I313212J-94657D01*
G02X36691300Y100000I-73126J-70514D01*
G01X34808700D01*
G02X34735600Y272100I26J101586D01*
G37*
G36*
G01X34742600Y4415500D02*
G03X34643800Y4796200I-302518J124660D01*
G01Y5354900D01*
X34703700Y5414800D01*
Y5724800D01*
X35259800D01*
Y4275200D01*
X34836600D01*
G02X34742600Y4415500I-42J101611D01*
G37*
G36*
G01X36332200Y28299300D02*
G03X36144100Y28322400I-132224J-299296D01*
G02X36025200Y28422500I-17307J100109D01*
G01Y29275200D01*
X35983200D01*
G02X35911300Y29448600I-27J101595D01*
G01X36010000Y29547300D01*
Y30452700D01*
X35911300Y30551400D01*
G02X35983200Y30724800I71873J71805D01*
G01X36025200D01*
Y31775200D01*
X35740200D01*
Y33224800D01*
X36025200D01*
Y33801700D01*
G02X36148900Y33900900I101609J22D01*
G03X36337000Y33914500I71455J319311D01*
G02X36474800Y33819600I36221J-94902D01*
G01Y33224800D01*
X37759800D01*
Y31775200D01*
X37412400D01*
G02X37314700Y31904700I-25J101586D01*
G03X36685300I-314700J89700D01*
G02X36587600Y31775200I-97675J-27914D01*
G01X36474800D01*
Y30724800D01*
X36935700D01*
G02X37029500Y30584300I-34J-101584D01*
G03X37004900Y30473100I302315J-125200D01*
G02X36855200Y30388000I-101517J4360D01*
G03X36634000Y29779500I-155232J-288025D01*
G02X36705000Y29636000I-20547J-99481D01*
G03X36685300Y29404700I294988J-141613D01*
G02X36587600Y29275200I-97675J-27914D01*
G01X36474800D01*
Y28392300D01*
G02X36332200Y28299300I-101598J-43D01*
G37*
G36*
G01X36474800Y26659700D02*
G02X36343300Y26562700I-101580J73D01*
G03X36155200Y26564100I-96383J-312695D01*
G02X36025200Y26661700I-28398J97553D01*
G01Y26775200D01*
X35740200D01*
Y28224800D01*
X35915200D01*
Y28161600D01*
X35909500Y28150600D01*
G03X35966200Y27771100I290495J-150584D01*
G02Y27628900I-72577J-71100D01*
G03X36433800I233800J-228900D01*
G02Y27771100I72577J71100D01*
G03X36490500Y28150600I-233795J228916D01*
G01X36484800Y28161600D01*
Y28224800D01*
X36589300D01*
G02X36686600Y28094000I-12J-101599D01*
G03X36766200Y27771100I313403J-94003D01*
G02Y27628900I-72577J-71100D01*
G03X37233800I233800J-228900D01*
G02Y27771100I72577J71100D01*
G03X37313400Y28094000I-233803J228897D01*
G02X37410700Y28224800I97312J29201D01*
G01X37759800D01*
Y26775200D01*
X36474800D01*
Y26659700D01*
G37*
G36*
G01X37412400Y29275200D02*
G02X37314700Y29404700I-25J101586D01*
G03X37066000Y29814900I-314684J89702D01*
G02X36995000Y29958400I20547J99481D01*
G03X37026900Y30085900I-295008J141550D01*
G02X37176600Y30171000I101517J-4360D01*
G03X37580900Y30246800I155258J288014D01*
G02X37759800Y30180900I77313J-65898D01*
G01Y29275200D01*
X37412400D01*
G37*
G36*
G01X37235600Y272100D02*
G03X37313200Y593800I-235612J227043D01*
G02X37410500Y724800I97260J29395D01*
G01X38525200D01*
Y1775200D01*
X38240200D01*
Y3224800D01*
X38525200D01*
Y3372000D01*
G02X38576600Y3422800I50792J12D01*
G03X38803800Y3511100I3597J327192D01*
G02X38974800Y3436900I69408J-74184D01*
G01Y3224800D01*
X39089500D01*
G02X39186800Y3093800I40J-101605D01*
G03X39727700Y2764200I313222J-94608D01*
G02X39900000Y2691300I70709J-72944D01*
G01Y1775200D01*
X38974800D01*
Y724800D01*
X39089500D01*
G02X39186800Y593800I40J-101605D01*
G03X39264400Y272100I313212J-94657D01*
G02X39191300Y100000I-73126J-70514D01*
G01X37308700D01*
G02X37235600Y272100I26J101586D01*
G37*
%LPC*%
G75*
G36*
G01X26496600Y17318300D02*
G02X26271100Y17563300I-320016J-68269D01*
G03X26399800Y17681700I29346J97249D01*
G02X26625300Y17436700I320016J68269D01*
G03X26496600Y17318300I-29346J-97249D01*
G37*
G54D15*
X1999100Y12215100D03*
X34988800Y7466200D03*
X34429800Y25229800D03*
X38737600Y14837600D03*
X1643600Y25229800D03*
X1908200Y27769800D03*
X9046400Y35113600D03*
X12014200D03*
X14214200Y2655400D03*
X13800000Y29700000D03*
X21804000Y4750000D03*
X26397800Y2467800D03*
X32177200Y7466200D03*
X28800000Y12200000D03*
X31280100Y27769800D03*
X31240000Y29678000D03*
X34832600Y2467800D03*
%LPD*%
G75*
G54D10*
X2000000Y1250000D03*
X500000D03*
X2000000Y3750000D03*
X500000D03*
X2000000Y6250000D03*
X500000D03*
X2000000Y8750000D03*
X500000D03*
X2000000Y11250000D03*
X500000D03*
X2000000Y13750000D03*
X500000D03*
X2000000Y18750000D03*
X500000D03*
X2000000Y16250000D03*
X500000D03*
X2000000Y21250000D03*
X500000D03*
X2000000Y23750000D03*
X500000D03*
X2000000Y26250000D03*
X500000D03*
X2000000Y31250000D03*
X500000D03*
X2000000Y28750000D03*
X500000D03*
X2000000Y33750000D03*
X500000D03*
X2000000Y36250000D03*
X500000D03*
X2000000Y38750000D03*
X500000D03*
X4500000Y1250000D03*
X3000000D03*
X5500000D03*
Y6250000D03*
Y3750000D03*
X4500000Y6250000D03*
X3000000D03*
X4500000Y3750000D03*
X3000000D03*
X5500000Y8750000D03*
X4500000D03*
X3000000D03*
X5500000Y11250000D03*
X4500000D03*
X3000000D03*
X5500000Y13750000D03*
X4500000D03*
X3000000D03*
X5500000Y18750000D03*
X4500000D03*
X3000000D03*
X5500000Y16250000D03*
X4500000D03*
X3000000D03*
X5500000Y21250000D03*
X4500000D03*
X3000000D03*
X5500000Y23750000D03*
X4500000D03*
X3000000D03*
X5500000Y26250000D03*
X4500000D03*
X3000000D03*
X5500000Y31250000D03*
Y28750000D03*
X4500000Y31250000D03*
X3000000D03*
X4500000Y28750000D03*
X3000000D03*
X5500000Y33750000D03*
X4500000D03*
X3000000D03*
X5500000Y36250000D03*
X4500000D03*
X3000000D03*
X5500000Y38750000D03*
X4500000D03*
X3000000D03*
X7000000Y1250000D03*
X8000000D03*
Y6250000D03*
Y3750000D03*
X7000000Y6250000D03*
Y3750000D03*
X8000000Y8750000D03*
X7000000D03*
X8000000Y11250000D03*
X7000000D03*
X8000000Y13750000D03*
X7000000D03*
X8000000Y18750000D03*
X7000000D03*
Y16250000D03*
X8000000D03*
Y21250000D03*
X7000000D03*
X8000000Y23750000D03*
X7000000D03*
X8000000Y26250000D03*
X7000000D03*
X8000000Y31250000D03*
Y28750000D03*
X7000000Y31250000D03*
Y28750000D03*
X8000000Y33750000D03*
X7000000D03*
X8000000Y36250000D03*
X7000000D03*
X8000000Y38750000D03*
X7000000D03*
X12000000Y1250000D03*
X10500000D03*
X9500000D03*
X12000000Y6250000D03*
X10500000D03*
X12000000Y3750000D03*
X10500000D03*
X9500000Y6250000D03*
Y3750000D03*
X12000000Y8750000D03*
X10500000D03*
X9500000D03*
X12000000Y11250000D03*
X10500000D03*
X9500000D03*
X12000000Y13750000D03*
X10500000D03*
X9500000D03*
X12000000Y18750000D03*
X10500000D03*
X9500000D03*
X12000000Y16250000D03*
X10500000D03*
X9500000D03*
X12000000Y21250000D03*
X10500000D03*
X9500000D03*
X12000000Y23750000D03*
X10500000D03*
X9500000D03*
X12000000Y26250000D03*
X10500000D03*
X9500000D03*
X12000000Y31250000D03*
X10500000D03*
X12000000Y28750000D03*
X10500000D03*
X9500000Y31250000D03*
Y28750000D03*
X12000000Y33750000D03*
X10500000D03*
X9500000D03*
X12000000Y36250000D03*
X10500000D03*
X9500000D03*
X12000000Y38750000D03*
X10500000D03*
X9500000D03*
X14500000Y1250000D03*
X13000000D03*
X14500000Y6250000D03*
X13000000D03*
X14500000Y3750000D03*
X13000000D03*
X14500000Y8750000D03*
X13000000D03*
X14500000Y11250000D03*
X13000000D03*
X14500000Y13750000D03*
X13000000D03*
X14500000Y18750000D03*
X13000000D03*
X14500000Y16250000D03*
X13000000D03*
X14500000Y21250000D03*
X13000000D03*
X14500000Y23750000D03*
X13000000D03*
X14500000Y26250000D03*
X13000000D03*
X14500000Y31250000D03*
X13000000D03*
X14500000Y28750000D03*
X13000000D03*
X14500000Y33750000D03*
X13000000D03*
X14500000Y36250000D03*
X13000000D03*
X14500000Y38750000D03*
X13000000D03*
X18000000Y1250000D03*
X17000000D03*
X15500000D03*
X18000000Y3750000D03*
Y6250000D03*
X17000000D03*
X15500000D03*
X17000000Y3750000D03*
X15500000D03*
X18000000Y8750000D03*
X17000000D03*
X15500000D03*
X18000000Y11250000D03*
X17000000D03*
X15500000D03*
X18000000Y13750000D03*
X17000000D03*
X15500000D03*
X18000000Y16250000D03*
Y18750000D03*
X17000000D03*
X15500000D03*
X17000000Y16250000D03*
X15500000D03*
X18000000Y21250000D03*
X17000000D03*
X15500000D03*
X18000000Y23750000D03*
X17000000D03*
X15500000D03*
X18000000Y26250000D03*
X17000000D03*
X15500000D03*
X18000000Y31250000D03*
Y28750000D03*
X17000000Y31250000D03*
X15500000D03*
X17000000Y28750000D03*
X15500000D03*
X18000000Y33750000D03*
X17000000D03*
X15500000D03*
X18000000Y36250000D03*
X17000000D03*
X15500000D03*
X18000000Y38750000D03*
X17000000D03*
X15500000D03*
X19500000Y1250000D03*
X20500000D03*
X19500000Y3750000D03*
Y6250000D03*
X20500000D03*
Y3750000D03*
X19500000Y8750000D03*
X20500000D03*
X19500000Y11250000D03*
X20500000D03*
X19500000Y13750000D03*
X20500000D03*
X19500000Y16250000D03*
Y18750000D03*
X20500000D03*
Y16250000D03*
X19500000Y21250000D03*
X20500000D03*
X19500000Y23750000D03*
X20500000D03*
X19500000Y26250000D03*
X20500000D03*
X19500000Y31250000D03*
Y28750000D03*
X20500000Y31250000D03*
Y28750000D03*
X19500000Y33750000D03*
X20500000D03*
X19500000Y36250000D03*
X20500000D03*
X19500000Y38750000D03*
X20500000D03*
X24500000Y1250000D03*
X23000000D03*
X22000000D03*
X24500000Y6250000D03*
X23000000D03*
X24500000Y3750000D03*
X23000000D03*
X22000000Y6250000D03*
Y3750000D03*
X24500000Y8750000D03*
X23000000D03*
X22000000D03*
X24500000Y11250000D03*
X23000000D03*
X22000000D03*
X24500000Y13750000D03*
X23000000D03*
X22000000D03*
X24500000Y18750000D03*
X23000000D03*
X24500000Y16250000D03*
X23000000D03*
X22000000Y18750000D03*
Y16250000D03*
X24500000Y21250000D03*
X23000000D03*
X22000000D03*
X24500000Y23750000D03*
X23000000D03*
X22000000D03*
X24500000Y26250000D03*
X23000000D03*
X22000000D03*
X24500000Y31250000D03*
X23000000D03*
X24500000Y28750000D03*
X23000000D03*
X22000000Y31250000D03*
Y28750000D03*
X24500000Y33750000D03*
X23000000D03*
X22000000D03*
X24500000Y36250000D03*
X23000000D03*
X22000000D03*
X24500000Y38750000D03*
X23000000D03*
X22000000D03*
X28000000Y1250000D03*
X27000000D03*
X25500000D03*
X28000000Y6250000D03*
Y3750000D03*
X27000000Y6250000D03*
X25500000D03*
X27000000Y3750000D03*
X25500000D03*
X28000000Y8750000D03*
X27000000D03*
X25500000D03*
X28000000Y11250000D03*
X27000000D03*
X25500000D03*
X28000000Y13750000D03*
X27000000D03*
X25500000D03*
X28000000Y18750000D03*
Y16250000D03*
X27000000D03*
X25500000D03*
X27000000Y18750000D03*
X25500000D03*
X28000000Y21250000D03*
X27000000D03*
X25500000D03*
X28000000Y23750000D03*
X27000000D03*
X25500000D03*
X28000000Y26250000D03*
X27000000D03*
X25500000D03*
X28000000Y31250000D03*
Y28750000D03*
X27000000Y31250000D03*
X25500000D03*
X27000000Y28750000D03*
X25500000D03*
X28000000Y33750000D03*
X27000000D03*
X25500000D03*
X28000000Y36250000D03*
X27000000D03*
X25500000D03*
X28000000Y38750000D03*
X27000000D03*
X25500000D03*
X30500000Y1250000D03*
X29500000D03*
X30500000Y6250000D03*
Y3750000D03*
X29500000Y6250000D03*
Y3750000D03*
X30500000Y8750000D03*
X29500000D03*
X30500000Y11250000D03*
X29500000D03*
X30500000Y13750000D03*
X29500000D03*
X30500000Y18750000D03*
Y16250000D03*
X29500000Y18750000D03*
Y16250000D03*
X30500000Y21250000D03*
X29500000D03*
X30500000Y23750000D03*
X29500000D03*
X30500000Y26250000D03*
X29500000D03*
X30500000Y31250000D03*
Y28750000D03*
X29500000Y31250000D03*
Y28750000D03*
X30500000Y33750000D03*
X29500000D03*
X30500000Y36250000D03*
X29500000D03*
X30500000Y38750000D03*
X29500000D03*
X33000000Y1250000D03*
X32000000D03*
X33000000Y6250000D03*
Y3750000D03*
X32000000Y6250000D03*
Y3750000D03*
X33000000Y8750000D03*
X32000000D03*
X33000000Y11250000D03*
X32000000D03*
X33000000Y13750000D03*
X32000000D03*
X33000000Y18750000D03*
Y16250000D03*
X32000000Y18750000D03*
Y16250000D03*
X33000000Y21250000D03*
X32000000D03*
X33000000Y23750000D03*
X32000000D03*
X33000000Y26250000D03*
X32000000D03*
X33000000Y31250000D03*
Y28750000D03*
X32000000Y31250000D03*
Y28750000D03*
X33000000Y33750000D03*
X32000000D03*
X33000000Y36250000D03*
X32000000D03*
X33000000Y38750000D03*
X32000000D03*
X37000000Y1250000D03*
X35500000D03*
X34500000D03*
X37000000Y6250000D03*
X35500000D03*
X37000000Y3750000D03*
X35500000D03*
X34500000Y6250000D03*
Y3750000D03*
X37000000Y8750000D03*
X35500000D03*
X34500000D03*
X37000000Y11250000D03*
X35500000D03*
X34500000D03*
X37000000Y13750000D03*
X35500000D03*
X34500000D03*
X37000000Y18750000D03*
X35500000D03*
X37000000Y16250000D03*
X35500000D03*
X34500000Y18750000D03*
Y16250000D03*
X37000000Y21250000D03*
X35500000D03*
X34500000D03*
X37000000Y23750000D03*
X35500000D03*
X34500000D03*
X37000000Y26250000D03*
X35500000D03*
X34500000D03*
X37000000Y31250000D03*
X35500000D03*
X37000000Y28750000D03*
X35500000D03*
X34500000Y31250000D03*
Y28750000D03*
X37000000Y33750000D03*
X35500000D03*
X34500000D03*
X37000000Y36250000D03*
X35500000D03*
X34500000D03*
X37000000Y38750000D03*
X35500000D03*
X34500000D03*
X39500000Y1250000D03*
X38000000D03*
X39500000Y6250000D03*
X38000000D03*
X39500000Y3750000D03*
X38000000D03*
X39500000Y8750000D03*
X38000000D03*
X39500000Y11250000D03*
X38000000D03*
X39500000Y13750000D03*
X38000000D03*
X39500000Y18750000D03*
X38000000D03*
X39500000Y16250000D03*
X38000000D03*
X39500000Y21250000D03*
X38000000D03*
X39500000Y23750000D03*
X38000000D03*
X39500000Y26250000D03*
X38000000D03*
X39500000Y31250000D03*
X38000000D03*
X39500000Y28750000D03*
X38000000D03*
X39500000Y33750000D03*
X38000000D03*
X39500000Y36250000D03*
X38000000D03*
X39500000Y38750000D03*
X38000000D03*
G54D11*
X2000000Y499200D03*
Y2999200D03*
Y5499200D03*
Y7999200D03*
X1093400Y10406600D03*
X1999100Y12215100D03*
X2000000Y10499200D03*
X1874400Y14839000D03*
X2000000Y12999200D03*
Y15499200D03*
X1087400Y18750000D03*
X2000000Y17999200D03*
X1086600Y21250000D03*
X2000000Y20100000D03*
Y21994400D03*
X1643600Y25229800D03*
X1255600Y23750000D03*
X1908200Y27769800D03*
X1255600Y26250000D03*
Y28750000D03*
Y31250000D03*
X2499200Y31999200D03*
X1255600Y33750000D03*
X1875000Y35000000D03*
X2000000Y36994400D03*
Y39494400D03*
X4500000Y499200D03*
Y2999200D03*
Y5499200D03*
Y7999200D03*
X3600000Y12000000D03*
X4500000Y10499200D03*
X3736200Y14463800D03*
X3463800Y15463800D03*
X3905000Y14963800D03*
X4500000Y12999200D03*
X3742800Y18750000D03*
X4500000Y17000800D03*
Y17999200D03*
X3637800Y19462200D03*
X4500000Y21994400D03*
X3124000Y19962200D03*
X3748800Y20462200D03*
X3592600Y22492800D03*
X5500000Y23114000D03*
X4500000Y23005600D03*
X3755600Y26250000D03*
X3700000Y29500000D03*
X3592600Y30334200D03*
X4500000Y29494400D03*
X3213600Y34613600D03*
X5467000Y31999200D03*
X3574400Y32627600D03*
X4500000Y31835000D03*
X3755600Y33750000D03*
X3592600Y35113600D03*
X4500000Y36994400D03*
Y39494400D03*
X7000000Y499200D03*
Y2999200D03*
Y5499200D03*
Y7999200D03*
X8000000Y9600000D03*
X8600000D03*
X7000000Y10499200D03*
X6336200Y14463800D03*
X6716600Y14963800D03*
X6248000Y15463800D03*
X7000000Y12999200D03*
X6085800Y18750000D03*
X8741200D03*
X8700000Y17000000D03*
X6200000D03*
X7000000Y17000800D03*
Y17999200D03*
X6337800Y19462200D03*
X8800000Y20600000D03*
X7000000Y21994400D03*
X8747200Y19962200D03*
X5935600D03*
X6560400Y20462200D03*
X8591000Y24054800D03*
X8500000Y22500000D03*
X5900000Y22200000D03*
X7000000Y23005600D03*
X8755600Y26250000D03*
X6255600D03*
X6400000Y29600000D03*
X6404200Y30302800D03*
X7000000Y29494400D03*
X6613600Y34613600D03*
X8278600Y31999200D03*
X6542200Y32627600D03*
X5935600Y32958200D03*
X7000000Y32148200D03*
X8755600Y33750000D03*
X6255600D03*
X6250000Y37500000D03*
X8750000Y36875000D03*
X6078600Y35113600D03*
X7000000Y36994400D03*
Y39494400D03*
X12000000Y499200D03*
X9500000D03*
X12000000Y2999200D03*
X9500000D03*
X11800000Y4800000D03*
X12000000Y5499200D03*
X9500000D03*
X12000000Y7999200D03*
X9500000D03*
X10600000Y10400000D03*
X9200000Y9600000D03*
X9800000D03*
X12000000Y10499200D03*
X9500000D03*
X9400000Y14600000D03*
X11200000Y13200000D03*
X8903400Y14963800D03*
X12000000Y12999200D03*
X9500000D03*
X9215800Y15463800D03*
X10900000Y17300000D03*
X11200000Y18200000D03*
X12000000Y17000800D03*
X9500000D03*
X12000000Y17999200D03*
X9500000D03*
X10500000Y19334200D03*
X9400000Y19600000D03*
X10600000Y20100000D03*
X12000000Y20505600D03*
X9500000Y21994400D03*
X11715000Y19962200D03*
X9372000Y20462200D03*
X11090200Y24523400D03*
X11000000Y22900000D03*
X12000000Y24339800D03*
X9500000Y23100000D03*
X11246400Y26397800D03*
X12000000Y26995200D03*
X9000000Y29700000D03*
X9059600Y30334200D03*
X9500000Y29494400D03*
X12000000D03*
X9713600Y34613600D03*
X11402600Y31999200D03*
X12000000Y31993600D03*
X8903400Y32958200D03*
X12000000Y32985600D03*
X11246400Y32958200D03*
X12014200Y35113600D03*
X9046400D03*
X12000000Y36994400D03*
X9500000D03*
X12000000Y39494400D03*
X9500000D03*
X14214200Y2655400D03*
X14500000Y499200D03*
X15000000Y5300000D03*
X14500000Y4500800D03*
Y5499200D03*
X13745600Y6876400D03*
X13589400Y7501200D03*
X14900000Y12300000D03*
X14500000Y9500800D03*
Y10499200D03*
X14995200Y14711800D03*
X13600000Y14700000D03*
X12339800Y14963800D03*
X14500000Y12999200D03*
Y15490400D03*
X13745600Y16401000D03*
X14500000Y17999200D03*
X13500000Y19700000D03*
X14995200Y19681200D03*
X14500000Y20505600D03*
X13700000Y22000000D03*
X13000000Y23000000D03*
X13750000Y24750000D03*
X13800000Y23200000D03*
X13600000Y27200000D03*
X12183600Y27959800D03*
X13754000Y26250000D03*
X13745600Y27959800D03*
X13800000Y29700000D03*
X14807500Y30490500D03*
X14214200Y30415600D03*
X12183600Y30334200D03*
X13750000Y34375000D03*
X13000000Y32900000D03*
X13800000Y32000000D03*
X13600000Y33000000D03*
X13900000Y34900000D03*
X13745600Y35497400D03*
X14370400Y35301200D03*
X12400000Y35500000D03*
X14500000Y36994400D03*
Y39494400D03*
X17000000Y2000000D03*
Y2999200D03*
X16244800Y5467000D03*
X16200000Y6900000D03*
X16244800Y12496000D03*
Y11871200D03*
X17000000Y9500800D03*
Y10499200D03*
X16084200Y13750000D03*
X16400000Y15100000D03*
X17000000Y12999200D03*
Y15489600D03*
X16244800Y16557200D03*
X16000000Y17700000D03*
X17000000Y17999200D03*
X18200000Y20381400D03*
X17700000Y20100000D03*
X16869600Y20462200D03*
X16600000Y25000000D03*
X16000000D03*
X17200000D03*
X16000000Y24500000D03*
X16600000D03*
X17200000D03*
X16000000Y23000000D03*
X17200000D03*
X15307600Y22336600D03*
X16557200Y27803600D03*
X17650600Y27491200D03*
X17200000Y27785600D03*
X16244800Y30459000D03*
X17338200Y30302800D03*
X17494400Y29521800D03*
X18275400Y30459000D03*
X18300000Y34600000D03*
X18200000Y33000000D03*
X16000000Y32000000D03*
X16600000Y34800000D03*
X18290000Y35450000D03*
X17000000Y36994400D03*
X18275400Y37488000D03*
X17963000Y39674800D03*
X17000000Y39494400D03*
X20618400Y2030600D03*
X19700000Y2477800D03*
X20200000Y2821600D03*
X21243200Y624800D03*
X20462200Y468600D03*
X18744000Y2655400D03*
X19100000Y5000000D03*
X19600000D03*
X20100000D03*
X19100000Y5500000D03*
X19600000D03*
X20100000D03*
X19100000Y7000000D03*
X19600000D03*
X20200000D03*
X19700000Y7828800D03*
X21243200Y10465400D03*
X21200000Y9769800D03*
X20700000Y10234600D03*
X20200000Y9790400D03*
X19984800Y12643400D03*
X19056400Y12652200D03*
X19681200Y9528200D03*
X19500000Y12183600D03*
X18619300Y15307600D03*
X21087000Y12808400D03*
X19500000Y12999200D03*
Y15488800D03*
X18738800Y16250000D03*
X21248400D03*
X18700000Y20662400D03*
X20099900Y19600100D03*
X19500000Y20487200D03*
X20493700Y20430700D03*
X21087000Y22180400D03*
X21399400Y22961400D03*
X19993600Y22180400D03*
X21300000Y24700000D03*
X20149800Y24835800D03*
Y22961400D03*
X19525000Y27959800D03*
X18744000Y28428400D03*
X19681200Y27178800D03*
X20149800Y25460600D03*
X18888200Y27178800D03*
X18431600Y27647400D03*
X20774600Y27335000D03*
X20149800Y27959800D03*
X20930800Y30459000D03*
Y29834200D03*
X20700000Y32102600D03*
X20900000Y33000000D03*
X20600000Y34500000D03*
X19100000Y33000000D03*
X20100000Y34500000D03*
X19600000D03*
X19100000D03*
X18431600Y32333400D03*
X20149800Y37488000D03*
X20462200Y37956600D03*
X19700000Y37156800D03*
X20600000Y35000000D03*
X20100000D03*
X19600000D03*
X19100000D03*
X21399400Y37956600D03*
X19525000Y39674800D03*
X18744000D03*
X21700000Y2667200D03*
X24500000Y499200D03*
X22000000D03*
X22336600Y2655400D03*
X24500000Y2999200D03*
X23742400Y1098200D03*
X23117600Y4529800D03*
X21804000Y4750000D03*
X23117600Y5154600D03*
X24500000Y5499200D03*
X24300000Y7100000D03*
X23176600Y7250000D03*
X23719800Y7750000D03*
X24500000Y7999200D03*
X22492800Y9840600D03*
X24200000Y12194600D03*
X22024200Y9528200D03*
X23273800Y9684400D03*
X21711800Y10153000D03*
X24500000Y10499200D03*
X23698800Y10153000D03*
X23700000Y12538400D03*
X22649000Y12496000D03*
X24700000Y12672600D03*
X21900000Y15500000D03*
X22400000D03*
X21900000Y15000000D03*
X22400000D03*
X23500000Y15500000D03*
Y15000000D03*
X23200000Y12821600D03*
X22649000Y17963000D03*
X24500000Y21994400D03*
X22649000Y19681200D03*
X21711800Y19837400D03*
X24700000Y20285600D03*
X24200000Y19769800D03*
X23700000Y20107400D03*
X23200000Y19769800D03*
X22492800Y22961400D03*
X24500000Y24494400D03*
X22000000D03*
Y22624800D03*
X24500000Y26994400D03*
X22000000D03*
X24500000Y29494400D03*
X22000000D03*
X22180400Y30302800D03*
X23742400Y33114400D03*
X21711800Y34676400D03*
X24500000Y32645800D03*
X21711800Y32333400D03*
X24500000Y31994400D03*
X23190400Y32250000D03*
X21711800Y32897600D03*
X23250300Y32825500D03*
X23300000Y34500000D03*
X23900000Y35500000D03*
X24054800Y37800400D03*
X24679600Y37644200D03*
X22180400D03*
X22768000Y39504000D03*
X27000000Y2000000D03*
X25067800Y2967800D03*
X26397800Y2467800D03*
X27022600Y312400D03*
X27000000Y2999200D03*
X27600000Y5200000D03*
X26241600Y4529800D03*
X27000000Y5499200D03*
X27178800Y4686000D03*
X25900000Y7000000D03*
X26554000Y7466200D03*
X27000000Y7999200D03*
Y10499200D03*
X26241600Y14682800D03*
X27000000Y15000000D03*
X25148200Y12964600D03*
X27000000Y12999200D03*
X26397800Y15307600D03*
X26176600Y17250000D03*
X26719800Y17750000D03*
X27000000Y21994400D03*
X26241600Y19993600D03*
X27000000Y24494400D03*
X26600000Y28000000D03*
X27000000Y26994400D03*
X27171800Y30153600D03*
X27000000Y29494400D03*
X27600000Y29800000D03*
X25054800Y30083800D03*
X27000000Y32802000D03*
Y31994400D03*
X26100000Y33000000D03*
X26241600Y31864800D03*
X27178800Y34520200D03*
X26554000Y35113600D03*
X27022600Y35457400D03*
X24992000Y35145000D03*
X26241600Y36394600D03*
X26554000Y37956600D03*
X27000000Y37621600D03*
X30597000Y403000D03*
X29521800Y2467800D03*
X29500000Y499200D03*
Y2999200D03*
X28584600Y781000D03*
X30100000Y5300000D03*
X28600000Y4500000D03*
X29500000Y5499200D03*
X29834200Y4686000D03*
X28900000Y7000000D03*
X29365600Y7466200D03*
X30300000Y7999200D03*
X30600000Y7300000D03*
X28800000Y12200000D03*
X28803200Y9996800D03*
X29500000Y10499200D03*
Y12999200D03*
X28000000Y15400000D03*
X29500000Y15499200D03*
Y17999200D03*
Y20505600D03*
Y23005600D03*
X28584600Y25304400D03*
X29000000Y28000000D03*
X29521800Y30185000D03*
X29500000Y29494400D03*
X30000000Y29800000D03*
X29834200Y34676400D03*
X29500000Y31994400D03*
X28740800Y31708600D03*
X29365600Y35113600D03*
X30500000Y37956600D03*
X28740800Y36394600D03*
X29053200Y37956600D03*
Y37331800D03*
X32512000Y2032000D03*
X32567800Y2967800D03*
X32177200Y2467800D03*
X32000000Y499200D03*
X33739200Y937200D03*
X31174200Y715200D03*
X33765500Y5500000D03*
X34051600Y4998400D03*
X31240000Y5000000D03*
X32500000Y5400000D03*
X32800000Y7000000D03*
X32566200Y7966200D03*
X32177200Y7466200D03*
X32000000Y10499200D03*
Y12999200D03*
Y15499200D03*
Y17999200D03*
Y20505600D03*
Y23005600D03*
X31280100Y27769800D03*
X33747600Y26250000D03*
X31248400D03*
X32489600Y30185000D03*
X32000000Y29494400D03*
X33500000Y29500000D03*
X31240000Y29678000D03*
X33739200Y33739200D03*
X32000000Y32979200D03*
Y31994400D03*
X32645800Y34676400D03*
X31275000Y34100000D03*
X31083800Y32489600D03*
X33739200Y31708600D03*
X32177200Y35113600D03*
X31400000Y37600000D03*
X33000000Y37956600D03*
X33739200Y36394600D03*
X31240000Y36238400D03*
X32000000Y37976000D03*
Y36994400D03*
X36830000Y2159000D03*
X35132200Y2967800D03*
X34832600Y2467800D03*
X37000000Y499200D03*
X34500000D03*
X37000000Y2999200D03*
X36465500Y5500000D03*
X37000000Y5499200D03*
X34440100Y4540100D03*
X37000000Y7100000D03*
X35266200Y7966200D03*
X34988800Y7466200D03*
X37000000Y7999200D03*
X34500000Y8100000D03*
X37000000Y10499200D03*
X34500000D03*
Y12999200D03*
X37000000D03*
X34500000Y15499200D03*
X37000000D03*
Y17999200D03*
X34500000D03*
X37175600Y17182000D03*
X37000000Y20505600D03*
X34500000D03*
X35500000Y19600000D03*
X37000000Y23005600D03*
X34500000D03*
X34429800Y25229800D03*
X37000000Y27400000D03*
X36200000D03*
X37000000Y28000000D03*
X36200000D03*
X36246800Y26250000D03*
X35145000Y30028800D03*
X37331800Y30459000D03*
X37000000Y29494400D03*
X34500000D03*
X36700000Y30100000D03*
X37000000Y34494400D03*
X34500000Y31994400D03*
X37000000D03*
X36220200Y34220200D03*
X35500000Y37956600D03*
X37000000Y37976000D03*
X34500000D03*
X37000000Y36994400D03*
X34500000D03*
X39500000Y499200D03*
Y2999200D03*
Y5499200D03*
X38580200Y3750000D03*
X39500000Y7999200D03*
X38581400Y12339800D03*
X39500000Y10499200D03*
X38737600Y14837600D03*
X39500000Y12999200D03*
Y15499200D03*
X39362400Y18119200D03*
X39500000Y21994400D03*
Y24494400D03*
Y26994400D03*
Y29494400D03*
Y34494400D03*
Y31994400D03*
X38000000Y37956600D03*
X39500000Y36994400D03*
Y39494400D03*
G54D12*
G01X500000Y3750000D02*
Y1250000D01*
G01Y6250000D02*
Y3750000D01*
G01Y8750000D02*
Y6250000D01*
G01Y11250000D02*
Y8750000D01*
G01Y13750000D02*
Y11250000D01*
G01Y16250000D02*
Y13750000D01*
G01Y18750000D02*
Y16250000D01*
G01Y23750000D02*
Y21250000D01*
G01Y23750000D02*
Y26250000D01*
G01Y28750000D02*
Y26250000D01*
G01Y33750000D02*
Y31250000D01*
G01D02*
Y28750000D01*
G01Y36250000D02*
Y33750000D01*
G01Y38750000D02*
Y36250000D01*
G01X3000000Y3750000D02*
Y1250000D01*
G01X5500000Y3750000D02*
Y1250000D01*
G01X3000000Y6250000D02*
Y3750000D01*
G01X5500000Y6250000D02*
Y3750000D01*
G01X3000000Y11250000D02*
Y8750000D01*
G01D02*
Y6250000D01*
G01X5500000Y11250000D02*
X6060600Y10689400D01*
Y9310600D01*
X5500000Y8750000D01*
G01D02*
Y6250000D01*
G01X3000000Y13750000D02*
Y11250000D01*
G01X5500000Y13750000D02*
Y11250000D01*
G01X3000000Y16250000D02*
Y13750000D01*
G01X5500000Y16250000D02*
Y13750000D01*
G01X3000000Y18750000D02*
Y16250000D01*
G01X5500000Y18750000D02*
Y16250000D01*
G01X3000000Y22492800D02*
Y21250000D01*
G01X5500000Y23114000D02*
Y22401100D01*
X5475000Y22376100D01*
Y22023900D01*
X5500000Y21998900D01*
Y21250000D01*
G01X3000000Y23750000D02*
Y22492800D01*
G01Y26250000D02*
Y23750000D01*
G01X5500000D02*
Y23114000D01*
G01Y23750000D02*
Y26250000D01*
G01X3000000Y28750000D02*
Y26250000D01*
G01X5500000Y28750000D02*
Y26250000D01*
G01X3000000Y33750000D02*
Y31250000D01*
G01D02*
Y28750000D01*
G01X5500000Y33750000D02*
Y32792700D01*
X6060600Y32232100D01*
Y31810600D01*
X5500000Y31250000D01*
G01D02*
Y28750000D01*
G01X3000000Y33750000D02*
X2700000Y34050000D01*
Y35100000D01*
X3000000Y35400000D01*
Y36250000D01*
G01X5500000D02*
Y33750000D01*
G01X3000000Y38750000D02*
Y36250000D01*
G01X5500000Y38750000D02*
Y36250000D01*
G01X8000000Y3750000D02*
Y1250000D01*
G01Y6250000D02*
Y3750000D01*
G01Y8750000D02*
Y6250000D01*
G01Y11250000D02*
Y10599900D01*
X7575000Y10174900D01*
Y9423900D01*
X7800000Y9198900D01*
Y8950000D01*
X8000000Y8750000D01*
G01Y13750000D02*
Y11250000D01*
G01Y16250000D02*
Y13750000D01*
G01Y18750000D02*
Y16250000D01*
G01Y23750000D02*
Y21250000D01*
G01Y26250000D02*
Y23750000D01*
G01Y28750000D02*
Y26250000D01*
G01Y31250000D02*
Y28750000D01*
G01Y33750000D02*
Y33123000D01*
X7700000Y32823000D01*
Y31550000D01*
X8000000Y31250000D01*
G01Y36250000D02*
Y33750000D01*
G01Y38750000D02*
Y36250000D01*
G01X10500000Y3750000D02*
Y1250000D01*
G01Y6250000D02*
Y3750000D01*
G01Y8750000D02*
Y9377000D01*
X10499600Y9377400D01*
Y9700500D01*
X10175000Y10025100D01*
Y10776100D01*
X10500000Y11101100D01*
Y11250000D01*
G01Y8750000D02*
Y6250000D01*
G01Y13750000D02*
Y11250000D01*
G01Y16250000D02*
Y13750000D01*
G01Y18750000D02*
Y17501100D01*
X10475000Y17476100D01*
Y17123900D01*
X10500000Y17098900D01*
Y16250000D01*
G01Y23750000D02*
Y21250000D01*
G01Y26250000D02*
Y23750000D01*
G01Y28750000D02*
Y26250000D01*
G01Y33750000D02*
Y31250000D01*
G01D02*
Y28750000D01*
G01Y36250000D02*
Y33750000D01*
G01Y38750000D02*
Y36250000D01*
G01X13000000Y3750000D02*
Y1250000D01*
G01Y6250000D02*
Y3750000D01*
G01Y11250000D02*
Y8750000D01*
G01D02*
Y6250000D01*
G01Y13750000D02*
Y11250000D01*
G01Y16250000D02*
Y13750000D01*
G01Y18750000D02*
Y16250000D01*
G01X15500000Y23750000D02*
Y23466300D01*
X14882600Y22848900D01*
Y22006900D01*
X15140000Y21749500D01*
Y21723300D01*
X15500000Y21363300D01*
Y21250000D01*
G01X13000000D02*
Y22398900D01*
X12575000Y22823900D01*
Y23176100D01*
X12823900Y23425000D01*
X12855300D01*
X13000000Y23569700D01*
Y23750000D01*
G01Y26250000D02*
Y23750000D01*
G01Y28750000D02*
Y26250000D01*
G01Y31250000D02*
Y28750000D01*
G01Y32900000D02*
Y31250000D01*
G01Y36250000D02*
Y33750000D01*
G01D02*
Y32900000D01*
G01Y38750000D02*
Y36250000D01*
G01X18000000Y3750000D02*
Y1250000D01*
G01X15500000Y3750000D02*
Y1250000D01*
G01Y6250000D02*
Y3750000D01*
G01X18000000Y11250000D02*
Y8750000D01*
G01D02*
Y6250000D01*
G01X15500000Y11250000D02*
Y8750000D01*
G01D02*
Y6250000D01*
G01X18000000Y13750000D02*
Y11250000D01*
G01X15500000Y13750000D02*
Y11250000D01*
G01X18000000Y16250000D02*
Y13750000D01*
G01X15500000Y16250000D02*
Y13750000D01*
G01X18000000Y18750000D02*
Y16250000D01*
G01X15500000Y18750000D02*
Y16250000D01*
G01X18000000Y23750000D02*
Y21250000D01*
G01X15500000Y26250000D02*
Y23750000D01*
G01X18000000Y26250000D02*
Y24992000D01*
G01D02*
Y23750000D01*
G01X15500000Y28750000D02*
Y26250000D01*
G01Y31250000D02*
Y30400000D01*
G01Y31250000D02*
Y33750000D01*
G01Y30400000D02*
Y28750000D01*
G01X18000000Y29641000D02*
Y28750000D01*
G01Y31250000D02*
Y31877000D01*
X17500000Y32377000D01*
Y32901100D01*
X18000000Y33401100D01*
Y33750000D01*
G01X15500000Y36250000D02*
Y33750000D01*
G01X18000000D02*
Y34014700D01*
X17650600Y34364100D01*
Y35273600D01*
X17865000Y35488000D01*
Y35626100D01*
X17875000Y35636100D01*
Y35876100D01*
X18000000Y36001100D01*
Y36250000D01*
G01X15500000Y38750000D02*
Y36250000D01*
G01X18000000Y38750000D02*
Y37813700D01*
X17850400Y37664100D01*
Y37311900D01*
X18000000Y37162300D01*
Y36250000D01*
G01X20500000Y7341400D02*
X20800000Y7041400D01*
Y6550000D01*
X20500000Y6250000D01*
G01Y3750000D02*
Y4377000D01*
X20800000Y4677000D01*
Y5950000D01*
X20500000Y6250000D01*
G01Y7341400D02*
Y8750000D01*
G01Y13750000D02*
Y11250000D01*
G01Y16250000D02*
Y13750000D01*
G01Y18750000D02*
Y16250000D01*
G01Y23750000D02*
Y23212300D01*
X20574800Y23137500D01*
Y22785300D01*
X20500000Y22710500D01*
Y21250000D01*
G01X20930800Y29834200D02*
X20500000D01*
G01D02*
Y28750000D01*
G01Y31250000D02*
Y29834200D01*
G01Y33750000D02*
X20200000Y33450000D01*
Y31550000D01*
X20500000Y31250000D01*
G01Y36250000D02*
X21060600Y35689400D01*
Y34310600D01*
X20500000Y33750000D01*
G01Y38750000D02*
X20930800Y38319200D01*
Y37307800D01*
X20500000Y36877000D01*
Y36250000D01*
G01X23000000Y3750000D02*
Y1250000D01*
G01Y3750000D02*
Y3825000D01*
X23350100D01*
X23586200Y4061100D01*
Y5663800D01*
X23000000Y6250000D01*
G01Y8750000D02*
Y7674500D01*
X22751600Y7426100D01*
Y7073900D01*
X23000000Y6825500D01*
Y6250000D01*
G01X23698800Y10153000D02*
Y9088200D01*
X23360600Y8750000D01*
X23000000D01*
G01Y11250000D02*
X23698800Y10551200D01*
Y10153000D01*
G01X23000000Y23750000D02*
Y21250000D01*
G01Y26250000D02*
Y23750000D01*
G01Y28750000D02*
Y26250000D01*
G01Y31250000D02*
Y28750000D01*
G01Y31250000D02*
X22765400Y31484600D01*
Y32625500D01*
X22965400Y32825500D01*
X23000000D01*
G01Y33750000D02*
Y33950000D01*
X22715700Y34234300D01*
Y34517200D01*
X23000000Y34801500D01*
Y36250000D01*
G01Y33750000D02*
Y32825500D01*
G01D02*
X23250300D01*
G01X23000000Y38750000D02*
X23430000Y38320000D01*
Y37307000D01*
X23000000Y36877000D01*
Y36250000D01*
G01X25500000Y3750000D02*
Y1250000D01*
G01Y6250000D02*
Y3750000D01*
G01Y6400000D02*
Y6250000D01*
G01Y11250000D02*
Y8750000D01*
G01Y13750000D02*
Y13213900D01*
X25573200Y13140700D01*
Y12788500D01*
X25500000Y12715300D01*
Y11250000D01*
G01Y18750000D02*
Y17100000D01*
G01D02*
Y16250000D01*
G01Y23750000D02*
Y21250000D01*
G01Y26250000D02*
Y23750000D01*
G01Y28750000D02*
Y26250000D01*
G01Y33750000D02*
Y31250000D01*
G01D02*
Y28750000D01*
G01Y34832600D02*
Y33750000D01*
G01Y36250000D02*
Y34832600D01*
G01Y38750000D02*
X25929200Y38320800D01*
Y37306200D01*
X25500000Y36877000D01*
Y36250000D01*
G01X28000000Y3750000D02*
Y1250000D01*
G01X30500000Y3750000D02*
Y1250000D01*
G01X28000000Y6250000D02*
Y3750000D01*
G01X30500000Y6250000D02*
Y3750000D01*
G01X28000000Y8750000D02*
Y6250000D01*
G01Y11250000D02*
Y8750000D01*
G01X30500000Y10100000D02*
Y8750000D01*
G01X28000000Y13750000D02*
Y11250000D01*
G01X30500000D02*
Y10100000D01*
G01Y13750000D02*
Y11250000D01*
G01X28000000Y16250000D02*
X28800000Y15450000D01*
Y14550000D01*
X28000000Y13750000D01*
G01X30500000Y16250000D02*
Y13750000D01*
G01X28000000Y18750000D02*
Y16250000D01*
G01X30500000Y18750000D02*
Y16250000D01*
G01Y23750000D02*
Y21250000D01*
G01X28000000Y23750000D02*
Y21250000D01*
G01X30500000Y26250000D02*
Y23750000D01*
G01X28000000Y26250000D02*
Y23750000D01*
G01X30500000Y28750000D02*
Y26250000D01*
G01X28000000Y28750000D02*
Y26250000D01*
G01X30500000Y33750000D02*
Y31250000D01*
G01D02*
Y28750000D01*
G01X28000000Y33750000D02*
Y31250000D01*
G01D02*
Y30623000D01*
X28560600Y30062400D01*
Y29310600D01*
X28000000Y28750000D01*
G01X30500000Y36250000D02*
Y34603000D01*
X30431200D01*
X30197000Y34368800D01*
Y34037200D01*
X30431200Y33803000D01*
X30500000D01*
Y33750000D01*
G01X28000000D02*
X28428400Y34178400D01*
Y35194600D01*
X28000000Y35623000D01*
Y35659400D01*
G01X30500000Y37956600D02*
Y36250000D01*
G01X28000000Y38750000D02*
X28560600Y38189400D01*
Y37464100D01*
X28000000Y36903500D01*
Y36250000D01*
G01Y35659400D02*
Y36250000D01*
G01X30500000Y38750000D02*
Y37956600D01*
G01X33000000Y3750000D02*
Y2145100D01*
X33001200Y2143900D01*
Y1791700D01*
X33000000Y1790500D01*
Y1250000D01*
G01Y6250000D02*
Y3750000D01*
G01Y6250000D02*
X33560600Y6810600D01*
Y7562400D01*
X33000000Y8123000D01*
Y8750000D01*
G01Y11250000D02*
Y8750000D01*
G01Y13750000D02*
Y11250000D01*
G01Y16250000D02*
Y13750000D01*
G01Y18750000D02*
Y16250000D01*
G01Y23750000D02*
Y21250000D01*
G01Y26250000D02*
Y23750000D01*
G01Y28750000D02*
Y26250000D01*
G01Y33750000D02*
Y31250000D01*
G01D02*
Y28750000D01*
G01Y36250000D02*
Y35571700D01*
X33105400Y35466300D01*
Y34534900D01*
X33000000Y34429500D01*
Y33750000D01*
G01Y37956600D02*
Y36250000D01*
G01Y38750000D02*
Y37956600D01*
G01X35500000Y1250000D02*
Y1877000D01*
X35568200Y1945200D01*
Y2268900D01*
X35632500Y2333200D01*
Y2333400D01*
X36060600Y2761500D01*
Y3189400D01*
X35500000Y3750000D01*
G01Y6250000D02*
Y4998400D01*
G01D02*
Y3750000D01*
G01Y8750000D02*
X36060600Y8189400D01*
Y6810600D01*
X35500000Y6250000D01*
G01Y11250000D02*
Y8750000D01*
G01Y13750000D02*
Y11250000D01*
G01Y16250000D02*
Y13750000D01*
G01Y18750000D02*
Y16250000D01*
G01Y23750000D02*
Y21250000D01*
G01Y26250000D02*
Y23750000D01*
G01Y28750000D02*
Y26250000D01*
G01Y33750000D02*
Y31250000D01*
G01D02*
Y30623000D01*
X35769800Y30353200D01*
Y29646800D01*
X35500000Y29377000D01*
Y28750000D01*
G01Y36250000D02*
Y33750000D01*
G01Y37956600D02*
Y36250000D01*
G01Y38750000D02*
Y37956600D01*
G01X38000000Y3750000D02*
Y1250000D01*
G01Y6250000D02*
Y3750000D01*
G01Y11250000D02*
Y8750000D01*
G01D02*
Y6250000D01*
G01Y13750000D02*
Y11250000D01*
G01Y16250000D02*
Y13750000D01*
G01Y18750000D02*
Y16840600D01*
G01D02*
Y16250000D01*
G01Y23750000D02*
Y21250000D01*
G01Y26250000D02*
Y23750000D01*
G01Y28750000D02*
Y26250000D01*
G01Y31250000D02*
Y28750000D01*
G01Y33750000D02*
Y31250000D01*
G01Y36250000D02*
Y33750000D01*
G01Y37956600D02*
Y36250000D01*
G01Y38750000D02*
Y37956600D01*
G54D13*
G01X2000000Y499200D02*
Y1250000D01*
G01Y2999200D02*
Y3750000D01*
G01Y5499200D02*
Y6250000D01*
G01Y7999200D02*
Y8750000D01*
G01Y10499200D02*
Y11250000D01*
G01Y12999200D02*
Y13750000D01*
G01Y15499200D02*
Y16250000D01*
G01X500000Y18750000D02*
X1087400D01*
G01X2000000D02*
Y17999200D01*
G01X500000Y21250000D02*
X1086600D01*
G01X2000000D02*
Y21994400D01*
G01Y23750000D02*
X1255600D01*
G01X2000000Y26250000D02*
X1255600D01*
G01X2000000Y28750000D02*
X1255600D01*
G01X2000000Y31250000D02*
X1255600D01*
G01X2000000Y33750000D02*
X1255600D01*
G01X2000000Y36250000D02*
Y36994400D01*
G01Y38750000D02*
Y39494400D01*
G01X4500000Y499200D02*
Y1250000D01*
G01Y2999200D02*
Y3750000D01*
G01Y5499200D02*
Y6250000D01*
G01Y7999200D02*
Y8750000D01*
G01Y10499200D02*
Y11250000D01*
G01Y12999200D02*
Y13750000D01*
G01X3000000Y18750000D02*
X3742800D01*
G01X5500000D02*
X6085800D01*
G01X4500000Y17000800D02*
Y16250000D01*
G01Y18750000D02*
Y17999200D01*
G01Y21250000D02*
Y21994400D01*
G01X3000000Y22492800D02*
X3592600D01*
G01X4500000Y23750000D02*
Y23005600D01*
G01Y26250000D02*
X3755600D01*
G01X4500000Y28750000D02*
Y29494400D01*
G01Y31250000D02*
Y31835000D01*
G01Y33750000D02*
X3755600D01*
G01X4500000Y36250000D02*
Y36994400D01*
G01Y38750000D02*
Y39494400D01*
G01X7000000Y499200D02*
Y1250000D01*
G01Y2999200D02*
Y3750000D01*
G01Y5499200D02*
Y6250000D01*
G01Y7999200D02*
Y8750000D01*
G01Y10499200D02*
Y11250000D01*
G01Y12999200D02*
Y13750000D01*
G01X8000000Y18750000D02*
X8741200D01*
G01X7000000Y17000800D02*
Y16250000D01*
G01Y18750000D02*
Y17999200D01*
G01Y21250000D02*
Y21994400D01*
G01X8000000Y23750000D02*
X8286200D01*
X8591000Y24054800D01*
G01X7000000Y23750000D02*
Y23005600D01*
G01Y26250000D02*
X6255600D01*
G01X7000000Y28750000D02*
Y29494400D01*
G01Y31250000D02*
Y32148200D01*
G01Y33750000D02*
X6255600D01*
G01X7000000Y36250000D02*
Y36994400D01*
G01Y38750000D02*
Y39494400D01*
G01X9500000Y499200D02*
Y1250000D01*
G01Y2999200D02*
Y3750000D01*
G01Y5499200D02*
Y6250000D01*
G01Y7999200D02*
Y8750000D01*
G01Y10499200D02*
Y11250000D01*
G01Y12999200D02*
Y13750000D01*
G01X10500000Y18750000D02*
Y19334200D01*
G01X9500000Y17000800D02*
Y16250000D01*
G01Y18750000D02*
Y17999200D01*
G01Y21250000D02*
Y21994400D01*
G01Y23750000D02*
Y23100000D01*
G01X10500000Y26250000D02*
X10708000D01*
X10855800Y26397800D01*
X11246400D01*
G01X9500000Y26250000D02*
X8755600D01*
G01X9500000Y28750000D02*
Y29494400D01*
G01Y31250000D02*
Y32361600D01*
X8903400Y32958200D01*
G01X9500000Y33750000D02*
X8755600D01*
G01X9500000Y36250000D02*
Y36994400D01*
G01Y38750000D02*
Y39494400D01*
G01X14500000Y499200D02*
Y1250000D01*
G01X12000000Y499200D02*
Y1250000D01*
G01Y2999200D02*
Y3750000D01*
G01X14500000Y4500800D02*
Y3750000D01*
G01Y5499200D02*
Y6250000D01*
G01X12000000Y5499200D02*
Y6250000D01*
G01X14500000Y9500800D02*
Y8750000D01*
G01X12000000Y7999200D02*
Y8750000D01*
G01X14500000Y10499200D02*
Y11250000D01*
G01X12000000Y10499200D02*
Y11250000D01*
G01X14500000Y12999200D02*
Y13750000D01*
G01X12000000Y12999200D02*
Y13750000D01*
G01X14500000Y15490400D02*
Y16250000D01*
G01X13000000D02*
X13594600D01*
X13745600Y16401000D01*
G01X12000000Y17000800D02*
Y16250000D01*
G01X14500000Y18750000D02*
Y17999200D01*
G01X12000000Y18750000D02*
Y17999200D01*
G01Y21250000D02*
Y20505600D01*
G01X14500000Y21250000D02*
Y20505600D01*
G01X17000000Y21250000D02*
X16255600Y20505600D01*
X14500000D01*
G01Y23750000D02*
Y22800000D01*
X13700000Y22000000D01*
G01X12000000Y23750000D02*
Y24339800D01*
G01Y26250000D02*
Y26995200D01*
G01X14500000Y26250000D02*
X13754000D01*
G01X13745600Y27959800D02*
Y27995600D01*
X14500000Y28750000D01*
G01X12000000D02*
Y29494400D01*
G01X13800000Y32000000D02*
Y31950000D01*
X14500000Y31250000D01*
G01X12000000D02*
Y31993600D01*
G01X13600000Y33000000D02*
X14340600D01*
X14500000Y33159400D01*
Y33750000D01*
G01X12000000D02*
Y32985600D01*
G01X14500000Y36250000D02*
Y36994400D01*
G01X12000000Y36250000D02*
Y36994400D01*
G01X14500000Y38750000D02*
Y39494400D01*
G01X12000000Y38750000D02*
Y39494400D01*
G01X17000000Y1250000D02*
Y2000000D01*
G01Y2999200D02*
Y3750000D01*
G01X16244800Y5467000D02*
Y855200D01*
X16500000Y600000D01*
X18500000D01*
X18700000Y800000D01*
Y2149900D01*
X18355500Y2494400D01*
Y3017700D01*
X18700000Y3362200D01*
Y6000000D01*
X18950000Y6250000D01*
X19500000D01*
G01X18000000D02*
Y5659400D01*
X17650600Y5310000D01*
Y4529800D01*
X18000000Y4180400D01*
Y3750000D01*
G01X17000000Y6250000D02*
X16244800Y5494800D01*
Y5467000D01*
G01X17000000Y9500800D02*
Y8750000D01*
G01Y10499200D02*
Y11250000D01*
G01X15500000Y13750000D02*
X16084200D01*
G01X17000000Y12999200D02*
Y13750000D01*
G01Y15489600D02*
Y16250000D01*
G01X18000000D02*
X18738800D01*
G01X19500000Y18750000D02*
X18850000Y19400000D01*
X17300000D01*
X17000000Y19100000D01*
Y18750000D01*
G01D02*
Y17999200D01*
G01X17338200Y30302800D02*
X16869600D01*
X16168700Y29601900D01*
Y25731300D01*
X16500000Y25400000D01*
X17592000D01*
X18000000Y24992000D01*
G01X17000000Y23750000D02*
X16800000Y23550000D01*
Y22527000D01*
X16609600Y22336600D01*
X15307600D01*
G01X18000000Y28750000D02*
Y28159400D01*
X18119500Y28039900D01*
X18820100D01*
X19681200Y27178800D01*
G01X19500000Y26250000D02*
X18909400D01*
X18744000Y26415400D01*
Y26726400D01*
X18616900Y26853500D01*
X18444500D01*
X18431600Y26866400D01*
X17182000D01*
X17000000Y26684400D01*
Y26250000D01*
G01X16244800Y30459000D02*
X15559000D01*
X15500000Y30400000D01*
G01X17338200Y30302800D02*
X18000000Y29641000D01*
G01X17338200Y30302800D02*
X18000000Y30964600D01*
Y31250000D01*
G01X17000000Y28750000D02*
Y29340600D01*
X17181200Y29521800D01*
X17494400D01*
G01X17000000Y31250000D02*
Y31840600D01*
X16840600Y32000000D01*
X16000000D01*
G01X17000000Y33750000D02*
Y34400000D01*
X16600000Y34800000D01*
G01X17000000Y36250000D02*
Y36994400D01*
G01Y38750000D02*
Y39494400D01*
G01X20500000Y3750000D02*
Y3159400D01*
X21034800Y2624600D01*
Y1784800D01*
X20500000Y1250000D01*
G01D02*
X21125200Y624800D01*
X21243200D01*
G01X19500000Y1250000D02*
Y659400D01*
X19690800Y468600D01*
X20462200D01*
G01X19500000Y3750000D02*
Y3411400D01*
X18744000Y2655400D01*
G01X20500000Y7341400D02*
X20341400Y7500000D01*
X19920700D01*
X19861000Y7440300D01*
X19539000D01*
X18744000Y8235300D01*
Y9996800D01*
X19056400Y10309200D01*
X20149800D01*
X20462200Y10621600D01*
Y11212200D01*
X20500000Y11250000D01*
G01X19500000Y8750000D02*
Y9347000D01*
X19681200Y9528200D01*
G01X19500000Y11250000D02*
Y12183600D01*
G01X21087000Y12808400D02*
X21809200D01*
X22000000Y12999200D01*
Y13750000D01*
G01X19500000Y12999200D02*
Y13750000D01*
G01Y15488800D02*
Y16250000D01*
G01X22000000D02*
X21248400D01*
G01X19500000Y21250000D02*
Y20487200D01*
G01X20500000Y23750000D02*
X21250800D01*
X21396500Y23895700D01*
Y24184500D01*
X21269500Y24311500D01*
X21139000D01*
X20800000Y24650500D01*
Y25950000D01*
X20500000Y26250000D01*
G01X19500000Y23750000D02*
Y23159400D01*
X19698000Y22961400D01*
X20149800D01*
G01X20500000Y26250000D02*
X21399400Y27149400D01*
Y28262800D01*
X21396500Y28265700D01*
Y28431300D01*
X21087000Y28740800D01*
X20509200D01*
X20500000Y28750000D01*
G01X20774600Y27335000D02*
X20618400Y27178800D01*
Y27022600D01*
X20462200Y26866400D01*
X19993600D01*
X19500000Y26372800D01*
Y26250000D01*
G01Y28750000D02*
Y28609600D01*
X20149800Y27959800D01*
G01X19500000Y31250000D02*
Y30659400D01*
X19299600Y30459000D01*
X18275400D01*
G01X19500000Y33750000D02*
X19700000Y33550000D01*
Y32600000D01*
X19433400Y32333400D01*
X18431600D01*
G01X18290000Y35450000D02*
X18440000Y35600000D01*
X18850000D01*
X19500000Y36250000D01*
G01X18275400Y37488000D02*
X19056400D01*
X19500000Y37931600D01*
Y38750000D01*
G01X22000000D02*
X21399400Y38149400D01*
Y37956600D01*
G01X24500000Y499200D02*
Y1250000D01*
G01X22000000Y499200D02*
Y1250000D01*
G01Y3750000D02*
Y2992000D01*
X22336600Y2655400D01*
G01X24500000Y2999200D02*
Y3750000D01*
G01X23000000Y1250000D02*
X23590600D01*
X23742400Y1098200D01*
G01X22000000Y6250000D02*
Y5659400D01*
X22504800Y5154600D01*
X23117600D01*
G01X24500000Y5499200D02*
Y6250000D01*
G01Y7999200D02*
Y8750000D01*
G01X22000000D02*
X22396500Y9146500D01*
Y9234300D01*
X22515700Y9353500D01*
X22942900D01*
X23273800Y9684400D01*
G01X22000000Y11250000D02*
Y10441200D01*
X21711800Y10153000D01*
G01X24500000Y10499200D02*
Y11250000D01*
G01X23000000Y13750000D02*
X22700000Y13450000D01*
Y13200000D01*
X22180400Y12680400D01*
Y12339800D01*
X23000000Y11520200D01*
Y11250000D01*
G01X25500000Y13750000D02*
Y14800000D01*
X25300000Y15000000D01*
X24400000D01*
X23911500Y15488500D01*
Y15750700D01*
X23800000Y15862200D01*
Y16637800D01*
X24015700Y16853500D01*
X24036900D01*
X24283400Y17100000D01*
X25500000D01*
G01X24500000Y13750000D02*
Y13612800D01*
X25148200Y12964600D01*
G01X26397800Y15307600D02*
X24851800D01*
X24500000Y15659400D01*
Y16250000D01*
G01X23000000D02*
Y13750000D01*
G01X24500000Y18750000D02*
Y19340600D01*
X25153000Y19993600D01*
X26241600D01*
G01X22000000Y18750000D02*
Y19422800D01*
X22258400Y19681200D01*
X22649000D01*
G01X23000000Y18750000D02*
X23700000Y18050000D01*
Y16950000D01*
X23000000Y16250000D01*
G01X22000000Y22624800D02*
Y21250000D01*
G01X24500000D02*
Y21994400D01*
G01Y23750000D02*
Y24494400D01*
G01X22000000Y23750000D02*
Y24494400D01*
G01X24500000Y26250000D02*
Y26994400D01*
G01X22000000Y26250000D02*
Y26994400D01*
G01X24500000Y28750000D02*
Y29494400D01*
G01X22000000Y28750000D02*
Y29494400D01*
G01Y31250000D02*
Y32045200D01*
X21711800Y32333400D01*
G01X24500000Y31250000D02*
Y31994400D01*
G01X22000000Y33750000D02*
Y34388200D01*
X21711800Y34676400D01*
G01X24500000Y33750000D02*
Y32645800D01*
G01Y38750000D02*
Y38159400D01*
X24141000Y37800400D01*
X24054800D01*
G01X24679600Y37644200D02*
X24500000Y37464600D01*
Y36250000D01*
G01X22000000D02*
Y37463800D01*
X22180400Y37644200D01*
G01X27000000Y1250000D02*
Y335000D01*
X27022600Y312400D01*
G01X27000000Y2999200D02*
Y3750000D01*
G01X25500000D02*
X26241600Y4491600D01*
Y4529800D01*
G01X27000000Y5499200D02*
Y6250000D01*
G01X25500000Y8750000D02*
Y8159400D01*
X25000200Y7659600D01*
Y6900100D01*
X25200000Y6700300D01*
Y6700000D01*
X25500000Y6400000D01*
G01X27000000Y7999200D02*
Y8750000D01*
G01Y10499200D02*
Y11250000D01*
G01Y12999200D02*
Y13750000D01*
G01X28000000Y15400000D02*
X27259400D01*
X27000000Y15659400D01*
Y16250000D01*
G01Y18750000D02*
X26241600Y19508400D01*
Y19993600D01*
G01X27000000Y21250000D02*
Y21994400D01*
G01Y23750000D02*
Y24494400D01*
G01Y26250000D02*
Y26994400D01*
G01Y28750000D02*
Y29494400D01*
G01Y31250000D02*
Y31994400D01*
G01Y33750000D02*
Y32802000D01*
G01X27022600Y35457400D02*
X27798000D01*
X28000000Y35659400D01*
G01X25500000Y34832600D02*
X25304400D01*
X24992000Y35145000D01*
G01X27000000Y36250000D02*
Y37621600D01*
G01Y38750000D02*
Y38159400D01*
X26797200Y37956600D01*
X26554000D01*
G01X29500000Y499200D02*
Y1250000D01*
G01Y2999200D02*
Y3750000D01*
G01X28000000Y1250000D02*
X28115600D01*
X28584600Y781000D01*
G01X30500000Y1250000D02*
X31034800Y715200D01*
X31174200D01*
G01X29500000Y5499200D02*
Y6250000D01*
G01X30300000Y7999200D02*
X29800800D01*
X29800000Y8000000D01*
X29737600D01*
X29500000Y8237600D01*
Y8750000D01*
G01X30300000Y7999200D02*
X31249200D01*
X32000000Y8750000D01*
G01X30500000Y10100000D02*
X30200000Y9800000D01*
X29400000D01*
X28700000Y9100000D01*
Y8200100D01*
X29045400Y7854700D01*
X29448300D01*
X29455000Y7848000D01*
X29512000D01*
X29627000Y7733000D01*
X29648300D01*
X30500000Y6881300D01*
Y6250000D01*
G01X29500000Y10499200D02*
Y11250000D01*
G01Y12999200D02*
Y13750000D01*
G01Y15499200D02*
Y16250000D01*
G01Y18750000D02*
Y17999200D01*
G01Y21250000D02*
Y20505600D01*
G01Y23750000D02*
Y23005600D01*
G01Y26250000D02*
X28584600Y25334600D01*
Y25304400D01*
G01X29500000Y28750000D02*
Y29494400D01*
G01Y31250000D02*
Y31994400D01*
G01Y33750000D02*
Y34342200D01*
X29834200Y34676400D01*
G01X29500000Y36250000D02*
Y36885000D01*
X29053200Y37331800D01*
G01X29500000Y38750000D02*
Y38159400D01*
X29297200Y37956600D01*
X29053200D01*
G01X32000000Y499200D02*
Y1250000D01*
G01X33000000D02*
X33590600D01*
X33739200Y1101400D01*
Y937200D01*
G01X34051600Y4998400D02*
Y4198400D01*
X34500000Y3750000D01*
G01X31240000Y5000000D02*
Y4510000D01*
X32000000Y3750000D01*
G01X32500000Y5400000D02*
X32259400D01*
X32000000Y5659400D01*
Y6250000D01*
G01Y10499200D02*
Y11250000D01*
G01Y12999200D02*
Y13750000D01*
G01Y15499200D02*
Y16250000D01*
G01Y18750000D02*
Y17999200D01*
G01Y21250000D02*
Y20505600D01*
G01Y23750000D02*
Y23005600D01*
G01X34500000Y26250000D02*
X33747600D01*
G01X32000000D02*
X31248400D01*
G01X32000000Y28750000D02*
Y29494400D01*
G01Y31250000D02*
Y31994400D01*
G01X34500000Y33750000D02*
X34489200Y33739200D01*
X33739200D01*
G01X32000000Y33750000D02*
Y32979200D01*
G01Y36250000D02*
Y36994400D01*
G01Y38750000D02*
Y37976000D01*
G01X37000000Y499200D02*
Y1250000D01*
G01X34500000Y499200D02*
Y1250000D01*
G01X37000000Y2999200D02*
Y3750000D01*
G01Y5499200D02*
Y6250000D01*
G01X34440100Y4540100D02*
Y5439300D01*
X34500000Y5499200D01*
Y6250000D01*
G01X35500000Y4998400D02*
X36082200D01*
G01X37000000Y7999200D02*
Y8750000D01*
G01X34500000D02*
Y8100000D01*
G01X37000000Y10499200D02*
Y11250000D01*
G01X34500000Y10499200D02*
Y11250000D01*
G01Y12999200D02*
Y13750000D01*
G01X37000000Y12999200D02*
Y13750000D01*
G01X34500000Y15499200D02*
Y16250000D01*
G01X37000000Y15499200D02*
Y16250000D01*
G01Y18750000D02*
Y17999200D01*
G01X34500000Y18750000D02*
Y17999200D01*
G01X38000000Y16840600D02*
X37658600Y17182000D01*
X37175600D01*
G01X35500000Y18750000D02*
Y19600000D01*
G01X37000000Y21250000D02*
Y20505600D01*
G01X34500000Y21250000D02*
Y20505600D01*
G01X37000000Y23750000D02*
Y23005600D01*
G01X34500000Y23750000D02*
Y23005600D01*
G01X37000000Y26250000D02*
X36246800D01*
G01X37000000Y28750000D02*
Y29494400D01*
G01X34500000Y28750000D02*
Y29494400D01*
G01Y31250000D02*
Y31994400D01*
G01X37000000Y31250000D02*
Y31994400D01*
G01Y33750000D02*
Y34494400D01*
G01Y36250000D02*
Y36994400D01*
G01X34500000Y36250000D02*
Y36994400D01*
G01X37000000Y38750000D02*
Y37976000D01*
G01X34500000Y38750000D02*
Y37976000D01*
G01X39500000Y499200D02*
Y1250000D01*
G01Y2999200D02*
Y3750000D01*
G01Y5499200D02*
Y6250000D01*
G01X38000000Y3750000D02*
X38580200D01*
G01X39500000Y7999200D02*
Y8750000D01*
G01Y10499200D02*
Y11250000D01*
G01Y12999200D02*
Y13750000D01*
G01Y15499200D02*
Y16250000D01*
G01Y18750000D02*
Y18647400D01*
X39362400Y18509800D01*
Y18119200D01*
G01X39500000Y21250000D02*
Y21994400D01*
G01Y23750000D02*
Y24494400D01*
G01Y26250000D02*
Y26994400D01*
G01Y28750000D02*
Y29494400D01*
G01Y31250000D02*
Y31994400D01*
G01Y33750000D02*
Y34494400D01*
G01Y36250000D02*
Y36994400D01*
G01Y38750000D02*
Y39494400D01*
G54D14*
G01X0Y-1400000D02*
X-2400000D01*
G01X-1200000Y-2600000D02*
Y-200000D01*
G01X-500000Y-1400000D02*
G03I-700000J0D01*
G01X-200000Y-1300000D02*
G03I-1000000J-100000D01*
G01X-1700000Y41300000D02*
G03I-1000000J-100000D01*
G01X-2000000Y41200000D02*
G03I-700000J0D01*
G01X-2700000Y40000000D02*
Y42400000D01*
G01X-1500000Y41200000D02*
X-3900000D01*
G01X39999900Y39999900D02*
X0D01*
Y0D01*
X39999900D01*
Y39999900D01*
G01X42300000Y-1300000D02*
X39900000D01*
G01X42100000Y-1200000D02*
G03I-1000000J-100000D01*
G01X41100000Y-2500000D02*
Y-100000D01*
G01X41800000Y-1300000D02*
G03I-700000J0D01*
G01X41700000Y40100000D02*
Y42500000D01*
G01X42400000Y41300000D02*
G03I-700000J0D01*
G01X42700000Y41400000D02*
G03I-1000000J-100000D01*
G01X42900000Y41300000D02*
X40500000D01*
M02*
