G04 ================== begin FILE IDENTIFICATION RECORD ==================*
G04 Layout Name:  LED Panel G4 V1, 03-26-2017.brd*
G04 Film Name:    SilkScreen_Top*
G04 File Format:  Gerber RS274X*
G04 File Origin:  Cadence Allegro 17.2-P019*
G04 Origin Date:  Sun Dec 20 22:43:21 2020*
G04 *
G04 Layer:  USER PART NUMBER/SILKSCREEN_TOP*
G04 Layer:  TOLERANCE/SILKSCREEN_TOP*
G04 Layer:  REF DES/SILKSCREEN_TOP*
G04 Layer:  PACKAGE GEOMETRY/SILKSCREEN_TOP*
G04 Layer:  PACKAGE GEOMETRY/SOLDERMASK_TOP*
G04 Layer:  DRC ERROR CLASS/TOP*
G04 Layer:  DEVICE TYPE/SILKSCREEN_TOP*
G04 Layer:  COMPONENT VALUE/SILKSCREEN_TOP*
G04 Layer:  BOARD GEOMETRY/OUTLINE*
G04 Layer:  BOARD GEOMETRY/SILKSCREEN_TOP*
G04 *
G04 Offset:    (0.0000 0.0000)*
G04 Mirror:    No*
G04 Mode:      Positive*
G04 Rotation:  0*
G04 FullContactRelief:  No*
G04 UndefLineWidth:     0.1000*
G04 ================== end FILE IDENTIFICATION RECORD ====================*
%FSLAX33Y33*MOMM*%
%IR0*IPPOS*OFA0.00000B0.00000*MIA0B0*SFA1.00000B1.00000*%
%ADD10C,.1*%
%ADD11C,.127*%
%ADD12C,.0508*%
G75*
%LPD*%
G75*
G36*
G01X13780Y26375D02*
G03I-280J0D01*
G37*
G36*
G01X200Y39800D02*
X2000D01*
X200Y38000D01*
Y39800D01*
G37*
G36*
G01X16780Y8375D02*
G03I-280J0D01*
G37*
G36*
G01X19750Y18375D02*
G03I-250J0D01*
G37*
G36*
G01X16780Y36375D02*
G03I-280J0D01*
G37*
G36*
G01X39800Y39800D02*
Y38000D01*
X38000Y39800D01*
X39800D01*
G37*
G36*
G01X13750Y26375D02*
G03I-250J0D01*
G37*
G36*
G01X16750Y8375D02*
G03I-250J0D01*
G37*
G36*
G01Y36375D02*
G03I-250J0D01*
G37*
G54D10*
G01X8479Y15864D02*
G03I-100J0D01*
G01X11446D02*
G03I-100J0D01*
G01Y20862D02*
G03I-100J0D01*
G01X8479D02*
G03I-100J0D01*
G01X5667D02*
G03I-100J0D01*
G01X2855D02*
G03I-100J0D01*
G01Y15864D02*
G03I-100J0D01*
G01X5667D02*
G03I-100J0D01*
G01X8479Y31484D02*
G03I-100J0D01*
G01X11603D02*
G03I-100J0D01*
G01Y36014D02*
G03I-100J0D01*
G01X8635D02*
G03I-100J0D01*
G01X5667D02*
G03I-100J0D01*
G01X2699D02*
G03I-100J0D01*
G01Y31484D02*
G03I-100J0D01*
G01X5667D02*
G03I-100J0D01*
G01X29097Y3368D02*
G03I-100J0D01*
G01X26129D02*
G03I-100J0D01*
G01X26100Y6900D02*
G03I-100J0D01*
G01X29100D02*
G03I-100J0D01*
G01X31900D02*
G03I-100J0D01*
G01X34600D02*
G03I-100J0D01*
G01X34564Y3368D02*
G03I-100J0D01*
G01X31909D02*
G03I-100J0D01*
G01X29097Y31484D02*
G03I-100J0D01*
G01X26285D02*
G03I-100J0D01*
G01X34720Y36014D02*
G03I-100J0D01*
G01X31909D02*
G03I-100J0D01*
G01X29097D02*
G03I-100J0D01*
G01X26285D02*
G03I-100J0D01*
G01X34720Y31484D02*
G03I-100J0D01*
G01X31909D02*
G03I-100J0D01*
G01X40000Y40000D02*
X0D01*
Y0D01*
X40000D01*
Y40000D01*
G01X0Y-1400D02*
X-2400D01*
G01X-1200Y-2600D02*
Y-200D01*
G01X-500Y-1400D02*
G03I-700J0D01*
G01X-200Y-1300D02*
G03I-1000J-100D01*
G01X3577Y7450D02*
X9677D01*
Y13550D01*
X3577D01*
Y7450D01*
G01X15900Y12350D02*
X12700D01*
Y11050D01*
X15900D01*
Y12350D01*
G01X13850Y3200D02*
Y6400D01*
X12550D01*
Y3200D01*
X13850D01*
G01X8504Y14114D02*
X9754D01*
Y15814D01*
X8504D01*
Y14114D01*
G01X11471D02*
X12721D01*
Y15814D01*
X11471D01*
Y14114D01*
G01Y19112D02*
X12721D01*
Y20812D01*
X11471D01*
Y19112D01*
G01X8504D02*
X9754D01*
Y20812D01*
X8504D01*
Y19112D01*
G01X5692D02*
X6942D01*
Y20812D01*
X5692D01*
Y19112D01*
G01X2880D02*
X4130D01*
Y20812D01*
X2880D01*
Y19112D01*
G01Y14114D02*
X4130D01*
Y15814D01*
X2880D01*
Y14114D01*
G01X5692D02*
X6942D01*
Y15814D01*
X5692D01*
Y14114D01*
G01X8504Y29734D02*
X9754D01*
Y31434D01*
X8504D01*
Y29734D01*
G01X11628D02*
X12878D01*
Y31434D01*
X11628D01*
Y29734D01*
G01Y34264D02*
X12878D01*
Y35964D01*
X11628D01*
Y34264D01*
G01X8660D02*
X9910D01*
Y35964D01*
X8660D01*
Y34264D01*
G01X5692D02*
X6942D01*
Y35964D01*
X5692D01*
Y34264D01*
G01X2724D02*
X3974D01*
Y35964D01*
X2724D01*
Y34264D01*
G01Y29734D02*
X3974D01*
Y31434D01*
X2724D01*
Y29734D01*
G01X5692D02*
X6942D01*
Y31434D01*
X5692D01*
Y29734D01*
G01X14450Y21500D02*
X19450D01*
Y26500D01*
X14450D01*
Y21500D01*
G01X3577Y23450D02*
X9677D01*
Y29550D01*
X3577D01*
Y23450D01*
G01X13800Y32550D02*
X17000D01*
Y33850D01*
X13800D01*
Y32550D01*
G01X7300Y21850D02*
X10500D01*
Y23150D01*
X7300D01*
Y21850D01*
G01X-1700Y41300D02*
G03I-1000J-100D01*
G01X-2000Y41200D02*
G03I-700J0D01*
G01X-2700Y40000D02*
Y42400D01*
G01X-1500Y41200D02*
X-3900D01*
G01X42300Y-1300D02*
X39900D01*
G01X42100Y-1200D02*
G03I-1000J-100D01*
G01X29122Y1618D02*
X30372D01*
Y3318D01*
X29122D01*
Y1618D01*
G01X26154D02*
X27404D01*
Y3318D01*
X26154D01*
Y1618D01*
G01X26125Y5150D02*
X27375D01*
Y6850D01*
X26125D01*
Y5150D01*
G01X29125D02*
X30375D01*
Y6850D01*
X29125D01*
Y5150D01*
G01X31925D02*
X33175D01*
Y6850D01*
X31925D01*
Y5150D01*
G01X34625D02*
X35875D01*
Y6850D01*
X34625D01*
Y5150D01*
G01X34589Y1618D02*
X35839D01*
Y3318D01*
X34589D01*
Y1618D01*
G01X31934D02*
X33184D01*
Y3318D01*
X31934D01*
Y1618D01*
G01X17450Y3500D02*
X22450D01*
Y8500D01*
X17450D01*
Y3500D01*
G01X30450Y7450D02*
X36550D01*
Y13550D01*
X30450D01*
Y7450D01*
G01X29122Y29734D02*
X30372D01*
Y31434D01*
X29122D01*
Y29734D01*
G01X26310D02*
X27560D01*
Y31434D01*
X26310D01*
Y29734D01*
G01X34745Y34264D02*
X35995D01*
Y35964D01*
X34745D01*
Y34264D01*
G01X31934D02*
X33184D01*
Y35964D01*
X31934D01*
Y34264D01*
G01X29122D02*
X30372D01*
Y35964D01*
X29122D01*
Y34264D01*
G01X26310D02*
X27560D01*
Y35964D01*
X26310D01*
Y34264D01*
G01X34745Y29734D02*
X35995D01*
Y31434D01*
X34745D01*
Y29734D01*
G01X31934D02*
X33184D01*
Y31434D01*
X31934D01*
Y29734D01*
G01X20450Y13500D02*
X25450D01*
Y18500D01*
X20450D01*
Y13500D01*
G01X17450Y31500D02*
X22450D01*
Y36500D01*
X17450D01*
Y31500D01*
G01X30450Y23450D02*
X36550D01*
Y29550D01*
X30450D01*
Y23450D01*
G01X41100Y-2500D02*
Y-100D01*
G01X41800Y-1300D02*
G03I-700J0D01*
G01X42900Y41300D02*
X40500D01*
G01X41700Y40100D02*
Y42500D01*
G01X42400Y41300D02*
G03I-700J0D01*
G01X42700Y41400D02*
G03I-1000J-100D01*
G54D11*
G01X6907Y12600D02*
Y13400D01*
X7173D01*
X7280Y13360D01*
X7360Y13307D01*
X7427Y13227D01*
X7480Y13133D01*
X7493Y13000D01*
X7480Y12867D01*
X7427Y12773D01*
X7360Y12693D01*
X7280Y12640D01*
X7173Y12600D01*
X6907D01*
G01X7813D02*
Y13133D01*
G01Y13027D02*
X7880Y13080D01*
X7947Y13120D01*
X8040Y13133D01*
X8107Y13120D01*
X8187Y13080D01*
G01X8560Y13133D02*
X8800Y12600D01*
X9040Y13133D01*
G01X9307Y12760D02*
X9387Y12667D01*
X9493Y12613D01*
X9613Y12600D01*
X9720Y12613D01*
X9827Y12680D01*
X9893Y12760D01*
X9907Y12840D01*
X9880Y12933D01*
X9787Y13000D01*
X9693Y13027D01*
X9573D01*
G01X9693D02*
X9773Y13067D01*
X9840Y13133D01*
X9867Y13213D01*
X9840Y13293D01*
X9773Y13360D01*
X9653Y13400D01*
X9533Y13387D01*
X9413Y13333D01*
G01X10933Y12600D02*
Y13400D01*
X11267D01*
X11373Y13360D01*
X11440Y13307D01*
X11467Y13200D01*
X11440Y13093D01*
X11360Y13027D01*
X11267Y12987D01*
X10933D01*
G01X11267D02*
X11467Y12600D01*
G01X11800Y12693D02*
X11867Y12640D01*
X11960Y12600D01*
X12040D01*
X12120Y12627D01*
X12173Y12667D01*
X12200Y12720D01*
X12187Y12800D01*
X12133Y12840D01*
X11893Y12920D01*
X11840Y13013D01*
X11867Y13080D01*
X11920Y13120D01*
X12000Y13133D01*
X12080Y13120D01*
X12160Y13080D01*
G01X12800Y13400D02*
Y12600D01*
G01X12613Y13133D02*
X12987D01*
G01X7880Y8000D02*
X8147D01*
Y7760D01*
X8067Y7680D01*
X7973Y7627D01*
X7840Y7600D01*
X7707Y7627D01*
X7613Y7680D01*
X7533Y7760D01*
X7480Y7853D01*
X7453Y7960D01*
Y8053D01*
X7480Y8133D01*
X7533Y8227D01*
X7613Y8307D01*
X7693Y8360D01*
X7800Y8400D01*
X7893D01*
X8000Y8373D01*
X8080Y8320D01*
G01X8293Y7600D02*
Y8400D01*
X8907Y7600D01*
Y8400D01*
G01X9107Y7600D02*
Y8400D01*
X9373D01*
X9480Y8360D01*
X9560Y8307D01*
X9627Y8227D01*
X9680Y8133D01*
X9693Y8000D01*
X9680Y7867D01*
X9627Y7773D01*
X9560Y7693D01*
X9480Y7640D01*
X9373Y7600D01*
X9107D01*
G01X3893D02*
Y8400D01*
X4507Y7600D01*
Y8400D01*
G01X5293Y8333D02*
X5213Y8373D01*
X5120Y8400D01*
X5013D01*
X4893Y8360D01*
X4800Y8293D01*
X4733Y8213D01*
X4680Y8080D01*
X4667Y7960D01*
X4693Y7840D01*
X4733Y7760D01*
X4813Y7680D01*
X4907Y7627D01*
X5000Y7600D01*
X5093D01*
X5187Y7627D01*
X5267Y7667D01*
X5333Y7720D01*
G01X3493Y13333D02*
X3413Y13373D01*
X3320Y13400D01*
X3213D01*
X3093Y13360D01*
X3000Y13293D01*
X2933Y13213D01*
X2880Y13080D01*
X2867Y12960D01*
X2893Y12840D01*
X2933Y12760D01*
X3013Y12680D01*
X3107Y12627D01*
X3200Y12600D01*
X3293D01*
X3387Y12627D01*
X3467Y12667D01*
X3533Y12720D01*
G01X3720Y12707D02*
X3827Y12640D01*
X3947Y12600D01*
X4053D01*
X4160Y12640D01*
X4240Y12707D01*
X4280Y12800D01*
X4253Y12893D01*
X4187Y12973D01*
X4067Y13027D01*
X3907Y13053D01*
X3813Y13107D01*
X3773Y13200D01*
X3800Y13293D01*
X3867Y13360D01*
X3960Y13400D01*
X4053D01*
X4147Y13373D01*
X4227Y13307D01*
G01X4507Y12760D02*
X4587Y12667D01*
X4693Y12613D01*
X4813Y12600D01*
X4920Y12613D01*
X5027Y12680D01*
X5093Y12760D01*
X5107Y12840D01*
X5080Y12933D01*
X4987Y13000D01*
X4893Y13027D01*
X4773D01*
G01X4893D02*
X4973Y13067D01*
X5040Y13133D01*
X5067Y13213D01*
X5040Y13293D01*
X4973Y13360D01*
X4853Y13400D01*
X4733Y13387D01*
X4613Y13333D01*
G01X707Y760D02*
X787Y667D01*
X893Y613D01*
X1013Y600D01*
X1120Y613D01*
X1227Y680D01*
X1293Y760D01*
X1307Y840D01*
X1280Y933D01*
X1187Y1000D01*
X1093Y1027D01*
X973D01*
G01X1093D02*
X1173Y1067D01*
X1240Y1133D01*
X1267Y1213D01*
X1240Y1293D01*
X1173Y1360D01*
X1053Y1400D01*
X933Y1387D01*
X813Y1333D01*
G01X1773Y453D02*
X1827Y627D01*
G01X2347Y1267D02*
X2427Y1347D01*
X2520Y1387D01*
X2627Y1400D01*
X2760Y1373D01*
X2853Y1307D01*
X2880Y1227D01*
X2867Y1147D01*
X2813Y1080D01*
X2547Y947D01*
X2427Y853D01*
X2347Y720D01*
X2320Y600D01*
X2880D01*
G01X3400Y1400D02*
X3293Y1373D01*
X3213Y1307D01*
X3160Y1227D01*
X3120Y1120D01*
X3107Y1000D01*
X3120Y880D01*
X3160Y773D01*
X3213Y693D01*
X3293Y627D01*
X3400Y600D01*
X3507Y627D01*
X3587Y693D01*
X3640Y773D01*
X3680Y880D01*
X3693Y1000D01*
X3680Y1120D01*
X3640Y1227D01*
X3587Y1307D01*
X3507Y1373D01*
X3400Y1400D01*
G01X4200Y600D02*
Y1400D01*
X4040Y1240D01*
G01Y600D02*
X4360D01*
G01X4973D02*
X5000Y773D01*
X5040Y920D01*
X5093Y1053D01*
X5160Y1200D01*
X5267Y1400D01*
X4733D01*
G01X6267D02*
X6600Y600D01*
X6933Y1400D01*
G01X7147Y1267D02*
X7227Y1347D01*
X7320Y1387D01*
X7427Y1400D01*
X7560Y1373D01*
X7653Y1307D01*
X7680Y1227D01*
X7667Y1147D01*
X7613Y1080D01*
X7347Y947D01*
X7227Y853D01*
X7147Y720D01*
X7120Y600D01*
X7680D01*
G01X15093Y5533D02*
X15013Y5573D01*
X14920Y5600D01*
X14813D01*
X14693Y5560D01*
X14600Y5493D01*
X14533Y5413D01*
X14480Y5280D01*
X14467Y5160D01*
X14493Y5040D01*
X14533Y4960D01*
X14613Y4880D01*
X14707Y4827D01*
X14800Y4800D01*
X14893D01*
X14987Y4827D01*
X15067Y4867D01*
X15133Y4920D01*
G01X15347Y5467D02*
X15427Y5547D01*
X15520Y5587D01*
X15627Y5600D01*
X15760Y5573D01*
X15853Y5507D01*
X15880Y5427D01*
X15867Y5347D01*
X15813Y5280D01*
X15547Y5147D01*
X15427Y5053D01*
X15347Y4920D01*
X15320Y4800D01*
X15880D01*
G01X14133Y2000D02*
Y2800D01*
X14467D01*
X14573Y2760D01*
X14640Y2707D01*
X14667Y2600D01*
X14640Y2493D01*
X14560Y2427D01*
X14467Y2387D01*
X14133D01*
G01X14467D02*
X14667Y2000D01*
G01X14947Y2667D02*
X15027Y2747D01*
X15120Y2787D01*
X15227Y2800D01*
X15360Y2773D01*
X15453Y2707D01*
X15480Y2627D01*
X15467Y2547D01*
X15413Y2480D01*
X15147Y2347D01*
X15027Y2253D01*
X14947Y2120D01*
X14920Y2000D01*
X15480D01*
G01X15773Y2093D02*
X15867Y2027D01*
X15973Y2000D01*
X16080Y2027D01*
X16173Y2107D01*
X16240Y2227D01*
X16267Y2347D01*
Y2493D01*
X16240Y2613D01*
X16173Y2720D01*
X16093Y2773D01*
X16000Y2800D01*
X15893Y2773D01*
X15813Y2720D01*
X15760Y2640D01*
X15733Y2533D01*
X15760Y2440D01*
X15827Y2347D01*
X15907Y2293D01*
X16000Y2280D01*
X16107Y2307D01*
X16187Y2373D01*
X16267Y2493D01*
G01X11733Y6800D02*
Y7600D01*
X12067D01*
X12173Y7560D01*
X12240Y7507D01*
X12267Y7400D01*
X12240Y7293D01*
X12160Y7227D01*
X12067Y7187D01*
X11733D01*
G01X12067D02*
X12267Y6800D01*
G01X12507Y6960D02*
X12587Y6867D01*
X12693Y6813D01*
X12813Y6800D01*
X12920Y6813D01*
X13027Y6880D01*
X13093Y6960D01*
X13107Y7040D01*
X13080Y7133D01*
X12987Y7200D01*
X12893Y7227D01*
X12773D01*
G01X12893D02*
X12973Y7267D01*
X13040Y7333D01*
X13067Y7413D01*
X13040Y7493D01*
X12973Y7560D01*
X12853Y7600D01*
X12733Y7587D01*
X12613Y7533D01*
G01X13347Y7467D02*
X13427Y7547D01*
X13520Y7587D01*
X13627Y7600D01*
X13760Y7573D01*
X13853Y7507D01*
X13880Y7427D01*
X13867Y7347D01*
X13813Y7280D01*
X13547Y7147D01*
X13427Y7053D01*
X13347Y6920D01*
X13320Y6800D01*
X13880D01*
G01X11733Y8000D02*
Y8800D01*
X12067D01*
X12173Y8760D01*
X12240Y8707D01*
X12267Y8600D01*
X12240Y8493D01*
X12160Y8427D01*
X12067Y8387D01*
X11733D01*
G01X12067D02*
X12267Y8000D01*
G01X12507Y8160D02*
X12587Y8067D01*
X12693Y8013D01*
X12813Y8000D01*
X12920Y8013D01*
X13027Y8080D01*
X13093Y8160D01*
X13107Y8240D01*
X13080Y8333D01*
X12987Y8400D01*
X12893Y8427D01*
X12773D01*
G01X12893D02*
X12973Y8467D01*
X13040Y8533D01*
X13067Y8613D01*
X13040Y8693D01*
X12973Y8760D01*
X12853Y8800D01*
X12733Y8787D01*
X12613Y8733D01*
G01X13307Y8160D02*
X13387Y8067D01*
X13493Y8013D01*
X13613Y8000D01*
X13720Y8013D01*
X13827Y8080D01*
X13893Y8160D01*
X13907Y8240D01*
X13880Y8333D01*
X13787Y8400D01*
X13693Y8427D01*
X13573D01*
G01X13693D02*
X13773Y8467D01*
X13840Y8533D01*
X13867Y8613D01*
X13840Y8693D01*
X13773Y8760D01*
X13653Y8800D01*
X13533Y8787D01*
X13413Y8733D01*
G01X433Y9160D02*
X500Y9080D01*
X580Y9027D01*
X673Y9000D01*
X780Y9027D01*
X860Y9080D01*
X940Y9160D01*
X967Y9267D01*
Y9800D01*
G01X1660Y9000D02*
Y9800D01*
X1167Y9227D01*
X1833D01*
G01X11600Y11200D02*
Y11560D01*
X11333Y12000D01*
G01X11867D02*
X11600Y11560D01*
G01X12400Y11200D02*
Y12000D01*
X12240Y11840D01*
G01Y11200D02*
X12560D01*
G01X12600Y2200D02*
Y2560D01*
X12333Y3000D01*
G01X12867D02*
X12600Y2560D01*
G01X13560Y2200D02*
Y3000D01*
X13067Y2427D01*
X13733D01*
G01X507Y23600D02*
Y24400D01*
X773D01*
X880Y24360D01*
X960Y24307D01*
X1027Y24227D01*
X1080Y24133D01*
X1093Y24000D01*
X1080Y23867D01*
X1027Y23773D01*
X960Y23693D01*
X880Y23640D01*
X773Y23600D01*
X507D01*
G01X1333D02*
Y24400D01*
X1667D01*
X1773Y24360D01*
X1840Y24307D01*
X1867Y24200D01*
X1840Y24093D01*
X1760Y24027D01*
X1667Y23987D01*
X1333D01*
G01X1667D02*
X1867Y23600D01*
G01X2067Y24400D02*
X2400Y23600D01*
X2733Y24400D01*
G01X2947Y24267D02*
X3027Y24347D01*
X3120Y24387D01*
X3227Y24400D01*
X3360Y24373D01*
X3453Y24307D01*
X3480Y24227D01*
X3467Y24147D01*
X3413Y24080D01*
X3147Y23947D01*
X3027Y23853D01*
X2947Y23720D01*
X2920Y23600D01*
X3480D01*
G01X4533D02*
Y24400D01*
X4867D01*
X4973Y24360D01*
X5040Y24307D01*
X5067Y24200D01*
X5040Y24093D01*
X4960Y24027D01*
X4867Y23987D01*
X4533D01*
G01X4867D02*
X5067Y23600D01*
G01X5400Y23960D02*
X5827D01*
X5787Y24053D01*
X5720Y24107D01*
X5627Y24133D01*
X5533Y24120D01*
X5453Y24080D01*
X5400Y23987D01*
X5373Y23907D01*
Y23827D01*
X5400Y23747D01*
X5467Y23667D01*
X5547Y23613D01*
X5640Y23600D01*
X5733Y23627D01*
X5827Y23707D01*
G01X6200Y23693D02*
X6267Y23640D01*
X6360Y23600D01*
X6440D01*
X6520Y23627D01*
X6573Y23667D01*
X6600Y23720D01*
X6587Y23800D01*
X6533Y23840D01*
X6293Y23920D01*
X6240Y24013D01*
X6267Y24080D01*
X6320Y24120D01*
X6400Y24133D01*
X6480Y24120D01*
X6560Y24080D01*
G01X7000Y23960D02*
X7427D01*
X7387Y24053D01*
X7320Y24107D01*
X7227Y24133D01*
X7133Y24120D01*
X7053Y24080D01*
X7000Y23987D01*
X6973Y23907D01*
Y23827D01*
X7000Y23747D01*
X7067Y23667D01*
X7147Y23613D01*
X7240Y23600D01*
X7333Y23627D01*
X7427Y23707D01*
G01X8000Y24400D02*
Y23600D01*
G01X7813Y24133D02*
X8187D01*
G01X2893Y28600D02*
Y29400D01*
X3507Y28600D01*
Y29400D01*
G01X4293Y29333D02*
X4213Y29373D01*
X4120Y29400D01*
X4013D01*
X3893Y29360D01*
X3800Y29293D01*
X3733Y29213D01*
X3680Y29080D01*
X3667Y28960D01*
X3693Y28840D01*
X3733Y28760D01*
X3813Y28680D01*
X3907Y28627D01*
X4000Y28600D01*
X4093D01*
X4187Y28627D01*
X4267Y28667D01*
X4333Y28720D01*
G01X7053Y28600D02*
Y29400D01*
X7400Y28733D01*
X7747Y29400D01*
Y28600D01*
G01X8200D02*
X8093Y28613D01*
X8000Y28667D01*
X7920Y28747D01*
X7867Y28840D01*
X7840Y28947D01*
Y29053D01*
X7867Y29160D01*
X7920Y29253D01*
X8000Y29333D01*
X8093Y29387D01*
X8200Y29400D01*
X8307Y29387D01*
X8400Y29333D01*
X8480Y29253D01*
X8533Y29160D01*
X8560Y29053D01*
Y28947D01*
X8533Y28840D01*
X8480Y28747D01*
X8400Y28667D01*
X8307Y28613D01*
X8200Y28600D01*
G01X8720Y28707D02*
X8827Y28640D01*
X8947Y28600D01*
X9053D01*
X9160Y28640D01*
X9240Y28707D01*
X9280Y28800D01*
X9253Y28893D01*
X9187Y28973D01*
X9067Y29027D01*
X8907Y29053D01*
X8813Y29107D01*
X8773Y29200D01*
X8800Y29293D01*
X8867Y29360D01*
X8960Y29400D01*
X9053D01*
X9147Y29373D01*
X9227Y29307D01*
G01X9640Y29400D02*
X9960D01*
G01X9800D02*
Y28600D01*
G01X9640D02*
X9960D01*
G01X7693Y26733D02*
X7613Y26773D01*
X7520Y26800D01*
X7413D01*
X7293Y26760D01*
X7200Y26693D01*
X7133Y26613D01*
X7080Y26480D01*
X7067Y26360D01*
X7093Y26240D01*
X7133Y26160D01*
X7213Y26080D01*
X7307Y26027D01*
X7400Y26000D01*
X7493D01*
X7587Y26027D01*
X7667Y26067D01*
X7733Y26120D01*
G01X7920Y26107D02*
X8027Y26040D01*
X8147Y26000D01*
X8253D01*
X8360Y26040D01*
X8440Y26107D01*
X8480Y26200D01*
X8453Y26293D01*
X8387Y26373D01*
X8267Y26427D01*
X8107Y26453D01*
X8013Y26507D01*
X7973Y26600D01*
X8000Y26693D01*
X8067Y26760D01*
X8160Y26800D01*
X8253D01*
X8347Y26773D01*
X8427Y26707D01*
G01X8747Y26667D02*
X8827Y26747D01*
X8920Y26787D01*
X9027Y26800D01*
X9160Y26773D01*
X9253Y26707D01*
X9280Y26627D01*
X9267Y26547D01*
X9213Y26480D01*
X8947Y26347D01*
X8827Y26253D01*
X8747Y26120D01*
X8720Y26000D01*
X9280D01*
G01X13893Y37533D02*
X13813Y37573D01*
X13720Y37600D01*
X13613D01*
X13493Y37560D01*
X13400Y37493D01*
X13333Y37413D01*
X13280Y37280D01*
X13267Y37160D01*
X13293Y37040D01*
X13333Y36960D01*
X13413Y36880D01*
X13507Y36827D01*
X13600Y36800D01*
X13693D01*
X13787Y36827D01*
X13867Y36867D01*
X13933Y36920D01*
G01X14400Y36800D02*
Y37600D01*
X14240Y37440D01*
G01Y36800D02*
X14560D01*
G01X11893Y22733D02*
X11813Y22773D01*
X11720Y22800D01*
X11613D01*
X11493Y22760D01*
X11400Y22693D01*
X11333Y22613D01*
X11280Y22480D01*
X11267Y22360D01*
X11293Y22240D01*
X11333Y22160D01*
X11413Y22080D01*
X11507Y22027D01*
X11600Y22000D01*
X11693D01*
X11787Y22027D01*
X11867Y22067D01*
X11933Y22120D01*
G01X12560Y22000D02*
Y22800D01*
X12067Y22227D01*
X12733D01*
G01X600Y14067D02*
X1400D01*
Y13733D01*
X1360Y13627D01*
X1307Y13560D01*
X1200Y13533D01*
X1093Y13560D01*
X1027Y13640D01*
X987Y13733D01*
Y14067D01*
G01Y13733D02*
X600Y13533D01*
G01Y13000D02*
X1400D01*
X1240Y13160D01*
G01X600D02*
Y12840D01*
G01X14533Y31800D02*
Y32600D01*
X14867D01*
X14973Y32560D01*
X15040Y32507D01*
X15067Y32400D01*
X15040Y32293D01*
X14960Y32227D01*
X14867Y32187D01*
X14533D01*
G01X14867D02*
X15067Y31800D01*
G01X15600D02*
Y32600D01*
X15440Y32440D01*
G01Y31800D02*
X15760D01*
G01X16400D02*
Y32600D01*
X16240Y32440D01*
G01Y31800D02*
X16560D01*
G01X12533Y37800D02*
Y38600D01*
X12867D01*
X12973Y38560D01*
X13040Y38507D01*
X13067Y38400D01*
X13040Y38293D01*
X12960Y38227D01*
X12867Y38187D01*
X12533D01*
G01X12867D02*
X13067Y37800D01*
G01X13600D02*
Y38600D01*
X13440Y38440D01*
G01Y37800D02*
X13760D01*
G01X14560D02*
Y38600D01*
X14067Y38027D01*
X14733D01*
G01X15837Y37396D02*
X15037D01*
Y37729D01*
X15077Y37836D01*
X15130Y37902D01*
X15237Y37929D01*
X15344Y37902D01*
X15410Y37822D01*
X15450Y37729D01*
Y37396D01*
G01Y37729D02*
X15837Y37929D01*
G01Y38462D02*
X15037D01*
X15197Y38302D01*
G01X15837D02*
Y38622D01*
G01X15504Y39009D02*
X15410Y39102D01*
X15357Y39182D01*
X15330Y39289D01*
X15357Y39382D01*
X15410Y39449D01*
X15490Y39502D01*
X15584Y39516D01*
X15664Y39502D01*
X15744Y39449D01*
X15810Y39369D01*
X15837Y39276D01*
X15810Y39169D01*
X15730Y39076D01*
X15610Y39022D01*
X15477Y39009D01*
X15304Y39036D01*
X15210Y39076D01*
X15117Y39142D01*
X15050Y39236D01*
X15037Y39329D01*
X15064Y39422D01*
X15130Y39489D01*
G01X11533Y27400D02*
Y28200D01*
X11867D01*
X11973Y28160D01*
X12040Y28107D01*
X12067Y28000D01*
X12040Y27893D01*
X11960Y27827D01*
X11867Y27787D01*
X11533D01*
G01X11867D02*
X12067Y27400D01*
G01X12600D02*
Y28200D01*
X12440Y28040D01*
G01Y27400D02*
X12760D01*
G01X13173Y27493D02*
X13267Y27427D01*
X13373Y27400D01*
X13480Y27427D01*
X13573Y27507D01*
X13640Y27627D01*
X13667Y27747D01*
Y27893D01*
X13640Y28013D01*
X13573Y28120D01*
X13493Y28173D01*
X13400Y28200D01*
X13293Y28173D01*
X13213Y28120D01*
X13160Y28040D01*
X13133Y27933D01*
X13160Y27840D01*
X13227Y27747D01*
X13307Y27693D01*
X13400Y27680D01*
X13507Y27707D01*
X13587Y27773D01*
X13667Y27893D01*
G01X14200Y20067D02*
X15000D01*
Y19733D01*
X14960Y19627D01*
X14907Y19560D01*
X14800Y19533D01*
X14693Y19560D01*
X14627Y19640D01*
X14587Y19733D01*
Y20067D01*
G01Y19733D02*
X14200Y19533D01*
G01X14867Y19253D02*
X14947Y19173D01*
X14987Y19080D01*
X15000Y18973D01*
X14973Y18840D01*
X14907Y18747D01*
X14827Y18720D01*
X14747Y18733D01*
X14680Y18787D01*
X14547Y19053D01*
X14453Y19173D01*
X14320Y19253D01*
X14200Y19280D01*
Y18720D01*
G01Y18200D02*
X15000D01*
X14840Y18360D01*
G01X14200D02*
Y18040D01*
G01X13533Y20400D02*
Y21200D01*
X13867D01*
X13973Y21160D01*
X14040Y21107D01*
X14067Y21000D01*
X14040Y20893D01*
X13960Y20827D01*
X13867Y20787D01*
X13533D01*
G01X13867D02*
X14067Y20400D01*
G01X14347Y21067D02*
X14427Y21147D01*
X14520Y21187D01*
X14627Y21200D01*
X14760Y21173D01*
X14853Y21107D01*
X14880Y21027D01*
X14867Y20947D01*
X14813Y20880D01*
X14547Y20747D01*
X14427Y20653D01*
X14347Y20520D01*
X14320Y20400D01*
X14880D01*
G01X15147Y21067D02*
X15227Y21147D01*
X15320Y21187D01*
X15427Y21200D01*
X15560Y21173D01*
X15653Y21107D01*
X15680Y21027D01*
X15667Y20947D01*
X15613Y20880D01*
X15347Y20747D01*
X15227Y20653D01*
X15147Y20520D01*
X15120Y20400D01*
X15680D01*
G01X11133Y23800D02*
Y24600D01*
X11467D01*
X11573Y24560D01*
X11640Y24507D01*
X11667Y24400D01*
X11640Y24293D01*
X11560Y24227D01*
X11467Y24187D01*
X11133D01*
G01X11467D02*
X11667Y23800D01*
G01X11947Y24467D02*
X12027Y24547D01*
X12120Y24587D01*
X12227Y24600D01*
X12360Y24573D01*
X12453Y24507D01*
X12480Y24427D01*
X12467Y24347D01*
X12413Y24280D01*
X12147Y24147D01*
X12027Y24053D01*
X11947Y23920D01*
X11920Y23800D01*
X12480D01*
G01X12707Y23960D02*
X12787Y23867D01*
X12893Y23813D01*
X13013Y23800D01*
X13120Y23813D01*
X13227Y23880D01*
X13293Y23960D01*
X13307Y24040D01*
X13280Y24133D01*
X13187Y24200D01*
X13093Y24227D01*
X12973D01*
G01X13093D02*
X13173Y24267D01*
X13240Y24333D01*
X13267Y24413D01*
X13240Y24493D01*
X13173Y24560D01*
X13053Y24600D01*
X12933Y24587D01*
X12813Y24533D01*
G01X11333Y26200D02*
Y27000D01*
X11667D01*
X11773Y26960D01*
X11840Y26907D01*
X11867Y26800D01*
X11840Y26693D01*
X11760Y26627D01*
X11667Y26587D01*
X11333D01*
G01X11667D02*
X11867Y26200D01*
G01X12147Y26867D02*
X12227Y26947D01*
X12320Y26987D01*
X12427Y27000D01*
X12560Y26973D01*
X12653Y26907D01*
X12680Y26827D01*
X12667Y26747D01*
X12613Y26680D01*
X12347Y26547D01*
X12227Y26453D01*
X12147Y26320D01*
X12120Y26200D01*
X12680D01*
G01X13360D02*
Y27000D01*
X12867Y26427D01*
X13533D01*
G01X14200Y28333D02*
X13400D01*
Y28667D01*
X13440Y28773D01*
X13493Y28840D01*
X13600Y28867D01*
X13707Y28840D01*
X13773Y28760D01*
X13813Y28667D01*
Y28333D01*
G01Y28667D02*
X14200Y28867D01*
G01X13533Y29147D02*
X13453Y29227D01*
X13413Y29320D01*
X13400Y29427D01*
X13427Y29560D01*
X13493Y29653D01*
X13573Y29680D01*
X13653Y29667D01*
X13720Y29613D01*
X13853Y29347D01*
X13947Y29227D01*
X14080Y29147D01*
X14200Y29120D01*
Y29680D01*
G01X14080Y29907D02*
X14147Y29987D01*
X14187Y30080D01*
X14200Y30200D01*
X14173Y30320D01*
X14120Y30413D01*
X14027Y30480D01*
X13920Y30493D01*
X13813Y30467D01*
X13747Y30400D01*
X13693Y30307D01*
X13680Y30213D01*
X13693Y30120D01*
X13747Y30000D01*
X13400Y30040D01*
Y30400D01*
G01X14733Y30000D02*
Y30800D01*
X15067D01*
X15173Y30760D01*
X15240Y30707D01*
X15267Y30600D01*
X15240Y30493D01*
X15160Y30427D01*
X15067Y30387D01*
X14733D01*
G01X15067D02*
X15267Y30000D01*
G01X15547Y30667D02*
X15627Y30747D01*
X15720Y30787D01*
X15827Y30800D01*
X15960Y30773D01*
X16053Y30707D01*
X16080Y30627D01*
X16067Y30547D01*
X16013Y30480D01*
X15747Y30347D01*
X15627Y30253D01*
X15547Y30120D01*
X15520Y30000D01*
X16080D01*
G01X16347Y30333D02*
X16440Y30427D01*
X16520Y30480D01*
X16627Y30507D01*
X16720Y30480D01*
X16787Y30427D01*
X16840Y30347D01*
X16853Y30253D01*
X16840Y30173D01*
X16787Y30093D01*
X16707Y30027D01*
X16613Y30000D01*
X16507Y30027D01*
X16413Y30107D01*
X16360Y30227D01*
X16347Y30360D01*
X16373Y30533D01*
X16413Y30627D01*
X16480Y30720D01*
X16573Y30787D01*
X16667Y30800D01*
X16760Y30773D01*
X16827Y30707D01*
G01X2633Y16800D02*
Y17600D01*
X2967D01*
X3073Y17560D01*
X3140Y17507D01*
X3167Y17400D01*
X3140Y17293D01*
X3060Y17227D01*
X2967Y17187D01*
X2633D01*
G01X2967D02*
X3167Y16800D01*
G01X3860D02*
Y17600D01*
X3367Y17027D01*
X4033D01*
G01X4207Y16960D02*
X4287Y16867D01*
X4393Y16813D01*
X4513Y16800D01*
X4620Y16813D01*
X4727Y16880D01*
X4793Y16960D01*
X4807Y17040D01*
X4780Y17133D01*
X4687Y17200D01*
X4593Y17227D01*
X4473D01*
G01X4593D02*
X4673Y17267D01*
X4740Y17333D01*
X4767Y17413D01*
X4740Y17493D01*
X4673Y17560D01*
X4553Y17600D01*
X4433Y17587D01*
X4313Y17533D01*
G01X9000Y16000D02*
X8893Y16013D01*
X8800Y16067D01*
X8720Y16147D01*
X8667Y16240D01*
X8640Y16347D01*
Y16453D01*
X8667Y16560D01*
X8720Y16653D01*
X8800Y16733D01*
X8893Y16787D01*
X9000Y16800D01*
X9107Y16787D01*
X9200Y16733D01*
X9280Y16653D01*
X9333Y16560D01*
X9360Y16453D01*
Y16347D01*
X9333Y16240D01*
X9280Y16147D01*
X9200Y16067D01*
X9107Y16013D01*
X9000Y16000D01*
G01X9107Y16213D02*
X9267Y16000D01*
G01X9800D02*
Y16800D01*
X9640Y16640D01*
G01Y16000D02*
X9960D01*
G01X11600D02*
X11493Y16013D01*
X11400Y16067D01*
X11320Y16147D01*
X11267Y16240D01*
X11240Y16347D01*
Y16453D01*
X11267Y16560D01*
X11320Y16653D01*
X11400Y16733D01*
X11493Y16787D01*
X11600Y16800D01*
X11707Y16787D01*
X11800Y16733D01*
X11880Y16653D01*
X11933Y16560D01*
X11960Y16453D01*
Y16347D01*
X11933Y16240D01*
X11880Y16147D01*
X11800Y16067D01*
X11707Y16013D01*
X11600Y16000D01*
G01X11707Y16213D02*
X11867Y16000D01*
G01X12147Y16667D02*
X12227Y16747D01*
X12320Y16787D01*
X12427Y16800D01*
X12560Y16773D01*
X12653Y16707D01*
X12680Y16627D01*
X12667Y16547D01*
X12613Y16480D01*
X12347Y16347D01*
X12227Y16253D01*
X12147Y16120D01*
X12120Y16000D01*
X12680D01*
G01X11600Y18200D02*
X11493Y18213D01*
X11400Y18267D01*
X11320Y18347D01*
X11267Y18440D01*
X11240Y18547D01*
Y18653D01*
X11267Y18760D01*
X11320Y18853D01*
X11400Y18933D01*
X11493Y18987D01*
X11600Y19000D01*
X11707Y18987D01*
X11800Y18933D01*
X11880Y18853D01*
X11933Y18760D01*
X11960Y18653D01*
Y18547D01*
X11933Y18440D01*
X11880Y18347D01*
X11800Y18267D01*
X11707Y18213D01*
X11600Y18200D01*
G01X11707Y18413D02*
X11867Y18200D01*
G01X12107Y18360D02*
X12187Y18267D01*
X12293Y18213D01*
X12413Y18200D01*
X12520Y18213D01*
X12627Y18280D01*
X12693Y18360D01*
X12707Y18440D01*
X12680Y18533D01*
X12587Y18600D01*
X12493Y18627D01*
X12373D01*
G01X12493D02*
X12573Y18667D01*
X12640Y18733D01*
X12667Y18813D01*
X12640Y18893D01*
X12573Y18960D01*
X12453Y19000D01*
X12333Y18987D01*
X12213Y18933D01*
G01X8800Y18200D02*
X8693Y18213D01*
X8600Y18267D01*
X8520Y18347D01*
X8467Y18440D01*
X8440Y18547D01*
Y18653D01*
X8467Y18760D01*
X8520Y18853D01*
X8600Y18933D01*
X8693Y18987D01*
X8800Y19000D01*
X8907Y18987D01*
X9000Y18933D01*
X9080Y18853D01*
X9133Y18760D01*
X9160Y18653D01*
Y18547D01*
X9133Y18440D01*
X9080Y18347D01*
X9000Y18267D01*
X8907Y18213D01*
X8800Y18200D01*
G01X8907Y18413D02*
X9067Y18200D01*
G01X9760D02*
Y19000D01*
X9267Y18427D01*
X9933D01*
G01X6000Y18200D02*
X5893Y18213D01*
X5800Y18267D01*
X5720Y18347D01*
X5667Y18440D01*
X5640Y18547D01*
Y18653D01*
X5667Y18760D01*
X5720Y18853D01*
X5800Y18933D01*
X5893Y18987D01*
X6000Y19000D01*
X6107Y18987D01*
X6200Y18933D01*
X6280Y18853D01*
X6333Y18760D01*
X6360Y18653D01*
Y18547D01*
X6333Y18440D01*
X6280Y18347D01*
X6200Y18267D01*
X6107Y18213D01*
X6000Y18200D01*
G01X6107Y18413D02*
X6267Y18200D01*
G01X6507Y18320D02*
X6587Y18253D01*
X6680Y18213D01*
X6800Y18200D01*
X6920Y18227D01*
X7013Y18280D01*
X7080Y18373D01*
X7093Y18480D01*
X7067Y18587D01*
X7000Y18653D01*
X6907Y18707D01*
X6813Y18720D01*
X6720Y18707D01*
X6600Y18653D01*
X6640Y19000D01*
X7000D01*
G01X3000Y18200D02*
X2893Y18213D01*
X2800Y18267D01*
X2720Y18347D01*
X2667Y18440D01*
X2640Y18547D01*
Y18653D01*
X2667Y18760D01*
X2720Y18853D01*
X2800Y18933D01*
X2893Y18987D01*
X3000Y19000D01*
X3107Y18987D01*
X3200Y18933D01*
X3280Y18853D01*
X3333Y18760D01*
X3360Y18653D01*
Y18547D01*
X3333Y18440D01*
X3280Y18347D01*
X3200Y18267D01*
X3107Y18213D01*
X3000Y18200D01*
G01X3107Y18413D02*
X3267Y18200D01*
G01X3547Y18533D02*
X3640Y18627D01*
X3720Y18680D01*
X3827Y18707D01*
X3920Y18680D01*
X3987Y18627D01*
X4040Y18547D01*
X4053Y18453D01*
X4040Y18373D01*
X3987Y18293D01*
X3907Y18227D01*
X3813Y18200D01*
X3707Y18227D01*
X3613Y18307D01*
X3560Y18427D01*
X3547Y18560D01*
X3573Y18733D01*
X3613Y18827D01*
X3680Y18920D01*
X3773Y18987D01*
X3867Y19000D01*
X3960Y18973D01*
X4027Y18907D01*
G01X1200Y15000D02*
X1093Y15013D01*
X1000Y15067D01*
X920Y15147D01*
X867Y15240D01*
X840Y15347D01*
Y15453D01*
X867Y15560D01*
X920Y15653D01*
X1000Y15733D01*
X1093Y15787D01*
X1200Y15800D01*
X1307Y15787D01*
X1400Y15733D01*
X1480Y15653D01*
X1533Y15560D01*
X1560Y15453D01*
Y15347D01*
X1533Y15240D01*
X1480Y15147D01*
X1400Y15067D01*
X1307Y15013D01*
X1200Y15000D01*
G01X1307Y15213D02*
X1467Y15000D01*
G01X1973D02*
X2000Y15173D01*
X2040Y15320D01*
X2093Y15453D01*
X2160Y15600D01*
X2267Y15800D01*
X1733D01*
G01X6000Y16000D02*
X5893Y16013D01*
X5800Y16067D01*
X5720Y16147D01*
X5667Y16240D01*
X5640Y16347D01*
Y16453D01*
X5667Y16560D01*
X5720Y16653D01*
X5800Y16733D01*
X5893Y16787D01*
X6000Y16800D01*
X6107Y16787D01*
X6200Y16733D01*
X6280Y16653D01*
X6333Y16560D01*
X6360Y16453D01*
Y16347D01*
X6333Y16240D01*
X6280Y16147D01*
X6200Y16067D01*
X6107Y16013D01*
X6000Y16000D01*
G01X6107Y16213D02*
X6267Y16000D01*
G01X6800D02*
X6893Y16013D01*
X7000Y16053D01*
X7067Y16120D01*
X7093Y16213D01*
X7067Y16307D01*
X6987Y16387D01*
X6867Y16427D01*
X6733D01*
X6653Y16453D01*
X6587Y16520D01*
X6560Y16613D01*
X6600Y16707D01*
X6693Y16773D01*
X6800Y16800D01*
X6907Y16773D01*
X7000Y16707D01*
X7040Y16613D01*
X7013Y16520D01*
X6947Y16453D01*
X6867Y16427D01*
X6733D01*
X6613Y16387D01*
X6533Y16307D01*
X6507Y16213D01*
X6533Y16120D01*
X6600Y16053D01*
X6707Y16013D01*
X6800Y16000D01*
G01X8400Y31600D02*
X8293Y31613D01*
X8200Y31667D01*
X8120Y31747D01*
X8067Y31840D01*
X8040Y31947D01*
Y32053D01*
X8067Y32160D01*
X8120Y32253D01*
X8200Y32333D01*
X8293Y32387D01*
X8400Y32400D01*
X8507Y32387D01*
X8600Y32333D01*
X8680Y32253D01*
X8733Y32160D01*
X8760Y32053D01*
Y31947D01*
X8733Y31840D01*
X8680Y31747D01*
X8600Y31667D01*
X8507Y31613D01*
X8400Y31600D01*
G01X8507Y31813D02*
X8667Y31600D01*
G01X9200D02*
Y32400D01*
X9040Y32240D01*
G01Y31600D02*
X9360D01*
G01X9973D02*
X10000Y31773D01*
X10040Y31920D01*
X10093Y32053D01*
X10160Y32200D01*
X10267Y32400D01*
X9733D01*
G01X11600Y31600D02*
X11493Y31613D01*
X11400Y31667D01*
X11320Y31747D01*
X11267Y31840D01*
X11240Y31947D01*
Y32053D01*
X11267Y32160D01*
X11320Y32253D01*
X11400Y32333D01*
X11493Y32387D01*
X11600Y32400D01*
X11707Y32387D01*
X11800Y32333D01*
X11880Y32253D01*
X11933Y32160D01*
X11960Y32053D01*
Y31947D01*
X11933Y31840D01*
X11880Y31747D01*
X11800Y31667D01*
X11707Y31613D01*
X11600Y31600D01*
G01X11707Y31813D02*
X11867Y31600D01*
G01X12400D02*
Y32400D01*
X12240Y32240D01*
G01Y31600D02*
X12560D01*
G01X13200D02*
X13293Y31613D01*
X13400Y31653D01*
X13467Y31720D01*
X13493Y31813D01*
X13467Y31907D01*
X13387Y31987D01*
X13267Y32027D01*
X13133D01*
X13053Y32053D01*
X12987Y32120D01*
X12960Y32213D01*
X13000Y32307D01*
X13093Y32373D01*
X13200Y32400D01*
X13307Y32373D01*
X13400Y32307D01*
X13440Y32213D01*
X13413Y32120D01*
X13347Y32053D01*
X13267Y32027D01*
X13133D01*
X13013Y31987D01*
X12933Y31907D01*
X12907Y31813D01*
X12933Y31720D01*
X13000Y31653D01*
X13107Y31613D01*
X13200Y31600D01*
G01X11200Y36200D02*
X11093Y36213D01*
X11000Y36267D01*
X10920Y36347D01*
X10867Y36440D01*
X10840Y36547D01*
Y36653D01*
X10867Y36760D01*
X10920Y36853D01*
X11000Y36933D01*
X11093Y36987D01*
X11200Y37000D01*
X11307Y36987D01*
X11400Y36933D01*
X11480Y36853D01*
X11533Y36760D01*
X11560Y36653D01*
Y36547D01*
X11533Y36440D01*
X11480Y36347D01*
X11400Y36267D01*
X11307Y36213D01*
X11200Y36200D01*
G01X11307Y36413D02*
X11467Y36200D01*
G01X12000D02*
Y37000D01*
X11840Y36840D01*
G01Y36200D02*
X12160D01*
G01X12573Y36293D02*
X12667Y36227D01*
X12773Y36200D01*
X12880Y36227D01*
X12973Y36307D01*
X13040Y36427D01*
X13067Y36547D01*
Y36693D01*
X13040Y36813D01*
X12973Y36920D01*
X12893Y36973D01*
X12800Y37000D01*
X12693Y36973D01*
X12613Y36920D01*
X12560Y36840D01*
X12533Y36733D01*
X12560Y36640D01*
X12627Y36547D01*
X12707Y36493D01*
X12800Y36480D01*
X12907Y36507D01*
X12987Y36573D01*
X13067Y36693D01*
G01X8400Y36200D02*
X8293Y36213D01*
X8200Y36267D01*
X8120Y36347D01*
X8067Y36440D01*
X8040Y36547D01*
Y36653D01*
X8067Y36760D01*
X8120Y36853D01*
X8200Y36933D01*
X8293Y36987D01*
X8400Y37000D01*
X8507Y36987D01*
X8600Y36933D01*
X8680Y36853D01*
X8733Y36760D01*
X8760Y36653D01*
Y36547D01*
X8733Y36440D01*
X8680Y36347D01*
X8600Y36267D01*
X8507Y36213D01*
X8400Y36200D01*
G01X8507Y36413D02*
X8667Y36200D01*
G01X8947Y36867D02*
X9027Y36947D01*
X9120Y36987D01*
X9227Y37000D01*
X9360Y36973D01*
X9453Y36907D01*
X9480Y36827D01*
X9467Y36747D01*
X9413Y36680D01*
X9147Y36547D01*
X9027Y36453D01*
X8947Y36320D01*
X8920Y36200D01*
X9480D01*
G01X10000Y37000D02*
X9893Y36973D01*
X9813Y36907D01*
X9760Y36827D01*
X9720Y36720D01*
X9707Y36600D01*
X9720Y36480D01*
X9760Y36373D01*
X9813Y36293D01*
X9893Y36227D01*
X10000Y36200D01*
X10107Y36227D01*
X10187Y36293D01*
X10240Y36373D01*
X10280Y36480D01*
X10293Y36600D01*
X10280Y36720D01*
X10240Y36827D01*
X10187Y36907D01*
X10107Y36973D01*
X10000Y37000D01*
G01X5600Y36200D02*
X5493Y36213D01*
X5400Y36267D01*
X5320Y36347D01*
X5267Y36440D01*
X5240Y36547D01*
Y36653D01*
X5267Y36760D01*
X5320Y36853D01*
X5400Y36933D01*
X5493Y36987D01*
X5600Y37000D01*
X5707Y36987D01*
X5800Y36933D01*
X5880Y36853D01*
X5933Y36760D01*
X5960Y36653D01*
Y36547D01*
X5933Y36440D01*
X5880Y36347D01*
X5800Y36267D01*
X5707Y36213D01*
X5600Y36200D01*
G01X5707Y36413D02*
X5867Y36200D01*
G01X6147Y36867D02*
X6227Y36947D01*
X6320Y36987D01*
X6427Y37000D01*
X6560Y36973D01*
X6653Y36907D01*
X6680Y36827D01*
X6667Y36747D01*
X6613Y36680D01*
X6347Y36547D01*
X6227Y36453D01*
X6147Y36320D01*
X6120Y36200D01*
X6680D01*
G01X7200D02*
Y37000D01*
X7040Y36840D01*
G01Y36200D02*
X7360D01*
G01X2600D02*
X2493Y36213D01*
X2400Y36267D01*
X2320Y36347D01*
X2267Y36440D01*
X2240Y36547D01*
Y36653D01*
X2267Y36760D01*
X2320Y36853D01*
X2400Y36933D01*
X2493Y36987D01*
X2600Y37000D01*
X2707Y36987D01*
X2800Y36933D01*
X2880Y36853D01*
X2933Y36760D01*
X2960Y36653D01*
Y36547D01*
X2933Y36440D01*
X2880Y36347D01*
X2800Y36267D01*
X2707Y36213D01*
X2600Y36200D01*
G01X2707Y36413D02*
X2867Y36200D01*
G01X3147Y36867D02*
X3227Y36947D01*
X3320Y36987D01*
X3427Y37000D01*
X3560Y36973D01*
X3653Y36907D01*
X3680Y36827D01*
X3667Y36747D01*
X3613Y36680D01*
X3347Y36547D01*
X3227Y36453D01*
X3147Y36320D01*
X3120Y36200D01*
X3680D01*
G01X3947Y36867D02*
X4027Y36947D01*
X4120Y36987D01*
X4227Y37000D01*
X4360Y36973D01*
X4453Y36907D01*
X4480Y36827D01*
X4467Y36747D01*
X4413Y36680D01*
X4147Y36547D01*
X4027Y36453D01*
X3947Y36320D01*
X3920Y36200D01*
X4480D01*
G01X2600Y31600D02*
X2493Y31613D01*
X2400Y31667D01*
X2320Y31747D01*
X2267Y31840D01*
X2240Y31947D01*
Y32053D01*
X2267Y32160D01*
X2320Y32253D01*
X2400Y32333D01*
X2493Y32387D01*
X2600Y32400D01*
X2707Y32387D01*
X2800Y32333D01*
X2880Y32253D01*
X2933Y32160D01*
X2960Y32053D01*
Y31947D01*
X2933Y31840D01*
X2880Y31747D01*
X2800Y31667D01*
X2707Y31613D01*
X2600Y31600D01*
G01X2707Y31813D02*
X2867Y31600D01*
G01X3147Y32267D02*
X3227Y32347D01*
X3320Y32387D01*
X3427Y32400D01*
X3560Y32373D01*
X3653Y32307D01*
X3680Y32227D01*
X3667Y32147D01*
X3613Y32080D01*
X3347Y31947D01*
X3227Y31853D01*
X3147Y31720D01*
X3120Y31600D01*
X3680D01*
G01X3907Y31760D02*
X3987Y31667D01*
X4093Y31613D01*
X4213Y31600D01*
X4320Y31613D01*
X4427Y31680D01*
X4493Y31760D01*
X4507Y31840D01*
X4480Y31933D01*
X4387Y32000D01*
X4293Y32027D01*
X4173D01*
G01X4293D02*
X4373Y32067D01*
X4440Y32133D01*
X4467Y32213D01*
X4440Y32293D01*
X4373Y32360D01*
X4253Y32400D01*
X4133Y32387D01*
X4013Y32333D01*
G01X5600Y31600D02*
X5493Y31613D01*
X5400Y31667D01*
X5320Y31747D01*
X5267Y31840D01*
X5240Y31947D01*
Y32053D01*
X5267Y32160D01*
X5320Y32253D01*
X5400Y32333D01*
X5493Y32387D01*
X5600Y32400D01*
X5707Y32387D01*
X5800Y32333D01*
X5880Y32253D01*
X5933Y32160D01*
X5960Y32053D01*
Y31947D01*
X5933Y31840D01*
X5880Y31747D01*
X5800Y31667D01*
X5707Y31613D01*
X5600Y31600D01*
G01X5707Y31813D02*
X5867Y31600D01*
G01X6147Y32267D02*
X6227Y32347D01*
X6320Y32387D01*
X6427Y32400D01*
X6560Y32373D01*
X6653Y32307D01*
X6680Y32227D01*
X6667Y32147D01*
X6613Y32080D01*
X6347Y31947D01*
X6227Y31853D01*
X6147Y31720D01*
X6120Y31600D01*
X6680D01*
G01X7360D02*
Y32400D01*
X6867Y31827D01*
X7533D01*
G01X13907Y27800D02*
Y27227D01*
X13960Y27107D01*
X14067Y27027D01*
X14200Y27000D01*
X14333Y27027D01*
X14440Y27107D01*
X14493Y27227D01*
Y27800D01*
G01X14707Y27160D02*
X14787Y27067D01*
X14893Y27013D01*
X15013Y27000D01*
X15120Y27013D01*
X15227Y27080D01*
X15293Y27160D01*
X15307Y27240D01*
X15280Y27333D01*
X15187Y27400D01*
X15093Y27427D01*
X14973D01*
G01X15093D02*
X15173Y27467D01*
X15240Y27533D01*
X15267Y27613D01*
X15240Y27693D01*
X15173Y27760D01*
X15053Y27800D01*
X14933Y27787D01*
X14813Y27733D01*
G01X533Y27360D02*
X600Y27280D01*
X680Y27227D01*
X773Y27200D01*
X880Y27227D01*
X960Y27280D01*
X1040Y27360D01*
X1067Y27467D01*
Y28000D01*
G01X1307Y27360D02*
X1387Y27267D01*
X1493Y27213D01*
X1613Y27200D01*
X1720Y27213D01*
X1827Y27280D01*
X1893Y27360D01*
X1907Y27440D01*
X1880Y27533D01*
X1787Y27600D01*
X1693Y27627D01*
X1573D01*
G01X1693D02*
X1773Y27667D01*
X1840Y27733D01*
X1867Y27813D01*
X1840Y27893D01*
X1773Y27960D01*
X1653Y28000D01*
X1533Y27987D01*
X1413Y27933D01*
G01X12600Y33000D02*
Y33360D01*
X12333Y33800D01*
G01X12867D02*
X12600Y33360D01*
G01X13147Y33667D02*
X13227Y33747D01*
X13320Y33787D01*
X13427Y33800D01*
X13560Y33773D01*
X13653Y33707D01*
X13680Y33627D01*
X13667Y33547D01*
X13613Y33480D01*
X13347Y33347D01*
X13227Y33253D01*
X13147Y33120D01*
X13120Y33000D01*
X13680D01*
G01X6000Y22200D02*
Y22560D01*
X5733Y23000D01*
G01X6267D02*
X6000Y22560D01*
G01X6507Y22360D02*
X6587Y22267D01*
X6693Y22213D01*
X6813Y22200D01*
X6920Y22213D01*
X7027Y22280D01*
X7093Y22360D01*
X7107Y22440D01*
X7080Y22533D01*
X6987Y22600D01*
X6893Y22627D01*
X6773D01*
G01X6893D02*
X6973Y22667D01*
X7040Y22733D01*
X7067Y22813D01*
X7040Y22893D01*
X6973Y22960D01*
X6853Y23000D01*
X6733Y22987D01*
X6613Y22933D01*
G01X12533Y38800D02*
Y39600D01*
X12867D01*
X12973Y39560D01*
X13040Y39507D01*
X13067Y39400D01*
X13040Y39293D01*
X12960Y39227D01*
X12867Y39187D01*
X12533D01*
G01X12867D02*
X13067Y38800D01*
G01X13600D02*
Y39600D01*
X13440Y39440D01*
G01Y38800D02*
X13760D01*
G01X14107Y38920D02*
X14187Y38853D01*
X14280Y38813D01*
X14400Y38800D01*
X14520Y38827D01*
X14613Y38880D01*
X14680Y38973D01*
X14693Y39080D01*
X14667Y39187D01*
X14600Y39253D01*
X14507Y39307D01*
X14413Y39320D01*
X14320Y39307D01*
X14200Y39253D01*
X14240Y39600D01*
X14600D01*
G01X29507Y10200D02*
Y11000D01*
X29773D01*
X29880Y10960D01*
X29960Y10907D01*
X30027Y10827D01*
X30080Y10733D01*
X30093Y10600D01*
X30080Y10467D01*
X30027Y10373D01*
X29960Y10293D01*
X29880Y10240D01*
X29773Y10200D01*
X29507D01*
G01X30333D02*
Y11000D01*
X30667D01*
X30773Y10960D01*
X30840Y10907D01*
X30867Y10800D01*
X30840Y10693D01*
X30760Y10627D01*
X30667Y10587D01*
X30333D01*
G01X30667D02*
X30867Y10200D01*
G01X31067Y11000D02*
X31400Y10200D01*
X31733Y11000D01*
G01X32200Y10200D02*
Y11000D01*
X32040Y10840D01*
G01Y10200D02*
X32360D01*
G01X33533D02*
Y11000D01*
X33867D01*
X33973Y10960D01*
X34040Y10907D01*
X34067Y10800D01*
X34040Y10693D01*
X33960Y10627D01*
X33867Y10587D01*
X33533D01*
G01X33867D02*
X34067Y10200D01*
G01X34400Y10293D02*
X34467Y10240D01*
X34560Y10200D01*
X34640D01*
X34720Y10227D01*
X34773Y10267D01*
X34800Y10320D01*
X34787Y10400D01*
X34733Y10440D01*
X34493Y10520D01*
X34440Y10613D01*
X34467Y10680D01*
X34520Y10720D01*
X34600Y10733D01*
X34680Y10720D01*
X34760Y10680D01*
G01X35400Y11000D02*
Y10200D01*
G01X35213Y10733D02*
X35587D01*
G01X36493Y10200D02*
Y11000D01*
X37107Y10200D01*
Y11000D01*
G01X37893Y10933D02*
X37813Y10973D01*
X37720Y11000D01*
X37613D01*
X37493Y10960D01*
X37400Y10893D01*
X37333Y10813D01*
X37280Y10680D01*
X37267Y10560D01*
X37293Y10440D01*
X37333Y10360D01*
X37413Y10280D01*
X37507Y10227D01*
X37600Y10200D01*
X37693D01*
X37787Y10227D01*
X37867Y10267D01*
X37933Y10320D01*
G01X34253Y12600D02*
Y13400D01*
X34600Y12733D01*
X34947Y13400D01*
Y12600D01*
G01X35240Y13400D02*
X35560D01*
G01X35400D02*
Y12600D01*
G01X35240D02*
X35560D01*
G01X35920Y12707D02*
X36027Y12640D01*
X36147Y12600D01*
X36253D01*
X36360Y12640D01*
X36440Y12707D01*
X36480Y12800D01*
X36453Y12893D01*
X36387Y12973D01*
X36267Y13027D01*
X36107Y13053D01*
X36013Y13107D01*
X35973Y13200D01*
X36000Y13293D01*
X36067Y13360D01*
X36160Y13400D01*
X36253D01*
X36347Y13373D01*
X36427Y13307D01*
G01X37000Y12600D02*
X36893Y12613D01*
X36800Y12667D01*
X36720Y12747D01*
X36667Y12840D01*
X36640Y12947D01*
Y13053D01*
X36667Y13160D01*
X36720Y13253D01*
X36800Y13333D01*
X36893Y13387D01*
X37000Y13400D01*
X37107Y13387D01*
X37200Y13333D01*
X37280Y13253D01*
X37333Y13160D01*
X37360Y13053D01*
Y12947D01*
X37333Y12840D01*
X37280Y12747D01*
X37200Y12667D01*
X37107Y12613D01*
X37000Y12600D01*
G01X30293Y13333D02*
X30213Y13373D01*
X30120Y13400D01*
X30013D01*
X29893Y13360D01*
X29800Y13293D01*
X29733Y13213D01*
X29680Y13080D01*
X29667Y12960D01*
X29693Y12840D01*
X29733Y12760D01*
X29813Y12680D01*
X29907Y12627D01*
X30000Y12600D01*
X30093D01*
X30187Y12627D01*
X30267Y12667D01*
X30333Y12720D01*
G01X30520Y12707D02*
X30627Y12640D01*
X30747Y12600D01*
X30853D01*
X30960Y12640D01*
X31040Y12707D01*
X31080Y12800D01*
X31053Y12893D01*
X30987Y12973D01*
X30867Y13027D01*
X30707Y13053D01*
X30613Y13107D01*
X30573Y13200D01*
X30600Y13293D01*
X30667Y13360D01*
X30760Y13400D01*
X30853D01*
X30947Y13373D01*
X31027Y13307D01*
G01X31600Y12600D02*
Y13400D01*
X31440Y13240D01*
G01Y12600D02*
X31760D01*
G01X22200Y10267D02*
X23000D01*
Y9933D01*
X22960Y9827D01*
X22907Y9760D01*
X22800Y9733D01*
X22693Y9760D01*
X22627Y9840D01*
X22587Y9933D01*
Y10267D01*
G01Y9933D02*
X22200Y9733D01*
G01X22360Y9493D02*
X22267Y9413D01*
X22213Y9307D01*
X22200Y9187D01*
X22213Y9080D01*
X22280Y8973D01*
X22360Y8907D01*
X22440Y8893D01*
X22533Y8920D01*
X22600Y9013D01*
X22627Y9107D01*
Y9227D01*
G01Y9107D02*
X22667Y9027D01*
X22733Y8960D01*
X22813Y8933D01*
X22893Y8960D01*
X22960Y9027D01*
X23000Y9147D01*
X22987Y9267D01*
X22933Y9387D01*
G01X21000Y10267D02*
X21800D01*
Y9933D01*
X21760Y9827D01*
X21707Y9760D01*
X21600Y9733D01*
X21493Y9760D01*
X21427Y9840D01*
X21387Y9933D01*
Y10267D01*
G01Y9933D02*
X21000Y9733D01*
G01Y9040D02*
X21800D01*
X21227Y9533D01*
Y8867D01*
G01X19800Y2467D02*
X20600D01*
Y2133D01*
X20560Y2027D01*
X20507Y1960D01*
X20400Y1933D01*
X20293Y1960D01*
X20227Y2040D01*
X20187Y2133D01*
Y2467D01*
G01Y2133D02*
X19800Y1933D01*
G01X19960Y1693D02*
X19867Y1613D01*
X19813Y1507D01*
X19800Y1387D01*
X19813Y1280D01*
X19880Y1173D01*
X19960Y1107D01*
X20040Y1093D01*
X20133Y1120D01*
X20200Y1213D01*
X20227Y1307D01*
Y1427D01*
G01Y1307D02*
X20267Y1227D01*
X20333Y1160D01*
X20413Y1133D01*
X20493Y1160D01*
X20560Y1227D01*
X20600Y1347D01*
X20587Y1467D01*
X20533Y1587D01*
G01X20600Y600D02*
X20573Y707D01*
X20507Y787D01*
X20427Y840D01*
X20320Y880D01*
X20200Y893D01*
X20080Y880D01*
X19973Y840D01*
X19893Y787D01*
X19827Y707D01*
X19800Y600D01*
X19827Y493D01*
X19893Y413D01*
X19973Y360D01*
X20080Y320D01*
X20200Y307D01*
X20320Y320D01*
X20427Y360D01*
X20507Y413D01*
X20573Y493D01*
X20600Y600D01*
G01X17000Y2467D02*
X17800D01*
Y2133D01*
X17760Y2027D01*
X17707Y1960D01*
X17600Y1933D01*
X17493Y1960D01*
X17427Y2040D01*
X17387Y2133D01*
Y2467D01*
G01Y2133D02*
X17000Y1933D01*
G01X17160Y1693D02*
X17067Y1613D01*
X17013Y1507D01*
X17000Y1387D01*
X17013Y1280D01*
X17080Y1173D01*
X17160Y1107D01*
X17240Y1093D01*
X17333Y1120D01*
X17400Y1213D01*
X17427Y1307D01*
Y1427D01*
G01Y1307D02*
X17467Y1227D01*
X17533Y1160D01*
X17613Y1133D01*
X17693Y1160D01*
X17760Y1227D01*
X17800Y1347D01*
X17787Y1467D01*
X17733Y1587D01*
G01X17000Y600D02*
X17800D01*
X17640Y760D01*
G01X17000D02*
Y440D01*
G01X17400Y10133D02*
X16600D01*
Y10467D01*
X16640Y10573D01*
X16693Y10640D01*
X16800Y10667D01*
X16907Y10640D01*
X16973Y10560D01*
X17013Y10467D01*
Y10133D01*
G01Y10467D02*
X17400Y10667D01*
G01X17240Y10907D02*
X17333Y10987D01*
X17387Y11093D01*
X17400Y11213D01*
X17387Y11320D01*
X17320Y11427D01*
X17240Y11493D01*
X17160Y11507D01*
X17067Y11480D01*
X17000Y11387D01*
X16973Y11293D01*
Y11173D01*
G01Y11293D02*
X16933Y11373D01*
X16867Y11440D01*
X16787Y11467D01*
X16707Y11440D01*
X16640Y11373D01*
X16600Y11253D01*
X16613Y11133D01*
X16667Y11013D01*
G01X17400Y12160D02*
X16600D01*
X17173Y11667D01*
Y12333D01*
G01X19800Y12133D02*
X19000D01*
Y12467D01*
X19040Y12573D01*
X19093Y12640D01*
X19200Y12667D01*
X19307Y12640D01*
X19373Y12560D01*
X19413Y12467D01*
Y12133D01*
G01Y12467D02*
X19800Y12667D01*
G01X19640Y12907D02*
X19733Y12987D01*
X19787Y13093D01*
X19800Y13213D01*
X19787Y13320D01*
X19720Y13427D01*
X19640Y13493D01*
X19560Y13507D01*
X19467Y13480D01*
X19400Y13387D01*
X19373Y13293D01*
Y13173D01*
G01Y13293D02*
X19333Y13373D01*
X19267Y13440D01*
X19187Y13467D01*
X19107Y13440D01*
X19040Y13373D01*
X19000Y13253D01*
X19013Y13133D01*
X19067Y13013D01*
G01X19680Y13707D02*
X19747Y13787D01*
X19787Y13880D01*
X19800Y14000D01*
X19773Y14120D01*
X19720Y14213D01*
X19627Y14280D01*
X19520Y14293D01*
X19413Y14267D01*
X19347Y14200D01*
X19293Y14107D01*
X19280Y14013D01*
X19293Y13920D01*
X19347Y13800D01*
X19000Y13840D01*
Y14200D01*
G01X20800Y10133D02*
X20000D01*
Y10467D01*
X20040Y10573D01*
X20093Y10640D01*
X20200Y10667D01*
X20307Y10640D01*
X20373Y10560D01*
X20413Y10467D01*
Y10133D01*
G01Y10467D02*
X20800Y10667D01*
G01X20640Y10907D02*
X20733Y10987D01*
X20787Y11093D01*
X20800Y11213D01*
X20787Y11320D01*
X20720Y11427D01*
X20640Y11493D01*
X20560Y11507D01*
X20467Y11480D01*
X20400Y11387D01*
X20373Y11293D01*
Y11173D01*
G01Y11293D02*
X20333Y11373D01*
X20267Y11440D01*
X20187Y11467D01*
X20107Y11440D01*
X20040Y11373D01*
X20000Y11253D01*
X20013Y11133D01*
X20067Y11013D01*
G01X20467Y11747D02*
X20373Y11840D01*
X20320Y11920D01*
X20293Y12027D01*
X20320Y12120D01*
X20373Y12187D01*
X20453Y12240D01*
X20547Y12253D01*
X20627Y12240D01*
X20707Y12187D01*
X20773Y12107D01*
X20800Y12013D01*
X20773Y11907D01*
X20693Y11813D01*
X20573Y11760D01*
X20440Y11747D01*
X20267Y11773D01*
X20173Y11813D01*
X20080Y11880D01*
X20013Y11973D01*
X20000Y12067D01*
X20027Y12160D01*
X20093Y12227D01*
G01X24130Y12135D02*
X24930D01*
Y11802D01*
X24890Y11695D01*
X24837Y11628D01*
X24730Y11602D01*
X24623Y11628D01*
X24557Y11708D01*
X24517Y11802D01*
Y12135D01*
G01Y11802D02*
X24130Y11602D01*
G01Y10908D02*
X24930D01*
X24357Y11402D01*
Y10735D01*
G01X24130Y10108D02*
X24930D01*
X24357Y10602D01*
Y9935D01*
G01X23133Y2400D02*
Y3200D01*
X23467D01*
X23573Y3160D01*
X23640Y3107D01*
X23667Y3000D01*
X23640Y2893D01*
X23560Y2827D01*
X23467Y2787D01*
X23133D01*
G01X23467D02*
X23667Y2400D01*
G01X23947Y2733D02*
X24040Y2827D01*
X24120Y2880D01*
X24227Y2907D01*
X24320Y2880D01*
X24387Y2827D01*
X24440Y2747D01*
X24453Y2653D01*
X24440Y2573D01*
X24387Y2493D01*
X24307Y2427D01*
X24213Y2400D01*
X24107Y2427D01*
X24013Y2507D01*
X23960Y2627D01*
X23947Y2760D01*
X23973Y2933D01*
X24013Y3027D01*
X24080Y3120D01*
X24173Y3187D01*
X24267Y3200D01*
X24360Y3173D01*
X24427Y3107D01*
G01X25000Y2400D02*
Y3200D01*
X24840Y3040D01*
G01Y2400D02*
X25160D01*
G01X23133Y3400D02*
Y4200D01*
X23467D01*
X23573Y4160D01*
X23640Y4107D01*
X23667Y4000D01*
X23640Y3893D01*
X23560Y3827D01*
X23467Y3787D01*
X23133D01*
G01X23467D02*
X23667Y3400D01*
G01X23947Y3733D02*
X24040Y3827D01*
X24120Y3880D01*
X24227Y3907D01*
X24320Y3880D01*
X24387Y3827D01*
X24440Y3747D01*
X24453Y3653D01*
X24440Y3573D01*
X24387Y3493D01*
X24307Y3427D01*
X24213Y3400D01*
X24107Y3427D01*
X24013Y3507D01*
X23960Y3627D01*
X23947Y3760D01*
X23973Y3933D01*
X24013Y4027D01*
X24080Y4120D01*
X24173Y4187D01*
X24267Y4200D01*
X24360Y4173D01*
X24427Y4107D01*
G01X24747Y4067D02*
X24827Y4147D01*
X24920Y4187D01*
X25027Y4200D01*
X25160Y4173D01*
X25253Y4107D01*
X25280Y4027D01*
X25267Y3947D01*
X25213Y3880D01*
X24947Y3747D01*
X24827Y3653D01*
X24747Y3520D01*
X24720Y3400D01*
X25280D01*
G01X25600Y11667D02*
X26400D01*
Y11333D01*
X26360Y11227D01*
X26307Y11160D01*
X26200Y11133D01*
X26093Y11160D01*
X26027Y11240D01*
X25987Y11333D01*
Y11667D01*
G01Y11333D02*
X25600Y11133D01*
G01X25933Y10853D02*
X26027Y10760D01*
X26080Y10680D01*
X26107Y10573D01*
X26080Y10480D01*
X26027Y10413D01*
X25947Y10360D01*
X25853Y10347D01*
X25773Y10360D01*
X25693Y10413D01*
X25627Y10493D01*
X25600Y10587D01*
X25627Y10693D01*
X25707Y10787D01*
X25827Y10840D01*
X25960Y10853D01*
X26133Y10827D01*
X26227Y10787D01*
X26320Y10720D01*
X26387Y10627D01*
X26400Y10533D01*
X26373Y10440D01*
X26307Y10373D01*
G01X25760Y10093D02*
X25667Y10013D01*
X25613Y9907D01*
X25600Y9787D01*
X25613Y9680D01*
X25680Y9573D01*
X25760Y9507D01*
X25840Y9493D01*
X25933Y9520D01*
X26000Y9613D01*
X26027Y9707D01*
Y9827D01*
G01Y9707D02*
X26067Y9627D01*
X26133Y9560D01*
X26213Y9533D01*
X26293Y9560D01*
X26360Y9627D01*
X26400Y9747D01*
X26387Y9867D01*
X26333Y9987D01*
G01X26733Y8800D02*
Y9600D01*
X27067D01*
X27173Y9560D01*
X27240Y9507D01*
X27267Y9400D01*
X27240Y9293D01*
X27160Y9227D01*
X27067Y9187D01*
X26733D01*
G01X27067D02*
X27267Y8800D01*
G01X27547Y9133D02*
X27640Y9227D01*
X27720Y9280D01*
X27827Y9307D01*
X27920Y9280D01*
X27987Y9227D01*
X28040Y9147D01*
X28053Y9053D01*
X28040Y8973D01*
X27987Y8893D01*
X27907Y8827D01*
X27813Y8800D01*
X27707Y8827D01*
X27613Y8907D01*
X27560Y9027D01*
X27547Y9160D01*
X27573Y9333D01*
X27613Y9427D01*
X27680Y9520D01*
X27773Y9587D01*
X27867Y9600D01*
X27960Y9573D01*
X28027Y9507D01*
G01X28760Y8800D02*
Y9600D01*
X28267Y9027D01*
X28933D01*
G01X30133Y7600D02*
Y8400D01*
X30467D01*
X30573Y8360D01*
X30640Y8307D01*
X30667Y8200D01*
X30640Y8093D01*
X30560Y8027D01*
X30467Y7987D01*
X30133D01*
G01X30467D02*
X30667Y7600D01*
G01X30947Y7933D02*
X31040Y8027D01*
X31120Y8080D01*
X31227Y8107D01*
X31320Y8080D01*
X31387Y8027D01*
X31440Y7947D01*
X31453Y7853D01*
X31440Y7773D01*
X31387Y7693D01*
X31307Y7627D01*
X31213Y7600D01*
X31107Y7627D01*
X31013Y7707D01*
X30960Y7827D01*
X30947Y7960D01*
X30973Y8133D01*
X31013Y8227D01*
X31080Y8320D01*
X31173Y8387D01*
X31267Y8400D01*
X31360Y8373D01*
X31427Y8307D01*
G01X31707Y7720D02*
X31787Y7653D01*
X31880Y7613D01*
X32000Y7600D01*
X32120Y7627D01*
X32213Y7680D01*
X32280Y7773D01*
X32293Y7880D01*
X32267Y7987D01*
X32200Y8053D01*
X32107Y8107D01*
X32013Y8120D01*
X31920Y8107D01*
X31800Y8053D01*
X31840Y8400D01*
X32200D01*
G01X36933Y6600D02*
Y7400D01*
X37267D01*
X37373Y7360D01*
X37440Y7307D01*
X37467Y7200D01*
X37440Y7093D01*
X37360Y7027D01*
X37267Y6987D01*
X36933D01*
G01X37267D02*
X37467Y6600D01*
G01X37747Y6933D02*
X37840Y7027D01*
X37920Y7080D01*
X38027Y7107D01*
X38120Y7080D01*
X38187Y7027D01*
X38240Y6947D01*
X38253Y6853D01*
X38240Y6773D01*
X38187Y6693D01*
X38107Y6627D01*
X38013Y6600D01*
X37907Y6627D01*
X37813Y6707D01*
X37760Y6827D01*
X37747Y6960D01*
X37773Y7133D01*
X37813Y7227D01*
X37880Y7320D01*
X37973Y7387D01*
X38067Y7400D01*
X38160Y7373D01*
X38227Y7307D01*
G01X38547Y6933D02*
X38640Y7027D01*
X38720Y7080D01*
X38827Y7107D01*
X38920Y7080D01*
X38987Y7027D01*
X39040Y6947D01*
X39053Y6853D01*
X39040Y6773D01*
X38987Y6693D01*
X38907Y6627D01*
X38813Y6600D01*
X38707Y6627D01*
X38613Y6707D01*
X38560Y6827D01*
X38547Y6960D01*
X38573Y7133D01*
X38613Y7227D01*
X38680Y7320D01*
X38773Y7387D01*
X38867Y7400D01*
X38960Y7373D01*
X39027Y7307D01*
G01X36533Y3200D02*
Y4000D01*
X36867D01*
X36973Y3960D01*
X37040Y3907D01*
X37067Y3800D01*
X37040Y3693D01*
X36960Y3627D01*
X36867Y3587D01*
X36533D01*
G01X36867D02*
X37067Y3200D01*
G01X37347Y3533D02*
X37440Y3627D01*
X37520Y3680D01*
X37627Y3707D01*
X37720Y3680D01*
X37787Y3627D01*
X37840Y3547D01*
X37853Y3453D01*
X37840Y3373D01*
X37787Y3293D01*
X37707Y3227D01*
X37613Y3200D01*
X37507Y3227D01*
X37413Y3307D01*
X37360Y3427D01*
X37347Y3560D01*
X37373Y3733D01*
X37413Y3827D01*
X37480Y3920D01*
X37573Y3987D01*
X37667Y4000D01*
X37760Y3973D01*
X37827Y3907D01*
G01X38373Y3200D02*
X38400Y3373D01*
X38440Y3520D01*
X38493Y3653D01*
X38560Y3800D01*
X38667Y4000D01*
X38133D01*
G01X36533Y2200D02*
Y3000D01*
X36867D01*
X36973Y2960D01*
X37040Y2907D01*
X37067Y2800D01*
X37040Y2693D01*
X36960Y2627D01*
X36867Y2587D01*
X36533D01*
G01X36867D02*
X37067Y2200D01*
G01X37347Y2533D02*
X37440Y2627D01*
X37520Y2680D01*
X37627Y2707D01*
X37720Y2680D01*
X37787Y2627D01*
X37840Y2547D01*
X37853Y2453D01*
X37840Y2373D01*
X37787Y2293D01*
X37707Y2227D01*
X37613Y2200D01*
X37507Y2227D01*
X37413Y2307D01*
X37360Y2427D01*
X37347Y2560D01*
X37373Y2733D01*
X37413Y2827D01*
X37480Y2920D01*
X37573Y2987D01*
X37667Y3000D01*
X37760Y2973D01*
X37827Y2907D01*
G01X38400Y2200D02*
X38493Y2213D01*
X38600Y2253D01*
X38667Y2320D01*
X38693Y2413D01*
X38667Y2507D01*
X38587Y2587D01*
X38467Y2627D01*
X38333D01*
X38253Y2653D01*
X38187Y2720D01*
X38160Y2813D01*
X38200Y2907D01*
X38293Y2973D01*
X38400Y3000D01*
X38507Y2973D01*
X38600Y2907D01*
X38640Y2813D01*
X38613Y2720D01*
X38547Y2653D01*
X38467Y2627D01*
X38333D01*
X38213Y2587D01*
X38133Y2507D01*
X38107Y2413D01*
X38133Y2320D01*
X38200Y2253D01*
X38307Y2213D01*
X38400Y2200D01*
G01X28800Y600D02*
X28693Y613D01*
X28600Y667D01*
X28520Y747D01*
X28467Y840D01*
X28440Y947D01*
Y1053D01*
X28467Y1160D01*
X28520Y1253D01*
X28600Y1333D01*
X28693Y1387D01*
X28800Y1400D01*
X28907Y1387D01*
X29000Y1333D01*
X29080Y1253D01*
X29133Y1160D01*
X29160Y1053D01*
Y947D01*
X29133Y840D01*
X29080Y747D01*
X29000Y667D01*
X28907Y613D01*
X28800Y600D01*
G01X28907Y813D02*
X29067Y600D01*
G01X29347Y1267D02*
X29427Y1347D01*
X29520Y1387D01*
X29627Y1400D01*
X29760Y1373D01*
X29853Y1307D01*
X29880Y1227D01*
X29867Y1147D01*
X29813Y1080D01*
X29547Y947D01*
X29427Y853D01*
X29347Y720D01*
X29320Y600D01*
X29880D01*
G01X30107Y720D02*
X30187Y653D01*
X30280Y613D01*
X30400Y600D01*
X30520Y627D01*
X30613Y680D01*
X30680Y773D01*
X30693Y880D01*
X30667Y987D01*
X30600Y1053D01*
X30507Y1107D01*
X30413Y1120D01*
X30320Y1107D01*
X30200Y1053D01*
X30240Y1400D01*
X30600D01*
G01X26000Y600D02*
X25893Y613D01*
X25800Y667D01*
X25720Y747D01*
X25667Y840D01*
X25640Y947D01*
Y1053D01*
X25667Y1160D01*
X25720Y1253D01*
X25800Y1333D01*
X25893Y1387D01*
X26000Y1400D01*
X26107Y1387D01*
X26200Y1333D01*
X26280Y1253D01*
X26333Y1160D01*
X26360Y1053D01*
Y947D01*
X26333Y840D01*
X26280Y747D01*
X26200Y667D01*
X26107Y613D01*
X26000Y600D01*
G01X26107Y813D02*
X26267Y600D01*
G01X26547Y1267D02*
X26627Y1347D01*
X26720Y1387D01*
X26827Y1400D01*
X26960Y1373D01*
X27053Y1307D01*
X27080Y1227D01*
X27067Y1147D01*
X27013Y1080D01*
X26747Y947D01*
X26627Y853D01*
X26547Y720D01*
X26520Y600D01*
X27080D01*
G01X27347Y933D02*
X27440Y1027D01*
X27520Y1080D01*
X27627Y1107D01*
X27720Y1080D01*
X27787Y1027D01*
X27840Y947D01*
X27853Y853D01*
X27840Y773D01*
X27787Y693D01*
X27707Y627D01*
X27613Y600D01*
X27507Y627D01*
X27413Y707D01*
X27360Y827D01*
X27347Y960D01*
X27373Y1133D01*
X27413Y1227D01*
X27480Y1320D01*
X27573Y1387D01*
X27667Y1400D01*
X27760Y1373D01*
X27827Y1307D01*
G01X26000Y4200D02*
X25893Y4213D01*
X25800Y4267D01*
X25720Y4347D01*
X25667Y4440D01*
X25640Y4547D01*
Y4653D01*
X25667Y4760D01*
X25720Y4853D01*
X25800Y4933D01*
X25893Y4987D01*
X26000Y5000D01*
X26107Y4987D01*
X26200Y4933D01*
X26280Y4853D01*
X26333Y4760D01*
X26360Y4653D01*
Y4547D01*
X26333Y4440D01*
X26280Y4347D01*
X26200Y4267D01*
X26107Y4213D01*
X26000Y4200D01*
G01X26107Y4413D02*
X26267Y4200D01*
G01X26547Y4867D02*
X26627Y4947D01*
X26720Y4987D01*
X26827Y5000D01*
X26960Y4973D01*
X27053Y4907D01*
X27080Y4827D01*
X27067Y4747D01*
X27013Y4680D01*
X26747Y4547D01*
X26627Y4453D01*
X26547Y4320D01*
X26520Y4200D01*
X27080D01*
G01X27573D02*
X27600Y4373D01*
X27640Y4520D01*
X27693Y4653D01*
X27760Y4800D01*
X27867Y5000D01*
X27333D01*
G01X29000Y4200D02*
X28893Y4213D01*
X28800Y4267D01*
X28720Y4347D01*
X28667Y4440D01*
X28640Y4547D01*
Y4653D01*
X28667Y4760D01*
X28720Y4853D01*
X28800Y4933D01*
X28893Y4987D01*
X29000Y5000D01*
X29107Y4987D01*
X29200Y4933D01*
X29280Y4853D01*
X29333Y4760D01*
X29360Y4653D01*
Y4547D01*
X29333Y4440D01*
X29280Y4347D01*
X29200Y4267D01*
X29107Y4213D01*
X29000Y4200D01*
G01X29107Y4413D02*
X29267Y4200D01*
G01X29547Y4867D02*
X29627Y4947D01*
X29720Y4987D01*
X29827Y5000D01*
X29960Y4973D01*
X30053Y4907D01*
X30080Y4827D01*
X30067Y4747D01*
X30013Y4680D01*
X29747Y4547D01*
X29627Y4453D01*
X29547Y4320D01*
X29520Y4200D01*
X30080D01*
G01X30600D02*
X30693Y4213D01*
X30800Y4253D01*
X30867Y4320D01*
X30893Y4413D01*
X30867Y4507D01*
X30787Y4587D01*
X30667Y4627D01*
X30533D01*
X30453Y4653D01*
X30387Y4720D01*
X30360Y4813D01*
X30400Y4907D01*
X30493Y4973D01*
X30600Y5000D01*
X30707Y4973D01*
X30800Y4907D01*
X30840Y4813D01*
X30813Y4720D01*
X30747Y4653D01*
X30667Y4627D01*
X30533D01*
X30413Y4587D01*
X30333Y4507D01*
X30307Y4413D01*
X30333Y4320D01*
X30400Y4253D01*
X30507Y4213D01*
X30600Y4200D01*
G01X32000D02*
X31893Y4213D01*
X31800Y4267D01*
X31720Y4347D01*
X31667Y4440D01*
X31640Y4547D01*
Y4653D01*
X31667Y4760D01*
X31720Y4853D01*
X31800Y4933D01*
X31893Y4987D01*
X32000Y5000D01*
X32107Y4987D01*
X32200Y4933D01*
X32280Y4853D01*
X32333Y4760D01*
X32360Y4653D01*
Y4547D01*
X32333Y4440D01*
X32280Y4347D01*
X32200Y4267D01*
X32107Y4213D01*
X32000Y4200D01*
G01X32107Y4413D02*
X32267Y4200D01*
G01X32547Y4867D02*
X32627Y4947D01*
X32720Y4987D01*
X32827Y5000D01*
X32960Y4973D01*
X33053Y4907D01*
X33080Y4827D01*
X33067Y4747D01*
X33013Y4680D01*
X32747Y4547D01*
X32627Y4453D01*
X32547Y4320D01*
X32520Y4200D01*
X33080D01*
G01X33373Y4293D02*
X33467Y4227D01*
X33573Y4200D01*
X33680Y4227D01*
X33773Y4307D01*
X33840Y4427D01*
X33867Y4547D01*
Y4693D01*
X33840Y4813D01*
X33773Y4920D01*
X33693Y4973D01*
X33600Y5000D01*
X33493Y4973D01*
X33413Y4920D01*
X33360Y4840D01*
X33333Y4733D01*
X33360Y4640D01*
X33427Y4547D01*
X33507Y4493D01*
X33600Y4480D01*
X33707Y4507D01*
X33787Y4573D01*
X33867Y4693D01*
G01X35000Y4200D02*
X34893Y4213D01*
X34800Y4267D01*
X34720Y4347D01*
X34667Y4440D01*
X34640Y4547D01*
Y4653D01*
X34667Y4760D01*
X34720Y4853D01*
X34800Y4933D01*
X34893Y4987D01*
X35000Y5000D01*
X35107Y4987D01*
X35200Y4933D01*
X35280Y4853D01*
X35333Y4760D01*
X35360Y4653D01*
Y4547D01*
X35333Y4440D01*
X35280Y4347D01*
X35200Y4267D01*
X35107Y4213D01*
X35000Y4200D01*
G01X35107Y4413D02*
X35267Y4200D01*
G01X35507Y4360D02*
X35587Y4267D01*
X35693Y4213D01*
X35813Y4200D01*
X35920Y4213D01*
X36027Y4280D01*
X36093Y4360D01*
X36107Y4440D01*
X36080Y4533D01*
X35987Y4600D01*
X35893Y4627D01*
X35773D01*
G01X35893D02*
X35973Y4667D01*
X36040Y4733D01*
X36067Y4813D01*
X36040Y4893D01*
X35973Y4960D01*
X35853Y5000D01*
X35733Y4987D01*
X35613Y4933D01*
G01X36600Y5000D02*
X36493Y4973D01*
X36413Y4907D01*
X36360Y4827D01*
X36320Y4720D01*
X36307Y4600D01*
X36320Y4480D01*
X36360Y4373D01*
X36413Y4293D01*
X36493Y4227D01*
X36600Y4200D01*
X36707Y4227D01*
X36787Y4293D01*
X36840Y4373D01*
X36880Y4480D01*
X36893Y4600D01*
X36880Y4720D01*
X36840Y4827D01*
X36787Y4907D01*
X36707Y4973D01*
X36600Y5000D01*
G01X34800Y600D02*
X34693Y613D01*
X34600Y667D01*
X34520Y747D01*
X34467Y840D01*
X34440Y947D01*
Y1053D01*
X34467Y1160D01*
X34520Y1253D01*
X34600Y1333D01*
X34693Y1387D01*
X34800Y1400D01*
X34907Y1387D01*
X35000Y1333D01*
X35080Y1253D01*
X35133Y1160D01*
X35160Y1053D01*
Y947D01*
X35133Y840D01*
X35080Y747D01*
X35000Y667D01*
X34907Y613D01*
X34800Y600D01*
G01X34907Y813D02*
X35067Y600D01*
G01X35307Y760D02*
X35387Y667D01*
X35493Y613D01*
X35613Y600D01*
X35720Y613D01*
X35827Y680D01*
X35893Y760D01*
X35907Y840D01*
X35880Y933D01*
X35787Y1000D01*
X35693Y1027D01*
X35573D01*
G01X35693D02*
X35773Y1067D01*
X35840Y1133D01*
X35867Y1213D01*
X35840Y1293D01*
X35773Y1360D01*
X35653Y1400D01*
X35533Y1387D01*
X35413Y1333D01*
G01X36400Y600D02*
Y1400D01*
X36240Y1240D01*
G01Y600D02*
X36560D01*
G01X32000D02*
X31893Y613D01*
X31800Y667D01*
X31720Y747D01*
X31667Y840D01*
X31640Y947D01*
Y1053D01*
X31667Y1160D01*
X31720Y1253D01*
X31800Y1333D01*
X31893Y1387D01*
X32000Y1400D01*
X32107Y1387D01*
X32200Y1333D01*
X32280Y1253D01*
X32333Y1160D01*
X32360Y1053D01*
Y947D01*
X32333Y840D01*
X32280Y747D01*
X32200Y667D01*
X32107Y613D01*
X32000Y600D01*
G01X32107Y813D02*
X32267Y600D01*
G01X32507Y760D02*
X32587Y667D01*
X32693Y613D01*
X32813Y600D01*
X32920Y613D01*
X33027Y680D01*
X33093Y760D01*
X33107Y840D01*
X33080Y933D01*
X32987Y1000D01*
X32893Y1027D01*
X32773D01*
G01X32893D02*
X32973Y1067D01*
X33040Y1133D01*
X33067Y1213D01*
X33040Y1293D01*
X32973Y1360D01*
X32853Y1400D01*
X32733Y1387D01*
X32613Y1333D01*
G01X33347Y1267D02*
X33427Y1347D01*
X33520Y1387D01*
X33627Y1400D01*
X33760Y1373D01*
X33853Y1307D01*
X33880Y1227D01*
X33867Y1147D01*
X33813Y1080D01*
X33547Y947D01*
X33427Y853D01*
X33347Y720D01*
X33320Y600D01*
X33880D01*
G01X17117Y9740D02*
Y9167D01*
X17170Y9047D01*
X17277Y8967D01*
X17410Y8940D01*
X17543Y8967D01*
X17650Y9047D01*
X17703Y9167D01*
Y9740D01*
G01X18370Y8940D02*
Y9740D01*
X17877Y9167D01*
X18543D01*
G01X29307Y23600D02*
Y24400D01*
X29573D01*
X29680Y24360D01*
X29760Y24307D01*
X29827Y24227D01*
X29880Y24133D01*
X29893Y24000D01*
X29880Y23867D01*
X29827Y23773D01*
X29760Y23693D01*
X29680Y23640D01*
X29573Y23600D01*
X29307D01*
G01X30133D02*
Y24400D01*
X30467D01*
X30573Y24360D01*
X30640Y24307D01*
X30667Y24200D01*
X30640Y24093D01*
X30560Y24027D01*
X30467Y23987D01*
X30133D01*
G01X30467D02*
X30667Y23600D01*
G01X30867Y24400D02*
X31200Y23600D01*
X31533Y24400D01*
G01X32000D02*
X31893Y24373D01*
X31813Y24307D01*
X31760Y24227D01*
X31720Y24120D01*
X31707Y24000D01*
X31720Y23880D01*
X31760Y23773D01*
X31813Y23693D01*
X31893Y23627D01*
X32000Y23600D01*
X32107Y23627D01*
X32187Y23693D01*
X32240Y23773D01*
X32280Y23880D01*
X32293Y24000D01*
X32280Y24120D01*
X32240Y24227D01*
X32187Y24307D01*
X32107Y24373D01*
X32000Y24400D01*
G01X33333Y23600D02*
Y24400D01*
X33667D01*
X33773Y24360D01*
X33840Y24307D01*
X33867Y24200D01*
X33840Y24093D01*
X33760Y24027D01*
X33667Y23987D01*
X33333D01*
G01X33667D02*
X33867Y23600D01*
G01X34120Y23707D02*
X34227Y23640D01*
X34347Y23600D01*
X34453D01*
X34560Y23640D01*
X34640Y23707D01*
X34680Y23800D01*
X34653Y23893D01*
X34587Y23973D01*
X34467Y24027D01*
X34307Y24053D01*
X34213Y24107D01*
X34173Y24200D01*
X34200Y24293D01*
X34267Y24360D01*
X34360Y24400D01*
X34453D01*
X34547Y24373D01*
X34627Y24307D01*
G01X35200Y24400D02*
Y23600D01*
G01X34893Y24400D02*
X35507D01*
G01X37720Y24907D02*
X37827Y24840D01*
X37947Y24800D01*
X38053D01*
X38160Y24840D01*
X38240Y24907D01*
X38280Y25000D01*
X38253Y25093D01*
X38187Y25173D01*
X38067Y25227D01*
X37907Y25253D01*
X37813Y25307D01*
X37773Y25400D01*
X37800Y25493D01*
X37867Y25560D01*
X37960Y25600D01*
X38053D01*
X38147Y25573D01*
X38227Y25507D01*
G01X39093Y25533D02*
X39013Y25573D01*
X38920Y25600D01*
X38813D01*
X38693Y25560D01*
X38600Y25493D01*
X38533Y25413D01*
X38480Y25280D01*
X38467Y25160D01*
X38493Y25040D01*
X38533Y24960D01*
X38613Y24880D01*
X38707Y24827D01*
X38800Y24800D01*
X38893D01*
X38987Y24827D01*
X39067Y24867D01*
X39133Y24920D01*
G01X39307Y24800D02*
Y25600D01*
G01X39813D02*
X39307Y25107D01*
G01X39893Y24800D02*
X39533Y25333D01*
G01X37907Y27520D02*
X37987Y27453D01*
X38080Y27413D01*
X38200Y27400D01*
X38320Y27427D01*
X38413Y27480D01*
X38480Y27573D01*
X38493Y27680D01*
X38467Y27787D01*
X38400Y27853D01*
X38307Y27907D01*
X38213Y27920D01*
X38120Y27907D01*
X38000Y27853D01*
X38040Y28200D01*
X38400D01*
G01X38667D02*
X39000Y27400D01*
X39333Y28200D01*
G01X30293Y26933D02*
X30213Y26973D01*
X30120Y27000D01*
X30013D01*
X29893Y26960D01*
X29800Y26893D01*
X29733Y26813D01*
X29680Y26680D01*
X29667Y26560D01*
X29693Y26440D01*
X29733Y26360D01*
X29813Y26280D01*
X29907Y26227D01*
X30000Y26200D01*
X30093D01*
X30187Y26227D01*
X30267Y26267D01*
X30333Y26320D01*
G01X30520Y26307D02*
X30627Y26240D01*
X30747Y26200D01*
X30853D01*
X30960Y26240D01*
X31040Y26307D01*
X31080Y26400D01*
X31053Y26493D01*
X30987Y26573D01*
X30867Y26627D01*
X30707Y26653D01*
X30613Y26707D01*
X30573Y26800D01*
X30600Y26893D01*
X30667Y26960D01*
X30760Y27000D01*
X30853D01*
X30947Y26973D01*
X31027Y26907D01*
G01X31600Y27000D02*
X31493Y26973D01*
X31413Y26907D01*
X31360Y26827D01*
X31320Y26720D01*
X31307Y26600D01*
X31320Y26480D01*
X31360Y26373D01*
X31413Y26293D01*
X31493Y26227D01*
X31600Y26200D01*
X31707Y26227D01*
X31787Y26293D01*
X31840Y26373D01*
X31880Y26480D01*
X31893Y26600D01*
X31880Y26720D01*
X31840Y26827D01*
X31787Y26907D01*
X31707Y26973D01*
X31600Y27000D01*
G01X16293Y15733D02*
X16213Y15773D01*
X16120Y15800D01*
X16013D01*
X15893Y15760D01*
X15800Y15693D01*
X15733Y15613D01*
X15680Y15480D01*
X15667Y15360D01*
X15693Y15240D01*
X15733Y15160D01*
X15813Y15080D01*
X15907Y15027D01*
X16000Y15000D01*
X16093D01*
X16187Y15027D01*
X16267Y15067D01*
X16333Y15120D01*
G01X16507Y15160D02*
X16587Y15067D01*
X16693Y15013D01*
X16813Y15000D01*
X16920Y15013D01*
X17027Y15080D01*
X17093Y15160D01*
X17107Y15240D01*
X17080Y15333D01*
X16987Y15400D01*
X16893Y15427D01*
X16773D01*
G01X16893D02*
X16973Y15467D01*
X17040Y15533D01*
X17067Y15613D01*
X17040Y15693D01*
X16973Y15760D01*
X16853Y15800D01*
X16733Y15787D01*
X16613Y15733D01*
G01X15533Y13400D02*
Y14200D01*
X15867D01*
X15973Y14160D01*
X16040Y14107D01*
X16067Y14000D01*
X16040Y13893D01*
X15960Y13827D01*
X15867Y13787D01*
X15533D01*
G01X15867D02*
X16067Y13400D01*
G01X16347Y14067D02*
X16427Y14147D01*
X16520Y14187D01*
X16627Y14200D01*
X16760Y14173D01*
X16853Y14107D01*
X16880Y14027D01*
X16867Y13947D01*
X16813Y13880D01*
X16547Y13747D01*
X16427Y13653D01*
X16347Y13520D01*
X16320Y13400D01*
X16880D01*
G01X15333Y16400D02*
Y17200D01*
X15667D01*
X15773Y17160D01*
X15840Y17107D01*
X15867Y17000D01*
X15840Y16893D01*
X15760Y16827D01*
X15667Y16787D01*
X15333D01*
G01X15667D02*
X15867Y16400D01*
G01X16107Y16520D02*
X16187Y16453D01*
X16280Y16413D01*
X16400Y16400D01*
X16520Y16427D01*
X16613Y16480D01*
X16680Y16573D01*
X16693Y16680D01*
X16667Y16787D01*
X16600Y16853D01*
X16507Y16907D01*
X16413Y16920D01*
X16320Y16907D01*
X16200Y16853D01*
X16240Y17200D01*
X16600D01*
G01X15333Y17600D02*
Y18400D01*
X15667D01*
X15773Y18360D01*
X15840Y18307D01*
X15867Y18200D01*
X15840Y18093D01*
X15760Y18027D01*
X15667Y17987D01*
X15333D01*
G01X15667D02*
X15867Y17600D01*
G01X16147Y17933D02*
X16240Y18027D01*
X16320Y18080D01*
X16427Y18107D01*
X16520Y18080D01*
X16587Y18027D01*
X16640Y17947D01*
X16653Y17853D01*
X16640Y17773D01*
X16587Y17693D01*
X16507Y17627D01*
X16413Y17600D01*
X16307Y17627D01*
X16213Y17707D01*
X16160Y17827D01*
X16147Y17960D01*
X16173Y18133D01*
X16213Y18227D01*
X16280Y18320D01*
X16373Y18387D01*
X16467Y18400D01*
X16560Y18373D01*
X16627Y18307D01*
G01X21100Y21933D02*
X20300D01*
Y22267D01*
X20340Y22373D01*
X20393Y22440D01*
X20500Y22467D01*
X20607Y22440D01*
X20673Y22360D01*
X20713Y22267D01*
Y21933D01*
G01Y22267D02*
X21100Y22467D01*
G01Y22973D02*
X20927Y23000D01*
X20780Y23040D01*
X20647Y23093D01*
X20500Y23160D01*
X20300Y23267D01*
Y22733D01*
G01X22200Y21933D02*
X21400D01*
Y22267D01*
X21440Y22373D01*
X21493Y22440D01*
X21600Y22467D01*
X21707Y22440D01*
X21773Y22360D01*
X21813Y22267D01*
Y21933D01*
G01Y22267D02*
X22200Y22467D01*
G01Y23000D02*
X22187Y23093D01*
X22147Y23200D01*
X22080Y23267D01*
X21987Y23293D01*
X21893Y23267D01*
X21813Y23187D01*
X21773Y23067D01*
Y22933D01*
X21747Y22853D01*
X21680Y22787D01*
X21587Y22760D01*
X21493Y22800D01*
X21427Y22893D01*
X21400Y23000D01*
X21427Y23107D01*
X21493Y23200D01*
X21587Y23240D01*
X21680Y23213D01*
X21747Y23147D01*
X21773Y23067D01*
Y22933D01*
X21813Y22813D01*
X21893Y22733D01*
X21987Y22707D01*
X22080Y22733D01*
X22147Y22800D01*
X22187Y22907D01*
X22200Y23000D01*
G01X23800Y20333D02*
X23000D01*
Y20667D01*
X23040Y20773D01*
X23093Y20840D01*
X23200Y20867D01*
X23307Y20840D01*
X23373Y20760D01*
X23413Y20667D01*
Y20333D01*
G01Y20667D02*
X23800Y20867D01*
G01X23707Y21173D02*
X23773Y21267D01*
X23800Y21373D01*
X23773Y21480D01*
X23693Y21573D01*
X23573Y21640D01*
X23453Y21667D01*
X23307D01*
X23187Y21640D01*
X23080Y21573D01*
X23027Y21493D01*
X23000Y21400D01*
X23027Y21293D01*
X23080Y21213D01*
X23160Y21160D01*
X23267Y21133D01*
X23360Y21160D01*
X23453Y21227D01*
X23507Y21307D01*
X23520Y21400D01*
X23493Y21507D01*
X23427Y21587D01*
X23307Y21667D01*
G01X27133Y28600D02*
Y29400D01*
X27467D01*
X27573Y29360D01*
X27640Y29307D01*
X27667Y29200D01*
X27640Y29093D01*
X27560Y29027D01*
X27467Y28987D01*
X27133D01*
G01X27467D02*
X27667Y28600D01*
G01X28200D02*
Y29400D01*
X28040Y29240D01*
G01Y28600D02*
X28360D01*
G01X29000Y29400D02*
X28893Y29373D01*
X28813Y29307D01*
X28760Y29227D01*
X28720Y29120D01*
X28707Y29000D01*
X28720Y28880D01*
X28760Y28773D01*
X28813Y28693D01*
X28893Y28627D01*
X29000Y28600D01*
X29107Y28627D01*
X29187Y28693D01*
X29240Y28773D01*
X29280Y28880D01*
X29293Y29000D01*
X29280Y29120D01*
X29240Y29227D01*
X29187Y29307D01*
X29107Y29373D01*
X29000Y29400D01*
G01X20200Y30467D02*
X21000D01*
Y30133D01*
X20960Y30027D01*
X20907Y29960D01*
X20800Y29933D01*
X20693Y29960D01*
X20627Y30040D01*
X20587Y30133D01*
Y30467D01*
G01Y30133D02*
X20200Y29933D01*
G01Y29400D02*
X21000D01*
X20840Y29560D01*
G01X20200D02*
Y29240D01*
G01X20867Y28853D02*
X20947Y28773D01*
X20987Y28680D01*
X21000Y28573D01*
X20973Y28440D01*
X20907Y28347D01*
X20827Y28320D01*
X20747Y28333D01*
X20680Y28387D01*
X20547Y28653D01*
X20453Y28773D01*
X20320Y28853D01*
X20200Y28880D01*
Y28320D01*
G01X17400Y30467D02*
X18200D01*
Y30133D01*
X18160Y30027D01*
X18107Y29960D01*
X18000Y29933D01*
X17893Y29960D01*
X17827Y30040D01*
X17787Y30133D01*
Y30467D01*
G01Y30133D02*
X17400Y29933D01*
G01Y29400D02*
X18200D01*
X18040Y29560D01*
G01X17400D02*
Y29240D01*
G01X17560Y28893D02*
X17467Y28813D01*
X17413Y28707D01*
X17400Y28587D01*
X17413Y28480D01*
X17480Y28373D01*
X17560Y28307D01*
X17640Y28293D01*
X17733Y28320D01*
X17800Y28413D01*
X17827Y28507D01*
Y28627D01*
G01Y28507D02*
X17867Y28427D01*
X17933Y28360D01*
X18013Y28333D01*
X18093Y28360D01*
X18160Y28427D01*
X18200Y28547D01*
X18187Y28667D01*
X18133Y28787D01*
G01X17256Y37396D02*
X16456D01*
Y37729D01*
X16496Y37836D01*
X16549Y37902D01*
X16656Y37929D01*
X16763Y37902D01*
X16829Y37822D01*
X16869Y37729D01*
Y37396D01*
G01Y37729D02*
X17256Y37929D01*
G01Y38462D02*
X16456D01*
X16616Y38302D01*
G01X17256D02*
Y38622D01*
G01Y39236D02*
X17083Y39262D01*
X16936Y39302D01*
X16803Y39356D01*
X16656Y39422D01*
X16456Y39529D01*
Y38996D01*
G01X21075Y37396D02*
X20275D01*
Y37729D01*
X20315Y37836D01*
X20368Y37902D01*
X20475Y37929D01*
X20582Y37902D01*
X20648Y37822D01*
X20688Y37729D01*
Y37396D01*
G01Y37729D02*
X21075Y37929D01*
G01Y38462D02*
X20275D01*
X20435Y38302D01*
G01X21075D02*
Y38622D01*
G01Y39262D02*
X21062Y39356D01*
X21022Y39462D01*
X20955Y39529D01*
X20862Y39556D01*
X20768Y39529D01*
X20688Y39449D01*
X20648Y39329D01*
Y39196D01*
X20622Y39116D01*
X20555Y39049D01*
X20462Y39022D01*
X20368Y39062D01*
X20302Y39156D01*
X20275Y39262D01*
X20302Y39369D01*
X20368Y39462D01*
X20462Y39502D01*
X20555Y39476D01*
X20622Y39409D01*
X20648Y39329D01*
Y39196D01*
X20688Y39076D01*
X20768Y38996D01*
X20862Y38969D01*
X20955Y38996D01*
X21022Y39062D01*
X21062Y39169D01*
X21075Y39262D01*
G01X17000Y20667D02*
X17800D01*
Y20333D01*
X17760Y20227D01*
X17707Y20160D01*
X17600Y20133D01*
X17493Y20160D01*
X17427Y20240D01*
X17387Y20333D01*
Y20667D01*
G01Y20333D02*
X17000Y20133D01*
G01X17667Y19853D02*
X17747Y19773D01*
X17787Y19680D01*
X17800Y19573D01*
X17773Y19440D01*
X17707Y19347D01*
X17627Y19320D01*
X17547Y19333D01*
X17480Y19387D01*
X17347Y19653D01*
X17253Y19773D01*
X17120Y19853D01*
X17000Y19880D01*
Y19320D01*
G01X17800Y18800D02*
X17773Y18907D01*
X17707Y18987D01*
X17627Y19040D01*
X17520Y19080D01*
X17400Y19093D01*
X17280Y19080D01*
X17173Y19040D01*
X17093Y18987D01*
X17027Y18907D01*
X17000Y18800D01*
X17027Y18693D01*
X17093Y18613D01*
X17173Y18560D01*
X17280Y18520D01*
X17400Y18507D01*
X17520Y18520D01*
X17627Y18560D01*
X17707Y18613D01*
X17773Y18693D01*
X17800Y18800D01*
G01X16333Y27200D02*
Y28000D01*
X16667D01*
X16773Y27960D01*
X16840Y27907D01*
X16867Y27800D01*
X16840Y27693D01*
X16760Y27627D01*
X16667Y27587D01*
X16333D01*
G01X16667D02*
X16867Y27200D01*
G01X17147Y27867D02*
X17227Y27947D01*
X17320Y27987D01*
X17427Y28000D01*
X17560Y27973D01*
X17653Y27907D01*
X17680Y27827D01*
X17667Y27747D01*
X17613Y27680D01*
X17347Y27547D01*
X17227Y27453D01*
X17147Y27320D01*
X17120Y27200D01*
X17680D01*
G01X18173D02*
X18200Y27373D01*
X18240Y27520D01*
X18293Y27653D01*
X18360Y27800D01*
X18467Y28000D01*
X17933D01*
G01X39200Y14933D02*
X38400D01*
Y15267D01*
X38440Y15373D01*
X38493Y15440D01*
X38600Y15467D01*
X38707Y15440D01*
X38773Y15360D01*
X38813Y15267D01*
Y14933D01*
G01Y15267D02*
X39200Y15467D01*
G01X38533Y15747D02*
X38453Y15827D01*
X38413Y15920D01*
X38400Y16027D01*
X38427Y16160D01*
X38493Y16253D01*
X38573Y16280D01*
X38653Y16267D01*
X38720Y16213D01*
X38853Y15947D01*
X38947Y15827D01*
X39080Y15747D01*
X39200Y15720D01*
Y16280D01*
G01Y16800D02*
X39187Y16893D01*
X39147Y17000D01*
X39080Y17067D01*
X38987Y17093D01*
X38893Y17067D01*
X38813Y16987D01*
X38773Y16867D01*
Y16733D01*
X38747Y16653D01*
X38680Y16587D01*
X38587Y16560D01*
X38493Y16600D01*
X38427Y16693D01*
X38400Y16800D01*
X38427Y16907D01*
X38493Y17000D01*
X38587Y17040D01*
X38680Y17013D01*
X38747Y16947D01*
X38773Y16867D01*
Y16733D01*
X38813Y16613D01*
X38893Y16533D01*
X38987Y16507D01*
X39080Y16533D01*
X39147Y16600D01*
X39187Y16707D01*
X39200Y16800D01*
G01X26733Y15600D02*
Y16400D01*
X27067D01*
X27173Y16360D01*
X27240Y16307D01*
X27267Y16200D01*
X27240Y16093D01*
X27160Y16027D01*
X27067Y15987D01*
X26733D01*
G01X27067D02*
X27267Y15600D01*
G01X27507Y15760D02*
X27587Y15667D01*
X27693Y15613D01*
X27813Y15600D01*
X27920Y15613D01*
X28027Y15680D01*
X28093Y15760D01*
X28107Y15840D01*
X28080Y15933D01*
X27987Y16000D01*
X27893Y16027D01*
X27773D01*
G01X27893D02*
X27973Y16067D01*
X28040Y16133D01*
X28067Y16213D01*
X28040Y16293D01*
X27973Y16360D01*
X27853Y16400D01*
X27733Y16387D01*
X27613Y16333D01*
G01X28573Y15600D02*
X28600Y15773D01*
X28640Y15920D01*
X28693Y16053D01*
X28760Y16200D01*
X28867Y16400D01*
X28333D01*
G01X29133Y17600D02*
Y18400D01*
X29467D01*
X29573Y18360D01*
X29640Y18307D01*
X29667Y18200D01*
X29640Y18093D01*
X29560Y18027D01*
X29467Y17987D01*
X29133D01*
G01X29467D02*
X29667Y17600D01*
G01X29907Y17760D02*
X29987Y17667D01*
X30093Y17613D01*
X30213Y17600D01*
X30320Y17613D01*
X30427Y17680D01*
X30493Y17760D01*
X30507Y17840D01*
X30480Y17933D01*
X30387Y18000D01*
X30293Y18027D01*
X30173D01*
G01X30293D02*
X30373Y18067D01*
X30440Y18133D01*
X30467Y18213D01*
X30440Y18293D01*
X30373Y18360D01*
X30253Y18400D01*
X30133Y18387D01*
X30013Y18333D01*
G01X31000Y17600D02*
X31093Y17613D01*
X31200Y17653D01*
X31267Y17720D01*
X31293Y17813D01*
X31267Y17907D01*
X31187Y17987D01*
X31067Y18027D01*
X30933D01*
X30853Y18053D01*
X30787Y18120D01*
X30760Y18213D01*
X30800Y18307D01*
X30893Y18373D01*
X31000Y18400D01*
X31107Y18373D01*
X31200Y18307D01*
X31240Y18213D01*
X31213Y18120D01*
X31147Y18053D01*
X31067Y18027D01*
X30933D01*
X30813Y17987D01*
X30733Y17907D01*
X30707Y17813D01*
X30733Y17720D01*
X30800Y17653D01*
X30907Y17613D01*
X31000Y17600D01*
G01X29133Y18600D02*
Y19400D01*
X29467D01*
X29573Y19360D01*
X29640Y19307D01*
X29667Y19200D01*
X29640Y19093D01*
X29560Y19027D01*
X29467Y18987D01*
X29133D01*
G01X29467D02*
X29667Y18600D01*
G01X29907Y18760D02*
X29987Y18667D01*
X30093Y18613D01*
X30213Y18600D01*
X30320Y18613D01*
X30427Y18680D01*
X30493Y18760D01*
X30507Y18840D01*
X30480Y18933D01*
X30387Y19000D01*
X30293Y19027D01*
X30173D01*
G01X30293D02*
X30373Y19067D01*
X30440Y19133D01*
X30467Y19213D01*
X30440Y19293D01*
X30373Y19360D01*
X30253Y19400D01*
X30133Y19387D01*
X30013Y19333D01*
G01X30773Y18693D02*
X30867Y18627D01*
X30973Y18600D01*
X31080Y18627D01*
X31173Y18707D01*
X31240Y18827D01*
X31267Y18947D01*
Y19093D01*
X31240Y19213D01*
X31173Y19320D01*
X31093Y19373D01*
X31000Y19400D01*
X30893Y19373D01*
X30813Y19320D01*
X30760Y19240D01*
X30733Y19133D01*
X30760Y19040D01*
X30827Y18947D01*
X30907Y18893D01*
X31000Y18880D01*
X31107Y18907D01*
X31187Y18973D01*
X31267Y19093D01*
G01X29133Y19600D02*
Y20400D01*
X29467D01*
X29573Y20360D01*
X29640Y20307D01*
X29667Y20200D01*
X29640Y20093D01*
X29560Y20027D01*
X29467Y19987D01*
X29133D01*
G01X29467D02*
X29667Y19600D01*
G01X30360D02*
Y20400D01*
X29867Y19827D01*
X30533D01*
G01X31000Y20400D02*
X30893Y20373D01*
X30813Y20307D01*
X30760Y20227D01*
X30720Y20120D01*
X30707Y20000D01*
X30720Y19880D01*
X30760Y19773D01*
X30813Y19693D01*
X30893Y19627D01*
X31000Y19600D01*
X31107Y19627D01*
X31187Y19693D01*
X31240Y19773D01*
X31280Y19880D01*
X31293Y20000D01*
X31280Y20120D01*
X31240Y20227D01*
X31187Y20307D01*
X31107Y20373D01*
X31000Y20400D01*
G01X29133Y20600D02*
Y21400D01*
X29467D01*
X29573Y21360D01*
X29640Y21307D01*
X29667Y21200D01*
X29640Y21093D01*
X29560Y21027D01*
X29467Y20987D01*
X29133D01*
G01X29467D02*
X29667Y20600D01*
G01X30360D02*
Y21400D01*
X29867Y20827D01*
X30533D01*
G01X31000Y20600D02*
Y21400D01*
X30840Y21240D01*
G01Y20600D02*
X31160D01*
G01X29133Y21600D02*
Y22400D01*
X29467D01*
X29573Y22360D01*
X29640Y22307D01*
X29667Y22200D01*
X29640Y22093D01*
X29560Y22027D01*
X29467Y21987D01*
X29133D01*
G01X29467D02*
X29667Y21600D01*
G01X30360D02*
Y22400D01*
X29867Y21827D01*
X30533D01*
G01X30747Y22267D02*
X30827Y22347D01*
X30920Y22387D01*
X31027Y22400D01*
X31160Y22373D01*
X31253Y22307D01*
X31280Y22227D01*
X31267Y22147D01*
X31213Y22080D01*
X30947Y21947D01*
X30827Y21853D01*
X30747Y21720D01*
X30720Y21600D01*
X31280D01*
G01X24600Y31467D02*
X25400D01*
Y31133D01*
X25360Y31027D01*
X25307Y30960D01*
X25200Y30933D01*
X25093Y30960D01*
X25027Y31040D01*
X24987Y31133D01*
Y31467D01*
G01Y31133D02*
X24600Y30933D01*
G01Y30240D02*
X25400D01*
X24827Y30733D01*
Y30067D01*
G01X24720Y29893D02*
X24653Y29813D01*
X24613Y29720D01*
X24600Y29600D01*
X24627Y29480D01*
X24680Y29387D01*
X24773Y29320D01*
X24880Y29307D01*
X24987Y29333D01*
X25053Y29400D01*
X25107Y29493D01*
X25120Y29587D01*
X25107Y29680D01*
X25053Y29800D01*
X25400Y29760D01*
Y29400D01*
G01X23333Y34400D02*
Y35200D01*
X23667D01*
X23773Y35160D01*
X23840Y35107D01*
X23867Y35000D01*
X23840Y34893D01*
X23760Y34827D01*
X23667Y34787D01*
X23333D01*
G01X23667D02*
X23867Y34400D01*
G01X24560D02*
Y35200D01*
X24067Y34627D01*
X24733D01*
G01X24947Y34733D02*
X25040Y34827D01*
X25120Y34880D01*
X25227Y34907D01*
X25320Y34880D01*
X25387Y34827D01*
X25440Y34747D01*
X25453Y34653D01*
X25440Y34573D01*
X25387Y34493D01*
X25307Y34427D01*
X25213Y34400D01*
X25107Y34427D01*
X25013Y34507D01*
X24960Y34627D01*
X24947Y34760D01*
X24973Y34933D01*
X25013Y35027D01*
X25080Y35120D01*
X25173Y35187D01*
X25267Y35200D01*
X25360Y35173D01*
X25427Y35107D01*
G01X22933Y37200D02*
Y38000D01*
X23267D01*
X23373Y37960D01*
X23440Y37907D01*
X23467Y37800D01*
X23440Y37693D01*
X23360Y37627D01*
X23267Y37587D01*
X22933D01*
G01X23267D02*
X23467Y37200D01*
G01X24160D02*
Y38000D01*
X23667Y37427D01*
X24333D01*
G01X24773Y37200D02*
X24800Y37373D01*
X24840Y37520D01*
X24893Y37653D01*
X24960Y37800D01*
X25067Y38000D01*
X24533D01*
G01X28733Y37000D02*
Y37800D01*
X29067D01*
X29173Y37760D01*
X29240Y37707D01*
X29267Y37600D01*
X29240Y37493D01*
X29160Y37427D01*
X29067Y37387D01*
X28733D01*
G01X29067D02*
X29267Y37000D01*
G01X29960D02*
Y37800D01*
X29467Y37227D01*
X30133D01*
G01X30373Y37093D02*
X30467Y37027D01*
X30573Y37000D01*
X30680Y37027D01*
X30773Y37107D01*
X30840Y37227D01*
X30867Y37347D01*
Y37493D01*
X30840Y37613D01*
X30773Y37720D01*
X30693Y37773D01*
X30600Y37800D01*
X30493Y37773D01*
X30413Y37720D01*
X30360Y37640D01*
X30333Y37533D01*
X30360Y37440D01*
X30427Y37347D01*
X30507Y37293D01*
X30600Y37280D01*
X30707Y37307D01*
X30787Y37373D01*
X30867Y37493D01*
G01X25933Y37000D02*
Y37800D01*
X26267D01*
X26373Y37760D01*
X26440Y37707D01*
X26467Y37600D01*
X26440Y37493D01*
X26360Y37427D01*
X26267Y37387D01*
X25933D01*
G01X26267D02*
X26467Y37000D01*
G01X26707Y37120D02*
X26787Y37053D01*
X26880Y37013D01*
X27000Y37000D01*
X27120Y37027D01*
X27213Y37080D01*
X27280Y37173D01*
X27293Y37280D01*
X27267Y37387D01*
X27200Y37453D01*
X27107Y37507D01*
X27013Y37520D01*
X26920Y37507D01*
X26800Y37453D01*
X26840Y37800D01*
X27200D01*
G01X27800D02*
X27693Y37773D01*
X27613Y37707D01*
X27560Y37627D01*
X27520Y37520D01*
X27507Y37400D01*
X27520Y37280D01*
X27560Y37173D01*
X27613Y37093D01*
X27693Y37027D01*
X27800Y37000D01*
X27907Y37027D01*
X27987Y37093D01*
X28040Y37173D01*
X28080Y37280D01*
X28093Y37400D01*
X28080Y37520D01*
X28040Y37627D01*
X27987Y37707D01*
X27907Y37773D01*
X27800Y37800D01*
G01X26000Y28467D02*
X26800D01*
Y28133D01*
X26760Y28027D01*
X26707Y27960D01*
X26600Y27933D01*
X26493Y27960D01*
X26427Y28040D01*
X26387Y28133D01*
Y28467D01*
G01Y28133D02*
X26000Y27933D01*
G01X26120Y27693D02*
X26053Y27613D01*
X26013Y27520D01*
X26000Y27400D01*
X26027Y27280D01*
X26080Y27187D01*
X26173Y27120D01*
X26280Y27107D01*
X26387Y27133D01*
X26453Y27200D01*
X26507Y27293D01*
X26520Y27387D01*
X26507Y27480D01*
X26453Y27600D01*
X26800Y27560D01*
Y27200D01*
G01X26000Y26600D02*
X26800D01*
X26640Y26760D01*
G01X26000D02*
Y26440D01*
G01X23600Y31133D02*
X22800D01*
Y31467D01*
X22840Y31573D01*
X22893Y31640D01*
X23000Y31667D01*
X23107Y31640D01*
X23173Y31560D01*
X23213Y31467D01*
Y31133D01*
G01Y31467D02*
X23600Y31667D01*
G01X23480Y31907D02*
X23547Y31987D01*
X23587Y32080D01*
X23600Y32200D01*
X23573Y32320D01*
X23520Y32413D01*
X23427Y32480D01*
X23320Y32493D01*
X23213Y32467D01*
X23147Y32400D01*
X23093Y32307D01*
X23080Y32213D01*
X23093Y32120D01*
X23147Y32000D01*
X22800Y32040D01*
Y32400D01*
G01X22933Y32747D02*
X22853Y32827D01*
X22813Y32920D01*
X22800Y33027D01*
X22827Y33160D01*
X22893Y33253D01*
X22973Y33280D01*
X23053Y33267D01*
X23120Y33213D01*
X23253Y32947D01*
X23347Y32827D01*
X23480Y32747D01*
X23600Y32720D01*
Y33280D01*
G01X24533Y23200D02*
Y24000D01*
X24867D01*
X24973Y23960D01*
X25040Y23907D01*
X25067Y23800D01*
X25040Y23693D01*
X24960Y23627D01*
X24867Y23587D01*
X24533D01*
G01X24867D02*
X25067Y23200D01*
G01X25307Y23320D02*
X25387Y23253D01*
X25480Y23213D01*
X25600Y23200D01*
X25720Y23227D01*
X25813Y23280D01*
X25880Y23373D01*
X25893Y23480D01*
X25867Y23587D01*
X25800Y23653D01*
X25707Y23707D01*
X25613Y23720D01*
X25520Y23707D01*
X25400Y23653D01*
X25440Y24000D01*
X25800D01*
G01X26107Y23360D02*
X26187Y23267D01*
X26293Y23213D01*
X26413Y23200D01*
X26520Y23213D01*
X26627Y23280D01*
X26693Y23360D01*
X26707Y23440D01*
X26680Y23533D01*
X26587Y23600D01*
X26493Y23627D01*
X26373D01*
G01X26493D02*
X26573Y23667D01*
X26640Y23733D01*
X26667Y23813D01*
X26640Y23893D01*
X26573Y23960D01*
X26453Y24000D01*
X26333Y23987D01*
X26213Y23933D01*
G01X24533Y24400D02*
Y25200D01*
X24867D01*
X24973Y25160D01*
X25040Y25107D01*
X25067Y25000D01*
X25040Y24893D01*
X24960Y24827D01*
X24867Y24787D01*
X24533D01*
G01X24867D02*
X25067Y24400D01*
G01X25307Y24520D02*
X25387Y24453D01*
X25480Y24413D01*
X25600Y24400D01*
X25720Y24427D01*
X25813Y24480D01*
X25880Y24573D01*
X25893Y24680D01*
X25867Y24787D01*
X25800Y24853D01*
X25707Y24907D01*
X25613Y24920D01*
X25520Y24907D01*
X25400Y24853D01*
X25440Y25200D01*
X25800D01*
G01X26560Y24400D02*
Y25200D01*
X26067Y24627D01*
X26733D01*
G01X20333Y25000D02*
Y25800D01*
X20667D01*
X20773Y25760D01*
X20840Y25707D01*
X20867Y25600D01*
X20840Y25493D01*
X20760Y25427D01*
X20667Y25387D01*
X20333D01*
G01X20667D02*
X20867Y25000D01*
G01X21107Y25120D02*
X21187Y25053D01*
X21280Y25013D01*
X21400Y25000D01*
X21520Y25027D01*
X21613Y25080D01*
X21680Y25173D01*
X21693Y25280D01*
X21667Y25387D01*
X21600Y25453D01*
X21507Y25507D01*
X21413Y25520D01*
X21320Y25507D01*
X21200Y25453D01*
X21240Y25800D01*
X21600D01*
G01X21907Y25120D02*
X21987Y25053D01*
X22080Y25013D01*
X22200Y25000D01*
X22320Y25027D01*
X22413Y25080D01*
X22480Y25173D01*
X22493Y25280D01*
X22467Y25387D01*
X22400Y25453D01*
X22307Y25507D01*
X22213Y25520D01*
X22120Y25507D01*
X22000Y25453D01*
X22040Y25800D01*
X22400D01*
G01X20333Y26200D02*
Y27000D01*
X20667D01*
X20773Y26960D01*
X20840Y26907D01*
X20867Y26800D01*
X20840Y26693D01*
X20760Y26627D01*
X20667Y26587D01*
X20333D01*
G01X20667D02*
X20867Y26200D01*
G01X21107Y26320D02*
X21187Y26253D01*
X21280Y26213D01*
X21400Y26200D01*
X21520Y26227D01*
X21613Y26280D01*
X21680Y26373D01*
X21693Y26480D01*
X21667Y26587D01*
X21600Y26653D01*
X21507Y26707D01*
X21413Y26720D01*
X21320Y26707D01*
X21200Y26653D01*
X21240Y27000D01*
X21600D01*
G01X21947Y26533D02*
X22040Y26627D01*
X22120Y26680D01*
X22227Y26707D01*
X22320Y26680D01*
X22387Y26627D01*
X22440Y26547D01*
X22453Y26453D01*
X22440Y26373D01*
X22387Y26293D01*
X22307Y26227D01*
X22213Y26200D01*
X22107Y26227D01*
X22013Y26307D01*
X21960Y26427D01*
X21947Y26560D01*
X21973Y26733D01*
X22013Y26827D01*
X22080Y26920D01*
X22173Y26987D01*
X22267Y27000D01*
X22360Y26973D01*
X22427Y26907D01*
G01X20333Y27200D02*
Y28000D01*
X20667D01*
X20773Y27960D01*
X20840Y27907D01*
X20867Y27800D01*
X20840Y27693D01*
X20760Y27627D01*
X20667Y27587D01*
X20333D01*
G01X20667D02*
X20867Y27200D01*
G01X21107Y27320D02*
X21187Y27253D01*
X21280Y27213D01*
X21400Y27200D01*
X21520Y27227D01*
X21613Y27280D01*
X21680Y27373D01*
X21693Y27480D01*
X21667Y27587D01*
X21600Y27653D01*
X21507Y27707D01*
X21413Y27720D01*
X21320Y27707D01*
X21200Y27653D01*
X21240Y28000D01*
X21600D01*
G01X22173Y27200D02*
X22200Y27373D01*
X22240Y27520D01*
X22293Y27653D01*
X22360Y27800D01*
X22467Y28000D01*
X21933D01*
G01X22333Y28400D02*
Y29200D01*
X22667D01*
X22773Y29160D01*
X22840Y29107D01*
X22867Y29000D01*
X22840Y28893D01*
X22760Y28827D01*
X22667Y28787D01*
X22333D01*
G01X22667D02*
X22867Y28400D01*
G01X23107Y28520D02*
X23187Y28453D01*
X23280Y28413D01*
X23400Y28400D01*
X23520Y28427D01*
X23613Y28480D01*
X23680Y28573D01*
X23693Y28680D01*
X23667Y28787D01*
X23600Y28853D01*
X23507Y28907D01*
X23413Y28920D01*
X23320Y28907D01*
X23200Y28853D01*
X23240Y29200D01*
X23600D01*
G01X24200Y28400D02*
X24293Y28413D01*
X24400Y28453D01*
X24467Y28520D01*
X24493Y28613D01*
X24467Y28707D01*
X24387Y28787D01*
X24267Y28827D01*
X24133D01*
X24053Y28853D01*
X23987Y28920D01*
X23960Y29013D01*
X24000Y29107D01*
X24093Y29173D01*
X24200Y29200D01*
X24307Y29173D01*
X24400Y29107D01*
X24440Y29013D01*
X24413Y28920D01*
X24347Y28853D01*
X24267Y28827D01*
X24133D01*
X24013Y28787D01*
X23933Y28707D01*
X23907Y28613D01*
X23933Y28520D01*
X24000Y28453D01*
X24107Y28413D01*
X24200Y28400D01*
G01X18133Y20200D02*
Y21000D01*
X18467D01*
X18573Y20960D01*
X18640Y20907D01*
X18667Y20800D01*
X18640Y20693D01*
X18560Y20627D01*
X18467Y20587D01*
X18133D01*
G01X18467D02*
X18667Y20200D01*
G01X18907Y20320D02*
X18987Y20253D01*
X19080Y20213D01*
X19200Y20200D01*
X19320Y20227D01*
X19413Y20280D01*
X19480Y20373D01*
X19493Y20480D01*
X19467Y20587D01*
X19400Y20653D01*
X19307Y20707D01*
X19213Y20720D01*
X19120Y20707D01*
X19000Y20653D01*
X19040Y21000D01*
X19400D01*
G01X19773Y20293D02*
X19867Y20227D01*
X19973Y20200D01*
X20080Y20227D01*
X20173Y20307D01*
X20240Y20427D01*
X20267Y20547D01*
Y20693D01*
X20240Y20813D01*
X20173Y20920D01*
X20093Y20973D01*
X20000Y21000D01*
X19893Y20973D01*
X19813Y20920D01*
X19760Y20840D01*
X19733Y20733D01*
X19760Y20640D01*
X19827Y20547D01*
X19907Y20493D01*
X20000Y20480D01*
X20107Y20507D01*
X20187Y20573D01*
X20267Y20693D01*
G01X19200Y17867D02*
X20000D01*
Y17533D01*
X19960Y17427D01*
X19907Y17360D01*
X19800Y17333D01*
X19693Y17360D01*
X19627Y17440D01*
X19587Y17533D01*
Y17867D01*
G01Y17533D02*
X19200Y17333D01*
G01X19533Y17053D02*
X19627Y16960D01*
X19680Y16880D01*
X19707Y16773D01*
X19680Y16680D01*
X19627Y16613D01*
X19547Y16560D01*
X19453Y16547D01*
X19373Y16560D01*
X19293Y16613D01*
X19227Y16693D01*
X19200Y16787D01*
X19227Y16893D01*
X19307Y16987D01*
X19427Y17040D01*
X19560Y17053D01*
X19733Y17027D01*
X19827Y16987D01*
X19920Y16920D01*
X19987Y16827D01*
X20000Y16733D01*
X19973Y16640D01*
X19907Y16573D01*
G01X20000Y16000D02*
X19973Y16107D01*
X19907Y16187D01*
X19827Y16240D01*
X19720Y16280D01*
X19600Y16293D01*
X19480Y16280D01*
X19373Y16240D01*
X19293Y16187D01*
X19227Y16107D01*
X19200Y16000D01*
X19227Y15893D01*
X19293Y15813D01*
X19373Y15760D01*
X19480Y15720D01*
X19600Y15707D01*
X19720Y15720D01*
X19827Y15760D01*
X19907Y15813D01*
X19973Y15893D01*
X20000Y16000D01*
G01X29000Y31800D02*
X28893Y31813D01*
X28800Y31867D01*
X28720Y31947D01*
X28667Y32040D01*
X28640Y32147D01*
Y32253D01*
X28667Y32360D01*
X28720Y32453D01*
X28800Y32533D01*
X28893Y32587D01*
X29000Y32600D01*
X29107Y32587D01*
X29200Y32533D01*
X29280Y32453D01*
X29333Y32360D01*
X29360Y32253D01*
Y32147D01*
X29333Y32040D01*
X29280Y31947D01*
X29200Y31867D01*
X29107Y31813D01*
X29000Y31800D01*
G01X29107Y32013D02*
X29267Y31800D01*
G01X29573Y31893D02*
X29667Y31827D01*
X29773Y31800D01*
X29880Y31827D01*
X29973Y31907D01*
X30040Y32027D01*
X30067Y32147D01*
Y32293D01*
X30040Y32413D01*
X29973Y32520D01*
X29893Y32573D01*
X29800Y32600D01*
X29693Y32573D01*
X29613Y32520D01*
X29560Y32440D01*
X29533Y32333D01*
X29560Y32240D01*
X29627Y32147D01*
X29707Y32093D01*
X29800Y32080D01*
X29907Y32107D01*
X29987Y32173D01*
X30067Y32293D01*
G01X26200Y31800D02*
X26093Y31813D01*
X26000Y31867D01*
X25920Y31947D01*
X25867Y32040D01*
X25840Y32147D01*
Y32253D01*
X25867Y32360D01*
X25920Y32453D01*
X26000Y32533D01*
X26093Y32587D01*
X26200Y32600D01*
X26307Y32587D01*
X26400Y32533D01*
X26480Y32453D01*
X26533Y32360D01*
X26560Y32253D01*
Y32147D01*
X26533Y32040D01*
X26480Y31947D01*
X26400Y31867D01*
X26307Y31813D01*
X26200Y31800D01*
G01X26307Y32013D02*
X26467Y31800D01*
G01X27000D02*
Y32600D01*
X26840Y32440D01*
G01Y31800D02*
X27160D01*
G01X27800Y32600D02*
X27693Y32573D01*
X27613Y32507D01*
X27560Y32427D01*
X27520Y32320D01*
X27507Y32200D01*
X27520Y32080D01*
X27560Y31973D01*
X27613Y31893D01*
X27693Y31827D01*
X27800Y31800D01*
X27907Y31827D01*
X27987Y31893D01*
X28040Y31973D01*
X28080Y32080D01*
X28093Y32200D01*
X28080Y32320D01*
X28040Y32427D01*
X27987Y32507D01*
X27907Y32573D01*
X27800Y32600D01*
G01X34600Y33200D02*
X34493Y33213D01*
X34400Y33267D01*
X34320Y33347D01*
X34267Y33440D01*
X34240Y33547D01*
Y33653D01*
X34267Y33760D01*
X34320Y33853D01*
X34400Y33933D01*
X34493Y33987D01*
X34600Y34000D01*
X34707Y33987D01*
X34800Y33933D01*
X34880Y33853D01*
X34933Y33760D01*
X34960Y33653D01*
Y33547D01*
X34933Y33440D01*
X34880Y33347D01*
X34800Y33267D01*
X34707Y33213D01*
X34600Y33200D01*
G01X34707Y33413D02*
X34867Y33200D01*
G01X35400D02*
Y34000D01*
X35240Y33840D01*
G01Y33200D02*
X35560D01*
G01X36200D02*
Y34000D01*
X36040Y33840D01*
G01Y33200D02*
X36360D01*
G01X31800D02*
X31693Y33213D01*
X31600Y33267D01*
X31520Y33347D01*
X31467Y33440D01*
X31440Y33547D01*
Y33653D01*
X31467Y33760D01*
X31520Y33853D01*
X31600Y33933D01*
X31693Y33987D01*
X31800Y34000D01*
X31907Y33987D01*
X32000Y33933D01*
X32080Y33853D01*
X32133Y33760D01*
X32160Y33653D01*
Y33547D01*
X32133Y33440D01*
X32080Y33347D01*
X32000Y33267D01*
X31907Y33213D01*
X31800Y33200D01*
G01X31907Y33413D02*
X32067Y33200D01*
G01X32600D02*
Y34000D01*
X32440Y33840D01*
G01Y33200D02*
X32760D01*
G01X33147Y33867D02*
X33227Y33947D01*
X33320Y33987D01*
X33427Y34000D01*
X33560Y33973D01*
X33653Y33907D01*
X33680Y33827D01*
X33667Y33747D01*
X33613Y33680D01*
X33347Y33547D01*
X33227Y33453D01*
X33147Y33320D01*
X33120Y33200D01*
X33680D01*
G01X29000D02*
X28893Y33213D01*
X28800Y33267D01*
X28720Y33347D01*
X28667Y33440D01*
X28640Y33547D01*
Y33653D01*
X28667Y33760D01*
X28720Y33853D01*
X28800Y33933D01*
X28893Y33987D01*
X29000Y34000D01*
X29107Y33987D01*
X29200Y33933D01*
X29280Y33853D01*
X29333Y33760D01*
X29360Y33653D01*
Y33547D01*
X29333Y33440D01*
X29280Y33347D01*
X29200Y33267D01*
X29107Y33213D01*
X29000Y33200D01*
G01X29107Y33413D02*
X29267Y33200D01*
G01X29800D02*
Y34000D01*
X29640Y33840D01*
G01Y33200D02*
X29960D01*
G01X30307Y33360D02*
X30387Y33267D01*
X30493Y33213D01*
X30613Y33200D01*
X30720Y33213D01*
X30827Y33280D01*
X30893Y33360D01*
X30907Y33440D01*
X30880Y33533D01*
X30787Y33600D01*
X30693Y33627D01*
X30573D01*
G01X30693D02*
X30773Y33667D01*
X30840Y33733D01*
X30867Y33813D01*
X30840Y33893D01*
X30773Y33960D01*
X30653Y34000D01*
X30533Y33987D01*
X30413Y33933D01*
G01X26200Y33200D02*
X26093Y33213D01*
X26000Y33267D01*
X25920Y33347D01*
X25867Y33440D01*
X25840Y33547D01*
Y33653D01*
X25867Y33760D01*
X25920Y33853D01*
X26000Y33933D01*
X26093Y33987D01*
X26200Y34000D01*
X26307Y33987D01*
X26400Y33933D01*
X26480Y33853D01*
X26533Y33760D01*
X26560Y33653D01*
Y33547D01*
X26533Y33440D01*
X26480Y33347D01*
X26400Y33267D01*
X26307Y33213D01*
X26200Y33200D01*
G01X26307Y33413D02*
X26467Y33200D01*
G01X27000D02*
Y34000D01*
X26840Y33840D01*
G01Y33200D02*
X27160D01*
G01X27960D02*
Y34000D01*
X27467Y33427D01*
X28133D01*
G01X34400Y31800D02*
X34293Y31813D01*
X34200Y31867D01*
X34120Y31947D01*
X34067Y32040D01*
X34040Y32147D01*
Y32253D01*
X34067Y32360D01*
X34120Y32453D01*
X34200Y32533D01*
X34293Y32587D01*
X34400Y32600D01*
X34507Y32587D01*
X34600Y32533D01*
X34680Y32453D01*
X34733Y32360D01*
X34760Y32253D01*
Y32147D01*
X34733Y32040D01*
X34680Y31947D01*
X34600Y31867D01*
X34507Y31813D01*
X34400Y31800D01*
G01X34507Y32013D02*
X34667Y31800D01*
G01X35200D02*
Y32600D01*
X35040Y32440D01*
G01Y31800D02*
X35360D01*
G01X35707Y31920D02*
X35787Y31853D01*
X35880Y31813D01*
X36000Y31800D01*
X36120Y31827D01*
X36213Y31880D01*
X36280Y31973D01*
X36293Y32080D01*
X36267Y32187D01*
X36200Y32253D01*
X36107Y32307D01*
X36013Y32320D01*
X35920Y32307D01*
X35800Y32253D01*
X35840Y32600D01*
X36200D01*
G01X31800Y31800D02*
X31693Y31813D01*
X31600Y31867D01*
X31520Y31947D01*
X31467Y32040D01*
X31440Y32147D01*
Y32253D01*
X31467Y32360D01*
X31520Y32453D01*
X31600Y32533D01*
X31693Y32587D01*
X31800Y32600D01*
X31907Y32587D01*
X32000Y32533D01*
X32080Y32453D01*
X32133Y32360D01*
X32160Y32253D01*
Y32147D01*
X32133Y32040D01*
X32080Y31947D01*
X32000Y31867D01*
X31907Y31813D01*
X31800Y31800D01*
G01X31907Y32013D02*
X32067Y31800D01*
G01X32600D02*
Y32600D01*
X32440Y32440D01*
G01Y31800D02*
X32760D01*
G01X33147Y32133D02*
X33240Y32227D01*
X33320Y32280D01*
X33427Y32307D01*
X33520Y32280D01*
X33587Y32227D01*
X33640Y32147D01*
X33653Y32053D01*
X33640Y31973D01*
X33587Y31893D01*
X33507Y31827D01*
X33413Y31800D01*
X33307Y31827D01*
X33213Y31907D01*
X33160Y32027D01*
X33147Y32160D01*
X33173Y32333D01*
X33213Y32427D01*
X33280Y32520D01*
X33373Y32587D01*
X33467Y32600D01*
X33560Y32573D01*
X33627Y32507D01*
G01X20307Y19800D02*
Y19227D01*
X20360Y19107D01*
X20467Y19027D01*
X20600Y19000D01*
X20733Y19027D01*
X20840Y19107D01*
X20893Y19227D01*
Y19800D01*
G01X21400Y19000D02*
Y19800D01*
X21240Y19640D01*
G01Y19000D02*
X21560D01*
G01X17507Y37800D02*
Y37227D01*
X17560Y37107D01*
X17667Y37027D01*
X17800Y37000D01*
X17933Y37027D01*
X18040Y37107D01*
X18093Y37227D01*
Y37800D01*
G01X18347Y37667D02*
X18427Y37747D01*
X18520Y37787D01*
X18627Y37800D01*
X18760Y37773D01*
X18853Y37707D01*
X18880Y37627D01*
X18867Y37547D01*
X18813Y37480D01*
X18547Y37347D01*
X18427Y37253D01*
X18347Y37120D01*
X18320Y37000D01*
X18880D01*
G01X32533Y22560D02*
X32600Y22480D01*
X32680Y22427D01*
X32773Y22400D01*
X32880Y22427D01*
X32960Y22480D01*
X33040Y22560D01*
X33067Y22667D01*
Y23200D01*
G01X33600Y22400D02*
Y23200D01*
X33440Y23040D01*
G01Y22400D02*
X33760D01*
G01X30433Y13960D02*
X30500Y13880D01*
X30580Y13827D01*
X30673Y13800D01*
X30780Y13827D01*
X30860Y13880D01*
X30940Y13960D01*
X30967Y14067D01*
Y14600D01*
G01X31247Y14467D02*
X31327Y14547D01*
X31420Y14587D01*
X31527Y14600D01*
X31660Y14573D01*
X31753Y14507D01*
X31780Y14427D01*
X31767Y14347D01*
X31713Y14280D01*
X31447Y14147D01*
X31327Y14053D01*
X31247Y13920D01*
X31220Y13800D01*
X31780D01*
G01X22733Y38800D02*
Y39600D01*
X23067D01*
X23173Y39560D01*
X23240Y39507D01*
X23267Y39400D01*
X23240Y39293D01*
X23160Y39227D01*
X23067Y39187D01*
X22733D01*
G01X23067D02*
X23267Y38800D01*
G01X23960D02*
Y39600D01*
X23467Y39027D01*
X24133D01*
G01X24600Y38800D02*
X24693Y38813D01*
X24800Y38853D01*
X24867Y38920D01*
X24893Y39013D01*
X24867Y39107D01*
X24787Y39187D01*
X24667Y39227D01*
X24533D01*
X24453Y39253D01*
X24387Y39320D01*
X24360Y39413D01*
X24400Y39507D01*
X24493Y39573D01*
X24600Y39600D01*
X24707Y39573D01*
X24800Y39507D01*
X24840Y39413D01*
X24813Y39320D01*
X24747Y39253D01*
X24667Y39227D01*
X24533D01*
X24413Y39187D01*
X24333Y39107D01*
X24307Y39013D01*
X24333Y38920D01*
X24400Y38853D01*
X24507Y38813D01*
X24600Y38800D01*
G54D12*
G01X15783Y5867D02*
X14182D01*
Y6629D01*
X15808D01*
Y5867D01*
X15757D01*
G01X1474Y12502D02*
Y10902D01*
X712D01*
Y12528D01*
X1474D01*
Y12477D01*
G01X15626Y3055D02*
X14026D01*
Y3817D01*
X15652D01*
Y3055D01*
X15601D01*
G01X15783Y6804D02*
X14182D01*
Y7566D01*
X15808D01*
Y6804D01*
X15757D01*
G01X15783Y7585D02*
X14182D01*
Y8347D01*
X15808D01*
Y7585D01*
X15757D01*
G01X16087Y34019D02*
X14487D01*
Y34781D01*
X16113D01*
Y34019D01*
X16062D01*
G01X12752Y22893D02*
X11152D01*
Y23655D01*
X12777D01*
Y22893D01*
X12727D01*
G01X16087Y30919D02*
X14487D01*
Y31681D01*
X16113D01*
Y30919D01*
X16062D01*
G01X16095Y34920D02*
X14495D01*
Y35682D01*
X16120D01*
Y34920D01*
X16070D01*
G01X16095Y35701D02*
X14495D01*
Y36463D01*
X16120D01*
Y35701D01*
X16070D01*
G01X11865Y28966D02*
X13465D01*
Y28204D01*
X11839D01*
Y28966D01*
X11890D01*
G01X12752Y21175D02*
X11152D01*
Y21937D01*
X12777D01*
Y21175D01*
X12727D01*
G01X12752Y24611D02*
X11152D01*
Y25373D01*
X12777D01*
Y24611D01*
X12727D01*
G01X12752Y25392D02*
X11152D01*
Y26154D01*
X12777D01*
Y25392D01*
X12727D01*
G01X14458Y28266D02*
Y29866D01*
X15220D01*
Y28240D01*
X14458D01*
Y28291D01*
G01X3987Y16019D02*
X2387D01*
Y16781D01*
X4013D01*
Y16019D01*
X3962D01*
G01X22874Y12190D02*
Y10590D01*
X22112D01*
Y12215D01*
X22874D01*
Y12165D01*
G01X22093Y12190D02*
Y10590D01*
X21331D01*
Y12215D01*
X22093D01*
Y12165D01*
G01X19594Y2193D02*
Y593D01*
X18832D01*
Y2219D01*
X19594D01*
Y2168D01*
G01X18813Y2193D02*
Y593D01*
X18051D01*
Y2219D01*
X18813D01*
Y2168D01*
G01X17582Y10147D02*
Y11747D01*
X18344D01*
Y10121D01*
X17582D01*
Y10172D01*
G01X18363Y10147D02*
Y11747D01*
X19125D01*
Y10121D01*
X18363D01*
Y10172D01*
G01X19144Y10147D02*
Y11747D01*
X19906D01*
Y10121D01*
X19144D01*
Y10172D01*
G01X23749Y12217D02*
Y10617D01*
X22987D01*
Y12243D01*
X23749D01*
Y12192D01*
G01X30124Y3302D02*
X28524D01*
Y4064D01*
X30150D01*
Y3302D01*
X30099D01*
G01X27203D02*
X25603D01*
Y4064D01*
X27229D01*
Y3302D01*
X27178D01*
G01X26289Y9296D02*
Y7696D01*
X25527D01*
Y9322D01*
X26289D01*
Y9271D01*
G01X29997Y7747D02*
X28397D01*
Y8509D01*
X30023D01*
Y7747D01*
X29972D01*
G01X34061Y7366D02*
X32461D01*
Y8128D01*
X34087D01*
Y7366D01*
X34036D01*
G01X35687Y6833D02*
Y8433D01*
X36449D01*
Y6807D01*
X35687D01*
Y6858D01*
G01X35712Y3302D02*
X34112D01*
Y4064D01*
X35738D01*
Y3302D01*
X35687D01*
G01X33045D02*
X31445D01*
Y4064D01*
X33071D01*
Y3302D01*
X33020D01*
G01X18907Y14927D02*
X17306D01*
Y15689D01*
X18932D01*
Y14927D01*
X18881D01*
G01X18907Y13208D02*
X17306D01*
Y13970D01*
X18932D01*
Y13208D01*
X18881D01*
G01X18907Y16645D02*
X17306D01*
Y17407D01*
X18932D01*
Y16645D01*
X18881D01*
G01X18907Y17426D02*
X17306D01*
Y18188D01*
X18932D01*
Y17426D01*
X18881D01*
G01X20550Y20143D02*
Y21744D01*
X21312D01*
Y20118D01*
X20550D01*
Y20169D01*
G01X21331Y20143D02*
Y21744D01*
X22093D01*
Y20118D01*
X21331D01*
Y20169D01*
G01X22112Y20143D02*
Y21744D01*
X22874D01*
Y20118D01*
X22112D01*
Y20169D01*
G01X28787Y27619D02*
X27187D01*
Y28381D01*
X28813D01*
Y27619D01*
X28762D01*
G01X19906Y30153D02*
Y28553D01*
X19144D01*
Y30178D01*
X19906D01*
Y30128D01*
G01X19125Y30153D02*
Y28553D01*
X18363D01*
Y30178D01*
X19125D01*
Y30128D01*
G01X17419Y37813D02*
Y39413D01*
X18181D01*
Y37787D01*
X17419D01*
Y37838D01*
G01X18419Y37813D02*
Y39413D01*
X19181D01*
Y37787D01*
X18419D01*
Y37838D01*
G01X19419Y37813D02*
Y39413D01*
X20181D01*
Y37787D01*
X19419D01*
Y37838D01*
G01X16875Y20156D02*
Y18556D01*
X16113D01*
Y20182D01*
X16875D01*
Y20131D01*
G01X16094Y20156D02*
Y18556D01*
X15332D01*
Y20182D01*
X16094D01*
Y20131D01*
G01X15395Y28266D02*
Y29866D01*
X16157D01*
Y28240D01*
X15395D01*
Y28291D01*
G01X16176Y28266D02*
Y29866D01*
X16938D01*
Y28240D01*
X16176D01*
Y28291D01*
G01X38357Y13114D02*
Y14715D01*
X39119D01*
Y13089D01*
X38357D01*
Y13140D01*
G01X26645Y17272D02*
X28245D01*
Y16510D01*
X26619D01*
Y17272D01*
X26670D01*
G01X27280Y18288D02*
X28880D01*
Y17526D01*
X27254D01*
Y18288D01*
X27305D01*
G01X27280Y19177D02*
X28880D01*
Y18415D01*
X27254D01*
Y19177D01*
X27305D01*
G01X27280Y20066D02*
X28880D01*
Y19304D01*
X27254D01*
Y20066D01*
X27305D01*
G01X27280Y20955D02*
X28880D01*
Y20193D01*
X27254D01*
Y20955D01*
X27305D01*
G01X27280Y21844D02*
X28880D01*
Y21082D01*
X27254D01*
Y21844D01*
X27305D01*
G01X24581Y31687D02*
Y30087D01*
X23819D01*
Y31713D01*
X24581D01*
Y31662D01*
G01X23213Y36181D02*
X24813D01*
Y35419D01*
X23187D01*
Y36181D01*
X23238D01*
G01X23113Y37181D02*
X24713D01*
Y36419D01*
X23087D01*
Y37181D01*
X23138D01*
G01X30187Y36119D02*
X28587D01*
Y36881D01*
X30213D01*
Y36119D01*
X30162D01*
G01X27487D02*
X25887D01*
Y36881D01*
X27513D01*
Y36119D01*
X27462D01*
G01X25881Y28387D02*
Y26787D01*
X25119D01*
Y28413D01*
X25881D01*
Y28362D01*
G01X22919Y29313D02*
Y30913D01*
X23681D01*
Y29287D01*
X22919D01*
Y29338D01*
G01X22613Y24081D02*
X24213D01*
Y23319D01*
X22587D01*
Y24081D01*
X22638D01*
G01X22613Y24981D02*
X24213D01*
Y24219D01*
X22587D01*
Y24981D01*
X22638D01*
G01X22613Y25781D02*
X24213D01*
Y25019D01*
X22587D01*
Y25781D01*
X22638D01*
G01X22613Y26581D02*
X24213D01*
Y25819D01*
X22587D01*
Y26581D01*
X22638D01*
G01X22613Y27381D02*
X24213D01*
Y26619D01*
X22587D01*
Y27381D01*
X22638D01*
G01X22613Y28181D02*
X24213D01*
Y27419D01*
X22587D01*
Y28181D01*
X22638D01*
G01X19181Y19887D02*
Y18287D01*
X18419D01*
Y19913D01*
X19181D01*
Y19862D01*
G01X19981Y19887D02*
Y18287D01*
X19219D01*
Y19913D01*
X19981D01*
Y19862D01*
G01X20913Y39581D02*
X22513D01*
Y38819D01*
X20887D01*
Y39581D01*
X20938D01*
M02*
