G04 ================== begin FILE IDENTIFICATION RECORD ==================*
G04 Layout Name:  LED Panel G4 V1, 03-26-2017.brd*
G04 Film Name:    Assembly*
G04 File Format:  Gerber RS274X*
G04 File Origin:  Cadence Allegro 17.2-P019*
G04 Origin Date:  Tue Aug 25 16:25:07 2020*
G04 *
G04 Layer:  MANUFACTURING/PHOTOPLOT_OUTLINE*
G04 Layer:  MANUFACTURING/NO_GLOSS_ALL*
G04 Layer:  MANUFACTURING/NO_GLOSS_TOP*
G04 Layer:  MANUFACTURING/NO_GLOSS_BOTTOM*
G04 Layer:  MANUFACTURING/NO_GLOSS_INTERNAL*
G04 Layer:  MANUFACTURING/NCDRILL_LEGEND*
G04 Layer:  MANUFACTURING/NCDRILL_FIGURE*
G04 Layer:  MANUFACTURING/PROBE_TOP*
G04 Layer:  MANUFACTURING/PROBE_BOTTOM*
G04 Layer:  MANUFACTURING/AUTOSILK_TOP*
G04 Layer:  MANUFACTURING/AUTOSILK_BOTTOM*
G04 Layer:  MANUFACTURING/NO_PROBE_TOP*
G04 Layer:  MANUFACTURING/NO_PROBE_BOTTOM*
G04 Layer:  MANUFACTURING/XSECTION_CHART*
G04 Layer:  MANUFACTURING/NCLEGEND-1-6*
G04 Layer:  MANUFACTURING/NCLEGEND-1-4*
G04 Layer:  DRAWING FORMAT/OUTLINE*
G04 Layer:  DRAWING FORMAT/TITLE_BLOCK*
G04 Layer:  DRAWING FORMAT/TITLE_DATA*
G04 Layer:  DRAWING FORMAT/REVISION_BLOCK*
G04 Layer:  DRAWING FORMAT/REVISION_DATA*
G04 Layer:  BOARD GEOMETRY/OUTLINE*
G04 Layer:  BOARD GEOMETRY/PLATING_BAR*
G04 Layer:  BOARD GEOMETRY/ASSEMBLY_NOTES*
G04 Layer:  BOARD GEOMETRY/TOOLING_CORNERS*
G04 Layer:  BOARD GEOMETRY/DIMENSION*
G04 Layer:  BOARD GEOMETRY/PLACE_GRID_TOP*
G04 Layer:  BOARD GEOMETRY/PLACE_GRID_BOTTOM*
G04 Layer:  BOARD GEOMETRY/TOP_ROOM*
G04 Layer:  BOARD GEOMETRY/BOTTOM_ROOM*
G04 Layer:  BOARD GEOMETRY/BOTH_ROOMS*
G04 Layer:  BOARD GEOMETRY/SWITCH_AREA_TOP*
G04 Layer:  BOARD GEOMETRY/SWITCH_AREA_BOTTOM*
G04 Layer:  BOARD GEOMETRY/SILKSCREEN_BOTTOM*
G04 Layer:  BOARD GEOMETRY/ASSEMBLY_DETAIL*
G04 Layer:  BOARD GEOMETRY/SOLDERMASK_TOP*
G04 Layer:  BOARD GEOMETRY/SOLDERMASK_BOTTOM*
G04 Layer:  BOARD GEOMETRY/OFF_GRID_AREA*
G04 Layer:  BOARD GEOMETRY/WB_GUIDE_LINE*
G04 Layer:  BOARD GEOMETRY/NCROUTE_PATH*
G04 *
G04 Offset:    (0.0000 0.0000)*
G04 Mirror:    No*
G04 Mode:      Positive*
G04 Rotation:  0*
G04 FullContactRelief:  No*
G04 UndefLineWidth:     0.1000*
G04 ================== end FILE IDENTIFICATION RECORD ====================*
%FSLAX33Y33*MOMM*%
%IR0*IPPOS*OFA0.00000B0.00000*MIA0B0*SFA1.00000B1.00000*%
%AMMACRO11*
1,1,.1,.635,0.0*
20,1,.1,.635,0.0,.625353,-.110267,0.0*
1,1,.1,.625353,-.110267*
20,1,.1,.625353,-.110267,.596705,-.217183,0.0*
1,1,.1,.596705,-.217183*
20,1,.1,.596705,-.217183,.549926,-.3175,0.0*
1,1,.1,.549926,-.3175*
20,1,.1,.549926,-.3175,.486438,-.40817,0.0*
1,1,.1,.486438,-.40817*
20,1,.1,.486438,-.40817,.40817,-.486438,0.0*
1,1,.1,.40817,-.486438*
20,1,.1,.40817,-.486438,.3175,-.549926,0.0*
1,1,.1,.3175,-.549926*
20,1,.1,.3175,-.549926,.217183,-.596705,0.0*
1,1,.1,.217183,-.596705*
20,1,.1,.217183,-.596705,.110267,-.625353,0.0*
1,1,.1,.110267,-.625353*
20,1,.1,.110267,-.625353,0.0,-.635,0.0*
1,1,.1,0.0,-.635*
20,1,.1,0.0,-.635,-.110267,-.625353,0.0*
1,1,.1,-.110267,-.625353*
20,1,.1,-.110267,-.625353,-.217183,-.596705,0.0*
1,1,.1,-.217183,-.596705*
20,1,.1,-.217183,-.596705,-.3175,-.549926,0.0*
1,1,.1,-.3175,-.549926*
20,1,.1,-.3175,-.549926,-.40817,-.486438,0.0*
1,1,.1,-.40817,-.486438*
20,1,.1,-.40817,-.486438,-.486438,-.40817,0.0*
1,1,.1,-.486438,-.40817*
20,1,.1,-.486438,-.40817,-.549926,-.3175,0.0*
1,1,.1,-.549926,-.3175*
20,1,.1,-.549926,-.3175,-.596705,-.217183,0.0*
1,1,.1,-.596705,-.217183*
20,1,.1,-.596705,-.217183,-.625353,-.110267,0.0*
1,1,.1,-.625353,-.110267*
20,1,.1,-.625353,-.110267,-.635,0.0,0.0*
1,1,.1,-.635,0.0*
20,1,.1,-.635,0.0,-.625353,.110267,0.0*
1,1,.1,-.625353,.110267*
20,1,.1,-.625353,.110267,-.596705,.217183,0.0*
1,1,.1,-.596705,.217183*
20,1,.1,-.596705,.217183,-.549926,.3175,0.0*
1,1,.1,-.549926,.3175*
20,1,.1,-.549926,.3175,-.486438,.40817,0.0*
1,1,.1,-.486438,.40817*
20,1,.1,-.486438,.40817,-.40817,.486438,0.0*
1,1,.1,-.40817,.486438*
20,1,.1,-.40817,.486438,-.3175,.549926,0.0*
1,1,.1,-.3175,.549926*
20,1,.1,-.3175,.549926,-.217183,.596705,0.0*
1,1,.1,-.217183,.596705*
20,1,.1,-.217183,.596705,-.110267,.625353,0.0*
1,1,.1,-.110267,.625353*
20,1,.1,-.110267,.625353,0.0,.635,0.0*
1,1,.1,0.0,.635*
20,1,.1,0.0,.635,.110267,.625353,0.0*
1,1,.1,.110267,.625353*
20,1,.1,.110267,.625353,.217183,.596705,0.0*
1,1,.1,.217183,.596705*
20,1,.1,.217183,.596705,.3175,.549926,0.0*
1,1,.1,.3175,.549926*
20,1,.1,.3175,.549926,.40817,.486438,0.0*
1,1,.1,.40817,.486438*
20,1,.1,.40817,.486438,.486438,.40817,0.0*
1,1,.1,.486438,.40817*
20,1,.1,.486438,.40817,.549926,.3175,0.0*
1,1,.1,.549926,.3175*
20,1,.1,.549926,.3175,.596705,.217183,0.0*
1,1,.1,.596705,.217183*
20,1,.1,.596705,.217183,.625353,.110267,0.0*
1,1,.1,.625353,.110267*
20,1,.1,.625353,.110267,.635,0.0,0.0*
1,1,.1,.635,0.0*
1,1,.1,.3175,0.0*
20,1,.1,.3175,0.0,-.3175,0.0,0.0*
1,1,.1,-.3175,0.0*
1,1,.1,0.0,.3175*
20,1,.1,0.0,.3175,0.0,-.3175,0.0*
1,1,.1,0.0,-.3175*
%
%ADD11MACRO11*%
%AMMACRO10*
1,1,.1,0.0,.2*
20,1,.1,0.0,.2,.2,-.2,0.0*
1,1,.1,.2,-.2*
20,1,.1,.2,-.2,-.2,-.2,0.0*
1,1,.1,-.2,-.2*
20,1,.1,-.2,-.2,0.0,.2,0.0*
1,1,.1,0.0,.2*
%
%ADD10MACRO10*%
%ADD12C,.1*%
G75*
%LPD*%
G75*
G36*
G01X71080Y48868D02*
Y47587D01*
X71715D01*
Y-209D01*
X71080D01*
Y-1490D01*
X74890D01*
Y-209D01*
X74255D01*
Y47587D01*
X74890D01*
Y48868D01*
X71080D01*
G37*
G36*
G01X66000Y8325D02*
Y9606D01*
X81240D01*
Y8325D01*
X66000D01*
G37*
G36*
G01Y-1490D02*
Y-209D01*
X81240D01*
Y-1490D01*
X66000D01*
G37*
G36*
G01Y37771D02*
Y39052D01*
X81240D01*
Y37771D01*
X66000D01*
G37*
G36*
G01Y27956D02*
Y29237D01*
X81240D01*
Y27956D01*
X66000D01*
G37*
G36*
G01Y18141D02*
Y19422D01*
X81240D01*
Y18141D01*
X66000D01*
G37*
G36*
G01Y47587D02*
Y48868D01*
X81240D01*
Y47587D01*
X66000D01*
G37*
G54D10*
X1093Y10407D03*
D03*
X10600Y10400D03*
D03*
X8000Y9600D03*
D03*
X8600D03*
D03*
X9200D03*
D03*
X9800D03*
D03*
X14900Y12300D03*
D03*
X11800Y4800D03*
D03*
X15000Y5300D03*
D03*
X14214Y2655D03*
D03*
X13746Y6876D03*
D03*
X13589Y7501D03*
D03*
X3600Y12000D03*
D03*
X1999Y12215D03*
D03*
X14500Y499D03*
D03*
X12000D03*
D03*
X9500D03*
D03*
X7000D03*
D03*
X4500D03*
D03*
X2000D03*
D03*
X14500Y4501D03*
D03*
X12000Y2999D03*
D03*
X9500D03*
D03*
X7000D03*
D03*
X4500D03*
D03*
X2000D03*
D03*
X14500Y5499D03*
D03*
X12000D03*
D03*
X9500D03*
D03*
X7000D03*
D03*
X4500D03*
D03*
X2000D03*
D03*
X14500Y9501D03*
D03*
X12000Y7999D03*
D03*
X9500D03*
D03*
X7000D03*
D03*
X4500D03*
D03*
X2000D03*
D03*
X14500Y10499D03*
D03*
X12000D03*
D03*
X9500D03*
D03*
X7000D03*
D03*
X4500D03*
D03*
X2000D03*
D03*
X1087Y18750D03*
D03*
X13746Y16401D03*
D03*
X10500Y19334D03*
D03*
X3743Y18750D03*
D03*
X6086D03*
D03*
X14995Y14712D03*
D03*
X8741Y18750D03*
D03*
X1908Y27770D03*
D03*
X13600Y14700D03*
D03*
X9400Y14600D03*
D03*
X6336Y14464D03*
D03*
X13500Y19700D03*
D03*
X13000Y23000D03*
D03*
X9400Y19600D03*
D03*
X6614Y34614D03*
D03*
X9714D03*
D03*
X13900Y34900D03*
D03*
X3214Y34614D03*
D03*
X3700Y29500D03*
D03*
X6400Y29600D03*
D03*
X9000Y29700D03*
D03*
X13800D03*
D03*
X13600Y27200D03*
D03*
X3638Y19462D03*
D03*
X6338D03*
D03*
X3736Y14464D03*
D03*
X13746Y35497D03*
D03*
X14370Y35301D03*
D03*
X14808Y30490D03*
D03*
X1087Y21250D03*
D03*
X11090Y24523D03*
D03*
X8591Y24055D03*
D03*
X14995Y19681D03*
D03*
X3593Y22493D03*
D03*
X11246Y26398D03*
D03*
X5500Y23114D03*
D03*
X13750Y34375D03*
D03*
X1875Y35000D03*
D03*
X6250Y37500D03*
D03*
X8750Y36875D03*
D03*
X12400Y35500D03*
D03*
X8279Y31999D03*
D03*
X5467D03*
D03*
X2499D03*
D03*
X11403D03*
D03*
X13750Y24750D03*
D03*
X13800Y23200D03*
D03*
X8500Y22500D03*
D03*
X11000Y22900D03*
D03*
X8700Y17000D03*
D03*
X6200D03*
D03*
X3464Y15464D03*
D03*
X10900Y17300D03*
D03*
X2000Y20100D03*
D03*
X5900Y22200D03*
D03*
X10600Y20100D03*
D03*
X8800Y20600D03*
D03*
X14214Y30416D03*
D03*
X13000Y32900D03*
D03*
X12184Y27960D03*
D03*
X1644Y25230D03*
D03*
X9060Y30334D03*
D03*
X12184D03*
D03*
X12014Y35114D03*
D03*
X9046D03*
D03*
X6079D03*
D03*
X3593D03*
D03*
Y30334D03*
D03*
X6404Y30303D03*
D03*
X12000Y20506D03*
D03*
X9500Y21994D03*
D03*
X7000D03*
D03*
X4500D03*
D03*
X2000D03*
D03*
X6542Y32628D03*
D03*
X14500Y20506D03*
D03*
X12000Y24340D03*
D03*
X9500Y23100D03*
D03*
X7000Y23006D03*
D03*
X4500D03*
D03*
X1256Y23750D03*
D03*
X3574Y32628D03*
D03*
X13700Y22000D03*
D03*
X8756Y26250D03*
D03*
X6256D03*
D03*
X3756D03*
D03*
X1256D03*
D03*
X12000Y26995D03*
D03*
X13754Y26250D03*
D03*
X4500Y29494D03*
D03*
X1256Y28750D03*
D03*
X5936Y32958D03*
D03*
X7000Y29494D03*
D03*
X9500D03*
D03*
X12000D03*
D03*
X13746Y27960D03*
D03*
X13800Y32000D03*
D03*
X12000Y31994D03*
D03*
X4500Y31835D03*
D03*
X1256Y31250D03*
D03*
X8903Y32958D03*
D03*
X7000Y32148D03*
D03*
X13600Y33000D03*
D03*
X8756Y33750D03*
D03*
X6256D03*
D03*
X3756D03*
D03*
X1256D03*
D03*
X12000Y32986D03*
D03*
X11246Y32958D03*
D03*
X14500Y36994D03*
D03*
X12000D03*
D03*
X9500D03*
D03*
X7000D03*
D03*
X4500D03*
D03*
X2000D03*
D03*
X11200Y13200D03*
D03*
X8903Y14964D03*
D03*
X12340D03*
D03*
X11715Y19962D03*
D03*
X8747D03*
D03*
X5936D03*
D03*
X3124D03*
D03*
X3905Y14964D03*
D03*
X6717D03*
D03*
X6248Y15464D03*
D03*
X1874Y14839D03*
D03*
X3749Y20462D03*
D03*
X6560D03*
D03*
X9372D03*
D03*
X14500Y12999D03*
D03*
X12000D03*
D03*
X9500D03*
D03*
X7000D03*
D03*
X4500D03*
D03*
X2000D03*
D03*
X11200Y18200D03*
D03*
X12000Y17001D03*
D03*
X9500D03*
D03*
X14500Y15490D03*
D03*
X4500Y17001D03*
D03*
X2000Y15499D03*
D03*
X7000Y17001D03*
D03*
X14500Y17999D03*
D03*
X12000D03*
D03*
X9500D03*
D03*
X7000D03*
D03*
X4500D03*
D03*
X2000D03*
D03*
X9216Y15464D03*
D03*
X14500Y39494D03*
D03*
X12000D03*
D03*
X9500D03*
D03*
X7000D03*
D03*
X4500D03*
D03*
X2000D03*
D03*
X22493Y9841D03*
D03*
X21243Y10465D03*
D03*
X16245Y12496D03*
D03*
X24200Y12195D03*
D03*
X21700Y2667D03*
D03*
X23118Y4530D03*
D03*
X21804Y4750D03*
D03*
X16200Y6900D03*
D03*
X33766Y5500D03*
D03*
X36466D03*
D03*
X32800Y7000D03*
D03*
X37000Y7100D03*
D03*
X32512Y2032D03*
D03*
X36830Y2159D03*
D03*
X30597Y403D03*
D03*
X27000Y2000D03*
D03*
X27600Y5200D03*
D03*
X30100Y5300D03*
D03*
X32568Y2968D03*
D03*
X35132D03*
D03*
X32566Y7966D03*
D03*
X35266D03*
D03*
X28600Y4500D03*
D03*
X24300Y7100D03*
D03*
X19100Y5000D03*
D03*
X19600D03*
D03*
X20100D03*
D03*
X19100Y5500D03*
D03*
X19600D03*
D03*
X20100D03*
D03*
X19100Y7000D03*
D03*
X19600D03*
D03*
X20200D03*
D03*
X25068Y2968D03*
D03*
X25900Y7000D03*
D03*
X28900D03*
D03*
X38581Y12340D03*
D03*
X19700Y7829D03*
D03*
X28800Y12200D03*
D03*
X28803Y9997D03*
D03*
X20618Y2031D03*
D03*
X29522Y2468D03*
D03*
X23177Y7250D03*
D03*
X26398Y2468D03*
D03*
X23720Y7750D03*
D03*
X26554Y7466D03*
D03*
X22024Y9528D03*
D03*
X29366Y7466D03*
D03*
X21200Y9770D03*
D03*
X32177Y7466D03*
D03*
X20700Y10235D03*
D03*
X34989Y7466D03*
D03*
X20200Y9790D03*
D03*
X34833Y2468D03*
D03*
X19700Y2478D03*
D03*
X32177Y2468D03*
D03*
X20200Y2822D03*
D03*
X39500Y499D03*
D03*
X37000D03*
D03*
X34500D03*
D03*
X32000D03*
D03*
X29500D03*
D03*
X24500D03*
D03*
X22000D03*
D03*
X27023Y312D03*
D03*
X22337Y2655D03*
D03*
X24500Y2999D03*
D03*
X27000D03*
D03*
X29500D03*
D03*
X39500D03*
D03*
X37000D03*
D03*
X34052Y4998D03*
D03*
X31240Y5000D03*
D03*
X26242Y4530D03*
D03*
X23118Y5155D03*
D03*
X29500Y5499D03*
D03*
X27000D03*
D03*
X24500D03*
D03*
X32500Y5400D03*
D03*
X37000Y5499D03*
D03*
X39500D03*
D03*
X34440Y4540D03*
D03*
X30300Y7999D03*
D03*
X37000D03*
D03*
X39500D03*
D03*
X23274Y9684D03*
D03*
X27000Y7999D03*
D03*
X24500D03*
D03*
X34500Y8100D03*
D03*
X21712Y10153D03*
D03*
X39500Y10499D03*
D03*
X37000D03*
D03*
X34500D03*
D03*
X32000D03*
D03*
X29500D03*
D03*
X27000D03*
D03*
X24500D03*
D03*
X30600Y7300D03*
D03*
X27179Y4686D03*
D03*
X29834D03*
D03*
X28585Y781D03*
D03*
X33739Y937D03*
D03*
X16245Y11871D03*
D03*
X38580Y3750D03*
D03*
X19985Y12643D03*
D03*
X21243Y625D03*
D03*
X19056Y12652D03*
D03*
X31174Y715D03*
D03*
X23699Y10153D03*
D03*
X23742Y1098D03*
D03*
X23700Y12538D03*
D03*
X22649Y12496D03*
D03*
X20462Y469D03*
D03*
X17000Y2000D03*
D03*
Y2999D03*
D03*
X18744Y2655D03*
D03*
X16245Y5467D03*
D03*
X19681Y9528D03*
D03*
X17000Y9501D03*
D03*
X19500Y12184D03*
D03*
X17000Y10499D03*
D03*
X21087Y22180D03*
D03*
X32490Y30185D03*
D03*
X16245Y16557D03*
D03*
X35145Y30029D03*
D03*
X26554Y35114D03*
D03*
X20150Y37488D03*
D03*
X29366Y35114D03*
D03*
X20462Y37957D03*
D03*
X18739Y16250D03*
D03*
X22493Y22961D03*
D03*
X32177Y35114D03*
D03*
X23900Y35500D03*
D03*
X27172Y30154D03*
D03*
X29522Y30185D03*
D03*
X23742Y33114D03*
D03*
X33739Y33739D03*
D03*
X21712Y34676D03*
D03*
X24500Y32646D03*
D03*
X27000Y32802D03*
D03*
X37000Y34494D03*
D03*
X39500D03*
D03*
X29834Y34676D03*
D03*
X32000Y32979D03*
D03*
X16084Y13750D03*
D03*
X21399Y22961D03*
D03*
X37332Y30459D03*
D03*
X39500Y24494D03*
D03*
X37000Y23006D03*
D03*
X34500D03*
D03*
X32000D03*
D03*
X29500D03*
D03*
X27000Y24494D03*
D03*
X24500D03*
D03*
X22000D03*
D03*
X39500Y29494D03*
D03*
X31400Y37600D03*
D03*
X37000Y29494D03*
D03*
X34500D03*
D03*
X32000D03*
D03*
X29500D03*
D03*
X27000D03*
D03*
X24500D03*
D03*
X22000D03*
D03*
X21712Y32333D03*
D03*
X24500Y31994D03*
D03*
X27000D03*
D03*
X29500D03*
D03*
X32000D03*
D03*
X34500D03*
D03*
X37000D03*
D03*
X39500D03*
D03*
X32646Y34676D03*
D03*
X31280Y27770D03*
D03*
X20700Y32103D03*
D03*
X18200Y20381D03*
D03*
X20931Y30459D03*
D03*
X18700Y20662D03*
D03*
X22180Y30303D03*
D03*
X24700Y12673D03*
D03*
X34430Y25230D03*
D03*
X19994Y22180D03*
D03*
X23190Y32250D03*
D03*
X26242Y14683D03*
D03*
X29000Y28000D03*
D03*
X19700Y37157D03*
D03*
X27000Y15000D03*
D03*
X18619Y15308D03*
D03*
X31275Y34100D03*
D03*
X36220Y34220D03*
D03*
X36700Y30100D03*
D03*
X33500Y29500D03*
D03*
X27600Y29800D03*
D03*
X30000D03*
D03*
X37000Y27400D03*
D03*
X36200D03*
D03*
X37000Y28000D03*
D03*
X36200D03*
D03*
X26600D03*
D03*
X18300Y34600D03*
D03*
X18200Y33000D03*
D03*
X21712Y32898D03*
D03*
X26100Y33000D03*
D03*
X38738Y14838D03*
D03*
X20931Y29834D03*
D03*
X19525Y27960D03*
D03*
X31240Y29678D03*
D03*
X22000Y22625D03*
D03*
X39500Y21994D03*
D03*
X37000Y20506D03*
D03*
X34500D03*
D03*
X32000D03*
D03*
X29500D03*
D03*
X27000Y21994D03*
D03*
X24500D03*
D03*
X38000Y37957D03*
D03*
X35500D03*
D03*
X33000D03*
D03*
X30500D03*
D03*
X27023Y35457D03*
D03*
X24992Y35145D03*
D03*
X23250Y32826D03*
D03*
X18744Y28428D03*
D03*
X16000Y17700D03*
D03*
X16245Y30459D03*
D03*
X19681Y27179D03*
D03*
X17338Y30303D03*
D03*
X21300Y24700D03*
D03*
X21900Y15500D03*
D03*
X22400D03*
D03*
X21900Y15000D03*
D03*
X22400D03*
D03*
X23500Y15500D03*
D03*
Y15000D03*
D03*
X28741Y36395D03*
D03*
X31084Y32490D03*
D03*
X26242Y31865D03*
D03*
X33739Y36395D03*
D03*
X31240Y36238D03*
D03*
X26242Y36395D03*
D03*
X28741Y31709D03*
D03*
X33739D03*
D03*
X23300Y34500D03*
D03*
X20900Y33000D03*
D03*
X20600Y34500D03*
D03*
Y35000D03*
D03*
X19100Y33000D03*
D03*
X20100Y34500D03*
D03*
X19600D03*
D03*
X19100D03*
D03*
X20100Y35000D03*
D03*
X19600D03*
D03*
X19100D03*
D03*
X16600Y25000D03*
D03*
X16000D03*
D03*
X17200D03*
D03*
X16000Y24500D03*
D03*
X16600D03*
D03*
X17200D03*
D03*
X16000Y23000D03*
D03*
X17200D03*
D03*
X16400Y15100D03*
D03*
X39500Y26994D03*
D03*
X36247Y26250D03*
D03*
X33748D03*
D03*
X31248D03*
D03*
X27000Y26994D03*
D03*
X24500D03*
D03*
X22000D03*
D03*
X28585Y25304D03*
D03*
X27179Y34520D03*
D03*
X21087Y12808D03*
D03*
X25148Y12965D03*
D03*
X27000Y12999D03*
D03*
X29500D03*
D03*
X32000D03*
D03*
X34500D03*
D03*
X37000D03*
D03*
X39500D03*
D03*
X28000Y15400D03*
D03*
X29500Y15499D03*
D03*
X32000D03*
D03*
X34500D03*
D03*
X37000D03*
D03*
X39500D03*
D03*
X21248Y16250D03*
D03*
X26398Y15308D03*
D03*
X22649Y19681D03*
D03*
X26242Y19994D03*
D03*
X39362Y18119D03*
D03*
X37000Y17999D03*
D03*
X34500D03*
D03*
X32000D03*
D03*
X29500D03*
D03*
X16557Y27804D03*
D03*
X17700Y20100D03*
D03*
X37176Y17182D03*
D03*
X35500Y19600D03*
D03*
X20150Y24836D03*
D03*
Y25461D03*
D03*
X18888Y27179D03*
D03*
X18432Y27647D03*
D03*
X17651Y27491D03*
D03*
X17200Y27786D03*
D03*
X16870Y20462D03*
D03*
X20100Y19600D03*
D03*
X19500Y20487D03*
D03*
X15308Y22337D03*
D03*
X20150Y22961D03*
D03*
X20775Y27335D03*
D03*
X20150Y27960D03*
D03*
X17494Y29522D03*
D03*
X18275Y30459D03*
D03*
X16000Y32000D03*
D03*
X16600Y34800D03*
D03*
X18432Y32333D03*
D03*
X18290Y35450D03*
D03*
X17000Y36994D03*
D03*
X18275Y37488D03*
D03*
X22649Y17963D03*
D03*
X21399Y37957D03*
D03*
X24055Y37800D03*
D03*
X37000Y37976D03*
D03*
X34500D03*
D03*
X32000D03*
D03*
X26554Y37957D03*
D03*
X29053D03*
D03*
X20494Y20431D03*
D03*
X21712Y19837D03*
D03*
X26177Y17250D03*
D03*
X26720Y17750D03*
D03*
X24700Y20286D03*
D03*
X24200Y19770D03*
D03*
X23700Y20107D03*
D03*
X23200Y19770D03*
D03*
Y12822D03*
D03*
X39500Y36994D03*
D03*
X37000D03*
D03*
X34500D03*
D03*
X32000D03*
D03*
X29053Y37332D03*
D03*
X27000Y37622D03*
D03*
X24680Y37644D03*
D03*
X22180D03*
D03*
X25055Y30084D03*
D03*
X19500Y12999D03*
D03*
X17000D03*
D03*
X19500Y15489D03*
D03*
X17000Y15490D03*
D03*
Y17999D03*
D03*
X19525Y39675D03*
D03*
X18744D03*
D03*
X17963D03*
D03*
X22768Y39504D03*
D03*
X17000Y39494D03*
D03*
X39500D03*
D03*
G54D11*
X1093Y10407D03*
X10600Y10400D03*
X8000Y9600D03*
X8600D03*
X9200D03*
X9800D03*
X14900Y12300D03*
X11800Y4800D03*
X15000Y5300D03*
X14214Y2655D03*
X13746Y6876D03*
X13589Y7501D03*
X3600Y12000D03*
X1999Y12215D03*
X14500Y499D03*
X12000D03*
X9500D03*
X7000D03*
X4500D03*
X2000D03*
X14500Y4501D03*
X12000Y2999D03*
X9500D03*
X7000D03*
X4500D03*
X2000D03*
X14500Y5499D03*
X12000D03*
X9500D03*
X7000D03*
X4500D03*
X2000D03*
X14500Y9501D03*
X12000Y7999D03*
X9500D03*
X7000D03*
X4500D03*
X2000D03*
X14500Y10499D03*
X12000D03*
X9500D03*
X7000D03*
X4500D03*
X2000D03*
X1087Y18750D03*
X13746Y16401D03*
X10500Y19334D03*
X3743Y18750D03*
X6086D03*
X14995Y14712D03*
X8741Y18750D03*
X1908Y27770D03*
X13600Y14700D03*
X9400Y14600D03*
X6336Y14464D03*
X13500Y19700D03*
X13000Y23000D03*
X9400Y19600D03*
X6614Y34614D03*
X9714D03*
X13900Y34900D03*
X3214Y34614D03*
X3700Y29500D03*
X6400Y29600D03*
X9000Y29700D03*
X13800D03*
X13600Y27200D03*
X3638Y19462D03*
X6338D03*
X3736Y14464D03*
X13746Y35497D03*
X14370Y35301D03*
X14808Y30490D03*
X1087Y21250D03*
X11090Y24523D03*
X8591Y24055D03*
X14995Y19681D03*
X3593Y22493D03*
X11246Y26398D03*
X5500Y23114D03*
X13750Y34375D03*
X1875Y35000D03*
X6250Y37500D03*
X8750Y36875D03*
X12400Y35500D03*
X8279Y31999D03*
X5467D03*
X2499D03*
X11403D03*
X13750Y24750D03*
X13800Y23200D03*
X8500Y22500D03*
X11000Y22900D03*
X8700Y17000D03*
X6200D03*
X3464Y15464D03*
X10900Y17300D03*
X2000Y20100D03*
X5900Y22200D03*
X10600Y20100D03*
X8800Y20600D03*
X14214Y30416D03*
X13000Y32900D03*
X12184Y27960D03*
X1644Y25230D03*
X9060Y30334D03*
X12184D03*
X12014Y35114D03*
X9046D03*
X6079D03*
X3593D03*
Y30334D03*
X6404Y30303D03*
X12000Y20506D03*
X9500Y21994D03*
X7000D03*
X4500D03*
X2000D03*
X6542Y32628D03*
X14500Y20506D03*
X12000Y24340D03*
X9500Y23100D03*
X7000Y23006D03*
X4500D03*
X1256Y23750D03*
X3574Y32628D03*
X13700Y22000D03*
X8756Y26250D03*
X6256D03*
X3756D03*
X1256D03*
X12000Y26995D03*
X13754Y26250D03*
X4500Y29494D03*
X1256Y28750D03*
X5936Y32958D03*
X7000Y29494D03*
X9500D03*
X12000D03*
X13746Y27960D03*
X13800Y32000D03*
X12000Y31994D03*
X4500Y31835D03*
X1256Y31250D03*
X8903Y32958D03*
X7000Y32148D03*
X13600Y33000D03*
X8756Y33750D03*
X6256D03*
X3756D03*
X1256D03*
X12000Y32986D03*
X11246Y32958D03*
X14500Y36994D03*
X12000D03*
X9500D03*
X7000D03*
X4500D03*
X2000D03*
X11200Y13200D03*
X8903Y14964D03*
X12340D03*
X11715Y19962D03*
X8747D03*
X5936D03*
X3124D03*
X3905Y14964D03*
X6717D03*
X6248Y15464D03*
X1874Y14839D03*
X3749Y20462D03*
X6560D03*
X9372D03*
X14500Y12999D03*
X12000D03*
X9500D03*
X7000D03*
X4500D03*
X2000D03*
X11200Y18200D03*
X12000Y17001D03*
X9500D03*
X14500Y15490D03*
X4500Y17001D03*
X2000Y15499D03*
X7000Y17001D03*
X14500Y17999D03*
X12000D03*
X9500D03*
X7000D03*
X4500D03*
X2000D03*
X9216Y15464D03*
X1317Y61956D03*
X14500Y39494D03*
X12000D03*
X9500D03*
X7000D03*
X4500D03*
X2000D03*
X22493Y9841D03*
X21243Y10465D03*
X16245Y12496D03*
X24200Y12195D03*
X21700Y2667D03*
X23118Y4530D03*
X21804Y4750D03*
X16200Y6900D03*
X33766Y5500D03*
X36466D03*
X32800Y7000D03*
X37000Y7100D03*
X32512Y2032D03*
X36830Y2159D03*
X30597Y403D03*
X27000Y2000D03*
X27600Y5200D03*
X30100Y5300D03*
X32568Y2968D03*
X35132D03*
X32566Y7966D03*
X35266D03*
X28600Y4500D03*
X24300Y7100D03*
X19100Y5000D03*
X19600D03*
X20100D03*
X19100Y5500D03*
X19600D03*
X20100D03*
X19100Y7000D03*
X19600D03*
X20200D03*
X25068Y2968D03*
X25900Y7000D03*
X28900D03*
X38581Y12340D03*
X19700Y7829D03*
X28800Y12200D03*
X28803Y9997D03*
X20618Y2031D03*
X29522Y2468D03*
X23177Y7250D03*
X26398Y2468D03*
X23720Y7750D03*
X26554Y7466D03*
X22024Y9528D03*
X29366Y7466D03*
X21200Y9770D03*
X32177Y7466D03*
X20700Y10235D03*
X34989Y7466D03*
X20200Y9790D03*
X34833Y2468D03*
X19700Y2478D03*
X32177Y2468D03*
X20200Y2822D03*
X39500Y499D03*
X37000D03*
X34500D03*
X32000D03*
X29500D03*
X24500D03*
X22000D03*
X27023Y312D03*
X22337Y2655D03*
X24500Y2999D03*
X27000D03*
X29500D03*
X39500D03*
X37000D03*
X34052Y4998D03*
X31240Y5000D03*
X26242Y4530D03*
X23118Y5155D03*
X29500Y5499D03*
X27000D03*
X24500D03*
X32500Y5400D03*
X37000Y5499D03*
X39500D03*
X34440Y4540D03*
X30300Y7999D03*
X37000D03*
X39500D03*
X23274Y9684D03*
X27000Y7999D03*
X24500D03*
X34500Y8100D03*
X21712Y10153D03*
X39500Y10499D03*
X37000D03*
X34500D03*
X32000D03*
X29500D03*
X27000D03*
X24500D03*
X30600Y7300D03*
X27179Y4686D03*
X29834D03*
X28585Y781D03*
X33739Y937D03*
X16245Y11871D03*
X38580Y3750D03*
X19985Y12643D03*
X21243Y625D03*
X19056Y12652D03*
X31174Y715D03*
X23699Y10153D03*
X23742Y1098D03*
X23700Y12538D03*
X22649Y12496D03*
X20462Y469D03*
X17000Y2000D03*
Y2999D03*
X18744Y2655D03*
X16245Y5467D03*
X19681Y9528D03*
X17000Y9501D03*
X19500Y12184D03*
X17000Y10499D03*
X21087Y22180D03*
X32490Y30185D03*
X16245Y16557D03*
X35145Y30029D03*
X26554Y35114D03*
X20150Y37488D03*
X29366Y35114D03*
X20462Y37957D03*
X18739Y16250D03*
X22493Y22961D03*
X32177Y35114D03*
X23900Y35500D03*
X27172Y30154D03*
X29522Y30185D03*
X23742Y33114D03*
X33739Y33739D03*
X21712Y34676D03*
X24500Y32646D03*
X27000Y32802D03*
X37000Y34494D03*
X39500D03*
X29834Y34676D03*
X32000Y32979D03*
X16084Y13750D03*
X21399Y22961D03*
X37332Y30459D03*
X39500Y24494D03*
X37000Y23006D03*
X34500D03*
X32000D03*
X29500D03*
X27000Y24494D03*
X24500D03*
X22000D03*
X39500Y29494D03*
X31400Y37600D03*
X37000Y29494D03*
X34500D03*
X32000D03*
X29500D03*
X27000D03*
X24500D03*
X22000D03*
X21712Y32333D03*
X24500Y31994D03*
X27000D03*
X29500D03*
X32000D03*
X34500D03*
X37000D03*
X39500D03*
X32646Y34676D03*
X31280Y27770D03*
X20700Y32103D03*
X18200Y20381D03*
X20931Y30459D03*
X18700Y20662D03*
X22180Y30303D03*
X24700Y12673D03*
X34430Y25230D03*
X19994Y22180D03*
X23190Y32250D03*
X26242Y14683D03*
X29000Y28000D03*
X19700Y37157D03*
X27000Y15000D03*
X18619Y15308D03*
X31275Y34100D03*
X36220Y34220D03*
X36700Y30100D03*
X33500Y29500D03*
X27600Y29800D03*
X30000D03*
X37000Y27400D03*
X36200D03*
X37000Y28000D03*
X36200D03*
X26600D03*
X18300Y34600D03*
X18200Y33000D03*
X21712Y32898D03*
X26100Y33000D03*
X38738Y14838D03*
X20931Y29834D03*
X19525Y27960D03*
X31240Y29678D03*
X22000Y22625D03*
X39500Y21994D03*
X37000Y20506D03*
X34500D03*
X32000D03*
X29500D03*
X27000Y21994D03*
X24500D03*
X38000Y37957D03*
X35500D03*
X33000D03*
X30500D03*
X27023Y35457D03*
X24992Y35145D03*
X23250Y32826D03*
X18744Y28428D03*
X16000Y17700D03*
X16245Y30459D03*
X19681Y27179D03*
X17338Y30303D03*
X21300Y24700D03*
X21900Y15500D03*
X22400D03*
X21900Y15000D03*
X22400D03*
X23500Y15500D03*
Y15000D03*
X28741Y36395D03*
X31084Y32490D03*
X26242Y31865D03*
X33739Y36395D03*
X31240Y36238D03*
X26242Y36395D03*
X28741Y31709D03*
X33739D03*
X23300Y34500D03*
X20900Y33000D03*
X20600Y34500D03*
Y35000D03*
X19100Y33000D03*
X20100Y34500D03*
X19600D03*
X19100D03*
X20100Y35000D03*
X19600D03*
X19100D03*
X16600Y25000D03*
X16000D03*
X17200D03*
X16000Y24500D03*
X16600D03*
X17200D03*
X16000Y23000D03*
X17200D03*
X16400Y15100D03*
X39500Y26994D03*
X36247Y26250D03*
X33748D03*
X31248D03*
X27000Y26994D03*
X24500D03*
X22000D03*
X28585Y25304D03*
X27179Y34520D03*
X21087Y12808D03*
X25148Y12965D03*
X27000Y12999D03*
X29500D03*
X32000D03*
X34500D03*
X37000D03*
X39500D03*
X28000Y15400D03*
X29500Y15499D03*
X32000D03*
X34500D03*
X37000D03*
X39500D03*
X21248Y16250D03*
X26398Y15308D03*
X22649Y19681D03*
X26242Y19994D03*
X39362Y18119D03*
X37000Y17999D03*
X34500D03*
X32000D03*
X29500D03*
X16557Y27804D03*
X17700Y20100D03*
X37176Y17182D03*
X35500Y19600D03*
X20150Y24836D03*
Y25461D03*
X18888Y27179D03*
X18432Y27647D03*
X17651Y27491D03*
X17200Y27786D03*
X16870Y20462D03*
X20100Y19600D03*
X19500Y20487D03*
X15308Y22337D03*
X20150Y22961D03*
X20775Y27335D03*
X20150Y27960D03*
X17494Y29522D03*
X18275Y30459D03*
X16000Y32000D03*
X16600Y34800D03*
X18432Y32333D03*
X18290Y35450D03*
X17000Y36994D03*
X18275Y37488D03*
X22649Y17963D03*
X21399Y37957D03*
X24055Y37800D03*
X37000Y37976D03*
X34500D03*
X32000D03*
X26554Y37957D03*
X29053D03*
X20494Y20431D03*
X21712Y19837D03*
X26177Y17250D03*
X26720Y17750D03*
X24700Y20286D03*
X24200Y19770D03*
X23700Y20107D03*
X23200Y19770D03*
Y12822D03*
X39500Y36994D03*
X37000D03*
X34500D03*
X32000D03*
X29053Y37332D03*
X27000Y37622D03*
X24680Y37644D03*
X22180D03*
X25055Y30084D03*
X19500Y12999D03*
X17000D03*
X19500Y15489D03*
X17000Y15490D03*
Y17999D03*
X19525Y39675D03*
X18744D03*
X17963D03*
X22768Y39504D03*
X17000Y39494D03*
X39500D03*
G54D12*
G01X40000Y40000D02*
X0D01*
Y0D01*
X40000D01*
Y40000D01*
G01X0Y-1400D02*
X-2400D01*
G01X-1200Y-2600D02*
Y-200D01*
G01X-500Y-1400D02*
G03I-700J0D01*
G01X-200Y-1300D02*
G03I-1000J-100D01*
G01X-10100Y58388D02*
Y86300D01*
X112734D01*
Y58388D01*
X-10100D01*
G01X-1700Y41300D02*
G03I-1000J-100D01*
G01X-2000Y41200D02*
G03I-700J0D01*
G01X-2700Y40000D02*
Y42400D01*
G01X-1500Y41200D02*
X-3900D01*
G01X12735Y72663D02*
Y58388D01*
G01X15276Y41538D02*
Y44712D01*
X14803Y44078D01*
G01Y41538D02*
X15748D01*
G01X18425Y41432D02*
X18346Y41485D01*
Y41590D01*
X18425Y41643D01*
X18504Y41590D01*
Y41485D01*
X18425Y41432D01*
G01X20709Y42014D02*
X20945Y41749D01*
X21220Y41590D01*
X21575Y41538D01*
X21929Y41643D01*
X22205Y41855D01*
X22402Y42225D01*
X22441Y42649D01*
X22362Y43072D01*
X22165Y43337D01*
X21890Y43548D01*
X21614Y43601D01*
X21339Y43548D01*
X20984Y43337D01*
X21102Y44712D01*
X22165D01*
G01X24646Y41538D02*
X24724Y42225D01*
X24842Y42807D01*
X25000Y43337D01*
X25197Y43919D01*
X25512Y44712D01*
X23937D01*
G01X0Y42540D02*
Y45665D01*
G01X11713Y43125D02*
X0D01*
G01X3810Y43760D02*
X0Y43125D01*
X3810Y42490D01*
Y43760D01*
G01X11081Y81538D02*
Y84712D01*
X11868D01*
X12183Y84554D01*
X12420Y84342D01*
X12616Y84025D01*
X12774Y83654D01*
X12813Y83125D01*
X12774Y82596D01*
X12616Y82225D01*
X12420Y81908D01*
X12183Y81696D01*
X11868Y81538D01*
X11081D01*
G01X14309D02*
Y84712D01*
X15294D01*
X15609Y84554D01*
X15806Y84342D01*
X15884Y83919D01*
X15806Y83495D01*
X15569Y83231D01*
X15294Y83072D01*
X14309D01*
G01X15294D02*
X15884Y81538D01*
G01X17774Y84712D02*
X18719D01*
G01X18246D02*
Y81538D01*
G01X17774D02*
X18719D01*
G01X20609Y84712D02*
Y81538D01*
X22183D01*
G01X23758Y84712D02*
Y81538D01*
X25333D01*
G01X31711Y84448D02*
X31475Y84607D01*
X31199Y84712D01*
X30884D01*
X30530Y84554D01*
X30254Y84289D01*
X30057Y83972D01*
X29900Y83442D01*
X29860Y82966D01*
X29939Y82490D01*
X30057Y82172D01*
X30294Y81855D01*
X30569Y81643D01*
X30845Y81538D01*
X31120D01*
X31396Y81643D01*
X31632Y81802D01*
X31829Y82014D01*
G01X33168Y81538D02*
Y84712D01*
G01X34821D02*
Y81538D01*
G01Y83125D02*
X33168D01*
G01X36160Y81538D02*
X37144Y84712D01*
X38128Y81538D01*
G01X37774Y82649D02*
X36514D01*
G01X39506Y81538D02*
Y84712D01*
X40490D01*
X40805Y84554D01*
X41002Y84342D01*
X41081Y83919D01*
X41002Y83495D01*
X40766Y83231D01*
X40490Y83072D01*
X39506D01*
G01X40490D02*
X41081Y81538D01*
G01X43443Y84712D02*
Y81538D01*
G01X42538Y84712D02*
X44349D01*
G01X46593Y81432D02*
X46514Y81485D01*
Y81590D01*
X46593Y81643D01*
X46672Y81590D01*
Y81485D01*
X46593Y81432D01*
G01Y82860D02*
X46514Y82913D01*
Y83019D01*
X46593Y83072D01*
X46672Y83019D01*
Y82913D01*
X46593Y82860D01*
G01X52892Y84712D02*
Y81538D01*
G01X51986Y84712D02*
X53798D01*
G01X56042Y81538D02*
X55727Y81590D01*
X55451Y81802D01*
X55215Y82120D01*
X55057Y82490D01*
X54979Y82913D01*
Y83337D01*
X55057Y83760D01*
X55215Y84130D01*
X55451Y84448D01*
X55727Y84660D01*
X56042Y84712D01*
X56356Y84660D01*
X56632Y84448D01*
X56868Y84130D01*
X57026Y83760D01*
X57105Y83337D01*
Y82913D01*
X57026Y82490D01*
X56868Y82120D01*
X56632Y81802D01*
X56356Y81590D01*
X56042Y81538D01*
G01X58404D02*
Y84712D01*
X59349D01*
X59664Y84554D01*
X59900Y84183D01*
X59979Y83760D01*
X59900Y83337D01*
X59703Y83019D01*
X59349Y82860D01*
X58404D01*
G01X65490Y84712D02*
Y81538D01*
G01X64939Y83654D02*
X66042D01*
G01X68640Y81538D02*
X68404Y81590D01*
X68168Y81802D01*
X68010Y82172D01*
X67931Y82596D01*
X68010Y83019D01*
X68168Y83390D01*
X68404Y83601D01*
X68640Y83654D01*
X68876Y83601D01*
X69112Y83390D01*
X69270Y83019D01*
X69309Y82596D01*
X69270Y82172D01*
X69112Y81802D01*
X68876Y81590D01*
X68640Y81538D01*
G01X75254Y83231D02*
X75412Y83390D01*
X75530Y83654D01*
X75608Y84025D01*
X75530Y84342D01*
X75372Y84554D01*
X75097Y84712D01*
X74034D01*
Y81538D01*
X75333D01*
X75608Y81749D01*
X75766Y82067D01*
X75845Y82437D01*
X75766Y82807D01*
X75530Y83125D01*
X75254Y83231D01*
X74034D01*
G01X78089Y81538D02*
X77774Y81590D01*
X77498Y81802D01*
X77262Y82120D01*
X77104Y82490D01*
X77026Y82913D01*
Y83337D01*
X77104Y83760D01*
X77262Y84130D01*
X77498Y84448D01*
X77774Y84660D01*
X78089Y84712D01*
X78404Y84660D01*
X78679Y84448D01*
X78916Y84130D01*
X79073Y83760D01*
X79152Y83337D01*
Y82913D01*
X79073Y82490D01*
X78916Y82120D01*
X78679Y81802D01*
X78404Y81590D01*
X78089Y81538D01*
G01X81238Y84712D02*
Y81538D01*
G01X80333Y84712D02*
X82144D01*
G01X84388D02*
Y81538D01*
G01X83482Y84712D02*
X85294D01*
G01X87538Y81538D02*
X87223Y81590D01*
X86947Y81802D01*
X86711Y82120D01*
X86553Y82490D01*
X86475Y82913D01*
Y83337D01*
X86553Y83760D01*
X86711Y84130D01*
X86947Y84448D01*
X87223Y84660D01*
X87538Y84712D01*
X87852Y84660D01*
X88128Y84448D01*
X88364Y84130D01*
X88522Y83760D01*
X88601Y83337D01*
Y82913D01*
X88522Y82490D01*
X88364Y82120D01*
X88128Y81802D01*
X87852Y81590D01*
X87538Y81538D01*
G01X89664D02*
Y84712D01*
X90687Y82067D01*
X91711Y84712D01*
Y81538D01*
G01X7813Y75038D02*
X8798Y78212D01*
X9782Y75038D01*
G01X9428Y76149D02*
X8168D01*
G01X11160Y78212D02*
Y75038D01*
X12735D01*
G01X14309Y78212D02*
Y75038D01*
X15884D01*
G01X20530Y78212D02*
Y75937D01*
X20687Y75461D01*
X21002Y75143D01*
X21396Y75038D01*
X21790Y75143D01*
X22105Y75461D01*
X22262Y75937D01*
Y78212D01*
G01X23640Y75038D02*
Y78212D01*
X25451Y75038D01*
Y78212D01*
G01X27223D02*
X28168D01*
G01X27695D02*
Y75038D01*
G01X27223D02*
X28168D01*
G01X30845Y78212D02*
Y75038D01*
G01X29939Y78212D02*
X31750D01*
G01X33168Y75461D02*
X33483Y75196D01*
X33837Y75038D01*
X34152D01*
X34467Y75196D01*
X34703Y75461D01*
X34821Y75831D01*
X34742Y76202D01*
X34546Y76519D01*
X34191Y76731D01*
X33719Y76837D01*
X33443Y77048D01*
X33325Y77419D01*
X33404Y77789D01*
X33601Y78054D01*
X33876Y78212D01*
X34152D01*
X34428Y78107D01*
X34664Y77842D01*
G01X39309Y75038D02*
X40294Y78212D01*
X41278Y75038D01*
G01X40924Y76149D02*
X39664D01*
G01X42656Y75038D02*
Y78212D01*
X43640D01*
X43955Y78054D01*
X44152Y77842D01*
X44231Y77419D01*
X44152Y76995D01*
X43916Y76731D01*
X43640Y76572D01*
X42656D01*
G01X43640D02*
X44231Y75038D01*
G01X47380D02*
X45805D01*
Y78212D01*
X47380D01*
G01X46750Y76678D02*
X45805D01*
G01X52420Y78212D02*
X53364D01*
G01X52892D02*
Y75038D01*
G01X52420D02*
X53364D01*
G01X55136D02*
Y78212D01*
X56947Y75038D01*
Y78212D01*
G01X61317Y75038D02*
Y78212D01*
X62341Y75567D01*
X63364Y78212D01*
Y75038D01*
G01X65018Y78212D02*
X65963D01*
G01X65490D02*
Y75038D01*
G01X65018D02*
X65963D01*
G01X67853Y78212D02*
Y75038D01*
X69427D01*
G01X71002Y78212D02*
Y75038D01*
X72577D01*
G01X74467Y78212D02*
X75412D01*
G01X74939D02*
Y75038D01*
G01X74467D02*
X75412D01*
G01X77065D02*
Y78212D01*
X78089Y75567D01*
X79112Y78212D01*
Y75038D01*
G01X82026D02*
X80451D01*
Y78212D01*
X82026D01*
G01X81396Y76678D02*
X80451D01*
G01X84388Y78212D02*
Y75038D01*
G01X83482Y78212D02*
X85294D01*
G01X88325Y75038D02*
X86750D01*
Y78212D01*
X88325D01*
G01X87695Y76678D02*
X86750D01*
G01X89900Y75038D02*
Y78212D01*
X90884D01*
X91199Y78054D01*
X91396Y77842D01*
X91475Y77419D01*
X91396Y76995D01*
X91160Y76731D01*
X90884Y76572D01*
X89900D01*
G01X90884D02*
X91475Y75038D01*
G01X93010Y75461D02*
X93325Y75196D01*
X93679Y75038D01*
X93994D01*
X94309Y75196D01*
X94546Y75461D01*
X94664Y75831D01*
X94585Y76202D01*
X94388Y76519D01*
X94034Y76731D01*
X93561Y76837D01*
X93286Y77048D01*
X93168Y77419D01*
X93246Y77789D01*
X93443Y78054D01*
X93719Y78212D01*
X93994D01*
X94270Y78107D01*
X94506Y77842D01*
G01X-7305Y67900D02*
Y71075D01*
X-5809D01*
G01X-6360Y69541D02*
X-7305D01*
G01X-3880Y71075D02*
X-2935D01*
G01X-3407D02*
Y67900D01*
G01X-3880D02*
X-2935D01*
G01X-21Y69488D02*
X766D01*
Y68535D01*
X530Y68218D01*
X254Y68006D01*
X-139Y67900D01*
X-533Y68006D01*
X-809Y68218D01*
X-1045Y68535D01*
X-1202Y68906D01*
X-1281Y69329D01*
Y69699D01*
X-1202Y70017D01*
X-1045Y70387D01*
X-809Y70705D01*
X-572Y70916D01*
X-258Y71075D01*
X18D01*
X333Y70969D01*
X569Y70758D01*
G01X2026Y71075D02*
Y68800D01*
X2183Y68323D01*
X2498Y68006D01*
X2892Y67900D01*
X3286Y68006D01*
X3601Y68323D01*
X3758Y68800D01*
Y71075D01*
G01X5254Y67900D02*
Y71075D01*
X6238D01*
X6554Y70916D01*
X6750Y70705D01*
X6829Y70281D01*
X6750Y69858D01*
X6514Y69594D01*
X6238Y69435D01*
X5254D01*
G01X6238D02*
X6829Y67900D01*
G01X9979D02*
X8404D01*
Y71075D01*
X9979D01*
G01X9349Y69541D02*
X8404D01*
G01X-10100Y79800D02*
X112734D01*
G01X-10100Y72663D02*
X112734D01*
G01X-10100Y65525D02*
X112734D01*
G01X42300Y-1300D02*
X39900D01*
G01X42100Y-1200D02*
G03I-1000J-100D01*
G01X33601Y63544D02*
X33286Y63438D01*
X33050Y63174D01*
X32892Y62856D01*
X32774Y62433D01*
X32735Y61956D01*
X32774Y61480D01*
X32892Y61057D01*
X33050Y60739D01*
X33286Y60475D01*
X33601Y60369D01*
X33916Y60475D01*
X34152Y60739D01*
X34309Y61057D01*
X34428Y61480D01*
X34467Y61956D01*
X34428Y62433D01*
X34309Y62856D01*
X34152Y63174D01*
X33916Y63438D01*
X33601Y63544D01*
G01X36750Y60263D02*
X36672Y60316D01*
Y60422D01*
X36750Y60475D01*
X36829Y60422D01*
Y60316D01*
X36750Y60263D01*
G01X39152Y63015D02*
X39388Y63332D01*
X39664Y63491D01*
X39979Y63544D01*
X40372Y63438D01*
X40648Y63174D01*
X40727Y62856D01*
X40687Y62538D01*
X40530Y62274D01*
X39742Y61745D01*
X39388Y61374D01*
X39152Y60845D01*
X39073Y60369D01*
X40727D01*
G01X40000Y42540D02*
Y45665D01*
G01X28287Y43125D02*
X40000D01*
G01X36190Y42490D02*
X40000Y43125D01*
X36190Y43760D01*
Y42490D01*
G01X31199Y68323D02*
X31514Y68059D01*
X31868Y67900D01*
X32183D01*
X32498Y68059D01*
X32735Y68323D01*
X32853Y68694D01*
X32774Y69064D01*
X32577Y69382D01*
X32223Y69594D01*
X31750Y69699D01*
X31475Y69911D01*
X31357Y70281D01*
X31435Y70652D01*
X31632Y70916D01*
X31908Y71075D01*
X32183D01*
X32459Y70969D01*
X32695Y70705D01*
G01X34703Y71075D02*
X35648D01*
G01X35176D02*
Y67900D01*
G01X34703D02*
X35648D01*
G01X37577Y71075D02*
X39073D01*
X37577Y67900D01*
X39073D01*
G01X42262D02*
X40687D01*
Y71075D01*
X42262D01*
G01X41632Y69541D02*
X40687D01*
G01X41100Y-2500D02*
Y-100D01*
G01X41800Y-1300D02*
G03I-700J0D01*
G01X42540Y0D02*
X54415D01*
G01X51875Y16031D02*
Y0D01*
G01X51240Y3810D02*
X51875Y0D01*
X52510Y3810D01*
X51240D01*
G01X47151Y18412D02*
Y21588D01*
X46678Y20952D01*
G01Y18412D02*
X47623D01*
G01X50300Y18307D02*
X50221Y18360D01*
Y18465D01*
X50300Y18518D01*
X50379Y18465D01*
Y18360D01*
X50300Y18307D01*
G01X52584Y18889D02*
X52820Y18624D01*
X53095Y18465D01*
X53450Y18412D01*
X53804Y18518D01*
X54080Y18730D01*
X54277Y19100D01*
X54316Y19524D01*
X54237Y19947D01*
X54040Y20212D01*
X53765Y20423D01*
X53489Y20476D01*
X53214Y20423D01*
X52859Y20212D01*
X52977Y21588D01*
X54040D01*
G01X56521Y18412D02*
X56599Y19100D01*
X56718Y19682D01*
X56875Y20212D01*
X57072Y20794D01*
X57387Y21588D01*
X55812D01*
G01X51875Y23969D02*
Y40000D01*
G01X52510Y36190D02*
X51875Y40000D01*
X51240Y36190D01*
X52510D01*
G01X42900Y41300D02*
X40500D01*
G01X41700Y40100D02*
Y42500D01*
G01X42400Y41300D02*
G03I-700J0D01*
G01X42700Y41400D02*
G03I-1000J-100D01*
G01X60766Y72663D02*
Y58388D01*
G01X42540Y40000D02*
X54415D01*
G01X81866Y9395D02*
Y8760D01*
X82138D01*
G01X82412Y8855D02*
X82452Y8802D01*
X82500Y8770D01*
X82561Y8760D01*
X82622Y8781D01*
X82669Y8823D01*
X82703Y8897D01*
X82710Y8982D01*
X82696Y9066D01*
X82662Y9119D01*
X82615Y9162D01*
X82568Y9172D01*
X82520Y9162D01*
X82459Y9119D01*
X82480Y9395D01*
X82662D01*
G01X83120Y8738D02*
X83106Y8749D01*
Y8770D01*
X83120Y8781D01*
X83133Y8770D01*
Y8749D01*
X83120Y8738D01*
G01Y9024D02*
X83106Y9035D01*
Y9056D01*
X83120Y9066D01*
X83133Y9056D01*
Y9035D01*
X83120Y9024D01*
G01X84102Y8760D02*
Y9395D01*
X84264D01*
X84318Y9363D01*
X84359Y9289D01*
X84373Y9204D01*
X84359Y9119D01*
X84325Y9056D01*
X84264Y9024D01*
X84102D01*
G01X84593Y9395D02*
X84688Y8760D01*
X84796Y9395D01*
X84904Y8760D01*
X84999Y9395D01*
G01X85219Y8760D02*
Y9395D01*
X85389D01*
X85443Y9363D01*
X85477Y9320D01*
X85490Y9236D01*
X85477Y9151D01*
X85436Y9098D01*
X85389Y9066D01*
X85219D01*
G01X85389D02*
X85490Y8760D01*
G01X86621Y9342D02*
X86581Y9373D01*
X86533Y9395D01*
X86479D01*
X86418Y9363D01*
X86371Y9310D01*
X86337Y9246D01*
X86310Y9141D01*
X86303Y9045D01*
X86317Y8950D01*
X86337Y8887D01*
X86378Y8823D01*
X86425Y8781D01*
X86472Y8760D01*
X86520D01*
X86567Y8781D01*
X86608Y8812D01*
X86642Y8855D01*
G01X87031Y8760D02*
X86977Y8770D01*
X86930Y8812D01*
X86889Y8876D01*
X86862Y8950D01*
X86848Y9035D01*
Y9119D01*
X86862Y9204D01*
X86889Y9278D01*
X86930Y9342D01*
X86977Y9384D01*
X87031Y9395D01*
X87085Y9384D01*
X87133Y9342D01*
X87173Y9278D01*
X87200Y9204D01*
X87214Y9119D01*
Y9035D01*
X87200Y8950D01*
X87173Y8876D01*
X87133Y8812D01*
X87085Y8770D01*
X87031Y8760D01*
G01X87434D02*
Y9395D01*
X87746Y8760D01*
Y9395D01*
G01X88000Y8760D02*
Y9395D01*
X88135D01*
X88189Y9363D01*
X88230Y9320D01*
X88264Y9257D01*
X88291Y9183D01*
X88298Y9077D01*
X88291Y8971D01*
X88264Y8897D01*
X88230Y8834D01*
X88189Y8791D01*
X88135Y8760D01*
X88000D01*
G01X88559Y9395D02*
Y8940D01*
X88586Y8844D01*
X88640Y8781D01*
X88708Y8760D01*
X88775Y8781D01*
X88830Y8844D01*
X88857Y8940D01*
Y9395D01*
G01X89415Y9342D02*
X89375Y9373D01*
X89327Y9395D01*
X89273D01*
X89212Y9363D01*
X89165Y9310D01*
X89131Y9246D01*
X89104Y9141D01*
X89097Y9045D01*
X89111Y8950D01*
X89131Y8887D01*
X89172Y8823D01*
X89219Y8781D01*
X89266Y8760D01*
X89314D01*
X89361Y8781D01*
X89402Y8812D01*
X89436Y8855D01*
G01X89825Y9395D02*
Y8760D01*
G01X89669Y9395D02*
X89981D01*
G01X90384Y8760D02*
X90330Y8770D01*
X90282Y8812D01*
X90242Y8876D01*
X90215Y8950D01*
X90201Y9035D01*
Y9119D01*
X90215Y9204D01*
X90242Y9278D01*
X90282Y9342D01*
X90330Y9384D01*
X90384Y9395D01*
X90438Y9384D01*
X90486Y9342D01*
X90526Y9278D01*
X90553Y9204D01*
X90567Y9119D01*
Y9035D01*
X90553Y8950D01*
X90526Y8876D01*
X90486Y8812D01*
X90438Y8770D01*
X90384Y8760D01*
G01X90807D02*
Y9395D01*
X90977D01*
X91031Y9363D01*
X91065Y9320D01*
X91078Y9236D01*
X91065Y9151D01*
X91024Y9098D01*
X90977Y9066D01*
X90807D01*
G01X90977D02*
X91078Y8760D01*
G01X91972Y8971D02*
X92148D01*
G01X93327Y9342D02*
X93286Y9373D01*
X93239Y9395D01*
X93185D01*
X93124Y9363D01*
X93076Y9310D01*
X93042Y9246D01*
X93015Y9141D01*
X93009Y9045D01*
X93022Y8950D01*
X93042Y8887D01*
X93083Y8823D01*
X93131Y8781D01*
X93178Y8760D01*
X93225D01*
X93273Y8781D01*
X93314Y8812D01*
X93347Y8855D01*
G01X93737Y8760D02*
X93683Y8770D01*
X93635Y8812D01*
X93595Y8876D01*
X93568Y8950D01*
X93554Y9035D01*
Y9119D01*
X93568Y9204D01*
X93595Y9278D01*
X93635Y9342D01*
X93683Y9384D01*
X93737Y9395D01*
X93791Y9384D01*
X93838Y9342D01*
X93879Y9278D01*
X93906Y9204D01*
X93920Y9119D01*
Y9035D01*
X93906Y8950D01*
X93879Y8876D01*
X93838Y8812D01*
X93791Y8770D01*
X93737Y8760D01*
G01X94160D02*
Y9395D01*
X94323D01*
X94377Y9363D01*
X94418Y9289D01*
X94431Y9204D01*
X94418Y9119D01*
X94384Y9056D01*
X94323Y9024D01*
X94160D01*
G01X94719Y8760D02*
Y9395D01*
X94882D01*
X94936Y9363D01*
X94976Y9289D01*
X94990Y9204D01*
X94976Y9119D01*
X94942Y9056D01*
X94882Y9024D01*
X94719D01*
G01X95549Y8760D02*
X95278D01*
Y9395D01*
X95549D01*
G01X95440Y9088D02*
X95278D01*
G01X95836Y8760D02*
Y9395D01*
X96006D01*
X96060Y9363D01*
X96094Y9320D01*
X96108Y9236D01*
X96094Y9151D01*
X96053Y9098D01*
X96006Y9066D01*
X95836D01*
G01X96006D02*
X96108Y8760D01*
G01X97090Y9395D02*
X97035Y9373D01*
X96995Y9320D01*
X96968Y9257D01*
X96947Y9172D01*
X96941Y9077D01*
X96947Y8982D01*
X96968Y8897D01*
X96995Y8834D01*
X97035Y8781D01*
X97090Y8760D01*
X97144Y8781D01*
X97184Y8834D01*
X97212Y8897D01*
X97232Y8982D01*
X97239Y9077D01*
X97232Y9172D01*
X97212Y9257D01*
X97184Y9320D01*
X97144Y9373D01*
X97090Y9395D01*
G01X97648Y8738D02*
X97635Y8749D01*
Y8770D01*
X97648Y8781D01*
X97662Y8770D01*
Y8749D01*
X97648Y8738D01*
G01X98207Y9395D02*
X98153Y9373D01*
X98112Y9320D01*
X98085Y9257D01*
X98065Y9172D01*
X98058Y9077D01*
X98065Y8982D01*
X98085Y8897D01*
X98112Y8834D01*
X98153Y8781D01*
X98207Y8760D01*
X98261Y8781D01*
X98302Y8834D01*
X98329Y8897D01*
X98349Y8982D01*
X98356Y9077D01*
X98349Y9172D01*
X98329Y9257D01*
X98302Y9320D01*
X98261Y9373D01*
X98207Y9395D01*
G01X98617Y8887D02*
X98658Y8812D01*
X98712Y8770D01*
X98773Y8760D01*
X98827Y8770D01*
X98881Y8823D01*
X98915Y8887D01*
X98922Y8950D01*
X98908Y9024D01*
X98861Y9077D01*
X98813Y9098D01*
X98752D01*
G01X98813D02*
X98854Y9130D01*
X98888Y9183D01*
X98902Y9246D01*
X98888Y9310D01*
X98854Y9363D01*
X98793Y9395D01*
X98732Y9384D01*
X98671Y9342D01*
G01X99325Y9395D02*
X99271Y9373D01*
X99230Y9320D01*
X99203Y9257D01*
X99183Y9172D01*
X99176Y9077D01*
X99183Y8982D01*
X99203Y8897D01*
X99230Y8834D01*
X99271Y8781D01*
X99325Y8760D01*
X99379Y8781D01*
X99420Y8834D01*
X99447Y8897D01*
X99467Y8982D01*
X99474Y9077D01*
X99467Y9172D01*
X99447Y9257D01*
X99420Y9320D01*
X99379Y9373D01*
X99325Y9395D01*
G01X99735Y8855D02*
X99775Y8802D01*
X99823Y8770D01*
X99884Y8760D01*
X99945Y8781D01*
X99992Y8823D01*
X100026Y8897D01*
X100033Y8982D01*
X100019Y9066D01*
X99985Y9119D01*
X99938Y9162D01*
X99890Y9172D01*
X99843Y9162D01*
X99782Y9119D01*
X99802Y9395D01*
X99985D01*
G01X100825Y8760D02*
Y9395D01*
X101001Y8865D01*
X101177Y9395D01*
Y8760D01*
G01X101384D02*
Y9395D01*
X101560Y8865D01*
X101736Y9395D01*
Y8760D01*
G01X82971Y4037D02*
X83269Y4502D01*
G01X83120Y4587D02*
Y3952D01*
G01X83269Y4037D02*
X82971Y4502D01*
G01X82916Y4270D02*
X83323D01*
G01X84647Y4058D02*
Y4693D01*
X84782D01*
X84837Y4661D01*
X84877Y4619D01*
X84911Y4555D01*
X84938Y4481D01*
X84945Y4376D01*
X84938Y4270D01*
X84911Y4196D01*
X84877Y4132D01*
X84837Y4090D01*
X84782Y4058D01*
X84647D01*
G01X85274Y4693D02*
X85436D01*
G01X85355D02*
Y4058D01*
G01X85274D02*
X85436D01*
G01X86049D02*
X85778D01*
Y4693D01*
X86049D01*
G01X85941Y4386D02*
X85778D01*
G01X86337Y4693D02*
Y4058D01*
X86608D01*
G01X87167D02*
X86896D01*
Y4693D01*
X87167D01*
G01X87058Y4386D02*
X86896D01*
G01X87739Y4640D02*
X87698Y4672D01*
X87651Y4693D01*
X87597D01*
X87536Y4661D01*
X87488Y4608D01*
X87454Y4545D01*
X87427Y4439D01*
X87421Y4344D01*
X87434Y4248D01*
X87454Y4185D01*
X87495Y4122D01*
X87543Y4079D01*
X87590Y4058D01*
X87637D01*
X87685Y4079D01*
X87726Y4111D01*
X87759Y4153D01*
G01X88149Y4693D02*
Y4058D01*
G01X87993Y4693D02*
X88305D01*
G01X88572Y4058D02*
Y4693D01*
X88742D01*
X88796Y4661D01*
X88830Y4619D01*
X88843Y4534D01*
X88830Y4450D01*
X88789Y4397D01*
X88742Y4365D01*
X88572D01*
G01X88742D02*
X88843Y4058D01*
G01X89185Y4693D02*
X89348D01*
G01X89266D02*
Y4058D01*
G01X89185D02*
X89348D01*
G01X89974Y4640D02*
X89934Y4672D01*
X89886Y4693D01*
X89832D01*
X89771Y4661D01*
X89724Y4608D01*
X89690Y4545D01*
X89663Y4439D01*
X89656Y4344D01*
X89669Y4248D01*
X89690Y4185D01*
X89730Y4122D01*
X89778Y4079D01*
X89825Y4058D01*
X89873D01*
X89920Y4079D01*
X89961Y4111D01*
X89994Y4153D01*
G01X90855Y4270D02*
X91031D01*
G01X91932Y4058D02*
Y4693D01*
X92189D01*
G01X92094Y4386D02*
X91932D01*
G01X92484Y4058D02*
Y4693D01*
X92653D01*
X92707Y4661D01*
X92741Y4619D01*
X92755Y4534D01*
X92741Y4450D01*
X92700Y4397D01*
X92653Y4365D01*
X92484D01*
G01X92653D02*
X92755Y4058D01*
G01X93090Y4270D02*
X93266D01*
G01X93818Y4058D02*
Y4693D01*
X93568Y4238D01*
X93906D01*
G01X94854Y4693D02*
X94800Y4672D01*
X94760Y4619D01*
X94732Y4555D01*
X94712Y4471D01*
X94705Y4376D01*
X94712Y4280D01*
X94732Y4196D01*
X94760Y4132D01*
X94800Y4079D01*
X94854Y4058D01*
X94909Y4079D01*
X94949Y4132D01*
X94976Y4196D01*
X94997Y4280D01*
X95003Y4376D01*
X94997Y4471D01*
X94976Y4555D01*
X94949Y4619D01*
X94909Y4672D01*
X94854Y4693D01*
G01X95413Y4037D02*
X95400Y4047D01*
Y4069D01*
X95413Y4079D01*
X95427Y4069D01*
Y4047D01*
X95413Y4037D01*
G01X95843Y4587D02*
X95884Y4651D01*
X95931Y4682D01*
X95986Y4693D01*
X96053Y4672D01*
X96101Y4619D01*
X96114Y4555D01*
X96108Y4492D01*
X96080Y4439D01*
X95945Y4333D01*
X95884Y4259D01*
X95843Y4153D01*
X95830Y4058D01*
X96114D01*
G01X96531Y4693D02*
X96477Y4672D01*
X96436Y4619D01*
X96409Y4555D01*
X96389Y4471D01*
X96382Y4376D01*
X96389Y4280D01*
X96409Y4196D01*
X96436Y4132D01*
X96477Y4079D01*
X96531Y4058D01*
X96585Y4079D01*
X96626Y4132D01*
X96653Y4196D01*
X96673Y4280D01*
X96680Y4376D01*
X96673Y4471D01*
X96653Y4555D01*
X96626Y4619D01*
X96585Y4672D01*
X96531Y4693D01*
G01X96941Y4185D02*
X96981Y4111D01*
X97035Y4069D01*
X97096Y4058D01*
X97151Y4069D01*
X97205Y4122D01*
X97239Y4185D01*
X97245Y4248D01*
X97232Y4323D01*
X97184Y4376D01*
X97137Y4397D01*
X97076D01*
G01X97137D02*
X97178Y4428D01*
X97212Y4481D01*
X97225Y4545D01*
X97212Y4608D01*
X97178Y4661D01*
X97117Y4693D01*
X97056Y4682D01*
X96995Y4640D01*
G01X97520Y4587D02*
X97560Y4651D01*
X97608Y4682D01*
X97662Y4693D01*
X97730Y4672D01*
X97777Y4619D01*
X97791Y4555D01*
X97784Y4492D01*
X97757Y4439D01*
X97621Y4333D01*
X97560Y4259D01*
X97520Y4153D01*
X97506Y4058D01*
X97791D01*
G01X98590D02*
Y4693D01*
X98766Y4164D01*
X98942Y4693D01*
Y4058D01*
G01X99149D02*
Y4693D01*
X99325Y4164D01*
X99501Y4693D01*
Y4058D01*
G01X81866Y-421D02*
Y-1056D01*
X82138D01*
G01X82432Y-791D02*
X82480Y-717D01*
X82520Y-675D01*
X82574Y-654D01*
X82622Y-675D01*
X82656Y-717D01*
X82683Y-781D01*
X82690Y-855D01*
X82683Y-918D01*
X82656Y-982D01*
X82615Y-1035D01*
X82568Y-1056D01*
X82513Y-1035D01*
X82466Y-971D01*
X82439Y-876D01*
X82432Y-770D01*
X82446Y-632D01*
X82466Y-558D01*
X82500Y-484D01*
X82547Y-431D01*
X82595Y-421D01*
X82642Y-442D01*
X82676Y-495D01*
G01X83120Y-1077D02*
X83106Y-1066D01*
Y-1045D01*
X83120Y-1035D01*
X83133Y-1045D01*
Y-1066D01*
X83120Y-1077D01*
G01Y-791D02*
X83106Y-781D01*
Y-760D01*
X83120Y-749D01*
X83133Y-760D01*
Y-781D01*
X83120Y-791D01*
G01X84291Y-717D02*
X84318Y-685D01*
X84339Y-632D01*
X84352Y-558D01*
X84339Y-495D01*
X84312Y-453D01*
X84264Y-421D01*
X84081D01*
Y-1056D01*
X84305D01*
X84352Y-1014D01*
X84379Y-950D01*
X84393Y-876D01*
X84379Y-802D01*
X84339Y-738D01*
X84291Y-717D01*
X84081D01*
G01X84796Y-1056D02*
X84742Y-1045D01*
X84694Y-1003D01*
X84654Y-939D01*
X84627Y-865D01*
X84613Y-781D01*
Y-696D01*
X84627Y-611D01*
X84654Y-537D01*
X84694Y-474D01*
X84742Y-431D01*
X84796Y-421D01*
X84850Y-431D01*
X84898Y-474D01*
X84938Y-537D01*
X84965Y-611D01*
X84979Y-696D01*
Y-781D01*
X84965Y-865D01*
X84938Y-939D01*
X84898Y-1003D01*
X84850Y-1045D01*
X84796Y-1056D01*
G01X85355Y-421D02*
Y-1056D01*
G01X85199Y-421D02*
X85511D01*
G01X85914D02*
Y-1056D01*
G01X85758Y-421D02*
X86069D01*
G01X86472Y-1056D02*
X86418Y-1045D01*
X86371Y-1003D01*
X86330Y-939D01*
X86303Y-865D01*
X86290Y-781D01*
Y-696D01*
X86303Y-611D01*
X86330Y-537D01*
X86371Y-474D01*
X86418Y-431D01*
X86472Y-421D01*
X86527Y-431D01*
X86574Y-474D01*
X86615Y-537D01*
X86642Y-611D01*
X86655Y-696D01*
Y-781D01*
X86642Y-865D01*
X86615Y-939D01*
X86574Y-1003D01*
X86527Y-1045D01*
X86472Y-1056D01*
G01X86855D02*
Y-421D01*
X87031Y-950D01*
X87207Y-421D01*
Y-1056D01*
G01X88298Y-474D02*
X88257Y-442D01*
X88210Y-421D01*
X88156D01*
X88095Y-453D01*
X88047Y-505D01*
X88013Y-569D01*
X87986Y-675D01*
X87980Y-770D01*
X87993Y-865D01*
X88013Y-929D01*
X88054Y-992D01*
X88101Y-1035D01*
X88149Y-1056D01*
X88196D01*
X88244Y-1035D01*
X88284Y-1003D01*
X88318Y-961D01*
G01X88708Y-1056D02*
X88653Y-1045D01*
X88606Y-1003D01*
X88565Y-939D01*
X88538Y-865D01*
X88525Y-781D01*
Y-696D01*
X88538Y-611D01*
X88565Y-537D01*
X88606Y-474D01*
X88653Y-431D01*
X88708Y-421D01*
X88762Y-431D01*
X88809Y-474D01*
X88850Y-537D01*
X88877Y-611D01*
X88890Y-696D01*
Y-781D01*
X88877Y-865D01*
X88850Y-939D01*
X88809Y-1003D01*
X88762Y-1045D01*
X88708Y-1056D01*
G01X89111D02*
Y-421D01*
X89422Y-1056D01*
Y-421D01*
G01X89676Y-1056D02*
Y-421D01*
X89812D01*
X89866Y-453D01*
X89906Y-495D01*
X89940Y-558D01*
X89967Y-632D01*
X89974Y-738D01*
X89967Y-844D01*
X89940Y-918D01*
X89906Y-982D01*
X89866Y-1024D01*
X89812Y-1056D01*
X89676D01*
G01X90235Y-421D02*
Y-876D01*
X90262Y-971D01*
X90316Y-1035D01*
X90384Y-1056D01*
X90452Y-1035D01*
X90506Y-971D01*
X90533Y-876D01*
Y-421D01*
G01X91092Y-474D02*
X91051Y-442D01*
X91004Y-421D01*
X90950D01*
X90889Y-453D01*
X90841Y-505D01*
X90807Y-569D01*
X90780Y-675D01*
X90774Y-770D01*
X90787Y-865D01*
X90807Y-929D01*
X90848Y-992D01*
X90895Y-1035D01*
X90943Y-1056D01*
X90990D01*
X91038Y-1035D01*
X91078Y-1003D01*
X91112Y-961D01*
G01X91502Y-421D02*
Y-1056D01*
G01X91346Y-421D02*
X91657D01*
G01X92060Y-1056D02*
X92006Y-1045D01*
X91959Y-1003D01*
X91918Y-939D01*
X91891Y-865D01*
X91878Y-781D01*
Y-696D01*
X91891Y-611D01*
X91918Y-537D01*
X91959Y-474D01*
X92006Y-431D01*
X92060Y-421D01*
X92115Y-431D01*
X92162Y-474D01*
X92203Y-537D01*
X92230Y-611D01*
X92243Y-696D01*
Y-781D01*
X92230Y-865D01*
X92203Y-939D01*
X92162Y-1003D01*
X92115Y-1045D01*
X92060Y-1056D01*
G01X92484D02*
Y-421D01*
X92653D01*
X92707Y-453D01*
X92741Y-495D01*
X92755Y-580D01*
X92741Y-664D01*
X92700Y-717D01*
X92653Y-749D01*
X92484D01*
G01X92653D02*
X92755Y-1056D01*
G01X93649Y-844D02*
X93825D01*
G01X95003Y-474D02*
X94963Y-442D01*
X94915Y-421D01*
X94861D01*
X94800Y-453D01*
X94753Y-505D01*
X94719Y-569D01*
X94692Y-675D01*
X94685Y-770D01*
X94699Y-865D01*
X94719Y-929D01*
X94760Y-992D01*
X94807Y-1035D01*
X94854Y-1056D01*
X94902D01*
X94949Y-1035D01*
X94990Y-1003D01*
X95024Y-961D01*
G01X95413Y-1056D02*
X95359Y-1045D01*
X95312Y-1003D01*
X95271Y-939D01*
X95244Y-865D01*
X95230Y-781D01*
Y-696D01*
X95244Y-611D01*
X95271Y-537D01*
X95312Y-474D01*
X95359Y-431D01*
X95413Y-421D01*
X95467Y-431D01*
X95515Y-474D01*
X95555Y-537D01*
X95582Y-611D01*
X95596Y-696D01*
Y-781D01*
X95582Y-865D01*
X95555Y-939D01*
X95515Y-1003D01*
X95467Y-1045D01*
X95413Y-1056D01*
G01X95836D02*
Y-421D01*
X95999D01*
X96053Y-453D01*
X96094Y-527D01*
X96108Y-611D01*
X96094Y-696D01*
X96060Y-760D01*
X95999Y-791D01*
X95836D01*
G01X96395Y-1056D02*
Y-421D01*
X96558D01*
X96612Y-453D01*
X96653Y-527D01*
X96666Y-611D01*
X96653Y-696D01*
X96619Y-760D01*
X96558Y-791D01*
X96395D01*
G01X97225Y-1056D02*
X96954D01*
Y-421D01*
X97225D01*
G01X97117Y-728D02*
X96954D01*
G01X97513Y-1056D02*
Y-421D01*
X97682D01*
X97736Y-453D01*
X97770Y-495D01*
X97784Y-580D01*
X97770Y-664D01*
X97730Y-717D01*
X97682Y-749D01*
X97513D01*
G01X97682D02*
X97784Y-1056D01*
G01X98766Y-421D02*
X98712Y-442D01*
X98671Y-495D01*
X98644Y-558D01*
X98624Y-643D01*
X98617Y-738D01*
X98624Y-834D01*
X98644Y-918D01*
X98671Y-982D01*
X98712Y-1035D01*
X98766Y-1056D01*
X98820Y-1035D01*
X98861Y-982D01*
X98888Y-918D01*
X98908Y-834D01*
X98915Y-738D01*
X98908Y-643D01*
X98888Y-558D01*
X98861Y-495D01*
X98820Y-442D01*
X98766Y-421D01*
G01X99325Y-1077D02*
X99311Y-1066D01*
Y-1045D01*
X99325Y-1035D01*
X99338Y-1045D01*
Y-1066D01*
X99325Y-1077D01*
G01X99884Y-421D02*
X99829Y-442D01*
X99789Y-495D01*
X99762Y-558D01*
X99741Y-643D01*
X99735Y-738D01*
X99741Y-834D01*
X99762Y-918D01*
X99789Y-982D01*
X99829Y-1035D01*
X99884Y-1056D01*
X99938Y-1035D01*
X99978Y-982D01*
X100006Y-918D01*
X100026Y-834D01*
X100033Y-738D01*
X100026Y-643D01*
X100006Y-558D01*
X99978Y-495D01*
X99938Y-442D01*
X99884Y-421D01*
G01X100293Y-929D02*
X100334Y-1003D01*
X100388Y-1045D01*
X100449Y-1056D01*
X100503Y-1045D01*
X100558Y-992D01*
X100591Y-929D01*
X100598Y-865D01*
X100585Y-791D01*
X100537Y-738D01*
X100490Y-717D01*
X100429D01*
G01X100490D02*
X100530Y-685D01*
X100564Y-632D01*
X100578Y-569D01*
X100564Y-505D01*
X100530Y-453D01*
X100470Y-421D01*
X100408Y-431D01*
X100348Y-474D01*
G01X101001Y-421D02*
X100947Y-442D01*
X100906Y-495D01*
X100879Y-558D01*
X100859Y-643D01*
X100852Y-738D01*
X100859Y-834D01*
X100879Y-918D01*
X100906Y-982D01*
X100947Y-1035D01*
X101001Y-1056D01*
X101055Y-1035D01*
X101096Y-982D01*
X101123Y-918D01*
X101143Y-834D01*
X101150Y-738D01*
X101143Y-643D01*
X101123Y-558D01*
X101096Y-495D01*
X101055Y-442D01*
X101001Y-421D01*
G01X101411Y-961D02*
X101452Y-1014D01*
X101499Y-1045D01*
X101560Y-1056D01*
X101621Y-1035D01*
X101668Y-992D01*
X101702Y-918D01*
X101709Y-834D01*
X101696Y-749D01*
X101662Y-696D01*
X101614Y-654D01*
X101567Y-643D01*
X101519Y-654D01*
X101458Y-696D01*
X101479Y-421D01*
X101662D01*
G01X102502Y-1056D02*
Y-421D01*
X102678Y-950D01*
X102854Y-421D01*
Y-1056D01*
G01X103060D02*
Y-421D01*
X103236Y-950D01*
X103412Y-421D01*
Y-1056D01*
G01X82971Y-2358D02*
X83269Y-1892D01*
G01X83120Y-1808D02*
Y-2443D01*
G01X83269Y-2358D02*
X82971Y-1892D01*
G01X82916Y-2125D02*
X83323D01*
G01X84654Y-2252D02*
X84708Y-2305D01*
X84769Y-2337D01*
X84823D01*
X84877Y-2305D01*
X84918Y-2252D01*
X84938Y-2178D01*
X84925Y-2104D01*
X84891Y-2041D01*
X84830Y-1998D01*
X84749Y-1977D01*
X84701Y-1935D01*
X84681Y-1861D01*
X84694Y-1786D01*
X84728Y-1734D01*
X84776Y-1702D01*
X84823D01*
X84870Y-1723D01*
X84911Y-1776D01*
G01X85206Y-1702D02*
Y-2157D01*
X85233Y-2252D01*
X85287Y-2316D01*
X85355Y-2337D01*
X85422Y-2316D01*
X85477Y-2252D01*
X85504Y-2157D01*
Y-1702D01*
G01X85778Y-2337D02*
Y-1702D01*
X85948D01*
X86002Y-1734D01*
X86036Y-1776D01*
X86049Y-1861D01*
X86036Y-1945D01*
X85995Y-1998D01*
X85948Y-2030D01*
X85778D01*
G01X85948D02*
X86049Y-2337D01*
G01X86344D02*
Y-1702D01*
X86601D01*
G01X86506Y-2009D02*
X86344D01*
G01X86862Y-2337D02*
X87031Y-1702D01*
X87200Y-2337D01*
G01X87140Y-2115D02*
X86923D01*
G01X87739Y-1755D02*
X87698Y-1723D01*
X87651Y-1702D01*
X87597D01*
X87536Y-1734D01*
X87488Y-1786D01*
X87454Y-1850D01*
X87427Y-1956D01*
X87421Y-2051D01*
X87434Y-2146D01*
X87454Y-2210D01*
X87495Y-2273D01*
X87543Y-2316D01*
X87590Y-2337D01*
X87637D01*
X87685Y-2316D01*
X87726Y-2284D01*
X87759Y-2242D01*
G01X88284Y-2337D02*
X88013D01*
Y-1702D01*
X88284D01*
G01X88176Y-2009D02*
X88013D01*
G01X89178Y-2125D02*
X89354D01*
G01X90215Y-2337D02*
X90384Y-1702D01*
X90553Y-2337D01*
G01X90492Y-2115D02*
X90276D01*
G01X90862Y-1702D02*
X91024D01*
G01X90943D02*
Y-2337D01*
G01X90862D02*
X91024D01*
G01X91366D02*
Y-1702D01*
X91536D01*
X91590Y-1734D01*
X91624Y-1776D01*
X91637Y-1861D01*
X91624Y-1945D01*
X91583Y-1998D01*
X91536Y-2030D01*
X91366D01*
G01X91536D02*
X91637Y-2337D01*
G01X92619Y-1702D02*
X92565Y-1723D01*
X92524Y-1776D01*
X92497Y-1839D01*
X92477Y-1924D01*
X92470Y-2019D01*
X92477Y-2115D01*
X92497Y-2199D01*
X92524Y-2263D01*
X92565Y-2316D01*
X92619Y-2337D01*
X92673Y-2316D01*
X92714Y-2263D01*
X92741Y-2199D01*
X92761Y-2115D01*
X92768Y-2019D01*
X92761Y-1924D01*
X92741Y-1839D01*
X92714Y-1776D01*
X92673Y-1723D01*
X92619Y-1702D01*
G01X93561Y-2337D02*
Y-1702D01*
X93737Y-2231D01*
X93913Y-1702D01*
Y-2337D01*
G01X94120D02*
Y-1702D01*
X94296Y-2231D01*
X94472Y-1702D01*
Y-2337D01*
G01X66486Y-3818D02*
Y-3183D01*
X66622D01*
X66676Y-3215D01*
X66716Y-3258D01*
X66750Y-3321D01*
X66777Y-3395D01*
X66784Y-3501D01*
X66777Y-3607D01*
X66750Y-3681D01*
X66716Y-3744D01*
X66676Y-3787D01*
X66622Y-3818D01*
X66486D01*
G01X67329D02*
X67058D01*
Y-3183D01*
X67329D01*
G01X67221Y-3490D02*
X67058D01*
G01X67610Y-3734D02*
X67664Y-3787D01*
X67726Y-3818D01*
X67780D01*
X67834Y-3787D01*
X67874Y-3734D01*
X67895Y-3660D01*
X67881Y-3586D01*
X67847Y-3522D01*
X67786Y-3480D01*
X67705Y-3459D01*
X67658Y-3416D01*
X67637Y-3342D01*
X67651Y-3268D01*
X67685Y-3215D01*
X67732Y-3183D01*
X67780D01*
X67827Y-3205D01*
X67868Y-3258D01*
G01X68230Y-3183D02*
X68393D01*
G01X68311D02*
Y-3818D01*
G01X68230D02*
X68393D01*
G01X68911Y-3501D02*
X69046D01*
Y-3691D01*
X69006Y-3755D01*
X68958Y-3797D01*
X68890Y-3818D01*
X68823Y-3797D01*
X68775Y-3755D01*
X68735Y-3691D01*
X68708Y-3617D01*
X68694Y-3533D01*
Y-3459D01*
X68708Y-3395D01*
X68735Y-3321D01*
X68775Y-3258D01*
X68816Y-3215D01*
X68870Y-3183D01*
X68918D01*
X68972Y-3205D01*
X69012Y-3247D01*
G01X69273Y-3818D02*
Y-3183D01*
X69585Y-3818D01*
Y-3183D01*
G01X70696Y-3236D02*
X70655Y-3205D01*
X70608Y-3183D01*
X70553D01*
X70492Y-3215D01*
X70445Y-3268D01*
X70411Y-3332D01*
X70384Y-3437D01*
X70377Y-3533D01*
X70391Y-3628D01*
X70411Y-3691D01*
X70452Y-3755D01*
X70499Y-3797D01*
X70547Y-3818D01*
X70594D01*
X70641Y-3797D01*
X70682Y-3766D01*
X70716Y-3723D01*
G01X70970Y-3818D02*
Y-3183D01*
X71139D01*
X71194Y-3215D01*
X71227Y-3258D01*
X71241Y-3342D01*
X71227Y-3427D01*
X71187Y-3480D01*
X71139Y-3512D01*
X70970D01*
G01X71139D02*
X71241Y-3818D01*
G01X71664D02*
X71610Y-3808D01*
X71563Y-3766D01*
X71522Y-3702D01*
X71495Y-3628D01*
X71481Y-3543D01*
Y-3459D01*
X71495Y-3374D01*
X71522Y-3300D01*
X71563Y-3236D01*
X71610Y-3194D01*
X71664Y-3183D01*
X71718Y-3194D01*
X71766Y-3236D01*
X71806Y-3300D01*
X71834Y-3374D01*
X71847Y-3459D01*
Y-3543D01*
X71834Y-3628D01*
X71806Y-3702D01*
X71766Y-3766D01*
X71718Y-3808D01*
X71664Y-3818D01*
G01X72081Y-3734D02*
X72135Y-3787D01*
X72196Y-3818D01*
X72250D01*
X72304Y-3787D01*
X72345Y-3734D01*
X72365Y-3660D01*
X72352Y-3586D01*
X72318Y-3522D01*
X72257Y-3480D01*
X72176Y-3459D01*
X72128Y-3416D01*
X72108Y-3342D01*
X72121Y-3268D01*
X72155Y-3215D01*
X72203Y-3183D01*
X72250D01*
X72298Y-3205D01*
X72338Y-3258D01*
G01X72640Y-3734D02*
X72694Y-3787D01*
X72755Y-3818D01*
X72809D01*
X72863Y-3787D01*
X72904Y-3734D01*
X72924Y-3660D01*
X72910Y-3586D01*
X72877Y-3522D01*
X72816Y-3480D01*
X72734Y-3459D01*
X72687Y-3416D01*
X72667Y-3342D01*
X72680Y-3268D01*
X72714Y-3215D01*
X72762Y-3183D01*
X72809D01*
X72856Y-3205D01*
X72897Y-3258D01*
G01X73757Y-3734D02*
X73811Y-3787D01*
X73872Y-3818D01*
X73926D01*
X73981Y-3787D01*
X74021Y-3734D01*
X74042Y-3660D01*
X74028Y-3586D01*
X73994Y-3522D01*
X73933Y-3480D01*
X73852Y-3459D01*
X73805Y-3416D01*
X73784Y-3342D01*
X73798Y-3268D01*
X73832Y-3215D01*
X73879Y-3183D01*
X73926D01*
X73974Y-3205D01*
X74015Y-3258D01*
G01X74594Y-3818D02*
X74323D01*
Y-3183D01*
X74594D01*
G01X74485Y-3490D02*
X74323D01*
G01X75166Y-3236D02*
X75125Y-3205D01*
X75078Y-3183D01*
X75024D01*
X74963Y-3215D01*
X74915Y-3268D01*
X74882Y-3332D01*
X74854Y-3437D01*
X74848Y-3533D01*
X74861Y-3628D01*
X74882Y-3691D01*
X74922Y-3755D01*
X74970Y-3797D01*
X75017Y-3818D01*
X75064D01*
X75112Y-3797D01*
X75152Y-3766D01*
X75186Y-3723D01*
G01X75576Y-3183D02*
Y-3818D01*
G01X75420Y-3183D02*
X75732D01*
G01X76053D02*
X76216D01*
G01X76135D02*
Y-3818D01*
G01X76053D02*
X76216D01*
G01X76693D02*
X76639Y-3808D01*
X76592Y-3766D01*
X76551Y-3702D01*
X76524Y-3628D01*
X76510Y-3543D01*
Y-3459D01*
X76524Y-3374D01*
X76551Y-3300D01*
X76592Y-3236D01*
X76639Y-3194D01*
X76693Y-3183D01*
X76748Y-3194D01*
X76795Y-3236D01*
X76836Y-3300D01*
X76863Y-3374D01*
X76876Y-3459D01*
Y-3543D01*
X76863Y-3628D01*
X76836Y-3702D01*
X76795Y-3766D01*
X76748Y-3808D01*
X76693Y-3818D01*
G01X77096D02*
Y-3183D01*
X77408Y-3818D01*
Y-3183D01*
G01X78519Y-3236D02*
X78478Y-3205D01*
X78431Y-3183D01*
X78377D01*
X78316Y-3215D01*
X78268Y-3268D01*
X78234Y-3332D01*
X78207Y-3437D01*
X78200Y-3533D01*
X78214Y-3628D01*
X78234Y-3691D01*
X78275Y-3755D01*
X78322Y-3797D01*
X78370Y-3818D01*
X78417D01*
X78465Y-3797D01*
X78505Y-3766D01*
X78539Y-3723D01*
G01X78786Y-3818D02*
Y-3183D01*
G01X79071D02*
Y-3818D01*
G01Y-3501D02*
X78786D01*
G01X79318Y-3818D02*
X79487Y-3183D01*
X79657Y-3818D01*
G01X79596Y-3596D02*
X79379D01*
G01X79911Y-3818D02*
Y-3183D01*
X80080D01*
X80134Y-3215D01*
X80168Y-3258D01*
X80182Y-3342D01*
X80168Y-3427D01*
X80128Y-3480D01*
X80080Y-3512D01*
X79911D01*
G01X80080D02*
X80182Y-3818D01*
G01X80605Y-3183D02*
Y-3818D01*
G01X80449Y-3183D02*
X80761D01*
G01X66152Y-4030D02*
X66559D01*
G01X66711D02*
X67118D01*
G01X67270D02*
X67676D01*
G01X67829D02*
X68235D01*
G01X68388D02*
X68794D01*
G01X68946D02*
X69353D01*
G01X69505D02*
X69912D01*
G01X70064D02*
X70470D01*
G01X70623D02*
X71029D01*
G01X71182D02*
X71588D01*
G01X71740D02*
X72147D01*
G01X72299D02*
X72706D01*
G01X72858D02*
X73264D01*
G01X73417D02*
X73823D01*
G01X73976D02*
X74382D01*
G01X74534D02*
X74941D01*
G01X75093D02*
X75500D01*
G01X75652D02*
X76058D01*
G01X76211D02*
X76617D01*
G01X76770D02*
X77176D01*
G01X77328D02*
X77735D01*
G01X77887D02*
X78294D01*
G01X78446D02*
X78852D01*
G01X79005D02*
X79411D01*
G01X79564D02*
X79970D01*
G01X80122D02*
X80529D01*
G01X80681D02*
X81088D01*
G01X67194Y-4453D02*
Y-5088D01*
G01X67038Y-4453D02*
X67350D01*
G01X67753Y-5088D02*
X67698Y-5078D01*
X67651Y-5036D01*
X67610Y-4972D01*
X67583Y-4898D01*
X67570Y-4813D01*
Y-4729D01*
X67583Y-4644D01*
X67610Y-4570D01*
X67651Y-4506D01*
X67698Y-4464D01*
X67753Y-4453D01*
X67807Y-4464D01*
X67854Y-4506D01*
X67895Y-4570D01*
X67922Y-4644D01*
X67936Y-4729D01*
Y-4813D01*
X67922Y-4898D01*
X67895Y-4972D01*
X67854Y-5036D01*
X67807Y-5078D01*
X67753Y-5088D01*
G01X68311Y-4453D02*
Y-5088D01*
G01X68156Y-4453D02*
X68467D01*
G01X68701Y-5088D02*
X68870Y-4453D01*
X69040Y-5088D01*
G01X68979Y-4866D02*
X68762D01*
G01X69294Y-4453D02*
Y-5088D01*
X69564D01*
G01X70547Y-4453D02*
Y-5088D01*
G01X70391Y-4453D02*
X70702D01*
G01X70963Y-5088D02*
Y-4453D01*
G01X71248D02*
Y-5088D01*
G01Y-4771D02*
X70963D01*
G01X71583Y-4453D02*
X71746D01*
G01X71664D02*
Y-5088D01*
G01X71583D02*
X71746D01*
G01X72372Y-4506D02*
X72331Y-4475D01*
X72284Y-4453D01*
X72230D01*
X72169Y-4485D01*
X72121Y-4538D01*
X72088Y-4602D01*
X72060Y-4707D01*
X72054Y-4803D01*
X72067Y-4898D01*
X72088Y-4961D01*
X72128Y-5025D01*
X72176Y-5067D01*
X72223Y-5088D01*
X72270D01*
X72318Y-5067D01*
X72358Y-5036D01*
X72392Y-4993D01*
G01X72633Y-5088D02*
Y-4453D01*
G01X72890D02*
X72633Y-4845D01*
G01X72931Y-5088D02*
X72748Y-4665D01*
G01X73185Y-5088D02*
Y-4453D01*
X73496Y-5088D01*
Y-4453D01*
G01X74035Y-5088D02*
X73764D01*
Y-4453D01*
X74035D01*
G01X73926Y-4760D02*
X73764D01*
G01X74316Y-5004D02*
X74370Y-5057D01*
X74431Y-5088D01*
X74485D01*
X74540Y-5057D01*
X74580Y-5004D01*
X74600Y-4930D01*
X74587Y-4856D01*
X74553Y-4792D01*
X74492Y-4750D01*
X74411Y-4729D01*
X74363Y-4686D01*
X74343Y-4612D01*
X74357Y-4538D01*
X74390Y-4485D01*
X74438Y-4453D01*
X74485D01*
X74533Y-4475D01*
X74573Y-4528D01*
G01X74875Y-5004D02*
X74929Y-5057D01*
X74990Y-5088D01*
X75044D01*
X75098Y-5057D01*
X75139Y-5004D01*
X75159Y-4930D01*
X75146Y-4856D01*
X75112Y-4792D01*
X75051Y-4750D01*
X74970Y-4729D01*
X74922Y-4686D01*
X74902Y-4612D01*
X74915Y-4538D01*
X74949Y-4485D01*
X74997Y-4453D01*
X75044D01*
X75092Y-4475D01*
X75132Y-4528D01*
G01X76135Y-5088D02*
Y-4453D01*
X76053Y-4580D01*
G01Y-5088D02*
X76216D01*
G01X76693Y-5110D02*
X76680Y-5099D01*
Y-5078D01*
X76693Y-5067D01*
X76707Y-5078D01*
Y-5099D01*
X76693Y-5110D01*
G01X77252Y-5088D02*
Y-4453D01*
X77171Y-4580D01*
G01Y-5088D02*
X77334D01*
G01X77696Y-5014D02*
X77743Y-5067D01*
X77798Y-5088D01*
X77852Y-5067D01*
X77899Y-5004D01*
X77933Y-4908D01*
X77946Y-4813D01*
Y-4697D01*
X77933Y-4602D01*
X77899Y-4517D01*
X77858Y-4475D01*
X77811Y-4453D01*
X77757Y-4475D01*
X77716Y-4517D01*
X77689Y-4580D01*
X77676Y-4665D01*
X77689Y-4739D01*
X77723Y-4813D01*
X77764Y-4856D01*
X77811Y-4866D01*
X77865Y-4845D01*
X77906Y-4792D01*
X77946Y-4697D01*
G01X78255Y-5014D02*
X78302Y-5067D01*
X78356Y-5088D01*
X78410Y-5067D01*
X78458Y-5004D01*
X78492Y-4908D01*
X78505Y-4813D01*
Y-4697D01*
X78492Y-4602D01*
X78458Y-4517D01*
X78417Y-4475D01*
X78370Y-4453D01*
X78316Y-4475D01*
X78275Y-4517D01*
X78248Y-4580D01*
X78234Y-4665D01*
X78248Y-4739D01*
X78282Y-4813D01*
X78322Y-4856D01*
X78370Y-4866D01*
X78424Y-4845D01*
X78465Y-4792D01*
X78505Y-4697D01*
G01X79311Y-5088D02*
Y-4453D01*
X79487Y-4983D01*
X79664Y-4453D01*
Y-5088D01*
G01X79870D02*
Y-4453D01*
X80046Y-4983D01*
X80222Y-4453D01*
Y-5088D01*
G01X66000Y9606D02*
Y18141D01*
X81240D01*
Y9606D01*
X66000D01*
G01Y-209D02*
Y8325D01*
X81240D01*
Y-209D01*
X66000D01*
G01X82971Y33483D02*
X83269Y33949D01*
G01X83120Y34033D02*
Y33398D01*
G01X83269Y33483D02*
X82971Y33949D01*
G01X82916Y33716D02*
X83323D01*
G01X84647Y33504D02*
Y34139D01*
X84782D01*
X84837Y34107D01*
X84877Y34065D01*
X84911Y34002D01*
X84938Y33928D01*
X84945Y33822D01*
X84938Y33716D01*
X84911Y33642D01*
X84877Y33578D01*
X84837Y33536D01*
X84782Y33504D01*
X84647D01*
G01X85274Y34139D02*
X85436D01*
G01X85355D02*
Y33504D01*
G01X85274D02*
X85436D01*
G01X86049D02*
X85778D01*
Y34139D01*
X86049D01*
G01X85941Y33832D02*
X85778D01*
G01X86337Y34139D02*
Y33504D01*
X86608D01*
G01X87167D02*
X86896D01*
Y34139D01*
X87167D01*
G01X87058Y33832D02*
X86896D01*
G01X87739Y34086D02*
X87698Y34118D01*
X87651Y34139D01*
X87597D01*
X87536Y34107D01*
X87488Y34054D01*
X87454Y33991D01*
X87427Y33885D01*
X87421Y33790D01*
X87434Y33695D01*
X87454Y33631D01*
X87495Y33568D01*
X87543Y33525D01*
X87590Y33504D01*
X87637D01*
X87685Y33525D01*
X87726Y33557D01*
X87759Y33599D01*
G01X88149Y34139D02*
Y33504D01*
G01X87993Y34139D02*
X88305D01*
G01X88572Y33504D02*
Y34139D01*
X88742D01*
X88796Y34107D01*
X88830Y34065D01*
X88843Y33980D01*
X88830Y33896D01*
X88789Y33843D01*
X88742Y33811D01*
X88572D01*
G01X88742D02*
X88843Y33504D01*
G01X89185Y34139D02*
X89348D01*
G01X89266D02*
Y33504D01*
G01X89185D02*
X89348D01*
G01X89974Y34086D02*
X89934Y34118D01*
X89886Y34139D01*
X89832D01*
X89771Y34107D01*
X89724Y34054D01*
X89690Y33991D01*
X89663Y33885D01*
X89656Y33790D01*
X89669Y33695D01*
X89690Y33631D01*
X89730Y33568D01*
X89778Y33525D01*
X89825Y33504D01*
X89873D01*
X89920Y33525D01*
X89961Y33557D01*
X89994Y33599D01*
G01X90855Y33716D02*
X91031D01*
G01X91932Y33504D02*
Y34139D01*
X92189D01*
G01X92094Y33832D02*
X91932D01*
G01X92484Y33504D02*
Y34139D01*
X92653D01*
X92707Y34107D01*
X92741Y34065D01*
X92755Y33980D01*
X92741Y33896D01*
X92700Y33843D01*
X92653Y33811D01*
X92484D01*
G01X92653D02*
X92755Y33504D01*
G01X93090Y33716D02*
X93266D01*
G01X93818Y33504D02*
Y34139D01*
X93568Y33684D01*
X93906D01*
G01X94854Y34139D02*
X94800Y34118D01*
X94760Y34065D01*
X94732Y34002D01*
X94712Y33917D01*
X94705Y33822D01*
X94712Y33726D01*
X94732Y33642D01*
X94760Y33578D01*
X94800Y33525D01*
X94854Y33504D01*
X94909Y33525D01*
X94949Y33578D01*
X94976Y33642D01*
X94997Y33726D01*
X95003Y33822D01*
X94997Y33917D01*
X94976Y34002D01*
X94949Y34065D01*
X94909Y34118D01*
X94854Y34139D01*
G01X95413Y33483D02*
X95400Y33494D01*
Y33515D01*
X95413Y33525D01*
X95427Y33515D01*
Y33494D01*
X95413Y33483D01*
G01X95843Y34033D02*
X95884Y34097D01*
X95931Y34129D01*
X95986Y34139D01*
X96053Y34118D01*
X96101Y34065D01*
X96114Y34002D01*
X96108Y33938D01*
X96080Y33885D01*
X95945Y33779D01*
X95884Y33705D01*
X95843Y33599D01*
X95830Y33504D01*
X96114D01*
G01X96531Y34139D02*
X96477Y34118D01*
X96436Y34065D01*
X96409Y34002D01*
X96389Y33917D01*
X96382Y33822D01*
X96389Y33726D01*
X96409Y33642D01*
X96436Y33578D01*
X96477Y33525D01*
X96531Y33504D01*
X96585Y33525D01*
X96626Y33578D01*
X96653Y33642D01*
X96673Y33726D01*
X96680Y33822D01*
X96673Y33917D01*
X96653Y34002D01*
X96626Y34065D01*
X96585Y34118D01*
X96531Y34139D01*
G01X96941Y33631D02*
X96981Y33557D01*
X97035Y33515D01*
X97096Y33504D01*
X97151Y33515D01*
X97205Y33568D01*
X97239Y33631D01*
X97245Y33695D01*
X97232Y33769D01*
X97184Y33822D01*
X97137Y33843D01*
X97076D01*
G01X97137D02*
X97178Y33875D01*
X97212Y33928D01*
X97225Y33991D01*
X97212Y34054D01*
X97178Y34107D01*
X97117Y34139D01*
X97056Y34129D01*
X96995Y34086D01*
G01X97520Y34033D02*
X97560Y34097D01*
X97608Y34129D01*
X97662Y34139D01*
X97730Y34118D01*
X97777Y34065D01*
X97791Y34002D01*
X97784Y33938D01*
X97757Y33885D01*
X97621Y33779D01*
X97560Y33705D01*
X97520Y33599D01*
X97506Y33504D01*
X97791D01*
G01X98590D02*
Y34139D01*
X98766Y33610D01*
X98942Y34139D01*
Y33504D01*
G01X99149D02*
Y34139D01*
X99325Y33610D01*
X99501Y34139D01*
Y33504D01*
G01X81866Y29025D02*
Y28390D01*
X82138D01*
G01X82412Y28517D02*
X82452Y28443D01*
X82507Y28401D01*
X82568Y28390D01*
X82622Y28401D01*
X82676Y28454D01*
X82710Y28517D01*
X82717Y28581D01*
X82703Y28655D01*
X82656Y28708D01*
X82608Y28729D01*
X82547D01*
G01X82608D02*
X82649Y28761D01*
X82683Y28814D01*
X82696Y28877D01*
X82683Y28941D01*
X82649Y28994D01*
X82588Y29025D01*
X82527Y29015D01*
X82466Y28972D01*
G01X83120Y28369D02*
X83106Y28380D01*
Y28401D01*
X83120Y28412D01*
X83133Y28401D01*
Y28380D01*
X83120Y28369D01*
G01Y28655D02*
X83106Y28666D01*
Y28687D01*
X83120Y28697D01*
X83133Y28687D01*
Y28666D01*
X83120Y28655D01*
G01X84102Y29025D02*
Y28390D01*
X84373D01*
G01X84627D02*
X84796Y29025D01*
X84965Y28390D01*
G01X84904Y28613D02*
X84688D01*
G01X85355Y28390D02*
Y28676D01*
X85219Y29025D01*
G01X85490D02*
X85355Y28676D01*
G01X86049Y28390D02*
X85778D01*
Y29025D01*
X86049D01*
G01X85941Y28718D02*
X85778D01*
G01X86337Y28390D02*
Y29025D01*
X86506D01*
X86560Y28994D01*
X86594Y28951D01*
X86608Y28867D01*
X86594Y28782D01*
X86554Y28729D01*
X86506Y28697D01*
X86337D01*
G01X86506D02*
X86608Y28390D01*
G01X87590D02*
Y29025D01*
X87509Y28898D01*
G01Y28390D02*
X87671D01*
G01X88857Y28972D02*
X88816Y29004D01*
X88769Y29025D01*
X88714D01*
X88653Y28994D01*
X88606Y28941D01*
X88572Y28877D01*
X88545Y28771D01*
X88538Y28676D01*
X88552Y28581D01*
X88572Y28517D01*
X88613Y28454D01*
X88660Y28412D01*
X88708Y28390D01*
X88755D01*
X88802Y28412D01*
X88843Y28443D01*
X88877Y28486D01*
G01X89266Y28390D02*
X89212Y28401D01*
X89165Y28443D01*
X89124Y28507D01*
X89097Y28581D01*
X89084Y28666D01*
Y28750D01*
X89097Y28835D01*
X89124Y28909D01*
X89165Y28972D01*
X89212Y29015D01*
X89266Y29025D01*
X89321Y29015D01*
X89368Y28972D01*
X89409Y28909D01*
X89436Y28835D01*
X89449Y28750D01*
Y28666D01*
X89436Y28581D01*
X89409Y28507D01*
X89368Y28443D01*
X89321Y28401D01*
X89266Y28390D01*
G01X89669D02*
Y29025D01*
X89981Y28390D01*
Y29025D01*
G01X90235Y28390D02*
Y29025D01*
X90370D01*
X90425Y28994D01*
X90465Y28951D01*
X90499Y28888D01*
X90526Y28814D01*
X90533Y28708D01*
X90526Y28602D01*
X90499Y28528D01*
X90465Y28464D01*
X90425Y28422D01*
X90370Y28390D01*
X90235D01*
G01X90794Y29025D02*
Y28570D01*
X90821Y28475D01*
X90875Y28412D01*
X90943Y28390D01*
X91010Y28412D01*
X91065Y28475D01*
X91092Y28570D01*
Y29025D01*
G01X91651Y28972D02*
X91610Y29004D01*
X91563Y29025D01*
X91508D01*
X91447Y28994D01*
X91400Y28941D01*
X91366Y28877D01*
X91339Y28771D01*
X91332Y28676D01*
X91346Y28581D01*
X91366Y28517D01*
X91407Y28454D01*
X91454Y28412D01*
X91502Y28390D01*
X91549D01*
X91596Y28412D01*
X91637Y28443D01*
X91671Y28486D01*
G01X92060Y29025D02*
Y28390D01*
G01X91905Y29025D02*
X92216D01*
G01X92619Y28390D02*
X92565Y28401D01*
X92518Y28443D01*
X92477Y28507D01*
X92450Y28581D01*
X92436Y28666D01*
Y28750D01*
X92450Y28835D01*
X92477Y28909D01*
X92518Y28972D01*
X92565Y29015D01*
X92619Y29025D01*
X92673Y29015D01*
X92721Y28972D01*
X92761Y28909D01*
X92788Y28835D01*
X92802Y28750D01*
Y28666D01*
X92788Y28581D01*
X92761Y28507D01*
X92721Y28443D01*
X92673Y28401D01*
X92619Y28390D01*
G01X93042D02*
Y29025D01*
X93212D01*
X93266Y28994D01*
X93300Y28951D01*
X93314Y28867D01*
X93300Y28782D01*
X93259Y28729D01*
X93212Y28697D01*
X93042D01*
G01X93212D02*
X93314Y28390D01*
G01X94208Y28602D02*
X94384D01*
G01X95562Y28972D02*
X95522Y29004D01*
X95474Y29025D01*
X95420D01*
X95359Y28994D01*
X95312Y28941D01*
X95278Y28877D01*
X95251Y28771D01*
X95244Y28676D01*
X95257Y28581D01*
X95278Y28517D01*
X95318Y28454D01*
X95366Y28412D01*
X95413Y28390D01*
X95461D01*
X95508Y28412D01*
X95549Y28443D01*
X95582Y28486D01*
G01X95972Y28390D02*
X95918Y28401D01*
X95870Y28443D01*
X95830Y28507D01*
X95803Y28581D01*
X95789Y28666D01*
Y28750D01*
X95803Y28835D01*
X95830Y28909D01*
X95870Y28972D01*
X95918Y29015D01*
X95972Y29025D01*
X96026Y29015D01*
X96074Y28972D01*
X96114Y28909D01*
X96141Y28835D01*
X96155Y28750D01*
Y28666D01*
X96141Y28581D01*
X96114Y28507D01*
X96074Y28443D01*
X96026Y28401D01*
X95972Y28390D01*
G01X96395D02*
Y29025D01*
X96558D01*
X96612Y28994D01*
X96653Y28920D01*
X96666Y28835D01*
X96653Y28750D01*
X96619Y28687D01*
X96558Y28655D01*
X96395D01*
G01X96954Y28390D02*
Y29025D01*
X97117D01*
X97171Y28994D01*
X97212Y28920D01*
X97225Y28835D01*
X97212Y28750D01*
X97178Y28687D01*
X97117Y28655D01*
X96954D01*
G01X97784Y28390D02*
X97513D01*
Y29025D01*
X97784D01*
G01X97676Y28718D02*
X97513D01*
G01X98072Y28390D02*
Y29025D01*
X98241D01*
X98295Y28994D01*
X98329Y28951D01*
X98343Y28867D01*
X98329Y28782D01*
X98288Y28729D01*
X98241Y28697D01*
X98072D01*
G01X98241D02*
X98343Y28390D01*
G01X99325Y29025D02*
X99271Y29004D01*
X99230Y28951D01*
X99203Y28888D01*
X99183Y28803D01*
X99176Y28708D01*
X99183Y28613D01*
X99203Y28528D01*
X99230Y28464D01*
X99271Y28412D01*
X99325Y28390D01*
X99379Y28412D01*
X99420Y28464D01*
X99447Y28528D01*
X99467Y28613D01*
X99474Y28708D01*
X99467Y28803D01*
X99447Y28888D01*
X99420Y28951D01*
X99379Y29004D01*
X99325Y29025D01*
G01X99884Y28369D02*
X99870Y28380D01*
Y28401D01*
X99884Y28412D01*
X99897Y28401D01*
Y28380D01*
X99884Y28369D01*
G01X100442Y29025D02*
X100388Y29004D01*
X100348Y28951D01*
X100320Y28888D01*
X100300Y28803D01*
X100293Y28708D01*
X100300Y28613D01*
X100320Y28528D01*
X100348Y28464D01*
X100388Y28412D01*
X100442Y28390D01*
X100497Y28412D01*
X100537Y28464D01*
X100564Y28528D01*
X100585Y28613D01*
X100591Y28708D01*
X100585Y28803D01*
X100564Y28888D01*
X100537Y28951D01*
X100497Y29004D01*
X100442Y29025D01*
G01X100852Y28517D02*
X100893Y28443D01*
X100947Y28401D01*
X101008Y28390D01*
X101062Y28401D01*
X101116Y28454D01*
X101150Y28517D01*
X101157Y28581D01*
X101143Y28655D01*
X101096Y28708D01*
X101049Y28729D01*
X100988D01*
G01X101049D02*
X101089Y28761D01*
X101123Y28814D01*
X101137Y28877D01*
X101123Y28941D01*
X101089Y28994D01*
X101028Y29025D01*
X100967Y29015D01*
X100906Y28972D01*
G01X101560Y29025D02*
X101506Y29004D01*
X101465Y28951D01*
X101438Y28888D01*
X101418Y28803D01*
X101411Y28708D01*
X101418Y28613D01*
X101438Y28528D01*
X101465Y28464D01*
X101506Y28412D01*
X101560Y28390D01*
X101614Y28412D01*
X101655Y28464D01*
X101682Y28528D01*
X101702Y28613D01*
X101709Y28708D01*
X101702Y28803D01*
X101682Y28888D01*
X101655Y28951D01*
X101614Y29004D01*
X101560Y29025D01*
G01X101970Y28486D02*
X102010Y28433D01*
X102058Y28401D01*
X102119Y28390D01*
X102180Y28412D01*
X102227Y28454D01*
X102261Y28528D01*
X102268Y28613D01*
X102254Y28697D01*
X102220Y28750D01*
X102173Y28793D01*
X102126Y28803D01*
X102078Y28793D01*
X102017Y28750D01*
X102038Y29025D01*
X102220D01*
G01X103060Y28390D02*
Y29025D01*
X103236Y28496D01*
X103412Y29025D01*
Y28390D01*
G01X103619D02*
Y29025D01*
X103795Y28496D01*
X103971Y29025D01*
Y28390D01*
G01X82971Y23668D02*
X83269Y24133D01*
G01X83120Y24218D02*
Y23583D01*
G01X83269Y23668D02*
X82971Y24133D01*
G01X82916Y23900D02*
X83323D01*
G01X84647Y23689D02*
Y24324D01*
X84782D01*
X84837Y24292D01*
X84877Y24250D01*
X84911Y24186D01*
X84938Y24112D01*
X84945Y24006D01*
X84938Y23900D01*
X84911Y23826D01*
X84877Y23763D01*
X84837Y23720D01*
X84782Y23689D01*
X84647D01*
G01X85274Y24324D02*
X85436D01*
G01X85355D02*
Y23689D01*
G01X85274D02*
X85436D01*
G01X86049D02*
X85778D01*
Y24324D01*
X86049D01*
G01X85941Y24017D02*
X85778D01*
G01X86337Y24324D02*
Y23689D01*
X86608D01*
G01X87167D02*
X86896D01*
Y24324D01*
X87167D01*
G01X87058Y24017D02*
X86896D01*
G01X87739Y24271D02*
X87698Y24303D01*
X87651Y24324D01*
X87597D01*
X87536Y24292D01*
X87488Y24239D01*
X87454Y24176D01*
X87427Y24070D01*
X87421Y23974D01*
X87434Y23879D01*
X87454Y23816D01*
X87495Y23752D01*
X87543Y23710D01*
X87590Y23689D01*
X87637D01*
X87685Y23710D01*
X87726Y23742D01*
X87759Y23784D01*
G01X88149Y24324D02*
Y23689D01*
G01X87993Y24324D02*
X88305D01*
G01X88572Y23689D02*
Y24324D01*
X88742D01*
X88796Y24292D01*
X88830Y24250D01*
X88843Y24165D01*
X88830Y24080D01*
X88789Y24028D01*
X88742Y23996D01*
X88572D01*
G01X88742D02*
X88843Y23689D01*
G01X89185Y24324D02*
X89348D01*
G01X89266D02*
Y23689D01*
G01X89185D02*
X89348D01*
G01X89974Y24271D02*
X89934Y24303D01*
X89886Y24324D01*
X89832D01*
X89771Y24292D01*
X89724Y24239D01*
X89690Y24176D01*
X89663Y24070D01*
X89656Y23974D01*
X89669Y23879D01*
X89690Y23816D01*
X89730Y23752D01*
X89778Y23710D01*
X89825Y23689D01*
X89873D01*
X89920Y23710D01*
X89961Y23742D01*
X89994Y23784D01*
G01X90855Y23900D02*
X91031D01*
G01X91932Y23689D02*
Y24324D01*
X92189D01*
G01X92094Y24017D02*
X91932D01*
G01X92484Y23689D02*
Y24324D01*
X92653D01*
X92707Y24292D01*
X92741Y24250D01*
X92755Y24165D01*
X92741Y24080D01*
X92700Y24028D01*
X92653Y23996D01*
X92484D01*
G01X92653D02*
X92755Y23689D01*
G01X93090Y23900D02*
X93266D01*
G01X93818Y23689D02*
Y24324D01*
X93568Y23869D01*
X93906D01*
G01X94854Y24324D02*
X94800Y24303D01*
X94760Y24250D01*
X94732Y24186D01*
X94712Y24102D01*
X94705Y24006D01*
X94712Y23911D01*
X94732Y23826D01*
X94760Y23763D01*
X94800Y23710D01*
X94854Y23689D01*
X94909Y23710D01*
X94949Y23763D01*
X94976Y23826D01*
X94997Y23911D01*
X95003Y24006D01*
X94997Y24102D01*
X94976Y24186D01*
X94949Y24250D01*
X94909Y24303D01*
X94854Y24324D01*
G01X95413Y23668D02*
X95400Y23678D01*
Y23699D01*
X95413Y23710D01*
X95427Y23699D01*
Y23678D01*
X95413Y23668D01*
G01X95843Y24218D02*
X95884Y24282D01*
X95931Y24313D01*
X95986Y24324D01*
X96053Y24303D01*
X96101Y24250D01*
X96114Y24186D01*
X96108Y24123D01*
X96080Y24070D01*
X95945Y23964D01*
X95884Y23890D01*
X95843Y23784D01*
X95830Y23689D01*
X96114D01*
G01X96531Y24324D02*
X96477Y24303D01*
X96436Y24250D01*
X96409Y24186D01*
X96389Y24102D01*
X96382Y24006D01*
X96389Y23911D01*
X96409Y23826D01*
X96436Y23763D01*
X96477Y23710D01*
X96531Y23689D01*
X96585Y23710D01*
X96626Y23763D01*
X96653Y23826D01*
X96673Y23911D01*
X96680Y24006D01*
X96673Y24102D01*
X96653Y24186D01*
X96626Y24250D01*
X96585Y24303D01*
X96531Y24324D01*
G01X96941Y23816D02*
X96981Y23742D01*
X97035Y23699D01*
X97096Y23689D01*
X97151Y23699D01*
X97205Y23752D01*
X97239Y23816D01*
X97245Y23879D01*
X97232Y23953D01*
X97184Y24006D01*
X97137Y24028D01*
X97076D01*
G01X97137D02*
X97178Y24059D01*
X97212Y24112D01*
X97225Y24176D01*
X97212Y24239D01*
X97178Y24292D01*
X97117Y24324D01*
X97056Y24313D01*
X96995Y24271D01*
G01X97520Y24218D02*
X97560Y24282D01*
X97608Y24313D01*
X97662Y24324D01*
X97730Y24303D01*
X97777Y24250D01*
X97791Y24186D01*
X97784Y24123D01*
X97757Y24070D01*
X97621Y23964D01*
X97560Y23890D01*
X97520Y23784D01*
X97506Y23689D01*
X97791D01*
G01X98590D02*
Y24324D01*
X98766Y23795D01*
X98942Y24324D01*
Y23689D01*
G01X99149D02*
Y24324D01*
X99325Y23795D01*
X99501Y24324D01*
Y23689D01*
G01X81866Y19210D02*
Y18575D01*
X82138D01*
G01X82642D02*
Y19210D01*
X82392Y18755D01*
X82730D01*
G01X83120Y18554D02*
X83106Y18564D01*
Y18586D01*
X83120Y18596D01*
X83133Y18586D01*
Y18564D01*
X83120Y18554D01*
G01Y18840D02*
X83106Y18850D01*
Y18871D01*
X83120Y18882D01*
X83133Y18871D01*
Y18850D01*
X83120Y18840D01*
G01X84102Y19210D02*
Y18575D01*
X84373D01*
G01X84627D02*
X84796Y19210D01*
X84965Y18575D01*
G01X84904Y18797D02*
X84688D01*
G01X85355Y18575D02*
Y18861D01*
X85219Y19210D01*
G01X85490D02*
X85355Y18861D01*
G01X86049Y18575D02*
X85778D01*
Y19210D01*
X86049D01*
G01X85941Y18903D02*
X85778D01*
G01X86337Y18575D02*
Y19210D01*
X86506D01*
X86560Y19178D01*
X86594Y19136D01*
X86608Y19051D01*
X86594Y18967D01*
X86554Y18914D01*
X86506Y18882D01*
X86337D01*
G01X86506D02*
X86608Y18575D01*
G01X86828Y18363D02*
X87234D01*
G01X87461Y19104D02*
X87502Y19168D01*
X87549Y19199D01*
X87604Y19210D01*
X87671Y19189D01*
X87719Y19136D01*
X87732Y19072D01*
X87726Y19009D01*
X87698Y18956D01*
X87563Y18850D01*
X87502Y18776D01*
X87461Y18670D01*
X87448Y18575D01*
X87732D01*
G01X88857Y19157D02*
X88816Y19189D01*
X88769Y19210D01*
X88714D01*
X88653Y19178D01*
X88606Y19125D01*
X88572Y19062D01*
X88545Y18956D01*
X88538Y18861D01*
X88552Y18766D01*
X88572Y18702D01*
X88613Y18638D01*
X88660Y18596D01*
X88708Y18575D01*
X88755D01*
X88802Y18596D01*
X88843Y18628D01*
X88877Y18670D01*
G01X89266Y18575D02*
X89212Y18586D01*
X89165Y18628D01*
X89124Y18691D01*
X89097Y18766D01*
X89084Y18850D01*
Y18935D01*
X89097Y19020D01*
X89124Y19094D01*
X89165Y19157D01*
X89212Y19199D01*
X89266Y19210D01*
X89321Y19199D01*
X89368Y19157D01*
X89409Y19094D01*
X89436Y19020D01*
X89449Y18935D01*
Y18850D01*
X89436Y18766D01*
X89409Y18691D01*
X89368Y18628D01*
X89321Y18586D01*
X89266Y18575D01*
G01X89669D02*
Y19210D01*
X89981Y18575D01*
Y19210D01*
G01X90235Y18575D02*
Y19210D01*
X90370D01*
X90425Y19178D01*
X90465Y19136D01*
X90499Y19072D01*
X90526Y18998D01*
X90533Y18892D01*
X90526Y18787D01*
X90499Y18713D01*
X90465Y18649D01*
X90425Y18607D01*
X90370Y18575D01*
X90235D01*
G01X90794Y19210D02*
Y18755D01*
X90821Y18660D01*
X90875Y18596D01*
X90943Y18575D01*
X91010Y18596D01*
X91065Y18660D01*
X91092Y18755D01*
Y19210D01*
G01X91651Y19157D02*
X91610Y19189D01*
X91563Y19210D01*
X91508D01*
X91447Y19178D01*
X91400Y19125D01*
X91366Y19062D01*
X91339Y18956D01*
X91332Y18861D01*
X91346Y18766D01*
X91366Y18702D01*
X91407Y18638D01*
X91454Y18596D01*
X91502Y18575D01*
X91549D01*
X91596Y18596D01*
X91637Y18628D01*
X91671Y18670D01*
G01X92060Y19210D02*
Y18575D01*
G01X91905Y19210D02*
X92216D01*
G01X92619Y18575D02*
X92565Y18586D01*
X92518Y18628D01*
X92477Y18691D01*
X92450Y18766D01*
X92436Y18850D01*
Y18935D01*
X92450Y19020D01*
X92477Y19094D01*
X92518Y19157D01*
X92565Y19199D01*
X92619Y19210D01*
X92673Y19199D01*
X92721Y19157D01*
X92761Y19094D01*
X92788Y19020D01*
X92802Y18935D01*
Y18850D01*
X92788Y18766D01*
X92761Y18691D01*
X92721Y18628D01*
X92673Y18586D01*
X92619Y18575D01*
G01X93042D02*
Y19210D01*
X93212D01*
X93266Y19178D01*
X93300Y19136D01*
X93314Y19051D01*
X93300Y18967D01*
X93259Y18914D01*
X93212Y18882D01*
X93042D01*
G01X93212D02*
X93314Y18575D01*
G01X94208Y18787D02*
X94384D01*
G01X95562Y19157D02*
X95522Y19189D01*
X95474Y19210D01*
X95420D01*
X95359Y19178D01*
X95312Y19125D01*
X95278Y19062D01*
X95251Y18956D01*
X95244Y18861D01*
X95257Y18766D01*
X95278Y18702D01*
X95318Y18638D01*
X95366Y18596D01*
X95413Y18575D01*
X95461D01*
X95508Y18596D01*
X95549Y18628D01*
X95582Y18670D01*
G01X95972Y18575D02*
X95918Y18586D01*
X95870Y18628D01*
X95830Y18691D01*
X95803Y18766D01*
X95789Y18850D01*
Y18935D01*
X95803Y19020D01*
X95830Y19094D01*
X95870Y19157D01*
X95918Y19199D01*
X95972Y19210D01*
X96026Y19199D01*
X96074Y19157D01*
X96114Y19094D01*
X96141Y19020D01*
X96155Y18935D01*
Y18850D01*
X96141Y18766D01*
X96114Y18691D01*
X96074Y18628D01*
X96026Y18586D01*
X95972Y18575D01*
G01X96395D02*
Y19210D01*
X96558D01*
X96612Y19178D01*
X96653Y19104D01*
X96666Y19020D01*
X96653Y18935D01*
X96619Y18871D01*
X96558Y18840D01*
X96395D01*
G01X96954Y18575D02*
Y19210D01*
X97117D01*
X97171Y19178D01*
X97212Y19104D01*
X97225Y19020D01*
X97212Y18935D01*
X97178Y18871D01*
X97117Y18840D01*
X96954D01*
G01X97784Y18575D02*
X97513D01*
Y19210D01*
X97784D01*
G01X97676Y18903D02*
X97513D01*
G01X98072Y18575D02*
Y19210D01*
X98241D01*
X98295Y19178D01*
X98329Y19136D01*
X98343Y19051D01*
X98329Y18967D01*
X98288Y18914D01*
X98241Y18882D01*
X98072D01*
G01X98241D02*
X98343Y18575D01*
G01X99325Y19210D02*
X99271Y19189D01*
X99230Y19136D01*
X99203Y19072D01*
X99183Y18988D01*
X99176Y18892D01*
X99183Y18797D01*
X99203Y18713D01*
X99230Y18649D01*
X99271Y18596D01*
X99325Y18575D01*
X99379Y18596D01*
X99420Y18649D01*
X99447Y18713D01*
X99467Y18797D01*
X99474Y18892D01*
X99467Y18988D01*
X99447Y19072D01*
X99420Y19136D01*
X99379Y19189D01*
X99325Y19210D01*
G01X99884Y18554D02*
X99870Y18564D01*
Y18586D01*
X99884Y18596D01*
X99897Y18586D01*
Y18564D01*
X99884Y18554D01*
G01X100442Y19210D02*
X100388Y19189D01*
X100348Y19136D01*
X100320Y19072D01*
X100300Y18988D01*
X100293Y18892D01*
X100300Y18797D01*
X100320Y18713D01*
X100348Y18649D01*
X100388Y18596D01*
X100442Y18575D01*
X100497Y18596D01*
X100537Y18649D01*
X100564Y18713D01*
X100585Y18797D01*
X100591Y18892D01*
X100585Y18988D01*
X100564Y19072D01*
X100537Y19136D01*
X100497Y19189D01*
X100442Y19210D01*
G01X100852Y18702D02*
X100893Y18628D01*
X100947Y18586D01*
X101008Y18575D01*
X101062Y18586D01*
X101116Y18638D01*
X101150Y18702D01*
X101157Y18766D01*
X101143Y18840D01*
X101096Y18892D01*
X101049Y18914D01*
X100988D01*
G01X101049D02*
X101089Y18945D01*
X101123Y18998D01*
X101137Y19062D01*
X101123Y19125D01*
X101089Y19178D01*
X101028Y19210D01*
X100967Y19199D01*
X100906Y19157D01*
G01X101560Y19210D02*
X101506Y19189D01*
X101465Y19136D01*
X101438Y19072D01*
X101418Y18988D01*
X101411Y18892D01*
X101418Y18797D01*
X101438Y18713D01*
X101465Y18649D01*
X101506Y18596D01*
X101560Y18575D01*
X101614Y18596D01*
X101655Y18649D01*
X101682Y18713D01*
X101702Y18797D01*
X101709Y18892D01*
X101702Y18988D01*
X101682Y19072D01*
X101655Y19136D01*
X101614Y19189D01*
X101560Y19210D01*
G01X101970Y18670D02*
X102010Y18617D01*
X102058Y18586D01*
X102119Y18575D01*
X102180Y18596D01*
X102227Y18638D01*
X102261Y18713D01*
X102268Y18797D01*
X102254Y18882D01*
X102220Y18935D01*
X102173Y18977D01*
X102126Y18988D01*
X102078Y18977D01*
X102017Y18935D01*
X102038Y19210D01*
X102220D01*
G01X103060Y18575D02*
Y19210D01*
X103236Y18681D01*
X103412Y19210D01*
Y18575D01*
G01X103619D02*
Y19210D01*
X103795Y18681D01*
X103971Y19210D01*
Y18575D01*
G01X82971Y13852D02*
X83269Y14318D01*
G01X83120Y14403D02*
Y13768D01*
G01X83269Y13852D02*
X82971Y14318D01*
G01X82916Y14085D02*
X83323D01*
G01X84647Y13873D02*
Y14508D01*
X84782D01*
X84837Y14477D01*
X84877Y14434D01*
X84911Y14371D01*
X84938Y14297D01*
X84945Y14191D01*
X84938Y14085D01*
X84911Y14011D01*
X84877Y13948D01*
X84837Y13905D01*
X84782Y13873D01*
X84647D01*
G01X85274Y14508D02*
X85436D01*
G01X85355D02*
Y13873D01*
G01X85274D02*
X85436D01*
G01X86049D02*
X85778D01*
Y14508D01*
X86049D01*
G01X85941Y14202D02*
X85778D01*
G01X86337Y14508D02*
Y13873D01*
X86608D01*
G01X87167D02*
X86896D01*
Y14508D01*
X87167D01*
G01X87058Y14202D02*
X86896D01*
G01X87739Y14456D02*
X87698Y14487D01*
X87651Y14508D01*
X87597D01*
X87536Y14477D01*
X87488Y14424D01*
X87454Y14360D01*
X87427Y14254D01*
X87421Y14159D01*
X87434Y14064D01*
X87454Y14000D01*
X87495Y13937D01*
X87543Y13895D01*
X87590Y13873D01*
X87637D01*
X87685Y13895D01*
X87726Y13926D01*
X87759Y13969D01*
G01X88149Y14508D02*
Y13873D01*
G01X87993Y14508D02*
X88305D01*
G01X88572Y13873D02*
Y14508D01*
X88742D01*
X88796Y14477D01*
X88830Y14434D01*
X88843Y14350D01*
X88830Y14265D01*
X88789Y14212D01*
X88742Y14180D01*
X88572D01*
G01X88742D02*
X88843Y13873D01*
G01X89185Y14508D02*
X89348D01*
G01X89266D02*
Y13873D01*
G01X89185D02*
X89348D01*
G01X89974Y14456D02*
X89934Y14487D01*
X89886Y14508D01*
X89832D01*
X89771Y14477D01*
X89724Y14424D01*
X89690Y14360D01*
X89663Y14254D01*
X89656Y14159D01*
X89669Y14064D01*
X89690Y14000D01*
X89730Y13937D01*
X89778Y13895D01*
X89825Y13873D01*
X89873D01*
X89920Y13895D01*
X89961Y13926D01*
X89994Y13969D01*
G01X90855Y14085D02*
X91031D01*
G01X91932Y13873D02*
Y14508D01*
X92189D01*
G01X92094Y14202D02*
X91932D01*
G01X92484Y13873D02*
Y14508D01*
X92653D01*
X92707Y14477D01*
X92741Y14434D01*
X92755Y14350D01*
X92741Y14265D01*
X92700Y14212D01*
X92653Y14180D01*
X92484D01*
G01X92653D02*
X92755Y13873D01*
G01X93090Y14085D02*
X93266D01*
G01X93818Y13873D02*
Y14508D01*
X93568Y14053D01*
X93906D01*
G01X94854Y14508D02*
X94800Y14487D01*
X94760Y14434D01*
X94732Y14371D01*
X94712Y14286D01*
X94705Y14191D01*
X94712Y14096D01*
X94732Y14011D01*
X94760Y13948D01*
X94800Y13895D01*
X94854Y13873D01*
X94909Y13895D01*
X94949Y13948D01*
X94976Y14011D01*
X94997Y14096D01*
X95003Y14191D01*
X94997Y14286D01*
X94976Y14371D01*
X94949Y14434D01*
X94909Y14487D01*
X94854Y14508D01*
G01X95413Y13852D02*
X95400Y13863D01*
Y13884D01*
X95413Y13895D01*
X95427Y13884D01*
Y13863D01*
X95413Y13852D01*
G01X95843Y14403D02*
X95884Y14466D01*
X95931Y14498D01*
X95986Y14508D01*
X96053Y14487D01*
X96101Y14434D01*
X96114Y14371D01*
X96108Y14307D01*
X96080Y14254D01*
X95945Y14149D01*
X95884Y14074D01*
X95843Y13969D01*
X95830Y13873D01*
X96114D01*
G01X96531Y14508D02*
X96477Y14487D01*
X96436Y14434D01*
X96409Y14371D01*
X96389Y14286D01*
X96382Y14191D01*
X96389Y14096D01*
X96409Y14011D01*
X96436Y13948D01*
X96477Y13895D01*
X96531Y13873D01*
X96585Y13895D01*
X96626Y13948D01*
X96653Y14011D01*
X96673Y14096D01*
X96680Y14191D01*
X96673Y14286D01*
X96653Y14371D01*
X96626Y14434D01*
X96585Y14487D01*
X96531Y14508D01*
G01X96941Y14000D02*
X96981Y13926D01*
X97035Y13884D01*
X97096Y13873D01*
X97151Y13884D01*
X97205Y13937D01*
X97239Y14000D01*
X97245Y14064D01*
X97232Y14138D01*
X97184Y14191D01*
X97137Y14212D01*
X97076D01*
G01X97137D02*
X97178Y14244D01*
X97212Y14297D01*
X97225Y14360D01*
X97212Y14424D01*
X97178Y14477D01*
X97117Y14508D01*
X97056Y14498D01*
X96995Y14456D01*
G01X97520Y14403D02*
X97560Y14466D01*
X97608Y14498D01*
X97662Y14508D01*
X97730Y14487D01*
X97777Y14434D01*
X97791Y14371D01*
X97784Y14307D01*
X97757Y14254D01*
X97621Y14149D01*
X97560Y14074D01*
X97520Y13969D01*
X97506Y13873D01*
X97791D01*
G01X98590D02*
Y14508D01*
X98766Y13979D01*
X98942Y14508D01*
Y13873D01*
G01X99149D02*
Y14508D01*
X99325Y13979D01*
X99501Y14508D01*
Y13873D01*
G01X66000Y29237D02*
Y37771D01*
X81240D01*
Y29237D01*
X66000D01*
G01Y19422D02*
Y27956D01*
X81240D01*
Y19422D01*
X66000D01*
G01X72985Y49706D02*
X72350D01*
X72477Y49625D01*
G01X72985D02*
Y49787D01*
G01X72773Y50177D02*
Y50353D01*
G01X72720Y50695D02*
X72646Y50742D01*
X72604Y50783D01*
X72583Y50837D01*
X72604Y50885D01*
X72646Y50918D01*
X72710Y50946D01*
X72784Y50952D01*
X72847Y50946D01*
X72911Y50918D01*
X72964Y50878D01*
X72985Y50830D01*
X72964Y50776D01*
X72900Y50729D01*
X72805Y50702D01*
X72699Y50695D01*
X72562Y50708D01*
X72488Y50729D01*
X72414Y50763D01*
X72361Y50810D01*
X72350Y50858D01*
X72371Y50905D01*
X72424Y50939D01*
G01X82971Y49058D02*
X83269Y49524D01*
G01X83120Y49609D02*
Y48974D01*
G01X83269Y49058D02*
X82971Y49524D01*
G01X82916Y49291D02*
X83323D01*
G01X84654Y49164D02*
X84708Y49111D01*
X84769Y49079D01*
X84823D01*
X84877Y49111D01*
X84918Y49164D01*
X84938Y49238D01*
X84925Y49312D01*
X84891Y49376D01*
X84830Y49418D01*
X84749Y49439D01*
X84701Y49482D01*
X84681Y49556D01*
X84694Y49630D01*
X84728Y49683D01*
X84776Y49714D01*
X84823D01*
X84870Y49693D01*
X84911Y49640D01*
G01X85206Y49714D02*
Y49259D01*
X85233Y49164D01*
X85287Y49101D01*
X85355Y49079D01*
X85422Y49101D01*
X85477Y49164D01*
X85504Y49259D01*
Y49714D01*
G01X85778Y49079D02*
Y49714D01*
X85948D01*
X86002Y49683D01*
X86036Y49640D01*
X86049Y49556D01*
X86036Y49471D01*
X85995Y49418D01*
X85948Y49386D01*
X85778D01*
G01X85948D02*
X86049Y49079D01*
G01X86344D02*
Y49714D01*
X86601D01*
G01X86506Y49408D02*
X86344D01*
G01X86862Y49079D02*
X87031Y49714D01*
X87200Y49079D01*
G01X87140Y49302D02*
X86923D01*
G01X87739Y49662D02*
X87698Y49693D01*
X87651Y49714D01*
X87597D01*
X87536Y49683D01*
X87488Y49630D01*
X87454Y49566D01*
X87427Y49460D01*
X87421Y49365D01*
X87434Y49270D01*
X87454Y49206D01*
X87495Y49143D01*
X87543Y49101D01*
X87590Y49079D01*
X87637D01*
X87685Y49101D01*
X87726Y49132D01*
X87759Y49175D01*
G01X88284Y49079D02*
X88013D01*
Y49714D01*
X88284D01*
G01X88176Y49408D02*
X88013D01*
G01X89178Y49291D02*
X89354D01*
G01X90215Y49079D02*
X90384Y49714D01*
X90553Y49079D01*
G01X90492Y49302D02*
X90276D01*
G01X90862Y49714D02*
X91024D01*
G01X90943D02*
Y49079D01*
G01X90862D02*
X91024D01*
G01X91366D02*
Y49714D01*
X91536D01*
X91590Y49683D01*
X91624Y49640D01*
X91637Y49556D01*
X91624Y49471D01*
X91583Y49418D01*
X91536Y49386D01*
X91366D01*
G01X91536D02*
X91637Y49079D01*
G01X92619Y49714D02*
X92565Y49693D01*
X92524Y49640D01*
X92497Y49577D01*
X92477Y49492D01*
X92470Y49397D01*
X92477Y49302D01*
X92497Y49217D01*
X92524Y49154D01*
X92565Y49101D01*
X92619Y49079D01*
X92673Y49101D01*
X92714Y49154D01*
X92741Y49217D01*
X92761Y49302D01*
X92768Y49397D01*
X92761Y49492D01*
X92741Y49577D01*
X92714Y49640D01*
X92673Y49693D01*
X92619Y49714D01*
G01X93561Y49079D02*
Y49714D01*
X93737Y49185D01*
X93913Y49714D01*
Y49079D01*
G01X94120D02*
Y49714D01*
X94296Y49185D01*
X94472Y49714D01*
Y49079D01*
G01X81866Y48656D02*
Y48021D01*
X82138D01*
G01X82561D02*
Y48656D01*
X82480Y48529D01*
G01Y48021D02*
X82642D01*
G01X83120Y48000D02*
X83106Y48011D01*
Y48032D01*
X83120Y48042D01*
X83133Y48032D01*
Y48011D01*
X83120Y48000D01*
G01Y48286D02*
X83106Y48296D01*
Y48318D01*
X83120Y48328D01*
X83133Y48318D01*
Y48296D01*
X83120Y48286D01*
G01X84237Y48656D02*
Y48021D01*
G01X84081Y48656D02*
X84393D01*
G01X84796Y48021D02*
X84742Y48032D01*
X84694Y48074D01*
X84654Y48138D01*
X84627Y48212D01*
X84613Y48296D01*
Y48381D01*
X84627Y48466D01*
X84654Y48540D01*
X84694Y48603D01*
X84742Y48646D01*
X84796Y48656D01*
X84850Y48646D01*
X84898Y48603D01*
X84938Y48540D01*
X84965Y48466D01*
X84979Y48381D01*
Y48296D01*
X84965Y48212D01*
X84938Y48138D01*
X84898Y48074D01*
X84850Y48032D01*
X84796Y48021D01*
G01X85219D02*
Y48656D01*
X85382D01*
X85436Y48624D01*
X85477Y48550D01*
X85490Y48466D01*
X85477Y48381D01*
X85443Y48318D01*
X85382Y48286D01*
X85219D01*
G01X86621Y48603D02*
X86581Y48635D01*
X86533Y48656D01*
X86479D01*
X86418Y48624D01*
X86371Y48572D01*
X86337Y48508D01*
X86310Y48402D01*
X86303Y48307D01*
X86317Y48212D01*
X86337Y48148D01*
X86378Y48085D01*
X86425Y48042D01*
X86472Y48021D01*
X86520D01*
X86567Y48042D01*
X86608Y48074D01*
X86642Y48116D01*
G01X87031Y48021D02*
X86977Y48032D01*
X86930Y48074D01*
X86889Y48138D01*
X86862Y48212D01*
X86848Y48296D01*
Y48381D01*
X86862Y48466D01*
X86889Y48540D01*
X86930Y48603D01*
X86977Y48646D01*
X87031Y48656D01*
X87085Y48646D01*
X87133Y48603D01*
X87173Y48540D01*
X87200Y48466D01*
X87214Y48381D01*
Y48296D01*
X87200Y48212D01*
X87173Y48138D01*
X87133Y48074D01*
X87085Y48032D01*
X87031Y48021D01*
G01X87434D02*
Y48656D01*
X87746Y48021D01*
Y48656D01*
G01X88000Y48021D02*
Y48656D01*
X88135D01*
X88189Y48624D01*
X88230Y48582D01*
X88264Y48519D01*
X88291Y48444D01*
X88298Y48339D01*
X88291Y48233D01*
X88264Y48159D01*
X88230Y48095D01*
X88189Y48053D01*
X88135Y48021D01*
X88000D01*
G01X88559Y48656D02*
Y48201D01*
X88586Y48106D01*
X88640Y48042D01*
X88708Y48021D01*
X88775Y48042D01*
X88830Y48106D01*
X88857Y48201D01*
Y48656D01*
G01X89415Y48603D02*
X89375Y48635D01*
X89327Y48656D01*
X89273D01*
X89212Y48624D01*
X89165Y48572D01*
X89131Y48508D01*
X89104Y48402D01*
X89097Y48307D01*
X89111Y48212D01*
X89131Y48148D01*
X89172Y48085D01*
X89219Y48042D01*
X89266Y48021D01*
X89314D01*
X89361Y48042D01*
X89402Y48074D01*
X89436Y48116D01*
G01X89825Y48656D02*
Y48021D01*
G01X89669Y48656D02*
X89981D01*
G01X90384Y48021D02*
X90330Y48032D01*
X90282Y48074D01*
X90242Y48138D01*
X90215Y48212D01*
X90201Y48296D01*
Y48381D01*
X90215Y48466D01*
X90242Y48540D01*
X90282Y48603D01*
X90330Y48646D01*
X90384Y48656D01*
X90438Y48646D01*
X90486Y48603D01*
X90526Y48540D01*
X90553Y48466D01*
X90567Y48381D01*
Y48296D01*
X90553Y48212D01*
X90526Y48138D01*
X90486Y48074D01*
X90438Y48032D01*
X90384Y48021D01*
G01X90807D02*
Y48656D01*
X90977D01*
X91031Y48624D01*
X91065Y48582D01*
X91078Y48497D01*
X91065Y48413D01*
X91024Y48360D01*
X90977Y48328D01*
X90807D01*
G01X90977D02*
X91078Y48021D01*
G01X91972Y48233D02*
X92148D01*
G01X93327Y48603D02*
X93286Y48635D01*
X93239Y48656D01*
X93185D01*
X93124Y48624D01*
X93076Y48572D01*
X93042Y48508D01*
X93015Y48402D01*
X93009Y48307D01*
X93022Y48212D01*
X93042Y48148D01*
X93083Y48085D01*
X93131Y48042D01*
X93178Y48021D01*
X93225D01*
X93273Y48042D01*
X93314Y48074D01*
X93347Y48116D01*
G01X93737Y48021D02*
X93683Y48032D01*
X93635Y48074D01*
X93595Y48138D01*
X93568Y48212D01*
X93554Y48296D01*
Y48381D01*
X93568Y48466D01*
X93595Y48540D01*
X93635Y48603D01*
X93683Y48646D01*
X93737Y48656D01*
X93791Y48646D01*
X93838Y48603D01*
X93879Y48540D01*
X93906Y48466D01*
X93920Y48381D01*
Y48296D01*
X93906Y48212D01*
X93879Y48138D01*
X93838Y48074D01*
X93791Y48032D01*
X93737Y48021D01*
G01X94160D02*
Y48656D01*
X94323D01*
X94377Y48624D01*
X94418Y48550D01*
X94431Y48466D01*
X94418Y48381D01*
X94384Y48318D01*
X94323Y48286D01*
X94160D01*
G01X94719Y48021D02*
Y48656D01*
X94882D01*
X94936Y48624D01*
X94976Y48550D01*
X94990Y48466D01*
X94976Y48381D01*
X94942Y48318D01*
X94882Y48286D01*
X94719D01*
G01X95549Y48021D02*
X95278D01*
Y48656D01*
X95549D01*
G01X95440Y48349D02*
X95278D01*
G01X95836Y48021D02*
Y48656D01*
X96006D01*
X96060Y48624D01*
X96094Y48582D01*
X96108Y48497D01*
X96094Y48413D01*
X96053Y48360D01*
X96006Y48328D01*
X95836D01*
G01X96006D02*
X96108Y48021D01*
G01X97090Y48656D02*
X97035Y48635D01*
X96995Y48582D01*
X96968Y48519D01*
X96947Y48434D01*
X96941Y48339D01*
X96947Y48243D01*
X96968Y48159D01*
X96995Y48095D01*
X97035Y48042D01*
X97090Y48021D01*
X97144Y48042D01*
X97184Y48095D01*
X97212Y48159D01*
X97232Y48243D01*
X97239Y48339D01*
X97232Y48434D01*
X97212Y48519D01*
X97184Y48582D01*
X97144Y48635D01*
X97090Y48656D01*
G01X97648Y48000D02*
X97635Y48011D01*
Y48032D01*
X97648Y48042D01*
X97662Y48032D01*
Y48011D01*
X97648Y48000D01*
G01X98207Y48656D02*
X98153Y48635D01*
X98112Y48582D01*
X98085Y48519D01*
X98065Y48434D01*
X98058Y48339D01*
X98065Y48243D01*
X98085Y48159D01*
X98112Y48095D01*
X98153Y48042D01*
X98207Y48021D01*
X98261Y48042D01*
X98302Y48095D01*
X98329Y48159D01*
X98349Y48243D01*
X98356Y48339D01*
X98349Y48434D01*
X98329Y48519D01*
X98302Y48582D01*
X98261Y48635D01*
X98207Y48656D01*
G01X98617Y48148D02*
X98658Y48074D01*
X98712Y48032D01*
X98773Y48021D01*
X98827Y48032D01*
X98881Y48085D01*
X98915Y48148D01*
X98922Y48212D01*
X98908Y48286D01*
X98861Y48339D01*
X98813Y48360D01*
X98752D01*
G01X98813D02*
X98854Y48392D01*
X98888Y48444D01*
X98902Y48508D01*
X98888Y48572D01*
X98854Y48624D01*
X98793Y48656D01*
X98732Y48646D01*
X98671Y48603D01*
G01X99325Y48656D02*
X99271Y48635D01*
X99230Y48582D01*
X99203Y48519D01*
X99183Y48434D01*
X99176Y48339D01*
X99183Y48243D01*
X99203Y48159D01*
X99230Y48095D01*
X99271Y48042D01*
X99325Y48021D01*
X99379Y48042D01*
X99420Y48095D01*
X99447Y48159D01*
X99467Y48243D01*
X99474Y48339D01*
X99467Y48434D01*
X99447Y48519D01*
X99420Y48582D01*
X99379Y48635D01*
X99325Y48656D01*
G01X99735Y48116D02*
X99775Y48064D01*
X99823Y48032D01*
X99884Y48021D01*
X99945Y48042D01*
X99992Y48085D01*
X100026Y48159D01*
X100033Y48243D01*
X100019Y48328D01*
X99985Y48381D01*
X99938Y48423D01*
X99890Y48434D01*
X99843Y48423D01*
X99782Y48381D01*
X99802Y48656D01*
X99985D01*
G01X100825Y48021D02*
Y48656D01*
X101001Y48127D01*
X101177Y48656D01*
Y48021D01*
G01X101384D02*
Y48656D01*
X101560Y48127D01*
X101736Y48656D01*
Y48021D01*
G01X82971Y43298D02*
X83269Y43764D01*
G01X83120Y43849D02*
Y43214D01*
G01X83269Y43298D02*
X82971Y43764D01*
G01X82916Y43531D02*
X83323D01*
G01X84647Y43320D02*
Y43955D01*
X84782D01*
X84837Y43923D01*
X84877Y43880D01*
X84911Y43817D01*
X84938Y43743D01*
X84945Y43637D01*
X84938Y43531D01*
X84911Y43457D01*
X84877Y43394D01*
X84837Y43351D01*
X84782Y43320D01*
X84647D01*
G01X85274Y43955D02*
X85436D01*
G01X85355D02*
Y43320D01*
G01X85274D02*
X85436D01*
G01X86049D02*
X85778D01*
Y43955D01*
X86049D01*
G01X85941Y43648D02*
X85778D01*
G01X86337Y43955D02*
Y43320D01*
X86608D01*
G01X87167D02*
X86896D01*
Y43955D01*
X87167D01*
G01X87058Y43648D02*
X86896D01*
G01X87739Y43902D02*
X87698Y43933D01*
X87651Y43955D01*
X87597D01*
X87536Y43923D01*
X87488Y43870D01*
X87454Y43806D01*
X87427Y43701D01*
X87421Y43605D01*
X87434Y43510D01*
X87454Y43447D01*
X87495Y43383D01*
X87543Y43341D01*
X87590Y43320D01*
X87637D01*
X87685Y43341D01*
X87726Y43372D01*
X87759Y43415D01*
G01X88149Y43955D02*
Y43320D01*
G01X87993Y43955D02*
X88305D01*
G01X88572Y43320D02*
Y43955D01*
X88742D01*
X88796Y43923D01*
X88830Y43880D01*
X88843Y43796D01*
X88830Y43711D01*
X88789Y43658D01*
X88742Y43626D01*
X88572D01*
G01X88742D02*
X88843Y43320D01*
G01X89185Y43955D02*
X89348D01*
G01X89266D02*
Y43320D01*
G01X89185D02*
X89348D01*
G01X89974Y43902D02*
X89934Y43933D01*
X89886Y43955D01*
X89832D01*
X89771Y43923D01*
X89724Y43870D01*
X89690Y43806D01*
X89663Y43701D01*
X89656Y43605D01*
X89669Y43510D01*
X89690Y43447D01*
X89730Y43383D01*
X89778Y43341D01*
X89825Y43320D01*
X89873D01*
X89920Y43341D01*
X89961Y43372D01*
X89994Y43415D01*
G01X90855Y43531D02*
X91031D01*
G01X91932Y43320D02*
Y43955D01*
X92189D01*
G01X92094Y43648D02*
X91932D01*
G01X92484Y43320D02*
Y43955D01*
X92653D01*
X92707Y43923D01*
X92741Y43880D01*
X92755Y43796D01*
X92741Y43711D01*
X92700Y43658D01*
X92653Y43626D01*
X92484D01*
G01X92653D02*
X92755Y43320D01*
G01X93090Y43531D02*
X93266D01*
G01X93818Y43320D02*
Y43955D01*
X93568Y43500D01*
X93906D01*
G01X94854Y43955D02*
X94800Y43933D01*
X94760Y43880D01*
X94732Y43817D01*
X94712Y43732D01*
X94705Y43637D01*
X94712Y43542D01*
X94732Y43457D01*
X94760Y43394D01*
X94800Y43341D01*
X94854Y43320D01*
X94909Y43341D01*
X94949Y43394D01*
X94976Y43457D01*
X94997Y43542D01*
X95003Y43637D01*
X94997Y43732D01*
X94976Y43817D01*
X94949Y43880D01*
X94909Y43933D01*
X94854Y43955D01*
G01X95413Y43298D02*
X95400Y43309D01*
Y43330D01*
X95413Y43341D01*
X95427Y43330D01*
Y43309D01*
X95413Y43298D01*
G01X95843Y43849D02*
X95884Y43912D01*
X95931Y43944D01*
X95986Y43955D01*
X96053Y43933D01*
X96101Y43880D01*
X96114Y43817D01*
X96108Y43754D01*
X96080Y43701D01*
X95945Y43595D01*
X95884Y43521D01*
X95843Y43415D01*
X95830Y43320D01*
X96114D01*
G01X96531Y43955D02*
X96477Y43933D01*
X96436Y43880D01*
X96409Y43817D01*
X96389Y43732D01*
X96382Y43637D01*
X96389Y43542D01*
X96409Y43457D01*
X96436Y43394D01*
X96477Y43341D01*
X96531Y43320D01*
X96585Y43341D01*
X96626Y43394D01*
X96653Y43457D01*
X96673Y43542D01*
X96680Y43637D01*
X96673Y43732D01*
X96653Y43817D01*
X96626Y43880D01*
X96585Y43933D01*
X96531Y43955D01*
G01X96941Y43447D02*
X96981Y43372D01*
X97035Y43330D01*
X97096Y43320D01*
X97151Y43330D01*
X97205Y43383D01*
X97239Y43447D01*
X97245Y43510D01*
X97232Y43584D01*
X97184Y43637D01*
X97137Y43658D01*
X97076D01*
G01X97137D02*
X97178Y43690D01*
X97212Y43743D01*
X97225Y43806D01*
X97212Y43870D01*
X97178Y43923D01*
X97117Y43955D01*
X97056Y43944D01*
X96995Y43902D01*
G01X97520Y43849D02*
X97560Y43912D01*
X97608Y43944D01*
X97662Y43955D01*
X97730Y43933D01*
X97777Y43880D01*
X97791Y43817D01*
X97784Y43754D01*
X97757Y43701D01*
X97621Y43595D01*
X97560Y43521D01*
X97520Y43415D01*
X97506Y43320D01*
X97791D01*
G01X98590D02*
Y43955D01*
X98766Y43425D01*
X98942Y43955D01*
Y43320D01*
G01X99149D02*
Y43955D01*
X99325Y43425D01*
X99501Y43955D01*
Y43320D01*
G01X81866Y38841D02*
Y38206D01*
X82138D01*
G01X82432Y38735D02*
X82473Y38798D01*
X82520Y38830D01*
X82574Y38841D01*
X82642Y38820D01*
X82690Y38767D01*
X82703Y38703D01*
X82696Y38640D01*
X82669Y38587D01*
X82534Y38481D01*
X82473Y38407D01*
X82432Y38301D01*
X82419Y38206D01*
X82703D01*
G01X83120Y38185D02*
X83106Y38195D01*
Y38216D01*
X83120Y38227D01*
X83133Y38216D01*
Y38195D01*
X83120Y38185D01*
G01Y38470D02*
X83106Y38481D01*
Y38502D01*
X83120Y38513D01*
X83133Y38502D01*
Y38481D01*
X83120Y38470D01*
G01X84278Y38523D02*
X84413D01*
Y38333D01*
X84373Y38269D01*
X84325Y38227D01*
X84258Y38206D01*
X84190Y38227D01*
X84142Y38269D01*
X84102Y38333D01*
X84075Y38407D01*
X84061Y38492D01*
Y38566D01*
X84075Y38629D01*
X84102Y38703D01*
X84142Y38767D01*
X84183Y38809D01*
X84237Y38841D01*
X84285D01*
X84339Y38820D01*
X84379Y38777D01*
G01X84640Y38206D02*
Y38841D01*
X84952Y38206D01*
Y38841D01*
G01X85206Y38206D02*
Y38841D01*
X85341D01*
X85395Y38809D01*
X85436Y38767D01*
X85470Y38703D01*
X85497Y38629D01*
X85504Y38523D01*
X85497Y38418D01*
X85470Y38343D01*
X85436Y38280D01*
X85395Y38238D01*
X85341Y38206D01*
X85206D01*
G01X86621Y38788D02*
X86581Y38820D01*
X86533Y38841D01*
X86479D01*
X86418Y38809D01*
X86371Y38756D01*
X86337Y38693D01*
X86310Y38587D01*
X86303Y38492D01*
X86317Y38396D01*
X86337Y38333D01*
X86378Y38269D01*
X86425Y38227D01*
X86472Y38206D01*
X86520D01*
X86567Y38227D01*
X86608Y38259D01*
X86642Y38301D01*
G01X87031Y38206D02*
X86977Y38216D01*
X86930Y38259D01*
X86889Y38322D01*
X86862Y38396D01*
X86848Y38481D01*
Y38566D01*
X86862Y38650D01*
X86889Y38724D01*
X86930Y38788D01*
X86977Y38830D01*
X87031Y38841D01*
X87085Y38830D01*
X87133Y38788D01*
X87173Y38724D01*
X87200Y38650D01*
X87214Y38566D01*
Y38481D01*
X87200Y38396D01*
X87173Y38322D01*
X87133Y38259D01*
X87085Y38216D01*
X87031Y38206D01*
G01X87434D02*
Y38841D01*
X87746Y38206D01*
Y38841D01*
G01X88000Y38206D02*
Y38841D01*
X88135D01*
X88189Y38809D01*
X88230Y38767D01*
X88264Y38703D01*
X88291Y38629D01*
X88298Y38523D01*
X88291Y38418D01*
X88264Y38343D01*
X88230Y38280D01*
X88189Y38238D01*
X88135Y38206D01*
X88000D01*
G01X88559Y38841D02*
Y38386D01*
X88586Y38290D01*
X88640Y38227D01*
X88708Y38206D01*
X88775Y38227D01*
X88830Y38290D01*
X88857Y38386D01*
Y38841D01*
G01X89415Y38788D02*
X89375Y38820D01*
X89327Y38841D01*
X89273D01*
X89212Y38809D01*
X89165Y38756D01*
X89131Y38693D01*
X89104Y38587D01*
X89097Y38492D01*
X89111Y38396D01*
X89131Y38333D01*
X89172Y38269D01*
X89219Y38227D01*
X89266Y38206D01*
X89314D01*
X89361Y38227D01*
X89402Y38259D01*
X89436Y38301D01*
G01X89825Y38841D02*
Y38206D01*
G01X89669Y38841D02*
X89981D01*
G01X90384Y38206D02*
X90330Y38216D01*
X90282Y38259D01*
X90242Y38322D01*
X90215Y38396D01*
X90201Y38481D01*
Y38566D01*
X90215Y38650D01*
X90242Y38724D01*
X90282Y38788D01*
X90330Y38830D01*
X90384Y38841D01*
X90438Y38830D01*
X90486Y38788D01*
X90526Y38724D01*
X90553Y38650D01*
X90567Y38566D01*
Y38481D01*
X90553Y38396D01*
X90526Y38322D01*
X90486Y38259D01*
X90438Y38216D01*
X90384Y38206D01*
G01X90807D02*
Y38841D01*
X90977D01*
X91031Y38809D01*
X91065Y38767D01*
X91078Y38682D01*
X91065Y38597D01*
X91024Y38544D01*
X90977Y38513D01*
X90807D01*
G01X90977D02*
X91078Y38206D01*
G01X91972Y38418D02*
X92148D01*
G01X93327Y38788D02*
X93286Y38820D01*
X93239Y38841D01*
X93185D01*
X93124Y38809D01*
X93076Y38756D01*
X93042Y38693D01*
X93015Y38587D01*
X93009Y38492D01*
X93022Y38396D01*
X93042Y38333D01*
X93083Y38269D01*
X93131Y38227D01*
X93178Y38206D01*
X93225D01*
X93273Y38227D01*
X93314Y38259D01*
X93347Y38301D01*
G01X93737Y38206D02*
X93683Y38216D01*
X93635Y38259D01*
X93595Y38322D01*
X93568Y38396D01*
X93554Y38481D01*
Y38566D01*
X93568Y38650D01*
X93595Y38724D01*
X93635Y38788D01*
X93683Y38830D01*
X93737Y38841D01*
X93791Y38830D01*
X93838Y38788D01*
X93879Y38724D01*
X93906Y38650D01*
X93920Y38566D01*
Y38481D01*
X93906Y38396D01*
X93879Y38322D01*
X93838Y38259D01*
X93791Y38216D01*
X93737Y38206D01*
G01X94160D02*
Y38841D01*
X94323D01*
X94377Y38809D01*
X94418Y38735D01*
X94431Y38650D01*
X94418Y38566D01*
X94384Y38502D01*
X94323Y38470D01*
X94160D01*
G01X94719Y38206D02*
Y38841D01*
X94882D01*
X94936Y38809D01*
X94976Y38735D01*
X94990Y38650D01*
X94976Y38566D01*
X94942Y38502D01*
X94882Y38470D01*
X94719D01*
G01X95549Y38206D02*
X95278D01*
Y38841D01*
X95549D01*
G01X95440Y38534D02*
X95278D01*
G01X95836Y38206D02*
Y38841D01*
X96006D01*
X96060Y38809D01*
X96094Y38767D01*
X96108Y38682D01*
X96094Y38597D01*
X96053Y38544D01*
X96006Y38513D01*
X95836D01*
G01X96006D02*
X96108Y38206D01*
G01X97090Y38841D02*
X97035Y38820D01*
X96995Y38767D01*
X96968Y38703D01*
X96947Y38618D01*
X96941Y38523D01*
X96947Y38428D01*
X96968Y38343D01*
X96995Y38280D01*
X97035Y38227D01*
X97090Y38206D01*
X97144Y38227D01*
X97184Y38280D01*
X97212Y38343D01*
X97232Y38428D01*
X97239Y38523D01*
X97232Y38618D01*
X97212Y38703D01*
X97184Y38767D01*
X97144Y38820D01*
X97090Y38841D01*
G01X97648Y38185D02*
X97635Y38195D01*
Y38216D01*
X97648Y38227D01*
X97662Y38216D01*
Y38195D01*
X97648Y38185D01*
G01X98207Y38841D02*
X98153Y38820D01*
X98112Y38767D01*
X98085Y38703D01*
X98065Y38618D01*
X98058Y38523D01*
X98065Y38428D01*
X98085Y38343D01*
X98112Y38280D01*
X98153Y38227D01*
X98207Y38206D01*
X98261Y38227D01*
X98302Y38280D01*
X98329Y38343D01*
X98349Y38428D01*
X98356Y38523D01*
X98349Y38618D01*
X98329Y38703D01*
X98302Y38767D01*
X98261Y38820D01*
X98207Y38841D01*
G01X98617Y38333D02*
X98658Y38259D01*
X98712Y38216D01*
X98773Y38206D01*
X98827Y38216D01*
X98881Y38269D01*
X98915Y38333D01*
X98922Y38396D01*
X98908Y38470D01*
X98861Y38523D01*
X98813Y38544D01*
X98752D01*
G01X98813D02*
X98854Y38576D01*
X98888Y38629D01*
X98902Y38693D01*
X98888Y38756D01*
X98854Y38809D01*
X98793Y38841D01*
X98732Y38830D01*
X98671Y38788D01*
G01X99325Y38841D02*
X99271Y38820D01*
X99230Y38767D01*
X99203Y38703D01*
X99183Y38618D01*
X99176Y38523D01*
X99183Y38428D01*
X99203Y38343D01*
X99230Y38280D01*
X99271Y38227D01*
X99325Y38206D01*
X99379Y38227D01*
X99420Y38280D01*
X99447Y38343D01*
X99467Y38428D01*
X99474Y38523D01*
X99467Y38618D01*
X99447Y38703D01*
X99420Y38767D01*
X99379Y38820D01*
X99325Y38841D01*
G01X99735Y38301D02*
X99775Y38248D01*
X99823Y38216D01*
X99884Y38206D01*
X99945Y38227D01*
X99992Y38269D01*
X100026Y38343D01*
X100033Y38428D01*
X100019Y38513D01*
X99985Y38566D01*
X99938Y38608D01*
X99890Y38618D01*
X99843Y38608D01*
X99782Y38566D01*
X99802Y38841D01*
X99985D01*
G01X100825Y38206D02*
Y38841D01*
X101001Y38312D01*
X101177Y38841D01*
Y38206D01*
G01X101384D02*
Y38841D01*
X101560Y38312D01*
X101736Y38841D01*
Y38206D01*
G01X68246Y60369D02*
Y63544D01*
X69191D01*
X69506Y63385D01*
X69742Y63015D01*
X69821Y62592D01*
X69742Y62168D01*
X69546Y61851D01*
X69191Y61692D01*
X68246D01*
G01X71396Y63544D02*
Y60369D01*
X72971D01*
G01X74349D02*
X75333Y63544D01*
X76317Y60369D01*
G01X75963Y61480D02*
X74703D01*
G01X78482Y63544D02*
Y60369D01*
G01X77577Y63544D02*
X79388D01*
G01X82420Y60369D02*
X80845D01*
Y63544D01*
X82420D01*
G01X81790Y62010D02*
X80845D01*
G01X83916Y60369D02*
Y63544D01*
X84703D01*
X85018Y63385D01*
X85254Y63174D01*
X85451Y62856D01*
X85608Y62486D01*
X85648Y61956D01*
X85608Y61427D01*
X85451Y61057D01*
X85254Y60739D01*
X85018Y60528D01*
X84703Y60369D01*
X83916D01*
G01X66000Y39052D02*
Y47587D01*
X81240D01*
Y39052D01*
X66000D01*
G01X68246Y67900D02*
Y71075D01*
X69191D01*
X69506Y70916D01*
X69742Y70546D01*
X69821Y70123D01*
X69742Y69699D01*
X69546Y69382D01*
X69191Y69223D01*
X68246D01*
G01X71396Y71075D02*
Y67900D01*
X72971D01*
G01X74349D02*
X75333Y71075D01*
X76317Y67900D01*
G01X75963Y69011D02*
X74703D01*
G01X78482Y71075D02*
Y67900D01*
G01X77577Y71075D02*
X79388D01*
G01X82420Y67900D02*
X80845D01*
Y71075D01*
X82420D01*
G01X81790Y69541D02*
X80845D01*
G01X83916Y67900D02*
Y71075D01*
X84703D01*
X85018Y70916D01*
X85254Y70705D01*
X85451Y70387D01*
X85608Y70017D01*
X85648Y69488D01*
X85608Y68958D01*
X85451Y68588D01*
X85254Y68270D01*
X85018Y68059D01*
X84703Y67900D01*
X83916D01*
G01X98876Y60845D02*
X99112Y60581D01*
X99388Y60422D01*
X99742Y60369D01*
X100097Y60475D01*
X100372Y60686D01*
X100569Y61057D01*
X100608Y61480D01*
X100530Y61904D01*
X100333Y62168D01*
X100057Y62380D01*
X99782Y62433D01*
X99506Y62380D01*
X99152Y62168D01*
X99270Y63544D01*
X100333D01*
G01X102026Y60845D02*
X102262Y60581D01*
X102538Y60422D01*
X102892Y60369D01*
X103246Y60475D01*
X103522Y60686D01*
X103719Y61057D01*
X103758Y61480D01*
X103679Y61904D01*
X103482Y62168D01*
X103207Y62380D01*
X102931Y62433D01*
X102656Y62380D01*
X102301Y62168D01*
X102420Y63544D01*
X103482D01*
G01X105175Y60845D02*
X105412Y60581D01*
X105687Y60422D01*
X106042Y60369D01*
X106396Y60475D01*
X106671Y60686D01*
X106868Y61057D01*
X106908Y61480D01*
X106829Y61904D01*
X106632Y62168D01*
X106356Y62380D01*
X106081Y62433D01*
X105805Y62380D01*
X105451Y62168D01*
X105569Y63544D01*
X106632D01*
G01X93049Y72663D02*
Y58388D01*
G01X99742Y67900D02*
X99427Y67953D01*
X99152Y68165D01*
X98916Y68482D01*
X98758Y68853D01*
X98679Y69276D01*
Y69699D01*
X98758Y70123D01*
X98916Y70493D01*
X99152Y70810D01*
X99427Y71022D01*
X99742Y71075D01*
X100057Y71022D01*
X100333Y70810D01*
X100569Y70493D01*
X100727Y70123D01*
X100805Y69699D01*
Y69276D01*
X100727Y68853D01*
X100569Y68482D01*
X100333Y68165D01*
X100057Y67953D01*
X99742Y67900D01*
G01X100057Y68747D02*
X100530Y67900D01*
G01X102892Y71075D02*
Y67900D01*
G01X101986Y71075D02*
X103797D01*
G01X106042Y67900D02*
Y69329D01*
X105254Y71075D01*
G01X106829D02*
X106042Y69329D01*
M02*
