G04 ================== begin FILE IDENTIFICATION RECORD ==================*
G04 Layout Name:  2017-03-26_LED-Panel_G4_V1.brd*
G04 Film Name:    Assembly*
G04 File Format:  Gerber RS274X*
G04 File Origin:  Cadence Allegro 17.4-S007*
G04 Origin Date:  Wed Nov 11 00:32:14 2020*
G04 *
G04 Layer:  MANUFACTURING/PHOTOPLOT_OUTLINE*
G04 Layer:  MANUFACTURING/NO_GLOSS_ALL*
G04 Layer:  MANUFACTURING/NO_GLOSS_TOP*
G04 Layer:  MANUFACTURING/NO_GLOSS_BOTTOM*
G04 Layer:  MANUFACTURING/NO_GLOSS_INTERNAL*
G04 Layer:  MANUFACTURING/NCDRILL_LEGEND*
G04 Layer:  MANUFACTURING/NCDRILL_FIGURE*
G04 Layer:  MANUFACTURING/PROBE_TOP*
G04 Layer:  MANUFACTURING/PROBE_BOTTOM*
G04 Layer:  MANUFACTURING/AUTOSILK_TOP*
G04 Layer:  MANUFACTURING/AUTOSILK_BOTTOM*
G04 Layer:  MANUFACTURING/NO_PROBE_TOP*
G04 Layer:  MANUFACTURING/NO_PROBE_BOTTOM*
G04 Layer:  MANUFACTURING/XSECTION_CHART*
G04 Layer:  MANUFACTURING/NCLEGEND-1-6*
G04 Layer:  MANUFACTURING/NCLEGEND-1-4*
G04 Layer:  DRAWING FORMAT/OUTLINE*
G04 Layer:  DRAWING FORMAT/TITLE_BLOCK*
G04 Layer:  DRAWING FORMAT/TITLE_DATA*
G04 Layer:  DRAWING FORMAT/REVISION_BLOCK*
G04 Layer:  DRAWING FORMAT/REVISION_DATA*
G04 Layer:  BOARD GEOMETRY/OUTLINE*
G04 Layer:  BOARD GEOMETRY/PLATING_BAR*
G04 Layer:  BOARD GEOMETRY/ASSEMBLY_NOTES*
G04 Layer:  BOARD GEOMETRY/TOOLING_CORNERS*
G04 Layer:  BOARD GEOMETRY/DIMENSION*
G04 Layer:  BOARD GEOMETRY/PLACE_GRID_TOP*
G04 Layer:  BOARD GEOMETRY/PLACE_GRID_BOTTOM*
G04 Layer:  BOARD GEOMETRY/TOP_ROOM*
G04 Layer:  BOARD GEOMETRY/BOTTOM_ROOM*
G04 Layer:  BOARD GEOMETRY/BOTH_ROOMS*
G04 Layer:  BOARD GEOMETRY/SWITCH_AREA_TOP*
G04 Layer:  BOARD GEOMETRY/SWITCH_AREA_BOTTOM*
G04 Layer:  BOARD GEOMETRY/SILKSCREEN_BOTTOM*
G04 Layer:  BOARD GEOMETRY/ASSEMBLY_DETAIL*
G04 Layer:  BOARD GEOMETRY/SOLDERMASK_TOP*
G04 Layer:  BOARD GEOMETRY/SOLDERMASK_BOTTOM*
G04 Layer:  BOARD GEOMETRY/OFF_GRID_AREA*
G04 Layer:  BOARD GEOMETRY/WB_GUIDE_LINE*
G04 Layer:  BOARD GEOMETRY/NCROUTE_PATH*
G04 *
G04 Offset:    (0.0000 0.0000)*
G04 Mirror:    No*
G04 Mode:      Positive*
G04 Rotation:  0*
G04 FullContactRelief:  No*
G04 UndefLineWidth:     0.1000*
G04 ================== end FILE IDENTIFICATION RECORD ====================*
%FSLAX46Y46*MOMM*%
%IR0*IPPOS*OFA0.00000B0.00000*MIA0B0*SFA1.00000B1.00000*%
%AMMACRO11*
1,1,.1,.635,0.0*
20,1,.1,.635,0.0,.625353,-.110267,0.0*
1,1,.1,.625353,-.110267*
20,1,.1,.625353,-.110267,.596705,-.217183,0.0*
1,1,.1,.596705,-.217183*
20,1,.1,.596705,-.217183,.549926,-.3175,0.0*
1,1,.1,.549926,-.3175*
20,1,.1,.549926,-.3175,.486438,-.40817,0.0*
1,1,.1,.486438,-.40817*
20,1,.1,.486438,-.40817,.40817,-.486438,0.0*
1,1,.1,.40817,-.486438*
20,1,.1,.40817,-.486438,.3175,-.549926,0.0*
1,1,.1,.3175,-.549926*
20,1,.1,.3175,-.549926,.217183,-.596705,0.0*
1,1,.1,.217183,-.596705*
20,1,.1,.217183,-.596705,.110267,-.625353,0.0*
1,1,.1,.110267,-.625353*
20,1,.1,.110267,-.625353,0.0,-.635,0.0*
1,1,.1,0.0,-.635*
20,1,.1,0.0,-.635,-.110267,-.625353,0.0*
1,1,.1,-.110267,-.625353*
20,1,.1,-.110267,-.625353,-.217183,-.596705,0.0*
1,1,.1,-.217183,-.596705*
20,1,.1,-.217183,-.596705,-.3175,-.549926,0.0*
1,1,.1,-.3175,-.549926*
20,1,.1,-.3175,-.549926,-.40817,-.486438,0.0*
1,1,.1,-.40817,-.486438*
20,1,.1,-.40817,-.486438,-.486438,-.40817,0.0*
1,1,.1,-.486438,-.40817*
20,1,.1,-.486438,-.40817,-.549926,-.3175,0.0*
1,1,.1,-.549926,-.3175*
20,1,.1,-.549926,-.3175,-.596705,-.217183,0.0*
1,1,.1,-.596705,-.217183*
20,1,.1,-.596705,-.217183,-.625353,-.110267,0.0*
1,1,.1,-.625353,-.110267*
20,1,.1,-.625353,-.110267,-.635,0.0,0.0*
1,1,.1,-.635,0.0*
20,1,.1,-.635,0.0,-.625353,.110267,0.0*
1,1,.1,-.625353,.110267*
20,1,.1,-.625353,.110267,-.596705,.217183,0.0*
1,1,.1,-.596705,.217183*
20,1,.1,-.596705,.217183,-.549926,.3175,0.0*
1,1,.1,-.549926,.3175*
20,1,.1,-.549926,.3175,-.486438,.40817,0.0*
1,1,.1,-.486438,.40817*
20,1,.1,-.486438,.40817,-.40817,.486438,0.0*
1,1,.1,-.40817,.486438*
20,1,.1,-.40817,.486438,-.3175,.549926,0.0*
1,1,.1,-.3175,.549926*
20,1,.1,-.3175,.549926,-.217183,.596705,0.0*
1,1,.1,-.217183,.596705*
20,1,.1,-.217183,.596705,-.110267,.625353,0.0*
1,1,.1,-.110267,.625353*
20,1,.1,-.110267,.625353,0.0,.635,0.0*
1,1,.1,0.0,.635*
20,1,.1,0.0,.635,.110267,.625353,0.0*
1,1,.1,.110267,.625353*
20,1,.1,.110267,.625353,.217183,.596705,0.0*
1,1,.1,.217183,.596705*
20,1,.1,.217183,.596705,.3175,.549926,0.0*
1,1,.1,.3175,.549926*
20,1,.1,.3175,.549926,.40817,.486438,0.0*
1,1,.1,.40817,.486438*
20,1,.1,.40817,.486438,.486438,.40817,0.0*
1,1,.1,.486438,.40817*
20,1,.1,.486438,.40817,.549926,.3175,0.0*
1,1,.1,.549926,.3175*
20,1,.1,.549926,.3175,.596705,.217183,0.0*
1,1,.1,.596705,.217183*
20,1,.1,.596705,.217183,.625353,.110267,0.0*
1,1,.1,.625353,.110267*
20,1,.1,.625353,.110267,.635,0.0,0.0*
1,1,.1,.635,0.0*
1,1,.1,.3175,0.0*
20,1,.1,.3175,0.0,-.3175,0.0,0.0*
1,1,.1,-.3175,0.0*
1,1,.1,0.0,.3175*
20,1,.1,0.0,.3175,0.0,-.3175,0.0*
1,1,.1,0.0,-.3175*
%
%ADD11MACRO11*%
%AMMACRO10*
1,1,.1,0.0,.2*
20,1,.1,0.0,.2,.173205,-.1,0.0*
1,1,.1,.173205,-.1*
20,1,.1,.173205,-.1,-.173205,-.1,0.0*
1,1,.1,-.173205,-.1*
20,1,.1,-.173205,-.1,0.0,.2,0.0*
1,1,.1,0.0,.2*
%
%ADD10MACRO10*%
%ADD12C,.1*%
G75*
%LPD*%
G75*
G36*
G01X71080000Y48867800D02*
Y47586800D01*
X71715000D01*
Y-209200D01*
X71080000D01*
Y-1490200D01*
X74890000D01*
Y-209200D01*
X74255000D01*
Y47586800D01*
X74890000D01*
Y48867800D01*
X71080000D01*
G37*
G36*
G01X66000000Y-1490200D02*
Y-209200D01*
X81240000D01*
Y-1490200D01*
X66000000D01*
G37*
G36*
G01Y8325200D02*
Y9606200D01*
X81240000D01*
Y8325200D01*
X66000000D01*
G37*
G36*
G01Y18140600D02*
Y19421600D01*
X81240000D01*
Y18140600D01*
X66000000D01*
G37*
G36*
G01Y27956000D02*
Y29237000D01*
X81240000D01*
Y27956000D01*
X66000000D01*
G37*
G36*
G01Y37771400D02*
Y39052400D01*
X81240000D01*
Y37771400D01*
X66000000D01*
G37*
G36*
G01Y47586800D02*
Y48867800D01*
X81240000D01*
Y47586800D01*
X66000000D01*
G37*
G54D10*
X2000000Y499200D03*
D03*
Y2999200D03*
D03*
Y5499200D03*
D03*
Y7999200D03*
D03*
X1093400Y10406600D03*
D03*
X1999100Y12215100D03*
D03*
X2000000Y10499200D03*
D03*
X1874400Y14839000D03*
D03*
X2000000Y12999200D03*
D03*
Y15499200D03*
D03*
X1087400Y18750000D03*
D03*
X2000000Y17999200D03*
D03*
X1086600Y21250000D03*
D03*
X2000000Y20100000D03*
D03*
Y21994400D03*
D03*
X1643600Y25229800D03*
D03*
X1255600Y23750000D03*
D03*
X1908200Y27769800D03*
D03*
X1255600Y26250000D03*
D03*
Y28750000D03*
D03*
Y31250000D03*
D03*
X2499200Y31999200D03*
D03*
X1255600Y33750000D03*
D03*
X1875000Y35000000D03*
D03*
X2000000Y36994400D03*
D03*
Y39494400D03*
D03*
X4500000Y499200D03*
D03*
Y2999200D03*
D03*
Y5499200D03*
D03*
Y7999200D03*
D03*
X3600000Y12000000D03*
D03*
X4500000Y10499200D03*
D03*
X3736200Y14463800D03*
D03*
X3463800Y15463800D03*
D03*
X3905000Y14963800D03*
D03*
X4500000Y12999200D03*
D03*
X3742800Y18750000D03*
D03*
X4500000Y17000800D03*
D03*
Y17999200D03*
D03*
X3637800Y19462200D03*
D03*
X4500000Y21994400D03*
D03*
X3124000Y19962200D03*
D03*
X3748800Y20462200D03*
D03*
X3592600Y22492800D03*
D03*
X5500000Y23114000D03*
D03*
X4500000Y23005600D03*
D03*
X3755600Y26250000D03*
D03*
X3700000Y29500000D03*
D03*
X3592600Y30334200D03*
D03*
X4500000Y29494400D03*
D03*
X3213600Y34613600D03*
D03*
X5467000Y31999200D03*
D03*
X3574400Y32627600D03*
D03*
X4500000Y31835000D03*
D03*
X3755600Y33750000D03*
D03*
X3592600Y35113600D03*
D03*
X4500000Y36994400D03*
D03*
Y39494400D03*
D03*
X7000000Y499200D03*
D03*
Y2999200D03*
D03*
Y5499200D03*
D03*
Y7999200D03*
D03*
X8000000Y9600000D03*
D03*
X8600000D03*
D03*
X7000000Y10499200D03*
D03*
X6336200Y14463800D03*
D03*
X6716600Y14963800D03*
D03*
X6248000Y15463800D03*
D03*
X7000000Y12999200D03*
D03*
X6085800Y18750000D03*
D03*
X8741200D03*
D03*
X8700000Y17000000D03*
D03*
X6200000D03*
D03*
X7000000Y17000800D03*
D03*
Y17999200D03*
D03*
X6337800Y19462200D03*
D03*
X8800000Y20600000D03*
D03*
X7000000Y21994400D03*
D03*
X8747200Y19962200D03*
D03*
X5935600D03*
D03*
X6560400Y20462200D03*
D03*
X8591000Y24054800D03*
D03*
X8500000Y22500000D03*
D03*
X5900000Y22200000D03*
D03*
X7000000Y23005600D03*
D03*
X8755600Y26250000D03*
D03*
X6255600D03*
D03*
X6400000Y29600000D03*
D03*
X6404200Y30302800D03*
D03*
X7000000Y29494400D03*
D03*
X6613600Y34613600D03*
D03*
X8278600Y31999200D03*
D03*
X6542200Y32627600D03*
D03*
X5935600Y32958200D03*
D03*
X7000000Y32148200D03*
D03*
X8755600Y33750000D03*
D03*
X6255600D03*
D03*
X6250000Y37500000D03*
D03*
X8750000Y36875000D03*
D03*
X6078600Y35113600D03*
D03*
X7000000Y36994400D03*
D03*
Y39494400D03*
D03*
X12000000Y499200D03*
D03*
X9500000D03*
D03*
X12000000Y2999200D03*
D03*
X9500000D03*
D03*
X11800000Y4800000D03*
D03*
X12000000Y5499200D03*
D03*
X9500000D03*
D03*
X12000000Y7999200D03*
D03*
X9500000D03*
D03*
X10600000Y10400000D03*
D03*
X9200000Y9600000D03*
D03*
X9800000D03*
D03*
X12000000Y10499200D03*
D03*
X9500000D03*
D03*
X9400000Y14600000D03*
D03*
X11200000Y13200000D03*
D03*
X8903400Y14963800D03*
D03*
X12000000Y12999200D03*
D03*
X9500000D03*
D03*
X9215800Y15463800D03*
D03*
X10900000Y17300000D03*
D03*
X11200000Y18200000D03*
D03*
X12000000Y17000800D03*
D03*
X9500000D03*
D03*
X12000000Y17999200D03*
D03*
X9500000D03*
D03*
X10500000Y19334200D03*
D03*
X9400000Y19600000D03*
D03*
X10600000Y20100000D03*
D03*
X12000000Y20505600D03*
D03*
X9500000Y21994400D03*
D03*
X11715000Y19962200D03*
D03*
X9372000Y20462200D03*
D03*
X11090200Y24523400D03*
D03*
X11000000Y22900000D03*
D03*
X12000000Y24339800D03*
D03*
X9500000Y23100000D03*
D03*
X11246400Y26397800D03*
D03*
X12000000Y26995200D03*
D03*
X9000000Y29700000D03*
D03*
X9059600Y30334200D03*
D03*
X9500000Y29494400D03*
D03*
X12000000D03*
D03*
X9713600Y34613600D03*
D03*
X11402600Y31999200D03*
D03*
X12000000Y31993600D03*
D03*
X8903400Y32958200D03*
D03*
X12000000Y32985600D03*
D03*
X11246400Y32958200D03*
D03*
X12014200Y35113600D03*
D03*
X9046400D03*
D03*
X12000000Y36994400D03*
D03*
X9500000D03*
D03*
X12000000Y39494400D03*
D03*
X9500000D03*
D03*
X14214200Y2655400D03*
D03*
X14500000Y499200D03*
D03*
X15000000Y5300000D03*
D03*
X14500000Y4500800D03*
D03*
Y5499200D03*
D03*
X13745600Y6876400D03*
D03*
X13589400Y7501200D03*
D03*
X14900000Y12300000D03*
D03*
X14500000Y9500800D03*
D03*
Y10499200D03*
D03*
X14995200Y14711800D03*
D03*
X13600000Y14700000D03*
D03*
X12339800Y14963800D03*
D03*
X14500000Y12999200D03*
D03*
Y15490400D03*
D03*
X13745600Y16401000D03*
D03*
X14500000Y17999200D03*
D03*
X13500000Y19700000D03*
D03*
X14995200Y19681200D03*
D03*
X14500000Y20505600D03*
D03*
X13700000Y22000000D03*
D03*
X13000000Y23000000D03*
D03*
X13750000Y24750000D03*
D03*
X13800000Y23200000D03*
D03*
X13600000Y27200000D03*
D03*
X12183600Y27959800D03*
D03*
X13754000Y26250000D03*
D03*
X13745600Y27959800D03*
D03*
X13800000Y29700000D03*
D03*
X14807500Y30490500D03*
D03*
X14214200Y30415600D03*
D03*
X12183600Y30334200D03*
D03*
X13750000Y34375000D03*
D03*
X13000000Y32900000D03*
D03*
X13800000Y32000000D03*
D03*
X13600000Y33000000D03*
D03*
X13900000Y34900000D03*
D03*
X13745600Y35497400D03*
D03*
X14370400Y35301200D03*
D03*
X12400000Y35500000D03*
D03*
X14500000Y36994400D03*
D03*
Y39494400D03*
D03*
X17000000Y2000000D03*
D03*
Y2999200D03*
D03*
X16244800Y5467000D03*
D03*
X16200000Y6900000D03*
D03*
X16244800Y12496000D03*
D03*
Y11871200D03*
D03*
X17000000Y9500800D03*
D03*
Y10499200D03*
D03*
X16084200Y13750000D03*
D03*
X16400000Y15100000D03*
D03*
X17000000Y12999200D03*
D03*
Y15489600D03*
D03*
X16244800Y16557200D03*
D03*
X16000000Y17700000D03*
D03*
X17000000Y17999200D03*
D03*
X18200000Y20381400D03*
D03*
X17700000Y20100000D03*
D03*
X16869600Y20462200D03*
D03*
X16600000Y25000000D03*
D03*
X16000000D03*
D03*
X17200000D03*
D03*
X16000000Y24500000D03*
D03*
X16600000D03*
D03*
X17200000D03*
D03*
X16000000Y23000000D03*
D03*
X17200000D03*
D03*
X15307600Y22336600D03*
D03*
X16557200Y27803600D03*
D03*
X17650600Y27491200D03*
D03*
X17200000Y27785600D03*
D03*
X16244800Y30459000D03*
D03*
X17338200Y30302800D03*
D03*
X17494400Y29521800D03*
D03*
X18275400Y30459000D03*
D03*
X18300000Y34600000D03*
D03*
X18200000Y33000000D03*
D03*
X16000000Y32000000D03*
D03*
X16600000Y34800000D03*
D03*
X18290000Y35450000D03*
D03*
X17000000Y36994400D03*
D03*
X18275400Y37488000D03*
D03*
X17963000Y39674800D03*
D03*
X17000000Y39494400D03*
D03*
X20618400Y2030600D03*
D03*
X19700000Y2477800D03*
D03*
X20200000Y2821600D03*
D03*
X21243200Y624800D03*
D03*
X20462200Y468600D03*
D03*
X18744000Y2655400D03*
D03*
X19100000Y5000000D03*
D03*
X19600000D03*
D03*
X20100000D03*
D03*
X19100000Y5500000D03*
D03*
X19600000D03*
D03*
X20100000D03*
D03*
X19100000Y7000000D03*
D03*
X19600000D03*
D03*
X20200000D03*
D03*
X19700000Y7828800D03*
D03*
X21243200Y10465400D03*
D03*
X21200000Y9769800D03*
D03*
X20700000Y10234600D03*
D03*
X20200000Y9790400D03*
D03*
X19984800Y12643400D03*
D03*
X19056400Y12652200D03*
D03*
X19681200Y9528200D03*
D03*
X19500000Y12183600D03*
D03*
X18619300Y15307600D03*
D03*
X21087000Y12808400D03*
D03*
X19500000Y12999200D03*
D03*
Y15488800D03*
D03*
X18738800Y16250000D03*
D03*
X21248400D03*
D03*
X18700000Y20662400D03*
D03*
X20099900Y19600100D03*
D03*
X19500000Y20487200D03*
D03*
X20493700Y20430700D03*
D03*
X21087000Y22180400D03*
D03*
X21399400Y22961400D03*
D03*
X19993600Y22180400D03*
D03*
X21300000Y24700000D03*
D03*
X20149800Y24835800D03*
D03*
Y22961400D03*
D03*
X19525000Y27959800D03*
D03*
X18744000Y28428400D03*
D03*
X19681200Y27178800D03*
D03*
X20149800Y25460600D03*
D03*
X18888200Y27178800D03*
D03*
X18431600Y27647400D03*
D03*
X20774600Y27335000D03*
D03*
X20149800Y27959800D03*
D03*
X20930800Y30459000D03*
D03*
Y29834200D03*
D03*
X20700000Y32102600D03*
D03*
X20900000Y33000000D03*
D03*
X20600000Y34500000D03*
D03*
X19100000Y33000000D03*
D03*
X20100000Y34500000D03*
D03*
X19600000D03*
D03*
X19100000D03*
D03*
X18431600Y32333400D03*
D03*
X20149800Y37488000D03*
D03*
X20462200Y37956600D03*
D03*
X19700000Y37156800D03*
D03*
X20600000Y35000000D03*
D03*
X20100000D03*
D03*
X19600000D03*
D03*
X19100000D03*
D03*
X21399400Y37956600D03*
D03*
X19525000Y39674800D03*
D03*
X18744000D03*
D03*
X21700000Y2667200D03*
D03*
X24500000Y499200D03*
D03*
X22000000D03*
D03*
X22336600Y2655400D03*
D03*
X24500000Y2999200D03*
D03*
X23742400Y1098200D03*
D03*
X23117600Y4529800D03*
D03*
X21804000Y4750000D03*
D03*
X23117600Y5154600D03*
D03*
X24500000Y5499200D03*
D03*
X24300000Y7100000D03*
D03*
X23176600Y7250000D03*
D03*
X23719800Y7750000D03*
D03*
X24500000Y7999200D03*
D03*
X22492800Y9840600D03*
D03*
X24200000Y12194600D03*
D03*
X22024200Y9528200D03*
D03*
X23273800Y9684400D03*
D03*
X21711800Y10153000D03*
D03*
X24500000Y10499200D03*
D03*
X23698800Y10153000D03*
D03*
X23700000Y12538400D03*
D03*
X22649000Y12496000D03*
D03*
X24700000Y12672600D03*
D03*
X21900000Y15500000D03*
D03*
X22400000D03*
D03*
X21900000Y15000000D03*
D03*
X22400000D03*
D03*
X23500000Y15500000D03*
D03*
Y15000000D03*
D03*
X23200000Y12821600D03*
D03*
X22649000Y17963000D03*
D03*
X24500000Y21994400D03*
D03*
X22649000Y19681200D03*
D03*
X21711800Y19837400D03*
D03*
X24700000Y20285600D03*
D03*
X24200000Y19769800D03*
D03*
X23700000Y20107400D03*
D03*
X23200000Y19769800D03*
D03*
X22492800Y22961400D03*
D03*
X24500000Y24494400D03*
D03*
X22000000D03*
D03*
Y22624800D03*
D03*
X24500000Y26994400D03*
D03*
X22000000D03*
D03*
X24500000Y29494400D03*
D03*
X22000000D03*
D03*
X22180400Y30302800D03*
D03*
X23742400Y33114400D03*
D03*
X21711800Y34676400D03*
D03*
X24500000Y32645800D03*
D03*
X21711800Y32333400D03*
D03*
X24500000Y31994400D03*
D03*
X23190400Y32250000D03*
D03*
X21711800Y32897600D03*
D03*
X23250300Y32825500D03*
D03*
X23300000Y34500000D03*
D03*
X23900000Y35500000D03*
D03*
X24054800Y37800400D03*
D03*
X24679600Y37644200D03*
D03*
X22180400D03*
D03*
X22768000Y39504000D03*
D03*
X27000000Y2000000D03*
D03*
X25067800Y2967800D03*
D03*
X26397800Y2467800D03*
D03*
X27022600Y312400D03*
D03*
X27000000Y2999200D03*
D03*
X27600000Y5200000D03*
D03*
X26241600Y4529800D03*
D03*
X27000000Y5499200D03*
D03*
X27178800Y4686000D03*
D03*
X25900000Y7000000D03*
D03*
X26554000Y7466200D03*
D03*
X27000000Y7999200D03*
D03*
Y10499200D03*
D03*
X26241600Y14682800D03*
D03*
X27000000Y15000000D03*
D03*
X25148200Y12964600D03*
D03*
X27000000Y12999200D03*
D03*
X26397800Y15307600D03*
D03*
X26176600Y17250000D03*
D03*
X26719800Y17750000D03*
D03*
X27000000Y21994400D03*
D03*
X26241600Y19993600D03*
D03*
X27000000Y24494400D03*
D03*
X26600000Y28000000D03*
D03*
X27000000Y26994400D03*
D03*
X27171800Y30153600D03*
D03*
X27000000Y29494400D03*
D03*
X27600000Y29800000D03*
D03*
X25054800Y30083800D03*
D03*
X27000000Y32802000D03*
D03*
Y31994400D03*
D03*
X26100000Y33000000D03*
D03*
X26241600Y31864800D03*
D03*
X27178800Y34520200D03*
D03*
X26554000Y35113600D03*
D03*
X27022600Y35457400D03*
D03*
X24992000Y35145000D03*
D03*
X26241600Y36394600D03*
D03*
X26554000Y37956600D03*
D03*
X27000000Y37621600D03*
D03*
X30597000Y403000D03*
D03*
X29521800Y2467800D03*
D03*
X29500000Y499200D03*
D03*
Y2999200D03*
D03*
X28584600Y781000D03*
D03*
X30100000Y5300000D03*
D03*
X28600000Y4500000D03*
D03*
X29500000Y5499200D03*
D03*
X29834200Y4686000D03*
D03*
X28900000Y7000000D03*
D03*
X29365600Y7466200D03*
D03*
X30300000Y7999200D03*
D03*
X30600000Y7300000D03*
D03*
X28800000Y12200000D03*
D03*
X28803200Y9996800D03*
D03*
X29500000Y10499200D03*
D03*
Y12999200D03*
D03*
X28000000Y15400000D03*
D03*
X29500000Y15499200D03*
D03*
Y17999200D03*
D03*
Y20505600D03*
D03*
Y23005600D03*
D03*
X28584600Y25304400D03*
D03*
X29000000Y28000000D03*
D03*
X29521800Y30185000D03*
D03*
X29500000Y29494400D03*
D03*
X30000000Y29800000D03*
D03*
X29834200Y34676400D03*
D03*
X29500000Y31994400D03*
D03*
X28740800Y31708600D03*
D03*
X29365600Y35113600D03*
D03*
X30500000Y37956600D03*
D03*
X28740800Y36394600D03*
D03*
X29053200Y37956600D03*
D03*
Y37331800D03*
D03*
X32512000Y2032000D03*
D03*
X32567800Y2967800D03*
D03*
X32177200Y2467800D03*
D03*
X32000000Y499200D03*
D03*
X33739200Y937200D03*
D03*
X31174200Y715200D03*
D03*
X33765500Y5500000D03*
D03*
X34051600Y4998400D03*
D03*
X31240000Y5000000D03*
D03*
X32500000Y5400000D03*
D03*
X32800000Y7000000D03*
D03*
X32566200Y7966200D03*
D03*
X32177200Y7466200D03*
D03*
X32000000Y10499200D03*
D03*
Y12999200D03*
D03*
Y15499200D03*
D03*
Y17999200D03*
D03*
Y20505600D03*
D03*
Y23005600D03*
D03*
X31280100Y27769800D03*
D03*
X33747600Y26250000D03*
D03*
X31248400D03*
D03*
X32489600Y30185000D03*
D03*
X32000000Y29494400D03*
D03*
X33500000Y29500000D03*
D03*
X31240000Y29678000D03*
D03*
X33739200Y33739200D03*
D03*
X32000000Y32979200D03*
D03*
Y31994400D03*
D03*
X32645800Y34676400D03*
D03*
X31275000Y34100000D03*
D03*
X31083800Y32489600D03*
D03*
X33739200Y31708600D03*
D03*
X32177200Y35113600D03*
D03*
X31400000Y37600000D03*
D03*
X33000000Y37956600D03*
D03*
X33739200Y36394600D03*
D03*
X31240000Y36238400D03*
D03*
X32000000Y37976000D03*
D03*
Y36994400D03*
D03*
X36830000Y2159000D03*
D03*
X35132200Y2967800D03*
D03*
X34832600Y2467800D03*
D03*
X37000000Y499200D03*
D03*
X34500000D03*
D03*
X37000000Y2999200D03*
D03*
X36465500Y5500000D03*
D03*
X37000000Y5499200D03*
D03*
X34440100Y4540100D03*
D03*
X37000000Y7100000D03*
D03*
X35266200Y7966200D03*
D03*
X34988800Y7466200D03*
D03*
X37000000Y7999200D03*
D03*
X34500000Y8100000D03*
D03*
X37000000Y10499200D03*
D03*
X34500000D03*
D03*
Y12999200D03*
D03*
X37000000D03*
D03*
X34500000Y15499200D03*
D03*
X37000000D03*
D03*
Y17999200D03*
D03*
X34500000D03*
D03*
X37175600Y17182000D03*
D03*
X37000000Y20505600D03*
D03*
X34500000D03*
D03*
X35500000Y19600000D03*
D03*
X37000000Y23005600D03*
D03*
X34500000D03*
D03*
X34429800Y25229800D03*
D03*
X37000000Y27400000D03*
D03*
X36200000D03*
D03*
X37000000Y28000000D03*
D03*
X36200000D03*
D03*
X36246800Y26250000D03*
D03*
X35145000Y30028800D03*
D03*
X37331800Y30459000D03*
D03*
X37000000Y29494400D03*
D03*
X34500000D03*
D03*
X36700000Y30100000D03*
D03*
X37000000Y34494400D03*
D03*
X34500000Y31994400D03*
D03*
X37000000D03*
D03*
X36220200Y34220200D03*
D03*
X35500000Y37956600D03*
D03*
X37000000Y37976000D03*
D03*
X34500000D03*
D03*
X37000000Y36994400D03*
D03*
X34500000D03*
D03*
X39500000Y499200D03*
D03*
Y2999200D03*
D03*
Y5499200D03*
D03*
X38580200Y3750000D03*
D03*
X39500000Y7999200D03*
D03*
X38581400Y12339800D03*
D03*
X39500000Y10499200D03*
D03*
X38737600Y14837600D03*
D03*
X39500000Y12999200D03*
D03*
Y15499200D03*
D03*
X39362400Y18119200D03*
D03*
X39500000Y21994400D03*
D03*
Y24494400D03*
D03*
Y26994400D03*
D03*
Y29494400D03*
D03*
Y34494400D03*
D03*
Y31994400D03*
D03*
X38000000Y37956600D03*
D03*
X39500000Y36994400D03*
D03*
Y39494400D03*
D03*
G54D11*
X2000000Y499200D03*
Y2999200D03*
Y5499200D03*
Y7999200D03*
X1093400Y10406600D03*
X1999100Y12215100D03*
X2000000Y10499200D03*
X1874400Y14839000D03*
X2000000Y12999200D03*
Y15499200D03*
X1087400Y18750000D03*
X2000000Y17999200D03*
X1086600Y21250000D03*
X2000000Y20100000D03*
Y21994400D03*
X1643600Y25229800D03*
X1255600Y23750000D03*
X1908200Y27769800D03*
X1255600Y26250000D03*
Y28750000D03*
Y31250000D03*
X2499200Y31999200D03*
X1255600Y33750000D03*
X1875000Y35000000D03*
X2000000Y36994400D03*
Y39494400D03*
X1317300Y61956500D03*
X4500000Y499200D03*
Y2999200D03*
Y5499200D03*
Y7999200D03*
X3600000Y12000000D03*
X4500000Y10499200D03*
X3736200Y14463800D03*
X3463800Y15463800D03*
X3905000Y14963800D03*
X4500000Y12999200D03*
X3742800Y18750000D03*
X4500000Y17000800D03*
Y17999200D03*
X3637800Y19462200D03*
X4500000Y21994400D03*
X3124000Y19962200D03*
X3748800Y20462200D03*
X3592600Y22492800D03*
X5500000Y23114000D03*
X4500000Y23005600D03*
X3755600Y26250000D03*
X3700000Y29500000D03*
X3592600Y30334200D03*
X4500000Y29494400D03*
X3213600Y34613600D03*
X5467000Y31999200D03*
X3574400Y32627600D03*
X4500000Y31835000D03*
X3755600Y33750000D03*
X3592600Y35113600D03*
X4500000Y36994400D03*
Y39494400D03*
X7000000Y499200D03*
Y2999200D03*
Y5499200D03*
Y7999200D03*
X8000000Y9600000D03*
X8600000D03*
X7000000Y10499200D03*
X6336200Y14463800D03*
X6716600Y14963800D03*
X6248000Y15463800D03*
X7000000Y12999200D03*
X6085800Y18750000D03*
X8741200D03*
X8700000Y17000000D03*
X6200000D03*
X7000000Y17000800D03*
Y17999200D03*
X6337800Y19462200D03*
X8800000Y20600000D03*
X7000000Y21994400D03*
X8747200Y19962200D03*
X5935600D03*
X6560400Y20462200D03*
X8591000Y24054800D03*
X8500000Y22500000D03*
X5900000Y22200000D03*
X7000000Y23005600D03*
X8755600Y26250000D03*
X6255600D03*
X6400000Y29600000D03*
X6404200Y30302800D03*
X7000000Y29494400D03*
X6613600Y34613600D03*
X8278600Y31999200D03*
X6542200Y32627600D03*
X5935600Y32958200D03*
X7000000Y32148200D03*
X8755600Y33750000D03*
X6255600D03*
X6250000Y37500000D03*
X8750000Y36875000D03*
X6078600Y35113600D03*
X7000000Y36994400D03*
Y39494400D03*
X12000000Y499200D03*
X9500000D03*
X12000000Y2999200D03*
X9500000D03*
X11800000Y4800000D03*
X12000000Y5499200D03*
X9500000D03*
X12000000Y7999200D03*
X9500000D03*
X10600000Y10400000D03*
X9200000Y9600000D03*
X9800000D03*
X12000000Y10499200D03*
X9500000D03*
X9400000Y14600000D03*
X11200000Y13200000D03*
X8903400Y14963800D03*
X12000000Y12999200D03*
X9500000D03*
X9215800Y15463800D03*
X10900000Y17300000D03*
X11200000Y18200000D03*
X12000000Y17000800D03*
X9500000D03*
X12000000Y17999200D03*
X9500000D03*
X10500000Y19334200D03*
X9400000Y19600000D03*
X10600000Y20100000D03*
X12000000Y20505600D03*
X9500000Y21994400D03*
X11715000Y19962200D03*
X9372000Y20462200D03*
X11090200Y24523400D03*
X11000000Y22900000D03*
X12000000Y24339800D03*
X9500000Y23100000D03*
X11246400Y26397800D03*
X12000000Y26995200D03*
X9000000Y29700000D03*
X9059600Y30334200D03*
X9500000Y29494400D03*
X12000000D03*
X9713600Y34613600D03*
X11402600Y31999200D03*
X12000000Y31993600D03*
X8903400Y32958200D03*
X12000000Y32985600D03*
X11246400Y32958200D03*
X12014200Y35113600D03*
X9046400D03*
X12000000Y36994400D03*
X9500000D03*
X12000000Y39494400D03*
X9500000D03*
X14214200Y2655400D03*
X14500000Y499200D03*
X15000000Y5300000D03*
X14500000Y4500800D03*
Y5499200D03*
X13745600Y6876400D03*
X13589400Y7501200D03*
X14900000Y12300000D03*
X14500000Y9500800D03*
Y10499200D03*
X14995200Y14711800D03*
X13600000Y14700000D03*
X12339800Y14963800D03*
X14500000Y12999200D03*
Y15490400D03*
X13745600Y16401000D03*
X14500000Y17999200D03*
X13500000Y19700000D03*
X14995200Y19681200D03*
X14500000Y20505600D03*
X13700000Y22000000D03*
X13000000Y23000000D03*
X13750000Y24750000D03*
X13800000Y23200000D03*
X13600000Y27200000D03*
X12183600Y27959800D03*
X13754000Y26250000D03*
X13745600Y27959800D03*
X13800000Y29700000D03*
X14807500Y30490500D03*
X14214200Y30415600D03*
X12183600Y30334200D03*
X13750000Y34375000D03*
X13000000Y32900000D03*
X13800000Y32000000D03*
X13600000Y33000000D03*
X13900000Y34900000D03*
X13745600Y35497400D03*
X14370400Y35301200D03*
X12400000Y35500000D03*
X14500000Y36994400D03*
Y39494400D03*
X17000000Y2000000D03*
Y2999200D03*
X16244800Y5467000D03*
X16200000Y6900000D03*
X16244800Y12496000D03*
Y11871200D03*
X17000000Y9500800D03*
Y10499200D03*
X16084200Y13750000D03*
X16400000Y15100000D03*
X17000000Y12999200D03*
Y15489600D03*
X16244800Y16557200D03*
X16000000Y17700000D03*
X17000000Y17999200D03*
X18200000Y20381400D03*
X17700000Y20100000D03*
X16869600Y20462200D03*
X16600000Y25000000D03*
X16000000D03*
X17200000D03*
X16000000Y24500000D03*
X16600000D03*
X17200000D03*
X16000000Y23000000D03*
X17200000D03*
X15307600Y22336600D03*
X16557200Y27803600D03*
X17650600Y27491200D03*
X17200000Y27785600D03*
X16244800Y30459000D03*
X17338200Y30302800D03*
X17494400Y29521800D03*
X18275400Y30459000D03*
X18300000Y34600000D03*
X18200000Y33000000D03*
X16000000Y32000000D03*
X16600000Y34800000D03*
X18290000Y35450000D03*
X17000000Y36994400D03*
X18275400Y37488000D03*
X17963000Y39674800D03*
X17000000Y39494400D03*
X20618400Y2030600D03*
X19700000Y2477800D03*
X20200000Y2821600D03*
X21243200Y624800D03*
X20462200Y468600D03*
X18744000Y2655400D03*
X19100000Y5000000D03*
X19600000D03*
X20100000D03*
X19100000Y5500000D03*
X19600000D03*
X20100000D03*
X19100000Y7000000D03*
X19600000D03*
X20200000D03*
X19700000Y7828800D03*
X21243200Y10465400D03*
X21200000Y9769800D03*
X20700000Y10234600D03*
X20200000Y9790400D03*
X19984800Y12643400D03*
X19056400Y12652200D03*
X19681200Y9528200D03*
X19500000Y12183600D03*
X18619300Y15307600D03*
X21087000Y12808400D03*
X19500000Y12999200D03*
Y15488800D03*
X18738800Y16250000D03*
X21248400D03*
X18700000Y20662400D03*
X20099900Y19600100D03*
X19500000Y20487200D03*
X20493700Y20430700D03*
X21087000Y22180400D03*
X21399400Y22961400D03*
X19993600Y22180400D03*
X21300000Y24700000D03*
X20149800Y24835800D03*
Y22961400D03*
X19525000Y27959800D03*
X18744000Y28428400D03*
X19681200Y27178800D03*
X20149800Y25460600D03*
X18888200Y27178800D03*
X18431600Y27647400D03*
X20774600Y27335000D03*
X20149800Y27959800D03*
X20930800Y30459000D03*
Y29834200D03*
X20700000Y32102600D03*
X20900000Y33000000D03*
X20600000Y34500000D03*
X19100000Y33000000D03*
X20100000Y34500000D03*
X19600000D03*
X19100000D03*
X18431600Y32333400D03*
X20149800Y37488000D03*
X20462200Y37956600D03*
X19700000Y37156800D03*
X20600000Y35000000D03*
X20100000D03*
X19600000D03*
X19100000D03*
X21399400Y37956600D03*
X19525000Y39674800D03*
X18744000D03*
X21700000Y2667200D03*
X24500000Y499200D03*
X22000000D03*
X22336600Y2655400D03*
X24500000Y2999200D03*
X23742400Y1098200D03*
X23117600Y4529800D03*
X21804000Y4750000D03*
X23117600Y5154600D03*
X24500000Y5499200D03*
X24300000Y7100000D03*
X23176600Y7250000D03*
X23719800Y7750000D03*
X24500000Y7999200D03*
X22492800Y9840600D03*
X24200000Y12194600D03*
X22024200Y9528200D03*
X23273800Y9684400D03*
X21711800Y10153000D03*
X24500000Y10499200D03*
X23698800Y10153000D03*
X23700000Y12538400D03*
X22649000Y12496000D03*
X24700000Y12672600D03*
X21900000Y15500000D03*
X22400000D03*
X21900000Y15000000D03*
X22400000D03*
X23500000Y15500000D03*
Y15000000D03*
X23200000Y12821600D03*
X22649000Y17963000D03*
X24500000Y21994400D03*
X22649000Y19681200D03*
X21711800Y19837400D03*
X24700000Y20285600D03*
X24200000Y19769800D03*
X23700000Y20107400D03*
X23200000Y19769800D03*
X22492800Y22961400D03*
X24500000Y24494400D03*
X22000000D03*
Y22624800D03*
X24500000Y26994400D03*
X22000000D03*
X24500000Y29494400D03*
X22000000D03*
X22180400Y30302800D03*
X23742400Y33114400D03*
X21711800Y34676400D03*
X24500000Y32645800D03*
X21711800Y32333400D03*
X24500000Y31994400D03*
X23190400Y32250000D03*
X21711800Y32897600D03*
X23250300Y32825500D03*
X23300000Y34500000D03*
X23900000Y35500000D03*
X24054800Y37800400D03*
X24679600Y37644200D03*
X22180400D03*
X22768000Y39504000D03*
X27000000Y2000000D03*
X25067800Y2967800D03*
X26397800Y2467800D03*
X27022600Y312400D03*
X27000000Y2999200D03*
X27600000Y5200000D03*
X26241600Y4529800D03*
X27000000Y5499200D03*
X27178800Y4686000D03*
X25900000Y7000000D03*
X26554000Y7466200D03*
X27000000Y7999200D03*
Y10499200D03*
X26241600Y14682800D03*
X27000000Y15000000D03*
X25148200Y12964600D03*
X27000000Y12999200D03*
X26397800Y15307600D03*
X26176600Y17250000D03*
X26719800Y17750000D03*
X27000000Y21994400D03*
X26241600Y19993600D03*
X27000000Y24494400D03*
X26600000Y28000000D03*
X27000000Y26994400D03*
X27171800Y30153600D03*
X27000000Y29494400D03*
X27600000Y29800000D03*
X25054800Y30083800D03*
X27000000Y32802000D03*
Y31994400D03*
X26100000Y33000000D03*
X26241600Y31864800D03*
X27178800Y34520200D03*
X26554000Y35113600D03*
X27022600Y35457400D03*
X24992000Y35145000D03*
X26241600Y36394600D03*
X26554000Y37956600D03*
X27000000Y37621600D03*
X30597000Y403000D03*
X29521800Y2467800D03*
X29500000Y499200D03*
Y2999200D03*
X28584600Y781000D03*
X30100000Y5300000D03*
X28600000Y4500000D03*
X29500000Y5499200D03*
X29834200Y4686000D03*
X28900000Y7000000D03*
X29365600Y7466200D03*
X30300000Y7999200D03*
X30600000Y7300000D03*
X28800000Y12200000D03*
X28803200Y9996800D03*
X29500000Y10499200D03*
Y12999200D03*
X28000000Y15400000D03*
X29500000Y15499200D03*
Y17999200D03*
Y20505600D03*
Y23005600D03*
X28584600Y25304400D03*
X29000000Y28000000D03*
X29521800Y30185000D03*
X29500000Y29494400D03*
X30000000Y29800000D03*
X29834200Y34676400D03*
X29500000Y31994400D03*
X28740800Y31708600D03*
X29365600Y35113600D03*
X30500000Y37956600D03*
X28740800Y36394600D03*
X29053200Y37956600D03*
Y37331800D03*
X32512000Y2032000D03*
X32567800Y2967800D03*
X32177200Y2467800D03*
X32000000Y499200D03*
X33739200Y937200D03*
X31174200Y715200D03*
X33765500Y5500000D03*
X34051600Y4998400D03*
X31240000Y5000000D03*
X32500000Y5400000D03*
X32800000Y7000000D03*
X32566200Y7966200D03*
X32177200Y7466200D03*
X32000000Y10499200D03*
Y12999200D03*
Y15499200D03*
Y17999200D03*
Y20505600D03*
Y23005600D03*
X31280100Y27769800D03*
X33747600Y26250000D03*
X31248400D03*
X32489600Y30185000D03*
X32000000Y29494400D03*
X33500000Y29500000D03*
X31240000Y29678000D03*
X33739200Y33739200D03*
X32000000Y32979200D03*
Y31994400D03*
X32645800Y34676400D03*
X31275000Y34100000D03*
X31083800Y32489600D03*
X33739200Y31708600D03*
X32177200Y35113600D03*
X31400000Y37600000D03*
X33000000Y37956600D03*
X33739200Y36394600D03*
X31240000Y36238400D03*
X32000000Y37976000D03*
Y36994400D03*
X36830000Y2159000D03*
X35132200Y2967800D03*
X34832600Y2467800D03*
X37000000Y499200D03*
X34500000D03*
X37000000Y2999200D03*
X36465500Y5500000D03*
X37000000Y5499200D03*
X34440100Y4540100D03*
X37000000Y7100000D03*
X35266200Y7966200D03*
X34988800Y7466200D03*
X37000000Y7999200D03*
X34500000Y8100000D03*
X37000000Y10499200D03*
X34500000D03*
Y12999200D03*
X37000000D03*
X34500000Y15499200D03*
X37000000D03*
Y17999200D03*
X34500000D03*
X37175600Y17182000D03*
X37000000Y20505600D03*
X34500000D03*
X35500000Y19600000D03*
X37000000Y23005600D03*
X34500000D03*
X34429800Y25229800D03*
X37000000Y27400000D03*
X36200000D03*
X37000000Y28000000D03*
X36200000D03*
X36246800Y26250000D03*
X35145000Y30028800D03*
X37331800Y30459000D03*
X37000000Y29494400D03*
X34500000D03*
X36700000Y30100000D03*
X37000000Y34494400D03*
X34500000Y31994400D03*
X37000000D03*
X36220200Y34220200D03*
X35500000Y37956600D03*
X37000000Y37976000D03*
X34500000D03*
X37000000Y36994400D03*
X34500000D03*
X39500000Y499200D03*
Y2999200D03*
Y5499200D03*
X38580200Y3750000D03*
X39500000Y7999200D03*
X38581400Y12339800D03*
X39500000Y10499200D03*
X38737600Y14837600D03*
X39500000Y12999200D03*
Y15499200D03*
X39362400Y18119200D03*
X39500000Y21994400D03*
Y24494400D03*
Y26994400D03*
Y29494400D03*
Y34494400D03*
Y31994400D03*
X38000000Y37956600D03*
X39500000Y36994400D03*
Y39494400D03*
G54D12*
G01X-10100000Y58387800D02*
Y86300000D01*
X112734400D01*
Y58387800D01*
X-10100000D01*
G01Y65525200D02*
X112734400D01*
G01X-7304800Y67900100D02*
Y71075100D01*
X-5808600D01*
G01X-6359900Y69540600D02*
X-7304800D01*
G01X-3879500Y71075100D02*
X-2934700D01*
G01X-3407100D02*
Y67900100D01*
G01X-3879500D02*
X-2934700D01*
G01X-21300Y69487600D02*
X766200D01*
Y68535100D01*
X529900Y68217500D01*
X254300Y68005900D01*
X-139400Y67900100D01*
X-533100Y68005900D01*
X-808700Y68217500D01*
X-1044900Y68535100D01*
X-1202400Y68905500D01*
X-1281200Y69328800D01*
Y69699300D01*
X-1202400Y70016700D01*
X-1044900Y70387200D01*
X-808700Y70704700D01*
X-572500Y70916300D01*
X-257500Y71075100D01*
X18100D01*
X333000Y70969300D01*
X569300Y70757600D01*
G01X2026000Y71075100D02*
Y68799700D01*
X2183400Y68323300D01*
X2498400Y68005900D01*
X2892100Y67900100D01*
X3285800Y68005900D01*
X3600800Y68323300D01*
X3758200Y68799700D01*
Y71075100D01*
G01X5254300Y67900100D02*
Y71075100D01*
X6238500D01*
X6553500Y70916300D01*
X6750400Y70704700D01*
X6829100Y70281300D01*
X6750400Y69858000D01*
X6514100Y69593500D01*
X6238500Y69434600D01*
X5254300D01*
G01X6238500D02*
X6829100Y67900100D01*
G01X9978700D02*
X8403900D01*
Y71075100D01*
X9978700D01*
G01X9348800Y69540600D02*
X8403900D01*
G01X-10100000Y72662600D02*
X112734400D01*
G01X-10100000Y79800000D02*
X112734400D01*
G01X0Y-1400000D02*
X-2400000D01*
G01X-1200000Y-2600000D02*
Y-200000D01*
G01X-500000Y-1400000D02*
G03I-700000J0D01*
G01X-200000Y-1300000D02*
G03I-1000000J-100000D01*
G01X-1700000Y41300000D02*
G03I-1000000J-100000D01*
G01X-2000000Y41200000D02*
G03I-700000J0D01*
G01X-2700000Y40000000D02*
Y42400000D01*
G01X-1500000Y41200000D02*
X-3900000D01*
G01X39999900Y39999900D02*
X0D01*
Y0D01*
X39999900D01*
Y39999900D01*
G01X0Y42540000D02*
Y45665000D01*
G01X11713300Y43125000D02*
X0D01*
G01X3810000Y43760000D02*
X0Y43125000D01*
X3810000Y42490000D01*
Y43760000D01*
G01X7813300Y75037500D02*
X8797600Y78212500D01*
X9781900Y75037500D01*
G01X9427500Y76148700D02*
X8167600D01*
G01X11159800Y78212500D02*
Y75037500D01*
X12734600D01*
G01X14309400Y78212500D02*
Y75037500D01*
X15884200D01*
G01X20529900Y78212500D02*
Y75937100D01*
X20687300Y75460700D01*
X21002300Y75143300D01*
X21396000Y75037500D01*
X21789700Y75143300D01*
X22104700Y75460700D01*
X22262100Y75937100D01*
Y78212500D01*
G01X23640100Y75037500D02*
Y78212500D01*
X25451100Y75037500D01*
Y78212500D01*
G01X27222800D02*
X28167600D01*
G01X27695200D02*
Y75037500D01*
G01X27222800D02*
X28167600D01*
G01X30844800Y78212500D02*
Y75037500D01*
G01X29939300Y78212500D02*
X31750300D01*
G01X33167600Y75460700D02*
X33482600Y75196200D01*
X33836900Y75037500D01*
X34151900D01*
X34466800Y75196200D01*
X34703100Y75460700D01*
X34821200Y75831300D01*
X34742500Y76201600D01*
X34545600Y76519100D01*
X34191200Y76730900D01*
X33718800Y76836700D01*
X33443200Y77048300D01*
X33325100Y77418700D01*
X33403900Y77789200D01*
X33600700Y78053700D01*
X33876300Y78212500D01*
X34151900D01*
X34427500Y78106700D01*
X34663700Y77842100D01*
G01X39309300Y75037500D02*
X40293600Y78212500D01*
X41277900Y75037500D01*
G01X40923500Y76148700D02*
X39663600D01*
G01X42655800Y75037500D02*
Y78212500D01*
X43640000D01*
X43955000Y78053700D01*
X44151900Y77842100D01*
X44230600Y77418700D01*
X44151900Y76995400D01*
X43915600Y76730900D01*
X43640000Y76572000D01*
X42655800D01*
G01X43640000D02*
X44230600Y75037500D01*
G01X47380200D02*
X45805400D01*
Y78212500D01*
X47380200D01*
G01X46750300Y76678000D02*
X45805400D01*
G01X52419600Y78212500D02*
X53364400D01*
G01X52892000D02*
Y75037500D01*
G01X52419600D02*
X53364400D01*
G01X55136100D02*
Y78212500D01*
X56947100Y75037500D01*
Y78212500D01*
G01X61317100Y75037500D02*
Y78212500D01*
X62340800Y75566700D01*
X63364500Y78212500D01*
Y75037500D01*
G01X65018000Y78212500D02*
X65962800D01*
G01X65490400D02*
Y75037500D01*
G01X65018000D02*
X65962800D01*
G01X67852600Y78212500D02*
Y75037500D01*
X69427400D01*
G01X71002200Y78212500D02*
Y75037500D01*
X72577000D01*
G01X74466800Y78212500D02*
X75411600D01*
G01X74939200D02*
Y75037500D01*
G01X74466800D02*
X75411600D01*
G01X77065100D02*
Y78212500D01*
X78088800Y75566700D01*
X79112500Y78212500D01*
Y75037500D01*
G01X82025800D02*
X80451000D01*
Y78212500D01*
X82025800D01*
G01X81395900Y76678000D02*
X80451000D01*
G01X84388000Y78212500D02*
Y75037500D01*
G01X83482500Y78212500D02*
X85293500D01*
G01X88325000Y75037500D02*
X86750200D01*
Y78212500D01*
X88325000D01*
G01X87695100Y76678000D02*
X86750200D01*
G01X89899800Y75037500D02*
Y78212500D01*
X90884000D01*
X91199000Y78053700D01*
X91395900Y77842100D01*
X91474600Y77418700D01*
X91395900Y76995400D01*
X91159600Y76730900D01*
X90884000Y76572000D01*
X89899800D01*
G01X90884000D02*
X91474600Y75037500D01*
G01X93010000Y75460700D02*
X93325000Y75196200D01*
X93679300Y75037500D01*
X93994300D01*
X94309200Y75196200D01*
X94545500Y75460700D01*
X94663600Y75831300D01*
X94584900Y76201600D01*
X94388000Y76519100D01*
X94033600Y76730900D01*
X93561200Y76836700D01*
X93285600Y77048300D01*
X93167500Y77418700D01*
X93246300Y77789200D01*
X93443100Y78053700D01*
X93718700Y78212500D01*
X93994300D01*
X94269900Y78106700D01*
X94506100Y77842100D01*
G01X11081100Y81537500D02*
Y84712500D01*
X11868400D01*
X12183400Y84553700D01*
X12419600Y84342100D01*
X12616500Y84024600D01*
X12774000Y83654100D01*
X12813300Y83125000D01*
X12774000Y82595800D01*
X12616500Y82225400D01*
X12419600Y81907800D01*
X12183400Y81696200D01*
X11868400Y81537500D01*
X11081100D01*
G01X14309400D02*
Y84712500D01*
X15293600D01*
X15608600Y84553700D01*
X15805500Y84342100D01*
X15884200Y83918700D01*
X15805500Y83495400D01*
X15569200Y83230900D01*
X15293600Y83072000D01*
X14309400D01*
G01X15293600D02*
X15884200Y81537500D01*
G01X17774000Y84712500D02*
X18718800D01*
G01X18246400D02*
Y81537500D01*
G01X17774000D02*
X18718800D01*
G01X20608600Y84712500D02*
Y81537500D01*
X22183400D01*
G01X23758200Y84712500D02*
Y81537500D01*
X25333000D01*
G01X31710900Y84447900D02*
X31474700Y84606700D01*
X31199200Y84712500D01*
X30884200D01*
X30529800Y84553700D01*
X30254300Y84289200D01*
X30057400Y83971600D01*
X29899900Y83442500D01*
X29860500Y82966200D01*
X29939300Y82490000D01*
X30057400Y82172500D01*
X30293600Y81854900D01*
X30569200Y81643300D01*
X30844800Y81537500D01*
X31120400D01*
X31396000Y81643300D01*
X31632200Y81802000D01*
X31829100Y82013600D01*
G01X33167600Y81537500D02*
Y84712500D01*
G01X34821200D02*
Y81537500D01*
G01Y83125000D02*
X33167600D01*
G01X36159700Y81537500D02*
X37144000Y84712500D01*
X38128300Y81537500D01*
G01X37773900Y82648700D02*
X36514000D01*
G01X39506200Y81537500D02*
Y84712500D01*
X40490400D01*
X40805400Y84553700D01*
X41002300Y84342100D01*
X41081000Y83918700D01*
X41002300Y83495400D01*
X40766000Y83230900D01*
X40490400Y83072000D01*
X39506200D01*
G01X40490400D02*
X41081000Y81537500D01*
G01X43443200Y84712500D02*
Y81537500D01*
G01X42537700Y84712500D02*
X44348700D01*
G01X46592800Y81431700D02*
X46514000Y81484600D01*
Y81590400D01*
X46592800Y81643300D01*
X46671600Y81590400D01*
Y81484600D01*
X46592800Y81431700D01*
G01Y82860300D02*
X46514000Y82913300D01*
Y83019100D01*
X46592800Y83072000D01*
X46671600Y83019100D01*
Y82913300D01*
X46592800Y82860300D01*
G01X52892000Y84712500D02*
Y81537500D01*
G01X51986500Y84712500D02*
X53797500D01*
G01X56041600Y81537500D02*
X55726600Y81590400D01*
X55451100Y81802000D01*
X55214800Y82119600D01*
X55057300Y82490000D01*
X54978600Y82913300D01*
Y83336700D01*
X55057300Y83760000D01*
X55214800Y84130400D01*
X55451100Y84447900D01*
X55726600Y84659600D01*
X56041600Y84712500D01*
X56356500Y84659600D01*
X56632100Y84447900D01*
X56868400Y84130400D01*
X57025900Y83760000D01*
X57104600Y83336700D01*
Y82913300D01*
X57025900Y82490000D01*
X56868400Y82119600D01*
X56632100Y81802000D01*
X56356500Y81590400D01*
X56041600Y81537500D01*
G01X58403800D02*
Y84712500D01*
X59348700D01*
X59663600Y84553700D01*
X59899900Y84183300D01*
X59978600Y83760000D01*
X59899900Y83336700D01*
X59703000Y83019100D01*
X59348700Y82860300D01*
X58403800D01*
G01X65490400Y84712500D02*
Y81537500D01*
G01X64939200Y83654100D02*
X66041600D01*
G01X68640000Y81537500D02*
X68403800Y81590400D01*
X68167600Y81802000D01*
X68010000Y82172500D01*
X67931300Y82595800D01*
X68010000Y83019100D01*
X68167600Y83389600D01*
X68403800Y83601200D01*
X68640000Y83654100D01*
X68876200Y83601200D01*
X69112400Y83389600D01*
X69269900Y83019100D01*
X69309300Y82595800D01*
X69269900Y82172500D01*
X69112400Y81802000D01*
X68876200Y81590400D01*
X68640000Y81537500D01*
G01X75254100Y83230900D02*
X75411600Y83389600D01*
X75529700Y83654100D01*
X75608500Y84024600D01*
X75529700Y84342100D01*
X75372300Y84553700D01*
X75096700Y84712500D01*
X74033700D01*
Y81537500D01*
X75332900D01*
X75608500Y81749100D01*
X75766000Y82066700D01*
X75844700Y82437100D01*
X75766000Y82807400D01*
X75529700Y83125000D01*
X75254100Y83230900D01*
X74033700D01*
G01X78088800Y81537500D02*
X77773800Y81590400D01*
X77498300Y81802000D01*
X77262000Y82119600D01*
X77104500Y82490000D01*
X77025800Y82913300D01*
Y83336700D01*
X77104500Y83760000D01*
X77262000Y84130400D01*
X77498300Y84447900D01*
X77773800Y84659600D01*
X78088800Y84712500D01*
X78403700Y84659600D01*
X78679300Y84447900D01*
X78915600Y84130400D01*
X79073100Y83760000D01*
X79151800Y83336700D01*
Y82913300D01*
X79073100Y82490000D01*
X78915600Y82119600D01*
X78679300Y81802000D01*
X78403700Y81590400D01*
X78088800Y81537500D01*
G01X81238400Y84712500D02*
Y81537500D01*
G01X80332900Y84712500D02*
X82143900D01*
G01X84388000D02*
Y81537500D01*
G01X83482500Y84712500D02*
X85293500D01*
G01X87537600Y81537500D02*
X87222600Y81590400D01*
X86947100Y81802000D01*
X86710800Y82119600D01*
X86553300Y82490000D01*
X86474600Y82913300D01*
Y83336700D01*
X86553300Y83760000D01*
X86710800Y84130400D01*
X86947100Y84447900D01*
X87222600Y84659600D01*
X87537600Y84712500D01*
X87852500Y84659600D01*
X88128100Y84447900D01*
X88364400Y84130400D01*
X88521900Y83760000D01*
X88600600Y83336700D01*
Y82913300D01*
X88521900Y82490000D01*
X88364400Y82119600D01*
X88128100Y81802000D01*
X87852500Y81590400D01*
X87537600Y81537500D01*
G01X89663500D02*
Y84712500D01*
X90687200Y82066700D01*
X91710900Y84712500D01*
Y81537500D01*
G01X15275600Y41537500D02*
Y44712500D01*
X14803200Y44077500D01*
G01Y41537500D02*
X15748000D01*
G01X18425200Y41431700D02*
X18346400Y41484600D01*
Y41590400D01*
X18425200Y41643300D01*
X18504000Y41590400D01*
Y41484600D01*
X18425200Y41431700D01*
G01X20708700Y42013600D02*
X20944800Y41749100D01*
X21220400Y41590400D01*
X21574800Y41537500D01*
X21929200Y41643300D01*
X22204700Y41854900D01*
X22401600Y42225400D01*
X22440900Y42648700D01*
X22362200Y43072000D01*
X22165300Y43336700D01*
X21889700Y43548300D01*
X21614200Y43601200D01*
X21338600Y43548300D01*
X20984300Y43336700D01*
X21102400Y44712500D01*
X22165300D01*
G01X24645600Y41537500D02*
X24724400Y42225400D01*
X24842500Y42807400D01*
X25000000Y43336700D01*
X25196800Y43918700D01*
X25511800Y44712500D01*
X23937000D01*
G01X12734600Y72662600D02*
Y58387800D01*
G01X28286700Y43125000D02*
X39999900D01*
G01X31199100Y68323300D02*
X31514100Y68058800D01*
X31868400Y67900100D01*
X32183400D01*
X32498300Y68058800D01*
X32734600Y68323300D01*
X32852700Y68693900D01*
X32774000Y69064200D01*
X32577100Y69381700D01*
X32222700Y69593500D01*
X31750300Y69699300D01*
X31474700Y69910900D01*
X31356600Y70281300D01*
X31435400Y70651800D01*
X31632200Y70916300D01*
X31907800Y71075100D01*
X32183400D01*
X32459000Y70969300D01*
X32695200Y70704700D01*
G01X34703100Y71075100D02*
X35647900D01*
G01X35175500D02*
Y67900100D01*
G01X34703100D02*
X35647900D01*
G01X37577000Y71075100D02*
X39073200D01*
X37577000Y67900100D01*
X39073200D01*
G01X42262100D02*
X40687300D01*
Y71075100D01*
X42262100D01*
G01X41632200Y69540600D02*
X40687300D01*
G01X33600700Y63544000D02*
X33285700Y63438200D01*
X33049500Y63173600D01*
X32892000Y62856100D01*
X32773900Y62432700D01*
X32734600Y61956500D01*
X32773900Y61480200D01*
X32892000Y61056900D01*
X33049500Y60739300D01*
X33285700Y60474800D01*
X33600700Y60369000D01*
X33915600Y60474800D01*
X34151900Y60739300D01*
X34309400Y61056900D01*
X34427500Y61480200D01*
X34466800Y61956500D01*
X34427500Y62432700D01*
X34309400Y62856100D01*
X34151900Y63173600D01*
X33915600Y63438200D01*
X33600700Y63544000D01*
G01X36750300Y60263200D02*
X36671500Y60316100D01*
Y60421900D01*
X36750300Y60474800D01*
X36829100Y60421900D01*
Y60316100D01*
X36750300Y60263200D01*
G01X39151800Y63014800D02*
X39388100Y63332300D01*
X39663700Y63491100D01*
X39978700Y63544000D01*
X40372300Y63438200D01*
X40648000Y63173600D01*
X40726700Y62856100D01*
X40687300Y62538500D01*
X40529800Y62274000D01*
X39742400Y61744800D01*
X39388100Y61374400D01*
X39151800Y60845100D01*
X39073100Y60369000D01*
X40726700D01*
G01X36189900Y42490000D02*
X39999900Y43125000D01*
X36189900Y43760000D01*
Y42490000D01*
G01X42300000Y-1300000D02*
X39900000D01*
G01X42100000Y-1200000D02*
G03I-1000000J-100000D01*
G01X39999900Y42539900D02*
Y45665000D01*
G01X41100000Y-2500000D02*
Y-100000D01*
G01X41800000Y-1300000D02*
G03I-700000J0D01*
G01X42539900Y0D02*
X54415000D01*
G01X41700000Y40100000D02*
Y42500000D01*
G01X42400000Y41300000D02*
G03I-700000J0D01*
G01X42700000Y41400000D02*
G03I-1000000J-100000D01*
G01X42539900Y39999900D02*
X54415000D01*
G01X42900000Y41300000D02*
X40500000D01*
G01X47150600Y18412500D02*
Y21587500D01*
X46678200Y20952500D01*
G01Y18412500D02*
X47623000D01*
G01X50300200Y18306700D02*
X50221400Y18359600D01*
Y18465400D01*
X50300200Y18518300D01*
X50379000Y18465400D01*
Y18359600D01*
X50300200Y18306700D01*
G01X52583700Y18888600D02*
X52819800Y18624100D01*
X53095400Y18465400D01*
X53449800Y18412500D01*
X53804200Y18518300D01*
X54079700Y18729900D01*
X54276600Y19100400D01*
X54315900Y19523700D01*
X54237200Y19947000D01*
X54040300Y20211700D01*
X53764700Y20423300D01*
X53489200Y20476200D01*
X53213600Y20423300D01*
X52859300Y20211700D01*
X52977400Y21587500D01*
X54040300D01*
G01X56520600Y18412500D02*
X56599400Y19100400D01*
X56717500Y19682400D01*
X56875000Y20211700D01*
X57071800Y20793700D01*
X57386800Y21587500D01*
X55812000D01*
G01X51875000Y16031300D02*
Y0D01*
G01X51240000Y3810000D02*
X51875000Y0D01*
X52510000Y3810000D01*
X51240000D01*
G01X51875000Y23968700D02*
Y39999900D01*
G01X52510000Y36189900D02*
X51875000Y39999900D01*
X51240000Y36189900D01*
X52510000D01*
G01X60766000Y72662600D02*
Y58387800D01*
G01X66486000Y-3818400D02*
Y-3183400D01*
X66621500D01*
X66675600Y-3215200D01*
X66716300Y-3257500D01*
X66750200Y-3321000D01*
X66777200Y-3395100D01*
X66784000Y-3500900D01*
X66777200Y-3606700D01*
X66750200Y-3680800D01*
X66716300Y-3744300D01*
X66675600Y-3786700D01*
X66621500Y-3818400D01*
X66486000D01*
G01X67329300D02*
X67058300D01*
Y-3183400D01*
X67329300D01*
G01X67220900Y-3490300D02*
X67058300D01*
G01X67610400Y-3733800D02*
X67664500Y-3786700D01*
X67725500Y-3818400D01*
X67779700D01*
X67833900Y-3786700D01*
X67874500Y-3733800D01*
X67894800Y-3659600D01*
X67881300Y-3585600D01*
X67847400Y-3522100D01*
X67786500Y-3479700D01*
X67705200Y-3458600D01*
X67657800Y-3416200D01*
X67637400Y-3342200D01*
X67651000Y-3268100D01*
X67684900Y-3215200D01*
X67732300Y-3183400D01*
X67779700D01*
X67827100Y-3204600D01*
X67867800Y-3257500D01*
G01X68230100Y-3183400D02*
X68392700D01*
G01X68311400D02*
Y-3818400D01*
G01X68230100D02*
X68392700D01*
G01X68910800Y-3500900D02*
X69046300D01*
Y-3691400D01*
X69005700Y-3754900D01*
X68958300Y-3797200D01*
X68890500Y-3818400D01*
X68822800Y-3797200D01*
X68775400Y-3754900D01*
X68734700Y-3691400D01*
X68707600Y-3617300D01*
X68694100Y-3532700D01*
Y-3458600D01*
X68707600Y-3395100D01*
X68734700Y-3321000D01*
X68775400Y-3257500D01*
X68816000Y-3215200D01*
X68870200Y-3183400D01*
X68917600D01*
X68971800Y-3204600D01*
X69012400Y-3246900D01*
G01X69273200Y-3818400D02*
Y-3183400D01*
X69584800Y-3818400D01*
Y-3183400D01*
G01X70695600Y-3236300D02*
X70655000Y-3204600D01*
X70607600Y-3183400D01*
X70553400D01*
X70492400Y-3215200D01*
X70445000Y-3268100D01*
X70411100Y-3331600D01*
X70384000Y-3437400D01*
X70377300Y-3532700D01*
X70390800Y-3627900D01*
X70411100Y-3691400D01*
X70451800Y-3754900D01*
X70499200Y-3797200D01*
X70546600Y-3818400D01*
X70594000D01*
X70641400Y-3797200D01*
X70682100Y-3765500D01*
X70715900Y-3723200D01*
G01X70969900Y-3818400D02*
Y-3183400D01*
X71139300D01*
X71193500Y-3215200D01*
X71227300Y-3257500D01*
X71240900Y-3342200D01*
X71227300Y-3426800D01*
X71186700Y-3479700D01*
X71139300Y-3511500D01*
X70969900D01*
G01X71139300D02*
X71240900Y-3818400D01*
G01X71664200D02*
X71610000Y-3807800D01*
X71562600Y-3765500D01*
X71522000Y-3702000D01*
X71494900Y-3627900D01*
X71481300Y-3543200D01*
Y-3458600D01*
X71494900Y-3373900D01*
X71522000Y-3299800D01*
X71562600Y-3236300D01*
X71610000Y-3194000D01*
X71664200Y-3183400D01*
X71718400Y-3194000D01*
X71765800Y-3236300D01*
X71806400Y-3299800D01*
X71833500Y-3373900D01*
X71847100Y-3458600D01*
Y-3543200D01*
X71833500Y-3627900D01*
X71806400Y-3702000D01*
X71765800Y-3765500D01*
X71718400Y-3807800D01*
X71664200Y-3818400D01*
G01X72080800Y-3733800D02*
X72134900Y-3786700D01*
X72195900Y-3818400D01*
X72250100D01*
X72304300Y-3786700D01*
X72344900Y-3733800D01*
X72365200Y-3659600D01*
X72351700Y-3585600D01*
X72317800Y-3522100D01*
X72256900Y-3479700D01*
X72175600Y-3458600D01*
X72128200Y-3416200D01*
X72107800Y-3342200D01*
X72121400Y-3268100D01*
X72155300Y-3215200D01*
X72202700Y-3183400D01*
X72250100D01*
X72297500Y-3204600D01*
X72338200Y-3257500D01*
G01X72639600Y-3733800D02*
X72693700Y-3786700D01*
X72754700Y-3818400D01*
X72808900D01*
X72863100Y-3786700D01*
X72903700Y-3733800D01*
X72924000Y-3659600D01*
X72910500Y-3585600D01*
X72876600Y-3522100D01*
X72815700Y-3479700D01*
X72734400Y-3458600D01*
X72687000Y-3416200D01*
X72666600Y-3342200D01*
X72680200Y-3268100D01*
X72714100Y-3215200D01*
X72761500Y-3183400D01*
X72808900D01*
X72856300Y-3204600D01*
X72897000Y-3257500D01*
G01X73757200Y-3733800D02*
X73811300Y-3786700D01*
X73872300Y-3818400D01*
X73926500D01*
X73980700Y-3786700D01*
X74021300Y-3733800D01*
X74041600Y-3659600D01*
X74028100Y-3585600D01*
X73994200Y-3522100D01*
X73933300Y-3479700D01*
X73852000Y-3458600D01*
X73804600Y-3416200D01*
X73784200Y-3342200D01*
X73797800Y-3268100D01*
X73831700Y-3215200D01*
X73879100Y-3183400D01*
X73926500D01*
X73973900Y-3204600D01*
X74014600Y-3257500D01*
G01X74593700Y-3818400D02*
X74322700D01*
Y-3183400D01*
X74593700D01*
G01X74485300Y-3490300D02*
X74322700D01*
G01X75166000Y-3236300D02*
X75125400Y-3204600D01*
X75078000Y-3183400D01*
X75023800D01*
X74962800Y-3215200D01*
X74915400Y-3268100D01*
X74881500Y-3331600D01*
X74854400Y-3437400D01*
X74847700Y-3532700D01*
X74861200Y-3627900D01*
X74881500Y-3691400D01*
X74922200Y-3754900D01*
X74969600Y-3797200D01*
X75017000Y-3818400D01*
X75064400D01*
X75111800Y-3797200D01*
X75152500Y-3765500D01*
X75186300Y-3723200D01*
G01X75575800Y-3183400D02*
Y-3818400D01*
G01X75420000Y-3183400D02*
X75731600D01*
G01X76053300D02*
X76215900D01*
G01X76134600D02*
Y-3818400D01*
G01X76053300D02*
X76215900D01*
G01X76693400D02*
X76639200Y-3807800D01*
X76591800Y-3765500D01*
X76551200Y-3702000D01*
X76524100Y-3627900D01*
X76510500Y-3543200D01*
Y-3458600D01*
X76524100Y-3373900D01*
X76551200Y-3299800D01*
X76591800Y-3236300D01*
X76639200Y-3194000D01*
X76693400Y-3183400D01*
X76747600Y-3194000D01*
X76795000Y-3236300D01*
X76835600Y-3299800D01*
X76862700Y-3373900D01*
X76876300Y-3458600D01*
Y-3543200D01*
X76862700Y-3627900D01*
X76835600Y-3702000D01*
X76795000Y-3765500D01*
X76747600Y-3807800D01*
X76693400Y-3818400D01*
G01X77096400D02*
Y-3183400D01*
X77408000Y-3818400D01*
Y-3183400D01*
G01X78518800Y-3236300D02*
X78478200Y-3204600D01*
X78430800Y-3183400D01*
X78376600D01*
X78315600Y-3215200D01*
X78268200Y-3268100D01*
X78234300Y-3331600D01*
X78207200Y-3437400D01*
X78200500Y-3532700D01*
X78214000Y-3627900D01*
X78234300Y-3691400D01*
X78275000Y-3754900D01*
X78322400Y-3797200D01*
X78369800Y-3818400D01*
X78417200D01*
X78464600Y-3797200D01*
X78505300Y-3765500D01*
X78539100Y-3723200D01*
G01X78786400Y-3818400D02*
Y-3183400D01*
G01X79070800D02*
Y-3818400D01*
G01Y-3500900D02*
X78786400D01*
G01X79318100Y-3818400D02*
X79487400Y-3183400D01*
X79656700Y-3818400D01*
G01X79595800Y-3596200D02*
X79379000D01*
G01X79910700Y-3818400D02*
Y-3183400D01*
X80080100D01*
X80134300Y-3215200D01*
X80168100Y-3257500D01*
X80181700Y-3342200D01*
X80168100Y-3426800D01*
X80127500Y-3479700D01*
X80080100Y-3511500D01*
X79910700D01*
G01X80080100D02*
X80181700Y-3818400D01*
G01X80605000Y-3183400D02*
Y-3818400D01*
G01X80449200Y-3183400D02*
X80760800D01*
G01X66152400Y-4030100D02*
X66558800D01*
G01X66711200D02*
X67117600D01*
G01X67270000D02*
X67676400D01*
G01X67828800D02*
X68235200D01*
G01X68387600D02*
X68794000D01*
G01X68946400D02*
X69352800D01*
G01X69505200D02*
X69911600D01*
G01X70064000D02*
X70470400D01*
G01X70622800D02*
X71029200D01*
G01X71181600D02*
X71588000D01*
G01X71740400D02*
X72146800D01*
G01X72299200D02*
X72705600D01*
G01X72858000D02*
X73264400D01*
G01X73416800D02*
X73823200D01*
G01X73975600D02*
X74382000D01*
G01X74534400D02*
X74940800D01*
G01X75093200D02*
X75499600D01*
G01X75652000D02*
X76058400D01*
G01X76210800D02*
X76617200D01*
G01X76769600D02*
X77176000D01*
G01X77328400D02*
X77734800D01*
G01X77887200D02*
X78293600D01*
G01X78446000D02*
X78852400D01*
G01X79004800D02*
X79411200D01*
G01X79563600D02*
X79970000D01*
G01X80122400D02*
X80528800D01*
G01X80681200D02*
X81087600D01*
G01X67193800Y-4453400D02*
Y-5088400D01*
G01X67038000Y-4453400D02*
X67349600D01*
G01X67752600Y-5088400D02*
X67698400Y-5077800D01*
X67651000Y-5035500D01*
X67610400Y-4972000D01*
X67583300Y-4897900D01*
X67569700Y-4813200D01*
Y-4728600D01*
X67583300Y-4643900D01*
X67610400Y-4569800D01*
X67651000Y-4506300D01*
X67698400Y-4464000D01*
X67752600Y-4453400D01*
X67806800Y-4464000D01*
X67854200Y-4506300D01*
X67894800Y-4569800D01*
X67921900Y-4643900D01*
X67935500Y-4728600D01*
Y-4813200D01*
X67921900Y-4897900D01*
X67894800Y-4972000D01*
X67854200Y-5035500D01*
X67806800Y-5077800D01*
X67752600Y-5088400D01*
G01X68311400Y-4453400D02*
Y-5088400D01*
G01X68155600Y-4453400D02*
X68467200D01*
G01X68700900Y-5088400D02*
X68870200Y-4453400D01*
X69039500Y-5088400D01*
G01X68978600Y-4866200D02*
X68761800D01*
G01X69293500Y-4453400D02*
Y-5088400D01*
X69564500D01*
G01X70546600Y-4453400D02*
Y-5088400D01*
G01X70390800Y-4453400D02*
X70702400D01*
G01X70963200Y-5088400D02*
Y-4453400D01*
G01X71247600D02*
Y-5088400D01*
G01Y-4770900D02*
X70963200D01*
G01X71582900Y-4453400D02*
X71745500D01*
G01X71664200D02*
Y-5088400D01*
G01X71582900D02*
X71745500D01*
G01X72372000Y-4506300D02*
X72331400Y-4474600D01*
X72284000Y-4453400D01*
X72229800D01*
X72168800Y-4485200D01*
X72121400Y-4538100D01*
X72087500Y-4601600D01*
X72060400Y-4707400D01*
X72053700Y-4802700D01*
X72067200Y-4897900D01*
X72087500Y-4961400D01*
X72128200Y-5024900D01*
X72175600Y-5067200D01*
X72223000Y-5088400D01*
X72270400D01*
X72317800Y-5067200D01*
X72358500Y-5035500D01*
X72392300Y-4993200D01*
G01X72632800Y-5088400D02*
Y-4453400D01*
G01X72890200D02*
X72632800Y-4845000D01*
G01X72930800Y-5088400D02*
X72747900Y-4665100D01*
G01X73184800Y-5088400D02*
Y-4453400D01*
X73496400Y-5088400D01*
Y-4453400D01*
G01X74034900Y-5088400D02*
X73763900D01*
Y-4453400D01*
X74034900D01*
G01X73926500Y-4760300D02*
X73763900D01*
G01X74316000Y-5003800D02*
X74370100Y-5056700D01*
X74431100Y-5088400D01*
X74485300D01*
X74539500Y-5056700D01*
X74580100Y-5003800D01*
X74600400Y-4929600D01*
X74586900Y-4855600D01*
X74553000Y-4792100D01*
X74492100Y-4749700D01*
X74410800Y-4728600D01*
X74363400Y-4686200D01*
X74343000Y-4612200D01*
X74356600Y-4538100D01*
X74390500Y-4485200D01*
X74437900Y-4453400D01*
X74485300D01*
X74532700Y-4474600D01*
X74573400Y-4527500D01*
G01X74874800Y-5003800D02*
X74928900Y-5056700D01*
X74989900Y-5088400D01*
X75044100D01*
X75098300Y-5056700D01*
X75138900Y-5003800D01*
X75159200Y-4929600D01*
X75145700Y-4855600D01*
X75111800Y-4792100D01*
X75050900Y-4749700D01*
X74969600Y-4728600D01*
X74922200Y-4686200D01*
X74901800Y-4612200D01*
X74915400Y-4538100D01*
X74949300Y-4485200D01*
X74996700Y-4453400D01*
X75044100D01*
X75091500Y-4474600D01*
X75132200Y-4527500D01*
G01X76134600Y-5088400D02*
Y-4453400D01*
X76053300Y-4580400D01*
G01Y-5088400D02*
X76215900D01*
G01X76693400Y-5109600D02*
X76679900Y-5099000D01*
Y-5077800D01*
X76693400Y-5067200D01*
X76706900Y-5077800D01*
Y-5099000D01*
X76693400Y-5109600D01*
G01X77252200Y-5088400D02*
Y-4453400D01*
X77170900Y-4580400D01*
G01Y-5088400D02*
X77333500D01*
G01X77695800Y-5014300D02*
X77743300Y-5067200D01*
X77797500Y-5088400D01*
X77851600Y-5067200D01*
X77899100Y-5003800D01*
X77932900Y-4908500D01*
X77946500Y-4813200D01*
Y-4696800D01*
X77932900Y-4601600D01*
X77899100Y-4516900D01*
X77858400Y-4474600D01*
X77811000Y-4453400D01*
X77756800Y-4474600D01*
X77716200Y-4516900D01*
X77689100Y-4580400D01*
X77675500Y-4665100D01*
X77689100Y-4739100D01*
X77722900Y-4813200D01*
X77763600Y-4855600D01*
X77811000Y-4866200D01*
X77865200Y-4845000D01*
X77905800Y-4792100D01*
X77946500Y-4696800D01*
G01X78254600Y-5014300D02*
X78302100Y-5067200D01*
X78356300Y-5088400D01*
X78410400Y-5067200D01*
X78457900Y-5003800D01*
X78491700Y-4908500D01*
X78505300Y-4813200D01*
Y-4696800D01*
X78491700Y-4601600D01*
X78457900Y-4516900D01*
X78417200Y-4474600D01*
X78369800Y-4453400D01*
X78315600Y-4474600D01*
X78275000Y-4516900D01*
X78247900Y-4580400D01*
X78234300Y-4665100D01*
X78247900Y-4739100D01*
X78281700Y-4813200D01*
X78322400Y-4855600D01*
X78369800Y-4866200D01*
X78424000Y-4845000D01*
X78464600Y-4792100D01*
X78505300Y-4696800D01*
G01X79311300Y-5088400D02*
Y-4453400D01*
X79487400Y-4982600D01*
X79663500Y-4453400D01*
Y-5088400D01*
G01X79870100D02*
Y-4453400D01*
X80046200Y-4982600D01*
X80222300Y-4453400D01*
Y-5088400D01*
G01X66000000Y-209200D02*
Y8325200D01*
X81240000D01*
Y-209200D01*
X66000000D01*
G01Y9606200D02*
Y18140600D01*
X81240000D01*
Y9606200D01*
X66000000D01*
G01Y19421600D02*
Y27956000D01*
X81240000D01*
Y19421600D01*
X66000000D01*
G01Y29237000D02*
Y37771400D01*
X81240000D01*
Y29237000D01*
X66000000D01*
G01Y39052400D02*
Y47586800D01*
X81240000D01*
Y39052400D01*
X66000000D01*
G01X68246300Y60369000D02*
Y63544000D01*
X69191200D01*
X69506100Y63385200D01*
X69742400Y63014800D01*
X69821100Y62591500D01*
X69742400Y62168200D01*
X69545500Y61850600D01*
X69191200Y61691800D01*
X68246300D01*
G01X71395900Y63544000D02*
Y60369000D01*
X72970700D01*
G01X74348600D02*
X75332900Y63544000D01*
X76317200Y60369000D01*
G01X75962800Y61480200D02*
X74702900D01*
G01X78482500Y63544000D02*
Y60369000D01*
G01X77577000Y63544000D02*
X79388000D01*
G01X82419500Y60369000D02*
X80844700D01*
Y63544000D01*
X82419500D01*
G01X81789600Y62009500D02*
X80844700D01*
G01X83915600Y60369000D02*
Y63544000D01*
X84702900D01*
X85017900Y63385200D01*
X85254100Y63173600D01*
X85451000Y62856100D01*
X85608500Y62485600D01*
X85647800Y61956500D01*
X85608500Y61427300D01*
X85451000Y61056900D01*
X85254100Y60739300D01*
X85017900Y60527700D01*
X84702900Y60369000D01*
X83915600D01*
G01X68246300Y67900100D02*
Y71075100D01*
X69191200D01*
X69506100Y70916300D01*
X69742400Y70545900D01*
X69821100Y70122600D01*
X69742400Y69699300D01*
X69545500Y69381700D01*
X69191200Y69222900D01*
X68246300D01*
G01X71395900Y71075100D02*
Y67900100D01*
X72970700D01*
G01X74348600D02*
X75332900Y71075100D01*
X76317200Y67900100D01*
G01X75962800Y69011300D02*
X74702900D01*
G01X78482500Y71075100D02*
Y67900100D01*
G01X77577000Y71075100D02*
X79388000D01*
G01X82419500Y67900100D02*
X80844700D01*
Y71075100D01*
X82419500D01*
G01X81789600Y69540600D02*
X80844700D01*
G01X83915600Y67900100D02*
Y71075100D01*
X84702900D01*
X85017900Y70916300D01*
X85254100Y70704700D01*
X85451000Y70387200D01*
X85608500Y70016700D01*
X85647800Y69487600D01*
X85608500Y68958400D01*
X85451000Y68588000D01*
X85254100Y68270400D01*
X85017900Y68058800D01*
X84702900Y67900100D01*
X83915600D01*
G01X72985000Y49706000D02*
X72350000D01*
X72477000Y49624700D01*
G01X72985000D02*
Y49787300D01*
G01X72773300Y50176700D02*
Y50352900D01*
G01X72720400Y50694900D02*
X72646300Y50742300D01*
X72604000Y50783000D01*
X72582800Y50837100D01*
X72604000Y50884600D01*
X72646300Y50918400D01*
X72709800Y50945500D01*
X72783900Y50952300D01*
X72847400Y50945500D01*
X72910900Y50918400D01*
X72963800Y50877800D01*
X72985000Y50830400D01*
X72963800Y50776200D01*
X72900400Y50728800D01*
X72805100Y50701700D01*
X72699300Y50694900D01*
X72561700Y50708400D01*
X72487600Y50728800D01*
X72413500Y50762600D01*
X72360600Y50810100D01*
X72350000Y50857500D01*
X72371200Y50904900D01*
X72424100Y50938800D01*
G01X81866500Y-420800D02*
Y-1055800D01*
X82137500D01*
G01X82432100Y-791200D02*
X82479500Y-717100D01*
X82520200Y-674800D01*
X82574300Y-653600D01*
X82621800Y-674800D01*
X82655600Y-717100D01*
X82682700Y-780600D01*
X82689500Y-854700D01*
X82682700Y-918200D01*
X82655600Y-981700D01*
X82615000Y-1034600D01*
X82567600Y-1055800D01*
X82513400Y-1034600D01*
X82466000Y-971200D01*
X82438900Y-875900D01*
X82432100Y-770100D01*
X82445600Y-632500D01*
X82466000Y-558400D01*
X82499800Y-484300D01*
X82547300Y-431400D01*
X82594700Y-420800D01*
X82642100Y-442000D01*
X82676000Y-494900D01*
G01X83119600Y-1077000D02*
X83106100Y-1066400D01*
Y-1045200D01*
X83119600Y-1034600D01*
X83133100Y-1045200D01*
Y-1066400D01*
X83119600Y-1077000D01*
G01Y-791200D02*
X83106100Y-780600D01*
Y-759500D01*
X83119600Y-748900D01*
X83133100Y-759500D01*
Y-780600D01*
X83119600Y-791200D01*
G01X84291400Y-717100D02*
X84318500Y-685400D01*
X84338800Y-632500D01*
X84352400Y-558400D01*
X84338800Y-494900D01*
X84311700Y-452600D01*
X84264300Y-420800D01*
X84081400D01*
Y-1055800D01*
X84304900D01*
X84352400Y-1013500D01*
X84379400Y-950000D01*
X84393000Y-875900D01*
X84379400Y-801800D01*
X84338800Y-738300D01*
X84291400Y-717100D01*
X84081400D01*
G01X84796000Y-1055800D02*
X84741800Y-1045200D01*
X84694400Y-1002900D01*
X84653800Y-939400D01*
X84626700Y-865300D01*
X84613100Y-780600D01*
Y-696000D01*
X84626700Y-611300D01*
X84653800Y-537200D01*
X84694400Y-473700D01*
X84741800Y-431400D01*
X84796000Y-420800D01*
X84850200Y-431400D01*
X84897600Y-473700D01*
X84938200Y-537200D01*
X84965300Y-611300D01*
X84978900Y-696000D01*
Y-780600D01*
X84965300Y-865300D01*
X84938200Y-939400D01*
X84897600Y-1002900D01*
X84850200Y-1045200D01*
X84796000Y-1055800D01*
G01X85354800Y-420800D02*
Y-1055800D01*
G01X85199000Y-420800D02*
X85510600D01*
G01X85913600D02*
Y-1055800D01*
G01X85757800Y-420800D02*
X86069400D01*
G01X86472400Y-1055800D02*
X86418200Y-1045200D01*
X86370800Y-1002900D01*
X86330200Y-939400D01*
X86303100Y-865300D01*
X86289500Y-780600D01*
Y-696000D01*
X86303100Y-611300D01*
X86330200Y-537200D01*
X86370800Y-473700D01*
X86418200Y-431400D01*
X86472400Y-420800D01*
X86526600Y-431400D01*
X86574000Y-473700D01*
X86614600Y-537200D01*
X86641700Y-611300D01*
X86655300Y-696000D01*
Y-780600D01*
X86641700Y-865300D01*
X86614600Y-939400D01*
X86574000Y-1002900D01*
X86526600Y-1045200D01*
X86472400Y-1055800D01*
G01X86855100D02*
Y-420800D01*
X87031200Y-950000D01*
X87207300Y-420800D01*
Y-1055800D01*
G01X88297800Y-473700D02*
X88257200Y-442000D01*
X88209800Y-420800D01*
X88155600D01*
X88094600Y-452600D01*
X88047200Y-505500D01*
X88013300Y-569000D01*
X87986200Y-674800D01*
X87979500Y-770100D01*
X87993000Y-865300D01*
X88013300Y-928800D01*
X88054000Y-992300D01*
X88101400Y-1034600D01*
X88148800Y-1055800D01*
X88196200D01*
X88243600Y-1034600D01*
X88284300Y-1002900D01*
X88318100Y-960600D01*
G01X88707600Y-1055800D02*
X88653400Y-1045200D01*
X88606000Y-1002900D01*
X88565400Y-939400D01*
X88538300Y-865300D01*
X88524700Y-780600D01*
Y-696000D01*
X88538300Y-611300D01*
X88565400Y-537200D01*
X88606000Y-473700D01*
X88653400Y-431400D01*
X88707600Y-420800D01*
X88761800Y-431400D01*
X88809200Y-473700D01*
X88849800Y-537200D01*
X88876900Y-611300D01*
X88890500Y-696000D01*
Y-780600D01*
X88876900Y-865300D01*
X88849800Y-939400D01*
X88809200Y-1002900D01*
X88761800Y-1045200D01*
X88707600Y-1055800D01*
G01X89110600D02*
Y-420800D01*
X89422200Y-1055800D01*
Y-420800D01*
G01X89676200Y-1055800D02*
Y-420800D01*
X89811700D01*
X89865800Y-452600D01*
X89906500Y-494900D01*
X89940400Y-558400D01*
X89967400Y-632500D01*
X89974200Y-738300D01*
X89967400Y-844100D01*
X89940400Y-918200D01*
X89906500Y-981700D01*
X89865800Y-1024100D01*
X89811700Y-1055800D01*
X89676200D01*
G01X90235000Y-420800D02*
Y-875900D01*
X90262100Y-971200D01*
X90316300Y-1034600D01*
X90384000Y-1055800D01*
X90451700Y-1034600D01*
X90505900Y-971200D01*
X90533000Y-875900D01*
Y-420800D01*
G01X91091800Y-473700D02*
X91051200Y-442000D01*
X91003800Y-420800D01*
X90949600D01*
X90888600Y-452600D01*
X90841200Y-505500D01*
X90807300Y-569000D01*
X90780200Y-674800D01*
X90773500Y-770100D01*
X90787000Y-865300D01*
X90807300Y-928800D01*
X90848000Y-992300D01*
X90895400Y-1034600D01*
X90942800Y-1055800D01*
X90990200D01*
X91037600Y-1034600D01*
X91078300Y-1002900D01*
X91112100Y-960600D01*
G01X91501600Y-420800D02*
Y-1055800D01*
G01X91345800Y-420800D02*
X91657400D01*
G01X92060400Y-1055800D02*
X92006200Y-1045200D01*
X91958800Y-1002900D01*
X91918200Y-939400D01*
X91891100Y-865300D01*
X91877500Y-780600D01*
Y-696000D01*
X91891100Y-611300D01*
X91918200Y-537200D01*
X91958800Y-473700D01*
X92006200Y-431400D01*
X92060400Y-420800D01*
X92114600Y-431400D01*
X92162000Y-473700D01*
X92202600Y-537200D01*
X92229700Y-611300D01*
X92243300Y-696000D01*
Y-780600D01*
X92229700Y-865300D01*
X92202600Y-939400D01*
X92162000Y-1002900D01*
X92114600Y-1045200D01*
X92060400Y-1055800D01*
G01X92483700D02*
Y-420800D01*
X92653100D01*
X92707300Y-452600D01*
X92741100Y-494900D01*
X92754700Y-579600D01*
X92741100Y-664200D01*
X92700500Y-717100D01*
X92653100Y-748900D01*
X92483700D01*
G01X92653100D02*
X92754700Y-1055800D01*
G01X93648700Y-844100D02*
X93824900D01*
G01X95003400Y-473700D02*
X94962800Y-442000D01*
X94915400Y-420800D01*
X94861200D01*
X94800200Y-452600D01*
X94752800Y-505500D01*
X94718900Y-569000D01*
X94691800Y-674800D01*
X94685100Y-770100D01*
X94698600Y-865300D01*
X94718900Y-928800D01*
X94759600Y-992300D01*
X94807000Y-1034600D01*
X94854400Y-1055800D01*
X94901800D01*
X94949200Y-1034600D01*
X94989900Y-1002900D01*
X95023700Y-960600D01*
G01X95413200Y-1055800D02*
X95359000Y-1045200D01*
X95311600Y-1002900D01*
X95271000Y-939400D01*
X95243900Y-865300D01*
X95230300Y-780600D01*
Y-696000D01*
X95243900Y-611300D01*
X95271000Y-537200D01*
X95311600Y-473700D01*
X95359000Y-431400D01*
X95413200Y-420800D01*
X95467400Y-431400D01*
X95514800Y-473700D01*
X95555400Y-537200D01*
X95582500Y-611300D01*
X95596100Y-696000D01*
Y-780600D01*
X95582500Y-865300D01*
X95555400Y-939400D01*
X95514800Y-1002900D01*
X95467400Y-1045200D01*
X95413200Y-1055800D01*
G01X95836500D02*
Y-420800D01*
X95999100D01*
X96053300Y-452600D01*
X96093900Y-526600D01*
X96107500Y-611300D01*
X96093900Y-696000D01*
X96060100Y-759500D01*
X95999100Y-791200D01*
X95836500D01*
G01X96395300Y-1055800D02*
Y-420800D01*
X96557900D01*
X96612100Y-452600D01*
X96652700Y-526600D01*
X96666300Y-611300D01*
X96652700Y-696000D01*
X96618900Y-759500D01*
X96557900Y-791200D01*
X96395300D01*
G01X97225100Y-1055800D02*
X96954100D01*
Y-420800D01*
X97225100D01*
G01X97116700Y-727700D02*
X96954100D01*
G01X97512900Y-1055800D02*
Y-420800D01*
X97682300D01*
X97736500Y-452600D01*
X97770300Y-494900D01*
X97783900Y-579600D01*
X97770300Y-664200D01*
X97729700Y-717100D01*
X97682300Y-748900D01*
X97512900D01*
G01X97682300D02*
X97783900Y-1055800D01*
G01X98766000Y-420800D02*
X98711800Y-442000D01*
X98671200Y-494900D01*
X98644100Y-558400D01*
X98623800Y-643100D01*
X98617000Y-738300D01*
X98623800Y-833600D01*
X98644100Y-918200D01*
X98671200Y-981700D01*
X98711800Y-1034600D01*
X98766000Y-1055800D01*
X98820200Y-1034600D01*
X98860800Y-981700D01*
X98887900Y-918200D01*
X98908200Y-833600D01*
X98915000Y-738300D01*
X98908200Y-643100D01*
X98887900Y-558400D01*
X98860800Y-494900D01*
X98820200Y-442000D01*
X98766000Y-420800D01*
G01X99324800Y-1077000D02*
X99311300Y-1066400D01*
Y-1045200D01*
X99324800Y-1034600D01*
X99338300Y-1045200D01*
Y-1066400D01*
X99324800Y-1077000D01*
G01X99883600Y-420800D02*
X99829400Y-442000D01*
X99788800Y-494900D01*
X99761700Y-558400D01*
X99741400Y-643100D01*
X99734600Y-738300D01*
X99741400Y-833600D01*
X99761700Y-918200D01*
X99788800Y-981700D01*
X99829400Y-1034600D01*
X99883600Y-1055800D01*
X99937800Y-1034600D01*
X99978400Y-981700D01*
X100005500Y-918200D01*
X100025800Y-833600D01*
X100032600Y-738300D01*
X100025800Y-643100D01*
X100005500Y-558400D01*
X99978400Y-494900D01*
X99937800Y-442000D01*
X99883600Y-420800D01*
G01X100293400Y-928800D02*
X100334000Y-1002900D01*
X100388200Y-1045200D01*
X100449200Y-1055800D01*
X100503400Y-1045200D01*
X100557600Y-992300D01*
X100591400Y-928800D01*
X100598200Y-865300D01*
X100584600Y-791200D01*
X100537200Y-738300D01*
X100489800Y-717100D01*
X100428900D01*
G01X100489800D02*
X100530500Y-685400D01*
X100564300Y-632500D01*
X100577900Y-569000D01*
X100564300Y-505500D01*
X100530500Y-452600D01*
X100469500Y-420800D01*
X100408500Y-431400D01*
X100347600Y-473700D01*
G01X101001200Y-420800D02*
X100947000Y-442000D01*
X100906400Y-494900D01*
X100879300Y-558400D01*
X100859000Y-643100D01*
X100852200Y-738300D01*
X100859000Y-833600D01*
X100879300Y-918200D01*
X100906400Y-981700D01*
X100947000Y-1034600D01*
X101001200Y-1055800D01*
X101055400Y-1034600D01*
X101096000Y-981700D01*
X101123100Y-918200D01*
X101143400Y-833600D01*
X101150200Y-738300D01*
X101143400Y-643100D01*
X101123100Y-558400D01*
X101096000Y-494900D01*
X101055400Y-442000D01*
X101001200Y-420800D01*
G01X101411000Y-960600D02*
X101451600Y-1013500D01*
X101499000Y-1045200D01*
X101560000Y-1055800D01*
X101621000Y-1034600D01*
X101668400Y-992300D01*
X101702200Y-918200D01*
X101709000Y-833600D01*
X101695500Y-748900D01*
X101661600Y-696000D01*
X101614200Y-653600D01*
X101566800Y-643100D01*
X101519400Y-653600D01*
X101458400Y-696000D01*
X101478700Y-420800D01*
X101661600D01*
G01X102501500Y-1055800D02*
Y-420800D01*
X102677600Y-950000D01*
X102853700Y-420800D01*
Y-1055800D01*
G01X103060300D02*
Y-420800D01*
X103236400Y-950000D01*
X103412500Y-420800D01*
Y-1055800D01*
G01X82970600Y-2358000D02*
X83268600Y-1892300D01*
G01X83119600Y-1807600D02*
Y-2442600D01*
G01X83268600Y-2358000D02*
X82970600Y-1892300D01*
G01X82916400Y-2125100D02*
X83322800D01*
G01X84653800Y-2252200D02*
X84707900Y-2305100D01*
X84768900Y-2336800D01*
X84823100D01*
X84877300Y-2305100D01*
X84917900Y-2252200D01*
X84938200Y-2178000D01*
X84924700Y-2104000D01*
X84890800Y-2040500D01*
X84829900Y-1998100D01*
X84748600Y-1977000D01*
X84701200Y-1934600D01*
X84680800Y-1860600D01*
X84694400Y-1786500D01*
X84728300Y-1733600D01*
X84775700Y-1701800D01*
X84823100D01*
X84870500Y-1723000D01*
X84911200Y-1775900D01*
G01X85205800Y-1701800D02*
Y-2156900D01*
X85232900Y-2252200D01*
X85287100Y-2315600D01*
X85354800Y-2336800D01*
X85422500Y-2315600D01*
X85476700Y-2252200D01*
X85503800Y-2156900D01*
Y-1701800D01*
G01X85778100Y-2336800D02*
Y-1701800D01*
X85947500D01*
X86001700Y-1733600D01*
X86035500Y-1775900D01*
X86049100Y-1860600D01*
X86035500Y-1945200D01*
X85994900Y-1998100D01*
X85947500Y-2029900D01*
X85778100D01*
G01X85947500D02*
X86049100Y-2336800D01*
G01X86343700D02*
Y-1701800D01*
X86601100D01*
G01X86506300Y-2008700D02*
X86343700D01*
G01X86861900Y-2336800D02*
X87031200Y-1701800D01*
X87200500Y-2336800D01*
G01X87139600Y-2114600D02*
X86922800D01*
G01X87739000Y-1754700D02*
X87698400Y-1723000D01*
X87651000Y-1701800D01*
X87596800D01*
X87535800Y-1733600D01*
X87488400Y-1786500D01*
X87454500Y-1850000D01*
X87427400Y-1955800D01*
X87420700Y-2051100D01*
X87434200Y-2146300D01*
X87454500Y-2209800D01*
X87495200Y-2273300D01*
X87542600Y-2315600D01*
X87590000Y-2336800D01*
X87637400D01*
X87684800Y-2315600D01*
X87725500Y-2283900D01*
X87759300Y-2241600D01*
G01X88284300Y-2336800D02*
X88013300D01*
Y-1701800D01*
X88284300D01*
G01X88175900Y-2008700D02*
X88013300D01*
G01X89178300Y-2125100D02*
X89354500D01*
G01X90214700Y-2336800D02*
X90384000Y-1701800D01*
X90553300Y-2336800D01*
G01X90492400Y-2114600D02*
X90275600D01*
G01X90861500Y-1701800D02*
X91024100D01*
G01X90942800D02*
Y-2336800D01*
G01X90861500D02*
X91024100D01*
G01X91366100D02*
Y-1701800D01*
X91535500D01*
X91589700Y-1733600D01*
X91623500Y-1775900D01*
X91637100Y-1860600D01*
X91623500Y-1945200D01*
X91582900Y-1998100D01*
X91535500Y-2029900D01*
X91366100D01*
G01X91535500D02*
X91637100Y-2336800D01*
G01X92619200Y-1701800D02*
X92565000Y-1723000D01*
X92524400Y-1775900D01*
X92497300Y-1839400D01*
X92477000Y-1924100D01*
X92470200Y-2019300D01*
X92477000Y-2114600D01*
X92497300Y-2199200D01*
X92524400Y-2262700D01*
X92565000Y-2315600D01*
X92619200Y-2336800D01*
X92673400Y-2315600D01*
X92714000Y-2262700D01*
X92741100Y-2199200D01*
X92761400Y-2114600D01*
X92768200Y-2019300D01*
X92761400Y-1924100D01*
X92741100Y-1839400D01*
X92714000Y-1775900D01*
X92673400Y-1723000D01*
X92619200Y-1701800D01*
G01X93560700Y-2336800D02*
Y-1701800D01*
X93736800Y-2231000D01*
X93912900Y-1701800D01*
Y-2336800D01*
G01X94119500D02*
Y-1701800D01*
X94295600Y-2231000D01*
X94471700Y-1701800D01*
Y-2336800D01*
G01X82970600Y4036800D02*
X83268600Y4502500D01*
G01X83119600Y4587200D02*
Y3952200D01*
G01X83268600Y4036800D02*
X82970600Y4502500D01*
G01X82916400Y4269700D02*
X83322800D01*
G01X84647000Y4058000D02*
Y4693000D01*
X84782500D01*
X84836600Y4661200D01*
X84877300Y4618900D01*
X84911200Y4555400D01*
X84938200Y4481300D01*
X84945000Y4375500D01*
X84938200Y4269700D01*
X84911200Y4195600D01*
X84877300Y4132100D01*
X84836600Y4089700D01*
X84782500Y4058000D01*
X84647000D01*
G01X85273500Y4693000D02*
X85436100D01*
G01X85354800D02*
Y4058000D01*
G01X85273500D02*
X85436100D01*
G01X86049100D02*
X85778100D01*
Y4693000D01*
X86049100D01*
G01X85940700Y4386100D02*
X85778100D01*
G01X86336900Y4693000D02*
Y4058000D01*
X86607900D01*
G01X87166700D02*
X86895700D01*
Y4693000D01*
X87166700D01*
G01X87058300Y4386100D02*
X86895700D01*
G01X87739000Y4640100D02*
X87698400Y4671800D01*
X87651000Y4693000D01*
X87596800D01*
X87535800Y4661200D01*
X87488400Y4608300D01*
X87454500Y4544800D01*
X87427400Y4439000D01*
X87420700Y4343700D01*
X87434200Y4248500D01*
X87454500Y4185000D01*
X87495200Y4121500D01*
X87542600Y4079200D01*
X87590000Y4058000D01*
X87637400D01*
X87684800Y4079200D01*
X87725500Y4110900D01*
X87759300Y4153200D01*
G01X88148800Y4693000D02*
Y4058000D01*
G01X87993000Y4693000D02*
X88304600D01*
G01X88572100Y4058000D02*
Y4693000D01*
X88741500D01*
X88795700Y4661200D01*
X88829500Y4618900D01*
X88843100Y4534200D01*
X88829500Y4449600D01*
X88788900Y4396700D01*
X88741500Y4364900D01*
X88572100D01*
G01X88741500D02*
X88843100Y4058000D01*
G01X89185100Y4693000D02*
X89347700D01*
G01X89266400D02*
Y4058000D01*
G01X89185100D02*
X89347700D01*
G01X89974200Y4640100D02*
X89933600Y4671800D01*
X89886200Y4693000D01*
X89832000D01*
X89771000Y4661200D01*
X89723600Y4608300D01*
X89689700Y4544800D01*
X89662600Y4439000D01*
X89655900Y4343700D01*
X89669400Y4248500D01*
X89689700Y4185000D01*
X89730400Y4121500D01*
X89777800Y4079200D01*
X89825200Y4058000D01*
X89872600D01*
X89920000Y4079200D01*
X89960700Y4110900D01*
X89994500Y4153200D01*
G01X90854700Y4269700D02*
X91030900D01*
G01X91931700Y4058000D02*
Y4693000D01*
X92189100D01*
G01X92094300Y4386100D02*
X91931700D01*
G01X92483700Y4058000D02*
Y4693000D01*
X92653100D01*
X92707300Y4661200D01*
X92741100Y4618900D01*
X92754700Y4534200D01*
X92741100Y4449600D01*
X92700500Y4396700D01*
X92653100Y4364900D01*
X92483700D01*
G01X92653100D02*
X92754700Y4058000D01*
G01X93089900Y4269700D02*
X93266100D01*
G01X93818100Y4058000D02*
Y4693000D01*
X93567500Y4237900D01*
X93906100D01*
G01X94854400Y4693000D02*
X94800200Y4671800D01*
X94759600Y4618900D01*
X94732500Y4555400D01*
X94712200Y4470700D01*
X94705400Y4375500D01*
X94712200Y4280200D01*
X94732500Y4195600D01*
X94759600Y4132100D01*
X94800200Y4079200D01*
X94854400Y4058000D01*
X94908600Y4079200D01*
X94949200Y4132100D01*
X94976300Y4195600D01*
X94996600Y4280200D01*
X95003400Y4375500D01*
X94996600Y4470700D01*
X94976300Y4555400D01*
X94949200Y4618900D01*
X94908600Y4671800D01*
X94854400Y4693000D01*
G01X95413200Y4036800D02*
X95399700Y4047400D01*
Y4068600D01*
X95413200Y4079200D01*
X95426700Y4068600D01*
Y4047400D01*
X95413200Y4036800D01*
G01X95843300Y4587200D02*
X95883900Y4650700D01*
X95931400Y4682400D01*
X95985500Y4693000D01*
X96053300Y4671800D01*
X96100700Y4618900D01*
X96114200Y4555400D01*
X96107500Y4491900D01*
X96080400Y4439000D01*
X95944900Y4333200D01*
X95883900Y4259100D01*
X95843300Y4153200D01*
X95829800Y4058000D01*
X96114200D01*
G01X96530800Y4693000D02*
X96476600Y4671800D01*
X96436000Y4618900D01*
X96408900Y4555400D01*
X96388600Y4470700D01*
X96381800Y4375500D01*
X96388600Y4280200D01*
X96408900Y4195600D01*
X96436000Y4132100D01*
X96476600Y4079200D01*
X96530800Y4058000D01*
X96585000Y4079200D01*
X96625600Y4132100D01*
X96652700Y4195600D01*
X96673000Y4280200D01*
X96679800Y4375500D01*
X96673000Y4470700D01*
X96652700Y4555400D01*
X96625600Y4618900D01*
X96585000Y4671800D01*
X96530800Y4693000D01*
G01X96940600Y4185000D02*
X96981200Y4110900D01*
X97035400Y4068600D01*
X97096400Y4058000D01*
X97150600Y4068600D01*
X97204800Y4121500D01*
X97238600Y4185000D01*
X97245400Y4248500D01*
X97231800Y4322600D01*
X97184400Y4375500D01*
X97137000Y4396700D01*
X97076100D01*
G01X97137000D02*
X97177700Y4428400D01*
X97211500Y4481300D01*
X97225100Y4544800D01*
X97211500Y4608300D01*
X97177700Y4661200D01*
X97116700Y4693000D01*
X97055700Y4682400D01*
X96994800Y4640100D01*
G01X97519700Y4587200D02*
X97560300Y4650700D01*
X97607800Y4682400D01*
X97661900Y4693000D01*
X97729700Y4671800D01*
X97777100Y4618900D01*
X97790600Y4555400D01*
X97783900Y4491900D01*
X97756800Y4439000D01*
X97621300Y4333200D01*
X97560300Y4259100D01*
X97519700Y4153200D01*
X97506200Y4058000D01*
X97790600D01*
G01X98589900D02*
Y4693000D01*
X98766000Y4163800D01*
X98942100Y4693000D01*
Y4058000D01*
G01X99148700D02*
Y4693000D01*
X99324800Y4163800D01*
X99500900Y4693000D01*
Y4058000D01*
G01X81866500Y9394600D02*
Y8759600D01*
X82137500D01*
G01X82411800Y8854800D02*
X82452400Y8801900D01*
X82499800Y8770200D01*
X82560800Y8759600D01*
X82621800Y8780800D01*
X82669200Y8823100D01*
X82703000Y8897200D01*
X82709800Y8981800D01*
X82696300Y9066500D01*
X82662400Y9119400D01*
X82615000Y9161800D01*
X82567600Y9172300D01*
X82520200Y9161800D01*
X82459200Y9119400D01*
X82479500Y9394600D01*
X82662400D01*
G01X83119600Y8738400D02*
X83106100Y8749000D01*
Y8770200D01*
X83119600Y8780800D01*
X83133100Y8770200D01*
Y8749000D01*
X83119600Y8738400D01*
G01Y9024200D02*
X83106100Y9034800D01*
Y9055900D01*
X83119600Y9066500D01*
X83133100Y9055900D01*
Y9034800D01*
X83119600Y9024200D01*
G01X84101700Y8759600D02*
Y9394600D01*
X84264300D01*
X84318500Y9362800D01*
X84359100Y9288800D01*
X84372700Y9204100D01*
X84359100Y9119400D01*
X84325300Y9055900D01*
X84264300Y9024200D01*
X84101700D01*
G01X84592800Y9394600D02*
X84687600Y8759600D01*
X84796000Y9394600D01*
X84904400Y8759600D01*
X84999200Y9394600D01*
G01X85219300Y8759600D02*
Y9394600D01*
X85388700D01*
X85442900Y9362800D01*
X85476700Y9320500D01*
X85490300Y9235800D01*
X85476700Y9151200D01*
X85436100Y9098300D01*
X85388700Y9066500D01*
X85219300D01*
G01X85388700D02*
X85490300Y8759600D01*
G01X86621400Y9341700D02*
X86580800Y9373400D01*
X86533400Y9394600D01*
X86479200D01*
X86418200Y9362800D01*
X86370800Y9309900D01*
X86336900Y9246400D01*
X86309800Y9140600D01*
X86303100Y9045300D01*
X86316600Y8950100D01*
X86336900Y8886600D01*
X86377600Y8823100D01*
X86425000Y8780800D01*
X86472400Y8759600D01*
X86519800D01*
X86567200Y8780800D01*
X86607900Y8812500D01*
X86641700Y8854800D01*
G01X87031200Y8759600D02*
X86977000Y8770200D01*
X86929600Y8812500D01*
X86889000Y8876000D01*
X86861900Y8950100D01*
X86848300Y9034800D01*
Y9119400D01*
X86861900Y9204100D01*
X86889000Y9278200D01*
X86929600Y9341700D01*
X86977000Y9384000D01*
X87031200Y9394600D01*
X87085400Y9384000D01*
X87132800Y9341700D01*
X87173400Y9278200D01*
X87200500Y9204100D01*
X87214100Y9119400D01*
Y9034800D01*
X87200500Y8950100D01*
X87173400Y8876000D01*
X87132800Y8812500D01*
X87085400Y8770200D01*
X87031200Y8759600D01*
G01X87434200D02*
Y9394600D01*
X87745800Y8759600D01*
Y9394600D01*
G01X87999800Y8759600D02*
Y9394600D01*
X88135300D01*
X88189400Y9362800D01*
X88230100Y9320500D01*
X88264000Y9257000D01*
X88291000Y9182900D01*
X88297800Y9077100D01*
X88291000Y8971300D01*
X88264000Y8897200D01*
X88230100Y8833700D01*
X88189400Y8791300D01*
X88135300Y8759600D01*
X87999800D01*
G01X88558600Y9394600D02*
Y8939500D01*
X88585700Y8844200D01*
X88639900Y8780800D01*
X88707600Y8759600D01*
X88775300Y8780800D01*
X88829500Y8844200D01*
X88856600Y8939500D01*
Y9394600D01*
G01X89415400Y9341700D02*
X89374800Y9373400D01*
X89327400Y9394600D01*
X89273200D01*
X89212200Y9362800D01*
X89164800Y9309900D01*
X89130900Y9246400D01*
X89103800Y9140600D01*
X89097100Y9045300D01*
X89110600Y8950100D01*
X89130900Y8886600D01*
X89171600Y8823100D01*
X89219000Y8780800D01*
X89266400Y8759600D01*
X89313800D01*
X89361200Y8780800D01*
X89401900Y8812500D01*
X89435700Y8854800D01*
G01X89825200Y9394600D02*
Y8759600D01*
G01X89669400Y9394600D02*
X89981000D01*
G01X90384000Y8759600D02*
X90329800Y8770200D01*
X90282400Y8812500D01*
X90241800Y8876000D01*
X90214700Y8950100D01*
X90201100Y9034800D01*
Y9119400D01*
X90214700Y9204100D01*
X90241800Y9278200D01*
X90282400Y9341700D01*
X90329800Y9384000D01*
X90384000Y9394600D01*
X90438200Y9384000D01*
X90485600Y9341700D01*
X90526200Y9278200D01*
X90553300Y9204100D01*
X90566900Y9119400D01*
Y9034800D01*
X90553300Y8950100D01*
X90526200Y8876000D01*
X90485600Y8812500D01*
X90438200Y8770200D01*
X90384000Y8759600D01*
G01X90807300D02*
Y9394600D01*
X90976700D01*
X91030900Y9362800D01*
X91064700Y9320500D01*
X91078300Y9235800D01*
X91064700Y9151200D01*
X91024100Y9098300D01*
X90976700Y9066500D01*
X90807300D01*
G01X90976700D02*
X91078300Y8759600D01*
G01X91972300Y8971300D02*
X92148500D01*
G01X93327000Y9341700D02*
X93286400Y9373400D01*
X93239000Y9394600D01*
X93184800D01*
X93123800Y9362800D01*
X93076400Y9309900D01*
X93042500Y9246400D01*
X93015400Y9140600D01*
X93008700Y9045300D01*
X93022200Y8950100D01*
X93042500Y8886600D01*
X93083200Y8823100D01*
X93130600Y8780800D01*
X93178000Y8759600D01*
X93225400D01*
X93272800Y8780800D01*
X93313500Y8812500D01*
X93347300Y8854800D01*
G01X93736800Y8759600D02*
X93682600Y8770200D01*
X93635200Y8812500D01*
X93594600Y8876000D01*
X93567500Y8950100D01*
X93553900Y9034800D01*
Y9119400D01*
X93567500Y9204100D01*
X93594600Y9278200D01*
X93635200Y9341700D01*
X93682600Y9384000D01*
X93736800Y9394600D01*
X93791000Y9384000D01*
X93838400Y9341700D01*
X93879000Y9278200D01*
X93906100Y9204100D01*
X93919700Y9119400D01*
Y9034800D01*
X93906100Y8950100D01*
X93879000Y8876000D01*
X93838400Y8812500D01*
X93791000Y8770200D01*
X93736800Y8759600D01*
G01X94160100D02*
Y9394600D01*
X94322700D01*
X94376900Y9362800D01*
X94417500Y9288800D01*
X94431100Y9204100D01*
X94417500Y9119400D01*
X94383700Y9055900D01*
X94322700Y9024200D01*
X94160100D01*
G01X94718900Y8759600D02*
Y9394600D01*
X94881500D01*
X94935700Y9362800D01*
X94976300Y9288800D01*
X94989900Y9204100D01*
X94976300Y9119400D01*
X94942500Y9055900D01*
X94881500Y9024200D01*
X94718900D01*
G01X95548700Y8759600D02*
X95277700D01*
Y9394600D01*
X95548700D01*
G01X95440300Y9087700D02*
X95277700D01*
G01X95836500Y8759600D02*
Y9394600D01*
X96005900D01*
X96060100Y9362800D01*
X96093900Y9320500D01*
X96107500Y9235800D01*
X96093900Y9151200D01*
X96053300Y9098300D01*
X96005900Y9066500D01*
X95836500D01*
G01X96005900D02*
X96107500Y8759600D01*
G01X97089600Y9394600D02*
X97035400Y9373400D01*
X96994800Y9320500D01*
X96967700Y9257000D01*
X96947400Y9172300D01*
X96940600Y9077100D01*
X96947400Y8981800D01*
X96967700Y8897200D01*
X96994800Y8833700D01*
X97035400Y8780800D01*
X97089600Y8759600D01*
X97143800Y8780800D01*
X97184400Y8833700D01*
X97211500Y8897200D01*
X97231800Y8981800D01*
X97238600Y9077100D01*
X97231800Y9172300D01*
X97211500Y9257000D01*
X97184400Y9320500D01*
X97143800Y9373400D01*
X97089600Y9394600D01*
G01X97648400Y8738400D02*
X97634900Y8749000D01*
Y8770200D01*
X97648400Y8780800D01*
X97661900Y8770200D01*
Y8749000D01*
X97648400Y8738400D01*
G01X98207200Y9394600D02*
X98153000Y9373400D01*
X98112400Y9320500D01*
X98085300Y9257000D01*
X98065000Y9172300D01*
X98058200Y9077100D01*
X98065000Y8981800D01*
X98085300Y8897200D01*
X98112400Y8833700D01*
X98153000Y8780800D01*
X98207200Y8759600D01*
X98261400Y8780800D01*
X98302000Y8833700D01*
X98329100Y8897200D01*
X98349400Y8981800D01*
X98356200Y9077100D01*
X98349400Y9172300D01*
X98329100Y9257000D01*
X98302000Y9320500D01*
X98261400Y9373400D01*
X98207200Y9394600D01*
G01X98617000Y8886600D02*
X98657600Y8812500D01*
X98711800Y8770200D01*
X98772800Y8759600D01*
X98827000Y8770200D01*
X98881200Y8823100D01*
X98915000Y8886600D01*
X98921800Y8950100D01*
X98908200Y9024200D01*
X98860800Y9077100D01*
X98813400Y9098300D01*
X98752500D01*
G01X98813400D02*
X98854100Y9130000D01*
X98887900Y9182900D01*
X98901500Y9246400D01*
X98887900Y9309900D01*
X98854100Y9362800D01*
X98793100Y9394600D01*
X98732100Y9384000D01*
X98671200Y9341700D01*
G01X99324800Y9394600D02*
X99270600Y9373400D01*
X99230000Y9320500D01*
X99202900Y9257000D01*
X99182600Y9172300D01*
X99175800Y9077100D01*
X99182600Y8981800D01*
X99202900Y8897200D01*
X99230000Y8833700D01*
X99270600Y8780800D01*
X99324800Y8759600D01*
X99379000Y8780800D01*
X99419600Y8833700D01*
X99446700Y8897200D01*
X99467000Y8981800D01*
X99473800Y9077100D01*
X99467000Y9172300D01*
X99446700Y9257000D01*
X99419600Y9320500D01*
X99379000Y9373400D01*
X99324800Y9394600D01*
G01X99734600Y8854800D02*
X99775200Y8801900D01*
X99822600Y8770200D01*
X99883600Y8759600D01*
X99944600Y8780800D01*
X99992000Y8823100D01*
X100025800Y8897200D01*
X100032600Y8981800D01*
X100019100Y9066500D01*
X99985200Y9119400D01*
X99937800Y9161800D01*
X99890400Y9172300D01*
X99843000Y9161800D01*
X99782000Y9119400D01*
X99802300Y9394600D01*
X99985200D01*
G01X100825100Y8759600D02*
Y9394600D01*
X101001200Y8865400D01*
X101177300Y9394600D01*
Y8759600D01*
G01X101383900D02*
Y9394600D01*
X101560000Y8865400D01*
X101736100Y9394600D01*
Y8759600D01*
G01X82970600Y13852200D02*
X83268600Y14317900D01*
G01X83119600Y14402600D02*
Y13767600D01*
G01X83268600Y13852200D02*
X82970600Y14317900D01*
G01X82916400Y14085100D02*
X83322800D01*
G01X84647000Y13873400D02*
Y14508400D01*
X84782500D01*
X84836600Y14476600D01*
X84877300Y14434300D01*
X84911200Y14370800D01*
X84938200Y14296700D01*
X84945000Y14190900D01*
X84938200Y14085100D01*
X84911200Y14011000D01*
X84877300Y13947500D01*
X84836600Y13905100D01*
X84782500Y13873400D01*
X84647000D01*
G01X85273500Y14508400D02*
X85436100D01*
G01X85354800D02*
Y13873400D01*
G01X85273500D02*
X85436100D01*
G01X86049100D02*
X85778100D01*
Y14508400D01*
X86049100D01*
G01X85940700Y14201500D02*
X85778100D01*
G01X86336900Y14508400D02*
Y13873400D01*
X86607900D01*
G01X87166700D02*
X86895700D01*
Y14508400D01*
X87166700D01*
G01X87058300Y14201500D02*
X86895700D01*
G01X87739000Y14455500D02*
X87698400Y14487200D01*
X87651000Y14508400D01*
X87596800D01*
X87535800Y14476600D01*
X87488400Y14423700D01*
X87454500Y14360200D01*
X87427400Y14254400D01*
X87420700Y14159100D01*
X87434200Y14063900D01*
X87454500Y14000400D01*
X87495200Y13936900D01*
X87542600Y13894600D01*
X87590000Y13873400D01*
X87637400D01*
X87684800Y13894600D01*
X87725500Y13926300D01*
X87759300Y13968600D01*
G01X88148800Y14508400D02*
Y13873400D01*
G01X87993000Y14508400D02*
X88304600D01*
G01X88572100Y13873400D02*
Y14508400D01*
X88741500D01*
X88795700Y14476600D01*
X88829500Y14434300D01*
X88843100Y14349600D01*
X88829500Y14265000D01*
X88788900Y14212100D01*
X88741500Y14180300D01*
X88572100D01*
G01X88741500D02*
X88843100Y13873400D01*
G01X89185100Y14508400D02*
X89347700D01*
G01X89266400D02*
Y13873400D01*
G01X89185100D02*
X89347700D01*
G01X89974200Y14455500D02*
X89933600Y14487200D01*
X89886200Y14508400D01*
X89832000D01*
X89771000Y14476600D01*
X89723600Y14423700D01*
X89689700Y14360200D01*
X89662600Y14254400D01*
X89655900Y14159100D01*
X89669400Y14063900D01*
X89689700Y14000400D01*
X89730400Y13936900D01*
X89777800Y13894600D01*
X89825200Y13873400D01*
X89872600D01*
X89920000Y13894600D01*
X89960700Y13926300D01*
X89994500Y13968600D01*
G01X90854700Y14085100D02*
X91030900D01*
G01X91931700Y13873400D02*
Y14508400D01*
X92189100D01*
G01X92094300Y14201500D02*
X91931700D01*
G01X92483700Y13873400D02*
Y14508400D01*
X92653100D01*
X92707300Y14476600D01*
X92741100Y14434300D01*
X92754700Y14349600D01*
X92741100Y14265000D01*
X92700500Y14212100D01*
X92653100Y14180300D01*
X92483700D01*
G01X92653100D02*
X92754700Y13873400D01*
G01X93089900Y14085100D02*
X93266100D01*
G01X93818100Y13873400D02*
Y14508400D01*
X93567500Y14053300D01*
X93906100D01*
G01X94854400Y14508400D02*
X94800200Y14487200D01*
X94759600Y14434300D01*
X94732500Y14370800D01*
X94712200Y14286100D01*
X94705400Y14190900D01*
X94712200Y14095600D01*
X94732500Y14011000D01*
X94759600Y13947500D01*
X94800200Y13894600D01*
X94854400Y13873400D01*
X94908600Y13894600D01*
X94949200Y13947500D01*
X94976300Y14011000D01*
X94996600Y14095600D01*
X95003400Y14190900D01*
X94996600Y14286100D01*
X94976300Y14370800D01*
X94949200Y14434300D01*
X94908600Y14487200D01*
X94854400Y14508400D01*
G01X95413200Y13852200D02*
X95399700Y13862800D01*
Y13884000D01*
X95413200Y13894600D01*
X95426700Y13884000D01*
Y13862800D01*
X95413200Y13852200D01*
G01X95843300Y14402600D02*
X95883900Y14466100D01*
X95931400Y14497800D01*
X95985500Y14508400D01*
X96053300Y14487200D01*
X96100700Y14434300D01*
X96114200Y14370800D01*
X96107500Y14307300D01*
X96080400Y14254400D01*
X95944900Y14148600D01*
X95883900Y14074500D01*
X95843300Y13968600D01*
X95829800Y13873400D01*
X96114200D01*
G01X96530800Y14508400D02*
X96476600Y14487200D01*
X96436000Y14434300D01*
X96408900Y14370800D01*
X96388600Y14286100D01*
X96381800Y14190900D01*
X96388600Y14095600D01*
X96408900Y14011000D01*
X96436000Y13947500D01*
X96476600Y13894600D01*
X96530800Y13873400D01*
X96585000Y13894600D01*
X96625600Y13947500D01*
X96652700Y14011000D01*
X96673000Y14095600D01*
X96679800Y14190900D01*
X96673000Y14286100D01*
X96652700Y14370800D01*
X96625600Y14434300D01*
X96585000Y14487200D01*
X96530800Y14508400D01*
G01X96940600Y14000400D02*
X96981200Y13926300D01*
X97035400Y13884000D01*
X97096400Y13873400D01*
X97150600Y13884000D01*
X97204800Y13936900D01*
X97238600Y14000400D01*
X97245400Y14063900D01*
X97231800Y14138000D01*
X97184400Y14190900D01*
X97137000Y14212100D01*
X97076100D01*
G01X97137000D02*
X97177700Y14243800D01*
X97211500Y14296700D01*
X97225100Y14360200D01*
X97211500Y14423700D01*
X97177700Y14476600D01*
X97116700Y14508400D01*
X97055700Y14497800D01*
X96994800Y14455500D01*
G01X97519700Y14402600D02*
X97560300Y14466100D01*
X97607800Y14497800D01*
X97661900Y14508400D01*
X97729700Y14487200D01*
X97777100Y14434300D01*
X97790600Y14370800D01*
X97783900Y14307300D01*
X97756800Y14254400D01*
X97621300Y14148600D01*
X97560300Y14074500D01*
X97519700Y13968600D01*
X97506200Y13873400D01*
X97790600D01*
G01X98589900D02*
Y14508400D01*
X98766000Y13979200D01*
X98942100Y14508400D01*
Y13873400D01*
G01X99148700D02*
Y14508400D01*
X99324800Y13979200D01*
X99500900Y14508400D01*
Y13873400D01*
G01X81866500Y19210000D02*
Y18575000D01*
X82137500D01*
G01X82642100D02*
Y19210000D01*
X82391500Y18754900D01*
X82730100D01*
G01X83119600Y18553800D02*
X83106100Y18564400D01*
Y18585600D01*
X83119600Y18596200D01*
X83133100Y18585600D01*
Y18564400D01*
X83119600Y18553800D01*
G01Y18839600D02*
X83106100Y18850200D01*
Y18871300D01*
X83119600Y18881900D01*
X83133100Y18871300D01*
Y18850200D01*
X83119600Y18839600D01*
G01X84101700Y19210000D02*
Y18575000D01*
X84372700D01*
G01X84626700D02*
X84796000Y19210000D01*
X84965300Y18575000D01*
G01X84904400Y18797200D02*
X84687600D01*
G01X85354800Y18575000D02*
Y18860700D01*
X85219300Y19210000D01*
G01X85490300D02*
X85354800Y18860700D01*
G01X86049100Y18575000D02*
X85778100D01*
Y19210000D01*
X86049100D01*
G01X85940700Y18903100D02*
X85778100D01*
G01X86336900Y18575000D02*
Y19210000D01*
X86506300D01*
X86560500Y19178200D01*
X86594300Y19135900D01*
X86607900Y19051200D01*
X86594300Y18966600D01*
X86553700Y18913700D01*
X86506300Y18881900D01*
X86336900D01*
G01X86506300D02*
X86607900Y18575000D01*
G01X86828000Y18363300D02*
X87234400D01*
G01X87461300Y19104200D02*
X87501900Y19167700D01*
X87549400Y19199400D01*
X87603500Y19210000D01*
X87671300Y19188800D01*
X87718700Y19135900D01*
X87732200Y19072400D01*
X87725500Y19008900D01*
X87698400Y18956000D01*
X87562900Y18850200D01*
X87501900Y18776100D01*
X87461300Y18670200D01*
X87447800Y18575000D01*
X87732200D01*
G01X88856600Y19157100D02*
X88816000Y19188800D01*
X88768600Y19210000D01*
X88714400D01*
X88653400Y19178200D01*
X88606000Y19125300D01*
X88572100Y19061800D01*
X88545000Y18956000D01*
X88538300Y18860700D01*
X88551800Y18765500D01*
X88572100Y18702000D01*
X88612800Y18638500D01*
X88660200Y18596200D01*
X88707600Y18575000D01*
X88755000D01*
X88802400Y18596200D01*
X88843100Y18627900D01*
X88876900Y18670200D01*
G01X89266400Y18575000D02*
X89212200Y18585600D01*
X89164800Y18627900D01*
X89124200Y18691400D01*
X89097100Y18765500D01*
X89083500Y18850200D01*
Y18934800D01*
X89097100Y19019500D01*
X89124200Y19093600D01*
X89164800Y19157100D01*
X89212200Y19199400D01*
X89266400Y19210000D01*
X89320600Y19199400D01*
X89368000Y19157100D01*
X89408600Y19093600D01*
X89435700Y19019500D01*
X89449300Y18934800D01*
Y18850200D01*
X89435700Y18765500D01*
X89408600Y18691400D01*
X89368000Y18627900D01*
X89320600Y18585600D01*
X89266400Y18575000D01*
G01X89669400D02*
Y19210000D01*
X89981000Y18575000D01*
Y19210000D01*
G01X90235000Y18575000D02*
Y19210000D01*
X90370500D01*
X90424600Y19178200D01*
X90465300Y19135900D01*
X90499200Y19072400D01*
X90526200Y18998300D01*
X90533000Y18892500D01*
X90526200Y18786700D01*
X90499200Y18712600D01*
X90465300Y18649100D01*
X90424600Y18606700D01*
X90370500Y18575000D01*
X90235000D01*
G01X90793800Y19210000D02*
Y18754900D01*
X90820900Y18659600D01*
X90875100Y18596200D01*
X90942800Y18575000D01*
X91010500Y18596200D01*
X91064700Y18659600D01*
X91091800Y18754900D01*
Y19210000D01*
G01X91650600Y19157100D02*
X91610000Y19188800D01*
X91562600Y19210000D01*
X91508400D01*
X91447400Y19178200D01*
X91400000Y19125300D01*
X91366100Y19061800D01*
X91339000Y18956000D01*
X91332300Y18860700D01*
X91345800Y18765500D01*
X91366100Y18702000D01*
X91406800Y18638500D01*
X91454200Y18596200D01*
X91501600Y18575000D01*
X91549000D01*
X91596400Y18596200D01*
X91637100Y18627900D01*
X91670900Y18670200D01*
G01X92060400Y19210000D02*
Y18575000D01*
G01X91904600Y19210000D02*
X92216200D01*
G01X92619200Y18575000D02*
X92565000Y18585600D01*
X92517600Y18627900D01*
X92477000Y18691400D01*
X92449900Y18765500D01*
X92436300Y18850200D01*
Y18934800D01*
X92449900Y19019500D01*
X92477000Y19093600D01*
X92517600Y19157100D01*
X92565000Y19199400D01*
X92619200Y19210000D01*
X92673400Y19199400D01*
X92720800Y19157100D01*
X92761400Y19093600D01*
X92788500Y19019500D01*
X92802100Y18934800D01*
Y18850200D01*
X92788500Y18765500D01*
X92761400Y18691400D01*
X92720800Y18627900D01*
X92673400Y18585600D01*
X92619200Y18575000D01*
G01X93042500D02*
Y19210000D01*
X93211900D01*
X93266100Y19178200D01*
X93299900Y19135900D01*
X93313500Y19051200D01*
X93299900Y18966600D01*
X93259300Y18913700D01*
X93211900Y18881900D01*
X93042500D01*
G01X93211900D02*
X93313500Y18575000D01*
G01X94207500Y18786700D02*
X94383700D01*
G01X95562200Y19157100D02*
X95521600Y19188800D01*
X95474200Y19210000D01*
X95420000D01*
X95359000Y19178200D01*
X95311600Y19125300D01*
X95277700Y19061800D01*
X95250600Y18956000D01*
X95243900Y18860700D01*
X95257400Y18765500D01*
X95277700Y18702000D01*
X95318400Y18638500D01*
X95365800Y18596200D01*
X95413200Y18575000D01*
X95460600D01*
X95508000Y18596200D01*
X95548700Y18627900D01*
X95582500Y18670200D01*
G01X95972000Y18575000D02*
X95917800Y18585600D01*
X95870400Y18627900D01*
X95829800Y18691400D01*
X95802700Y18765500D01*
X95789100Y18850200D01*
Y18934800D01*
X95802700Y19019500D01*
X95829800Y19093600D01*
X95870400Y19157100D01*
X95917800Y19199400D01*
X95972000Y19210000D01*
X96026200Y19199400D01*
X96073600Y19157100D01*
X96114200Y19093600D01*
X96141300Y19019500D01*
X96154900Y18934800D01*
Y18850200D01*
X96141300Y18765500D01*
X96114200Y18691400D01*
X96073600Y18627900D01*
X96026200Y18585600D01*
X95972000Y18575000D01*
G01X96395300D02*
Y19210000D01*
X96557900D01*
X96612100Y19178200D01*
X96652700Y19104200D01*
X96666300Y19019500D01*
X96652700Y18934800D01*
X96618900Y18871300D01*
X96557900Y18839600D01*
X96395300D01*
G01X96954100Y18575000D02*
Y19210000D01*
X97116700D01*
X97170900Y19178200D01*
X97211500Y19104200D01*
X97225100Y19019500D01*
X97211500Y18934800D01*
X97177700Y18871300D01*
X97116700Y18839600D01*
X96954100D01*
G01X97783900Y18575000D02*
X97512900D01*
Y19210000D01*
X97783900D01*
G01X97675500Y18903100D02*
X97512900D01*
G01X98071700Y18575000D02*
Y19210000D01*
X98241100D01*
X98295300Y19178200D01*
X98329100Y19135900D01*
X98342700Y19051200D01*
X98329100Y18966600D01*
X98288500Y18913700D01*
X98241100Y18881900D01*
X98071700D01*
G01X98241100D02*
X98342700Y18575000D01*
G01X99324800Y19210000D02*
X99270600Y19188800D01*
X99230000Y19135900D01*
X99202900Y19072400D01*
X99182600Y18987700D01*
X99175800Y18892500D01*
X99182600Y18797200D01*
X99202900Y18712600D01*
X99230000Y18649100D01*
X99270600Y18596200D01*
X99324800Y18575000D01*
X99379000Y18596200D01*
X99419600Y18649100D01*
X99446700Y18712600D01*
X99467000Y18797200D01*
X99473800Y18892500D01*
X99467000Y18987700D01*
X99446700Y19072400D01*
X99419600Y19135900D01*
X99379000Y19188800D01*
X99324800Y19210000D01*
G01X99883600Y18553800D02*
X99870100Y18564400D01*
Y18585600D01*
X99883600Y18596200D01*
X99897100Y18585600D01*
Y18564400D01*
X99883600Y18553800D01*
G01X100442400Y19210000D02*
X100388200Y19188800D01*
X100347600Y19135900D01*
X100320500Y19072400D01*
X100300200Y18987700D01*
X100293400Y18892500D01*
X100300200Y18797200D01*
X100320500Y18712600D01*
X100347600Y18649100D01*
X100388200Y18596200D01*
X100442400Y18575000D01*
X100496600Y18596200D01*
X100537200Y18649100D01*
X100564300Y18712600D01*
X100584600Y18797200D01*
X100591400Y18892500D01*
X100584600Y18987700D01*
X100564300Y19072400D01*
X100537200Y19135900D01*
X100496600Y19188800D01*
X100442400Y19210000D01*
G01X100852200Y18702000D02*
X100892800Y18627900D01*
X100947000Y18585600D01*
X101008000Y18575000D01*
X101062200Y18585600D01*
X101116400Y18638500D01*
X101150200Y18702000D01*
X101157000Y18765500D01*
X101143400Y18839600D01*
X101096000Y18892500D01*
X101048600Y18913700D01*
X100987700D01*
G01X101048600D02*
X101089300Y18945400D01*
X101123100Y18998300D01*
X101136700Y19061800D01*
X101123100Y19125300D01*
X101089300Y19178200D01*
X101028300Y19210000D01*
X100967300Y19199400D01*
X100906400Y19157100D01*
G01X101560000Y19210000D02*
X101505800Y19188800D01*
X101465200Y19135900D01*
X101438100Y19072400D01*
X101417800Y18987700D01*
X101411000Y18892500D01*
X101417800Y18797200D01*
X101438100Y18712600D01*
X101465200Y18649100D01*
X101505800Y18596200D01*
X101560000Y18575000D01*
X101614200Y18596200D01*
X101654800Y18649100D01*
X101681900Y18712600D01*
X101702200Y18797200D01*
X101709000Y18892500D01*
X101702200Y18987700D01*
X101681900Y19072400D01*
X101654800Y19135900D01*
X101614200Y19188800D01*
X101560000Y19210000D01*
G01X101969800Y18670200D02*
X102010400Y18617300D01*
X102057800Y18585600D01*
X102118800Y18575000D01*
X102179800Y18596200D01*
X102227200Y18638500D01*
X102261000Y18712600D01*
X102267800Y18797200D01*
X102254300Y18881900D01*
X102220400Y18934800D01*
X102173000Y18977200D01*
X102125600Y18987700D01*
X102078200Y18977200D01*
X102017200Y18934800D01*
X102037500Y19210000D01*
X102220400D01*
G01X103060300Y18575000D02*
Y19210000D01*
X103236400Y18680800D01*
X103412500Y19210000D01*
Y18575000D01*
G01X103619100D02*
Y19210000D01*
X103795200Y18680800D01*
X103971300Y19210000D01*
Y18575000D01*
G01X82970600Y23667600D02*
X83268600Y24133300D01*
G01X83119600Y24218000D02*
Y23583000D01*
G01X83268600Y23667600D02*
X82970600Y24133300D01*
G01X82916400Y23900500D02*
X83322800D01*
G01X84647000Y23688800D02*
Y24323800D01*
X84782500D01*
X84836600Y24292000D01*
X84877300Y24249700D01*
X84911200Y24186200D01*
X84938200Y24112100D01*
X84945000Y24006300D01*
X84938200Y23900500D01*
X84911200Y23826400D01*
X84877300Y23762900D01*
X84836600Y23720500D01*
X84782500Y23688800D01*
X84647000D01*
G01X85273500Y24323800D02*
X85436100D01*
G01X85354800D02*
Y23688800D01*
G01X85273500D02*
X85436100D01*
G01X86049100D02*
X85778100D01*
Y24323800D01*
X86049100D01*
G01X85940700Y24016900D02*
X85778100D01*
G01X86336900Y24323800D02*
Y23688800D01*
X86607900D01*
G01X87166700D02*
X86895700D01*
Y24323800D01*
X87166700D01*
G01X87058300Y24016900D02*
X86895700D01*
G01X87739000Y24270900D02*
X87698400Y24302600D01*
X87651000Y24323800D01*
X87596800D01*
X87535800Y24292000D01*
X87488400Y24239100D01*
X87454500Y24175600D01*
X87427400Y24069800D01*
X87420700Y23974500D01*
X87434200Y23879300D01*
X87454500Y23815800D01*
X87495200Y23752300D01*
X87542600Y23710000D01*
X87590000Y23688800D01*
X87637400D01*
X87684800Y23710000D01*
X87725500Y23741700D01*
X87759300Y23784000D01*
G01X88148800Y24323800D02*
Y23688800D01*
G01X87993000Y24323800D02*
X88304600D01*
G01X88572100Y23688800D02*
Y24323800D01*
X88741500D01*
X88795700Y24292000D01*
X88829500Y24249700D01*
X88843100Y24165000D01*
X88829500Y24080400D01*
X88788900Y24027500D01*
X88741500Y23995700D01*
X88572100D01*
G01X88741500D02*
X88843100Y23688800D01*
G01X89185100Y24323800D02*
X89347700D01*
G01X89266400D02*
Y23688800D01*
G01X89185100D02*
X89347700D01*
G01X89974200Y24270900D02*
X89933600Y24302600D01*
X89886200Y24323800D01*
X89832000D01*
X89771000Y24292000D01*
X89723600Y24239100D01*
X89689700Y24175600D01*
X89662600Y24069800D01*
X89655900Y23974500D01*
X89669400Y23879300D01*
X89689700Y23815800D01*
X89730400Y23752300D01*
X89777800Y23710000D01*
X89825200Y23688800D01*
X89872600D01*
X89920000Y23710000D01*
X89960700Y23741700D01*
X89994500Y23784000D01*
G01X90854700Y23900500D02*
X91030900D01*
G01X91931700Y23688800D02*
Y24323800D01*
X92189100D01*
G01X92094300Y24016900D02*
X91931700D01*
G01X92483700Y23688800D02*
Y24323800D01*
X92653100D01*
X92707300Y24292000D01*
X92741100Y24249700D01*
X92754700Y24165000D01*
X92741100Y24080400D01*
X92700500Y24027500D01*
X92653100Y23995700D01*
X92483700D01*
G01X92653100D02*
X92754700Y23688800D01*
G01X93089900Y23900500D02*
X93266100D01*
G01X93818100Y23688800D02*
Y24323800D01*
X93567500Y23868700D01*
X93906100D01*
G01X94854400Y24323800D02*
X94800200Y24302600D01*
X94759600Y24249700D01*
X94732500Y24186200D01*
X94712200Y24101500D01*
X94705400Y24006300D01*
X94712200Y23911000D01*
X94732500Y23826400D01*
X94759600Y23762900D01*
X94800200Y23710000D01*
X94854400Y23688800D01*
X94908600Y23710000D01*
X94949200Y23762900D01*
X94976300Y23826400D01*
X94996600Y23911000D01*
X95003400Y24006300D01*
X94996600Y24101500D01*
X94976300Y24186200D01*
X94949200Y24249700D01*
X94908600Y24302600D01*
X94854400Y24323800D01*
G01X95413200Y23667600D02*
X95399700Y23678200D01*
Y23699400D01*
X95413200Y23710000D01*
X95426700Y23699400D01*
Y23678200D01*
X95413200Y23667600D01*
G01X95843300Y24218000D02*
X95883900Y24281500D01*
X95931400Y24313200D01*
X95985500Y24323800D01*
X96053300Y24302600D01*
X96100700Y24249700D01*
X96114200Y24186200D01*
X96107500Y24122700D01*
X96080400Y24069800D01*
X95944900Y23964000D01*
X95883900Y23889900D01*
X95843300Y23784000D01*
X95829800Y23688800D01*
X96114200D01*
G01X96530800Y24323800D02*
X96476600Y24302600D01*
X96436000Y24249700D01*
X96408900Y24186200D01*
X96388600Y24101500D01*
X96381800Y24006300D01*
X96388600Y23911000D01*
X96408900Y23826400D01*
X96436000Y23762900D01*
X96476600Y23710000D01*
X96530800Y23688800D01*
X96585000Y23710000D01*
X96625600Y23762900D01*
X96652700Y23826400D01*
X96673000Y23911000D01*
X96679800Y24006300D01*
X96673000Y24101500D01*
X96652700Y24186200D01*
X96625600Y24249700D01*
X96585000Y24302600D01*
X96530800Y24323800D01*
G01X96940600Y23815800D02*
X96981200Y23741700D01*
X97035400Y23699400D01*
X97096400Y23688800D01*
X97150600Y23699400D01*
X97204800Y23752300D01*
X97238600Y23815800D01*
X97245400Y23879300D01*
X97231800Y23953400D01*
X97184400Y24006300D01*
X97137000Y24027500D01*
X97076100D01*
G01X97137000D02*
X97177700Y24059200D01*
X97211500Y24112100D01*
X97225100Y24175600D01*
X97211500Y24239100D01*
X97177700Y24292000D01*
X97116700Y24323800D01*
X97055700Y24313200D01*
X96994800Y24270900D01*
G01X97519700Y24218000D02*
X97560300Y24281500D01*
X97607800Y24313200D01*
X97661900Y24323800D01*
X97729700Y24302600D01*
X97777100Y24249700D01*
X97790600Y24186200D01*
X97783900Y24122700D01*
X97756800Y24069800D01*
X97621300Y23964000D01*
X97560300Y23889900D01*
X97519700Y23784000D01*
X97506200Y23688800D01*
X97790600D01*
G01X98589900D02*
Y24323800D01*
X98766000Y23794600D01*
X98942100Y24323800D01*
Y23688800D01*
G01X99148700D02*
Y24323800D01*
X99324800Y23794600D01*
X99500900Y24323800D01*
Y23688800D01*
G01X81866500Y29025400D02*
Y28390400D01*
X82137500D01*
G01X82411800Y28517400D02*
X82452400Y28443300D01*
X82506600Y28401000D01*
X82567600Y28390400D01*
X82621800Y28401000D01*
X82676000Y28453900D01*
X82709800Y28517400D01*
X82716600Y28580900D01*
X82703000Y28655000D01*
X82655600Y28707900D01*
X82608200Y28729100D01*
X82547300D01*
G01X82608200D02*
X82648900Y28760800D01*
X82682700Y28813700D01*
X82696300Y28877200D01*
X82682700Y28940700D01*
X82648900Y28993600D01*
X82587900Y29025400D01*
X82526900Y29014800D01*
X82466000Y28972500D01*
G01X83119600Y28369200D02*
X83106100Y28379800D01*
Y28401000D01*
X83119600Y28411600D01*
X83133100Y28401000D01*
Y28379800D01*
X83119600Y28369200D01*
G01Y28655000D02*
X83106100Y28665600D01*
Y28686700D01*
X83119600Y28697300D01*
X83133100Y28686700D01*
Y28665600D01*
X83119600Y28655000D01*
G01X84101700Y29025400D02*
Y28390400D01*
X84372700D01*
G01X84626700D02*
X84796000Y29025400D01*
X84965300Y28390400D01*
G01X84904400Y28612600D02*
X84687600D01*
G01X85354800Y28390400D02*
Y28676100D01*
X85219300Y29025400D01*
G01X85490300D02*
X85354800Y28676100D01*
G01X86049100Y28390400D02*
X85778100D01*
Y29025400D01*
X86049100D01*
G01X85940700Y28718500D02*
X85778100D01*
G01X86336900Y28390400D02*
Y29025400D01*
X86506300D01*
X86560500Y28993600D01*
X86594300Y28951300D01*
X86607900Y28866600D01*
X86594300Y28782000D01*
X86553700Y28729100D01*
X86506300Y28697300D01*
X86336900D01*
G01X86506300D02*
X86607900Y28390400D01*
G01X87590000D02*
Y29025400D01*
X87508700Y28898400D01*
G01Y28390400D02*
X87671300D01*
G01X88856600Y28972500D02*
X88816000Y29004200D01*
X88768600Y29025400D01*
X88714400D01*
X88653400Y28993600D01*
X88606000Y28940700D01*
X88572100Y28877200D01*
X88545000Y28771400D01*
X88538300Y28676100D01*
X88551800Y28580900D01*
X88572100Y28517400D01*
X88612800Y28453900D01*
X88660200Y28411600D01*
X88707600Y28390400D01*
X88755000D01*
X88802400Y28411600D01*
X88843100Y28443300D01*
X88876900Y28485600D01*
G01X89266400Y28390400D02*
X89212200Y28401000D01*
X89164800Y28443300D01*
X89124200Y28506800D01*
X89097100Y28580900D01*
X89083500Y28665600D01*
Y28750200D01*
X89097100Y28834900D01*
X89124200Y28909000D01*
X89164800Y28972500D01*
X89212200Y29014800D01*
X89266400Y29025400D01*
X89320600Y29014800D01*
X89368000Y28972500D01*
X89408600Y28909000D01*
X89435700Y28834900D01*
X89449300Y28750200D01*
Y28665600D01*
X89435700Y28580900D01*
X89408600Y28506800D01*
X89368000Y28443300D01*
X89320600Y28401000D01*
X89266400Y28390400D01*
G01X89669400D02*
Y29025400D01*
X89981000Y28390400D01*
Y29025400D01*
G01X90235000Y28390400D02*
Y29025400D01*
X90370500D01*
X90424600Y28993600D01*
X90465300Y28951300D01*
X90499200Y28887800D01*
X90526200Y28813700D01*
X90533000Y28707900D01*
X90526200Y28602100D01*
X90499200Y28528000D01*
X90465300Y28464500D01*
X90424600Y28422100D01*
X90370500Y28390400D01*
X90235000D01*
G01X90793800Y29025400D02*
Y28570300D01*
X90820900Y28475000D01*
X90875100Y28411600D01*
X90942800Y28390400D01*
X91010500Y28411600D01*
X91064700Y28475000D01*
X91091800Y28570300D01*
Y29025400D01*
G01X91650600Y28972500D02*
X91610000Y29004200D01*
X91562600Y29025400D01*
X91508400D01*
X91447400Y28993600D01*
X91400000Y28940700D01*
X91366100Y28877200D01*
X91339000Y28771400D01*
X91332300Y28676100D01*
X91345800Y28580900D01*
X91366100Y28517400D01*
X91406800Y28453900D01*
X91454200Y28411600D01*
X91501600Y28390400D01*
X91549000D01*
X91596400Y28411600D01*
X91637100Y28443300D01*
X91670900Y28485600D01*
G01X92060400Y29025400D02*
Y28390400D01*
G01X91904600Y29025400D02*
X92216200D01*
G01X92619200Y28390400D02*
X92565000Y28401000D01*
X92517600Y28443300D01*
X92477000Y28506800D01*
X92449900Y28580900D01*
X92436300Y28665600D01*
Y28750200D01*
X92449900Y28834900D01*
X92477000Y28909000D01*
X92517600Y28972500D01*
X92565000Y29014800D01*
X92619200Y29025400D01*
X92673400Y29014800D01*
X92720800Y28972500D01*
X92761400Y28909000D01*
X92788500Y28834900D01*
X92802100Y28750200D01*
Y28665600D01*
X92788500Y28580900D01*
X92761400Y28506800D01*
X92720800Y28443300D01*
X92673400Y28401000D01*
X92619200Y28390400D01*
G01X93042500D02*
Y29025400D01*
X93211900D01*
X93266100Y28993600D01*
X93299900Y28951300D01*
X93313500Y28866600D01*
X93299900Y28782000D01*
X93259300Y28729100D01*
X93211900Y28697300D01*
X93042500D01*
G01X93211900D02*
X93313500Y28390400D01*
G01X94207500Y28602100D02*
X94383700D01*
G01X95562200Y28972500D02*
X95521600Y29004200D01*
X95474200Y29025400D01*
X95420000D01*
X95359000Y28993600D01*
X95311600Y28940700D01*
X95277700Y28877200D01*
X95250600Y28771400D01*
X95243900Y28676100D01*
X95257400Y28580900D01*
X95277700Y28517400D01*
X95318400Y28453900D01*
X95365800Y28411600D01*
X95413200Y28390400D01*
X95460600D01*
X95508000Y28411600D01*
X95548700Y28443300D01*
X95582500Y28485600D01*
G01X95972000Y28390400D02*
X95917800Y28401000D01*
X95870400Y28443300D01*
X95829800Y28506800D01*
X95802700Y28580900D01*
X95789100Y28665600D01*
Y28750200D01*
X95802700Y28834900D01*
X95829800Y28909000D01*
X95870400Y28972500D01*
X95917800Y29014800D01*
X95972000Y29025400D01*
X96026200Y29014800D01*
X96073600Y28972500D01*
X96114200Y28909000D01*
X96141300Y28834900D01*
X96154900Y28750200D01*
Y28665600D01*
X96141300Y28580900D01*
X96114200Y28506800D01*
X96073600Y28443300D01*
X96026200Y28401000D01*
X95972000Y28390400D01*
G01X96395300D02*
Y29025400D01*
X96557900D01*
X96612100Y28993600D01*
X96652700Y28919600D01*
X96666300Y28834900D01*
X96652700Y28750200D01*
X96618900Y28686700D01*
X96557900Y28655000D01*
X96395300D01*
G01X96954100Y28390400D02*
Y29025400D01*
X97116700D01*
X97170900Y28993600D01*
X97211500Y28919600D01*
X97225100Y28834900D01*
X97211500Y28750200D01*
X97177700Y28686700D01*
X97116700Y28655000D01*
X96954100D01*
G01X97783900Y28390400D02*
X97512900D01*
Y29025400D01*
X97783900D01*
G01X97675500Y28718500D02*
X97512900D01*
G01X98071700Y28390400D02*
Y29025400D01*
X98241100D01*
X98295300Y28993600D01*
X98329100Y28951300D01*
X98342700Y28866600D01*
X98329100Y28782000D01*
X98288500Y28729100D01*
X98241100Y28697300D01*
X98071700D01*
G01X98241100D02*
X98342700Y28390400D01*
G01X99324800Y29025400D02*
X99270600Y29004200D01*
X99230000Y28951300D01*
X99202900Y28887800D01*
X99182600Y28803100D01*
X99175800Y28707900D01*
X99182600Y28612600D01*
X99202900Y28528000D01*
X99230000Y28464500D01*
X99270600Y28411600D01*
X99324800Y28390400D01*
X99379000Y28411600D01*
X99419600Y28464500D01*
X99446700Y28528000D01*
X99467000Y28612600D01*
X99473800Y28707900D01*
X99467000Y28803100D01*
X99446700Y28887800D01*
X99419600Y28951300D01*
X99379000Y29004200D01*
X99324800Y29025400D01*
G01X99883600Y28369200D02*
X99870100Y28379800D01*
Y28401000D01*
X99883600Y28411600D01*
X99897100Y28401000D01*
Y28379800D01*
X99883600Y28369200D01*
G01X100442400Y29025400D02*
X100388200Y29004200D01*
X100347600Y28951300D01*
X100320500Y28887800D01*
X100300200Y28803100D01*
X100293400Y28707900D01*
X100300200Y28612600D01*
X100320500Y28528000D01*
X100347600Y28464500D01*
X100388200Y28411600D01*
X100442400Y28390400D01*
X100496600Y28411600D01*
X100537200Y28464500D01*
X100564300Y28528000D01*
X100584600Y28612600D01*
X100591400Y28707900D01*
X100584600Y28803100D01*
X100564300Y28887800D01*
X100537200Y28951300D01*
X100496600Y29004200D01*
X100442400Y29025400D01*
G01X100852200Y28517400D02*
X100892800Y28443300D01*
X100947000Y28401000D01*
X101008000Y28390400D01*
X101062200Y28401000D01*
X101116400Y28453900D01*
X101150200Y28517400D01*
X101157000Y28580900D01*
X101143400Y28655000D01*
X101096000Y28707900D01*
X101048600Y28729100D01*
X100987700D01*
G01X101048600D02*
X101089300Y28760800D01*
X101123100Y28813700D01*
X101136700Y28877200D01*
X101123100Y28940700D01*
X101089300Y28993600D01*
X101028300Y29025400D01*
X100967300Y29014800D01*
X100906400Y28972500D01*
G01X101560000Y29025400D02*
X101505800Y29004200D01*
X101465200Y28951300D01*
X101438100Y28887800D01*
X101417800Y28803100D01*
X101411000Y28707900D01*
X101417800Y28612600D01*
X101438100Y28528000D01*
X101465200Y28464500D01*
X101505800Y28411600D01*
X101560000Y28390400D01*
X101614200Y28411600D01*
X101654800Y28464500D01*
X101681900Y28528000D01*
X101702200Y28612600D01*
X101709000Y28707900D01*
X101702200Y28803100D01*
X101681900Y28887800D01*
X101654800Y28951300D01*
X101614200Y29004200D01*
X101560000Y29025400D01*
G01X101969800Y28485600D02*
X102010400Y28432700D01*
X102057800Y28401000D01*
X102118800Y28390400D01*
X102179800Y28411600D01*
X102227200Y28453900D01*
X102261000Y28528000D01*
X102267800Y28612600D01*
X102254300Y28697300D01*
X102220400Y28750200D01*
X102173000Y28792600D01*
X102125600Y28803100D01*
X102078200Y28792600D01*
X102017200Y28750200D01*
X102037500Y29025400D01*
X102220400D01*
G01X103060300Y28390400D02*
Y29025400D01*
X103236400Y28496200D01*
X103412500Y29025400D01*
Y28390400D01*
G01X103619100D02*
Y29025400D01*
X103795200Y28496200D01*
X103971300Y29025400D01*
Y28390400D01*
G01X82970600Y33483000D02*
X83268600Y33948700D01*
G01X83119600Y34033400D02*
Y33398400D01*
G01X83268600Y33483000D02*
X82970600Y33948700D01*
G01X82916400Y33715900D02*
X83322800D01*
G01X84647000Y33504200D02*
Y34139200D01*
X84782500D01*
X84836600Y34107400D01*
X84877300Y34065100D01*
X84911200Y34001600D01*
X84938200Y33927500D01*
X84945000Y33821700D01*
X84938200Y33715900D01*
X84911200Y33641800D01*
X84877300Y33578300D01*
X84836600Y33535900D01*
X84782500Y33504200D01*
X84647000D01*
G01X85273500Y34139200D02*
X85436100D01*
G01X85354800D02*
Y33504200D01*
G01X85273500D02*
X85436100D01*
G01X86049100D02*
X85778100D01*
Y34139200D01*
X86049100D01*
G01X85940700Y33832300D02*
X85778100D01*
G01X86336900Y34139200D02*
Y33504200D01*
X86607900D01*
G01X87166700D02*
X86895700D01*
Y34139200D01*
X87166700D01*
G01X87058300Y33832300D02*
X86895700D01*
G01X87739000Y34086300D02*
X87698400Y34118000D01*
X87651000Y34139200D01*
X87596800D01*
X87535800Y34107400D01*
X87488400Y34054500D01*
X87454500Y33991000D01*
X87427400Y33885200D01*
X87420700Y33789900D01*
X87434200Y33694700D01*
X87454500Y33631200D01*
X87495200Y33567700D01*
X87542600Y33525400D01*
X87590000Y33504200D01*
X87637400D01*
X87684800Y33525400D01*
X87725500Y33557100D01*
X87759300Y33599400D01*
G01X88148800Y34139200D02*
Y33504200D01*
G01X87993000Y34139200D02*
X88304600D01*
G01X88572100Y33504200D02*
Y34139200D01*
X88741500D01*
X88795700Y34107400D01*
X88829500Y34065100D01*
X88843100Y33980400D01*
X88829500Y33895800D01*
X88788900Y33842900D01*
X88741500Y33811100D01*
X88572100D01*
G01X88741500D02*
X88843100Y33504200D01*
G01X89185100Y34139200D02*
X89347700D01*
G01X89266400D02*
Y33504200D01*
G01X89185100D02*
X89347700D01*
G01X89974200Y34086300D02*
X89933600Y34118000D01*
X89886200Y34139200D01*
X89832000D01*
X89771000Y34107400D01*
X89723600Y34054500D01*
X89689700Y33991000D01*
X89662600Y33885200D01*
X89655900Y33789900D01*
X89669400Y33694700D01*
X89689700Y33631200D01*
X89730400Y33567700D01*
X89777800Y33525400D01*
X89825200Y33504200D01*
X89872600D01*
X89920000Y33525400D01*
X89960700Y33557100D01*
X89994500Y33599400D01*
G01X90854700Y33715900D02*
X91030900D01*
G01X91931700Y33504200D02*
Y34139200D01*
X92189100D01*
G01X92094300Y33832300D02*
X91931700D01*
G01X92483700Y33504200D02*
Y34139200D01*
X92653100D01*
X92707300Y34107400D01*
X92741100Y34065100D01*
X92754700Y33980400D01*
X92741100Y33895800D01*
X92700500Y33842900D01*
X92653100Y33811100D01*
X92483700D01*
G01X92653100D02*
X92754700Y33504200D01*
G01X93089900Y33715900D02*
X93266100D01*
G01X93818100Y33504200D02*
Y34139200D01*
X93567500Y33684100D01*
X93906100D01*
G01X94854400Y34139200D02*
X94800200Y34118000D01*
X94759600Y34065100D01*
X94732500Y34001600D01*
X94712200Y33916900D01*
X94705400Y33821700D01*
X94712200Y33726400D01*
X94732500Y33641800D01*
X94759600Y33578300D01*
X94800200Y33525400D01*
X94854400Y33504200D01*
X94908600Y33525400D01*
X94949200Y33578300D01*
X94976300Y33641800D01*
X94996600Y33726400D01*
X95003400Y33821700D01*
X94996600Y33916900D01*
X94976300Y34001600D01*
X94949200Y34065100D01*
X94908600Y34118000D01*
X94854400Y34139200D01*
G01X95413200Y33483000D02*
X95399700Y33493600D01*
Y33514800D01*
X95413200Y33525400D01*
X95426700Y33514800D01*
Y33493600D01*
X95413200Y33483000D01*
G01X95843300Y34033400D02*
X95883900Y34096900D01*
X95931400Y34128600D01*
X95985500Y34139200D01*
X96053300Y34118000D01*
X96100700Y34065100D01*
X96114200Y34001600D01*
X96107500Y33938100D01*
X96080400Y33885200D01*
X95944900Y33779400D01*
X95883900Y33705300D01*
X95843300Y33599400D01*
X95829800Y33504200D01*
X96114200D01*
G01X96530800Y34139200D02*
X96476600Y34118000D01*
X96436000Y34065100D01*
X96408900Y34001600D01*
X96388600Y33916900D01*
X96381800Y33821700D01*
X96388600Y33726400D01*
X96408900Y33641800D01*
X96436000Y33578300D01*
X96476600Y33525400D01*
X96530800Y33504200D01*
X96585000Y33525400D01*
X96625600Y33578300D01*
X96652700Y33641800D01*
X96673000Y33726400D01*
X96679800Y33821700D01*
X96673000Y33916900D01*
X96652700Y34001600D01*
X96625600Y34065100D01*
X96585000Y34118000D01*
X96530800Y34139200D01*
G01X96940600Y33631200D02*
X96981200Y33557100D01*
X97035400Y33514800D01*
X97096400Y33504200D01*
X97150600Y33514800D01*
X97204800Y33567700D01*
X97238600Y33631200D01*
X97245400Y33694700D01*
X97231800Y33768800D01*
X97184400Y33821700D01*
X97137000Y33842900D01*
X97076100D01*
G01X97137000D02*
X97177700Y33874600D01*
X97211500Y33927500D01*
X97225100Y33991000D01*
X97211500Y34054500D01*
X97177700Y34107400D01*
X97116700Y34139200D01*
X97055700Y34128600D01*
X96994800Y34086300D01*
G01X97519700Y34033400D02*
X97560300Y34096900D01*
X97607800Y34128600D01*
X97661900Y34139200D01*
X97729700Y34118000D01*
X97777100Y34065100D01*
X97790600Y34001600D01*
X97783900Y33938100D01*
X97756800Y33885200D01*
X97621300Y33779400D01*
X97560300Y33705300D01*
X97519700Y33599400D01*
X97506200Y33504200D01*
X97790600D01*
G01X98589900D02*
Y34139200D01*
X98766000Y33610000D01*
X98942100Y34139200D01*
Y33504200D01*
G01X99148700D02*
Y34139200D01*
X99324800Y33610000D01*
X99500900Y34139200D01*
Y33504200D01*
G01X81866500Y38840800D02*
Y38205800D01*
X82137500D01*
G01X82432100Y38735000D02*
X82472700Y38798500D01*
X82520200Y38830200D01*
X82574300Y38840800D01*
X82642100Y38819600D01*
X82689500Y38766700D01*
X82703000Y38703200D01*
X82696300Y38639700D01*
X82669200Y38586800D01*
X82533700Y38481000D01*
X82472700Y38406900D01*
X82432100Y38301000D01*
X82418600Y38205800D01*
X82703000D01*
G01X83119600Y38184600D02*
X83106100Y38195200D01*
Y38216400D01*
X83119600Y38227000D01*
X83133100Y38216400D01*
Y38195200D01*
X83119600Y38184600D01*
G01Y38470400D02*
X83106100Y38481000D01*
Y38502100D01*
X83119600Y38512700D01*
X83133100Y38502100D01*
Y38481000D01*
X83119600Y38470400D01*
G01X84277800Y38523300D02*
X84413300D01*
Y38332800D01*
X84372700Y38269300D01*
X84325300Y38227000D01*
X84257500Y38205800D01*
X84189800Y38227000D01*
X84142400Y38269300D01*
X84101700Y38332800D01*
X84074600Y38406900D01*
X84061100Y38491500D01*
Y38565600D01*
X84074600Y38629100D01*
X84101700Y38703200D01*
X84142400Y38766700D01*
X84183000Y38809000D01*
X84237200Y38840800D01*
X84284600D01*
X84338800Y38819600D01*
X84379400Y38777300D01*
G01X84640200Y38205800D02*
Y38840800D01*
X84951800Y38205800D01*
Y38840800D01*
G01X85205800Y38205800D02*
Y38840800D01*
X85341300D01*
X85395400Y38809000D01*
X85436100Y38766700D01*
X85470000Y38703200D01*
X85497000Y38629100D01*
X85503800Y38523300D01*
X85497000Y38417500D01*
X85470000Y38343400D01*
X85436100Y38279900D01*
X85395400Y38237500D01*
X85341300Y38205800D01*
X85205800D01*
G01X86621400Y38787900D02*
X86580800Y38819600D01*
X86533400Y38840800D01*
X86479200D01*
X86418200Y38809000D01*
X86370800Y38756100D01*
X86336900Y38692600D01*
X86309800Y38586800D01*
X86303100Y38491500D01*
X86316600Y38396300D01*
X86336900Y38332800D01*
X86377600Y38269300D01*
X86425000Y38227000D01*
X86472400Y38205800D01*
X86519800D01*
X86567200Y38227000D01*
X86607900Y38258700D01*
X86641700Y38301000D01*
G01X87031200Y38205800D02*
X86977000Y38216400D01*
X86929600Y38258700D01*
X86889000Y38322200D01*
X86861900Y38396300D01*
X86848300Y38481000D01*
Y38565600D01*
X86861900Y38650300D01*
X86889000Y38724400D01*
X86929600Y38787900D01*
X86977000Y38830200D01*
X87031200Y38840800D01*
X87085400Y38830200D01*
X87132800Y38787900D01*
X87173400Y38724400D01*
X87200500Y38650300D01*
X87214100Y38565600D01*
Y38481000D01*
X87200500Y38396300D01*
X87173400Y38322200D01*
X87132800Y38258700D01*
X87085400Y38216400D01*
X87031200Y38205800D01*
G01X87434200D02*
Y38840800D01*
X87745800Y38205800D01*
Y38840800D01*
G01X87999800Y38205800D02*
Y38840800D01*
X88135300D01*
X88189400Y38809000D01*
X88230100Y38766700D01*
X88264000Y38703200D01*
X88291000Y38629100D01*
X88297800Y38523300D01*
X88291000Y38417500D01*
X88264000Y38343400D01*
X88230100Y38279900D01*
X88189400Y38237500D01*
X88135300Y38205800D01*
X87999800D01*
G01X88558600Y38840800D02*
Y38385700D01*
X88585700Y38290400D01*
X88639900Y38227000D01*
X88707600Y38205800D01*
X88775300Y38227000D01*
X88829500Y38290400D01*
X88856600Y38385700D01*
Y38840800D01*
G01X89415400Y38787900D02*
X89374800Y38819600D01*
X89327400Y38840800D01*
X89273200D01*
X89212200Y38809000D01*
X89164800Y38756100D01*
X89130900Y38692600D01*
X89103800Y38586800D01*
X89097100Y38491500D01*
X89110600Y38396300D01*
X89130900Y38332800D01*
X89171600Y38269300D01*
X89219000Y38227000D01*
X89266400Y38205800D01*
X89313800D01*
X89361200Y38227000D01*
X89401900Y38258700D01*
X89435700Y38301000D01*
G01X89825200Y38840800D02*
Y38205800D01*
G01X89669400Y38840800D02*
X89981000D01*
G01X90384000Y38205800D02*
X90329800Y38216400D01*
X90282400Y38258700D01*
X90241800Y38322200D01*
X90214700Y38396300D01*
X90201100Y38481000D01*
Y38565600D01*
X90214700Y38650300D01*
X90241800Y38724400D01*
X90282400Y38787900D01*
X90329800Y38830200D01*
X90384000Y38840800D01*
X90438200Y38830200D01*
X90485600Y38787900D01*
X90526200Y38724400D01*
X90553300Y38650300D01*
X90566900Y38565600D01*
Y38481000D01*
X90553300Y38396300D01*
X90526200Y38322200D01*
X90485600Y38258700D01*
X90438200Y38216400D01*
X90384000Y38205800D01*
G01X90807300D02*
Y38840800D01*
X90976700D01*
X91030900Y38809000D01*
X91064700Y38766700D01*
X91078300Y38682000D01*
X91064700Y38597400D01*
X91024100Y38544500D01*
X90976700Y38512700D01*
X90807300D01*
G01X90976700D02*
X91078300Y38205800D01*
G01X91972300Y38417500D02*
X92148500D01*
G01X93327000Y38787900D02*
X93286400Y38819600D01*
X93239000Y38840800D01*
X93184800D01*
X93123800Y38809000D01*
X93076400Y38756100D01*
X93042500Y38692600D01*
X93015400Y38586800D01*
X93008700Y38491500D01*
X93022200Y38396300D01*
X93042500Y38332800D01*
X93083200Y38269300D01*
X93130600Y38227000D01*
X93178000Y38205800D01*
X93225400D01*
X93272800Y38227000D01*
X93313500Y38258700D01*
X93347300Y38301000D01*
G01X93736800Y38205800D02*
X93682600Y38216400D01*
X93635200Y38258700D01*
X93594600Y38322200D01*
X93567500Y38396300D01*
X93553900Y38481000D01*
Y38565600D01*
X93567500Y38650300D01*
X93594600Y38724400D01*
X93635200Y38787900D01*
X93682600Y38830200D01*
X93736800Y38840800D01*
X93791000Y38830200D01*
X93838400Y38787900D01*
X93879000Y38724400D01*
X93906100Y38650300D01*
X93919700Y38565600D01*
Y38481000D01*
X93906100Y38396300D01*
X93879000Y38322200D01*
X93838400Y38258700D01*
X93791000Y38216400D01*
X93736800Y38205800D01*
G01X94160100D02*
Y38840800D01*
X94322700D01*
X94376900Y38809000D01*
X94417500Y38735000D01*
X94431100Y38650300D01*
X94417500Y38565600D01*
X94383700Y38502100D01*
X94322700Y38470400D01*
X94160100D01*
G01X94718900Y38205800D02*
Y38840800D01*
X94881500D01*
X94935700Y38809000D01*
X94976300Y38735000D01*
X94989900Y38650300D01*
X94976300Y38565600D01*
X94942500Y38502100D01*
X94881500Y38470400D01*
X94718900D01*
G01X95548700Y38205800D02*
X95277700D01*
Y38840800D01*
X95548700D01*
G01X95440300Y38533900D02*
X95277700D01*
G01X95836500Y38205800D02*
Y38840800D01*
X96005900D01*
X96060100Y38809000D01*
X96093900Y38766700D01*
X96107500Y38682000D01*
X96093900Y38597400D01*
X96053300Y38544500D01*
X96005900Y38512700D01*
X95836500D01*
G01X96005900D02*
X96107500Y38205800D01*
G01X97089600Y38840800D02*
X97035400Y38819600D01*
X96994800Y38766700D01*
X96967700Y38703200D01*
X96947400Y38618500D01*
X96940600Y38523300D01*
X96947400Y38428000D01*
X96967700Y38343400D01*
X96994800Y38279900D01*
X97035400Y38227000D01*
X97089600Y38205800D01*
X97143800Y38227000D01*
X97184400Y38279900D01*
X97211500Y38343400D01*
X97231800Y38428000D01*
X97238600Y38523300D01*
X97231800Y38618500D01*
X97211500Y38703200D01*
X97184400Y38766700D01*
X97143800Y38819600D01*
X97089600Y38840800D01*
G01X97648400Y38184600D02*
X97634900Y38195200D01*
Y38216400D01*
X97648400Y38227000D01*
X97661900Y38216400D01*
Y38195200D01*
X97648400Y38184600D01*
G01X98207200Y38840800D02*
X98153000Y38819600D01*
X98112400Y38766700D01*
X98085300Y38703200D01*
X98065000Y38618500D01*
X98058200Y38523300D01*
X98065000Y38428000D01*
X98085300Y38343400D01*
X98112400Y38279900D01*
X98153000Y38227000D01*
X98207200Y38205800D01*
X98261400Y38227000D01*
X98302000Y38279900D01*
X98329100Y38343400D01*
X98349400Y38428000D01*
X98356200Y38523300D01*
X98349400Y38618500D01*
X98329100Y38703200D01*
X98302000Y38766700D01*
X98261400Y38819600D01*
X98207200Y38840800D01*
G01X98617000Y38332800D02*
X98657600Y38258700D01*
X98711800Y38216400D01*
X98772800Y38205800D01*
X98827000Y38216400D01*
X98881200Y38269300D01*
X98915000Y38332800D01*
X98921800Y38396300D01*
X98908200Y38470400D01*
X98860800Y38523300D01*
X98813400Y38544500D01*
X98752500D01*
G01X98813400D02*
X98854100Y38576200D01*
X98887900Y38629100D01*
X98901500Y38692600D01*
X98887900Y38756100D01*
X98854100Y38809000D01*
X98793100Y38840800D01*
X98732100Y38830200D01*
X98671200Y38787900D01*
G01X99324800Y38840800D02*
X99270600Y38819600D01*
X99230000Y38766700D01*
X99202900Y38703200D01*
X99182600Y38618500D01*
X99175800Y38523300D01*
X99182600Y38428000D01*
X99202900Y38343400D01*
X99230000Y38279900D01*
X99270600Y38227000D01*
X99324800Y38205800D01*
X99379000Y38227000D01*
X99419600Y38279900D01*
X99446700Y38343400D01*
X99467000Y38428000D01*
X99473800Y38523300D01*
X99467000Y38618500D01*
X99446700Y38703200D01*
X99419600Y38766700D01*
X99379000Y38819600D01*
X99324800Y38840800D01*
G01X99734600Y38301000D02*
X99775200Y38248100D01*
X99822600Y38216400D01*
X99883600Y38205800D01*
X99944600Y38227000D01*
X99992000Y38269300D01*
X100025800Y38343400D01*
X100032600Y38428000D01*
X100019100Y38512700D01*
X99985200Y38565600D01*
X99937800Y38608000D01*
X99890400Y38618500D01*
X99843000Y38608000D01*
X99782000Y38565600D01*
X99802300Y38840800D01*
X99985200D01*
G01X100825100Y38205800D02*
Y38840800D01*
X101001200Y38311600D01*
X101177300Y38840800D01*
Y38205800D01*
G01X101383900D02*
Y38840800D01*
X101560000Y38311600D01*
X101736100Y38840800D01*
Y38205800D01*
G01X82970600Y43298400D02*
X83268600Y43764100D01*
G01X83119600Y43848800D02*
Y43213800D01*
G01X83268600Y43298400D02*
X82970600Y43764100D01*
G01X82916400Y43531300D02*
X83322800D01*
G01X84647000Y43319600D02*
Y43954600D01*
X84782500D01*
X84836600Y43922800D01*
X84877300Y43880500D01*
X84911200Y43817000D01*
X84938200Y43742900D01*
X84945000Y43637100D01*
X84938200Y43531300D01*
X84911200Y43457200D01*
X84877300Y43393700D01*
X84836600Y43351300D01*
X84782500Y43319600D01*
X84647000D01*
G01X85273500Y43954600D02*
X85436100D01*
G01X85354800D02*
Y43319600D01*
G01X85273500D02*
X85436100D01*
G01X86049100D02*
X85778100D01*
Y43954600D01*
X86049100D01*
G01X85940700Y43647700D02*
X85778100D01*
G01X86336900Y43954600D02*
Y43319600D01*
X86607900D01*
G01X87166700D02*
X86895700D01*
Y43954600D01*
X87166700D01*
G01X87058300Y43647700D02*
X86895700D01*
G01X87739000Y43901700D02*
X87698400Y43933400D01*
X87651000Y43954600D01*
X87596800D01*
X87535800Y43922800D01*
X87488400Y43869900D01*
X87454500Y43806400D01*
X87427400Y43700600D01*
X87420700Y43605300D01*
X87434200Y43510100D01*
X87454500Y43446600D01*
X87495200Y43383100D01*
X87542600Y43340800D01*
X87590000Y43319600D01*
X87637400D01*
X87684800Y43340800D01*
X87725500Y43372500D01*
X87759300Y43414800D01*
G01X88148800Y43954600D02*
Y43319600D01*
G01X87993000Y43954600D02*
X88304600D01*
G01X88572100Y43319600D02*
Y43954600D01*
X88741500D01*
X88795700Y43922800D01*
X88829500Y43880500D01*
X88843100Y43795800D01*
X88829500Y43711200D01*
X88788900Y43658300D01*
X88741500Y43626500D01*
X88572100D01*
G01X88741500D02*
X88843100Y43319600D01*
G01X89185100Y43954600D02*
X89347700D01*
G01X89266400D02*
Y43319600D01*
G01X89185100D02*
X89347700D01*
G01X89974200Y43901700D02*
X89933600Y43933400D01*
X89886200Y43954600D01*
X89832000D01*
X89771000Y43922800D01*
X89723600Y43869900D01*
X89689700Y43806400D01*
X89662600Y43700600D01*
X89655900Y43605300D01*
X89669400Y43510100D01*
X89689700Y43446600D01*
X89730400Y43383100D01*
X89777800Y43340800D01*
X89825200Y43319600D01*
X89872600D01*
X89920000Y43340800D01*
X89960700Y43372500D01*
X89994500Y43414800D01*
G01X90854700Y43531300D02*
X91030900D01*
G01X91931700Y43319600D02*
Y43954600D01*
X92189100D01*
G01X92094300Y43647700D02*
X91931700D01*
G01X92483700Y43319600D02*
Y43954600D01*
X92653100D01*
X92707300Y43922800D01*
X92741100Y43880500D01*
X92754700Y43795800D01*
X92741100Y43711200D01*
X92700500Y43658300D01*
X92653100Y43626500D01*
X92483700D01*
G01X92653100D02*
X92754700Y43319600D01*
G01X93089900Y43531300D02*
X93266100D01*
G01X93818100Y43319600D02*
Y43954600D01*
X93567500Y43499500D01*
X93906100D01*
G01X94854400Y43954600D02*
X94800200Y43933400D01*
X94759600Y43880500D01*
X94732500Y43817000D01*
X94712200Y43732300D01*
X94705400Y43637100D01*
X94712200Y43541800D01*
X94732500Y43457200D01*
X94759600Y43393700D01*
X94800200Y43340800D01*
X94854400Y43319600D01*
X94908600Y43340800D01*
X94949200Y43393700D01*
X94976300Y43457200D01*
X94996600Y43541800D01*
X95003400Y43637100D01*
X94996600Y43732300D01*
X94976300Y43817000D01*
X94949200Y43880500D01*
X94908600Y43933400D01*
X94854400Y43954600D01*
G01X95413200Y43298400D02*
X95399700Y43309000D01*
Y43330200D01*
X95413200Y43340800D01*
X95426700Y43330200D01*
Y43309000D01*
X95413200Y43298400D01*
G01X95843300Y43848800D02*
X95883900Y43912300D01*
X95931400Y43944000D01*
X95985500Y43954600D01*
X96053300Y43933400D01*
X96100700Y43880500D01*
X96114200Y43817000D01*
X96107500Y43753500D01*
X96080400Y43700600D01*
X95944900Y43594800D01*
X95883900Y43520700D01*
X95843300Y43414800D01*
X95829800Y43319600D01*
X96114200D01*
G01X96530800Y43954600D02*
X96476600Y43933400D01*
X96436000Y43880500D01*
X96408900Y43817000D01*
X96388600Y43732300D01*
X96381800Y43637100D01*
X96388600Y43541800D01*
X96408900Y43457200D01*
X96436000Y43393700D01*
X96476600Y43340800D01*
X96530800Y43319600D01*
X96585000Y43340800D01*
X96625600Y43393700D01*
X96652700Y43457200D01*
X96673000Y43541800D01*
X96679800Y43637100D01*
X96673000Y43732300D01*
X96652700Y43817000D01*
X96625600Y43880500D01*
X96585000Y43933400D01*
X96530800Y43954600D01*
G01X96940600Y43446600D02*
X96981200Y43372500D01*
X97035400Y43330200D01*
X97096400Y43319600D01*
X97150600Y43330200D01*
X97204800Y43383100D01*
X97238600Y43446600D01*
X97245400Y43510100D01*
X97231800Y43584200D01*
X97184400Y43637100D01*
X97137000Y43658300D01*
X97076100D01*
G01X97137000D02*
X97177700Y43690000D01*
X97211500Y43742900D01*
X97225100Y43806400D01*
X97211500Y43869900D01*
X97177700Y43922800D01*
X97116700Y43954600D01*
X97055700Y43944000D01*
X96994800Y43901700D01*
G01X97519700Y43848800D02*
X97560300Y43912300D01*
X97607800Y43944000D01*
X97661900Y43954600D01*
X97729700Y43933400D01*
X97777100Y43880500D01*
X97790600Y43817000D01*
X97783900Y43753500D01*
X97756800Y43700600D01*
X97621300Y43594800D01*
X97560300Y43520700D01*
X97519700Y43414800D01*
X97506200Y43319600D01*
X97790600D01*
G01X98589900D02*
Y43954600D01*
X98766000Y43425400D01*
X98942100Y43954600D01*
Y43319600D01*
G01X99148700D02*
Y43954600D01*
X99324800Y43425400D01*
X99500900Y43954600D01*
Y43319600D01*
G01X82970600Y49058200D02*
X83268600Y49523900D01*
G01X83119600Y49608600D02*
Y48973600D01*
G01X83268600Y49058200D02*
X82970600Y49523900D01*
G01X82916400Y49291100D02*
X83322800D01*
G01X84653800Y49164000D02*
X84707900Y49111100D01*
X84768900Y49079400D01*
X84823100D01*
X84877300Y49111100D01*
X84917900Y49164000D01*
X84938200Y49238200D01*
X84924700Y49312200D01*
X84890800Y49375700D01*
X84829900Y49418100D01*
X84748600Y49439200D01*
X84701200Y49481600D01*
X84680800Y49555600D01*
X84694400Y49629700D01*
X84728300Y49682600D01*
X84775700Y49714400D01*
X84823100D01*
X84870500Y49693200D01*
X84911200Y49640300D01*
G01X85205800Y49714400D02*
Y49259300D01*
X85232900Y49164000D01*
X85287100Y49100600D01*
X85354800Y49079400D01*
X85422500Y49100600D01*
X85476700Y49164000D01*
X85503800Y49259300D01*
Y49714400D01*
G01X85778100Y49079400D02*
Y49714400D01*
X85947500D01*
X86001700Y49682600D01*
X86035500Y49640300D01*
X86049100Y49555600D01*
X86035500Y49471000D01*
X85994900Y49418100D01*
X85947500Y49386300D01*
X85778100D01*
G01X85947500D02*
X86049100Y49079400D01*
G01X86343700D02*
Y49714400D01*
X86601100D01*
G01X86506300Y49407500D02*
X86343700D01*
G01X86861900Y49079400D02*
X87031200Y49714400D01*
X87200500Y49079400D01*
G01X87139600Y49301600D02*
X86922800D01*
G01X87739000Y49661500D02*
X87698400Y49693200D01*
X87651000Y49714400D01*
X87596800D01*
X87535800Y49682600D01*
X87488400Y49629700D01*
X87454500Y49566200D01*
X87427400Y49460400D01*
X87420700Y49365100D01*
X87434200Y49269900D01*
X87454500Y49206400D01*
X87495200Y49142900D01*
X87542600Y49100600D01*
X87590000Y49079400D01*
X87637400D01*
X87684800Y49100600D01*
X87725500Y49132300D01*
X87759300Y49174600D01*
G01X88284300Y49079400D02*
X88013300D01*
Y49714400D01*
X88284300D01*
G01X88175900Y49407500D02*
X88013300D01*
G01X89178300Y49291100D02*
X89354500D01*
G01X90214700Y49079400D02*
X90384000Y49714400D01*
X90553300Y49079400D01*
G01X90492400Y49301600D02*
X90275600D01*
G01X90861500Y49714400D02*
X91024100D01*
G01X90942800D02*
Y49079400D01*
G01X90861500D02*
X91024100D01*
G01X91366100D02*
Y49714400D01*
X91535500D01*
X91589700Y49682600D01*
X91623500Y49640300D01*
X91637100Y49555600D01*
X91623500Y49471000D01*
X91582900Y49418100D01*
X91535500Y49386300D01*
X91366100D01*
G01X91535500D02*
X91637100Y49079400D01*
G01X92619200Y49714400D02*
X92565000Y49693200D01*
X92524400Y49640300D01*
X92497300Y49576800D01*
X92477000Y49492100D01*
X92470200Y49396900D01*
X92477000Y49301600D01*
X92497300Y49217000D01*
X92524400Y49153500D01*
X92565000Y49100600D01*
X92619200Y49079400D01*
X92673400Y49100600D01*
X92714000Y49153500D01*
X92741100Y49217000D01*
X92761400Y49301600D01*
X92768200Y49396900D01*
X92761400Y49492100D01*
X92741100Y49576800D01*
X92714000Y49640300D01*
X92673400Y49693200D01*
X92619200Y49714400D01*
G01X93560700Y49079400D02*
Y49714400D01*
X93736800Y49185200D01*
X93912900Y49714400D01*
Y49079400D01*
G01X94119500D02*
Y49714400D01*
X94295600Y49185200D01*
X94471700Y49714400D01*
Y49079400D01*
G01X81866500Y48656200D02*
Y48021200D01*
X82137500D01*
G01X82560800D02*
Y48656200D01*
X82479500Y48529200D01*
G01Y48021200D02*
X82642100D01*
G01X83119600Y48000000D02*
X83106100Y48010600D01*
Y48031800D01*
X83119600Y48042400D01*
X83133100Y48031800D01*
Y48010600D01*
X83119600Y48000000D01*
G01Y48285800D02*
X83106100Y48296400D01*
Y48317500D01*
X83119600Y48328100D01*
X83133100Y48317500D01*
Y48296400D01*
X83119600Y48285800D01*
G01X84237200Y48656200D02*
Y48021200D01*
G01X84081400Y48656200D02*
X84393000D01*
G01X84796000Y48021200D02*
X84741800Y48031800D01*
X84694400Y48074100D01*
X84653800Y48137600D01*
X84626700Y48211700D01*
X84613100Y48296400D01*
Y48381000D01*
X84626700Y48465700D01*
X84653800Y48539800D01*
X84694400Y48603300D01*
X84741800Y48645600D01*
X84796000Y48656200D01*
X84850200Y48645600D01*
X84897600Y48603300D01*
X84938200Y48539800D01*
X84965300Y48465700D01*
X84978900Y48381000D01*
Y48296400D01*
X84965300Y48211700D01*
X84938200Y48137600D01*
X84897600Y48074100D01*
X84850200Y48031800D01*
X84796000Y48021200D01*
G01X85219300D02*
Y48656200D01*
X85381900D01*
X85436100Y48624400D01*
X85476700Y48550400D01*
X85490300Y48465700D01*
X85476700Y48381000D01*
X85442900Y48317500D01*
X85381900Y48285800D01*
X85219300D01*
G01X86621400Y48603300D02*
X86580800Y48635000D01*
X86533400Y48656200D01*
X86479200D01*
X86418200Y48624400D01*
X86370800Y48571500D01*
X86336900Y48508000D01*
X86309800Y48402200D01*
X86303100Y48306900D01*
X86316600Y48211700D01*
X86336900Y48148200D01*
X86377600Y48084700D01*
X86425000Y48042400D01*
X86472400Y48021200D01*
X86519800D01*
X86567200Y48042400D01*
X86607900Y48074100D01*
X86641700Y48116400D01*
G01X87031200Y48021200D02*
X86977000Y48031800D01*
X86929600Y48074100D01*
X86889000Y48137600D01*
X86861900Y48211700D01*
X86848300Y48296400D01*
Y48381000D01*
X86861900Y48465700D01*
X86889000Y48539800D01*
X86929600Y48603300D01*
X86977000Y48645600D01*
X87031200Y48656200D01*
X87085400Y48645600D01*
X87132800Y48603300D01*
X87173400Y48539800D01*
X87200500Y48465700D01*
X87214100Y48381000D01*
Y48296400D01*
X87200500Y48211700D01*
X87173400Y48137600D01*
X87132800Y48074100D01*
X87085400Y48031800D01*
X87031200Y48021200D01*
G01X87434200D02*
Y48656200D01*
X87745800Y48021200D01*
Y48656200D01*
G01X87999800Y48021200D02*
Y48656200D01*
X88135300D01*
X88189400Y48624400D01*
X88230100Y48582100D01*
X88264000Y48518600D01*
X88291000Y48444500D01*
X88297800Y48338700D01*
X88291000Y48232900D01*
X88264000Y48158800D01*
X88230100Y48095300D01*
X88189400Y48052900D01*
X88135300Y48021200D01*
X87999800D01*
G01X88558600Y48656200D02*
Y48201100D01*
X88585700Y48105800D01*
X88639900Y48042400D01*
X88707600Y48021200D01*
X88775300Y48042400D01*
X88829500Y48105800D01*
X88856600Y48201100D01*
Y48656200D01*
G01X89415400Y48603300D02*
X89374800Y48635000D01*
X89327400Y48656200D01*
X89273200D01*
X89212200Y48624400D01*
X89164800Y48571500D01*
X89130900Y48508000D01*
X89103800Y48402200D01*
X89097100Y48306900D01*
X89110600Y48211700D01*
X89130900Y48148200D01*
X89171600Y48084700D01*
X89219000Y48042400D01*
X89266400Y48021200D01*
X89313800D01*
X89361200Y48042400D01*
X89401900Y48074100D01*
X89435700Y48116400D01*
G01X89825200Y48656200D02*
Y48021200D01*
G01X89669400Y48656200D02*
X89981000D01*
G01X90384000Y48021200D02*
X90329800Y48031800D01*
X90282400Y48074100D01*
X90241800Y48137600D01*
X90214700Y48211700D01*
X90201100Y48296400D01*
Y48381000D01*
X90214700Y48465700D01*
X90241800Y48539800D01*
X90282400Y48603300D01*
X90329800Y48645600D01*
X90384000Y48656200D01*
X90438200Y48645600D01*
X90485600Y48603300D01*
X90526200Y48539800D01*
X90553300Y48465700D01*
X90566900Y48381000D01*
Y48296400D01*
X90553300Y48211700D01*
X90526200Y48137600D01*
X90485600Y48074100D01*
X90438200Y48031800D01*
X90384000Y48021200D01*
G01X90807300D02*
Y48656200D01*
X90976700D01*
X91030900Y48624400D01*
X91064700Y48582100D01*
X91078300Y48497400D01*
X91064700Y48412800D01*
X91024100Y48359900D01*
X90976700Y48328100D01*
X90807300D01*
G01X90976700D02*
X91078300Y48021200D01*
G01X91972300Y48232900D02*
X92148500D01*
G01X93327000Y48603300D02*
X93286400Y48635000D01*
X93239000Y48656200D01*
X93184800D01*
X93123800Y48624400D01*
X93076400Y48571500D01*
X93042500Y48508000D01*
X93015400Y48402200D01*
X93008700Y48306900D01*
X93022200Y48211700D01*
X93042500Y48148200D01*
X93083200Y48084700D01*
X93130600Y48042400D01*
X93178000Y48021200D01*
X93225400D01*
X93272800Y48042400D01*
X93313500Y48074100D01*
X93347300Y48116400D01*
G01X93736800Y48021200D02*
X93682600Y48031800D01*
X93635200Y48074100D01*
X93594600Y48137600D01*
X93567500Y48211700D01*
X93553900Y48296400D01*
Y48381000D01*
X93567500Y48465700D01*
X93594600Y48539800D01*
X93635200Y48603300D01*
X93682600Y48645600D01*
X93736800Y48656200D01*
X93791000Y48645600D01*
X93838400Y48603300D01*
X93879000Y48539800D01*
X93906100Y48465700D01*
X93919700Y48381000D01*
Y48296400D01*
X93906100Y48211700D01*
X93879000Y48137600D01*
X93838400Y48074100D01*
X93791000Y48031800D01*
X93736800Y48021200D01*
G01X94160100D02*
Y48656200D01*
X94322700D01*
X94376900Y48624400D01*
X94417500Y48550400D01*
X94431100Y48465700D01*
X94417500Y48381000D01*
X94383700Y48317500D01*
X94322700Y48285800D01*
X94160100D01*
G01X94718900Y48021200D02*
Y48656200D01*
X94881500D01*
X94935700Y48624400D01*
X94976300Y48550400D01*
X94989900Y48465700D01*
X94976300Y48381000D01*
X94942500Y48317500D01*
X94881500Y48285800D01*
X94718900D01*
G01X95548700Y48021200D02*
X95277700D01*
Y48656200D01*
X95548700D01*
G01X95440300Y48349300D02*
X95277700D01*
G01X95836500Y48021200D02*
Y48656200D01*
X96005900D01*
X96060100Y48624400D01*
X96093900Y48582100D01*
X96107500Y48497400D01*
X96093900Y48412800D01*
X96053300Y48359900D01*
X96005900Y48328100D01*
X95836500D01*
G01X96005900D02*
X96107500Y48021200D01*
G01X97089600Y48656200D02*
X97035400Y48635000D01*
X96994800Y48582100D01*
X96967700Y48518600D01*
X96947400Y48433900D01*
X96940600Y48338700D01*
X96947400Y48243400D01*
X96967700Y48158800D01*
X96994800Y48095300D01*
X97035400Y48042400D01*
X97089600Y48021200D01*
X97143800Y48042400D01*
X97184400Y48095300D01*
X97211500Y48158800D01*
X97231800Y48243400D01*
X97238600Y48338700D01*
X97231800Y48433900D01*
X97211500Y48518600D01*
X97184400Y48582100D01*
X97143800Y48635000D01*
X97089600Y48656200D01*
G01X97648400Y48000000D02*
X97634900Y48010600D01*
Y48031800D01*
X97648400Y48042400D01*
X97661900Y48031800D01*
Y48010600D01*
X97648400Y48000000D01*
G01X98207200Y48656200D02*
X98153000Y48635000D01*
X98112400Y48582100D01*
X98085300Y48518600D01*
X98065000Y48433900D01*
X98058200Y48338700D01*
X98065000Y48243400D01*
X98085300Y48158800D01*
X98112400Y48095300D01*
X98153000Y48042400D01*
X98207200Y48021200D01*
X98261400Y48042400D01*
X98302000Y48095300D01*
X98329100Y48158800D01*
X98349400Y48243400D01*
X98356200Y48338700D01*
X98349400Y48433900D01*
X98329100Y48518600D01*
X98302000Y48582100D01*
X98261400Y48635000D01*
X98207200Y48656200D01*
G01X98617000Y48148200D02*
X98657600Y48074100D01*
X98711800Y48031800D01*
X98772800Y48021200D01*
X98827000Y48031800D01*
X98881200Y48084700D01*
X98915000Y48148200D01*
X98921800Y48211700D01*
X98908200Y48285800D01*
X98860800Y48338700D01*
X98813400Y48359900D01*
X98752500D01*
G01X98813400D02*
X98854100Y48391600D01*
X98887900Y48444500D01*
X98901500Y48508000D01*
X98887900Y48571500D01*
X98854100Y48624400D01*
X98793100Y48656200D01*
X98732100Y48645600D01*
X98671200Y48603300D01*
G01X99324800Y48656200D02*
X99270600Y48635000D01*
X99230000Y48582100D01*
X99202900Y48518600D01*
X99182600Y48433900D01*
X99175800Y48338700D01*
X99182600Y48243400D01*
X99202900Y48158800D01*
X99230000Y48095300D01*
X99270600Y48042400D01*
X99324800Y48021200D01*
X99379000Y48042400D01*
X99419600Y48095300D01*
X99446700Y48158800D01*
X99467000Y48243400D01*
X99473800Y48338700D01*
X99467000Y48433900D01*
X99446700Y48518600D01*
X99419600Y48582100D01*
X99379000Y48635000D01*
X99324800Y48656200D01*
G01X99734600Y48116400D02*
X99775200Y48063500D01*
X99822600Y48031800D01*
X99883600Y48021200D01*
X99944600Y48042400D01*
X99992000Y48084700D01*
X100025800Y48158800D01*
X100032600Y48243400D01*
X100019100Y48328100D01*
X99985200Y48381000D01*
X99937800Y48423400D01*
X99890400Y48433900D01*
X99843000Y48423400D01*
X99782000Y48381000D01*
X99802300Y48656200D01*
X99985200D01*
G01X100825100Y48021200D02*
Y48656200D01*
X101001200Y48127000D01*
X101177300Y48656200D01*
Y48021200D01*
G01X101383900D02*
Y48656200D01*
X101560000Y48127000D01*
X101736100Y48656200D01*
Y48021200D01*
G01X93049400Y72662600D02*
Y58387800D01*
G01X98876200Y60845100D02*
X99112300Y60580600D01*
X99387900Y60421900D01*
X99742300Y60369000D01*
X100096700Y60474800D01*
X100372200Y60686400D01*
X100569100Y61056900D01*
X100608400Y61480200D01*
X100529700Y61903500D01*
X100332800Y62168200D01*
X100057200Y62379800D01*
X99781700Y62432700D01*
X99506100Y62379800D01*
X99151800Y62168200D01*
X99269900Y63544000D01*
X100332800D01*
G01X102025800Y60845100D02*
X102261900Y60580600D01*
X102537500Y60421900D01*
X102891900Y60369000D01*
X103246300Y60474800D01*
X103521800Y60686400D01*
X103718700Y61056900D01*
X103758000Y61480200D01*
X103679300Y61903500D01*
X103482400Y62168200D01*
X103206800Y62379800D01*
X102931300Y62432700D01*
X102655700Y62379800D01*
X102301400Y62168200D01*
X102419500Y63544000D01*
X103482400D01*
G01X105175400Y60845100D02*
X105411500Y60580600D01*
X105687100Y60421900D01*
X106041500Y60369000D01*
X106395900Y60474800D01*
X106671400Y60686400D01*
X106868300Y61056900D01*
X106907600Y61480200D01*
X106828900Y61903500D01*
X106632000Y62168200D01*
X106356400Y62379800D01*
X106080900Y62432700D01*
X105805300Y62379800D01*
X105451000Y62168200D01*
X105569100Y63544000D01*
X106632000D01*
G01X99742300Y67900100D02*
X99427300Y67953000D01*
X99151800Y68164600D01*
X98915500Y68482200D01*
X98758000Y68852600D01*
X98679300Y69275900D01*
Y69699300D01*
X98758000Y70122600D01*
X98915500Y70493000D01*
X99151800Y70810500D01*
X99427300Y71022200D01*
X99742300Y71075100D01*
X100057200Y71022200D01*
X100332800Y70810500D01*
X100569100Y70493000D01*
X100726600Y70122600D01*
X100805300Y69699300D01*
Y69275900D01*
X100726600Y68852600D01*
X100569100Y68482200D01*
X100332800Y68164600D01*
X100057200Y67953000D01*
X99742300Y67900100D01*
G01X100057200Y68746800D02*
X100529700Y67900100D01*
G01X102891900Y71075100D02*
Y67900100D01*
G01X101986400Y71075100D02*
X103797400D01*
G01X106041500Y67900100D02*
Y69328800D01*
X105254100Y71075100D01*
G01X106828900D02*
X106041500Y69328800D01*
M02*
