G04 ================== begin FILE IDENTIFICATION RECORD ==================*
G04 Layout Name:  2017-03-26_LED-Panel_G4_V1.brd*
G04 Film Name:    GND*
G04 File Format:  Gerber RS274X*
G04 File Origin:  Cadence Allegro 17.4-S007*
G04 Origin Date:  Wed Nov 11 00:32:14 2020*
G04 *
G04 Layer:  VIA CLASS/GND*
G04 Layer:  PIN/GND*
G04 Layer:  ETCH/GND*
G04 Layer:  BOARD GEOMETRY/OUTLINE*
G04 *
G04 Offset:    (0.0000 0.0000)*
G04 Mirror:    No*
G04 Mode:      Positive*
G04 Rotation:  0*
G04 FullContactRelief:  No*
G04 UndefLineWidth:     0.1000*
G04 ================== end FILE IDENTIFICATION RECORD ====================*
%FSLAX46Y46*MOMM*%
%IR0*IPPOS*OFA0.00000B0.00000*MIA0B0*SFA1.00000B1.00000*%
%ADD10C,.4*%
%ADD11C,.127*%
%ADD12C,.1*%
%ADD13C,.6544*%
G75*
%LPD*%
G75*
G36*
G01X100000Y100000D02*
Y39900000D01*
X1697600D01*
G02X1769200Y39726400I-36J-101580D01*
G03X2230800I230800J-232000D01*
G02X2302400Y39900000I71636J72020D01*
G01X4197600D01*
G02X4269200Y39726400I-36J-101580D01*
G03X4730800I230800J-232000D01*
G02X4802400Y39900000I71636J72020D01*
G01X6697600D01*
G02X6769200Y39726400I-36J-101580D01*
G03X7230800I230800J-232000D01*
G02X7302400Y39900000I71636J72020D01*
G01X9197600D01*
G02X9269200Y39726400I-36J-101580D01*
G03X9730800I230800J-232000D01*
G02X9802400Y39900000I71636J72020D01*
G01X11697600D01*
G02X11769200Y39726400I-36J-101580D01*
G03X12230800I230800J-232000D01*
G02X12302400Y39900000I71636J72020D01*
G01X14197600D01*
G02X14269200Y39726400I-36J-101580D01*
G03X14730800I230800J-232000D01*
G02X14802400Y39900000I71636J72020D01*
G01X16697600D01*
G02X16769200Y39726400I-36J-101580D01*
G03X17230800I230800J-232000D01*
G02X17302400Y39900000I71636J72020D01*
G01X17552400D01*
G02X17649700Y39769100I14J-101602D01*
G03X18276300I313300J-94300D01*
G02X18373600Y39900000I97286J29298D01*
G01X18459400D01*
Y39836800D01*
X18453700Y39825800D01*
G03X19057300Y39769100I290279J-150995D01*
G02X19154600Y39900000I97286J29298D01*
G01X19240400D01*
Y39836800D01*
X19234700Y39825800D01*
G03X19838300Y39769100I290279J-150995D01*
G02X19935600Y39900000I97286J29298D01*
G01X39197600D01*
G02X39269200Y39726400I-36J-101580D01*
G03X39727700Y39259400I230789J-231989D01*
G02X39900000Y39186500I70709J-72944D01*
G01Y37302300D01*
G02X39727700Y37229400I-101591J44D01*
G03Y36759400I-227700J-235000D01*
G02X39900000Y36686500I70709J-72944D01*
G01Y34802300D01*
G02X39727700Y34729400I-101591J44D01*
G03Y34259400I-227700J-235000D01*
G02X39900000Y34186500I70709J-72944D01*
G01Y32302300D01*
G02X39727700Y32229400I-101591J44D01*
G03Y31759400I-227700J-235000D01*
G02X39900000Y31686500I70709J-72944D01*
G01Y29802300D01*
G02X39727700Y29729400I-101591J44D01*
G03Y29259400I-227700J-235000D01*
G02X39900000Y29186500I70709J-72944D01*
G01Y27302300D01*
G02X39727700Y27229400I-101591J44D01*
G03Y26759400I-227700J-235000D01*
G02X39900000Y26686500I70709J-72944D01*
G01Y24802300D01*
G02X39727700Y24729400I-101591J44D01*
G03Y24259400I-227700J-235000D01*
G02X39900000Y24186500I70709J-72944D01*
G01Y22302300D01*
G02X39727700Y22229400I-101591J44D01*
G03Y21759400I-227700J-235000D01*
G02X39900000Y21686500I70709J-72944D01*
G01Y15807100D01*
G02X39727700Y15734200I-101591J44D01*
G03Y15264200I-227700J-235000D01*
G02X39900000Y15191300I70709J-72944D01*
G01Y13307100D01*
G02X39727700Y13234200I-101591J44D01*
G03Y12764200I-227700J-235000D01*
G02X39900000Y12691300I70709J-72944D01*
G01Y10807100D01*
G02X39727700Y10734200I-101591J44D01*
G03Y10264200I-227700J-235000D01*
G02X39900000Y10191300I70709J-72944D01*
G01Y8307100D01*
G02X39727700Y8234200I-101591J44D01*
G03Y7764200I-227700J-235000D01*
G02X39900000Y7691300I70709J-72944D01*
G01Y5807100D01*
G02X39727700Y5734200I-101591J44D01*
G03Y5264200I-227700J-235000D01*
G02X39900000Y5191300I70709J-72944D01*
G01Y3307100D01*
G02X39727700Y3234200I-101591J44D01*
G03Y2764200I-227700J-235000D01*
G02X39900000Y2691300I70709J-72944D01*
G01Y807100D01*
G02X39727700Y734200I-101591J44D01*
G03X39264400Y272100I-227705J-235005D01*
G02X39191300Y100000I-73126J-70514D01*
G01X37308700D01*
G02X37235600Y272100I26J101586D01*
G03X36764400I-235600J227100D01*
G02X36691300Y100000I-73126J-70514D01*
G01X34808700D01*
G02X34735600Y272100I26J101586D01*
G03X34264400I-235600J227100D01*
G02X34191300Y100000I-73126J-70514D01*
G01X32308700D01*
G02X32235600Y272100I26J101586D01*
G03X31764400I-235600J227100D01*
G02X31691300Y100000I-73126J-70514D01*
G01X30975600D01*
G02X30885900Y249300I-22J101583D01*
G03X30917400Y336800I-288988J153456D01*
G02X31054200Y410800I99514J-20520D01*
G03X31158900Y1042000I120030J304374D01*
G01X31136500Y1041000D01*
X30473800Y1703700D01*
X27382000D01*
G02X27291500Y1851400I39J101600D01*
G03X26708500I-291500J148600D01*
G02X26618000Y1703700I-90539J-46100D01*
G01X20983200D01*
G02X20896800Y1858700I33J101599D01*
G03X20340000I-278400J171900D01*
G02X20253600Y1703700I-86433J-53401D01*
G01X17382000D01*
G02X17291500Y1851400I39J101600D01*
G03X16708500I-291500J148600D01*
G02X16618000Y1703700I-90539J-46100D01*
G01X13484400D01*
X12903700Y2284400D01*
Y6527400D01*
X13251300Y6875000D01*
G02X13423200Y6820500I71807J-71860D01*
G03X13895600Y7167200I322395J55904D01*
G02X13858600Y7315200I46599J90275D01*
G03X13262600Y7485900I-269170J186010D01*
G01X13263600Y7463500D01*
X12496300Y6696200D01*
Y2115600D01*
X13315600Y1296300D01*
X23324600D01*
G02X23423600Y1171800I12J-101602D01*
G03X24061200I318800J-73600D01*
G02X24160200Y1296300I98988J22898D01*
G01X30305000D01*
X30848400Y752900D01*
X30847400Y730500D01*
G03X30847100Y723000I326751J-16826D01*
G02X30769500Y681000I-50797J1167D01*
G03X30308100Y249300I-172532J-278020D01*
G02X30218400Y100000I-89678J-47717D01*
G01X29808700D01*
G02X29735600Y272100I26J101586D01*
G03X29264400I-235600J227100D01*
G02X29191300Y100000I-73126J-70514D01*
G01X27436800D01*
G02X27338700Y227800I49J101588D01*
G03X26706500I-316100J84600D01*
G02X26608400Y100000I-98149J-26212D01*
G01X24808700D01*
G02X24735600Y272100I26J101586D01*
G03X24264400I-235600J227100D01*
G02X24191300Y100000I-73126J-70514D01*
G01X22308700D01*
G02X22235600Y272100I26J101586D01*
G03X21764400I-235600J227100D01*
G02X21691300Y100000I-73126J-70514D01*
G01X20797700D01*
G02X20718200Y264900I-3J101612D01*
G03X20206200I-256000J203700D01*
G02X20126700Y100000I-79497J-63288D01*
G01X14808700D01*
G02X14735600Y272100I26J101586D01*
G03X14264400I-235600J227100D01*
G02X14191300Y100000I-73126J-70514D01*
G01X12308700D01*
G02X12235600Y272100I26J101586D01*
G03X11764400I-235600J227100D01*
G02X11691300Y100000I-73126J-70514D01*
G01X9808700D01*
G02X9735600Y272100I26J101586D01*
G03X9264400I-235600J227100D01*
G02X9191300Y100000I-73126J-70514D01*
G01X7308700D01*
G02X7235600Y272100I26J101586D01*
G03X6764400I-235600J227100D01*
G02X6691300Y100000I-73126J-70514D01*
G01X4808700D01*
G02X4735600Y272100I26J101586D01*
G03X4264400I-235600J227100D01*
G02X4191300Y100000I-73126J-70514D01*
G01X2308700D01*
G02X2235600Y272100I26J101586D01*
G03X1764400I-235600J227100D01*
G02X1691300Y100000I-73126J-70514D01*
G01X100000D01*
G37*
%LPC*%
G75*
G36*
G01X24345600Y37950400D02*
G03X24493600Y37913400I90274J46595D01*
G02X24388800Y37494200I186000J-269200D01*
G03X24240800Y37531200I-90274J-46595D01*
G02X24345600Y37950400I-186000J269200D01*
G37*
G36*
G01X26873400Y38027500D02*
G03X26979100Y37948100I99204J22008D01*
G02X26680600Y37550700I20909J-326512D01*
G03X26574900Y37630100I-99204J-22008D01*
G02X26873400Y38027500I-20909J326512D01*
G37*
G36*
G01X29277300Y37718200D02*
G03Y37570200I69623J-74000D01*
G02X28829100I-224100J-238400D01*
G03Y37718200I-69623J74000D01*
G02X29277300I224100J238400D01*
G37*
G36*
G01X19724400Y37483100D02*
G03X19831000Y37561600I7596J101314D01*
G02X20063700Y37803700I318828J-73566D01*
G03X20137700Y37914700I-26754J98003D01*
G02X20548300Y37640900I324517J41881D01*
G03X20474300Y37529900I26754J-98003D01*
G02X20125400Y37161700I-324507J-41909D01*
G03X20018800Y37083200I-7596J-101314D01*
G02X19724400Y37483100I-318811J73613D01*
G37*
G36*
G01X26986100Y35132200D02*
G03X26875100Y35050800I-11312J-100957D01*
G02X26590500Y35438800I-321118J62836D01*
G03X26701500Y35520200I11312J100957D01*
G02X26986100Y35132200I321118J-62836D01*
G37*
G36*
G01X14338100Y34975600D02*
G03X14226600Y34880500I-10074J-101103D01*
G02X13621100Y35071100I-326613J19492D01*
G03X13584500Y35212600I-86627J53077D01*
G02X14047300Y35624100I161118J284794D01*
G03X14195300Y35577600I93665J39338D01*
G02X14338100Y34975600I175103J-276401D01*
G37*
G36*
G01X32504300Y35105800D02*
G03X32615300Y35002200I101562J-2448D01*
G02X32318700Y34684200I30513J-325780D01*
G03X32207700Y34787800I-101562J2448D01*
G02X32504300Y35105800I-30513J325780D01*
G37*
G36*
G01X29692700D02*
G03X29803700Y35002200I101562J-2448D01*
G02X29507100Y34684200I30513J-325780D01*
G03X29396100Y34787800I-101562J2448D01*
G02X29692700Y35105800I-30513J325780D01*
G37*
G36*
G01X3625800Y34788100D02*
G03X3536000Y34669600I10285J-101070D01*
G02X3180400Y34939100I-322375J-56014D01*
G03X3270200Y35057600I-10285J101070D01*
G02X3625800Y34788100I322375J56014D01*
G37*
G36*
G01X13409000Y32734300D02*
G03X13266800Y32710600I-59331J-82465D01*
G02X13191000Y33165700I-266800J189425D01*
G03X13333200Y33189400I59331J82465D01*
G02X13409000Y32734300I266800J-189425D01*
G37*
G36*
G01X21958200Y32682300D02*
G03Y32548700I76534J-66800D01*
G02X21465400I-246400J-215300D01*
G03Y32682300I-76534J66800D01*
G02X21958200I246400J215300D01*
G37*
G36*
G01X23467700Y32580900D02*
G03X23453500Y32444600I67467J-75919D01*
G02X22973000Y32494600I-263099J-194576D01*
G03X22987200Y32630900I-67467J75919D01*
G02X23314400Y33146400I263064J194618D01*
G03X23431000Y33214800I19926J99615D01*
G02X23678300Y32793500I311413J-100434D01*
G03X23561700Y32725100I-19926J-99615D01*
G02X23467700Y32580900I-311461J100295D01*
G37*
G36*
G01X24712800Y32397300D02*
G03Y32242900I66102J-77200D01*
G02X24287200I-212800J-248500D01*
G03Y32397300I-66102J77200D01*
G02X24712800I212800J248500D01*
G37*
G36*
G01X14610500Y30229200D02*
G03X14469900Y30211500I-61206J-81087D01*
G02X14411200Y30676900I-255704J204150D01*
G03X14551800Y30694600I61206J81087D01*
G02X14610500Y30229200I255704J-204150D01*
G37*
G36*
G01X21154900Y30220600D02*
G03Y30072600I69623J-74000D01*
G02X20706700I-224100J-238400D01*
G03Y30220600I-69623J74000D01*
G02X21154900I224100J238400D01*
G37*
G36*
G01X29933800Y29479600D02*
G03X29815400Y29407200I-20487J-99510D01*
G02X29314600Y29764000I-315376J87200D01*
G03X29319800Y29927600I-57572J83713D01*
G02X29847500Y30216100I201988J257403D01*
G03X29960800Y30124800I101164J9590D01*
G02X29933800Y29479600I39278J-324809D01*
G37*
G36*
G01X8804600Y29962500D02*
G03X8818700Y30112700I-60665J81457D01*
G02X9255000Y30071700I240889J221479D01*
G03X9240900Y29921500I60665J-81457D01*
G02X9287400Y29856500I-240901J-221469D01*
G03X9405800Y29807800I89195J48574D01*
G02X9212600Y29337900I94177J-313388D01*
G03X9094200Y29386600I-89195J-48574D01*
G02X8804600Y29962500I-94278J313356D01*
G37*
G36*
G01X19911400Y27735700D02*
G03X19763400I-74000J-69623D01*
G02Y28183900I-238400J224100D01*
G03X19911400I74000J69623D01*
G02Y27735700I238400J-224100D01*
G37*
G36*
G01X17329900Y27426300D02*
G03X17269400Y27465800I-49762J-10135D01*
G02X16948700Y27576100I-69336J319775D01*
G03X16796400Y27580300I-78003J-65094D01*
G02X16808500Y28013100I-239201J223257D01*
G03X16960800Y28008900I78003J65094D01*
G02X17520700Y27850500I239187J-223285D01*
G03X17581200Y27811000I49762J10135D01*
G02X17329900Y27426300I69408J-319769D01*
G37*
G36*
G01X37233800Y27771100D02*
G03Y27628900I72577J-71100D01*
G02X36766200I-233800J-228900D01*
G03Y27771100I-72577J71100D01*
G02X37233800I233800J228900D01*
G37*
G36*
G01X36433800D02*
G03Y27628900I72577J-71100D01*
G02X35966200I-233800J-228900D01*
G03Y27771100I-72577J71100D01*
G02X36433800I233800J228900D01*
G37*
G36*
G01X18757300Y27616200D02*
G03X18865500Y27505200I101145J-9641D01*
G02X18562500Y27210000I22702J-326405D01*
G03X18454300Y27321000I-101145J9641D01*
G02X18757300Y27616200I-22702J326405D01*
G37*
G36*
G01X20373900Y25222200D02*
G03Y25074200I69623J-74000D01*
G02X19925700I-224100J-238400D01*
G03Y25222200I-69623J74000D01*
G02X20373900I224100J238400D01*
G37*
G36*
G01X18128500Y20062100D02*
G03X18010000Y19995400I-22216J-99145D01*
G02X17771500Y20419300I-310016J104619D01*
G03X17890000Y20486000I22216J99145D01*
G02X18271600Y20700700I310038J-104579D01*
G03X18390100Y20767300I22252J99129D01*
G02X18628400Y20343100I309918J-104933D01*
G03X18509900Y20276500I-22252J-99129D01*
G02X18128500Y20062100I-309925J104891D01*
G37*
G36*
G01X12093700Y20192100D02*
G03X12026200Y20063400I29114J-97321D01*
G02X11621300Y20275700I-311171J-101203D01*
G03X11688800Y20404400I-29114J97321D01*
G02X12093700Y20192100I311171J101203D01*
G37*
G36*
G01X9227500Y15008800D02*
G03X9345200Y14922600I100626J13942D01*
G02X9075900Y14555000I54799J-322589D01*
G03X8958200Y14641200I-100626J-13942D01*
G02X8821100Y15280500I-54800J322599D01*
G03X8895100Y15398900I-25585J98316D01*
G02X9298100Y15147100I320708J64889D01*
G03X9224100Y15028700I25585J-98316D01*
G02X9227500Y15008800I-320676J-65029D01*
G37*
G36*
G01X3587300Y14755100D02*
G03X3610000Y14822300I-23137J45250D01*
G02X4053900Y14672500I294985J141523D01*
G03X4031200Y14605300I23137J-45250D01*
G02X3587300Y14755100I-294985J-141523D01*
G37*
G36*
G01X19941000Y12319100D02*
G03X19826100Y12210200I-13646J-100667D01*
G02X19174200Y12214200I-326125J-26568D01*
G03X19069100Y12325200I-101124J9508D01*
G02X19073600Y12978900I-12704J326953D01*
G03X19178700Y13061200I5320J101464D01*
G02X19823000Y13051500I321290J-61967D01*
G03X19937900Y12967200I100294J16246D01*
G02X19941000Y12319100I46872J-323833D01*
G37*
G36*
G01X16468900Y12257600D02*
G03Y12109600I69623J-74000D01*
G02X16020700I-224100J-238400D01*
G03Y12257600I-69623J74000D01*
G02X16468900I224100J238400D01*
G37*
G36*
G01X23700300Y9825800D02*
G03X23599600Y9714800I454J-101590D01*
G02X23272300Y10011600I-325791J-30403D01*
G03X23373000Y10122600I-454J101590D01*
G02X23700300Y9825800I325791J30403D01*
G37*
G36*
G01X36697200Y5731000D02*
G03X36769000Y5730900I35950J35910D01*
G02X36768300Y5268200I231000J-231700D01*
G03X36696500Y5268300I-35950J-35910D01*
G02X36697200Y5731000I-231000J231700D01*
G37*
G36*
G01X34377900Y4974500D02*
G03X34470000Y4865900I101346J-7406D01*
G02X34113800Y4564000I-29894J-325813D01*
G03X34021700Y4672600I-101346J7406D01*
G02X33732300Y5069900I29890J325824D01*
G03X33664500Y5188800I-99135J22251D01*
G02X34084800Y5428500I101015J311212D01*
G03X34152600Y5309600I99135J-22251D01*
G02X34377900Y4974500I-101011J-311202D01*
G37*
G36*
G01X23341700Y4916200D02*
G03Y4768200I69623J-74000D01*
G02X22893500I-224100J-238400D01*
G03Y4916200I-69623J74000D01*
G02X23341700I224100J238400D01*
G37*
G36*
G01X21946900Y2881900D02*
G03X22097800Y2879100I76712J66610D01*
G02X22089700Y2440700I238799J-223687D01*
G03X21938800Y2443500I-76712J-66610D01*
G02X21946900Y2881900I-238799J223687D01*
G37*
G36*
G01X20140200Y2499900D02*
G03X20021800Y2418400I-18496J-99883D01*
G02X19759800Y2799500I-321781J59391D01*
G03X19878200Y2881000I18496J99883D01*
G02X20140200Y2499900I321781J-59391D01*
G37*
G36*
G01X29741800Y2778700D02*
G03X29744700Y2707300I37521J-34235D01*
G02X29280000Y2688300I-222946J-239497D01*
G03X29277100Y2759700I-37521J34235D01*
G02X29741800Y2778700I222946J239497D01*
G37*
G36*
G01X32504100Y2454600D02*
G03X32583500Y2351300I101522J-4132D01*
G02X32185100Y2045200I-71475J-319289D01*
G03X32105700Y2148500I-101522J4132D01*
G02X32504100Y2454600I71475J319289D01*
G37*
G36*
G01X31726900Y37587000D02*
G02X31530900Y37899900I-326934J13046D01*
G03X31673100Y37989000I40676J93106D01*
G02X31869100Y37676100I326934J-13046D01*
G03X31726900Y37587000I-40676J-93106D01*
G37*
G36*
G01X6525800Y34928800D02*
G02X6293200Y34679900I87810J-315193D01*
G03X6166400Y34798400I-99482J20640D01*
G02X6399000Y35047300I-87810J315193D01*
G03X6525800Y34928800I99482J-20640D01*
G37*
G36*
G01X11539600Y32812900D02*
G02X11528300Y33124400I-293187J145319D01*
G03X11706800Y33130900I87489J51599D01*
G02X11718100Y32819400I293187J-145319D01*
G03X11539600Y32812900I-87489J-51599D01*
G37*
G36*
G01X18518900Y32648700D02*
G02X18167600Y32526700I-87330J-315318D01*
G03X18112700Y32684700I-81958J60060D01*
G02X18464000Y32806700I87330J315318D01*
G03X18518900Y32648700I81958J-60060D01*
G37*
G36*
G01X6975500Y32474500D02*
G02X6675200Y32187700I24513J-326284D01*
G03X6566700Y32301300I-100846J12296D01*
G02X6218000Y32583500I-24482J326284D01*
G03X6074300Y32661800I-100656J-13716D01*
G02X6259800Y33002300I-138719J296351D01*
G03X6403500Y32924000I100656J13716D01*
G02X6867000Y32588100I138683J-296371D01*
G03X6975500Y32474500I100846J-12296D01*
G37*
G36*
G01X37066000Y29814900D02*
G02X36705000Y29636000I-66004J-320490D01*
G03X36634000Y29779500I-91547J44019D01*
G02X36855200Y30388000I65968J320475D01*
G03X37004900Y30473100I48183J89460D01*
G02X37176600Y30171000I326885J-14057D01*
G03X37026900Y30085900I-48183J-89460D01*
G02X36995000Y29958400I-326908J14050D01*
G03X37066000Y29814900I91547J-44019D01*
G37*
G36*
G01X27320900Y29430400D02*
G02X26873200Y29796000I-320881J63980D01*
G03X26913900Y29952200I-39370J93661D01*
G02X27493900Y30210900I257863J201399D01*
G03X27595400Y30127200I100013J17890D01*
G02X27463000Y29502800I4532J-327198D01*
G03X27320900Y29430400I-42489J-92258D01*
G37*
G36*
G01X22320600Y22559200D02*
G02X21675500Y22583000I-320570J65575D01*
G03X21533200Y22662800I-100775J-12928D01*
G02X21723900Y23003200I-133813J298582D01*
G03X21866200Y22923400I100775J12928D01*
G02X22055500Y22947300I133856J-298585D01*
G03X22172200Y23027000I17201J100102D01*
G02X22437300Y22638900I320583J-65610D01*
G03X22320600Y22559200I-17201J-100102D01*
G37*
G36*
G01X22898700Y19469700D02*
G02X22819800Y19960300I-249686J211489D01*
G03X22950300Y19981300I52994J86662D01*
G02X23260600Y20091300I249632J-211525D01*
G03X23379100Y20171300I18847J99846D01*
G02X24020900I320900J-63900D01*
G03X24139400Y20091300I99653J19846D01*
G02X24262400Y20091000I60716J-321506D01*
G03X24380900Y20213200I19427J99717D01*
G02X24637600Y19964400I319094J72401D01*
G03X24519100Y19842200I-19427J-99717D01*
G02X23879100Y19705900I-319123J-72267D01*
G03X23760600Y19785900I-99653J-19846D01*
G02X23639400I-60600J321500D01*
G03X23520900Y19705900I-18847J-99846D01*
G02X23029200Y19490700I-320906J63892D01*
G03X22898700Y19469700I-52994J-86662D01*
G37*
G36*
G01X20303600Y19857100D02*
X20320200Y19842000D01*
G02X19896200Y19856200I-220339J-241896D01*
G01Y20075100D01*
X19896300Y20075200D01*
Y20175700D01*
G03X19724900Y20249500I-101586J5D01*
G02X19799100Y20619900I-224893J237684D01*
G01X19812500Y20589700D01*
X19896300D01*
Y20815600D01*
X19615600Y21096300D01*
X10715600D01*
X9996300Y21815600D01*
Y24315600D01*
X9515600Y24796300D01*
X8515600D01*
X7996300Y25315600D01*
Y29415600D01*
X7312800Y30099100D01*
X6660300D01*
G02X6590100Y30033500I-256094J203691D01*
G03X6589100Y29867000I57724J-83600D01*
G02X6668800Y29786500I-189144J-266969D01*
G03X6811000Y29761500I83481J57922D01*
G02X6731200Y29307900I189012J-267072D01*
G03X6589000Y29332900I-83481J-57922D01*
G02X6214100Y29869300I-189008J267111D01*
G03X6215100Y30035800I-57724J83600D01*
G02X6660300Y30506500I189129J267007D01*
G01X7481600D01*
X8403700Y29584400D01*
Y26598200D01*
G03X8564600Y26515700I101588J-25D01*
G02Y25984300I191000J-265700D01*
G03X8403700Y25901800I-59312J-82475D01*
G01Y25484400D01*
X8684400Y25203700D01*
X9684400D01*
X10403700Y24484400D01*
Y21984400D01*
X10884400Y21503700D01*
X19784400D01*
X20303700Y20984400D01*
Y20850300D01*
G03X20426200Y20750900I101584J8D01*
G02Y20110500I67500J-320200D01*
G03X20303700Y20011100I-20916J-99408D01*
G01Y19906400D01*
X20303600Y19906300D01*
Y19857100D01*
G37*
G36*
G01X9229100Y19879000D02*
G02X9072800Y19597400I170887J-279026D01*
G03X8918100Y19683200I-101596J-817D01*
G02X9074400Y19964800I-170887J279026D01*
G03X9229100Y19879000I101596J817D01*
G37*
G36*
G01X6327900Y18970100D02*
G02X6036000Y19073400I-242117J-220093D01*
G03X6095700Y19242100I-15513J100403D01*
G02X6015200Y19516900I242097J220111D01*
G03X5919900Y19635400I-100168J17014D01*
G02X6258200Y19907500I15714J326816D01*
G03X6353500Y19789000I100168J-17014D01*
G02X6387600Y19138800I-15718J-326819D01*
G03X6327900Y18970100I15513J-100403D01*
G37*
G36*
G01X3878700Y19047700D02*
G02X3526800Y18995800I-135874J-297681D01*
G03X3501900Y19164500I-67058J76290D01*
G02X3316500Y19524300I135884J297686D01*
G03X3194800Y19642800I-99747J19303D01*
G02X3445300Y19900100I-70741J319461D01*
G03X3567000Y19781600I99747J-19303D01*
G02X3853800Y19216400I70800J-319439D01*
G03X3878700Y19047700I67058J-76290D01*
G37*
G36*
G01X26496600Y17318300D02*
G02X26271100Y17563300I-320016J-68269D01*
G03X26399800Y17681700I29346J97249D01*
G02X26625300Y17436700I320016J68269D01*
G03X26496600Y17318300I-29346J-97249D01*
G37*
G36*
G01X2122000Y15052900D02*
G02X1722600Y15128900I-247630J-213886D01*
G03X1752400Y15285300I-47089J90011D01*
G02X2151800Y15209300I247630J213886D01*
G03X2122000Y15052900I47089J-90011D01*
G37*
G36*
G01X26510800Y14868800D02*
G02X26091600Y14973600I-269200J-186000D01*
G03X26128600Y15121600I-46599J90275D01*
G02X26719100Y15369500I269205J185988D01*
G03X26861800Y15296600I99764J19169D01*
G02X26672800Y15002800I138198J-296593D01*
G03X26591900Y15044200I-50795J485D01*
G02X26547800Y15016800I-194184J263348D01*
G03X26510800Y14868800I46595J-90274D01*
G37*
G36*
G01X6658600Y14519700D02*
G02X6304100Y14789400I-322383J-55916D01*
G03X6394200Y14907900I-10001J101107D01*
G02X6394300Y15020000I322404J55762D01*
G03X6283200Y15138500I-100093J17488D01*
G02X6570300Y15407600I-35227J325285D01*
G03X6681400Y15289100I100093J-17488D01*
G02X6748700Y14638200I35199J-325290D01*
G03X6658600Y14519700I10001J-101107D01*
G37*
G36*
G01X24524400Y12237200D02*
G02X23878200Y12135200I-324404J-42741D01*
G03X23759800Y12216700I-99904J-18383D01*
G02X23389500Y12435100I-59819J321700D01*
G03X23271100Y12502200I-96386J-32066D01*
G02X23100600Y12509900I-70999J319398D01*
G03X22970000Y12432700I-30895J-96804D01*
G02X22748400Y12807700I-321004J63283D01*
G03X22879000Y12884900I30895J96804D01*
G02X23510500Y12924900I321026J-63289D01*
G03X23628900Y12857800I96386J32066D01*
G02X24021800Y12597800I71118J-319396D01*
G03X24140200Y12516300I99904J18383D01*
G02X24257100Y12516800I59827J-321695D01*
G03X24375600Y12630000I17762J100030D01*
G02X24767800Y12992700I324410J42604D01*
G03X24828000Y13031900I10498J49703D01*
G02X25080400Y12644500I320203J-67303D01*
G03X25020200Y12605300I-10498J-49703D01*
G02X24642900Y12350400I-320212J67287D01*
G03X24524400Y12237200I-17762J-100030D01*
G37*
G36*
G01X12084400Y11196300D02*
X2729800D01*
X2036800Y11889300D01*
X2014400Y11888300D01*
G02X2325900Y12199800I-15300J326800D01*
G01X2324900Y12177400D01*
X2898600Y11603700D01*
X3288500D01*
G03X3362300Y11775100I5J101586D01*
G02X3837700I237700J224900D01*
G03X3911500Y11603700I73795J-69814D01*
G01X11915600D01*
X12796300Y12484400D01*
Y16684400D01*
X13515600Y17403700D01*
X15618000D01*
G03X15708500Y17551400I-39J101600D01*
G02X16291500I291500J148600D01*
G03X16382000Y17403700I90539J-46100D01*
G01X21801600D01*
X22323200Y17925300D01*
X22322200Y17947700D01*
G02X22633700Y17636200I326800J15300D01*
G01X22611300Y17637200D01*
X21970400Y16996300D01*
X13684400D01*
X13203700Y16515600D01*
Y15011500D01*
G03X13375100Y14937700I101586J-5D01*
G02Y14462300I224900J-237700D01*
G03X13203700Y14388500I-69814J-73795D01*
G01Y12315600D01*
X12084400Y11196300D01*
G37*
G36*
G01X19987600Y9413500D02*
G02X19770600Y9842900I-306414J114683D01*
G03X19893600Y9905100I27796J97749D01*
G02X20254700Y10113000I306430J-114690D01*
G03X20373200Y10218200I17034J100153D01*
G02X20814400Y10541100I326779J16371D01*
G03X20943100Y10595800I35511J95203D01*
G02X21558900Y10551500I300114J-130382D01*
G03X21669900Y10477500I98003J26754D01*
G02X21958900Y9938500I41908J-324508D01*
G03X22000900Y9854600I38390J-33245D01*
G02X22066100Y9852700I23116J-326395D01*
G03X22177100Y9926700I12997J100754D01*
G02X22450900Y9516100I315681J-86083D01*
G03X22339900Y9442100I-12997J-100754D01*
G02X21735200Y9681700I-315666J86194D01*
G03X21661200Y9829700I-89685J47657D01*
G02X21647200Y9832200I50510J323303D01*
G03X21526000Y9741400I-20008J-99582D01*
G02X20874400Y9802100I-325982J28398D01*
G03X20755900Y9912200I-101100J10007D01*
G02X20645300Y9912000I-55883J322398D01*
G03X20526800Y9806800I-17034J-100153D01*
G02X20110600Y9475700I-326778J-16369D01*
G03X19987600Y9413500I-27796J-97749D01*
G37*
G36*
G01X26871200Y7546500D02*
G02X26577100Y7792600I-317204J-80291D01*
G03X26682800Y7918900I7227J101332D01*
G02X26976900Y7672800I317204J80291D01*
G03X26871200Y7546500I-7227J-101332D01*
G37*
G36*
G01X23496600Y7318300D02*
G02X23271100Y7563300I-320016J-68269D01*
G03X23399800Y7681700I29346J97249D01*
G02X23625300Y7436700I320016J68269D01*
G03X23496600Y7318300I-29346J-97249D01*
G37*
G36*
G01X30123500Y4838900D02*
G02X29747800Y5001600I-289292J-152896D01*
G03X29810700Y5147100I-26878J97966D01*
G02X29801400Y5166200I289384J152718D01*
G03X29659300Y5213400I-92699J-41576D01*
G02X29798600Y5633000I-159297J285806D01*
G03X29940700Y5585800I92699J41576D01*
G02X30186400Y4984400I159290J-285813D01*
G03X30123500Y4838900I26878J-97966D01*
G37*
G36*
G01X27499500Y4751000D02*
G02X27179500Y5013200I-320685J-65006D01*
G03X27279300Y5135000I241J101589D01*
G02X27272900Y5194200I320746J64621D01*
G03X27192200Y5234400I-50807J-892D01*
G02X27320000Y5567600I-192185J264822D01*
G03X27462100Y5496700I99345J21259D01*
G02X27599300Y4872800I137916J-296707D01*
G03X27499500Y4751000I-241J-101589D01*
G37*
G54D13*
X1093400Y10406600D03*
X14214200Y2655400D03*
X14500000Y4500800D03*
X12000000Y2999200D03*
X9500000D03*
X7000000D03*
X4500000D03*
X2000000D03*
X14500000Y5499200D03*
X12000000D03*
X9500000D03*
X7000000D03*
X4500000D03*
X2000000D03*
X14500000Y9500800D03*
X12000000Y7999200D03*
X9500000D03*
X7000000D03*
X4500000D03*
X2000000D03*
X14500000Y10499200D03*
X12000000D03*
X9500000D03*
X7000000D03*
X4500000D03*
X2000000D03*
X1087400Y18750000D03*
X13745600Y16401000D03*
X10500000Y19334200D03*
X14995200Y14711800D03*
X8741200Y18750000D03*
X1908200Y27769800D03*
X13500000Y19700000D03*
X13000000Y23000000D03*
X9713600Y34613600D03*
X3700000Y29500000D03*
X13800000Y29700000D03*
X13600000Y27200000D03*
X1086600Y21250000D03*
X11090200Y24523400D03*
X8591000Y24054800D03*
X14995200Y19681200D03*
X3592600Y22492800D03*
X11246400Y26397800D03*
X5500000Y23114000D03*
X12183600Y27959800D03*
X1643600Y25229800D03*
X12183600Y30334200D03*
X12014200Y35113600D03*
X9046400D03*
X3592600Y30334200D03*
X9500000Y21994400D03*
X7000000D03*
X4500000D03*
X2000000D03*
X14500000Y20505600D03*
X12000000Y24339800D03*
X9500000Y23100000D03*
X7000000Y23005600D03*
X4500000D03*
X1255600Y23750000D03*
X3574400Y32627600D03*
X13700000Y22000000D03*
X6255600Y26250000D03*
X3755600D03*
X1255600D03*
X12000000Y26995200D03*
X13754000Y26250000D03*
X4500000Y29494400D03*
X1255600Y28750000D03*
X12000000Y29494400D03*
X13745600Y27959800D03*
X13800000Y32000000D03*
X12000000Y31993600D03*
X4500000Y31835000D03*
X1255600Y31250000D03*
X8903400Y32958200D03*
X8755600Y33750000D03*
X6255600D03*
X3755600D03*
X1255600D03*
X14500000Y36994400D03*
X12000000D03*
X9500000D03*
X7000000D03*
X4500000D03*
X2000000D03*
X11200000Y13200000D03*
X12339800Y14963800D03*
X3748800Y20462200D03*
X6560400D03*
X9372000D03*
X14500000Y12999200D03*
X12000000D03*
X9500000D03*
X7000000D03*
X4500000D03*
X2000000D03*
X11200000Y18200000D03*
X12000000Y17000800D03*
X9500000D03*
X14500000Y15490400D03*
X4500000Y17000800D03*
X7000000D03*
X14500000Y17999200D03*
X12000000D03*
X9500000D03*
X7000000D03*
X4500000D03*
X2000000D03*
X21804000Y4750000D03*
X16200000Y6900000D03*
X32800000Y7000000D03*
X37000000Y7100000D03*
X36830000Y2159000D03*
X38581400Y12339800D03*
X19700000Y7828800D03*
X28800000Y12200000D03*
X28803200Y9996800D03*
X26397800Y2467800D03*
X29365600Y7466200D03*
X32177200D03*
X34988800D03*
X34832600Y2467800D03*
X24500000Y2999200D03*
X27000000D03*
X37000000D03*
X31240000Y5000000D03*
X26241600Y4529800D03*
X24500000Y5499200D03*
X32500000Y5400000D03*
X30300000Y7999200D03*
X37000000D03*
X24500000D03*
X34500000Y8100000D03*
X37000000Y10499200D03*
X34500000D03*
X32000000D03*
X29500000D03*
X27000000D03*
X24500000D03*
X30600000Y7300000D03*
X28584600Y781000D03*
X33739200Y937200D03*
X38580200Y3750000D03*
X21243200Y624800D03*
X17000000Y2999200D03*
X18744000Y2655400D03*
X16244800Y5467000D03*
X17000000Y9500800D03*
Y10499200D03*
X21087000Y22180400D03*
X32489600Y30185000D03*
X16244800Y16557200D03*
X35145000Y30028800D03*
X18738800Y16250000D03*
X23900000Y35500000D03*
X33739200Y33739200D03*
X21711800Y34676400D03*
X27000000Y32802000D03*
X37000000Y34494400D03*
X32000000Y32979200D03*
X16084200Y13750000D03*
X37000000Y23005600D03*
X34500000D03*
X32000000D03*
X29500000D03*
X27000000Y24494400D03*
X24500000D03*
X22000000D03*
X34500000Y29494400D03*
X32000000D03*
X24500000D03*
X22000000D03*
X27000000Y31994400D03*
X29500000D03*
X32000000D03*
X34500000D03*
X37000000D03*
X31280100Y27769800D03*
X20700000Y32102600D03*
X22180400Y30302800D03*
X34429800Y25229800D03*
X19993600Y22180400D03*
X29000000Y28000000D03*
X18619300Y15307600D03*
X31275000Y34100000D03*
X36220200Y34220200D03*
X33500000Y29500000D03*
X26600000Y28000000D03*
X18300000Y34600000D03*
X26100000Y33000000D03*
X38737600Y14837600D03*
X31240000Y29678000D03*
X37000000Y20505600D03*
X34500000D03*
X32000000D03*
X29500000D03*
X27000000Y21994400D03*
X24500000D03*
X38000000Y37956600D03*
X35500000D03*
X33000000D03*
X30500000D03*
X24992000Y35145000D03*
X18744000Y28428400D03*
X16244800Y30459000D03*
X19681200Y27178800D03*
X17338200Y30302800D03*
X36246800Y26250000D03*
X33747600D03*
X31248400D03*
X27000000Y26994400D03*
X24500000D03*
X22000000D03*
X28584600Y25304400D03*
X27178800Y34520200D03*
X21087000Y12808400D03*
X27000000Y12999200D03*
X29500000D03*
X32000000D03*
X34500000D03*
X37000000D03*
X28000000Y15400000D03*
X29500000Y15499200D03*
X32000000D03*
X34500000D03*
X37000000D03*
X21248400Y16250000D03*
X26241600Y19993600D03*
X39362400Y18119200D03*
X37000000Y17999200D03*
X34500000D03*
X32000000D03*
X29500000D03*
X37175600Y17182000D03*
X35500000Y19600000D03*
X16869600Y20462200D03*
X15307600Y22336600D03*
X20149800Y22961400D03*
X20774600Y27335000D03*
X17494400Y29521800D03*
X18275400Y30459000D03*
X16000000Y32000000D03*
X16600000Y34800000D03*
X18290000Y35450000D03*
X17000000Y36994400D03*
X18275400Y37488000D03*
X21399400Y37956600D03*
X37000000Y37976000D03*
X34500000D03*
X21711800Y19837400D03*
X37000000Y36994400D03*
X34500000D03*
X32000000D03*
X22180400Y37644200D03*
X25054800Y30083800D03*
X17000000Y12999200D03*
X19500000Y15488800D03*
X17000000Y15489600D03*
Y17999200D03*
%LPD*%
G75*
G54D10*
X2000000Y499200D03*
Y2999200D03*
Y5499200D03*
Y7999200D03*
X1093400Y10406600D03*
X1999100Y12215100D03*
X2000000Y10499200D03*
X1874400Y14839000D03*
X2000000Y12999200D03*
Y15499200D03*
X1087400Y18750000D03*
X2000000Y17999200D03*
X1086600Y21250000D03*
X2000000Y20100000D03*
Y21994400D03*
X1643600Y25229800D03*
X1255600Y23750000D03*
X1908200Y27769800D03*
X1255600Y26250000D03*
Y28750000D03*
Y31250000D03*
X2499200Y31999200D03*
X1255600Y33750000D03*
X1875000Y35000000D03*
X2000000Y36994400D03*
Y39494400D03*
X4500000Y499200D03*
Y2999200D03*
Y5499200D03*
Y7999200D03*
X3600000Y12000000D03*
X4500000Y10499200D03*
X3736200Y14463800D03*
X3463800Y15463800D03*
X3905000Y14963800D03*
X4500000Y12999200D03*
X3742800Y18750000D03*
X4500000Y17000800D03*
Y17999200D03*
X3637800Y19462200D03*
X4500000Y21994400D03*
X3124000Y19962200D03*
X3748800Y20462200D03*
X3592600Y22492800D03*
X5500000Y23114000D03*
X4500000Y23005600D03*
X3755600Y26250000D03*
X3700000Y29500000D03*
X3592600Y30334200D03*
X4500000Y29494400D03*
X3213600Y34613600D03*
X5467000Y31999200D03*
X3574400Y32627600D03*
X4500000Y31835000D03*
X3755600Y33750000D03*
X3592600Y35113600D03*
X4500000Y36994400D03*
Y39494400D03*
X7000000Y499200D03*
Y2999200D03*
Y5499200D03*
Y7999200D03*
X8000000Y9600000D03*
X8600000D03*
X7000000Y10499200D03*
X6336200Y14463800D03*
X6716600Y14963800D03*
X6248000Y15463800D03*
X7000000Y12999200D03*
X6085800Y18750000D03*
X8741200D03*
X8700000Y17000000D03*
X6200000D03*
X7000000Y17000800D03*
Y17999200D03*
X6337800Y19462200D03*
X8800000Y20600000D03*
X7000000Y21994400D03*
X8747200Y19962200D03*
X5935600D03*
X6560400Y20462200D03*
X8591000Y24054800D03*
X8500000Y22500000D03*
X5900000Y22200000D03*
X7000000Y23005600D03*
X8755600Y26250000D03*
X6255600D03*
X6400000Y29600000D03*
X6404200Y30302800D03*
X7000000Y29494400D03*
X6613600Y34613600D03*
X8278600Y31999200D03*
X6542200Y32627600D03*
X5935600Y32958200D03*
X7000000Y32148200D03*
X8755600Y33750000D03*
X6255600D03*
X6250000Y37500000D03*
X8750000Y36875000D03*
X6078600Y35113600D03*
X7000000Y36994400D03*
Y39494400D03*
X12000000Y499200D03*
X9500000D03*
X12000000Y2999200D03*
X9500000D03*
X11800000Y4800000D03*
X12000000Y5499200D03*
X9500000D03*
X12000000Y7999200D03*
X9500000D03*
X10600000Y10400000D03*
X9200000Y9600000D03*
X9800000D03*
X12000000Y10499200D03*
X9500000D03*
X9400000Y14600000D03*
X11200000Y13200000D03*
X8903400Y14963800D03*
X12000000Y12999200D03*
X9500000D03*
X9215800Y15463800D03*
X10900000Y17300000D03*
X11200000Y18200000D03*
X12000000Y17000800D03*
X9500000D03*
X12000000Y17999200D03*
X9500000D03*
X10500000Y19334200D03*
X9400000Y19600000D03*
X10600000Y20100000D03*
X12000000Y20505600D03*
X9500000Y21994400D03*
X11715000Y19962200D03*
X9372000Y20462200D03*
X11090200Y24523400D03*
X11000000Y22900000D03*
X12000000Y24339800D03*
X9500000Y23100000D03*
X11246400Y26397800D03*
X12000000Y26995200D03*
X9000000Y29700000D03*
X9059600Y30334200D03*
X9500000Y29494400D03*
X12000000D03*
X9713600Y34613600D03*
X11402600Y31999200D03*
X12000000Y31993600D03*
X8903400Y32958200D03*
X12000000Y32985600D03*
X11246400Y32958200D03*
X12014200Y35113600D03*
X9046400D03*
X12000000Y36994400D03*
X9500000D03*
X12000000Y39494400D03*
X9500000D03*
X14214200Y2655400D03*
X14500000Y499200D03*
X15000000Y5300000D03*
X14500000Y4500800D03*
Y5499200D03*
X13745600Y6876400D03*
X13589400Y7501200D03*
X14900000Y12300000D03*
X14500000Y9500800D03*
Y10499200D03*
X14995200Y14711800D03*
X13600000Y14700000D03*
X12339800Y14963800D03*
X14500000Y12999200D03*
Y15490400D03*
X13745600Y16401000D03*
X14500000Y17999200D03*
X13500000Y19700000D03*
X14995200Y19681200D03*
X14500000Y20505600D03*
X13700000Y22000000D03*
X13000000Y23000000D03*
X13750000Y24750000D03*
X13800000Y23200000D03*
X13600000Y27200000D03*
X12183600Y27959800D03*
X13754000Y26250000D03*
X13745600Y27959800D03*
X13800000Y29700000D03*
X14807500Y30490500D03*
X14214200Y30415600D03*
X12183600Y30334200D03*
X13750000Y34375000D03*
X13000000Y32900000D03*
X13800000Y32000000D03*
X13600000Y33000000D03*
X13900000Y34900000D03*
X13745600Y35497400D03*
X14370400Y35301200D03*
X12400000Y35500000D03*
X14500000Y36994400D03*
Y39494400D03*
X17000000Y2000000D03*
Y2999200D03*
X16244800Y5467000D03*
X16200000Y6900000D03*
X16244800Y12496000D03*
Y11871200D03*
X17000000Y9500800D03*
Y10499200D03*
X16084200Y13750000D03*
X16400000Y15100000D03*
X17000000Y12999200D03*
Y15489600D03*
X16244800Y16557200D03*
X16000000Y17700000D03*
X17000000Y17999200D03*
X18200000Y20381400D03*
X17700000Y20100000D03*
X16869600Y20462200D03*
X16600000Y25000000D03*
X16000000D03*
X17200000D03*
X16000000Y24500000D03*
X16600000D03*
X17200000D03*
X16000000Y23000000D03*
X17200000D03*
X15307600Y22336600D03*
X16557200Y27803600D03*
X17650600Y27491200D03*
X17200000Y27785600D03*
X16244800Y30459000D03*
X17338200Y30302800D03*
X17494400Y29521800D03*
X18275400Y30459000D03*
X18300000Y34600000D03*
X18200000Y33000000D03*
X16000000Y32000000D03*
X16600000Y34800000D03*
X18290000Y35450000D03*
X17000000Y36994400D03*
X18275400Y37488000D03*
X17963000Y39674800D03*
X17000000Y39494400D03*
X20618400Y2030600D03*
X19700000Y2477800D03*
X20200000Y2821600D03*
X21243200Y624800D03*
X20462200Y468600D03*
X18744000Y2655400D03*
X19100000Y5000000D03*
X19600000D03*
X20100000D03*
X19100000Y5500000D03*
X19600000D03*
X20100000D03*
X19100000Y7000000D03*
X19600000D03*
X20200000D03*
X19700000Y7828800D03*
X21243200Y10465400D03*
X21200000Y9769800D03*
X20700000Y10234600D03*
X20200000Y9790400D03*
X19984800Y12643400D03*
X19056400Y12652200D03*
X19681200Y9528200D03*
X19500000Y12183600D03*
X18619300Y15307600D03*
X21087000Y12808400D03*
X19500000Y12999200D03*
Y15488800D03*
X18738800Y16250000D03*
X21248400D03*
X18700000Y20662400D03*
X20099900Y19600100D03*
X19500000Y20487200D03*
X20493700Y20430700D03*
X21087000Y22180400D03*
X21399400Y22961400D03*
X19993600Y22180400D03*
X21300000Y24700000D03*
X20149800Y24835800D03*
Y22961400D03*
X19525000Y27959800D03*
X18744000Y28428400D03*
X19681200Y27178800D03*
X20149800Y25460600D03*
X18888200Y27178800D03*
X18431600Y27647400D03*
X20774600Y27335000D03*
X20149800Y27959800D03*
X20930800Y30459000D03*
Y29834200D03*
X20700000Y32102600D03*
X20900000Y33000000D03*
X20600000Y34500000D03*
X19100000Y33000000D03*
X20100000Y34500000D03*
X19600000D03*
X19100000D03*
X18431600Y32333400D03*
X20149800Y37488000D03*
X20462200Y37956600D03*
X19700000Y37156800D03*
X20600000Y35000000D03*
X20100000D03*
X19600000D03*
X19100000D03*
X21399400Y37956600D03*
X19525000Y39674800D03*
X18744000D03*
X21700000Y2667200D03*
X24500000Y499200D03*
X22000000D03*
X22336600Y2655400D03*
X24500000Y2999200D03*
X23742400Y1098200D03*
X23117600Y4529800D03*
X21804000Y4750000D03*
X23117600Y5154600D03*
X24500000Y5499200D03*
X24300000Y7100000D03*
X23176600Y7250000D03*
X23719800Y7750000D03*
X24500000Y7999200D03*
X22492800Y9840600D03*
X24200000Y12194600D03*
X22024200Y9528200D03*
X23273800Y9684400D03*
X21711800Y10153000D03*
X24500000Y10499200D03*
X23698800Y10153000D03*
X23700000Y12538400D03*
X22649000Y12496000D03*
X24700000Y12672600D03*
X21900000Y15500000D03*
X22400000D03*
X21900000Y15000000D03*
X22400000D03*
X23500000Y15500000D03*
Y15000000D03*
X23200000Y12821600D03*
X22649000Y17963000D03*
X24500000Y21994400D03*
X22649000Y19681200D03*
X21711800Y19837400D03*
X24700000Y20285600D03*
X24200000Y19769800D03*
X23700000Y20107400D03*
X23200000Y19769800D03*
X22492800Y22961400D03*
X24500000Y24494400D03*
X22000000D03*
Y22624800D03*
X24500000Y26994400D03*
X22000000D03*
X24500000Y29494400D03*
X22000000D03*
X22180400Y30302800D03*
X23742400Y33114400D03*
X21711800Y34676400D03*
X24500000Y32645800D03*
X21711800Y32333400D03*
X24500000Y31994400D03*
X23190400Y32250000D03*
X21711800Y32897600D03*
X23250300Y32825500D03*
X23300000Y34500000D03*
X23900000Y35500000D03*
X24054800Y37800400D03*
X24679600Y37644200D03*
X22180400D03*
X22768000Y39504000D03*
X27000000Y2000000D03*
X25067800Y2967800D03*
X26397800Y2467800D03*
X27022600Y312400D03*
X27000000Y2999200D03*
X27600000Y5200000D03*
X26241600Y4529800D03*
X27000000Y5499200D03*
X27178800Y4686000D03*
X25900000Y7000000D03*
X26554000Y7466200D03*
X27000000Y7999200D03*
Y10499200D03*
X26241600Y14682800D03*
X27000000Y15000000D03*
X25148200Y12964600D03*
X27000000Y12999200D03*
X26397800Y15307600D03*
X26176600Y17250000D03*
X26719800Y17750000D03*
X27000000Y21994400D03*
X26241600Y19993600D03*
X27000000Y24494400D03*
X26600000Y28000000D03*
X27000000Y26994400D03*
X27171800Y30153600D03*
X27000000Y29494400D03*
X27600000Y29800000D03*
X25054800Y30083800D03*
X27000000Y32802000D03*
Y31994400D03*
X26100000Y33000000D03*
X26241600Y31864800D03*
X27178800Y34520200D03*
X26554000Y35113600D03*
X27022600Y35457400D03*
X24992000Y35145000D03*
X26241600Y36394600D03*
X26554000Y37956600D03*
X27000000Y37621600D03*
X30597000Y403000D03*
X29521800Y2467800D03*
X29500000Y499200D03*
Y2999200D03*
X28584600Y781000D03*
X30100000Y5300000D03*
X28600000Y4500000D03*
X29500000Y5499200D03*
X29834200Y4686000D03*
X28900000Y7000000D03*
X29365600Y7466200D03*
X30300000Y7999200D03*
X30600000Y7300000D03*
X28800000Y12200000D03*
X28803200Y9996800D03*
X29500000Y10499200D03*
Y12999200D03*
X28000000Y15400000D03*
X29500000Y15499200D03*
Y17999200D03*
Y20505600D03*
Y23005600D03*
X28584600Y25304400D03*
X29000000Y28000000D03*
X29521800Y30185000D03*
X29500000Y29494400D03*
X30000000Y29800000D03*
X29834200Y34676400D03*
X29500000Y31994400D03*
X28740800Y31708600D03*
X29365600Y35113600D03*
X30500000Y37956600D03*
X28740800Y36394600D03*
X29053200Y37956600D03*
Y37331800D03*
X32512000Y2032000D03*
X32567800Y2967800D03*
X32177200Y2467800D03*
X32000000Y499200D03*
X33739200Y937200D03*
X31174200Y715200D03*
X33765500Y5500000D03*
X34051600Y4998400D03*
X31240000Y5000000D03*
X32500000Y5400000D03*
X32800000Y7000000D03*
X32566200Y7966200D03*
X32177200Y7466200D03*
X32000000Y10499200D03*
Y12999200D03*
Y15499200D03*
Y17999200D03*
Y20505600D03*
Y23005600D03*
X31280100Y27769800D03*
X33747600Y26250000D03*
X31248400D03*
X32489600Y30185000D03*
X32000000Y29494400D03*
X33500000Y29500000D03*
X31240000Y29678000D03*
X33739200Y33739200D03*
X32000000Y32979200D03*
Y31994400D03*
X32645800Y34676400D03*
X31275000Y34100000D03*
X31083800Y32489600D03*
X33739200Y31708600D03*
X32177200Y35113600D03*
X31400000Y37600000D03*
X33000000Y37956600D03*
X33739200Y36394600D03*
X31240000Y36238400D03*
X32000000Y37976000D03*
Y36994400D03*
X36830000Y2159000D03*
X35132200Y2967800D03*
X34832600Y2467800D03*
X37000000Y499200D03*
X34500000D03*
X37000000Y2999200D03*
X36465500Y5500000D03*
X37000000Y5499200D03*
X34440100Y4540100D03*
X37000000Y7100000D03*
X35266200Y7966200D03*
X34988800Y7466200D03*
X37000000Y7999200D03*
X34500000Y8100000D03*
X37000000Y10499200D03*
X34500000D03*
Y12999200D03*
X37000000D03*
X34500000Y15499200D03*
X37000000D03*
Y17999200D03*
X34500000D03*
X37175600Y17182000D03*
X37000000Y20505600D03*
X34500000D03*
X35500000Y19600000D03*
X37000000Y23005600D03*
X34500000D03*
X34429800Y25229800D03*
X37000000Y27400000D03*
X36200000D03*
X37000000Y28000000D03*
X36200000D03*
X36246800Y26250000D03*
X35145000Y30028800D03*
X37331800Y30459000D03*
X37000000Y29494400D03*
X34500000D03*
X36700000Y30100000D03*
X37000000Y34494400D03*
X34500000Y31994400D03*
X37000000D03*
X36220200Y34220200D03*
X35500000Y37956600D03*
X37000000Y37976000D03*
X34500000D03*
X37000000Y36994400D03*
X34500000D03*
X39500000Y499200D03*
Y2999200D03*
Y5499200D03*
X38580200Y3750000D03*
X39500000Y7999200D03*
X38581400Y12339800D03*
X39500000Y10499200D03*
X38737600Y14837600D03*
X39500000Y12999200D03*
Y15499200D03*
X39362400Y18119200D03*
X39500000Y21994400D03*
Y24494400D03*
Y26994400D03*
Y29494400D03*
Y34494400D03*
Y31994400D03*
X38000000Y37956600D03*
X39500000Y36994400D03*
Y39494400D03*
G54D11*
G01X22649000Y17963000D02*
X21886000Y17200000D01*
X13600000D01*
X13000000Y16600000D01*
Y12400000D01*
X12000000Y11400000D01*
X2814200D01*
X1999100Y12215100D01*
G01X20099900Y19600100D02*
Y19990700D01*
X20100000Y19990800D01*
Y20900000D01*
X19700000Y21300000D01*
X10800000D01*
X10200000Y21900000D01*
Y24400000D01*
X9600000Y25000000D01*
X8600000D01*
X8200000Y25400000D01*
Y29500000D01*
X7397200Y30302800D01*
X6404200D01*
G01X31174200Y715200D02*
X30389400Y1500000D01*
X13400000D01*
X12700000Y2200000D01*
Y6611800D01*
X13589400Y7501200D01*
G54D12*
G01X0Y-1400000D02*
X-2400000D01*
G01X-1200000Y-2600000D02*
Y-200000D01*
G01X-500000Y-1400000D02*
G03I-700000J0D01*
G01X-200000Y-1300000D02*
G03I-1000000J-100000D01*
G01X-1700000Y41300000D02*
G03I-1000000J-100000D01*
G01X-2000000Y41200000D02*
G03I-700000J0D01*
G01X-2700000Y40000000D02*
Y42400000D01*
G01X-1500000Y41200000D02*
X-3900000D01*
G01X39999900Y39999900D02*
X0D01*
Y0D01*
X39999900D01*
Y39999900D01*
G01X42300000Y-1300000D02*
X39900000D01*
G01X42100000Y-1200000D02*
G03I-1000000J-100000D01*
G01X41100000Y-2500000D02*
Y-100000D01*
G01X41800000Y-1300000D02*
G03I-700000J0D01*
G01X41700000Y40100000D02*
Y42500000D01*
G01X42400000Y41300000D02*
G03I-700000J0D01*
G01X42700000Y41400000D02*
G03I-1000000J-100000D01*
G01X42900000Y41300000D02*
X40500000D01*
M02*
