G04 ================== begin FILE IDENTIFICATION RECORD ==================*
G04 Layout Name:  LED Panel G4 V1, 03-26-2017.brd*
G04 Film Name:    LAYER_1*
G04 File Format:  Gerber RS274X*
G04 File Origin:  Cadence Allegro 17.2-P019*
G04 Origin Date:  Tue Aug 25 16:25:07 2020*
G04 *
G04 Layer:  VIA CLASS/LAYER 1*
G04 Layer:  PIN/LAYER 1*
G04 Layer:  ETCH/LAYER 1*
G04 Layer:  BOARD GEOMETRY/OUTLINE*
G04 *
G04 Offset:    (0.0000 0.0000)*
G04 Mirror:    No*
G04 Mode:      Positive*
G04 Rotation:  0*
G04 FullContactRelief:  No*
G04 UndefLineWidth:     0.1000*
G04 ================== end FILE IDENTIFICATION RECORD ====================*
%FSLAX33Y33*MOMM*%
%IR0*IPPOS*OFA0.00000B0.00000*MIA0B0*SFA1.00000B1.00000*%
%ADD10C,.4*%
%ADD11C,.127*%
%ADD12C,.1*%
%ADD13C,.6544*%
G75*
%LPD*%
G75*
G36*
G01X20484Y11804D02*
X20188Y12100D01*
Y12387D01*
G03X19938Y12967I-204J256D01*
G02X19823Y13052I-15J101D01*
G03X19179Y13061I-323J-52D01*
G02X19074Y12979I-100J19D01*
G03X18853Y12396I-17J-327D01*
G01Y11759D01*
X19235Y11377D01*
G02X19163Y11204I-72J-72D01*
G01X19075D01*
X18204Y12075D01*
X16501D01*
G03X16469Y12110I-256J-204D01*
G02Y12258I70J74D01*
G03X16021I-224J238D01*
G02Y12110I-70J-74D01*
G03X16501Y11668I224J-238D01*
G01X18035D01*
X18584Y11119D01*
G02X18512Y10945I-72J-72D01*
G01X18311D01*
X17558Y10192D01*
X17376D01*
G02X17287Y10342I0J102D01*
G03X16713I-287J157D01*
G02X16624Y10192I-89J-49D01*
G01X14876D01*
G02X14787Y10342I0J102D01*
G03X14213I-287J157D01*
G02X14124Y10192I-89J-49D01*
G01X12376D01*
G02X12287Y10342I0J102D01*
G03X11713I-287J157D01*
G02X11624Y10192I-89J-49D01*
G01X9876D01*
G02X9787Y10342I0J102D01*
G03X9244Y10703I-287J157D01*
G01X8363D01*
X8104Y10962D01*
Y13763D01*
G02X8277Y13835I102J0D01*
G01X8616Y13496D01*
X10818D01*
G02X10908Y13349I0J-102D01*
G03X10996Y12944I292J-149D01*
G01Y12516D01*
X11316Y12196D01*
X14535D01*
X15092Y12754D01*
Y13404D01*
X15884Y14196D01*
X17584D01*
X18104Y14716D01*
Y15876D01*
X18311Y16083D01*
G02X18467Y16068I72J-72D01*
G03X18995Y16046I272J182D01*
G01X20366D01*
X21247Y15165D01*
Y13233D01*
G02X21131Y13133I-102J0D01*
G03Y12484I-44J-324D01*
G02X21247Y12384I14J-101D01*
G01Y11963D01*
G02X21163Y11804I-84J-57D01*
G01X20484D01*
G37*
G36*
G01X8433Y100D02*
G02X8362Y273I0J102D01*
G01X8704Y616D01*
Y8103D01*
X9097Y8496D01*
X21905D01*
X22696Y9288D01*
Y9584D01*
G03X22177Y9927I-204J256D01*
G02X22066Y9853I-98J27D01*
G03X22001Y9855I-42J-324D01*
G02X21959Y9938I-4J51D01*
G03X21670Y10478I-247J214D01*
G02X21559Y10552I-13J101D01*
G03X21520Y10640I-316J-86D01*
G02X21606Y10796I86J54D01*
G01X24118D01*
G02X24209Y10648I0J-102D01*
G03X24814Y10406I291J-149D01*
G01X24817Y10418D01*
X24862Y10463D01*
X24944Y10381D01*
Y6083D01*
X26072Y4956D01*
G02X26057Y4800I-72J-72D01*
G03X26257Y4203I185J-270D01*
G01X26279Y4204D01*
X26938Y3545D01*
X29594D01*
X29787Y3352D01*
Y3295D01*
G02X29704Y3255I-51J0D01*
G03X29277Y2760I-204J-256D01*
G01X29314Y2725D01*
X29265Y2672D01*
X27364D01*
G02X27278Y2827I0J102D01*
G03X26773Y3235I-278J173D01*
G02X26602Y3309I-70J73D01*
G01Y3365D01*
X26170Y3796D01*
X24452D01*
X24198Y4050D01*
Y5120D01*
G02X24347Y5210I102J0D01*
G03Y5788I153J289D01*
G02X24198Y5878I-47J90D01*
G01Y6873D01*
X24171Y6900D01*
Y6922D01*
X23924Y7169D01*
Y7494D01*
G03X23400Y7682I-204J256D01*
G02X23271Y7563I-99J-21D01*
G03X23192Y6923I-94J-313D01*
G01X23214Y6924D01*
X23496Y6642D01*
Y5482D01*
G02X23329Y5404I-102J0D01*
G03X22894Y4916I-211J-250D01*
G02Y4768I-70J-74D01*
G03X23329Y4280I224J-238D01*
G02X23496Y4203I66J-78D01*
G01Y3537D01*
G02X23323Y3465I-102J0D01*
G01X23184Y3604D01*
X14874D01*
X14252Y2981D01*
X14230Y2982D01*
G03X14090Y2958I-15J-327D01*
G02X13949Y3052I-39J94D01*
G01Y6620D01*
G03X13896Y7167I-204J256D01*
G02X13859Y7315I47J90D01*
G03X13439Y7210I-269J186D01*
G02X13476Y7062I-47J-90D01*
G03X13542Y6620I269J-186D01*
G01Y1790D01*
X14236Y1096D01*
X23412D01*
X23418Y1053D01*
G03X24066Y1146I324J46D01*
G02X24166Y1263I101J15D01*
G01X24269D01*
X24534Y998D01*
G02X24471Y825I-72J-72D01*
G03X24264Y272I29J-326D01*
G02X24191Y100I-73J-71D01*
G01X22309D01*
G02X22236Y272I0J102D01*
G03X21764I-236J227D01*
G02X21691Y100I-73J-71D01*
G01X20798D01*
G02X20718Y265I0J102D01*
G03X20206I-256J204D01*
G02X20127Y100I-79J-63D01*
G01X14809D01*
G02X14736Y272I0J102D01*
G03X14264I-236J227D01*
G02X14191Y100I-73J-71D01*
G01X12309D01*
G02X12236Y272I0J102D01*
G03X11764I-236J227D01*
G02X11691Y100I-73J-71D01*
G01X9809D01*
G02X9736Y272I0J102D01*
G03X9264I-236J227D01*
G02X9191Y100I-73J-71D01*
G01X8433D01*
G37*
G36*
G01X2421Y314D02*
G02X2321Y436I0J102D01*
G03X1780Y741I-321J64D01*
G02X1610Y816I-68J75D01*
G01Y2682D01*
G02X1780Y2757I102J0D01*
G03X2204Y3255I220J242D01*
G01Y3816D01*
X3304Y4916D01*
Y11618D01*
G02X3451Y11708I102J0D01*
G03Y12292I149J291D01*
G02X3304Y12382I-46J91D01*
G01Y13698D01*
X2200Y14801D01*
X2201Y14824D01*
G03X2122Y15053I-327J15D01*
G02X2152Y15209I77J66D01*
G03X2204Y15755I-152J290D01*
G01Y16616D01*
X2385Y16797D01*
X4244D01*
G03X4647Y16709I256J204D01*
G02X4795Y16618I46J-91D01*
G01Y13382D01*
G02X4647Y13291I-102J0D01*
G03Y12707I-147J-292D01*
G02X4795Y12616I46J-91D01*
G01Y10882D01*
G02X4647Y10791I-102J0D01*
G03Y10207I-147J-292D01*
G02X4795Y10116I46J-91D01*
G01Y8382D01*
G02X4647Y8291I-102J0D01*
G03Y7707I-147J-292D01*
G02X4795Y7616I46J-91D01*
G01Y7390D01*
X5516Y6669D01*
X7270D01*
X7858Y7257D01*
Y8231D01*
X7184Y8904D01*
X6284D01*
X5904Y9284D01*
Y15110D01*
G02X6063Y15194I102J0D01*
G03X6283Y15138I185J270D01*
G02X6394Y15020I11J-101D01*
G03X6394Y14908I322J-56D01*
G02X6304Y14789I-100J-17D01*
G03X6659Y14520I32J-326D01*
G02X6749Y14638I100J17D01*
G03X6965Y15176I-32J326D01*
G01X6953Y15191D01*
Y15260D01*
X7052D01*
X7162Y15150D01*
Y13424D01*
G02X7046Y13323I-102J0D01*
G03Y12675I-46J-324D01*
G02X7162Y12575I14J-101D01*
G01Y10924D01*
G02X7046Y10823I-102J0D01*
G03X7149Y10208I-46J-324D01*
G02X7296Y10117I46J-91D01*
G01Y8998D01*
X7979Y8316D01*
Y967D01*
X7715Y703D01*
X7256D01*
G03X6679Y436I-256J-204D01*
G02X6579Y314I-100J-20D01*
G01X4921D01*
G02X4821Y436I0J102D01*
G03X4179I-321J63D01*
G02X4079Y314I-100J-20D01*
G01X2421D01*
G37*
G36*
G01X2703Y5136D02*
Y6020D01*
X2271Y6452D01*
X1136D01*
X804Y6784D01*
Y10021D01*
G02X950Y10113I102J0D01*
G03Y10701I143J294D01*
G02X804Y10792I-45J91D01*
G01Y18178D01*
X1050Y18424D01*
X1072Y18423D01*
G03X848Y18973I15J327D01*
G02X672Y19042I-74J69D01*
G01Y20065D01*
X1142Y20535D01*
X3388D01*
X3423Y20500D01*
X3422Y20478D01*
G03X3431Y20383I327J-15D01*
G02X3333Y20256I-99J-25D01*
G01X3309D01*
X3296Y20243D01*
X3263Y20258D01*
G03X3195Y19643I-139J-296D01*
G02X3316Y19524I22J-99D01*
G03X3502Y19164I321J-62D01*
G02X3527Y18996I-42J-92D01*
G03X3999Y18546I216J-246D01*
G01X4596D01*
X4795Y18347D01*
Y18237D01*
X4725D01*
X4711Y18249D01*
G03X4647Y17707I-211J-250D01*
G02X4795Y17616I46J-91D01*
G01Y17384D01*
G02X4647Y17293I-102J0D01*
G03X4244Y17204I-147J-292D01*
G01X2216D01*
X1796Y16784D01*
Y15755D01*
G03X1752Y15285I204J-256D01*
G02X1723Y15129I-77J-66D01*
G03X1890Y14512I152J-290D01*
G01X1912Y14513D01*
X2896Y13529D01*
Y5084D01*
X2876Y5064D01*
G02X2703Y5136I-72J72D01*
G37*
G36*
G01X8386Y8451D02*
Y8484D01*
X7704Y9167D01*
Y10163D01*
G02X7877Y10235I102J0D01*
G01X8084Y10028D01*
X8105D01*
X8137Y9996D01*
X8916D01*
X9127Y9785D01*
X14112D01*
G02X14204Y9640I0J-102D01*
G03X14796I296J-139D01*
G02X14888Y9785I92J43D01*
G01X16612D01*
G02X16704Y9640I0J-102D01*
G03X17256Y9297I296J-139D01*
G01X19348D01*
X19375Y9324D01*
X19424D01*
X19439Y9308D01*
G03X19988Y9414I242J220D01*
G02X20111Y9476I95J-36D01*
G03X20527Y9807I89J315D01*
G02X20645Y9912I101J5D01*
G03X20756Y9912I55J323D01*
G02X20874Y9802I17J-100D01*
G03X21526Y9741I326J-32D01*
G02X21647Y9832I101J-9D01*
G03X21661Y9830I65J321D01*
G02X21735Y9682I-16J-100D01*
G03X21878Y9235I289J-153D01*
G02X21905Y9072I-45J-91D01*
G01X21736Y8904D01*
X8928D01*
X8449Y8425D01*
X8386Y8451D01*
G37*
G36*
G01X6085Y8203D02*
X5604Y8684D01*
Y8763D01*
G02X5777Y8835I102J0D01*
G01X6116Y8496D01*
X7016D01*
X7141Y8371D01*
X7086Y8316D01*
X7060Y8321D01*
G03X6744Y8203I-60J-322D01*
G01X6085D01*
G37*
G36*
G01X5684Y7076D02*
X5202Y7559D01*
Y8264D01*
G02X5376Y8336I102J0D01*
G01X5916Y7796D01*
X6744D01*
G03X7322Y8059I256J204D01*
G01X7317Y8086D01*
X7372Y8140D01*
X7450Y8062D01*
Y7426D01*
X7101Y7076D01*
X5684D01*
G37*
G36*
G01X14404Y1504D02*
X13949Y1959D01*
Y2259D01*
G02X14090Y2353I102J0D01*
G03X14541Y2671I125J303D01*
G01X14540Y2693D01*
X15043Y3196D01*
X16582D01*
G02X16681Y3072I0J-102D01*
G03X17319I319J-73D01*
G02X17418Y3196I99J23D01*
G01X19869D01*
G02X19948Y3030I0J-102D01*
G03X19878Y2881I252J-208D01*
G02X19760Y2800I-100J18D01*
G03X19496Y2222I-60J-322D01*
G01Y1927D01*
X19747Y1677D01*
G02X19675Y1504I-72J-72D01*
G01X14404D01*
G37*
G36*
G01X100Y100D02*
Y5771D01*
G02X273Y5843I102J0D01*
G01X821Y5296D01*
X1744D01*
G03X2148Y5207I256J204D01*
G02X2296Y5117I46J-91D01*
G01Y5083D01*
X1202Y3989D01*
Y460D01*
X1388Y273D01*
G02X1316Y100I-72J-72D01*
G01X100D01*
G37*
G36*
G01X710Y6302D02*
X968Y6044D01*
X2102D01*
X2296Y5851D01*
Y5787D01*
G02X2212Y5749I-51J0D01*
G03X1744Y5703I-212J-249D01*
G01X989D01*
X537Y6156D01*
Y6230D01*
G02X710Y6302I102J0D01*
G37*
G36*
G01X10960Y22228D02*
X10350Y22839D01*
X9898D01*
G02X9804Y22978I0J102D01*
G03X9792Y23249I-304J122D01*
G02X9882Y23396I91J46D01*
G01X11372D01*
X12367Y22401D01*
G02X12295Y22228I-72J-72D01*
G01X10960D01*
G37*
G36*
G01X11484Y12604D02*
X11404Y12684D01*
Y12944D01*
G03X11325Y13502I-204J256D01*
G02X11292Y13668I39J94D01*
G01X11420Y13796D01*
X13504D01*
X14215Y14508D01*
X14739D01*
G03X15206Y14962I256J204D01*
G02X15200Y15112I65J78D01*
G01X15762Y15674D01*
X16579D01*
G02X16679Y15553I0J-102D01*
G03X17321I321J-64D01*
G02X17421Y15674I100J20D01*
G01X17484D01*
X17523Y15713D01*
X17558D01*
X17610Y15765D01*
G02X17696Y15729I36J-36D01*
G01Y14884D01*
X17416Y14604D01*
X15716D01*
X14685Y13573D01*
Y13420D01*
G02X14564Y13320I-102J0D01*
G03X14262Y12775I-64J-321D01*
G02X14188Y12604I-74J-70D01*
G01X12312D01*
G02X12238Y12775I0J102D01*
G03X11762I-238J224D01*
G02X11688Y12604I-74J-70D01*
G01X11484D01*
G37*
G36*
G01X8504Y15272D02*
Y18224D01*
X8704Y18424D01*
X8726Y18423D01*
G03X8414Y18735I15J327D01*
G01X8415Y18712D01*
X8277Y18574D01*
G02X8104Y18646I-72J72D01*
G01Y20516D01*
X8358Y20769D01*
X9038D01*
X9127Y20680D01*
G03X9123Y20250I245J-217D01*
G02X9085Y20166I-39J-33D01*
G01X9003D01*
G03X8989Y19742I-256J-204D01*
G01X9004Y19758D01*
X9088D01*
Y19700D01*
X9086Y19693D01*
G03X9715Y19690I314J-93D01*
G01X9706Y19718D01*
X10679Y20690D01*
X11579D01*
G02X11679Y20569I0J-102D01*
G03X11689Y20404I321J-64D01*
G02X11621Y20276I-97J-31D01*
G03X11495Y19720I94J-313D01*
G01X11511Y19705D01*
Y19656D01*
X11360Y19504D01*
Y18625D01*
G02X11244Y18524I-102J0D01*
G03Y17876I-44J-324D01*
G02X11360Y17775I14J-101D01*
G01Y17752D01*
X11753Y17359D01*
G02X11756Y17219I-72J-72D01*
G03X12324Y16957I243J-219D01*
G02X12497Y17015I101J-14D01*
G01X12690Y16822D01*
X13460D01*
G02X13527Y16645I0J-102D01*
G03X13425Y16337I218J-244D01*
G02X13325Y16216I-100J-20D01*
G01X11251D01*
X10704Y16763D01*
Y19078D01*
G03X10296I-204J256D01*
G01Y17736D01*
G02X10123Y17664I-102J0D01*
G01X9826Y17962D01*
X9827Y17984D01*
G03X9515Y17672I-327J15D01*
G01X9538Y17673D01*
X9793Y17418D01*
Y17384D01*
G02X9646Y17294I-102J0D01*
G03Y16708I-146J-293D01*
G02X9793Y16617I45J-91D01*
G01Y16329D01*
X9254Y15790D01*
X9231Y15791D01*
G03X8895Y15399I-15J-327D01*
G02X8821Y15280I-100J-20D01*
G03X8676Y15199I82J-317D01*
G02X8504Y15272I-71J73D01*
G37*
G36*
G01X5777Y16374D02*
G02X5604Y16446I-72J72D01*
G01Y19600D01*
G02X5760Y19686I102J0D01*
G03X5920Y19635I176J276D01*
G02X6015Y19517I-5J-101D01*
G03X6096Y19242I323J-55D01*
G02X6036Y19073I-75J-68D01*
G03X6328Y18970I50J-323D01*
G02X6388Y19139I75J68D01*
G03X6629Y19611I-50J323D01*
G02X6720Y19758I91J46D01*
G01X6747D01*
X7523Y20535D01*
G02X7696Y20463I72J-72D01*
G01Y16580D01*
G02X7523Y16508I-102J0D01*
G01X7246Y16785D01*
G03X6690Y16895I-246J216D01*
G02X6594Y16761I-96J-33D01*
G01X6164D01*
X5777Y16374D01*
G37*
G36*
G01X100Y18551D02*
Y39900D01*
X1698D01*
G02X1769Y39726I0J-102D01*
G03X2231I231J-232D01*
G02X2302Y39900I72J72D01*
G01X4198D01*
G02X4269Y39726I0J-102D01*
G03X4731I231J-232D01*
G02X4802Y39900I72J72D01*
G01X6698D01*
G02X6769Y39726I0J-102D01*
G03X7231I231J-232D01*
G02X7302Y39900I72J72D01*
G01X9198D01*
G02X9269Y39726I0J-102D01*
G03X9731I231J-232D01*
G02X9802Y39900I72J72D01*
G01X11698D01*
G02X11769Y39726I0J-102D01*
G03X12231I231J-232D01*
G02X12302Y39900I72J72D01*
G01X14198D01*
G02X14269Y39726I0J-102D01*
G03X14731I231J-232D01*
G02X14802Y39900I72J72D01*
G01X16698D01*
G02X16769Y39726I0J-102D01*
G03X17231I231J-232D01*
G02X17302Y39900I72J72D01*
G01X17552D01*
G02X17650Y39769I0J-102D01*
G03X17759Y39419I313J-94D01*
G01Y39122D01*
X18438Y38443D01*
X20538D01*
G02X20574Y38356I0J-51D01*
G01X20500Y38282D01*
X20478Y38283D01*
G03X20138Y37915I-15J-327D01*
G02X20064Y37804I-101J-13D01*
G03X19831Y37562I86J-316D01*
G02X19724Y37483I-99J23D01*
G03X19435Y36965I-24J-326D01*
G02X19353Y36804I-82J-60D01*
G01X17419D01*
G02X17320Y36926I0J102D01*
G03X16680I-320J68D01*
G02X16581Y36804I-99J-21D01*
G01X14919D01*
G02X14820Y36926I0J102D01*
G03X14420Y36677I-320J68D01*
G02X14467Y36507I-25J-98D01*
G01X13783Y35823D01*
X13761Y35824D01*
G03X13584Y35213I-15J-327D01*
G02X13621Y35071I-50J-88D01*
G03X14227Y34880I279J-171D01*
G02X14338Y34976I101J-6D01*
G03X14471Y34990I32J326D01*
G02X14604Y34893I31J-97D01*
G01Y30747D01*
G03X14552Y30695I204J-256D01*
G02X14411Y30677I-79J63D01*
G03X14470Y30212I-197J-261D01*
G02X14610Y30229I79J-63D01*
G03X15011Y30747I197J261D01*
G01Y35923D01*
X15184Y36096D01*
X24316D01*
X24788Y35624D01*
Y35401D01*
G03X25196I204J-256D01*
G01Y35512D01*
G02X25282Y35548I51J0D01*
G01X26309Y34521D01*
X26849D01*
X26854Y34477D01*
G03X26864Y34432I324J43D01*
G02X26766Y34304I-98J-27D01*
G01X24247D01*
X24102Y34448D01*
Y35026D01*
X24104Y35027D01*
Y35244D01*
G03X23680Y35258I-204J256D01*
G01X23696Y35243D01*
Y35196D01*
X23695Y35194D01*
Y34280D01*
X24078Y33896D01*
X28616D01*
X29201Y33311D01*
X31638D01*
G02X31724Y33155I0J-102D01*
G03X31780Y32737I276J-176D01*
G01X31796Y32722D01*
Y32604D01*
X31716D01*
X31116Y32004D01*
X30784D01*
X30202Y32587D01*
X27504D01*
X27326Y32764D01*
X27327Y32787D01*
G03X27015Y32475I-327J15D01*
G01X27038Y32476D01*
X27150Y32364D01*
X27094Y32309D01*
X27067Y32315D01*
G03X27321Y32058I-67J-320D01*
G02X27421Y32179I100J20D01*
G01X29079D01*
G02X29179Y32058I0J-102D01*
G03X29821I321J-63D01*
G02X29921Y32179I100J20D01*
G01X30033D01*
X30616Y31596D01*
X31068D01*
G02X31140Y31423I0J-102D01*
G01X31121Y31404D01*
X24911D01*
X24704Y31611D01*
Y31738D01*
G03X24713Y32243I-204J256D01*
G02Y32397I66J77D01*
G03X24287I-213J248D01*
G02Y32243I-66J-77D01*
G03X24296Y31738I213J-249D01*
G01Y31443D01*
X24743Y30996D01*
X30885D01*
G02X30957Y30823I0J-102D01*
G01X30381Y30247D01*
Y30034D01*
X30381Y29934D01*
X30300D01*
X30286Y29960D01*
G03X29961Y30125I-286J-160D01*
G02X29848Y30216I-12J101D01*
G03X29506Y30512I-326J-31D01*
G01X29484Y30511D01*
X29176Y30819D01*
X24295D01*
X23946Y31168D01*
Y32858D01*
G03X23431Y33215I-204J256D01*
G02X23314Y33146I-97J31D01*
G03X22994Y33029I-64J-321D01*
G01X22775D01*
X22750Y33004D01*
X22716D01*
X22396Y32684D01*
Y31284D01*
X22316Y31204D01*
X19116D01*
X18625Y30714D01*
G02X18488Y30708I-72J72D01*
G03X18400Y30156I-212J-249D01*
G02X18540Y30062I39J-94D01*
G01Y28684D01*
G03X18434Y28532I204J-256D01*
G02X18265Y28492I-96J32D01*
G01X17663Y29095D01*
G02X17678Y29251I72J72D01*
G03X17209Y29362I-183J271D01*
G02X17120Y29212I-89J-49D01*
G01X12389D01*
G02X12296Y29356I0J102D01*
G03X11704I-296J138D01*
G02X11611Y29212I-92J-43D01*
G01X11276D01*
X11038Y29450D01*
Y32543D01*
G02X11165Y32641I102J0D01*
G03X11540Y32813I82J317D01*
G02X11718Y32819I91J-45D01*
G03X11985Y33312I282J166D01*
G01X11962Y33311D01*
X11808Y33466D01*
X11466D01*
X11284Y33284D01*
X11262Y33285D01*
G03X11165Y33275I-15J-327D01*
G02X11038Y33373I-25J98D01*
G01Y33606D01*
X11032Y33611D01*
Y34174D01*
X11174Y34316D01*
X12705D01*
X13081Y34693D01*
Y36307D01*
X12584Y36804D01*
X12419D01*
G02X12320Y36926I0J102D01*
G03X11680I-320J68D01*
G02X11581Y36804I-99J-21D01*
G01X9919D01*
G02X9820Y36926I0J102D01*
G03X9208Y36846I-320J68D01*
G01X9225Y36813D01*
X8843Y36431D01*
Y35370D01*
G03X8748Y34980I204J-256D01*
G02X8655Y34838I-93J-41D01*
G01X7468D01*
X6489Y35817D01*
X4008D01*
X3630Y35439D01*
X3608Y35440D01*
G03X3270Y35058I-15J-327D01*
G02X3180Y34939I-100J-17D01*
G03X3536Y34670I33J-326D01*
G02X3626Y34788I100J17D01*
G03X3919Y35129I-33J325D01*
G01X3918Y35151D01*
X4177Y35410D01*
X5697D01*
G02X5787Y35262I0J-102D01*
G03X5875Y34858I292J-149D01*
G01Y34515D01*
X6169Y34220D01*
G02X6135Y34054I-72J-72D01*
G03X6556Y33880I121J-304D01*
G02X6649Y34021I93J40D01*
G01X8362D01*
G02X8455Y33880I0J-102D01*
G03X9040Y33589I300J-130D01*
G02X9201Y33611I89J-50D01*
G01X9793Y33019D01*
Y29878D01*
G02X9646Y29787I-102J0D01*
G03X9406Y29808I-146J-293D01*
G02X9287Y29856I-29J97D01*
G03X9241Y29922I-287J-156D01*
G02X9255Y30072I75J69D01*
G03X8804Y30538I-195J262D01*
G01X8550D01*
X8096Y30084D01*
Y27016D01*
X8506Y26606D01*
G02X8510Y26467I-72J-72D01*
G03X9031Y26426I245J-217D01*
G02X9117Y26583I86J55D01*
G01X10826D01*
G02X10925Y26461I0J-102D01*
G03X11571Y26356I321J-64D01*
G02X11743Y26414I101J-13D01*
G01X11748Y26410D01*
X13329D01*
G02X13430Y26294I0J-102D01*
G03X14078I324J-44D01*
G02X14179Y26410I101J14D01*
G01X18902D01*
X19396Y25916D01*
Y25301D01*
X19824Y24874D01*
X19823Y24851D01*
G03X20374Y25074I327J-15D01*
G02Y25222I70J74D01*
G03X19963Y25729I-224J238D01*
G02X19804Y25813I-58J83D01*
G01Y26084D01*
X19101Y26787D01*
G02X19106Y26934I72J72D01*
G03X18866Y27505I-218J244D01*
G02X18757Y27616I-7J101D01*
G03X18635Y27904I-326J31D01*
G01Y28000D01*
G02X18739Y28101I102J0D01*
G03X18948Y28684I5J327D01*
G01Y30460D01*
X19284Y30796D01*
X20573D01*
G02X20658Y30639I0J-102D01*
G03X20707Y30221I273J-180D01*
G02Y30073I-70J-74D01*
G03X20675Y30038I224J-239D01*
G01X19909D01*
X19321Y29450D01*
Y28216D01*
G03X19763Y27736I204J-256D01*
G02X19911I74J-70D01*
G03Y28184I238J224D01*
G02X19763I-74J70D01*
G03X19729Y28216I-239J-224D01*
G01Y29281D01*
X20078Y29630D01*
X20675D01*
G03X21025Y29521I256J204D01*
G02X21156Y29424I29J-97D01*
G01Y27660D01*
G02X20988Y27583I-102J0D01*
G03Y27087I-213J-248D01*
G02X21156Y27010I66J-77D01*
G01Y25544D01*
X20596Y24984D01*
Y24386D01*
X20314Y24104D01*
X19116D01*
X18496Y23484D01*
Y20918D01*
G03X18390Y20767I204J-256D01*
G02X18272Y20701I-96J33D01*
G03X17890Y20486I-72J-319D01*
G02X17772Y20419I-96J32D01*
G03X18010Y19995I-72J-319D01*
G02X18128Y20062I96J-32D01*
G03X18215Y20055I71J319D01*
G01X18238Y20056D01*
X18381Y19913D01*
Y19511D01*
X18373Y19504D01*
X16554D01*
X15973Y20085D01*
G02X16045Y20258I72J72D01*
G01X16614D01*
G03Y20666I256J204D01*
G01X15922D01*
X13592Y22996D01*
Y23896D01*
X12292Y25196D01*
X3592D01*
X3011Y25777D01*
Y29855D01*
X3286Y30130D01*
X3336D01*
X3351Y30114D01*
G03X3336Y30538I242J220D01*
G01X3118D01*
X2604Y30024D01*
Y25608D01*
X3424Y24788D01*
X10694D01*
G02X10788Y24648I0J-102D01*
G03X11393I303J-125D01*
G02X11487Y24788I94J39D01*
G01X12124D01*
X12228Y24684D01*
X12167Y24623D01*
X12135Y24638D01*
G03X12327Y24340I-135J-298D01*
G02X12501Y24411I102J0D01*
G01X13185Y23727D01*
Y23421D01*
G02X13064Y23321I-102J0D01*
G03X13204Y22744I-64J-321D01*
G01X13240Y22772D01*
X13565Y22447D01*
G02X13542Y22286I-72J-72D01*
G03X13402Y22136I158J-286D01*
G02X13238Y22106I-92J42D01*
G01X11541Y23804D01*
X8993D01*
G02X8898Y23941I0J102D01*
G03X8284I-307J114D01*
G02X8189Y23804I-95J-35D01*
G01X2884D01*
X2404Y24284D01*
Y27562D01*
X2234Y27732D01*
X2235Y27754D01*
G03X1924Y27443I-327J15D01*
G01X1946Y27444D01*
X1996Y27394D01*
Y25577D01*
G02X1835Y25495I-102J0D01*
G03Y24965I-192J-265D01*
G02X1996Y24882I59J-82D01*
G01Y24116D01*
X2716Y23396D01*
X4183D01*
G02X4258Y23226I0J-102D01*
G03X4184Y22920I242J-221D01*
G02X4086Y22792I-98J-27D01*
G01X3994D01*
X3899Y22696D01*
X3850D01*
X3834Y22713D01*
G03X3849Y22289I-242J-220D01*
G01X4068D01*
X4163Y22385D01*
X4385D01*
Y22302D01*
X4356Y22288D01*
G03X4742Y22215I144J-294D01*
G02X4817Y22385I75J68D01*
G01X6683D01*
G02X6758Y22215I0J-102D01*
G03X6689Y21892I242J-220D01*
G02X6592Y21759I-97J-32D01*
G01X5383D01*
X4205Y20581D01*
G02X4042Y20608I-72J72D01*
G03X3734Y20789I-293J-146D01*
G01X3711Y20788D01*
X3557Y20942D01*
X1462D01*
G02X1373Y21093I0J102D01*
G03X875Y21000I-287J157D01*
G02X882Y20851I-66J-78D01*
G01X265Y20234D01*
Y18593D01*
X187Y18515D01*
G02X100Y18551I-36J36D01*
G37*
G36*
G01X7673Y22315D02*
X7225Y22763D01*
X7254Y22799D01*
G03X7242Y23226I-254J207D01*
G02X7317Y23396I75J68D01*
G01X9118D01*
G02X9208Y23249I0J-102D01*
G03X9196Y22978I292J-149D01*
G02X9102Y22839I-94J-38D01*
G01X9065D01*
X8541Y22315D01*
X7673D01*
G37*
G36*
G01X10358Y33776D02*
G02X10184Y33704I-102J0D01*
G01X9759Y34129D01*
G02X9803Y34299I72J72D01*
G03X9399Y34703I-89J315D01*
G02X9229Y34659I-98J28D01*
G01X9207Y34681D01*
G02X9224Y34838I72J72D01*
G03X9250Y35370I-177J275D01*
G01Y36262D01*
X9384Y36396D01*
X12416D01*
X12673Y36139D01*
Y34862D01*
X12536Y34724D01*
X12332D01*
G02X12256Y34894I0J102D01*
G03X11758Y35317I-242J220D01*
G01X10901D01*
X10358Y34774D01*
Y33776D01*
G37*
G36*
G01X8698Y26990D02*
X8504Y27184D01*
Y29916D01*
X8719Y30130D01*
X8803D01*
X8818Y30114D01*
G03X8819Y30113I252J209D01*
G02X8805Y29962I-75J-69D01*
G03X9094Y29387I195J-263D01*
G02X9213Y29338I29J-97D01*
G03X9646Y29202I287J156D01*
G02X9793Y29111I45J-91D01*
G01Y27819D01*
X10252Y27360D01*
X11661D01*
G02X11742Y27196I0J-102D01*
G03X11675Y27035I258J-201D01*
G01X11670Y26990D01*
X8698D01*
G37*
G36*
G01X13847Y26985D02*
G03X13924Y27244I-247J215D01*
G02X14025Y27360I101J14D01*
G01X16199D01*
X16547Y27011D01*
X17459D01*
X17613Y27165D01*
X17635Y27164D01*
G03X17864Y27244I15J327D01*
G02X18003Y27239I66J-77D01*
G01X18266Y26975D01*
X18632D01*
G03X18702Y26910I256J204D01*
G01X18673Y26817D01*
X13924D01*
G02X13847Y26985I0J102D01*
G37*
G36*
G01X12422Y26817D02*
G02X12322Y26937I0J102D01*
G03X12258Y27196I-322J58D01*
G02X12339Y27360I80J62D01*
G01X13175D01*
G02X13276Y27244I0J-102D01*
G03X13353Y26985I324J-44D01*
G02X13276Y26817I-77J-67D01*
G01X12422D01*
G37*
G36*
G01X5868Y22792D02*
G02X5781Y22946I0J102D01*
G03X5797Y23252I-281J168D01*
G02X5889Y23396I92J43D01*
G01X6683D01*
G02X6758Y23226I0J-102D01*
G03X6684Y22920I242J-221D01*
G02X6586Y22792I-98J-27D01*
G01X5868D01*
G37*
G36*
G01X8921Y21677D02*
X9072Y21828D01*
G02X9228Y21812I72J-72D01*
G03X9823Y22046I272J182D01*
G02X9923Y22164I100J16D01*
G01X10048D01*
X10535Y21677D01*
G02X10463Y21504I-72J-72D01*
G01X9858D01*
X9300Y21504D01*
X8993D01*
G02X8921Y21677I0J102D01*
G37*
G36*
G01X14540Y18948D02*
X14113Y19375D01*
Y19453D01*
G02X14287Y19525I102J0D01*
G01X14334Y19478D01*
X14739D01*
G03Y19885I256J204D01*
G01X14503D01*
X14380Y20008D01*
Y20077D01*
G02X14486Y20179I102J0D01*
G03X14820Y20439I14J327D01*
G02X14992Y20490I99J-21D01*
G01X16385Y19096D01*
X18542D01*
X18788Y19343D01*
Y19794D01*
X18882D01*
X19308Y20220D01*
X19341Y20201D01*
G03X19810Y20593I159J286D01*
G02X19906Y20727I96J33D01*
G01X20112D01*
G02X20202Y20579I0J-102D01*
G03X20785I291J-149D01*
G02X20876Y20727I90J46D01*
G01X24751D01*
X24818Y20661D01*
X24764Y20607D01*
X24740Y20610D01*
G03X24381Y20213I-40J-325D01*
G02X24262Y20091I-99J-22D01*
G03X24139Y20091I-62J-321D01*
G02X24021Y20171I-19J100D01*
G03X23379I-321J-64D01*
G02X23261Y20091I-100J20D01*
G03X22950Y19981I-61J-322D01*
G02X22820Y19960I-78J66D01*
G03X22906Y19478I-171J-279D01*
G01X22921Y19498D01*
X22996D01*
Y19379D01*
X22565Y18948D01*
X14540D01*
G37*
G36*
G01X5196Y18767D02*
G02X5023Y18695I-102J0D01*
G01X4764Y18954D01*
X3999D01*
G03X3879Y19048I-256J-204D01*
G02X3854Y19216I42J92D01*
G03X3907Y19648I-216J246D01*
G01X3883Y19683D01*
X5552Y21352D01*
X7440D01*
X7684Y21596D01*
X7763D01*
G02X7835Y21423I0J-102D01*
G01X7008Y20596D01*
G02X6847Y20619I-72J72D01*
G03X6304Y20666I-287J-157D01*
G01X5478D01*
X5196Y20384D01*
Y18767D01*
G37*
G36*
G01X11900Y18311D02*
G02X11767Y18407I-31J97D01*
G01Y19336D01*
X11919Y19487D01*
Y19706D01*
G03X11954Y19738I-204J256D01*
G02X12129Y19669I74J-70D01*
G01Y19276D01*
X12130Y18427D01*
G02X12022Y18326I-102J0D01*
G03X11900Y18311I-22J-326D01*
G37*
G36*
G01X12804Y18384D02*
X12804Y19388D01*
Y20130D01*
X12834Y20160D01*
Y20732D01*
G02X13008Y20804I102J0D01*
G01X13706Y20106D01*
Y19994D01*
X13644D01*
X13634Y19998D01*
G03X13580Y19383I-134J-298D01*
G02X13706Y19284I25J-99D01*
G01Y19206D01*
X14372Y18540D01*
X22733D01*
X23323Y19130D01*
G02X23496Y19058I72J-72D01*
G01Y18005D01*
X23263Y17772D01*
X23068D01*
G02X22969Y17895I0J102D01*
G03X22366Y18127I-320J68D01*
G02X22206Y18106I-88J51D01*
G01X22140Y18172D01*
X22118D01*
X22085Y18205D01*
X22064D01*
X22031Y18238D01*
X22010D01*
X21977Y18271D01*
X21956D01*
X21923Y18304D01*
X17859D01*
X17500Y17945D01*
G02X17327Y18012I-72J72D01*
G03X16717Y18163I-327J-13D01*
G02X16557Y18142I-88J51D01*
G01X16295Y18404D01*
X15416D01*
X14997Y17985D01*
G02X14824Y18043I-72J72D01*
G03X14179Y17936I-324J-44D01*
G02X14079Y17814I-100J-20D01*
G01X13374D01*
X12804Y18384D01*
G37*
G36*
G01X7429Y15704D02*
G02X7256Y15632I-102J0D01*
G01X7221Y15668D01*
X6504D01*
G03X6063Y15734I-256J-204D01*
G02X5904Y15817I-57J84D01*
G01Y15925D01*
X6332Y16354D01*
X7101D01*
X7429Y16025D01*
Y15704D01*
G37*
G36*
G01X11643Y14574D02*
X11050Y15168D01*
X9598D01*
G02X9507Y15315I0J102D01*
G03X9543Y15479I-292J149D01*
G01X9542Y15502D01*
X10200Y16160D01*
Y16445D01*
G02X10374Y16517I102J0D01*
G01X11082Y15809D01*
X12651D01*
G02X12723Y15635I0J-102D01*
G01X12378Y15290D01*
X12355Y15291D01*
G03X12098Y14744I-15J-327D01*
G02X12022Y14574I-75J-68D01*
G01X11643D01*
G37*
G36*
G01X8784Y13904D02*
X8504Y14184D01*
Y14656D01*
G02X8676Y14729I102J0D01*
G03X8958Y14641I227J235D01*
G02X9076Y14555I17J-100D01*
G03X9724Y14645I324J45D01*
G02X9825Y14760I101J14D01*
G01X10881D01*
X11351Y14290D01*
G02X11315Y14204I-36J-36D01*
G01X11252D01*
X10952Y13904D01*
X8784D01*
G37*
G36*
G01X10421Y27767D02*
X10200Y27988D01*
Y28266D01*
G02X10374Y28338I102J0D01*
G01X10567Y28145D01*
X11763D01*
G02X11863Y28023I0J-102D01*
G03X11864Y27890I321J-63D01*
G02X11765Y27767I-99J-22D01*
G01X10421D01*
G37*
G36*
G01X16286Y27986D02*
G03X16230Y27816I271J-183D01*
G01X16228Y27767D01*
X14165D01*
G02X14065Y27890I0J102D01*
G03X14067Y28023I-320J70D01*
G02X14166Y28145I100J20D01*
G01X16202D01*
G02X16286Y27986I0J-102D01*
G37*
G36*
G01X30976Y100D02*
G02X30886Y249I0J102D01*
G03X30917Y337I-289J153D01*
G02X31054Y411I100J-21D01*
G03X31422Y928I120J304D01*
G02X31499Y1096I77J66D01*
G01X33084D01*
X34252Y2264D01*
X34576D01*
G03Y2672I256J204D01*
G01X34083D01*
X32916Y1504D01*
X31746D01*
G02X31675Y1677I0J102D01*
G01X32019Y2022D01*
G02X32191Y1969I72J-72D01*
G03X32584Y2351I321J63D01*
G02X32504Y2455I22J99D01*
G03X31850Y2452I-327J13D01*
G01X31851Y2430D01*
X31225Y1804D01*
X30141D01*
G02X30069Y1977I0J102D01*
G01X30194Y2102D01*
Y3521D01*
X30031Y3684D01*
G02X30103Y3857I72J72D01*
G01X34567D01*
X34567Y3858D01*
X34783D01*
X34812Y3854D01*
X34837Y3858D01*
X35154D01*
X35317Y3695D01*
Y1554D01*
X34904Y1141D01*
X33995D01*
G03Y734I-256J-204D01*
G01X34092D01*
G02X34189Y600I0J-102D01*
G03X34264Y272I311J-101D01*
G02X34191Y100I-73J-71D01*
G01X32309D01*
G02X32236Y272I0J102D01*
G03X31764I-236J227D01*
G02X31691Y100I-73J-71D01*
G01X30976D01*
G37*
G36*
G01X34736Y272D02*
G03X34811Y600I-236J227D01*
G02X34908Y734I97J31D01*
G01X35073D01*
X35724Y1385D01*
Y3864D01*
X35323Y4265D01*
X34832D01*
G02X34739Y4408I0J102D01*
G03X34470Y4866I-299J132D01*
G02X34378Y4974I9J101D01*
G03X34153Y5310I-326J24D01*
G02X34085Y5428I31J97D01*
G03X33664Y5189I-319J72D01*
G02X33732Y5070I-31J-97D01*
G03X34022Y4673I319J-71D01*
G02X34114Y4564I-9J-101D01*
G03X34141Y4408I326J-24D01*
G02X34048Y4265I-93J-41D01*
G01X30120D01*
G02X30052Y4442I0J102D01*
G03X30090Y4482I-218J244D01*
G01X30670D01*
X30982Y4794D01*
X31017Y4760D01*
G03X31137Y5311I223J240D01*
G02X31004Y5407I-32J96D01*
G01Y5567D01*
X31504Y6067D01*
Y17684D01*
X30985Y18203D01*
X29756D01*
G03X29428Y18318I-256J-204D01*
G02X29304Y18417I-22J99D01*
G01Y19038D01*
X29762Y19496D01*
X34925D01*
X35025Y19396D01*
X35244D01*
G03X35824Y19557I256J204D01*
G02X35997Y19615I101J-13D01*
G01X36196Y19416D01*
Y17873D01*
X36850Y17220D01*
X36849Y17197D01*
G03X37160Y17509I327J-15D01*
G01X37138Y17508D01*
X37108Y17538D01*
G02X37137Y17702I72J72D01*
G03X36775Y18237I-137J297D01*
G02X36604Y18311I-70J74D01*
G01Y19584D01*
X35884Y20304D01*
X34917D01*
G02X34818Y20429I0J102D01*
G03X34182I-318J77D01*
G02X34083Y20304I-99J-24D01*
G01X32417D01*
G02X32318Y20429I0J102D01*
G03X31682I-318J77D01*
G02X31583Y20304I-99J-24D01*
G01X29917D01*
G02X29818Y20429I0J102D01*
G03X29345Y20218I-318J76D01*
G02X29368Y20056I-48J-89D01*
G01X28806Y19494D01*
G02X28632Y19566I-72J72D01*
G01Y21196D01*
X29084D01*
X33084Y21196D01*
X33604Y21716D01*
Y24916D01*
X33714Y25026D01*
X34174D01*
G03Y25434I256J204D01*
G01X33545D01*
X33196Y25084D01*
Y21884D01*
X32916Y21604D01*
X28916D01*
X28915Y21603D01*
X27316D01*
G02X27241Y21773I0J102D01*
G03X27256Y21791I-241J221D01*
G01X29889D01*
X30915Y22817D01*
Y25890D01*
G02X31071Y25975I102J0D01*
G03X31407Y26536I177J275D01*
G02X31385Y26697I49J89D01*
G01X31872Y27184D01*
Y29066D01*
G02X31980Y29168I102J0D01*
G03X31695Y29612I20J327D01*
G01X31691Y29602D01*
X31647Y29559D01*
X31566Y29640D01*
X31567Y29663D01*
G03X31308Y29998I-327J15D01*
G02X31257Y30169I21J99D01*
G01X31584Y30496D01*
X32116D01*
G02X32204Y30345I0J-102D01*
G03X32775I285J-160D01*
G02X32864Y30496I89J50D01*
G01X35470D01*
X35974Y30999D01*
Y33817D01*
G02X36110Y33912I102J0D01*
G03Y34528I111J308D01*
G02X35974Y34624I-34J96D01*
G01Y35515D01*
X35834Y35654D01*
G02X35906Y35827I72J72D01*
G01X37584D01*
X37796Y35616D01*
Y30910D01*
X39174Y29532D01*
X39173Y29510D01*
G03X39728Y29259I327J-15D01*
G02X39900Y29186I71J-73D01*
G01Y27302D01*
G02X39728Y27229I-102J0D01*
G03Y26759I-228J-235D01*
G02X39900Y26686I71J-73D01*
G01Y24802D01*
G02X39728Y24729I-102J0D01*
G03Y24259I-228J-235D01*
G02X39900Y24186I71J-73D01*
G01Y22302D01*
G02X39728Y22229I-102J0D01*
G03Y21759I-228J-235D01*
G02X39900Y21686I71J-73D01*
G01Y15807D01*
G02X39728Y15734I-102J0D01*
G03Y15264I-228J-235D01*
G02X39900Y15191I71J-73D01*
G01Y13307D01*
G02X39728Y13234I-102J0D01*
G03Y12764I-228J-235D01*
G02X39900Y12691I71J-73D01*
G01Y10807D01*
G02X39728Y10734I-102J0D01*
G03Y10264I-228J-235D01*
G02X39900Y10191I71J-73D01*
G01Y8307D01*
G02X39728Y8234I-102J0D01*
G03Y7764I-228J-235D01*
G02X39900Y7691I71J-73D01*
G01Y5807D01*
G02X39728Y5734I-102J0D01*
G03Y5264I-228J-235D01*
G02X39900Y5191I71J-73D01*
G01Y3307D01*
G02X39728Y3234I-102J0D01*
G03Y2764I-228J-235D01*
G02X39900Y2691I71J-73D01*
G01Y807D01*
G02X39728Y734I-102J0D01*
G03X39264Y272I-228J-235D01*
G02X39191Y100I-73J-71D01*
G01X37309D01*
G02X37236Y272I0J102D01*
G03X36764I-236J227D01*
G02X36691Y100I-73J-71D01*
G01X34809D01*
G02X34736Y272I0J102D01*
G37*
G36*
G01X25336Y2283D02*
X24879Y2740D01*
G02X24804Y2878I20J100D01*
G03X24742Y3219I-304J122D01*
G02X24818Y3389I75J68D01*
G01X26001D01*
X26194Y3196D01*
Y2724D01*
G03X26077Y2404I204J-256D01*
G02X25977Y2283I-100J-20D01*
G01X25336D01*
G37*
G36*
G01X27339Y4265D02*
X27262Y4341D01*
X27305Y4384D01*
X27313Y4388D01*
G03X27435Y4482I-134J298D01*
G01X27732D01*
X28204Y4954D01*
Y15144D01*
G03X28324Y15444I-204J256D01*
G02X28425Y15560I101J14D01*
G01X28748D01*
X29304Y16116D01*
Y17581D01*
G02X29428Y17680I102J0D01*
G03X29756Y17796I72J319D01*
G01X30816D01*
X31096Y17516D01*
Y10537D01*
G02X30923Y10465I-102J0D01*
G01X30685Y10703D01*
X29756D01*
G03Y10296I-256J-204D01*
G01X30516D01*
X30696Y10116D01*
Y8311D01*
G02X30525Y8237I-102J0D01*
G03X30599Y7866I-225J-238D01*
G01X30612Y7897D01*
X30696D01*
Y7684D01*
X30638Y7626D01*
X30615Y7627D01*
G03X30927Y7315I-15J-327D01*
G01X30926Y7338D01*
X31010Y7422D01*
G02X31096Y7386I36J-36D01*
G01Y6236D01*
X30596Y5736D01*
Y4984D01*
X30502Y4890D01*
X30398D01*
G02X30327Y5064I0J102D01*
G03X29941Y5586I-227J236D01*
G02X29799Y5633I-49J89D01*
G03X29659Y5213I-299J-134D01*
G02X29801Y5166I49J-89D01*
G03X29811Y5147I299J134D01*
G02X29748Y5002I-90J-48D01*
G03X29616Y4442I86J-316D01*
G02X29548Y4265I-68J-76D01*
G01X27339D01*
G37*
G36*
G01X26909Y4871D02*
G02X26753Y4856I-84J57D01*
G01X26487Y5122D01*
X26481D01*
X25352Y6252D01*
Y10550D01*
X24979Y10923D01*
G02X25051Y11096I72J72D01*
G01X26884D01*
X27623Y11835D01*
G02X27796Y11763I72J-72D01*
G01Y5618D01*
G02X27672Y5519I-102J0D01*
G03X27462Y5497I-72J-319D01*
G02X27320Y5568I-43J92D01*
G03X27192Y5234I-320J-68D01*
G02X27273Y5194I30J-41D01*
G03X27279Y5135I327J5D01*
G02X27180Y5013I-100J-20D01*
G03X26909Y4871I-1J-327D01*
G37*
G36*
G01X21684Y12104D02*
X21654Y12134D01*
Y15334D01*
X21235Y15753D01*
G02X21293Y15926I72J72D01*
G03X21544Y16110I-44J324D01*
G02X21708Y16139I92J-43D01*
G01X21818Y16029D01*
X23682D01*
X23981Y15730D01*
Y15653D01*
X23962Y15634D01*
Y13694D01*
X23496Y13228D01*
Y13204D01*
G02X23349Y13113I-102J0D01*
G03X22879Y12885I-149J-292D01*
G02X22748Y12808I-100J20D01*
G03X22408Y12274I-99J-312D01*
G02X22334Y12104I-75J-69D01*
G01X21684D01*
G37*
G36*
G01X25752Y11890D02*
X25804Y11943D01*
Y13184D01*
X25204Y13784D01*
Y15116D01*
X25430Y15342D01*
G02X25604Y15270I72J-72D01*
G01Y14978D01*
X25914Y14668D01*
X25916Y14650D01*
G03X26511Y14869I326J33D01*
G02X26548Y15017I84J58D01*
G03X26592Y15044I-150J291D01*
G02X26673Y15003I30J-41D01*
G03X27044Y14676I327J-3D01*
G02X27160Y14575I14J-101D01*
G01Y14348D01*
X26096Y13284D01*
Y12084D01*
X25816Y11804D01*
X25787D01*
G02X25752Y11890I0J51D01*
G37*
G36*
G01X26337Y11504D02*
G02X26265Y11677I0J102D01*
G01X26504Y11916D01*
Y13116D01*
X27213Y13825D01*
G02X27387Y13753I72J-72D01*
G01Y13319D01*
G02X27218Y13244I-102J0D01*
G03Y12755I-218J-244D01*
G02X27387Y12679I68J-76D01*
G01Y12175D01*
X26716Y11504D01*
X26337D01*
G37*
G36*
G01X17892Y9704D02*
G02X17820Y9878I0J102D01*
G01X18480Y10538D01*
X18787D01*
X18795Y10529D01*
X20317D01*
G02X20408Y10382I0J-102D01*
G03X20373Y10218I292J-147D01*
G02X20255Y10113I-101J-5D01*
G03X19894Y9905I-55J-323D01*
G02X19771Y9843I-95J36D01*
G03X19425Y9732I-89J-315D01*
G01X19206D01*
X19179Y9704D01*
X17892D01*
G37*
G36*
G01X22555Y2412D02*
G03X22098Y2879I-218J244D01*
G02X21947Y2882I-74J69D01*
G03X21407Y2813I-247J-215D01*
G02X21244Y2786I-91J45D01*
G01X21005Y3025D01*
X20456D01*
G03X20369Y3102I-256J-204D01*
G01X20395Y3196D01*
X23016D01*
X23226Y2986D01*
Y2588D01*
X23407Y2408D01*
G02X23335Y2234I-72J-72D01*
G01X22623D01*
G02X22555Y2412I0J102D01*
G37*
G36*
G01X27419Y1808D02*
G02X27320Y1931I0J102D01*
G03X27303Y2124I-320J69D01*
G02X27397Y2264I94J39D01*
G01X29266D01*
G03X29339Y2197I256J204D01*
G01X29310Y2104D01*
X28350D01*
X28054Y1808D01*
X27419D01*
G37*
G36*
G01X27437Y100D02*
G02X27339Y228I0J102D01*
G03X27318Y454I-316J85D01*
G02X27409Y600I92J44D01*
G01X28312D01*
G03X28868Y944I272J181D01*
G02X28956Y1096I88J51D01*
G01X30849D01*
G02X30926Y928I0J-102D01*
G03X30854Y781I248J-213D01*
G02X30717Y707I-100J21D01*
G03X30308Y249I-120J-304D01*
G02X30218Y100I-90J-48D01*
G01X29809D01*
G02X29736Y272I0J102D01*
G03X29264I-236J227D01*
G02X29191Y100I-73J-71D01*
G01X27437D01*
G37*
G36*
G01X24736Y272D02*
G03X24808Y608I-236J227D01*
G01X24798Y638D01*
X24856Y697D01*
X24954Y600D01*
X26636D01*
G02X26728Y454I0J-102D01*
G03X26706Y228I295J-142D01*
G02X26608Y100I-98J-26D01*
G01X24809D01*
G02X24736Y272I0J102D01*
G37*
G36*
G01X20196Y1804D02*
X19904Y2096D01*
Y2222D01*
G03X20022Y2418I-204J256D01*
G02X20140Y2500I100J-18D01*
G03X20456Y2618I60J322D01*
G01X20836D01*
X21477Y1977D01*
G02X21405Y1804I-72J-72D01*
G01X21028D01*
G02X20931Y1935I0J102D01*
G03X20329Y1878I-313J96D01*
G01X20335Y1867D01*
Y1804D01*
X20196D01*
G37*
G36*
G01X31638Y31344D02*
X31962Y31669D01*
X31985Y31668D01*
G03X32318Y32071I15J327D01*
G02X32417Y32196I99J24D01*
G01X33484D01*
X33943Y32655D01*
Y33483D01*
G03X34042Y33864I-204J256D01*
G02X34136Y34004I94J39D01*
G01X34748D01*
X35254Y33499D01*
Y31324D01*
X35100Y31171D01*
X31710D01*
G02X31638Y31344I0J102D01*
G37*
G36*
G01X18904Y21447D02*
Y23316D01*
X19284Y23696D01*
X20483D01*
X21004Y24217D01*
Y24816D01*
X21563Y25375D01*
Y29788D01*
X21874Y30099D01*
X21923D01*
X21938Y30082D01*
G03X21924Y30506I242J220D01*
G01X21705D01*
X21284Y30086D01*
G02X21146Y30081I-72J72D01*
G03X21115Y30105I-215J-247D01*
G02Y30189I29J42D01*
G03X21204Y30639I-184J270D01*
G02X21289Y30796I85J56D01*
G01X22484D01*
X22804Y31116D01*
Y32127D01*
X22885D01*
X22900Y32100D01*
G03X22987Y31994I291J150D01*
G01Y24011D01*
X23035Y23963D01*
G02X22963Y23790I-72J-72D01*
G01X21315D01*
X20606Y23080D01*
G02X20443Y23107I-72J72D01*
G03X20064Y22646I-293J-146D01*
G01X20076Y22642D01*
X20122Y22597D01*
X20031Y22506D01*
X20009Y22507D01*
G03X20320Y22196I-15J-327D01*
G01X20319Y22218D01*
X20944Y22842D01*
G02X21106Y22816I72J-72D01*
G03X21533Y22663I293J146D01*
G02X21676Y22583I42J-93D01*
G03X22321Y22559I325J42D01*
G02X22437Y22639I99J-20D01*
G03X22749Y22758I55J322D01*
G01X24908D01*
X25257Y22408D01*
Y21447D01*
X18904D01*
G37*
G36*
G01X39728Y29729D02*
G03X39485Y29821I-228J-235D01*
G01X39462Y29820D01*
X38204Y31079D01*
Y35784D01*
X37753Y36235D01*
X32053D01*
X31604Y36684D01*
Y36892D01*
X31688D01*
X31701Y36862D01*
G03X31775Y37232I299J133D01*
G02X31604Y37306I-70J74D01*
G01Y37343D01*
X31620Y37358D01*
G03X31727Y37587I-220J242D01*
G02X31869Y37676I102J-4D01*
G03X31673Y37989I131J300D01*
G02X31531Y37900I-102J4D01*
G03X31234Y37882I-131J-300D01*
G02X31080Y37969I-52J87D01*
G01Y38357D01*
X31057Y38380D01*
X31083Y38443D01*
X32226D01*
X32674Y37994D01*
X32673Y37972D01*
G03X32985Y38283I327J-15D01*
G01X32962Y38282D01*
X32708Y38536D01*
G02X32780Y38710I72J72D01*
G01X34459D01*
X35174Y37994D01*
X35173Y37972D01*
G03X35485Y38283I327J-15D01*
G01X35462Y38282D01*
X34922Y38823D01*
G02X34994Y38996I72J72D01*
G01X37410D01*
X37796Y38610D01*
Y38213D01*
G03X38204I204J-256D01*
G01Y38779D01*
X37579Y39404D01*
X22894D01*
X22834Y39344D01*
X22702D01*
X22642Y39404D01*
X20084D01*
X19851Y39637D01*
X19852Y39660D01*
G03X19838Y39769I-327J15D01*
G02X19936Y39900I97J29D01*
G01X39198D01*
G02X39269Y39726I0J-102D01*
G03X39728Y39259I231J-232D01*
G02X39900Y39186I71J-73D01*
G01Y37302D01*
G02X39728Y37229I-102J0D01*
G03Y36759I-228J-235D01*
G02X39900Y36686I71J-73D01*
G01Y34802D01*
G02X39728Y34729I-102J0D01*
G03Y34259I-228J-235D01*
G02X39900Y34186I71J-73D01*
G01Y32302D01*
G02X39728Y32229I-102J0D01*
G03Y31759I-228J-235D01*
G02X39900Y31686I71J-73D01*
G01Y29802D01*
G02X39728Y29729I-102J0D01*
G37*
G36*
G01X26282Y35296D02*
G02X26126Y35280I-84J57D01*
G01X24602Y36804D01*
X20047D01*
G02X19965Y36965I0J102D01*
G03X20019Y37083I-265J192D01*
G02X20125Y37162I99J-23D01*
G03X20406Y37284I24J326D01*
G01X21703D01*
X21935Y37052D01*
X26160D01*
X26496Y36716D01*
Y35735D01*
X26350Y35589D01*
Y35370D01*
G03X26282Y35296I204J-256D01*
G37*
G36*
G01X27443Y35273D02*
G02X27344Y35394I0J102D01*
G03X27009Y35784I-321J63D01*
G02X26904Y35886I-4J102D01*
G01Y36884D01*
X26329Y37459D01*
X25100D01*
G02X25001Y37581I0J102D01*
G03X24494Y37913I-321J64D01*
G02X24346Y37950I-58J84D01*
G03X24307Y38009I-291J-150D01*
G02X24385Y38176I78J65D01*
G01X26142D01*
G02X26239Y38046I0J-102D01*
G03X26575Y37630I315J-90D01*
G02X26681Y37551I6J-101D01*
G03X26979Y37948I319J71D01*
G02X26873Y38028I-6J101D01*
G03X26869Y38046I-320J-70D01*
G02X26966Y38176I98J28D01*
G01X28641D01*
G02X28738Y38046I0J-102D01*
G03X28829Y37718I315J-90D01*
G02Y37570I-70J-74D01*
G03X29297Y37114I224J-238D01*
G02X29474Y37046I76J-68D01*
G01Y36323D01*
X28813Y35661D01*
X28188D01*
X27799Y35273D01*
X27443D01*
G37*
G36*
G01X31080Y35514D02*
Y37334D01*
G02X31167Y37370I51J0D01*
G03X31196Y37344I233J230D01*
G01Y36516D01*
X31762Y35950D01*
X31254Y35442D01*
G02X31080Y35514I-72J72D01*
G37*
G36*
G01X22601Y37459D02*
G02X22501Y37581I0J102D01*
G03X21864Y37729I-321J63D01*
G01X21854Y37692D01*
X21796D01*
G02X21702Y37832I0J102D01*
G03X21714Y38046I-302J125D01*
G02X21812Y38176I98J28D01*
G01X22161D01*
X22201Y38136D01*
X23335D01*
X23375Y38176D01*
X23725D01*
G02X23803Y38009I0J-102D01*
G03X23783Y37618I252J-209D01*
G02X23699Y37459I-84J-57D01*
G01X22601D01*
G37*
G36*
G01X29622Y35317D02*
G03X29400Y35439I-256J-204D01*
G02X29340Y35612I11J101D01*
G01X29882Y36154D01*
Y37441D01*
X30194Y37753D01*
X30243D01*
X30258Y37736D01*
G03X30554Y37634I242J220D01*
G02X30673Y37534I17J-100D01*
G01Y35461D01*
X30529Y35317D01*
X29622D01*
G37*
G36*
G01X29384Y34404D02*
X29064Y34724D01*
X27435D01*
G03X27384Y34775I-256J-204D01*
G01X27416Y34865D01*
X27968D01*
X28356Y35254D01*
X28938D01*
G02X29040Y35143I0J-102D01*
G03X29396Y34788I326J-29D01*
G02X29507Y34684I9J-101D01*
G03X29534Y34546I327J-8D01*
G02X29441Y34404I-93J-41D01*
G01X29384D01*
G37*
G36*
G01X29370Y33718D02*
X29265Y33823D01*
G02X29337Y33996I72J72D01*
G01X30384D01*
X31884Y35496D01*
X32047D01*
Y35415D01*
X32021Y35401D01*
G03X32208Y34788I157J-287D01*
G02X32319Y34684I9J-101D01*
G03X32615Y35002I327J-8D01*
G02X32504Y35106I-9J101D01*
G03X32424Y35328I-327J8D01*
G02X32501Y35496I77J67D01*
G01X35416D01*
X35566Y35346D01*
Y34008D01*
G02X35393Y33936I-102J0D01*
G01X34917Y34412D01*
X33523D01*
X32830Y33718D01*
X31600D01*
G02X31523Y33886I0J102D01*
G03X31027I-248J214D01*
G02X30950Y33718I-77J-66D01*
G01X29370D01*
G37*
G36*
G01X32204Y32604D02*
Y32722D01*
X32220Y32737D01*
G03X32276Y33155I-220J242D01*
G02X32362Y33311I86J54D01*
G01X32999D01*
X33292Y33604D01*
G02X33453Y33581I72J-72D01*
G03X33536Y33483I287J158D01*
G01Y32824D01*
X33316Y32604D01*
X32204D01*
G37*
G36*
G01X29071Y28804D02*
X28804Y29071D01*
Y29884D01*
X28450Y30238D01*
G02X28522Y30412I72J72D01*
G01X29007D01*
X29196Y30223D01*
X29195Y30200D01*
G03X29320Y29928I327J-15D01*
G02X29315Y29764I-63J-80D01*
G03X29815Y29407I185J-270D01*
G02X29934Y29480I98J-27D01*
G03X30213Y29552I66J320D01*
G02X30381Y29475I66J-77D01*
G01Y28869D01*
X30316Y28804D01*
X29071D01*
G37*
G36*
G01X25483Y22759D02*
X25076Y23165D01*
X22749D01*
G03X22711Y23205I-256J-204D01*
G02X22779Y23382I68J76D01*
G01X25021D01*
X25569Y22834D01*
Y22795D01*
G02X25483Y22759I-51J0D01*
G37*
G36*
G01X25977Y21952D02*
X25977Y23003D01*
X25190Y23790D01*
X23784D01*
X23394Y24180D01*
Y31994D01*
G03X23448Y32048I-204J256D01*
G01X23539Y32017D01*
Y30999D01*
X24127Y30412D01*
X24690D01*
G02X24777Y30256I0J-102D01*
G03X25333I278J-172D01*
G02X25419Y30412I86J54D01*
G01X26772D01*
G02X26867Y30273I0J-102D01*
G03X26914Y29952I305J-119D01*
G02X26873Y29796I-80J-63D01*
G03X27321Y29430I127J-302D01*
G02X27463Y29503I100J-20D01*
G03X27921Y29864I137J297D01*
G02X28021Y29985I100J20D01*
G01X28127D01*
X28396Y29716D01*
Y28902D01*
X28856Y28442D01*
G02X28836Y28283I-72J-72D01*
G03X29238Y28225I165J-283D01*
G02X29312Y28396I74J70D01*
G01X30206D01*
G02X30278Y28223I0J-102D01*
G01X29529Y27474D01*
X27192D01*
X27038Y27320D01*
X27015Y27321D01*
G03X27327Y27010I-15J-327D01*
G01X27326Y27032D01*
X27361Y27067D01*
X29698D01*
X31052Y28420D01*
Y28609D01*
X31055Y28612D01*
Y29257D01*
G02X31176Y29357I102J0D01*
G03X31255Y29351I63J321D01*
G01X31278Y29352D01*
X31465Y29165D01*
Y28190D01*
G02X31344Y28091I-102J0D01*
G03X31396Y27464I-64J-321D01*
G01X31405Y27467D01*
X31465D01*
Y27353D01*
X30507Y26395D01*
Y22985D01*
X29720Y22198D01*
X27256D01*
G03X26759Y21773I-256J-204D01*
G02X26684Y21603I-75J-69D01*
G01X26326D01*
X25977Y21952D01*
G37*
G36*
G01X24531Y17057D02*
X24904Y17430D01*
Y20030D01*
G03X25022Y20230I-204J256D01*
G02X25194Y20284I100J-17D01*
G01X25220Y20258D01*
X25845D01*
G02X25939Y20118I0J-102D01*
G03X26544I302J-125D01*
G02X26638Y20258I94J39D01*
G01X26898D01*
X27288Y19869D01*
Y17876D01*
X27205Y17793D01*
G02X27035Y17838I-72J72D01*
G03X26464Y17954I-315J-87D01*
G01X25632D01*
X24649Y16971D01*
X24567D01*
G02X24531Y17057I0J51D01*
G37*
G36*
G01X26719Y15370D02*
G03X26298Y15619I-321J-62D01*
G01X26268Y15610D01*
X26211Y15668D01*
X26339Y15796D01*
X26984D01*
X28423Y17235D01*
G02X28596Y17163I72J-72D01*
G01Y16684D01*
X28216Y16304D01*
X27780D01*
X27711Y16234D01*
X27654D01*
X27166Y15746D01*
Y15654D01*
X27160Y15648D01*
Y15425D01*
G02X27044Y15324I-102J0D01*
G03X26862Y15297I-44J-324D01*
G02X26719Y15370I-43J92D01*
G37*
G36*
G01X28051Y20437D02*
X27466Y21022D01*
G02X27538Y21196I72J72D01*
G01X28225D01*
Y20509D01*
G02X28051Y20437I-102J0D01*
G37*
G36*
G01X18782Y39349D02*
X19107Y39024D01*
G02X19035Y38850I-72J-72D01*
G01X18607D01*
X18167Y39291D01*
Y39419D01*
G03X18276Y39769I-204J256D01*
G02X18374Y39900I97J29D01*
G01X18459D01*
Y39837D01*
X18454Y39826D01*
G03X18759Y39348I290J-151D01*
G01X18782Y39349D01*
G37*
%LPC*%
G75*
G36*
G01X23700Y9826D02*
G03X23600Y9715I0J-102D01*
G02X23272Y10012I-326J-30D01*
G03X23373Y10123I0J102D01*
G02X23700Y9826I326J30D01*
G37*
G36*
G01X4054Y14672D02*
G03X4031Y14605I23J-45D01*
G02X3587Y14755I-295J-142D01*
G03X3610Y14822I-23J45D01*
G02X4054Y14672I295J142D01*
G37*
G36*
G01X13409Y32734D02*
G03X13267Y32711I-59J-82D01*
G02X13191Y33166I-267J189D01*
G03X13333Y33189I59J82D01*
G02X13409Y32734I267J-189D01*
G37*
G36*
G01X21958Y32682D02*
G03Y32549I77J-67D01*
G02X21465I-246J-215D01*
G03Y32682I-77J67D01*
G02X21958I246J215D01*
G37*
G36*
G01X18519Y32649D02*
G02X18168Y32527I-87J-315D01*
G03X18113Y32685I-82J60D01*
G02X18464Y32807I87J315D01*
G03X18519Y32649I82J-60D01*
G37*
G36*
G01X6976Y32474D02*
G02X6675Y32188I25J-326D01*
G03X6567Y32301I-101J12D01*
G02X6218Y32584I-24J326D01*
G03X6074Y32662I-101J-14D01*
G02X6260Y33002I-139J296D01*
G03X6404Y32924I101J14D01*
G02X6867Y32588I139J-296D01*
G03X6976Y32474I101J-12D01*
G37*
G36*
G01X6811Y29762D02*
G02X6731Y29308I189J-267D01*
G03X6589Y29333I-83J-58D01*
G02X6214Y29869I-189J267D01*
G03X6215Y30036I-58J84D01*
G02X6590Y30034I189J267D01*
G03X6589Y29867I58J-84D01*
G02X6669Y29786I-189J-267D01*
G03X6811Y29762I83J58D01*
G37*
G36*
G01X36697Y5731D02*
G03X36769Y5731I36J36D01*
G02X36768Y5268I231J-232D01*
G03X36696Y5268I-36J-36D01*
G02X36697Y5731I-231J232D01*
G37*
G36*
G01X32204Y23262D02*
G02X31796I-204J-256D01*
G01Y25884D01*
X33116Y27204D01*
X35782D01*
G03X35881Y27328I0J102D01*
G02X35966Y27629I319J72D01*
G03Y27771I-73J71D01*
G02X36434I234J229D01*
G03Y27629I73J-71D01*
G02X36519Y27328I-234J-229D01*
G03X36618Y27204I99J-22D01*
G01X36702D01*
Y27265D01*
X36698Y27274D01*
G02X36766Y27629I302J126D01*
G03Y27771I-73J71D01*
G02X37234I234J229D01*
G03Y27629I73J-71D01*
G02X37302Y27274I-234J-229D01*
G01X37298Y27265D01*
Y27204D01*
X37381D01*
X37753Y27576D01*
Y29750D01*
X37370Y30133D01*
X37347Y30132D01*
G02X37177Y30171I-15J327D01*
G03X37027Y30086I-48J-89D01*
G02X36995Y29958I-327J14D01*
G03X37066Y29815I92J-44D01*
G02X36705Y29636I-66J-320D01*
G03X36634Y29780I-92J44D01*
G02X36855Y30388I66J320D01*
G03X37005Y30473I48J89D01*
G02X37659Y30444I327J-14D01*
G01X37658Y30421D01*
X38160Y29919D01*
Y27407D01*
X37550Y26796D01*
X33284D01*
X32204Y25716D01*
Y23262D01*
G37*
G36*
G01X29007Y11891D02*
Y10253D01*
G02X28600I-204J-256D01*
G01Y11722D01*
X28596Y11725D01*
Y11944D01*
G02X29020Y11958I204J256D01*
G01X29004Y11943D01*
Y11894D01*
X29007Y11891D01*
G37*
G36*
G01X26871Y7546D02*
G02X26577Y7793I-317J-80D01*
G03X26683Y7919I7J101D01*
G02X26977Y7673I317J80D01*
G03X26871Y7546I-7J-101D01*
G37*
G54D13*
X9500Y12999D03*
X16084Y13750D03*
X18619Y15308D03*
X17000Y12999D03*
X19500Y15489D03*
X14500Y4501D03*
X12000Y2999D03*
X9500D03*
X14500Y5499D03*
X12000D03*
X9500D03*
X12000Y7999D03*
X9500D03*
X21804Y4750D03*
X16200Y6900D03*
X19700Y7829D03*
X24500Y7999D03*
X21243Y625D03*
X16245Y5467D03*
X7000Y2999D03*
X4500D03*
X7000Y5499D03*
X4500D03*
X1999Y12215D03*
X2000Y7999D03*
Y10499D03*
Y12999D03*
Y17999D03*
X17000Y2000D03*
X18744Y2655D03*
X7000Y17999D03*
X3700Y29500D03*
X13800Y29700D03*
X12184Y30334D03*
X2000Y21994D03*
X1256Y23750D03*
X3574Y32628D03*
X6256Y26250D03*
X3756D03*
X1256D03*
X4500Y29494D03*
X1256Y28750D03*
X13800Y32000D03*
X12000Y31994D03*
X4500Y31835D03*
X1256Y31250D03*
X8903Y32958D03*
X3756Y33750D03*
X1256D03*
X7000Y36994D03*
X4500D03*
X2000D03*
X21712Y34676D03*
X20700Y32103D03*
X18300Y34600D03*
X26100Y33000D03*
X16245Y30459D03*
X19681Y27179D03*
X17338Y30303D03*
X15308Y22337D03*
X16000Y32000D03*
X16600Y34800D03*
X18290Y35450D03*
X18275Y37488D03*
X20100Y19600D03*
X21712Y19837D03*
X32800Y7000D03*
X37000Y7100D03*
X36830Y2159D03*
X38581Y12340D03*
X32177Y7466D03*
X34989D03*
X37000Y2999D03*
X32500Y5400D03*
X37000Y7999D03*
X34500Y8100D03*
X37000Y10499D03*
X34500D03*
X32000D03*
X38580Y3750D03*
X35145Y30029D03*
X37000Y34494D03*
Y23006D03*
X34500D03*
Y29494D03*
X37000Y31994D03*
X33500Y29500D03*
X38738Y14838D03*
X37000Y20506D03*
X36247Y26250D03*
X33748D03*
X32000Y12999D03*
X34500D03*
X37000D03*
X32000Y15499D03*
X34500D03*
X37000D03*
X39362Y18119D03*
X34500Y17999D03*
X32000D03*
X29366Y7466D03*
X29500Y12999D03*
Y15499D03*
X27000Y10499D03*
X34500Y31994D03*
X21087Y22180D03*
X22000Y24494D03*
Y29494D03*
X24500Y21994D03*
X22000Y26994D03*
X37000Y37976D03*
X34500D03*
X37000Y36994D03*
X34500D03*
X29500Y23006D03*
X27000Y24494D03*
X24500D03*
Y29494D03*
X26600Y28000D03*
X24500Y26994D03*
X28585Y25304D03*
%LPD*%
G75*
G54D10*
X1093Y10407D03*
X10600Y10400D03*
X8000Y9600D03*
X8600D03*
X9200D03*
X9800D03*
X14900Y12300D03*
X11800Y4800D03*
X15000Y5300D03*
X14214Y2655D03*
X13746Y6876D03*
X13589Y7501D03*
X3600Y12000D03*
X1999Y12215D03*
X14500Y499D03*
X12000D03*
X9500D03*
X7000D03*
X4500D03*
X2000D03*
X14500Y4501D03*
X12000Y2999D03*
X9500D03*
X7000D03*
X4500D03*
X2000D03*
X14500Y5499D03*
X12000D03*
X9500D03*
X7000D03*
X4500D03*
X2000D03*
X14500Y9501D03*
X12000Y7999D03*
X9500D03*
X7000D03*
X4500D03*
X2000D03*
X14500Y10499D03*
X12000D03*
X9500D03*
X7000D03*
X4500D03*
X2000D03*
X1087Y18750D03*
X13746Y16401D03*
X10500Y19334D03*
X3743Y18750D03*
X6086D03*
X14995Y14712D03*
X8741Y18750D03*
X1908Y27770D03*
X13600Y14700D03*
X9400Y14600D03*
X6336Y14464D03*
X13500Y19700D03*
X13000Y23000D03*
X9400Y19600D03*
X6614Y34614D03*
X9714D03*
X13900Y34900D03*
X3214Y34614D03*
X3700Y29500D03*
X6400Y29600D03*
X9000Y29700D03*
X13800D03*
X13600Y27200D03*
X3638Y19462D03*
X6338D03*
X3736Y14464D03*
X13746Y35497D03*
X14370Y35301D03*
X14808Y30490D03*
X1087Y21250D03*
X11090Y24523D03*
X8591Y24055D03*
X14995Y19681D03*
X3593Y22493D03*
X11246Y26398D03*
X5500Y23114D03*
X13750Y34375D03*
X1875Y35000D03*
X6250Y37500D03*
X8750Y36875D03*
X12400Y35500D03*
X8279Y31999D03*
X5467D03*
X2499D03*
X11403D03*
X13750Y24750D03*
X13800Y23200D03*
X8500Y22500D03*
X11000Y22900D03*
X8700Y17000D03*
X6200D03*
X3464Y15464D03*
X10900Y17300D03*
X2000Y20100D03*
X5900Y22200D03*
X10600Y20100D03*
X8800Y20600D03*
X14214Y30416D03*
X13000Y32900D03*
X12184Y27960D03*
X1644Y25230D03*
X9060Y30334D03*
X12184D03*
X12014Y35114D03*
X9046D03*
X6079D03*
X3593D03*
Y30334D03*
X6404Y30303D03*
X12000Y20506D03*
X9500Y21994D03*
X7000D03*
X4500D03*
X2000D03*
X6542Y32628D03*
X14500Y20506D03*
X12000Y24340D03*
X9500Y23100D03*
X7000Y23006D03*
X4500D03*
X1256Y23750D03*
X3574Y32628D03*
X13700Y22000D03*
X8756Y26250D03*
X6256D03*
X3756D03*
X1256D03*
X12000Y26995D03*
X13754Y26250D03*
X4500Y29494D03*
X1256Y28750D03*
X5936Y32958D03*
X7000Y29494D03*
X9500D03*
X12000D03*
X13746Y27960D03*
X13800Y32000D03*
X12000Y31994D03*
X4500Y31835D03*
X1256Y31250D03*
X8903Y32958D03*
X7000Y32148D03*
X13600Y33000D03*
X8756Y33750D03*
X6256D03*
X3756D03*
X1256D03*
X12000Y32986D03*
X11246Y32958D03*
X14500Y36994D03*
X12000D03*
X9500D03*
X7000D03*
X4500D03*
X2000D03*
X11200Y13200D03*
X8903Y14964D03*
X12340D03*
X11715Y19962D03*
X8747D03*
X5936D03*
X3124D03*
X3905Y14964D03*
X6717D03*
X6248Y15464D03*
X1874Y14839D03*
X3749Y20462D03*
X6560D03*
X9372D03*
X14500Y12999D03*
X12000D03*
X9500D03*
X7000D03*
X4500D03*
X2000D03*
X11200Y18200D03*
X12000Y17001D03*
X9500D03*
X14500Y15490D03*
X4500Y17001D03*
X2000Y15499D03*
X7000Y17001D03*
X14500Y17999D03*
X12000D03*
X9500D03*
X7000D03*
X4500D03*
X2000D03*
X9216Y15464D03*
X14500Y39494D03*
X12000D03*
X9500D03*
X7000D03*
X4500D03*
X2000D03*
X22493Y9841D03*
X21243Y10465D03*
X16245Y12496D03*
X24200Y12195D03*
X21700Y2667D03*
X23118Y4530D03*
X21804Y4750D03*
X16200Y6900D03*
X33766Y5500D03*
X36466D03*
X32800Y7000D03*
X37000Y7100D03*
X32512Y2032D03*
X36830Y2159D03*
X30597Y403D03*
X27000Y2000D03*
X27600Y5200D03*
X30100Y5300D03*
X32568Y2968D03*
X35132D03*
X32566Y7966D03*
X35266D03*
X28600Y4500D03*
X24300Y7100D03*
X19100Y5000D03*
X19600D03*
X20100D03*
X19100Y5500D03*
X19600D03*
X20100D03*
X19100Y7000D03*
X19600D03*
X20200D03*
X25068Y2968D03*
X25900Y7000D03*
X28900D03*
X38581Y12340D03*
X19700Y7829D03*
X28800Y12200D03*
X28803Y9997D03*
X20618Y2031D03*
X29522Y2468D03*
X23177Y7250D03*
X26398Y2468D03*
X23720Y7750D03*
X26554Y7466D03*
X22024Y9528D03*
X29366Y7466D03*
X21200Y9770D03*
X32177Y7466D03*
X20700Y10235D03*
X34989Y7466D03*
X20200Y9790D03*
X34833Y2468D03*
X19700Y2478D03*
X32177Y2468D03*
X20200Y2822D03*
X39500Y499D03*
X37000D03*
X34500D03*
X32000D03*
X29500D03*
X24500D03*
X22000D03*
X27023Y312D03*
X22337Y2655D03*
X24500Y2999D03*
X27000D03*
X29500D03*
X39500D03*
X37000D03*
X34052Y4998D03*
X31240Y5000D03*
X26242Y4530D03*
X23118Y5155D03*
X29500Y5499D03*
X27000D03*
X24500D03*
X32500Y5400D03*
X37000Y5499D03*
X39500D03*
X34440Y4540D03*
X30300Y7999D03*
X37000D03*
X39500D03*
X23274Y9684D03*
X27000Y7999D03*
X24500D03*
X34500Y8100D03*
X21712Y10153D03*
X39500Y10499D03*
X37000D03*
X34500D03*
X32000D03*
X29500D03*
X27000D03*
X24500D03*
X30600Y7300D03*
X27179Y4686D03*
X29834D03*
X28585Y781D03*
X33739Y937D03*
X16245Y11871D03*
X38580Y3750D03*
X19985Y12643D03*
X21243Y625D03*
X19056Y12652D03*
X31174Y715D03*
X23699Y10153D03*
X23742Y1098D03*
X23700Y12538D03*
X22649Y12496D03*
X20462Y469D03*
X17000Y2000D03*
Y2999D03*
X18744Y2655D03*
X16245Y5467D03*
X19681Y9528D03*
X17000Y9501D03*
X19500Y12184D03*
X17000Y10499D03*
X21087Y22180D03*
X32490Y30185D03*
X16245Y16557D03*
X35145Y30029D03*
X26554Y35114D03*
X20150Y37488D03*
X29366Y35114D03*
X20462Y37957D03*
X18739Y16250D03*
X22493Y22961D03*
X32177Y35114D03*
X23900Y35500D03*
X27172Y30154D03*
X29522Y30185D03*
X23742Y33114D03*
X33739Y33739D03*
X21712Y34676D03*
X24500Y32646D03*
X27000Y32802D03*
X37000Y34494D03*
X39500D03*
X29834Y34676D03*
X32000Y32979D03*
X16084Y13750D03*
X21399Y22961D03*
X37332Y30459D03*
X39500Y24494D03*
X37000Y23006D03*
X34500D03*
X32000D03*
X29500D03*
X27000Y24494D03*
X24500D03*
X22000D03*
X39500Y29494D03*
X31400Y37600D03*
X37000Y29494D03*
X34500D03*
X32000D03*
X29500D03*
X27000D03*
X24500D03*
X22000D03*
X21712Y32333D03*
X24500Y31994D03*
X27000D03*
X29500D03*
X32000D03*
X34500D03*
X37000D03*
X39500D03*
X32646Y34676D03*
X31280Y27770D03*
X20700Y32103D03*
X18200Y20381D03*
X20931Y30459D03*
X18700Y20662D03*
X22180Y30303D03*
X24700Y12673D03*
X34430Y25230D03*
X19994Y22180D03*
X23190Y32250D03*
X26242Y14683D03*
X29000Y28000D03*
X19700Y37157D03*
X27000Y15000D03*
X18619Y15308D03*
X31275Y34100D03*
X36220Y34220D03*
X36700Y30100D03*
X33500Y29500D03*
X27600Y29800D03*
X30000D03*
X37000Y27400D03*
X36200D03*
X37000Y28000D03*
X36200D03*
X26600D03*
X18300Y34600D03*
X18200Y33000D03*
X21712Y32898D03*
X26100Y33000D03*
X38738Y14838D03*
X20931Y29834D03*
X19525Y27960D03*
X31240Y29678D03*
X22000Y22625D03*
X39500Y21994D03*
X37000Y20506D03*
X34500D03*
X32000D03*
X29500D03*
X27000Y21994D03*
X24500D03*
X38000Y37957D03*
X35500D03*
X33000D03*
X30500D03*
X27023Y35457D03*
X24992Y35145D03*
X23250Y32826D03*
X18744Y28428D03*
X16000Y17700D03*
X16245Y30459D03*
X19681Y27179D03*
X17338Y30303D03*
X21300Y24700D03*
X21900Y15500D03*
X22400D03*
X21900Y15000D03*
X22400D03*
X23500Y15500D03*
Y15000D03*
X28741Y36395D03*
X31084Y32490D03*
X26242Y31865D03*
X33739Y36395D03*
X31240Y36238D03*
X26242Y36395D03*
X28741Y31709D03*
X33739D03*
X23300Y34500D03*
X20900Y33000D03*
X20600Y34500D03*
Y35000D03*
X19100Y33000D03*
X20100Y34500D03*
X19600D03*
X19100D03*
X20100Y35000D03*
X19600D03*
X19100D03*
X16600Y25000D03*
X16000D03*
X17200D03*
X16000Y24500D03*
X16600D03*
X17200D03*
X16000Y23000D03*
X17200D03*
X16400Y15100D03*
X39500Y26994D03*
X36247Y26250D03*
X33748D03*
X31248D03*
X27000Y26994D03*
X24500D03*
X22000D03*
X28585Y25304D03*
X27179Y34520D03*
X21087Y12808D03*
X25148Y12965D03*
X27000Y12999D03*
X29500D03*
X32000D03*
X34500D03*
X37000D03*
X39500D03*
X28000Y15400D03*
X29500Y15499D03*
X32000D03*
X34500D03*
X37000D03*
X39500D03*
X21248Y16250D03*
X26398Y15308D03*
X22649Y19681D03*
X26242Y19994D03*
X39362Y18119D03*
X37000Y17999D03*
X34500D03*
X32000D03*
X29500D03*
X16557Y27804D03*
X17700Y20100D03*
X37176Y17182D03*
X35500Y19600D03*
X20150Y24836D03*
Y25461D03*
X18888Y27179D03*
X18432Y27647D03*
X17651Y27491D03*
X17200Y27786D03*
X16870Y20462D03*
X20100Y19600D03*
X19500Y20487D03*
X15308Y22337D03*
X20150Y22961D03*
X20775Y27335D03*
X20150Y27960D03*
X17494Y29522D03*
X18275Y30459D03*
X16000Y32000D03*
X16600Y34800D03*
X18432Y32333D03*
X18290Y35450D03*
X17000Y36994D03*
X18275Y37488D03*
X22649Y17963D03*
X21399Y37957D03*
X24055Y37800D03*
X37000Y37976D03*
X34500D03*
X32000D03*
X26554Y37957D03*
X29053D03*
X20494Y20431D03*
X21712Y19837D03*
X26177Y17250D03*
X26720Y17750D03*
X24700Y20286D03*
X24200Y19770D03*
X23700Y20107D03*
X23200Y19770D03*
Y12822D03*
X39500Y36994D03*
X37000D03*
X34500D03*
X32000D03*
X29053Y37332D03*
X27000Y37622D03*
X24680Y37644D03*
X22180D03*
X25055Y30084D03*
X19500Y12999D03*
X17000D03*
X19500Y15489D03*
X17000Y15490D03*
Y17999D03*
X19525Y39675D03*
X18744D03*
X17963D03*
X22768Y39504D03*
X17000Y39494D03*
X39500D03*
G54D11*
G01X22493Y9841D02*
Y9372D01*
X21821Y8700D01*
X9012D01*
X8500Y8188D01*
Y700D01*
X7911Y111D01*
X1839D01*
X1406Y544D01*
Y3905D01*
X2499Y4998D01*
Y5936D01*
X2187Y6248D01*
X1052D01*
X600Y6700D01*
Y18263D01*
X1087Y18750D01*
G01X21243Y10465D02*
X20976Y10733D01*
X18880D01*
X18871Y10742D01*
X18395D01*
X17642Y9988D01*
X9212D01*
X9000Y10200D01*
X8221D01*
X8189Y10232D01*
X8168D01*
X7633Y10767D01*
Y16109D01*
X7185Y16557D01*
X6248D01*
X5700Y16009D01*
Y9200D01*
X6200Y8700D01*
X7100D01*
X7654Y8146D01*
Y7341D01*
X7185Y6873D01*
X5600D01*
X4998Y7474D01*
Y18432D01*
X4680Y18750D01*
X3743D01*
G01X26242Y4530D02*
X27023Y3749D01*
X29678D01*
X29990Y3436D01*
Y2187D01*
X29704Y1900D01*
X28434D01*
X28139Y1604D01*
X25370D01*
X25162Y1812D01*
X25141D01*
X24686Y2268D01*
X23909D01*
X23894Y2283D01*
X23820D01*
X23430Y2673D01*
Y3070D01*
X23100Y3400D01*
X14959D01*
X14214Y2655D01*
G01X28585Y781D02*
X28562Y803D01*
X25038D01*
X24830Y1011D01*
X24809D01*
X24354Y1467D01*
X23582D01*
X23449Y1333D01*
X23428D01*
X23395Y1300D01*
X14320D01*
X13746Y1874D01*
Y6876D01*
G01X23700Y12538D02*
Y13144D01*
X24166Y13610D01*
Y15549D01*
X24185Y15568D01*
Y15815D01*
X23767Y16233D01*
X21902D01*
X21502Y16633D01*
X18572D01*
X17900Y15961D01*
Y14800D01*
X17500Y14400D01*
X15800D01*
X14888Y13488D01*
Y12838D01*
X14450Y12400D01*
X11400D01*
X11200Y12600D01*
Y13200D01*
G01X6248Y15464D02*
X7136D01*
X7366Y15234D01*
Y10657D01*
X7500Y10523D01*
Y9083D01*
X8183Y8400D01*
Y883D01*
X7799Y499D01*
X7000D01*
G01X1874Y14839D02*
X3100Y13613D01*
Y5000D01*
X2000Y3900D01*
Y2999D01*
G01Y5499D02*
X905D01*
X333Y6071D01*
Y18373D01*
X469Y18509D01*
Y20150D01*
X1057Y20738D01*
X3473D01*
X3749Y20462D01*
G01X7000Y7999D02*
X6001D01*
X5400Y8600D01*
Y20300D01*
X5562Y20462D01*
X6560D01*
G01X9500Y10499D02*
X8279D01*
X7900Y10878D01*
Y20600D01*
X8273Y20973D01*
X9122D01*
X9372Y20723D01*
Y20462D01*
G01X10500Y19334D02*
Y16679D01*
X11166Y16012D01*
X14095D01*
X14518Y16436D01*
X14539D01*
X14661Y16557D01*
X16245D01*
G01X14995Y14712D02*
X14131D01*
X13419Y14000D01*
X11336D01*
X11036Y13700D01*
X8700D01*
X8300Y14100D01*
Y18309D01*
X8741Y18750D01*
G01X18584Y19997D02*
Y19427D01*
X18457Y19300D01*
X16470D01*
X14613Y21156D01*
X13900D01*
X11456Y23600D01*
X2800D01*
X2200Y24200D01*
Y27478D01*
X1908Y27770D01*
G01X13746Y35497D02*
X14848Y36600D01*
X24518D01*
X26393Y34725D01*
X26715D01*
X27059Y35069D01*
X27884D01*
X28272Y35457D01*
X28897D01*
X29678Y36238D01*
Y37525D01*
X30109Y37957D01*
X30500D01*
G01X24992Y35145D02*
Y35708D01*
X24400Y36300D01*
X15100D01*
X14808Y36008D01*
Y30490D01*
G01X14995Y19681D02*
X14419D01*
X14176Y19924D01*
Y20301D01*
X14136Y20341D01*
Y20464D01*
X12576Y22024D01*
X10876D01*
X10265Y22635D01*
X9149D01*
X8626Y22112D01*
X7589D01*
X7112Y22588D01*
X4079D01*
X3983Y22493D01*
X3593D01*
G01X20150Y24836D02*
X19600Y25386D01*
Y26000D01*
X18986Y26614D01*
X11832D01*
X11659Y26786D01*
X8614D01*
X8300Y27100D01*
Y30000D01*
X8634Y30334D01*
X9060D01*
G01X18888Y27179D02*
X18351D01*
X18043Y27486D01*
Y27680D01*
X16982Y28741D01*
X10959D01*
X10567Y29133D01*
Y33411D01*
X10561Y33416D01*
Y34690D01*
X10985Y35114D01*
X12014D01*
G01X18432Y27647D02*
Y28038D01*
X17462Y29008D01*
X11192D01*
X10834Y29366D01*
Y33521D01*
X10828Y33527D01*
Y34258D01*
X11090Y34520D01*
X12620D01*
X12877Y34777D01*
Y36223D01*
X12500Y36600D01*
X9300D01*
X9046Y36346D01*
Y35114D01*
G01X17651Y27491D02*
X17374Y27215D01*
X16632D01*
X16283Y27564D01*
X10336D01*
X9997Y27903D01*
Y33103D01*
X8875Y34225D01*
X6453D01*
X6079Y34599D01*
Y35114D01*
G01X3593D02*
X4093Y35614D01*
X6404D01*
X7384Y34634D01*
X8966D01*
X10300Y33300D01*
Y28700D01*
X10652Y28348D01*
X16637D01*
X17200Y27786D01*
G01X3593Y30334D02*
X3202D01*
X2808Y29940D01*
Y25692D01*
X3508Y24992D01*
X12208D01*
X13388Y23812D01*
Y22912D01*
X15838Y20462D01*
X16870D01*
G01X11246Y32958D02*
X11550Y33262D01*
X11724D01*
X12000Y32986D01*
G01X8903Y14964D02*
X10965D01*
X11559Y14370D01*
X12400D01*
X13130Y15100D01*
X14900D01*
X15678Y15878D01*
X17400D01*
X17439Y15917D01*
X17473D01*
X18456Y16900D01*
X21613D01*
X22013Y16500D01*
X24935D01*
X25685Y17250D01*
X26177D01*
G01X12340Y14964D02*
X12996Y15620D01*
X14080D01*
X14629Y16169D01*
X17313D01*
X17328Y16184D01*
X17362D01*
X18346Y17167D01*
X18367D01*
X18400Y17200D01*
X21669D01*
X21702Y17167D01*
X21723D01*
X22123Y16767D01*
X24733D01*
X25716Y17750D01*
X26720D01*
G01X24700Y20286D02*
Y17515D01*
X24219Y17034D01*
X22234D01*
X21834Y17434D01*
X21813D01*
X21780Y17467D01*
X21759D01*
X21726Y17500D01*
X18300D01*
X17826Y17026D01*
X12774D01*
X12400Y17400D01*
X12000D01*
X11564Y17836D01*
Y19420D01*
X11715Y19572D01*
Y19962D01*
G01X8747D02*
X9248D01*
X9249Y19964D01*
X9664D01*
X10594Y20894D01*
X12140D01*
X12333Y20701D01*
Y20687D01*
X12364Y20656D01*
Y20355D01*
X12333Y20324D01*
Y19277D01*
X12334Y18188D01*
X12374Y18148D01*
Y18126D01*
X13162Y17338D01*
X15848D01*
X15849Y17336D01*
X16151D01*
X16152Y17338D01*
X17638D01*
X18100Y17800D01*
X21782D01*
X21815Y17767D01*
X21836D01*
X21869Y17734D01*
X21890D01*
X21923Y17701D01*
X21945D01*
X22345Y17301D01*
X23963D01*
X24211Y17549D01*
Y17941D01*
X24200Y17952D01*
Y19770D01*
G01X23700Y20107D02*
Y17921D01*
X23347Y17568D01*
X22455D01*
X22055Y17968D01*
X22034D01*
X22001Y18001D01*
X21980D01*
X21947Y18034D01*
X21926D01*
X21893Y18067D01*
X21871D01*
X21838Y18100D01*
X17944D01*
X17454Y17611D01*
X16800D01*
X16211Y18200D01*
X15500D01*
X14911Y17611D01*
X13289D01*
X12601Y18299D01*
X12600Y19387D01*
Y20214D01*
X12630Y20244D01*
Y20767D01*
X12600Y20797D01*
Y20812D01*
X12111Y21300D01*
X9858D01*
X9300Y21300D01*
X8000D01*
X6662Y19962D01*
X5936D01*
G01X3124D02*
X3303D01*
X3393Y20053D01*
X3882D01*
X3923Y20012D01*
X5467Y21556D01*
X7356D01*
X7600Y21800D01*
X8562D01*
X8756Y21800D01*
X9324Y22368D01*
X10132D01*
X10773Y21727D01*
X12373D01*
X13910Y20190D01*
Y19290D01*
X14456Y18744D01*
X22649D01*
X23200Y19295D01*
Y19770D01*
G01X4500Y17001D02*
X2301D01*
X2000Y16700D01*
Y15499D01*
G01X9500Y17999D02*
X9997Y17502D01*
Y16245D01*
X9216Y15464D01*
G01X22493Y22961D02*
X24992D01*
X25461Y22493D01*
Y21399D01*
X25773Y21087D01*
X27113D01*
X28116Y20084D01*
Y17616D01*
X28031Y17530D01*
Y17510D01*
X26921Y16400D01*
X26596D01*
X26548Y16352D01*
X26152D01*
X25000Y15200D01*
Y13700D01*
X25600Y13100D01*
Y12027D01*
X25473Y11900D01*
X24420D01*
X24351Y11831D01*
X24049D01*
X23980Y11900D01*
X21600D01*
X21450Y12050D01*
Y15250D01*
X20450Y16250D01*
X18739D01*
G01X24200Y12195D02*
Y12900D01*
X24433Y13133D01*
Y15439D01*
X24452Y15458D01*
Y15549D01*
X25730Y16827D01*
X25821D01*
X25861Y16867D01*
X25912D01*
X25931Y16886D01*
X26327D01*
X26375Y16934D01*
X26634D01*
X27491Y17791D01*
Y19954D01*
X26983Y20462D01*
X25304D01*
X24836Y20931D01*
X19394D01*
X19112Y20648D01*
Y20312D01*
X18797Y19997D01*
X18584D01*
G01X28803Y9997D02*
Y11806D01*
X28800Y11809D01*
Y12200D01*
G01X23177Y7250D02*
X23700Y6727D01*
Y2854D01*
X24019Y2535D01*
X24796D01*
X25251Y2079D01*
X26565D01*
X26954Y2468D01*
X29522D01*
G01X23720Y7750D02*
Y7084D01*
X23967Y6837D01*
Y6816D01*
X23994Y6789D01*
Y3965D01*
X24367Y3593D01*
X26085D01*
X26398Y3280D01*
Y2468D01*
G01X34833D02*
X34168D01*
X33000Y1300D01*
X28590D01*
X28360Y1070D01*
X25149D01*
X24941Y1278D01*
X24920D01*
X24464Y1734D01*
X23688D01*
X23682Y1739D01*
X23477D01*
X23338Y1600D01*
X20112D01*
X19700Y2012D01*
Y2478D01*
G01X32177Y2468D02*
X31309Y1600D01*
X28512D01*
X28249Y1337D01*
X25259D01*
X25051Y1545D01*
X25030D01*
X24575Y2001D01*
X23798D01*
X23783Y2016D01*
X23710D01*
X23695Y2031D01*
X21712D01*
X20921Y2822D01*
X20200D01*
G01X30600Y7300D02*
X30900Y7600D01*
Y10200D01*
X30601Y10499D01*
X29500D01*
G01X28000Y15400D02*
Y5039D01*
X27647Y4686D01*
X27179D01*
G01X29834D02*
X30586D01*
X30800Y4900D01*
Y5652D01*
X31300Y6152D01*
Y17600D01*
X30901Y17999D01*
X29500D01*
G01X16245Y11871D02*
X18119D01*
X18990Y11000D01*
X24614D01*
X25148Y10465D01*
Y6167D01*
X26397Y4918D01*
X26403D01*
X26630Y4691D01*
Y4685D01*
X27254Y4061D01*
X34483D01*
X34796Y4061D01*
X34798Y4061D01*
X34810Y4059D01*
X34821Y4061D01*
X34822Y4061D01*
X35239D01*
X35521Y3779D01*
Y1469D01*
X34989Y937D01*
X33739D01*
G01X37176Y17182D02*
X36400Y17958D01*
Y19500D01*
X35800Y20100D01*
X29700D01*
X28800Y19200D01*
Y16600D01*
X28300Y16100D01*
X27865D01*
X27795Y16030D01*
X27739D01*
X27370Y15661D01*
Y15570D01*
X27364Y15564D01*
Y14264D01*
X26300Y13200D01*
Y12000D01*
X25900Y11600D01*
X24497D01*
X24461Y11564D01*
X23939D01*
X23903Y11600D01*
X20400D01*
X19985Y12015D01*
Y12643D01*
G01X19056Y12652D02*
Y11844D01*
X19600Y11300D01*
X23825D01*
X23828Y11297D01*
X24572D01*
X24575Y11300D01*
X26800D01*
X27590Y12090D01*
Y14113D01*
X27630Y14153D01*
Y15453D01*
X27636Y15459D01*
Y15551D01*
X27849Y15764D01*
X28664D01*
X29100Y16200D01*
Y19122D01*
X29678Y19700D01*
X35009D01*
X35109Y19600D01*
X35500D01*
G01X17000Y9501D02*
X19263D01*
X19291Y9528D01*
X19681D01*
G01X20150Y37488D02*
X21787D01*
X22019Y37256D01*
X26244D01*
X26700Y36800D01*
Y35649D01*
X26659Y35608D01*
X26658D01*
X26554Y35504D01*
Y35114D01*
G01X20462Y37957D02*
X20885Y38380D01*
X22246D01*
X22286Y38340D01*
X23250D01*
X23290Y38380D01*
X30770D01*
X30876Y38273D01*
Y35376D01*
X30614Y35114D01*
X29366D01*
G01X23900Y35500D02*
Y35111D01*
X23899Y35110D01*
Y34364D01*
X24163Y34100D01*
X28700D01*
X29286Y33514D01*
X32914D01*
X33608Y34208D01*
X34833D01*
X35457Y33583D01*
Y31240D01*
X35184Y30967D01*
X31390D01*
X30585Y30162D01*
Y29950D01*
X30584Y29950D01*
Y28785D01*
X30400Y28600D01*
X28987D01*
X28600Y28987D01*
Y29800D01*
X28212Y30188D01*
X27439D01*
X27404Y30154D01*
X27172D01*
G01X29522Y30185D02*
X29092Y30615D01*
X24211D01*
X23742Y31084D01*
Y33114D01*
G01X33739Y33739D02*
Y32739D01*
X33400Y32400D01*
X32000D01*
G01D02*
X31800D01*
X31200Y31800D01*
X30700D01*
X30117Y32383D01*
X27419D01*
X27000Y32802D01*
G01X32000Y32979D02*
Y32400D01*
G01Y23006D02*
Y25800D01*
X33200Y27000D01*
X37465D01*
X37957Y27491D01*
Y29834D01*
X37332Y30459D01*
G01X39500Y29494D02*
X38000Y30994D01*
Y35700D01*
X37669Y36031D01*
X31969D01*
X31400Y36600D01*
Y37600D01*
G01X24500Y31994D02*
Y31527D01*
X24827Y31200D01*
X31206D01*
X32000Y31994D01*
G01X18584Y19997D02*
X18200Y20381D01*
G01X24700Y12673D02*
Y15328D01*
X25972Y16600D01*
X26022D01*
X26042Y16620D01*
X26438D01*
X26485Y16667D01*
X26767D01*
X27804Y17704D01*
Y20019D01*
X27048Y20775D01*
X25617D01*
X25148Y21243D01*
X18890D01*
X18700Y21053D01*
G01D02*
Y20662D01*
G01Y21053D02*
Y23400D01*
X19200Y23900D01*
X20399D01*
X20800Y24301D01*
Y24900D01*
X21360Y25460D01*
Y29872D01*
X21790Y30303D01*
X22180D01*
G01X26242Y14683D02*
X26207Y14717D01*
X26153D01*
X25807Y15063D01*
Y15552D01*
X26255Y16000D01*
X26900D01*
X28428Y17528D01*
Y21371D01*
X28400Y21399D01*
G01X23700Y23586D02*
X25106D01*
X25773Y22919D01*
X25773Y21868D01*
X26242Y21399D01*
X28400D01*
G01X23700Y23586D02*
X21399D01*
X19994Y22180D01*
G01X23700Y23586D02*
X23190Y24096D01*
Y32250D01*
G01X34430Y25230D02*
X33630D01*
X33400Y25000D01*
Y21800D01*
X33000Y21400D01*
X29000D01*
X28999Y21399D01*
X28400D01*
G01X19525Y27960D02*
Y29366D01*
X19994Y29834D01*
X20931D01*
G01X31240Y29678D02*
X31669Y29249D01*
Y27269D01*
X30711Y26311D01*
Y22901D01*
X29804Y21994D01*
X27000D01*
G01X18744Y28428D02*
Y30544D01*
X19200Y31000D01*
X22400D01*
X22600Y31200D01*
Y32600D01*
X22800Y32800D01*
X22834D01*
X22860Y32826D01*
X23250D01*
G01X27000Y26994D02*
X27276Y27271D01*
X29614D01*
X30848Y28505D01*
Y28692D01*
X30852Y28695D01*
Y29839D01*
X30852Y29840D01*
Y30052D01*
X31500Y30700D01*
X35386D01*
X35770Y31084D01*
Y35430D01*
X35500Y35700D01*
X31800D01*
X30300Y34200D01*
X29300D01*
X28980Y34520D01*
X27179D01*
G01X19525Y39675D02*
X20000Y39200D01*
X22558D01*
X22617Y39140D01*
X22919D01*
X22978Y39200D01*
X37494D01*
X38000Y38694D01*
Y37957D01*
G01X35500D02*
X34543Y38914D01*
X23069D01*
X23029Y38874D01*
X22507D01*
X22467Y38914D01*
X19505D01*
X18744Y39675D01*
G01X17963D02*
Y39206D01*
X18523Y38646D01*
X22356D01*
X22396Y38606D01*
X23140D01*
X23180Y38646D01*
X32310D01*
X33000Y37957D01*
G54D12*
G01X40000Y40000D02*
X0D01*
Y0D01*
X40000D01*
Y40000D01*
G01X0Y-1400D02*
X-2400D01*
G01X-1200Y-2600D02*
Y-200D01*
G01X-500Y-1400D02*
G03I-700J0D01*
G01X-200Y-1300D02*
G03I-1000J-100D01*
G01X-1700Y41300D02*
G03I-1000J-100D01*
G01X-2000Y41200D02*
G03I-700J0D01*
G01X-2700Y40000D02*
Y42400D01*
G01X-1500Y41200D02*
X-3900D01*
G01X42300Y-1300D02*
X39900D01*
G01X42100Y-1200D02*
G03I-1000J-100D01*
G01X41100Y-2500D02*
Y-100D01*
G01X41800Y-1300D02*
G03I-700J0D01*
G01X42900Y41300D02*
X40500D01*
G01X41700Y40100D02*
Y42500D01*
G01X42400Y41300D02*
G03I-700J0D01*
G01X42700Y41400D02*
G03I-1000J-100D01*
M02*
