G04 ================== begin FILE IDENTIFICATION RECORD ==================*
G04 Layout Name:  LED Panel G4 V1, 03-26-2017.brd*
G04 Film Name:    Paste_Mask_Top*
G04 File Format:  Gerber RS274X*
G04 File Origin:  Cadence Allegro 17.2-P019*
G04 Origin Date:  Thu Sep 10 19:43:02 2020*
G04 *
G04 Layer:  PIN/SOLDERMASK_TOP*
G04 Layer:  DRC ERROR CLASS/SOLDERMASK_TOP*
G04 Layer:  BOARD GEOMETRY/OUTLINE*
G04 *
G04 Offset:    (0.0000 0.0000)*
G04 Mirror:    No*
G04 Mode:      Positive*
G04 Rotation:  0*
G04 FullContactRelief:  No*
G04 UndefLineWidth:     0.0100*
G04 ================== end FILE IDENTIFICATION RECORD ====================*
%FSLAX33Y33*MOMM*%
%IR0*IPPOS*OFA0.00000B0.00000*MIA0B0*SFA1.00000B1.00000*%
%ADD14R,1.5X.4*%
%ADD13R,.4X1.5*%
%ADD15R,.375X.375*%
%ADD18R,.3X.7*%
%ADD16R,.7X.3*%
%ADD11R,.65X.5001*%
%ADD10R,.5001X.65*%
%ADD12R,3.68X1.27*%
%ADD17R,2.7X2.7*%
%ADD19C,.01*%
G75*
%LPD*%
G75*
G54D10*
X14495Y6248D03*
X14339Y3436D03*
X14495Y7185D03*
Y7966D03*
X14800Y34400D03*
X11464Y23274D03*
X12465D03*
X14800Y31300D03*
X14808Y35301D03*
Y36082D03*
X13152Y28585D03*
X12152D03*
X11464Y21556D03*
X12465D03*
X11464Y24992D03*
X12465D03*
X11464Y25773D03*
X12465D03*
X2700Y16400D03*
X3700D03*
X15495Y6248D03*
X15339Y3436D03*
X15495Y7185D03*
Y7966D03*
X28837Y3683D03*
X29837D03*
X25916D03*
X26916D03*
X28710Y8128D03*
X29710D03*
X32774Y7747D03*
X33774D03*
X34425Y3683D03*
X35425D03*
X31758D03*
X32758D03*
X15800Y34400D03*
X17619Y15308D03*
X18619D03*
X17619Y13589D03*
X18619D03*
X17619Y17026D03*
X18619D03*
X17619Y17807D03*
X18619D03*
X27500Y28000D03*
X28500D03*
X15800Y31300D03*
X15808Y35301D03*
Y36082D03*
X27932Y16891D03*
X26932D03*
X28567Y17907D03*
X27567D03*
X28567Y18796D03*
X27567D03*
X28567Y19685D03*
X27567D03*
X28567Y20574D03*
X27567D03*
X28567Y21463D03*
X27567D03*
X24500Y35800D03*
X23500D03*
X24400Y36800D03*
X23400D03*
X28900Y36500D03*
X29900D03*
X26200D03*
X27200D03*
X23900Y23700D03*
X22900D03*
X23900Y24600D03*
X22900D03*
X23900Y25400D03*
X22900D03*
X23900Y26200D03*
X22900D03*
X23900Y27000D03*
X22900D03*
X23900Y27800D03*
X22900D03*
X22200Y39200D03*
X21200D03*
G54D11*
X1093Y11215D03*
Y12215D03*
X14839Y29553D03*
Y28553D03*
X22493Y10902D03*
Y11903D03*
X21712Y10902D03*
Y11903D03*
X19213Y906D03*
Y1906D03*
X18432Y906D03*
Y1906D03*
X17963Y11434D03*
Y10434D03*
X18744Y11434D03*
Y10434D03*
X19525Y11434D03*
Y10434D03*
X23368Y10930D03*
Y11930D03*
X25908Y8009D03*
Y9009D03*
X36068Y8120D03*
Y7120D03*
X20931Y21431D03*
Y20431D03*
X21712Y21431D03*
Y20431D03*
X22493Y21431D03*
Y20431D03*
X19525Y28866D03*
Y29866D03*
X18744Y28866D03*
Y29866D03*
X16494Y18869D03*
Y19869D03*
X15713Y18869D03*
Y19869D03*
X15776Y29553D03*
Y28553D03*
X16557Y29553D03*
Y28553D03*
X38738Y14402D03*
Y13402D03*
X24200Y30400D03*
Y31400D03*
X25500Y27100D03*
Y28100D03*
X23300Y30600D03*
Y29600D03*
X18800Y18600D03*
Y19600D03*
X19600Y18600D03*
Y19600D03*
X17963Y39238D03*
Y38238D03*
X18744Y39238D03*
Y38238D03*
X19525Y39238D03*
Y38238D03*
G54D12*
X8847Y11770D03*
Y9230D03*
X4407D03*
Y11770D03*
X8847Y27770D03*
Y25230D03*
X4407D03*
Y27770D03*
X35720Y11770D03*
Y9230D03*
X31280D03*
Y11770D03*
X35720Y27770D03*
Y25230D03*
X31280D03*
Y27770D03*
G54D13*
X14300Y11700D03*
X13100D03*
X14200Y33200D03*
X8900Y22500D03*
X10100D03*
X7700D03*
X15500Y11700D03*
X15400Y33200D03*
X16600D03*
G54D14*
X13200Y4800D03*
Y6000D03*
Y3600D03*
G54D15*
X9979Y15464D03*
Y14964D03*
Y14464D03*
X8279D03*
Y14964D03*
Y15464D03*
X12946D03*
Y14964D03*
Y14464D03*
X11246D03*
Y14964D03*
Y15464D03*
X12946Y20462D03*
Y19962D03*
Y19462D03*
X11246D03*
Y19962D03*
Y20462D03*
X9979D03*
Y19962D03*
Y19462D03*
X8279D03*
Y19962D03*
Y20462D03*
X7167D03*
Y19962D03*
Y19462D03*
X5467D03*
Y19962D03*
Y20462D03*
X4355D03*
Y19962D03*
Y19462D03*
X2655D03*
Y19962D03*
Y20462D03*
X4355Y15464D03*
Y14964D03*
Y14464D03*
X2655D03*
Y14964D03*
Y15464D03*
X7167D03*
Y14964D03*
Y14464D03*
X5467D03*
Y14964D03*
Y15464D03*
X9979Y31084D03*
Y30584D03*
Y30084D03*
X8279D03*
Y30584D03*
Y31084D03*
X13103D03*
Y30584D03*
Y30084D03*
X11403D03*
Y30584D03*
Y31084D03*
X13103Y35614D03*
Y35114D03*
Y34614D03*
X11403D03*
Y35114D03*
Y35614D03*
X10135D03*
Y35114D03*
Y34614D03*
X8435D03*
Y35114D03*
Y35614D03*
X7167D03*
Y35114D03*
Y34614D03*
X5467D03*
Y35114D03*
Y35614D03*
X4199D03*
Y35114D03*
Y34614D03*
X2499D03*
Y35114D03*
Y35614D03*
X4199Y31084D03*
Y30584D03*
Y30084D03*
X2499D03*
Y30584D03*
Y31084D03*
X7167D03*
Y30584D03*
Y30084D03*
X5467D03*
Y30584D03*
Y31084D03*
X30597Y2968D03*
Y2468D03*
Y1968D03*
X28897D03*
Y2468D03*
Y2968D03*
X27629D03*
Y2468D03*
Y1968D03*
X25929D03*
Y2468D03*
Y2968D03*
X27600Y6500D03*
Y6000D03*
Y5500D03*
X25900D03*
Y6000D03*
Y6500D03*
X30600D03*
Y6000D03*
Y5500D03*
X28900D03*
Y6000D03*
Y6500D03*
X33400D03*
Y6000D03*
Y5500D03*
X31700D03*
Y6000D03*
Y6500D03*
X36100D03*
Y6000D03*
Y5500D03*
X34400D03*
Y6000D03*
Y6500D03*
X36064Y2968D03*
Y2468D03*
Y1968D03*
X34364D03*
Y2468D03*
Y2968D03*
X33409D03*
Y2468D03*
Y1968D03*
X31709D03*
Y2468D03*
Y2968D03*
X30597Y31084D03*
Y30584D03*
Y30084D03*
X28897D03*
Y30584D03*
Y31084D03*
X27785D03*
Y30584D03*
Y30084D03*
X26085D03*
Y30584D03*
Y31084D03*
X36220Y35614D03*
Y35114D03*
Y34614D03*
X34520D03*
Y35114D03*
Y35614D03*
X33409D03*
Y35114D03*
Y34614D03*
X31709D03*
Y35114D03*
Y35614D03*
X30597D03*
Y35114D03*
Y34614D03*
X28897D03*
Y35114D03*
Y35614D03*
X27785D03*
Y35114D03*
Y34614D03*
X26085D03*
Y35114D03*
Y35614D03*
X36220Y31084D03*
Y30584D03*
Y30084D03*
X34520D03*
Y30584D03*
Y31084D03*
X33409D03*
Y30584D03*
Y30084D03*
X31709D03*
Y30584D03*
Y31084D03*
G54D16*
X14500Y22250D03*
Y22750D03*
Y23250D03*
Y23750D03*
Y24250D03*
Y24750D03*
Y25250D03*
Y25750D03*
X22400Y7750D03*
Y7250D03*
Y6750D03*
Y6250D03*
Y5750D03*
Y5250D03*
Y4750D03*
Y4250D03*
X17500D03*
Y4750D03*
Y5250D03*
Y5750D03*
Y6250D03*
Y6750D03*
Y7250D03*
Y7750D03*
X25400Y17750D03*
Y17250D03*
Y16750D03*
Y16250D03*
Y15750D03*
Y15250D03*
Y14750D03*
Y14250D03*
X20500D03*
Y14750D03*
Y15250D03*
Y15750D03*
Y16250D03*
Y16750D03*
Y17250D03*
Y17750D03*
X22400Y35750D03*
Y35250D03*
Y34750D03*
Y34250D03*
Y33750D03*
Y33250D03*
Y32750D03*
Y32250D03*
X17500D03*
Y32750D03*
Y33250D03*
Y33750D03*
Y34250D03*
Y34750D03*
Y35250D03*
Y35750D03*
X19400Y25750D03*
Y25250D03*
Y24750D03*
Y24250D03*
Y23750D03*
Y23250D03*
Y22750D03*
Y22250D03*
G54D17*
X20000Y6000D03*
X23000Y16000D03*
X20000Y34000D03*
X17000Y24000D03*
G54D18*
X18200Y8450D03*
X18700D03*
X19200D03*
X19700D03*
X20200D03*
X20700D03*
X21200D03*
X21700D03*
Y3550D03*
X21200D03*
X20700D03*
X20200D03*
X19700D03*
X19200D03*
X18700D03*
X18200D03*
X21200Y18450D03*
X21700D03*
X22200D03*
X22700D03*
X23200D03*
X23700D03*
X24200D03*
X24700D03*
Y13550D03*
X24200D03*
X23700D03*
X23200D03*
X22700D03*
X22200D03*
X21700D03*
X21200D03*
X18200Y36450D03*
X18700D03*
X19200D03*
X19700D03*
X20200D03*
X20700D03*
X21200D03*
X21700D03*
Y31550D03*
X21200D03*
X20700D03*
X20200D03*
X19700D03*
X19200D03*
X18700D03*
X18200D03*
X15200Y26450D03*
X15700D03*
X16200D03*
X16700D03*
X17200D03*
X17700D03*
X18200D03*
X18700D03*
Y21550D03*
X18200D03*
X17700D03*
X17200D03*
X16700D03*
X16200D03*
X15700D03*
X15200D03*
G54D19*
G01X40000Y40000D02*
X0D01*
Y0D01*
X40000D01*
Y40000D01*
G01X0Y-1400D02*
X-2400D01*
G01X-1200Y-2600D02*
Y-200D01*
G01X-500Y-1400D02*
G03I-700J0D01*
G01X-200Y-1300D02*
G03I-1000J-100D01*
G01X-1700Y41300D02*
G03I-1000J-100D01*
G01X-2000Y41200D02*
G03I-700J0D01*
G01X-2700Y40000D02*
Y42400D01*
G01X-1500Y41200D02*
X-3900D01*
G01X42300Y-1300D02*
X39900D01*
G01X42100Y-1200D02*
G03I-1000J-100D01*
G01X41100Y-2500D02*
Y-100D01*
G01X41800Y-1300D02*
G03I-700J0D01*
G01X42900Y41300D02*
X40500D01*
G01X41700Y40100D02*
Y42500D01*
G01X42400Y41300D02*
G03I-700J0D01*
G01X42700Y41400D02*
G03I-1000J-100D01*
M02*
