G04 ================== begin FILE IDENTIFICATION RECORD ==================*
G04 Layout Name:  LED Panel G4 V1, 03-26-2017.brd*
G04 Film Name:    Paste_Mask_Top*
G04 File Format:  Gerber RS274X*
G04 File Origin:  Cadence Allegro 17.4-S007*
G04 Origin Date:  Wed Nov 11 20:24:21 2020*
G04 *
G04 Layer:  PIN/SOLDERMASK_TOP*
G04 Layer:  DRC ERROR CLASS/SOLDERMASK_TOP*
G04 Layer:  BOARD GEOMETRY/OUTLINE*
G04 *
G04 Offset:    (0.0000 0.0000)*
G04 Mirror:    No*
G04 Mode:      Positive*
G04 Rotation:  0*
G04 FullContactRelief:  No*
G04 UndefLineWidth:     0.0100*
G04 ================== end FILE IDENTIFICATION RECORD ====================*
%FSLAX46Y46*MOMM*%
%IR0*IPPOS*OFA0.00000B0.00000*MIA0B0*SFA1.00000B1.00000*%
%ADD15R,1.5X.4*%
%ADD14R,.4X1.5*%
%ADD11R,.375X.375*%
%ADD17R,.3X.7*%
%ADD16R,.7X.3*%
%ADD10R,.65X.5001*%
%ADD13R,.5001X.65*%
%ADD12R,3.68X1.27*%
%ADD18R,2.7X2.7*%
%ADD19C,.01*%
G75*
%LPD*%
G75*
G54D10*
X1093400Y11214900D03*
Y12215100D03*
X14839000Y28553100D03*
Y29553300D03*
X18431600Y905700D03*
Y1905900D03*
X17963000Y11434100D03*
Y10433900D03*
X16494400Y18868700D03*
X15713400D03*
X16494400Y19868900D03*
X15713400D03*
X15776200Y28553100D03*
X16557200D03*
X15776200Y29553300D03*
X16557200D03*
X17963000Y39237700D03*
Y38237500D03*
X19212600Y905700D03*
Y1905900D03*
X18744000Y11434100D03*
Y10433900D03*
X19525000Y11434100D03*
Y10433900D03*
X18800000Y18599900D03*
X19600000D03*
X20930800Y21430900D03*
Y20430700D03*
X18800000Y19600100D03*
X19600000D03*
X19525000Y28865500D03*
Y29865700D03*
X18744000Y28865500D03*
Y29865700D03*
Y39237700D03*
Y38237500D03*
X19525000Y39237700D03*
Y38237500D03*
X22492800Y10902500D03*
Y11902700D03*
X21711800Y10902500D03*
Y11902700D03*
X23368000Y10929900D03*
Y11930100D03*
X21711800Y21430900D03*
Y20430700D03*
X22492800Y21430900D03*
Y20430700D03*
X24200000Y30399900D03*
Y31400100D03*
X23300000Y30600100D03*
Y29599900D03*
X25908000Y8008900D03*
Y9009100D03*
X25500000Y27099900D03*
Y28100100D03*
X36068000Y8120100D03*
Y7119900D03*
X38737600Y14401900D03*
Y13401700D03*
G54D11*
X2499200Y30083800D03*
Y30583800D03*
Y31083800D03*
Y34613600D03*
Y35113600D03*
Y35613600D03*
X4355400Y15463800D03*
Y14963800D03*
Y14463800D03*
X2655400D03*
Y14963800D03*
Y15463800D03*
X5467000Y14463800D03*
Y14963800D03*
Y15463800D03*
Y19462200D03*
Y19962200D03*
Y20462200D03*
X4355400D03*
Y19962200D03*
Y19462200D03*
X2655400D03*
Y19962200D03*
Y20462200D03*
X4199200Y31083800D03*
Y30583800D03*
Y30083800D03*
X5467000D03*
Y30583800D03*
Y31083800D03*
Y34613600D03*
X4199200D03*
X5467000Y35113600D03*
Y35613600D03*
X4199200D03*
Y35113600D03*
X8278600Y14463800D03*
Y14963800D03*
Y15463800D03*
X7167000D03*
Y14963800D03*
Y14463800D03*
X8278600Y19462200D03*
Y19962200D03*
Y20462200D03*
X7167000D03*
Y19962200D03*
Y19462200D03*
X8278600Y30083800D03*
Y30583800D03*
Y31083800D03*
X7167000D03*
Y30583800D03*
Y30083800D03*
X8434800Y34613600D03*
X7167000D03*
X8434800Y35113600D03*
Y35613600D03*
X7167000D03*
Y35113600D03*
X9978600Y15463800D03*
Y14963800D03*
Y14463800D03*
X11246400D03*
Y14963800D03*
Y15463800D03*
Y19462200D03*
Y19962200D03*
Y20462200D03*
X9978600D03*
Y19962200D03*
Y19462200D03*
Y31083800D03*
Y30583800D03*
Y30083800D03*
X11402600D03*
Y30583800D03*
Y31083800D03*
Y34613600D03*
X10134800D03*
X11402600Y35113600D03*
Y35613600D03*
X10134800D03*
Y35113600D03*
X12946400Y15463800D03*
Y14963800D03*
Y14463800D03*
Y20462200D03*
Y19962200D03*
Y19462200D03*
X13102600Y31083800D03*
Y30583800D03*
Y30083800D03*
Y34613600D03*
Y35613600D03*
Y35113600D03*
X27629200Y2967800D03*
Y2467800D03*
Y1967800D03*
X25929200D03*
Y2467800D03*
Y2967800D03*
X27600000Y6000000D03*
Y5500000D03*
X25900000D03*
Y6000000D03*
X27600000Y6500000D03*
X25900000D03*
X27785400Y31083800D03*
Y30583800D03*
Y30083800D03*
X26085400D03*
Y30583800D03*
Y31083800D03*
X27785400Y34613600D03*
X26085400D03*
X27785400Y35613600D03*
Y35113600D03*
X26085400D03*
Y35613600D03*
X30597000Y2967800D03*
Y2467800D03*
Y1967800D03*
X28897000D03*
Y2467800D03*
Y2967800D03*
X30600000Y6000000D03*
Y5500000D03*
X28900000D03*
Y6000000D03*
X30600000Y6500000D03*
X28900000D03*
X30597000Y31083800D03*
Y30583800D03*
Y30083800D03*
X28897000D03*
Y30583800D03*
Y31083800D03*
X30597000Y34613600D03*
X28897000D03*
X30597000Y35613600D03*
Y35113600D03*
X28897000D03*
Y35613600D03*
X33408600Y2967800D03*
Y2467800D03*
Y1967800D03*
X31708600D03*
Y2467800D03*
Y2967800D03*
X33400000Y6000000D03*
Y5500000D03*
X31700000D03*
Y6000000D03*
X33400000Y6500000D03*
X31700000D03*
X33408600Y31083800D03*
Y30583800D03*
Y30083800D03*
X31708600D03*
Y30583800D03*
Y31083800D03*
X33408600Y34613600D03*
X31708600D03*
X33408600Y35613600D03*
Y35113600D03*
X31708600D03*
Y35613600D03*
X36064000Y2967800D03*
Y2467800D03*
Y1967800D03*
X34364000D03*
Y2467800D03*
Y2967800D03*
X36100000Y6000000D03*
Y5500000D03*
X34400000D03*
Y6000000D03*
X36100000Y6500000D03*
X34400000D03*
X36220200Y31083800D03*
Y30583800D03*
Y30083800D03*
X34520200D03*
Y30583800D03*
Y31083800D03*
X36220200Y34613600D03*
X34520200D03*
X36220200Y35613600D03*
Y35113600D03*
X34520200D03*
Y35613600D03*
G54D12*
X4406900Y9230400D03*
Y11770400D03*
Y25229800D03*
Y27769800D03*
X8846900Y9230400D03*
Y11770400D03*
Y25229800D03*
Y27769800D03*
X31280100Y9230400D03*
Y11770400D03*
Y25229800D03*
Y27769800D03*
X35720100Y9230400D03*
Y11770400D03*
Y25229800D03*
Y27769800D03*
G54D13*
X2699900Y16400000D03*
X3700100D03*
X11464500Y21555600D03*
Y23273800D03*
Y24992000D03*
Y25773000D03*
X14495100Y6248000D03*
X14338900Y3436400D03*
X14495100Y7185200D03*
Y7966200D03*
X12464700Y21555600D03*
Y23273800D03*
Y24992000D03*
X13152300Y28584600D03*
X12152100D03*
X12464700Y25773000D03*
X14799900Y31300000D03*
Y34400000D03*
X14807500Y35301200D03*
Y36082200D03*
X15495300Y6248000D03*
X15339100Y3436400D03*
X15495300Y7185200D03*
Y7966200D03*
X17619100Y15307600D03*
Y13589400D03*
Y17025800D03*
Y17806800D03*
X15800100Y31300000D03*
Y34400000D03*
X15807700Y35301200D03*
Y36082200D03*
X18619300Y15307600D03*
Y13589400D03*
Y17025800D03*
Y17806800D03*
X21199900Y39200000D03*
X23900100Y23700000D03*
X22899900D03*
X23900100Y24600000D03*
X22899900D03*
X23900100Y25400000D03*
X22899900D03*
X23900100Y26200000D03*
X22899900D03*
X23900100Y27000000D03*
X22899900D03*
X23900100Y27800000D03*
X22899900D03*
X24500100Y35800000D03*
X23499900D03*
X24400100Y36800000D03*
X23399900D03*
X22200100Y39200000D03*
X25915900Y3683000D03*
X26916100D03*
X26931900Y16891000D03*
X27566900Y17907000D03*
Y18796000D03*
Y19685000D03*
Y20574000D03*
Y21463000D03*
X27499900Y28000000D03*
X26199900Y36500000D03*
X27200100D03*
X28836900Y3683000D03*
X29837100D03*
X28709900Y8128000D03*
X29710100D03*
X27932100Y16891000D03*
X28567100Y17907000D03*
Y18796000D03*
Y19685000D03*
Y20574000D03*
Y21463000D03*
X28500100Y28000000D03*
X28899900Y36500000D03*
X29900100D03*
X31757900Y3683000D03*
X32758100D03*
X32773900Y7747000D03*
X33774100D03*
X34424900Y3683000D03*
X35425100D03*
G54D14*
X7700000Y22500000D03*
X8900000D03*
X10100000D03*
X14300000Y11700000D03*
X13100000D03*
X14200000Y33200000D03*
X15500000Y11700000D03*
X15400000Y33200000D03*
X16600000D03*
G54D15*
X13200000Y4800000D03*
Y6000000D03*
Y3600000D03*
G54D16*
X14500000Y22250000D03*
Y22750000D03*
Y23250000D03*
Y23750000D03*
Y24250000D03*
Y24750000D03*
Y25250000D03*
Y25750000D03*
X17500000Y4250000D03*
Y4750000D03*
Y5250000D03*
Y5750000D03*
Y6250000D03*
Y6750000D03*
Y7250000D03*
Y7750000D03*
Y32250000D03*
Y32750000D03*
Y33250000D03*
Y33750000D03*
Y34250000D03*
Y34750000D03*
Y35250000D03*
Y35750000D03*
X20500000Y14250000D03*
Y14750000D03*
Y15250000D03*
Y15750000D03*
Y16250000D03*
Y16750000D03*
Y17250000D03*
Y17750000D03*
X19400000Y25250000D03*
Y24750000D03*
Y24250000D03*
Y23750000D03*
Y23250000D03*
Y22750000D03*
Y22250000D03*
Y25750000D03*
X22400000Y6250000D03*
Y5750000D03*
Y5250000D03*
Y4750000D03*
Y4250000D03*
Y7750000D03*
Y7250000D03*
Y6750000D03*
Y34750000D03*
Y34250000D03*
Y33750000D03*
Y33250000D03*
Y32750000D03*
Y32250000D03*
Y35750000D03*
Y35250000D03*
X25400000Y15750000D03*
Y15250000D03*
Y14750000D03*
Y14250000D03*
Y17750000D03*
Y17250000D03*
Y16750000D03*
Y16250000D03*
G54D17*
X18200000Y3550000D03*
Y8450000D03*
Y21550000D03*
X17700000D03*
X17200000D03*
X16700000D03*
X16200000D03*
X15700000D03*
X15200000D03*
Y26450000D03*
X15700000D03*
X16200000D03*
X16700000D03*
X17200000D03*
X17700000D03*
X18200000D03*
Y31550000D03*
Y36450000D03*
X21200000Y3550000D03*
X20700000D03*
X20200000D03*
X19700000D03*
X19200000D03*
X18700000D03*
Y8450000D03*
X19200000D03*
X19700000D03*
X20200000D03*
X20700000D03*
X21200000D03*
Y13550000D03*
Y18450000D03*
X18700000Y21550000D03*
Y26450000D03*
X21200000Y31550000D03*
X20700000D03*
X20200000D03*
X19700000D03*
X19200000D03*
X18700000D03*
Y36450000D03*
X19200000D03*
X19700000D03*
X20200000D03*
X20700000D03*
X21200000D03*
X21700000Y3550000D03*
Y8450000D03*
X24200000Y13550000D03*
X23700000D03*
X23200000D03*
X22700000D03*
X22200000D03*
X21700000D03*
Y18450000D03*
X22200000D03*
X22700000D03*
X23200000D03*
X23700000D03*
X24200000D03*
X21700000Y31550000D03*
Y36450000D03*
X24700000Y13550000D03*
Y18450000D03*
G54D18*
X17000000Y24000000D03*
X20000000Y6000000D03*
Y34000000D03*
X23000000Y16000000D03*
G54D19*
G01X0Y-1400000D02*
X-2400000D01*
G01X-1200000Y-2600000D02*
Y-200000D01*
G01X-500000Y-1400000D02*
G03I-700000J0D01*
G01X-200000Y-1300000D02*
G03I-1000000J-100000D01*
G01X-1700000Y41300000D02*
G03I-1000000J-100000D01*
G01X-2000000Y41200000D02*
G03I-700000J0D01*
G01X-2700000Y40000000D02*
Y42400000D01*
G01X-1500000Y41200000D02*
X-3900000D01*
G01X39999900Y39999900D02*
X0D01*
Y0D01*
X39999900D01*
Y39999900D01*
G01X42300000Y-1300000D02*
X39900000D01*
G01X42100000Y-1200000D02*
G03I-1000000J-100000D01*
G01X41100000Y-2500000D02*
Y-100000D01*
G01X41800000Y-1300000D02*
G03I-700000J0D01*
G01X41700000Y40100000D02*
Y42500000D01*
G01X42400000Y41300000D02*
G03I-700000J0D01*
G01X42700000Y41400000D02*
G03I-1000000J-100000D01*
G01X42900000Y41300000D02*
X40500000D01*
M02*
