G04 ================== begin FILE IDENTIFICATION RECORD ==================*
G04 Layout Name:  LED Panel G4 V1, 03-26-2017.brd*
G04 Film Name:    PWR*
G04 File Format:  Gerber RS274X*
G04 File Origin:  Cadence Allegro 17.2-P019*
G04 Origin Date:  Wed Aug 12 17:31:23 2020*
G04 *
G04 Layer:  VIA CLASS/PWR*
G04 Layer:  PIN/PWR*
G04 Layer:  ETCH/PWR*
G04 Layer:  BOARD GEOMETRY/OUTLINE*
G04 *
G04 Offset:    (0.0000 0.0000)*
G04 Mirror:    No*
G04 Mode:      Positive*
G04 Rotation:  0*
G04 FullContactRelief:  No*
G04 UndefLineWidth:     0.1000*
G04 ================== end FILE IDENTIFICATION RECORD ====================*
%FSLAX31Y31*MOMM*%
%IR0*IPPOS*OFA0.00000B0.00000*MIA0B0*SFA1.00000B1.00000*%
%ADD10C,.4*%
%ADD11C,.1*%
%ADD12C,.6544*%
G75*
%LPD*%
G75*
G36*
G01X4Y4D02*
Y397D01*
X16D01*
G02X17Y396I0J-1D01*
G03X23I3J-1D01*
G02X24Y397I1J0D01*
G01X41D01*
G02X42Y396I0J-1D01*
G03X48I3J-1D01*
G02X49Y397I1J0D01*
G01X66D01*
G02X67Y396I0J-1D01*
G03X73I3J-1D01*
G02X74Y397I1J0D01*
G01X91D01*
G02X92Y396I0J-1D01*
G03X98I3J-1D01*
G02X99Y397I1J0D01*
G01X116D01*
G02X117Y396I0J-1D01*
G03X123I3J-1D01*
G02X124Y397I1J0D01*
G01X141D01*
G02X142Y396I0J-1D01*
G03X148I3J-1D01*
G02X149Y397I1J0D01*
G01X166D01*
G02X167Y396I0J-1D01*
G03X173I3J-1D01*
G02X174Y397I1J0D01*
G01X176D01*
G03X183Y397I3J0D01*
G01X184Y397D01*
G03X191Y397I3J0D01*
G01X192Y397D01*
G03X199Y397I3J0D01*
G01X223Y397D01*
G02X224Y396I0J-1D01*
G03X231I3J-1D01*
G02X232Y397I1J0D01*
G01X391D01*
G02X392Y396I0J-1D01*
G03X395Y392I3J-1D01*
G02X396Y391I0J-1D01*
G01Y374D01*
G02X395Y373I-1J0D01*
G03Y367I0J-3D01*
G02X396Y366I0J-1D01*
G01Y349D01*
G02X395Y348I-1J0D01*
G03Y342I0J-3D01*
G02X396Y341I0J-1D01*
G01Y324D01*
G02X395Y323I-1J0D01*
G03Y317I0J-3D01*
G02X396Y316I0J-1D01*
G01Y299D01*
G02X395Y298I-1J0D01*
G03Y292I0J-3D01*
G02X396Y291I0J-1D01*
G01Y274D01*
G02X395Y273I-1J0D01*
G03Y267I0J-3D01*
G02X396Y266I0J-1D01*
G01Y249D01*
G02X395Y248I-1J0D01*
G03Y242I0J-3D01*
G02X396Y241I0J-1D01*
G01Y224D01*
G02X395Y223I-1J0D01*
G03Y217I0J-3D01*
G02X396Y216I0J-1D01*
G01Y185D01*
G02X395Y184I-1J0D01*
G03Y178I-1J-3D01*
G02X396Y177I0J-1D01*
G01Y159D01*
G02X395Y158I-1J0D01*
G03Y152I0J-3D01*
G02X396Y151I0J-1D01*
G01Y134D01*
G02X395Y133I-1J0D01*
G03Y127I0J-3D01*
G02X396Y126I0J-1D01*
G01Y109D01*
G02X395Y108I-1J0D01*
G03Y102I0J-3D01*
G02X396Y101I0J-1D01*
G01Y84D01*
G02X395Y83I-1J0D01*
G03Y77I0J-3D01*
G02X396Y76I0J-1D01*
G01Y59D01*
G02X395Y58I-1J0D01*
G03Y52I0J-3D01*
G02X396Y51I0J-1D01*
G01Y34D01*
G02X395Y33I-1J0D01*
G03Y27I0J-3D01*
G02X396Y26I0J-1D01*
G01Y9D01*
G02X395Y8I-1J0D01*
G03X392Y5I0J-3D01*
G02X391Y4I-1J0D01*
G01X374D01*
G02X373Y5I0J1D01*
G03X367I-3J0D01*
G02X366Y4I-1J0D01*
G01X349D01*
G02X348Y5I0J1D01*
G03X342I-3J0D01*
G02X341Y4I-1J0D01*
G01X324D01*
G02X323Y5I0J1D01*
G03X317I-3J0D01*
G02X316Y4I-1J0D01*
G01X315D01*
G02X315Y6I0J1D01*
G03X309I-3J2D01*
G02X308Y4I-1J-1D01*
G01X299D01*
G02X298Y5I0J1D01*
G03X292I-3J0D01*
G02X291Y4I-1J0D01*
G01X289D01*
G02X288Y6I0J1D01*
G03X283I-2J2D01*
G02X283Y4I-1J-1D01*
G01X273D01*
G03X267Y4I-3J-1D01*
G01X249Y4D01*
G02X248Y5I0J1D01*
G03X242I-3J0D01*
G02X241Y4I-1J0D01*
G01X224D01*
G02X223Y5I0J1D01*
G03X217Y5I-3J0D01*
G01X217Y4D01*
X215D01*
Y5D01*
G03X210Y5I-3J2D01*
G01X210Y4D01*
X209D01*
G02X208Y5I0J1D01*
G03X201I-3J0D01*
G02X200Y4I-1J0D01*
G01X149D01*
G02X148Y5I0J1D01*
G03X142I-3J0D01*
G02X141Y4I-1J0D01*
G01X124D01*
G02X123Y5I0J1D01*
G03X117I-3J0D01*
G02X116Y4I-1J0D01*
G01X99D01*
G02X98Y5I0J1D01*
G03X92I-3J0D01*
G02X91Y4I-1J0D01*
G01X74D01*
G02X73Y5I0J1D01*
G03X67I-3J0D01*
G02X66Y4I-1J0D01*
G01X49D01*
G02X48Y5I0J1D01*
G03X42I-3J0D01*
G02X41Y4I-1J0D01*
G01X24D01*
G02X23Y5I0J1D01*
G03X17I-3J0D01*
G02X16Y4I-1J0D01*
G01X4D01*
G37*
%LPC*%
G75*
G36*
G01X243Y380D02*
G03X245Y379I1J0D01*
G02X244Y375I2J-3D01*
G03X242Y375I-1J0D01*
G02X243Y380I-2J3D01*
G37*
G36*
G01X269Y380D02*
G03X270Y379I1J0D01*
G02X267Y376I0J-3D01*
G03X266Y376I-1J0D01*
G02X269Y380I0J3D01*
G37*
G36*
G01X293Y377D02*
G03Y376I1J-1D01*
G02X288I-2J-2D01*
G03Y377I-1J1D01*
G02X293I2J2D01*
G37*
G36*
G01X197Y375D02*
G03X198Y376I0J1D01*
G02X201Y378I3J-1D01*
G03X201Y379I0J1D01*
G02X205Y376I3J0D01*
G03X205Y375I0J-1D01*
G02X201Y372I-3J0D01*
G03X200Y371I0J-1D01*
G02X197Y375I-3J1D01*
G37*
G36*
G01X270Y351D02*
G03X269Y351I0J-1D01*
G02X266Y354I-3J1D01*
G03X267Y355I0J1D01*
G02X270Y351I3J-1D01*
G37*
G36*
G01X124Y352D02*
G03X123Y351I0J-1D01*
G02X120Y354I-3J0D01*
G03X121Y355I0J1D01*
G02X124Y352I3J0D01*
G37*
G36*
G01X325Y351D02*
G03X326Y350I1J0D01*
G02X323Y347I0J-3D01*
G03X322Y348I-1J0D01*
G02X325Y351I0J3D01*
G37*
G36*
G01X297D02*
G03X298Y350I1J0D01*
G02X295Y347I0J-3D01*
G03X294Y348I-1J0D01*
G02X297Y351I0J3D01*
G37*
G36*
G01X194Y343D02*
G03X193I0J0D01*
G02X189Y347I-2J2D01*
G03Y348I0J0D01*
G02X193Y352I2J2D01*
G03X194I0J0D01*
G02X198I2J-2D01*
G03X199I0J0D01*
G02X203I2J-2D01*
G03X204I0J0D01*
G02X208Y348I2J-2D01*
G03Y347I0J0D01*
G02X204Y343I-2J-2D01*
G03X203I0J0D01*
G02X199I-2J2D01*
G03X198I0J0D01*
G02X194I-2J2D01*
G37*
G36*
G01X134Y327D02*
G03X133Y327I-1J-1D01*
G02X132Y332I-3J2D01*
G03X133Y332I1J1D01*
G02X134Y327I3J-2D01*
G37*
G36*
G01X235Y326D02*
G03X235Y324I1J-1D01*
G02X230Y325I-3J-2D01*
G03X230Y326I-1J1D01*
G02X233Y331I3J2D01*
G03X234Y332I0J1D01*
G02X237Y328I3J-1D01*
G03X236Y327I0J-1D01*
G02X235Y326I-3J1D01*
G37*
G36*
G01X247Y324D02*
G03Y322I1J-1D01*
G02X243I-2J-2D01*
G03Y324I-1J1D01*
G02X247I2J2D01*
G37*
G36*
G01X118Y318D02*
G03X116Y318I-1J-1D01*
G02X116Y322I-2J2D01*
G03X118Y322I1J1D01*
G02X118Y318I2J-2D01*
G37*
G36*
G01X146Y302D02*
G03X145Y302I-1J-1D01*
G02X144Y307I-3J2D01*
G03X146Y307I1J1D01*
G02X146Y302I3J-2D01*
G37*
G36*
G01X212Y302D02*
G03Y301I1J-1D01*
G02X207I-2J-2D01*
G03Y302I-1J1D01*
G02X212I2J2D01*
G37*
G36*
G01X199Y277D02*
G03X198I-1J-1D01*
G02Y282I-2J2D01*
G03X199I1J1D01*
G02Y277I2J-2D01*
G37*
G36*
G01X173Y274D02*
G03X173Y275I0J0D01*
G02X169Y276I-1J3D01*
G03X168Y276I-1J-1D01*
G02X168Y280I-2J2D01*
G03X170Y280I1J1D01*
G02X175Y279I2J-2D01*
G03X176Y278I0J0D01*
G02X173Y274I1J-3D01*
G37*
G36*
G01X188Y276D02*
G03X189Y275I1J0D01*
G02X186Y272I0J-3D01*
G03X185Y273I-1J0D01*
G02X188Y276I0J3D01*
G37*
G36*
G01X204Y252D02*
G03Y251I1J-1D01*
G02X199I-2J-2D01*
G03Y252I-1J1D01*
G02X204I2J2D01*
G37*
G36*
G01X164Y243D02*
G03X162I-1J-1D01*
G02X158Y247I-2J2D01*
G03Y248I0J0D01*
G02X162Y252I2J2D01*
G03X164I1J1D01*
G02X168I2J-2D01*
G03X170I1J1D01*
G02X174Y248I2J-2D01*
G03Y247I0J0D01*
G02X170Y243I-2J-2D01*
G03X168I-1J-1D01*
G02X164I-2J2D01*
G37*
G36*
G01X181Y201D02*
G03X180Y200I0J-1D01*
G02X178Y204I-3J1D01*
G03X179Y205I0J1D01*
G02X183Y207I3J-1D01*
G03X184Y208I0J1D01*
G02X186Y203I3J-1D01*
G03X185Y203I0J-1D01*
G02X181Y201I-3J1D01*
G37*
G36*
G01X121Y202D02*
G03X120Y201I0J-1D01*
G02X116Y203I-3J-1D01*
G03X117Y204I0J1D01*
G02X121Y202I3J1D01*
G37*
G36*
G01X86Y202D02*
G03X86Y204I-1J1D01*
G02X91Y208I2J2D01*
G03X92Y207I1J1D01*
G02X91Y203I2J-3D01*
G03X90Y203I-1J-1D01*
G03X89Y202I0J-1D01*
G02X86Y202I-2J-3D01*
G37*
G36*
G01X237Y153D02*
G03Y152I0J0D01*
G02X233I-2J-2D01*
G03Y153I0J0D01*
G02X237I2J2D01*
G37*
G36*
G01X222Y148D02*
G03X221I0J0D01*
G02X217Y152I-2J2D01*
G03Y153I0J0D01*
G02X221Y157I2J2D01*
G03X222I0J0D01*
G02X226Y153I2J-2D01*
G03Y152I0J0D01*
G02X222Y148I-2J-2D01*
G37*
G36*
G01X93Y151D02*
G03X92Y150I0J-1D01*
G02X88Y153I-3J-1D01*
G03X89Y154I0J1D01*
G02X93Y151I3J1D01*
G37*
G36*
G01X265Y150D02*
G03X265Y149I0J-1D01*
G02X261Y150I-3J-2D01*
G03X261Y151I0J1D01*
G02X265Y150I3J2D01*
G37*
G36*
G01X199Y123D02*
G03X198Y122I0J-1D01*
G02X192Y122I-3J0D01*
G03X191Y123I-1J0D01*
G02X191Y130I0J3D01*
G03X192Y131I0J1D01*
G02X198Y131I3J-1D01*
G03X199Y130I1J0D01*
G02X199Y123I0J-3D01*
G37*
G36*
G01X165Y123D02*
G03Y121I1J-1D01*
G02X160I-2J-2D01*
G03Y123I-1J1D01*
G02X165I2J2D01*
G37*
G36*
G01X237Y98D02*
G03X236Y97I0J-1D01*
G02X233Y100I-3J0D01*
G03X234Y101I0J1D01*
G02X237Y98I3J0D01*
G37*
G36*
G01X84Y94D02*
G03X82I-1J-1D01*
G02Y98I-2J2D01*
G03X84I1J1D01*
G02X88I2J-2D01*
G03X90I1J1D01*
G02X94I2J-2D01*
G03X96I1J1D01*
G02Y94I2J-2D01*
G03X94I-1J-1D01*
G02X90I-2J2D01*
G03X88I-1J-1D01*
G02X84I-2J2D01*
G37*
G36*
G01X354Y77D02*
G03X353Y75I0J-1D01*
G02X349Y78I-3J-1D01*
G03X349Y79I0J1D01*
G02X354Y77I3J1D01*
G37*
G36*
G01X326Y76D02*
G03X325Y75I0J-1D01*
G02X322Y78I-3J-1D01*
G03X322Y79I0J1D01*
G02X326Y76I3J1D01*
G37*
G36*
G01X194Y68D02*
G03X193I0J0D01*
G02Y72I-2J2D01*
G03X194I0J0D01*
G02X198Y72I2J-2D01*
G03X200I1J1D01*
G02Y68I2J-2D01*
G03X198I-1J-1D01*
G02X194Y68I-2J2D01*
G37*
G36*
G01X139Y73D02*
G03X139Y72I1J-1D01*
G02X135Y71I-2J-3D01*
G03X134Y72I-1J1D01*
G02X139Y73I2J3D01*
G37*
G36*
G01X148Y56D02*
G03X149Y56I0J0D01*
G02X147Y52I1J-3D01*
G03X146Y52I0J0D01*
G02X148Y56I-1J3D01*
G37*
G36*
G01X194Y48D02*
G03X193I0J0D01*
G02X189Y52I-2J2D01*
G03Y53I0J0D01*
G02X193Y57I2J2D01*
G03X194I0J0D01*
G02X198I2J-2D01*
G03X199I0J0D01*
G02X203Y53I2J-2D01*
G03Y52I0J0D01*
G02X199Y48I-2J-2D01*
G03X198I0J0D01*
G02X194I-2J2D01*
G37*
G36*
G01X344Y50D02*
G03X345Y49I1J0D01*
G02X341Y46I0J-3D01*
G03X340Y47I-1J0D01*
G02X344Y50I0J3D01*
G37*
G36*
G01X233Y49D02*
G03Y48I1J-1D01*
G02X229I-2J-2D01*
G03Y49I-1J1D01*
G02X233I2J2D01*
G37*
G36*
G01X247Y32D02*
G03X249Y32I1J1D01*
G02X248Y27I2J-3D01*
G03X247Y27I-1J-1D01*
G02X247Y32I-2J3D01*
G37*
G36*
G01X219Y29D02*
G03X221Y29I1J1D01*
G02X221Y24I2J-2D01*
G03X219Y24I-1J-1D01*
G02X219Y29I-2J2D01*
G37*
G36*
G01X201Y25D02*
G03X200Y24I0J-1D01*
G02X198Y28I-3J1D01*
G03X199Y29I0J1D01*
G02X201Y25I3J-1D01*
G37*
G36*
G01X352Y27D02*
G03X352Y25I0J-1D01*
G02X347Y28I-3J-1D01*
G03X348Y29I0J1D01*
G02X352Y27I3J1D01*
G37*
G36*
G01X326Y26D02*
G03X325Y25I0J-1D01*
G02X322Y28I-3J-1D01*
G03X322Y29I0J1D01*
G02X326Y26I3J1D01*
G37*
G36*
G01X297Y28D02*
G03X297Y27I0J0D01*
G02X293Y27I-2J-2D01*
G03X293Y28I0J0D01*
G02X297Y28I2J2D01*
G37*
G36*
G01X317Y376D02*
G02X315Y379I-3J0D01*
G03X317Y380I0J1D01*
G02X319Y377I3J0D01*
G03X317Y376I0J-1D01*
G37*
G36*
G01X142Y356D02*
G02X141Y352I2J-3D01*
G03X139Y352I-1J0D01*
G02X140Y356I-2J3D01*
G03X142Y356I1J0D01*
G37*
G36*
G01X115Y328D02*
G02X115Y331I-3J1D01*
G03X117Y331I1J1D01*
G02X117Y328I3J-1D01*
G03X115Y328I-1J-1D01*
G37*
G36*
G01X70Y325D02*
G02X67Y322I0J-3D01*
G03X66Y323I-1J0D01*
G02X62Y326I0J3D01*
G03X61Y327I-1J0D01*
G02X63Y330I-1J3D01*
G03X64Y329I1J0D01*
G02X69Y326I1J-3D01*
G03X70Y325I1J0D01*
G37*
G36*
G01X297Y298D02*
G02X293Y298I-2J-3D01*
G03X293Y299I-1J1D01*
G02X297Y299I2J3D01*
G03X297Y298I1J-1D01*
G37*
G36*
G01X273Y297D02*
G02X269Y298I-3J-2D01*
G03X269Y300I0J1D01*
G02X273Y299I3J2D01*
G03X273Y297I0J-1D01*
G37*
G36*
G01X218Y247D02*
G02X217Y244I2J-2D01*
G03X215Y245I-1J0D01*
G02X216Y248I-2J2D01*
G03X218Y247I1J0D01*
G37*
G36*
G01X223Y226D02*
G02X217Y226I-3J1D01*
G03X215Y227I-1J0D01*
G02X217Y230I-1J3D01*
G03X219Y229I1J0D01*
G02X221Y229I1J-3D01*
G03X222Y230I0J1D01*
G02X224Y226I3J-1D01*
G03X223Y226I0J-1D01*
G37*
G36*
G01X229Y195D02*
G02X228Y200I-2J2D01*
G03X230Y200I1J1D01*
G02X233Y201I2J-2D01*
G03X234Y202I0J1D01*
G02X240I3J-1D01*
G03X241Y201I1J0D01*
G02X243Y201I1J-3D01*
G03X244Y202I0J1D01*
G02X246Y200I3J1D01*
G03X245Y198I0J-1D01*
G02X239Y197I-3J-1D01*
G03X238Y198I-1J0D01*
G02X236I-1J3D01*
G03X235Y197I0J-1D01*
G02X230Y195I-3J1D01*
G03X229Y195I-1J-1D01*
G37*
G36*
G01X265Y173D02*
G02X263Y176I-3J-1D01*
G03X264Y177I0J1D01*
G02X266Y174I3J1D01*
G03X265Y173I0J-1D01*
G37*
G36*
G01X167Y151D02*
G02X165Y154I-3J0D01*
G03X167Y155I0J1D01*
G02X169Y152I3J0D01*
G03X167Y151I0J-1D01*
G37*
G36*
G01X67Y153D02*
G02X64Y150I0J-3D01*
G03X63Y151I-1J0D01*
G02X66Y154I0J3D01*
G03X67Y153I1J0D01*
G37*
G36*
G01X39Y153D02*
G02X36Y150I0J-3D01*
G03X35Y151I-1J0D01*
G02X38Y154I0J3D01*
G03X39Y153I1J0D01*
G37*
G36*
G01X21Y151D02*
G02X17Y151I-2J-2D01*
G03X18Y153I0J1D01*
G02X22Y152I2J2D01*
G03X21Y151I0J-1D01*
G37*
G36*
G01X245Y122D02*
G02X239Y121I-3J0D01*
G03X238Y122I-1J0D01*
G02X234Y124I-1J3D01*
G03X233Y125I-1J0D01*
G02X231Y125I-1J3D01*
G03X230Y124I0J-1D01*
G02X227Y128I-3J1D01*
G03X229Y129I0J1D01*
G02X235Y129I3J-1D01*
G03X236Y129I1J0D01*
G02X240Y126I1J-3D01*
G03X241Y125I1J0D01*
G02X243Y125I1J-3D01*
G03X244Y126I0J1D01*
G02X248Y130I3J0D01*
G02X251Y126I4J0D01*
G03X250Y126I0J0D01*
G02X246Y124I-3J1D01*
G03X245Y122I0J-1D01*
G37*
G36*
G01X200Y94D02*
G02X198Y98I-3J1D01*
G03X199Y99I0J1D01*
G02X203Y101I3J-1D01*
G03X204Y102I0J1D01*
G02X208Y105I3J0D01*
G03X209Y106I0J1D01*
G02X216Y106I3J-1D01*
G03X217Y105I1J0D01*
G02X220Y99I0J-3D01*
G02X221Y99I1J-4D01*
G03X222Y99I0J1D01*
G02X225Y95I3J-1D01*
G03X223Y94I0J-1D01*
G02X217Y97I-3J1D01*
G03X217Y98I-1J0D01*
G02X216Y98I1J3D01*
G03X215Y97I0J-1D01*
G02X209Y98I-3J0D01*
G03X208Y99I-1J0D01*
G02X206Y99I-1J3D01*
G03X205Y98I0J-1D01*
G02X201Y95I-3J0D01*
G03X200Y94I0J-1D01*
G37*
G36*
G01X269Y75D02*
G02X266Y78I-3J-1D01*
G03X267Y79I0J1D01*
G02X270Y77I3J1D01*
G03X269Y75I0J-1D01*
G37*
G36*
G01X235Y73D02*
G02X233Y76I-3J-1D01*
G03X234Y77I0J1D01*
G02X236Y74I3J1D01*
G03X235Y73I0J-1D01*
G37*
G36*
G01X292Y70D02*
G02X289Y73I-3J0D01*
G03X290Y74I0J1D01*
G02X293Y71I3J0D01*
G03X292Y70I0J-1D01*
G37*
G36*
G01X120Y50D02*
G02X117Y51I-2J-2D01*
G03X118Y53I0J1D01*
G02X121Y52I2J2D01*
G03X120Y50I0J-1D01*
G37*
G54D12*
X106Y104D03*
X149Y123D03*
X142Y27D03*
X36Y120D03*
X20Y122D03*
X145Y45D03*
X120Y30D03*
X95D03*
X70D03*
X45D03*
X20D03*
X95Y55D03*
X70D03*
X45D03*
X20D03*
X145Y95D03*
X120Y80D03*
X95D03*
X70D03*
X45D03*
X20D03*
X145Y105D03*
X120D03*
X95D03*
X70D03*
X45D03*
X20D03*
X11Y188D03*
X137Y164D03*
X105Y193D03*
X37Y188D03*
X61D03*
X150Y147D03*
X87Y188D03*
X19Y278D03*
X11Y212D03*
X111Y245D03*
X86Y241D03*
X150Y197D03*
X36Y225D03*
X112Y264D03*
X55Y231D03*
X138Y344D03*
X19Y350D03*
X62Y375D03*
X88Y369D03*
X83Y320D03*
X55D03*
X25D03*
X138Y248D03*
X138Y232D03*
X85Y225D03*
X110Y229D03*
X87Y170D03*
X62D03*
X109Y173D03*
X20Y201D03*
X59Y222D03*
X106Y201D03*
X122Y280D03*
X16Y252D03*
X91Y303D03*
X122D03*
X90Y351D03*
X61D03*
X36D03*
Y303D03*
X64Y303D03*
X95Y220D03*
X70D03*
X45D03*
X20D03*
X145Y205D03*
X120Y243D03*
X95Y231D03*
X70Y230D03*
X45D03*
X13Y238D03*
X36Y326D03*
X137Y220D03*
X88Y262D03*
X63D03*
X38D03*
X13D03*
X120Y270D03*
X138Y262D03*
X45Y295D03*
X13Y288D03*
X70Y295D03*
X95D03*
X120D03*
X137Y280D03*
X138Y320D03*
X45Y318D03*
X13Y312D03*
X89Y330D03*
X88Y338D03*
X63D03*
X38D03*
X13D03*
X145Y370D03*
X120D03*
X95D03*
X70D03*
X45D03*
X20D03*
X112Y132D03*
X123Y150D03*
X59Y200D03*
X31D03*
X37Y205D03*
X66D03*
X145Y130D03*
X120D03*
X95D03*
X70D03*
X45D03*
X20D03*
X112Y182D03*
X120Y170D03*
X95D03*
X145Y155D03*
X45Y170D03*
X70D03*
X145Y180D03*
X120D03*
X95D03*
X70D03*
X45D03*
X20D03*
X170Y20D03*
X286Y45D03*
X243Y71D03*
X259Y70D03*
X386Y123D03*
X197Y78D03*
X288Y122D03*
X288Y100D03*
X206Y20D03*
X264Y25D03*
X270Y30D03*
X370D03*
X312Y50D03*
X262Y45D03*
X295Y55D03*
X270D03*
X245D03*
X325Y54D03*
X370Y55D03*
X303Y80D03*
X370D03*
X245D03*
X345Y81D03*
X370Y105D03*
X345D03*
X320D03*
X295D03*
X270D03*
X245D03*
X306Y73D03*
X272Y47D03*
X298D03*
X337Y9D03*
X386Y38D03*
X237Y11D03*
X170Y30D03*
X187Y27D03*
X162Y55D03*
X170Y95D03*
Y105D03*
X201Y196D03*
X211Y222D03*
X325Y302D03*
X162Y166D03*
X351Y300D03*
X187Y162D03*
X239Y355D03*
X337Y337D03*
X217Y347D03*
X270Y328D03*
X370Y345D03*
X320Y330D03*
X161Y138D03*
X373Y305D03*
X370Y230D03*
X345D03*
X320D03*
X295D03*
X270Y245D03*
X245D03*
X370Y295D03*
X345D03*
X320D03*
X245D03*
X220D03*
X217Y323D03*
X270Y320D03*
X295D03*
X320D03*
X345D03*
X370D03*
X313Y278D03*
X207Y321D03*
X222Y303D03*
X344Y252D03*
X200Y222D03*
X290Y280D03*
X312Y297D03*
X370Y205D03*
X345D03*
X320D03*
X295D03*
X270Y220D03*
X245D03*
X380Y380D03*
X355D03*
X330D03*
X305D03*
X250Y351D03*
X187Y284D03*
X160Y177D03*
X162Y305D03*
X197Y272D03*
X173Y303D03*
X287Y364D03*
X311Y325D03*
X262Y319D03*
X337Y364D03*
X312Y362D03*
X262Y364D03*
X287Y317D03*
X337D03*
X233Y345D03*
X209Y330D03*
X191D03*
X160Y230D03*
X172D03*
X362Y262D03*
X337D03*
X312D03*
X270Y270D03*
X245D03*
X220D03*
X286Y253D03*
X272Y345D03*
X211Y128D03*
X270Y130D03*
X295D03*
X320D03*
X345D03*
X370D03*
X280Y154D03*
X295Y155D03*
X320D03*
X345D03*
X370D03*
X212Y162D03*
X262Y200D03*
X370Y180D03*
X345D03*
X320D03*
X295D03*
X372Y172D03*
X355Y196D03*
X169Y205D03*
X195Y205D03*
X153Y223D03*
X201Y230D03*
X208Y273D03*
X175Y295D03*
X183Y305D03*
X160Y320D03*
X166Y348D03*
X184Y323D03*
X183Y354D03*
X170Y370D03*
X183Y375D03*
X226Y180D03*
X214Y380D03*
X370Y380D03*
X345D03*
X205Y204D03*
X217Y198D03*
X370Y370D03*
X345D03*
X320D03*
X222Y376D03*
X251Y301D03*
X170Y130D03*
X195Y155D03*
X170Y180D03*
%LPD*%
G75*
G54D10*
X11Y104D03*
X106Y104D03*
X80Y96D03*
X86D03*
X92D03*
X98D03*
X149Y123D03*
X118Y48D03*
X150Y53D03*
X142Y27D03*
X137Y69D03*
X136Y75D03*
X36Y120D03*
X20Y122D03*
X145Y5D03*
X120D03*
X95D03*
X70D03*
X45D03*
X20D03*
X145Y45D03*
X120Y30D03*
X95D03*
X70D03*
X45D03*
X20D03*
X145Y55D03*
X120D03*
X95D03*
X70D03*
X45D03*
X20D03*
X145Y95D03*
X120Y80D03*
X95D03*
X70D03*
X45D03*
X20D03*
X145Y105D03*
X120D03*
X95D03*
X70D03*
X45D03*
X20D03*
X11Y188D03*
X137Y164D03*
X105Y193D03*
X37Y188D03*
X61D03*
X150Y147D03*
X87Y188D03*
X19Y278D03*
X136Y147D03*
X94Y146D03*
X63Y145D03*
X135Y197D03*
X130Y230D03*
X94Y196D03*
X66Y346D03*
X97D03*
X139Y349D03*
X32Y346D03*
X37Y295D03*
X64Y296D03*
X90Y297D03*
X138D03*
X136Y272D03*
X36Y195D03*
X63D03*
X37Y145D03*
X137Y355D03*
X144Y353D03*
X148Y305D03*
X11Y212D03*
X111Y245D03*
X86Y241D03*
X150Y197D03*
X36Y225D03*
X112Y264D03*
X55Y231D03*
X138Y344D03*
X19Y350D03*
X62Y375D03*
X88Y369D03*
X124Y355D03*
X83Y320D03*
X55D03*
X25D03*
X114D03*
X138Y248D03*
X138Y232D03*
X85Y225D03*
X110Y229D03*
X87Y170D03*
X62D03*
X35Y155D03*
X109Y173D03*
X20Y201D03*
X59Y222D03*
X106Y201D03*
X88Y206D03*
X142Y304D03*
X130Y329D03*
X122Y280D03*
X16Y252D03*
X91Y303D03*
X122D03*
X120Y351D03*
X90D03*
X61D03*
X36D03*
Y303D03*
X64Y303D03*
X120Y205D03*
X95Y220D03*
X70D03*
X45D03*
X20D03*
X65Y326D03*
X145Y205D03*
X120Y243D03*
X95Y231D03*
X70Y230D03*
X45D03*
X13Y238D03*
X36Y326D03*
X137Y220D03*
X88Y262D03*
X63D03*
X38D03*
X13D03*
X120Y270D03*
X138Y262D03*
X45Y295D03*
X13Y288D03*
X59Y330D03*
X70Y295D03*
X95D03*
X120D03*
X137Y280D03*
X138Y320D03*
X120Y320D03*
X45Y318D03*
X13Y312D03*
X89Y330D03*
X70Y321D03*
X136Y330D03*
X88Y338D03*
X63D03*
X38D03*
X13D03*
X120Y330D03*
X112Y330D03*
X145Y370D03*
X120D03*
X95D03*
X70D03*
X45D03*
X20D03*
X112Y132D03*
X89Y150D03*
X123D03*
X117Y200D03*
X87D03*
X59D03*
X31D03*
X39Y150D03*
X67D03*
X62Y155D03*
X19Y148D03*
X37Y205D03*
X66D03*
X94D03*
X145Y130D03*
X120D03*
X95D03*
X70D03*
X45D03*
X20D03*
X112Y182D03*
X120Y170D03*
X95D03*
X145Y155D03*
X45Y170D03*
X20Y155D03*
X70Y170D03*
X145Y180D03*
X120D03*
X95D03*
X70D03*
X45D03*
X20D03*
X92Y155D03*
X145Y395D03*
X120D03*
X95D03*
X70D03*
X45D03*
X20D03*
X225Y98D03*
X212Y105D03*
X162Y125D03*
X242Y122D03*
X217Y27D03*
X231Y45D03*
X218Y48D03*
X162Y69D03*
X338Y55D03*
X365D03*
X328Y70D03*
X370Y71D03*
X325Y20D03*
X368Y22D03*
X306Y4D03*
X270Y20D03*
X276Y52D03*
X301Y53D03*
X326Y30D03*
X351D03*
X326Y80D03*
X353D03*
X286Y45D03*
X243Y71D03*
X191Y50D03*
X196D03*
X201D03*
X191Y55D03*
X196D03*
X201D03*
X191Y70D03*
X196D03*
X202D03*
X251Y30D03*
X259Y70D03*
X289D03*
X386Y123D03*
X197Y78D03*
X288Y122D03*
X288Y100D03*
X206Y20D03*
X295Y25D03*
X232Y72D03*
X264Y25D03*
X237Y78D03*
X266Y75D03*
X220Y95D03*
X294Y75D03*
X212Y98D03*
X322Y75D03*
X207Y102D03*
X350Y75D03*
X202Y98D03*
X348Y25D03*
X197Y25D03*
X322Y25D03*
X202Y28D03*
X395Y5D03*
X370D03*
X345D03*
X320D03*
X295D03*
X245D03*
X220D03*
X270Y3D03*
X223Y27D03*
X245Y30D03*
X270D03*
X295D03*
X395D03*
X370D03*
X341Y50D03*
X312Y50D03*
X262Y45D03*
X231Y52D03*
X295Y55D03*
X270D03*
X245D03*
X325Y54D03*
X370Y55D03*
X395D03*
X344Y45D03*
X303Y80D03*
X370D03*
X395D03*
X233Y97D03*
X270Y80D03*
X245D03*
X345Y81D03*
X217Y102D03*
X395Y105D03*
X370D03*
X345D03*
X320D03*
X295D03*
X270D03*
X245D03*
X306Y73D03*
X272Y47D03*
X298D03*
X286Y8D03*
X337Y9D03*
X162Y119D03*
X386Y38D03*
X200Y126D03*
X212Y6D03*
X191Y127D03*
X312Y7D03*
X237Y102D03*
X237Y11D03*
X237Y125D03*
X226Y125D03*
X205Y5D03*
X170Y20D03*
Y30D03*
X187Y27D03*
X162Y55D03*
X197Y95D03*
X170Y95D03*
X195Y122D03*
X170Y105D03*
X211Y222D03*
X325Y302D03*
X162Y166D03*
X351Y300D03*
X266Y351D03*
X201Y375D03*
X294Y351D03*
X205Y380D03*
X187Y162D03*
X225Y230D03*
X322Y351D03*
X239Y355D03*
X272Y302D03*
X295Y302D03*
X237Y331D03*
X337Y337D03*
X217Y347D03*
X245Y326D03*
X270Y328D03*
X370Y345D03*
X395D03*
X298Y347D03*
X320Y330D03*
X161Y138D03*
X214Y230D03*
X373Y305D03*
X395Y245D03*
X370Y230D03*
X345D03*
X320D03*
X295D03*
X270Y245D03*
X245D03*
X220D03*
X395Y295D03*
X314Y376D03*
X370Y295D03*
X345D03*
X320D03*
X295D03*
X270D03*
X245D03*
X220D03*
X217Y323D03*
X245Y320D03*
X270D03*
X295D03*
X320D03*
X345D03*
X370D03*
X395D03*
X326Y347D03*
X313Y278D03*
X207Y321D03*
X182Y204D03*
X209Y305D03*
X187Y207D03*
X222Y303D03*
X247Y127D03*
X344Y252D03*
X200Y222D03*
X232Y322D03*
X262Y147D03*
X290Y280D03*
X197Y372D03*
X270Y150D03*
X186Y153D03*
X313Y341D03*
X362Y342D03*
X367Y301D03*
X335Y295D03*
X276Y298D03*
X300D03*
X370Y274D03*
X362D03*
X370Y280D03*
X362D03*
X266D03*
X183Y346D03*
X182Y330D03*
X217Y329D03*
X261Y330D03*
X387Y148D03*
X209Y298D03*
X195Y280D03*
X312Y297D03*
X220Y226D03*
X395Y220D03*
X370Y205D03*
X345D03*
X320D03*
X295D03*
X270Y220D03*
X245D03*
X380Y380D03*
X355D03*
X330D03*
X305D03*
X270Y355D03*
X250Y351D03*
X233Y328D03*
X187Y284D03*
X160Y177D03*
X162Y305D03*
X197Y272D03*
X173Y303D03*
X213Y247D03*
X219Y155D03*
X224D03*
X219Y150D03*
X224D03*
X235Y155D03*
Y150D03*
X287Y364D03*
X311Y325D03*
X262Y319D03*
X337Y364D03*
X312Y362D03*
X262Y364D03*
X287Y317D03*
X337D03*
X233Y345D03*
X209Y330D03*
X206Y345D03*
Y350D03*
X191Y330D03*
X201Y345D03*
X196D03*
X191D03*
X201Y350D03*
X196D03*
X191D03*
X166Y250D03*
X160D03*
X172D03*
X160Y245D03*
X166D03*
X172D03*
X160Y230D03*
X172D03*
X164Y151D03*
X395Y270D03*
X362Y262D03*
X337D03*
X312D03*
X270Y270D03*
X245D03*
X220D03*
X286Y253D03*
X272Y345D03*
X211Y128D03*
X251Y130D03*
X270Y130D03*
X295D03*
X320D03*
X345D03*
X370D03*
X395D03*
X280Y154D03*
X295Y155D03*
X320D03*
X345D03*
X370D03*
X395D03*
X212Y162D03*
X264Y153D03*
X226Y197D03*
X262Y200D03*
X394Y181D03*
X370Y180D03*
X345D03*
X320D03*
X295D03*
X166Y278D03*
X177Y201D03*
X372Y172D03*
X355Y196D03*
X201Y248D03*
Y255D03*
X189Y272D03*
X184Y276D03*
X177Y275D03*
X172Y278D03*
X169Y205D03*
X201Y196D03*
X195Y205D03*
X153Y223D03*
X201Y230D03*
X208Y273D03*
X201Y280D03*
X175Y295D03*
X183Y305D03*
X160Y320D03*
X166Y348D03*
X184Y323D03*
X183Y354D03*
X170Y370D03*
X183Y375D03*
X226Y180D03*
X214Y380D03*
X241Y378D03*
X370Y380D03*
X345D03*
X320D03*
X266Y380D03*
X291D03*
X205Y204D03*
X217Y198D03*
X262Y172D03*
X267Y178D03*
X247Y203D03*
X242Y198D03*
X237Y201D03*
X232Y198D03*
Y128D03*
X395Y370D03*
X370D03*
X345D03*
X320D03*
X291Y373D03*
X270Y376D03*
X247Y376D03*
X222D03*
X251Y301D03*
X195Y130D03*
X170D03*
X195Y155D03*
X170Y155D03*
Y180D03*
X195Y397D03*
X187D03*
X180D03*
X228Y395D03*
X170Y395D03*
X395D03*
G54D11*
G01X400Y400D02*
X0D01*
Y0D01*
X400D01*
Y400D01*
G01X0Y-14D02*
X-24D01*
G01X-12Y-26D02*
Y-2D01*
G01X-5Y-14D02*
G03I-7J0D01*
G01X-2Y-13D02*
G03I-10J-1D01*
G01X-17Y413D02*
G03I-10J-1D01*
G01X-20Y412D02*
G03I-7J0D01*
G01X-27Y400D02*
Y424D01*
G01X-15Y412D02*
X-39D01*
G01X423Y-13D02*
X399D01*
G01X421Y-12D02*
G03I-10J-1D01*
G01X411Y-25D02*
Y-1D01*
G01X418Y-13D02*
G03I-7J0D01*
G01X429Y413D02*
X405D01*
G01X417Y401D02*
Y425D01*
G01X424Y413D02*
G03I-7J0D01*
G01X427Y414D02*
G03I-10J-1D01*
M02*
