G04 ================== begin FILE IDENTIFICATION RECORD ==================*
G04 Layout Name:  LED Panel G4 V1, 03-26-2017.brd*
G04 Film Name:    PWR*
G04 File Format:  Gerber RS274X*
G04 File Origin:  Cadence Allegro 17.4-S007*
G04 Origin Date:  Wed Nov 11 20:24:20 2020*
G04 *
G04 Layer:  VIA CLASS/PWR*
G04 Layer:  PIN/PWR*
G04 Layer:  ETCH/PWR*
G04 Layer:  BOARD GEOMETRY/OUTLINE*
G04 *
G04 Offset:    (0.0000 0.0000)*
G04 Mirror:    No*
G04 Mode:      Positive*
G04 Rotation:  0*
G04 FullContactRelief:  No*
G04 UndefLineWidth:     0.1000*
G04 ================== end FILE IDENTIFICATION RECORD ====================*
%FSLAX46Y46*MOMM*%
%IR0*IPPOS*OFA0.00000B0.00000*MIA0B0*SFA1.00000B1.00000*%
%ADD10C,.4*%
%ADD11C,.1*%
%ADD12C,.6544*%
G75*
%LPD*%
G75*
G36*
G01X400000Y400000D02*
Y39700000D01*
X1584000D01*
G02X1682600Y39573800I19J-101603D01*
G03X2317400I317400J-79400D01*
G02X2416000Y39700000I98581J24597D01*
G01X4084000D01*
G02X4182600Y39573800I19J-101603D01*
G03X4817400I317400J-79400D01*
G02X4916000Y39700000I98581J24597D01*
G01X6584000D01*
G02X6682600Y39573800I19J-101603D01*
G03X7317400I317400J-79400D01*
G02X7416000Y39700000I98581J24597D01*
G01X9084000D01*
G02X9182600Y39573800I19J-101603D01*
G03X9817400I317400J-79400D01*
G02X9916000Y39700000I98581J24597D01*
G01X11584000D01*
G02X11682600Y39573800I19J-101603D01*
G03X12317400I317400J-79400D01*
G02X12416000Y39700000I98581J24597D01*
G01X14084000D01*
G02X14182600Y39573800I19J-101603D01*
G03X14817400I317400J-79400D01*
G02X14916000Y39700000I98581J24597D01*
G01X16584000D01*
G02X16682600Y39573800I19J-101603D01*
G03X17317400I317400J-79400D01*
G02X17416000Y39700000I98581J24597D01*
G01X17633300D01*
X17636600Y39652600D01*
G03X18289400I326400J22200D01*
G01X18292700Y39700000D01*
X18414300D01*
X18417600Y39652600D01*
G03X19070400I326400J22200D01*
G01X19073700Y39700000D01*
X19195300D01*
X19198600Y39652600D01*
G03X19851400I326400J22200D01*
G01X19854700Y39700000D01*
X22349700D01*
G02X22448800Y39576000I12J-101590D01*
G03X23087200I319200J-72000D01*
G02X23186300Y39700000I99088J22410D01*
G01X39084000D01*
G02X39182600Y39573800I19J-101603D01*
G03X39498800Y39167200I317412J-79408D01*
G02X39600000Y39065600I-396J-101595D01*
G01Y37423200D01*
G02X39498800Y37321600I-101596J-5D01*
G03Y36667200I1200J-327200D01*
G02X39600000Y36565600I-396J-101595D01*
G01Y34923200D01*
G02X39498800Y34821600I-101596J-5D01*
G03Y34167200I1200J-327200D01*
G02X39600000Y34065600I-396J-101595D01*
G01Y32423200D01*
G02X39498800Y32321600I-101596J-5D01*
G03Y31667200I1200J-327200D01*
G02X39600000Y31565600I-396J-101595D01*
G01Y29923200D01*
G02X39498800Y29821600I-101596J-5D01*
G03Y29167200I1200J-327200D01*
G02X39600000Y29065600I-396J-101595D01*
G01Y27423200D01*
G02X39498800Y27321600I-101596J-5D01*
G03Y26667200I1200J-327200D01*
G02X39600000Y26565600I-396J-101595D01*
G01Y24923200D01*
G02X39498800Y24821600I-101596J-5D01*
G03Y24167200I1200J-327200D01*
G02X39600000Y24065600I-396J-101595D01*
G01Y22423200D01*
G02X39498800Y22321600I-101596J-5D01*
G03Y21667200I1200J-327200D01*
G02X39600000Y21565600I-396J-101595D01*
G01Y18525900D01*
G02X39466200Y18429500I-101597J-42D01*
G03Y17808900I-103800J-310300D01*
G02X39600000Y17712500I32203J-96358D01*
G01Y15928000D01*
G02X39498800Y15826400I-101596J-5D01*
G03Y15172000I1200J-327200D01*
G02X39600000Y15070400I-396J-101595D01*
G01Y13428000D01*
G02X39498800Y13326400I-101596J-5D01*
G03Y12672000I1200J-327200D01*
G02X39600000Y12570400I-396J-101595D01*
G01Y10928000D01*
G02X39498800Y10826400I-101596J-5D01*
G03Y10172000I1200J-327200D01*
G02X39600000Y10070400I-396J-101595D01*
G01Y8428000D01*
G02X39498800Y8326400I-101596J-5D01*
G03Y7672000I1200J-327200D01*
G02X39600000Y7570400I-396J-101595D01*
G01Y5928000D01*
G02X39498800Y5826400I-101596J-5D01*
G03Y5172000I1200J-327200D01*
G02X39600000Y5070400I-396J-101595D01*
G01Y3428000D01*
G02X39498800Y3326400I-101596J-5D01*
G03Y2672000I1200J-327200D01*
G02X39600000Y2570400I-396J-101595D01*
G01Y928000D01*
G02X39498800Y826400I-101596J-5D01*
G03X39172800Y501000I1197J-327200D01*
G02X39071200Y400000I-101593J595D01*
G01X37428800D01*
G02X37327200Y501000I-7J101595D01*
G03X36672800I-327200J-1800D01*
G02X36571200Y400000I-101593J595D01*
G01X34928800D01*
G02X34827200Y501000I-7J101595D01*
G03X34172800I-327200J-1800D01*
G02X34071200Y400000I-101593J595D01*
G01X32428800D01*
G02X32327200Y501000I-7J101595D01*
G03X31672800I-327200J-1800D01*
G02X31571200Y400000I-101593J595D01*
G01X31546000D01*
G02X31457900Y552200I2J101599D01*
G03X30890500I-283700J163000D01*
G02X30802400Y400000I-88102J-50601D01*
G01X29928800D01*
G02X29827200Y501000I-7J101595D01*
G03X29172800I-327200J-1800D01*
G02X29071200Y400000I-101593J595D01*
G01X28909900D01*
G02X28832800Y567800I-32J101598D01*
G03X28336400I-248200J213200D01*
G02X28259300Y400000I-77068J-66202D01*
G01X27339700D01*
X27327100Y432200D01*
G03X26718100I-304500J-119800D01*
G01X26705500Y400000D01*
X24928800D01*
G02X24827200Y501000I-7J101595D01*
G03X24172800I-327200J-1800D01*
G02X24071200Y400000I-101593J595D01*
G01X22428800D01*
G02X22327200Y501000I-7J101595D01*
G03X21675500Y457300I-327195J-1797D01*
G01X21675900Y454100D01*
Y400000D01*
X21528000D01*
Y463200D01*
X21533700Y474200D01*
G03X20952700I-290500J150600D01*
G01X20958400Y463200D01*
Y400000D01*
X20889700D01*
G02X20788400Y493800I6J101606D01*
G03X20136000I-326200J-25200D01*
G02X20034700Y400000I-101306J7806D01*
G01X14928800D01*
G02X14827200Y501000I-7J101595D01*
G03X14172800I-327200J-1800D01*
G02X14071200Y400000I-101593J595D01*
G01X12428800D01*
G02X12327200Y501000I-7J101595D01*
G03X11672800I-327200J-1800D01*
G02X11571200Y400000I-101593J595D01*
G01X9928800D01*
G02X9827200Y501000I-7J101595D01*
G03X9172800I-327200J-1800D01*
G02X9071200Y400000I-101593J595D01*
G01X7428800D01*
G02X7327200Y501000I-7J101595D01*
G03X6672800I-327200J-1800D01*
G02X6571200Y400000I-101593J595D01*
G01X4928800D01*
G02X4827200Y501000I-7J101595D01*
G03X4172800I-327200J-1800D01*
G02X4071200Y400000I-101593J595D01*
G01X2428800D01*
G02X2327200Y501000I-7J101595D01*
G03X1672800I-327200J-1800D01*
G02X1571200Y400000I-101593J595D01*
G01X400000D01*
G37*
%LPC*%
G75*
G36*
G01X24345600Y37950400D02*
G03X24493600Y37913400I90274J46595D01*
G02X24388800Y37494200I186000J-269200D01*
G03X24240800Y37531200I-90274J-46595D01*
G02X24345600Y37950400I-186000J269200D01*
G37*
G36*
G01X26873400Y38027500D02*
G03X26979100Y37948100I99204J22008D01*
G02X26680600Y37550700I20909J-326512D01*
G03X26574900Y37630100I-99204J-22008D01*
G02X26873400Y38027500I-20909J326512D01*
G37*
G36*
G01X29277300Y37718200D02*
G03Y37570200I69623J-74000D01*
G02X28829100I-224100J-238400D01*
G03Y37718200I-69623J74000D01*
G02X29277300I224100J238400D01*
G37*
G36*
G01X19724400Y37483100D02*
G03X19831000Y37561600I7596J101314D01*
G02X20063700Y37803700I318828J-73566D01*
G03X20137700Y37914700I-26754J98003D01*
G02X20548300Y37640900I324517J41881D01*
G03X20474300Y37529900I26754J-98003D01*
G02X20125400Y37161700I-324507J-41909D01*
G03X20018800Y37083200I-7596J-101314D01*
G02X19724400Y37483100I-318811J73613D01*
G37*
G36*
G01X26986100Y35132200D02*
G03X26875100Y35050800I-11312J-100957D01*
G02X26590500Y35438800I-321118J62836D01*
G03X26701500Y35520200I11312J100957D01*
G02X26986100Y35132200I321118J-62836D01*
G37*
G36*
G01X12431400Y35174300D02*
G03X12339900Y35082800I9650J-101150D01*
G02X11982800Y35439300I-325733J30819D01*
G03X12074300Y35530800I-9650J101150D01*
G02X12431400Y35174300I325733J-30819D01*
G37*
G36*
G01X32504300Y35105800D02*
G03X32615300Y35002200I101562J-2448D01*
G02X32318700Y34684200I30513J-325780D01*
G03X32207700Y34787800I-101562J2448D01*
G02X32504300Y35105800I-30513J325780D01*
G37*
G36*
G01X29692700D02*
G03X29803700Y35002200I101562J-2448D01*
G02X29507100Y34684200I30513J-325780D01*
G03X29396100Y34787800I-101562J2448D01*
G02X29692700Y35105800I-30513J325780D01*
G37*
G36*
G01X19383600Y34254600D02*
G03X19316400I-33600J-38119D01*
G02X18854600Y34716400I-216400J245400D01*
G03Y34783600I-38119J33600D01*
G02X19316400Y35245400I245400J216400D01*
G03X19383600I33600J38119D01*
G02X19816400I216400J-245400D01*
G03X19883600I33600J38119D01*
G02X20316400I216400J-245400D01*
G03X20383600I33600J38119D01*
G02X20845400Y34783600I216400J-245400D01*
G03Y34716400I38119J-33600D01*
G02X20383600Y34254600I-245400J-216400D01*
G03X20316400I-33600J-38119D01*
G02X19883600I-216400J245400D01*
G03X19816400I-33600J-38119D01*
G02X19383600I-216400J245400D01*
G37*
G36*
G01X13409000Y32734300D02*
G03X13266800Y32710600I-59331J-82465D01*
G02X13191000Y33165700I-266800J189425D01*
G03X13333200Y33189400I59331J82465D01*
G02X13409000Y32734300I266800J-189425D01*
G37*
G36*
G01X23467700Y32580900D02*
G03X23453500Y32444600I67467J-75919D01*
G02X22973000Y32494600I-263099J-194576D01*
G03X22987200Y32630900I-67467J75919D01*
G02X23314400Y33146400I263064J194618D01*
G03X23431000Y33214800I19926J99615D01*
G02X23678300Y32793500I311413J-100434D01*
G03X23561700Y32725100I-19926J-99615D01*
G02X23467700Y32580900I-311461J100295D01*
G37*
G36*
G01X24712800Y32397300D02*
G03Y32242900I66102J-77200D01*
G02X24287200I-212800J-248500D01*
G03Y32397300I-66102J77200D01*
G02X24712800I212800J248500D01*
G37*
G36*
G01X11769900Y31761000D02*
G03X11628300Y31762300I-71469J-72215D01*
G02X11632700Y32231800I-225703J236886D01*
G03X11774300Y32230500I71469J72215D01*
G02X11769900Y31761000I225703J-236886D01*
G37*
G36*
G01X14610500Y30229200D02*
G03X14469900Y30211500I-61206J-81087D01*
G02X14411200Y30676900I-255704J204150D01*
G03X14551800Y30694600I61206J81087D01*
G02X14610500Y30229200I255704J-204150D01*
G37*
G36*
G01X21154900Y30220600D02*
G03Y30072600I69623J-74000D01*
G02X20706700I-224100J-238400D01*
G03Y30220600I-69623J74000D01*
G02X21154900I224100J238400D01*
G37*
G36*
G01X19911400Y27735700D02*
G03X19763400I-74000J-69623D01*
G02Y28183900I-238400J224100D01*
G03X19911400I74000J69623D01*
G02Y27735700I238400J-224100D01*
G37*
G36*
G01X17329900Y27426300D02*
G03X17269400Y27465800I-49762J-10135D01*
G02X16948700Y27576100I-69336J319775D01*
G03X16796400Y27580300I-78003J-65094D01*
G02X16808500Y28013100I-239201J223257D01*
G03X16960800Y28008900I78003J65094D01*
G02X17520700Y27850500I239187J-223285D01*
G03X17581200Y27811000I49762J10135D01*
G02X17329900Y27426300I69408J-319769D01*
G37*
G36*
G01X18757300Y27616200D02*
G03X18865500Y27505200I101145J-9641D01*
G02X18562500Y27210000I22702J-326405D01*
G03X18454300Y27321000I-101145J9641D01*
G02X18757300Y27616200I-22702J326405D01*
G37*
G36*
G01X20373900Y25222200D02*
G03Y25074200I69623J-74000D01*
G02X19925700I-224100J-238400D01*
G03Y25222200I-69623J74000D01*
G02X20373900I224100J238400D01*
G37*
G36*
G01X16371100Y24266200D02*
G03X16228900I-71100J-72577D01*
G02X15754600Y24716400I-228839J233856D01*
G03Y24783600I-38119J33600D01*
G02X16228900Y25233800I245461J216344D01*
G03X16371100I71100J72577D01*
G02X16828900I228900J-233800D01*
G03X16971100I71100J72577D01*
G02X17445400Y24783600I228839J-233856D01*
G03Y24716400I38119J-33600D01*
G02X16971100Y24266200I-245461J-216344D01*
G03X16828900I-71100J-72577D01*
G02X16371100I-228900J233800D01*
G37*
G36*
G01X18128500Y20062100D02*
G03X18010000Y19995400I-22216J-99145D01*
G02X17771500Y20419300I-310016J104619D01*
G03X17890000Y20486000I22216J99145D01*
G02X18271600Y20700700I310038J-104579D01*
G03X18390100Y20767300I22252J99129D01*
G02X18628400Y20343100I309918J-104933D01*
G03X18509900Y20276500I-22252J-99129D01*
G02X18128500Y20062100I-309925J104891D01*
G37*
G36*
G01X12093700Y20192100D02*
G03X12026200Y20063400I29114J-97321D01*
G02X11621300Y20275700I-311171J-101203D01*
G03X11688800Y20404400I-29114J97321D01*
G02X12093700Y20192100I311171J101203D01*
G37*
G36*
G01X8550300Y20223500D02*
G03X8562800Y20374600I-61161J81127D01*
G02X9074000Y20778900I237261J225338D01*
G03X9209500Y20746200I85088J55493D01*
G02X9098000Y20283300I162487J-284017D01*
G03X8962500Y20316000I-85088J-55493D01*
G02X8950700Y20309600I-161858J284348D01*
G03X8943600Y20223900I23425J-45085D01*
G02X8550300Y20223500I-196384J-261704D01*
G37*
G36*
G01X23745400Y15283600D02*
G03Y15216400I38119J-33600D01*
G02X23254600I-245400J-216400D01*
G03Y15283600I-38119J33600D01*
G02X23745400I245400J216400D01*
G37*
G36*
G01X22183600Y14754600D02*
G03X22116400I-33600J-38119D01*
G02X21654600Y15216400I-216400J245400D01*
G03Y15283600I-38119J33600D01*
G02X22116400Y15745400I245400J216400D01*
G03X22183600I33600J38119D01*
G02X22645400Y15283600I216400J-245400D01*
G03Y15216400I38119J-33600D01*
G02X22183600Y14754600I-245400J-216400D01*
G37*
G36*
G01X9298100Y15147100D02*
G03X9224100Y15028700I25585J-98316D01*
G02X8821100Y15280500I-320708J-64889D01*
G03X8895100Y15398900I-25585J98316D01*
G02X9298100Y15147100I320708J64889D01*
G37*
G36*
G01X26547800Y15016800D02*
G03X26510800Y14868800I46595J-90274D01*
G02X26091600Y14973600I-269200J-186000D01*
G03X26128600Y15121600I-46599J90275D01*
G02X26547800Y15016800I269200J186000D01*
G37*
G36*
G01X19941000Y12319100D02*
G03X19826100Y12210200I-13646J-100667D01*
G02X19174200Y12214200I-326125J-26568D01*
G03X19069100Y12325200I-101124J9508D01*
G02X19073600Y12978900I-12704J326953D01*
G03X19178700Y13061200I5320J101464D01*
G02X19823000Y13051500I321290J-61967D01*
G03X19937900Y12967200I100294J16246D01*
G02X19941000Y12319100I46872J-323833D01*
G37*
G36*
G01X16468900Y12257600D02*
G03Y12109600I69623J-74000D01*
G02X16020700I-224100J-238400D01*
G03Y12257600I-69623J74000D01*
G02X16468900I224100J238400D01*
G37*
G36*
G01X23700300Y9825800D02*
G03X23599600Y9714800I454J-101590D01*
G02X23272300Y10011600I-325791J-30403D01*
G03X23373000Y10122600I-454J101590D01*
G02X23700300Y9825800I325791J30403D01*
G37*
G36*
G01X8371100Y9366200D02*
G03X8228900I-71100J-72577D01*
G02Y9833800I-228900J233800D01*
G03X8371100I71100J72577D01*
G02X8828900I228900J-233800D01*
G03X8971100I71100J72577D01*
G02X9428900I228900J-233800D01*
G03X9571100I71100J72577D01*
G02Y9366200I228900J-233800D01*
G03X9428900I-71100J-72577D01*
G02X8971100I-228900J233800D01*
G03X8828900I-71100J-72577D01*
G02X8371100I-228900J233800D01*
G37*
G36*
G01X35373600Y7657100D02*
G03X35307900Y7538700I33363J-95942D01*
G02X34881400Y7775300I-319090J-72489D01*
G03X34947100Y7893700I-33363J95942D01*
G02X35373600Y7657100I319090J72489D01*
G37*
G36*
G01X32591900Y7640000D02*
G03X32499700Y7521500I7921J-101282D01*
G02X32151500Y7792400I-322500J-55295D01*
G03X32243700Y7910900I-7921J101282D01*
G02X32591900Y7640000I322500J55295D01*
G37*
G36*
G01X19383600Y6754600D02*
G03X19316400I-33600J-38119D01*
G02Y7245400I-216400J245400D01*
G03X19383600I33600J38119D01*
G02X19828900Y7233800I216408J-245404D01*
G03X19971100I71100J72577D01*
G02Y6766200I228900J-233800D01*
G03X19828900I-71100J-72577D01*
G02X19383600Y6754600I-228892J233804D01*
G37*
G36*
G01X13858600Y7315200D02*
G03X13895600Y7167200I83599J-57725D01*
G02X13476400Y7062400I-150000J-290800D01*
G03X13439400Y7210400I-83599J57725D01*
G02X13858600Y7315200I150000J290800D01*
G37*
G36*
G01X14801400Y5626400D02*
G03X14868600Y5599700I46779J19820D01*
G02X14698600Y5172800I131430J-299637D01*
G03X14631400Y5199500I-46779J-19820D01*
G02X14801400Y5626400I-131430J299637D01*
G37*
G36*
G01X19383600Y4754600D02*
G03X19316400I-33600J-38119D01*
G02X18854600Y5216400I-216400J245400D01*
G03Y5283600I-38119J33600D01*
G02X19316400Y5745400I245400J216400D01*
G03X19383600I33600J38119D01*
G02X19816400I216400J-245400D01*
G03X19883600I33600J38119D01*
G02X20345400Y5283600I216400J-245400D01*
G03Y5216400I38119J-33600D01*
G02X19883600Y4754600I-245400J-216400D01*
G03X19816400I-33600J-38119D01*
G02X19383600I-216400J245400D01*
G37*
G36*
G01X34377900Y4974500D02*
G03X34470000Y4865900I101346J-7406D01*
G02X34113800Y4564000I-29894J-325813D01*
G03X34021700Y4672600I-101346J7406D01*
G02X34377900Y4974500I29894J325813D01*
G37*
G36*
G01X23341700Y4916200D02*
G03Y4768200I69623J-74000D01*
G02X22893500I-224100J-238400D01*
G03Y4916200I-69623J74000D01*
G02X23341700I224100J238400D01*
G37*
G36*
G01X24730200Y3231800D02*
G03X24864700Y3224300I71484J72182D01*
G02X24837600Y2735200I203091J-256554D01*
G03X24703100Y2742700I-71484J-72182D01*
G02X24730200Y3231800I-203091J256554D01*
G37*
G36*
G01X21946900Y2881900D02*
G03X22097800Y2879100I76712J66610D01*
G02X22089700Y2440700I238799J-223687D01*
G03X21938800Y2443500I-76712J-66610D01*
G02X21946900Y2881900I-238799J223687D01*
G37*
G36*
G01X20140200Y2499900D02*
G03X20021800Y2418400I-18496J-99883D01*
G02X19759800Y2799500I-321781J59391D01*
G03X19878200Y2881000I18496J99883D01*
G02X20140200Y2499900I321781J-59391D01*
G37*
G36*
G01X35223800Y2653700D02*
G03X35152800Y2535200I28412J-97543D01*
G02X34741000Y2781900I-320181J-67411D01*
G03X34812000Y2900400I-28412J97543D01*
G02X35223800Y2653700I320181J67411D01*
G37*
G36*
G01X32592200Y2641500D02*
G03X32499700Y2523000I7632J-101310D01*
G02X32152800Y2794100I-322512J-55190D01*
G03X32245300Y2912600I-7632J101310D01*
G02X32592200Y2641500I322512J55190D01*
G37*
G36*
G01X29741800Y2778700D02*
G03X29744700Y2707300I37521J-34235D01*
G02X29280000Y2688300I-222946J-239497D01*
G03X29277100Y2759700I-37521J34235D01*
G02X29741800Y2778700I222946J239497D01*
G37*
G36*
G01X31726900Y37587000D02*
G02X31530900Y37899900I-326934J13046D01*
G03X31673100Y37989000I40676J93106D01*
G02X31869100Y37676100I326934J-13046D01*
G03X31726900Y37587000I-40676J-93106D01*
G37*
G36*
G01X14195300Y35577600D02*
G02X14068700Y35174500I175089J-276420D01*
G03X13920700Y35221000I-93665J-39338D01*
G02X14047300Y35624100I-175089J276420D01*
G03X14195300Y35577600I93665J39338D01*
G37*
G36*
G01X11539600Y32812900D02*
G02X11528300Y33124400I-293187J145319D01*
G03X11706800Y33130900I87489J51599D01*
G02X11718100Y32819400I293187J-145319D01*
G03X11539600Y32812900I-87489J-51599D01*
G37*
G36*
G01X6975500Y32474500D02*
G02X6675200Y32187700I24513J-326284D01*
G03X6566700Y32301300I-100846J12296D01*
G02X6218000Y32583500I-24482J326284D01*
G03X6074300Y32661800I-100656J-13716D01*
G02X6259800Y33002300I-138719J296351D01*
G03X6403500Y32924000I100656J13716D01*
G02X6867000Y32588100I138683J-296371D01*
G03X6975500Y32474500I100846J-12296D01*
G37*
G36*
G01X29702000Y29751800D02*
G02X29314600Y29764000I-201998J-257401D01*
G03X29319800Y29927600I-57572J83713D01*
G02X29707200Y29915400I201998J257401D01*
G03X29702000Y29751800I57572J-83713D01*
G37*
G36*
G01X27257900Y29695800D02*
G02X26873200Y29796000I-257860J-201412D01*
G03X26913900Y29952200I-39370J93661D01*
G02X27298600Y29852000I257860J201412D01*
G03X27257900Y29695800I39370J-93661D01*
G37*
G36*
G01X21781400Y24737900D02*
G02X21684500Y24407800I218616J-243447D01*
G03X21518600Y24456500I-97983J-26860D01*
G02X21615500Y24786600I-218616J243447D01*
G03X21781400Y24737900I97983J26860D01*
G37*
G36*
G01X22320600Y22559200D02*
G02X21675500Y22583000I-320570J65575D01*
G03X21533200Y22662800I-100775J-12928D01*
G02X21723900Y23003200I-133813J298582D01*
G03X21866200Y22923400I100775J12928D01*
G02X22055500Y22947300I133856J-298585D01*
G03X22172200Y23027000I17201J100102D01*
G02X22437300Y22638900I320583J-65610D01*
G03X22320600Y22559200I-17201J-100102D01*
G37*
G36*
G01X22898700Y19469700D02*
G02X22819800Y19960300I-249686J211489D01*
G03X22950300Y19981300I52994J86662D01*
G02X23260600Y20091300I249632J-211525D01*
G03X23379100Y20171300I18847J99846D01*
G02X24020900I320900J-63900D01*
G03X24139400Y20091300I99653J19846D01*
G02X24262400Y20091000I60716J-321506D01*
G03X24380900Y20213200I19427J99717D01*
G02X24637600Y19964400I319094J72401D01*
G03X24519100Y19842200I-19427J-99717D01*
G02X23879100Y19705900I-319123J-72267D01*
G03X23760600Y19785900I-99653J-19846D01*
G02X23639400I-60600J321500D01*
G03X23520900Y19705900I-18847J-99846D01*
G02X23029200Y19490700I-320906J63892D01*
G03X22898700Y19469700I-52994J-86662D01*
G37*
G36*
G01X26496600Y17318300D02*
G02X26271100Y17563300I-320016J-68269D01*
G03X26399800Y17681700I29346J97249D01*
G02X26625300Y17436700I320016J68269D01*
G03X26496600Y17318300I-29346J-97249D01*
G37*
G36*
G01X16727200Y15097300D02*
G02X16530700Y15400000I-327204J2723D01*
G03X16672800Y15492300I40522J93149D01*
G02X16869300Y15189600I327204J-2723D01*
G03X16727200Y15097300I-40522J-93149D01*
G37*
G36*
G01X6681400Y15289100D02*
G02X6394300Y15020000I35227J-325285D01*
G03X6283200Y15138500I-100093J17488D01*
G02X6570300Y15407600I-35227J325285D01*
G03X6681400Y15289100I100093J-17488D01*
G37*
G36*
G01X3890900Y15290700D02*
G02X3582400Y15018400I14111J-326893D01*
G03X3477900Y15136900I-100168J16993D01*
G02X3786400Y15409200I-14111J326893D01*
G03X3890900Y15290700I100168J-16993D01*
G37*
G36*
G01X2122000Y15052900D02*
G02X1722600Y15128900I-247630J-213886D01*
G03X1752400Y15285300I-47089J90011D01*
G02X2151800Y15209300I247630J213886D01*
G03X2122000Y15052900I47089J-90011D01*
G37*
G36*
G01X24524400Y12237200D02*
G02X23878200Y12135200I-324404J-42741D01*
G03X23759800Y12216700I-99904J-18383D01*
G02X23389500Y12435100I-59819J321700D01*
G03X23271100Y12502200I-96386J-32066D01*
G02X23100600Y12509900I-70999J319398D01*
G03X22970000Y12432700I-30895J-96804D01*
G02X22748400Y12807700I-321004J63283D01*
G03X22879000Y12884900I30895J96804D01*
G02X23510500Y12924900I321026J-63289D01*
G03X23628900Y12857800I96386J32066D01*
G02X24021800Y12597800I71118J-319396D01*
G03X24140200Y12516300I99904J18383D01*
G02X24257100Y12516800I59827J-321695D01*
G03X24375600Y12630000I17762J100030D01*
G02X24767800Y12992700I324410J42604D01*
G03X24828000Y13031900I10498J49703D01*
G02X25080400Y12644500I320203J-67303D01*
G03X25020200Y12605300I-10498J-49703D01*
G02X24642900Y12350400I-320212J67287D01*
G03X24524400Y12237200I-17762J-100030D01*
G37*
G36*
G01X19987600Y9413500D02*
G02X19770600Y9842900I-306414J114683D01*
G03X19893600Y9905100I27796J97749D01*
G02X20254700Y10113000I306430J-114690D01*
G03X20373200Y10218200I17034J100153D01*
G02X20814400Y10541100I326779J16371D01*
G03X20943100Y10595800I35511J95203D01*
G02X21558900Y10551500I300114J-130382D01*
G03X21669900Y10477500I98003J26754D01*
G02X21958900Y9938500I41908J-324508D01*
G03X22000900Y9854600I38390J-33245D01*
G02X22066100Y9852700I23116J-326395D01*
G03X22177100Y9926700I12997J100754D01*
G02X22450900Y9516100I315681J-86083D01*
G03X22339900Y9442100I-12997J-100754D01*
G02X21735200Y9681700I-315666J86194D01*
G03X21661200Y9829700I-89685J47657D01*
G02X21647200Y9832200I50510J323303D01*
G03X21526000Y9741400I-20008J-99582D01*
G02X20874400Y9802100I-325982J28398D01*
G03X20755900Y9912200I-101100J10007D01*
G02X20645300Y9912000I-55883J322398D01*
G03X20526800Y9806800I-17034J-100153D01*
G02X20110600Y9475700I-326778J-16369D01*
G03X19987600Y9413500I-27796J-97749D01*
G37*
G36*
G01X26871200Y7546500D02*
G02X26577100Y7792600I-317204J-80291D01*
G03X26682800Y7918900I7227J101332D01*
G02X26976900Y7672800I317204J80291D01*
G03X26871200Y7546500I-7227J-101332D01*
G37*
G36*
G01X23496600Y7318300D02*
G02X23271100Y7563300I-320016J-68269D01*
G03X23399800Y7681700I29346J97249D01*
G02X23625300Y7436700I320016J68269D01*
G03X23496600Y7318300I-29346J-97249D01*
G37*
G36*
G01X29225800Y7029900D02*
G02X28929400Y7325900I-325831J-29871D01*
G03X29039800Y7436300I9220J101180D01*
G02X29336200Y7140300I325831J29871D01*
G03X29225800Y7029900I-9220J-101180D01*
G37*
G36*
G01X12043000Y5019100D02*
G02X11709600Y5114500I-243038J-219084D01*
G03X11757000Y5280100I-28097J97626D01*
G02X12090400Y5184700I243038J219084D01*
G03X12043000Y5019100I28097J-97626D01*
G37*
G54D12*
X10600000Y10400000D03*
X14900000Y12300000D03*
X14214200Y2655400D03*
X3600000Y12000000D03*
X1999100Y12215100D03*
X14500000Y4500800D03*
X12000000Y2999200D03*
X9500000D03*
X7000000D03*
X4500000D03*
X2000000D03*
X9500000Y5499200D03*
X7000000D03*
X4500000D03*
X2000000D03*
X14500000Y9500800D03*
X12000000Y7999200D03*
X9500000D03*
X7000000D03*
X4500000D03*
X2000000D03*
X14500000Y10499200D03*
X12000000D03*
X9500000D03*
X7000000D03*
X4500000D03*
X2000000D03*
X1087400Y18750000D03*
X13745600Y16401000D03*
X10500000Y19334200D03*
X3742800Y18750000D03*
X6085800D03*
X14995200Y14711800D03*
X8741200Y18750000D03*
X1908200Y27769800D03*
X1086600Y21250000D03*
X11090200Y24523400D03*
X8591000Y24054800D03*
X14995200Y19681200D03*
X3592600Y22492800D03*
X11246400Y26397800D03*
X5500000Y23114000D03*
X13750000Y34375000D03*
X1875000Y35000000D03*
X6250000Y37500000D03*
X8750000Y36875000D03*
X8278600Y31999200D03*
X5467000D03*
X2499200D03*
X13750000Y24750000D03*
X13800000Y23200000D03*
X8500000Y22500000D03*
X11000000Y22900000D03*
X8700000Y17000000D03*
X6200000D03*
X10900000Y17300000D03*
X2000000Y20100000D03*
X5900000Y22200000D03*
X10600000Y20100000D03*
X12183600Y27959800D03*
X1643600Y25229800D03*
X9059600Y30334200D03*
X12183600D03*
X9046400Y35113600D03*
X6078600D03*
X3592600D03*
Y30334200D03*
X6404200Y30302800D03*
X9500000Y21994400D03*
X7000000D03*
X4500000D03*
X2000000D03*
X14500000Y20505600D03*
X12000000Y24339800D03*
X9500000Y23100000D03*
X7000000Y23005600D03*
X4500000D03*
X1255600Y23750000D03*
X3574400Y32627600D03*
X13700000Y22000000D03*
X8755600Y26250000D03*
X6255600D03*
X3755600D03*
X1255600D03*
X12000000Y26995200D03*
X13754000Y26250000D03*
X4500000Y29494400D03*
X1255600Y28750000D03*
X7000000Y29494400D03*
X9500000D03*
X12000000D03*
X13745600Y27959800D03*
X13800000Y32000000D03*
X4500000Y31835000D03*
X1255600Y31250000D03*
X8903400Y32958200D03*
X8755600Y33750000D03*
X6255600D03*
X3755600D03*
X1255600D03*
X14500000Y36994400D03*
X12000000D03*
X9500000D03*
X7000000D03*
X4500000D03*
X2000000D03*
X11200000Y13200000D03*
X12339800Y14963800D03*
X5935600Y19962200D03*
X3124000D03*
X3748800Y20462200D03*
X6560400D03*
X14500000Y12999200D03*
X12000000D03*
X9500000D03*
X7000000D03*
X4500000D03*
X2000000D03*
X11200000Y18200000D03*
X12000000Y17000800D03*
X9500000D03*
X14500000Y15490400D03*
X4500000Y17000800D03*
X7000000D03*
X14500000Y17999200D03*
X12000000D03*
X9500000D03*
X7000000D03*
X4500000D03*
X2000000D03*
X17000000Y2000000D03*
X28600000Y4500000D03*
X24300000Y7100000D03*
X25900000Y7000000D03*
X38581400Y12339800D03*
X19700000Y7828800D03*
X28800000Y12200000D03*
X28803200Y9996800D03*
X20618400Y2030600D03*
X26397800Y2467800D03*
X27000000Y2999200D03*
X37000000D03*
X31240000Y5000000D03*
X26241600Y4529800D03*
X29500000Y5499200D03*
X27000000D03*
X24500000D03*
X32500000Y5400000D03*
X37000000Y5499200D03*
X30300000Y7999200D03*
X37000000D03*
X24500000D03*
X34500000Y8100000D03*
X37000000Y10499200D03*
X34500000D03*
X32000000D03*
X29500000D03*
X27000000D03*
X24500000D03*
X30600000Y7300000D03*
X27178800Y4686000D03*
X29834200D03*
X33739200Y937200D03*
X38580200Y3750000D03*
X23742400Y1098200D03*
X17000000Y2999200D03*
X18744000Y2655400D03*
X16244800Y5467000D03*
X17000000Y9500800D03*
Y10499200D03*
X20099900Y19600100D03*
X21087000Y22180400D03*
X32489600Y30185000D03*
X16244800Y16557200D03*
X35145000Y30028800D03*
X18738800Y16250000D03*
X23900000Y35500000D03*
X33739200Y33739200D03*
X21711800Y34676400D03*
X27000000Y32802000D03*
X37000000Y34494400D03*
X32000000Y32979200D03*
X16084200Y13750000D03*
X37331800Y30459000D03*
X37000000Y23005600D03*
X34500000D03*
X32000000D03*
X29500000D03*
X27000000Y24494400D03*
X24500000D03*
X37000000Y29494400D03*
X34500000D03*
X32000000D03*
X24500000D03*
X22000000D03*
X21711800Y32333400D03*
X27000000Y31994400D03*
X29500000D03*
X32000000D03*
X34500000D03*
X37000000D03*
X31280100Y27769800D03*
X20700000Y32102600D03*
X22180400Y30302800D03*
X34429800Y25229800D03*
X19993600Y22180400D03*
X29000000Y28000000D03*
X31240000Y29678000D03*
X37000000Y20505600D03*
X34500000D03*
X32000000D03*
X29500000D03*
X27000000Y21994400D03*
X24500000D03*
X38000000Y37956600D03*
X35500000D03*
X33000000D03*
X30500000D03*
X24992000Y35145000D03*
X18744000Y28428400D03*
X16000000Y17700000D03*
X16244800Y30459000D03*
X19681200Y27178800D03*
X17338200Y30302800D03*
X28740800Y36394600D03*
X31083800Y32489600D03*
X26241600Y31864800D03*
X33739200Y36394600D03*
X31240000Y36238400D03*
X26241600Y36394600D03*
X28740800Y31708600D03*
X33739200D03*
X23300000Y34500000D03*
X20900000Y33000000D03*
X19100000D03*
X16000000Y23000000D03*
X17200000D03*
X36246800Y26250000D03*
X33747600D03*
X31248400D03*
X27000000Y26994400D03*
X24500000D03*
X22000000D03*
X28584600Y25304400D03*
X27178800Y34520200D03*
X21087000Y12808400D03*
X27000000Y12999200D03*
X29500000D03*
X32000000D03*
X34500000D03*
X37000000D03*
X28000000Y15400000D03*
X29500000Y15499200D03*
X32000000D03*
X34500000D03*
X37000000D03*
X21248400Y16250000D03*
X26241600Y19993600D03*
X37000000Y17999200D03*
X34500000D03*
X32000000D03*
X29500000D03*
X37175600Y17182000D03*
X35500000Y19600000D03*
X16869600Y20462200D03*
X19500000Y20487200D03*
X15307600Y22336600D03*
X20149800Y22961400D03*
X20774600Y27335000D03*
X17494400Y29521800D03*
X18275400Y30459000D03*
X16000000Y32000000D03*
X16600000Y34800000D03*
X18431600Y32333400D03*
X18290000Y35450000D03*
X17000000Y36994400D03*
X18275400Y37488000D03*
X22649000Y17963000D03*
X21399400Y37956600D03*
X37000000Y37976000D03*
X34500000D03*
X20493700Y20430700D03*
X21711800Y19837400D03*
X37000000Y36994400D03*
X34500000D03*
X32000000D03*
X22180400Y37644200D03*
X25054800Y30083800D03*
X17000000Y12999200D03*
X19500000Y15488800D03*
X17000000Y17999200D03*
%LPD*%
G75*
G54D10*
X2000000Y499200D03*
Y2999200D03*
Y5499200D03*
Y7999200D03*
X1093400Y10406600D03*
X1999100Y12215100D03*
X2000000Y10499200D03*
X1874400Y14839000D03*
X2000000Y12999200D03*
Y15499200D03*
X1087400Y18750000D03*
X2000000Y17999200D03*
X1086600Y21250000D03*
X2000000Y20100000D03*
Y21994400D03*
X1643600Y25229800D03*
X1255600Y23750000D03*
X1908200Y27769800D03*
X1255600Y26250000D03*
Y28750000D03*
Y31250000D03*
X2499200Y31999200D03*
X1255600Y33750000D03*
X1875000Y35000000D03*
X2000000Y36994400D03*
Y39494400D03*
X4500000Y499200D03*
Y2999200D03*
Y5499200D03*
Y7999200D03*
X3600000Y12000000D03*
X4500000Y10499200D03*
X3736200Y14463800D03*
X3463800Y15463800D03*
X3905000Y14963800D03*
X4500000Y12999200D03*
X3742800Y18750000D03*
X4500000Y17000800D03*
Y17999200D03*
X3637800Y19462200D03*
X4500000Y21994400D03*
X3124000Y19962200D03*
X3748800Y20462200D03*
X3592600Y22492800D03*
X5500000Y23114000D03*
X4500000Y23005600D03*
X3755600Y26250000D03*
X3700000Y29500000D03*
X3592600Y30334200D03*
X4500000Y29494400D03*
X3213600Y34613600D03*
X5467000Y31999200D03*
X3574400Y32627600D03*
X4500000Y31835000D03*
X3755600Y33750000D03*
X3592600Y35113600D03*
X4500000Y36994400D03*
Y39494400D03*
X7000000Y499200D03*
Y2999200D03*
Y5499200D03*
Y7999200D03*
X8000000Y9600000D03*
X8600000D03*
X7000000Y10499200D03*
X6336200Y14463800D03*
X6716600Y14963800D03*
X6248000Y15463800D03*
X7000000Y12999200D03*
X6085800Y18750000D03*
X8741200D03*
X8700000Y17000000D03*
X6200000D03*
X7000000Y17000800D03*
Y17999200D03*
X6337800Y19462200D03*
X8800000Y20600000D03*
X7000000Y21994400D03*
X8747200Y19962200D03*
X5935600D03*
X6560400Y20462200D03*
X8591000Y24054800D03*
X8500000Y22500000D03*
X5900000Y22200000D03*
X7000000Y23005600D03*
X8755600Y26250000D03*
X6255600D03*
X6400000Y29600000D03*
X6404200Y30302800D03*
X7000000Y29494400D03*
X6613600Y34613600D03*
X8278600Y31999200D03*
X6542200Y32627600D03*
X5935600Y32958200D03*
X7000000Y32148200D03*
X8755600Y33750000D03*
X6255600D03*
X6250000Y37500000D03*
X8750000Y36875000D03*
X6078600Y35113600D03*
X7000000Y36994400D03*
Y39494400D03*
X12000000Y499200D03*
X9500000D03*
X12000000Y2999200D03*
X9500000D03*
X11800000Y4800000D03*
X12000000Y5499200D03*
X9500000D03*
X12000000Y7999200D03*
X9500000D03*
X10600000Y10400000D03*
X9200000Y9600000D03*
X9800000D03*
X12000000Y10499200D03*
X9500000D03*
X9400000Y14600000D03*
X11200000Y13200000D03*
X8903400Y14963800D03*
X12000000Y12999200D03*
X9500000D03*
X9215800Y15463800D03*
X10900000Y17300000D03*
X11200000Y18200000D03*
X12000000Y17000800D03*
X9500000D03*
X12000000Y17999200D03*
X9500000D03*
X10500000Y19334200D03*
X9400000Y19600000D03*
X10600000Y20100000D03*
X12000000Y20505600D03*
X9500000Y21994400D03*
X11715000Y19962200D03*
X9372000Y20462200D03*
X11090200Y24523400D03*
X11000000Y22900000D03*
X12000000Y24339800D03*
X9500000Y23100000D03*
X11246400Y26397800D03*
X12000000Y26995200D03*
X9000000Y29700000D03*
X9059600Y30334200D03*
X9500000Y29494400D03*
X12000000D03*
X9713600Y34613600D03*
X11402600Y31999200D03*
X12000000Y31993600D03*
X8903400Y32958200D03*
X12000000Y32985600D03*
X11246400Y32958200D03*
X12014200Y35113600D03*
X9046400D03*
X12000000Y36994400D03*
X9500000D03*
X12000000Y39494400D03*
X9500000D03*
X14214200Y2655400D03*
X14500000Y499200D03*
X15000000Y5300000D03*
X14500000Y4500800D03*
Y5499200D03*
X13745600Y6876400D03*
X13589400Y7501200D03*
X14900000Y12300000D03*
X14500000Y9500800D03*
Y10499200D03*
X14995200Y14711800D03*
X13600000Y14700000D03*
X12339800Y14963800D03*
X14500000Y12999200D03*
Y15490400D03*
X13745600Y16401000D03*
X14500000Y17999200D03*
X13500000Y19700000D03*
X14995200Y19681200D03*
X14500000Y20505600D03*
X13700000Y22000000D03*
X13000000Y23000000D03*
X13750000Y24750000D03*
X13800000Y23200000D03*
X13600000Y27200000D03*
X12183600Y27959800D03*
X13754000Y26250000D03*
X13745600Y27959800D03*
X13800000Y29700000D03*
X14807500Y30490500D03*
X14214200Y30415600D03*
X12183600Y30334200D03*
X13750000Y34375000D03*
X13000000Y32900000D03*
X13800000Y32000000D03*
X13600000Y33000000D03*
X13900000Y34900000D03*
X13745600Y35497400D03*
X14370400Y35301200D03*
X12400000Y35500000D03*
X14500000Y36994400D03*
Y39494400D03*
X17000000Y2000000D03*
Y2999200D03*
X16244800Y5467000D03*
X16200000Y6900000D03*
X16244800Y12496000D03*
Y11871200D03*
X17000000Y9500800D03*
Y10499200D03*
X16084200Y13750000D03*
X16400000Y15100000D03*
X17000000Y12999200D03*
Y15489600D03*
X16244800Y16557200D03*
X16000000Y17700000D03*
X17000000Y17999200D03*
X18200000Y20381400D03*
X17700000Y20100000D03*
X16869600Y20462200D03*
X16600000Y25000000D03*
X16000000D03*
X17200000D03*
X16000000Y24500000D03*
X16600000D03*
X17200000D03*
X16000000Y23000000D03*
X17200000D03*
X15307600Y22336600D03*
X16557200Y27803600D03*
X17650600Y27491200D03*
X17200000Y27785600D03*
X16244800Y30459000D03*
X17338200Y30302800D03*
X17494400Y29521800D03*
X18275400Y30459000D03*
X18300000Y34600000D03*
X18200000Y33000000D03*
X16000000Y32000000D03*
X16600000Y34800000D03*
X18290000Y35450000D03*
X17000000Y36994400D03*
X18275400Y37488000D03*
X17963000Y39674800D03*
X17000000Y39494400D03*
X20618400Y2030600D03*
X19700000Y2477800D03*
X20200000Y2821600D03*
X21243200Y624800D03*
X20462200Y468600D03*
X18744000Y2655400D03*
X19100000Y5000000D03*
X19600000D03*
X20100000D03*
X19100000Y5500000D03*
X19600000D03*
X20100000D03*
X19100000Y7000000D03*
X19600000D03*
X20200000D03*
X19700000Y7828800D03*
X21243200Y10465400D03*
X21200000Y9769800D03*
X20700000Y10234600D03*
X20200000Y9790400D03*
X19984800Y12643400D03*
X19056400Y12652200D03*
X19681200Y9528200D03*
X19500000Y12183600D03*
X18619300Y15307600D03*
X21087000Y12808400D03*
X19500000Y12999200D03*
Y15488800D03*
X18738800Y16250000D03*
X21248400D03*
X18700000Y20662400D03*
X20099900Y19600100D03*
X19500000Y20487200D03*
X20493700Y20430700D03*
X21087000Y22180400D03*
X21399400Y22961400D03*
X19993600Y22180400D03*
X21300000Y24700000D03*
X20149800Y24835800D03*
Y22961400D03*
X19525000Y27959800D03*
X18744000Y28428400D03*
X19681200Y27178800D03*
X20149800Y25460600D03*
X18888200Y27178800D03*
X18431600Y27647400D03*
X20774600Y27335000D03*
X20149800Y27959800D03*
X20930800Y30459000D03*
Y29834200D03*
X20700000Y32102600D03*
X20900000Y33000000D03*
X20600000Y34500000D03*
X19100000Y33000000D03*
X20100000Y34500000D03*
X19600000D03*
X19100000D03*
X18431600Y32333400D03*
X20149800Y37488000D03*
X20462200Y37956600D03*
X19700000Y37156800D03*
X20600000Y35000000D03*
X20100000D03*
X19600000D03*
X19100000D03*
X21399400Y37956600D03*
X19525000Y39674800D03*
X18744000D03*
X21700000Y2667200D03*
X24500000Y499200D03*
X22000000D03*
X22336600Y2655400D03*
X24500000Y2999200D03*
X23742400Y1098200D03*
X23117600Y4529800D03*
X21804000Y4750000D03*
X23117600Y5154600D03*
X24500000Y5499200D03*
X24300000Y7100000D03*
X23176600Y7250000D03*
X23719800Y7750000D03*
X24500000Y7999200D03*
X22492800Y9840600D03*
X24200000Y12194600D03*
X22024200Y9528200D03*
X23273800Y9684400D03*
X21711800Y10153000D03*
X24500000Y10499200D03*
X23698800Y10153000D03*
X23700000Y12538400D03*
X22649000Y12496000D03*
X24700000Y12672600D03*
X21900000Y15500000D03*
X22400000D03*
X21900000Y15000000D03*
X22400000D03*
X23500000Y15500000D03*
Y15000000D03*
X23200000Y12821600D03*
X22649000Y17963000D03*
X24500000Y21994400D03*
X22649000Y19681200D03*
X21711800Y19837400D03*
X24700000Y20285600D03*
X24200000Y19769800D03*
X23700000Y20107400D03*
X23200000Y19769800D03*
X22492800Y22961400D03*
X24500000Y24494400D03*
X22000000D03*
Y22624800D03*
X24500000Y26994400D03*
X22000000D03*
X24500000Y29494400D03*
X22000000D03*
X22180400Y30302800D03*
X23742400Y33114400D03*
X21711800Y34676400D03*
X24500000Y32645800D03*
X21711800Y32333400D03*
X24500000Y31994400D03*
X23190400Y32250000D03*
X21711800Y32897600D03*
X23250300Y32825500D03*
X23300000Y34500000D03*
X23900000Y35500000D03*
X24054800Y37800400D03*
X24679600Y37644200D03*
X22180400D03*
X22768000Y39504000D03*
X27000000Y2000000D03*
X25067800Y2967800D03*
X26397800Y2467800D03*
X27022600Y312400D03*
X27000000Y2999200D03*
X27600000Y5200000D03*
X26241600Y4529800D03*
X27000000Y5499200D03*
X27178800Y4686000D03*
X25900000Y7000000D03*
X26554000Y7466200D03*
X27000000Y7999200D03*
Y10499200D03*
X26241600Y14682800D03*
X27000000Y15000000D03*
X25148200Y12964600D03*
X27000000Y12999200D03*
X26397800Y15307600D03*
X26176600Y17250000D03*
X26719800Y17750000D03*
X27000000Y21994400D03*
X26241600Y19993600D03*
X27000000Y24494400D03*
X26600000Y28000000D03*
X27000000Y26994400D03*
X27171800Y30153600D03*
X27000000Y29494400D03*
X27600000Y29800000D03*
X25054800Y30083800D03*
X27000000Y32802000D03*
Y31994400D03*
X26100000Y33000000D03*
X26241600Y31864800D03*
X27178800Y34520200D03*
X26554000Y35113600D03*
X27022600Y35457400D03*
X24992000Y35145000D03*
X26241600Y36394600D03*
X26554000Y37956600D03*
X27000000Y37621600D03*
X30597000Y403000D03*
X29521800Y2467800D03*
X29500000Y499200D03*
Y2999200D03*
X28584600Y781000D03*
X30100000Y5300000D03*
X28600000Y4500000D03*
X29500000Y5499200D03*
X29834200Y4686000D03*
X28900000Y7000000D03*
X29365600Y7466200D03*
X30300000Y7999200D03*
X30600000Y7300000D03*
X28800000Y12200000D03*
X28803200Y9996800D03*
X29500000Y10499200D03*
Y12999200D03*
X28000000Y15400000D03*
X29500000Y15499200D03*
Y17999200D03*
Y20505600D03*
Y23005600D03*
X28584600Y25304400D03*
X29000000Y28000000D03*
X29521800Y30185000D03*
X29500000Y29494400D03*
X30000000Y29800000D03*
X29834200Y34676400D03*
X29500000Y31994400D03*
X28740800Y31708600D03*
X29365600Y35113600D03*
X30500000Y37956600D03*
X28740800Y36394600D03*
X29053200Y37956600D03*
Y37331800D03*
X32512000Y2032000D03*
X32567800Y2967800D03*
X32177200Y2467800D03*
X32000000Y499200D03*
X33739200Y937200D03*
X31174200Y715200D03*
X33765500Y5500000D03*
X34051600Y4998400D03*
X31240000Y5000000D03*
X32500000Y5400000D03*
X32800000Y7000000D03*
X32566200Y7966200D03*
X32177200Y7466200D03*
X32000000Y10499200D03*
Y12999200D03*
Y15499200D03*
Y17999200D03*
Y20505600D03*
Y23005600D03*
X31280100Y27769800D03*
X33747600Y26250000D03*
X31248400D03*
X32489600Y30185000D03*
X32000000Y29494400D03*
X33500000Y29500000D03*
X31240000Y29678000D03*
X33739200Y33739200D03*
X32000000Y32979200D03*
Y31994400D03*
X32645800Y34676400D03*
X31275000Y34100000D03*
X31083800Y32489600D03*
X33739200Y31708600D03*
X32177200Y35113600D03*
X31400000Y37600000D03*
X33000000Y37956600D03*
X33739200Y36394600D03*
X31240000Y36238400D03*
X32000000Y37976000D03*
Y36994400D03*
X36830000Y2159000D03*
X35132200Y2967800D03*
X34832600Y2467800D03*
X37000000Y499200D03*
X34500000D03*
X37000000Y2999200D03*
X36465500Y5500000D03*
X37000000Y5499200D03*
X34440100Y4540100D03*
X37000000Y7100000D03*
X35266200Y7966200D03*
X34988800Y7466200D03*
X37000000Y7999200D03*
X34500000Y8100000D03*
X37000000Y10499200D03*
X34500000D03*
Y12999200D03*
X37000000D03*
X34500000Y15499200D03*
X37000000D03*
Y17999200D03*
X34500000D03*
X37175600Y17182000D03*
X37000000Y20505600D03*
X34500000D03*
X35500000Y19600000D03*
X37000000Y23005600D03*
X34500000D03*
X34429800Y25229800D03*
X37000000Y27400000D03*
X36200000D03*
X37000000Y28000000D03*
X36200000D03*
X36246800Y26250000D03*
X35145000Y30028800D03*
X37331800Y30459000D03*
X37000000Y29494400D03*
X34500000D03*
X36700000Y30100000D03*
X37000000Y34494400D03*
X34500000Y31994400D03*
X37000000D03*
X36220200Y34220200D03*
X35500000Y37956600D03*
X37000000Y37976000D03*
X34500000D03*
X37000000Y36994400D03*
X34500000D03*
X39500000Y499200D03*
Y2999200D03*
Y5499200D03*
X38580200Y3750000D03*
X39500000Y7999200D03*
X38581400Y12339800D03*
X39500000Y10499200D03*
X38737600Y14837600D03*
X39500000Y12999200D03*
Y15499200D03*
X39362400Y18119200D03*
X39500000Y21994400D03*
Y24494400D03*
Y26994400D03*
Y29494400D03*
Y34494400D03*
Y31994400D03*
X38000000Y37956600D03*
X39500000Y36994400D03*
Y39494400D03*
G54D11*
G01X0Y-1400000D02*
X-2400000D01*
G01X-1200000Y-2600000D02*
Y-200000D01*
G01X-500000Y-1400000D02*
G03I-700000J0D01*
G01X-200000Y-1300000D02*
G03I-1000000J-100000D01*
G01X-1700000Y41300000D02*
G03I-1000000J-100000D01*
G01X-2000000Y41200000D02*
G03I-700000J0D01*
G01X-2700000Y40000000D02*
Y42400000D01*
G01X-1500000Y41200000D02*
X-3900000D01*
G01X39999900Y39999900D02*
X0D01*
Y0D01*
X39999900D01*
Y39999900D01*
G01X42300000Y-1300000D02*
X39900000D01*
G01X42100000Y-1200000D02*
G03I-1000000J-100000D01*
G01X41100000Y-2500000D02*
Y-100000D01*
G01X41800000Y-1300000D02*
G03I-700000J0D01*
G01X41700000Y40100000D02*
Y42500000D01*
G01X42400000Y41300000D02*
G03I-700000J0D01*
G01X42700000Y41400000D02*
G03I-1000000J-100000D01*
G01X42900000Y41300000D02*
X40500000D01*
M02*
