G04 ================== begin FILE IDENTIFICATION RECORD ==================*
G04 Layout Name:  LED Panel G4 V1, 03-26-2017.brd*
G04 Film Name:    Soldermask_top*
G04 File Format:  Gerber RS274X*
G04 File Origin:  Cadence Allegro 17.2-P019*
G04 Origin Date:  Tue Aug 25 16:25:07 2020*
G04 *
G04 Layer:  VIA CLASS/SOLDERMASK_TOP*
G04 Layer:  PIN/SOLDERMASK_TOP*
G04 Layer:  DRC ERROR CLASS/SOLDERMASK_TOP*
G04 Layer:  BOARD GEOMETRY/OUTLINE*
G04 *
G04 Offset:    (0.0000 0.0000)*
G04 Mirror:    No*
G04 Mode:      Positive*
G04 Rotation:  0*
G04 FullContactRelief:  No*
G04 UndefLineWidth:     0.1000*
G04 ================== end FILE IDENTIFICATION RECORD ====================*
%FSLAX33Y33*MOMM*%
%IR0*IPPOS*OFA0.00000B0.00000*MIA0B0*SFA1.00000B1.00000*%
%ADD14R,1.5X.4*%
%ADD13R,.4X1.5*%
%ADD15C,.4*%
%ADD16R,.375X.375*%
%ADD19R,.3X.7*%
%ADD17R,.7X.3*%
%ADD11R,.65X.5001*%
%ADD10R,.5001X.65*%
%ADD12R,3.68X1.27*%
%ADD18R,2.7X2.7*%
%ADD20C,.1*%
G75*
%LPD*%
G75*
G54D10*
X14495Y6248D03*
X14339Y3436D03*
X14495Y7185D03*
Y7966D03*
X14800Y34400D03*
X11464Y23274D03*
X12465D03*
X14800Y31300D03*
X14808Y35301D03*
Y36082D03*
X13152Y28585D03*
X12152D03*
X11464Y21556D03*
X12465D03*
X11464Y24992D03*
X12465D03*
X11464Y25773D03*
X12465D03*
X2700Y16400D03*
X3700D03*
X15495Y6248D03*
X15339Y3436D03*
X15495Y7185D03*
Y7966D03*
X28837Y3683D03*
X29837D03*
X25916D03*
X26916D03*
X28710Y8128D03*
X29710D03*
X32774Y7747D03*
X33774D03*
X34425Y3683D03*
X35425D03*
X31758D03*
X32758D03*
X15800Y34400D03*
X17619Y15308D03*
X18619D03*
X17619Y13589D03*
X18619D03*
X17619Y17026D03*
X18619D03*
X17619Y17807D03*
X18619D03*
X27500Y28000D03*
X28500D03*
X15800Y31300D03*
X15808Y35301D03*
Y36082D03*
X27932Y16891D03*
X26932D03*
X28567Y17907D03*
X27567D03*
X28567Y18796D03*
X27567D03*
X28567Y19685D03*
X27567D03*
X28567Y20574D03*
X27567D03*
X28567Y21463D03*
X27567D03*
X24500Y35800D03*
X23500D03*
X24400Y36800D03*
X23400D03*
X28900Y36500D03*
X29900D03*
X26200D03*
X27200D03*
X23900Y23700D03*
X22900D03*
X23900Y24600D03*
X22900D03*
X23900Y25400D03*
X22900D03*
X23900Y26200D03*
X22900D03*
X23900Y27000D03*
X22900D03*
X23900Y27800D03*
X22900D03*
X22200Y39200D03*
X21200D03*
G54D20*
G01X40000Y40000D02*
X0D01*
Y0D01*
X40000D01*
Y40000D01*
G01X0Y-1400D02*
X-2400D01*
G01X-1200Y-2600D02*
Y-200D01*
G01X-500Y-1400D02*
G03I-700J0D01*
G01X-200Y-1300D02*
G03I-1000J-100D01*
G01X-1700Y41300D02*
G03I-1000J-100D01*
G01X-2000Y41200D02*
G03I-700J0D01*
G01X-2700Y40000D02*
Y42400D01*
G01X-1500Y41200D02*
X-3900D01*
G01X42300Y-1300D02*
X39900D01*
G01X42100Y-1200D02*
G03I-1000J-100D01*
G01X41100Y-2500D02*
Y-100D01*
G01X41800Y-1300D02*
G03I-700J0D01*
G01X42900Y41300D02*
X40500D01*
G01X41700Y40100D02*
Y42500D01*
G01X42400Y41300D02*
G03I-700J0D01*
G01X42700Y41400D02*
G03I-1000J-100D01*
G54D11*
X1093Y11215D03*
Y12215D03*
X14839Y29553D03*
Y28553D03*
X22493Y10902D03*
Y11903D03*
X21712Y10902D03*
Y11903D03*
X19213Y906D03*
Y1906D03*
X18432Y906D03*
Y1906D03*
X17963Y11434D03*
Y10434D03*
X18744Y11434D03*
Y10434D03*
X19525Y11434D03*
Y10434D03*
X23368Y10930D03*
Y11930D03*
X25908Y8009D03*
Y9009D03*
X36068Y8120D03*
Y7120D03*
X20931Y21431D03*
Y20431D03*
X21712Y21431D03*
Y20431D03*
X22493Y21431D03*
Y20431D03*
X19525Y28866D03*
Y29866D03*
X18744Y28866D03*
Y29866D03*
X16494Y18869D03*
Y19869D03*
X15713Y18869D03*
Y19869D03*
X15776Y29553D03*
Y28553D03*
X16557Y29553D03*
Y28553D03*
X38738Y14402D03*
Y13402D03*
X24200Y30400D03*
Y31400D03*
X25500Y27100D03*
Y28100D03*
X23300Y30600D03*
Y29600D03*
X18800Y18600D03*
Y19600D03*
X19600Y18600D03*
Y19600D03*
X17963Y39238D03*
Y38238D03*
X18744Y39238D03*
Y38238D03*
X19525Y39238D03*
Y38238D03*
G54D12*
X8847Y11770D03*
Y9230D03*
X4407D03*
Y11770D03*
X8847Y27770D03*
Y25230D03*
X4407D03*
Y27770D03*
X35720Y11770D03*
Y9230D03*
X31280D03*
Y11770D03*
X35720Y27770D03*
Y25230D03*
X31280D03*
Y27770D03*
G54D13*
X14300Y11700D03*
X13100D03*
X14200Y33200D03*
X8900Y22500D03*
X10100D03*
X7700D03*
X15500Y11700D03*
X15400Y33200D03*
X16600D03*
G54D14*
X13200Y4800D03*
Y6000D03*
Y3600D03*
G54D15*
X1093Y10407D03*
X10600Y10400D03*
X8000Y9600D03*
X8600D03*
X9200D03*
X9800D03*
X14900Y12300D03*
X11800Y4800D03*
X15000Y5300D03*
X14214Y2655D03*
X13746Y6876D03*
X13589Y7501D03*
X3600Y12000D03*
X1999Y12215D03*
X14500Y499D03*
X12000D03*
X9500D03*
X7000D03*
X4500D03*
X2000D03*
X14500Y4501D03*
X12000Y2999D03*
X9500D03*
X7000D03*
X4500D03*
X2000D03*
X14500Y5499D03*
X12000D03*
X9500D03*
X7000D03*
X4500D03*
X2000D03*
X14500Y9501D03*
X12000Y7999D03*
X9500D03*
X7000D03*
X4500D03*
X2000D03*
X14500Y10499D03*
X12000D03*
X9500D03*
X7000D03*
X4500D03*
X2000D03*
X1087Y18750D03*
X13746Y16401D03*
X10500Y19334D03*
X3743Y18750D03*
X6086D03*
X14995Y14712D03*
X8741Y18750D03*
X1908Y27770D03*
X13600Y14700D03*
X9400Y14600D03*
X6336Y14464D03*
X13500Y19700D03*
X13000Y23000D03*
X9400Y19600D03*
X6614Y34614D03*
X9714D03*
X13900Y34900D03*
X3214Y34614D03*
X3700Y29500D03*
X6400Y29600D03*
X9000Y29700D03*
X13800D03*
X13600Y27200D03*
X3638Y19462D03*
X6338D03*
X3736Y14464D03*
X13746Y35497D03*
X14370Y35301D03*
X14808Y30490D03*
X1087Y21250D03*
X11090Y24523D03*
X8591Y24055D03*
X14995Y19681D03*
X3593Y22493D03*
X11246Y26398D03*
X5500Y23114D03*
X13750Y34375D03*
X1875Y35000D03*
X6250Y37500D03*
X8750Y36875D03*
X12400Y35500D03*
X8279Y31999D03*
X5467D03*
X2499D03*
X11403D03*
X13750Y24750D03*
X13800Y23200D03*
X8500Y22500D03*
X11000Y22900D03*
X8700Y17000D03*
X6200D03*
X3464Y15464D03*
X10900Y17300D03*
X2000Y20100D03*
X5900Y22200D03*
X10600Y20100D03*
X8800Y20600D03*
X14214Y30416D03*
X13000Y32900D03*
X12184Y27960D03*
X1644Y25230D03*
X9060Y30334D03*
X12184D03*
X12014Y35114D03*
X9046D03*
X6079D03*
X3593D03*
Y30334D03*
X6404Y30303D03*
X12000Y20506D03*
X9500Y21994D03*
X7000D03*
X4500D03*
X2000D03*
X6542Y32628D03*
X14500Y20506D03*
X12000Y24340D03*
X9500Y23100D03*
X7000Y23006D03*
X4500D03*
X1256Y23750D03*
X3574Y32628D03*
X13700Y22000D03*
X8756Y26250D03*
X6256D03*
X3756D03*
X1256D03*
X12000Y26995D03*
X13754Y26250D03*
X4500Y29494D03*
X1256Y28750D03*
X5936Y32958D03*
X7000Y29494D03*
X9500D03*
X12000D03*
X13746Y27960D03*
X13800Y32000D03*
X12000Y31994D03*
X4500Y31835D03*
X1256Y31250D03*
X8903Y32958D03*
X7000Y32148D03*
X13600Y33000D03*
X8756Y33750D03*
X6256D03*
X3756D03*
X1256D03*
X12000Y32986D03*
X11246Y32958D03*
X14500Y36994D03*
X12000D03*
X9500D03*
X7000D03*
X4500D03*
X2000D03*
X11200Y13200D03*
X8903Y14964D03*
X12340D03*
X11715Y19962D03*
X8747D03*
X5936D03*
X3124D03*
X3905Y14964D03*
X6717D03*
X6248Y15464D03*
X1874Y14839D03*
X3749Y20462D03*
X6560D03*
X9372D03*
X14500Y12999D03*
X12000D03*
X9500D03*
X7000D03*
X4500D03*
X2000D03*
X11200Y18200D03*
X12000Y17001D03*
X9500D03*
X14500Y15490D03*
X4500Y17001D03*
X2000Y15499D03*
X7000Y17001D03*
X14500Y17999D03*
X12000D03*
X9500D03*
X7000D03*
X4500D03*
X2000D03*
X9216Y15464D03*
X14500Y39494D03*
X12000D03*
X9500D03*
X7000D03*
X4500D03*
X2000D03*
X22493Y9841D03*
X21243Y10465D03*
X16245Y12496D03*
X24200Y12195D03*
X21700Y2667D03*
X23118Y4530D03*
X21804Y4750D03*
X16200Y6900D03*
X33766Y5500D03*
X36466D03*
X32800Y7000D03*
X37000Y7100D03*
X32512Y2032D03*
X36830Y2159D03*
X30597Y403D03*
X27000Y2000D03*
X27600Y5200D03*
X30100Y5300D03*
X32568Y2968D03*
X35132D03*
X32566Y7966D03*
X35266D03*
X28600Y4500D03*
X24300Y7100D03*
X19100Y5000D03*
X19600D03*
X20100D03*
X19100Y5500D03*
X19600D03*
X20100D03*
X19100Y7000D03*
X19600D03*
X20200D03*
X25068Y2968D03*
X25900Y7000D03*
X28900D03*
X38581Y12340D03*
X19700Y7829D03*
X28800Y12200D03*
X28803Y9997D03*
X20618Y2031D03*
X29522Y2468D03*
X23177Y7250D03*
X26398Y2468D03*
X23720Y7750D03*
X26554Y7466D03*
X22024Y9528D03*
X29366Y7466D03*
X21200Y9770D03*
X32177Y7466D03*
X20700Y10235D03*
X34989Y7466D03*
X20200Y9790D03*
X34833Y2468D03*
X19700Y2478D03*
X32177Y2468D03*
X20200Y2822D03*
X39500Y499D03*
X37000D03*
X34500D03*
X32000D03*
X29500D03*
X24500D03*
X22000D03*
X27023Y312D03*
X22337Y2655D03*
X24500Y2999D03*
X27000D03*
X29500D03*
X39500D03*
X37000D03*
X34052Y4998D03*
X31240Y5000D03*
X26242Y4530D03*
X23118Y5155D03*
X29500Y5499D03*
X27000D03*
X24500D03*
X32500Y5400D03*
X37000Y5499D03*
X39500D03*
X34440Y4540D03*
X30300Y7999D03*
X37000D03*
X39500D03*
X23274Y9684D03*
X27000Y7999D03*
X24500D03*
X34500Y8100D03*
X21712Y10153D03*
X39500Y10499D03*
X37000D03*
X34500D03*
X32000D03*
X29500D03*
X27000D03*
X24500D03*
X30600Y7300D03*
X27179Y4686D03*
X29834D03*
X28585Y781D03*
X33739Y937D03*
X16245Y11871D03*
X38580Y3750D03*
X19985Y12643D03*
X21243Y625D03*
X19056Y12652D03*
X31174Y715D03*
X23699Y10153D03*
X23742Y1098D03*
X23700Y12538D03*
X22649Y12496D03*
X20462Y469D03*
X17000Y2000D03*
Y2999D03*
X18744Y2655D03*
X16245Y5467D03*
X19681Y9528D03*
X17000Y9501D03*
X19500Y12184D03*
X17000Y10499D03*
X21087Y22180D03*
X32490Y30185D03*
X16245Y16557D03*
X35145Y30029D03*
X26554Y35114D03*
X20150Y37488D03*
X29366Y35114D03*
X20462Y37957D03*
X18739Y16250D03*
X22493Y22961D03*
X32177Y35114D03*
X23900Y35500D03*
X27172Y30154D03*
X29522Y30185D03*
X23742Y33114D03*
X33739Y33739D03*
X21712Y34676D03*
X24500Y32646D03*
X27000Y32802D03*
X37000Y34494D03*
X39500D03*
X29834Y34676D03*
X32000Y32979D03*
X16084Y13750D03*
X21399Y22961D03*
X37332Y30459D03*
X39500Y24494D03*
X37000Y23006D03*
X34500D03*
X32000D03*
X29500D03*
X27000Y24494D03*
X24500D03*
X22000D03*
X39500Y29494D03*
X31400Y37600D03*
X37000Y29494D03*
X34500D03*
X32000D03*
X29500D03*
X27000D03*
X24500D03*
X22000D03*
X21712Y32333D03*
X24500Y31994D03*
X27000D03*
X29500D03*
X32000D03*
X34500D03*
X37000D03*
X39500D03*
X32646Y34676D03*
X31280Y27770D03*
X20700Y32103D03*
X18200Y20381D03*
X20931Y30459D03*
X18700Y20662D03*
X22180Y30303D03*
X24700Y12673D03*
X34430Y25230D03*
X19994Y22180D03*
X23190Y32250D03*
X26242Y14683D03*
X29000Y28000D03*
X19700Y37157D03*
X27000Y15000D03*
X18619Y15308D03*
X31275Y34100D03*
X36220Y34220D03*
X36700Y30100D03*
X33500Y29500D03*
X27600Y29800D03*
X30000D03*
X37000Y27400D03*
X36200D03*
X37000Y28000D03*
X36200D03*
X26600D03*
X18300Y34600D03*
X18200Y33000D03*
X21712Y32898D03*
X26100Y33000D03*
X38738Y14838D03*
X20931Y29834D03*
X19525Y27960D03*
X31240Y29678D03*
X22000Y22625D03*
X39500Y21994D03*
X37000Y20506D03*
X34500D03*
X32000D03*
X29500D03*
X27000Y21994D03*
X24500D03*
X38000Y37957D03*
X35500D03*
X33000D03*
X30500D03*
X27023Y35457D03*
X24992Y35145D03*
X23250Y32826D03*
X18744Y28428D03*
X16000Y17700D03*
X16245Y30459D03*
X19681Y27179D03*
X17338Y30303D03*
X21300Y24700D03*
X21900Y15500D03*
X22400D03*
X21900Y15000D03*
X22400D03*
X23500Y15500D03*
Y15000D03*
X28741Y36395D03*
X31084Y32490D03*
X26242Y31865D03*
X33739Y36395D03*
X31240Y36238D03*
X26242Y36395D03*
X28741Y31709D03*
X33739D03*
X23300Y34500D03*
X20900Y33000D03*
X20600Y34500D03*
Y35000D03*
X19100Y33000D03*
X20100Y34500D03*
X19600D03*
X19100D03*
X20100Y35000D03*
X19600D03*
X19100D03*
X16600Y25000D03*
X16000D03*
X17200D03*
X16000Y24500D03*
X16600D03*
X17200D03*
X16000Y23000D03*
X17200D03*
X16400Y15100D03*
X39500Y26994D03*
X36247Y26250D03*
X33748D03*
X31248D03*
X27000Y26994D03*
X24500D03*
X22000D03*
X28585Y25304D03*
X27179Y34520D03*
X21087Y12808D03*
X25148Y12965D03*
X27000Y12999D03*
X29500D03*
X32000D03*
X34500D03*
X37000D03*
X39500D03*
X28000Y15400D03*
X29500Y15499D03*
X32000D03*
X34500D03*
X37000D03*
X39500D03*
X21248Y16250D03*
X26398Y15308D03*
X22649Y19681D03*
X26242Y19994D03*
X39362Y18119D03*
X37000Y17999D03*
X34500D03*
X32000D03*
X29500D03*
X16557Y27804D03*
X17700Y20100D03*
X37176Y17182D03*
X35500Y19600D03*
X20150Y24836D03*
Y25461D03*
X18888Y27179D03*
X18432Y27647D03*
X17651Y27491D03*
X17200Y27786D03*
X16870Y20462D03*
X20100Y19600D03*
X19500Y20487D03*
X15308Y22337D03*
X20150Y22961D03*
X20775Y27335D03*
X20150Y27960D03*
X17494Y29522D03*
X18275Y30459D03*
X16000Y32000D03*
X16600Y34800D03*
X18432Y32333D03*
X18290Y35450D03*
X17000Y36994D03*
X18275Y37488D03*
X22649Y17963D03*
X21399Y37957D03*
X24055Y37800D03*
X37000Y37976D03*
X34500D03*
X32000D03*
X26554Y37957D03*
X29053D03*
X20494Y20431D03*
X21712Y19837D03*
X26177Y17250D03*
X26720Y17750D03*
X24700Y20286D03*
X24200Y19770D03*
X23700Y20107D03*
X23200Y19770D03*
Y12822D03*
X39500Y36994D03*
X37000D03*
X34500D03*
X32000D03*
X29053Y37332D03*
X27000Y37622D03*
X24680Y37644D03*
X22180D03*
X25055Y30084D03*
X19500Y12999D03*
X17000D03*
X19500Y15489D03*
X17000Y15490D03*
Y17999D03*
X19525Y39675D03*
X18744D03*
X17963D03*
X22768Y39504D03*
X17000Y39494D03*
X39500D03*
G54D16*
X9979Y15464D03*
Y14964D03*
Y14464D03*
X8279D03*
Y14964D03*
Y15464D03*
X12946D03*
Y14964D03*
Y14464D03*
X11246D03*
Y14964D03*
Y15464D03*
X12946Y20462D03*
Y19962D03*
Y19462D03*
X11246D03*
Y19962D03*
Y20462D03*
X9979D03*
Y19962D03*
Y19462D03*
X8279D03*
Y19962D03*
Y20462D03*
X7167D03*
Y19962D03*
Y19462D03*
X5467D03*
Y19962D03*
Y20462D03*
X4355D03*
Y19962D03*
Y19462D03*
X2655D03*
Y19962D03*
Y20462D03*
X4355Y15464D03*
Y14964D03*
Y14464D03*
X2655D03*
Y14964D03*
Y15464D03*
X7167D03*
Y14964D03*
Y14464D03*
X5467D03*
Y14964D03*
Y15464D03*
X9979Y31084D03*
Y30584D03*
Y30084D03*
X8279D03*
Y30584D03*
Y31084D03*
X13103D03*
Y30584D03*
Y30084D03*
X11403D03*
Y30584D03*
Y31084D03*
X13103Y35614D03*
Y35114D03*
Y34614D03*
X11403D03*
Y35114D03*
Y35614D03*
X10135D03*
Y35114D03*
Y34614D03*
X8435D03*
Y35114D03*
Y35614D03*
X7167D03*
Y35114D03*
Y34614D03*
X5467D03*
Y35114D03*
Y35614D03*
X4199D03*
Y35114D03*
Y34614D03*
X2499D03*
Y35114D03*
Y35614D03*
X4199Y31084D03*
Y30584D03*
Y30084D03*
X2499D03*
Y30584D03*
Y31084D03*
X7167D03*
Y30584D03*
Y30084D03*
X5467D03*
Y30584D03*
Y31084D03*
X30597Y2968D03*
Y2468D03*
Y1968D03*
X28897D03*
Y2468D03*
Y2968D03*
X27629D03*
Y2468D03*
Y1968D03*
X25929D03*
Y2468D03*
Y2968D03*
X27600Y6500D03*
Y6000D03*
Y5500D03*
X25900D03*
Y6000D03*
Y6500D03*
X30600D03*
Y6000D03*
Y5500D03*
X28900D03*
Y6000D03*
Y6500D03*
X33400D03*
Y6000D03*
Y5500D03*
X31700D03*
Y6000D03*
Y6500D03*
X36100D03*
Y6000D03*
Y5500D03*
X34400D03*
Y6000D03*
Y6500D03*
X36064Y2968D03*
Y2468D03*
Y1968D03*
X34364D03*
Y2468D03*
Y2968D03*
X33409D03*
Y2468D03*
Y1968D03*
X31709D03*
Y2468D03*
Y2968D03*
X30597Y31084D03*
Y30584D03*
Y30084D03*
X28897D03*
Y30584D03*
Y31084D03*
X27785D03*
Y30584D03*
Y30084D03*
X26085D03*
Y30584D03*
Y31084D03*
X36220Y35614D03*
Y35114D03*
Y34614D03*
X34520D03*
Y35114D03*
Y35614D03*
X33409D03*
Y35114D03*
Y34614D03*
X31709D03*
Y35114D03*
Y35614D03*
X30597D03*
Y35114D03*
Y34614D03*
X28897D03*
Y35114D03*
Y35614D03*
X27785D03*
Y35114D03*
Y34614D03*
X26085D03*
Y35114D03*
Y35614D03*
X36220Y31084D03*
Y30584D03*
Y30084D03*
X34520D03*
Y30584D03*
Y31084D03*
X33409D03*
Y30584D03*
Y30084D03*
X31709D03*
Y30584D03*
Y31084D03*
G54D17*
X14500Y22250D03*
Y22750D03*
Y23250D03*
Y23750D03*
Y24250D03*
Y24750D03*
Y25250D03*
Y25750D03*
X22400Y7750D03*
Y7250D03*
Y6750D03*
Y6250D03*
Y5750D03*
Y5250D03*
Y4750D03*
Y4250D03*
X17500D03*
Y4750D03*
Y5250D03*
Y5750D03*
Y6250D03*
Y6750D03*
Y7250D03*
Y7750D03*
X25400Y17750D03*
Y17250D03*
Y16750D03*
Y16250D03*
Y15750D03*
Y15250D03*
Y14750D03*
Y14250D03*
X20500D03*
Y14750D03*
Y15250D03*
Y15750D03*
Y16250D03*
Y16750D03*
Y17250D03*
Y17750D03*
X22400Y35750D03*
Y35250D03*
Y34750D03*
Y34250D03*
Y33750D03*
Y33250D03*
Y32750D03*
Y32250D03*
X17500D03*
Y32750D03*
Y33250D03*
Y33750D03*
Y34250D03*
Y34750D03*
Y35250D03*
Y35750D03*
X19400Y25750D03*
Y25250D03*
Y24750D03*
Y24250D03*
Y23750D03*
Y23250D03*
Y22750D03*
Y22250D03*
G54D18*
X20000Y6000D03*
X23000Y16000D03*
X20000Y34000D03*
X17000Y24000D03*
G54D19*
X18200Y8450D03*
X18700D03*
X19200D03*
X19700D03*
X20200D03*
X20700D03*
X21200D03*
X21700D03*
Y3550D03*
X21200D03*
X20700D03*
X20200D03*
X19700D03*
X19200D03*
X18700D03*
X18200D03*
X21200Y18450D03*
X21700D03*
X22200D03*
X22700D03*
X23200D03*
X23700D03*
X24200D03*
X24700D03*
Y13550D03*
X24200D03*
X23700D03*
X23200D03*
X22700D03*
X22200D03*
X21700D03*
X21200D03*
X18200Y36450D03*
X18700D03*
X19200D03*
X19700D03*
X20200D03*
X20700D03*
X21200D03*
X21700D03*
Y31550D03*
X21200D03*
X20700D03*
X20200D03*
X19700D03*
X19200D03*
X18700D03*
X18200D03*
X15200Y26450D03*
X15700D03*
X16200D03*
X16700D03*
X17200D03*
X17700D03*
X18200D03*
X18700D03*
Y21550D03*
X18200D03*
X17700D03*
X17200D03*
X16700D03*
X16200D03*
X15700D03*
X15200D03*
M02*
