G04 ================== begin FILE IDENTIFICATION RECORD ==================*
G04 Layout Name:  LED Panel G4 V1, 03-26-2017.brd*
G04 Film Name:    Soldermask_top*
G04 File Format:  Gerber RS274X*
G04 File Origin:  Cadence Allegro 17.4-S007*
G04 Origin Date:  Wed Nov 11 20:24:19 2020*
G04 *
G04 Layer:  VIA CLASS/SOLDERMASK_TOP*
G04 Layer:  PIN/SOLDERMASK_TOP*
G04 Layer:  DRC ERROR CLASS/SOLDERMASK_TOP*
G04 Layer:  BOARD GEOMETRY/OUTLINE*
G04 *
G04 Offset:    (0.0000 0.0000)*
G04 Mirror:    No*
G04 Mode:      Positive*
G04 Rotation:  0*
G04 FullContactRelief:  No*
G04 UndefLineWidth:     0.1000*
G04 ================== end FILE IDENTIFICATION RECORD ====================*
%FSLAX46Y46*MOMM*%
%IR0*IPPOS*OFA0.00000B0.00000*MIA0B0*SFA1.00000B1.00000*%
%ADD16R,1.5X.4*%
%ADD15R,.4X1.5*%
%ADD10C,.4*%
%ADD12R,.375X.375*%
%ADD18R,.3X.7*%
%ADD17R,.7X.3*%
%ADD11R,.65X.5001*%
%ADD14R,.5001X.65*%
%ADD13R,3.68X1.27*%
%ADD19R,2.7X2.7*%
%ADD20C,.1*%
G75*
%LPD*%
G75*
G54D10*
X2000000Y499200D03*
Y2999200D03*
Y5499200D03*
Y7999200D03*
X1093400Y10406600D03*
X1999100Y12215100D03*
X2000000Y10499200D03*
X1874400Y14839000D03*
X2000000Y12999200D03*
Y15499200D03*
X1087400Y18750000D03*
X2000000Y17999200D03*
X1086600Y21250000D03*
X2000000Y20100000D03*
Y21994400D03*
X1643600Y25229800D03*
X1255600Y23750000D03*
X1908200Y27769800D03*
X1255600Y26250000D03*
Y28750000D03*
Y31250000D03*
X2499200Y31999200D03*
X1255600Y33750000D03*
X1875000Y35000000D03*
X2000000Y36994400D03*
Y39494400D03*
X4500000Y499200D03*
Y2999200D03*
Y5499200D03*
Y7999200D03*
X3600000Y12000000D03*
X4500000Y10499200D03*
X3736200Y14463800D03*
X3463800Y15463800D03*
X3905000Y14963800D03*
X4500000Y12999200D03*
X3742800Y18750000D03*
X4500000Y17000800D03*
Y17999200D03*
X3637800Y19462200D03*
X4500000Y21994400D03*
X3124000Y19962200D03*
X3748800Y20462200D03*
X3592600Y22492800D03*
X5500000Y23114000D03*
X4500000Y23005600D03*
X3755600Y26250000D03*
X3700000Y29500000D03*
X3592600Y30334200D03*
X4500000Y29494400D03*
X3213600Y34613600D03*
X5467000Y31999200D03*
X3574400Y32627600D03*
X4500000Y31835000D03*
X3755600Y33750000D03*
X3592600Y35113600D03*
X4500000Y36994400D03*
Y39494400D03*
X7000000Y499200D03*
Y2999200D03*
Y5499200D03*
Y7999200D03*
X8000000Y9600000D03*
X8600000D03*
X7000000Y10499200D03*
X6336200Y14463800D03*
X6716600Y14963800D03*
X6248000Y15463800D03*
X7000000Y12999200D03*
X6085800Y18750000D03*
X8741200D03*
X8700000Y17000000D03*
X6200000D03*
X7000000Y17000800D03*
Y17999200D03*
X6337800Y19462200D03*
X8800000Y20600000D03*
X7000000Y21994400D03*
X8747200Y19962200D03*
X5935600D03*
X6560400Y20462200D03*
X8591000Y24054800D03*
X8500000Y22500000D03*
X5900000Y22200000D03*
X7000000Y23005600D03*
X8755600Y26250000D03*
X6255600D03*
X6400000Y29600000D03*
X6404200Y30302800D03*
X7000000Y29494400D03*
X6613600Y34613600D03*
X8278600Y31999200D03*
X6542200Y32627600D03*
X5935600Y32958200D03*
X7000000Y32148200D03*
X8755600Y33750000D03*
X6255600D03*
X6250000Y37500000D03*
X8750000Y36875000D03*
X6078600Y35113600D03*
X7000000Y36994400D03*
Y39494400D03*
X12000000Y499200D03*
X9500000D03*
X12000000Y2999200D03*
X9500000D03*
X11800000Y4800000D03*
X12000000Y5499200D03*
X9500000D03*
X12000000Y7999200D03*
X9500000D03*
X10600000Y10400000D03*
X9200000Y9600000D03*
X9800000D03*
X12000000Y10499200D03*
X9500000D03*
X9400000Y14600000D03*
X11200000Y13200000D03*
X8903400Y14963800D03*
X12000000Y12999200D03*
X9500000D03*
X9215800Y15463800D03*
X10900000Y17300000D03*
X11200000Y18200000D03*
X12000000Y17000800D03*
X9500000D03*
X12000000Y17999200D03*
X9500000D03*
X10500000Y19334200D03*
X9400000Y19600000D03*
X10600000Y20100000D03*
X12000000Y20505600D03*
X9500000Y21994400D03*
X11715000Y19962200D03*
X9372000Y20462200D03*
X11090200Y24523400D03*
X11000000Y22900000D03*
X12000000Y24339800D03*
X9500000Y23100000D03*
X11246400Y26397800D03*
X12000000Y26995200D03*
X9000000Y29700000D03*
X9059600Y30334200D03*
X9500000Y29494400D03*
X12000000D03*
X9713600Y34613600D03*
X11402600Y31999200D03*
X12000000Y31993600D03*
X8903400Y32958200D03*
X12000000Y32985600D03*
X11246400Y32958200D03*
X12014200Y35113600D03*
X9046400D03*
X12000000Y36994400D03*
X9500000D03*
X12000000Y39494400D03*
X9500000D03*
X14214200Y2655400D03*
X14500000Y499200D03*
X15000000Y5300000D03*
X14500000Y4500800D03*
Y5499200D03*
X13745600Y6876400D03*
X13589400Y7501200D03*
X14900000Y12300000D03*
X14500000Y9500800D03*
Y10499200D03*
X14995200Y14711800D03*
X13600000Y14700000D03*
X12339800Y14963800D03*
X14500000Y12999200D03*
Y15490400D03*
X13745600Y16401000D03*
X14500000Y17999200D03*
X13500000Y19700000D03*
X14995200Y19681200D03*
X14500000Y20505600D03*
X13700000Y22000000D03*
X13000000Y23000000D03*
X13750000Y24750000D03*
X13800000Y23200000D03*
X13600000Y27200000D03*
X12183600Y27959800D03*
X13754000Y26250000D03*
X13745600Y27959800D03*
X13800000Y29700000D03*
X14807500Y30490500D03*
X14214200Y30415600D03*
X12183600Y30334200D03*
X13750000Y34375000D03*
X13000000Y32900000D03*
X13800000Y32000000D03*
X13600000Y33000000D03*
X13900000Y34900000D03*
X13745600Y35497400D03*
X14370400Y35301200D03*
X12400000Y35500000D03*
X14500000Y36994400D03*
Y39494400D03*
X17000000Y2000000D03*
Y2999200D03*
X16244800Y5467000D03*
X16200000Y6900000D03*
X16244800Y12496000D03*
Y11871200D03*
X17000000Y9500800D03*
Y10499200D03*
X16084200Y13750000D03*
X16400000Y15100000D03*
X17000000Y12999200D03*
Y15489600D03*
X16244800Y16557200D03*
X16000000Y17700000D03*
X17000000Y17999200D03*
X18200000Y20381400D03*
X17700000Y20100000D03*
X16869600Y20462200D03*
X16600000Y25000000D03*
X16000000D03*
X17200000D03*
X16000000Y24500000D03*
X16600000D03*
X17200000D03*
X16000000Y23000000D03*
X17200000D03*
X15307600Y22336600D03*
X16557200Y27803600D03*
X17650600Y27491200D03*
X17200000Y27785600D03*
X16244800Y30459000D03*
X17338200Y30302800D03*
X17494400Y29521800D03*
X18275400Y30459000D03*
X18300000Y34600000D03*
X18200000Y33000000D03*
X16000000Y32000000D03*
X16600000Y34800000D03*
X18290000Y35450000D03*
X17000000Y36994400D03*
X18275400Y37488000D03*
X17963000Y39674800D03*
X17000000Y39494400D03*
X20618400Y2030600D03*
X19700000Y2477800D03*
X20200000Y2821600D03*
X21243200Y624800D03*
X20462200Y468600D03*
X18744000Y2655400D03*
X19100000Y5000000D03*
X19600000D03*
X20100000D03*
X19100000Y5500000D03*
X19600000D03*
X20100000D03*
X19100000Y7000000D03*
X19600000D03*
X20200000D03*
X19700000Y7828800D03*
X21243200Y10465400D03*
X21200000Y9769800D03*
X20700000Y10234600D03*
X20200000Y9790400D03*
X19984800Y12643400D03*
X19056400Y12652200D03*
X19681200Y9528200D03*
X19500000Y12183600D03*
X18619300Y15307600D03*
X21087000Y12808400D03*
X19500000Y12999200D03*
Y15488800D03*
X18738800Y16250000D03*
X21248400D03*
X18700000Y20662400D03*
X20099900Y19600100D03*
X19500000Y20487200D03*
X20493700Y20430700D03*
X21087000Y22180400D03*
X21399400Y22961400D03*
X19993600Y22180400D03*
X21300000Y24700000D03*
X20149800Y24835800D03*
Y22961400D03*
X19525000Y27959800D03*
X18744000Y28428400D03*
X19681200Y27178800D03*
X20149800Y25460600D03*
X18888200Y27178800D03*
X18431600Y27647400D03*
X20774600Y27335000D03*
X20149800Y27959800D03*
X20930800Y30459000D03*
Y29834200D03*
X20700000Y32102600D03*
X20900000Y33000000D03*
X20600000Y34500000D03*
X19100000Y33000000D03*
X20100000Y34500000D03*
X19600000D03*
X19100000D03*
X18431600Y32333400D03*
X20149800Y37488000D03*
X20462200Y37956600D03*
X19700000Y37156800D03*
X20600000Y35000000D03*
X20100000D03*
X19600000D03*
X19100000D03*
X21399400Y37956600D03*
X19525000Y39674800D03*
X18744000D03*
X21700000Y2667200D03*
X24500000Y499200D03*
X22000000D03*
X22336600Y2655400D03*
X24500000Y2999200D03*
X23742400Y1098200D03*
X23117600Y4529800D03*
X21804000Y4750000D03*
X23117600Y5154600D03*
X24500000Y5499200D03*
X24300000Y7100000D03*
X23176600Y7250000D03*
X23719800Y7750000D03*
X24500000Y7999200D03*
X22492800Y9840600D03*
X24200000Y12194600D03*
X22024200Y9528200D03*
X23273800Y9684400D03*
X21711800Y10153000D03*
X24500000Y10499200D03*
X23698800Y10153000D03*
X23700000Y12538400D03*
X22649000Y12496000D03*
X24700000Y12672600D03*
X21900000Y15500000D03*
X22400000D03*
X21900000Y15000000D03*
X22400000D03*
X23500000Y15500000D03*
Y15000000D03*
X23200000Y12821600D03*
X22649000Y17963000D03*
X24500000Y21994400D03*
X22649000Y19681200D03*
X21711800Y19837400D03*
X24700000Y20285600D03*
X24200000Y19769800D03*
X23700000Y20107400D03*
X23200000Y19769800D03*
X22492800Y22961400D03*
X24500000Y24494400D03*
X22000000D03*
Y22624800D03*
X24500000Y26994400D03*
X22000000D03*
X24500000Y29494400D03*
X22000000D03*
X22180400Y30302800D03*
X23742400Y33114400D03*
X21711800Y34676400D03*
X24500000Y32645800D03*
X21711800Y32333400D03*
X24500000Y31994400D03*
X23190400Y32250000D03*
X21711800Y32897600D03*
X23250300Y32825500D03*
X23300000Y34500000D03*
X23900000Y35500000D03*
X24054800Y37800400D03*
X24679600Y37644200D03*
X22180400D03*
X22768000Y39504000D03*
X27000000Y2000000D03*
X25067800Y2967800D03*
X26397800Y2467800D03*
X27022600Y312400D03*
X27000000Y2999200D03*
X27600000Y5200000D03*
X26241600Y4529800D03*
X27000000Y5499200D03*
X27178800Y4686000D03*
X25900000Y7000000D03*
X26554000Y7466200D03*
X27000000Y7999200D03*
Y10499200D03*
X26241600Y14682800D03*
X27000000Y15000000D03*
X25148200Y12964600D03*
X27000000Y12999200D03*
X26397800Y15307600D03*
X26176600Y17250000D03*
X26719800Y17750000D03*
X27000000Y21994400D03*
X26241600Y19993600D03*
X27000000Y24494400D03*
X26600000Y28000000D03*
X27000000Y26994400D03*
X27171800Y30153600D03*
X27000000Y29494400D03*
X27600000Y29800000D03*
X25054800Y30083800D03*
X27000000Y32802000D03*
Y31994400D03*
X26100000Y33000000D03*
X26241600Y31864800D03*
X27178800Y34520200D03*
X26554000Y35113600D03*
X27022600Y35457400D03*
X24992000Y35145000D03*
X26241600Y36394600D03*
X26554000Y37956600D03*
X27000000Y37621600D03*
X30597000Y403000D03*
X29521800Y2467800D03*
X29500000Y499200D03*
Y2999200D03*
X28584600Y781000D03*
X30100000Y5300000D03*
X28600000Y4500000D03*
X29500000Y5499200D03*
X29834200Y4686000D03*
X28900000Y7000000D03*
X29365600Y7466200D03*
X30300000Y7999200D03*
X30600000Y7300000D03*
X28800000Y12200000D03*
X28803200Y9996800D03*
X29500000Y10499200D03*
Y12999200D03*
X28000000Y15400000D03*
X29500000Y15499200D03*
Y17999200D03*
Y20505600D03*
Y23005600D03*
X28584600Y25304400D03*
X29000000Y28000000D03*
X29521800Y30185000D03*
X29500000Y29494400D03*
X30000000Y29800000D03*
X29834200Y34676400D03*
X29500000Y31994400D03*
X28740800Y31708600D03*
X29365600Y35113600D03*
X30500000Y37956600D03*
X28740800Y36394600D03*
X29053200Y37956600D03*
Y37331800D03*
X32512000Y2032000D03*
X32567800Y2967800D03*
X32177200Y2467800D03*
X32000000Y499200D03*
X33739200Y937200D03*
X31174200Y715200D03*
X33765500Y5500000D03*
X34051600Y4998400D03*
X31240000Y5000000D03*
X32500000Y5400000D03*
X32800000Y7000000D03*
X32566200Y7966200D03*
X32177200Y7466200D03*
X32000000Y10499200D03*
Y12999200D03*
Y15499200D03*
Y17999200D03*
Y20505600D03*
Y23005600D03*
X31280100Y27769800D03*
X33747600Y26250000D03*
X31248400D03*
X32489600Y30185000D03*
X32000000Y29494400D03*
X33500000Y29500000D03*
X31240000Y29678000D03*
X33739200Y33739200D03*
X32000000Y32979200D03*
Y31994400D03*
X32645800Y34676400D03*
X31275000Y34100000D03*
X31083800Y32489600D03*
X33739200Y31708600D03*
X32177200Y35113600D03*
X31400000Y37600000D03*
X33000000Y37956600D03*
X33739200Y36394600D03*
X31240000Y36238400D03*
X32000000Y37976000D03*
Y36994400D03*
X36830000Y2159000D03*
X35132200Y2967800D03*
X34832600Y2467800D03*
X37000000Y499200D03*
X34500000D03*
X37000000Y2999200D03*
X36465500Y5500000D03*
X37000000Y5499200D03*
X34440100Y4540100D03*
X37000000Y7100000D03*
X35266200Y7966200D03*
X34988800Y7466200D03*
X37000000Y7999200D03*
X34500000Y8100000D03*
X37000000Y10499200D03*
X34500000D03*
Y12999200D03*
X37000000D03*
X34500000Y15499200D03*
X37000000D03*
Y17999200D03*
X34500000D03*
X37175600Y17182000D03*
X37000000Y20505600D03*
X34500000D03*
X35500000Y19600000D03*
X37000000Y23005600D03*
X34500000D03*
X34429800Y25229800D03*
X37000000Y27400000D03*
X36200000D03*
X37000000Y28000000D03*
X36200000D03*
X36246800Y26250000D03*
X35145000Y30028800D03*
X37331800Y30459000D03*
X37000000Y29494400D03*
X34500000D03*
X36700000Y30100000D03*
X37000000Y34494400D03*
X34500000Y31994400D03*
X37000000D03*
X36220200Y34220200D03*
X35500000Y37956600D03*
X37000000Y37976000D03*
X34500000D03*
X37000000Y36994400D03*
X34500000D03*
X39500000Y499200D03*
Y2999200D03*
Y5499200D03*
X38580200Y3750000D03*
X39500000Y7999200D03*
X38581400Y12339800D03*
X39500000Y10499200D03*
X38737600Y14837600D03*
X39500000Y12999200D03*
Y15499200D03*
X39362400Y18119200D03*
X39500000Y21994400D03*
Y24494400D03*
Y26994400D03*
Y29494400D03*
Y34494400D03*
Y31994400D03*
X38000000Y37956600D03*
X39500000Y36994400D03*
Y39494400D03*
G54D20*
G01X0Y-1400000D02*
X-2400000D01*
G01X-1200000Y-2600000D02*
Y-200000D01*
G01X-500000Y-1400000D02*
G03I-700000J0D01*
G01X-200000Y-1300000D02*
G03I-1000000J-100000D01*
G01X-1700000Y41300000D02*
G03I-1000000J-100000D01*
G01X-2000000Y41200000D02*
G03I-700000J0D01*
G01X-2700000Y40000000D02*
Y42400000D01*
G01X-1500000Y41200000D02*
X-3900000D01*
G01X39999900Y39999900D02*
X0D01*
Y0D01*
X39999900D01*
Y39999900D01*
G01X42300000Y-1300000D02*
X39900000D01*
G01X42100000Y-1200000D02*
G03I-1000000J-100000D01*
G01X41100000Y-2500000D02*
Y-100000D01*
G01X41800000Y-1300000D02*
G03I-700000J0D01*
G01X41700000Y40100000D02*
Y42500000D01*
G01X42400000Y41300000D02*
G03I-700000J0D01*
G01X42700000Y41400000D02*
G03I-1000000J-100000D01*
G01X42900000Y41300000D02*
X40500000D01*
G54D11*
X1093400Y11214900D03*
Y12215100D03*
X14839000Y28553100D03*
Y29553300D03*
X18431600Y905700D03*
Y1905900D03*
X17963000Y11434100D03*
Y10433900D03*
X16494400Y18868700D03*
X15713400D03*
X16494400Y19868900D03*
X15713400D03*
X15776200Y28553100D03*
X16557200D03*
X15776200Y29553300D03*
X16557200D03*
X17963000Y39237700D03*
Y38237500D03*
X19212600Y905700D03*
Y1905900D03*
X18744000Y11434100D03*
Y10433900D03*
X19525000Y11434100D03*
Y10433900D03*
X18800000Y18599900D03*
X19600000D03*
X20930800Y21430900D03*
Y20430700D03*
X18800000Y19600100D03*
X19600000D03*
X19525000Y28865500D03*
Y29865700D03*
X18744000Y28865500D03*
Y29865700D03*
Y39237700D03*
Y38237500D03*
X19525000Y39237700D03*
Y38237500D03*
X22492800Y10902500D03*
Y11902700D03*
X21711800Y10902500D03*
Y11902700D03*
X23368000Y10929900D03*
Y11930100D03*
X21711800Y21430900D03*
Y20430700D03*
X22492800Y21430900D03*
Y20430700D03*
X24200000Y30399900D03*
Y31400100D03*
X23300000Y30600100D03*
Y29599900D03*
X25908000Y8008900D03*
Y9009100D03*
X25500000Y27099900D03*
Y28100100D03*
X36068000Y8120100D03*
Y7119900D03*
X38737600Y14401900D03*
Y13401700D03*
G54D12*
X2499200Y30083800D03*
Y30583800D03*
Y31083800D03*
Y34613600D03*
Y35113600D03*
Y35613600D03*
X4355400Y15463800D03*
Y14963800D03*
Y14463800D03*
X2655400D03*
Y14963800D03*
Y15463800D03*
X5467000Y14463800D03*
Y14963800D03*
Y15463800D03*
Y19462200D03*
Y19962200D03*
Y20462200D03*
X4355400D03*
Y19962200D03*
Y19462200D03*
X2655400D03*
Y19962200D03*
Y20462200D03*
X4199200Y31083800D03*
Y30583800D03*
Y30083800D03*
X5467000D03*
Y30583800D03*
Y31083800D03*
Y34613600D03*
X4199200D03*
X5467000Y35113600D03*
Y35613600D03*
X4199200D03*
Y35113600D03*
X8278600Y14463800D03*
Y14963800D03*
Y15463800D03*
X7167000D03*
Y14963800D03*
Y14463800D03*
X8278600Y19462200D03*
Y19962200D03*
Y20462200D03*
X7167000D03*
Y19962200D03*
Y19462200D03*
X8278600Y30083800D03*
Y30583800D03*
Y31083800D03*
X7167000D03*
Y30583800D03*
Y30083800D03*
X8434800Y34613600D03*
X7167000D03*
X8434800Y35113600D03*
Y35613600D03*
X7167000D03*
Y35113600D03*
X9978600Y15463800D03*
Y14963800D03*
Y14463800D03*
X11246400D03*
Y14963800D03*
Y15463800D03*
Y19462200D03*
Y19962200D03*
Y20462200D03*
X9978600D03*
Y19962200D03*
Y19462200D03*
Y31083800D03*
Y30583800D03*
Y30083800D03*
X11402600D03*
Y30583800D03*
Y31083800D03*
Y34613600D03*
X10134800D03*
X11402600Y35113600D03*
Y35613600D03*
X10134800D03*
Y35113600D03*
X12946400Y15463800D03*
Y14963800D03*
Y14463800D03*
Y20462200D03*
Y19962200D03*
Y19462200D03*
X13102600Y31083800D03*
Y30583800D03*
Y30083800D03*
Y34613600D03*
Y35613600D03*
Y35113600D03*
X27629200Y2967800D03*
Y2467800D03*
Y1967800D03*
X25929200D03*
Y2467800D03*
Y2967800D03*
X27600000Y6000000D03*
Y5500000D03*
X25900000D03*
Y6000000D03*
X27600000Y6500000D03*
X25900000D03*
X27785400Y31083800D03*
Y30583800D03*
Y30083800D03*
X26085400D03*
Y30583800D03*
Y31083800D03*
X27785400Y34613600D03*
X26085400D03*
X27785400Y35613600D03*
Y35113600D03*
X26085400D03*
Y35613600D03*
X30597000Y2967800D03*
Y2467800D03*
Y1967800D03*
X28897000D03*
Y2467800D03*
Y2967800D03*
X30600000Y6000000D03*
Y5500000D03*
X28900000D03*
Y6000000D03*
X30600000Y6500000D03*
X28900000D03*
X30597000Y31083800D03*
Y30583800D03*
Y30083800D03*
X28897000D03*
Y30583800D03*
Y31083800D03*
X30597000Y34613600D03*
X28897000D03*
X30597000Y35613600D03*
Y35113600D03*
X28897000D03*
Y35613600D03*
X33408600Y2967800D03*
Y2467800D03*
Y1967800D03*
X31708600D03*
Y2467800D03*
Y2967800D03*
X33400000Y6000000D03*
Y5500000D03*
X31700000D03*
Y6000000D03*
X33400000Y6500000D03*
X31700000D03*
X33408600Y31083800D03*
Y30583800D03*
Y30083800D03*
X31708600D03*
Y30583800D03*
Y31083800D03*
X33408600Y34613600D03*
X31708600D03*
X33408600Y35613600D03*
Y35113600D03*
X31708600D03*
Y35613600D03*
X36064000Y2967800D03*
Y2467800D03*
Y1967800D03*
X34364000D03*
Y2467800D03*
Y2967800D03*
X36100000Y6000000D03*
Y5500000D03*
X34400000D03*
Y6000000D03*
X36100000Y6500000D03*
X34400000D03*
X36220200Y31083800D03*
Y30583800D03*
Y30083800D03*
X34520200D03*
Y30583800D03*
Y31083800D03*
X36220200Y34613600D03*
X34520200D03*
X36220200Y35613600D03*
Y35113600D03*
X34520200D03*
Y35613600D03*
G54D13*
X4406900Y9230400D03*
Y11770400D03*
Y25229800D03*
Y27769800D03*
X8846900Y9230400D03*
Y11770400D03*
Y25229800D03*
Y27769800D03*
X31280100Y9230400D03*
Y11770400D03*
Y25229800D03*
Y27769800D03*
X35720100Y9230400D03*
Y11770400D03*
Y25229800D03*
Y27769800D03*
G54D14*
X2699900Y16400000D03*
X3700100D03*
X11464500Y21555600D03*
Y23273800D03*
Y24992000D03*
Y25773000D03*
X14495100Y6248000D03*
X14338900Y3436400D03*
X14495100Y7185200D03*
Y7966200D03*
X12464700Y21555600D03*
Y23273800D03*
Y24992000D03*
X13152300Y28584600D03*
X12152100D03*
X12464700Y25773000D03*
X14799900Y31300000D03*
Y34400000D03*
X14807500Y35301200D03*
Y36082200D03*
X15495300Y6248000D03*
X15339100Y3436400D03*
X15495300Y7185200D03*
Y7966200D03*
X17619100Y15307600D03*
Y13589400D03*
Y17025800D03*
Y17806800D03*
X15800100Y31300000D03*
Y34400000D03*
X15807700Y35301200D03*
Y36082200D03*
X18619300Y15307600D03*
Y13589400D03*
Y17025800D03*
Y17806800D03*
X21199900Y39200000D03*
X23900100Y23700000D03*
X22899900D03*
X23900100Y24600000D03*
X22899900D03*
X23900100Y25400000D03*
X22899900D03*
X23900100Y26200000D03*
X22899900D03*
X23900100Y27000000D03*
X22899900D03*
X23900100Y27800000D03*
X22899900D03*
X24500100Y35800000D03*
X23499900D03*
X24400100Y36800000D03*
X23399900D03*
X22200100Y39200000D03*
X25915900Y3683000D03*
X26916100D03*
X26931900Y16891000D03*
X27566900Y17907000D03*
Y18796000D03*
Y19685000D03*
Y20574000D03*
Y21463000D03*
X27499900Y28000000D03*
X26199900Y36500000D03*
X27200100D03*
X28836900Y3683000D03*
X29837100D03*
X28709900Y8128000D03*
X29710100D03*
X27932100Y16891000D03*
X28567100Y17907000D03*
Y18796000D03*
Y19685000D03*
Y20574000D03*
Y21463000D03*
X28500100Y28000000D03*
X28899900Y36500000D03*
X29900100D03*
X31757900Y3683000D03*
X32758100D03*
X32773900Y7747000D03*
X33774100D03*
X34424900Y3683000D03*
X35425100D03*
G54D15*
X7700000Y22500000D03*
X8900000D03*
X10100000D03*
X14300000Y11700000D03*
X13100000D03*
X14200000Y33200000D03*
X15500000Y11700000D03*
X15400000Y33200000D03*
X16600000D03*
G54D16*
X13200000Y4800000D03*
Y6000000D03*
Y3600000D03*
G54D17*
X14500000Y22250000D03*
Y22750000D03*
Y23250000D03*
Y23750000D03*
Y24250000D03*
Y24750000D03*
Y25250000D03*
Y25750000D03*
X17500000Y4250000D03*
Y4750000D03*
Y5250000D03*
Y5750000D03*
Y6250000D03*
Y6750000D03*
Y7250000D03*
Y7750000D03*
Y32250000D03*
Y32750000D03*
Y33250000D03*
Y33750000D03*
Y34250000D03*
Y34750000D03*
Y35250000D03*
Y35750000D03*
X20500000Y14250000D03*
Y14750000D03*
Y15250000D03*
Y15750000D03*
Y16250000D03*
Y16750000D03*
Y17250000D03*
Y17750000D03*
X19400000Y25250000D03*
Y24750000D03*
Y24250000D03*
Y23750000D03*
Y23250000D03*
Y22750000D03*
Y22250000D03*
Y25750000D03*
X22400000Y6250000D03*
Y5750000D03*
Y5250000D03*
Y4750000D03*
Y4250000D03*
Y7750000D03*
Y7250000D03*
Y6750000D03*
Y34750000D03*
Y34250000D03*
Y33750000D03*
Y33250000D03*
Y32750000D03*
Y32250000D03*
Y35750000D03*
Y35250000D03*
X25400000Y15750000D03*
Y15250000D03*
Y14750000D03*
Y14250000D03*
Y17750000D03*
Y17250000D03*
Y16750000D03*
Y16250000D03*
G54D18*
X18200000Y3550000D03*
Y8450000D03*
Y21550000D03*
X17700000D03*
X17200000D03*
X16700000D03*
X16200000D03*
X15700000D03*
X15200000D03*
Y26450000D03*
X15700000D03*
X16200000D03*
X16700000D03*
X17200000D03*
X17700000D03*
X18200000D03*
Y31550000D03*
Y36450000D03*
X21200000Y3550000D03*
X20700000D03*
X20200000D03*
X19700000D03*
X19200000D03*
X18700000D03*
Y8450000D03*
X19200000D03*
X19700000D03*
X20200000D03*
X20700000D03*
X21200000D03*
Y13550000D03*
Y18450000D03*
X18700000Y21550000D03*
Y26450000D03*
X21200000Y31550000D03*
X20700000D03*
X20200000D03*
X19700000D03*
X19200000D03*
X18700000D03*
Y36450000D03*
X19200000D03*
X19700000D03*
X20200000D03*
X20700000D03*
X21200000D03*
X21700000Y3550000D03*
Y8450000D03*
X24200000Y13550000D03*
X23700000D03*
X23200000D03*
X22700000D03*
X22200000D03*
X21700000D03*
Y18450000D03*
X22200000D03*
X22700000D03*
X23200000D03*
X23700000D03*
X24200000D03*
X21700000Y31550000D03*
Y36450000D03*
X24700000Y13550000D03*
Y18450000D03*
G54D19*
X17000000Y24000000D03*
X20000000Y6000000D03*
Y34000000D03*
X23000000Y16000000D03*
M02*
