G04 ================== begin FILE IDENTIFICATION RECORD ==================*
G04 Layout Name:  LED Panel G4 V1, 03-26-2017.brd*
G04 Film Name:    TOP*
G04 File Format:  Gerber RS274X*
G04 File Origin:  Cadence Allegro 17.4-S007*
G04 Origin Date:  Wed Nov 11 20:24:18 2020*
G04 *
G04 Layer:  VIA CLASS/TOP*
G04 Layer:  PIN/TOP*
G04 Layer:  ETCH/TOP*
G04 Layer:  BOARD GEOMETRY/OUTLINE*
G04 *
G04 Offset:    (0.0000 0.0000)*
G04 Mirror:    No*
G04 Mode:      Positive*
G04 Rotation:  0*
G04 FullContactRelief:  No*
G04 UndefLineWidth:     0.1000*
G04 ================== end FILE IDENTIFICATION RECORD ====================*
%FSLAX46Y46*MOMM*%
%IR0*IPPOS*OFA0.00000B0.00000*MIA0B0*SFA1.00000B1.00000*%
%ADD16R,1.5X.4*%
%ADD15R,.4X1.5*%
%ADD10C,.4*%
%ADD12R,.375X.375*%
%ADD18R,.3X.7*%
%ADD17R,.7X.3*%
%ADD11R,.65X.5001*%
%ADD14R,.5001X.65*%
%ADD13R,3.68X1.27*%
%ADD19R,2.7X2.7*%
%ADD20C,.2*%
%ADD21C,.25*%
%ADD22C,.127*%
%ADD23C,.1*%
%ADD26C,.6544*%
%ADD27R,.7546X4.4604*%
%ADD25R,3.9304X1.5204*%
%ADD24R,3.9344X1.5244*%
%ADD29R,.9044X.7546*%
%ADD28R,.7546X.9044*%
G75*
%LPD*%
G75*
G36*
G01X17241800Y14855700D02*
X15811200D01*
X15759200Y14803700D01*
X15715600D01*
X14996300Y14084400D01*
Y13684400D01*
X14903300Y13591400D01*
X14153300D01*
X13137100Y12575200D01*
X12774800D01*
Y10824800D01*
X13425200D01*
Y12287100D01*
X14035900Y12897800D01*
G02X14200700Y12867000I71856J-71817D01*
G03X14282500Y12754700I299357J132111D01*
G02X14215000Y12577200I-67497J-75917D01*
G01X13972800D01*
Y10822800D01*
X14133200D01*
G02X14220100Y10668600I-36J-101607D01*
G03X14654100Y10787900I279957J-169379D01*
G01X14627200Y10802200D01*
Y12577200D01*
X14520600D01*
Y12670000D01*
X14561800Y12677900D01*
G03X14821000Y13062700I-61786J321317D01*
G02X14920600Y13184000I99660J19710D01*
G01X15072100D01*
X15122900Y13234800D01*
G02X15296300Y13163000I71809J-71862D01*
G01Y12575200D01*
X15174800D01*
Y10824800D01*
X15825200D01*
Y11583600D01*
G02X16002100Y11651700I101585J-70D01*
G03X16260100Y11544400I242616J219536D01*
G01X16282500Y11545400D01*
X16597500Y11230400D01*
X17512800D01*
Y11058800D01*
X19975200D01*
Y11521300D01*
X20188500Y11734600D01*
Y12387300D01*
G03X19937900Y12967200I-203683J256077D01*
G02X19823000Y13051500I-14606J100546D01*
G03X19768300Y13186500I-323000J-52293D01*
G02X19851500Y13346300I83266J58206D01*
G01X20924800D01*
Y13092600D01*
G03X21321800Y12580500I162236J-284163D01*
G02X21496300Y12509800I72908J-70749D01*
G01Y12278000D01*
X21261600D01*
Y11527400D01*
X22943000D01*
Y11554800D01*
X23818200D01*
Y11870000D01*
G02X23986200Y11946900I101594J13D01*
G03X24215300Y11867800I213737J247728D01*
G01X24237700Y11868800D01*
X24896300Y11210200D01*
Y10810700D01*
G02X24724900Y10736900I-101586J-5D01*
G03Y10261500I-224900J-237700D01*
G02X24896300Y10187700I69814J-73795D01*
G01Y8310700D01*
G02X24724900Y8236900I-101586J-5D01*
G03Y7761500I-224900J-237700D01*
G02X24896300Y7687700I69814J-73795D01*
G01Y7184400D01*
X23696300Y5984400D01*
Y3884400D01*
X23496300Y3684400D01*
Y2684400D01*
X23215600Y2403700D01*
X22928800D01*
X22915600Y2390500D01*
X22733000D01*
G02X22639100Y2530800I58J101611D01*
G03X22097800Y2879100I-302540J124590D01*
G02X21946900Y2881900I-74188J69410D01*
G03X21903700Y2923300I-247049J-214551D01*
G01Y3074800D01*
X21975200D01*
Y3974800D01*
X22875200D01*
Y4046300D01*
X23025000D01*
X23188800Y4210200D01*
X23202000Y4213700D01*
G03X23341700Y4768200I-84408J316114D01*
G02Y4916200I69623J74000D01*
G03X23010200Y5463700I-224095J238423D01*
G02X22875200Y5559600I-33412J95936D01*
G01Y5972800D01*
X22877200D01*
Y6527200D01*
X22875200D01*
Y7009800D01*
X22953700D01*
X22967800Y6998100D01*
G03X23496600Y7318300I208808J251908D01*
G02X23625300Y7436700I99354J21151D01*
G03X23497600Y7990200I94485J313280D01*
G01X22875200D01*
Y8025200D01*
X21975200D01*
Y8925200D01*
X21903700D01*
Y9119600D01*
X21986500Y9202400D01*
X22008900Y9201400D01*
G03X22339900Y9442100I15345J326836D01*
G02X22450900Y9516100I98003J-26754D01*
G03X22696500Y10096700I41923J324512D01*
G01Y10527200D01*
X22943000D01*
Y10552600D01*
X23390600D01*
G02X23463600Y10380400I-52J-101595D01*
G03X23373000Y10122600I235181J-227471D01*
G02X23272300Y10011600I-101154J-9410D01*
G03X23599600Y9714800I1509J-327203D01*
G02X23700300Y9825800I101154J9410D01*
G03X23824800Y10455000I-1469J327208D01*
G01X23793600Y10468000D01*
Y10552600D01*
X23820200D01*
Y11307200D01*
X22915800D01*
Y11277800D01*
X21261600D01*
Y10842000D01*
X21215200Y10791400D01*
G03X20943100Y10595800I27994J-326003D01*
G02X20814400Y10541100I-93189J40503D01*
G03X20373200Y10218200I-114421J-306529D01*
G02X20254700Y10113000I-101466J-5047D01*
G03X20106000Y10103800I-54676J-322599D01*
G02X19975200Y10201100I-29201J97312D01*
G01Y10809200D01*
X17512800D01*
Y10058600D01*
X17759300D01*
Y9143200D01*
X17924800Y8977700D01*
Y8025200D01*
X17024800D01*
Y7953700D01*
X16236600D01*
X16020400Y8169900D01*
X15870600D01*
Y8416400D01*
X15120000D01*
Y5797800D01*
X15870600D01*
Y6044300D01*
X16020400D01*
X16022400Y6046300D01*
X16509700D01*
Y5863400D01*
G02X16369400Y5769500I-101611J58D01*
G03X15979100Y5276100I-124568J-302533D01*
G02X15896600Y5115200I-82513J-59293D01*
G01X14822600D01*
G02X14746200Y5283700I64J101599D01*
G03X14791400Y5648000I-246203J215501D01*
G02X14872400Y5795400I90488J46230D01*
G01Y6700200D01*
X14870400D01*
Y8416400D01*
X14119800D01*
Y8169900D01*
X13970000D01*
X13627100Y7827000D01*
X13604700Y7828000D01*
G03X13439400Y7210400I-15280J-326831D01*
G02X13476400Y7062400I-46599J-90275D01*
G03X13952100Y6622600I269193J-185998D01*
G02X14117800Y6543800I64118J-78789D01*
G01Y6325200D01*
X12324800D01*
Y5865300D01*
G02X12170300Y5778600I-101594J30D01*
G03X12322300Y5555700I-170293J-279402D01*
G02X12422300Y5674800I100072J17508D01*
G01X12996300D01*
Y5525000D01*
X13220700Y5300600D01*
G02X13148900Y5127200I-71862J-71809D01*
G01X12322800D01*
Y4472800D01*
X14077200D01*
Y4484500D01*
X14170500D01*
X14178000Y4442700D01*
G03X14181000Y4427900I322101J57587D01*
G02X14082000Y4303700I-99041J-22611D01*
G01X13225000D01*
X12996300Y4075000D01*
Y3925200D01*
X12324800D01*
Y3365300D01*
G02X12170300Y3278600I-101594J30D01*
G03X12299000Y3132000I-170353J-279346D01*
G02X12391900Y3274800I92885J41191D01*
G01X13963600D01*
Y2986200D01*
X14011100D01*
Y2912900D01*
X13994400Y2897800D01*
G03X14541000Y2670700I219767J-242398D01*
G01X14540000Y2693100D01*
X14542600Y2695700D01*
Y2986200D01*
X14714200D01*
Y3896300D01*
X14963800D01*
Y2986200D01*
X15714400D01*
Y3232700D01*
X15864200D01*
X15977800Y3346300D01*
X16648500D01*
G02X16731700Y3186500I-66J-101594D01*
G03X17268300I268300J-187300D01*
G02X17351500Y3346300I83266J58206D01*
G01X17924800D01*
Y3074800D01*
X18080600D01*
G02X18152400Y2901400I-62J-101591D01*
G01X18151800Y2900800D01*
Y2281200D01*
X17981400D01*
Y1530700D01*
X18335500D01*
G02X18407300Y1357200I-3J-101608D01*
G01X18331100Y1281000D01*
X17981400D01*
Y530400D01*
X19662800D01*
Y702000D01*
X20054200D01*
G02X20150800Y569200I-65J-101581D01*
G03X20206200Y264900I311382J-100504D01*
G02X20126700Y100000I-79497J-63288D01*
G01X14808700D01*
G02X14735600Y272100I26J101586D01*
G03X14264400I-235600J227100D01*
G02X14191300Y100000I-73126J-70514D01*
G01X12308700D01*
G02X12235600Y272100I26J101586D01*
G03X11764400I-235600J227100D01*
G02X11691300Y100000I-73126J-70514D01*
G01X9808700D01*
G02X9735600Y272100I26J101586D01*
G03X9264400I-235600J227100D01*
G02X9191300Y100000I-73126J-70514D01*
G01X7308700D01*
G02X7235600Y272100I26J101586D01*
G03X6764400I-235600J227100D01*
G02X6691300Y100000I-73126J-70514D01*
G01X4808700D01*
G02X4735600Y272100I26J101586D01*
G03X4264400I-235600J227100D01*
G02X4191300Y100000I-73126J-70514D01*
G01X2308700D01*
G02X2235600Y272100I26J101586D01*
G03X1764400I-235600J227100D01*
G02X1691300Y100000I-73126J-70514D01*
G01X100000D01*
Y39900000D01*
X1697600D01*
G02X1769200Y39726400I-36J-101580D01*
G03X2230800I230800J-232000D01*
G02X2302400Y39900000I71636J72020D01*
G01X4197600D01*
G02X4269200Y39726400I-36J-101580D01*
G03X4730800I230800J-232000D01*
G02X4802400Y39900000I71636J72020D01*
G01X6697600D01*
G02X6769200Y39726400I-36J-101580D01*
G03X7015300Y39167600I230777J-231956D01*
G01X7037700Y39168600D01*
X7450100Y38756200D01*
Y35926300D01*
X7142400D01*
X6815200Y36253500D01*
Y36573800D01*
G02X6936500Y36673400I101590J-60D01*
G03X7112100Y37301800I63544J320978D01*
G01X7078700Y37314000D01*
Y37817300D01*
X6568900Y38327100D01*
X5041000D01*
X4794700Y38080800D01*
Y37377200D01*
G02X4647400Y37286500I-101602J46D01*
G03Y36702300I-147400J-292100D01*
G02X4794700Y36611600I45698J-90746D01*
G01Y34619700D01*
X5004500Y34409900D01*
X5154300D01*
Y34300900D01*
X5263300D01*
Y33342400D01*
X5609800Y32995900D01*
X5608800Y32973500D01*
G03X5629900Y32841500I326823J-15444D01*
G02X5535000Y32703700I-94919J-36209D01*
G01X5115600D01*
X4696300Y32284400D01*
Y32253200D01*
G02X4572300Y32154100I-101601J1D01*
G03Y31515900I-72300J-319100D01*
G02X4696300Y31416800I22399J-99101D01*
G01Y30188300D01*
X5004500Y29880100D01*
X5154300D01*
Y29771100D01*
X5779700D01*
Y30380100D01*
X5976100D01*
G02X6077500Y30284300I-24J-101589D01*
G03X6207100Y30041600I326692J18498D01*
G02X6217700Y29888700I-61230J-81062D01*
G01X6159800Y29830800D01*
Y29822900D01*
X6148100Y29808800D01*
G03X6589000Y29332900I251914J-208800D01*
G02X6731200Y29307900I58719J-82922D01*
G03X7298700Y29628000I268805J186545D01*
G02X7391400Y29771100I92725J41509D01*
G01X7479700D01*
Y29971300D01*
G02X7653100Y30043100I101591J-62D01*
G01X7816100Y29880100D01*
X7965900D01*
Y29771100D01*
X8572300D01*
G02X8673600Y29676700I-32J-101587D01*
G03X9094200Y29386600I326398J23275D01*
G02X9212600Y29337900I29205J-97274D01*
G03X9798700Y29628000I287386J156493D01*
G02X9891400Y29771100I92725J41509D01*
G01X10291300D01*
Y31396500D01*
X10182300D01*
Y32105800D01*
X9684400Y32603700D01*
X9249600D01*
G02X9167600Y32765200I67J101602D01*
G03X8647300Y33161900I-264218J193014D01*
G01X8519200D01*
X8482300Y33198800D01*
Y33357100D01*
G02X8624600Y33450200I101606J-2D01*
G03X8689700Y34070500I131015J299816D01*
G01X8662900Y34065000D01*
X8607600Y34120300D01*
X8638500Y34151100D01*
Y34300900D01*
X8747500D01*
Y34732900D01*
G02X8895800Y34823100I101591J-17D01*
G03X9288300Y34893300I150572J290495D01*
G01X9303400Y34909900D01*
X9331600D01*
G02X9422100Y34762200I-39J-101600D01*
G03X9803400Y34299000I291505J-148578D01*
G01X9810200Y34300900D01*
X10417900D01*
Y32886400D01*
X10396300Y32864800D01*
Y30423900D01*
X10940100Y29880100D01*
X11089900D01*
Y29771100D01*
X11608600D01*
G02X11701300Y29628000I-25J-101591D01*
G03X11860300Y29790300I298699J-133592D01*
G02X11715300Y29882100I-43410J91849D01*
G01Y30380100D01*
X11855800D01*
X11856400Y30330000D01*
G03X12510800I327200J4200D01*
G01X12511400Y30380100D01*
X12789900D01*
Y29771100D01*
X13372300D01*
G02X13473600Y29676700I-32J-101587D01*
G03X13955900Y29987700I326387J23314D01*
G01X13949400Y29991200D01*
X13616600Y30324000D01*
X13415300D01*
Y31193200D01*
G02X13588700Y31265000I101591J-62D01*
G01X14010500Y30843200D01*
Y30671700D01*
G03X14229500Y30088800I203691J-256062D01*
G01X14251900Y30089800D01*
X14395900Y29945800D01*
X14388800Y29928600D01*
Y29178000D01*
X17007400D01*
Y29928600D01*
X16902400D01*
G02X16866500Y30015300I41J50800D01*
G01X16950400Y30099100D01*
X17082100D01*
G03Y30506500I256100J203700D01*
G01X16781600D01*
X16738600Y30463500D01*
G02X16566800Y30517200I-71844J71819D01*
G03X16269300Y30785300I-321996J-58194D01*
G02X16175400Y30886600I7674J101284D01*
G01Y31309800D01*
X17924800D01*
Y31074800D01*
X18459800D01*
Y30879700D01*
G02X18338600Y30780000I-101609J3D01*
G03X18247400Y30133000I-63316J-321003D01*
G01X18293800Y30082400D01*
Y29603700D01*
X17813100D01*
X17800800Y29636700D01*
G03X17302400Y29256800I-306376J-114940D01*
G02X17314700Y29102700I-59580J-82296D01*
G01X17094100Y28882200D01*
G02X17007400Y28918100I-35907J35924D01*
G01Y28928400D01*
X14388800D01*
Y28177800D01*
X14926200D01*
X14996300Y28107700D01*
Y26925200D01*
X14924800D01*
Y26025200D01*
X14164700D01*
G02X14067400Y26156000I12J101599D01*
G03X13449900Y26129300I-313392J94015D01*
G02X13355500Y25990200I-94433J-37496D01*
G01X13064300D01*
X13041300Y26013200D01*
X12840000D01*
Y26223200D01*
X12089400D01*
Y24768400D01*
G02X11990700Y24666900I-101569J29D01*
G03X11955200Y24663900I9762J-327059D01*
G02X11839700Y24764500I-13880J100667D01*
G01Y26223200D01*
X11668200D01*
Y26373000D01*
X11564100Y26477100D01*
X11560500Y26489500D01*
G03X11253900Y26724900I-314083J-91714D01*
G02X11184400Y26898300I2347J101569D01*
G01X11379700Y27093600D01*
Y27494400D01*
X11641400Y27756100D01*
X11927500D01*
G03X12492800Y28067000I256153J203629D01*
G01X12490000Y28075000D01*
Y28134400D01*
X12527400D01*
Y29034800D01*
X11776800D01*
Y28163500D01*
X11472600D01*
X10972300Y27663200D01*
Y27262400D01*
X10898800Y27188900D01*
G02X10812100Y27224800I-35907J35924D01*
G01Y28530000D01*
X9050600D01*
Y28679800D01*
X8726700Y29003700D01*
X2315600D01*
X1704500Y28392600D01*
Y28025900D01*
G03X2111900I203700J-256100D01*
G01Y28223800D01*
X2268300Y28380200D01*
G02X2441700Y28308400I71809J-71862D01*
G01Y27009600D01*
X4378300D01*
G02X4450100Y26836200I-62J-101591D01*
G01X4203200Y26589300D01*
Y25990000D01*
X4070400D01*
G02X4028100Y26068900I24J50802D01*
G03X3451500Y26129100I-272536J181089D01*
G02X3357100Y25990000I-94396J-37520D01*
G01X2441700D01*
Y24426700D01*
X2150400D01*
X1847300Y24729800D01*
Y24973700D01*
G03X1439900I-203700J256100D01*
G01Y24561000D01*
X1981600Y24019300D01*
X6719500D01*
X7169800Y24469600D01*
X8298100D01*
G02X8367500Y24293800I21J-101590D01*
G03X8814500I223500J-239000D01*
G02X8883900Y24469600I69379J74210D01*
G01X10765200D01*
X10775800Y24432900D01*
G03X11416200Y24495400I314414J90532D01*
G01X11420200Y24541800D01*
X11583200D01*
G02X11681900Y24416400I-72J-101599D01*
G03X12318100I318100J-76600D01*
G02X12416800Y24541800I98772J23801D01*
G01X12840000D01*
Y24751800D01*
X13041300D01*
X13349300Y25059800D01*
X13773500D01*
X13823500Y25009800D01*
X14022800D01*
Y24453700D01*
X13387800D01*
X12917100Y23983000D01*
Y23724000D01*
X12089400D01*
Y22823600D01*
X12626800D01*
X12643000Y22807400D01*
G02X12607100Y22720700I-35924J-35907D01*
G01X11841800D01*
Y23726000D01*
X11087200D01*
Y22720700D01*
X10955000D01*
X10938000Y22703700D01*
X10425200D01*
Y23375200D01*
X9677000D01*
G03X9337400Y23383900I-176962J-275206D01*
G01X9325600Y23377200D01*
X8572800D01*
Y21770700D01*
X8167400D01*
X8025200Y21912900D01*
Y23375200D01*
X7374800D01*
Y23336100D01*
G02X7208500Y23257800I-101588J10D01*
G03X6689100Y23107600I-208490J-252188D01*
G02X6520700Y23067400I-96545J31614D01*
G01X6270400Y23317700D01*
X5756100D01*
G03X5214200Y22954700I-256119J-203640D01*
G02X5125400Y22803700I-88778J-49402D01*
G01X5115600D01*
X4794700Y22482800D01*
Y22377200D01*
G02X4647400Y22286500I-101602J46D01*
G03Y21702300I-147400J-292100D01*
G02X4794700Y21611600I45698J-90746D01*
G01Y19468300D01*
X5004500Y19258500D01*
X5154300D01*
Y19149500D01*
X5779700D01*
Y19536900D01*
G02X5894200Y19637600I101587J-63D01*
G03X5919900Y19635400I40736J324656D01*
G02X6015200Y19516900I-4868J-101486D01*
G03X6095700Y19242100I322597J-54689D01*
G02X6036000Y19073400I-75213J-68297D01*
G03X6327900Y18970100I49783J-323393D01*
G02X6387600Y19138800I75213J68297D01*
G03X6593900Y19258500I-49772J323407D01*
G01X6854300D01*
Y19149500D01*
X7479700D01*
Y19230000D01*
G02X7653100Y19301800I101591J-62D01*
G01X7696400Y19258500D01*
X7965900D01*
Y19149500D01*
X8432800D01*
G02X8505900Y18977300I10J-101611D01*
G03X8704300Y19075100I235345J-227289D01*
G02X8591300Y19176000I-11399J100960D01*
G01Y19536900D01*
G02X8705800Y19637600I101587J-63D01*
G03X8989100Y19741900I41352J324580D01*
G01X9004200Y19758500D01*
X9088500D01*
Y19700300D01*
X9086400Y19693200D01*
G03X9415300Y19273200I313620J-93186D01*
G01X9437700Y19274200D01*
X9453400Y19258500D01*
X9665900D01*
Y19149500D01*
X10229900D01*
G03X10418300Y19651000I270096J184671D01*
G02X10291300Y19749400I-25392J98385D01*
G01Y20774900D01*
X9575700D01*
Y20937200D01*
X9523800Y20989100D01*
G02X9559700Y21075800I35924J35907D01*
G01X10579300D01*
X10599800Y21096300D01*
X10745800D01*
X11001400Y21351900D01*
X11089200D01*
Y21105400D01*
X11839800D01*
Y22046300D01*
X12089400D01*
Y21105400D01*
X12840000D01*
Y21315400D01*
X14717900D01*
X14723500Y21309800D01*
X14924800D01*
Y21074800D01*
X15459800D01*
Y20244200D01*
X15263200D01*
Y20076400D01*
G02X15122200Y19982800I-101581J20D01*
G03X14799200Y19419200I-127046J-301546D01*
G01X14802100Y19417000D01*
X15263200Y18955900D01*
Y18493400D01*
X16290700D01*
Y18278800D01*
X16037700Y18025800D01*
X16015300Y18026800D01*
G03X15991600Y17372900I-15301J-326825D01*
G01X16041100Y17322100D01*
Y16813300D01*
G03X15938800Y16441300I203695J-256082D01*
G02X15843800Y16303700I-94997J-36008D01*
G01X15315600D01*
X14732500Y15720600D01*
G03X14351400Y15781900I-232508J-230204D01*
G02X14203700Y15872400I-46100J90539D01*
G01Y15915600D01*
X14603700Y16315600D01*
Y17284400D01*
X14003700Y17884400D01*
Y18315600D01*
X14203700Y18515600D01*
Y20123600D01*
G02X14351400Y20214100I101600J-39D01*
G03X14173000Y20517800I148580J291527D01*
G02X13999700Y20449800I-101508J3867D01*
G01X13783600Y20665900D01*
X13259100D01*
Y20774900D01*
X12633700D01*
Y20165900D01*
X12356600D01*
G02X12272100Y20323900I8J101600D01*
G03X11707400Y20359200I-272094J181709D01*
G01X11712800Y20336500D01*
X11669100Y20286200D01*
G03X11625800Y20277000I46200J-323936D01*
G01X11619000Y20275100D01*
X11561100D01*
Y20776900D01*
X10931700D01*
Y20147500D01*
X10933700D01*
Y19149500D01*
X11042700D01*
Y18486900D01*
G03X10908500Y18051400I157304J-286900D01*
G02X10818000Y17903700I-90539J-46100D01*
G01X10114800D01*
X9537700Y17326600D01*
X9515300Y17327600D01*
G03X9320500Y17274300I-15272J-326810D01*
G01X9285900Y17251700D01*
X8933900Y17603700D01*
X7915600D01*
X7450100Y17138200D01*
Y15776500D01*
X7142400D01*
X6803700Y16115200D01*
Y16582600D01*
G02X6927700Y16681700I101601J-1D01*
G03X6820500Y17274300I72333J319081D01*
G01X6785900Y17251700D01*
X6433900Y17603700D01*
X5115600D01*
X4739900Y17227900D01*
X4704400Y17256300D01*
G03X4204800Y17142000I-204422J-255496D01*
G01X4201100Y17134100D01*
X4159000Y17092100D01*
X4118900Y17132200D01*
X1744100D01*
X1358300Y16746400D01*
Y15067000D01*
X1548600Y14876700D01*
X1547600Y14854300D01*
G03X1889700Y14512200I326800J-15300D01*
G01X1912100Y14513200D01*
X2162800Y14262500D01*
X2342700D01*
Y14151100D01*
X2968100D01*
Y14760100D01*
X3354200D01*
G02X3444700Y14612400I-39J-101600D01*
G03X3957500Y14222800I291510J-148588D01*
G02X4042700Y14185400I34399J-37383D01*
G01Y14151100D01*
X4668100D01*
Y14351300D01*
G02X4841500Y14423100I101591J-62D01*
G01X5004500Y14260100D01*
X5154300D01*
Y14151100D01*
X5779700D01*
Y14760100D01*
X5954200D01*
G02X6044700Y14612400I-39J-101600D01*
G03X6592300Y14260100I291496J-148644D01*
G01X6854300D01*
Y14151100D01*
X7479700D01*
Y14351300D01*
G02X7653100Y14423100I101591J-62D01*
G01X7816100Y14260100D01*
X7965900D01*
Y14151100D01*
X8591300D01*
Y14590200D01*
G02X8742800Y14678700I101589J16D01*
G03X8958200Y14641200I160597J285093D01*
G02X9075900Y14555000I17074J-100142D01*
G03X9428300Y14274000I324105J44986D01*
G01X9449000Y14253300D01*
X9665900D01*
Y14151100D01*
X10291300D01*
Y15776500D01*
X9665900D01*
Y15667500D01*
X9471900D01*
G03X9419500Y15719900I-256100J-203700D01*
G01Y15938800D01*
X9303700Y16054600D01*
Y16582600D01*
G02X9427700Y16681700I101601J-1D01*
G03X9756100Y16797100I72340J319110D01*
G01X10314800D01*
X10417900Y16694000D01*
Y14598400D01*
X10756200Y14260100D01*
X10933700D01*
Y14151100D01*
X11559100D01*
Y14760100D01*
X12083700D01*
G03X12486500Y14671300I256093J203689D01*
G02X12633700Y14580600I45612J-90773D01*
G01Y14151100D01*
X13259100D01*
Y14260100D01*
X13448200D01*
X13562300Y14374200D01*
X13584700Y14373200D01*
G03X13672300Y14380900I15411J326819D01*
G02X13796300Y14281800I22399J-99101D01*
G01Y14084400D01*
X13365600Y13653700D01*
X13065600D01*
X12614800Y13202900D01*
X12256100D01*
G03Y12795500I-256100J-203700D01*
G01X12783600D01*
X13234400Y13246300D01*
X13534400D01*
X14203700Y13915600D01*
Y15108400D01*
G02X14351400Y15198900I101600J-39D01*
G03X14644900Y15197000I148643J291496D01*
G02X14791500Y15106000I45013J-91070D01*
G01Y14967900D01*
G03X15198900I203700J-256100D01*
G01Y15610800D01*
X15484400Y15896300D01*
X16698700D01*
G02X16770100Y15722400I14J-101602D01*
G03X17107000Y15180400I229917J-232793D01*
G02X17241800Y15084400I33217J-95999D01*
G01Y14855700D01*
G37*
G36*
G01X2970100Y15167500D02*
Y15778500D01*
X2340700D01*
Y15741800D01*
X2250900Y15709200D01*
G03X1898700Y15810300I-250894J-210009D01*
G02X1765700Y15906900I-31396J96632D01*
G01Y16577600D01*
X1912900Y16724800D01*
X2322600D01*
Y15947800D01*
X3077200D01*
Y16724800D01*
X3324800D01*
Y15949800D01*
X3496400D01*
Y15800000D01*
X3701300Y15595100D01*
Y15219900D01*
G03X3648900Y15167500I203700J-256100D01*
G01X2970100D01*
G37*
G36*
G01X5781700D02*
Y15778500D01*
X5092200D01*
Y17004100D01*
X5284400Y17196300D01*
X6265100D01*
X6384800Y17076600D01*
Y17027100D01*
X6396300Y17015600D01*
Y15900200D01*
X6285700Y15789600D01*
X6263300Y15790600D01*
G03X5956500Y15315200I-15296J-326825D01*
G02X5866000Y15167500I-90539J-46100D01*
G01X5781700D01*
G37*
G36*
G01X5965100Y22396300D02*
X6084800Y22276600D01*
Y22227100D01*
X6096300Y22215600D01*
Y21028800D01*
X6356700Y20768400D01*
Y20719200D01*
X6340100Y20704100D01*
G03X6311600Y20249700I220304J-241911D01*
G02X6273000Y20165900I-38621J-33000D01*
G01X6191700D01*
G03X5895700Y20287000I-256104J-203683D01*
G02X5781700Y20387800I-12417J100821D01*
G01Y20776900D01*
X5202100D01*
Y22314000D01*
X5284400Y22396300D01*
X5965100D01*
G37*
G36*
G01X4610600Y25990000D02*
Y26420500D01*
X4783400Y26593300D01*
X5901400D01*
G02X5985300Y26434400I11J-101594D01*
G03X5951500Y26129100I270284J-184444D01*
G02X5857100Y25990000I-94396J-37520D01*
G01X4610600D01*
G37*
G36*
G01X5781700Y30787500D02*
Y31398500D01*
X5103700D01*
Y32115600D01*
X5284400Y32296300D01*
X6015600D01*
X6338500Y31973400D01*
Y31624200D01*
X6854300Y31108400D01*
Y30787500D01*
X5781700D01*
G37*
G36*
G01X6400100Y37919700D02*
X6671300Y37648500D01*
Y37503300D01*
X6407800Y37239800D01*
Y36084700D01*
X6854300Y35638200D01*
Y35317300D01*
X6334700D01*
G03X5929600Y35404900I-256070J-203700D01*
G02X5781700Y35495300I-46302J90435D01*
G01Y35928300D01*
X5202100D01*
Y37912000D01*
X5209800Y37919700D01*
X6400100D01*
G37*
G36*
G01X7857500Y16969400D02*
X8084400Y17196300D01*
X8765100D01*
X8884800Y17076600D01*
Y17027100D01*
X8896300Y17015600D01*
Y15885800D01*
X9012100Y15770000D01*
Y15720800D01*
X8995500Y15705700D01*
G03X8895100Y15398900I220297J-241920D01*
G02X8821100Y15280500I-99585J-20084D01*
G03X8744300Y15249700I82415J-316653D01*
G02X8593300Y15338500I-49399J88784D01*
G01Y15778500D01*
X7963900D01*
Y15149100D01*
X7965900D01*
Y14809100D01*
G02X7879200Y14773200I-50793J24D01*
G01X7857500Y14794900D01*
Y16969400D01*
G37*
G36*
G01X6372100Y24426700D02*
Y25942600D01*
X6400400Y25956600D01*
G03X6525900Y26434400I-144798J293415D01*
G02X6609800Y26593300I83889J57306D01*
G01X8401400D01*
G02X8485300Y26434400I11J-101594D01*
G03X8451500Y26129100I270284J-184444D01*
G02X8357100Y25990000I-94396J-37520D01*
G01X6881700D01*
Y24757700D01*
X6550700Y24426700D01*
X6372100D01*
G37*
G36*
G01Y27000700D02*
Y28596300D01*
X6881700D01*
Y27000700D01*
X6372100D01*
G37*
G36*
G01X7965900Y30769100D02*
Y30429100D01*
G02X7879200Y30393200I-50793J24D01*
G01X7857500Y30414900D01*
Y32196300D01*
X9515600D01*
X9774900Y31937000D01*
Y31396500D01*
X9665900D01*
Y30787500D01*
X8593300D01*
Y31398500D01*
X7963900D01*
Y30769100D01*
X7965900D01*
G37*
G36*
G01X5897900Y33284000D02*
X5670700Y33511200D01*
Y34300900D01*
X5779700D01*
Y34732900D01*
G02X5928000Y34823100I101591J-17D01*
G03X6166400Y34798400I150577J290499D01*
G02X6293200Y34679900I27318J-97860D01*
G03X6703400Y34299000I320401J-66280D01*
G01X6710200Y34300900D01*
X7450100D01*
Y31396500D01*
X7142400D01*
X6745900Y31793000D01*
Y31829500D01*
G02X6824000Y31872400I50808J45D01*
G03X6975500Y32474500I176011J275822D01*
G02X6867000Y32588100I-7654J101304D01*
G03X6403500Y32924000I-324817J39529D01*
G02X6259800Y33002300I-43044J92016D01*
G03X5920300Y33285000I-324192J-44123D01*
G01X5897900Y33284000D01*
G37*
G36*
G01X7857500Y32603700D02*
Y34402100D01*
G02X7944200Y34438000I50793J-24D01*
G01X7972300Y34409900D01*
X8122100D01*
Y34300900D01*
X8123500D01*
X8149500Y34238300D01*
X8074900Y34163700D01*
Y33030000D01*
X8350400Y32754500D01*
X8647300D01*
G03X8708600Y32695300I256022J203767D01*
G01X8678300Y32603700D01*
X7857500D01*
G37*
G36*
G01X8749500Y35495300D02*
Y35928300D01*
X8169900D01*
Y37256900D01*
X8209300Y37296300D01*
X9120900D01*
G02X9210700Y37147200I-22J-101606D01*
G03X9798400Y36860100I289331J-152800D01*
G01X9802200Y36868600D01*
X9844700Y36911100D01*
X9931100Y36824700D01*
Y35926300D01*
X9822100D01*
Y35317300D01*
X9302500D01*
G03X8897400Y35404900I-256070J-203700D01*
G02X8749500Y35495300I-46302J90435D01*
G37*
G36*
G01X15177200Y34077200D02*
Y34851000D01*
X15182800D01*
Y36532400D01*
X14432200D01*
Y36322400D01*
X14230900D01*
X13733400Y35824900D01*
X13715200Y35823200D01*
G03X13571100Y35774200I30403J-325794D01*
G02X13415300Y35860100I-54208J85922D01*
G01Y35926300D01*
X13078000D01*
X12562200Y36442100D01*
X11042600D01*
X10998700Y36398200D01*
G02X10825300Y36470100I-71809J71862D01*
G01Y37238600D01*
X10833000Y37246300D01*
X11460000D01*
X11674200Y37032100D01*
X11673200Y37009700D01*
G03X11984700Y37321200I326800J-15300D01*
G01X11962300Y37320200D01*
X11628800Y37653700D01*
X10664200D01*
X10417900Y37407400D01*
Y37159400D01*
G02X10244500Y37087500I-101591J-38D01*
G01X9628300Y37703700D01*
X8040500D01*
X8030900Y37694100D01*
G02X7857500Y37766000I-71809J71862D01*
G01Y38925000D01*
X7325800Y39456700D01*
X7326800Y39479100D01*
G03X7230800Y39726400I-326840J15406D01*
G02X7302400Y39900000I71636J72020D01*
G01X9197600D01*
G02X9269200Y39726400I-36J-101580D01*
G03X9730800I230800J-232000D01*
G02X9802400Y39900000I71636J72020D01*
G01X11697600D01*
G02X11769200Y39726400I-36J-101580D01*
G03X12230800I230800J-232000D01*
G02X12302400Y39900000I71636J72020D01*
G01X14197600D01*
G02X14269200Y39726400I-36J-101580D01*
G03X14730800I230800J-232000D01*
G02X14802400Y39900000I71636J72020D01*
G01X16697600D01*
G02X16769200Y39726400I-36J-101580D01*
G03X17230800I230800J-232000D01*
G02X17302400Y39900000I71636J72020D01*
G01X17552400D01*
G02X17649700Y39769100I14J-101602D01*
G03X17637200Y39705100I313281J-94408D01*
G02X17536000Y39613000I-101135J9478D01*
G01X17512800D01*
Y38862400D01*
X19975200D01*
Y39613000D01*
X19952000D01*
G02X19850800Y39705100I-65J101578D01*
G03X19838300Y39769100I-325781J-30408D01*
G02X19935600Y39900000I97286J29298D01*
G01X23366600D01*
G02X23438500Y39726600I38J-101591D01*
G01X22750800Y39038900D01*
G02X22577400Y39110700I-71826J71822D01*
G01Y39652200D01*
X21822800D01*
Y38747800D01*
X22596300D01*
Y37935900D01*
G02X22420200Y37866800I-101599J-20D01*
G03X21859400Y37580700I-239817J-222600D01*
G02X21759800Y37459400I-99660J-19710D01*
G01X21203700D01*
Y37538300D01*
G02X21327600Y37637400I101605J-29D01*
G03X21395100Y38283800I71797J319227D01*
G01X21373700Y38283500D01*
X21322600Y38334600D01*
X21403600Y38415500D01*
Y38749800D01*
X21575200D01*
Y39650200D01*
X20824600D01*
Y38749800D01*
X20996200D01*
Y38584300D01*
X20796300Y38384400D01*
Y38316900D01*
G02X20639600Y38231500I-101607J-27D01*
G03X20137700Y37914700I-177403J-274919D01*
G02X20063700Y37803700I-100754J-12997D01*
G03X20042600Y37797200I85733J-315798D01*
G01X20034600Y37794400D01*
X19975200D01*
Y38612800D01*
X17512800D01*
Y38106900D01*
X17290700Y37884800D01*
Y37379200D01*
G02X17144300Y37288100I-101585J66D01*
G03X17300400Y36864800I-144318J-293652D01*
G02X17465600Y36896400I93320J-40242D01*
G01X17630800Y36731100D01*
X17830800D01*
X17924800Y36637100D01*
Y36025200D01*
X17024800D01*
Y35990200D01*
X16823700D01*
X16491500Y36322400D01*
X16183000D01*
Y36532400D01*
X15432400D01*
Y34850200D01*
X15424800D01*
Y34077200D01*
X15177200D01*
G37*
G36*
G01X10825300Y16862800D02*
X10483600Y17204500D01*
X10237100D01*
G02X10165200Y17377900I-38J101591D01*
G01X10283600Y17496300D01*
X11665300D01*
X11796300Y17365300D01*
Y17256900D01*
G03X12015300Y16674000I203691J-256062D01*
G01X12037700Y16675000D01*
X12742700Y15970000D01*
Y15776500D01*
X12633700D01*
Y15347100D01*
G02X12486500Y15256300I-101588J-27D01*
G03X12083700Y15167500I-146707J-292489D01*
G01X11561100D01*
Y15778500D01*
X10931700D01*
Y15149100D01*
X10933700D01*
Y14781400D01*
G02X10847000Y14745500I-50793J24D01*
G01X10825300Y14767200D01*
Y16862800D01*
G37*
G36*
G01X12203700Y17256900D02*
Y17534100D01*
X12166700Y17571100D01*
G02X12182000Y17727300I71866J71810D01*
G03X11672800Y18003900I-182026J271904D01*
G02X11571200Y17903700I-101576J1386D01*
G01X11487400D01*
G02X11448800Y17987500I21J50800D01*
G03X11450100Y18411000I-248797J212516D01*
G01Y18596300D01*
X13315600D01*
X13596300Y18315600D01*
Y17715600D01*
X14196300Y17115600D01*
Y16484400D01*
X14116100Y16404200D01*
X14069300Y16450900D01*
X14066300Y16465900D01*
G03X13745500Y16073800I-320699J-64900D01*
G02X13796300Y16023000I2J-50798D01*
G01Y15118200D01*
G02X13672300Y15019100I-101601J1D01*
G03X13417400Y14971500I-72305J-319104D01*
G02X13259100Y15055800I-56701J84306D01*
G01Y15776500D01*
X13150100D01*
Y16138800D01*
X12325800Y16963100D01*
X12326800Y16985500D01*
G03X12203700Y17256900I-326835J15373D01*
G37*
G36*
G01X13622900Y18865200D02*
X13484400Y19003700D01*
X11450100D01*
Y19149500D01*
X11559100D01*
Y19536900D01*
G02X11673600Y19637600I101587J-63D01*
G03X11971100Y19758500I41407J324590D01*
G01X12633700D01*
Y19149500D01*
X13259100D01*
Y19258500D01*
X13408900D01*
X13523600Y19373200D01*
X13540800Y19375400D01*
G03X13648600Y19408500I-40699J324641D01*
G02X13796300Y19318000I46100J-90539D01*
G01Y18937100D01*
G02X13622900Y18865200I-101591J-38D01*
G37*
G36*
G01X10955500Y24821600D02*
G02X10812100Y24914200I-41807J92592D01*
G01Y25990000D01*
X9154100D01*
G02X9059700Y26129100I-4J101580D01*
G03X9025900Y26434400I-304084J120856D01*
G02X9109800Y26593300I83889J57306D01*
G01X10828000D01*
G02X10927100Y26469500I-20J-101580D01*
G03X11089200Y26110800I319278J-71693D01*
G01Y24853600D01*
X11045400Y24847500D01*
G03X10955500Y24821600I44700J-324130D01*
G37*
G36*
G01X11089900Y30769100D02*
Y30551800D01*
G02X10916500Y30479900I-101591J-38D01*
G01X10803700Y30592700D01*
Y32209200D01*
G02X10890400Y32245100I50793J-24D01*
G01X10939200Y32196300D01*
X11583300D01*
G02X11682000Y32070700I-15J-101593D01*
G03X12318000I318000J-77100D01*
G02X12416700Y32196300I98715J24007D01*
G01X12620700D01*
X12898700Y31918300D01*
Y31826900D01*
X12898900Y31826700D01*
Y31396500D01*
X12789900D01*
Y30787500D01*
X11717300D01*
Y31398500D01*
X11087900D01*
Y30769100D01*
X11089900D01*
G37*
G36*
G01X10825300Y33244200D02*
Y34345400D01*
G02X10998700Y34417300I101591J38D01*
G01X11006100Y34409900D01*
X11089900D01*
Y34300900D01*
X11198900D01*
Y33284300D01*
X11161300Y33274100D01*
G03X11002600Y33176400I85071J-315929D01*
G02X10825300Y33244200I-75698J67770D01*
G37*
G36*
G01X11606300Y33299500D02*
Y34300900D01*
X11715300D01*
Y34732900D01*
G02X11863600Y34823100I101591J-17D01*
G03X12134100Y34809200I150535J290507D01*
G01X12143100Y34812700D01*
X12559000D01*
X12656200Y34909900D01*
X12789900D01*
Y34300900D01*
X13415300D01*
Y34427200D01*
X13660500Y34672500D01*
X13696000Y34644200D01*
G03X14226600Y34880500I203994J255811D01*
G02X14338100Y34975600I101426J-6003D01*
G03X14380000Y34974100I32633J325588D01*
G02X14432200Y34923400I1432J-50748D01*
G01Y34852200D01*
X14422600D01*
Y34075200D01*
X13874800D01*
Y33392300D01*
G02X13732200Y33299300I-101598J-43D01*
G03X13584700Y33326800I-132120J-299323D01*
G01X13562300Y33325800D01*
X13287000Y33601100D01*
X12718000D01*
X12306200Y33189300D01*
X12257000D01*
X12241900Y33205900D01*
G03X11777100Y33225100I-241897J-220310D01*
G02X11606300Y33299500I-69195J74401D01*
G37*
G36*
G01X12393400Y36034700D02*
X12789900Y35638200D01*
Y35317300D01*
X12487400D01*
X12390200Y35220100D01*
X12325300D01*
X12311700Y35249800D01*
G03X11865200Y35404900I-297500J-136200D01*
G02X11717300Y35495300I-46302J90435D01*
G01Y35928300D01*
X11203700D01*
Y36027000D01*
X11211400Y36034700D01*
X12393400D01*
G37*
G36*
G01X14819000Y4427900D02*
G03X14817200Y4581200I-318991J72915D01*
G02X14915600Y4707800I98459J25013D01*
G01X16454100D01*
X16615600Y4546300D01*
X16722300D01*
G02X16794200Y4372900I38J-101591D01*
G01X16725000Y4303700D01*
X14918000D01*
G02X14819000Y4427900I41J101589D01*
G37*
G36*
G01X13325800Y22970100D02*
G03X13227700Y23235000I-325822J29953D01*
G02X13227100Y23307400I35318J36495D01*
G01X13324500Y23404800D01*
Y23814200D01*
X13556600Y24046300D01*
X14022800D01*
Y23472800D01*
X14024800D01*
Y22953700D01*
X13875000D01*
X13780500Y22859200D01*
X13427000D01*
G02X13325800Y22970100I-19J101607D01*
G37*
G36*
G01X14989300Y29928600D02*
X14896600Y30021200D01*
G02X14930300Y30187200I71866J71831D01*
G03X15059400Y30699300I-122804J303282D01*
G01X15047700Y30713400D01*
Y30849800D01*
X15175200D01*
Y31750200D01*
X14424600D01*
Y31250500D01*
G02X14251200Y31178700I-101574J22D01*
G01X13896200Y31533700D01*
G02X13928200Y31699000I71850J71838D01*
G03X14025400Y32237200I-128201J301031D01*
G01X14009600Y32252200D01*
Y32324800D01*
X14087100D01*
X14415600Y31996300D01*
X15669900D01*
X15676200Y31952800D01*
G03X15693000Y31886900I323739J47440D01*
G02X15597600Y31750200I-95354J-35093D01*
G01X15424800D01*
Y30849800D01*
X15928200D01*
G02X16003200Y30679700I-6J-101587D01*
G03X15918000Y30443700I241634J-220613D01*
G01X15919000Y30421300D01*
X15572500Y30074800D01*
Y29928600D01*
X14989300D01*
G37*
G36*
G01X14525200Y32462900D02*
Y33947800D01*
X15072800D01*
Y32403700D01*
X14584400D01*
X14525200Y32462900D01*
G37*
G36*
G01X17975200Y4025200D02*
Y5472800D01*
X17977200D01*
Y6027200D01*
X17975200D01*
Y6472800D01*
X17977200D01*
Y7027200D01*
X17975200D01*
Y7974800D01*
X19273500D01*
G02X19374600Y7862700I33J-101610D01*
G03X19434200Y7638000I325419J-33939D01*
G02X19351600Y7477200I-82570J-59200D01*
G01X18522800D01*
Y4522800D01*
X21568500D01*
G03X21818700Y4423100I235495J227190D01*
G02X21924800Y4321600I4513J-101486D01*
G01Y4025200D01*
X17975200D01*
G37*
G36*
G01X16766300Y11637800D02*
X16570600Y11833500D01*
X16571600Y11855900D01*
G03X16547300Y11995800I-326814J15294D01*
G02X16641300Y12136100I93958J38689D01*
G01X17266400D01*
X17822800Y12692500D01*
Y13139200D01*
X17994400D01*
Y14046300D01*
X18244000D01*
Y13139200D01*
X18994600D01*
Y13346300D01*
X19148400D01*
G02X19231700Y13186500I34J-101594D01*
G03X19178700Y13061200I268278J-187337D01*
G02X19073600Y12978900I-99780J19164D01*
G03X18729600Y12636900I-17187J-326718D01*
G01X18730600Y12614500D01*
X18540300Y12424200D01*
Y11809400D01*
X17512800D01*
Y11637800D01*
X16766300D01*
G37*
G36*
G01X17996400Y14855700D02*
Y15759800D01*
X17184500D01*
G03X17013700Y15816500I-184510J-270202D01*
G02X16946100Y15989900I4241J101530D01*
G01X17531900Y16575600D01*
X17994400D01*
Y18257000D01*
X17201500D01*
G03X16847200Y18288500I-201471J-257807D01*
G02X16698100Y18378300I-47494J89822D01*
G01Y18493400D01*
X16944600D01*
Y19022000D01*
G02X17118000Y19093900I101591J38D01*
G01X17200400Y19011500D01*
X18347800D01*
Y18257000D01*
X18244000D01*
Y16575600D01*
X18373200D01*
G02X18459800Y16420900I-25J-101603D01*
G03X18994600Y16454100I279039J-170889D01*
G01Y16822100D01*
X19144400D01*
X19368600Y17046300D01*
X20022800D01*
Y16472800D01*
X20024800D01*
Y16329500D01*
X20002500Y16307200D01*
X19981300D01*
X19742800Y16068700D01*
Y15893700D01*
G02X19607700Y15797800I-101586J-1D01*
G03X19179000Y15552200I-107687J-308983D01*
G01X19170900Y15511300D01*
X18994600D01*
Y15757800D01*
X18244000D01*
Y14855700D01*
X17996400D01*
G37*
G36*
G01X15825200Y12528100D02*
Y12575200D01*
X15703700D01*
Y13424300D01*
G02X15871400Y13501500I101609J23D01*
G03X16375700Y13898600I212787J248539D01*
G02X16466200Y14046300I90539J46100D01*
G01X17243800D01*
Y13403700D01*
G02X17108500Y13307900I-101576J14D01*
G03X17107900Y12690300I-108492J-308695D01*
G01X17138000Y12700800D01*
X17196500Y12642300D01*
X17097600Y12543500D01*
X16570900D01*
X16560700Y12581100D01*
G03X15925600Y12567700I-315895J-85159D01*
G01X15916600Y12528100D01*
X15825200D01*
G37*
G36*
G01X17243800Y16863700D02*
X16683800Y16303700D01*
X16645800D01*
G02X16550800Y16441300I-3J101592D01*
G03X16448500Y16813300I-305995J115918D01*
G01Y17253800D01*
X16601700Y17407000D01*
X17243800D01*
Y16863700D01*
G37*
G36*
G01X15681600Y22025200D02*
G02X15593000Y22176500I-13J101584D01*
G03X15628400Y22401200I-285386J160099D01*
G02X15728000Y22522800I99592J20016D01*
G01X18477200D01*
Y22694800D01*
G02X18650600Y22766700I101591J38D01*
G01X18815800Y22601500D01*
X18924800D01*
Y22025200D01*
X15681600D01*
G37*
G36*
G01X18085900Y28214600D02*
X17688300Y27817000D01*
X17665900Y27818000D01*
G03X17581200Y27811000I-15629J-326827D01*
G02X17520700Y27850500I-10738J49635D01*
G03X17403700Y28041700I-320719J-64858D01*
G01Y28615600D01*
X17984400Y29196300D01*
X18293800D01*
Y28490200D01*
X18317000D01*
G02X18418200Y28398100I65J-101578D01*
G03X18428200Y28342800I325789J30359D01*
G02X18330100Y28214600I-98054J-26602D01*
G01X18085900D01*
G37*
G36*
G01X18256000Y33322700D02*
X18125000Y33453700D01*
X17977200D01*
Y34046300D01*
X18125000D01*
X18356000Y34277300D01*
X18370400Y34280500D01*
G03X18392500Y34286100I-69272J319786D01*
G02X18522800Y34188700I28718J-97438D01*
G01Y33367300D01*
G02X18368800Y33280300I-101596J38D01*
G03X18270400Y33319500I-168692J-280349D01*
G01X18256000Y33322700D01*
G37*
G36*
G01X16274800Y32592200D02*
X15727200D01*
Y33949800D01*
X16274800D01*
Y32592200D01*
G37*
G36*
G01X21477200Y35084000D02*
Y35477200D01*
X18618700D01*
X18610200Y35517500D01*
G03X18127300Y35733900I-320182J-67491D01*
G02X17975200Y35822000I-50509J88146D01*
G01Y35974800D01*
X21924800D01*
Y35090500D01*
G02X21796800Y34992400I-101586J-8D01*
G03X21610300Y34987500I-85012J-315988D01*
G02X21477200Y35084000I-31516J96571D01*
G37*
G36*
G01X19662800Y1609500D02*
Y2100000D01*
G02X19711800Y2150800I50794J38D01*
G03X20021800Y2418400I-11779J327004D01*
G02X20140200Y2499900I99904J-18383D01*
G03X20348600Y2530100I59770J321695D01*
G02X20496300Y2439600I46100J-90539D01*
G01Y2335700D01*
X20468700Y2321600D01*
G03X20400200Y1786800I149695J-290961D01*
G02X20332400Y1609500I-67770J-75698D01*
G01X19662800D01*
G37*
G36*
G01X20718200Y264900D02*
G03X20748700Y626700I-255998J203766D01*
G01X20742400Y638100D01*
Y702000D01*
X20877900D01*
X20917400Y662500D01*
X20916400Y640100D01*
G03X21227900Y951600I326800J-15300D01*
G01X21205500Y950600D01*
X21135600Y1020500D01*
G02X21207500Y1193900I71862J71809D01*
G01X23358600D01*
X23416600Y1135900D01*
X23415600Y1113500D01*
G03X23727100Y1425000I326800J-15300D01*
G01X23704700Y1424000D01*
X23527400Y1601300D01*
X21037800D01*
X21029600Y1609500D01*
X20904400D01*
G02X20836600Y1786800I-30J101602D01*
G03X20909300Y2180300I-218216J243782D01*
G01X20903700Y2191300D01*
Y2227100D01*
G02X21077100Y2299000I101591J38D01*
G01X21393000Y1983100D01*
X23084400D01*
X23097600Y1996300D01*
X23384400D01*
X23722900Y2334800D01*
G02X23896300Y2262900I71809J-71862D01*
G01Y2115600D01*
X24247800Y1764100D01*
X25616500D01*
Y1655100D01*
X26241900D01*
Y2042500D01*
G02X26356400Y2143200I101587J-63D01*
G03X26639700Y2247500I41352J324580D01*
G01X26654800Y2264100D01*
X26738700D01*
Y2197600D01*
X26729900Y2184600D01*
G03X27169700Y1720200I270132J-184629D01*
G01X27181800Y1727600D01*
X27316500D01*
Y1655100D01*
X27941900D01*
Y3280500D01*
X27832900D01*
Y4320000D01*
X27504600Y4648300D01*
X27505600Y4670700D01*
G03X27499500Y4751000I-326823J15555D01*
G02X27599300Y4872800I99559J20211D01*
G03X27914600Y5289800I679J327188D01*
G01X27912700Y5296600D01*
Y6812700D01*
X27803700D01*
Y7349900D01*
G02X27977100Y7421800I101591J38D01*
G01X28139900Y7259000D01*
Y5593900D01*
X28437500Y5296300D01*
X28587300D01*
Y5187300D01*
X29212700D01*
Y5204300D01*
G02X29295300Y5244000I50814J55D01*
G03X29659300Y5213400I204740J255207D01*
G02X29801400Y5166200I49401J-88776D01*
G03X29810700Y5147100I298684J133618D01*
G02X29747800Y5001600I-89778J-47534D01*
G03X29578100Y4889700I86370J-315610D01*
G01X29012500D01*
X28835000Y5067200D01*
X28342600D01*
X28096300Y4820900D01*
Y4798500D01*
X28032800Y4735000D01*
Y4265000D01*
X28096300Y4201500D01*
Y2015600D01*
X28347800Y1764100D01*
X28584300D01*
Y1655100D01*
X29209700D01*
Y2094200D01*
G02X29361200Y2182700I101589J16D01*
G03X29777900Y2264100I160610J285090D01*
G01X30284300D01*
Y1655100D01*
X30393300D01*
Y659100D01*
G03X30308100Y249300I203683J-256104D01*
G02X30218400Y100000I-89678J-47717D01*
G01X29808700D01*
G02X29735600Y272100I26J101586D01*
G03X29264400I-235600J227100D01*
G02X29191300Y100000I-73126J-70514D01*
G01X27436800D01*
G02X27338700Y227800I49J101588D01*
G03X26706500I-316100J84600D01*
G02X26608400Y100000I-98149J-26212D01*
G01X24808700D01*
G02X24735600Y272100I26J101586D01*
G03X24264400I-235600J227100D01*
G02X24191300Y100000I-73126J-70514D01*
G01X22308700D01*
G02X22235600Y272100I26J101586D01*
G03X21764400I-235600J227100D01*
G02X21691300Y100000I-73126J-70514D01*
G01X20797700D01*
G02X20718200Y264900I-3J101612D01*
G37*
G36*
G01X21650600Y5829300D02*
G02X21477200Y5901200I-71809J71862D01*
G01Y7477200D01*
X20048400D01*
G02X19965800Y7638000I-30J101600D01*
G03X20025400Y7862700I-265819J190761D01*
G02X20126500Y7974800I101067J10490D01*
G01X21924800D01*
Y6527200D01*
X21922800D01*
Y5953700D01*
X21775000D01*
X21650600Y5829300D01*
G37*
G36*
G01X20975200Y14025200D02*
Y15472800D01*
X20977200D01*
Y15856200D01*
G02X21119000Y15949500I101605J-16D01*
G03X21380300Y15950500I129502J300494D01*
G02X21522800Y15857600I40923J-92970D01*
G01Y14522800D01*
X24477200D01*
Y17477200D01*
X21522800D01*
Y16642400D01*
G02X21380300Y16549500I-101577J70D01*
G03X21119000Y16550500I-131798J-299494D01*
G02X20977200Y16643800I-40195J93316D01*
G01Y17027200D01*
X20975200D01*
Y17974800D01*
X22318800D01*
X22323500Y17929200D01*
G03X22974500I325500J33800D01*
G01X22979200Y17974800D01*
X24924800D01*
Y16527200D01*
X24922800D01*
Y15953700D01*
X24881400D01*
X24632100Y15704400D01*
Y14821800D01*
X24907600Y14546300D01*
X24924800D01*
Y14025200D01*
X20975200D01*
G37*
G36*
G01X19183800Y13753700D02*
X19144400Y13793100D01*
X18994600D01*
Y14046300D01*
X20024800D01*
Y13974800D01*
X20924800D01*
Y13753700D01*
X19183800D01*
G37*
G36*
G01X19201200Y17953700D02*
X19144400Y18010500D01*
X18994600D01*
Y18222600D01*
X20052200D01*
Y18977100D01*
X18635500D01*
G02X18563700Y19150600I3J101608D01*
G01X18637900Y19224800D01*
X20050200D01*
Y19276700D01*
G03Y19923500I49700J323400D01*
G01Y19975400D01*
X19612800D01*
X19575500Y20012700D01*
G02X19612400Y20179900I71852J71815D01*
G03X19178800Y20424700I-112412J307296D01*
G02X19079100Y20303700I-99717J-19411D01*
G01X19043200D01*
G02X18961900Y20466200I-8J101584D01*
G03X18903700Y20918500I-261883J196197D01*
G01Y21074800D01*
X18975200D01*
Y21974800D01*
X19739100D01*
G03X19980800Y22507300I254521J205577D01*
G02X19875200Y22608900I-3987J101535D01*
G01Y22656800D01*
G02X19956100Y22697700I50800J-22D01*
G03X20017800Y23260800I193700J263706D01*
G02X19875200Y23353700I-41005J92952D01*
G01Y23972800D01*
X19877200D01*
Y24442600D01*
G02X20019300Y24535700I101581J-51D01*
G03X20476600Y24851100I130458J300069D01*
G01X20475600Y24873500D01*
X20510400Y24908300D01*
X21317700D01*
X21571800Y24654200D01*
X21575200D01*
G02X21675800Y24538800I-45J-101588D01*
G03X22044400Y24170200I324200J-44400D01*
G02X22159800Y24069600I13812J-100645D01*
G01Y23711300D01*
X22374800Y23496300D01*
X22524600D01*
Y23338900D01*
G02X22476400Y23288200I-50778J13D01*
G03X22172200Y23027000I16373J-326808D01*
G02X22055500Y22947300I-99499J20402D01*
G03X21813900Y22893900I-55425J-322479D01*
G01X21779100Y22869800D01*
X21725200Y22923700D01*
X21726200Y22946100D01*
G03X21314300Y22645500I-326815J15316D01*
G01X21351900Y22635300D01*
Y22576900D01*
G02X21211600Y22482900I-101611J-42D01*
G03X20760200Y22165100I-124585J-302522D01*
G01X20761200Y22142700D01*
X20727100Y22108600D01*
Y21806200D01*
X20480600D01*
Y21055600D01*
X22996300D01*
Y20806000D01*
X20480600D01*
Y20760400D01*
X20438400Y20753200D01*
G03Y20108200I55300J-322500D01*
G01X20480600Y20101000D01*
Y20055400D01*
X20727100D01*
Y19905600D01*
X20996300Y19636400D01*
Y18925200D01*
X20924800D01*
Y18025200D01*
X20024800D01*
Y17953700D01*
X19201200D01*
G37*
G36*
G01X22412800Y27475200D02*
X21985800Y27902200D01*
X20576300D01*
G02X20475300Y27993400I55J101587D01*
G03X20435600Y28119100I-325472J-33675D01*
G02X20524400Y28270100I88778J49402D01*
G01X22524600D01*
Y27475200D01*
X22412800D01*
G37*
G36*
G01X21817000Y27494800D02*
X21868200Y27443600D01*
G02X21844600Y27282400I-71837J-71810D01*
G03X22326500Y26972900I155390J-287970D01*
G02X22427900Y27067800I101374J-6695D01*
G01X22524600D01*
Y26403700D01*
X21884400D01*
X21384400Y26903700D01*
X20073300D01*
G02X19980400Y27046400I18J101602D01*
G03X20005400Y27223200I-299188J132473D01*
G02X20106000Y27338600I100645J13812D01*
G01X20444400D01*
X20450000Y27294100D01*
G03X21098800Y27379400I324630J40904D01*
G02X21199400Y27494800I100645J13812D01*
G01X21817000D01*
G37*
G36*
G01X19875200Y25953700D02*
Y26025200D01*
X18975200D01*
Y26246300D01*
X19287900D01*
X19304900Y26229300D01*
X20882600D01*
X20984800Y26127100D01*
G02X20912900Y25953700I-71862J-71809D01*
G01X19875200D01*
G37*
G36*
G01X21015200Y29256900D02*
X20932200Y29339900D01*
G02X20986700Y29511800I71860J71807D01*
G03X21154900Y30072600I-55902J322390D01*
G02Y30220600I69623J74000D01*
G03X21257600Y30474300I-224124J238364D01*
G01X21256600Y30496700D01*
X21403700Y30643800D01*
Y30668800D01*
G02X21490400Y30704700I50793J-24D01*
G01X21854600Y30340500D01*
X21853600Y30318100D01*
G03X22165100Y30629600I326800J-15300D01*
G01X22142700Y30628600D01*
X21903700Y30867600D01*
Y31074800D01*
X21975200D01*
Y31974800D01*
X22875200D01*
Y32030700D01*
X22946700D01*
X22961500Y32016200D01*
G03X23378700Y31982400I228911J233798D01*
G02X23538700Y31899300I58407J-83126D01*
G01Y31773300D01*
X23749800Y31562200D01*
Y30977400D01*
X22847800D01*
Y30222800D01*
X23747800D01*
Y29975200D01*
X22849800D01*
Y29256900D01*
X22406700D01*
G02X22310300Y29390700I-28J101607D01*
G03X21689700I-310300J103700D01*
G02X21593300Y29256900I-96372J-32193D01*
G01X21015200D01*
G37*
G36*
G01X18807300Y32025200D02*
G02X18718300Y32175700I47J101594D01*
G03X18751900Y32400400I-286688J157731D01*
G02X18851300Y32522800I99431J20814D01*
G01X20413000D01*
G02X20481000Y32345700I19J-101598D01*
G03X20373300Y32121100I218982J-243128D01*
G02X20271900Y32025200I-101430J5689D01*
G01X18807300D01*
G37*
G36*
G01X24416600Y2171500D02*
X24303700Y2284400D01*
Y2581000D01*
G02X24427700Y2680100I101601J-1D01*
G03Y3318300I72300J319100D01*
G02X24303700Y3417400I-22399J99101D01*
G01Y3515600D01*
X24484400Y3696300D01*
X25084400D01*
X25403700Y4015600D01*
Y4315600D01*
X25595200Y4507100D01*
X25912500D01*
X25920600Y4466200D01*
G03X26002700Y4306200I320971J63635D01*
G02X25928500Y4135200I-74184J-69408D01*
G01X25538600D01*
Y3230800D01*
X25614500D01*
Y2653100D01*
X25616500D01*
Y2171500D01*
X24416600D01*
G37*
G36*
G01X24277100Y4065200D02*
G02X24103700Y4137100I-71809J71862D01*
G01Y5187700D01*
G02X24275100Y5261500I101586J5D01*
G03X24200900Y5631900I224893J237684D01*
G01X24187500Y5601700D01*
X24103700D01*
Y5815600D01*
X24901200Y6613100D01*
G02X25074600Y6541200I71809J-71862D01*
G01Y5637300D01*
X25415600Y5296300D01*
X25587300D01*
Y5187300D01*
X25851600D01*
G02X25923500Y5013900I38J-101591D01*
G01X25824100Y4914500D01*
X25426400D01*
X24996300Y4484400D01*
Y4184400D01*
X24915600Y4103700D01*
X24315600D01*
X24277100Y4065200D01*
G37*
G36*
G01X28159200Y7815900D02*
X28143700Y7831400D01*
Y10202600D01*
X28236600Y10295500D01*
X28422400D01*
G02X28512600Y10147200I-19J-101592D01*
G03X29093800I290600J-150400D01*
G02X29184000Y10295500I90219J46708D01*
G01X29243000D01*
X29258100Y10278900D01*
G03X29243900Y10702900I241896J220339D01*
G01X28067800D01*
X27977100Y10612200D01*
G02X27803700Y10684100I-71809J71862D01*
G01Y12483600D01*
X27325800Y12961500D01*
X27326800Y12983900D01*
G03X27268300Y13186500I-326828J15376D01*
G02X27351600Y13346300I83266J58206D01*
G01X29148400D01*
G02X29231700Y13186500I34J-101594D01*
G03X29768300I268300J-187300D01*
G02X29851600Y13346300I83266J58206D01*
G01X31648400D01*
G02X31731700Y13186500I34J-101594D01*
G03X32268300I268300J-187300D01*
G02X32351600Y13346300I83266J58206D01*
G01X34148400D01*
G02X34231700Y13186500I34J-101594D01*
G03X34768300I268300J-187300D01*
G02X34851600Y13346300I83266J58206D01*
G01X35260600D01*
X35610300Y12996600D01*
Y12774300D01*
X35516400Y12680400D01*
Y12530600D01*
X33754900D01*
Y11010200D01*
X37685300D01*
Y12530600D01*
X36031400D01*
X36005400Y12593200D01*
X36017700Y12605500D01*
Y13165400D01*
X35429400Y13753700D01*
X24975200D01*
Y13974800D01*
X25875200D01*
Y14046300D01*
X26049400D01*
X26398900Y14395800D01*
X26404700Y14399200D01*
G03X26475400Y14911700I-163109J283628D01*
G02X26496400Y14995600I36353J35479D01*
G03X26536000Y15011000I-98545J312017D01*
G02X26678700Y14938100I42936J-92069D01*
G03X27203700Y15256100I321301J61923D01*
G01Y15384400D01*
X26634400Y15953700D01*
X25877200D01*
Y16527200D01*
X25875200D01*
Y17009800D01*
X25953700D01*
X25967800Y16998100D01*
G03X26418500Y17029700I208796J251907D01*
G01X26433600Y17046300D01*
X26488500D01*
X26556600Y16978200D01*
Y16440800D01*
X27307200D01*
Y17341200D01*
X27019000D01*
G02X26948100Y17515600I-42J101595D01*
G03X27035900Y17665600I-228334J234348D01*
G01X27046000Y17703300D01*
X27191600D01*
Y17456800D01*
X27942200D01*
Y21913200D01*
X27428300D01*
G02X27326800Y22010000I-8J101606D01*
G03X26722000Y21821900I-326810J-15563D01*
G02X26635700Y21666700I-86323J-53593D01*
G01X24864300D01*
G02X24778000Y21821900I23J101607D01*
G03X24222000I-278000J172500D01*
G02X24135700Y21666700I-86323J-53593D01*
G01X23578600D01*
X23116400Y21204500D01*
G02X22943000Y21276400I-71809J71862D01*
G01Y21806200D01*
X22696500D01*
Y22705300D01*
G03X22787300Y23103900I-203713J256047D01*
G02X22878800Y23249800I91447J44291D01*
G01X23275200D01*
Y28250200D01*
X23103600D01*
Y28400000D01*
X23053200Y28450400D01*
G02X23089100Y28537100I35924J35907D01*
G01X25049800D01*
Y27724800D01*
X25950200D01*
Y28537100D01*
X27124600D01*
Y28240200D01*
X26822200D01*
G03Y27759800I-222200J-240200D01*
G01X27124600D01*
Y27549800D01*
X27875200D01*
Y28537100D01*
X28124800D01*
Y27549800D01*
X28296400D01*
Y26415500D01*
X28796300Y25915600D01*
Y25718800D01*
G02X28668600Y25620600I-101608J0D01*
G03X28868400Y25141600I-84011J-316213D01*
G02X29028400Y25162900I88149J-50564D01*
G01X29165100Y25026100D01*
X29314900D01*
Y24469600D01*
X33245300D01*
Y25990000D01*
X31646900D01*
G02X31552500Y26129100I-4J101580D01*
G03X30944300I-304100J120900D01*
G02X30849900Y25990000I-94396J-37520D01*
G01X29314900D01*
Y25575100D01*
G02X29228200Y25539200I-50793J24D01*
G01X29203700Y25563700D01*
Y26084400D01*
X28703800Y26584300D01*
Y27549800D01*
X28875400D01*
Y27571800D01*
G02X28982400Y27673300I101589J55D01*
G03X29162800Y27716200I17608J326710D01*
G02X29314900Y27628000I50496J-88167D01*
G01Y27009600D01*
X33245300D01*
Y28537100D01*
X33667400D01*
X33668200Y28537900D01*
G02X33754900Y28502000I35907J-35924D01*
G01Y27009600D01*
X37685300D01*
Y28530000D01*
X33905600D01*
G02X33833700Y28703400I-38J101591D01*
G01X34099100Y28968800D01*
Y29187300D01*
G02X34271600Y29260100I101595J39D01*
G03X34789000Y29341100I228359J234309D01*
G02X34950600Y29365300I89747J-47646D01*
G01X35519600Y28796300D01*
X37584400D01*
X37903700Y29115600D01*
Y30175200D01*
X37657600Y30421300D01*
X37658600Y30443700D01*
G03X37316500Y30785800I-326800J15300D01*
G01X37294100Y30784800D01*
X36791400Y31287500D01*
X36532900D01*
Y31396300D01*
X37984400D01*
X38703700Y32115600D01*
Y38090500D01*
X38245400Y38548800D01*
X37754600D01*
X37385500Y38179700D01*
X37256100D01*
G03Y37772300I-256100J-203700D01*
G01X37568900D01*
X37577800Y37781200D01*
G02X37732700Y37768000I71893J-71807D01*
G03X38148600Y37665100I267343J188605D01*
G02X38296300Y37574600I46100J-90539D01*
G01Y32284400D01*
X37815600Y31803700D01*
X37419400D01*
G02X37320100Y31926400I63J101583D01*
G03X36679900I-320100J68000D01*
G02X36580600Y31803700I-99363J-21117D01*
G01X36384400D01*
X35584400Y32603700D01*
X33869300D01*
X33550100Y32922900D01*
G02X33622000Y33096300I71862J71809D01*
G01X35684400D01*
X36184400Y33596300D01*
X37533900D01*
X38003500Y34065900D01*
Y34215500D01*
X38003700Y34215700D01*
Y36184400D01*
X37544500Y36643500D01*
G03X37400500Y36703200I-144064J-143973D01*
G01X37360800D01*
X37357900Y36703700D01*
X37292100D01*
G02X37252900Y36786700I47J50779D01*
G03X36747100I-252900J207700D01*
G01X36758700Y36772700D01*
Y36703700D01*
X36684400D01*
X36503700Y36884400D01*
Y39284500D01*
X36061600Y39726600D01*
G02X36133500Y39900000I71862J71809D01*
G01X39197600D01*
G02X39269200Y39726400I-36J-101580D01*
G03X39727700Y39259400I230789J-231989D01*
G02X39900000Y39186500I70709J-72944D01*
G01Y37302300D01*
G02X39727700Y37229400I-101591J44D01*
G03Y36759400I-227700J-235000D01*
G02X39900000Y36686500I70709J-72944D01*
G01Y34802300D01*
G02X39727700Y34729400I-101591J44D01*
G03Y34259400I-227700J-235000D01*
G02X39900000Y34186500I70709J-72944D01*
G01Y32302300D01*
G02X39727700Y32229400I-101591J44D01*
G03Y31759400I-227700J-235000D01*
G02X39900000Y31686500I70709J-72944D01*
G01Y29802300D01*
G02X39727700Y29729400I-101591J44D01*
G03Y29259400I-227700J-235000D01*
G02X39900000Y29186500I70709J-72944D01*
G01Y27302300D01*
G02X39727700Y27229400I-101591J44D01*
G03Y26759400I-227700J-235000D01*
G02X39900000Y26686500I70709J-72944D01*
G01Y24802300D01*
G02X39727700Y24729400I-101591J44D01*
G03Y24259400I-227700J-235000D01*
G02X39900000Y24186500I70709J-72944D01*
G01Y22302300D01*
G02X39727700Y22229400I-101591J44D01*
G03Y21759400I-227700J-235000D01*
G02X39900000Y21686500I70709J-72944D01*
G01Y15807100D01*
G02X39727700Y15734200I-101591J44D01*
G03Y15264200I-227700J-235000D01*
G02X39900000Y15191300I70709J-72944D01*
G01Y13307100D01*
G02X39727700Y13234200I-101591J44D01*
G03X39339300Y13284200I-227671J-235003D01*
G02X39187800Y13372700I-49898J88505D01*
G01Y13777000D01*
X38287400D01*
Y13026400D01*
X38392300D01*
G02X38428300Y12939700I59J-50799D01*
G01X38377700Y12889200D01*
Y12595900D01*
G03Y12083700I203700J-256100D01*
G01Y10465800D01*
X38215600Y10303700D01*
X37418400D01*
G02X37319300Y10427500I20J101580D01*
G03X36680700I-319300J71700D01*
G02X36581600Y10303700I-99120J-22220D01*
G01X34918400D01*
G02X34819300Y10427500I20J101580D01*
G03X34180700I-319300J71700D01*
G02X34081600Y10303700I-99120J-22220D01*
G01X33270300D01*
X32957200Y9990600D01*
X29314900D01*
Y8470200D01*
X29334800D01*
Y7794500D01*
X29295000Y7785700D01*
G03X29230600Y7764300I70430J-319548D01*
G02X29087200Y7856800I-41834J92550D01*
G01Y8580200D01*
X28332600D01*
Y7887700D01*
G02X28159200Y7815900I-101574J22D01*
G37*
G36*
G01X24652200Y30389200D02*
Y30777200D01*
X23752200D01*
Y31024800D01*
X24650200D01*
Y31703700D01*
G03X24712800Y32242900I-150211J290673D01*
G02Y32397300I66102J77200D01*
G03X24287200I-212800J248500D01*
G02Y32242900I-66102J-77200D01*
G03X24207000Y31848800I212808J-248517D01*
G01X24212300Y31838100D01*
Y31775400D01*
X24112800D01*
X23946100Y31942100D01*
Y32858300D01*
G03Y33370500I-203700J256100D01*
G01Y34841900D01*
X23524900Y35263100D01*
G02X23560800Y35349800I35924J35907D01*
G01X23609300D01*
G03X24189600Y35347800I290671J150211D01*
G01X24575300D01*
G02X24674000Y35222200I-5J-101585D01*
G03X25019200Y34818900I317983J-77211D01*
G02X25129300Y34717700I8514J-101229D01*
G01Y34525900D01*
X25151800Y34503400D01*
Y30918700D01*
X24851100Y30618000D01*
Y30339900D01*
G03X24825100Y30316800I204018J-255813D01*
G02X24652200Y30389200I-71299J72383D01*
G37*
G36*
G01X23750200Y29256900D02*
Y30022600D01*
X24731200D01*
X24742300Y29986900D01*
G03X25310900Y29880100I312529J96891D01*
G01X25772700D01*
Y29771100D01*
X26398100D01*
Y30380100D01*
X26761600D01*
G02X26858800Y30248900I6J-101601D01*
G03X26913900Y29952200I313005J-95338D01*
G02X26873200Y29796000I-80070J-62539D01*
G03X26689700Y29390700I126813J-301605D01*
G02X26593300Y29256900I-96372J-32193D01*
G01X24906700D01*
G02X24810300Y29390700I-28J101607D01*
G03X24189700I-310300J103700D01*
G02X24093300Y29256900I-96372J-32193D01*
G01X23750200D01*
G37*
G36*
G01X22875200Y33155700D02*
Y33972800D01*
X22877200D01*
Y34527200D01*
X22875200D01*
Y35046300D01*
X23165500D01*
X23538700Y34673100D01*
Y33370500D01*
G03X23431000Y33214800I203744J-256031D01*
G02X23314400Y33146400I-96674J31215D01*
G03X23041600Y33077500I-64057J-320882D01*
G02X22875200Y33155700I-64803J78246D01*
G37*
G36*
G01X28271500Y34659600D02*
G02X28098100Y34731500I-71809J71862D01*
G01Y35926300D01*
X27989100D01*
Y37062600D01*
X27742800Y37308900D01*
X27373200D01*
G02X27284800Y37460500I36J101595D01*
G03X26979100Y37948100I-284796J161077D01*
G02X26873400Y38027500I-6496J101408D01*
G03X26574900Y37630100I-319409J-70888D01*
G02X26680600Y37550700I6496J-101408D01*
G03X26715200Y37460500I319442J70799D01*
G02X26626800Y37308900I-88436J-50005D01*
G01X25720800D01*
X25511900Y37100000D01*
X25005400Y37606500D01*
X25006400Y37628900D01*
G03X24493600Y37913400I-326830J15302D01*
G02X24345600Y37950400I-57726J83595D01*
G03X24240800Y37531200I-290800J-150000D01*
G02X24388800Y37494200I57726J-83595D01*
G03X24438900Y37422600I290732J150103D01*
G02X24364100Y37252200I-74773J-68795D01*
G01X24022800D01*
Y36347800D01*
X24122800D01*
Y35911300D01*
G02X23992500Y35813800I-101597J-42D01*
G03X23922500Y35826400I-92617J-313792D01*
G02X23875200Y35877100I3490J50670D01*
G01Y36250200D01*
X23775200D01*
Y37250200D01*
X23633700D01*
Y37433300D01*
X23303700Y37763300D01*
Y38615500D01*
X23784500Y39096300D01*
X34515500D01*
X34785100Y38826700D01*
Y38363500D01*
G02X34640000Y38271700I-101608J29D01*
G03Y37680300I-140000J-295700D01*
G02X34785100Y37588500I43492J-91829D01*
G01Y37381900D01*
G02X34640000Y37290100I-101608J29D01*
G03Y36698700I-140000J-295700D01*
G02X34785100Y36606900I43492J-91829D01*
G01Y35928300D01*
X34205500D01*
Y35298900D01*
X34207500D01*
Y35203200D01*
G02X34120800Y35167300I-50793J24D01*
G01X33970800Y35317300D01*
X33721300D01*
Y35926300D01*
X33612300D01*
Y36076100D01*
X33246300Y36442100D01*
X32290900D01*
X32166700Y36566300D01*
G02X32182000Y36722500I71866J71810D01*
G03X31676300Y36946900I-181982J271907D01*
G02X31575700Y36830600I-100540J-14692D01*
G01X31164000D01*
G02X31092100Y37004000I-38J101591D01*
G01X31362300Y37274200D01*
X31384700Y37273200D01*
G03X31726900Y37587000I15287J326815D01*
G02X31869100Y37676100I101524J-4006D01*
G03X31673100Y37989000I130934J299854D01*
G02X31530900Y37899900I-101524J4006D01*
G03X31073200Y37584700I-130865J-299883D01*
G01X31074200Y37562300D01*
X30393300Y36881400D01*
Y35926300D01*
X30284300D01*
Y35317300D01*
X30103800D01*
Y36049800D01*
X30275400D01*
Y36950200D01*
X29524800D01*
Y36049800D01*
X29696400D01*
Y35317300D01*
X29622600D01*
X29607500Y35333900D01*
G03X29325700Y35438400I-241960J-220273D01*
G02X29211700Y35539200I-12417J100821D01*
G01Y35928300D01*
X28582300D01*
Y35298900D01*
X28584300D01*
Y34817300D01*
X28429200D01*
X28271500Y34659600D01*
G37*
G36*
G01X22640100Y37052000D02*
X23039400Y37451400D01*
X23153900Y37336900D01*
G02X23118000Y37250200I-35924J-35907D01*
G01X23024600D01*
Y36653700D01*
X21975200D01*
Y36925200D01*
X21403700D01*
Y37044300D01*
X21411400Y37052000D01*
X22640100D01*
G37*
G36*
G01X26466600Y3521600D02*
G02X26293200Y3593400I-71826J71822D01*
G01Y4204400D01*
X26330200Y4214800D01*
G03X26557500Y4444700I-88646J314958D01*
G01X26567700Y4482300D01*
X26922700D01*
G03X27194100Y4359200I256027J203735D01*
G01X27216500Y4360200D01*
X27270100Y4306600D01*
G02X27198200Y4133200I-71862J-71809D01*
G01X26540800D01*
Y3595800D01*
X26466600Y3521600D01*
G37*
G36*
G01X26684400Y4889700D02*
X26477100Y5097000D01*
X26212700D01*
Y5796300D01*
X26618400D01*
G02X26708800Y5648400I-33J-101598D01*
G03X27137900Y5202500I291202J-149186D01*
G02X27280000Y5131600I42755J-92159D01*
G03X27297000Y5076400I320008J68335D01*
G02X27240400Y5007300I-47030J-19208D01*
G03X26922700Y4889700I-61672J-321330D01*
G01X26684400D01*
G37*
G36*
G01X26214700Y6203700D02*
Y6814700D01*
X25603000D01*
G02X25567100Y6901400I24J50793D01*
G01X25570700Y6905000D01*
Y7631600D01*
X26130000D01*
G02X26230400Y7514900I-32J-101566D01*
G03X26350300Y7210100I323582J-48694D01*
G01Y6203700D01*
X26214700D01*
G37*
G36*
G01X27224900Y8236900D02*
G03X26892600Y8308300I-224892J-237690D01*
G02X26757700Y8404300I-33312J95971D01*
G01Y8522400D01*
X26358200Y8921900D01*
Y9384400D01*
X25570700D01*
Y11489600D01*
X25482000Y11578300D01*
Y12229300D01*
X26048200Y12795500D01*
X26743900D01*
G03X27015300Y12672400I256027J203735D01*
G01X27037700Y12673400D01*
X27396300Y12314800D01*
Y10810700D01*
G02X27224900Y10736900I-101586J-5D01*
G03Y10261500I-224900J-237700D01*
G02X27396300Y10187700I69814J-73795D01*
G01Y8310700D01*
G02X27224900Y8236900I-101586J-5D01*
G37*
G36*
G01X26757700Y6203700D02*
Y7210100D01*
G03X26871200Y7546500I-203700J256075D01*
G02X26976900Y7672800I98473J24968D01*
G03X27224900Y7761500I23122J326398D01*
G02X27396300Y7687700I69814J-73795D01*
G01Y6812700D01*
X27287300D01*
Y6203700D01*
X26757700D01*
G37*
G36*
G01X24903700Y18925200D02*
Y20029500D01*
G03X25012500Y20188700I-203750J256024D01*
G02X25181400Y20230500I97056J-30038D01*
G01X26057600Y19354300D01*
X27083600D01*
X27104900Y19375700D01*
G02X27191600Y19339700I35901J-35941D01*
G01Y18999700D01*
X27041800D01*
X26695800Y18653700D01*
X24975200D01*
Y18925200D01*
X24903700D01*
G37*
G36*
G01X25875200Y17990200D02*
Y18025200D01*
X24975200D01*
Y18246300D01*
X26864600D01*
X27018200Y18399900D01*
G02X27191600Y18328100I71826J-71822D01*
G01Y18110700D01*
X26792400D01*
X26757500Y18075800D01*
X26735100Y18076800D01*
G03X26497600Y17990200I-15366J-326830D01*
G01X25875200D01*
G37*
G36*
G01X26650100Y19761700D02*
G02X26553300Y19894200I-1J101608D01*
G03X25974200Y20182100I-311734J99328D01*
G02X25819300Y20168800I-83047J58536D01*
G01X25265200Y20722900D01*
G02X25337100Y20896300I71862J71809D01*
G01X25932600D01*
X26458600Y20370300D01*
X27191600D01*
Y19888700D01*
X27041800D01*
X26914800Y19761700D01*
X26650100D01*
G37*
G36*
G01X25258500Y30339900D02*
Y30449200D01*
X25559200Y30749900D01*
Y32196300D01*
X26583100D01*
G02X26681900Y32070900I18J-101607D01*
G03X27324800Y31954900I318092J-76609D01*
G02X27497500Y32014400I100844J-12319D01*
G01X27581700Y31930200D01*
Y31396500D01*
X27472700D01*
Y30787500D01*
X26400100D01*
Y31398500D01*
X25770700D01*
Y30769100D01*
X25772700D01*
Y30287500D01*
X25310900D01*
G03X25258500Y30339900I-256100J-203700D01*
G37*
G36*
G01X25559200Y32603700D02*
Y34409900D01*
X25772700D01*
Y34300900D01*
X26398100D01*
Y34409900D01*
X26869100D01*
X26882800Y34380800D01*
G03X27190900Y34193200I296031J139379D01*
G02X27266500Y34019900I3714J-101520D01*
G01X26486800Y33240200D01*
X26322200D01*
G03X25862300Y32775100I-222207J-240207D01*
G02X25788500Y32603700I-73795J-69814D01*
G01X25559200D01*
G37*
G36*
G01X27318800Y32728200D02*
G03X27177200Y33077100I-318788J73805D01*
G02X27160300Y33234300I54983J85419D01*
G01X27723200Y33797200D01*
G02X27896600Y33725300I71805J-71873D01*
G01Y32436800D01*
G02X27723200Y32364900I-101591J-38D01*
G01X27484400Y32603700D01*
X27417800D01*
G02X27318800Y32728200I-31J101587D01*
G37*
G36*
G01X25129300Y35572300D02*
G02X25019200Y35471100I-101586J29D01*
G03X24982000Y35472000I-26501J-326120D01*
G02X24877400Y35573600I-3004J101551D01*
G01Y36252200D01*
X24777400D01*
Y37013100D01*
G02X24950800Y37084900I101574J-22D01*
G01X25129300Y36906400D01*
Y35572300D01*
G37*
G36*
G01X26996400Y35786200D02*
X26955900Y35777700D01*
G03X26701500Y35520200I66699J-320314D01*
G02X26590500Y35438800I-99688J19557D01*
G03X26514100Y35438400I-36499J-325186D01*
G02X26400100Y35539200I-12417J100821D01*
G01Y35928300D01*
X25803700D01*
Y36047800D01*
X26577200D01*
Y36901500D01*
X26824800D01*
Y36049800D01*
X26996400D01*
Y35786200D01*
G37*
G36*
G01X30800700Y1046800D02*
Y1655100D01*
X30909700D01*
Y1855200D01*
G02X31083100Y1927100I101591J38D01*
G01X31246100Y1764100D01*
X31395900D01*
Y1655100D01*
X31504900D01*
Y1077700D01*
G02X31349000Y991800I-101595J-36D01*
G03X30966700Y968200I-174804J-276598D01*
G02X30800700Y1046800I-64406J78570D01*
G37*
G36*
G01X29214200Y3386400D02*
Y4135200D01*
X28503700D01*
Y4370300D01*
X28440200Y4433800D01*
Y4566200D01*
X28503700Y4629700D01*
Y4652100D01*
X28511400Y4659800D01*
X28666200D01*
X28843700Y4482300D01*
X29578100D01*
G03X30100100Y4495300I256089J203687D01*
G01X30268600D01*
X30393300Y4370600D01*
Y3280500D01*
X30212400D01*
Y4133200D01*
X29461800D01*
Y3326600D01*
X29423000Y3317200D01*
G03X29359400Y3294700I76751J-318088D01*
G02X29214200Y3386400I-43634J91715D01*
G37*
G36*
G01X30800700Y3280500D02*
Y4539400D01*
X30437400Y4902700D01*
X30410500D01*
G02X30337000Y5074400I30J101595D01*
G03X30395000Y5158500I-237049J225532D01*
G01X30408800Y5187300D01*
X30819900D01*
G02X30919400Y5065400I-46J-101596D01*
G03X31170700Y4680200I320603J-65415D01*
G02X31221000Y4509100I-21535J-99275D01*
G01X30996300Y4284400D01*
Y3280500D01*
X30800700D01*
G37*
G36*
G01X28547300Y6814700D02*
Y7427800D01*
X28472700Y7502400D01*
G02X28544600Y7675800I71862J71809D01*
G01X28950600D01*
G02X29048900Y7548600I1J-101582D01*
G03X29161900Y7210100I316682J-82394D01*
G01Y6814700D01*
X28547300D01*
G37*
G36*
G01X30912700Y5364600D02*
Y6812700D01*
X30803700D01*
Y7043900D01*
G03X30396300I-203700J256100D01*
G01Y6812700D01*
X30287300D01*
Y6203700D01*
X29569300D01*
Y7210100D01*
G03X29692400Y7481500I-203735J256027D01*
G01X29691400Y7503900D01*
X29865300Y7677800D01*
X30238500D01*
X30242900Y7677000D01*
G03X30556100Y7795500I57114J322194D01*
G01X30889400D01*
X31105300Y7579600D01*
Y5643800D01*
X31252600Y5496500D01*
G02X31194800Y5324100I-71856J-71798D01*
G03X31067800Y5278200I45323J-324052D01*
G02X30912700Y5364600I-53497J86378D01*
G37*
G36*
G01X29906700Y29256900D02*
G02X29810300Y29390700I-28J101607D01*
G03X29815400Y29407200I-309949J104841D01*
G02X29933800Y29479600I97913J-27110D01*
G03X30319800Y29731000I66186J320411D01*
G01X30328500Y29771100D01*
X30811300D01*
G02X30912900Y29671500I11J-101609D01*
G03X31021800Y29434200I327119J6481D01*
G02X30954000Y29256900I-67770J-75698D01*
G01X29906700D01*
G37*
G36*
G01X28709700Y31499300D02*
X28571000Y31638100D01*
Y32187600D01*
X28825300Y32441900D01*
X28836200D01*
X28836400Y32442100D01*
X30062200D01*
X30071000Y32433300D01*
Y31321700D01*
X30284300Y31108400D01*
Y30787500D01*
X29211700D01*
Y31398500D01*
X28709700D01*
Y31499300D01*
G37*
G36*
G01X28390300Y29256900D02*
G02X28318400Y29430300I-38J101591D01*
G01X28442700Y29554600D01*
Y29964600D01*
G02X28529400Y30000500I50793J-24D01*
G01X28540800Y29989100D01*
X28562000D01*
X28584300Y29966800D01*
Y29771100D01*
X29108600D01*
G02X29201300Y29628000I-25J-101591D01*
G03X29189700Y29390700I298706J-133535D01*
G02X29093300Y29256900I-96372J-32193D01*
G01X28390300D01*
G37*
G36*
G01X28304000Y32742100D02*
Y34115900D01*
X28521700Y34333600D01*
X28584300Y34307600D01*
Y34300900D01*
X29209700D01*
Y34688300D01*
G02X29324200Y34789000I101587J-63D01*
G03X29396100Y34787800I41377J324591D01*
G02X29507100Y34684200I9438J-101152D01*
G03X30120600Y34834500I327084J-7848D01*
G01X30114300Y34846000D01*
Y34909900D01*
X30284300D01*
Y34300900D01*
X30570000D01*
X30793800Y34077100D01*
G02X30721900Y33903700I-71873J-71805D01*
G01X30515500D01*
X30071000Y33459200D01*
Y32849500D01*
X28667600D01*
X28667400Y32849300D01*
X28656500D01*
X28477400Y32670200D01*
G02X28304000Y32742100I-71809J71862D01*
G37*
G36*
G01X32235600Y272100D02*
G03X31984700Y826000I-235587J227061D01*
G01X31962300Y825000D01*
X31912300Y875000D01*
Y1655100D01*
X32021300D01*
Y2155500D01*
X32079300D01*
X32086200Y2153500D01*
G03X32105700Y2148500I90981J314302D01*
G02X32185100Y2045200I-22122J-99168D01*
G03X32699900Y1764100I326931J-13213D01*
G01X33095900D01*
Y1655100D01*
X33721300D01*
Y1914300D01*
G02X33894700Y1986200I101591J38D01*
G01X34007800Y1873100D01*
X34038800D01*
X34051300Y1860600D01*
Y1655100D01*
X34676700D01*
Y2042500D01*
G02X34791200Y2143200I101587J-63D01*
G03X35088700Y2264100I41407J324590D01*
G01X35751300D01*
Y1655100D01*
X36376700D01*
Y1764100D01*
X36723200D01*
X36792300Y1833200D01*
X36814700Y1832200D01*
G03X36507400Y2213800I15278J326836D01*
G01X36500200Y2171500D01*
X36376700D01*
Y2764100D01*
X36772400D01*
G03X36721800Y3171500I227587J235109D01*
G01X36376700D01*
Y3280500D01*
X35800400D01*
Y4133200D01*
X35049800D01*
Y3232800D01*
X35221400D01*
Y3104600D01*
X35469300Y2856700D01*
Y2671500D01*
X35088700D01*
G03X34792700Y2792600I-256104J-203683D01*
G02X34678700Y2893400I-12417J100821D01*
G01Y3230800D01*
X34802200D01*
Y4135200D01*
X34743200D01*
G02X34671400Y4308700I-6J101604D01*
G03X34470000Y4865900I-231318J231388D01*
G02X34377900Y4974500I9246J101194D01*
G03X34356200Y5117900I-326314J23962D01*
G01X34352700Y5126900D01*
Y5187300D01*
X34424600D01*
X34915600Y4696300D01*
X36875800D01*
X37203700Y5024200D01*
Y5243100D01*
G03Y5755300I-203700J256100D01*
G01Y6284400D01*
X36784400Y6703700D01*
X36518200D01*
Y7495200D01*
X35617800D01*
Y7323600D01*
X35415600D01*
G02X35314500Y7434900I32J101597D01*
G03X34785100Y7210100I-325712J31282D01*
G01Y6963800D01*
X34975300Y6773600D01*
Y6203700D01*
X34714700D01*
Y6814700D01*
X33994700D01*
Y6856200D01*
X33977800Y6873100D01*
Y7296800D01*
X34149400D01*
Y7750900D01*
G02X34310000Y7833600I101576J34D01*
G03X34755100Y8305000I190085J266354D01*
G02X34834200Y8470200I79181J63624D01*
G01X35615800D01*
Y7742800D01*
X36520200D01*
Y8470200D01*
X37685300D01*
Y9896300D01*
X38384400D01*
X38785100Y10297000D01*
Y12083700D01*
G03Y12595900I-203700J256100D01*
G01Y12720400D01*
X38941300Y12876600D01*
Y13026400D01*
X39170500D01*
X39173400Y12978800D01*
G03X39727700Y12764200I326583J20383D01*
G02X39900000Y12691300I70709J-72944D01*
G01Y10807100D01*
G02X39727700Y10734200I-101591J44D01*
G03Y10264200I-227700J-235000D01*
G02X39900000Y10191300I70709J-72944D01*
G01Y8307100D01*
G02X39727700Y8234200I-101591J44D01*
G03Y7764200I-227700J-235000D01*
G02X39900000Y7691300I70709J-72944D01*
G01Y5807100D01*
G02X39727700Y5734200I-101591J44D01*
G03Y5264200I-227700J-235000D01*
G02X39900000Y5191300I70709J-72944D01*
G01Y3307100D01*
G02X39727700Y3234200I-101591J44D01*
G03Y2764200I-227700J-235000D01*
G02X39900000Y2691300I70709J-72944D01*
G01Y807100D01*
G02X39727700Y734200I-101591J44D01*
G03X39264400Y272100I-227705J-235005D01*
G02X39191300Y100000I-73126J-70514D01*
G01X37308700D01*
G02X37235600Y272100I26J101586D01*
G03X36764400I-235600J227100D01*
G02X36691300Y100000I-73126J-70514D01*
G01X34808700D01*
G02X34735600Y272100I26J101586D01*
G03X34264400I-235600J227100D01*
G02X34191300Y100000I-73126J-70514D01*
G01X32308700D01*
G02X32235600Y272100I26J101586D01*
G37*
G36*
G01X32433300Y2671500D02*
G03X32137300Y2792600I-256104J-203683D01*
G02X32023300Y2893400I-12417J100821D01*
G01Y3230800D01*
X32135200D01*
Y4196300D01*
X32382800D01*
Y3232800D01*
X32564200D01*
X32813900Y2983100D01*
Y2671500D01*
X32433300D01*
G37*
G36*
G01X33696300Y4437100D02*
G02X33522900Y4365200I-101591J-38D01*
G01X33284400Y4603700D01*
X31551500D01*
G02X31477700Y4775100I-5J101586D01*
G03X31560600Y5065400I-237703J224867D01*
G02X31660100Y5187300I99546J20304D01*
G01X32012700D01*
Y5796300D01*
X32188500D01*
G02X32262300Y5624900I5J-101586D01*
G03X32737700I237700J-224900D01*
G02X32811500Y5796300I73795J69814D01*
G01X33087300D01*
Y5187300D01*
X33668900D01*
X33675700Y5185400D01*
G03X33705900Y5178300I89894J314588D01*
G02X33744300Y5110900I-9294J-49934D01*
G03X33831300Y4756500I307281J-112446D01*
G01X33847900Y4741400D01*
Y4692200D01*
X33696300Y4540600D01*
Y4437100D01*
G37*
G36*
G01X31261900Y7999200D02*
X31450900Y8188200D01*
X32154700D01*
G02X32252200Y8058100I-29J-101606D01*
G03X32243700Y7910900I313999J-91977D01*
G02X32151500Y7792400I-100121J-17218D01*
G03X31973500Y7210100I25678J-326205D01*
G01Y6814700D01*
X31512700D01*
Y7748400D01*
X31261900Y7999200D01*
G37*
G36*
G01X33492900Y8197200D02*
X33245300Y8444800D01*
Y9702500D01*
X33439100Y9896300D01*
X33754900D01*
Y8470200D01*
X34165800D01*
G02X34244900Y8305000I-81J-101576D01*
G03X34198900Y8228100I255186J-204855D01*
G01X34185800Y8197200D01*
X33492900D01*
G37*
G36*
G01X31309200Y30393200D02*
X31287500Y30414900D01*
Y31400600D01*
X30899000Y31789100D01*
Y32768700D01*
X31326600Y33196300D01*
X31587100D01*
G02X31684900Y33067300I-38J-101602D01*
G03X32326300Y32955300I315083J-88167D01*
G02X32499500Y33019700I101329J-7413D01*
G01X32754500Y32764700D01*
Y31449800D01*
X33095900Y31108400D01*
Y30787500D01*
X32023300D01*
Y31398500D01*
X31393900D01*
Y30769100D01*
X31395900D01*
Y30429100D01*
G02X31309200Y30393200I-50793J24D01*
G37*
G36*
G01X33721300Y30696400D02*
Y31396500D01*
X33384000D01*
X33161900Y31618600D01*
Y32489600D01*
G02X33335300Y32561500I101591J38D01*
G01X33700500Y32196300D01*
X34083100D01*
G02X34181900Y32070900I18J-101607D01*
G03X34818100I318100J-76500D01*
G02X34916900Y32196300I98782J23793D01*
G01X35415600D01*
X36042000Y31569900D01*
G02X35970100Y31396500I-71862J-71809D01*
G01X35907500D01*
Y30787500D01*
X34834900D01*
Y31398500D01*
X34205500D01*
Y30787500D01*
X34057700D01*
X33894700Y30624500D01*
G02X33721300Y30696400I-71809J71862D01*
G37*
G36*
G01X32530000Y29117900D02*
X32693300Y29281200D01*
Y29928900D01*
G03X32808900Y30256300I-203722J256040D01*
G02X32908100Y30380100I99156J22191D01*
G01X33095900D01*
Y29771100D01*
X33106100D01*
G02X33199400Y29629300I11J-101587D01*
G03X33486300Y29173100I300582J-129281D01*
G02X33553900Y28999700I-4241J-101530D01*
G01X33498600Y28944500D01*
X32601900D01*
G02X32530000Y29117900I-38J101591D01*
G37*
G36*
G01X31222500Y35009700D02*
X31191700Y35040500D01*
Y35969800D01*
X31067700Y36093800D01*
Y36327500D01*
X31163400Y36423200D01*
X31733600D01*
X32122100Y36034700D01*
X33077500D01*
X33123300Y35988900D01*
X33097300Y35926300D01*
X33095900D01*
Y35317300D01*
X32433300D01*
G03X32137300Y35438400I-256104J-203683D01*
G02X32023300Y35539200I-12417J100821D01*
G01Y35928300D01*
X31393900D01*
Y35298900D01*
X31395900D01*
Y35081600D01*
G02X31222500Y35009700I-101591J-38D01*
G37*
G36*
G01X35084400Y5103700D02*
X34712700Y5475400D01*
Y5796300D01*
X35787300D01*
Y5103700D01*
X35084400D01*
G37*
G36*
G01X35688400Y29203700D02*
X35299400Y29592700D01*
G02X35317600Y29750800I71832J71828D01*
G03X35365300Y30270700I-172601J277974D01*
G01X35348700Y30285800D01*
Y30380100D01*
X35907500D01*
Y29771100D01*
X36532900D01*
Y29791100D01*
X36591700D01*
X36599300Y29788700D01*
G03X36634000Y29779500I101078J311199D01*
G02X36705000Y29636000I-20547J-99481D01*
G03X36706300Y29350100I294989J-141612D01*
G02X36615200Y29203700I-91166J-44815D01*
G01X35688400D01*
G37*
G36*
G01X36535400Y34132500D02*
G03X36534800Y34310000I-315211J87686D01*
G01X36532900Y34316800D01*
Y35409900D01*
X36622600D01*
X36815700Y35216800D01*
Y34988800D01*
X36796300Y34969400D01*
Y34750500D01*
G03X37220300Y34736300I203661J-256096D01*
G01X37203700Y34751400D01*
Y34800600D01*
X37223100Y34820000D01*
Y35385600D01*
X36791400Y35817300D01*
X36532900D01*
Y35926300D01*
X35907500D01*
Y35317300D01*
X35192500D01*
Y37580500D01*
G02X35342900Y37669600I101602J-17D01*
G03Y38243600I157100J287000D01*
G02X35192500Y38332700I-48798J89117D01*
G01Y38995500D01*
X34765100Y39422900D01*
G02X34837000Y39596300I71862J71809D01*
G01X35615700D01*
X36096300Y39115700D01*
Y36715600D01*
X36515600Y36296300D01*
X37315600D01*
X37596300Y36015600D01*
Y34384500D01*
X37596100Y34384300D01*
Y34234700D01*
X37365100Y34003700D01*
X36633300D01*
G02X36535400Y34132500I-1J101606D01*
G37*
G36*
G01X34355800Y33677100D02*
X34723900Y34045200D01*
Y34300900D01*
X34832900D01*
Y34909900D01*
X35907500D01*
Y34316800D01*
X35905600Y34310000D01*
G03X35964400Y34016200I314613J-89819D01*
G02X35960600Y33948600I-39745J-31673D01*
G01X35515600Y33503700D01*
X34427700D01*
G02X34355800Y33677100I-38J101591D01*
G37*
%LPC*%
G75*
G36*
G01X13527600Y29034800D02*
Y28372500D01*
G03X13656700Y28274700I101577J-22D01*
G02X13620400Y27657500I88896J-314896D01*
G01X13589000Y27670500D01*
X13529100Y27610600D01*
X13612200Y27527500D01*
X13630400Y27525800D01*
G02X13274200Y27169600I-30400J-325800D01*
G01X13272500Y27187800D01*
X12912100Y27548200D01*
Y28134400D01*
X12777000D01*
Y29034800D01*
X13527600D01*
G37*
G36*
G01X7143400Y10793300D02*
G02X6681000Y10572100I-143417J-294102D01*
G03X6582000Y10696300I-99041J22611D01*
G01X4918000D01*
G03X4819000Y10572100I41J-101589D01*
G02X4181000I-319000J-72900D01*
G03X4082000Y10696300I-99041J22611D01*
G01X2451300D01*
X2419400Y10728200D01*
X2398200D01*
X2159700Y10966700D01*
Y10987900D01*
X1795400Y11352200D01*
Y11959000D01*
G02X1743000Y12011400I203700J256100D01*
G01X1543600D01*
Y11839800D01*
X643200D01*
Y12590400D01*
X1543600D01*
Y12418800D01*
X1743000D01*
G02X2202800Y11959000I256100J-203700D01*
G01Y11521000D01*
X2268300Y11455500D01*
G03X2441700Y11527300I71809J71862D01*
G01Y12530600D01*
X6084000D01*
X6178000Y12624600D01*
Y13066100D01*
X6715600Y13603700D01*
X10695800D01*
X10895800Y13403700D01*
X10943000D01*
X10958100Y13420300D01*
G02X10943900Y12996300I241896J-220339D01*
G01X10727000D01*
X10527000Y13196300D01*
X9918000D01*
G03X9819000Y13072100I41J-101589D01*
G02X9181000I-319000J-72900D01*
G03X9082000Y13196300I-99041J22611D01*
G01X7418000D01*
G03X7319000Y13072100I41J-101589D01*
G02X6689200Y12896900I-318964J-72990D01*
G01X6685400Y12908400D01*
X6640900Y12952900D01*
X6585400Y12897300D01*
Y12455800D01*
X6372100Y12242500D01*
Y11103700D01*
X6687100D01*
X6881700Y11298300D01*
Y12530600D01*
X10812100D01*
Y11010200D01*
X7169800D01*
X7116100Y10956500D01*
G03X7143400Y10793300I71800J-71873D01*
G37*
G36*
G01X889700Y10662700D02*
Y10839600D01*
X643200D01*
Y11590200D01*
X1543600D01*
Y10839600D01*
X1297100D01*
Y10662700D01*
G02X889700I-203700J-256100D01*
G37*
G36*
G01X4189800Y29598600D02*
X4199800Y29628400D01*
X4141700Y29686600D01*
X4021400Y29566300D01*
X4024600Y29541600D01*
G02X3571400Y29800900I-324574J-41588D01*
G01X3580400Y29804700D01*
X3612400Y29836700D01*
G03X3552900Y30009400I-71811J71859D01*
G02X3265400Y30330000I39688J324799D01*
G01X3264800Y30380100D01*
X2811900D01*
Y29771100D01*
X2186500D01*
Y29880100D01*
X2036700D01*
X1826900Y30089900D01*
Y32269800D01*
X2148500Y32591400D01*
X2979700D01*
X3284000Y32287100D01*
G03X3370700Y32323000I35907J35924D01*
G01Y32370600D01*
X3354100Y32385700D01*
G02X3778100Y32371500I220339J241896D01*
G01Y31793000D01*
X4174600Y31396500D01*
X4511900D01*
Y29824200D01*
X4554300Y29817100D01*
G02X4189800Y29598600I-54306J-322686D01*
G37*
G36*
G01X928800Y26265300D02*
X929800Y26287700D01*
X663400Y26554100D01*
Y35631500D01*
X1474000Y36442100D01*
X3658800D01*
X4174600Y35926300D01*
X4511900D01*
Y34300900D01*
X3886500D01*
Y34348400D01*
X3405200D01*
G02X2984600Y34379900I-191617J265208D01*
G03X2811900Y34307400I-71102J-72573D01*
G01Y34300900D01*
X2186500D01*
Y34409900D01*
X2101400D01*
X2099300Y34407800D01*
X1629600D01*
X1627500Y34409900D01*
X1070800D01*
Y34170600D01*
G03X1192100Y34071000I101590J60D01*
G02Y33429000I63500J-321000D01*
G03X1070800Y33329400I-19710J-99660D01*
G01Y31670600D01*
G03X1192100Y31571000I101590J60D01*
G02Y30929000I63500J-321000D01*
G03X1070800Y30829400I-19710J-99660D01*
G01Y29170600D01*
G03X1192100Y29071000I101590J60D01*
G02Y28429000I63500J-321000D01*
G03X1070800Y28329400I-19710J-99660D01*
G01Y26722900D01*
X1217900Y26575800D01*
X1240300Y26576800D01*
G02X928800Y26265300I15300J-326800D01*
G37*
G36*
G01X3878700Y19047700D02*
G02X3526800Y18995800I-135874J-297681D01*
G03X3501900Y19164500I-67058J76290D01*
G02X3316500Y19524300I135884J297686D01*
G03X3194800Y19642800I-99747J19303D01*
G02X3082600Y19637600I-71023J319393D01*
G03X2968100Y19536900I-12913J-100763D01*
G01Y19149500D01*
X2342700D01*
Y19258500D01*
X1654100D01*
X1407800Y19504800D01*
Y20695800D01*
X1768900Y21056900D01*
X3442200D01*
X3711100Y20788000D01*
X3733500Y20789000D01*
G02X3959200Y20712800I15370J-326829D01*
G03X4042700Y20751600I32706J38863D01*
G01Y20774900D01*
X4668100D01*
Y19149500D01*
X4042700D01*
Y19258500D01*
X3893900D01*
G02X3853800Y19216400I-256050J203739D01*
G03X3878700Y19047700I67058J-76290D01*
G37*
G36*
G01X33754900Y24469600D02*
Y25919800D01*
X33709900Y25925000D01*
G02X34051700Y26129100I37754J325025D01*
G03X34146100Y25990000I94396J-37520D01*
G01X35848300D01*
G03X35942700Y26129100I4J101580D01*
G02X36550900I304100J120900D01*
G03X36645300Y25990000I94396J-37520D01*
G01X37685300D01*
Y24469600D01*
X33754900D01*
G37*
G36*
G01X24277400Y24083000D02*
Y23247800D01*
X23522800D01*
Y28252200D01*
X24277400D01*
Y27405800D01*
G03X24407600Y27308300I101575J-42D01*
G02Y26680500I92400J-313900D01*
G03X24277400Y26583000I-28625J-97458D01*
G01Y24905800D01*
G03X24407600Y24808300I101575J-42D01*
G02Y24180500I92400J-313900D01*
G03X24277400Y24083000I-28625J-97458D01*
G37*
G36*
G01X39187800Y14777200D02*
Y14026600D01*
X38287400D01*
Y14777200D01*
X38310800D01*
G03X38411900Y14869000I-5J101577D01*
G02X39063300I325700J-31400D01*
G03X39164400Y14777200I101105J9777D01*
G01X39187800D01*
G37*
G36*
G01X33245300Y12530600D02*
Y11010200D01*
X29314900D01*
Y11566700D01*
X29145200D01*
X28837700Y11874200D01*
X28815300Y11873200D01*
G02X29126800Y12184700I-15300J326800D01*
G01X29125800Y12162300D01*
X29228200Y12059900D01*
G03X29314900Y12095800I35907J35924D01*
G01Y12530600D01*
X33245300D01*
G37*
G36*
G01X29277200Y36047800D02*
X28522600D01*
Y36150700D01*
G02Y36638500I218200J243900D01*
G01Y36952200D01*
X28726700D01*
G03X28804100Y37119700I53J101608D01*
G02X28829100Y37570200I249111J212120D01*
G03Y37718200I-69623J74000D01*
G02X29277300I224100J238400D01*
G03Y37570200I69623J-74000D01*
G02X29214600Y37047200I-224106J-238391D01*
G01X29188900Y37032600D01*
Y36952200D01*
X29277200D01*
Y36047800D01*
G37*
G54D26*
X9500000Y2999200D03*
X7000000D03*
X4500000D03*
X2000000D03*
X9500000Y5499200D03*
X7000000D03*
X4500000D03*
X2000000D03*
X14500000Y9500800D03*
X12000000Y7999200D03*
X9500000D03*
X7000000D03*
X4500000D03*
X2000000D03*
X12000000Y10499200D03*
X9500000D03*
X2000000D03*
X1087400Y18750000D03*
X1086600Y21250000D03*
X3592600Y22492800D03*
X2000000Y21994400D03*
X4500000Y23005600D03*
X1255600Y23750000D03*
X12000000Y26995200D03*
X3755600Y33750000D03*
X2000000Y36994400D03*
X4500000Y12999200D03*
X2000000D03*
X14500000Y17999200D03*
X9500000D03*
X7000000D03*
X4500000D03*
X2000000D03*
X17000000Y2000000D03*
Y9500800D03*
Y10499200D03*
X6255600Y33750000D03*
X14500000Y36994400D03*
X28584600Y781000D03*
X32000000Y10499200D03*
X37000000Y23005600D03*
X34500000D03*
X32000000D03*
X29500000D03*
X27000000Y24494400D03*
X37000000Y20505600D03*
X34500000D03*
X32000000D03*
X29500000D03*
X27000000Y26994400D03*
X37000000Y12999200D03*
X28000000Y15400000D03*
X29500000Y15499200D03*
X32000000D03*
X34500000D03*
X37000000D03*
X39362400Y18119200D03*
X37000000Y17999200D03*
X34500000D03*
X32000000D03*
X29500000D03*
X37175600Y17182000D03*
X35500000Y19600000D03*
X33000000Y37956600D03*
X30500000D03*
X29500000Y31994400D03*
X37000000Y7100000D03*
Y7999200D03*
X33739200Y937200D03*
X38580200Y3750000D03*
X32000000Y31994400D03*
G54D27*
X28567100Y19685000D03*
G54D25*
X4406900Y9230400D03*
G54D24*
X8846900D03*
G54D29*
X25500000Y27099900D03*
G54D28*
X27932100Y16891000D03*
%LPD*%
G75*
G36*
G01X1822900Y19665900D02*
X1815200Y19673600D01*
Y20527000D01*
X1937700Y20649500D01*
X2340700D01*
Y20147500D01*
X2342700D01*
Y19665900D01*
X1822900D01*
G37*
G36*
G01X2810900Y32184000D02*
X3886500Y31108400D01*
Y30787500D01*
X2813900D01*
Y31398500D01*
X2234300D01*
Y32101000D01*
X2317300Y32184000D01*
X2810900D01*
G37*
G36*
G01X1070800Y35462700D02*
X1642800Y36034700D01*
X3490000D01*
X3886500Y35638200D01*
Y35496900D01*
G02X3739300Y35406100I-101588J-27D01*
G03X3336500Y35317300I-146707J-292489D01*
G01X2813900D01*
Y35928300D01*
X2184500D01*
Y35298900D01*
X2186500D01*
Y34817300D01*
X1953700D01*
X1951600Y34815200D01*
X1798400D01*
X1796300Y34817300D01*
X1070800D01*
Y35462700D01*
G37*
G54D10*
X2000000Y499200D03*
Y2999200D03*
Y5499200D03*
Y7999200D03*
X1093400Y10406600D03*
X1999100Y12215100D03*
X2000000Y10499200D03*
X1874400Y14839000D03*
X2000000Y12999200D03*
Y15499200D03*
X1087400Y18750000D03*
X2000000Y17999200D03*
X1086600Y21250000D03*
X2000000Y20100000D03*
Y21994400D03*
X1643600Y25229800D03*
X1255600Y23750000D03*
X1908200Y27769800D03*
X1255600Y26250000D03*
Y28750000D03*
Y31250000D03*
X2499200Y31999200D03*
X1255600Y33750000D03*
X1875000Y35000000D03*
X2000000Y36994400D03*
Y39494400D03*
X4500000Y499200D03*
Y2999200D03*
Y5499200D03*
Y7999200D03*
X3600000Y12000000D03*
X4500000Y10499200D03*
X3736200Y14463800D03*
X3463800Y15463800D03*
X3905000Y14963800D03*
X4500000Y12999200D03*
X3742800Y18750000D03*
X4500000Y17000800D03*
Y17999200D03*
X3637800Y19462200D03*
X4500000Y21994400D03*
X3124000Y19962200D03*
X3748800Y20462200D03*
X3592600Y22492800D03*
X5500000Y23114000D03*
X4500000Y23005600D03*
X3755600Y26250000D03*
X3700000Y29500000D03*
X3592600Y30334200D03*
X4500000Y29494400D03*
X3213600Y34613600D03*
X5467000Y31999200D03*
X3574400Y32627600D03*
X4500000Y31835000D03*
X3755600Y33750000D03*
X3592600Y35113600D03*
X4500000Y36994400D03*
Y39494400D03*
X7000000Y499200D03*
Y2999200D03*
Y5499200D03*
Y7999200D03*
X8000000Y9600000D03*
X8600000D03*
X7000000Y10499200D03*
X6336200Y14463800D03*
X6716600Y14963800D03*
X6248000Y15463800D03*
X7000000Y12999200D03*
X6085800Y18750000D03*
X8741200D03*
X8700000Y17000000D03*
X6200000D03*
X7000000Y17000800D03*
Y17999200D03*
X6337800Y19462200D03*
X8800000Y20600000D03*
X7000000Y21994400D03*
X8747200Y19962200D03*
X5935600D03*
X6560400Y20462200D03*
X8591000Y24054800D03*
X8500000Y22500000D03*
X5900000Y22200000D03*
X7000000Y23005600D03*
X8755600Y26250000D03*
X6255600D03*
X6400000Y29600000D03*
X6404200Y30302800D03*
X7000000Y29494400D03*
X6613600Y34613600D03*
X8278600Y31999200D03*
X6542200Y32627600D03*
X5935600Y32958200D03*
X7000000Y32148200D03*
X8755600Y33750000D03*
X6255600D03*
X6250000Y37500000D03*
X8750000Y36875000D03*
X6078600Y35113600D03*
X7000000Y36994400D03*
Y39494400D03*
X12000000Y499200D03*
X9500000D03*
X12000000Y2999200D03*
X9500000D03*
X11800000Y4800000D03*
X12000000Y5499200D03*
X9500000D03*
X12000000Y7999200D03*
X9500000D03*
X10600000Y10400000D03*
X9200000Y9600000D03*
X9800000D03*
X12000000Y10499200D03*
X9500000D03*
X9400000Y14600000D03*
X11200000Y13200000D03*
X8903400Y14963800D03*
X12000000Y12999200D03*
X9500000D03*
X9215800Y15463800D03*
X10900000Y17300000D03*
X11200000Y18200000D03*
X12000000Y17000800D03*
X9500000D03*
X12000000Y17999200D03*
X9500000D03*
X10500000Y19334200D03*
X9400000Y19600000D03*
X10600000Y20100000D03*
X12000000Y20505600D03*
X9500000Y21994400D03*
X11715000Y19962200D03*
X9372000Y20462200D03*
X11090200Y24523400D03*
X11000000Y22900000D03*
X12000000Y24339800D03*
X9500000Y23100000D03*
X11246400Y26397800D03*
X12000000Y26995200D03*
X9000000Y29700000D03*
X9059600Y30334200D03*
X9500000Y29494400D03*
X12000000D03*
X9713600Y34613600D03*
X11402600Y31999200D03*
X12000000Y31993600D03*
X8903400Y32958200D03*
X12000000Y32985600D03*
X11246400Y32958200D03*
X12014200Y35113600D03*
X9046400D03*
X12000000Y36994400D03*
X9500000D03*
X12000000Y39494400D03*
X9500000D03*
X14214200Y2655400D03*
X14500000Y499200D03*
X15000000Y5300000D03*
X14500000Y4500800D03*
Y5499200D03*
X13745600Y6876400D03*
X13589400Y7501200D03*
X14900000Y12300000D03*
X14500000Y9500800D03*
Y10499200D03*
X14995200Y14711800D03*
X13600000Y14700000D03*
X12339800Y14963800D03*
X14500000Y12999200D03*
Y15490400D03*
X13745600Y16401000D03*
X14500000Y17999200D03*
X13500000Y19700000D03*
X14995200Y19681200D03*
X14500000Y20505600D03*
X13700000Y22000000D03*
X13000000Y23000000D03*
X13750000Y24750000D03*
X13800000Y23200000D03*
X13600000Y27200000D03*
X12183600Y27959800D03*
X13754000Y26250000D03*
X13745600Y27959800D03*
X13800000Y29700000D03*
X14807500Y30490500D03*
X14214200Y30415600D03*
X12183600Y30334200D03*
X13750000Y34375000D03*
X13000000Y32900000D03*
X13800000Y32000000D03*
X13600000Y33000000D03*
X13900000Y34900000D03*
X13745600Y35497400D03*
X14370400Y35301200D03*
X12400000Y35500000D03*
X14500000Y36994400D03*
Y39494400D03*
X17000000Y2000000D03*
Y2999200D03*
X16244800Y5467000D03*
X16200000Y6900000D03*
X16244800Y12496000D03*
Y11871200D03*
X17000000Y9500800D03*
Y10499200D03*
X16084200Y13750000D03*
X16400000Y15100000D03*
X17000000Y12999200D03*
Y15489600D03*
X16244800Y16557200D03*
X16000000Y17700000D03*
X17000000Y17999200D03*
X18200000Y20381400D03*
X17700000Y20100000D03*
X16869600Y20462200D03*
X16600000Y25000000D03*
X16000000D03*
X17200000D03*
X16000000Y24500000D03*
X16600000D03*
X17200000D03*
X16000000Y23000000D03*
X17200000D03*
X15307600Y22336600D03*
X16557200Y27803600D03*
X17650600Y27491200D03*
X17200000Y27785600D03*
X16244800Y30459000D03*
X17338200Y30302800D03*
X17494400Y29521800D03*
X18275400Y30459000D03*
X18300000Y34600000D03*
X18200000Y33000000D03*
X16000000Y32000000D03*
X16600000Y34800000D03*
X18290000Y35450000D03*
X17000000Y36994400D03*
X18275400Y37488000D03*
X17963000Y39674800D03*
X17000000Y39494400D03*
X20618400Y2030600D03*
X19700000Y2477800D03*
X20200000Y2821600D03*
X21243200Y624800D03*
X20462200Y468600D03*
X18744000Y2655400D03*
X19100000Y5000000D03*
X19600000D03*
X20100000D03*
X19100000Y5500000D03*
X19600000D03*
X20100000D03*
X19100000Y7000000D03*
X19600000D03*
X20200000D03*
X19700000Y7828800D03*
X21243200Y10465400D03*
X21200000Y9769800D03*
X20700000Y10234600D03*
X20200000Y9790400D03*
X19984800Y12643400D03*
X19056400Y12652200D03*
X19681200Y9528200D03*
X19500000Y12183600D03*
X18619300Y15307600D03*
X21087000Y12808400D03*
X19500000Y12999200D03*
Y15488800D03*
X18738800Y16250000D03*
X21248400D03*
X18700000Y20662400D03*
X20099900Y19600100D03*
X19500000Y20487200D03*
X20493700Y20430700D03*
X21087000Y22180400D03*
X21399400Y22961400D03*
X19993600Y22180400D03*
X21300000Y24700000D03*
X20149800Y24835800D03*
Y22961400D03*
X19525000Y27959800D03*
X18744000Y28428400D03*
X19681200Y27178800D03*
X20149800Y25460600D03*
X18888200Y27178800D03*
X18431600Y27647400D03*
X20774600Y27335000D03*
X20149800Y27959800D03*
X20930800Y30459000D03*
Y29834200D03*
X20700000Y32102600D03*
X20900000Y33000000D03*
X20600000Y34500000D03*
X19100000Y33000000D03*
X20100000Y34500000D03*
X19600000D03*
X19100000D03*
X18431600Y32333400D03*
X20149800Y37488000D03*
X20462200Y37956600D03*
X19700000Y37156800D03*
X20600000Y35000000D03*
X20100000D03*
X19600000D03*
X19100000D03*
X21399400Y37956600D03*
X19525000Y39674800D03*
X18744000D03*
X21700000Y2667200D03*
X24500000Y499200D03*
X22000000D03*
X22336600Y2655400D03*
X24500000Y2999200D03*
X23742400Y1098200D03*
X23117600Y4529800D03*
X21804000Y4750000D03*
X23117600Y5154600D03*
X24500000Y5499200D03*
X24300000Y7100000D03*
X23176600Y7250000D03*
X23719800Y7750000D03*
X24500000Y7999200D03*
X22492800Y9840600D03*
X24200000Y12194600D03*
X22024200Y9528200D03*
X23273800Y9684400D03*
X21711800Y10153000D03*
X24500000Y10499200D03*
X23698800Y10153000D03*
X23700000Y12538400D03*
X22649000Y12496000D03*
X24700000Y12672600D03*
X21900000Y15500000D03*
X22400000D03*
X21900000Y15000000D03*
X22400000D03*
X23500000Y15500000D03*
Y15000000D03*
X23200000Y12821600D03*
X22649000Y17963000D03*
X24500000Y21994400D03*
X22649000Y19681200D03*
X21711800Y19837400D03*
X24700000Y20285600D03*
X24200000Y19769800D03*
X23700000Y20107400D03*
X23200000Y19769800D03*
X22492800Y22961400D03*
X24500000Y24494400D03*
X22000000D03*
Y22624800D03*
X24500000Y26994400D03*
X22000000D03*
X24500000Y29494400D03*
X22000000D03*
X22180400Y30302800D03*
X23742400Y33114400D03*
X21711800Y34676400D03*
X24500000Y32645800D03*
X21711800Y32333400D03*
X24500000Y31994400D03*
X23190400Y32250000D03*
X21711800Y32897600D03*
X23250300Y32825500D03*
X23300000Y34500000D03*
X23900000Y35500000D03*
X24054800Y37800400D03*
X24679600Y37644200D03*
X22180400D03*
X22768000Y39504000D03*
X27000000Y2000000D03*
X25067800Y2967800D03*
X26397800Y2467800D03*
X27022600Y312400D03*
X27000000Y2999200D03*
X27600000Y5200000D03*
X26241600Y4529800D03*
X27000000Y5499200D03*
X27178800Y4686000D03*
X25900000Y7000000D03*
X26554000Y7466200D03*
X27000000Y7999200D03*
Y10499200D03*
X26241600Y14682800D03*
X27000000Y15000000D03*
X25148200Y12964600D03*
X27000000Y12999200D03*
X26397800Y15307600D03*
X26176600Y17250000D03*
X26719800Y17750000D03*
X27000000Y21994400D03*
X26241600Y19993600D03*
X27000000Y24494400D03*
X26600000Y28000000D03*
X27000000Y26994400D03*
X27171800Y30153600D03*
X27000000Y29494400D03*
X27600000Y29800000D03*
X25054800Y30083800D03*
X27000000Y32802000D03*
Y31994400D03*
X26100000Y33000000D03*
X26241600Y31864800D03*
X27178800Y34520200D03*
X26554000Y35113600D03*
X27022600Y35457400D03*
X24992000Y35145000D03*
X26241600Y36394600D03*
X26554000Y37956600D03*
X27000000Y37621600D03*
X30597000Y403000D03*
X29521800Y2467800D03*
X29500000Y499200D03*
Y2999200D03*
X28584600Y781000D03*
X30100000Y5300000D03*
X28600000Y4500000D03*
X29500000Y5499200D03*
X29834200Y4686000D03*
X28900000Y7000000D03*
X29365600Y7466200D03*
X30300000Y7999200D03*
X30600000Y7300000D03*
X28800000Y12200000D03*
X28803200Y9996800D03*
X29500000Y10499200D03*
Y12999200D03*
X28000000Y15400000D03*
X29500000Y15499200D03*
Y17999200D03*
Y20505600D03*
Y23005600D03*
X28584600Y25304400D03*
X29000000Y28000000D03*
X29521800Y30185000D03*
X29500000Y29494400D03*
X30000000Y29800000D03*
X29834200Y34676400D03*
X29500000Y31994400D03*
X28740800Y31708600D03*
X29365600Y35113600D03*
X30500000Y37956600D03*
X28740800Y36394600D03*
X29053200Y37956600D03*
Y37331800D03*
X32512000Y2032000D03*
X32567800Y2967800D03*
X32177200Y2467800D03*
X32000000Y499200D03*
X33739200Y937200D03*
X31174200Y715200D03*
X33765500Y5500000D03*
X34051600Y4998400D03*
X31240000Y5000000D03*
X32500000Y5400000D03*
X32800000Y7000000D03*
X32566200Y7966200D03*
X32177200Y7466200D03*
X32000000Y10499200D03*
Y12999200D03*
Y15499200D03*
Y17999200D03*
Y20505600D03*
Y23005600D03*
X31280100Y27769800D03*
X33747600Y26250000D03*
X31248400D03*
X32489600Y30185000D03*
X32000000Y29494400D03*
X33500000Y29500000D03*
X31240000Y29678000D03*
X33739200Y33739200D03*
X32000000Y32979200D03*
Y31994400D03*
X32645800Y34676400D03*
X31275000Y34100000D03*
X31083800Y32489600D03*
X33739200Y31708600D03*
X32177200Y35113600D03*
X31400000Y37600000D03*
X33000000Y37956600D03*
X33739200Y36394600D03*
X31240000Y36238400D03*
X32000000Y37976000D03*
Y36994400D03*
X36830000Y2159000D03*
X35132200Y2967800D03*
X34832600Y2467800D03*
X37000000Y499200D03*
X34500000D03*
X37000000Y2999200D03*
X36465500Y5500000D03*
X37000000Y5499200D03*
X34440100Y4540100D03*
X37000000Y7100000D03*
X35266200Y7966200D03*
X34988800Y7466200D03*
X37000000Y7999200D03*
X34500000Y8100000D03*
X37000000Y10499200D03*
X34500000D03*
Y12999200D03*
X37000000D03*
X34500000Y15499200D03*
X37000000D03*
Y17999200D03*
X34500000D03*
X37175600Y17182000D03*
X37000000Y20505600D03*
X34500000D03*
X35500000Y19600000D03*
X37000000Y23005600D03*
X34500000D03*
X34429800Y25229800D03*
X37000000Y27400000D03*
X36200000D03*
X37000000Y28000000D03*
X36200000D03*
X36246800Y26250000D03*
X35145000Y30028800D03*
X37331800Y30459000D03*
X37000000Y29494400D03*
X34500000D03*
X36700000Y30100000D03*
X37000000Y34494400D03*
X34500000Y31994400D03*
X37000000D03*
X36220200Y34220200D03*
X35500000Y37956600D03*
X37000000Y37976000D03*
X34500000D03*
X37000000Y36994400D03*
X34500000D03*
X39500000Y499200D03*
Y2999200D03*
Y5499200D03*
X38580200Y3750000D03*
X39500000Y7999200D03*
X38581400Y12339800D03*
X39500000Y10499200D03*
X38737600Y14837600D03*
X39500000Y12999200D03*
Y15499200D03*
X39362400Y18119200D03*
X39500000Y21994400D03*
Y24494400D03*
Y26994400D03*
Y29494400D03*
Y34494400D03*
Y31994400D03*
X38000000Y37956600D03*
X39500000Y36994400D03*
Y39494400D03*
G54D20*
G01X4199200Y30083800D02*
X3700000Y29584600D01*
Y29500000D01*
G01X7167000Y30083800D02*
X6752500D01*
X6400000Y29731300D01*
Y29600000D01*
G01X9978600Y30083800D02*
X9383800D01*
X9000000Y29700000D01*
G01X12464700Y21555600D02*
X14817400D01*
X14823000Y21550000D01*
X15200000D01*
G01X14500000Y24750000D02*
X13750000D01*
G01X14500000Y25250000D02*
X13923000D01*
X13873000Y25300000D01*
X13249800D01*
X12941800Y24992000D01*
X12464700D01*
G01X13152300Y28584600D02*
Y27647700D01*
X13600000Y27200000D01*
G01X14500000Y25750000D02*
X12964800D01*
X12941800Y25773000D01*
X12464700D01*
G01X13102600Y30083800D02*
X13517100D01*
X13800000Y29800900D01*
Y29700000D01*
G01X14807500Y31292400D02*
Y30490500D01*
G01X13745600Y35497400D02*
X14330400Y36082200D01*
X14807500D01*
G01Y35301200D02*
X14370400D01*
G01X16494400Y19868900D02*
X16300000Y20063300D01*
Y20721600D01*
X16200000Y20821600D01*
Y21550000D01*
G01X15700000D02*
Y19882300D01*
X15713400Y19868900D01*
G01X18200000Y31550000D02*
X16050100D01*
X15800100Y31300000D01*
G01X15807700Y35301200D02*
X15858900Y35250000D01*
X17500000D01*
G01X15807700Y36082200D02*
X16392000D01*
X16724200Y35750000D01*
X17500000D01*
G01X17963000Y39237700D02*
Y39674800D01*
G01X19700000Y3550000D02*
Y2477800D01*
G01X20200000Y3550000D02*
Y2821600D01*
G01X21200000Y8450000D02*
Y9769800D01*
G01X20200000Y8450000D02*
Y9790400D01*
G01X19525000Y27959800D02*
Y28865500D01*
G01X18744000D02*
Y28428400D01*
G01X18700000Y31550000D02*
Y30635500D01*
X18700400Y30635100D01*
Y30386400D01*
X18744000Y30342800D01*
Y29865700D01*
G01X19525000D02*
Y30170300D01*
X19412400Y30282900D01*
Y30455400D01*
X19200000Y30667800D01*
Y31550000D01*
G01Y36450000D02*
Y37466500D01*
X19525000Y37791500D01*
Y38237500D01*
G01Y39237700D02*
Y39674800D01*
G01X18744000Y39237700D02*
Y39674800D01*
G01X22400000Y7250000D02*
X23176600D01*
G01X22400000Y7750000D02*
X23719800D01*
G01X23200000Y13550000D02*
Y12821600D01*
G01X24200000Y18450000D02*
Y19769800D01*
G01X23200000Y18450000D02*
Y19769800D01*
G01X27629200Y1967800D02*
X27032200D01*
X27000000Y2000000D01*
G01X27600000Y5500000D02*
Y5200000D01*
G01X25400000Y17250000D02*
X26176600D01*
G01X25400000Y17750000D02*
X26719800D01*
G01X27499900Y28000000D02*
X26600000D01*
G01X27785400Y34613600D02*
Y34199100D01*
X26586300Y33000000D01*
X26100000D01*
G01X30600000Y5500000D02*
X30300000D01*
X30100000Y5300000D01*
G01X30597000Y30083800D02*
X30578800Y30102000D01*
X30302000D01*
X30000000Y29800000D01*
G01X31275000Y34100000D02*
X31110600D01*
X30597000Y34613600D01*
G01X33408600Y30083800D02*
X33500000Y29992400D01*
Y29500000D01*
G01X31275000Y34100000D02*
X32895000D01*
X33408600Y34613600D01*
G01X36220200Y30083800D02*
X36236400Y30100000D01*
X36700000D01*
G01X36220200Y34613600D02*
Y34220200D01*
G01D02*
X36200000Y34200000D01*
G01X38737600Y14401900D02*
Y14837600D01*
G54D11*
X1093400Y11214900D03*
Y12215100D03*
X14839000Y28553100D03*
Y29553300D03*
X18431600Y905700D03*
Y1905900D03*
X17963000Y11434100D03*
Y10433900D03*
X16494400Y18868700D03*
X15713400D03*
X16494400Y19868900D03*
X15713400D03*
X15776200Y28553100D03*
X16557200D03*
X15776200Y29553300D03*
X16557200D03*
X17963000Y39237700D03*
Y38237500D03*
X19212600Y905700D03*
Y1905900D03*
X18744000Y11434100D03*
Y10433900D03*
X19525000Y11434100D03*
Y10433900D03*
X18800000Y18599900D03*
X19600000D03*
X20930800Y21430900D03*
Y20430700D03*
X18800000Y19600100D03*
X19600000D03*
X19525000Y28865500D03*
Y29865700D03*
X18744000Y28865500D03*
Y29865700D03*
Y39237700D03*
Y38237500D03*
X19525000Y39237700D03*
Y38237500D03*
X22492800Y10902500D03*
Y11902700D03*
X21711800Y10902500D03*
Y11902700D03*
X23368000Y10929900D03*
Y11930100D03*
X21711800Y21430900D03*
Y20430700D03*
X22492800Y21430900D03*
Y20430700D03*
X24200000Y30399900D03*
Y31400100D03*
X23300000Y30600100D03*
Y29599900D03*
X25908000Y8008900D03*
Y9009100D03*
X25500000Y27099900D03*
Y28100100D03*
X36068000Y8120100D03*
Y7119900D03*
X38737600Y14401900D03*
Y13401700D03*
G54D21*
G01X4199200Y34613600D02*
X3213600D01*
G01X18800000Y18599900D02*
X19600000D01*
G01X23900100Y24600000D02*
Y23700000D01*
G01Y24600000D02*
Y25400000D01*
G01Y27800000D02*
Y27000000D01*
G01D02*
Y26200000D01*
G01X23300000Y30600100D02*
X23999800D01*
X24200000Y30399900D01*
G01X24400100Y36800000D02*
Y35900000D01*
X24500100Y35800000D01*
G01X28567100Y17907000D02*
Y17167100D01*
G01D02*
X28291000Y16891000D01*
X27932100D01*
G54D12*
X2499200Y30083800D03*
Y30583800D03*
Y31083800D03*
Y34613600D03*
Y35113600D03*
Y35613600D03*
X4355400Y15463800D03*
Y14963800D03*
Y14463800D03*
X2655400D03*
Y14963800D03*
Y15463800D03*
X5467000Y14463800D03*
Y14963800D03*
Y15463800D03*
Y19462200D03*
Y19962200D03*
Y20462200D03*
X4355400D03*
Y19962200D03*
Y19462200D03*
X2655400D03*
Y19962200D03*
Y20462200D03*
X4199200Y31083800D03*
Y30583800D03*
Y30083800D03*
X5467000D03*
Y30583800D03*
Y31083800D03*
Y34613600D03*
X4199200D03*
X5467000Y35113600D03*
Y35613600D03*
X4199200D03*
Y35113600D03*
X8278600Y14463800D03*
Y14963800D03*
Y15463800D03*
X7167000D03*
Y14963800D03*
Y14463800D03*
X8278600Y19462200D03*
Y19962200D03*
Y20462200D03*
X7167000D03*
Y19962200D03*
Y19462200D03*
X8278600Y30083800D03*
Y30583800D03*
Y31083800D03*
X7167000D03*
Y30583800D03*
Y30083800D03*
X8434800Y34613600D03*
X7167000D03*
X8434800Y35113600D03*
Y35613600D03*
X7167000D03*
Y35113600D03*
X9978600Y15463800D03*
Y14963800D03*
Y14463800D03*
X11246400D03*
Y14963800D03*
Y15463800D03*
Y19462200D03*
Y19962200D03*
Y20462200D03*
X9978600D03*
Y19962200D03*
Y19462200D03*
Y31083800D03*
Y30583800D03*
Y30083800D03*
X11402600D03*
Y30583800D03*
Y31083800D03*
Y34613600D03*
X10134800D03*
X11402600Y35113600D03*
Y35613600D03*
X10134800D03*
Y35113600D03*
X12946400Y15463800D03*
Y14963800D03*
Y14463800D03*
Y20462200D03*
Y19962200D03*
Y19462200D03*
X13102600Y31083800D03*
Y30583800D03*
Y30083800D03*
Y34613600D03*
Y35613600D03*
Y35113600D03*
X27629200Y2967800D03*
Y2467800D03*
Y1967800D03*
X25929200D03*
Y2467800D03*
Y2967800D03*
X27600000Y6000000D03*
Y5500000D03*
X25900000D03*
Y6000000D03*
X27600000Y6500000D03*
X25900000D03*
X27785400Y31083800D03*
Y30583800D03*
Y30083800D03*
X26085400D03*
Y30583800D03*
Y31083800D03*
X27785400Y34613600D03*
X26085400D03*
X27785400Y35613600D03*
Y35113600D03*
X26085400D03*
Y35613600D03*
X30597000Y2967800D03*
Y2467800D03*
Y1967800D03*
X28897000D03*
Y2467800D03*
Y2967800D03*
X30600000Y6000000D03*
Y5500000D03*
X28900000D03*
Y6000000D03*
X30600000Y6500000D03*
X28900000D03*
X30597000Y31083800D03*
Y30583800D03*
Y30083800D03*
X28897000D03*
Y30583800D03*
Y31083800D03*
X30597000Y34613600D03*
X28897000D03*
X30597000Y35613600D03*
Y35113600D03*
X28897000D03*
Y35613600D03*
X33408600Y2967800D03*
Y2467800D03*
Y1967800D03*
X31708600D03*
Y2467800D03*
Y2967800D03*
X33400000Y6000000D03*
Y5500000D03*
X31700000D03*
Y6000000D03*
X33400000Y6500000D03*
X31700000D03*
X33408600Y31083800D03*
Y30583800D03*
Y30083800D03*
X31708600D03*
Y30583800D03*
Y31083800D03*
X33408600Y34613600D03*
X31708600D03*
X33408600Y35613600D03*
Y35113600D03*
X31708600D03*
Y35613600D03*
X36064000Y2967800D03*
Y2467800D03*
Y1967800D03*
X34364000D03*
Y2467800D03*
Y2967800D03*
X36100000Y6000000D03*
Y5500000D03*
X34400000D03*
Y6000000D03*
X36100000Y6500000D03*
X34400000D03*
X36220200Y31083800D03*
Y30583800D03*
Y30083800D03*
X34520200D03*
Y30583800D03*
Y31083800D03*
X36220200Y34613600D03*
X34520200D03*
X36220200Y35613600D03*
Y35113600D03*
X34520200D03*
Y35613600D03*
G54D22*
G01X1093400Y11214900D02*
Y10406600D01*
G01X8846900Y11770400D02*
X7641900D01*
X6771500Y10900000D01*
X2535700D01*
X2503800Y10931900D01*
X2482600D01*
X2363400Y11051100D01*
Y11072300D01*
X1999100Y11436600D01*
Y12215100D01*
G01X1093400D02*
X1999100D01*
G01X1874400Y14839000D02*
X1562000Y15151400D01*
Y16662000D01*
X1828500Y16928500D01*
X4034500D01*
X4063000Y16900000D01*
X4086700D01*
X4355400Y16631300D01*
Y15463800D01*
G01X2655400Y14463800D02*
X2533800D01*
X2531400Y14466200D01*
X2247200D01*
X1874400Y14839000D01*
G01X2271800Y16400000D02*
X2699900D01*
G01X2655400Y20462200D02*
X2362200D01*
X2000000Y20100000D01*
G01X3748800Y20462200D02*
X3357800Y20853200D01*
X1853300D01*
X1611500Y20611400D01*
Y19589200D01*
X1738500Y19462200D01*
X2655400D01*
G01X8846900Y25229800D02*
X7641900D01*
X6635100Y24223000D01*
X2066000D01*
X1643600Y24645400D01*
Y25229800D01*
G01X8846900Y27769800D02*
Y28595400D01*
X8642300Y28800000D01*
X2400000D01*
X1908200Y28308200D01*
Y27769800D01*
G01X1255600Y26250000D02*
X867100Y26638500D01*
Y34600000D01*
G01X3574400Y31708600D02*
X2895300Y32387700D01*
X2232900D01*
X2030600Y32185400D01*
Y30174300D01*
X2121100Y30083800D01*
X2499200D01*
G01X867100Y34600000D02*
Y35547100D01*
X1558400Y36238400D01*
X3574400D01*
X4199200Y35613600D01*
G01X2499200Y34613600D02*
X2038100D01*
X2036000Y34611500D01*
X1714000D01*
X1711900Y34613600D01*
X880700D01*
X867100Y34600000D01*
G01X2499200Y35613600D02*
X2002000D01*
G01D02*
X1875000Y35486600D01*
Y35000000D01*
G01X4406900Y11770400D02*
X3829600D01*
X3600000Y12000000D01*
G01X4406900Y11770400D02*
X5611900D01*
X6381700Y12540200D01*
Y12981700D01*
X6800000Y13400000D01*
X10611400D01*
X10811400Y13200000D01*
X11200000D01*
G01X4355400Y14463800D02*
X3736200D01*
G01X2655400Y15463800D02*
Y16355500D01*
X2699900Y16400000D01*
G01X2655400Y15463800D02*
X3463800D01*
G01X5467000D02*
Y16267000D01*
G01X2655400Y14963800D02*
X3905000D01*
G01D02*
X4355400D01*
G01X3905000D02*
Y15679500D01*
X3700100Y15884400D01*
Y16400000D01*
G01X5467000Y14963800D02*
X6716600D01*
G01X5467000Y14463800D02*
X5088900D01*
X4888500Y14664200D01*
Y17088500D01*
X5200000Y17400000D01*
X6349500D01*
X6588500Y17161000D01*
Y17111500D01*
X6600000Y17100000D01*
Y16030800D01*
G01X5467000Y16267000D02*
X6200000Y17000000D01*
G01X2699900Y15897000D02*
Y16400000D01*
G01D02*
X3128000D01*
G01X4355400Y19462200D02*
X3637800D01*
G01X5467000Y20462200D02*
X5900000Y20895200D01*
G01X5467000Y20462200D02*
Y20827700D01*
G01Y20462200D02*
X5832500D01*
G01X5467000Y19962200D02*
X5935600D01*
G01X2655400D02*
X3124000D01*
G01D02*
X4355400D01*
G01Y20462200D02*
X3748800D01*
G01X6560400D02*
Y20852800D01*
X6300000Y21113200D01*
Y22300000D01*
X6288500Y22311500D01*
Y22361000D01*
X6049500Y22600000D01*
X5200000D01*
X4998400Y22398400D01*
Y19552700D01*
X5088900Y19462200D01*
X5467000D01*
G01X11464500Y21555600D02*
X10917000D01*
X10661400Y21300000D01*
X10515400D01*
X10494900Y21279500D01*
X8505100D01*
X8484600Y21300000D01*
X7100000D01*
X6600000Y21800000D01*
Y22700000D01*
X6186000Y23114000D01*
X5500000D01*
G01X12183600Y27959800D02*
X11557000D01*
X11176000Y27578800D01*
Y27178000D01*
X10795000Y26797000D01*
X4699000D01*
X4406900Y26504900D01*
Y25229800D01*
G01X5467000Y31083800D02*
Y31999200D01*
G01X2499200Y31083800D02*
Y31999200D01*
G01X3592600Y30583800D02*
Y30334200D01*
G01X2499200Y30583800D02*
X3592600D01*
G01D02*
X4199200D01*
G01X5467000D02*
X6404200D01*
G01X6542200Y32057800D02*
X6100000Y32500000D01*
X5200000D01*
X4900000Y32200000D01*
Y30272700D01*
X5088900Y30083800D01*
X5467000D01*
G01X3574400Y31708600D02*
X4199200Y31083800D01*
G01X3574400Y32627600D02*
Y31708600D01*
G01X7167000Y35613600D02*
X6611500Y36169100D01*
Y37155400D01*
X6875000Y37418900D01*
Y37732900D01*
X6484500Y38123400D01*
X5125400D01*
X4998400Y37996400D01*
Y34704100D01*
X5088900Y34613600D01*
X5467000D01*
G01D02*
Y33426800D01*
X5935600Y32958200D01*
G01X5467000Y35613600D02*
Y36717000D01*
G01D02*
X6250000Y37500000D01*
G01X5467000Y35113600D02*
X6078600D01*
G01X2499200D02*
X3592600D01*
G01D02*
X4199200D01*
G01X6828900Y9230400D02*
X8846900D01*
G01X7167000Y14463800D02*
X6336200D01*
G01X7185200Y13901800D02*
X7167000Y13920000D01*
G01X8278600Y15463800D02*
Y16578600D01*
G01Y14963800D02*
X8903400D01*
G01X6716600D02*
X7167000D01*
G01X6600000Y16030800D02*
Y15815800D01*
X6248000Y15463800D01*
G01X7167000D02*
X6600000Y16030800D01*
G01X9215800Y15463800D02*
Y15854400D01*
X9100000Y15970200D01*
Y17100000D01*
X9088500Y17111500D01*
Y17161000D01*
X8849500Y17400000D01*
X8000000D01*
X7653800Y17053800D01*
Y14710500D01*
X7900500Y14463800D01*
X8278600D01*
G01Y16578600D02*
X8700000Y17000000D01*
G01X7167000Y19462200D02*
X6337800D01*
G01X14500000Y22250000D02*
X13999500D01*
X13861000Y22388500D01*
X13539000D01*
X13400500Y22250000D01*
X11150000D01*
X10467000Y21567000D01*
X10404800D01*
X10384300Y21546500D01*
X8615700D01*
X8595200Y21567000D01*
X8083000D01*
X7700000Y21950000D01*
Y22500000D01*
G01X8278600Y20462200D02*
X8662200D01*
X8800000Y20600000D01*
G01X5900000Y20895200D02*
Y22200000D01*
G01X8278600Y19962200D02*
X8747200D01*
G01X5935600D02*
X7167000D01*
G01Y20462200D02*
X6560400D01*
G01X8278600Y19462200D02*
X7780800D01*
X7558000Y19685000D01*
Y20758000D01*
X7788500Y20988500D01*
X9236300D01*
X9372000Y20852800D01*
Y20462200D01*
G01X8900000Y22500000D02*
X8500000D01*
G01X8278600Y31083800D02*
Y31999200D01*
G01Y30583800D02*
X9059600D01*
G01X6404200D02*
X7167000D01*
G01X6404200D02*
Y30302800D01*
G01X6542200Y32057800D02*
Y31708600D01*
X7167000Y31083800D01*
G01X8278600Y30083800D02*
X7900500D01*
X7653800Y30330500D01*
Y32400000D01*
G01X6613600Y34613600D02*
X6600000Y34600000D01*
G01X6613600Y34613600D02*
X7167000D01*
G01X6542200Y32627600D02*
Y32057800D01*
G01X8903400Y32958200D02*
X8434800D01*
X8278600Y33114400D01*
Y34079300D01*
X8434800Y34235500D01*
Y34613600D01*
G01X10134800Y35613600D02*
Y36909100D01*
X9543900Y37500000D01*
X8124900D01*
X7966200Y37341300D01*
Y34704100D01*
X8056700Y34613600D01*
X8434800D01*
G01X7653800Y32400000D02*
Y38840600D01*
X7000000Y39494400D01*
G01X7653800Y32400000D02*
X9600000D01*
X9978600Y32021400D01*
Y31083800D01*
G01X8434800Y35613600D02*
X8623000D01*
X8750000Y35740600D01*
G01X8434800Y35113600D02*
X9046400D01*
G01X6078600D02*
X7167000D01*
G01X11800000Y4800000D02*
X13200000D01*
G01X10190500Y10000000D02*
Y9438200D01*
X9961800Y9209500D01*
X9038200D01*
X9017300Y9230400D01*
X8846900D01*
G01Y8417400D02*
Y9230400D01*
G01D02*
Y10043400D01*
G01X10600000Y10400000D02*
X10200000Y10000000D01*
X10190500D01*
G01X9978600Y14463800D02*
X9536200D01*
X9400000Y14600000D01*
G01X11246400Y15463800D02*
Y16953600D01*
G01X8903400Y14963800D02*
X9978600D01*
G01X11246400D02*
X12339800D01*
G01X9500000Y17000800D02*
X10399200D01*
X10621600Y16778400D01*
Y14682800D01*
X10840600Y14463800D01*
X11246400D01*
G01X9978600Y15463800D02*
X9215800D01*
G01X11246400Y16953600D02*
X10900000Y17300000D01*
G01X11246400Y19462200D02*
Y18800000D01*
G01D02*
Y18246400D01*
X11200000Y18200000D01*
G01X13800000Y18400000D02*
X13400000Y18800000D01*
X11246400D01*
G01X9500000Y17000800D02*
X10199200Y17700000D01*
X11749700D01*
X12000000Y17449700D01*
Y17000800D01*
G01X9400000Y19600000D02*
X9537800Y19462200D01*
X9978600D01*
G01X11246400Y20462200D02*
X10868300D01*
G01D02*
X10600000Y20193900D01*
Y20100000D01*
G01X11246400Y20462200D02*
Y20827700D01*
G01Y20462200D02*
X11611900D01*
G01X11246400Y19962200D02*
X11715000D01*
G01D02*
X12946400D01*
G01X8747200D02*
X9137800D01*
X9249300Y20073700D01*
X9489000D01*
X9600500Y19962200D01*
X9978600D01*
G01Y20462200D02*
X9372000D01*
G01X10100000Y22500000D02*
X11022400D01*
X11039400Y22517000D01*
X13289900D01*
X13428400Y22655500D01*
X13864900D01*
X13959400Y22750000D01*
X14500000D01*
G01X11464500Y24992000D02*
Y24897700D01*
X11090200Y24523400D01*
G01X11464500Y23273800D02*
X11373800D01*
X11000000Y22900000D01*
G01X11464500Y23273800D02*
Y23776800D01*
G01Y23273800D02*
X11892600D01*
G01X11464500Y25773000D02*
Y26288600D01*
X11355300Y26397800D01*
X11246400D01*
G01X11402600Y31083800D02*
Y31999200D01*
G01X11037100Y31083800D02*
X11402600D01*
G01D02*
X11768100D01*
G01X9059600Y30583800D02*
Y30334200D01*
G01Y30583800D02*
X9978600D01*
G01X11402600D02*
X12183600D01*
G01X10621600Y32802000D02*
X10600000Y32780400D01*
Y30508300D01*
X11024500Y30083800D01*
X11402600D01*
G01X9713600Y34613600D02*
X9700000Y34600000D01*
G01X9713600Y34613600D02*
X10134800D01*
G01X11402600D02*
X11090500D01*
X11000000Y34704100D01*
Y36111400D01*
X11127000Y36238400D01*
X12477800D01*
X13102600Y35613600D01*
G01X11402600Y34613600D02*
Y33114400D01*
X11246400Y32958200D01*
G01X10621600Y32802000D02*
Y37323000D01*
X10748600Y37450000D01*
X11544400D01*
X12000000Y36994400D01*
G01X13102600Y31083800D02*
Y31911100D01*
X13102400Y31911300D01*
Y32002700D01*
X12705100Y32400000D01*
X11023600D01*
X10621600Y32802000D01*
G01X11402600Y35613600D02*
X12286400D01*
G01X8750000Y35740600D02*
Y36875000D01*
G01X11402600Y35113600D02*
X12014200D01*
G01X9046400D02*
X10134800D01*
G01X14338900Y3436400D02*
Y2780100D01*
X14214200Y2655400D01*
G01X14495100Y6248000D02*
X14652000D01*
X15000000Y5900000D01*
G01D02*
Y5300000D01*
G01X13200000Y4422000D02*
Y4800000D01*
G01D02*
Y5178000D01*
G01Y6000000D02*
Y5609400D01*
X13509400Y5300000D01*
X14011500D01*
X14400000Y4911500D01*
X16538500D01*
X16700000Y4750000D01*
X17500000D01*
G01X13200000Y3600000D02*
Y3990600D01*
X13309400Y4100000D01*
X16809400D01*
X16959400Y4250000D01*
X17500000D01*
G01X14495100Y7185200D02*
X14054400D01*
X13745600Y6876400D01*
G01X14495100Y7966200D02*
X14054400D01*
X13589400Y7501200D01*
G01X13100000Y11700000D02*
Y12250000D01*
X14237700Y13387700D01*
X14987700D01*
X15200000Y13600000D01*
Y14000000D01*
X15800000Y14600000D01*
X15843600D01*
X15895600Y14652000D01*
X19861400D01*
X19959400Y14750000D01*
X20500000D01*
G01X14300000Y11700000D02*
X14690600D01*
G01D02*
X14900000Y11909400D01*
Y12300000D01*
G01X14300000Y11700000D02*
Y12628000D01*
G01X13922000Y11700000D02*
X14300000D01*
G01X14995200Y14711800D02*
Y15695200D01*
X15400000Y16100000D01*
X16768200D01*
X17619100Y16950900D01*
Y17025800D01*
G01X12946400Y14463800D02*
X13363800D01*
X13600000Y14700000D01*
G01X12339800Y14963800D02*
X12946400D01*
G01X12000000Y12999200D02*
X12699200D01*
X13150000Y13450000D01*
X13450000D01*
X14000000Y14000000D01*
Y16000000D01*
X14400000Y16400000D01*
Y17200000D01*
X13800000Y17800000D01*
Y18400000D01*
G01X12946400Y15463800D02*
Y16054400D01*
X12000000Y17000800D01*
G01X13800000Y18400000D02*
X14000000Y18600000D01*
Y20161400D01*
X13699200Y20462200D01*
X12946400D01*
G01X13500000Y19700000D02*
Y19637700D01*
X13324500Y19462200D01*
X12946400D01*
G01X15713400Y18868700D02*
X15638500D01*
X14995200Y19512000D01*
Y19681200D01*
G01X12464700Y23273800D02*
X12905400D01*
G01X13000000Y23000000D02*
X12738500D01*
X12464700Y23273800D01*
G01X14500000Y23250000D02*
X15150000D01*
X15300000Y23400000D01*
Y24000000D01*
G01D02*
X15050000Y24250000D01*
X14500000D01*
G01X12905400Y23273800D02*
X13120800Y23489200D01*
Y23898600D01*
X13472200Y24250000D01*
X14500000D01*
G01X12926200Y23273800D02*
X12905400D01*
G01X14500000Y23750000D02*
X13959400D01*
G01D02*
X13800000Y23590600D01*
Y23200000D01*
G01X12152100Y28584600D02*
X12183600Y28553100D01*
Y27959800D01*
G01X15200000Y26450000D02*
Y28192100D01*
X14839000Y28553100D01*
G01X14799900Y31300000D02*
X14807500Y31292400D01*
G01X13000000Y32900000D02*
X13400000Y32500000D01*
Y31741800D01*
X14214200Y30927600D01*
Y30415600D01*
G01X14839000Y29553300D02*
Y29790800D01*
X14214200Y30415600D01*
G01X12183600Y30583800D02*
Y30334200D01*
G01Y30583800D02*
X13102600D01*
G01X17500000Y32250000D02*
X16887800D01*
X16884300Y32246500D01*
X16315700D01*
X16312200Y32250000D01*
X16299500D01*
X16161000Y32388500D01*
X15839000D01*
X15650500Y32200000D01*
X14500000D01*
X14200000Y32500000D01*
Y33200000D01*
G01X13900000Y34900000D02*
X13600000D01*
X13313600Y34613600D01*
X13102600D01*
G01X13750000Y34375000D02*
X14774900D01*
X14799900Y34400000D01*
G01D02*
Y33409500D01*
G01X15009400Y33200000D02*
X15400000D01*
G01X14799900Y33409500D02*
X15009400Y33200000D01*
G01X14371800Y34400000D02*
X14799900D01*
G01D02*
X15228000D01*
G01X13600000Y33000000D02*
X13202600Y33397400D01*
X12802400D01*
X12390600Y32985600D01*
X12000000D01*
G01X12286400Y35613600D02*
X12400000Y35500000D01*
G01X12014200Y35113600D02*
X12111400Y35016400D01*
X12474600D01*
X12571800Y35113600D01*
X13102600D01*
G01X16713400Y6250000D02*
Y5467000D01*
X16930400Y5250000D01*
X17500000D01*
G01Y5750000D02*
X18209400D01*
G01D02*
X18459400Y6000000D01*
G01X18200000Y3550000D02*
X15893400D01*
X15779800Y3436400D01*
X15339100D01*
G01X15548000Y6248000D02*
X16200000Y6900000D01*
G01X15548000Y6248000D02*
X15495300D01*
G01X17500000Y6250000D02*
X16713400D01*
G01D02*
X15938000D01*
X15936000Y6248000D01*
X15548000D01*
G01X17500000Y6750000D02*
X18797700D01*
X18938200Y6609500D01*
X19390400D01*
X20000000Y6000000D01*
G01X15495300Y7185200D02*
X15936000D01*
X16000800Y7250000D01*
X16035900D01*
X16049400Y7263500D01*
X16556800D01*
X16570300Y7250000D01*
X17500000D01*
G01Y7750000D02*
X16152200D01*
X15936000Y7966200D01*
X15495300D01*
G01X17963000Y10433900D02*
Y9227600D01*
X18200000Y8990600D01*
Y8450000D01*
G01X20500000Y14250000D02*
X15850000D01*
X15500000Y13900000D01*
Y11700000D01*
G01X16244800Y12496000D02*
X16401000Y12339800D01*
X17182000D01*
X17619100Y12776900D01*
Y13589400D01*
G01X17963000Y11434100D02*
X16681900D01*
X16244800Y11871200D01*
G01X17619100Y15307600D02*
X17367500D01*
X17161000Y15101100D01*
G01D02*
X16401100D01*
X16400000Y15100000D01*
G01X18100000Y15300000D02*
X18107600Y15307600D01*
G01X17619100D02*
Y15810600D01*
G01Y15307600D02*
X18047200D01*
G01X16244800Y16557200D02*
Y17338200D01*
X16517300Y17610700D01*
X17161000D01*
X17357100Y17806800D01*
X17619100D01*
G01X16494400Y18868700D02*
Y18194400D01*
X16000000Y17700000D01*
G01X19750000Y16750000D02*
X19500000Y16500000D01*
Y16100000D01*
X19286500Y15886500D01*
X18313500D01*
X18100000Y16100000D01*
Y18415500D01*
X18284400Y18599900D01*
G01X18200000Y21550000D02*
Y20381400D01*
G01X17700000Y21550000D02*
Y20100000D01*
G01X18800000Y19600100D02*
X18725100D01*
X18340200Y19215200D01*
X17284800D01*
X17051400Y19448600D01*
Y20280400D01*
X16869600Y20462200D01*
G01X16700000Y21550000D02*
Y20631800D01*
X16869600Y20462200D01*
G01X17200000Y21550000D02*
Y21009400D01*
X17367000Y20842400D01*
Y20281100D01*
X17336500Y20250600D01*
Y19863400D01*
X17518700Y19681200D01*
X18013900D01*
X18432700Y20100000D01*
X19200100D01*
X19600000Y19700100D01*
Y19600100D01*
G01X15300000Y24000000D02*
Y25600000D01*
X15500000Y25800000D01*
X18500000D01*
X18700000Y25600000D01*
Y23678600D01*
X18744000Y23634600D01*
G01X16700000Y26450000D02*
Y27660800D01*
X16557200Y27803600D01*
G01X15700000Y26450000D02*
Y28036200D01*
X15776200Y28112400D01*
Y28553100D01*
G01X16557200D02*
X16304700Y28300600D01*
Y28218700D01*
X16289700Y28203700D01*
Y28189700D01*
X16168700Y28068700D01*
Y27642600D01*
X16200000Y27611300D01*
Y26450000D01*
G01X18200000D02*
Y27415800D01*
X18431600Y27647400D01*
G01X17650600Y27491200D02*
X18170300Y28010900D01*
X18959800D01*
X19428400Y27542300D01*
X20467800D01*
X20624000Y27698500D01*
X21901400D01*
X22328400Y27271500D01*
X22628400D01*
X22899900Y27000000D01*
G01X17700000Y26450000D02*
Y27441800D01*
X17650600Y27491200D01*
G01X17200000Y27785600D02*
Y28700000D01*
X17900000Y29400000D01*
X19853400D01*
X20053500Y29199900D01*
Y28746600D01*
X20326300Y28473800D01*
X22741700D01*
X22899900Y28315600D01*
Y27800000D01*
G01X17200000Y26450000D02*
Y27785600D01*
G01X15776200Y29553300D02*
Y29990400D01*
X16244800Y30459000D01*
G01X16557200Y29553300D02*
Y29994000D01*
X16866000Y30302800D01*
X17338200D01*
G01X17500000Y32750000D02*
X17450000Y32700000D01*
X16900000D01*
X16600000Y33000000D01*
Y33200000D01*
G01X17500000Y34250000D02*
X18040600D01*
X18300000Y34509400D01*
Y34600000D01*
G01X15800100Y34400000D02*
X16240800D01*
X16390800Y34250000D01*
X17500000D01*
G01X18200000Y33000000D02*
Y33090600D01*
X18040600Y33250000D01*
X17500000D01*
G01Y33750000D02*
X18040600D01*
G01D02*
X18290600Y34000000D01*
G01X20000000D02*
X19890400Y34109500D01*
X18938200D01*
X18709500Y34338200D01*
Y34791800D01*
X18439800Y35061500D01*
X18129000D01*
X18125600Y35064900D01*
X18114400D01*
X17799500Y34750000D01*
X17500000D01*
G01X18200000Y36450000D02*
Y36650000D01*
X17915200Y36934800D01*
X17715200D01*
X17494400Y37155600D01*
Y37800400D01*
X17931500Y38237500D01*
X17963000D01*
G01X24200000Y12194600D02*
X25100000Y11294600D01*
Y7100000D01*
X23900000Y5900000D01*
Y3800000D01*
X23700000Y3600000D01*
Y2600000D01*
X23300000Y2200000D01*
X23013200D01*
X23000000Y2186800D01*
X21477400D01*
X21200000Y2464200D01*
Y3550000D01*
G01X20700000D02*
Y2112200D01*
X20618400Y2030600D01*
G01X19212600Y1905900D02*
Y2996800D01*
X19200000Y3009400D01*
Y3550000D01*
G01X18431600Y1905900D02*
Y2346600D01*
X18355500Y2422700D01*
Y2816400D01*
X18700000Y3160900D01*
Y3550000D01*
G01X19212600Y905700D02*
X20962300D01*
X21243200Y624800D01*
G01X23742400Y1098200D02*
X23443000Y1397600D01*
X20953400D01*
X20945200Y1405800D01*
X18744000D01*
X18431600Y1093400D01*
Y905700D01*
G01X21540600Y6000000D02*
X20000000D01*
G01X18459400D02*
X20000000D01*
G01Y4472000D02*
Y6000000D01*
G01D02*
Y7528000D01*
G01X19700000Y8450000D02*
Y7828800D01*
G01X18744000Y10433900D02*
Y9034600D01*
X18700000Y8990600D01*
Y8450000D01*
G01X19200000D02*
Y9668200D01*
X19525000Y9993200D01*
Y10433900D01*
G01X20700000Y8450000D02*
Y10234600D01*
G01X21711800Y10902500D02*
X21680300D01*
X21243200Y10465400D01*
G01X19525000Y11434100D02*
X19599900D01*
X19984800Y11819000D01*
Y12643400D01*
G01X18744000Y11434100D02*
Y12339800D01*
X19056400Y12652200D01*
G01X19959400Y15250000D02*
Y15502800D01*
X19946500Y15515700D01*
Y15984300D01*
X20065700Y16103500D01*
X20086900D01*
X20233400Y16250000D01*
X20500000D01*
G01Y15250000D02*
X19959400D01*
G01D02*
X19704600Y14995200D01*
X19372400D01*
X19060000Y15307600D01*
X18619300D01*
G01X21200000Y13550000D02*
X19099400D01*
X19060000Y13589400D01*
X18619300D01*
G01X20500000Y15750000D02*
X21597700D01*
X21738200Y15890500D01*
X22890500D01*
X23000000Y16000000D01*
G01X20500000Y16750000D02*
X19750000D01*
G01X23000000Y16000000D02*
X22250000Y16750000D01*
X21360300D01*
G01X18284400Y18599900D02*
X18800000D01*
G01X21297900Y16750000D02*
X20500000D01*
G01X21360300D02*
X21328200Y16719700D01*
X21297900Y16750000D01*
G01X19600000Y18171800D02*
Y18599900D01*
G01D02*
Y19028000D01*
G01Y18599900D02*
X20103000D01*
G01X20500000Y17250000D02*
X19284200D01*
X19060000Y17025800D01*
X18619300D01*
G01X20500000Y17750000D02*
X19116800D01*
X19060000Y17806800D01*
X18619300D01*
G01X21200000Y18450000D02*
Y19720800D01*
X20930800Y19990000D01*
Y20430700D01*
G01Y21430900D02*
Y22024200D01*
X21087000Y22180400D01*
G01X18700000Y21550000D02*
Y20662400D01*
G01X19600000Y19600100D02*
X20099900D01*
G01X20930800Y20430700D02*
X20493700D01*
G01X21711800Y21430900D02*
Y21871600D01*
X21555600Y22027800D01*
Y22805200D01*
X21399400Y22961400D01*
G01X19400000Y22250000D02*
X19924000D01*
X19993600Y22180400D01*
G01X19400000Y22750000D02*
X19344800Y22805200D01*
X18900200D01*
X18744000Y22961400D01*
Y23634600D01*
G01D02*
X18859400Y23750000D01*
X19400000D01*
G01Y24250000D02*
X20850000D01*
G01D02*
X21300000Y24700000D01*
G01X20149800Y24835800D02*
X20426000Y25112000D01*
X21402100D01*
X21656200Y24857900D01*
X22150600D01*
X22363500Y24645000D01*
Y23795700D01*
X22459200Y23700000D01*
X22899900D01*
G01X19400000Y25250000D02*
X19735600D01*
X20149800Y24835800D01*
G01X19940600Y25750000D02*
X21250000D01*
X21875100Y25124900D01*
X22261200D01*
X22286100Y25100000D01*
X22300000D01*
X22800000Y24600000D01*
X22899900D01*
G01X19400000Y25750000D02*
X19940600D01*
G01D02*
X20149800Y25540800D01*
Y25460600D01*
G01X18700000Y26450000D02*
Y26990600D01*
X18888200Y27178800D01*
G01X18700000Y26450000D02*
X19372300D01*
X19389300Y26433000D01*
X20967000D01*
X22000000Y25400000D01*
X22899900D01*
G01X18431600Y27647400D02*
X18933700D01*
X19251700Y27329400D01*
Y26948200D01*
X19499900Y26700000D01*
X21300000D01*
X21800000Y26200000D01*
X22899900D01*
G01X20200000Y31550000D02*
Y30567000D01*
X20567000Y30200000D01*
Y29417000D01*
X20930800Y29053200D01*
X23300000D01*
G01X25500000Y28740800D02*
X20559200D01*
X20320500Y28979500D01*
Y29310500D01*
X20300000Y29331000D01*
Y29500000D01*
X20100000Y29700000D01*
Y30196400D01*
X19700000Y30596400D01*
Y31550000D01*
G01X21200000D02*
Y30728200D01*
X20930800Y30459000D01*
G01X20700000Y31550000D02*
Y32102600D01*
G01X22400000Y34250000D02*
X21859400D01*
X21609400Y34000000D01*
X20000000D01*
G01X18290600D02*
X20000000D01*
G01Y32472000D02*
Y34000000D01*
G01D02*
Y35528000D01*
G01X20200000Y36450000D02*
Y37437800D01*
X20149800Y37488000D01*
G01X20700000Y36450000D02*
Y37718800D01*
X20462200Y37956600D01*
G01X21200000Y37128700D02*
X21000000Y37328700D01*
Y38300000D01*
X21199900Y38499900D01*
Y39200000D01*
G01X21200000Y36450000D02*
Y37128700D01*
G01X33408600Y35113600D02*
X33886400D01*
X34003900Y34996100D01*
Y34241000D01*
X33890600Y34127700D01*
X33578000D01*
X33350500Y33900200D01*
Y33549700D01*
X33599900Y33300000D01*
X35600000D01*
X36100000Y33800000D01*
X37449500D01*
X37799800Y34150300D01*
Y34299900D01*
X37800000Y34300100D01*
Y36100000D01*
X37400500Y36499500D01*
X37343400D01*
X37340500Y36500000D01*
X36600000D01*
X36300000Y36800000D01*
Y39200100D01*
X35700100Y39800000D01*
X23800000D01*
X22800000Y38800000D01*
Y37500000D01*
X22555700Y37255700D01*
X21327000D01*
X21200000Y37128700D01*
G01X19700000Y36450000D02*
Y37156800D01*
G01X18700000Y36450000D02*
Y37752800D01*
X18744000Y37796800D01*
Y38237500D01*
G01X21700000Y3550000D02*
Y2667200D01*
G01X27178800Y4686000D02*
X26600000D01*
X26392700Y4893300D01*
X26091000D01*
X25908500Y4710800D01*
X25510800D01*
X25200000Y4400000D01*
Y4100000D01*
X25000000Y3900000D01*
X24400000D01*
X24100000Y3600000D01*
Y2200000D01*
X24332200Y1967800D01*
X25929200D01*
G01X22400000Y4250000D02*
X22940600D01*
X23117600Y4427000D01*
Y4529800D01*
G01X21804000Y4750000D02*
X21711800Y4842200D01*
Y5602400D01*
X21859400Y5750000D01*
X22400000D01*
G01Y4750000D02*
X21804000D01*
G01X21790600Y6250000D02*
X21540600Y6000000D01*
G01X24300000Y7100000D02*
Y7490600D01*
X24130000Y7660600D01*
Y10683500D01*
X23883600Y10929900D01*
G01X22400000Y6250000D02*
X23450000D01*
G01X22400000D02*
X21790600D01*
G01X23450000D02*
X24300000Y7100000D01*
G01X21700000Y8450000D02*
Y9204000D01*
X22024200Y9528200D01*
G01X22492800Y10902500D02*
Y9840600D01*
G01X24200000Y13550000D02*
Y12194600D01*
G01X23883600Y10929900D02*
X23368000D01*
G01Y10501800D02*
Y10929900D01*
G01D02*
Y11358000D01*
G01X22200000Y13550000D02*
Y13009400D01*
X22225300Y12984100D01*
Y12252100D01*
X22240300Y12237100D01*
Y12155200D01*
X22492800Y11902700D01*
G01X21700000Y13550000D02*
Y12355200D01*
X21711800Y12343400D01*
Y11902700D01*
G01X22700000Y13550000D02*
Y12547000D01*
X22649000Y12496000D01*
G01X23200000Y12821600D02*
Y12098100D01*
X23368000Y11930100D01*
G01X23000000Y14472000D02*
Y16000000D01*
G01X23700000Y13550000D02*
Y12538400D01*
G01X24540600Y16000000D02*
X23000000D01*
G01X24790600Y16250000D02*
X24540600Y16000000D01*
G01X23000000D02*
Y17528000D01*
G01X22700000Y18450000D02*
Y18014000D01*
X22649000Y17963000D01*
G01X21700000Y18450000D02*
X21711800Y18461800D01*
Y19837400D01*
G01X22492800Y20430700D02*
X22300000Y20237900D01*
Y19846300D01*
X22285500Y19831800D01*
Y19530600D01*
X22300000Y19516100D01*
Y19090600D01*
X22200000Y18990600D01*
Y18450000D01*
G01X23700000D02*
Y20107400D01*
G01X22492800Y21430900D02*
Y22961400D01*
G01X21711800Y20430700D02*
Y19837400D01*
G01X24200000Y19769800D02*
Y20500100D01*
X24349000Y20649100D01*
X25050900D01*
X26142000Y19558000D01*
X26999200D01*
X27126200Y19685000D01*
X27566900D01*
G01Y20574000D02*
X26543000D01*
X26017000Y21100000D01*
X24148000D01*
X23700000Y20652000D01*
Y20107400D01*
G01X27566900Y21463000D02*
X23663000D01*
X23200000Y21000000D01*
Y19769800D01*
G01X23900100Y23197000D02*
Y23700000D01*
G01X23472000D02*
X23900100D01*
G01D02*
X24328200D01*
G01X23900100Y27800000D02*
Y28303000D01*
G01X23472000Y27800000D02*
X23900100D01*
G01D02*
X24328200D01*
G01X23472000Y26200000D02*
X23900100D01*
G01D02*
X24328200D01*
G01X23472000Y25400000D02*
X23900100D01*
G01D02*
X24328200D01*
G01X32489600Y30185000D02*
Y29365600D01*
X32177200Y29053200D01*
X27847600D01*
X27842400Y29048000D01*
X27090000D01*
X27084800Y29053200D01*
X23300000D01*
G01Y29599900D02*
Y29053200D01*
G01X23742400Y33114400D02*
Y31857700D01*
X24200000Y31400100D01*
G01X22180400Y30302800D02*
X21700000Y30783200D01*
Y31550000D01*
G01X24200000Y30399900D02*
X24274900D01*
X24863500Y30988500D01*
G01X23300000Y30172000D02*
Y30600100D01*
G01D02*
Y31028200D01*
G01X22797000Y30600100D02*
X23300000D01*
G01X24200000Y29971800D02*
Y30399900D01*
G01D02*
Y30828000D01*
G01X23742400Y33114400D02*
Y34757500D01*
X23249900Y35250000D01*
X22400000D01*
G01Y32250000D02*
X23190400D01*
G01X21711800Y32897600D02*
Y33602400D01*
X21859400Y33750000D01*
X22400000D01*
G01Y32750000D02*
X21859400D01*
X21711800Y32897600D01*
G01X22400000Y34250000D02*
X23050000D01*
G01D02*
X23300000Y34500000D01*
G01X24863500Y30988500D02*
Y33236500D01*
X24500100Y33599900D01*
G01D02*
Y35800000D01*
G01X23430000Y36707000D02*
Y37348900D01*
X23100000Y37678900D01*
Y38699900D01*
X23700100Y39300000D01*
X34599900D01*
X34988800Y38911100D01*
Y35113600D01*
G01X23399900Y36800000D02*
Y36737100D01*
X23430000Y36707000D01*
G01D02*
X23173000Y36450000D01*
X21700000D01*
G01X22400000Y35750000D02*
X23449900D01*
X23499900Y35800000D01*
G01X22400000Y35750000D02*
X22426200Y35776200D01*
X23623800D01*
X23900000Y35500000D01*
G01X23573000Y37702000D02*
X24400100Y36874900D01*
Y36800000D01*
G01X28300000Y36835400D02*
Y38600000D01*
X27900000Y39000000D01*
X23900000D01*
X23573000Y38673000D01*
Y37702000D01*
G01X23972000Y36800000D02*
X24400100D01*
G01D02*
X24828200D01*
G01X22200100Y39200000D02*
X22400000D01*
X22704000Y39504000D01*
G01D02*
X22768000D01*
G01X22200100Y38697000D02*
Y39200000D01*
G01D02*
Y39703000D01*
G01X21772000Y39200000D02*
X22200100D01*
G01X25929200Y2967800D02*
Y3669700D01*
X25915900Y3683000D01*
G01X25929200Y2967800D02*
X25067800D01*
G01X26397800Y2467800D02*
Y3164700D01*
X26916100Y3683000D01*
G01X25929200Y2467800D02*
X26397800D01*
G01D02*
X27629200D01*
G01Y2967800D02*
Y4235600D01*
X27178800Y4686000D01*
G01X25915900Y3683000D02*
Y4186000D01*
G01X25487800Y3683000D02*
X25915900D01*
G01D02*
X26344000D01*
G01X25900000Y6000000D02*
X26543000D01*
G01D02*
X27600000D01*
G01X26554000Y7466200D02*
Y6011000D01*
X26543000Y6000000D01*
G01X27000000Y12999200D02*
X25963800D01*
X25278300Y12313700D01*
Y11493900D01*
X25367000Y11405200D01*
Y6989400D01*
X25278300Y6900700D01*
Y5721700D01*
X25500000Y5500000D01*
X25900000D01*
G01Y6500000D02*
Y7000000D01*
G01X25908000Y8008900D02*
X25900000Y8000900D01*
Y7000000D01*
G01X26554000Y7466200D02*
Y8438000D01*
X25982900Y9009100D01*
X25908000D01*
G01X27600000Y6500000D02*
Y12399200D01*
X27000000Y12999200D01*
G01X35720100Y11770400D02*
Y12596000D01*
X35814000Y12689900D01*
Y13081000D01*
X35345000Y13550000D01*
X24700000D01*
G01D02*
Y12672600D01*
G01X26241600Y14682800D02*
Y14526600D01*
X25965000Y14250000D01*
X25400000D01*
G01X27000000Y15000000D02*
Y15300000D01*
X26550000Y15750000D01*
X25400000D01*
G01D02*
X24965800D01*
X24835800Y15620000D01*
Y14906200D01*
X24992000Y14750000D01*
X25400000D01*
G01Y16250000D02*
X24790600D01*
G01X27932100Y16891000D02*
Y16816100D01*
X27366000Y16250000D01*
G01D02*
X25400000D01*
G01X27504000Y16891000D02*
X27932100D01*
G01X26176600Y17250000D02*
X26572900D01*
X26931900Y16891000D01*
G01X26719800Y17750000D02*
X26876800Y17907000D01*
X27566900D01*
G01X24700000Y18450000D02*
X26780200D01*
X27126200Y18796000D01*
X27566900D01*
G01X24700000Y18450000D02*
Y20285600D01*
G01X25500000Y28100100D02*
Y28740800D01*
G01Y26671800D02*
Y27099900D01*
G01D02*
Y27528000D01*
G01X24997000Y27099900D02*
X25500000D01*
G01D02*
X26003000D01*
G01X25500000Y28740800D02*
X33583000D01*
X33895400Y29053200D01*
Y30337100D01*
X34142100Y30583800D01*
X34520200D01*
G01X26085400D02*
X27171800D01*
G01D02*
X27785400D01*
G01X27171800D02*
Y30153600D01*
G01X28897000Y34613600D02*
X28513600D01*
X28100300Y34200300D01*
Y31443200D01*
X28239000Y31304400D01*
Y29639000D01*
X28000000Y29400000D01*
X27485000D01*
X27390600Y29494400D01*
X27000000D01*
G01X27785400Y30083800D02*
Y29985400D01*
X27600000Y29800000D01*
G01X26085400Y31083800D02*
Y31708600D01*
G01X25719900Y31083800D02*
X26085400D01*
G01D02*
X26450900D01*
G01X26085400Y30083800D02*
X25054800D01*
G01X25355500Y32400000D02*
Y30834300D01*
X25054800Y30533600D01*
Y30083800D01*
G01X26085400Y31708600D02*
X26241600Y31864800D01*
G01X27785400Y35613600D02*
Y36978200D01*
X27658400Y37105200D01*
X25805200D01*
X25600000Y36900000D01*
Y35428700D01*
X25622500Y35406200D01*
Y34883800D01*
X25600000Y34861300D01*
Y34720900D01*
X25707300Y34613600D01*
X26085400D01*
G01D02*
X27085400D01*
X27178800Y34520200D01*
G01X27785400Y31083800D02*
Y32014600D01*
X27400000Y32400000D01*
X25355500D01*
G01D02*
Y34587800D01*
X25333000Y34610300D01*
Y34971900D01*
X25355500Y34994400D01*
Y35295600D01*
X25333000Y35318100D01*
Y36990800D01*
X24679600Y37644200D01*
G01X26085400Y35113600D02*
X26554000D01*
G01D02*
X26816900D01*
X26861600Y35068900D01*
X27183600D01*
X27228300Y35113600D01*
X27400000D01*
G01D02*
X27785400D01*
G01X27200100Y36500000D02*
Y35899900D01*
X27394400Y35705600D01*
Y35341800D01*
X27400000Y35336200D01*
Y35113600D01*
G01X26241600Y36394600D02*
X26000000Y36153000D01*
Y35699000D01*
X26085400Y35613600D01*
G01D02*
Y35979100D01*
G01Y35613600D02*
X26450900D01*
G01X26199900Y35997000D02*
Y36500000D01*
G01D02*
X26628000D01*
G01X30597000Y403000D02*
Y1967800D01*
G01Y403000D02*
X30600000Y400000D01*
G01X28897000Y3622900D02*
Y2967800D01*
G01Y2467800D02*
X29521800D01*
G01D02*
X30099000D01*
G01D02*
X30597000D01*
G01X29837100Y3683000D02*
Y3211600D01*
X30099000Y2949700D01*
Y2467800D01*
G01X29834200Y4686000D02*
X28928100D01*
X28750600Y4863500D01*
X28427000D01*
X28300000Y4736500D01*
Y4714100D01*
X28236500Y4650600D01*
Y4349400D01*
X28300000Y4285900D01*
Y2100000D01*
X28432200Y1967800D01*
X28897000D01*
G01X29834200Y4686000D02*
X29847200Y4699000D01*
X30353000D01*
X30597000Y4455000D01*
Y2967800D01*
G01X28836900Y3683000D02*
X28897000Y3622900D01*
G01D02*
Y4203000D01*
G01D02*
X28600000Y4500000D01*
G01X28836900Y3683000D02*
Y4186000D01*
G01Y3683000D02*
X29265000D01*
G01X28900000Y6000000D02*
X29400000D01*
G01D02*
X30600000D01*
G01X29365600Y7466200D02*
Y6034400D01*
X29400000Y6000000D01*
G01X29500000Y10499200D02*
X28152200D01*
X27940000Y10287000D01*
Y7747000D01*
X28343600Y7343400D01*
Y5678300D01*
X28521900Y5500000D01*
X28900000D01*
G01Y6500000D02*
Y7000000D01*
G01X28709900Y8128000D02*
X28623800Y8041900D01*
Y7276200D01*
G01D02*
X28900000Y7000000D01*
G01X28709900Y7625000D02*
Y8128000D01*
G01D02*
Y8631000D01*
G01X28281800Y8128000D02*
X28709900D01*
G01D02*
X29138000D01*
G01X29710100D02*
Y7810700D01*
X29365600Y7466200D01*
G01X30973800Y7999200D02*
X30300000D01*
G01X30600000Y6500000D02*
Y7300000D01*
G01X31280100Y11770400D02*
X29229600D01*
X28800000Y12200000D01*
G01X28139000Y18796000D02*
X28567100D01*
G01D02*
X28995200D01*
G01X28139000Y17907000D02*
X28567100D01*
G01D02*
X28995200D01*
G01X27932100Y16891000D02*
Y17394000D01*
G01X28567100Y21463000D02*
Y21966000D01*
G01X28139000Y21463000D02*
X28567100D01*
G01D02*
X28995200D01*
G01X28139000Y20574000D02*
X28567100D01*
G01D02*
X28995200D01*
G01X28139000Y19685000D02*
X28567100D01*
G01D02*
X28995200D01*
G01X31280100Y25229800D02*
X29249500D01*
X29000000Y25479300D01*
Y26000000D01*
X28500100Y26499900D01*
Y28000000D01*
G01D02*
X29000000D01*
G01X29521800Y30583800D02*
Y30185000D01*
G01X28897000Y30583800D02*
X29521800D01*
G01D02*
X30597000D01*
G01X31708600Y30083800D02*
X31330500D01*
X31083800Y30330500D01*
Y31316200D01*
X30695300Y31704700D01*
Y32853100D01*
X31242200Y33400000D01*
X32407300D01*
X32958200Y32849100D01*
Y31534200D01*
X33408600Y31083800D01*
G01X28897000D02*
Y31552400D01*
G01D02*
X28740800Y31708600D01*
G01X28897000Y30083800D02*
X28755400D01*
X28646400Y30192800D01*
X28625200D01*
X28506000Y30312000D01*
Y31415000D01*
X28367300Y31553800D01*
Y32272000D01*
X28740900Y32645600D01*
X28751800D01*
X28752000Y32645800D01*
X30146600D01*
X30274700Y32517700D01*
G01D02*
Y31406100D01*
X30597000Y31083800D01*
G01X37000000Y37976000D02*
X37484500D01*
X37611500Y38103000D01*
Y38117600D01*
X37839000Y38345100D01*
X38161000D01*
X38500000Y38006100D01*
Y32200000D01*
X37900000Y31600000D01*
X36300000D01*
X35500000Y32400000D01*
X33784900D01*
X32484900Y33700000D01*
X30599900D01*
X30274700Y33374800D01*
Y32517700D01*
G01X28897000Y35113600D02*
X29365600D01*
G01D02*
X29900000D01*
G01D02*
X30597000D01*
G01X29900100Y36500000D02*
Y35113700D01*
X29900000Y35113600D01*
G01X30597000Y35613600D02*
Y36797000D01*
X31400000Y37600000D01*
G01X31708600Y34613600D02*
X31330500D01*
X30988000Y34956100D01*
Y35885400D01*
X30864000Y36009400D01*
Y36411900D01*
X31079000Y36626900D01*
X31818000D01*
X32206500Y36238400D01*
X33161900D01*
X33408600Y35991700D01*
Y35613600D01*
G01X28897000D02*
Y36238400D01*
X28740800Y36394600D01*
G01D02*
X28300000Y36835400D01*
G01X28531500Y35613600D02*
X28897000D01*
G01D02*
X29262500D01*
G01X28899900Y35997000D02*
Y36500000D01*
G01D02*
X29328000D01*
G01X32512000Y2032000D02*
X32576200Y1967800D01*
X33408600D01*
G01X31708600Y2967800D02*
X32567800D01*
G01X31757900Y3683000D02*
Y3017100D01*
X31708600Y2967800D01*
G01Y2467800D02*
X32177200D01*
G01D02*
X33020000D01*
G01D02*
X33408600D01*
G01X33020000D02*
Y2693600D01*
X33017600Y2696000D01*
Y3067500D01*
X32758100Y3327000D01*
Y3683000D01*
G01X33408600Y2967800D02*
Y4191400D01*
X33200000Y4400000D01*
X31400000D01*
X31200000Y4200000D01*
Y2098300D01*
X31330500Y1967800D01*
X31708600D01*
G01D02*
Y790600D01*
X32000000Y499200D01*
G01X34364000Y1967800D02*
X34232200D01*
X34123200Y2076800D01*
X34092200D01*
X33973000Y2196000D01*
Y2227000D01*
X33900000Y2300000D01*
Y4456200D01*
X34051600Y4607800D01*
Y4998400D01*
G01X33765500Y5500000D02*
X33400000D01*
G01X31700000Y6000000D02*
X32100000D01*
G01D02*
X33400000D01*
G01X32177200Y7466200D02*
Y6077200D01*
X32100000Y6000000D01*
G01X33774100Y7747000D02*
Y6788700D01*
X33791000Y6771800D01*
Y6228200D01*
X33671800Y6109000D01*
X33615300D01*
X33506300Y6000000D01*
X33400000D01*
G01X31700000Y5500000D02*
X31556300D01*
X31447300Y5609000D01*
X31428200D01*
X31309000Y5728200D01*
Y7664000D01*
X30973800Y7999200D01*
G01X32566200Y7966200D02*
X31866200D01*
G01X31700000Y7800000D02*
Y6500000D01*
G01X31866200Y7966200D02*
X31700000Y7800000D01*
G01X38581400Y12339800D02*
Y10381400D01*
X38300000Y10100000D01*
X33354700D01*
X32485100Y9230400D01*
X31280100D01*
G01X30973800Y7999200D02*
X31366500Y8391900D01*
X33010100D01*
X33274000Y8128000D01*
Y7004100D01*
X33400000Y6878100D01*
Y6500000D01*
G01X32489600Y30583800D02*
Y30185000D01*
G01X31708600Y30583800D02*
X32489600D01*
G01D02*
X33408600D01*
G01X31708600Y30083800D02*
X31302800Y29678000D01*
X31240000D01*
G01X33739200Y31708600D02*
Y31679400D01*
X33866200Y31552400D01*
X34051600D01*
G01X31083800Y31708600D02*
X31708600Y31083800D01*
G01D02*
Y31449300D01*
G01Y31083800D02*
X32074100D01*
G01X34520200Y34613600D02*
Y34129600D01*
X34129800Y33739200D01*
X33739200D01*
G01X31708600Y34613600D02*
X32583000D01*
X32645800Y34676400D01*
G01X31083800Y32489600D02*
Y31708600D01*
G01X34051600Y31552400D02*
X34520200Y31083800D01*
G01X31708600Y35113600D02*
X32177200D01*
G01D02*
X33408600D01*
G01X34520200Y35613600D02*
X33739200Y36394600D01*
G01X31708600Y35613600D02*
X31240000Y36082200D01*
G01D02*
Y36238400D01*
G01X31708600Y35613600D02*
Y35979100D01*
G01X31343100Y35613600D02*
X31708600D01*
G01D02*
X32074100D01*
G01X36064000Y1967800D02*
X36638800D01*
X36830000Y2159000D01*
G01X34364000Y2967800D02*
X35132200D01*
G01X34424900Y3683000D02*
Y3028700D01*
X34364000Y2967800D01*
G01X35687000Y2467800D02*
Y2682000D01*
X35673000Y2696000D01*
Y2941100D01*
X35425100Y3189000D01*
Y3683000D01*
G01X34364000Y2467800D02*
X34832600D01*
G01D02*
X35687000D01*
G01D02*
X36064000D01*
G01X37000000Y2999200D02*
Y2967800D01*
X36064000D01*
G01X36100000Y5500000D02*
X36465500D01*
G01X34400000Y6000000D02*
X35179000D01*
G01D02*
X36100000D01*
G01X35179000D02*
Y6858000D01*
G01X34400000Y5500000D02*
X35000000Y4900000D01*
X36791400D01*
X37000000Y5108600D01*
Y5499200D01*
G01D02*
Y6200000D01*
X36700000Y6500000D01*
X36100000D01*
G01X36068000Y8120100D02*
X35945700Y8242400D01*
X35542400D01*
G01X34400000Y6500000D02*
Y7426900D01*
G01X35542400Y8242400D02*
X35266200Y7966200D01*
G01X34400000Y7426900D02*
X34939300Y7966200D01*
X35266200D01*
G01X36068000Y7692000D02*
Y8120100D01*
G01X35565000D02*
X36068000D01*
G01D02*
X36571000D01*
G01X35179000Y6858000D02*
X35440900Y7119900D01*
X36068000D01*
G01X34988800Y7466200D02*
Y7048200D01*
X35179000Y6858000D01*
G01X35720100Y25229800D02*
X34429800D01*
G01X35145000Y30028800D02*
Y30583800D01*
G01D02*
X36220200D01*
G01X34520200D02*
X35145000D01*
G01X36220200Y31083800D02*
X36707000D01*
X37331800Y30459000D01*
G01X34520200Y30083800D02*
X35604000Y29000000D01*
X37500000D01*
X37700000Y29200000D01*
Y30090800D01*
X37331800Y30459000D01*
G01X34520200Y31083800D02*
Y31449300D01*
G01X34154700Y31083800D02*
X34520200D01*
G01D02*
X34885700D01*
G01X37000000Y34494400D02*
Y34885000D01*
X37019400Y34904400D01*
Y35301200D01*
X36707000Y35613600D01*
X36220200D01*
G01Y35113600D02*
X34988800D01*
G01D02*
X34520200D01*
G01Y35613600D02*
Y35979100D01*
G01X34154700Y35613600D02*
X34520200D01*
G01X38581400Y12339800D02*
Y12804800D01*
X38737600Y12961000D01*
Y13401700D01*
G54D13*
X4406900Y9230400D03*
Y11770400D03*
Y25229800D03*
Y27769800D03*
X8846900Y9230400D03*
Y11770400D03*
Y25229800D03*
Y27769800D03*
X31280100Y9230400D03*
Y11770400D03*
Y25229800D03*
Y27769800D03*
X35720100Y9230400D03*
Y11770400D03*
Y25229800D03*
Y27769800D03*
G54D23*
G01X0Y-1400000D02*
X-2400000D01*
G01X-1200000Y-2600000D02*
Y-200000D01*
G01X-500000Y-1400000D02*
G03I-700000J0D01*
G01X-200000Y-1300000D02*
G03I-1000000J-100000D01*
G01X-1700000Y41300000D02*
G03I-1000000J-100000D01*
G01X-2000000Y41200000D02*
G03I-700000J0D01*
G01X-2700000Y40000000D02*
Y42400000D01*
G01X-1500000Y41200000D02*
X-3900000D01*
G01X39999900Y39999900D02*
X0D01*
Y0D01*
X39999900D01*
Y39999900D01*
G01X42300000Y-1300000D02*
X39900000D01*
G01X42100000Y-1200000D02*
G03I-1000000J-100000D01*
G01X41100000Y-2500000D02*
Y-100000D01*
G01X41800000Y-1300000D02*
G03I-700000J0D01*
G01X41700000Y40100000D02*
Y42500000D01*
G01X42400000Y41300000D02*
G03I-700000J0D01*
G01X42700000Y41400000D02*
G03I-1000000J-100000D01*
G01X42900000Y41300000D02*
X40500000D01*
G54D14*
X2699900Y16400000D03*
X3700100D03*
X11464500Y21555600D03*
Y23273800D03*
Y24992000D03*
Y25773000D03*
X14495100Y6248000D03*
X14338900Y3436400D03*
X14495100Y7185200D03*
Y7966200D03*
X12464700Y21555600D03*
Y23273800D03*
Y24992000D03*
X13152300Y28584600D03*
X12152100D03*
X12464700Y25773000D03*
X14799900Y31300000D03*
Y34400000D03*
X14807500Y35301200D03*
Y36082200D03*
X15495300Y6248000D03*
X15339100Y3436400D03*
X15495300Y7185200D03*
Y7966200D03*
X17619100Y15307600D03*
Y13589400D03*
Y17025800D03*
Y17806800D03*
X15800100Y31300000D03*
Y34400000D03*
X15807700Y35301200D03*
Y36082200D03*
X18619300Y15307600D03*
Y13589400D03*
Y17025800D03*
Y17806800D03*
X21199900Y39200000D03*
X23900100Y23700000D03*
X22899900D03*
X23900100Y24600000D03*
X22899900D03*
X23900100Y25400000D03*
X22899900D03*
X23900100Y26200000D03*
X22899900D03*
X23900100Y27000000D03*
X22899900D03*
X23900100Y27800000D03*
X22899900D03*
X24500100Y35800000D03*
X23499900D03*
X24400100Y36800000D03*
X23399900D03*
X22200100Y39200000D03*
X25915900Y3683000D03*
X26916100D03*
X26931900Y16891000D03*
X27566900Y17907000D03*
Y18796000D03*
Y19685000D03*
Y20574000D03*
Y21463000D03*
X27499900Y28000000D03*
X26199900Y36500000D03*
X27200100D03*
X28836900Y3683000D03*
X29837100D03*
X28709900Y8128000D03*
X29710100D03*
X27932100Y16891000D03*
X28567100Y17907000D03*
Y18796000D03*
Y19685000D03*
Y20574000D03*
Y21463000D03*
X28500100Y28000000D03*
X28899900Y36500000D03*
X29900100D03*
X31757900Y3683000D03*
X32758100D03*
X32773900Y7747000D03*
X33774100D03*
X34424900Y3683000D03*
X35425100D03*
G54D15*
X7700000Y22500000D03*
X8900000D03*
X10100000D03*
X14300000Y11700000D03*
X13100000D03*
X14200000Y33200000D03*
X15500000Y11700000D03*
X15400000Y33200000D03*
X16600000D03*
G54D16*
X13200000Y4800000D03*
Y6000000D03*
Y3600000D03*
G54D17*
X14500000Y22250000D03*
Y22750000D03*
Y23250000D03*
Y23750000D03*
Y24250000D03*
Y24750000D03*
Y25250000D03*
Y25750000D03*
X17500000Y4250000D03*
Y4750000D03*
Y5250000D03*
Y5750000D03*
Y6250000D03*
Y6750000D03*
Y7250000D03*
Y7750000D03*
Y32250000D03*
Y32750000D03*
Y33250000D03*
Y33750000D03*
Y34250000D03*
Y34750000D03*
Y35250000D03*
Y35750000D03*
X20500000Y14250000D03*
Y14750000D03*
Y15250000D03*
Y15750000D03*
Y16250000D03*
Y16750000D03*
Y17250000D03*
Y17750000D03*
X19400000Y25250000D03*
Y24750000D03*
Y24250000D03*
Y23750000D03*
Y23250000D03*
Y22750000D03*
Y22250000D03*
Y25750000D03*
X22400000Y6250000D03*
Y5750000D03*
Y5250000D03*
Y4750000D03*
Y4250000D03*
Y7750000D03*
Y7250000D03*
Y6750000D03*
Y34750000D03*
Y34250000D03*
Y33750000D03*
Y33250000D03*
Y32750000D03*
Y32250000D03*
Y35750000D03*
Y35250000D03*
X25400000Y15750000D03*
Y15250000D03*
Y14750000D03*
Y14250000D03*
Y17750000D03*
Y17250000D03*
Y16750000D03*
Y16250000D03*
G54D18*
X18200000Y3550000D03*
Y8450000D03*
Y21550000D03*
X17700000D03*
X17200000D03*
X16700000D03*
X16200000D03*
X15700000D03*
X15200000D03*
Y26450000D03*
X15700000D03*
X16200000D03*
X16700000D03*
X17200000D03*
X17700000D03*
X18200000D03*
Y31550000D03*
Y36450000D03*
X21200000Y3550000D03*
X20700000D03*
X20200000D03*
X19700000D03*
X19200000D03*
X18700000D03*
Y8450000D03*
X19200000D03*
X19700000D03*
X20200000D03*
X20700000D03*
X21200000D03*
Y13550000D03*
Y18450000D03*
X18700000Y21550000D03*
Y26450000D03*
X21200000Y31550000D03*
X20700000D03*
X20200000D03*
X19700000D03*
X19200000D03*
X18700000D03*
Y36450000D03*
X19200000D03*
X19700000D03*
X20200000D03*
X20700000D03*
X21200000D03*
X21700000Y3550000D03*
Y8450000D03*
X24200000Y13550000D03*
X23700000D03*
X23200000D03*
X22700000D03*
X22200000D03*
X21700000D03*
Y18450000D03*
X22200000D03*
X22700000D03*
X23200000D03*
X23700000D03*
X24200000D03*
X21700000Y31550000D03*
Y36450000D03*
X24700000Y13550000D03*
Y18450000D03*
G54D19*
X17000000Y24000000D03*
X20000000Y6000000D03*
Y34000000D03*
X23000000Y16000000D03*
M02*
