G04 (created by PCBNEW (2013-jul-07)-stable) date Mon 01 Feb 2016 05:31:18 PM PST*
%MOIN*%
G04 Gerber Fmt 3.4, Leading zero omitted, Abs format*
%FSLAX34Y34*%
G01*
G70*
G90*
G04 APERTURE LIST*
%ADD10C,0.00590551*%
%ADD11C,0.0059*%
%ADD12C,0.005*%
%ADD13C,0.006*%
%ADD14C,0.008*%
G04 APERTURE END LIST*
G54D10*
G54D11*
X50255Y-37403D02*
X50255Y-37108D01*
X50367Y-37108D01*
X50395Y-37122D01*
X50409Y-37136D01*
X50423Y-37164D01*
X50423Y-37206D01*
X50409Y-37234D01*
X50395Y-37248D01*
X50367Y-37262D01*
X50255Y-37262D01*
X50522Y-37108D02*
X50704Y-37108D01*
X50606Y-37220D01*
X50648Y-37220D01*
X50676Y-37234D01*
X50690Y-37248D01*
X50704Y-37276D01*
X50704Y-37347D01*
X50690Y-37375D01*
X50676Y-37389D01*
X50648Y-37403D01*
X50564Y-37403D01*
X50536Y-37389D01*
X50522Y-37375D01*
X40806Y-37481D02*
X40806Y-37186D01*
X40918Y-37186D01*
X40946Y-37200D01*
X40960Y-37214D01*
X40974Y-37242D01*
X40974Y-37284D01*
X40960Y-37312D01*
X40946Y-37326D01*
X40918Y-37340D01*
X40806Y-37340D01*
X41227Y-37284D02*
X41227Y-37481D01*
X41157Y-37172D02*
X41087Y-37383D01*
X41269Y-37383D01*
X41974Y-38150D02*
X41805Y-38150D01*
X41890Y-38150D02*
X41890Y-37855D01*
X41861Y-37897D01*
X41833Y-37925D01*
X41805Y-37939D01*
X51226Y-36733D02*
X51057Y-36733D01*
X51142Y-36733D02*
X51142Y-36438D01*
X51113Y-36480D01*
X51085Y-36508D01*
X51057Y-36522D01*
X41816Y-31024D02*
X41647Y-31024D01*
X41732Y-31024D02*
X41732Y-30729D01*
X41704Y-30772D01*
X41676Y-30800D01*
X41647Y-30814D01*
G54D12*
X50534Y-27998D02*
X51434Y-27998D01*
X51434Y-27998D02*
X51434Y-28498D01*
X51434Y-28498D02*
X50534Y-28498D01*
X50534Y-28498D02*
X50534Y-27998D01*
X39963Y-37781D02*
X40863Y-37781D01*
X40863Y-37781D02*
X40863Y-38281D01*
X40863Y-38281D02*
X39963Y-38281D01*
X39963Y-38281D02*
X39963Y-37781D01*
X40171Y-35691D02*
X40171Y-36591D01*
X40171Y-36591D02*
X39671Y-36591D01*
X39671Y-36591D02*
X39671Y-35691D01*
X39671Y-35691D02*
X40171Y-35691D01*
X40171Y-32542D02*
X40171Y-33442D01*
X40171Y-33442D02*
X39671Y-33442D01*
X39671Y-33442D02*
X39671Y-32542D01*
X39671Y-32542D02*
X40171Y-32542D01*
X51667Y-30809D02*
X51667Y-31709D01*
X51667Y-31709D02*
X51167Y-31709D01*
X51167Y-31709D02*
X51167Y-30809D01*
X51167Y-30809D02*
X51667Y-30809D01*
X40171Y-30494D02*
X40171Y-31394D01*
X40171Y-31394D02*
X39671Y-31394D01*
X39671Y-31394D02*
X39671Y-30494D01*
X39671Y-30494D02*
X40171Y-30494D01*
X51667Y-32542D02*
X51667Y-33442D01*
X51667Y-33442D02*
X51167Y-33442D01*
X51167Y-33442D02*
X51167Y-32542D01*
X51167Y-32542D02*
X51667Y-32542D01*
X51167Y-35410D02*
X51167Y-34510D01*
X51167Y-34510D02*
X51667Y-34510D01*
X51667Y-34510D02*
X51667Y-35410D01*
X51667Y-35410D02*
X51167Y-35410D01*
X41892Y-31383D02*
X42792Y-31383D01*
X42792Y-31383D02*
X42792Y-31883D01*
X42792Y-31883D02*
X41892Y-31883D01*
X41892Y-31883D02*
X41892Y-31383D01*
G54D13*
X47944Y-34751D02*
X47494Y-34751D01*
X47944Y-32571D02*
X47504Y-32571D01*
X47944Y-34751D02*
X47944Y-32571D01*
X47064Y-35221D02*
X47064Y-35651D01*
X44854Y-35231D02*
X44854Y-35651D01*
X44844Y-35651D02*
X47064Y-35661D01*
X44864Y-31681D02*
X47034Y-31671D01*
X44434Y-32371D02*
X44434Y-35201D01*
X47044Y-31681D02*
X47044Y-32091D01*
X44684Y-32131D02*
X47464Y-32131D01*
X47484Y-35211D02*
X47484Y-32171D01*
X44434Y-35211D02*
X47434Y-35211D01*
X43984Y-32541D02*
X43984Y-34761D01*
X43984Y-34761D02*
X44434Y-34761D01*
X44438Y-32361D02*
X44668Y-32131D01*
X43986Y-32541D02*
X44438Y-32541D01*
X44864Y-32131D02*
X44864Y-31679D01*
X45035Y-32535D02*
G75*
G03X45035Y-32535I-188J0D01*
G74*
G01*
G54D12*
X48447Y-35911D02*
X49347Y-35911D01*
X49347Y-35911D02*
X49347Y-36411D01*
X49347Y-36411D02*
X48447Y-36411D01*
X48447Y-36411D02*
X48447Y-35911D01*
X42812Y-33261D02*
X41912Y-33261D01*
X41912Y-33261D02*
X41912Y-32761D01*
X41912Y-32761D02*
X42812Y-32761D01*
X42812Y-32761D02*
X42812Y-33261D01*
G54D13*
X49568Y-29617D02*
X49568Y-30617D01*
X41768Y-29617D02*
X41768Y-30617D01*
X41768Y-29617D02*
X49568Y-29617D01*
X49568Y-30617D02*
X41768Y-30617D01*
X49568Y-36705D02*
X49568Y-37705D01*
X41768Y-36705D02*
X41768Y-37705D01*
X41768Y-36705D02*
X49568Y-36705D01*
X49568Y-37705D02*
X41768Y-37705D01*
G54D14*
X42775Y-34331D02*
X42775Y-35669D01*
X42775Y-35669D02*
X42067Y-35669D01*
X42067Y-35669D02*
X42067Y-34331D01*
X42067Y-34331D02*
X42775Y-34331D01*
G54D11*
X51014Y-27776D02*
X50915Y-27635D01*
X50845Y-27776D02*
X50845Y-27481D01*
X50957Y-27481D01*
X50985Y-27495D01*
X51000Y-27509D01*
X51014Y-27537D01*
X51014Y-27579D01*
X51000Y-27607D01*
X50985Y-27621D01*
X50957Y-27635D01*
X50845Y-27635D01*
X51154Y-27776D02*
X51210Y-27776D01*
X51238Y-27762D01*
X51252Y-27748D01*
X51280Y-27706D01*
X51295Y-27650D01*
X51295Y-27537D01*
X51280Y-27509D01*
X51266Y-27495D01*
X51238Y-27481D01*
X51182Y-27481D01*
X51154Y-27495D01*
X51140Y-27509D01*
X51126Y-27537D01*
X51126Y-27607D01*
X51140Y-27635D01*
X51154Y-27650D01*
X51182Y-27664D01*
X51238Y-27664D01*
X51266Y-27650D01*
X51280Y-27635D01*
X51295Y-27607D01*
X40364Y-37678D02*
X40265Y-37537D01*
X40195Y-37678D02*
X40195Y-37383D01*
X40308Y-37383D01*
X40336Y-37397D01*
X40350Y-37411D01*
X40364Y-37439D01*
X40364Y-37481D01*
X40350Y-37509D01*
X40336Y-37523D01*
X40308Y-37537D01*
X40195Y-37537D01*
X40532Y-37509D02*
X40504Y-37495D01*
X40490Y-37481D01*
X40476Y-37453D01*
X40476Y-37439D01*
X40490Y-37411D01*
X40504Y-37397D01*
X40532Y-37383D01*
X40588Y-37383D01*
X40617Y-37397D01*
X40631Y-37411D01*
X40645Y-37439D01*
X40645Y-37453D01*
X40631Y-37481D01*
X40617Y-37495D01*
X40588Y-37509D01*
X40532Y-37509D01*
X40504Y-37523D01*
X40490Y-37537D01*
X40476Y-37566D01*
X40476Y-37622D01*
X40490Y-37650D01*
X40504Y-37664D01*
X40532Y-37678D01*
X40588Y-37678D01*
X40617Y-37664D01*
X40631Y-37650D01*
X40645Y-37622D01*
X40645Y-37566D01*
X40631Y-37537D01*
X40617Y-37523D01*
X40588Y-37509D01*
X40060Y-35403D02*
X39919Y-35501D01*
X40060Y-35572D02*
X39765Y-35572D01*
X39765Y-35459D01*
X39779Y-35431D01*
X39793Y-35417D01*
X39821Y-35403D01*
X39863Y-35403D01*
X39891Y-35417D01*
X39905Y-35431D01*
X39919Y-35459D01*
X39919Y-35572D01*
X39765Y-35305D02*
X39765Y-35108D01*
X40060Y-35234D01*
X40060Y-32253D02*
X39919Y-32352D01*
X40060Y-32422D02*
X39765Y-32422D01*
X39765Y-32310D01*
X39779Y-32281D01*
X39793Y-32267D01*
X39821Y-32253D01*
X39863Y-32253D01*
X39891Y-32267D01*
X39905Y-32281D01*
X39919Y-32310D01*
X39919Y-32422D01*
X39765Y-32001D02*
X39765Y-32057D01*
X39779Y-32085D01*
X39793Y-32099D01*
X39835Y-32127D01*
X39891Y-32141D01*
X40004Y-32141D01*
X40032Y-32127D01*
X40046Y-32113D01*
X40060Y-32085D01*
X40060Y-32029D01*
X40046Y-32001D01*
X40032Y-31986D01*
X40004Y-31972D01*
X39933Y-31972D01*
X39905Y-31986D01*
X39891Y-32001D01*
X39877Y-32029D01*
X39877Y-32085D01*
X39891Y-32113D01*
X39905Y-32127D01*
X39933Y-32141D01*
X51368Y-30690D02*
X51269Y-30549D01*
X51199Y-30690D02*
X51199Y-30395D01*
X51311Y-30395D01*
X51340Y-30409D01*
X51354Y-30423D01*
X51368Y-30451D01*
X51368Y-30493D01*
X51354Y-30521D01*
X51340Y-30535D01*
X51311Y-30549D01*
X51199Y-30549D01*
X51635Y-30395D02*
X51494Y-30395D01*
X51480Y-30535D01*
X51494Y-30521D01*
X51522Y-30507D01*
X51592Y-30507D01*
X51621Y-30521D01*
X51635Y-30535D01*
X51649Y-30563D01*
X51649Y-30634D01*
X51635Y-30662D01*
X51621Y-30676D01*
X51592Y-30690D01*
X51522Y-30690D01*
X51494Y-30676D01*
X51480Y-30662D01*
X40080Y-30206D02*
X39939Y-30304D01*
X40080Y-30375D02*
X39785Y-30375D01*
X39785Y-30262D01*
X39799Y-30234D01*
X39813Y-30220D01*
X39841Y-30206D01*
X39883Y-30206D01*
X39911Y-30220D01*
X39925Y-30234D01*
X39939Y-30262D01*
X39939Y-30375D01*
X39883Y-29953D02*
X40080Y-29953D01*
X39770Y-30024D02*
X39981Y-30094D01*
X39981Y-29911D01*
X51368Y-32422D02*
X51269Y-32282D01*
X51199Y-32422D02*
X51199Y-32127D01*
X51311Y-32127D01*
X51340Y-32141D01*
X51354Y-32155D01*
X51368Y-32183D01*
X51368Y-32225D01*
X51354Y-32253D01*
X51340Y-32268D01*
X51311Y-32282D01*
X51199Y-32282D01*
X51466Y-32127D02*
X51649Y-32127D01*
X51550Y-32239D01*
X51592Y-32239D01*
X51621Y-32253D01*
X51635Y-32268D01*
X51649Y-32296D01*
X51649Y-32366D01*
X51635Y-32394D01*
X51621Y-32408D01*
X51592Y-32422D01*
X51508Y-32422D01*
X51480Y-32408D01*
X51466Y-32394D01*
X51368Y-34391D02*
X51269Y-34250D01*
X51199Y-34391D02*
X51199Y-34096D01*
X51311Y-34096D01*
X51340Y-34110D01*
X51354Y-34124D01*
X51368Y-34152D01*
X51368Y-34194D01*
X51354Y-34222D01*
X51340Y-34236D01*
X51311Y-34250D01*
X51199Y-34250D01*
X51480Y-34124D02*
X51494Y-34110D01*
X51522Y-34096D01*
X51592Y-34096D01*
X51621Y-34110D01*
X51635Y-34124D01*
X51649Y-34152D01*
X51649Y-34180D01*
X51635Y-34222D01*
X51466Y-34391D01*
X51649Y-34391D01*
X42293Y-31241D02*
X42195Y-31100D01*
X42124Y-31241D02*
X42124Y-30946D01*
X42237Y-30946D01*
X42265Y-30960D01*
X42279Y-30974D01*
X42293Y-31002D01*
X42293Y-31044D01*
X42279Y-31072D01*
X42265Y-31086D01*
X42237Y-31100D01*
X42124Y-31100D01*
X42574Y-31241D02*
X42405Y-31241D01*
X42490Y-31241D02*
X42490Y-30946D01*
X42461Y-30988D01*
X42433Y-31016D01*
X42405Y-31030D01*
X43904Y-32008D02*
X43904Y-31713D01*
X44213Y-31980D02*
X44199Y-31994D01*
X44157Y-32008D01*
X44129Y-32008D01*
X44087Y-31994D01*
X44059Y-31966D01*
X44045Y-31938D01*
X44031Y-31882D01*
X44031Y-31840D01*
X44045Y-31784D01*
X44059Y-31755D01*
X44087Y-31727D01*
X44129Y-31713D01*
X44157Y-31713D01*
X44199Y-31727D01*
X44213Y-31741D01*
X44494Y-32008D02*
X44326Y-32008D01*
X44410Y-32008D02*
X44410Y-31713D01*
X44382Y-31755D01*
X44354Y-31784D01*
X44326Y-31798D01*
X48280Y-36249D02*
X48294Y-36264D01*
X48308Y-36306D01*
X48308Y-36334D01*
X48294Y-36376D01*
X48266Y-36404D01*
X48238Y-36418D01*
X48181Y-36432D01*
X48139Y-36432D01*
X48083Y-36418D01*
X48055Y-36404D01*
X48027Y-36376D01*
X48013Y-36334D01*
X48013Y-36306D01*
X48027Y-36264D01*
X48041Y-36249D01*
X48041Y-36137D02*
X48027Y-36123D01*
X48013Y-36095D01*
X48013Y-36025D01*
X48027Y-35997D01*
X48041Y-35983D01*
X48069Y-35969D01*
X48097Y-35969D01*
X48139Y-35983D01*
X48308Y-36151D01*
X48308Y-35969D01*
X42313Y-32610D02*
X42298Y-32625D01*
X42256Y-32639D01*
X42228Y-32639D01*
X42186Y-32625D01*
X42158Y-32596D01*
X42144Y-32568D01*
X42130Y-32512D01*
X42130Y-32470D01*
X42144Y-32414D01*
X42158Y-32386D01*
X42186Y-32358D01*
X42228Y-32344D01*
X42256Y-32344D01*
X42298Y-32358D01*
X42313Y-32372D01*
X42593Y-32639D02*
X42425Y-32639D01*
X42509Y-32639D02*
X42509Y-32344D01*
X42481Y-32386D01*
X42453Y-32414D01*
X42425Y-32428D01*
X42841Y-29363D02*
X42841Y-29068D01*
X42953Y-29068D01*
X42981Y-29082D01*
X42995Y-29096D01*
X43009Y-29124D01*
X43009Y-29166D01*
X42995Y-29194D01*
X42981Y-29208D01*
X42953Y-29222D01*
X42841Y-29222D01*
X43290Y-29363D02*
X43122Y-29363D01*
X43206Y-29363D02*
X43206Y-29068D01*
X43178Y-29110D01*
X43150Y-29138D01*
X43122Y-29152D01*
X42538Y-38150D02*
X42538Y-37855D01*
X42650Y-37855D01*
X42678Y-37869D01*
X42692Y-37883D01*
X42706Y-37911D01*
X42706Y-37953D01*
X42692Y-37981D01*
X42678Y-37995D01*
X42650Y-38009D01*
X42538Y-38009D01*
X42819Y-37883D02*
X42833Y-37869D01*
X42861Y-37855D01*
X42931Y-37855D01*
X42959Y-37869D01*
X42973Y-37883D01*
X42987Y-37911D01*
X42987Y-37939D01*
X42973Y-37981D01*
X42805Y-38150D01*
X42987Y-38150D01*
X42202Y-33918D02*
X42398Y-34213D01*
X42398Y-33918D02*
X42202Y-34213D01*
X42665Y-34213D02*
X42497Y-34213D01*
X42581Y-34213D02*
X42581Y-33918D01*
X42553Y-33961D01*
X42525Y-33989D01*
X42497Y-34003D01*
M02*
