G04 (created by PCBNEW (2013-jul-07)-stable) date Mon 01 Feb 2016 05:31:18 PM PST*
%MOIN*%
G04 Gerber Fmt 3.4, Leading zero omitted, Abs format*
%FSLAX34Y34*%
G01*
G70*
G90*
G04 APERTURE LIST*
%ADD10C,0.00590551*%
%ADD11R,0.045X0.065*%
%ADD12R,0.065X0.045*%
%ADD13R,0.0987X0.0377*%
%ADD14R,0.0377X0.0987*%
%ADD15C,0.08*%
%ADD16R,0.08X0.08*%
%ADD17R,0.0712X0.0397*%
G04 APERTURE END LIST*
G54D10*
G54D11*
X50684Y-28248D03*
X51284Y-28248D03*
X40113Y-38031D03*
X40713Y-38031D03*
G54D12*
X39921Y-35841D03*
X39921Y-36441D03*
X39921Y-32692D03*
X39921Y-33292D03*
X51417Y-30959D03*
X51417Y-31559D03*
X39921Y-30644D03*
X39921Y-31244D03*
X51417Y-32692D03*
X51417Y-33292D03*
X51417Y-35260D03*
X51417Y-34660D03*
G54D11*
X42042Y-31633D03*
X42642Y-31633D03*
G54D13*
X44068Y-34754D03*
X44068Y-34439D03*
X44068Y-34124D03*
X44068Y-33809D03*
X44068Y-33494D03*
X44068Y-33179D03*
X44068Y-32864D03*
X44068Y-32549D03*
X47834Y-32551D03*
X47834Y-34761D03*
X47834Y-34441D03*
X47834Y-34121D03*
X47834Y-33811D03*
X47834Y-33491D03*
X47834Y-33181D03*
X47834Y-32861D03*
G54D14*
X44852Y-31761D03*
X45166Y-31761D03*
X45482Y-31761D03*
X45796Y-31761D03*
X46112Y-31761D03*
X46426Y-31761D03*
X46742Y-31761D03*
X47056Y-31761D03*
X44854Y-35541D03*
X45164Y-35541D03*
X45484Y-35541D03*
X45794Y-35541D03*
X46104Y-35541D03*
X46424Y-35541D03*
X46744Y-35541D03*
X47064Y-35541D03*
G54D15*
X40944Y-29569D03*
X40944Y-30569D03*
X40944Y-31569D03*
X40944Y-32569D03*
X40944Y-33569D03*
X40944Y-34569D03*
X40944Y-35569D03*
X40944Y-36569D03*
G54D16*
X50393Y-36569D03*
G54D15*
X50393Y-35569D03*
X50393Y-34569D03*
X50393Y-33569D03*
X50393Y-32569D03*
X50393Y-31569D03*
X50393Y-30569D03*
X50393Y-29569D03*
G54D11*
X48597Y-36161D03*
X49197Y-36161D03*
X42662Y-33011D03*
X42062Y-33011D03*
G54D16*
X42168Y-30117D03*
G54D15*
X43168Y-30117D03*
X44168Y-30117D03*
X45168Y-30117D03*
X46168Y-30117D03*
X47168Y-30117D03*
X48168Y-30117D03*
X49168Y-30117D03*
G54D16*
X42168Y-37205D03*
G54D15*
X43168Y-37205D03*
X44168Y-37205D03*
X45168Y-37205D03*
X46168Y-37205D03*
X47168Y-37205D03*
X48168Y-37205D03*
X49168Y-37205D03*
G54D17*
X42421Y-35000D03*
X42421Y-35472D03*
X42421Y-34528D03*
M02*
