G04 (created by PCBNEW (2013-jul-07)-stable) date Mon 01 Feb 2016 05:31:18 PM PST*
%MOIN*%
G04 Gerber Fmt 3.4, Leading zero omitted, Abs format*
%FSLAX34Y34*%
G01*
G70*
G90*
G04 APERTURE LIST*
%ADD10C,0.00590551*%
%ADD11C,0.06*%
%ADD12R,0.06X0.06*%
%ADD13C,0.035*%
%ADD14C,0.025*%
%ADD15C,0.016*%
%ADD16C,0.008*%
G04 APERTURE END LIST*
G54D10*
G54D11*
X40944Y-29569D03*
X40944Y-30569D03*
X40944Y-31569D03*
X40944Y-32569D03*
X40944Y-33569D03*
X40944Y-34569D03*
X40944Y-35569D03*
X40944Y-36569D03*
G54D12*
X50393Y-36569D03*
G54D11*
X50393Y-35569D03*
X50393Y-34569D03*
X50393Y-33569D03*
X50393Y-32569D03*
X50393Y-31569D03*
X50393Y-30569D03*
X50393Y-29569D03*
G54D12*
X42168Y-30117D03*
G54D11*
X43168Y-30117D03*
X44168Y-30117D03*
X45168Y-30117D03*
X46168Y-30117D03*
X47168Y-30117D03*
X48168Y-30117D03*
X49168Y-30117D03*
G54D12*
X42168Y-37205D03*
G54D11*
X43168Y-37205D03*
X44168Y-37205D03*
X45168Y-37205D03*
X46168Y-37205D03*
X47168Y-37205D03*
X48168Y-37205D03*
X49168Y-37205D03*
G54D13*
X43388Y-33913D03*
X47411Y-32094D03*
X48533Y-32498D03*
X44909Y-34525D03*
X44306Y-35121D03*
X42638Y-30875D03*
X46716Y-32938D03*
X44233Y-35824D03*
X45278Y-36384D03*
X42914Y-36107D03*
G54D14*
X49507Y-36866D02*
X49168Y-37205D01*
X49507Y-30807D02*
X49507Y-36866D01*
X49168Y-30468D02*
X49507Y-30807D01*
X49168Y-30117D02*
X49168Y-30468D01*
G54D15*
X46668Y-30633D02*
X43388Y-33913D01*
X46668Y-29924D02*
X46668Y-30633D01*
X46982Y-29610D02*
X46668Y-29924D01*
X48661Y-29610D02*
X46982Y-29610D01*
X49168Y-30117D02*
X48661Y-29610D01*
G54D16*
X47120Y-32094D02*
X47411Y-32094D01*
X45665Y-33549D02*
X47120Y-32094D01*
X45665Y-34849D02*
X45665Y-33549D01*
X44168Y-36346D02*
X45665Y-34849D01*
X44168Y-37205D02*
X44168Y-36346D01*
X48533Y-35840D02*
X48533Y-32498D01*
X47168Y-37205D02*
X48533Y-35840D01*
X44313Y-35121D02*
X44306Y-35121D01*
X44909Y-34525D02*
X44313Y-35121D01*
X42638Y-29770D02*
X42638Y-30875D01*
X42555Y-29687D02*
X42638Y-29770D01*
X41790Y-29687D02*
X42555Y-29687D01*
X41549Y-29928D02*
X41790Y-29687D01*
X41549Y-33964D02*
X41549Y-29928D01*
X40944Y-34569D02*
X41549Y-33964D01*
X50393Y-36569D02*
X50393Y-36999D01*
X46716Y-37361D02*
X46716Y-32938D01*
X47013Y-37658D02*
X46716Y-37361D01*
X49734Y-37658D02*
X47013Y-37658D01*
X50393Y-36999D02*
X49734Y-37658D01*
X42168Y-37205D02*
X42168Y-30117D01*
X43052Y-34643D02*
X44233Y-35824D01*
X43052Y-33779D02*
X43052Y-34643D01*
X45668Y-31163D02*
X43052Y-33779D01*
X45668Y-29984D02*
X45668Y-31163D01*
X46264Y-29388D02*
X45668Y-29984D01*
X49213Y-29388D02*
X46264Y-29388D01*
X50393Y-30569D02*
X49213Y-29388D01*
X45628Y-36733D02*
X45278Y-36384D01*
X45628Y-37278D02*
X45628Y-36733D01*
X46177Y-37828D02*
X45628Y-37278D01*
X49922Y-37828D02*
X46177Y-37828D01*
X50824Y-36926D02*
X49922Y-37828D01*
X50824Y-32999D02*
X50824Y-36926D01*
X50393Y-32569D02*
X50824Y-32999D01*
X42609Y-36645D02*
X43168Y-37205D01*
X42609Y-31335D02*
X42609Y-36645D01*
X43168Y-30775D02*
X42609Y-31335D01*
X43168Y-30117D02*
X43168Y-30775D01*
X43738Y-36931D02*
X42914Y-36107D01*
X43738Y-37389D02*
X43738Y-36931D01*
X43984Y-37635D02*
X43738Y-37389D01*
X44738Y-37635D02*
X43984Y-37635D01*
X45168Y-37205D02*
X44738Y-37635D01*
G54D14*
X49015Y-30964D02*
X48168Y-30117D01*
X49015Y-36023D02*
X49015Y-30964D01*
X48168Y-36870D02*
X49015Y-36023D01*
X48168Y-37205D02*
X48168Y-36870D01*
M02*
