M48
;DRILL file {Pcbnew (2013-jul-07)-stable} date Mon 01 Feb 2016 05:31:34 PM PST
;FORMAT={-:-/ absolute / inch / decimal}
FMAT,2
INCH,TZ
T1C0.025
T2C0.040
%
G90
G05
M72
T1
X4.2638Y-3.0875
X4.2915Y-3.6107
X4.3388Y-3.3914
X4.4234Y-3.5824
X4.4307Y-3.5122
X4.491Y-3.4525
X4.5278Y-3.6384
X4.6716Y-3.2939
X4.7412Y-3.2094
X4.8534Y-3.2499
T2
X4.0945Y-2.9569
X4.0945Y-3.0569
X4.0945Y-3.1569
X4.0945Y-3.2569
X4.0945Y-3.3569
X4.0945Y-3.4569
X4.0945Y-3.5569
X4.0945Y-3.6569
X4.2169Y-3.0118
X4.2169Y-3.7205
X4.3169Y-3.0118
X4.3169Y-3.7205
X4.4169Y-3.0118
X4.4169Y-3.7205
X4.5169Y-3.0118
X4.5169Y-3.7205
X4.6169Y-3.0118
X4.6169Y-3.7205
X4.7169Y-3.0118
X4.7169Y-3.7205
X4.8169Y-3.0118
X4.8169Y-3.7205
X4.9169Y-3.0118
X4.9169Y-3.7205
X5.0394Y-2.9569
X5.0394Y-3.0569
X5.0394Y-3.1569
X5.0394Y-3.2569
X5.0394Y-3.3569
X5.0394Y-3.4569
X5.0394Y-3.5569
X5.0394Y-3.6569
T0
M30
