G04 (created by PCBNEW (2013-jul-07)-stable) date Mon 01 Feb 2016 05:31:18 PM PST*
%MOIN*%
G04 Gerber Fmt 3.4, Leading zero omitted, Abs format*
%FSLAX34Y34*%
G01*
G70*
G90*
G04 APERTURE LIST*
%ADD10C,0.00590551*%
%ADD11C,0.008*%
%ADD12C,0.0079*%
G04 APERTURE END LIST*
G54D10*
G54D11*
X51626Y-26927D02*
X51397Y-26927D01*
X51511Y-27327D02*
X51511Y-26927D01*
X51188Y-26927D02*
X51111Y-26927D01*
X51073Y-26946D01*
X51035Y-26984D01*
X51016Y-27060D01*
X51016Y-27193D01*
X51035Y-27270D01*
X51073Y-27308D01*
X51111Y-27327D01*
X51188Y-27327D01*
X51226Y-27308D01*
X51264Y-27270D01*
X51283Y-27193D01*
X51283Y-27060D01*
X51264Y-26984D01*
X51226Y-26946D01*
X51188Y-26927D01*
X50845Y-27327D02*
X50845Y-26927D01*
X50692Y-26927D01*
X50654Y-26946D01*
X50635Y-26965D01*
X50616Y-27003D01*
X50616Y-27060D01*
X50635Y-27098D01*
X50654Y-27117D01*
X50692Y-27136D01*
X50845Y-27136D01*
G54D12*
X47757Y-27433D02*
X47888Y-27433D01*
X47888Y-27639D02*
X47888Y-27245D01*
X47700Y-27245D01*
X47494Y-27639D02*
X47532Y-27621D01*
X47550Y-27583D01*
X47550Y-27245D01*
X47382Y-27377D02*
X47288Y-27639D01*
X47194Y-27377D02*
X47288Y-27639D01*
X47325Y-27733D01*
X47344Y-27752D01*
X47382Y-27771D01*
X47044Y-27377D02*
X47044Y-27771D01*
X47044Y-27395D02*
X47006Y-27377D01*
X46931Y-27377D01*
X46894Y-27395D01*
X46875Y-27414D01*
X46856Y-27452D01*
X46856Y-27564D01*
X46875Y-27602D01*
X46894Y-27621D01*
X46931Y-27639D01*
X47006Y-27639D01*
X47044Y-27621D01*
X46518Y-27639D02*
X46518Y-27433D01*
X46537Y-27395D01*
X46575Y-27377D01*
X46650Y-27377D01*
X46687Y-27395D01*
X46518Y-27621D02*
X46556Y-27639D01*
X46650Y-27639D01*
X46687Y-27621D01*
X46706Y-27583D01*
X46706Y-27545D01*
X46687Y-27508D01*
X46650Y-27489D01*
X46556Y-27489D01*
X46518Y-27470D01*
X46331Y-27377D02*
X46331Y-27639D01*
X46331Y-27414D02*
X46312Y-27395D01*
X46275Y-27377D01*
X46218Y-27377D01*
X46181Y-27395D01*
X46162Y-27433D01*
X46162Y-27639D01*
X45824Y-27621D02*
X45862Y-27639D01*
X45937Y-27639D01*
X45974Y-27621D01*
X45993Y-27583D01*
X45993Y-27433D01*
X45974Y-27395D01*
X45937Y-27377D01*
X45862Y-27377D01*
X45824Y-27395D01*
X45806Y-27433D01*
X45806Y-27470D01*
X45993Y-27508D01*
X45580Y-27639D02*
X45618Y-27621D01*
X45637Y-27583D01*
X45637Y-27245D01*
X45168Y-27377D02*
X45074Y-27639D01*
X44980Y-27377D01*
X44849Y-27283D02*
X44830Y-27264D01*
X44792Y-27245D01*
X44699Y-27245D01*
X44661Y-27264D01*
X44642Y-27283D01*
X44624Y-27320D01*
X44624Y-27358D01*
X44642Y-27414D01*
X44867Y-27639D01*
X44624Y-27639D01*
X44455Y-27602D02*
X44436Y-27621D01*
X44455Y-27639D01*
X44473Y-27621D01*
X44455Y-27602D01*
X44455Y-27639D01*
X44192Y-27245D02*
X44154Y-27245D01*
X44117Y-27264D01*
X44098Y-27283D01*
X44079Y-27320D01*
X44061Y-27395D01*
X44061Y-27489D01*
X44079Y-27564D01*
X44098Y-27602D01*
X44117Y-27621D01*
X44154Y-27639D01*
X44192Y-27639D01*
X44230Y-27621D01*
X44248Y-27602D01*
X44267Y-27564D01*
X44286Y-27489D01*
X44286Y-27395D01*
X44267Y-27320D01*
X44248Y-27283D01*
X44230Y-27264D01*
X44192Y-27245D01*
X48442Y-28007D02*
X48367Y-28270D01*
X48291Y-28082D01*
X48216Y-28270D01*
X48141Y-28007D01*
X48029Y-28007D02*
X47954Y-28270D01*
X47879Y-28082D01*
X47804Y-28270D01*
X47729Y-28007D01*
X47616Y-28007D02*
X47541Y-28270D01*
X47466Y-28082D01*
X47391Y-28270D01*
X47316Y-28007D01*
X47166Y-28232D02*
X47147Y-28251D01*
X47166Y-28270D01*
X47185Y-28251D01*
X47166Y-28232D01*
X47166Y-28270D01*
X46978Y-28270D02*
X46978Y-28007D01*
X46978Y-27876D02*
X46997Y-27895D01*
X46978Y-27913D01*
X46959Y-27895D01*
X46978Y-27876D01*
X46978Y-27913D01*
X46734Y-28270D02*
X46772Y-28251D01*
X46791Y-28232D01*
X46809Y-28195D01*
X46809Y-28082D01*
X46791Y-28045D01*
X46772Y-28026D01*
X46734Y-28007D01*
X46678Y-28007D01*
X46640Y-28026D01*
X46622Y-28045D01*
X46603Y-28082D01*
X46603Y-28195D01*
X46622Y-28232D01*
X46640Y-28251D01*
X46678Y-28270D01*
X46734Y-28270D01*
X46434Y-28270D02*
X46434Y-28007D01*
X46434Y-28082D02*
X46415Y-28045D01*
X46397Y-28026D01*
X46359Y-28007D01*
X46321Y-28007D01*
X46134Y-28270D02*
X46171Y-28251D01*
X46190Y-28232D01*
X46209Y-28195D01*
X46209Y-28082D01*
X46190Y-28045D01*
X46171Y-28026D01*
X46134Y-28007D01*
X46078Y-28007D01*
X46040Y-28026D01*
X46021Y-28045D01*
X46003Y-28082D01*
X46003Y-28195D01*
X46021Y-28232D01*
X46040Y-28251D01*
X46078Y-28270D01*
X46134Y-28270D01*
X45665Y-28270D02*
X45665Y-27876D01*
X45665Y-28251D02*
X45702Y-28270D01*
X45777Y-28270D01*
X45815Y-28251D01*
X45834Y-28232D01*
X45852Y-28195D01*
X45852Y-28082D01*
X45834Y-28045D01*
X45815Y-28026D01*
X45777Y-28007D01*
X45702Y-28007D01*
X45665Y-28026D01*
X45327Y-28251D02*
X45365Y-28270D01*
X45440Y-28270D01*
X45477Y-28251D01*
X45496Y-28214D01*
X45496Y-28064D01*
X45477Y-28026D01*
X45440Y-28007D01*
X45365Y-28007D01*
X45327Y-28026D01*
X45308Y-28064D01*
X45308Y-28101D01*
X45496Y-28139D01*
X45083Y-28270D02*
X45121Y-28251D01*
X45139Y-28232D01*
X45158Y-28195D01*
X45158Y-28082D01*
X45139Y-28045D01*
X45121Y-28026D01*
X45083Y-28007D01*
X45027Y-28007D01*
X44989Y-28026D01*
X44971Y-28045D01*
X44952Y-28082D01*
X44952Y-28195D01*
X44971Y-28232D01*
X44989Y-28251D01*
X45027Y-28270D01*
X45083Y-28270D01*
X44783Y-28232D02*
X44764Y-28251D01*
X44783Y-28270D01*
X44802Y-28251D01*
X44783Y-28232D01*
X44783Y-28270D01*
X44427Y-28251D02*
X44464Y-28270D01*
X44539Y-28270D01*
X44577Y-28251D01*
X44595Y-28232D01*
X44614Y-28195D01*
X44614Y-28082D01*
X44595Y-28045D01*
X44577Y-28026D01*
X44539Y-28007D01*
X44464Y-28007D01*
X44427Y-28026D01*
X44201Y-28270D02*
X44239Y-28251D01*
X44258Y-28232D01*
X44276Y-28195D01*
X44276Y-28082D01*
X44258Y-28045D01*
X44239Y-28026D01*
X44201Y-28007D01*
X44145Y-28007D01*
X44108Y-28026D01*
X44089Y-28045D01*
X44070Y-28082D01*
X44070Y-28195D01*
X44089Y-28232D01*
X44108Y-28251D01*
X44145Y-28270D01*
X44201Y-28270D01*
X43901Y-28270D02*
X43901Y-28007D01*
X43901Y-28045D02*
X43882Y-28026D01*
X43845Y-28007D01*
X43789Y-28007D01*
X43751Y-28026D01*
X43732Y-28064D01*
X43732Y-28270D01*
X43732Y-28064D02*
X43714Y-28026D01*
X43676Y-28007D01*
X43620Y-28007D01*
X43582Y-28026D01*
X43563Y-28064D01*
X43563Y-28270D01*
M02*
