G04 (created by PCBNEW (2013-mar-13)-testing) date Tue 30 Sep 2014 12:27:09 PM PDT*
%MOIN*%
G04 Gerber Fmt 3.4, Leading zero omitted, Abs format*
%FSLAX34Y34*%
G01*
G70*
G90*
G04 APERTURE LIST*
%ADD10C,0.005906*%
%ADD11C,0.008000*%
%ADD12C,0.004700*%
%ADD13C,0.006000*%
%ADD14C,0.005000*%
%ADD15C,0.004500*%
G04 APERTURE END LIST*
G54D10*
G54D11*
X35283Y-35318D02*
X34933Y-35318D01*
X35283Y-35118D02*
X35083Y-35268D01*
X34933Y-35118D02*
X35133Y-35318D01*
X35083Y-34918D02*
X35066Y-34951D01*
X35050Y-34968D01*
X35016Y-34985D01*
X35000Y-34985D01*
X34966Y-34968D01*
X34950Y-34951D01*
X34933Y-34918D01*
X34933Y-34851D01*
X34950Y-34818D01*
X34966Y-34801D01*
X35000Y-34785D01*
X35016Y-34785D01*
X35050Y-34801D01*
X35066Y-34818D01*
X35083Y-34851D01*
X35083Y-34918D01*
X35100Y-34951D01*
X35116Y-34968D01*
X35150Y-34985D01*
X35216Y-34985D01*
X35250Y-34968D01*
X35266Y-34951D01*
X35283Y-34918D01*
X35283Y-34851D01*
X35266Y-34818D01*
X35250Y-34801D01*
X35216Y-34785D01*
X35150Y-34785D01*
X35116Y-34801D01*
X35100Y-34818D01*
X35083Y-34851D01*
X28063Y-35308D02*
X27713Y-35308D01*
X28063Y-35108D02*
X27863Y-35258D01*
X27713Y-35108D02*
X27913Y-35308D01*
X27713Y-34991D02*
X27713Y-34758D01*
X28063Y-34908D01*
X35293Y-20353D02*
X34943Y-20353D01*
X35293Y-20153D02*
X35093Y-20303D01*
X34943Y-20153D02*
X35143Y-20353D01*
X34943Y-19853D02*
X34943Y-19920D01*
X34960Y-19953D01*
X34976Y-19970D01*
X35026Y-20003D01*
X35093Y-20020D01*
X35226Y-20020D01*
X35260Y-20003D01*
X35276Y-19986D01*
X35293Y-19953D01*
X35293Y-19886D01*
X35276Y-19853D01*
X35260Y-19836D01*
X35226Y-19820D01*
X35143Y-19820D01*
X35110Y-19836D01*
X35093Y-19853D01*
X35076Y-19886D01*
X35076Y-19953D01*
X35093Y-19986D01*
X35110Y-20003D01*
X35143Y-20020D01*
X28058Y-20333D02*
X27708Y-20333D01*
X28058Y-20133D02*
X27858Y-20283D01*
X27708Y-20133D02*
X27908Y-20333D01*
X27708Y-19816D02*
X27708Y-19983D01*
X27875Y-20000D01*
X27858Y-19983D01*
X27841Y-19950D01*
X27841Y-19866D01*
X27858Y-19833D01*
X27875Y-19816D01*
X27908Y-19800D01*
X27991Y-19800D01*
X28025Y-19816D01*
X28041Y-19833D01*
X28058Y-19866D01*
X28058Y-19950D01*
X28041Y-19983D01*
X28025Y-20000D01*
X27423Y-35308D02*
X27073Y-35308D01*
X27423Y-35108D02*
X27223Y-35258D01*
X27073Y-35108D02*
X27273Y-35308D01*
X27190Y-34808D02*
X27423Y-34808D01*
X27056Y-34891D02*
X27306Y-34975D01*
X27306Y-34758D01*
X20163Y-35238D02*
X19813Y-35238D01*
X20163Y-35038D02*
X19963Y-35188D01*
X19813Y-35038D02*
X20013Y-35238D01*
X19813Y-34921D02*
X19813Y-34705D01*
X19946Y-34821D01*
X19946Y-34771D01*
X19963Y-34738D01*
X19980Y-34721D01*
X20013Y-34705D01*
X20096Y-34705D01*
X20130Y-34721D01*
X20146Y-34738D01*
X20163Y-34771D01*
X20163Y-34871D01*
X20146Y-34905D01*
X20130Y-34921D01*
X27388Y-20318D02*
X27038Y-20318D01*
X27388Y-20118D02*
X27188Y-20268D01*
X27038Y-20118D02*
X27238Y-20318D01*
X27071Y-19985D02*
X27055Y-19968D01*
X27038Y-19935D01*
X27038Y-19851D01*
X27055Y-19818D01*
X27071Y-19801D01*
X27105Y-19785D01*
X27138Y-19785D01*
X27188Y-19801D01*
X27388Y-20001D01*
X27388Y-19785D01*
X20158Y-20328D02*
X19808Y-20328D01*
X20158Y-20128D02*
X19958Y-20278D01*
X19808Y-20128D02*
X20008Y-20328D01*
X20158Y-19795D02*
X20158Y-19995D01*
X20158Y-19895D02*
X19808Y-19895D01*
X19858Y-19928D01*
X19891Y-19961D01*
X19908Y-19995D01*
G54D12*
X23484Y-25472D02*
X23484Y-25747D01*
X23484Y-25078D02*
X23484Y-24803D01*
X23996Y-25472D02*
X23996Y-25747D01*
X23996Y-24803D02*
X23996Y-25078D01*
X23990Y-25747D02*
X23490Y-25747D01*
X23490Y-24803D02*
X23990Y-24803D01*
G54D10*
X23622Y-19685D02*
X27559Y-19685D01*
X27559Y-19685D02*
X27559Y-27559D01*
X27559Y-27559D02*
X19685Y-27559D01*
X19685Y-27559D02*
X19685Y-19685D01*
X19685Y-19685D02*
X23818Y-19685D01*
X23622Y-27559D02*
X27559Y-27559D01*
X27559Y-27559D02*
X27559Y-35433D01*
X27559Y-35433D02*
X19685Y-35433D01*
X19685Y-35433D02*
X19685Y-27559D01*
X19685Y-27559D02*
X23818Y-27559D01*
X31496Y-19685D02*
X35433Y-19685D01*
X35433Y-19685D02*
X35433Y-27559D01*
X35433Y-27559D02*
X27559Y-27559D01*
X27559Y-27559D02*
X27559Y-19685D01*
X27559Y-19685D02*
X31692Y-19685D01*
X31496Y-27559D02*
X35433Y-27559D01*
X35433Y-27559D02*
X35433Y-35433D01*
X35433Y-35433D02*
X27559Y-35433D01*
X27559Y-35433D02*
X27559Y-27559D01*
X27559Y-27559D02*
X31692Y-27559D01*
G54D11*
X24370Y-24409D02*
X25708Y-24409D01*
X25708Y-24409D02*
X25708Y-25117D01*
X25708Y-25117D02*
X24370Y-25117D01*
X24370Y-25117D02*
X24370Y-24409D01*
X24606Y-30866D02*
X25944Y-30866D01*
X25944Y-30866D02*
X25944Y-31574D01*
X25944Y-31574D02*
X24606Y-31574D01*
X24606Y-31574D02*
X24606Y-30866D01*
X30236Y-24764D02*
X31574Y-24764D01*
X31574Y-24764D02*
X31574Y-25472D01*
X31574Y-25472D02*
X30236Y-25472D01*
X30236Y-25472D02*
X30236Y-24764D01*
X30315Y-30945D02*
X31653Y-30945D01*
X31653Y-30945D02*
X31653Y-31653D01*
X31653Y-31653D02*
X30315Y-31653D01*
X30315Y-31653D02*
X30315Y-30945D01*
G54D12*
X23484Y-31496D02*
X23484Y-31771D01*
X23484Y-31102D02*
X23484Y-30827D01*
X23996Y-31496D02*
X23996Y-31771D01*
X23996Y-30827D02*
X23996Y-31102D01*
X23990Y-31771D02*
X23490Y-31771D01*
X23490Y-30827D02*
X23990Y-30827D01*
G54D13*
X23012Y-23167D02*
X23012Y-21517D01*
X23012Y-21517D02*
X23012Y-21142D01*
X23012Y-21142D02*
X25412Y-21142D01*
X25412Y-21142D02*
X25412Y-23542D01*
X25412Y-23542D02*
X23387Y-23542D01*
X23387Y-23542D02*
X23012Y-23167D01*
X23012Y-29466D02*
X23012Y-27816D01*
X23012Y-27816D02*
X23012Y-27441D01*
X23012Y-27441D02*
X25412Y-27441D01*
X25412Y-27441D02*
X25412Y-29841D01*
X25412Y-29841D02*
X23387Y-29841D01*
X23387Y-29841D02*
X23012Y-29466D01*
X30099Y-23167D02*
X30099Y-21517D01*
X30099Y-21517D02*
X30099Y-21142D01*
X30099Y-21142D02*
X32499Y-21142D01*
X32499Y-21142D02*
X32499Y-23542D01*
X32499Y-23542D02*
X30474Y-23542D01*
X30474Y-23542D02*
X30099Y-23167D01*
X30099Y-29466D02*
X30099Y-27816D01*
X30099Y-27816D02*
X30099Y-27441D01*
X30099Y-27441D02*
X32499Y-27441D01*
X32499Y-27441D02*
X32499Y-29841D01*
X32499Y-29841D02*
X30474Y-29841D01*
X30474Y-29841D02*
X30099Y-29466D01*
G54D12*
X29074Y-24606D02*
X29074Y-24881D01*
X29074Y-24212D02*
X29074Y-23937D01*
X29586Y-24606D02*
X29586Y-24881D01*
X29586Y-23937D02*
X29586Y-24212D01*
X29580Y-24881D02*
X29080Y-24881D01*
X29080Y-23937D02*
X29580Y-23937D01*
X31299Y-34271D02*
X31574Y-34271D01*
X30905Y-34271D02*
X30630Y-34271D01*
X31299Y-33759D02*
X31574Y-33759D01*
X30630Y-33759D02*
X30905Y-33759D01*
X31574Y-33765D02*
X31574Y-34265D01*
X30630Y-34265D02*
X30630Y-33765D01*
G54D14*
X32716Y-32717D02*
X32438Y-32717D01*
X32438Y-32717D02*
X32438Y-33267D01*
X32438Y-33267D02*
X32716Y-33267D01*
X33388Y-32717D02*
X33110Y-32717D01*
X33388Y-32717D02*
X33388Y-33267D01*
X33388Y-33267D02*
X33110Y-33267D01*
X32677Y-33662D02*
X32399Y-33662D01*
X32399Y-33662D02*
X32399Y-34212D01*
X32399Y-34212D02*
X32677Y-34212D01*
X33349Y-33662D02*
X33071Y-33662D01*
X33349Y-33662D02*
X33349Y-34212D01*
X33349Y-34212D02*
X33071Y-34212D01*
X32952Y-34685D02*
X32674Y-34685D01*
X32674Y-34685D02*
X32674Y-35235D01*
X32674Y-35235D02*
X32952Y-35235D01*
X33624Y-34685D02*
X33346Y-34685D01*
X33624Y-34685D02*
X33624Y-35235D01*
X33624Y-35235D02*
X33346Y-35235D01*
X33936Y-27362D02*
X33936Y-27084D01*
X33936Y-27084D02*
X33386Y-27084D01*
X33386Y-27084D02*
X33386Y-27362D01*
X33936Y-28034D02*
X33936Y-27756D01*
X33936Y-28034D02*
X33386Y-28034D01*
X33386Y-28034D02*
X33386Y-27756D01*
X29822Y-35215D02*
X30100Y-35215D01*
X30100Y-35215D02*
X30100Y-34665D01*
X30100Y-34665D02*
X29822Y-34665D01*
X29150Y-35215D02*
X29428Y-35215D01*
X29150Y-35215D02*
X29150Y-34665D01*
X29150Y-34665D02*
X29428Y-34665D01*
X29822Y-34231D02*
X30100Y-34231D01*
X30100Y-34231D02*
X30100Y-33681D01*
X30100Y-33681D02*
X29822Y-33681D01*
X29150Y-34231D02*
X29428Y-34231D01*
X29150Y-34231D02*
X29150Y-33681D01*
X29150Y-33681D02*
X29428Y-33681D01*
X29724Y-33247D02*
X30002Y-33247D01*
X30002Y-33247D02*
X30002Y-32697D01*
X30002Y-32697D02*
X29724Y-32697D01*
X29052Y-33247D02*
X29330Y-33247D01*
X29052Y-33247D02*
X29052Y-32697D01*
X29052Y-32697D02*
X29330Y-32697D01*
X29704Y-31594D02*
X29704Y-31316D01*
X29704Y-31316D02*
X29154Y-31316D01*
X29154Y-31316D02*
X29154Y-31594D01*
X29704Y-32266D02*
X29704Y-31988D01*
X29704Y-32266D02*
X29154Y-32266D01*
X29154Y-32266D02*
X29154Y-31988D01*
X32991Y-26260D02*
X32713Y-26260D01*
X32713Y-26260D02*
X32713Y-26810D01*
X32713Y-26810D02*
X32991Y-26810D01*
X33663Y-26260D02*
X33385Y-26260D01*
X33663Y-26260D02*
X33663Y-26810D01*
X33663Y-26810D02*
X33385Y-26810D01*
X33386Y-23130D02*
X33386Y-23408D01*
X33386Y-23408D02*
X33936Y-23408D01*
X33936Y-23408D02*
X33936Y-23130D01*
X33386Y-22458D02*
X33386Y-22736D01*
X33386Y-22458D02*
X33936Y-22458D01*
X33936Y-22458D02*
X33936Y-22736D01*
X33936Y-20078D02*
X33936Y-19800D01*
X33936Y-19800D02*
X33386Y-19800D01*
X33386Y-19800D02*
X33386Y-20078D01*
X33936Y-20750D02*
X33936Y-20472D01*
X33936Y-20750D02*
X33386Y-20750D01*
X33386Y-20750D02*
X33386Y-20472D01*
X29625Y-19803D02*
X29347Y-19803D01*
X29347Y-19803D02*
X29347Y-20353D01*
X29347Y-20353D02*
X29625Y-20353D01*
X30297Y-19803D02*
X30019Y-19803D01*
X30297Y-19803D02*
X30297Y-20353D01*
X30297Y-20353D02*
X30019Y-20353D01*
X27362Y-27284D02*
X27084Y-27284D01*
X27084Y-27284D02*
X27084Y-27834D01*
X27084Y-27834D02*
X27362Y-27834D01*
X28034Y-27284D02*
X27756Y-27284D01*
X28034Y-27284D02*
X28034Y-27834D01*
X28034Y-27834D02*
X27756Y-27834D01*
X27362Y-26201D02*
X27084Y-26201D01*
X27084Y-26201D02*
X27084Y-26751D01*
X27084Y-26751D02*
X27362Y-26751D01*
X28034Y-26201D02*
X27756Y-26201D01*
X28034Y-26201D02*
X28034Y-26751D01*
X28034Y-26751D02*
X27756Y-26751D01*
X27362Y-25020D02*
X27084Y-25020D01*
X27084Y-25020D02*
X27084Y-25570D01*
X27084Y-25570D02*
X27362Y-25570D01*
X28034Y-25020D02*
X27756Y-25020D01*
X28034Y-25020D02*
X28034Y-25570D01*
X28034Y-25570D02*
X27756Y-25570D01*
X27362Y-23898D02*
X27084Y-23898D01*
X27084Y-23898D02*
X27084Y-24448D01*
X27084Y-24448D02*
X27362Y-24448D01*
X28034Y-23898D02*
X27756Y-23898D01*
X28034Y-23898D02*
X28034Y-24448D01*
X28034Y-24448D02*
X27756Y-24448D01*
X25393Y-34665D02*
X25115Y-34665D01*
X25115Y-34665D02*
X25115Y-35215D01*
X25115Y-35215D02*
X25393Y-35215D01*
X26065Y-34665D02*
X25787Y-34665D01*
X26065Y-34665D02*
X26065Y-35215D01*
X26065Y-35215D02*
X25787Y-35215D01*
X25393Y-33780D02*
X25115Y-33780D01*
X25115Y-33780D02*
X25115Y-34330D01*
X25115Y-34330D02*
X25393Y-34330D01*
X26065Y-33780D02*
X25787Y-33780D01*
X26065Y-33780D02*
X26065Y-34330D01*
X26065Y-34330D02*
X25787Y-34330D01*
X25393Y-32894D02*
X25115Y-32894D01*
X25115Y-32894D02*
X25115Y-33444D01*
X25115Y-33444D02*
X25393Y-33444D01*
X26065Y-32894D02*
X25787Y-32894D01*
X26065Y-32894D02*
X26065Y-33444D01*
X26065Y-33444D02*
X25787Y-33444D01*
X27756Y-29015D02*
X28034Y-29015D01*
X28034Y-29015D02*
X28034Y-28465D01*
X28034Y-28465D02*
X27756Y-28465D01*
X27084Y-29015D02*
X27362Y-29015D01*
X27084Y-29015D02*
X27084Y-28465D01*
X27084Y-28465D02*
X27362Y-28465D01*
X23819Y-35117D02*
X24097Y-35117D01*
X24097Y-35117D02*
X24097Y-34567D01*
X24097Y-34567D02*
X23819Y-34567D01*
X23147Y-35117D02*
X23425Y-35117D01*
X23147Y-35117D02*
X23147Y-34567D01*
X23147Y-34567D02*
X23425Y-34567D01*
X23819Y-34133D02*
X24097Y-34133D01*
X24097Y-34133D02*
X24097Y-33583D01*
X24097Y-33583D02*
X23819Y-33583D01*
X23147Y-34133D02*
X23425Y-34133D01*
X23147Y-34133D02*
X23147Y-33583D01*
X23147Y-33583D02*
X23425Y-33583D01*
X22244Y-34133D02*
X22522Y-34133D01*
X22522Y-34133D02*
X22522Y-33583D01*
X22522Y-33583D02*
X22244Y-33583D01*
X21572Y-34133D02*
X21850Y-34133D01*
X21572Y-34133D02*
X21572Y-33583D01*
X21572Y-33583D02*
X21850Y-33583D01*
X22244Y-33149D02*
X22522Y-33149D01*
X22522Y-33149D02*
X22522Y-32599D01*
X22522Y-32599D02*
X22244Y-32599D01*
X21572Y-33149D02*
X21850Y-33149D01*
X21572Y-33149D02*
X21572Y-32599D01*
X21572Y-32599D02*
X21850Y-32599D01*
X27756Y-23424D02*
X28034Y-23424D01*
X28034Y-23424D02*
X28034Y-22874D01*
X28034Y-22874D02*
X27756Y-22874D01*
X27084Y-23424D02*
X27362Y-23424D01*
X27084Y-23424D02*
X27084Y-22874D01*
X27084Y-22874D02*
X27362Y-22874D01*
X27756Y-22440D02*
X28034Y-22440D01*
X28034Y-22440D02*
X28034Y-21890D01*
X28034Y-21890D02*
X27756Y-21890D01*
X27084Y-22440D02*
X27362Y-22440D01*
X27084Y-22440D02*
X27084Y-21890D01*
X27084Y-21890D02*
X27362Y-21890D01*
X27756Y-21416D02*
X28034Y-21416D01*
X28034Y-21416D02*
X28034Y-20866D01*
X28034Y-20866D02*
X27756Y-20866D01*
X27084Y-21416D02*
X27362Y-21416D01*
X27084Y-21416D02*
X27084Y-20866D01*
X27084Y-20866D02*
X27362Y-20866D01*
X27756Y-20353D02*
X28034Y-20353D01*
X28034Y-20353D02*
X28034Y-19803D01*
X28034Y-19803D02*
X27756Y-19803D01*
X27084Y-20353D02*
X27362Y-20353D01*
X27084Y-20353D02*
X27084Y-19803D01*
X27084Y-19803D02*
X27362Y-19803D01*
X24645Y-20393D02*
X24923Y-20393D01*
X24923Y-20393D02*
X24923Y-19843D01*
X24923Y-19843D02*
X24645Y-19843D01*
X23973Y-20393D02*
X24251Y-20393D01*
X23973Y-20393D02*
X23973Y-19843D01*
X23973Y-19843D02*
X24251Y-19843D01*
X21948Y-26751D02*
X22226Y-26751D01*
X22226Y-26751D02*
X22226Y-26201D01*
X22226Y-26201D02*
X21948Y-26201D01*
X21276Y-26751D02*
X21554Y-26751D01*
X21276Y-26751D02*
X21276Y-26201D01*
X21276Y-26201D02*
X21554Y-26201D01*
X21889Y-23700D02*
X22167Y-23700D01*
X22167Y-23700D02*
X22167Y-23150D01*
X22167Y-23150D02*
X21889Y-23150D01*
X21217Y-23700D02*
X21495Y-23700D01*
X21217Y-23700D02*
X21217Y-23150D01*
X21217Y-23150D02*
X21495Y-23150D01*
X22047Y-20393D02*
X22325Y-20393D01*
X22325Y-20393D02*
X22325Y-19843D01*
X22325Y-19843D02*
X22047Y-19843D01*
X21375Y-20393D02*
X21653Y-20393D01*
X21375Y-20393D02*
X21375Y-19843D01*
X21375Y-19843D02*
X21653Y-19843D01*
X31299Y-35196D02*
X31577Y-35196D01*
X31577Y-35196D02*
X31577Y-34646D01*
X31577Y-34646D02*
X31299Y-34646D01*
X30627Y-35196D02*
X30905Y-35196D01*
X30627Y-35196D02*
X30627Y-34646D01*
X30627Y-34646D02*
X30905Y-34646D01*
X32283Y-19803D02*
X32005Y-19803D01*
X32005Y-19803D02*
X32005Y-20353D01*
X32005Y-20353D02*
X32283Y-20353D01*
X32955Y-19803D02*
X32677Y-19803D01*
X32955Y-19803D02*
X32955Y-20353D01*
X32955Y-20353D02*
X32677Y-20353D01*
X21181Y-28445D02*
X21181Y-28723D01*
X21181Y-28723D02*
X21731Y-28723D01*
X21731Y-28723D02*
X21731Y-28445D01*
X21181Y-27773D02*
X21181Y-28051D01*
X21181Y-27773D02*
X21731Y-27773D01*
X21731Y-27773D02*
X21731Y-28051D01*
X23031Y-26201D02*
X22753Y-26201D01*
X22753Y-26201D02*
X22753Y-26751D01*
X22753Y-26751D02*
X23031Y-26751D01*
X23703Y-26201D02*
X23425Y-26201D01*
X23703Y-26201D02*
X23703Y-26751D01*
X23703Y-26751D02*
X23425Y-26751D01*
G54D15*
X23710Y-25347D02*
X23701Y-25356D01*
X23675Y-25366D01*
X23658Y-25366D01*
X23633Y-25356D01*
X23615Y-25337D01*
X23607Y-25318D01*
X23598Y-25280D01*
X23598Y-25251D01*
X23607Y-25213D01*
X23615Y-25194D01*
X23633Y-25175D01*
X23658Y-25166D01*
X23675Y-25166D01*
X23701Y-25175D01*
X23710Y-25185D01*
X23881Y-25366D02*
X23778Y-25366D01*
X23830Y-25366D02*
X23830Y-25166D01*
X23813Y-25194D01*
X23795Y-25213D01*
X23778Y-25223D01*
G54D13*
X24757Y-23930D02*
X24957Y-24230D01*
X24957Y-23930D02*
X24757Y-24230D01*
X25228Y-24230D02*
X25057Y-24230D01*
X25142Y-24230D02*
X25142Y-23930D01*
X25114Y-23973D01*
X25085Y-24001D01*
X25057Y-24015D01*
X25032Y-30426D02*
X25232Y-30726D01*
X25232Y-30426D02*
X25032Y-30726D01*
X25332Y-30454D02*
X25347Y-30440D01*
X25375Y-30426D01*
X25447Y-30426D01*
X25475Y-30440D01*
X25489Y-30454D01*
X25504Y-30483D01*
X25504Y-30511D01*
X25489Y-30554D01*
X25318Y-30726D01*
X25504Y-30726D01*
X30662Y-24245D02*
X30862Y-24545D01*
X30862Y-24245D02*
X30662Y-24545D01*
X30948Y-24245D02*
X31134Y-24245D01*
X31034Y-24359D01*
X31076Y-24359D01*
X31105Y-24373D01*
X31119Y-24388D01*
X31134Y-24416D01*
X31134Y-24488D01*
X31119Y-24516D01*
X31105Y-24530D01*
X31076Y-24545D01*
X30991Y-24545D01*
X30962Y-24530D01*
X30948Y-24516D01*
G54D11*
X30660Y-30214D02*
X30927Y-30614D01*
X30927Y-30214D02*
X30660Y-30614D01*
X31250Y-30347D02*
X31250Y-30614D01*
X31155Y-30195D02*
X31060Y-30480D01*
X31308Y-30480D01*
G54D15*
X23710Y-31350D02*
X23701Y-31360D01*
X23675Y-31370D01*
X23658Y-31370D01*
X23633Y-31360D01*
X23615Y-31341D01*
X23607Y-31322D01*
X23598Y-31284D01*
X23598Y-31255D01*
X23607Y-31217D01*
X23615Y-31198D01*
X23633Y-31179D01*
X23658Y-31170D01*
X23675Y-31170D01*
X23701Y-31179D01*
X23710Y-31189D01*
X23778Y-31189D02*
X23787Y-31179D01*
X23804Y-31170D01*
X23847Y-31170D01*
X23864Y-31179D01*
X23873Y-31189D01*
X23881Y-31208D01*
X23881Y-31227D01*
X23873Y-31255D01*
X23770Y-31370D01*
X23881Y-31370D01*
G54D13*
X22852Y-22596D02*
X22552Y-22596D01*
X22823Y-22281D02*
X22837Y-22296D01*
X22852Y-22338D01*
X22852Y-22367D01*
X22837Y-22410D01*
X22809Y-22438D01*
X22780Y-22453D01*
X22723Y-22467D01*
X22680Y-22467D01*
X22623Y-22453D01*
X22595Y-22438D01*
X22566Y-22410D01*
X22552Y-22367D01*
X22552Y-22338D01*
X22566Y-22296D01*
X22580Y-22281D01*
X22852Y-21996D02*
X22852Y-22167D01*
X22852Y-22081D02*
X22552Y-22081D01*
X22595Y-22110D01*
X22623Y-22138D01*
X22637Y-22167D01*
X22891Y-28973D02*
X22591Y-28973D01*
X22863Y-28659D02*
X22877Y-28673D01*
X22891Y-28716D01*
X22891Y-28745D01*
X22877Y-28788D01*
X22848Y-28816D01*
X22820Y-28831D01*
X22763Y-28845D01*
X22720Y-28845D01*
X22663Y-28831D01*
X22634Y-28816D01*
X22605Y-28788D01*
X22591Y-28745D01*
X22591Y-28716D01*
X22605Y-28673D01*
X22620Y-28659D01*
X22620Y-28545D02*
X22605Y-28531D01*
X22591Y-28502D01*
X22591Y-28431D01*
X22605Y-28402D01*
X22620Y-28388D01*
X22648Y-28373D01*
X22677Y-28373D01*
X22720Y-28388D01*
X22891Y-28559D01*
X22891Y-28373D01*
X29978Y-22674D02*
X29678Y-22674D01*
X29949Y-22360D02*
X29963Y-22374D01*
X29978Y-22417D01*
X29978Y-22446D01*
X29963Y-22489D01*
X29935Y-22517D01*
X29906Y-22531D01*
X29849Y-22546D01*
X29806Y-22546D01*
X29749Y-22531D01*
X29721Y-22517D01*
X29692Y-22489D01*
X29678Y-22446D01*
X29678Y-22417D01*
X29692Y-22374D01*
X29706Y-22360D01*
X29678Y-22260D02*
X29678Y-22074D01*
X29792Y-22174D01*
X29792Y-22131D01*
X29806Y-22103D01*
X29821Y-22089D01*
X29849Y-22074D01*
X29921Y-22074D01*
X29949Y-22089D01*
X29963Y-22103D01*
X29978Y-22131D01*
X29978Y-22217D01*
X29963Y-22246D01*
X29949Y-22260D01*
X29978Y-28934D02*
X29678Y-28934D01*
X29949Y-28620D02*
X29963Y-28634D01*
X29978Y-28677D01*
X29978Y-28706D01*
X29963Y-28748D01*
X29935Y-28777D01*
X29906Y-28791D01*
X29849Y-28806D01*
X29806Y-28806D01*
X29749Y-28791D01*
X29721Y-28777D01*
X29692Y-28748D01*
X29678Y-28706D01*
X29678Y-28677D01*
X29692Y-28634D01*
X29706Y-28620D01*
X29778Y-28363D02*
X29978Y-28363D01*
X29663Y-28434D02*
X29878Y-28506D01*
X29878Y-28320D01*
G54D15*
X29300Y-24480D02*
X29292Y-24490D01*
X29266Y-24499D01*
X29249Y-24499D01*
X29223Y-24490D01*
X29206Y-24471D01*
X29197Y-24452D01*
X29189Y-24414D01*
X29189Y-24385D01*
X29197Y-24347D01*
X29206Y-24328D01*
X29223Y-24309D01*
X29249Y-24299D01*
X29266Y-24299D01*
X29292Y-24309D01*
X29300Y-24318D01*
X29360Y-24299D02*
X29472Y-24299D01*
X29412Y-24376D01*
X29437Y-24376D01*
X29454Y-24385D01*
X29463Y-24395D01*
X29472Y-24414D01*
X29472Y-24461D01*
X29463Y-24480D01*
X29454Y-24490D01*
X29437Y-24499D01*
X29386Y-24499D01*
X29369Y-24490D01*
X29360Y-24480D01*
X31173Y-34045D02*
X31183Y-34054D01*
X31192Y-34080D01*
X31192Y-34097D01*
X31183Y-34122D01*
X31164Y-34140D01*
X31145Y-34148D01*
X31107Y-34157D01*
X31078Y-34157D01*
X31040Y-34148D01*
X31021Y-34140D01*
X31002Y-34122D01*
X30992Y-34097D01*
X30992Y-34080D01*
X31002Y-34054D01*
X31011Y-34045D01*
X31059Y-33891D02*
X31192Y-33891D01*
X30983Y-33934D02*
X31126Y-33977D01*
X31126Y-33865D01*
X33027Y-33082D02*
X32933Y-33142D01*
X33027Y-33185D02*
X32830Y-33185D01*
X32830Y-33117D01*
X32839Y-33099D01*
X32849Y-33091D01*
X32868Y-33082D01*
X32896Y-33082D01*
X32914Y-33091D01*
X32924Y-33099D01*
X32933Y-33117D01*
X32933Y-33185D01*
X32830Y-33022D02*
X32830Y-32911D01*
X32905Y-32971D01*
X32905Y-32945D01*
X32914Y-32928D01*
X32924Y-32919D01*
X32943Y-32911D01*
X32989Y-32911D01*
X33008Y-32919D01*
X33018Y-32928D01*
X33027Y-32945D01*
X33027Y-32997D01*
X33018Y-33014D01*
X33008Y-33022D01*
X32830Y-32757D02*
X32830Y-32791D01*
X32839Y-32808D01*
X32849Y-32817D01*
X32877Y-32834D01*
X32914Y-32842D01*
X32989Y-32842D01*
X33008Y-32834D01*
X33018Y-32825D01*
X33027Y-32808D01*
X33027Y-32774D01*
X33018Y-32757D01*
X33008Y-32748D01*
X32989Y-32739D01*
X32943Y-32739D01*
X32924Y-32748D01*
X32914Y-32757D01*
X32905Y-32774D01*
X32905Y-32808D01*
X32914Y-32825D01*
X32924Y-32834D01*
X32943Y-32842D01*
X32988Y-34027D02*
X32894Y-34087D01*
X32988Y-34130D02*
X32791Y-34130D01*
X32791Y-34062D01*
X32800Y-34044D01*
X32809Y-34036D01*
X32828Y-34027D01*
X32856Y-34027D01*
X32875Y-34036D01*
X32884Y-34044D01*
X32894Y-34062D01*
X32894Y-34130D01*
X32791Y-33967D02*
X32791Y-33856D01*
X32866Y-33916D01*
X32866Y-33890D01*
X32875Y-33873D01*
X32884Y-33864D01*
X32903Y-33856D01*
X32950Y-33856D01*
X32969Y-33864D01*
X32978Y-33873D01*
X32988Y-33890D01*
X32988Y-33942D01*
X32978Y-33959D01*
X32969Y-33967D01*
X32791Y-33693D02*
X32791Y-33779D01*
X32884Y-33787D01*
X32875Y-33779D01*
X32866Y-33762D01*
X32866Y-33719D01*
X32875Y-33702D01*
X32884Y-33693D01*
X32903Y-33684D01*
X32950Y-33684D01*
X32969Y-33693D01*
X32978Y-33702D01*
X32988Y-33719D01*
X32988Y-33762D01*
X32978Y-33779D01*
X32969Y-33787D01*
X33263Y-35051D02*
X33169Y-35111D01*
X33263Y-35154D02*
X33066Y-35154D01*
X33066Y-35085D01*
X33076Y-35068D01*
X33085Y-35059D01*
X33104Y-35051D01*
X33132Y-35051D01*
X33151Y-35059D01*
X33160Y-35068D01*
X33169Y-35085D01*
X33169Y-35154D01*
X33066Y-34991D02*
X33066Y-34879D01*
X33141Y-34939D01*
X33141Y-34914D01*
X33151Y-34897D01*
X33160Y-34888D01*
X33179Y-34879D01*
X33226Y-34879D01*
X33244Y-34888D01*
X33254Y-34897D01*
X33263Y-34914D01*
X33263Y-34965D01*
X33254Y-34982D01*
X33244Y-34991D01*
X33132Y-34725D02*
X33263Y-34725D01*
X33057Y-34768D02*
X33198Y-34811D01*
X33198Y-34699D01*
X33570Y-27673D02*
X33510Y-27579D01*
X33467Y-27673D02*
X33467Y-27476D01*
X33536Y-27476D01*
X33553Y-27485D01*
X33562Y-27494D01*
X33570Y-27513D01*
X33570Y-27541D01*
X33562Y-27560D01*
X33553Y-27569D01*
X33536Y-27579D01*
X33467Y-27579D01*
X33630Y-27476D02*
X33742Y-27476D01*
X33682Y-27551D01*
X33707Y-27551D01*
X33724Y-27560D01*
X33733Y-27569D01*
X33742Y-27588D01*
X33742Y-27635D01*
X33733Y-27654D01*
X33724Y-27663D01*
X33707Y-27673D01*
X33656Y-27673D01*
X33639Y-27663D01*
X33630Y-27654D01*
X33802Y-27476D02*
X33913Y-27476D01*
X33853Y-27551D01*
X33879Y-27551D01*
X33896Y-27560D01*
X33904Y-27569D01*
X33913Y-27588D01*
X33913Y-27635D01*
X33904Y-27654D01*
X33896Y-27663D01*
X33879Y-27673D01*
X33827Y-27673D01*
X33810Y-27663D01*
X33802Y-27654D01*
X29690Y-35081D02*
X29596Y-35141D01*
X29690Y-35184D02*
X29493Y-35184D01*
X29493Y-35115D01*
X29502Y-35098D01*
X29511Y-35090D01*
X29530Y-35081D01*
X29558Y-35081D01*
X29577Y-35090D01*
X29586Y-35098D01*
X29596Y-35115D01*
X29596Y-35184D01*
X29493Y-35021D02*
X29493Y-34910D01*
X29568Y-34970D01*
X29568Y-34944D01*
X29577Y-34927D01*
X29586Y-34918D01*
X29605Y-34910D01*
X29652Y-34910D01*
X29671Y-34918D01*
X29680Y-34927D01*
X29690Y-34944D01*
X29690Y-34995D01*
X29680Y-35013D01*
X29671Y-35021D01*
X29511Y-34841D02*
X29502Y-34833D01*
X29493Y-34815D01*
X29493Y-34773D01*
X29502Y-34755D01*
X29511Y-34747D01*
X29530Y-34738D01*
X29549Y-34738D01*
X29577Y-34747D01*
X29690Y-34850D01*
X29690Y-34738D01*
X29690Y-34097D02*
X29596Y-34157D01*
X29690Y-34200D02*
X29493Y-34200D01*
X29493Y-34131D01*
X29502Y-34114D01*
X29511Y-34105D01*
X29530Y-34097D01*
X29558Y-34097D01*
X29577Y-34105D01*
X29586Y-34114D01*
X29596Y-34131D01*
X29596Y-34200D01*
X29493Y-34037D02*
X29493Y-33925D01*
X29568Y-33985D01*
X29568Y-33960D01*
X29577Y-33943D01*
X29586Y-33934D01*
X29605Y-33925D01*
X29652Y-33925D01*
X29671Y-33934D01*
X29680Y-33943D01*
X29690Y-33960D01*
X29690Y-34011D01*
X29680Y-34028D01*
X29671Y-34037D01*
X29690Y-33754D02*
X29690Y-33857D01*
X29690Y-33805D02*
X29493Y-33805D01*
X29521Y-33823D01*
X29540Y-33840D01*
X29549Y-33857D01*
X29591Y-33113D02*
X29497Y-33173D01*
X29591Y-33216D02*
X29394Y-33216D01*
X29394Y-33147D01*
X29404Y-33130D01*
X29413Y-33121D01*
X29432Y-33113D01*
X29460Y-33113D01*
X29479Y-33121D01*
X29488Y-33130D01*
X29497Y-33147D01*
X29497Y-33216D01*
X29394Y-33053D02*
X29394Y-32941D01*
X29469Y-33001D01*
X29469Y-32976D01*
X29479Y-32958D01*
X29488Y-32950D01*
X29507Y-32941D01*
X29554Y-32941D01*
X29572Y-32950D01*
X29582Y-32958D01*
X29591Y-32976D01*
X29591Y-33027D01*
X29582Y-33044D01*
X29572Y-33053D01*
X29394Y-32830D02*
X29394Y-32813D01*
X29404Y-32796D01*
X29413Y-32787D01*
X29432Y-32778D01*
X29469Y-32770D01*
X29516Y-32770D01*
X29554Y-32778D01*
X29572Y-32787D01*
X29582Y-32796D01*
X29591Y-32813D01*
X29591Y-32830D01*
X29582Y-32847D01*
X29572Y-32856D01*
X29554Y-32864D01*
X29516Y-32873D01*
X29469Y-32873D01*
X29432Y-32864D01*
X29413Y-32856D01*
X29404Y-32847D01*
X29394Y-32830D01*
X29338Y-31905D02*
X29278Y-31811D01*
X29235Y-31905D02*
X29235Y-31708D01*
X29304Y-31708D01*
X29321Y-31717D01*
X29329Y-31727D01*
X29338Y-31745D01*
X29338Y-31774D01*
X29329Y-31792D01*
X29321Y-31802D01*
X29304Y-31811D01*
X29235Y-31811D01*
X29406Y-31727D02*
X29415Y-31717D01*
X29432Y-31708D01*
X29475Y-31708D01*
X29492Y-31717D01*
X29501Y-31727D01*
X29509Y-31745D01*
X29509Y-31764D01*
X29501Y-31792D01*
X29398Y-31905D01*
X29509Y-31905D01*
X29595Y-31905D02*
X29629Y-31905D01*
X29646Y-31896D01*
X29655Y-31886D01*
X29672Y-31858D01*
X29681Y-31821D01*
X29681Y-31745D01*
X29672Y-31727D01*
X29664Y-31717D01*
X29646Y-31708D01*
X29612Y-31708D01*
X29595Y-31717D01*
X29586Y-31727D01*
X29578Y-31745D01*
X29578Y-31792D01*
X29586Y-31811D01*
X29595Y-31821D01*
X29612Y-31830D01*
X29646Y-31830D01*
X29664Y-31821D01*
X29672Y-31811D01*
X29681Y-31792D01*
X33303Y-26626D02*
X33209Y-26686D01*
X33303Y-26729D02*
X33106Y-26729D01*
X33106Y-26660D01*
X33115Y-26643D01*
X33124Y-26634D01*
X33143Y-26626D01*
X33171Y-26626D01*
X33190Y-26634D01*
X33199Y-26643D01*
X33209Y-26660D01*
X33209Y-26729D01*
X33124Y-26557D02*
X33115Y-26549D01*
X33106Y-26531D01*
X33106Y-26489D01*
X33115Y-26471D01*
X33124Y-26463D01*
X33143Y-26454D01*
X33162Y-26454D01*
X33190Y-26463D01*
X33303Y-26566D01*
X33303Y-26454D01*
X33190Y-26351D02*
X33181Y-26369D01*
X33171Y-26377D01*
X33153Y-26386D01*
X33143Y-26386D01*
X33124Y-26377D01*
X33115Y-26369D01*
X33106Y-26351D01*
X33106Y-26317D01*
X33115Y-26300D01*
X33124Y-26291D01*
X33143Y-26283D01*
X33153Y-26283D01*
X33171Y-26291D01*
X33181Y-26300D01*
X33190Y-26317D01*
X33190Y-26351D01*
X33199Y-26369D01*
X33209Y-26377D01*
X33228Y-26386D01*
X33265Y-26386D01*
X33284Y-26377D01*
X33293Y-26369D01*
X33303Y-26351D01*
X33303Y-26317D01*
X33293Y-26300D01*
X33284Y-26291D01*
X33265Y-26283D01*
X33228Y-26283D01*
X33209Y-26291D01*
X33199Y-26300D01*
X33190Y-26317D01*
X33520Y-22997D02*
X33460Y-22903D01*
X33417Y-22997D02*
X33417Y-22800D01*
X33486Y-22800D01*
X33503Y-22809D01*
X33512Y-22818D01*
X33520Y-22837D01*
X33520Y-22865D01*
X33512Y-22884D01*
X33503Y-22893D01*
X33486Y-22903D01*
X33417Y-22903D01*
X33589Y-22818D02*
X33597Y-22809D01*
X33614Y-22800D01*
X33657Y-22800D01*
X33674Y-22809D01*
X33683Y-22818D01*
X33692Y-22837D01*
X33692Y-22856D01*
X33683Y-22884D01*
X33580Y-22997D01*
X33692Y-22997D01*
X33752Y-22800D02*
X33872Y-22800D01*
X33794Y-22997D01*
X33570Y-20389D02*
X33510Y-20295D01*
X33467Y-20389D02*
X33467Y-20192D01*
X33536Y-20192D01*
X33553Y-20202D01*
X33562Y-20211D01*
X33570Y-20230D01*
X33570Y-20258D01*
X33562Y-20277D01*
X33553Y-20286D01*
X33536Y-20295D01*
X33467Y-20295D01*
X33639Y-20211D02*
X33647Y-20202D01*
X33664Y-20192D01*
X33707Y-20192D01*
X33724Y-20202D01*
X33733Y-20211D01*
X33742Y-20230D01*
X33742Y-20248D01*
X33733Y-20277D01*
X33630Y-20389D01*
X33742Y-20389D01*
X33896Y-20192D02*
X33862Y-20192D01*
X33844Y-20202D01*
X33836Y-20211D01*
X33819Y-20239D01*
X33810Y-20277D01*
X33810Y-20352D01*
X33819Y-20370D01*
X33827Y-20380D01*
X33844Y-20389D01*
X33879Y-20389D01*
X33896Y-20380D01*
X33904Y-20370D01*
X33913Y-20352D01*
X33913Y-20305D01*
X33904Y-20286D01*
X33896Y-20277D01*
X33879Y-20267D01*
X33844Y-20267D01*
X33827Y-20277D01*
X33819Y-20286D01*
X33810Y-20305D01*
X29936Y-20169D02*
X29843Y-20229D01*
X29936Y-20272D02*
X29739Y-20272D01*
X29739Y-20203D01*
X29749Y-20186D01*
X29758Y-20178D01*
X29777Y-20169D01*
X29805Y-20169D01*
X29824Y-20178D01*
X29833Y-20186D01*
X29843Y-20203D01*
X29843Y-20272D01*
X29758Y-20100D02*
X29749Y-20092D01*
X29739Y-20075D01*
X29739Y-20032D01*
X29749Y-20015D01*
X29758Y-20006D01*
X29777Y-19998D01*
X29796Y-19998D01*
X29824Y-20006D01*
X29936Y-20109D01*
X29936Y-19998D01*
X29739Y-19835D02*
X29739Y-19920D01*
X29833Y-19929D01*
X29824Y-19920D01*
X29815Y-19903D01*
X29815Y-19860D01*
X29824Y-19843D01*
X29833Y-19835D01*
X29852Y-19826D01*
X29899Y-19826D01*
X29918Y-19835D01*
X29927Y-19843D01*
X29936Y-19860D01*
X29936Y-19903D01*
X29927Y-19920D01*
X29918Y-19929D01*
X27673Y-27649D02*
X27579Y-27709D01*
X27673Y-27752D02*
X27476Y-27752D01*
X27476Y-27684D01*
X27485Y-27666D01*
X27494Y-27658D01*
X27513Y-27649D01*
X27541Y-27649D01*
X27560Y-27658D01*
X27569Y-27666D01*
X27579Y-27684D01*
X27579Y-27752D01*
X27494Y-27581D02*
X27485Y-27572D01*
X27476Y-27555D01*
X27476Y-27512D01*
X27485Y-27495D01*
X27494Y-27486D01*
X27513Y-27478D01*
X27532Y-27478D01*
X27560Y-27486D01*
X27673Y-27589D01*
X27673Y-27478D01*
X27541Y-27324D02*
X27673Y-27324D01*
X27466Y-27366D02*
X27607Y-27409D01*
X27607Y-27298D01*
X27673Y-26567D02*
X27579Y-26627D01*
X27673Y-26669D02*
X27476Y-26669D01*
X27476Y-26601D01*
X27485Y-26584D01*
X27494Y-26575D01*
X27513Y-26567D01*
X27541Y-26567D01*
X27560Y-26575D01*
X27569Y-26584D01*
X27579Y-26601D01*
X27579Y-26669D01*
X27494Y-26498D02*
X27485Y-26489D01*
X27476Y-26472D01*
X27476Y-26429D01*
X27485Y-26412D01*
X27494Y-26404D01*
X27513Y-26395D01*
X27532Y-26395D01*
X27560Y-26404D01*
X27673Y-26507D01*
X27673Y-26395D01*
X27476Y-26335D02*
X27476Y-26224D01*
X27551Y-26284D01*
X27551Y-26258D01*
X27560Y-26241D01*
X27569Y-26232D01*
X27588Y-26224D01*
X27635Y-26224D01*
X27654Y-26232D01*
X27663Y-26241D01*
X27673Y-26258D01*
X27673Y-26309D01*
X27663Y-26327D01*
X27654Y-26335D01*
X27673Y-25385D02*
X27579Y-25445D01*
X27673Y-25488D02*
X27476Y-25488D01*
X27476Y-25420D01*
X27485Y-25403D01*
X27494Y-25394D01*
X27513Y-25385D01*
X27541Y-25385D01*
X27560Y-25394D01*
X27569Y-25403D01*
X27579Y-25420D01*
X27579Y-25488D01*
X27494Y-25317D02*
X27485Y-25308D01*
X27476Y-25291D01*
X27476Y-25248D01*
X27485Y-25231D01*
X27494Y-25223D01*
X27513Y-25214D01*
X27532Y-25214D01*
X27560Y-25223D01*
X27673Y-25325D01*
X27673Y-25214D01*
X27494Y-25145D02*
X27485Y-25137D01*
X27476Y-25120D01*
X27476Y-25077D01*
X27485Y-25060D01*
X27494Y-25051D01*
X27513Y-25043D01*
X27532Y-25043D01*
X27560Y-25051D01*
X27673Y-25154D01*
X27673Y-25043D01*
X27673Y-24263D02*
X27579Y-24323D01*
X27673Y-24366D02*
X27476Y-24366D01*
X27476Y-24298D01*
X27485Y-24281D01*
X27494Y-24272D01*
X27513Y-24263D01*
X27541Y-24263D01*
X27560Y-24272D01*
X27569Y-24281D01*
X27579Y-24298D01*
X27579Y-24366D01*
X27494Y-24195D02*
X27485Y-24186D01*
X27476Y-24169D01*
X27476Y-24126D01*
X27485Y-24109D01*
X27494Y-24101D01*
X27513Y-24092D01*
X27532Y-24092D01*
X27560Y-24101D01*
X27673Y-24203D01*
X27673Y-24092D01*
X27673Y-23921D02*
X27673Y-24023D01*
X27673Y-23972D02*
X27476Y-23972D01*
X27504Y-23989D01*
X27523Y-24006D01*
X27532Y-24023D01*
X25704Y-35031D02*
X25610Y-35091D01*
X25704Y-35134D02*
X25507Y-35134D01*
X25507Y-35065D01*
X25517Y-35048D01*
X25526Y-35040D01*
X25545Y-35031D01*
X25573Y-35031D01*
X25592Y-35040D01*
X25601Y-35048D01*
X25610Y-35065D01*
X25610Y-35134D01*
X25526Y-34963D02*
X25517Y-34954D01*
X25507Y-34937D01*
X25507Y-34894D01*
X25517Y-34877D01*
X25526Y-34868D01*
X25545Y-34860D01*
X25563Y-34860D01*
X25592Y-34868D01*
X25704Y-34971D01*
X25704Y-34860D01*
X25507Y-34748D02*
X25507Y-34731D01*
X25517Y-34714D01*
X25526Y-34705D01*
X25545Y-34697D01*
X25582Y-34688D01*
X25629Y-34688D01*
X25667Y-34697D01*
X25685Y-34705D01*
X25695Y-34714D01*
X25704Y-34731D01*
X25704Y-34748D01*
X25695Y-34765D01*
X25685Y-34774D01*
X25667Y-34783D01*
X25629Y-34791D01*
X25582Y-34791D01*
X25545Y-34783D01*
X25526Y-34774D01*
X25517Y-34765D01*
X25507Y-34748D01*
X25704Y-34145D02*
X25610Y-34205D01*
X25704Y-34248D02*
X25507Y-34248D01*
X25507Y-34180D01*
X25517Y-34162D01*
X25526Y-34154D01*
X25545Y-34145D01*
X25573Y-34145D01*
X25592Y-34154D01*
X25601Y-34162D01*
X25610Y-34180D01*
X25610Y-34248D01*
X25704Y-33974D02*
X25704Y-34077D01*
X25704Y-34025D02*
X25507Y-34025D01*
X25535Y-34042D01*
X25554Y-34060D01*
X25563Y-34077D01*
X25704Y-33888D02*
X25704Y-33854D01*
X25695Y-33837D01*
X25685Y-33828D01*
X25657Y-33811D01*
X25620Y-33802D01*
X25545Y-33802D01*
X25526Y-33811D01*
X25517Y-33820D01*
X25507Y-33837D01*
X25507Y-33871D01*
X25517Y-33888D01*
X25526Y-33897D01*
X25545Y-33905D01*
X25592Y-33905D01*
X25610Y-33897D01*
X25620Y-33888D01*
X25629Y-33871D01*
X25629Y-33837D01*
X25620Y-33820D01*
X25610Y-33811D01*
X25592Y-33802D01*
X25704Y-33260D02*
X25610Y-33320D01*
X25704Y-33362D02*
X25507Y-33362D01*
X25507Y-33294D01*
X25517Y-33277D01*
X25526Y-33268D01*
X25545Y-33260D01*
X25573Y-33260D01*
X25592Y-33268D01*
X25601Y-33277D01*
X25610Y-33294D01*
X25610Y-33362D01*
X25704Y-33088D02*
X25704Y-33191D01*
X25704Y-33140D02*
X25507Y-33140D01*
X25535Y-33157D01*
X25554Y-33174D01*
X25563Y-33191D01*
X25592Y-32985D02*
X25582Y-33002D01*
X25573Y-33011D01*
X25554Y-33020D01*
X25545Y-33020D01*
X25526Y-33011D01*
X25517Y-33002D01*
X25507Y-32985D01*
X25507Y-32951D01*
X25517Y-32934D01*
X25526Y-32925D01*
X25545Y-32917D01*
X25554Y-32917D01*
X25573Y-32925D01*
X25582Y-32934D01*
X25592Y-32951D01*
X25592Y-32985D01*
X25601Y-33002D01*
X25610Y-33011D01*
X25629Y-33020D01*
X25667Y-33020D01*
X25685Y-33011D01*
X25695Y-33002D01*
X25704Y-32985D01*
X25704Y-32951D01*
X25695Y-32934D01*
X25685Y-32925D01*
X25667Y-32917D01*
X25629Y-32917D01*
X25610Y-32925D01*
X25601Y-32934D01*
X25592Y-32951D01*
X27623Y-28880D02*
X27529Y-28940D01*
X27623Y-28983D02*
X27426Y-28983D01*
X27426Y-28915D01*
X27435Y-28898D01*
X27444Y-28889D01*
X27463Y-28880D01*
X27491Y-28880D01*
X27510Y-28889D01*
X27519Y-28898D01*
X27529Y-28915D01*
X27529Y-28983D01*
X27623Y-28709D02*
X27623Y-28812D01*
X27623Y-28760D02*
X27426Y-28760D01*
X27454Y-28778D01*
X27473Y-28795D01*
X27482Y-28812D01*
X27426Y-28649D02*
X27426Y-28529D01*
X27623Y-28606D01*
X23686Y-34983D02*
X23592Y-35043D01*
X23686Y-35086D02*
X23489Y-35086D01*
X23489Y-35017D01*
X23498Y-35000D01*
X23507Y-34991D01*
X23526Y-34983D01*
X23554Y-34983D01*
X23573Y-34991D01*
X23582Y-35000D01*
X23592Y-35017D01*
X23592Y-35086D01*
X23686Y-34811D02*
X23686Y-34914D01*
X23686Y-34863D02*
X23489Y-34863D01*
X23517Y-34880D01*
X23536Y-34897D01*
X23545Y-34914D01*
X23489Y-34657D02*
X23489Y-34691D01*
X23498Y-34708D01*
X23507Y-34717D01*
X23536Y-34734D01*
X23573Y-34743D01*
X23648Y-34743D01*
X23667Y-34734D01*
X23676Y-34726D01*
X23686Y-34708D01*
X23686Y-34674D01*
X23676Y-34657D01*
X23667Y-34648D01*
X23648Y-34640D01*
X23601Y-34640D01*
X23582Y-34648D01*
X23573Y-34657D01*
X23564Y-34674D01*
X23564Y-34708D01*
X23573Y-34726D01*
X23582Y-34734D01*
X23601Y-34743D01*
X23686Y-33998D02*
X23592Y-34058D01*
X23686Y-34101D02*
X23489Y-34101D01*
X23489Y-34033D01*
X23498Y-34016D01*
X23507Y-34007D01*
X23526Y-33998D01*
X23554Y-33998D01*
X23573Y-34007D01*
X23582Y-34016D01*
X23592Y-34033D01*
X23592Y-34101D01*
X23686Y-33827D02*
X23686Y-33930D01*
X23686Y-33878D02*
X23489Y-33878D01*
X23517Y-33896D01*
X23536Y-33913D01*
X23545Y-33930D01*
X23489Y-33664D02*
X23489Y-33750D01*
X23582Y-33758D01*
X23573Y-33750D01*
X23564Y-33733D01*
X23564Y-33690D01*
X23573Y-33673D01*
X23582Y-33664D01*
X23601Y-33656D01*
X23648Y-33656D01*
X23667Y-33664D01*
X23676Y-33673D01*
X23686Y-33690D01*
X23686Y-33733D01*
X23676Y-33750D01*
X23667Y-33758D01*
X22111Y-33998D02*
X22017Y-34058D01*
X22111Y-34101D02*
X21914Y-34101D01*
X21914Y-34033D01*
X21923Y-34016D01*
X21933Y-34007D01*
X21951Y-33998D01*
X21980Y-33998D01*
X21998Y-34007D01*
X22008Y-34016D01*
X22017Y-34033D01*
X22017Y-34101D01*
X22111Y-33827D02*
X22111Y-33930D01*
X22111Y-33878D02*
X21914Y-33878D01*
X21942Y-33896D01*
X21961Y-33913D01*
X21970Y-33930D01*
X21980Y-33673D02*
X22111Y-33673D01*
X21904Y-33716D02*
X22045Y-33758D01*
X22045Y-33647D01*
X22111Y-33014D02*
X22017Y-33074D01*
X22111Y-33117D02*
X21914Y-33117D01*
X21914Y-33049D01*
X21923Y-33031D01*
X21933Y-33023D01*
X21951Y-33014D01*
X21980Y-33014D01*
X21998Y-33023D01*
X22008Y-33031D01*
X22017Y-33049D01*
X22017Y-33117D01*
X22111Y-32843D02*
X22111Y-32946D01*
X22111Y-32894D02*
X21914Y-32894D01*
X21942Y-32911D01*
X21961Y-32929D01*
X21970Y-32946D01*
X21914Y-32783D02*
X21914Y-32671D01*
X21989Y-32731D01*
X21989Y-32706D01*
X21998Y-32689D01*
X22008Y-32680D01*
X22026Y-32671D01*
X22073Y-32671D01*
X22092Y-32680D01*
X22101Y-32689D01*
X22111Y-32706D01*
X22111Y-32757D01*
X22101Y-32774D01*
X22092Y-32783D01*
X27623Y-23290D02*
X27529Y-23350D01*
X27623Y-23393D02*
X27426Y-23393D01*
X27426Y-23324D01*
X27435Y-23307D01*
X27444Y-23298D01*
X27463Y-23290D01*
X27491Y-23290D01*
X27510Y-23298D01*
X27519Y-23307D01*
X27529Y-23324D01*
X27529Y-23393D01*
X27623Y-23118D02*
X27623Y-23221D01*
X27623Y-23170D02*
X27426Y-23170D01*
X27454Y-23187D01*
X27473Y-23204D01*
X27482Y-23221D01*
X27444Y-23050D02*
X27435Y-23041D01*
X27426Y-23024D01*
X27426Y-22981D01*
X27435Y-22964D01*
X27444Y-22956D01*
X27463Y-22947D01*
X27482Y-22947D01*
X27510Y-22956D01*
X27623Y-23058D01*
X27623Y-22947D01*
X27623Y-22306D02*
X27529Y-22366D01*
X27623Y-22408D02*
X27426Y-22408D01*
X27426Y-22340D01*
X27435Y-22323D01*
X27444Y-22314D01*
X27463Y-22306D01*
X27491Y-22306D01*
X27510Y-22314D01*
X27519Y-22323D01*
X27529Y-22340D01*
X27529Y-22408D01*
X27623Y-22134D02*
X27623Y-22237D01*
X27623Y-22186D02*
X27426Y-22186D01*
X27454Y-22203D01*
X27473Y-22220D01*
X27482Y-22237D01*
X27623Y-21963D02*
X27623Y-22066D01*
X27623Y-22014D02*
X27426Y-22014D01*
X27454Y-22031D01*
X27473Y-22048D01*
X27482Y-22066D01*
X27623Y-21282D02*
X27529Y-21342D01*
X27623Y-21385D02*
X27426Y-21385D01*
X27426Y-21316D01*
X27435Y-21299D01*
X27444Y-21291D01*
X27463Y-21282D01*
X27491Y-21282D01*
X27510Y-21291D01*
X27519Y-21299D01*
X27529Y-21316D01*
X27529Y-21385D01*
X27623Y-21111D02*
X27623Y-21213D01*
X27623Y-21162D02*
X27426Y-21162D01*
X27454Y-21179D01*
X27473Y-21196D01*
X27482Y-21213D01*
X27426Y-20999D02*
X27426Y-20982D01*
X27435Y-20965D01*
X27444Y-20956D01*
X27463Y-20948D01*
X27501Y-20939D01*
X27548Y-20939D01*
X27585Y-20948D01*
X27604Y-20956D01*
X27613Y-20965D01*
X27623Y-20982D01*
X27623Y-20999D01*
X27613Y-21016D01*
X27604Y-21025D01*
X27585Y-21033D01*
X27548Y-21042D01*
X27501Y-21042D01*
X27463Y-21033D01*
X27444Y-21025D01*
X27435Y-21016D01*
X27426Y-20999D01*
X27623Y-20133D02*
X27529Y-20193D01*
X27623Y-20236D02*
X27426Y-20236D01*
X27426Y-20168D01*
X27435Y-20150D01*
X27444Y-20142D01*
X27463Y-20133D01*
X27491Y-20133D01*
X27510Y-20142D01*
X27519Y-20150D01*
X27529Y-20168D01*
X27529Y-20236D01*
X27623Y-20048D02*
X27623Y-20013D01*
X27613Y-19996D01*
X27604Y-19988D01*
X27576Y-19970D01*
X27538Y-19962D01*
X27463Y-19962D01*
X27444Y-19970D01*
X27435Y-19979D01*
X27426Y-19996D01*
X27426Y-20030D01*
X27435Y-20048D01*
X27444Y-20056D01*
X27463Y-20065D01*
X27510Y-20065D01*
X27529Y-20056D01*
X27538Y-20048D01*
X27548Y-20030D01*
X27548Y-19996D01*
X27538Y-19979D01*
X27529Y-19970D01*
X27510Y-19962D01*
X24512Y-20173D02*
X24419Y-20233D01*
X24512Y-20275D02*
X24315Y-20275D01*
X24315Y-20207D01*
X24325Y-20190D01*
X24334Y-20181D01*
X24353Y-20173D01*
X24381Y-20173D01*
X24400Y-20181D01*
X24409Y-20190D01*
X24419Y-20207D01*
X24419Y-20275D01*
X24400Y-20070D02*
X24390Y-20087D01*
X24381Y-20095D01*
X24362Y-20104D01*
X24353Y-20104D01*
X24334Y-20095D01*
X24325Y-20087D01*
X24315Y-20070D01*
X24315Y-20035D01*
X24325Y-20018D01*
X24334Y-20010D01*
X24353Y-20001D01*
X24362Y-20001D01*
X24381Y-20010D01*
X24390Y-20018D01*
X24400Y-20035D01*
X24400Y-20070D01*
X24409Y-20087D01*
X24419Y-20095D01*
X24437Y-20104D01*
X24475Y-20104D01*
X24494Y-20095D01*
X24503Y-20087D01*
X24512Y-20070D01*
X24512Y-20035D01*
X24503Y-20018D01*
X24494Y-20010D01*
X24475Y-20001D01*
X24437Y-20001D01*
X24419Y-20010D01*
X24409Y-20018D01*
X24400Y-20035D01*
X21816Y-26531D02*
X21722Y-26591D01*
X21816Y-26634D02*
X21619Y-26634D01*
X21619Y-26565D01*
X21628Y-26548D01*
X21637Y-26539D01*
X21656Y-26531D01*
X21684Y-26531D01*
X21703Y-26539D01*
X21712Y-26548D01*
X21722Y-26565D01*
X21722Y-26634D01*
X21619Y-26471D02*
X21619Y-26351D01*
X21816Y-26428D01*
X21757Y-23480D02*
X21663Y-23540D01*
X21757Y-23583D02*
X21560Y-23583D01*
X21560Y-23514D01*
X21569Y-23497D01*
X21578Y-23488D01*
X21597Y-23480D01*
X21625Y-23480D01*
X21644Y-23488D01*
X21653Y-23497D01*
X21663Y-23514D01*
X21663Y-23583D01*
X21560Y-23325D02*
X21560Y-23360D01*
X21569Y-23377D01*
X21578Y-23385D01*
X21606Y-23403D01*
X21644Y-23411D01*
X21719Y-23411D01*
X21738Y-23403D01*
X21747Y-23394D01*
X21757Y-23377D01*
X21757Y-23343D01*
X21747Y-23325D01*
X21738Y-23317D01*
X21719Y-23308D01*
X21672Y-23308D01*
X21653Y-23317D01*
X21644Y-23325D01*
X21635Y-23343D01*
X21635Y-23377D01*
X21644Y-23394D01*
X21653Y-23403D01*
X21672Y-23411D01*
X21914Y-20173D02*
X21820Y-20233D01*
X21914Y-20275D02*
X21717Y-20275D01*
X21717Y-20207D01*
X21726Y-20190D01*
X21736Y-20181D01*
X21755Y-20173D01*
X21783Y-20173D01*
X21801Y-20181D01*
X21811Y-20190D01*
X21820Y-20207D01*
X21820Y-20275D01*
X21717Y-20010D02*
X21717Y-20095D01*
X21811Y-20104D01*
X21801Y-20095D01*
X21792Y-20078D01*
X21792Y-20035D01*
X21801Y-20018D01*
X21811Y-20010D01*
X21830Y-20001D01*
X21876Y-20001D01*
X21895Y-20010D01*
X21905Y-20018D01*
X21914Y-20035D01*
X21914Y-20078D01*
X21905Y-20095D01*
X21895Y-20104D01*
X31166Y-34976D02*
X31072Y-35036D01*
X31166Y-35079D02*
X30969Y-35079D01*
X30969Y-35010D01*
X30978Y-34993D01*
X30988Y-34984D01*
X31007Y-34976D01*
X31035Y-34976D01*
X31053Y-34984D01*
X31063Y-34993D01*
X31072Y-35010D01*
X31072Y-35079D01*
X31035Y-34821D02*
X31166Y-34821D01*
X30960Y-34864D02*
X31100Y-34907D01*
X31100Y-34796D01*
X31728Y-35068D02*
X31862Y-35068D01*
X31652Y-35111D02*
X31795Y-35154D01*
X31795Y-35043D01*
X31843Y-34974D02*
X31852Y-34965D01*
X31862Y-34974D01*
X31852Y-34983D01*
X31843Y-34974D01*
X31862Y-34974D01*
X31662Y-34905D02*
X31662Y-34785D01*
X31862Y-34863D01*
X31862Y-34717D02*
X31662Y-34717D01*
X31785Y-34700D02*
X31862Y-34648D01*
X31728Y-34648D02*
X31804Y-34717D01*
X32594Y-20083D02*
X32500Y-20143D01*
X32594Y-20186D02*
X32397Y-20186D01*
X32397Y-20118D01*
X32406Y-20100D01*
X32416Y-20092D01*
X32434Y-20083D01*
X32463Y-20083D01*
X32481Y-20092D01*
X32491Y-20100D01*
X32500Y-20118D01*
X32500Y-20186D01*
X32397Y-20023D02*
X32397Y-19912D01*
X32472Y-19972D01*
X32472Y-19946D01*
X32481Y-19929D01*
X32491Y-19920D01*
X32510Y-19912D01*
X32556Y-19912D01*
X32575Y-19920D01*
X32585Y-19929D01*
X32594Y-19946D01*
X32594Y-19998D01*
X32585Y-20015D01*
X32575Y-20023D01*
X31768Y-20245D02*
X31901Y-20245D01*
X31691Y-20288D02*
X31834Y-20331D01*
X31834Y-20220D01*
X31882Y-20151D02*
X31891Y-20143D01*
X31901Y-20151D01*
X31891Y-20160D01*
X31882Y-20151D01*
X31901Y-20151D01*
X31701Y-20083D02*
X31701Y-19963D01*
X31901Y-20040D01*
X31901Y-19894D02*
X31701Y-19894D01*
X31825Y-19877D02*
X31901Y-19825D01*
X31768Y-19825D02*
X31844Y-19894D01*
X21401Y-28312D02*
X21341Y-28218D01*
X21298Y-28312D02*
X21298Y-28115D01*
X21367Y-28115D01*
X21384Y-28124D01*
X21393Y-28133D01*
X21401Y-28152D01*
X21401Y-28180D01*
X21393Y-28199D01*
X21384Y-28208D01*
X21367Y-28218D01*
X21298Y-28218D01*
X21470Y-28133D02*
X21478Y-28124D01*
X21495Y-28115D01*
X21538Y-28115D01*
X21555Y-28124D01*
X21564Y-28133D01*
X21573Y-28152D01*
X21573Y-28171D01*
X21564Y-28199D01*
X21461Y-28312D01*
X21573Y-28312D01*
X21289Y-27535D02*
X21289Y-27668D01*
X21246Y-27458D02*
X21203Y-27601D01*
X21315Y-27601D01*
X21383Y-27649D02*
X21392Y-27658D01*
X21383Y-27668D01*
X21375Y-27658D01*
X21383Y-27649D01*
X21383Y-27668D01*
X21452Y-27468D02*
X21572Y-27468D01*
X21495Y-27668D01*
X21640Y-27668D02*
X21640Y-27468D01*
X21658Y-27592D02*
X21709Y-27668D01*
X21709Y-27535D02*
X21640Y-27611D01*
X23342Y-26481D02*
X23248Y-26541D01*
X23342Y-26584D02*
X23145Y-26584D01*
X23145Y-26515D01*
X23154Y-26498D01*
X23164Y-26489D01*
X23182Y-26481D01*
X23211Y-26481D01*
X23229Y-26489D01*
X23239Y-26498D01*
X23248Y-26515D01*
X23248Y-26584D01*
X23342Y-26309D02*
X23342Y-26412D01*
X23342Y-26361D02*
X23145Y-26361D01*
X23173Y-26378D01*
X23192Y-26395D01*
X23201Y-26412D01*
X23854Y-26623D02*
X23988Y-26623D01*
X23778Y-26666D02*
X23921Y-26709D01*
X23921Y-26598D01*
X23969Y-26529D02*
X23978Y-26520D01*
X23988Y-26529D01*
X23978Y-26538D01*
X23969Y-26529D01*
X23988Y-26529D01*
X23788Y-26460D02*
X23788Y-26340D01*
X23988Y-26418D01*
X23988Y-26272D02*
X23788Y-26272D01*
X23911Y-26255D02*
X23988Y-26203D01*
X23854Y-26203D02*
X23930Y-26272D01*
M02*
