G04 (created by PCBNEW (2013-mar-13)-testing) date Tue 30 Sep 2014 12:27:09 PM PDT*
%MOIN*%
G04 Gerber Fmt 3.4, Leading zero omitted, Abs format*
%FSLAX34Y34*%
G01*
G70*
G90*
G04 APERTURE LIST*
%ADD10C,0.005906*%
%ADD11C,0.065000*%
%ADD12R,0.060000X0.060000*%
%ADD13C,0.060000*%
%ADD14C,0.030000*%
%ADD15C,0.007000*%
G04 APERTURE END LIST*
G54D10*
G54D11*
X20669Y-20122D03*
X20669Y-21122D03*
X20669Y-22122D03*
X20669Y-23122D03*
X20669Y-24122D03*
X20669Y-25122D03*
X20669Y-26122D03*
X20669Y-27122D03*
X26574Y-27122D03*
X26574Y-26122D03*
X26574Y-25122D03*
X26574Y-24122D03*
X26574Y-23122D03*
X26574Y-22122D03*
X26574Y-21122D03*
X26574Y-20122D03*
X20669Y-27996D03*
X20669Y-28996D03*
X20669Y-29996D03*
X20669Y-30996D03*
X20669Y-31996D03*
X20669Y-32996D03*
X20669Y-33996D03*
X20669Y-34996D03*
X26574Y-34996D03*
X26574Y-33996D03*
X26574Y-32996D03*
X26574Y-31996D03*
X26574Y-30996D03*
X26574Y-29996D03*
X26574Y-28996D03*
X26574Y-27996D03*
X28543Y-20122D03*
X28543Y-21122D03*
X28543Y-22122D03*
X28543Y-23122D03*
X28543Y-24122D03*
X28543Y-25122D03*
X28543Y-26122D03*
X28543Y-27122D03*
X34448Y-27122D03*
X34448Y-26122D03*
X34448Y-25122D03*
X34448Y-24122D03*
X34448Y-23122D03*
X34448Y-22122D03*
X34448Y-21122D03*
X34448Y-20122D03*
X28543Y-27996D03*
X28543Y-28996D03*
X28543Y-29996D03*
X28543Y-30996D03*
X28543Y-31996D03*
X28543Y-32996D03*
X28543Y-33996D03*
X28543Y-34996D03*
X34448Y-34996D03*
X34448Y-33996D03*
X34448Y-32996D03*
X34448Y-31996D03*
X34448Y-30996D03*
X34448Y-29996D03*
X34448Y-28996D03*
X34448Y-27996D03*
G54D12*
X21744Y-24500D03*
G54D13*
X21744Y-25500D03*
X22744Y-24500D03*
X22744Y-25500D03*
G54D12*
X21744Y-30799D03*
G54D13*
X21744Y-31799D03*
X22744Y-30799D03*
X22744Y-31799D03*
G54D12*
X32374Y-24500D03*
G54D13*
X32374Y-25500D03*
X33374Y-24500D03*
X33374Y-25500D03*
G54D12*
X32374Y-30799D03*
G54D13*
X32374Y-31799D03*
X33374Y-30799D03*
X33374Y-31799D03*
G54D14*
X31377Y-26259D03*
X29803Y-26102D03*
X24213Y-20988D03*
X22030Y-20750D03*
X21922Y-22660D03*
X23173Y-33187D03*
X22666Y-29603D03*
X27678Y-25895D03*
X29993Y-23367D03*
X25060Y-20495D03*
X23241Y-23344D03*
X29282Y-26151D03*
X30421Y-23673D03*
X25586Y-20958D03*
X23587Y-23697D03*
X27801Y-29188D03*
X23680Y-30015D03*
X29575Y-20668D03*
X29402Y-23423D03*
X33213Y-27375D03*
X30602Y-30254D03*
X26111Y-21678D03*
X25176Y-23306D03*
X32625Y-20938D03*
X32658Y-23098D03*
X25602Y-31792D03*
X25742Y-29219D03*
X25615Y-21430D03*
X25717Y-28104D03*
X33193Y-23422D03*
X33090Y-22068D03*
X33778Y-21364D03*
X32192Y-26889D03*
X25176Y-27682D03*
X24620Y-20608D03*
X30433Y-25905D03*
X24902Y-25647D03*
X25579Y-21834D03*
X31743Y-20819D03*
X29633Y-22698D03*
X21968Y-29733D03*
X21908Y-28369D03*
X29601Y-29307D03*
X22439Y-22072D03*
X25313Y-32038D03*
X29544Y-22003D03*
X29938Y-28393D03*
X22809Y-22211D03*
X22740Y-28605D03*
X29875Y-22227D03*
X29656Y-28821D03*
X25698Y-22519D03*
X27686Y-32863D03*
X33161Y-22584D03*
X32871Y-28971D03*
X26123Y-22576D03*
X25836Y-25826D03*
X25716Y-28479D03*
X33872Y-22286D03*
X32943Y-28543D03*
X31759Y-26834D03*
X32347Y-21359D03*
X25070Y-27296D03*
X24723Y-20984D03*
X29528Y-25056D03*
X30972Y-31799D03*
X24524Y-31795D03*
X30998Y-30094D03*
X30316Y-24268D03*
X27631Y-24660D03*
X26294Y-32498D03*
X31824Y-19977D03*
X23171Y-20307D03*
X21541Y-20576D03*
G54D15*
X29960Y-26259D02*
X31377Y-26259D01*
X29803Y-26102D02*
X29960Y-26259D01*
X21744Y-24500D02*
X21744Y-24094D01*
X24213Y-21366D02*
X24213Y-20988D01*
X21744Y-23836D02*
X24213Y-21366D01*
X21744Y-24094D02*
X21744Y-23836D01*
X22030Y-22552D02*
X21922Y-22660D01*
X22030Y-20750D02*
X22030Y-22552D01*
X23173Y-30110D02*
X22666Y-29603D01*
X23173Y-33187D02*
X23173Y-30110D01*
X29993Y-23416D02*
X29993Y-23367D01*
X28729Y-24680D02*
X29993Y-23416D01*
X28351Y-24680D02*
X28729Y-24680D01*
X27678Y-25353D02*
X28351Y-24680D01*
X27678Y-25895D02*
X27678Y-25353D01*
X25060Y-21163D02*
X25060Y-20495D01*
X23241Y-22983D02*
X25060Y-21163D01*
X23241Y-23344D02*
X23241Y-22983D01*
X30591Y-23843D02*
X30421Y-23673D01*
X30591Y-24841D02*
X30591Y-23843D01*
X29282Y-26151D02*
X30591Y-24841D01*
X23587Y-22957D02*
X23587Y-23697D01*
X25586Y-20958D02*
X23587Y-22957D01*
X23680Y-29911D02*
X23680Y-30015D01*
X22470Y-28700D02*
X23680Y-29911D01*
X22470Y-28500D02*
X22470Y-28700D01*
X22640Y-28330D02*
X22470Y-28500D01*
X22826Y-28330D02*
X22640Y-28330D01*
X23234Y-28738D02*
X22826Y-28330D01*
X26131Y-28738D02*
X23234Y-28738D01*
X26314Y-28555D02*
X26131Y-28738D01*
X27168Y-28555D02*
X26314Y-28555D01*
X27801Y-29188D02*
X27168Y-28555D01*
X29285Y-23306D02*
X29402Y-23423D01*
X29285Y-20957D02*
X29285Y-23306D01*
X29575Y-20668D02*
X29285Y-20957D01*
X32474Y-28114D02*
X33213Y-27375D01*
X29834Y-28114D02*
X32474Y-28114D01*
X29345Y-28603D02*
X29834Y-28114D01*
X29345Y-29417D02*
X29345Y-28603D01*
X30182Y-30254D02*
X29345Y-29417D01*
X30602Y-30254D02*
X30182Y-30254D01*
X25176Y-22614D02*
X26111Y-21678D01*
X25176Y-23306D02*
X25176Y-22614D01*
X32625Y-21442D02*
X32625Y-20938D01*
X32596Y-21471D02*
X32625Y-21442D01*
X32596Y-23036D02*
X32596Y-21471D01*
X32658Y-23098D02*
X32596Y-23036D01*
X25742Y-31652D02*
X25602Y-31792D01*
X25742Y-29219D02*
X25742Y-31652D01*
X24234Y-22812D02*
X25615Y-21430D01*
X24234Y-23412D02*
X24234Y-22812D01*
X23146Y-24500D02*
X24234Y-23412D01*
X22744Y-24500D02*
X23146Y-24500D01*
X25659Y-28046D02*
X25717Y-28104D01*
X22504Y-28046D02*
X25659Y-28046D01*
X22165Y-28385D02*
X22504Y-28046D01*
X22165Y-29251D02*
X22165Y-28385D01*
X22411Y-29497D02*
X22165Y-29251D01*
X22411Y-30466D02*
X22411Y-29497D01*
X22744Y-30799D02*
X22411Y-30466D01*
X32906Y-22253D02*
X33090Y-22068D01*
X32906Y-22715D02*
X32906Y-22253D01*
X33193Y-23003D02*
X32906Y-22715D01*
X33193Y-23422D02*
X33193Y-23003D01*
X32192Y-26889D02*
X32582Y-26889D01*
X33402Y-27119D02*
X33841Y-27559D01*
X33841Y-27559D02*
X34647Y-27559D01*
X34647Y-27559D02*
X35168Y-27037D01*
X35168Y-27037D02*
X35168Y-22203D01*
X35168Y-22203D02*
X34586Y-21622D01*
X34586Y-21622D02*
X34036Y-21622D01*
X34036Y-21622D02*
X33778Y-21364D01*
X32812Y-27119D02*
X33402Y-27119D01*
X32582Y-26889D02*
X32812Y-27119D01*
X25176Y-27682D02*
X25396Y-27682D01*
X31519Y-27562D02*
X32192Y-26889D01*
X25515Y-27562D02*
X31519Y-27562D01*
X25396Y-27682D02*
X25515Y-27562D01*
X21744Y-30799D02*
X21744Y-30394D01*
X21338Y-26923D02*
X22098Y-27682D01*
X21338Y-25288D02*
X21338Y-26923D01*
X21722Y-24905D02*
X21338Y-25288D01*
X22095Y-24905D02*
X21722Y-24905D01*
X22149Y-24851D02*
X22095Y-24905D01*
X22149Y-23678D02*
X22149Y-24851D01*
X24468Y-21359D02*
X22149Y-23678D01*
X24468Y-20760D02*
X24468Y-21359D01*
X24620Y-20608D02*
X24468Y-20760D01*
X21653Y-30303D02*
X21744Y-30394D01*
X21653Y-28127D02*
X21653Y-30303D01*
X22098Y-27682D02*
X21653Y-28127D01*
X22098Y-27682D02*
X25176Y-27682D01*
X25176Y-27682D02*
X25299Y-27559D01*
X32374Y-24791D02*
X32374Y-24500D01*
X31259Y-25905D02*
X32374Y-24791D01*
X30433Y-25905D02*
X31259Y-25905D01*
X24902Y-22511D02*
X25579Y-21834D01*
X24902Y-25647D02*
X24902Y-22511D01*
X32779Y-24077D02*
X31743Y-23041D01*
X32779Y-24905D02*
X32779Y-24077D01*
X33374Y-25500D02*
X32779Y-24905D01*
X31743Y-23041D02*
X31743Y-20819D01*
X31743Y-23041D02*
X29737Y-23041D01*
X29737Y-23453D02*
X29737Y-23041D01*
X29499Y-23691D02*
X29737Y-23453D01*
X28238Y-23691D02*
X29499Y-23691D01*
X27376Y-24554D02*
X28238Y-23691D01*
X27376Y-24929D02*
X27376Y-24554D01*
X26635Y-25669D02*
X27376Y-24929D01*
X26412Y-25669D02*
X26635Y-25669D01*
X25997Y-26084D02*
X26412Y-25669D01*
X23328Y-26084D02*
X25997Y-26084D01*
X22744Y-25500D02*
X23328Y-26084D01*
X29737Y-22802D02*
X29633Y-22698D01*
X29737Y-23041D02*
X29737Y-22802D01*
X22271Y-30036D02*
X21968Y-29733D01*
X22271Y-31326D02*
X22271Y-30036D01*
X22744Y-31799D02*
X22271Y-31326D01*
X21908Y-29673D02*
X21908Y-28369D01*
X21968Y-29733D02*
X21908Y-29673D01*
X32374Y-30799D02*
X31968Y-30799D01*
X30577Y-29307D02*
X29601Y-29307D01*
X31968Y-30698D02*
X30577Y-29307D01*
X31968Y-30799D02*
X31968Y-30698D01*
X24451Y-20060D02*
X22439Y-22072D01*
X25746Y-20060D02*
X24451Y-20060D01*
X26290Y-20604D02*
X25746Y-20060D01*
X26686Y-20604D02*
X26290Y-20604D01*
X27176Y-21094D02*
X26686Y-20604D01*
X27176Y-23520D02*
X27176Y-21094D01*
X26574Y-24122D02*
X27176Y-23520D01*
X25342Y-32068D02*
X25313Y-32038D01*
X26502Y-32068D02*
X25342Y-32068D01*
X26574Y-31996D02*
X26502Y-32068D01*
X31137Y-20411D02*
X29544Y-22003D01*
X32704Y-20411D02*
X31137Y-20411D01*
X33487Y-21194D02*
X32704Y-20411D01*
X33487Y-23156D02*
X33487Y-21194D01*
X34448Y-24117D02*
X33487Y-23156D01*
X34448Y-24122D02*
X34448Y-24117D01*
X33779Y-31326D02*
X34448Y-31996D01*
X33779Y-30621D02*
X33779Y-31326D01*
X31551Y-28393D02*
X33779Y-30621D01*
X29938Y-28393D02*
X31551Y-28393D01*
X22809Y-22001D02*
X22809Y-22211D01*
X24582Y-20228D02*
X22809Y-22001D01*
X25216Y-20228D02*
X24582Y-20228D01*
X25841Y-20853D02*
X25216Y-20228D01*
X25841Y-21020D02*
X25841Y-20853D01*
X26375Y-21554D02*
X25841Y-21020D01*
X26636Y-21554D02*
X26375Y-21554D01*
X27020Y-21938D02*
X26636Y-21554D01*
X27020Y-23305D02*
X27020Y-21938D01*
X26704Y-23622D02*
X27020Y-23305D01*
X26451Y-23622D02*
X26704Y-23622D01*
X26144Y-23929D02*
X26451Y-23622D01*
X26144Y-24691D02*
X26144Y-23929D01*
X26574Y-25122D02*
X26144Y-24691D01*
X24944Y-30809D02*
X22740Y-28605D01*
X24944Y-32030D02*
X24944Y-30809D01*
X25909Y-32996D02*
X24944Y-32030D01*
X26574Y-32996D02*
X25909Y-32996D01*
X34448Y-24997D02*
X34448Y-25122D01*
X33288Y-23836D02*
X34448Y-24997D01*
X33224Y-23836D02*
X33288Y-23836D01*
X32915Y-23526D02*
X33224Y-23836D01*
X32915Y-22922D02*
X32915Y-23526D01*
X32759Y-22767D02*
X32915Y-22922D01*
X32759Y-21576D02*
X32759Y-22767D01*
X32906Y-21429D02*
X32759Y-21576D01*
X32906Y-20852D02*
X32906Y-21429D01*
X32604Y-20551D02*
X32906Y-20852D01*
X31552Y-20551D02*
X32604Y-20551D01*
X29875Y-22227D02*
X31552Y-20551D01*
X33878Y-32426D02*
X34448Y-32996D01*
X33878Y-31697D02*
X33878Y-32426D01*
X33481Y-31299D02*
X33878Y-31697D01*
X33298Y-31299D02*
X33481Y-31299D01*
X32929Y-30929D02*
X33298Y-31299D01*
X32929Y-30597D02*
X32929Y-30929D01*
X31154Y-28821D02*
X32929Y-30597D01*
X29656Y-28821D02*
X31154Y-28821D01*
X25613Y-22604D02*
X25698Y-22519D01*
X25613Y-25299D02*
X25613Y-22604D01*
X24994Y-25918D02*
X25613Y-25299D01*
X24565Y-25918D02*
X24994Y-25918D01*
X23722Y-25076D02*
X24565Y-25918D01*
X22568Y-25076D02*
X23722Y-25076D01*
X22337Y-25307D02*
X22568Y-25076D01*
X22337Y-25680D02*
X22337Y-25307D01*
X22887Y-26230D02*
X22337Y-25680D01*
X26466Y-26230D02*
X22887Y-26230D01*
X26574Y-26122D02*
X26466Y-26230D01*
X27686Y-32884D02*
X27686Y-32863D01*
X26574Y-33996D02*
X27686Y-32884D01*
X33338Y-22761D02*
X33161Y-22584D01*
X33338Y-23205D02*
X33338Y-22761D01*
X33449Y-23316D02*
X33338Y-23205D01*
X33449Y-23736D02*
X33449Y-23316D01*
X34265Y-24552D02*
X33449Y-23736D01*
X34495Y-24552D02*
X34265Y-24552D01*
X34884Y-24941D02*
X34495Y-24552D01*
X34884Y-25686D02*
X34884Y-24941D01*
X34448Y-26122D02*
X34884Y-25686D01*
X34018Y-30118D02*
X32871Y-28971D01*
X34018Y-31186D02*
X34018Y-30118D01*
X34328Y-31496D02*
X34018Y-31186D01*
X34586Y-31496D02*
X34328Y-31496D01*
X34881Y-31790D02*
X34586Y-31496D01*
X34881Y-33563D02*
X34881Y-31790D01*
X34448Y-33996D02*
X34881Y-33563D01*
X25836Y-22864D02*
X25836Y-25826D01*
X26123Y-22576D02*
X25836Y-22864D01*
X25426Y-28190D02*
X25716Y-28479D01*
X22571Y-28190D02*
X25426Y-28190D01*
X22305Y-28455D02*
X22571Y-28190D01*
X22305Y-28734D02*
X22305Y-28455D01*
X23315Y-29743D02*
X22305Y-28734D01*
X23315Y-31736D02*
X23315Y-29743D01*
X26574Y-34996D02*
X23315Y-31736D01*
X35024Y-26546D02*
X34448Y-27122D01*
X35024Y-24089D02*
X35024Y-26546D01*
X34557Y-23622D02*
X35024Y-24089D01*
X34334Y-23622D02*
X34557Y-23622D01*
X33872Y-23160D02*
X34334Y-23622D01*
X33872Y-22286D02*
X33872Y-23160D01*
X33886Y-29486D02*
X32943Y-28543D01*
X34555Y-29486D02*
X33886Y-29486D01*
X35021Y-29952D02*
X34555Y-29486D01*
X35021Y-34423D02*
X35021Y-29952D01*
X34448Y-34996D02*
X35021Y-34423D01*
X31614Y-26688D02*
X31472Y-26688D01*
X31759Y-26834D02*
X31614Y-26688D01*
X31385Y-26688D02*
X31472Y-26688D01*
X32347Y-21359D02*
X32347Y-23339D01*
X32347Y-23339D02*
X32968Y-23960D01*
X32968Y-23960D02*
X32968Y-24679D01*
X32968Y-24679D02*
X33289Y-25000D01*
X33289Y-25000D02*
X33462Y-25000D01*
X33462Y-25000D02*
X33779Y-25316D01*
X33779Y-25316D02*
X33779Y-25670D01*
X25678Y-26688D02*
X25070Y-27296D01*
X25678Y-26688D02*
X31385Y-26688D01*
X33779Y-25889D02*
X33779Y-25670D01*
X33570Y-26098D02*
X33779Y-25889D01*
X32062Y-26098D02*
X33570Y-26098D01*
X31472Y-26688D02*
X32062Y-26098D01*
X21766Y-25500D02*
X21744Y-25500D01*
X21860Y-25406D02*
X21766Y-25500D01*
X24723Y-21302D02*
X24723Y-20984D01*
X22337Y-23688D02*
X24723Y-21302D01*
X22337Y-24929D02*
X22337Y-23688D01*
X21860Y-25406D02*
X22337Y-24929D01*
X23751Y-27296D02*
X25070Y-27296D01*
X21860Y-25406D02*
X23751Y-27296D01*
X32374Y-31799D02*
X30972Y-31799D01*
X30972Y-31799D02*
X30940Y-31767D01*
X30998Y-31709D02*
X30998Y-30094D01*
X30940Y-31767D02*
X30998Y-31709D01*
X30211Y-32496D02*
X30940Y-31767D01*
X27692Y-32496D02*
X30211Y-32496D01*
X26759Y-33428D02*
X27692Y-32496D01*
X26109Y-33428D02*
X26759Y-33428D01*
X24524Y-31843D02*
X26109Y-33428D01*
X24524Y-31795D02*
X24524Y-31843D01*
X27631Y-25135D02*
X27631Y-24660D01*
X27417Y-25349D02*
X27631Y-25135D01*
X27417Y-26005D02*
X27417Y-25349D01*
X27566Y-26154D02*
X27417Y-26005D01*
X27886Y-26154D02*
X27566Y-26154D01*
X28409Y-25631D02*
X27886Y-26154D01*
X28953Y-25631D02*
X28409Y-25631D01*
X29528Y-25056D02*
X28953Y-25631D01*
X30316Y-24268D02*
X29528Y-25056D01*
X27007Y-29428D02*
X26574Y-28996D01*
X27007Y-32173D02*
X27007Y-29428D01*
X26682Y-32498D02*
X27007Y-32173D01*
X26294Y-32498D02*
X26682Y-32498D01*
X34303Y-19977D02*
X31824Y-19977D01*
X34448Y-20122D02*
X34303Y-19977D01*
X21198Y-26592D02*
X20669Y-27122D01*
X21198Y-23977D02*
X21198Y-26592D01*
X22177Y-22998D02*
X21198Y-23977D01*
X22177Y-21301D02*
X22177Y-22998D01*
X23171Y-20307D02*
X22177Y-21301D01*
X21541Y-23249D02*
X20669Y-24122D01*
X21541Y-20576D02*
X21541Y-23249D01*
M02*
