M48
;DRILL file {Pcbnew (2013-mar-13)-testing} date Tue 30 Sep 2014 12:27:07 PM PDT
;FORMAT={2:4/ absolute / inch / suppress trailing zeros}
FMAT,2
INCH,LZ
T1C0.020
T2C0.040
%
G90
G05
M72
T1
X021542Y-020577
X021909Y-028369
X021922Y-02266
X021969Y-029734
X022031Y-020751
X022439Y-022073
X022667Y-029604
X022741Y-028605
X022809Y-022212
X023172Y-020308
X023174Y-033188
X023241Y-023344
X023588Y-023698
X023681Y-030015
X024214Y-020988
X024524Y-031796
X024621Y-020608
X024724Y-020985
X024903Y-025647
X02506Y-020496
X02507Y-027297
X025176Y-023307
X025176Y-027682
X025313Y-032039
X02558Y-021834
X025587Y-020959
X025603Y-031792
X025616Y-021431
X025698Y-02252
X025716Y-02848
X025717Y-028104
X025743Y-02922
X025836Y-025827
X026112Y-021679
X026124Y-022577
X026295Y-032499
X027631Y-02466
X027678Y-025896
X027686Y-032864
X027801Y-029188
X029283Y-026151
X029403Y-023423
X029529Y-025056
X029545Y-022003
X029575Y-020668
X029601Y-029307
X029634Y-022699
X029657Y-028822
X029803Y-026102
X029876Y-022227
X029938Y-028394
X029993Y-023368
X030316Y-024269
X030422Y-023673
X030433Y-025906
X030603Y-030255
X030972Y-031799
X030998Y-030094
X031378Y-02626
X031744Y-020819
X03176Y-026835
X031824Y-019977
X032193Y-02689
X032348Y-021359
X032626Y-020938
X032659Y-023099
X032871Y-028972
X032944Y-028544
X033091Y-022068
X033161Y-022584
X033194Y-023422
X033213Y-027375
X033778Y-021364
X033873Y-022286
T2
X020669Y-020122
X020669Y-021122
X020669Y-022122
X020669Y-023122
X020669Y-024122
X020669Y-025122
X020669Y-026122
X020669Y-027122
X020669Y-027996
X020669Y-028996
X020669Y-029996
X020669Y-030996
X020669Y-031996
X020669Y-032996
X020669Y-033996
X020669Y-034996
X021744Y-0245
X021744Y-0255
X021744Y-030799
X021744Y-031799
X022744Y-0245
X022744Y-0255
X022744Y-030799
X022744Y-031799
X026575Y-020122
X026575Y-021122
X026575Y-022122
X026575Y-023122
X026575Y-024122
X026575Y-025122
X026575Y-026122
X026575Y-027122
X026575Y-027996
X026575Y-028996
X026575Y-029996
X026575Y-030996
X026575Y-031996
X026575Y-032996
X026575Y-033996
X026575Y-034996
X028543Y-020122
X028543Y-021122
X028543Y-022122
X028543Y-023122
X028543Y-024122
X028543Y-025122
X028543Y-026122
X028543Y-027122
X028543Y-027996
X028543Y-028996
X028543Y-029996
X028543Y-030996
X028543Y-031996
X028543Y-032996
X028543Y-033996
X028543Y-034996
X032374Y-0245
X032374Y-0255
X032374Y-030799
X032374Y-031799
X033374Y-0245
X033374Y-0255
X033374Y-030799
X033374Y-031799
X034449Y-020122
X034449Y-021122
X034449Y-022122
X034449Y-023122
X034449Y-024122
X034449Y-025122
X034449Y-026122
X034449Y-027122
X034449Y-027996
X034449Y-028996
X034449Y-029996
X034449Y-030996
X034449Y-031996
X034449Y-032996
X034449Y-033996
X034449Y-034996
T0
M30
