G04 ================== begin FILE IDENTIFICATION RECORD ==================*
G04 Layout Name:  LED Panel G4 V1, 03-26-2017.brd*
G04 Film Name:    LAYER_2*
G04 File Format:  Gerber RS274X*
G04 File Origin:  Cadence Allegro 17.4-S007*
G04 Origin Date:  Wed Nov 11 20:24:18 2020*
G04 *
G04 Layer:  VIA CLASS/LAYER_2*
G04 Layer:  PIN/LAYER_2*
G04 Layer:  ETCH/LAYER_2*
G04 Layer:  BOARD GEOMETRY/OUTLINE*
G04 *
G04 Offset:    (0.0000 0.0000)*
G04 Mirror:    No*
G04 Mode:      Positive*
G04 Rotation:  0*
G04 FullContactRelief:  No*
G04 UndefLineWidth:     0.1000*
G04 ================== end FILE IDENTIFICATION RECORD ====================*
%FSLAX46Y46*MOMM*%
%IR0*IPPOS*OFA0.00000B0.00000*MIA0B0*SFA1.00000B1.00000*%
%ADD10C,.4*%
%ADD11C,.2*%
%ADD12C,.127*%
%ADD13C,.1*%
%ADD14C,.6544*%
G75*
%LPD*%
G75*
G36*
G01X4596300Y14784400D02*
X4235700Y14423700D01*
G02X4062500Y14488000I-71864J71842D01*
G03X4031200Y14605300I-326293J-24241D01*
G02X4053900Y14672500I45837J21950D01*
G03X4108700Y15219900I-148901J291349D01*
G01Y15779400D01*
X3595800Y16292300D01*
X852800D01*
X421100Y15860600D01*
Y10381000D01*
X526200Y10275900D01*
Y10171600D01*
X858400Y9839400D01*
X962700D01*
X1009000Y9793100D01*
X5918800D01*
X6915600Y8796300D01*
X12989400D01*
X13989400Y9796300D01*
X14117600D01*
G02X14208200Y9648800I-43J-101601D01*
G03X14296300Y9244700I291804J-148036D01*
G01Y8492600D01*
X14006600Y8202900D01*
X12256100D01*
G03X11743900I-256100J-203700D01*
G01X9756100D01*
G03X9243900I-256100J-203700D01*
G01X7256100D01*
G03X6743900I-256100J-203700D01*
G01X4756100D01*
G03X4243900I-256100J-203700D01*
G01X2256100D01*
G03Y7795500I-256100J-203700D01*
G01X4243900D01*
G03X4756100I256100J203700D01*
G01X6743900D01*
G03X7256100I256100J203700D01*
G01X9243900D01*
G03X9756100I256100J203700D01*
G01X11743900D01*
G03X12256100I256100J203700D01*
G01X13206400D01*
G02X13297100Y7648200I-46J-101603D01*
G03X13439400Y7210400I292308J-147016D01*
G02X13476400Y7062400I-46599J-90275D01*
G03X13895600Y7167200I269200J-186000D01*
G02X13858600Y7315200I46599J90275D01*
G03X13881700Y7648200I-269204J185976D01*
G02X13972400Y7795500I90746J45697D01*
G01X14175400D01*
X14703700Y8323800D01*
Y9244700D01*
G03X14756100Y9297100I-203700J256100D01*
G01X16743900D01*
G03X17072300Y9181700I256060J203710D01*
G02X17196300Y9082600I22399J-99101D01*
G01Y4267800D01*
G02X17022900Y4196000I-101591J62D01*
G01X16514400Y4704500D01*
X14756100D01*
G03X14243900I-256100J-203700D01*
G01X12382600D01*
X11796300Y4118200D01*
Y3255300D01*
G03X11743900Y3202900I203700J-256100D01*
G01X9756100D01*
G03X9243900I-256100J-203700D01*
G01X7256100D01*
G03X6743900I-256100J-203700D01*
G01X4756100D01*
G03X4243900I-256100J-203700D01*
G01X2256100D01*
G03Y2795500I-256100J-203700D01*
G01X4243900D01*
G03X4756100I256100J203700D01*
G01X6743900D01*
G03X7256100I256100J203700D01*
G01X9243900D01*
G03X9756100I256100J203700D01*
G01X11743900D01*
G03X12203700Y3255300I256100J203700D01*
G01Y3949400D01*
X12551400Y4297100D01*
X14243900D01*
G03X14756100I256100J203700D01*
G01X16345600D01*
X16796300Y3846400D01*
Y3255300D01*
G03X17015200Y2672400I203693J-256058D01*
G01X17037700Y2673400D01*
X17259400Y2451700D01*
X18487900D01*
G03X19017900Y2834400I256164J203587D01*
G02X19102900Y2991600I85028J55604D01*
G01X19776700D01*
G02X19877000Y2873800I0J-101600D01*
G03X19874200Y2851800I322994J-52286D01*
G01X19872400Y2833100D01*
X19820800Y2783300D01*
X19792500Y2791600D01*
G03X20021800Y2418400I-92469J-313857D01*
G02X20140200Y2499900I99904J-18383D01*
G03X20471900Y2639600I59783J321693D01*
G02X20628100Y2654900I84390J-56566D01*
G01X20819500Y2463500D01*
X21443900D01*
G03X21938800Y2443500I256086J203690D01*
G02X22089700Y2440700I74188J-69410D01*
G03X22663400Y2670600I246870J214717D01*
G01X22662400Y2693100D01*
X22764800Y2795500D01*
X24243900D01*
G03X24772500Y2818100I256074J203693D01*
G03X24883000Y2999200I-93154J181100D01*
G01Y3044400D01*
X24991200Y3152600D01*
X26558500D01*
X26674200Y3036900D01*
X26673200Y3014400D01*
G03X27256100Y2795500I326842J-15207D01*
G01X29243900D01*
G03X29270200Y2766300I255837J203984D01*
G01X29277200Y2759400D01*
X29293300Y2722500D01*
X29280100Y2688600D01*
X29274300Y2681900D01*
G03X29744700Y2707300I247446J-214095D01*
G01X29707900Y2741600D01*
X29757100Y2795500D01*
X31283700D01*
X31784500Y3296300D01*
X36414800D01*
X36674200Y3036900D01*
X36673200Y3014400D01*
G03X37256100Y2795500I326842J-15207D01*
G01X39243900D01*
G03X39478200Y2672700I256089J203693D01*
G02X39543200Y2499500I-6812J-101353D01*
G01X38826400Y1782700D01*
X37159200D01*
G02X37081200Y1949400I25J101610D01*
G03X36578800I-251200J209600D01*
G02X36500800Y1782700I-78025J-65090D01*
G01X32914500D01*
G02X32819200Y1919300I67J101590D01*
G03X32583500Y2351300I-307190J112696D01*
G02X32504100Y2454600I22122J99168D01*
G03X32105700Y2148500I-326925J13189D01*
G02X32185100Y2045200I-22122J-99168D01*
G03X32204800Y1919300I326924J-13336D01*
G02X32109500Y1782700I-95367J-35010D01*
G01X27412900D01*
G02X27315100Y1911700I15J101584D01*
G03X26684900I-315100J88300D01*
G02X26587100Y1782700I-97815J-27416D01*
G01X21154400D01*
X20944200Y1992900D01*
X20945200Y2015400D01*
G03X20633600Y1703800I-326800J15200D01*
G01X20656100Y1704800D01*
X20985600Y1375300D01*
X23351200D01*
G02X23443900Y1232100I-11J-101611D01*
G03X23504000Y874100I298515J-133931D01*
G02X23430000Y702900I-74014J-69601D01*
G01X22256100D01*
G03X21764400Y272100I-256101J-203700D01*
G02X21691300Y100000I-73126J-70514D01*
G01X20797700D01*
G02X20718200Y264900I-3J101612D01*
G03X20220300Y688900I-256010J203709D01*
G01X20205200Y672300D01*
X20156000D01*
X20125400Y702900D01*
X17203700D01*
Y1743900D01*
G03X16796300I-203700J256100D01*
G01Y702900D01*
X14756100D01*
G03X14243900I-256100J-203700D01*
G01X12256100D01*
G03X11743900I-256100J-203700D01*
G01X9756100D01*
G03X9243900I-256100J-203700D01*
G01X7256100D01*
G03X6743900I-256100J-203700D01*
G01X4756100D01*
G03X4243900I-256100J-203700D01*
G01X2256100D01*
G03X1764400Y272100I-256101J-203700D01*
G02X1691300Y100000I-73126J-70514D01*
G01X100000D01*
Y23361100D01*
G02X273400Y23432900I101591J-62D01*
G01X1674200Y22032100D01*
X1673200Y22009600D01*
G03X2256100Y21790700I326842J-15207D01*
G01X4243900D01*
G03X4515200Y21667600I256022J203738D01*
G01X4537700Y21668600D01*
X4579200Y21627100D01*
G02X4507400Y21453700I-71862J-71809D01*
G01X1342700D01*
G03X911000Y20973900I-256061J-203720D01*
G02X928300Y20816400I-54560J-85693D01*
G01X396300Y20284400D01*
Y17015600D01*
X1015600Y16396300D01*
X4115600D01*
X4596300Y15915600D01*
Y14784400D01*
G37*
G36*
G01X17410000Y12387300D02*
X16796300Y11773600D01*
Y10755300D01*
G03X16743900Y10702900I203700J-256100D01*
G01X14756100D01*
G03X14243900I-256100J-203700D01*
G01X12256100D01*
G03X11673200Y10483900I-256062J-203691D01*
G01X11674200Y10461500D01*
X11427900Y10215200D01*
X10072100D01*
X9825800Y10461500D01*
X9826800Y10483900D01*
G03X9243900Y10702900I-326838J15309D01*
G01X7256100D01*
G03X6743900I-256100J-203700D01*
G01X4756100D01*
G03X4243900I-256100J-203700D01*
G01X2256100D01*
G03X1709400Y10348800I-256135J-203629D01*
G02X1619200Y10200500I-90219J-46708D01*
G01X1509300D01*
G02X1410700Y10326900I-59J101611D01*
G03X968800Y10709100I-317321J79676D01*
G02X828500Y10803100I-38689J93958D01*
G01Y11438100D01*
G02X1001900Y11510000I101591J38D01*
G01X1215600Y11296300D01*
X15333200D01*
X15789000Y11752100D01*
G02X15951800Y11725500I71838J-71820D01*
G03X16468900Y12109600I292975J145705D01*
G02Y12257600I69623J74000D01*
G03X16535100Y12647000I-224092J238424D01*
G02X16625200Y12795500I90109J46911D01*
G01X16743900D01*
G03X17326800Y13014500I256062J203691D01*
G01X17325800Y13036900D01*
X17360600Y13071700D01*
X18768600D01*
G02X18836800Y12894800I24J-101587D01*
G03X18753900Y12527600I219617J-242539D01*
G02X18659900Y12387300I-93958J-38689D01*
G01X17410000D01*
G37*
G36*
G01X1384400Y11703700D02*
X1203700Y11884400D01*
Y13615600D01*
X1442400Y13854300D01*
X4242400D01*
X5003700Y14615600D01*
Y16084400D01*
X4565400Y16522700D01*
G02X4604700Y16690800I71816J71854D01*
G03X4826800Y17016100I-104728J309973D01*
G01X4825800Y17038500D01*
X4983600Y17196300D01*
X6581600D01*
G02X6680700Y17072500I-20J-101580D01*
G03X7319300I319300J-71700D01*
G02X7418400Y17196300I99120J22220D01*
G01X9016400D01*
X9174200Y17038500D01*
X9173200Y17016100D01*
G03X9484700Y17327600I326800J-15300D01*
G01X9462300Y17326600D01*
X9185200Y17603700D01*
X7312200D01*
G02X7238300Y17774900I65J101578D01*
G03X7256100Y17795500I-238498J224071D01*
G01X9243900D01*
G03X9515300Y17672400I256027J203735D01*
G01X9537700Y17673400D01*
X9691800Y17519300D01*
X11808200D01*
X11962300Y17673400D01*
X11984700Y17672400D01*
G03X12256100Y17795500I15373J326835D01*
G01X14243900D01*
G03X14261700Y17774900I256287J203461D01*
G02X14187800Y17603700I-73965J-69622D01*
G01X12314800D01*
X12037700Y17326600D01*
X12015300Y17327600D01*
G03X12326800Y17016100I-15300J-326800D01*
G01X12325800Y17038500D01*
X12483600Y17196300D01*
X14515600D01*
X15296300Y16415600D01*
Y15694100D01*
X14756100D01*
G03Y15286700I-256100J-203700D01*
G01X16524200D01*
X16525000Y15285900D01*
X16743900D01*
G03X17326800Y15504900I256062J203691D01*
G01X17325800Y15527300D01*
X17394800Y15596300D01*
X18233500D01*
G02X18324900Y15450400I-26J-101595D01*
G03X18913700I294400J-142800D01*
G02X19005100Y15596300I91426J44305D01*
G01X19104400D01*
X19174200Y15526500D01*
X19173200Y15504100D01*
G03X19484700Y15815600I326800J-15300D01*
G01X19462300Y15814600D01*
X19273200Y16003700D01*
X19142400D01*
G02X19046800Y16139600I36J101601D01*
G03X18430800I-308000J110400D01*
G02X18335200Y16003700I-95636J-34299D01*
G01X17226000D01*
X17037700Y15815400D01*
X17015300Y15816400D01*
G03X16758100Y15709900I-15321J-326821D01*
G01X16743000Y15693300D01*
X16693800D01*
X16693000Y15694100D01*
X15703700D01*
Y16584400D01*
X15365200Y16922900D01*
G02X15437100Y17096300I71862J71809D01*
G01X16385200D01*
X16962300Y17673400D01*
X16984700Y17672400D01*
G03X16673200Y17983900I15300J326800D01*
G01X16674200Y17961500D01*
X16478100Y17765400D01*
G02X16310000Y17804700I-71854J71816D01*
G03X15984700Y18026800I-309973J-104728D01*
G01X15962300Y18025800D01*
X15419500Y18568600D01*
G02X15491400Y18742000I71862J71809D01*
G01X18830100D01*
X19622100Y19534000D01*
G02X19790100Y19494800I71805J-71863D01*
G03X19938600Y19315400I309807J105285D01*
G02X19960400Y19155200I-50058J-88395D01*
G01X19946100Y19140900D01*
Y15134200D01*
X19338900Y14527000D01*
X15415800D01*
G02X15316200Y14648300I60J101590D01*
G03X14674200I-321000J63500D01*
G02X14574600Y14527000I-99660J-19710D01*
G01X14022800D01*
G02X13922600Y14645500I-8J101606D01*
G03X13555600Y15024200I-322624J54524D01*
G02X13440200Y15124800I-13812J100645D01*
G01Y15807500D01*
X13707900Y16075200D01*
X13730300Y16074200D01*
G03X13418800Y16385700I15300J326800D01*
G01X13419800Y16363300D01*
X13032800Y15976300D01*
Y14465000D01*
X13378200Y14119600D01*
X15749500D01*
G02X15828800Y13954500I-16J-101602D01*
G03X15769800Y13840500I255429J-204463D01*
G01X15759200Y13803700D01*
X11684500D01*
X11457500Y14030700D01*
X7157400D01*
X6920300Y14267800D01*
Y14707700D01*
G03X6681400Y15289100I-203676J256091D01*
G02X6570300Y15407600I-11007J101012D01*
G03X6283200Y15138500I-322327J56185D01*
G02X6394300Y15020000I11007J-101012D01*
G03X6394200Y14907900I322304J-56338D01*
G02X6304100Y14789400I-100101J-17393D01*
G03X6445200Y14155300I32059J-325615D01*
G01X6453400Y14158200D01*
X6512900D01*
Y14099000D01*
X6988600Y13623300D01*
X10916500D01*
G02X10983700Y13445500I1J-101599D01*
G03X10880900Y13127700I216305J-245496D01*
G02X10781800Y13003700I-99101J-22399D01*
G01X10174200D01*
X9975000Y13202900D01*
X9756100D01*
G03X9243900I-256100J-203700D01*
G01X7256100D01*
G03X6743900I-256100J-203700D01*
G01X4756100D01*
G03X4243900I-256100J-203700D01*
G01X2256100D01*
G03Y12795500I-256100J-203700D01*
G01X4243900D01*
G03X4756100I256100J203700D01*
G01X6743900D01*
G03X7256100I256100J203700D01*
G01X9243900D01*
G03X9741900Y12778900I256067J203698D01*
G01X9757000Y12795500D01*
X9806200D01*
X10005400Y12596300D01*
X11494600D01*
X11693800Y12795500D01*
X11743000D01*
X11758100Y12778900D01*
G03X12256100Y12795500I241933J220298D01*
G01X14243900D01*
G03X14756100I256100J203700D01*
G01X15864400D01*
G02X15954500Y12647000I-9J-101589D01*
G03X15918000Y12480700I290330J-150878D01*
G01X15919000Y12458300D01*
X15164400Y11703700D01*
X3982000D01*
G02X3891500Y11851400I39J101600D01*
G03X3308500I-291500J148600D01*
G02X3218000Y11703700I-90539J-46100D01*
G01X1384400D01*
G37*
G36*
G01X1001900Y13990000D02*
G02X828500Y14061900I-71809J71862D01*
G01Y15691800D01*
X1021600Y15884900D01*
X1678800D01*
G02X1754900Y15716000I12J-101589D01*
G03X1752400Y15285300I245095J-216780D01*
G02X1722600Y15128900I-76889J-66389D01*
G03X2122000Y15052900I151770J-289886D01*
G02X2151800Y15209300I76889J66389D01*
G03X2245100Y15716000I-151785J289888D01*
G02X2321200Y15884900I76088J67311D01*
G01X3427000D01*
X3701300Y15610600D01*
Y15219900D01*
G03X3610000Y14822300I203707J-256059D01*
G02X3587300Y14755100I-45837J-21950D01*
G03X3418100Y14387100I148884J-291352D01*
G02X3319300Y14261700I-98762J-23809D01*
G01X1273600D01*
X1001900Y13990000D01*
G37*
G36*
G01X1184400Y16803700D02*
X803700Y17184400D01*
Y18361800D01*
G02X948400Y18453800I101599J-4D01*
G03Y19046200I139000J296200D01*
G02X803700Y19138200I-43101J92004D01*
G01Y20115600D01*
X1310100Y20622000D01*
X3324000D01*
G02X3424600Y20506600I-45J-101588D01*
G03X4073000I324200J-44400D01*
G02X4173600Y20622000I100645J13812D01*
G01X4889900D01*
X5096300Y20415600D01*
Y19451400D01*
X5760000Y18787700D01*
X5759000Y18765300D01*
G03X6327900Y18970100I326826J-15313D01*
G02X6387600Y19138800I75213J68297D01*
G03X6353500Y19789000I-49818J323381D01*
G02X6258200Y19907500I4868J101486D01*
G03X5919900Y19635400I-322586J54716D01*
G02X6015200Y19516900I-4868J-101486D01*
G03X6217200Y19158000I322604J-54724D01*
G02X6183300Y19062300I-18730J-47220D01*
G03X6070500Y19076800I-97479J-312316D01*
G01X6048100Y19075800D01*
X5503700Y19620200D01*
Y20584400D01*
X5215200Y20872900D01*
G02X5287100Y21046300I71862J71809D01*
G01X6865600D01*
X7196300Y20715600D01*
Y18777100D01*
X7597100Y18376300D01*
G02X7525200Y18202900I-71862J-71809D01*
G01X7256100D01*
G03X6743900I-256100J-203700D01*
G01X4756100D01*
G03X4243900I-256100J-203700D01*
G01X2256100D01*
G03Y17795500I-256100J-203700D01*
G01X4243900D01*
G03X4756100I256100J203700D01*
G01X6743900D01*
G03X6761700Y17774900I256298J203471D01*
G02X6687800Y17603700I-73965J-69622D01*
G01X4814800D01*
X4537700Y17326600D01*
X4515300Y17327600D01*
G03X4181000Y16927900I-15323J-326835D01*
G02X4082000Y16803700I-99041J-22611D01*
G01X1184400D01*
G37*
G36*
G01X9938600Y19149400D02*
X9672700Y19415300D01*
X9690000Y19448400D01*
G03X9229100Y19879000I-289973J151589D01*
G02X9074400Y19964800I-53104J86617D01*
G03X8918100Y19683200I-327187J-2574D01*
G02X9072800Y19597400I53104J-86617D01*
G03X9080900Y19527700I327188J2703D01*
G02X8981800Y19403700I-99101J-22399D01*
G01X8284400D01*
X8003700Y19684400D01*
Y21790700D01*
X9243900D01*
G03X9756100I256100J203700D01*
G01X10426800D01*
X11674200Y20543300D01*
X11673200Y20520900D01*
G03X11688800Y20404400I326831J-15530D01*
G02X11621300Y20275700I-96614J-31379D01*
G03X12026200Y20063400I93729J-313503D01*
G02X12093700Y20192100I96614J31379D01*
G03X11984700Y20832400I-93749J313469D01*
G01X11962300Y20831400D01*
X10595600Y22198100D01*
X9756100D01*
G03X9243900I-256100J-203700D01*
G01X7256100D01*
G03X6673200Y21979100I-256062J-203691D01*
G01X6674200Y21956700D01*
X6521200Y21803700D01*
X4978800D01*
X4825800Y21956700D01*
X4826800Y21979100D01*
G03X4243900Y22198100I-326838J15309D01*
G01X3975500D01*
G02X3884700Y22345400I-54J101602D01*
G03X3300500I-292100J147400D01*
G02X3209700Y22198100I-90746J-45698D01*
G01X2256100D01*
G03X1984700Y22321200I-256027J-203735D01*
G01X1962300Y22320200D01*
X503700Y23778800D01*
Y23968500D01*
G02X677100Y24040400I101591J38D01*
G01X929800Y23787700D01*
X928800Y23765300D01*
G03X1511700Y23546300I326838J-15309D01*
G01X3671200D01*
X4174200Y23043300D01*
X4173200Y23020900D01*
G03X4515300Y22678800I326800J-15300D01*
G01X4537700Y22679800D01*
X4695700Y22521800D01*
X6804300D01*
X6962300Y22679800D01*
X6984700Y22678800D01*
G03X7256100Y22801900I15373J326835D01*
G01X9099400D01*
X9193800Y22896300D01*
X9243000D01*
X9258100Y22879700D01*
G03X9818600Y23025300I241934J220301D01*
G01X9821900Y23039400D01*
X10178800Y23396300D01*
X11344600D01*
X11962300Y24014000D01*
X11984700Y24013000D01*
G03X12256100Y24136100I15373J326835D01*
G01X14375800D01*
X15103900Y23408000D01*
Y22592700D01*
G03X14980800Y22321300I203735J-256027D01*
G01X14981800Y22298900D01*
X14886600Y22203700D01*
X13956100D01*
G03Y21796300I-256100J-203700D01*
G01X15055400D01*
X15269900Y22010800D01*
X15292300Y22009800D01*
G03X15563700Y22132900I15373J326835D01*
G01X19667500D01*
X19677700Y22095300D01*
G03X19775400Y21936600I315929J85071D01*
G02X19707600Y21759300I-67770J-75698D01*
G01X17878600D01*
X17496300Y21377000D01*
Y20356100D01*
G03X18010000Y19995400I203675J-256080D01*
G02X18128500Y20062100I96284J-32445D01*
G03X18509900Y20276500I71475J319291D01*
G02X18628400Y20343100I96248J-32529D01*
G03X19014300Y20753400I71601J319283D01*
G02X19111900Y20883300I97571J28306D01*
G01X19188300D01*
G02X19262200Y20711900I55J-101608D01*
G03X19296300Y20231100I237803J-224743D01*
G01Y19784400D01*
X18661300Y19149400D01*
X14703700D01*
Y19296700D01*
G02X14850300Y19387800I101587J30D01*
G03Y19974600I144900J293400D01*
G02X14703700Y20065700I-45013J91070D01*
G01Y20249500D01*
G03X14296300I-203700J256100D01*
G01Y19149400D01*
X10920600D01*
G02X10821000Y19270700I60J101590D01*
G03X10179000I-321000J63500D01*
G02X10079400Y19149400I-99660J-19710D01*
G01X9938600D01*
G37*
G36*
G01X15563700Y22540300D02*
G03X15511300Y22592700I-256100J-203700D01*
G01Y23576800D01*
X14544600Y24543500D01*
X12256100D01*
G03X11673200Y24324500I-256062J-203691D01*
G01X11674200Y24302100D01*
X11175800Y23803700D01*
X10903900D01*
G02X10832000Y23977100I-38J101591D01*
G01X11052500Y24197600D01*
X11074900Y24196600D01*
G03X10763400Y24508100I15300J326800D01*
G01X10764400Y24485700D01*
X10537200Y24258500D01*
X8847100D01*
G03Y23851100I-256100J-203700D01*
G01X9812100D01*
G02X9884000Y23677700I38J-101591D01*
G01X9614300Y23408000D01*
X9585900Y23415700D01*
G03X9243900Y23303700I-85948J-315714D01*
G01X9025000D01*
X8930600Y23209300D01*
X7256100D01*
G03X6673200Y22990300I-256062J-203691D01*
G01X6674200Y22967900D01*
X6635500Y22929200D01*
X5920600D01*
G02X5821000Y23050500I60J101590D01*
G03X5179000I-321000J63500D01*
G02X5079400Y22929200I-99660J-19710D01*
G01X4864500D01*
X4825800Y22967900D01*
X4826800Y22990300D01*
G03X4484700Y23332400I-326800J15300D01*
G01X4462300Y23331400D01*
X3840000Y23953700D01*
X1511700D01*
G03X1240300Y24076800I-256027J-203735D01*
G01X1217900Y24075800D01*
X803700Y24490000D01*
Y28791200D01*
G02X890400Y28827100I50793J-24D01*
G01X929800Y28787700D01*
X928800Y28765300D01*
G03X1511700Y28546300I326838J-15309D01*
G01X3840000D01*
X4462300Y29168600D01*
X4484700Y29167600D01*
G03X4515300I15300J326800D01*
G01X4537700Y29168600D01*
X5369600Y28336700D01*
X11854900D01*
G02X11932700Y28169900I-77J-101580D01*
G03X12198900Y27633000I250874J-210056D01*
G01X12221300Y27634000D01*
X12880200Y26975100D01*
X13362300D01*
G03X13869900Y27015000I237691J224886D01*
G01X14454800Y27599900D01*
X16301100D01*
G03X16796400Y27580300I256098J203684D01*
G02X16948700Y27576100I74297J-69294D01*
G03X17269400Y27465800I251364J209475D01*
G02X17329900Y27426300I10738J-49635D01*
G03X17581200Y27811000I320708J64931D01*
G02X17520700Y27850500I-10738J49635D01*
G03X16960800Y28008900I-320713J-64885D01*
G02X16808500Y28013100I-74297J69294D01*
G03X16301100Y28007300I-251338J-209499D01*
G01X14286000D01*
X14239900Y27961200D01*
G02X14068000Y28015700I-71807J71860D01*
G03X13965900Y28201700I-322380J-55940D01*
G01X13949300Y28216800D01*
Y28336700D01*
X16597400D01*
X17456700Y29196000D01*
X17479100Y29195000D01*
G03X17750500Y29318100I15373J326835D01*
G01X18503400D01*
X19405900Y28415600D01*
G02X19379300Y28252800I-71820J-71838D01*
G03X19763400Y27735700I145705J-292975D01*
G02X19911400I74000J-69623D01*
G03X20044700Y27649900I238473J224047D01*
G02X20083900Y27481900I-32644J-96190D01*
G01X20033400Y27431400D01*
G02X19895100Y27426400I-71837J71835D01*
G03X19382000Y27046400I-213887J-247606D01*
G02X19289100Y26903700I-92918J-41098D01*
G01X19280300D01*
G02X19187400Y27046400I18J101602D01*
G03X18865500Y27505200I-299208J132397D01*
G02X18757300Y27616200I-7055J101359D01*
G03X18454300Y27321000I-325702J31205D01*
G02X18562500Y27210000I7055J-101359D01*
G03X18589000Y27046400I325702J-31189D01*
G02X18496100Y26903700I-92918J-41098D01*
G01X14119600D01*
X13791700Y26575800D01*
X13769300Y26576800D01*
G03X13497900Y26453700I-15373J-326835D01*
G01X12829600D01*
X12325800Y26957500D01*
X12326800Y26979900D01*
G03X11743900Y27198900I-326838J15309D01*
G01X9416400D01*
X8793300Y26575800D01*
X8770900Y26576800D01*
G03X8499500Y26453700I-15373J-326835D01*
G01X6511700D01*
G03X5999500I-256100J-203700D01*
G01X4011700D01*
G03X3499500I-256100J-203700D01*
G01X1511700D01*
G03Y26046300I-256100J-203700D01*
G01X3499500D01*
G03X4011700I256100J203700D01*
G01X5999500D01*
G03X6511700I256100J203700D01*
G01X8499500D01*
G03X9082400Y26265300I256062J203691D01*
G01X9081400Y26287700D01*
X9585200Y26791500D01*
X10932500D01*
G02X11006900Y26620700I-1J-101605D01*
G03X11007100Y26174600I239497J-222943D01*
G02X10932900Y26003700I-74263J-69315D01*
G01X10876600D01*
X9912400Y25039500D01*
X6176200D01*
X5782200Y25433500D01*
X1899700D01*
G03Y25026100I-256100J-203700D01*
G01X5613400D01*
X6007400Y24632100D01*
X10081200D01*
X11045400Y25596300D01*
X14084400D01*
X14684400Y26196300D01*
X18915600D01*
X18969300Y26142600D01*
Y24395900D01*
X19468900Y23896300D01*
X20326900D01*
X20334600Y23888600D01*
Y23382000D01*
G02X20213300Y23282400I-101590J60D01*
G03X19823000Y22946100I-63466J-320978D01*
G01X19824000Y22923700D01*
X19440600Y22540300D01*
X15563700D01*
G37*
G36*
G01X5538400Y28744100D02*
X4825800Y29456700D01*
X4826800Y29479100D01*
G03X4173200I-326800J15300D01*
G01X4174200Y29456700D01*
X4070400Y29352900D01*
X4015200Y29408100D01*
X4020700Y29434900D01*
G03X3660500Y29175200I-320667J65114D01*
G02X3720000Y29002500I-12319J-100844D01*
G01X3671200Y28953700D01*
X1511700D01*
G03X1240300Y29076800I-256027J-203735D01*
G01X1217900Y29075800D01*
X1095800Y29197900D01*
Y30825200D01*
G02X1211200Y30925800I101588J-45D01*
G03X1511700Y31046300I44410J324192D01*
G01X6872000D01*
X6883500Y31039900D01*
G03X7116500I116500J210100D01*
G01X7128000Y31046300D01*
X11052700D01*
Y30208600D01*
X11581800Y29679200D01*
G02X11679000Y29557900I-2466J-101570D01*
G03X11796300Y29238300I320994J-63514D01*
G01Y28744100D01*
X9703700D01*
Y29238300D01*
G03X9405800Y29807800I-203639J256143D01*
G02X9287400Y29856500I-29205J97274D01*
G03X9240900Y29921500I-287401J-156469D01*
G02X9255000Y30071700I74765J68743D01*
G03X8818700Y30112700I-195411J262479D01*
G02X8804600Y29962500I-74765J-68743D01*
G03X9128500Y29399100I195348J-262499D01*
G03X9233100Y29305200I180006J95308D01*
G03X9296300Y29238300I267082J189008D01*
G01Y28744100D01*
X7203700D01*
Y29238300D01*
G03X6811000Y29761500I-203692J256089D01*
G02X6668800Y29786500I-58719J82922D01*
G03X6589100Y29867000I-268844J-186469D01*
G02X6590100Y30033500I58724J82900D01*
G03X6215100Y30035800I-185855J269297D01*
G02X6214100Y29869300I-58724J-82900D01*
G03X6589000Y29332900I185892J-269289D01*
G02X6731200Y29307900I58719J-82922D01*
G03X6796300Y29238300I268963J186327D01*
G01Y28744100D01*
X5538400D01*
G37*
G36*
G01X1490600Y31817200D02*
X1110600D01*
G02X1038700Y31990600I-38J101591D01*
G01X1472000Y32423900D01*
X3318300D01*
G03X3392400Y32355700I255998J203789D01*
G02X3407700Y32199500I-56566J-84390D01*
G01X3022600Y31814400D01*
X1493400D01*
X1490600Y31817200D01*
G37*
G36*
G01X273400Y32461500D02*
G02X100000Y32533400I-71809J71862D01*
G01Y39900000D01*
X1697600D01*
G02X1769200Y39726400I-36J-101580D01*
G03X2256100Y39290700I230793J-231994D01*
G01X4243900D01*
G03X4756100I256100J203700D01*
G01X6743900D01*
G03X7256100I256100J203700D01*
G01X9243900D01*
G03X9756100I256100J203700D01*
G01X11743900D01*
G03X12256100I256100J203700D01*
G01X14243900D01*
G03X14756100I256100J203700D01*
G01X16743900D01*
G03X16796300Y39238300I256100J203700D01*
G01Y38679000D01*
X17949600Y37525700D01*
X17948600Y37503300D01*
G03X17981400Y37344300I326833J-15461D01*
G02X17890200Y37198100I-91261J-44616D01*
G01X17256100D01*
G03X16743900I-256100J-203700D01*
G01X14756100D01*
G03X14243900I-256100J-203700D01*
G01X12256100D01*
G03X11743900I-256100J-203700D01*
G01X9756100D01*
G03X9484700Y37321200I-256027J-203735D01*
G01X9462300Y37320200D01*
X9178800Y37603700D01*
X8015600D01*
X7612900Y37201000D01*
X7309100D01*
X7306200Y37198100D01*
X7257000D01*
X7241900Y37214700D01*
G03X6743900Y37198100I-241933J-220298D01*
G01X4756100D01*
G03X4243900I-256100J-203700D01*
G01X2256100D01*
G03Y36790700I-256100J-203700D01*
G01X4243900D01*
G03X4756100I256100J203700D01*
G01X6743900D01*
G03X7256100I256100J203700D01*
G01X7475000D01*
X7477900Y36793600D01*
X7781700D01*
X8184400Y37196300D01*
X9010000D01*
X9174200Y37032100D01*
X9173200Y37009700D01*
G03X9756100Y36790700I326838J-15309D01*
G01X11743900D01*
G03X12256100I256100J203700D01*
G01X14243900D01*
G03X14756100I256100J203700D01*
G01X16743900D01*
G03X17256100I256100J203700D01*
G01X17821200D01*
X18086300Y36525600D01*
Y35706100D01*
G03X18493700I203700J-256100D01*
G01Y36072900D01*
G02X18667100Y36144800I101591J38D01*
G01X19115600Y35696300D01*
X20615600D01*
X20784800Y35527100D01*
Y34423400D01*
X20676600Y34315200D01*
X18687700D01*
G02X18595800Y34460200I-26J101606D01*
G03X18043000Y34397400I-295847J139786D01*
G01X18053900Y34383600D01*
Y34315200D01*
X17972900D01*
X17803700Y34484400D01*
Y34811400D01*
X17110200Y35504900D01*
X14626500D01*
G03X14195300Y35577600I-256072J-203698D01*
G02X14047300Y35624100I-54335J85838D01*
G03X13584500Y35212600I-301682J-126706D01*
G02X13621100Y35071100I-50027J-88423D01*
G03X14226600Y34880500I278887J-171108D01*
G02X14338100Y34975600I101426J-6003D01*
G03X14626500Y35097500I32335J325609D01*
G01X16218600D01*
G02X16308900Y34949500I-56J-101582D01*
G03X16273200Y34784700I291136J-149334D01*
G01X16274200Y34762300D01*
X15739500Y34227600D01*
Y33953700D01*
X9011700D01*
G03X8499500I-256100J-203700D01*
G01X6511700D01*
G03X5999500I-256100J-203700D01*
G01X4011700D01*
G03X3499500I-256100J-203700D01*
G01X1511700D01*
G03X1094800Y33465100I-256086J-203654D01*
G02X1116700Y33304700I-49944J-88514D01*
G01X273400Y32461500D01*
G37*
G36*
G01X3318300Y32831300D02*
X1464700D01*
G02X1392800Y33004700I-38J101591D01*
G01X1545900Y33157800D01*
X5518200D01*
G02X5617100Y33033000I-26J-101608D01*
G03X5715300Y32716300I318514J-74812D01*
G01X5731900Y32701200D01*
Y32591400D01*
X3903200D01*
X3901400Y32640200D01*
G03X3318300Y32831300I-326984J-12568D01*
G37*
G36*
G01X2256100Y39698100D02*
G03X2230800Y39726400I-256193J-203576D01*
G02X2302400Y39900000I71636J72020D01*
G01X4197600D01*
G02X4269200Y39726400I-36J-101580D01*
G03X4243900Y39698100I230893J-231876D01*
G01X2256100D01*
G37*
G36*
G01X4825000Y31453700D02*
G02X4748000Y31621600I-3J101605D01*
G03X4767200Y32023800I-248011J213398D01*
G02X4850200Y32184000I83010J58594D01*
G01X5918100D01*
X6139300Y32405200D01*
Y32540900D01*
X6224800D01*
X6237400Y32508600D01*
G03X6566700Y32301300I304806J118990D01*
G02X6675200Y32187700I7654J-101304D01*
G03X6759800Y31926000I324806J-39524D01*
G01Y31453700D01*
X4825000D01*
G37*
G36*
G01X4756100Y39698100D02*
G03X4730800Y39726400I-256193J-203576D01*
G02X4802400Y39900000I71636J72020D01*
G01X6697600D01*
G02X6769200Y39726400I-36J-101580D01*
G03X6743900Y39698100I230893J-231876D01*
G01X4756100D01*
G37*
G36*
G01X13739000Y10122100D02*
X12820600Y9203700D01*
X7084400D01*
X6166000Y10122100D01*
G02X6237900Y10295500I71862J71809D01*
G01X6743900D01*
G03X7256100I256100J203700D01*
G01X9243900D01*
G03X9515300Y10172400I256027J203735D01*
G01X9537700Y10173400D01*
X9903300Y9807800D01*
X11596800D01*
X11828400Y10039400D01*
Y10039500D01*
X11962300Y10173400D01*
X11984700Y10172400D01*
G03X12256100Y10295500I15373J326835D01*
G01X13667100D01*
G02X13739000Y10122100I38J-101591D01*
G37*
G36*
G01X11750600Y30086600D02*
X11460100Y30377200D01*
Y31165600D01*
X11962300Y31667800D01*
X11984700Y31666800D01*
G03X12256100Y31789900I15373J326835D01*
G01X12475000D01*
X12481400Y31796300D01*
X13543900D01*
G03X14056100I256100J203700D01*
G01X15743900D01*
G03Y32203700I256100J203700D01*
G01X14056100D01*
G03X13543900I-256100J-203700D01*
G01X12312600D01*
X12306200Y32197300D01*
X12257000D01*
X12241900Y32213900D01*
G03X11673200Y31978300I-241877J-220323D01*
G01X11674200Y31955900D01*
X11172000Y31453700D01*
X9107100D01*
Y32702100D01*
G03X8699700I-203700J256100D01*
G01Y31453700D01*
X7240200D01*
Y31926000D01*
G03X6975500Y32474500I-240188J222209D01*
G02X6867000Y32588100I-7654J101304D01*
G03X6745900Y32883700I-324811J39539D01*
G01Y33102600D01*
X6480200Y33368300D01*
G02X6481800Y33513600I71809J71868D01*
G03X6511700Y33546300I-225973J236644D01*
G01X8499500D01*
G03X9011700I256100J203700D01*
G01X11796300D01*
Y33241700D01*
G03X11706800Y33130900I203698J-256086D01*
G02X11528300Y33124400I-91011J45099D01*
G03X11539600Y32812900I-281887J-166181D01*
G02X11718100Y32819400I91011J-45099D01*
G03X12203700Y33241700I281848J166249D01*
G01Y33546300D01*
X16465600D01*
X17882200Y32129700D01*
X18175500D01*
G03X18518900Y32648700I256082J203668D01*
G02X18464000Y32806700I27058J97940D01*
G03X18189400Y32673000I-263973J193319D01*
G02X18220500Y32583400I-1674J-50779D01*
G03X18175500Y32537100I211000J-250094D01*
G01X18051000D01*
X16634400Y33953700D01*
X16146900D01*
Y34058800D01*
X16562300Y34474200D01*
X16584700Y34473200D01*
G03X16847900Y35013500I15272J326818D01*
G01X16835600Y35027800D01*
Y35097500D01*
X16941400D01*
X17396300Y34642600D01*
Y34315600D01*
X17804100Y33907800D01*
X20274400D01*
G02X20346300Y33734400I38J-101591D01*
G01X20196300Y33584400D01*
Y32715600D01*
X20451900Y32460000D01*
G02X20455900Y32320500I-71801J-71866D01*
G03X20715300Y31775800I244101J-217869D01*
G01X20737700Y31776800D01*
X21129300Y31385200D01*
Y30876700D01*
G02X21004700Y30777700I-101612J-23D01*
G03X20864300Y30779400I-74069J-318698D01*
G02X20742000Y30878800I-20713J99453D01*
G01Y30938100D01*
X20263400Y31416700D01*
X12978000D01*
X12221300Y30660000D01*
X12198900Y30661000D01*
G03X11876000Y30222800I-15275J-326813D01*
G02X11780400Y30086600I-95546J-34587D01*
G01X11750600D01*
G37*
G36*
G01X9860600Y17926700D02*
X9825800Y17961500D01*
X9826800Y17983900D01*
G03X9737100Y18224700I-326829J15361D01*
G02X9810700Y18396300I73623J70007D01*
G01X10781800D01*
G02X10880900Y18272300I-1J-101601D01*
G03X10900200Y18069000I319105J-72272D01*
G02X10807100Y17926700I-93102J-40694D01*
G01X9860600D01*
G37*
G36*
G01X11485700Y26174600D02*
G03X11485900Y26620700I-239297J223157D01*
G02X11560300Y26791500I74401J69195D01*
G01X11743900D01*
G03X12015300Y26668400I256027J203735D01*
G01X12037700Y26669400D01*
X12530000Y26177100D01*
G02X12458100Y26003700I-71862J-71809D01*
G01X11559900D01*
G02X11485700Y26174600I63J101585D01*
G37*
G36*
G01X9756100Y39698100D02*
G03X9730800Y39726400I-256193J-203576D01*
G02X9802400Y39900000I71636J72020D01*
G01X11697600D01*
G02X11769200Y39726400I-36J-101580D01*
G03X11743900Y39698100I230893J-231876D01*
G01X9756100D01*
G37*
G36*
G01X14808700Y100000D02*
G02X14735600Y272100I26J101586D01*
G03X14756100Y295500I-235601J227082D01*
G01X19956600D01*
X19987200Y264900D01*
X20206100D01*
G03X20257800Y213000I256236J203548D01*
G01X20284500Y191700D01*
X20257500Y100000D01*
X14808700D01*
G37*
G36*
G01X15283600Y17503700D02*
X14825800Y17961500D01*
X14826800Y17983900D01*
G03X14737100Y18224700I-326829J15361D01*
G02X14810700Y18396300I73623J70007D01*
G01X15015600D01*
X15674200Y17737700D01*
X15673200Y17715300D01*
G03X15680900Y17627700I326819J-15411D01*
G02X15581800Y17503700I-99101J-22399D01*
G01X15283600D01*
G37*
G36*
G01X13014600Y27416800D02*
X12509400Y27922100D01*
X12510400Y27944500D01*
G03X12434500Y28169900I-326839J15421D01*
G02X12512300Y28336700I77877J65220D01*
G01X13541900D01*
Y28216800D01*
X13525300Y28201700D01*
G03X13442300Y27837100I220308J-241900D01*
G01X13446000Y27827900D01*
Y27767200D01*
X13365000D01*
X13014600Y27416800D01*
G37*
G36*
G01X20112100Y28285600D02*
X18672200Y29725500D01*
X18075300D01*
G02X18003400Y29898900I-38J101591D01*
G01X18237700Y30133200D01*
X18260100Y30132200D01*
G03X17948600Y30443700I15300J326800D01*
G01X17949600Y30421300D01*
X17832500Y30304200D01*
G02X17660600Y30358700I-71807J71860D01*
G03X17017800Y30236300I-322409J-55902D01*
G02X16918400Y30114000I-99453J-20713D01*
G01X16597800D01*
G02X16514200Y30273300I19J101596D01*
G03X15924900Y30390200I-269408J185695D01*
G02X15825600Y30267200I-99311J-21408D01*
G01X15218700D01*
G02X15121200Y30397600I-57J101608D01*
G03X14551800Y30694600I-313727J92851D01*
G02X14411200Y30676900I-79394J63387D01*
G03X13889000Y30379900I-196958J-261278D01*
G02X13788000Y30267200I-101006J-11088D01*
G01X12510500D01*
Y30320200D01*
G03X12510400Y30349500I-326898J13534D01*
G01X12509400Y30371900D01*
X13146800Y31009300D01*
X20094600D01*
X20334600Y30769300D01*
Y30432000D01*
X20096300Y30193700D01*
Y28462200D01*
X20220700Y28337800D01*
X20170000Y28287000D01*
X20149000D01*
G03X20134500Y28286600I1770J-327173D01*
G01X20112100Y28285600D01*
G37*
G36*
G01X17168600Y29484100D02*
X16428600Y28744100D01*
X12203700D01*
Y29238300D01*
G03X12321000Y29557900I-203694J256086D01*
G02X12420600Y29679200I99660J19710D01*
G01X12467200D01*
X12647800Y29859800D01*
X13375200D01*
G02X13475800Y29744400I-45J-101588D01*
G03X14125200Y29735700I324163J-44427D01*
G02X14226200Y29848400I101006J11088D01*
G01X14449200D01*
X14460600Y29859800D01*
X15752200D01*
X15905400Y29706600D01*
X17073800D01*
G02X17173400Y29585300I-60J-101590D01*
G03X17167600Y29506500I321019J-63242D01*
G01X17168600Y29484100D01*
G37*
G36*
G01X14756100Y39698100D02*
G03X14730800Y39726400I-256193J-203576D01*
G02X14802400Y39900000I71636J72020D01*
G01X16697600D01*
G02X16769200Y39726400I-36J-101580D01*
G03X16743900Y39698100I230893J-231876D01*
G01X14756100D01*
G37*
G36*
G01X12256100D02*
G03X12230800Y39726400I-256193J-203576D01*
G02X12302400Y39900000I71636J72020D01*
G01X14197600D01*
G02X14269200Y39726400I-36J-101580D01*
G03X14243900Y39698100I230893J-231876D01*
G01X12256100D01*
G37*
G36*
G01X19996300Y9015600D02*
X20882600Y8129300D01*
X21882600D01*
X21996300Y8015600D01*
Y6551200D01*
X22815600Y5731900D01*
X23161500D01*
G02X23233400Y5558500I38J-101591D01*
G01X23155300Y5480400D01*
X23132900Y5481400D01*
G03X22893500Y4916200I-15286J-326826D01*
G02Y4768200I-69623J-74000D01*
G03X22897300Y4287900I224106J-238392D01*
G01X22913900Y4272800D01*
Y4223600D01*
X22896300Y4206000D01*
Y3684400D01*
X22877700Y3665800D01*
X20571000D01*
X20570800Y3666000D01*
X18222400D01*
X18217700Y3670700D01*
X18217400D01*
X17903700Y3984400D01*
Y9180800D01*
X18915600Y10192700D01*
G02X19089000Y10120800I71809J-71862D01*
G01Y8151700D01*
X19374200Y7866500D01*
X19373200Y7844100D01*
G03X19684700Y8155600I326800J-15300D01*
G01X19662300Y8154600D01*
X19496400Y8320500D01*
Y9107600D01*
G02X19617700Y9207200I101590J-60D01*
G03X19844100Y9244400I63513J320993D01*
G02X19996300Y9156300I50613J-88081D01*
G01Y9015600D01*
G37*
G36*
G01X18818400Y11806500D02*
X17496800Y10484800D01*
G02X17324200Y10543100I-71878J71846D01*
G03X17203700Y10755300I-324250J-43815D01*
G01Y11604800D01*
X17578800Y11979900D01*
X18746500D01*
G02X18818400Y11806500I38J-101591D01*
G37*
G36*
G01X18496300Y37899900D02*
G02X18366400Y37802300I-101594J-29D01*
G03X18260100Y37814800I-90846J-314318D01*
G01X18237700Y37813800D01*
X17203700Y38847800D01*
Y39238300D01*
G03X17230800Y39726400I-203679J256111D01*
G02X17302400Y39900000I71636J72020D01*
G01X17552400D01*
G02X17649700Y39769100I14J-101602D01*
G03X18276300I313300J-94300D01*
G02X18373600Y39900000I97286J29298D01*
G01X18459400D01*
Y39836800D01*
X18453700Y39825800D01*
G03X19057300Y39769100I290279J-150995D01*
G02X19154600Y39900000I97286J29298D01*
G01X19240400D01*
Y39836800D01*
X19234700Y39825800D01*
G03X19838300Y39769100I290279J-150995D01*
G02X19935600Y39900000I97286J29298D01*
G01X39197600D01*
G02X39269200Y39726400I-36J-101580D01*
G03X39173200Y39479100I230840J-231894D01*
G01X39174200Y39456700D01*
X38346400Y38628900D01*
X21783600D01*
X21437100Y38282400D01*
X21414700Y38283400D01*
G03X21273600Y38258600I-15288J-326813D01*
G01X21242200Y38245600D01*
X20702800Y38785100D01*
X18797000D01*
X18496300Y38484400D01*
Y37899900D01*
G37*
G36*
G01X22097800Y2879100D02*
G02X21946900Y2881900I-74188J69410D01*
G03X21443900Y2870900I-246925J-214694D01*
G01X20988300D01*
X20774200Y3085000D01*
G02X20846100Y3258400I71862J71809D01*
G01X22406200D01*
G02X22478100Y3085000I38J-101591D01*
G01X22374300Y2981200D01*
X22351900Y2982200D01*
G03X22097800Y2879100I-15357J-326829D01*
G37*
G36*
G01X19496400Y10148800D02*
X20031600Y10684000D01*
X20830700D01*
G02X20928400Y10554700I-38J-101590D01*
G03X20928100Y10553700I313235J-94516D01*
G02X20855100Y10522700I-48902J13706D01*
G03X20373200Y10218200I-155109J-288102D01*
G02X20254700Y10113000I-101466J-5047D01*
G03X19893600Y9905100I-54670J-322590D01*
G02X19770600Y9842900I-95204J35549D01*
G03X19617700Y9849200I-89546J-314699D01*
G02X19496400Y9948800I-19710J99660D01*
G01Y10148800D01*
G37*
G36*
G01X20667500Y13076600D02*
X19937900Y13806200D01*
G02X19888400Y13977100I22362J99096D01*
G01X20665800Y14754500D01*
Y18877800D01*
X21366700Y19578800D01*
G02X21503300Y19585200I71817J-71875D01*
G03X21706800Y20164600I208473J252216D01*
G02X21603700Y20266100I-1516J101573D01*
G01Y21715500D01*
X21759300Y21871100D01*
Y22219200D01*
G02X21893900Y22315300I101603J4D01*
G03X22015300Y22298000I106040J309519D01*
G01X22037700Y22299000D01*
X22546000Y21790700D01*
X24243900D01*
G03X24756100I256100J203700D01*
G01X26743900D01*
G03X27256100I256100J203700D01*
G01X27926800D01*
X29174200Y20543300D01*
X29173200Y20520900D01*
G03X29484700Y20832400I326800J-15300D01*
G01X29462300Y20831400D01*
X28676400Y21617300D01*
G02X28748300Y21790700I71862J71809D01*
G01X30426800D01*
X31674200Y20543300D01*
X31673200Y20520900D01*
G03X31984700Y20832400I326800J-15300D01*
G01X31962300Y20831400D01*
X31176400Y21617300D01*
G02X31248300Y21790700I71862J71809D01*
G01X32926800D01*
X34174200Y20543300D01*
X34173200Y20520900D01*
G03X34484700Y20832400I326800J-15300D01*
G01X34462300Y20831400D01*
X33676400Y21617300D01*
G02X33748300Y21790700I71862J71809D01*
G01X35426800D01*
X36674200Y20543300D01*
X36673200Y20520900D01*
G03X36984700Y20832400I326800J-15300D01*
G01X36962300Y20831400D01*
X36176400Y21617300D01*
G02X36248300Y21790700I71862J71809D01*
G01X39243900D01*
G03X39727700Y21759400I256090J203688D01*
G02X39900000Y21686500I70709J-72944D01*
G01Y15807100D01*
G02X39727700Y15734200I-101591J44D01*
G03X39243900Y15702900I-227710J-234988D01*
G01X37256100D01*
G03X36743900I-256100J-203700D01*
G01X34756100D01*
G03X34243900I-256100J-203700D01*
G01X32256100D01*
G03X31743900I-256100J-203700D01*
G01X29756100D01*
G03X29243900I-256100J-203700D01*
G01X28405400D01*
X28306200Y15603700D01*
X28257000D01*
X28241900Y15620300D01*
G03X27743900Y15603700I-241933J-220298D01*
G01X27183600D01*
X26333600Y16453700D01*
X21504500D01*
G03Y16046300I-256100J-203700D01*
G01X26164800D01*
X26407400Y15803700D01*
G02X26350300Y15631300I-71818J-71869D01*
G03X26128600Y15121600I47498J-323725D01*
G02X26091600Y14973600I-83599J-57725D01*
G03X26256900Y14356000I150020J-290769D01*
G01X26279300Y14357000D01*
X26938200Y13698100D01*
X39619600D01*
X39684800Y13632900D01*
Y13419800D01*
G02X39563500Y13320200I-101590J60D01*
G03X39243900Y13202900I-63514J-320994D01*
G01X37256100D01*
G03X36743900I-256100J-203700D01*
G01X34756100D01*
G03X34243900I-256100J-203700D01*
G01X32256100D01*
G03X31743900I-256100J-203700D01*
G01X29756100D01*
G03X29243900I-256100J-203700D01*
G01X27256100D01*
G03X26743900I-256100J-203700D01*
G01X25489000D01*
X25454400Y13168300D01*
X25405200D01*
X25390100Y13184900D01*
G03X25132900Y13291400I-241879J-220321D01*
G01X25110500Y13290400D01*
X24956400Y13444500D01*
X21435000D01*
X21124700Y13134200D01*
X21102300Y13135200D01*
G03X20843200Y13026600I-15324J-326822D01*
G02X20667500Y13076600I-75676J67779D01*
G37*
G36*
G01X19703700Y19911700D02*
Y20231100D01*
G03X19737800Y20711900I-203703J256057D01*
G02X19811700Y20883300I73845J69792D01*
G01X20390400D01*
X20709900Y21202800D01*
G02X20883300Y21130900I71809J-71862D01*
G01Y20748400D01*
G02X20713500Y20673100I-101592J-10D01*
G03X20787000Y20285600I-219789J-242410D01*
G01X20801000Y20313900D01*
X20883300D01*
Y20188700D01*
X20877600Y20183000D01*
Y20072400D01*
X20544800Y19739600D01*
G02X20384600Y19761400I-71805J71858D01*
G03X19875100Y19837800I-284667J-161310D01*
G02X19703700Y19911700I-69791J73848D01*
G37*
G36*
G01X39727700Y22229400D02*
G03X39243900Y22198100I-227710J-234988D01*
G01X27256100D01*
G03X26743900I-256100J-203700D01*
G01X24756100D01*
G03X24243900I-256100J-203700D01*
G01X22714800D01*
X22451100Y22461800D01*
G02X22515800Y22635000I71806J71861D01*
G03X22172200Y23027000I-23025J326406D01*
G02X22055500Y22947300I-99499J20402D01*
G03X21866200Y22923400I-55444J-322485D01*
G02X21723900Y23003200I-41525J92728D01*
G03X21251300Y23253200I-324526J-41782D01*
G02X21103700Y23343700I-46014J90568D01*
G01Y24765100D01*
X21378600Y25040000D01*
Y28112500D01*
X21009000Y28482100D01*
Y28503300D01*
X20770700Y28741600D01*
Y29409400D01*
G02X20886200Y29510100I101612J41D01*
G03X21004700Y29515500I44603J324115D01*
G02X21129300Y29416500I22988J-98977D01*
G01Y28782600D01*
X22515600Y27396300D01*
X24193900D01*
G02X24266400Y27223600I-18J-101576D01*
G03X24243900Y27198100I233789J-228961D01*
G01X22256100D01*
G03Y26790700I-256100J-203700D01*
G01X24243900D01*
G03X24756100I256100J203700D01*
G01X26743900D01*
G03X27256100I256100J203700D01*
G01X28380900D01*
Y25560500D01*
G03X28788300I203700J-256100D01*
G01Y26790700D01*
X31044700D01*
Y26506100D01*
G03X31452100I203700J-256100D01*
G01Y26790700D01*
X33543900D01*
Y26506100D01*
G03X33951300I203700J-256100D01*
G01Y26790700D01*
X36043100D01*
Y26506100D01*
G03X36450500I203700J-256100D01*
G01Y26790700D01*
X39243900D01*
G03X39727700Y26759400I256090J203688D01*
G02X39900000Y26686500I70709J-72944D01*
G01Y24802300D01*
G02X39727700Y24729400I-101591J44D01*
G03X39243900Y24698100I-227710J-234988D01*
G01X27256100D01*
G03X26743900I-256100J-203700D01*
G01X24756100D01*
G03X24243900I-256100J-203700D01*
G01X22256100D01*
G03Y24290700I-256100J-203700D01*
G01X24243900D01*
G03X24756100I256100J203700D01*
G01X26743900D01*
G03X27256100I256100J203700D01*
G01X29296300D01*
Y23261700D01*
G03X29703700I203700J-256100D01*
G01Y24290700D01*
X31796300D01*
Y23261700D01*
G03X32203700I203700J-256100D01*
G01Y24290700D01*
X34296300D01*
Y23261700D01*
G03X34703700I203700J-256100D01*
G01Y24290700D01*
X36796300D01*
Y23261700D01*
G03X37203700I203700J-256100D01*
G01Y24290700D01*
X39243900D01*
G03X39727700Y24259400I256090J203688D01*
G02X39900000Y24186500I70709J-72944D01*
G01Y22302300D01*
G02X39727700Y22229400I-101591J44D01*
G37*
G36*
G01X19715300Y24603700D02*
X19643700Y24675300D01*
Y26422100D01*
X19603700Y26462100D01*
Y26657400D01*
X19582000Y26679000D01*
G02X19660400Y26852300I71838J71885D01*
G03X19805800Y26876300I20786J326512D01*
G02X19946100Y26782300I38689J-93958D01*
G01Y25716700D01*
G03X19925700Y25222200I203695J-256074D01*
G02Y25074200I-69623J-74000D01*
G03X19838100Y24736200I224088J-238429D01*
G02X19741300Y24603700I-96771J-30912D01*
G01X19715300D01*
G37*
G36*
G01X22421000Y31912300D02*
X22037600Y32295700D01*
X22038600Y32318100D01*
G03X21958200Y32548700I-326829J15365D01*
G02Y32682300I76534J66800D01*
G03X21465400I-246400J215300D01*
G02Y32548700I-76534J-66800D01*
G03X21441200Y32517400I246297J-215433D01*
G02X21285400Y32502700I-83985J57142D01*
G01X20984400Y32803700D01*
X20684400D01*
X20603700Y32884400D01*
Y33415600D01*
X20684400Y33496300D01*
X21032200D01*
X21504000Y33968100D01*
G02X21677100Y34032400I101303J-7565D01*
G01X21926900Y33782600D01*
X23370200D01*
X23435500Y33847900D01*
X24296300D01*
Y32901900D01*
G03X24287200Y32397300I203702J-256056D01*
G02Y32242900I-66102J-77200D01*
G03X24173200Y31979100I212816J-248500D01*
G01X24174200Y31956700D01*
X24129800Y31912300D01*
X23548300D01*
G02X23463500Y32069800I38J101599D01*
G03X23453500Y32444600I-273093J180247D01*
G02X23467700Y32580900I81667J60381D01*
G03X23561700Y32725100I-217461J244495D01*
G02X23678300Y32793500I96674J-31215D01*
G03X23431000Y33214800I64113J320866D01*
G02X23314400Y33146400I-96674J31215D01*
G03X22987200Y32630900I-64136J-320882D01*
G02X22973000Y32494600I-81667J-60381D01*
G03X22917300Y32069800I217396J-244557D01*
G02X22832500Y31912300I-84838J-55901D01*
G01X22421000D01*
G37*
G36*
G01X22095700Y34190000D02*
X21915500Y34370200D01*
Y34419400D01*
X21932100Y34434500D01*
G03X21630500Y34993300I-220329J241873D01*
G02X21503700Y35091800I-25191J98437D01*
G01Y36263000D01*
G02X21677100Y36334900I101591J38D01*
G01X22227200Y35784800D01*
X23512300D01*
G02X23604200Y35639800I26J-101606D01*
G03X24195800I295800J-139800D01*
G02X24287700Y35784800I91874J43394D01*
G01X26407100D01*
X26580100Y35611800D01*
G02X26519100Y35438900I-71812J-71875D01*
G03X26875100Y35050800I34897J-325317D01*
G02X26986100Y35132200I99688J-19557D01*
G03X27007300Y35784200I36499J325158D01*
G01X26984900Y35783200D01*
X26575900Y36192200D01*
X22396000D01*
X21214600Y37373600D01*
Y37536000D01*
G02X21335900Y37635600I101590J-60D01*
G03X21726200Y37971900I63466J320978D01*
G01X21725200Y37994300D01*
X21952400Y38221500D01*
X23851100D01*
Y38056500D01*
G03X24240800Y37531200I203693J-256090D01*
G02X24388800Y37494200I57726J-83595D01*
G03X24475900Y37388100I290832J149950D01*
G01Y37223100D01*
X22889600D01*
X22506200Y37606500D01*
X22507200Y37628900D01*
G03X22195700Y37317400I-326800J15300D01*
G01X22218100Y37318400D01*
X22720800Y36815700D01*
X28728900D01*
X29041700Y36503300D01*
X31797000D01*
X31962300Y36668600D01*
X31984700Y36667600D01*
G03X32256100Y36790700I15373J326835D01*
G01X34243900D01*
G03X34756100I256100J203700D01*
G01X36743900D01*
G03X37256100I256100J203700D01*
G01X39243900D01*
G03X39727700Y36759400I256090J203688D01*
G02X39900000Y36686500I70709J-72944D01*
G01Y34802300D01*
G02X39727700Y34729400I-101591J44D01*
G03X39243900Y34698100I-227710J-234988D01*
G01X37256100D01*
G03X36743900I-256100J-203700D01*
G01X36544500D01*
X36455200Y34787400D01*
X34495100D01*
X33576700Y35705800D01*
X31617600D01*
X30167100Y34255300D01*
X30037900D01*
Y34420300D01*
G03X29803700Y35002200I-203668J256109D01*
G02X29692700Y35105800I-9438J101152D01*
G03X29396100Y34787800I-327113J7780D01*
G02X29507100Y34684200I9438J-101152D01*
G03X29630500Y34420300I327114J-7842D01*
G01Y34255300D01*
X27575300D01*
G02X27481300Y34395600I-42J101611D01*
G03X26876300I-302500J124600D01*
G02X26782300Y34255300I-93958J-38689D01*
G01X23266700D01*
X23201400Y34190000D01*
X22095700D01*
G37*
G36*
G01X21096300Y36037100D02*
G02X20922900Y35965200I-101591J-38D01*
G01X20784400Y36103700D01*
X19284400D01*
X18903700Y36484400D01*
Y38315600D01*
X18965800Y38377700D01*
X20176200D01*
G02X20244000Y38200400I30J-101602D01*
G03X20137700Y37914700I218200J-243811D01*
G02X20063700Y37803700I-100754J-12997D01*
G03X19831000Y37561600I86128J-315666D01*
G02X19724400Y37483100I-99004J22814D01*
G03X19715300Y36830000I-24485J-326272D01*
G01X19737700Y36831000D01*
X19872400Y36696300D01*
X20815600D01*
X21096300Y36415600D01*
Y36037100D01*
G37*
G36*
G01X23980800Y874100D02*
G03X24040900Y1232100I-238415J224069D01*
G02X24133600Y1375300I92711J41589D01*
G01X26941900D01*
G02X27013800Y1201900I38J-101591D01*
G01X26818900Y1007000D01*
Y702900D01*
X24756100D01*
G03X24243900I-256100J-203700D01*
G01X24054800D01*
G02X23980800Y874100I14J101599D01*
G37*
G36*
G01X23164400Y3376300D02*
X23303700Y3515600D01*
Y4037200D01*
X23321300Y4054800D01*
Y4273700D01*
G03X23341700Y4768200I-203695J256074D01*
G02Y4916200I69623J74000D01*
G03X23444400Y5169900I-224124J238364D01*
G01X23443400Y5192300D01*
X23546600Y5295500D01*
X24243900D01*
G03X24756100I256100J203700D01*
G01X26743900D01*
G03X27137900Y5202500I256059J203707D01*
G02X27280000Y5131600I42755J-92159D01*
G03X27297000Y5076400I320008J68335D01*
G02X27240400Y5007300I-47030J-19208D01*
G03X27499500Y4751000I-61560J-321348D01*
G02X27599300Y4872800I99559J20211D01*
G03X27919100Y5272300I693J327196D01*
G02X28018200Y5396300I99101J22399D01*
G01X28924200D01*
X29025000Y5295500D01*
X29243900D01*
G03X29659300Y5213400I256072J203699D01*
G02X29801400Y5166200I49401J-88776D01*
G03X29810700Y5147100I298684J133618D01*
G02X29747800Y5001600I-89778J-47534D01*
G03X30123500Y4838900I86408J-315596D01*
G02X30186400Y4984400I89778J47534D01*
G03X30424200Y5344400I-86387J315604D01*
G02X30524800Y5459800I100645J13812D01*
G01X31761500D01*
X32025000Y5196300D01*
X32243900D01*
G03X32826800Y5415300I256062J203691D01*
G01X32825800Y5437700D01*
X33384400Y5996300D01*
X36214800D01*
X36289400Y5921700D01*
G02X36276300Y5767000I-71831J-71822D01*
G03X36277000Y5232500I189176J-267003D01*
G02X36290400Y5077600I-58472J-83088D01*
G01X35956500Y4743800D01*
X34696200D01*
G03X34470000Y4865900I-256029J-203738D01*
G02X34377900Y4974500I9246J101194D01*
G03X34152600Y5309600I-326311J23898D01*
G02X34084800Y5428500I31335J96649D01*
G03X33664500Y5188800I-319285J71512D01*
G02X33732300Y5069900I-31335J-96649D01*
G03X33847900Y4742300I319300J-71525D01*
G01Y3703700D01*
X31784500D01*
X31443700Y4044500D01*
Y4743900D01*
G03X31036300I-203700J256100D01*
G01Y3875700D01*
X31412000Y3500000D01*
X31114900Y3202900D01*
X29756100D01*
G03X29243900I-256100J-203700D01*
G01X27256100D01*
G03X26984700Y3326000I-256027J-203735D01*
G01X26962300Y3325000D01*
X26727300Y3560000D01*
X24822400D01*
X24580000Y3317600D01*
X24554200Y3321900D01*
G03X24243900Y3202900I-54215J-322695D01*
G01X23236300D01*
G02X23164400Y3376300I-38J101591D01*
G37*
G36*
G01X23393900Y6703700D02*
X23300800Y6796800D01*
G02X23326200Y6959000I71830J71840D01*
G03X23496600Y7318300I-149596J291003D01*
G02X23625300Y7436700I99354J21151D01*
G03X23950500Y7518000I94442J313281D01*
G02X24094000Y7517800I71650J-72031D01*
G01X24349300Y7262500D01*
X26297900D01*
G03X26871200Y7546500I256102J203667D01*
G02X26976900Y7672800I98473J24968D01*
G03X27256100Y7795500I23119J326398D01*
G01X29110000D01*
X29144400Y7707300D01*
G03X29109500Y7669900I221052J-241259D01*
G01X27381800D01*
X26415600Y6703700D01*
X23393900D01*
G37*
G36*
G01X23271100Y7563300D02*
G03X23113100Y7571000I-94456J-313291D01*
G02X22991800Y7670600I-19710J99660D01*
G01Y8796300D01*
X22913200Y8874900D01*
G02X22985100Y9048300I71862J71809D01*
G01X23363600D01*
X23904600Y8507300D01*
Y8170600D01*
G02X23783300Y8071000I-101590J60D01*
G03X23399800Y7681700I-63501J-320989D01*
G02X23271100Y7563300I-99354J-21151D01*
G37*
G36*
G01X22710000Y9455700D02*
X22695000Y9470700D01*
X22644600D01*
Y9549400D01*
X22668200Y9564400D01*
G03X22177100Y9926700I-175423J276207D01*
G02X22066100Y9852700I-98003J26754D01*
G03X22000900Y9854600I-42084J-324495D01*
G02X21958900Y9938500I-3610J50655D01*
G03X22038600Y10168300I-247129J214431D01*
G01X22037600Y10190700D01*
X22142400Y10295500D01*
X23272000D01*
G02X23373100Y10184200I-36J-101600D01*
G03X23373000Y10122600I325699J-31329D01*
G02X23272300Y10011600I-101154J-9410D01*
G03X22961300Y9587400I1496J-327200D01*
G02X22864300Y9455700I-97031J-30106D01*
G01X22710000D01*
G37*
G36*
G01X22318200Y11877100D02*
X22611300Y12170200D01*
X22633700Y12169200D01*
G03X22970000Y12432700I15306J326822D01*
G02X23100600Y12509900I99705J-19604D01*
G03X23271100Y12502200I99501J311698D01*
G02X23389500Y12435100I22014J-99166D01*
G03X23759800Y12216700I310481J103300D01*
G02X23878200Y12135200I18496J-99883D01*
G03X24412500Y11945800I321775J59397D01*
G02X24496300Y11907200I33000J-38621D01*
G01Y11819800D01*
X24380200Y11703700D01*
X22390100D01*
G02X22318200Y11877100I-38J101591D01*
G37*
G36*
G01X36962300Y8325000D02*
X36283600Y9003700D01*
X31215600D01*
X30484100Y8272200D01*
X30451100Y8289400D01*
G03X30043900Y8202900I-151140J-290206D01*
G01X27256100D01*
G03X26743900I-256100J-203700D01*
G01X24756100D01*
G03X24703700Y8255300I-256100J-203700D01*
G01Y9323600D01*
X24139200Y9888100D01*
X24095300D01*
G02X24001300Y10028400I-42J101611D01*
G03X24024500Y10184200I-302498J124672D01*
G02X24125600Y10295500I101136J9700D01*
G01X24243900D01*
G03X24756100I256100J203700D01*
G01X26743900D01*
G03X27256100I256100J203700D01*
G01X28422400D01*
G02X28512600Y10147200I-19J-101592D01*
G03X29059300Y9793100I290565J-150471D01*
G01X39121800D01*
X39684800Y9230100D01*
Y8419800D01*
G02X39563500Y8320200I-101590J60D01*
G03X39243900Y8202900I-63514J-320994D01*
G01X37256100D01*
G03X36984700Y8326000I-256027J-203735D01*
G01X36962300Y8325000D01*
G37*
G36*
G01X22684400Y27803700D02*
X22265200Y28222900D01*
G02X22337100Y28396300I71862J71809D01*
G01X26288500D01*
G02X26362300Y28224900I5J-101586D01*
G03X26280900Y27927700I237709J-224853D01*
G02X26181800Y27803700I-99101J-22399D01*
G01X22684400D01*
G37*
G36*
G01X32578800Y29203700D02*
X32325800Y29456700D01*
X32326800Y29479100D01*
G03X31673200I-326800J15300D01*
G01X31674200Y29456700D01*
X31521200Y29303700D01*
X31384700D01*
Y29383200D01*
X31409200Y29398000D01*
G03X30987500Y29469900I-169237J280016D01*
G02X30909100Y29303700I-78409J-64604D01*
G01X29978800D01*
X29852900Y29429600D01*
X29908100Y29484800D01*
X29934900Y29479300D01*
G03X29960800Y30124800I65101J320658D01*
G02X29847500Y30216100I-12136J100890D01*
G03X29319800Y29927600I-325712J-31097D01*
G02X29314600Y29764000I-62772J-79887D01*
G03X29173200Y29479100I185425J-269569D01*
G01X29174200Y29456700D01*
X29121200Y29403700D01*
X27911500D01*
G02X27837700Y29575100I-5J101586D01*
G03X27595400Y30127200I-237674J224911D01*
G02X27493900Y30210900I-1487J101590D01*
G03X26913900Y29952200I-322137J-57301D01*
G02X26873200Y29796000I-80070J-62539D01*
G03X26743900Y29698100I126701J-301674D01*
G01X25376000D01*
G02X25299900Y29867000I-12J101589D01*
G03X24903100Y29793900I-245073J216801D01*
G01X24930300Y29779600D01*
Y29698100D01*
X24756100D01*
G03X24243900I-256100J-203700D01*
G01X22256100D01*
G03X21927700Y29813500I-256060J-203710D01*
G02X21803700Y29912600I-22399J99101D01*
G01Y29973900D01*
G02X21970500Y30051800I101597J-14D01*
G03Y30553800I209900J251000D01*
G02X21803700Y30631700I-65203J77914D01*
G01Y31684500D01*
X21655100Y31833000D01*
G02X21723400Y32006400I71853J71849D01*
G03X21727100Y32006600I-15808J326773D01*
G01X21749500Y32007600D01*
X22252200Y31504900D01*
X24298600D01*
X24462300Y31668600D01*
X24484700Y31667600D01*
G03X24826800Y32009700I15300J326800D01*
G01X24825800Y32032100D01*
X24923400Y32129700D01*
X26576600D01*
X26674200Y32032100D01*
X26673200Y32009700D01*
G03X27326800I326800J-15300D01*
G01X27325800Y32032100D01*
X27423400Y32129700D01*
X28581100D01*
X28920100Y31790700D01*
X29243900D01*
G03Y32198100I256100J203700D01*
G01X29088900D01*
X28749900Y32537100D01*
X27396500D01*
G02X27302500Y32677400I-42J101611D01*
G03X27203700Y33058100I-302518J124660D01*
G01Y33847900D01*
X30335900D01*
X31786400Y35298400D01*
X31874500D01*
Y35238300D01*
X31871300Y35229600D01*
G03X32207700Y34787800I305930J-116029D01*
G02X32318700Y34684200I9438J-101152D01*
G03X32442100Y34420300I327114J-7842D01*
G01Y32724600D01*
X32037700Y32320200D01*
X32015300Y32321200D01*
G03X32326800Y32009700I-15300J-326800D01*
G01X32325800Y32032100D01*
X32735800Y32442100D01*
X33764200D01*
X34174200Y32032100D01*
X34173200Y32009700D01*
G03X34756100Y31790700I326838J-15309D01*
G01X36743900D01*
G03X37256100I256100J203700D01*
G01X39243900D01*
G03X39727700Y31759400I256090J203688D01*
G02X39900000Y31686500I70709J-72944D01*
G01Y29802300D01*
G02X39727700Y29729400I-101591J44D01*
G03X39277800Y29734600I-227696J-234993D01*
G01X37222200D01*
G03X37066000Y29814900I-222216J-240184D01*
G02X36995000Y29958400I20547J99481D01*
G03X37026900Y30085900I-295008J141550D01*
G02X37176600Y30171000I101517J-4360D01*
G03X37004900Y30473100I155185J288043D01*
G02X36855200Y30388000I-101517J4360D01*
G03X36466400Y29870800I-155250J-288030D01*
G02X36393900Y29698100I-72518J-71124D01*
G01X35507500D01*
G02X35421600Y29854000I-36J101595D01*
G03X34868400I-276600J174800D01*
G02X34782500Y29698100I-85864J-54305D01*
G01X34757000D01*
X34741900Y29714700D01*
G03X34173200Y29479100I-241877J-220323D01*
G01X34174200Y29456700D01*
X33921200Y29203700D01*
X33882000D01*
G02X33791500Y29351400I39J101600D01*
G03X33208500I-291500J148600D01*
G02X33118000Y29203700I-90539J-46100D01*
G01X32578800D01*
G37*
G36*
G01X39727700Y27229400D02*
G03X39243900Y27198100I-227710J-234988D01*
G01X37416900D01*
G02X37318100Y27323500I-18J101607D01*
G03X37233800Y27628900I-318114J76525D01*
G02Y27771100I72577J71100D01*
G03X36766200I-233800J228900D01*
G02Y27628900I-72577J-71100D01*
G03X36700100Y27269200I233806J-228889D01*
G01X36704300Y27259500D01*
Y27198100D01*
X36616900D01*
G02X36518100Y27323500I-18J101607D01*
G03X36433800Y27628900I-318114J76525D01*
G02Y27771100I72577J71100D01*
G03X35966200I-233800J228900D01*
G02Y27628900I-72577J-71100D01*
G03X35881900Y27323500I233814J-228875D01*
G02X35783100Y27198100I-98782J-23793D01*
G01X27256100D01*
G03X27233600Y27223600I-256301J-203472D01*
G02X27306100Y27396300I72518J71124D01*
G01X30804100D01*
X30973900Y27566100D01*
X31023100D01*
X31038200Y27549500D01*
G03X31024000Y27973500I241896J220339D01*
G01X30805100D01*
X30635300Y27803700D01*
X29418200D01*
G02X29319100Y27927700I1J101601D01*
G03X28984700Y28326800I-319099J72276D01*
G01X28962300Y28325800D01*
X28484400Y28803700D01*
X22184500D01*
X21989900Y28998200D01*
G02X22047100Y29170600I71851J71850D01*
G03X22256100Y29290700I-47068J323810D01*
G01X24243900D01*
G03X24756100I256100J203700D01*
G01X26743900D01*
G03X27015300Y29167600I256027J203735D01*
G01X27037700Y29168600D01*
X27210000Y28996300D01*
X29290000D01*
X29462300Y29168600D01*
X29484700Y29167600D01*
G03X29515300I15300J326800D01*
G01X29537700Y29168600D01*
X29810000Y28896300D01*
X31690000D01*
X31962300Y29168600D01*
X31984700Y29167600D01*
G03X32015300I15300J326800D01*
G01X32037700Y29168600D01*
X32410000Y28796300D01*
X34090000D01*
X34462300Y29168600D01*
X34484700Y29167600D01*
G03X34756100Y29290700I15373J326835D01*
G01X36743900D01*
G03X37222200Y29254200I256087J203690D01*
G01X39277800D01*
G03X39727700Y29259400I222204J240193D01*
G02X39900000Y29186500I70709J-72944D01*
G01Y27302300D01*
G02X39727700Y27229400I-101591J44D01*
G37*
G36*
G01X24258500Y38056500D02*
Y38221500D01*
X26157500D01*
G02X26251500Y38081200I42J-101611D01*
G03X26574900Y37630100I302523J-124592D01*
G02X26680600Y37550700I6496J-101408D01*
G03X26796300Y37365500I319445J70826D01*
G01Y37223100D01*
X24883300D01*
Y37388100D01*
G03X24493600Y37913400I-203693J256090D01*
G02X24345600Y37950400I-57726J83595D01*
G03X24258500Y38056500I-290832J-149950D01*
G37*
G36*
G01X27436800Y100000D02*
G02X27338700Y227800I49J101588D01*
G03X27226300Y568500I-316091J84610D01*
G01Y838200D01*
X27384400Y996300D01*
X28171200D01*
G02X28269100Y867800I-60J-101589D01*
G03X28900100I315500J-86800D01*
G02X28998000Y996300I97960J26911D01*
G01X29296300D01*
Y755300D01*
G03X29264400Y272100I203684J-256100D01*
G02X29191300Y100000I-73126J-70514D01*
G01X27436800D01*
G37*
G36*
G01X37256100Y5702900D02*
G03X36984700Y5826000I-256027J-203735D01*
G01X36962300Y5825000D01*
X36383600Y6403700D01*
X33334900D01*
G02X33263000Y6577100I-38J101591D01*
G01X33948400Y7262500D01*
X34732700D01*
G03Y7669900I256100J203700D01*
G01X33779600D01*
X33246500Y7136800D01*
G02X33085900Y7159200I-71847J71808D01*
G03X32640800Y6714100I-285900J-159200D01*
G02X32663200Y6553500I-49408J-88753D01*
G01X32249000Y6139300D01*
X31383700D01*
G02X31311800Y6312700I-38J101591D01*
G01X32139500Y7140400D01*
X32161900Y7139400D01*
G03X31850400Y7450900I15300J326800D01*
G01X31851400Y7428500D01*
X30926600Y6503700D01*
X27037100D01*
G02X26965200Y6677100I-38J101591D01*
G01X27550600Y7262500D01*
X29109500D01*
G03X29642900Y7640000I256113J203709D01*
G02X29728900Y7795500I86080J53924D01*
G01X30043900D01*
G03X30541900Y7778900I256067J203698D01*
G01X30557000Y7795500D01*
X30583600D01*
X31384400Y8596300D01*
X34296300D01*
Y8356100D01*
G03X34703700I203700J-256100D01*
G01Y8596300D01*
X36114800D01*
X36674200Y8036900D01*
X36673200Y8014500D01*
G03X37256100Y7795500I326838J-15309D01*
G01X39243900D01*
G03X39563500Y7678200I256086J203694D01*
G02X39684800Y7578600I19710J-99660D01*
G01Y5919800D01*
G02X39563500Y5820200I-101590J60D01*
G03X39243900Y5702900I-63514J-320994D01*
G01X37256100D01*
G37*
G36*
G01X24829800Y11577100D02*
X24903700Y11651000D01*
Y12416500D01*
G03X25020200Y12605300I-203724J256052D01*
G02X25080400Y12644500I49702J-10503D01*
G03X25404300Y12760900I67830J320104D01*
G01X25623200D01*
X25657800Y12795500D01*
X26743900D01*
G03X27256100I256100J203700D01*
G01X29243900D01*
G03X29756100I256100J203700D01*
G01X31743900D01*
G03X32256100I256100J203700D01*
G01X34243900D01*
G03X34756100I256100J203700D01*
G01X36743900D01*
G03X36805900Y12735800I255989J203807D01*
G02X36817500Y12582200I-60265J-81789D01*
G01X36659500Y12424200D01*
Y11643200D01*
X36420000Y11403700D01*
X24901700D01*
G02X24829800Y11577100I-38J101591D01*
G37*
G36*
G01X39813300Y14080600D02*
X39788400Y14105500D01*
X27107000D01*
X26567400Y14645100D01*
X26568400Y14667500D01*
G03X26510800Y14868800I-326827J15372D01*
G02X26547800Y15016800I83595J57726D01*
G03X26591900Y15044200I-150084J290748D01*
G02X26672800Y15002800I30105J-40915D01*
G03X27319100Y15072300I327188J-2801D01*
G02X27418200Y15196300I99101J22399D01*
G01X27743900D01*
G03X28256100I256100J203700D01*
G01X28475000D01*
X28574200Y15295500D01*
X29243900D01*
G03X29756100I256100J203700D01*
G01X31743900D01*
G03X32256100I256100J203700D01*
G01X34243900D01*
G03X34756100I256100J203700D01*
G01X36743900D01*
G03X37256100I256100J203700D01*
G01X39243900D01*
G03X39727700Y15264200I256090J203688D01*
G02X39900000Y15191300I70709J-72944D01*
G01Y14116500D01*
G02X39813300Y14080600I-50793J24D01*
G37*
G36*
G01X27018200Y27803700D02*
G02X26919100Y27927700I1J101601D01*
G03X26837700Y28224900I-319109J72347D01*
G02X26911500Y28396300I73795J69814D01*
G01X28315600D01*
X28674200Y28037700D01*
X28673200Y28015300D01*
G03X28680900Y27927700I326819J-15411D01*
G02X28581800Y27803700I-99101J-22399D01*
G01X27018200D01*
G37*
G36*
G01X24756100Y27198100D02*
G03X24733600Y27223600I-256289J-203461D01*
G02X24806100Y27396300I72518J71124D01*
G01X26693900D01*
G02X26766400Y27223600I-18J-101576D01*
G03X26743900Y27198100I233801J-228972D01*
G01X24756100D01*
G37*
G36*
G01X24928700Y32537100D02*
G02X24827200Y32640400I67J101582D01*
G03X24703700Y32901900I-327181J5393D01*
G01Y33847900D01*
X26796300D01*
Y33058100D01*
G03X26697500Y32677400I203718J-256040D01*
G02X26603500Y32537100I-93958J-38689D01*
G01X24928700D01*
G37*
G36*
G01X27203700Y37223100D02*
Y37365500D01*
G03X26979100Y37948100I-203688J256069D01*
G02X26873400Y38027500I-6496J101408D01*
G03X26856500Y38081200I-319380J-71003D01*
G02X26950500Y38221500I93958J38689D01*
G01X28656700D01*
G02X28750700Y38081200I42J-101611D01*
G03X28829100Y37718200I302517J-124629D01*
G02Y37570200I-69623J-74000D01*
G03X28726400Y37316500I224124J-238364D01*
G01X28727400Y37294100D01*
X28656400Y37223100D01*
X27203700D01*
G37*
G36*
G01X29735600Y272100D02*
G03X29703700Y755300I-235584J227100D01*
G01Y996300D01*
X30784800D01*
G02X30877000Y852200I-50J-101578D01*
G03X30853800Y781400I297322J-136629D01*
G02X30717000Y707400I-99514J20520D01*
G03X30308100Y249300I-120030J-304404D01*
G02X30218400Y100000I-89678J-47717D01*
G01X29808700D01*
G02X29735600Y272100I26J101586D01*
G37*
G36*
G01X29210300Y36910700D02*
X29134700Y36986200D01*
X29177200Y37028900D01*
X29185900Y37032700D01*
G03X29277300Y37570200I-132700J299086D01*
G02Y37718200I69623J74000D01*
G03X29355700Y38081200I-224117J238371D01*
G02X29449700Y38221500I93958J38689D01*
G01X30103500D01*
G02X30197500Y38081200I42J-101611D01*
G03X30802500I302500J-124600D01*
G02X30896500Y38221500I93958J38689D01*
G01X31596100D01*
G02X31691800Y38085800I-14J-101605D01*
G03X31673100Y37989000I308221J-109749D01*
G02X31530900Y37899900I-101524J4006D01*
G03X31726900Y37587000I-130934J-299854D01*
G02X31869100Y37676100I101524J-4006D01*
G03X32308200Y38085800I130880J299883D01*
G02X32403900Y38221500I95714J34095D01*
G01X32603500D01*
G02X32697500Y38081200I42J-101611D01*
G03X33302500I302500J-124600D01*
G02X33396500Y38221500I93958J38689D01*
G01X34096100D01*
G02X34191800Y38085800I-14J-101605D01*
G03X34808200I308200J-109800D01*
G02X34903900Y38221500I95714J34095D01*
G01X35103500D01*
G02X35197500Y38081200I42J-101611D01*
G03X35802500I302500J-124600D01*
G02X35896500Y38221500I93958J38689D01*
G01X36596100D01*
G02X36691800Y38085800I-14J-101605D01*
G03X37308200I308200J-109800D01*
G02X37403900Y38221500I95714J34095D01*
G01X37603500D01*
G02X37697500Y38081200I42J-101611D01*
G03X38302500I302500J-124600D01*
G02X38396500Y38221500I93958J38689D01*
G01X38515200D01*
X39462300Y39168600D01*
X39484700Y39167600D01*
G03X39727700Y39259400I15370J326831D01*
G02X39900000Y39186500I70709J-72944D01*
G01Y37302300D01*
G02X39727700Y37229400I-101591J44D01*
G03X39243900Y37198100I-227710J-234988D01*
G01X37256100D01*
G03X36743900I-256100J-203700D01*
G01X34756100D01*
G03X34243900I-256100J-203700D01*
G01X32256100D01*
G03X31673200Y36979100I-256062J-203691D01*
G01X31674200Y36956700D01*
X31628200Y36910700D01*
X29210300D01*
G37*
G36*
G01X39727700Y734200D02*
G03X39243900Y702900I-227710J-234988D01*
G01X37256100D01*
G03X36743900I-256100J-203700D01*
G01X34756100D01*
G03X34243900I-256100J-203700D01*
G01X34146900D01*
G02X34050300Y835900I32J101604D01*
G03X33428100I-311100J101300D01*
G02X33331500Y702900I-96632J-31396D01*
G01X32256100D01*
G03X32203700Y755300I-256100J-203700D01*
G01Y884400D01*
X31886200Y1201900D01*
G02X31958100Y1375300I71862J71809D01*
G01X38995200D01*
X39726600Y2106700D01*
G02X39900000Y2034800I71809J-71862D01*
G01Y807100D01*
G02X39727700Y734200I-101591J44D01*
G37*
G36*
G01Y32229400D02*
G03X39243900Y32198100I-227710J-234988D01*
G01X37256100D01*
G03X36743900I-256100J-203700D01*
G01X34756100D01*
G03X34484700Y32321200I-256027J-203735D01*
G01X34462300Y32320200D01*
X33933000Y32849500D01*
X32849500D01*
Y34420300D01*
G03X32615300Y35002200I-203668J256109D01*
G02X32504300Y35105800I-9438J101152D01*
G03X32498200Y35177100I-327108J7926D01*
G02X32597800Y35298400I99660J19710D01*
G01X33407900D01*
X34326300Y34380000D01*
X35795400D01*
G02X35896000Y34264600I-45J-101588D01*
G03X36546500Y34196500I324159J-44470D01*
G02X36647900Y34290700I101340J-7410D01*
G01X36743900D01*
G03X37256100I256100J203700D01*
G01X39243900D01*
G03X39727700Y34259400I256090J203688D01*
G02X39900000Y34186500I70709J-72944D01*
G01Y32302300D01*
G02X39727700Y32229400I-101591J44D01*
G37*
G36*
G01X36962300Y3325000D02*
X36583600Y3703700D01*
X34255300D01*
Y4119500D01*
G02X34376600Y4219100I101590J-60D01*
G03X34696200Y4336400I63514J320994D01*
G01X36125300D01*
X36962300Y5173400D01*
X36984700Y5172400D01*
G03X37256100Y5295500I15373J326835D01*
G01X39243900D01*
G03X39563500Y5178200I256086J203694D01*
G02X39684800Y5078600I19710J-99660D01*
G01Y3419800D01*
G02X39563500Y3320200I-101590J60D01*
G03X39243900Y3202900I-63514J-320994D01*
G01X37256100D01*
G03X36984700Y3326000I-256027J-203735D01*
G01X36962300Y3325000D01*
G37*
G36*
G01X37914100Y12351200D02*
X37596700Y12033800D01*
Y11330800D01*
X37357300Y11091400D01*
X36929200D01*
G02X36857300Y11264800I-38J101591D01*
G01X37066900Y11474400D01*
Y12255400D01*
X37218500Y12407000D01*
X37245400D01*
X37363000Y12524600D01*
X37842200D01*
G02X37914100Y12351200I38J-101591D01*
G37*
G36*
G01X39727700Y10734200D02*
G03X39243900Y10702900I-227710J-234988D01*
G01X37790300D01*
G02X37718400Y10876300I-38J101591D01*
G01X38004100Y11162000D01*
Y11865000D01*
X38275200Y12136100D01*
X38324400D01*
X38339500Y12119500D01*
G03X38874400Y12194100I241928J220301D01*
G02X39037200Y12220700I90962J-45220D01*
G01X39121800Y12136100D01*
X39759200D01*
X39813300Y12190200D01*
G02X39900000Y12154300I35907J-35924D01*
G01Y10807100D01*
G02X39727700Y10734200I-101591J44D01*
G37*
%LPC*%
G75*
G36*
G01X15918000Y5482300D02*
X15919000Y5504700D01*
X15727400Y5696300D01*
X14985200D01*
X14825800Y5536900D01*
X14826800Y5514500D01*
G02X14243900Y5295500I-326838J-15309D01*
G01X12256100D01*
G02X11743900I-256100J203700D01*
G01X9756100D01*
G02X9243900I-256100J203700D01*
G01X7256100D01*
G02X6743900I-256100J203700D01*
G01X4756100D01*
G02X4243900I-256100J203700D01*
G01X2256100D01*
G02Y5702900I-256100J203700D01*
G01X4243900D01*
G02X4756100I256100J-203700D01*
G01X6743900D01*
G02X7256100I256100J-203700D01*
G01X9243900D01*
G02X9756100I256100J-203700D01*
G01X11743900D01*
G02X12256100I256100J-203700D01*
G01X14243900D01*
G02X14515300Y5826000I256027J-203735D01*
G01X14537700Y5825000D01*
X14816400Y6103700D01*
X15896200D01*
X16207100Y5792800D01*
X16229500Y5793800D01*
G02X15918000Y5482300I15300J-326800D01*
G37*
G36*
G01X9227500Y15008800D02*
G03X9345200Y14922600I100626J13942D01*
G02X9075900Y14555000I54799J-322589D01*
G03X8958200Y14641200I-100626J-13942D01*
G02X8821100Y15280500I-54800J322599D01*
G03X8895100Y15398900I-25585J98316D01*
G02X9298100Y15147100I320708J64889D01*
G03X9224100Y15028700I25585J-98316D01*
G02X9227500Y15008800I-320676J-65029D01*
G37*
G36*
G01X3878700Y19047700D02*
G02X3526800Y18995800I-135874J-297681D01*
G03X3501900Y19164500I-67058J76290D01*
G02X3316500Y19524300I135884J297686D01*
G03X3194800Y19642800I-99747J19303D01*
G02X3445300Y19900100I-70741J319461D01*
G03X3567000Y19781600I99747J-19303D01*
G02X3853800Y19216400I70800J-319439D01*
G03X3878700Y19047700I67058J-76290D01*
G37*
G36*
G01X3625800Y34788100D02*
G03X3536000Y34669600I10285J-101070D01*
G02X3180400Y34939100I-322375J-56014D01*
G03X3270200Y35057600I-10285J101070D01*
G02X3625800Y34788100I322375J56014D01*
G37*
G36*
G01X6525800Y34928800D02*
G02X6293200Y34679900I87810J-315193D01*
G03X6166400Y34798400I-99482J20640D01*
G02X6399000Y35047300I-87810J315193D01*
G03X6525800Y34928800I99482J-20640D01*
G37*
G36*
G01X13409000Y32734300D02*
G03X13266800Y32710600I-59331J-82465D01*
G02X13191000Y33165700I-266800J189425D01*
G03X13333200Y33189400I59331J82465D01*
G02X13409000Y32734300I266800J-189425D01*
G37*
G36*
G01X26496600Y17318300D02*
G02X26271100Y17563300I-320016J-68269D01*
G03X26399800Y17681700I29346J97249D01*
G02X26599000Y18054100I319998J68307D01*
G03X26633400Y18220400I-37453J94455D01*
G01X26157200Y18696500D01*
X23345600D01*
X22686700Y19355400D01*
X22664300Y19354400D01*
G02X22819800Y19960300I-15308J326833D01*
G03X22950300Y19981300I52994J86662D01*
G02X23260600Y20091300I249632J-211525D01*
G03X23379100Y20171300I18847J99846D01*
G02X24020900I320900J-63900D01*
G03X24139400Y20091300I99653J19846D01*
G02X24262400Y20091000I60716J-321506D01*
G03X24380900Y20213200I19427J99717D01*
G02X24637600Y19964400I319094J72401D01*
G03X24519100Y19842200I-19427J-99717D01*
G02X23879100Y19705900I-319123J-72267D01*
G03X23760600Y19785900I-99653J-19846D01*
G02X23639400I-60600J321500D01*
G03X23520900Y19705900I-18847J-99846D01*
G02X23338100Y19473100I-320935J63836D01*
G03X23309100Y19309200I42835J-92095D01*
G01X23514400Y19103900D01*
X26037900D01*
Y19737500D01*
G02X26445300I203700J256100D01*
G01Y18984600D01*
X27227000Y18202900D01*
X29243900D01*
G02X29756100I256100J-203700D01*
G01X31743900D01*
G02X32256100I256100J-203700D01*
G01X34243900D01*
G02X34756100I256100J-203700D01*
G01X36743900D01*
G02X37256100I256100J-203700D01*
G01X38769400D01*
X38889400Y18322900D01*
X39106300D01*
G02X39120500Y17898900I256096J-203661D01*
G01X39105400Y17915500D01*
X39058200D01*
X38938200Y17795500D01*
X37256100D01*
G02X36743900I-256100J203700D01*
G01X34756100D01*
G02X34243900I-256100J203700D01*
G01X32256100D01*
G02X31743900I-256100J203700D01*
G01X29756100D01*
G02X29243900I-256100J203700D01*
G01X27047700D01*
X27047000Y17745400D01*
G02X26625300Y17436700I-327193J4580D01*
G03X26496600Y17318300I-29346J-97249D01*
G37*
G54D14*
X21243200Y624800D03*
X34832600Y2467800D03*
X26397800D03*
X16200000Y6900000D03*
X14214200Y2655400D03*
X1999100Y12215100D03*
X12339800Y14963800D03*
X16244800Y16557200D03*
X6560400Y20462200D03*
X13500000Y19700000D03*
X13000000Y23000000D03*
X9372000Y20462200D03*
X16869600D03*
X1908200Y27769800D03*
X18744000Y28428400D03*
X3592600Y30334200D03*
X9713600Y34613600D03*
X12014200Y35113600D03*
X9046400D03*
X21804000Y4750000D03*
X37175600Y17182000D03*
X35500000Y19600000D03*
X22649000Y17963000D03*
X34429800Y25229800D03*
X24992000Y35145000D03*
X26241600Y4529800D03*
X32489600Y30185000D03*
X32000000Y32979200D03*
X31275000Y34100000D03*
X37000000Y7100000D03*
X30600000Y7300000D03*
X28800000Y12200000D03*
X38737600Y14837600D03*
X26100000Y33000000D03*
X33739200Y33739200D03*
X38580200Y3750000D03*
%LPD*%
G75*
G54D10*
X2000000Y499200D03*
Y2999200D03*
Y5499200D03*
Y7999200D03*
X1093400Y10406600D03*
X1999100Y12215100D03*
X2000000Y10499200D03*
X1874400Y14839000D03*
X2000000Y12999200D03*
Y15499200D03*
X1087400Y18750000D03*
X2000000Y17999200D03*
X1086600Y21250000D03*
X2000000Y20100000D03*
Y21994400D03*
X1643600Y25229800D03*
X1255600Y23750000D03*
X1908200Y27769800D03*
X1255600Y26250000D03*
Y28750000D03*
Y31250000D03*
X2499200Y31999200D03*
X1255600Y33750000D03*
X1875000Y35000000D03*
X2000000Y36994400D03*
Y39494400D03*
X4500000Y499200D03*
Y2999200D03*
Y5499200D03*
Y7999200D03*
X3600000Y12000000D03*
X4500000Y10499200D03*
X3736200Y14463800D03*
X3463800Y15463800D03*
X3905000Y14963800D03*
X4500000Y12999200D03*
X3742800Y18750000D03*
X4500000Y17000800D03*
Y17999200D03*
X3637800Y19462200D03*
X4500000Y21994400D03*
X3124000Y19962200D03*
X3748800Y20462200D03*
X3592600Y22492800D03*
X5500000Y23114000D03*
X4500000Y23005600D03*
X3755600Y26250000D03*
X3700000Y29500000D03*
X3592600Y30334200D03*
X4500000Y29494400D03*
X3213600Y34613600D03*
X5467000Y31999200D03*
X3574400Y32627600D03*
X4500000Y31835000D03*
X3755600Y33750000D03*
X3592600Y35113600D03*
X4500000Y36994400D03*
Y39494400D03*
X7000000Y499200D03*
Y2999200D03*
Y5499200D03*
Y7999200D03*
X8000000Y9600000D03*
X8600000D03*
X7000000Y10499200D03*
X6336200Y14463800D03*
X6716600Y14963800D03*
X6248000Y15463800D03*
X7000000Y12999200D03*
X6085800Y18750000D03*
X8741200D03*
X8700000Y17000000D03*
X6200000D03*
X7000000Y17000800D03*
Y17999200D03*
X6337800Y19462200D03*
X8800000Y20600000D03*
X7000000Y21994400D03*
X8747200Y19962200D03*
X5935600D03*
X6560400Y20462200D03*
X8591000Y24054800D03*
X8500000Y22500000D03*
X5900000Y22200000D03*
X7000000Y23005600D03*
X8755600Y26250000D03*
X6255600D03*
X6400000Y29600000D03*
X6404200Y30302800D03*
X7000000Y29494400D03*
X6613600Y34613600D03*
X8278600Y31999200D03*
X6542200Y32627600D03*
X5935600Y32958200D03*
X7000000Y32148200D03*
X8755600Y33750000D03*
X6255600D03*
X6250000Y37500000D03*
X8750000Y36875000D03*
X6078600Y35113600D03*
X7000000Y36994400D03*
Y39494400D03*
X12000000Y499200D03*
X9500000D03*
X12000000Y2999200D03*
X9500000D03*
X11800000Y4800000D03*
X12000000Y5499200D03*
X9500000D03*
X12000000Y7999200D03*
X9500000D03*
X10600000Y10400000D03*
X9200000Y9600000D03*
X9800000D03*
X12000000Y10499200D03*
X9500000D03*
X9400000Y14600000D03*
X11200000Y13200000D03*
X8903400Y14963800D03*
X12000000Y12999200D03*
X9500000D03*
X9215800Y15463800D03*
X10900000Y17300000D03*
X11200000Y18200000D03*
X12000000Y17000800D03*
X9500000D03*
X12000000Y17999200D03*
X9500000D03*
X10500000Y19334200D03*
X9400000Y19600000D03*
X10600000Y20100000D03*
X12000000Y20505600D03*
X9500000Y21994400D03*
X11715000Y19962200D03*
X9372000Y20462200D03*
X11090200Y24523400D03*
X11000000Y22900000D03*
X12000000Y24339800D03*
X9500000Y23100000D03*
X11246400Y26397800D03*
X12000000Y26995200D03*
X9000000Y29700000D03*
X9059600Y30334200D03*
X9500000Y29494400D03*
X12000000D03*
X9713600Y34613600D03*
X11402600Y31999200D03*
X12000000Y31993600D03*
X8903400Y32958200D03*
X12000000Y32985600D03*
X11246400Y32958200D03*
X12014200Y35113600D03*
X9046400D03*
X12000000Y36994400D03*
X9500000D03*
X12000000Y39494400D03*
X9500000D03*
X14214200Y2655400D03*
X14500000Y499200D03*
X15000000Y5300000D03*
X14500000Y4500800D03*
Y5499200D03*
X13745600Y6876400D03*
X13589400Y7501200D03*
X14900000Y12300000D03*
X14500000Y9500800D03*
Y10499200D03*
X14995200Y14711800D03*
X13600000Y14700000D03*
X12339800Y14963800D03*
X14500000Y12999200D03*
Y15490400D03*
X13745600Y16401000D03*
X14500000Y17999200D03*
X13500000Y19700000D03*
X14995200Y19681200D03*
X14500000Y20505600D03*
X13700000Y22000000D03*
X13000000Y23000000D03*
X13750000Y24750000D03*
X13800000Y23200000D03*
X13600000Y27200000D03*
X12183600Y27959800D03*
X13754000Y26250000D03*
X13745600Y27959800D03*
X13800000Y29700000D03*
X14807500Y30490500D03*
X14214200Y30415600D03*
X12183600Y30334200D03*
X13750000Y34375000D03*
X13000000Y32900000D03*
X13800000Y32000000D03*
X13600000Y33000000D03*
X13900000Y34900000D03*
X13745600Y35497400D03*
X14370400Y35301200D03*
X12400000Y35500000D03*
X14500000Y36994400D03*
Y39494400D03*
X17000000Y2000000D03*
Y2999200D03*
X16244800Y5467000D03*
X16200000Y6900000D03*
X16244800Y12496000D03*
Y11871200D03*
X17000000Y9500800D03*
Y10499200D03*
X16084200Y13750000D03*
X16400000Y15100000D03*
X17000000Y12999200D03*
Y15489600D03*
X16244800Y16557200D03*
X16000000Y17700000D03*
X17000000Y17999200D03*
X18200000Y20381400D03*
X17700000Y20100000D03*
X16869600Y20462200D03*
X16600000Y25000000D03*
X16000000D03*
X17200000D03*
X16000000Y24500000D03*
X16600000D03*
X17200000D03*
X16000000Y23000000D03*
X17200000D03*
X15307600Y22336600D03*
X16557200Y27803600D03*
X17650600Y27491200D03*
X17200000Y27785600D03*
X16244800Y30459000D03*
X17338200Y30302800D03*
X17494400Y29521800D03*
X18275400Y30459000D03*
X18300000Y34600000D03*
X18200000Y33000000D03*
X16000000Y32000000D03*
X16600000Y34800000D03*
X18290000Y35450000D03*
X17000000Y36994400D03*
X18275400Y37488000D03*
X17963000Y39674800D03*
X17000000Y39494400D03*
X20618400Y2030600D03*
X19700000Y2477800D03*
X20200000Y2821600D03*
X21243200Y624800D03*
X20462200Y468600D03*
X18744000Y2655400D03*
X19100000Y5000000D03*
X19600000D03*
X20100000D03*
X19100000Y5500000D03*
X19600000D03*
X20100000D03*
X19100000Y7000000D03*
X19600000D03*
X20200000D03*
X19700000Y7828800D03*
X21243200Y10465400D03*
X21200000Y9769800D03*
X20700000Y10234600D03*
X20200000Y9790400D03*
X19984800Y12643400D03*
X19056400Y12652200D03*
X19681200Y9528200D03*
X19500000Y12183600D03*
X18619300Y15307600D03*
X21087000Y12808400D03*
X19500000Y12999200D03*
Y15488800D03*
X18738800Y16250000D03*
X21248400D03*
X18700000Y20662400D03*
X20099900Y19600100D03*
X19500000Y20487200D03*
X20493700Y20430700D03*
X21087000Y22180400D03*
X21399400Y22961400D03*
X19993600Y22180400D03*
X21300000Y24700000D03*
X20149800Y24835800D03*
Y22961400D03*
X19525000Y27959800D03*
X18744000Y28428400D03*
X19681200Y27178800D03*
X20149800Y25460600D03*
X18888200Y27178800D03*
X18431600Y27647400D03*
X20774600Y27335000D03*
X20149800Y27959800D03*
X20930800Y30459000D03*
Y29834200D03*
X20700000Y32102600D03*
X20900000Y33000000D03*
X20600000Y34500000D03*
X19100000Y33000000D03*
X20100000Y34500000D03*
X19600000D03*
X19100000D03*
X18431600Y32333400D03*
X20149800Y37488000D03*
X20462200Y37956600D03*
X19700000Y37156800D03*
X20600000Y35000000D03*
X20100000D03*
X19600000D03*
X19100000D03*
X21399400Y37956600D03*
X19525000Y39674800D03*
X18744000D03*
X21700000Y2667200D03*
X24500000Y499200D03*
X22000000D03*
X22336600Y2655400D03*
X24500000Y2999200D03*
X23742400Y1098200D03*
X23117600Y4529800D03*
X21804000Y4750000D03*
X23117600Y5154600D03*
X24500000Y5499200D03*
X24300000Y7100000D03*
X23176600Y7250000D03*
X23719800Y7750000D03*
X24500000Y7999200D03*
X22492800Y9840600D03*
X24200000Y12194600D03*
X22024200Y9528200D03*
X23273800Y9684400D03*
X21711800Y10153000D03*
X24500000Y10499200D03*
X23698800Y10153000D03*
X23700000Y12538400D03*
X22649000Y12496000D03*
X24700000Y12672600D03*
X21900000Y15500000D03*
X22400000D03*
X21900000Y15000000D03*
X22400000D03*
X23500000Y15500000D03*
Y15000000D03*
X23200000Y12821600D03*
X22649000Y17963000D03*
X24500000Y21994400D03*
X22649000Y19681200D03*
X21711800Y19837400D03*
X24700000Y20285600D03*
X24200000Y19769800D03*
X23700000Y20107400D03*
X23200000Y19769800D03*
X22492800Y22961400D03*
X24500000Y24494400D03*
X22000000D03*
Y22624800D03*
X24500000Y26994400D03*
X22000000D03*
X24500000Y29494400D03*
X22000000D03*
X22180400Y30302800D03*
X23742400Y33114400D03*
X21711800Y34676400D03*
X24500000Y32645800D03*
X21711800Y32333400D03*
X24500000Y31994400D03*
X23190400Y32250000D03*
X21711800Y32897600D03*
X23250300Y32825500D03*
X23300000Y34500000D03*
X23900000Y35500000D03*
X24054800Y37800400D03*
X24679600Y37644200D03*
X22180400D03*
X22768000Y39504000D03*
X27000000Y2000000D03*
X25067800Y2967800D03*
X26397800Y2467800D03*
X27022600Y312400D03*
X27000000Y2999200D03*
X27600000Y5200000D03*
X26241600Y4529800D03*
X27000000Y5499200D03*
X27178800Y4686000D03*
X25900000Y7000000D03*
X26554000Y7466200D03*
X27000000Y7999200D03*
Y10499200D03*
X26241600Y14682800D03*
X27000000Y15000000D03*
X25148200Y12964600D03*
X27000000Y12999200D03*
X26397800Y15307600D03*
X26176600Y17250000D03*
X26719800Y17750000D03*
X27000000Y21994400D03*
X26241600Y19993600D03*
X27000000Y24494400D03*
X26600000Y28000000D03*
X27000000Y26994400D03*
X27171800Y30153600D03*
X27000000Y29494400D03*
X27600000Y29800000D03*
X25054800Y30083800D03*
X27000000Y32802000D03*
Y31994400D03*
X26100000Y33000000D03*
X26241600Y31864800D03*
X27178800Y34520200D03*
X26554000Y35113600D03*
X27022600Y35457400D03*
X24992000Y35145000D03*
X26241600Y36394600D03*
X26554000Y37956600D03*
X27000000Y37621600D03*
X30597000Y403000D03*
X29521800Y2467800D03*
X29500000Y499200D03*
Y2999200D03*
X28584600Y781000D03*
X30100000Y5300000D03*
X28600000Y4500000D03*
X29500000Y5499200D03*
X29834200Y4686000D03*
X28900000Y7000000D03*
X29365600Y7466200D03*
X30300000Y7999200D03*
X30600000Y7300000D03*
X28800000Y12200000D03*
X28803200Y9996800D03*
X29500000Y10499200D03*
Y12999200D03*
X28000000Y15400000D03*
X29500000Y15499200D03*
Y17999200D03*
Y20505600D03*
Y23005600D03*
X28584600Y25304400D03*
X29000000Y28000000D03*
X29521800Y30185000D03*
X29500000Y29494400D03*
X30000000Y29800000D03*
X29834200Y34676400D03*
X29500000Y31994400D03*
X28740800Y31708600D03*
X29365600Y35113600D03*
X30500000Y37956600D03*
X28740800Y36394600D03*
X29053200Y37956600D03*
Y37331800D03*
X32512000Y2032000D03*
X32567800Y2967800D03*
X32177200Y2467800D03*
X32000000Y499200D03*
X33739200Y937200D03*
X31174200Y715200D03*
X33765500Y5500000D03*
X34051600Y4998400D03*
X31240000Y5000000D03*
X32500000Y5400000D03*
X32800000Y7000000D03*
X32566200Y7966200D03*
X32177200Y7466200D03*
X32000000Y10499200D03*
Y12999200D03*
Y15499200D03*
Y17999200D03*
Y20505600D03*
Y23005600D03*
X31280100Y27769800D03*
X33747600Y26250000D03*
X31248400D03*
X32489600Y30185000D03*
X32000000Y29494400D03*
X33500000Y29500000D03*
X31240000Y29678000D03*
X33739200Y33739200D03*
X32000000Y32979200D03*
Y31994400D03*
X32645800Y34676400D03*
X31275000Y34100000D03*
X31083800Y32489600D03*
X33739200Y31708600D03*
X32177200Y35113600D03*
X31400000Y37600000D03*
X33000000Y37956600D03*
X33739200Y36394600D03*
X31240000Y36238400D03*
X32000000Y37976000D03*
Y36994400D03*
X36830000Y2159000D03*
X35132200Y2967800D03*
X34832600Y2467800D03*
X37000000Y499200D03*
X34500000D03*
X37000000Y2999200D03*
X36465500Y5500000D03*
X37000000Y5499200D03*
X34440100Y4540100D03*
X37000000Y7100000D03*
X35266200Y7966200D03*
X34988800Y7466200D03*
X37000000Y7999200D03*
X34500000Y8100000D03*
X37000000Y10499200D03*
X34500000D03*
Y12999200D03*
X37000000D03*
X34500000Y15499200D03*
X37000000D03*
Y17999200D03*
X34500000D03*
X37175600Y17182000D03*
X37000000Y20505600D03*
X34500000D03*
X35500000Y19600000D03*
X37000000Y23005600D03*
X34500000D03*
X34429800Y25229800D03*
X37000000Y27400000D03*
X36200000D03*
X37000000Y28000000D03*
X36200000D03*
X36246800Y26250000D03*
X35145000Y30028800D03*
X37331800Y30459000D03*
X37000000Y29494400D03*
X34500000D03*
X36700000Y30100000D03*
X37000000Y34494400D03*
X34500000Y31994400D03*
X37000000D03*
X36220200Y34220200D03*
X35500000Y37956600D03*
X37000000Y37976000D03*
X34500000D03*
X37000000Y36994400D03*
X34500000D03*
X39500000Y499200D03*
Y2999200D03*
Y5499200D03*
X38580200Y3750000D03*
X39500000Y7999200D03*
X38581400Y12339800D03*
X39500000Y10499200D03*
X38737600Y14837600D03*
X39500000Y12999200D03*
Y15499200D03*
X39362400Y18119200D03*
X39500000Y21994400D03*
Y24494400D03*
Y26994400D03*
Y29494400D03*
Y34494400D03*
Y31994400D03*
X38000000Y37956600D03*
X39500000Y36994400D03*
Y39494400D03*
G54D11*
G01X7000000Y32148200D02*
Y31250000D01*
G01X37000000Y29494400D02*
X39500000D01*
G54D12*
G01X2000000Y499200D02*
X4500000D01*
G01X2000000Y2999200D02*
X4500000D01*
G01X2000000Y5499200D02*
X4500000D01*
G01X2000000Y7999200D02*
X4500000D01*
G01X16244800Y12496000D02*
X15248800Y11500000D01*
X1300000D01*
X1000000Y11800000D01*
Y13700000D01*
X1358000Y14058000D01*
X4158000D01*
X4800000Y14700000D01*
Y16000000D01*
X4200000Y16600000D01*
X1100000D01*
X600000Y17100000D01*
Y20200000D01*
X1225700Y20825700D01*
X4974300D01*
X5300000Y20500000D01*
Y19535800D01*
X6085800Y18750000D01*
G01X3905000Y14963800D02*
Y15695000D01*
X3511400Y16088600D01*
X937200D01*
X624800Y15776200D01*
Y10465400D01*
X729900Y10360300D01*
Y10256000D01*
X942800Y10043100D01*
X1047100D01*
X1093400Y9996800D01*
X6003200D01*
X7000000Y9000000D01*
X12905000D01*
X13905000Y10000000D01*
X17300000D01*
X19120100Y11820100D01*
X21973100D01*
X22649000Y12496000D01*
G01X2000000Y10499200D02*
X4500000D01*
G01X2000000Y12999200D02*
X4500000D01*
G01X2000000Y17999200D02*
X4500000D01*
G01X1086600Y21250000D02*
X6950000D01*
X7400000Y20800000D01*
Y18861500D01*
X7900000Y18361500D01*
X8902200D01*
X9140700Y18600000D01*
X15100000D01*
X16000000Y17700000D01*
G01X2000000Y21994400D02*
X4500000D01*
G01X2000000D02*
X300000Y23694400D01*
Y32200000D01*
X1461500Y33361500D01*
X6198900D01*
X6542200Y33018200D01*
Y32627600D01*
G01X1255600Y23750000D02*
X3755600D01*
X4500000Y23005600D01*
G01X1255600Y23750000D02*
X600000Y24405600D01*
Y31840000D01*
X1387600Y32627600D01*
X3574400D01*
G01X17700000Y20100000D02*
Y21292600D01*
X17963000Y21555600D01*
X20149800D01*
X20411800Y21817600D01*
Y22695100D01*
X20538300Y22821600D01*
Y23973000D01*
X20411300Y24100000D01*
X19553300D01*
X19173000Y24480300D01*
Y26227000D01*
X19000000Y26400000D01*
X14600000D01*
X14000000Y25800000D01*
X10961000D01*
X9996800Y24835800D01*
X6091800D01*
X5697800Y25229800D01*
X1643600D01*
G01X1255600Y26250000D02*
X3755600D01*
G01X1255600Y28750000D02*
X892100Y29113500D01*
Y31400600D01*
X900000Y31408500D01*
Y31456600D01*
X1056900Y31613500D01*
X1406200D01*
X1409000Y31610700D01*
X3107000D01*
X3884000Y32387700D01*
X5833700D01*
X5935600Y32489600D01*
Y32958200D01*
G01X1255600Y28750000D02*
X3755600D01*
X4500000Y29494400D01*
G01X1255600Y31250000D02*
X3915000D01*
G01X1255600Y33750000D02*
X3755600D01*
G01X2000000Y36994400D02*
X4500000D01*
G01X2000000Y39494400D02*
X4500000D01*
G01Y499200D02*
X7000000D01*
G01X4500000Y2999200D02*
X7000000D01*
G01X4500000Y5499200D02*
X7000000D01*
G01X4500000Y7999200D02*
X7000000D01*
G01X4500000Y10499200D02*
X7000000D01*
G01X4500000Y12999200D02*
X7000000D01*
G01Y17400000D02*
X4899200D01*
X4500000Y17000800D01*
G01Y17999200D02*
X7000000D01*
G01Y21994400D02*
X6605600Y21600000D01*
X4894400D01*
X4500000Y21994400D01*
G01X7000000Y23005600D02*
X6719900Y22725500D01*
X4780100D01*
X4500000Y23005600D01*
G01X3755600Y26250000D02*
X6255600D01*
G01X7000000Y28540400D02*
X5454000D01*
X4500000Y29494400D01*
G01X3915000Y31250000D02*
X4500000Y31835000D01*
G01X7000000Y31250000D02*
X3915000D01*
G01X3755600Y33750000D02*
X6255600D01*
G01X4500000Y36994400D02*
X7000000D01*
G01X4500000Y39494400D02*
X7000000D01*
G01Y499200D02*
X9500000D01*
G01X7000000Y2999200D02*
X9500000D01*
G01X7000000Y5499200D02*
X9500000D01*
G01X7000000Y7999200D02*
X9500000D01*
G01X7000000Y10499200D02*
X9500000D01*
G01X6716600Y14963800D02*
Y14183400D01*
X7073000Y13827000D01*
X11373100D01*
X11600100Y13600000D01*
X15720100D01*
X15933600Y13386500D01*
X16234800D01*
X16448300Y13600000D01*
X19856000D01*
X20462200Y12993800D01*
Y12310600D01*
X20665300Y12107500D01*
X21479500D01*
X21711800Y12339800D01*
Y12757400D01*
X21838900Y12884500D01*
X22810000D01*
X22872900Y12821600D01*
X23200000D01*
G01X7000000Y12999200D02*
X9500000D01*
G01Y17000800D02*
X9100800Y17400000D01*
X7000000D01*
G01Y17000800D02*
Y17400000D01*
G01Y17999200D02*
X9500000D01*
G01X7000000Y21994400D02*
X7800000D01*
G01D02*
X9500000D01*
G01X7800000D02*
Y19600000D01*
X8200000Y19200000D01*
X9599900D01*
X9854200Y18945700D01*
X14500000D01*
G01X8591000Y24054800D02*
X10621600D01*
X11090200Y24523400D01*
G01X7000000Y23005600D02*
X9015000D01*
X9109400Y23100000D01*
X9500000D01*
G01X6255600Y26250000D02*
X8755600D01*
G01X9500000Y28540400D02*
X7000000D01*
G01D02*
Y29494400D01*
G01X8900000Y31250000D02*
X7000000D01*
G01X6255600Y33750000D02*
X8755600D01*
G01X7000000Y36994400D02*
X7390600D01*
X7393500Y36997300D01*
X7697300D01*
X8100000Y37400000D01*
X9094400D01*
X9500000Y36994400D01*
G01X7341400Y39518600D02*
X9475800D01*
X9500000Y39494400D01*
G01X7000000D02*
X9500000D01*
G01Y499200D02*
X12000000D01*
G01X9500000Y2999200D02*
X12000000D01*
G01X9500000Y5499200D02*
X12000000D01*
G01X9500000Y7999200D02*
X12000000D01*
G01X9500000Y10499200D02*
X9987700Y10011500D01*
X11512400D01*
X11624700Y10123800D01*
Y10123900D01*
X12000000Y10499200D01*
G01X9500000Y12999200D02*
X9890600D01*
X10089800Y12800000D01*
X11410200D01*
X11609400Y12999200D01*
X12000000D01*
G01Y17999200D02*
X11723800Y17723000D01*
X9776200D01*
X9500000Y17999200D01*
G01Y21994400D02*
X10511200D01*
X12000000Y20505600D01*
G01X9500000Y23100000D02*
X9594400D01*
X10094400Y23600000D01*
X11260200D01*
X12000000Y24339800D01*
G01Y26995200D02*
X9500800D01*
X8755600Y26250000D01*
G01X9500000Y29494400D02*
Y28540400D01*
G01X9308500Y29494400D02*
X9500000D01*
G01X12100000Y28540400D02*
X9500000D01*
G01X11256400Y31250000D02*
Y30292900D01*
X11666200Y29882900D01*
X12382800D01*
X12563400Y30063500D01*
X14052200D01*
X14063600Y30052100D01*
X14364800D01*
X14376200Y30063500D01*
X15836600D01*
X15989800Y29910300D01*
X17655400D01*
X17682800Y29882900D01*
X17699300D01*
X18275400Y30459000D01*
G01X11256400Y31250000D02*
X8900000D01*
G01X11256400D02*
X12000000Y31993600D01*
G01X8903400Y32958200D02*
Y31253400D01*
X8900000Y31250000D01*
G01X8755600Y33750000D02*
X12027400D01*
G01X9500000Y36994400D02*
X12000000D01*
G01X9500000Y39494400D02*
X12000000D01*
G01X14500000Y499200D02*
X17000000D01*
G01X12000000D02*
X14500000D01*
G01Y4500800D02*
X12467000D01*
X12000000Y4033800D01*
Y2999200D01*
G01X17000000D02*
Y3930800D01*
X16430000Y4500800D01*
X14500000D01*
G01X12000000Y5499200D02*
X14500000D01*
G01X16244800Y5467000D02*
X15811800Y5900000D01*
X14900800D01*
X14500000Y5499200D01*
G01Y9500800D02*
Y8408200D01*
X14091000Y7999200D01*
X12000000D01*
G01X14500000Y9500800D02*
X17000000D01*
G01X14500000Y10499200D02*
X17000000D01*
G01X12000000D02*
X14500000D01*
G01X21087000Y22180400D02*
Y20104300D01*
X21081300Y20098600D01*
Y19988000D01*
X20149800Y19056500D01*
Y15049800D01*
X19423300Y14323300D01*
X13462600D01*
X13236500Y14549400D01*
Y15891900D01*
X13745600Y16401000D01*
G01X12000000Y12999200D02*
X14500000D01*
G01D02*
X17000000D01*
G01X14500000Y15490400D02*
X15500000D01*
G01X12000000Y17000800D02*
X12399200Y17400000D01*
X14600000D01*
X15500000Y16500000D01*
Y15490400D01*
G01X12000000Y17999200D02*
X14500000D01*
G01X17000000D02*
X16300800Y17300000D01*
X15199200D01*
X14500000Y17999200D01*
G01Y18945700D02*
X18745700D01*
X19500000Y19700000D01*
Y20487200D01*
G01X14500000Y20505600D02*
Y18945700D01*
G01X13700000Y22000000D02*
X14971000D01*
X15307600Y22336600D01*
G01D02*
Y23492400D01*
X14460200Y24339800D01*
X12000000D01*
G01X16557200Y27803600D02*
X14370400D01*
X13940500Y27373700D01*
X13750600Y27563500D01*
X13449400D01*
X13236500Y27350600D01*
Y27178800D01*
X12964600D01*
X12183600Y27959800D01*
G01X13754000Y26250000D02*
X12745200D01*
X12000000Y26995200D01*
G01X20774600Y27335000D02*
Y25174500D01*
X20538300Y24938200D01*
Y24527000D01*
X20411300Y24400000D01*
X19630900D01*
X19440000Y24590900D01*
Y26337700D01*
X19400000Y26377700D01*
Y26573000D01*
X19273000Y26700000D01*
X14204000D01*
X13754000Y26250000D01*
G01X13745600Y27959800D02*
Y28486000D01*
X13800000Y28540400D01*
G01X12183600Y30334200D02*
X13062400Y31213000D01*
X20179000D01*
X20538300Y30853700D01*
Y30347600D01*
X20300000Y30109300D01*
Y28546600D01*
X20538300Y28308300D01*
Y27648200D01*
X20149800Y27259700D01*
Y25460600D01*
G01X12000000Y29494400D02*
Y28640400D01*
X12100000Y28540400D01*
G01X13800000D02*
X12100000D01*
G01X13800000D02*
X16513000D01*
X17494400Y29521800D01*
G01X13800000Y32000000D02*
X12397000D01*
X12390600Y31993600D01*
X12000000D01*
G01X16000000Y32000000D02*
X13800000D01*
G01X12027400Y33750000D02*
X15943200D01*
G01X12000000Y32985600D02*
Y33722600D01*
X12027400Y33750000D01*
G01X27022600Y35457400D02*
X26491500Y35988500D01*
X22311600D01*
X21010900Y37289200D01*
Y38188800D01*
X20618400Y38581400D01*
X18881400D01*
X18700000Y38400000D01*
Y36400000D01*
X19200000Y35900000D01*
X20700000D01*
X20988500Y35611500D01*
Y34339000D01*
X20761000Y34111500D01*
X17888500D01*
X17600000Y34400000D01*
Y34727000D01*
X17025800Y35301200D01*
X14370400D01*
G01X14500000Y36994400D02*
X17000000D01*
G01X12000000D02*
X14500000D01*
G01Y39494400D02*
X17000000D01*
G01X12000000D02*
X14500000D01*
G01X17000000Y499200D02*
X20041000D01*
X20071600Y468600D01*
X20462200D01*
G01X17000000Y2000000D02*
Y499200D01*
G01X18744000Y2655400D02*
X17343800D01*
X17000000Y2999200D01*
G01X24700000Y12672600D02*
Y11735400D01*
X24464600Y11500000D01*
X19557200D01*
X17400000Y9342800D01*
Y3700000D01*
X17900000Y3200000D01*
X18022700D01*
X18027400Y3195300D01*
X20375800D01*
X20903900Y2667200D01*
X21700000D01*
G01X23117600Y4529800D02*
Y4139200D01*
X23100000Y4121600D01*
Y3600000D01*
X22962100Y3462100D01*
X20486600D01*
X20486400Y3462300D01*
X18138000D01*
X18133300Y3467000D01*
X18133000D01*
X17700000Y3900000D01*
Y9265200D01*
X19634800Y11200000D01*
X36504400D01*
X36863200Y11558800D01*
Y12339800D01*
X37134100Y12610700D01*
X37161000D01*
X37278600Y12728300D01*
X38817700D01*
X39206200Y12339800D01*
X39674800D01*
X39888500Y12553500D01*
Y13717300D01*
X39704000Y13901800D01*
X27022600D01*
X26241600Y14682800D01*
G01X19500000Y12183600D02*
X17494400D01*
X17000000Y11689200D01*
Y10499200D01*
G01X21399400Y22961400D02*
Y22570800D01*
X21555600Y22414600D01*
Y21955500D01*
X21400000Y21799900D01*
Y20039700D01*
X21348300Y19988000D01*
Y19848400D01*
X20462100Y18962200D01*
Y14838900D01*
X19649400Y14026200D01*
X16360400D01*
X16084200Y13750000D01*
G01X17000000Y12999200D02*
X17276200Y13275400D01*
X19223800D01*
X19500000Y12999200D01*
G01Y15488800D02*
X19188800Y15800000D01*
X17310400D01*
X17000000Y15489600D01*
G01D02*
X16609400D01*
X16608600Y15490400D01*
X15500000D01*
G01X20930800Y30459000D02*
Y30383700D01*
X20805300Y30258200D01*
Y30237000D01*
X20567000Y29998700D01*
Y28657200D01*
X20805300Y28418900D01*
Y28397700D01*
X21174900Y28028100D01*
Y25124400D01*
X20900000Y24849500D01*
Y22805700D01*
X20678800Y22584500D01*
Y21459800D01*
X20306000Y21087000D01*
X18512400D01*
X18200000Y20774600D01*
Y20381400D01*
G01X15307600Y22336600D02*
X19525000D01*
X20149800Y22961400D01*
G01X17494400Y29521800D02*
X18587800D01*
X20149800Y27959800D01*
G01X15943200Y33750000D02*
Y34143200D01*
X16600000Y34800000D01*
G01X18431600Y32333400D02*
X17966600D01*
X16550000Y33750000D01*
X15943200D01*
G01X18290000Y35450000D02*
Y36610000D01*
X17905600Y36994400D01*
X17000000D01*
G01Y39494400D02*
Y38763400D01*
X18275400Y37488000D01*
G01X28803200Y9996800D02*
X39206200D01*
X39888500Y9314500D01*
Y2556700D01*
X38910800Y1579000D01*
X21070000D01*
X20618400Y2030600D01*
G01X38581400Y12339800D02*
X38190800D01*
X37800400Y11949400D01*
Y11246400D01*
X37441700Y10887700D01*
X19947200D01*
X19292700Y10233200D01*
Y8236100D01*
X19700000Y7828800D01*
G01X21200000Y9769800D02*
Y9200000D01*
X21400000Y9000000D01*
X22500000D01*
X22788100Y8711900D01*
Y7021400D01*
X23309500Y6500000D01*
X26500000D01*
X27466200Y7466200D01*
X29365600D01*
G01X32177200D02*
X31011000Y6300000D01*
X26677600D01*
X26610600Y6233000D01*
X23198900D01*
X23183900Y6248000D01*
X23100000D01*
X22500000Y6848000D01*
Y8300000D01*
X22200000Y8600000D01*
X21300000D01*
X20700000Y9200000D01*
Y10234600D01*
G01X20200000Y9790400D02*
Y9100000D01*
X20967000Y8333000D01*
X21967000D01*
X22200000Y8100000D01*
Y6635600D01*
X22900000Y5935600D01*
X32333400D01*
X33864000Y7466200D01*
X34988800D01*
G01X21087000Y12808400D02*
X21519400Y13240800D01*
X24872000D01*
X25148200Y12964600D01*
G01X27035400Y15463800D02*
X26249200Y16250000D01*
X21248400D01*
G01X31280100Y27769800D02*
X30889500D01*
X30719700Y27600000D01*
X22600000D01*
X21333000Y28867000D01*
Y31469600D01*
X20700000Y32102600D01*
G01X29000000Y28000000D02*
X28400000Y28600000D01*
X22100100D01*
X21600000Y29100100D01*
Y31600100D01*
X21247800Y31952300D01*
Y32252200D01*
X20900000Y32600000D01*
X20600000D01*
X20400000Y32800000D01*
Y33500000D01*
X20600000Y33700000D01*
X20947800D01*
X21300000Y34052200D01*
Y36500000D01*
X20900000Y36900000D01*
X19956800D01*
X19700000Y37156800D01*
G01X24100000Y38425200D02*
X21868000D01*
X21399400Y37956600D01*
G01X24500000Y499200D02*
X27022600D01*
G01X22000000D02*
X24500000D01*
G01X27000000Y2999200D02*
X26642900Y3356300D01*
X24906800D01*
X24679300Y3128800D01*
Y2999200D01*
X24500000D01*
G01D02*
X22680400D01*
X22336600Y2655400D01*
G01X24500000Y5499200D02*
X23462200D01*
X23117600Y5154600D01*
G01X24500000Y5499200D02*
X27000000D01*
G01X22024200Y9528200D02*
X22285400Y9267000D01*
X22610600D01*
X22625600Y9252000D01*
X23448000D01*
X24108300Y8591700D01*
Y7791600D01*
X24433700Y7466200D01*
X26554000D01*
G01X27000000Y7999200D02*
X24500000D01*
G01D02*
Y9239200D01*
X24054800Y9684400D01*
X23273800D01*
G01X24500000Y10499200D02*
X23902100D01*
X23859800Y10541500D01*
X23537800D01*
X23495500Y10499200D01*
X22058000D01*
X21711800Y10153000D01*
G01X24500000Y10499200D02*
X27000000D01*
G01X24500000Y21994400D02*
X27000000D01*
G01X24500000D02*
X22630400D01*
X22000000Y22624800D01*
G01X22649000Y19681200D02*
X23430000Y18900200D01*
X26241600D01*
G01X24500000Y24494400D02*
X27000000D01*
G01X22000000D02*
X24500000D01*
G01Y26994400D02*
X27000000D01*
G01X22000000D02*
X24500000D01*
G01Y29494400D02*
X27000000D01*
G01X22000000D02*
X24500000D01*
G01X24400000Y34051600D02*
X27000000D01*
G01X24500000Y32645800D02*
Y33951600D01*
X24400000Y34051600D01*
G01X21711800Y34676400D02*
Y34285800D01*
X22011300Y33986300D01*
X23285800D01*
X23351100Y34051600D01*
X24400000D01*
G01X27000000Y31994400D02*
X26661000Y32333400D01*
X24839000D01*
X24500000Y31994400D01*
G01X21711800Y32333400D02*
X22336600Y31708600D01*
X24214200D01*
X24500000Y31994400D01*
G01X24054800Y37800400D02*
Y38380000D01*
X24100000Y38425200D01*
G01X24700000Y37019400D02*
X22805200D01*
X22180400Y37644200D01*
G01X26500000Y38425200D02*
X24100000D01*
G01X27022600Y312400D02*
Y499200D01*
G01D02*
Y922600D01*
X27300000Y1200000D01*
X29500000D01*
G01Y2999200D02*
X27000000D01*
G01Y5499200D02*
X27390600D01*
X27491400Y5600000D01*
X29008600D01*
X29109400Y5499200D01*
X29500000D01*
G01X30300000Y7999200D02*
X27000000D01*
G01Y10499200D02*
X29500000D01*
G01X27000000Y12999200D02*
X25573400D01*
X25538800Y12964600D01*
X25148200D01*
G01X29500000Y12999200D02*
X27000000D01*
G01X26397800Y15307600D02*
X26793500D01*
X26849400Y15363500D01*
X26935100D01*
X27035400Y15463800D01*
G01D02*
X27099200Y15400000D01*
X28000000D01*
G01X26241600Y18900200D02*
X27142600Y17999200D01*
X29500000D01*
G01X28011200Y21994400D02*
X27000000D01*
G01X26241600Y19993600D02*
Y18900200D01*
G01X29600000Y24494400D02*
X27000000D01*
G01Y26994400D02*
X28584600D01*
G01X27000000Y29494400D02*
X27294400Y29200000D01*
X29205600D01*
X29500000Y29494400D01*
G01X27000000Y32802000D02*
Y34051600D01*
G01X29800000D02*
X27000000D01*
G01Y31994400D02*
X27339000Y32333400D01*
X28665500D01*
X29004500Y31994400D01*
X29500000D01*
G01X24700000Y37019400D02*
X27000000D01*
G01X24679600Y37644200D02*
Y37039800D01*
X24700000Y37019400D01*
G01X27000000D02*
X28740800D01*
G01X27000000Y37621600D02*
Y37019400D01*
G01X29053200Y38425200D02*
X26500000D01*
G01X26554000Y37956600D02*
Y38371200D01*
X26500000Y38425200D01*
G01X29500000Y1200000D02*
X31600000D01*
X32000000Y800000D01*
Y499200D01*
G01X29500000D02*
Y1200000D01*
G01X31700100Y3500000D02*
X31199300Y2999200D01*
X29500000D01*
G01X32500000Y5400000D02*
X32109400D01*
X31845900Y5663500D01*
X29664300D01*
X29500000Y5499200D01*
G01X34554900Y8800000D02*
X31300000D01*
X30499200Y7999200D01*
X30300000D01*
G01X29500000Y10499200D02*
X32000000D01*
G01Y12999200D02*
X29500000D01*
G01X32000000Y15499200D02*
X29500000D01*
G01X28000000Y15400000D02*
X28390600D01*
X28489800Y15499200D01*
X29500000D01*
G01Y17999200D02*
X32000000D01*
G01X30511200Y21994400D02*
X33011200D01*
G01X28011200D02*
X30511200D01*
G01X28011200D02*
X29500000Y20505600D01*
G01X30511200Y21994400D02*
X32000000Y20505600D01*
G01X29500000Y23005600D02*
Y24394400D01*
X29600000Y24494400D01*
G01X32000000D02*
X29600000D01*
G01X28584600Y26994400D02*
X31300000D01*
G01X28584600Y25304400D02*
Y26994400D01*
G01X32000000Y29494400D02*
X31605600Y29100000D01*
X29894400D01*
X29500000Y29494400D01*
G01X37000000Y34494400D02*
X36460100D01*
X36370800Y34583700D01*
X34410700D01*
X33492300Y35502100D01*
X31702000D01*
X30251500Y34051600D01*
X29800000D01*
G01X29834200Y34676400D02*
Y34085800D01*
X29800000Y34051600D01*
G01X28740800Y37019400D02*
X29053200Y37331800D01*
G01X32000000Y36994400D02*
X31712600Y36707000D01*
X29126000D01*
X28813200Y37019400D01*
X28740800D01*
G01X29053200Y38425200D02*
X32000000D01*
G01X29053200Y37956600D02*
Y38425200D01*
G01X32000000Y499200D02*
X34500000D01*
G01X34100000Y3500000D02*
X31700100D01*
G01X34051600Y4998400D02*
Y3548400D01*
X34100000Y3500000D01*
G01X31700100D02*
X31240000Y3960100D01*
Y5000000D01*
G01X37000000Y5499200D02*
X36299200Y6200000D01*
X33300000D01*
X32500000Y5400000D01*
G01X32000000Y10499200D02*
X34500000D01*
G01Y12999200D02*
X32000000D01*
G01X34500000Y15499200D02*
X32000000D01*
G01Y17999200D02*
X34500000D01*
G01X33011200Y21994400D02*
X34500000Y20505600D01*
G01X35511200Y21994400D02*
X33011200D01*
G01X32000000Y23005600D02*
Y24494400D01*
G01X34500000D02*
X32000000D01*
G01X31300000Y26994400D02*
X33800000D01*
G01X31248400Y26250000D02*
Y26942800D01*
X31300000Y26994400D01*
G01X33800000D02*
X36200000D01*
G01X33747600Y26250000D02*
Y26942000D01*
X33800000Y26994400D01*
G01X32000000Y29494400D02*
X32494400Y29000000D01*
X34005600D01*
X34500000Y29494400D01*
G01Y31994400D02*
X33848600Y32645800D01*
X32651400D01*
X32645800Y32640200D01*
G01D02*
X32000000Y31994400D01*
G01X32645800Y34676400D02*
Y32640200D01*
G01X32000000Y36994400D02*
X34500000D01*
G01X32000000Y38425200D02*
X34600000D01*
G01X32000000Y37976000D02*
Y38425200D01*
G01X37000000Y499200D02*
X39500000D01*
G01X34500000D02*
X37000000D01*
G01X39500000Y2999200D02*
X37000000D01*
G01D02*
X36499200Y3500000D01*
X34100000D01*
G01X37000000Y5499200D02*
X39500000D01*
G01X34440100Y4540100D02*
X36040900D01*
X37000000Y5499200D01*
G01Y7999200D02*
X36199200Y8800000D01*
X34554900D01*
G01X39500000Y7999200D02*
X37000000D01*
G01X34500000Y8100000D02*
Y8745100D01*
X34554900Y8800000D01*
G01X37000000Y10499200D02*
X39500000D01*
G01X34500000D02*
X37000000D01*
G01Y12999200D02*
X34500000D01*
G01X39500000D02*
X37000000D01*
G01Y15499200D02*
X34500000D01*
G01X39500000D02*
X37000000D01*
G01Y17999200D02*
X38853800D01*
X38973800Y18119200D01*
X39362400D01*
G01X34500000Y17999200D02*
X37000000D01*
G01X35511200Y21994400D02*
X39500000D01*
G01X35511200D02*
X37000000Y20505600D01*
G01X34500000Y24494400D02*
X37000000D01*
G01X34500000Y23005600D02*
Y24494400D01*
G01X37000000D02*
X39500000D01*
G01X37000000Y23005600D02*
Y24494400D01*
G01X36200000Y26994400D02*
X39500000D01*
G01X36246800Y26250000D02*
Y26947600D01*
X36200000Y26994400D01*
G01X34500000Y29494400D02*
X37000000D01*
G01X39500000Y34494400D02*
X37000000D01*
G01Y31994400D02*
X34500000D01*
G01X39500000D02*
X37000000D01*
G01Y36994400D02*
X39500000D01*
G01X34500000D02*
X37000000D01*
G01X34600000Y38425200D02*
X37100000D01*
G01X34500000Y37976000D02*
Y38325200D01*
X34600000Y38425200D01*
G01X37100000D02*
X38430800D01*
X39500000Y39494400D01*
G01X37000000Y37976000D02*
Y38325200D01*
X37100000Y38425200D01*
G54D13*
G01X0Y-1400000D02*
X-2400000D01*
G01X-1200000Y-2600000D02*
Y-200000D01*
G01X-500000Y-1400000D02*
G03I-700000J0D01*
G01X-200000Y-1300000D02*
G03I-1000000J-100000D01*
G01X-1700000Y41300000D02*
G03I-1000000J-100000D01*
G01X-2000000Y41200000D02*
G03I-700000J0D01*
G01X-2700000Y40000000D02*
Y42400000D01*
G01X-1500000Y41200000D02*
X-3900000D01*
G01X39999900Y39999900D02*
X0D01*
Y0D01*
X39999900D01*
Y39999900D01*
G01X42300000Y-1300000D02*
X39900000D01*
G01X42100000Y-1200000D02*
G03I-1000000J-100000D01*
G01X41100000Y-2500000D02*
Y-100000D01*
G01X41800000Y-1300000D02*
G03I-700000J0D01*
G01X41700000Y40100000D02*
Y42500000D01*
G01X42400000Y41300000D02*
G03I-700000J0D01*
G01X42700000Y41400000D02*
G03I-1000000J-100000D01*
G01X42900000Y41300000D02*
X40500000D01*
M02*
