G04 ================== begin FILE IDENTIFICATION RECORD ==================*
G04 Layout Name:  LED Panel G4 V1, 03-26-2017.brd*
G04 Film Name:    Paste_Mask_Bottom*
G04 File Format:  Gerber RS274X*
G04 File Origin:  Cadence Allegro 17.4-S007*
G04 Origin Date:  Wed Nov 11 20:24:21 2020*
G04 *
G04 Layer:  PIN/SOLDERMASK_BOTTOM*
G04 Layer:  DRC ERROR CLASS/SOLDERMASK_BOTTOM*
G04 Layer:  BOARD GEOMETRY/OUTLINE*
G04 *
G04 Offset:    (0.0000 0.0000)*
G04 Mirror:    No*
G04 Mode:      Positive*
G04 Rotation:  0*
G04 FullContactRelief:  No*
G04 UndefLineWidth:     0.0100*
G04 ================== end FILE IDENTIFICATION RECORD ====================*
%FSLAX46Y46*MOMM*%
%IR0*IPPOS*OFA0.00000B0.00000*MIA0B0*SFA1.00000B1.00000*%
%ADD10R,.8X.8*%
%ADD11C,.01*%
G75*
%LPD*%
G75*
G54D10*
X2000000Y1250000D03*
X500000D03*
X2000000Y3750000D03*
X500000D03*
X2000000Y6250000D03*
X500000D03*
X2000000Y8750000D03*
X500000D03*
X2000000Y11250000D03*
X500000D03*
X2000000Y13750000D03*
X500000D03*
X2000000Y18750000D03*
X500000D03*
X2000000Y16250000D03*
X500000D03*
X2000000Y21250000D03*
X500000D03*
X2000000Y23750000D03*
X500000D03*
X2000000Y26250000D03*
X500000D03*
X2000000Y31250000D03*
X500000D03*
X2000000Y28750000D03*
X500000D03*
X2000000Y33750000D03*
X500000D03*
X2000000Y36250000D03*
X500000D03*
X2000000Y38750000D03*
X500000D03*
X4500000Y1250000D03*
X3000000D03*
X5500000D03*
Y6250000D03*
Y3750000D03*
X4500000Y6250000D03*
X3000000D03*
X4500000Y3750000D03*
X3000000D03*
X5500000Y8750000D03*
X4500000D03*
X3000000D03*
X5500000Y11250000D03*
X4500000D03*
X3000000D03*
X5500000Y13750000D03*
X4500000D03*
X3000000D03*
X5500000Y18750000D03*
X4500000D03*
X3000000D03*
X5500000Y16250000D03*
X4500000D03*
X3000000D03*
X5500000Y21250000D03*
X4500000D03*
X3000000D03*
X5500000Y23750000D03*
X4500000D03*
X3000000D03*
X5500000Y26250000D03*
X4500000D03*
X3000000D03*
X5500000Y31250000D03*
Y28750000D03*
X4500000Y31250000D03*
X3000000D03*
X4500000Y28750000D03*
X3000000D03*
X5500000Y33750000D03*
X4500000D03*
X3000000D03*
X5500000Y36250000D03*
X4500000D03*
X3000000D03*
X5500000Y38750000D03*
X4500000D03*
X3000000D03*
X7000000Y1250000D03*
X8000000D03*
Y6250000D03*
Y3750000D03*
X7000000Y6250000D03*
Y3750000D03*
X8000000Y8750000D03*
X7000000D03*
X8000000Y11250000D03*
X7000000D03*
X8000000Y13750000D03*
X7000000D03*
X8000000Y18750000D03*
X7000000D03*
Y16250000D03*
X8000000D03*
Y21250000D03*
X7000000D03*
X8000000Y23750000D03*
X7000000D03*
X8000000Y26250000D03*
X7000000D03*
X8000000Y31250000D03*
Y28750000D03*
X7000000Y31250000D03*
Y28750000D03*
X8000000Y33750000D03*
X7000000D03*
X8000000Y36250000D03*
X7000000D03*
X8000000Y38750000D03*
X7000000D03*
X12000000Y1250000D03*
X10500000D03*
X9500000D03*
X12000000Y6250000D03*
X10500000D03*
X12000000Y3750000D03*
X10500000D03*
X9500000Y6250000D03*
Y3750000D03*
X12000000Y8750000D03*
X10500000D03*
X9500000D03*
X12000000Y11250000D03*
X10500000D03*
X9500000D03*
X12000000Y13750000D03*
X10500000D03*
X9500000D03*
X12000000Y18750000D03*
X10500000D03*
X9500000D03*
X12000000Y16250000D03*
X10500000D03*
X9500000D03*
X12000000Y21250000D03*
X10500000D03*
X9500000D03*
X12000000Y23750000D03*
X10500000D03*
X9500000D03*
X12000000Y26250000D03*
X10500000D03*
X9500000D03*
X12000000Y31250000D03*
X10500000D03*
X12000000Y28750000D03*
X10500000D03*
X9500000Y31250000D03*
Y28750000D03*
X12000000Y33750000D03*
X10500000D03*
X9500000D03*
X12000000Y36250000D03*
X10500000D03*
X9500000D03*
X12000000Y38750000D03*
X10500000D03*
X9500000D03*
X14500000Y1250000D03*
X13000000D03*
X14500000Y6250000D03*
X13000000D03*
X14500000Y3750000D03*
X13000000D03*
X14500000Y8750000D03*
X13000000D03*
X14500000Y11250000D03*
X13000000D03*
X14500000Y13750000D03*
X13000000D03*
X14500000Y18750000D03*
X13000000D03*
X14500000Y16250000D03*
X13000000D03*
X14500000Y21250000D03*
X13000000D03*
X14500000Y23750000D03*
X13000000D03*
X14500000Y26250000D03*
X13000000D03*
X14500000Y31250000D03*
X13000000D03*
X14500000Y28750000D03*
X13000000D03*
X14500000Y33750000D03*
X13000000D03*
X14500000Y36250000D03*
X13000000D03*
X14500000Y38750000D03*
X13000000D03*
X18000000Y1250000D03*
X17000000D03*
X15500000D03*
X18000000Y3750000D03*
Y6250000D03*
X17000000D03*
X15500000D03*
X17000000Y3750000D03*
X15500000D03*
X18000000Y8750000D03*
X17000000D03*
X15500000D03*
X18000000Y11250000D03*
X17000000D03*
X15500000D03*
X18000000Y13750000D03*
X17000000D03*
X15500000D03*
X18000000Y16250000D03*
Y18750000D03*
X17000000D03*
X15500000D03*
X17000000Y16250000D03*
X15500000D03*
X18000000Y21250000D03*
X17000000D03*
X15500000D03*
X18000000Y23750000D03*
X17000000D03*
X15500000D03*
X18000000Y26250000D03*
X17000000D03*
X15500000D03*
X18000000Y31250000D03*
Y28750000D03*
X17000000Y31250000D03*
X15500000D03*
X17000000Y28750000D03*
X15500000D03*
X18000000Y33750000D03*
X17000000D03*
X15500000D03*
X18000000Y36250000D03*
X17000000D03*
X15500000D03*
X18000000Y38750000D03*
X17000000D03*
X15500000D03*
X19500000Y1250000D03*
X20500000D03*
X19500000Y3750000D03*
Y6250000D03*
X20500000D03*
Y3750000D03*
X19500000Y8750000D03*
X20500000D03*
X19500000Y11250000D03*
X20500000D03*
X19500000Y13750000D03*
X20500000D03*
X19500000Y16250000D03*
Y18750000D03*
X20500000D03*
Y16250000D03*
X19500000Y21250000D03*
X20500000D03*
X19500000Y23750000D03*
X20500000D03*
X19500000Y26250000D03*
X20500000D03*
X19500000Y31250000D03*
Y28750000D03*
X20500000Y31250000D03*
Y28750000D03*
X19500000Y33750000D03*
X20500000D03*
X19500000Y36250000D03*
X20500000D03*
X19500000Y38750000D03*
X20500000D03*
X24500000Y1250000D03*
X23000000D03*
X22000000D03*
X24500000Y6250000D03*
X23000000D03*
X24500000Y3750000D03*
X23000000D03*
X22000000Y6250000D03*
Y3750000D03*
X24500000Y8750000D03*
X23000000D03*
X22000000D03*
X24500000Y11250000D03*
X23000000D03*
X22000000D03*
X24500000Y13750000D03*
X23000000D03*
X22000000D03*
X24500000Y18750000D03*
X23000000D03*
X24500000Y16250000D03*
X23000000D03*
X22000000Y18750000D03*
Y16250000D03*
X24500000Y21250000D03*
X23000000D03*
X22000000D03*
X24500000Y23750000D03*
X23000000D03*
X22000000D03*
X24500000Y26250000D03*
X23000000D03*
X22000000D03*
X24500000Y31250000D03*
X23000000D03*
X24500000Y28750000D03*
X23000000D03*
X22000000Y31250000D03*
Y28750000D03*
X24500000Y33750000D03*
X23000000D03*
X22000000D03*
X24500000Y36250000D03*
X23000000D03*
X22000000D03*
X24500000Y38750000D03*
X23000000D03*
X22000000D03*
X28000000Y1250000D03*
X27000000D03*
X25500000D03*
X28000000Y6250000D03*
Y3750000D03*
X27000000Y6250000D03*
X25500000D03*
X27000000Y3750000D03*
X25500000D03*
X28000000Y8750000D03*
X27000000D03*
X25500000D03*
X28000000Y11250000D03*
X27000000D03*
X25500000D03*
X28000000Y13750000D03*
X27000000D03*
X25500000D03*
X28000000Y18750000D03*
Y16250000D03*
X27000000D03*
X25500000D03*
X27000000Y18750000D03*
X25500000D03*
X28000000Y21250000D03*
X27000000D03*
X25500000D03*
X28000000Y23750000D03*
X27000000D03*
X25500000D03*
X28000000Y26250000D03*
X27000000D03*
X25500000D03*
X28000000Y31250000D03*
Y28750000D03*
X27000000Y31250000D03*
X25500000D03*
X27000000Y28750000D03*
X25500000D03*
X28000000Y33750000D03*
X27000000D03*
X25500000D03*
X28000000Y36250000D03*
X27000000D03*
X25500000D03*
X28000000Y38750000D03*
X27000000D03*
X25500000D03*
X30500000Y1250000D03*
X29500000D03*
X30500000Y6250000D03*
Y3750000D03*
X29500000Y6250000D03*
Y3750000D03*
X30500000Y8750000D03*
X29500000D03*
X30500000Y11250000D03*
X29500000D03*
X30500000Y13750000D03*
X29500000D03*
X30500000Y18750000D03*
Y16250000D03*
X29500000Y18750000D03*
Y16250000D03*
X30500000Y21250000D03*
X29500000D03*
X30500000Y23750000D03*
X29500000D03*
X30500000Y26250000D03*
X29500000D03*
X30500000Y31250000D03*
Y28750000D03*
X29500000Y31250000D03*
Y28750000D03*
X30500000Y33750000D03*
X29500000D03*
X30500000Y36250000D03*
X29500000D03*
X30500000Y38750000D03*
X29500000D03*
X33000000Y1250000D03*
X32000000D03*
X33000000Y6250000D03*
Y3750000D03*
X32000000Y6250000D03*
Y3750000D03*
X33000000Y8750000D03*
X32000000D03*
X33000000Y11250000D03*
X32000000D03*
X33000000Y13750000D03*
X32000000D03*
X33000000Y18750000D03*
Y16250000D03*
X32000000Y18750000D03*
Y16250000D03*
X33000000Y21250000D03*
X32000000D03*
X33000000Y23750000D03*
X32000000D03*
X33000000Y26250000D03*
X32000000D03*
X33000000Y31250000D03*
Y28750000D03*
X32000000Y31250000D03*
Y28750000D03*
X33000000Y33750000D03*
X32000000D03*
X33000000Y36250000D03*
X32000000D03*
X33000000Y38750000D03*
X32000000D03*
X37000000Y1250000D03*
X35500000D03*
X34500000D03*
X37000000Y6250000D03*
X35500000D03*
X37000000Y3750000D03*
X35500000D03*
X34500000Y6250000D03*
Y3750000D03*
X37000000Y8750000D03*
X35500000D03*
X34500000D03*
X37000000Y11250000D03*
X35500000D03*
X34500000D03*
X37000000Y13750000D03*
X35500000D03*
X34500000D03*
X37000000Y18750000D03*
X35500000D03*
X37000000Y16250000D03*
X35500000D03*
X34500000Y18750000D03*
Y16250000D03*
X37000000Y21250000D03*
X35500000D03*
X34500000D03*
X37000000Y23750000D03*
X35500000D03*
X34500000D03*
X37000000Y26250000D03*
X35500000D03*
X34500000D03*
X37000000Y31250000D03*
X35500000D03*
X37000000Y28750000D03*
X35500000D03*
X34500000Y31250000D03*
Y28750000D03*
X37000000Y33750000D03*
X35500000D03*
X34500000D03*
X37000000Y36250000D03*
X35500000D03*
X34500000D03*
X37000000Y38750000D03*
X35500000D03*
X34500000D03*
X39500000Y1250000D03*
X38000000D03*
X39500000Y6250000D03*
X38000000D03*
X39500000Y3750000D03*
X38000000D03*
X39500000Y8750000D03*
X38000000D03*
X39500000Y11250000D03*
X38000000D03*
X39500000Y13750000D03*
X38000000D03*
X39500000Y18750000D03*
X38000000D03*
X39500000Y16250000D03*
X38000000D03*
X39500000Y21250000D03*
X38000000D03*
X39500000Y23750000D03*
X38000000D03*
X39500000Y26250000D03*
X38000000D03*
X39500000Y31250000D03*
X38000000D03*
X39500000Y28750000D03*
X38000000D03*
X39500000Y33750000D03*
X38000000D03*
X39500000Y36250000D03*
X38000000D03*
X39500000Y38750000D03*
X38000000D03*
G54D11*
G01X0Y-1400000D02*
X-2400000D01*
G01X-1200000Y-2600000D02*
Y-200000D01*
G01X-500000Y-1400000D02*
G03I-700000J0D01*
G01X-200000Y-1300000D02*
G03I-1000000J-100000D01*
G01X-1700000Y41300000D02*
G03I-1000000J-100000D01*
G01X-2000000Y41200000D02*
G03I-700000J0D01*
G01X-2700000Y40000000D02*
Y42400000D01*
G01X-1500000Y41200000D02*
X-3900000D01*
G01X39999900Y39999900D02*
X0D01*
Y0D01*
X39999900D01*
Y39999900D01*
G01X42300000Y-1300000D02*
X39900000D01*
G01X42100000Y-1200000D02*
G03I-1000000J-100000D01*
G01X41100000Y-2500000D02*
Y-100000D01*
G01X41800000Y-1300000D02*
G03I-700000J0D01*
G01X41700000Y40100000D02*
Y42500000D01*
G01X42400000Y41300000D02*
G03I-700000J0D01*
G01X42700000Y41400000D02*
G03I-1000000J-100000D01*
G01X42900000Y41300000D02*
X40500000D01*
M02*
