%TF.GenerationSoftware,KiCad,Pcbnew,7.0.2-6a45011f42~172~ubuntu22.04.1*%
%TF.CreationDate,2023-08-07T12:44:58-07:00*%
%TF.ProjectId,driver_40mm_atmega,64726976-6572-45f3-9430-6d6d5f61746d,rev?*%
%TF.SameCoordinates,Original*%
%TF.FileFunction,Drillmap*%
%TF.FilePolarity,Positive*%
%FSLAX45Y45*%
G04 Gerber Fmt 4.5, Leading zero omitted, Abs format (unit mm)*
G04 Created by KiCad (PCBNEW 7.0.2-6a45011f42~172~ubuntu22.04.1) date 2023-08-07 12:44:58*
%MOMM*%
%LPD*%
G01*
G04 APERTURE LIST*
%ADD10C,0.250000*%
%ADD11C,0.200000*%
G04 APERTURE END LIST*
D10*
X4980000Y-9020000D02*
X9020000Y-9020000D01*
X9020000Y-9020000D02*
X9020000Y-4980000D01*
X4980000Y-4980000D02*
X4980000Y-9020000D01*
X9020000Y-4980000D02*
X4980000Y-4980000D01*
D11*
X5215119Y-9345024D02*
X5215119Y-9145024D01*
X5215119Y-9145024D02*
X5262738Y-9145024D01*
X5262738Y-9145024D02*
X5291310Y-9154548D01*
X5291310Y-9154548D02*
X5310357Y-9173595D01*
X5310357Y-9173595D02*
X5319881Y-9192643D01*
X5319881Y-9192643D02*
X5329405Y-9230738D01*
X5329405Y-9230738D02*
X5329405Y-9259310D01*
X5329405Y-9259310D02*
X5319881Y-9297405D01*
X5319881Y-9297405D02*
X5310357Y-9316452D01*
X5310357Y-9316452D02*
X5291310Y-9335500D01*
X5291310Y-9335500D02*
X5262738Y-9345024D01*
X5262738Y-9345024D02*
X5215119Y-9345024D01*
X5415119Y-9345024D02*
X5415119Y-9211690D01*
X5415119Y-9249786D02*
X5424643Y-9230738D01*
X5424643Y-9230738D02*
X5434167Y-9221214D01*
X5434167Y-9221214D02*
X5453214Y-9211690D01*
X5453214Y-9211690D02*
X5472262Y-9211690D01*
X5538929Y-9345024D02*
X5538929Y-9211690D01*
X5538929Y-9145024D02*
X5529405Y-9154548D01*
X5529405Y-9154548D02*
X5538929Y-9164071D01*
X5538929Y-9164071D02*
X5548452Y-9154548D01*
X5548452Y-9154548D02*
X5538929Y-9145024D01*
X5538929Y-9145024D02*
X5538929Y-9164071D01*
X5662738Y-9345024D02*
X5643690Y-9335500D01*
X5643690Y-9335500D02*
X5634167Y-9316452D01*
X5634167Y-9316452D02*
X5634167Y-9145024D01*
X5767500Y-9345024D02*
X5748452Y-9335500D01*
X5748452Y-9335500D02*
X5738928Y-9316452D01*
X5738928Y-9316452D02*
X5738928Y-9145024D01*
X5996071Y-9345024D02*
X5996071Y-9145024D01*
X5996071Y-9145024D02*
X6062738Y-9287881D01*
X6062738Y-9287881D02*
X6129405Y-9145024D01*
X6129405Y-9145024D02*
X6129405Y-9345024D01*
X6310357Y-9345024D02*
X6310357Y-9240262D01*
X6310357Y-9240262D02*
X6300833Y-9221214D01*
X6300833Y-9221214D02*
X6281786Y-9211690D01*
X6281786Y-9211690D02*
X6243690Y-9211690D01*
X6243690Y-9211690D02*
X6224643Y-9221214D01*
X6310357Y-9335500D02*
X6291309Y-9345024D01*
X6291309Y-9345024D02*
X6243690Y-9345024D01*
X6243690Y-9345024D02*
X6224643Y-9335500D01*
X6224643Y-9335500D02*
X6215119Y-9316452D01*
X6215119Y-9316452D02*
X6215119Y-9297405D01*
X6215119Y-9297405D02*
X6224643Y-9278357D01*
X6224643Y-9278357D02*
X6243690Y-9268833D01*
X6243690Y-9268833D02*
X6291309Y-9268833D01*
X6291309Y-9268833D02*
X6310357Y-9259310D01*
X6405595Y-9211690D02*
X6405595Y-9411690D01*
X6405595Y-9221214D02*
X6424643Y-9211690D01*
X6424643Y-9211690D02*
X6462738Y-9211690D01*
X6462738Y-9211690D02*
X6481786Y-9221214D01*
X6481786Y-9221214D02*
X6491309Y-9230738D01*
X6491309Y-9230738D02*
X6500833Y-9249786D01*
X6500833Y-9249786D02*
X6500833Y-9306929D01*
X6500833Y-9306929D02*
X6491309Y-9325976D01*
X6491309Y-9325976D02*
X6481786Y-9335500D01*
X6481786Y-9335500D02*
X6462738Y-9345024D01*
X6462738Y-9345024D02*
X6424643Y-9345024D01*
X6424643Y-9345024D02*
X6405595Y-9335500D01*
X6586548Y-9325976D02*
X6596071Y-9335500D01*
X6596071Y-9335500D02*
X6586548Y-9345024D01*
X6586548Y-9345024D02*
X6577024Y-9335500D01*
X6577024Y-9335500D02*
X6586548Y-9325976D01*
X6586548Y-9325976D02*
X6586548Y-9345024D01*
X6586548Y-9221214D02*
X6596071Y-9230738D01*
X6596071Y-9230738D02*
X6586548Y-9240262D01*
X6586548Y-9240262D02*
X6577024Y-9230738D01*
X6577024Y-9230738D02*
X6586548Y-9221214D01*
X6586548Y-9221214D02*
X6586548Y-9240262D01*
M02*
