G04 #@! TF.GenerationSoftware,KiCad,Pcbnew,7.0.2-6a45011f42~172~ubuntu22.04.1*
G04 #@! TF.CreationDate,2023-08-07T12:42:53-07:00*
G04 #@! TF.ProjectId,driver_40mm_atmega,64726976-6572-45f3-9430-6d6d5f61746d,rev?*
G04 #@! TF.SameCoordinates,Original*
G04 #@! TF.FileFunction,Copper,L6,Bot*
G04 #@! TF.FilePolarity,Positive*
%FSLAX46Y46*%
G04 Gerber Fmt 4.6, Leading zero omitted, Abs format (unit mm)*
G04 Created by KiCad (PCBNEW 7.0.2-6a45011f42~172~ubuntu22.04.1) date 2023-08-07 12:42:53*
%MOMM*%
%LPD*%
G01*
G04 APERTURE LIST*
G04 Aperture macros list*
%AMRoundRect*
0 Rectangle with rounded corners*
0 $1 Rounding radius*
0 $2 $3 $4 $5 $6 $7 $8 $9 X,Y pos of 4 corners*
0 Add a 4 corners polygon primitive as box body*
4,1,4,$2,$3,$4,$5,$6,$7,$8,$9,$2,$3,0*
0 Add four circle primitives for the rounded corners*
1,1,$1+$1,$2,$3*
1,1,$1+$1,$4,$5*
1,1,$1+$1,$6,$7*
1,1,$1+$1,$8,$9*
0 Add four rect primitives between the rounded corners*
20,1,$1+$1,$2,$3,$4,$5,0*
20,1,$1+$1,$4,$5,$6,$7,0*
20,1,$1+$1,$6,$7,$8,$9,0*
20,1,$1+$1,$8,$9,$2,$3,0*%
G04 Aperture macros list end*
G04 #@! TA.AperFunction,SMDPad,CuDef*
%ADD10R,3.680000X1.270000*%
G04 #@! TD*
G04 #@! TA.AperFunction,SMDPad,CuDef*
%ADD11RoundRect,0.062500X-0.375000X-0.062500X0.375000X-0.062500X0.375000X0.062500X-0.375000X0.062500X0*%
G04 #@! TD*
G04 #@! TA.AperFunction,SMDPad,CuDef*
%ADD12RoundRect,0.062500X-0.062500X-0.375000X0.062500X-0.375000X0.062500X0.375000X-0.062500X0.375000X0*%
G04 #@! TD*
G04 #@! TA.AperFunction,SMDPad,CuDef*
%ADD13R,3.100000X3.100000*%
G04 #@! TD*
G04 #@! TA.AperFunction,SMDPad,CuDef*
%ADD14RoundRect,0.062500X0.375000X0.062500X-0.375000X0.062500X-0.375000X-0.062500X0.375000X-0.062500X0*%
G04 #@! TD*
G04 #@! TA.AperFunction,SMDPad,CuDef*
%ADD15RoundRect,0.062500X0.062500X0.375000X-0.062500X0.375000X-0.062500X-0.375000X0.062500X-0.375000X0*%
G04 #@! TD*
G04 #@! TA.AperFunction,SMDPad,CuDef*
%ADD16RoundRect,0.100000X-0.021213X-0.162635X0.162635X0.021213X0.021213X0.162635X-0.162635X-0.021213X0*%
G04 #@! TD*
G04 #@! TA.AperFunction,SMDPad,CuDef*
%ADD17RoundRect,0.100000X-0.130000X-0.100000X0.130000X-0.100000X0.130000X0.100000X-0.130000X0.100000X0*%
G04 #@! TD*
G04 #@! TA.AperFunction,SMDPad,CuDef*
%ADD18RoundRect,0.100000X0.130000X0.100000X-0.130000X0.100000X-0.130000X-0.100000X0.130000X-0.100000X0*%
G04 #@! TD*
G04 #@! TA.AperFunction,SMDPad,CuDef*
%ADD19R,0.478000X0.300000*%
G04 #@! TD*
G04 #@! TA.AperFunction,SMDPad,CuDef*
%ADD20RoundRect,0.100000X0.100000X-0.130000X0.100000X0.130000X-0.100000X0.130000X-0.100000X-0.130000X0*%
G04 #@! TD*
G04 #@! TA.AperFunction,SMDPad,CuDef*
%ADD21RoundRect,0.100000X0.021213X0.162635X-0.162635X-0.021213X-0.021213X-0.162635X0.162635X0.021213X0*%
G04 #@! TD*
G04 #@! TA.AperFunction,SMDPad,CuDef*
%ADD22RoundRect,0.100000X-0.100000X0.130000X-0.100000X-0.130000X0.100000X-0.130000X0.100000X0.130000X0*%
G04 #@! TD*
G04 #@! TA.AperFunction,SMDPad,CuDef*
%ADD23R,1.900000X0.400000*%
G04 #@! TD*
G04 #@! TA.AperFunction,ViaPad*
%ADD24C,0.600000*%
G04 #@! TD*
G04 #@! TA.AperFunction,Conductor*
%ADD25C,0.150000*%
G04 #@! TD*
G04 #@! TA.AperFunction,Conductor*
%ADD26C,0.200000*%
G04 #@! TD*
G04 APERTURE END LIST*
D10*
X81025000Y-80770000D03*
X85975000Y-80770000D03*
X81025000Y-78230000D03*
X85975000Y-78230000D03*
X81025000Y-64770000D03*
X85975000Y-64770000D03*
X81025000Y-62230000D03*
X85975000Y-62230000D03*
X54025000Y-80770000D03*
X58975000Y-80770000D03*
X54025000Y-78230000D03*
X58975000Y-78230000D03*
X54025000Y-64770000D03*
X58975000Y-64770000D03*
X54025000Y-62230000D03*
X58975000Y-62230000D03*
D11*
X67552500Y-57912500D03*
X67552500Y-57412500D03*
X67552500Y-56912500D03*
X67552500Y-56412500D03*
X67552500Y-55912500D03*
X67552500Y-55412500D03*
X67552500Y-54912500D03*
X67552500Y-54412500D03*
D12*
X68240000Y-53725000D03*
X68740000Y-53725000D03*
X69240000Y-53725000D03*
X69740000Y-53725000D03*
X70240000Y-53725000D03*
X70740000Y-53725000D03*
X71240000Y-53725000D03*
X71740000Y-53725000D03*
D11*
X72427500Y-54412500D03*
X72427500Y-54912500D03*
X72427500Y-55412500D03*
X72427500Y-55912500D03*
X72427500Y-56412500D03*
X72427500Y-56912500D03*
X72427500Y-57412500D03*
X72427500Y-57912500D03*
D12*
X71740000Y-58600000D03*
X71240000Y-58600000D03*
X70740000Y-58600000D03*
X70240000Y-58600000D03*
X69740000Y-58600000D03*
X69240000Y-58600000D03*
X68740000Y-58600000D03*
X68240000Y-58600000D03*
D13*
X69990000Y-56162500D03*
D14*
X72440000Y-82200000D03*
X72440000Y-82700000D03*
X72440000Y-83200000D03*
X72440000Y-83700000D03*
X72440000Y-84200000D03*
X72440000Y-84700000D03*
X72440000Y-85200000D03*
X72440000Y-85700000D03*
D15*
X71752500Y-86387500D03*
X71252500Y-86387500D03*
X70752500Y-86387500D03*
X70252500Y-86387500D03*
X69752500Y-86387500D03*
X69252500Y-86387500D03*
X68752500Y-86387500D03*
X68252500Y-86387500D03*
D14*
X67565000Y-85700000D03*
X67565000Y-85200000D03*
X67565000Y-84700000D03*
X67565000Y-84200000D03*
X67565000Y-83700000D03*
X67565000Y-83200000D03*
X67565000Y-82700000D03*
X67565000Y-82200000D03*
D15*
X68252500Y-81512500D03*
X68752500Y-81512500D03*
X69252500Y-81512500D03*
X69752500Y-81512500D03*
X70252500Y-81512500D03*
X70752500Y-81512500D03*
X71252500Y-81512500D03*
X71752500Y-81512500D03*
D13*
X70002500Y-83950000D03*
D14*
X72427500Y-64177500D03*
X72427500Y-64677500D03*
X72427500Y-65177500D03*
X72427500Y-65677500D03*
X72427500Y-66177500D03*
X72427500Y-66677500D03*
X72427500Y-67177500D03*
X72427500Y-67677500D03*
D15*
X71740000Y-68365000D03*
X71240000Y-68365000D03*
X70740000Y-68365000D03*
X70240000Y-68365000D03*
X69740000Y-68365000D03*
X69240000Y-68365000D03*
X68740000Y-68365000D03*
X68240000Y-68365000D03*
D14*
X67552500Y-67677500D03*
X67552500Y-67177500D03*
X67552500Y-66677500D03*
X67552500Y-66177500D03*
X67552500Y-65677500D03*
X67552500Y-65177500D03*
X67552500Y-64677500D03*
X67552500Y-64177500D03*
D15*
X68240000Y-63490000D03*
X68740000Y-63490000D03*
X69240000Y-63490000D03*
X69740000Y-63490000D03*
X70240000Y-63490000D03*
X70740000Y-63490000D03*
X71240000Y-63490000D03*
X71740000Y-63490000D03*
D13*
X69990000Y-65927500D03*
D11*
X67542500Y-75950000D03*
X67542500Y-75450000D03*
X67542500Y-74950000D03*
X67542500Y-74450000D03*
X67542500Y-73950000D03*
X67542500Y-73450000D03*
X67542500Y-72950000D03*
X67542500Y-72450000D03*
D12*
X68230000Y-71762500D03*
X68730000Y-71762500D03*
X69230000Y-71762500D03*
X69730000Y-71762500D03*
X70230000Y-71762500D03*
X70730000Y-71762500D03*
X71230000Y-71762500D03*
X71730000Y-71762500D03*
D11*
X72417500Y-72450000D03*
X72417500Y-72950000D03*
X72417500Y-73450000D03*
X72417500Y-73950000D03*
X72417500Y-74450000D03*
X72417500Y-74950000D03*
X72417500Y-75450000D03*
X72417500Y-75950000D03*
D12*
X71730000Y-76637500D03*
X71230000Y-76637500D03*
X70730000Y-76637500D03*
X70230000Y-76637500D03*
X69730000Y-76637500D03*
X69230000Y-76637500D03*
X68730000Y-76637500D03*
X68230000Y-76637500D03*
D13*
X69980000Y-74200000D03*
D16*
X71027726Y-51472274D03*
X71480274Y-51019726D03*
D17*
X53770000Y-86520000D03*
X54410000Y-86520000D03*
X81713000Y-83080000D03*
X82353000Y-83080000D03*
D18*
X58235000Y-58970000D03*
X57595000Y-58970000D03*
D19*
X56658000Y-55740000D03*
X56658000Y-56240000D03*
X56658000Y-56740000D03*
X55382000Y-56740000D03*
X55382000Y-56240000D03*
X55382000Y-55740000D03*
D17*
X53790000Y-54350000D03*
X54430000Y-54350000D03*
X81708000Y-84610000D03*
X82348000Y-84610000D03*
D16*
X56027726Y-88972274D03*
X56480274Y-88519726D03*
D18*
X86163000Y-84600000D03*
X85523000Y-84600000D03*
D16*
X51023726Y-88976274D03*
X51476274Y-88523726D03*
D17*
X81695000Y-68720000D03*
X82335000Y-68720000D03*
X81715000Y-70770000D03*
X82355000Y-70770000D03*
X53765000Y-73850000D03*
X54405000Y-73850000D03*
D18*
X58208000Y-84610000D03*
X57568000Y-84610000D03*
D16*
X66027726Y-51472274D03*
X66480274Y-51019726D03*
X71037726Y-88962274D03*
X71490274Y-88509726D03*
D18*
X58225000Y-54350000D03*
X57585000Y-54350000D03*
X58240000Y-52790000D03*
X57600000Y-52790000D03*
X58215000Y-67180000D03*
X57575000Y-67180000D03*
X58235000Y-59740000D03*
X57595000Y-59740000D03*
D16*
X86037726Y-88962274D03*
X86490274Y-88509726D03*
X88527726Y-51482274D03*
X88980274Y-51029726D03*
D17*
X81675000Y-58980000D03*
X82315000Y-58980000D03*
D16*
X63517726Y-51482274D03*
X63970274Y-51029726D03*
D18*
X58215000Y-86510000D03*
X57575000Y-86510000D03*
D16*
X66027726Y-88972274D03*
X66480274Y-88519726D03*
D19*
X84558000Y-67450000D03*
X84558000Y-67950000D03*
X84558000Y-68450000D03*
X83282000Y-68450000D03*
X83282000Y-67950000D03*
X83282000Y-67450000D03*
D17*
X53770000Y-68730000D03*
X54410000Y-68730000D03*
D18*
X86145000Y-75410000D03*
X85505000Y-75410000D03*
D16*
X73537726Y-88962274D03*
X73990274Y-88509726D03*
D18*
X58215000Y-70800000D03*
X57575000Y-70800000D03*
D20*
X66430000Y-74535000D03*
X66430000Y-73895000D03*
D16*
X78530026Y-88969974D03*
X78982574Y-88517426D03*
D21*
X68999974Y-61040026D03*
X68547426Y-61492574D03*
D16*
X81017726Y-88982274D03*
X81470274Y-88529726D03*
D17*
X53790000Y-52800000D03*
X54430000Y-52800000D03*
D22*
X73552500Y-83631000D03*
X73552500Y-84271000D03*
D18*
X58215000Y-74620000D03*
X57575000Y-74620000D03*
X86145000Y-55480000D03*
X85505000Y-55480000D03*
D17*
X53768000Y-83060000D03*
X54408000Y-83060000D03*
D20*
X66450000Y-56485000D03*
X66450000Y-55845000D03*
D19*
X56628000Y-74120000D03*
X56628000Y-74620000D03*
X56628000Y-75120000D03*
X55352000Y-75120000D03*
X55352000Y-74620000D03*
X55352000Y-74120000D03*
D17*
X81703000Y-85720000D03*
X82343000Y-85720000D03*
D18*
X86163000Y-83830000D03*
X85523000Y-83830000D03*
D17*
X53768000Y-84610000D03*
X54408000Y-84610000D03*
D18*
X58218000Y-83070000D03*
X57578000Y-83070000D03*
D16*
X53527726Y-51482274D03*
X53980274Y-51029726D03*
D19*
X84560000Y-74120000D03*
X84560000Y-74620000D03*
X84560000Y-75120000D03*
X83284000Y-75120000D03*
X83284000Y-74620000D03*
X83284000Y-74120000D03*
D17*
X53790000Y-59750000D03*
X54430000Y-59750000D03*
D16*
X68520026Y-88979974D03*
X68972574Y-88527426D03*
D17*
X53775000Y-72340000D03*
X54415000Y-72340000D03*
X53803000Y-57020000D03*
X54443000Y-57020000D03*
D18*
X86153000Y-87260000D03*
X85513000Y-87260000D03*
X86145000Y-56250000D03*
X85505000Y-56250000D03*
D16*
X68527726Y-51482274D03*
X68980274Y-51029726D03*
D22*
X73540000Y-65596500D03*
X73540000Y-66236500D03*
D17*
X53765000Y-85750000D03*
X54405000Y-85750000D03*
D18*
X86143000Y-54330000D03*
X85503000Y-54330000D03*
D16*
X76027726Y-51482274D03*
X76480274Y-51029726D03*
D23*
X76400000Y-84275000D03*
X76400000Y-85475000D03*
X76400000Y-86675000D03*
D18*
X58243000Y-56250000D03*
X57603000Y-56250000D03*
X58235000Y-58200000D03*
X57595000Y-58200000D03*
D16*
X83533726Y-88966274D03*
X83986274Y-88513726D03*
D19*
X56630000Y-71070000D03*
X56630000Y-71570000D03*
X56630000Y-72070000D03*
X55354000Y-72070000D03*
X55354000Y-71570000D03*
X55354000Y-71070000D03*
D22*
X73530000Y-55855000D03*
X73530000Y-56495000D03*
D18*
X86143000Y-53560000D03*
X85503000Y-53560000D03*
D22*
X73520000Y-73895000D03*
X73520000Y-74535000D03*
D18*
X58215000Y-71570000D03*
X57575000Y-71570000D03*
X58210000Y-85740000D03*
X57570000Y-85740000D03*
D16*
X86027726Y-51472274D03*
X86480274Y-51019726D03*
D18*
X58220000Y-53580000D03*
X57580000Y-53580000D03*
D17*
X53765000Y-74620000D03*
X54405000Y-74620000D03*
D18*
X86155000Y-71540000D03*
X85515000Y-71540000D03*
D23*
X76375000Y-66250000D03*
X76375000Y-67450000D03*
X76375000Y-68650000D03*
D17*
X81695000Y-74620000D03*
X82335000Y-74620000D03*
D16*
X88527726Y-88972274D03*
X88980274Y-88519726D03*
D17*
X81685000Y-59750000D03*
X82325000Y-59750000D03*
D16*
X58527726Y-88972274D03*
X58980274Y-88519726D03*
D17*
X81703000Y-87270000D03*
X82343000Y-87270000D03*
X53803000Y-56230000D03*
X54443000Y-56230000D03*
X81713000Y-86490000D03*
X82353000Y-86490000D03*
D16*
X53527726Y-88972274D03*
X53980274Y-88519726D03*
X61037726Y-88962274D03*
X61490274Y-88509726D03*
X78527726Y-51482274D03*
X78980274Y-51029726D03*
D18*
X86158000Y-83060000D03*
X85518000Y-83060000D03*
D17*
X81695000Y-57010000D03*
X82335000Y-57010000D03*
D18*
X86153000Y-86490000D03*
X85513000Y-86490000D03*
D17*
X81703000Y-53550000D03*
X82343000Y-53550000D03*
D16*
X81017726Y-51472274D03*
X81470274Y-51019726D03*
D17*
X53765000Y-87290000D03*
X54405000Y-87290000D03*
X53790000Y-53570000D03*
X54430000Y-53570000D03*
D19*
X56646000Y-58470000D03*
X56646000Y-58970000D03*
X56646000Y-59470000D03*
X55370000Y-59470000D03*
X55370000Y-58970000D03*
X55370000Y-58470000D03*
D17*
X81713000Y-83840000D03*
X82353000Y-83840000D03*
X53780000Y-67180000D03*
X54420000Y-67180000D03*
X53803000Y-55470000D03*
X54443000Y-55470000D03*
D18*
X86145000Y-73870000D03*
X85505000Y-73870000D03*
D17*
X81695000Y-73860000D03*
X82335000Y-73860000D03*
D16*
X83523726Y-51476274D03*
X83976274Y-51023726D03*
D19*
X56635000Y-67450000D03*
X56635000Y-67950000D03*
X56635000Y-68450000D03*
X55359000Y-68450000D03*
X55359000Y-67950000D03*
X55359000Y-67450000D03*
D18*
X86145000Y-67180000D03*
X85505000Y-67180000D03*
X58210000Y-73860000D03*
X57570000Y-73860000D03*
D16*
X73527726Y-51472274D03*
X73980274Y-51019726D03*
D19*
X84556000Y-53050000D03*
X84556000Y-53550000D03*
X84556000Y-54050000D03*
X83280000Y-54050000D03*
X83280000Y-53550000D03*
X83280000Y-53050000D03*
D17*
X53775000Y-71570000D03*
X54415000Y-71570000D03*
X53773000Y-83830000D03*
X54413000Y-83830000D03*
D19*
X83300000Y-84340000D03*
X83300000Y-83840000D03*
X83300000Y-83340000D03*
X84576000Y-83340000D03*
X84576000Y-83840000D03*
X84576000Y-84340000D03*
D16*
X63527726Y-88972274D03*
X63980274Y-88519726D03*
X71009726Y-61480274D03*
X71462274Y-61027726D03*
D17*
X81695000Y-56240000D03*
X82335000Y-56240000D03*
D21*
X68980274Y-78539726D03*
X68527726Y-78992274D03*
D19*
X84540000Y-58480000D03*
X84540000Y-58980000D03*
X84540000Y-59480000D03*
X83264000Y-59480000D03*
X83264000Y-58980000D03*
X83264000Y-58480000D03*
D18*
X86145000Y-57020000D03*
X85505000Y-57020000D03*
X58215000Y-87280000D03*
X57575000Y-87280000D03*
X86125000Y-59760000D03*
X85485000Y-59760000D03*
D16*
X51037726Y-51502274D03*
X51490274Y-51049726D03*
D17*
X53775000Y-58220000D03*
X54415000Y-58220000D03*
D16*
X61017726Y-51482274D03*
X61470274Y-51029726D03*
D18*
X58243000Y-57030000D03*
X57603000Y-57030000D03*
D19*
X56645000Y-53070000D03*
X56645000Y-53570000D03*
X56645000Y-54070000D03*
X55369000Y-54070000D03*
X55369000Y-53570000D03*
X55369000Y-53070000D03*
D16*
X71027726Y-78962274D03*
X71480274Y-78509726D03*
D18*
X86125000Y-58210000D03*
X85485000Y-58210000D03*
D17*
X53780000Y-58980000D03*
X54420000Y-58980000D03*
D23*
X63575000Y-73900000D03*
X63575000Y-72700000D03*
X63575000Y-71500000D03*
D17*
X81675000Y-58210000D03*
X82315000Y-58210000D03*
D19*
X84558000Y-55750000D03*
X84558000Y-56250000D03*
X84558000Y-56750000D03*
X83282000Y-56750000D03*
X83282000Y-56250000D03*
X83282000Y-55750000D03*
X56626000Y-86020000D03*
X56626000Y-86520000D03*
X56626000Y-87020000D03*
X55350000Y-87020000D03*
X55350000Y-86520000D03*
X55350000Y-86020000D03*
X84568000Y-85990000D03*
X84568000Y-86490000D03*
X84568000Y-86990000D03*
X83292000Y-86990000D03*
X83292000Y-86490000D03*
X83292000Y-85990000D03*
D18*
X58243000Y-55480000D03*
X57603000Y-55480000D03*
X86143000Y-52790000D03*
X85503000Y-52790000D03*
D17*
X81695000Y-55480000D03*
X82335000Y-55480000D03*
D20*
X66460000Y-84270000D03*
X66460000Y-83630000D03*
D18*
X58220000Y-68720000D03*
X57580000Y-68720000D03*
D17*
X81685000Y-67180000D03*
X82325000Y-67180000D03*
D19*
X84570000Y-71040000D03*
X84570000Y-71540000D03*
X84570000Y-72040000D03*
X83294000Y-72040000D03*
X83294000Y-71540000D03*
X83294000Y-71040000D03*
D18*
X86145000Y-68730000D03*
X85505000Y-68730000D03*
D17*
X81703000Y-54320000D03*
X82343000Y-54320000D03*
D18*
X86155000Y-70770000D03*
X85515000Y-70770000D03*
D23*
X63575000Y-55875000D03*
X63575000Y-54675000D03*
X63575000Y-53475000D03*
D18*
X86155000Y-72310000D03*
X85515000Y-72310000D03*
X58220000Y-67950000D03*
X57580000Y-67950000D03*
D16*
X76027726Y-88982274D03*
X76480274Y-88529726D03*
D18*
X58215000Y-72340000D03*
X57575000Y-72340000D03*
X58215000Y-75390000D03*
X57575000Y-75390000D03*
D17*
X81695000Y-67950000D03*
X82335000Y-67950000D03*
X53765000Y-75390000D03*
X54405000Y-75390000D03*
D18*
X86153000Y-85720000D03*
X85513000Y-85720000D03*
D17*
X53780000Y-67940000D03*
X54420000Y-67940000D03*
D18*
X58213000Y-83840000D03*
X57573000Y-83840000D03*
D17*
X81715000Y-71540000D03*
X82355000Y-71540000D03*
X81700000Y-75390000D03*
X82340000Y-75390000D03*
X53770000Y-70790000D03*
X54410000Y-70790000D03*
D19*
X56628000Y-83340000D03*
X56628000Y-83840000D03*
X56628000Y-84340000D03*
X55352000Y-84340000D03*
X55352000Y-83840000D03*
X55352000Y-83340000D03*
D18*
X86125000Y-58980000D03*
X85485000Y-58980000D03*
X86145000Y-74640000D03*
X85505000Y-74640000D03*
X86145000Y-67950000D03*
X85505000Y-67950000D03*
D16*
X58517726Y-51482274D03*
X58970274Y-51029726D03*
X56013726Y-51476274D03*
X56466274Y-51023726D03*
D20*
X66450000Y-66275000D03*
X66450000Y-65635000D03*
D17*
X81703000Y-52780000D03*
X82343000Y-52780000D03*
X81705000Y-72310000D03*
X82345000Y-72310000D03*
D24*
X86940000Y-87270000D03*
X80950000Y-52780000D03*
X59220000Y-54670000D03*
X53100000Y-83070000D03*
X53010000Y-67310000D03*
X59387184Y-56962400D03*
X55030000Y-61170000D03*
X80000000Y-73850000D03*
X52910000Y-52800000D03*
X80280000Y-70770000D03*
X59080000Y-84610000D03*
X86950000Y-59760000D03*
X86880000Y-84600000D03*
X66448400Y-85123000D03*
X53020000Y-70800000D03*
X60390000Y-75290000D03*
X80630000Y-85710000D03*
X65418900Y-55981100D03*
X53080000Y-55470000D03*
X58990000Y-72320000D03*
X86810000Y-57020000D03*
X65770000Y-75120000D03*
X74670000Y-83930000D03*
X80820000Y-82910000D03*
X69980000Y-61310000D03*
X87867000Y-75138200D03*
X73750000Y-55000000D03*
X74430000Y-64880000D03*
X79680000Y-67180000D03*
X80580000Y-58220000D03*
X80890000Y-55480000D03*
X73510000Y-72760000D03*
X53030000Y-85750000D03*
X69960000Y-79020000D03*
X87020000Y-72320000D03*
X86940000Y-54340000D03*
X52460000Y-73850000D03*
X87520000Y-68730000D03*
X66670000Y-67020000D03*
X53060000Y-58220000D03*
X59000000Y-59740000D03*
X59430000Y-69310000D03*
X59010000Y-87330000D03*
X51457700Y-59596900D03*
X68583600Y-60045600D03*
X52398900Y-89088900D03*
X71910600Y-79704000D03*
X70204000Y-89419100D03*
X66659100Y-77594000D03*
X67407200Y-58905000D03*
X52116500Y-54617500D03*
X71007700Y-79899600D03*
X52440000Y-88070000D03*
X74526400Y-86870000D03*
X67601600Y-78037200D03*
X72396800Y-80897500D03*
X59966900Y-88827600D03*
X67660200Y-77207300D03*
X75001500Y-87956100D03*
X73041500Y-80347900D03*
X60694600Y-85672800D03*
X62929000Y-75633200D03*
X65079500Y-87738200D03*
X77469000Y-88783000D03*
X62065700Y-89016400D03*
X73304600Y-82635200D03*
X80425200Y-88473100D03*
X65300000Y-77160500D03*
X72050000Y-87390000D03*
X61610000Y-87380000D03*
X75174900Y-61891300D03*
X72409000Y-68321500D03*
X68106900Y-70830400D03*
X82390000Y-89229500D03*
X68059500Y-69900987D03*
X85989900Y-87948800D03*
X74656600Y-69299200D03*
X88521000Y-62395500D03*
X87985200Y-88448900D03*
X69130000Y-69590000D03*
X61219600Y-59962600D03*
X69912500Y-50891200D03*
X59720000Y-79180000D03*
X68945500Y-87555500D03*
X66780000Y-69529500D03*
X80092893Y-68300000D03*
X70720000Y-70640000D03*
X86810000Y-77270000D03*
X65147900Y-74570100D03*
X74599900Y-71825800D03*
X72333400Y-53750000D03*
X67677400Y-68703400D03*
X71240000Y-52704600D03*
X75370300Y-70125900D03*
X67092400Y-87344551D03*
X79770600Y-76895200D03*
X69730000Y-77581600D03*
X73540000Y-57470000D03*
X60020000Y-52950000D03*
X61007900Y-72416500D03*
X65083900Y-81504400D03*
X66689000Y-64744700D03*
X88286600Y-54907200D03*
X52488200Y-52108200D03*
X55618000Y-70483500D03*
X86526400Y-52178100D03*
X86515600Y-70100100D03*
X72428800Y-58473000D03*
X52540000Y-53593400D03*
X51949900Y-77109000D03*
X67365100Y-80601500D03*
X67552500Y-63593400D03*
X78828500Y-57228500D03*
X52936800Y-54657000D03*
X63951000Y-74636800D03*
X53175100Y-73282300D03*
X67237500Y-71885700D03*
X58225900Y-73139700D03*
X83138900Y-54865000D03*
X78915400Y-54887100D03*
X75988800Y-74899700D03*
X78718900Y-74837900D03*
X80389500Y-74610500D03*
X87640000Y-73430000D03*
X82639200Y-73252800D03*
X72455800Y-59549700D03*
X60150000Y-57320300D03*
X64761000Y-80149700D03*
X59811900Y-74428300D03*
X87413500Y-55988500D03*
X67599275Y-62655675D03*
X86802500Y-74769100D03*
X74614500Y-76651300D03*
X60180000Y-55250000D03*
X62153100Y-77030900D03*
X59573200Y-76794600D03*
X65219800Y-76139300D03*
X88363100Y-57439100D03*
X74873500Y-75508500D03*
X83692400Y-77473800D03*
X77822300Y-77801000D03*
X87731600Y-76189500D03*
X52496300Y-57300000D03*
X72103011Y-60399589D03*
X63760000Y-79990000D03*
X53089600Y-74866800D03*
X80281900Y-56074600D03*
X77762300Y-66078500D03*
X63471300Y-67402900D03*
X62769500Y-58404500D03*
X52404000Y-59062600D03*
X55238100Y-57526500D03*
X56303100Y-77619400D03*
X61601900Y-79457100D03*
X80960200Y-57443600D03*
X84263000Y-57353200D03*
X77890000Y-79610000D03*
X83291800Y-78280400D03*
X85292000Y-79500000D03*
X75932700Y-77972500D03*
X70828400Y-60420700D03*
X62247900Y-60265900D03*
X62170000Y-82617600D03*
X58865100Y-82589800D03*
X87328000Y-60488100D03*
X63743900Y-65188800D03*
X60118700Y-59537200D03*
X60058500Y-58124400D03*
X59935000Y-82087700D03*
X63628300Y-82404900D03*
X52744000Y-81979900D03*
X56128000Y-82437200D03*
X85437000Y-60962000D03*
X80360000Y-61055700D03*
X87042000Y-81836300D03*
X77697000Y-81903600D03*
X79850300Y-84136000D03*
X70242900Y-59872200D03*
X52350000Y-60150000D03*
X69593700Y-80338800D03*
X54960000Y-81829502D03*
X69657800Y-62615200D03*
X80485200Y-59715600D03*
X70700000Y-77820000D03*
X83435400Y-82401500D03*
X55772900Y-63291800D03*
X61666500Y-62078900D03*
X62878300Y-63564100D03*
X60559000Y-84772100D03*
X63941300Y-84620200D03*
X52860000Y-84935400D03*
X79895400Y-65836700D03*
X82716700Y-63402500D03*
X78069700Y-82903900D03*
X84488100Y-82555200D03*
X58842800Y-67580300D03*
X69688000Y-52857000D03*
X67344361Y-88197987D03*
X70422500Y-87852192D03*
X86898800Y-67092400D03*
X76297700Y-69760500D03*
X88080500Y-84970000D03*
X69719600Y-70361100D03*
X59887600Y-66687400D03*
X52837000Y-66006300D03*
X62925700Y-66017500D03*
X57710300Y-66184100D03*
X52310000Y-86270000D03*
X64758900Y-84260900D03*
X56706400Y-85003800D03*
X80883500Y-67690100D03*
X85364200Y-66035000D03*
X75713100Y-65623800D03*
X77889800Y-87110200D03*
X84968100Y-85212500D03*
X72594300Y-86343100D03*
X79910100Y-86873300D03*
X54649600Y-66427300D03*
X69770900Y-51896400D03*
X52335901Y-87074099D03*
X58290000Y-87970000D03*
X69707346Y-87285154D03*
X80173400Y-69471600D03*
X70080000Y-69556700D03*
X73071800Y-70099400D03*
X76295400Y-87647900D03*
X54828400Y-69318400D03*
X54792200Y-88850000D03*
X85249400Y-69458000D03*
X85090800Y-88261700D03*
X72417500Y-71876400D03*
X64910000Y-82504000D03*
X70793100Y-62415900D03*
X62610700Y-67959200D03*
X66020000Y-55412000D03*
X84560000Y-55080000D03*
X65757803Y-65257505D03*
X55352000Y-84990000D03*
X65760000Y-83070000D03*
X56820000Y-66850000D03*
X55340000Y-75860000D03*
X55370000Y-60100000D03*
X62160000Y-72700000D03*
X74441100Y-56760000D03*
X74370000Y-74530000D03*
X56014800Y-52798600D03*
X78046800Y-85203200D03*
X55360000Y-72760000D03*
X84560000Y-52460000D03*
X83130000Y-87680000D03*
X82200000Y-81840000D03*
X65360000Y-73439500D03*
X74220000Y-84700500D03*
X77830700Y-67201711D03*
X83130000Y-60160000D03*
X83710000Y-72600000D03*
X84560000Y-66820000D03*
X55360000Y-87750000D03*
X83070000Y-85060000D03*
X56030000Y-55360000D03*
X74620000Y-66620000D03*
X62060000Y-54680000D03*
X83000000Y-75790000D03*
X50730950Y-50710950D03*
X53020000Y-50710000D03*
X54903500Y-52294900D03*
X53245100Y-63291800D03*
X53090800Y-60853200D03*
X56592900Y-57381300D03*
X57403200Y-60907100D03*
X57095500Y-51470500D03*
X59496600Y-51574600D03*
X59896300Y-61129200D03*
X58632118Y-57586025D03*
X62583500Y-62078900D03*
X60978100Y-57899500D03*
X62525806Y-50882443D03*
X64744900Y-63000400D03*
X64568800Y-67453300D03*
X62795100Y-52025900D03*
X64696800Y-57942900D03*
X64244300Y-61725000D03*
X65519700Y-62225600D03*
X66893600Y-51796100D03*
X65780100Y-58139900D03*
X65663500Y-67459100D03*
X65116700Y-66018400D03*
X66631200Y-59543700D03*
X68094700Y-50845200D03*
X50791600Y-88206300D03*
X53103900Y-87505000D03*
X54092900Y-82413400D03*
X52640000Y-76040000D03*
X57400400Y-88218100D03*
X57392700Y-76041600D03*
X59896500Y-73375000D03*
X59893200Y-83407100D03*
X59784700Y-87570800D03*
X59934900Y-76045800D03*
X60940000Y-88030000D03*
X63313300Y-87489000D03*
X62456200Y-78819900D03*
X66330000Y-80028800D03*
X65430000Y-78160000D03*
X65995100Y-87714600D03*
X66527600Y-82220200D03*
X68120746Y-87844051D03*
X70810700Y-50609600D03*
X73298300Y-62487800D03*
X74041000Y-52602000D03*
X74950000Y-50850000D03*
X74324600Y-62428000D03*
X74584900Y-59628400D03*
X75560700Y-55061200D03*
X74894900Y-65801300D03*
X75440800Y-58490900D03*
X76670400Y-52595200D03*
X77445500Y-64812700D03*
X77440000Y-50900000D03*
X77594600Y-60798500D03*
X79092900Y-59624400D03*
X78045900Y-63262200D03*
X80006800Y-50726800D03*
X77831300Y-68230300D03*
X79092900Y-52590300D03*
X82144300Y-51458500D03*
X82399600Y-61132600D03*
X84860000Y-51179500D03*
X83454600Y-57816400D03*
X87402300Y-53309300D03*
X87398300Y-63407100D03*
X85692004Y-50597997D03*
X87394500Y-58407100D03*
X87700000Y-67620000D03*
X88170000Y-50770000D03*
X72525900Y-88304700D03*
X73358300Y-78067300D03*
X74650100Y-82897000D03*
X74895200Y-73384400D03*
X72550100Y-76910600D03*
X73641000Y-87785200D03*
X77690200Y-86207300D03*
X77361800Y-81028200D03*
X75540300Y-83404100D03*
X75916300Y-82568400D03*
X79685400Y-87972900D03*
X81271800Y-85152300D03*
X81046000Y-87890800D03*
X84399000Y-87676200D03*
X88254000Y-80110700D03*
X87397000Y-85907100D03*
X87251700Y-88029000D03*
X88783800Y-87630600D03*
X64989000Y-64204700D03*
X84906400Y-63441600D03*
D25*
X73060000Y-73920000D02*
X73030000Y-73950000D01*
X67492500Y-74500000D02*
X67542500Y-74450000D01*
X66822500Y-66177500D02*
X67552500Y-66177500D01*
X59319584Y-57030000D02*
X58243000Y-57030000D01*
X52460000Y-73850000D02*
X53765000Y-73850000D01*
X68557500Y-61502600D02*
X69787400Y-61502600D01*
X53110000Y-83060000D02*
X53100000Y-83070000D01*
X66820000Y-84270000D02*
X66890000Y-84200000D01*
X65845000Y-75120000D02*
X66430000Y-74535000D01*
X66450000Y-66640000D02*
X66450000Y-66275000D01*
X73540000Y-65596500D02*
X73713500Y-65596500D01*
X58215000Y-75390000D02*
X60290000Y-75390000D01*
X80590000Y-58210000D02*
X81675000Y-58210000D01*
X87595200Y-75410000D02*
X86145000Y-75410000D01*
X73552500Y-83631000D02*
X74371000Y-83631000D01*
X73100000Y-83700000D02*
X72440000Y-83700000D01*
X58840000Y-68720000D02*
X59430000Y-69310000D01*
X71452200Y-61017600D02*
X70272400Y-61017600D01*
X87010000Y-72310000D02*
X87020000Y-72320000D01*
X66448400Y-85123000D02*
X67488000Y-85123000D01*
X53780000Y-67180000D02*
X53140000Y-67180000D01*
X66817500Y-56412500D02*
X67552500Y-56412500D01*
X66460000Y-84270000D02*
X66460000Y-85111400D01*
X58225000Y-54350000D02*
X58900000Y-54350000D01*
X86145000Y-57020000D02*
X86810000Y-57020000D01*
X68527700Y-78992300D02*
X68555400Y-79020000D01*
X52910000Y-52800000D02*
X53790000Y-52800000D01*
X72427500Y-65677500D02*
X72952500Y-65677500D01*
X80630000Y-85710000D02*
X80640000Y-85720000D01*
X59387184Y-56962400D02*
X59319584Y-57030000D01*
X86145000Y-68730000D02*
X87520000Y-68730000D01*
X53775000Y-58220000D02*
X53060000Y-58220000D01*
X80280000Y-70770000D02*
X81715000Y-70770000D01*
X81703000Y-52780000D02*
X80950000Y-52780000D01*
X53140000Y-67180000D02*
X53010000Y-67310000D01*
X66430000Y-74535000D02*
X66655000Y-74535000D01*
X86930000Y-54330000D02*
X86940000Y-54340000D01*
X60290000Y-75390000D02*
X60390000Y-75290000D01*
X72427500Y-54912500D02*
X72782500Y-54912500D01*
X66745000Y-56485000D02*
X66817500Y-56412500D01*
X58235000Y-59740000D02*
X59000000Y-59740000D01*
X71480200Y-78509800D02*
X71470100Y-78499700D01*
X73530000Y-55855000D02*
X73530000Y-55220000D01*
X67488000Y-85123000D02*
X67565000Y-85200000D01*
X58220000Y-68720000D02*
X58840000Y-68720000D01*
X80580000Y-58220000D02*
X80590000Y-58210000D01*
X66690000Y-74500000D02*
X67492500Y-74500000D01*
X59080000Y-84610000D02*
X58208000Y-84610000D01*
X73552500Y-83631000D02*
X73169000Y-83631000D01*
X86163000Y-84600000D02*
X86880000Y-84600000D01*
X58970000Y-72340000D02*
X58990000Y-72320000D01*
X73027500Y-55912500D02*
X73085000Y-55855000D01*
X73060000Y-73283800D02*
X73060000Y-73920000D01*
X58215000Y-72340000D02*
X58970000Y-72340000D01*
X80990000Y-83080000D02*
X80820000Y-82910000D01*
X66827500Y-67177500D02*
X66670000Y-67020000D01*
X73169000Y-83631000D02*
X73100000Y-83700000D01*
X67552500Y-67177500D02*
X66827500Y-67177500D01*
X58215000Y-87280000D02*
X58960000Y-87280000D01*
D26*
X54025000Y-62175000D02*
X55030000Y-61170000D01*
D25*
X65418900Y-55981100D02*
X65922800Y-56485000D01*
X71470100Y-78499700D02*
X70480300Y-78499700D01*
X72726200Y-72950000D02*
X73060000Y-73283800D01*
X73085000Y-55855000D02*
X73530000Y-55855000D01*
X73030000Y-73950000D02*
X72417500Y-73950000D01*
X71462300Y-61027700D02*
X71452200Y-61017600D01*
X86153000Y-87260000D02*
X86930000Y-87260000D01*
X73320000Y-72950000D02*
X72417500Y-72950000D01*
X53030000Y-85750000D02*
X53765000Y-85750000D01*
X73530000Y-55220000D02*
X73750000Y-55000000D01*
X80640000Y-85720000D02*
X81703000Y-85720000D01*
X66450000Y-66275000D02*
X66725000Y-66275000D01*
X53020000Y-70800000D02*
X53030000Y-70790000D01*
X53768000Y-83060000D02*
X53110000Y-83060000D01*
X53080000Y-55470000D02*
X53803000Y-55470000D01*
X73713500Y-65596500D02*
X74430000Y-64880000D01*
X66460000Y-84270000D02*
X66820000Y-84270000D01*
X72952500Y-65677500D02*
X73033500Y-65596500D01*
X66460000Y-85111400D02*
X66448400Y-85123000D01*
D26*
X54025000Y-62230000D02*
X54025000Y-62175000D01*
D25*
X68555400Y-79020000D02*
X69960000Y-79020000D01*
X72427500Y-55912500D02*
X73027500Y-55912500D01*
X66670000Y-67020000D02*
X66670000Y-66860000D01*
X73510000Y-72760000D02*
X73320000Y-72950000D01*
X73030000Y-73950000D02*
X73465000Y-73950000D01*
X72417500Y-72950000D02*
X72726200Y-72950000D01*
X66655000Y-74535000D02*
X66690000Y-74500000D01*
X86143000Y-54330000D02*
X86930000Y-54330000D01*
X80010000Y-73860000D02*
X81695000Y-73860000D01*
X66725000Y-66275000D02*
X66822500Y-66177500D01*
X58900000Y-54350000D02*
X59220000Y-54670000D01*
X72782500Y-54912500D02*
X73085000Y-55215000D01*
X80890000Y-55480000D02*
X81695000Y-55480000D01*
X58960000Y-87280000D02*
X59010000Y-87330000D01*
X86930000Y-87260000D02*
X86940000Y-87270000D01*
X69787400Y-61502600D02*
X69980000Y-61310000D01*
X53030000Y-70790000D02*
X53770000Y-70790000D01*
X73465000Y-73950000D02*
X73520000Y-73895000D01*
X65770000Y-75120000D02*
X65845000Y-75120000D01*
X81713000Y-83080000D02*
X80990000Y-83080000D01*
X66890000Y-84200000D02*
X67565000Y-84200000D01*
X72417500Y-73950000D02*
X73030000Y-73950000D01*
X70480300Y-78499700D02*
X69960000Y-79020000D01*
X87867000Y-75138200D02*
X87595200Y-75410000D01*
X80000000Y-73850000D02*
X80010000Y-73860000D01*
X66670000Y-66860000D02*
X66450000Y-66640000D01*
X70272400Y-61017600D02*
X69980000Y-61310000D01*
X74371000Y-83631000D02*
X74670000Y-83930000D01*
X86125000Y-59760000D02*
X86950000Y-59760000D01*
X73085000Y-55215000D02*
X73085000Y-55855000D01*
X73033500Y-65596500D02*
X73540000Y-65596500D01*
X68547500Y-61492500D02*
X68557500Y-61502600D01*
X65922800Y-56485000D02*
X66450000Y-56485000D01*
X66450000Y-56485000D02*
X66745000Y-56485000D01*
X86155000Y-72310000D02*
X87010000Y-72310000D01*
X81685000Y-67180000D02*
X79680000Y-67180000D01*
X69240000Y-58600000D02*
X69240000Y-59389200D01*
X69240000Y-59389200D02*
X68583600Y-60045600D01*
X51170000Y-59309200D02*
X51457700Y-59596900D01*
X51170000Y-51634600D02*
X51170000Y-59309200D01*
X51037700Y-51502300D02*
X51170000Y-51634600D01*
X70752500Y-80862100D02*
X70752500Y-81512500D01*
X52398900Y-89088900D02*
X51136300Y-89088900D01*
X71910600Y-79704000D02*
X70752500Y-80862100D01*
X51136300Y-89088900D02*
X51023700Y-88976300D01*
X73765000Y-58715700D02*
X75340000Y-57140700D01*
X75340000Y-57140700D02*
X75340000Y-55697900D01*
X73765000Y-60151300D02*
X73765000Y-58715700D01*
X73458800Y-53589900D02*
X73145300Y-53589900D01*
X75060500Y-55191600D02*
X73458800Y-53589900D01*
X75340000Y-55697900D02*
X75060500Y-55418400D01*
X75060500Y-55418400D02*
X75060500Y-55191600D01*
X73145300Y-53589900D02*
X71027700Y-51472300D01*
X70740000Y-63176300D02*
X73765000Y-60151300D01*
X70740000Y-63490000D02*
X70740000Y-63176300D01*
X66659100Y-77594000D02*
X66659100Y-77807700D01*
X69230000Y-77123100D02*
X69230000Y-76637500D01*
X67428500Y-78577100D02*
X67776000Y-78577100D01*
X66659100Y-77807700D02*
X67428500Y-78577100D01*
X70660800Y-88962300D02*
X70204000Y-89419100D01*
X71037700Y-88962300D02*
X70660800Y-88962300D01*
X67776000Y-78577100D02*
X69230000Y-77123100D01*
X67808500Y-59306300D02*
X67407200Y-58905000D01*
X53527700Y-51482300D02*
X52407700Y-51482300D01*
X68343200Y-59306300D02*
X67808500Y-59306300D01*
X51660000Y-54161000D02*
X52116500Y-54617500D01*
X51660000Y-52230000D02*
X51660000Y-54161000D01*
X68740000Y-58600000D02*
X68740000Y-58909500D01*
X68740000Y-58909500D02*
X68343200Y-59306300D01*
X52407700Y-51482300D02*
X51660000Y-52230000D01*
X71252500Y-81099800D02*
X71252500Y-81512500D01*
X72160300Y-79179200D02*
X72435200Y-79454100D01*
X52625400Y-88070000D02*
X53527700Y-88972300D01*
X52440000Y-88070000D02*
X52625400Y-88070000D01*
X71728100Y-79179200D02*
X72160300Y-79179200D01*
X72435200Y-79454100D02*
X72435200Y-79917100D01*
X71007700Y-79899600D02*
X71728100Y-79179200D01*
X72435200Y-79917100D02*
X71252500Y-81099800D01*
X74040100Y-60374700D02*
X74040100Y-58960600D01*
X76060800Y-56939900D02*
X76060800Y-54854000D01*
X74040100Y-58960600D02*
X76060800Y-56939900D01*
X73619300Y-51472300D02*
X73527700Y-51472300D01*
X75785700Y-54578900D02*
X75785700Y-53638700D01*
X76060800Y-54854000D02*
X75785700Y-54578900D01*
X71240000Y-63174800D02*
X74040100Y-60374700D01*
X71240000Y-63490000D02*
X71240000Y-63174800D01*
X75785700Y-53638700D02*
X73619300Y-51472300D01*
X67641400Y-78037200D02*
X67601600Y-78037200D01*
X73818200Y-86870000D02*
X74526400Y-86870000D01*
X73099300Y-87588900D02*
X73818200Y-86870000D01*
X73537700Y-88962300D02*
X73099300Y-88523900D01*
X73099300Y-88523900D02*
X73099300Y-87588900D01*
X68730000Y-76948600D02*
X67641400Y-78037200D01*
X68730000Y-76637500D02*
X68730000Y-76948600D01*
X65909200Y-58718100D02*
X64155700Y-58718100D01*
X60756200Y-52936200D02*
X60195000Y-52375000D01*
X66278900Y-58348400D02*
X65909200Y-58718100D01*
X56508000Y-51970600D02*
X56013700Y-51476300D01*
X64155700Y-58718100D02*
X60756200Y-55318600D01*
X58617092Y-51970600D02*
X56508000Y-51970600D01*
X67988400Y-58348400D02*
X66278900Y-58348400D01*
X59021492Y-52375000D02*
X58617092Y-51970600D01*
X68240000Y-58600000D02*
X67988400Y-58348400D01*
X60195000Y-52375000D02*
X59021492Y-52375000D01*
X60756200Y-55318600D02*
X60756200Y-52936200D01*
X56485400Y-89430000D02*
X56027700Y-88972300D01*
X58382249Y-89434909D02*
X58377340Y-89430000D01*
X72396800Y-80897500D02*
X71781800Y-81512500D01*
X71781800Y-81512500D02*
X71752500Y-81512500D01*
X59966900Y-88827600D02*
X59359591Y-89434909D01*
X59359591Y-89434909D02*
X58382249Y-89434909D01*
X58377340Y-89430000D02*
X56485400Y-89430000D01*
X71740000Y-63338600D02*
X76335900Y-58742700D01*
X76335900Y-58742700D02*
X76335900Y-54740000D01*
X71740000Y-63490000D02*
X71740000Y-63338600D01*
X76060800Y-51515400D02*
X76027700Y-51482300D01*
X76335900Y-54740000D02*
X76060800Y-54464900D01*
X76060800Y-54464900D02*
X76060800Y-51515400D01*
X75001500Y-87956100D02*
X76027700Y-88982300D01*
X68230000Y-76637500D02*
X67660200Y-77207300D01*
X65487800Y-57639800D02*
X65196900Y-57930700D01*
X64904000Y-58443000D02*
X64273800Y-58443000D01*
X65196900Y-57930700D02*
X65196900Y-58150100D01*
X64273800Y-58443000D02*
X61031200Y-55200400D01*
X61031200Y-52741200D02*
X60390000Y-52100000D01*
X66260000Y-57912500D02*
X65987300Y-57639800D01*
X60390000Y-52100000D02*
X59135400Y-52100000D01*
X65987300Y-57639800D02*
X65487800Y-57639800D01*
X59135400Y-52100000D02*
X58517700Y-51482300D01*
X67552500Y-57912500D02*
X66260000Y-57912500D01*
X65196900Y-58150100D02*
X64904000Y-58443000D01*
X61031200Y-55200400D02*
X61031200Y-52741200D01*
X73041500Y-81598500D02*
X72440000Y-82200000D01*
X60334300Y-86033100D02*
X60694600Y-85672800D01*
X58602400Y-89047000D02*
X59041100Y-89047000D01*
X59041100Y-89047000D02*
X60334300Y-87753800D01*
X58527700Y-88972300D02*
X58602400Y-89047000D01*
X60334300Y-87753800D02*
X60334300Y-86033100D01*
X73041500Y-80347900D02*
X73041500Y-81598500D01*
X72427500Y-64177500D02*
X73798400Y-62806600D01*
X73798400Y-62806600D02*
X73798400Y-62247000D01*
X76914700Y-53095300D02*
X78527700Y-51482300D01*
X76914700Y-59130700D02*
X76914700Y-53095300D01*
X73798400Y-62247000D02*
X76914700Y-59130700D01*
X78343000Y-88783000D02*
X78530000Y-88970000D01*
X65832500Y-77660000D02*
X67542500Y-75950000D01*
X77469000Y-88783000D02*
X78343000Y-88783000D01*
X64955800Y-77660000D02*
X65832500Y-77660000D01*
X62929000Y-75633200D02*
X64955800Y-77660000D01*
X63579600Y-57347500D02*
X61380500Y-55148400D01*
X67552500Y-57412500D02*
X67487500Y-57347500D01*
X61380500Y-51845100D02*
X61017700Y-51482300D01*
X67487500Y-57347500D02*
X63579600Y-57347500D01*
X61380500Y-55148400D02*
X61380500Y-51845100D01*
X72504800Y-82635200D02*
X72440000Y-82700000D01*
X61091800Y-89016400D02*
X62065700Y-89016400D01*
X73304600Y-82635200D02*
X72504800Y-82635200D01*
X61037700Y-88962300D02*
X61091800Y-89016400D01*
X77094500Y-60731500D02*
X73148500Y-64677500D01*
X77094500Y-60591400D02*
X77094500Y-60731500D01*
X78024400Y-59661500D02*
X77094500Y-60591400D01*
X73148500Y-64677500D02*
X72427500Y-64677500D01*
X78024500Y-54465500D02*
X78024400Y-54465500D01*
X81017700Y-51472300D02*
X78024500Y-54465500D01*
X78024400Y-54465500D02*
X78024400Y-59661500D01*
X81017700Y-88982300D02*
X80934400Y-88982300D01*
X80934400Y-88982300D02*
X80425200Y-88473100D01*
X65300000Y-77160500D02*
X67010500Y-75450000D01*
X67010500Y-75450000D02*
X67542500Y-75450000D01*
X65760400Y-53725000D02*
X68240000Y-53725000D01*
X63517700Y-51482300D02*
X65760400Y-53725000D01*
X61610000Y-87380000D02*
X61610000Y-87740000D01*
X62842300Y-88972300D02*
X63527700Y-88972300D01*
X72050000Y-87390000D02*
X71752500Y-87092500D01*
X71752500Y-87092500D02*
X71752500Y-86387500D01*
X61610000Y-87740000D02*
X62842300Y-88972300D01*
X83523700Y-51476300D02*
X82559900Y-50512500D01*
X77474300Y-53501600D02*
X77474300Y-59591900D01*
X72409000Y-68321500D02*
X71783500Y-68321500D01*
X80927500Y-50512500D02*
X79494500Y-51945500D01*
X79494500Y-51945500D02*
X79030400Y-51945500D01*
X79030400Y-51945500D02*
X77474300Y-53501600D01*
X82559900Y-50512500D02*
X80927500Y-50512500D01*
X77474300Y-59591900D02*
X75174900Y-61891300D01*
X71783500Y-68321500D02*
X71740000Y-68365000D01*
X68230000Y-70953500D02*
X68230000Y-71762500D01*
X82390000Y-89229500D02*
X83270500Y-89229500D01*
X83270500Y-89229500D02*
X83533700Y-88966300D01*
X68106900Y-70830400D02*
X68230000Y-70953500D01*
X68740000Y-53385900D02*
X68740000Y-53725000D01*
X66027700Y-51735800D02*
X67338800Y-53046900D01*
X67338800Y-53046900D02*
X68401000Y-53046900D01*
X66027700Y-51472300D02*
X66027700Y-51735800D01*
X68401000Y-53046900D02*
X68740000Y-53385900D01*
X71550000Y-87370000D02*
X71252500Y-87072500D01*
X70315092Y-88919100D02*
X70546892Y-88687300D01*
X66027700Y-88972300D02*
X66502400Y-89447000D01*
X69704000Y-89216000D02*
X69704000Y-89211993D01*
X69704000Y-89211993D02*
X69996893Y-88919100D01*
X71252500Y-87072500D02*
X71252500Y-86387500D01*
X66502400Y-89447000D02*
X69473000Y-89447000D01*
X69473000Y-89447000D02*
X69704000Y-89216000D01*
X70546892Y-88687300D02*
X70682700Y-88687300D01*
X69996893Y-88919100D02*
X70315092Y-88919100D01*
X70682700Y-88687300D02*
X71550000Y-87820000D01*
X71550000Y-87820000D02*
X71550000Y-87370000D01*
X75174900Y-69073800D02*
X77695100Y-69073800D01*
X74882000Y-68780900D02*
X75174900Y-69073800D01*
X80905200Y-52046500D02*
X83621700Y-52046500D01*
X72453100Y-69047000D02*
X72719200Y-68780900D01*
X78708400Y-54243300D02*
X80905200Y-52046500D01*
X78708400Y-54387000D02*
X78708400Y-54243300D01*
X78328400Y-57489200D02*
X78328400Y-54766900D01*
X78708300Y-54387000D02*
X78708400Y-54387000D01*
X78328400Y-54766900D02*
X78708300Y-54387000D01*
X71240000Y-68365000D02*
X71240000Y-68737600D01*
X71240000Y-68737600D02*
X71549400Y-69047000D01*
X78546000Y-65134700D02*
X78546000Y-57706800D01*
X83621700Y-52046500D02*
X83983200Y-51685000D01*
X78546000Y-57706800D02*
X78328400Y-57489200D01*
X78434700Y-65246000D02*
X78546000Y-65134700D01*
X77695100Y-69073800D02*
X78434700Y-68334200D01*
X85815000Y-51685000D02*
X86027726Y-51472274D01*
X72719200Y-68780900D02*
X74882000Y-68780900D01*
X83983200Y-51685000D02*
X85815000Y-51685000D01*
X71549400Y-69047000D02*
X72453100Y-69047000D01*
X78434700Y-68334200D02*
X78434700Y-65246000D01*
X86037700Y-88962300D02*
X85989900Y-88914500D01*
X85989900Y-88914500D02*
X85989900Y-87948800D01*
X68730000Y-70571487D02*
X68730000Y-71762500D01*
X68059500Y-69900987D02*
X68730000Y-70571487D01*
X69187900Y-53672900D02*
X69240000Y-53725000D01*
X68527700Y-51482300D02*
X69187900Y-52142500D01*
X69187900Y-52142500D02*
X69187900Y-53672900D01*
X68576700Y-89036700D02*
X69490384Y-89036700D01*
X69490384Y-89036700D02*
X69882985Y-88644100D01*
X70432984Y-88412300D02*
X70568792Y-88412300D01*
X71275000Y-87706092D02*
X71275000Y-87483908D01*
X71275000Y-87483908D02*
X70752500Y-86961408D01*
X70568792Y-88412300D02*
X71275000Y-87706092D01*
X70201184Y-88644100D02*
X70432984Y-88412300D01*
X70752500Y-86961408D02*
X70752500Y-86387500D01*
X68520000Y-88980000D02*
X68576700Y-89036700D01*
X69882985Y-88644100D02*
X70201184Y-88644100D01*
X88521000Y-62395500D02*
X88897600Y-62018900D01*
X71389800Y-69324200D02*
X70740000Y-68674400D01*
X74631600Y-69324200D02*
X71389800Y-69324200D01*
X88897600Y-51852200D02*
X88527700Y-51482300D01*
X70740000Y-68674400D02*
X70740000Y-68365000D01*
X74656600Y-69299200D02*
X74631600Y-69324200D01*
X88897600Y-62018900D02*
X88897600Y-51852200D01*
X69130000Y-70478700D02*
X69230000Y-70578700D01*
X88527700Y-88972300D02*
X88004300Y-88448900D01*
X88004300Y-88448900D02*
X87985200Y-88448900D01*
X69130000Y-69590000D02*
X69130000Y-70478700D01*
X69230000Y-70578700D02*
X69230000Y-71762500D01*
X58975000Y-62230000D02*
X61015100Y-62230000D01*
X70739800Y-51896200D02*
X70739800Y-53724800D01*
X69912600Y-50891300D02*
X69912600Y-51069000D01*
X69912500Y-50891200D02*
X69912600Y-50891300D01*
X70739800Y-53724800D02*
X70740000Y-53725000D01*
X61219600Y-59962600D02*
X61015100Y-60167100D01*
X61015100Y-60167100D02*
X61015100Y-62230000D01*
X69912600Y-51069000D02*
X70739800Y-51896200D01*
X68945500Y-87555500D02*
X68945500Y-87003231D01*
X69252500Y-86696231D02*
X69252500Y-86387500D01*
X59720000Y-79180000D02*
X58975000Y-78435000D01*
X58975000Y-78435000D02*
X58975000Y-78230000D01*
X68945500Y-87003231D02*
X69252500Y-86696231D01*
X79169200Y-67376307D02*
X79169200Y-66983500D01*
X69240000Y-68702200D02*
X69240000Y-68365000D01*
X79169200Y-66983500D02*
X79815800Y-66336900D01*
X79815800Y-66336900D02*
X80105700Y-66336900D01*
X66969500Y-69340000D02*
X68602200Y-69340000D01*
X66780000Y-69529500D02*
X66969500Y-69340000D01*
X81025000Y-65417600D02*
X81025000Y-64770000D01*
X80092893Y-68300000D02*
X79169200Y-67376307D01*
X80105700Y-66336900D02*
X81025000Y-65417600D01*
X68602200Y-69340000D02*
X69240000Y-68702200D01*
X86810000Y-77270000D02*
X86810000Y-77395000D01*
X86810000Y-77395000D02*
X85975000Y-78230000D01*
X70730000Y-70650000D02*
X70720000Y-70640000D01*
X70730000Y-71762500D02*
X70730000Y-70650000D01*
X56923400Y-77509000D02*
X57137700Y-77294700D01*
X56923400Y-77716500D02*
X56923400Y-77509000D01*
X68136700Y-86271700D02*
X68252500Y-86387500D01*
X74100400Y-71326300D02*
X72166200Y-71326300D01*
X72333400Y-53750000D02*
X71765000Y-53750000D01*
X72166200Y-71326300D02*
X71730000Y-71762500D01*
X54025000Y-78337500D02*
X56302400Y-78337500D01*
X56302400Y-78337500D02*
X56302400Y-80898500D01*
X63229100Y-75194900D02*
X63167900Y-75133700D01*
X74599900Y-71825800D02*
X74100400Y-71326300D01*
X57225100Y-81821200D02*
X58834000Y-81821200D01*
X67183800Y-68190700D02*
X68065700Y-68190700D01*
X67009500Y-68365000D02*
X67183800Y-68190700D01*
X61602200Y-71988200D02*
X65225400Y-68365000D01*
X71765000Y-53750000D02*
X71740000Y-53725000D01*
X59811400Y-82798600D02*
X60522600Y-82798600D01*
X65147900Y-74570100D02*
X64523100Y-75194900D01*
X61602200Y-75481500D02*
X61602200Y-75133700D01*
X63167900Y-75133700D02*
X61602200Y-75133700D01*
X63995700Y-86271700D02*
X68136700Y-86271700D01*
X56302400Y-78337500D02*
X56923400Y-77716500D01*
X68065700Y-68190700D02*
X68240000Y-68365000D01*
X65225400Y-68365000D02*
X67009500Y-68365000D01*
X58834000Y-81821200D02*
X59811400Y-82798600D01*
X57137700Y-77294700D02*
X59789000Y-77294700D01*
X60522600Y-82798600D02*
X63995700Y-86271700D01*
X64523100Y-75194900D02*
X63229100Y-75194900D01*
X59789000Y-77294700D02*
X61602200Y-75481500D01*
X56302400Y-80898500D02*
X57225100Y-81821200D01*
X61602200Y-75133700D02*
X61602200Y-71988200D01*
X78984900Y-62230000D02*
X78984900Y-65084900D01*
X78709900Y-68501000D02*
X76936600Y-70274300D01*
X73279000Y-70599500D02*
X73604100Y-70274400D01*
X71230000Y-71762500D02*
X71230000Y-71429300D01*
X73604100Y-70274300D02*
X75370300Y-70274300D01*
X76936600Y-70274300D02*
X75370300Y-70274300D01*
X68740000Y-68365000D02*
X68740000Y-68763200D01*
X68193649Y-87344551D02*
X68752500Y-86785700D01*
X67092400Y-87344551D02*
X68193649Y-87344551D01*
X71230000Y-71429300D02*
X72059800Y-70599500D01*
X71240000Y-52704600D02*
X71240000Y-53725000D01*
X73604100Y-70274400D02*
X73604100Y-70274300D01*
X72059800Y-70599500D02*
X73279000Y-70599500D01*
X78984900Y-65084900D02*
X78709900Y-65359900D01*
X68015800Y-69041800D02*
X67677400Y-68703400D01*
X81025000Y-62230000D02*
X78984900Y-62230000D01*
X75370300Y-70274300D02*
X75370300Y-70125900D01*
X68461400Y-69041800D02*
X68015800Y-69041800D01*
X78709900Y-65359900D02*
X78709900Y-68501000D01*
X68740000Y-68763200D02*
X68461400Y-69041800D01*
X68752500Y-86785700D02*
X68752500Y-86387500D01*
X63763707Y-64688700D02*
X59056300Y-64688700D01*
X69740000Y-58600000D02*
X69740000Y-60300000D01*
X68810000Y-60850000D02*
X67290000Y-60850000D01*
X66019700Y-62432707D02*
X63763707Y-64688700D01*
X66019700Y-62120300D02*
X66019700Y-62432707D01*
X69000000Y-61040000D02*
X68810000Y-60850000D01*
X67290000Y-60850000D02*
X66019700Y-62120300D01*
X69740000Y-60300000D02*
X69000000Y-61040000D01*
X59056300Y-64688700D02*
X58975000Y-64770000D01*
X70037300Y-79838700D02*
X70252500Y-80053900D01*
X58975000Y-80770000D02*
X61015100Y-80770000D01*
X61015100Y-80770000D02*
X61213400Y-80770000D01*
X71027700Y-78962300D02*
X70252500Y-79737500D01*
X70252500Y-79737500D02*
X70252500Y-80053900D01*
X68671700Y-79838700D02*
X70037300Y-79838700D01*
X67809600Y-78976600D02*
X68671700Y-79838700D01*
X63006800Y-78976600D02*
X67809600Y-78976600D01*
X70252500Y-80053900D02*
X70252500Y-81512500D01*
X61213400Y-80770000D02*
X63006800Y-78976600D01*
X79582800Y-76895200D02*
X78984900Y-77493100D01*
X79770600Y-76895200D02*
X79582800Y-76895200D01*
X69730000Y-76637500D02*
X69730000Y-77581600D01*
X68980200Y-78529800D02*
X68980200Y-78539800D01*
X68980200Y-78519800D02*
X68980200Y-78529800D01*
X69730000Y-77734100D02*
X69730000Y-77581600D01*
X69730000Y-77581600D02*
X69730000Y-77734100D01*
X68980200Y-78529800D02*
X68980300Y-78529900D01*
X69730000Y-77770000D02*
X68980200Y-78519800D01*
X81025000Y-78230000D02*
X78984900Y-78230000D01*
X69730000Y-77748800D02*
X69730000Y-77770000D01*
X69730000Y-77748800D02*
X69730000Y-77734100D01*
X69730000Y-77734100D02*
X69730000Y-77748800D01*
X78984900Y-77493100D02*
X78984900Y-78230000D01*
X68980300Y-78529900D02*
X68980300Y-78539700D01*
X60020000Y-52950000D02*
X59980000Y-52950000D01*
X59980000Y-52950000D02*
X59380000Y-53550000D01*
X58250000Y-53550000D02*
X58220000Y-53580000D01*
X72427500Y-57412500D02*
X73482500Y-57412500D01*
X73482500Y-57412500D02*
X73540000Y-57470000D01*
X59380000Y-53550000D02*
X58250000Y-53550000D01*
X60161400Y-71570000D02*
X61007900Y-72416500D01*
X65083900Y-81504400D02*
X66299800Y-82720300D01*
X67544700Y-82720300D02*
X67565000Y-82700000D01*
X66299800Y-82720300D02*
X67544700Y-82720300D01*
X58215000Y-71570000D02*
X60161400Y-71570000D01*
X66756200Y-64677500D02*
X67552500Y-64677500D01*
X86143000Y-53560000D02*
X86939400Y-53560000D01*
X66689000Y-64744700D02*
X66756200Y-64677500D01*
X86939400Y-53560000D02*
X88286600Y-54907200D01*
X85745300Y-70005500D02*
X79643200Y-70005500D01*
X86155000Y-71540000D02*
X87037200Y-70657800D01*
X86209800Y-69541000D02*
X85745300Y-70005500D01*
X87037200Y-70657800D02*
X87037200Y-69846600D01*
X86731600Y-69541000D02*
X86209800Y-69541000D01*
X74198700Y-75450000D02*
X72417500Y-75450000D01*
X87037200Y-69846600D02*
X86731600Y-69541000D01*
X79643200Y-70005500D02*
X74198700Y-75450000D01*
X58240000Y-52712600D02*
X58240000Y-52790000D01*
X54700000Y-53070000D02*
X54430000Y-52800000D01*
X55369000Y-53070000D02*
X55369000Y-52735500D01*
X55369000Y-53070000D02*
X54700000Y-53070000D01*
X53758900Y-52108200D02*
X54430000Y-52779300D01*
X52488200Y-52108200D02*
X53758900Y-52108200D01*
X55369000Y-52735500D02*
X55833600Y-52270900D01*
X55833600Y-52270900D02*
X57798300Y-52270900D01*
X54430000Y-52779300D02*
X54430000Y-52800000D01*
X57798300Y-52270900D02*
X58240000Y-52712600D01*
X54920000Y-71070000D02*
X55354000Y-71070000D01*
X55354000Y-70747500D02*
X55618000Y-70483500D01*
X54640000Y-70790000D02*
X54920000Y-71070000D01*
X55618000Y-70483500D02*
X55734000Y-70367500D01*
X55734000Y-70367500D02*
X57880200Y-70367500D01*
X55354000Y-71070000D02*
X55354000Y-70747500D01*
X57880200Y-70367500D02*
X58215000Y-70702300D01*
X58215000Y-70702300D02*
X58215000Y-70800000D01*
X54410000Y-70790000D02*
X54640000Y-70790000D01*
X86143000Y-52561500D02*
X86526400Y-52178100D01*
X84220000Y-51960000D02*
X85541500Y-51960000D01*
X83280000Y-53050000D02*
X83130000Y-53050000D01*
X86143000Y-52790000D02*
X86143000Y-52561500D01*
X85541500Y-51960000D02*
X86143000Y-52561500D01*
X83130000Y-53050000D02*
X82980000Y-53050000D01*
X83130000Y-53050000D02*
X84220000Y-51960000D01*
X82710000Y-52780000D02*
X82343000Y-52780000D01*
X82980000Y-53050000D02*
X82710000Y-52780000D01*
X86155000Y-70465000D02*
X86155000Y-70770000D01*
X86253600Y-70353600D02*
X84419500Y-70353600D01*
X82550000Y-70770000D02*
X82820000Y-71040000D01*
X86515600Y-70104400D02*
X86260000Y-70360000D01*
X86260000Y-70360000D02*
X86155000Y-70465000D01*
X86515600Y-70100100D02*
X86515600Y-70104400D01*
X82355000Y-70770000D02*
X82550000Y-70770000D01*
X84419500Y-70353600D02*
X83733100Y-71040000D01*
X83733100Y-71040000D02*
X83294000Y-71040000D01*
X82820000Y-71040000D02*
X83294000Y-71040000D01*
X86260000Y-70360000D02*
X86253600Y-70353600D01*
X72428800Y-57913800D02*
X72427500Y-57912500D01*
X52563400Y-53570000D02*
X53790000Y-53570000D01*
X72428800Y-58473000D02*
X72428800Y-57913800D01*
X52540000Y-53593400D02*
X52563400Y-53570000D01*
X53775000Y-71570000D02*
X51949900Y-73395100D01*
X67565000Y-82200000D02*
X67565000Y-80801400D01*
X67565000Y-80801400D02*
X67365100Y-80601500D01*
X51949900Y-73395100D02*
X51949900Y-77109000D01*
X78828500Y-56424500D02*
X78828500Y-57228500D01*
X81703000Y-53550000D02*
X78828500Y-56424500D01*
X67552500Y-63593400D02*
X67552500Y-64177500D01*
X81715000Y-71540000D02*
X80219000Y-71540000D01*
X80219000Y-71540000D02*
X75717100Y-76041900D01*
X72509400Y-76041900D02*
X72417500Y-75950000D01*
X75717100Y-76041900D02*
X72509400Y-76041900D01*
X53790000Y-54452700D02*
X53790000Y-54350000D01*
X56205900Y-54070000D02*
X55515500Y-54760400D01*
X54097700Y-54760400D02*
X53790000Y-54452700D01*
X57585000Y-54350000D02*
X57305000Y-54070000D01*
X55515500Y-54760400D02*
X54097700Y-54760400D01*
X57305000Y-54070000D02*
X56645000Y-54070000D01*
X56645000Y-54070000D02*
X56205900Y-54070000D01*
X52936800Y-54657000D02*
X53483000Y-54657000D01*
X53483000Y-54657000D02*
X53790000Y-54350000D01*
X54109600Y-73272000D02*
X53775000Y-72937400D01*
X56630000Y-72070000D02*
X56750000Y-72070000D01*
X58225900Y-73090000D02*
X58225900Y-73139700D01*
X56750000Y-72193100D02*
X55671100Y-73272000D01*
X56870000Y-72070000D02*
X57140000Y-72340000D01*
X55671100Y-73272000D02*
X54109600Y-73272000D01*
X56750000Y-72070000D02*
X56750000Y-72193100D01*
X57475900Y-72340000D02*
X57575000Y-72340000D01*
X53775000Y-72937400D02*
X53520000Y-72937400D01*
X56750000Y-72070000D02*
X56870000Y-72070000D01*
X53775000Y-72937400D02*
X53775000Y-72340000D01*
X53520000Y-72937400D02*
X53175100Y-73282300D01*
X57475900Y-72340000D02*
X58225900Y-73090000D01*
X57140000Y-72340000D02*
X57475900Y-72340000D01*
X81703000Y-54432700D02*
X81703000Y-54320000D01*
X84116900Y-54050000D02*
X83396500Y-54770400D01*
X84556000Y-54050000D02*
X84800000Y-54050000D01*
X83396500Y-54770400D02*
X83138900Y-54770400D01*
X82040700Y-54770400D02*
X81703000Y-54432700D01*
X83138900Y-54770400D02*
X82040700Y-54770400D01*
X85080000Y-54330000D02*
X85503000Y-54330000D01*
X84556000Y-54050000D02*
X84116900Y-54050000D01*
X84800000Y-54050000D02*
X85080000Y-54330000D01*
X83138900Y-54770400D02*
X83138900Y-54865000D01*
X84685000Y-72040000D02*
X84800000Y-72040000D01*
X84570000Y-72040000D02*
X84685000Y-72040000D01*
X82542500Y-73282000D02*
X81705000Y-72444500D01*
X85070000Y-72310000D02*
X85515000Y-72310000D01*
X84108000Y-73282000D02*
X82910500Y-73282000D01*
X84685000Y-72705000D02*
X84108000Y-73282000D01*
X82668400Y-73282000D02*
X82639200Y-73252800D01*
X82910500Y-73282000D02*
X82542500Y-73282000D01*
X82910500Y-73282000D02*
X82668400Y-73282000D01*
X84685000Y-72040000D02*
X84685000Y-72705000D01*
X81705000Y-72444500D02*
X81705000Y-72310000D01*
X84800000Y-72040000D02*
X85070000Y-72310000D01*
X72455800Y-59549700D02*
X71740000Y-58833900D01*
X71740000Y-58833900D02*
X71740000Y-58600000D01*
X58243000Y-56250000D02*
X59630000Y-56250000D01*
X60150000Y-56770000D02*
X60150000Y-57320300D01*
X59630000Y-56250000D02*
X60150000Y-56770000D01*
X67202800Y-80050600D02*
X67614300Y-80050600D01*
X59620200Y-74620000D02*
X59811900Y-74428300D01*
X68252500Y-80688800D02*
X68252500Y-81512500D01*
X64761000Y-80149700D02*
X65185500Y-80574200D01*
X66679200Y-80574200D02*
X67202800Y-80050600D01*
X65185500Y-80574200D02*
X66679200Y-80574200D01*
X58215000Y-74620000D02*
X59620200Y-74620000D01*
X67614300Y-80050600D02*
X68252500Y-80688800D01*
X86145000Y-56250000D02*
X87152000Y-56250000D01*
X87152000Y-56250000D02*
X87413500Y-55988500D01*
X68240000Y-63200000D02*
X67695675Y-62655675D01*
X67695675Y-62655675D02*
X67599275Y-62655675D01*
X68240000Y-63490000D02*
X68240000Y-63200000D01*
X74373700Y-76410500D02*
X71957000Y-76410500D01*
X86673400Y-74640000D02*
X86802500Y-74769100D01*
X74614500Y-76651300D02*
X74373700Y-76410500D01*
X86145000Y-74640000D02*
X86673400Y-74640000D01*
X71957000Y-76410500D02*
X71730000Y-76637500D01*
X54484600Y-55511600D02*
X55153600Y-55511600D01*
X55382000Y-55740000D02*
X55153600Y-55511600D01*
X54443000Y-55470000D02*
X54484600Y-55511600D01*
X55805300Y-54859900D02*
X57728600Y-54859900D01*
X59950000Y-55480000D02*
X58243000Y-55480000D01*
X58243000Y-55374300D02*
X58243000Y-55480000D01*
X60180000Y-55250000D02*
X59950000Y-55480000D01*
X57728600Y-54859900D02*
X58243000Y-55374300D01*
X55153600Y-55511600D02*
X55805300Y-54859900D01*
X54920000Y-74120000D02*
X55352000Y-74120000D01*
X59893500Y-76794600D02*
X60894000Y-75794100D01*
X59573200Y-76794600D02*
X59893500Y-76794600D01*
X54650000Y-73850000D02*
X54920000Y-74120000D01*
X58278200Y-73928200D02*
X58210000Y-73860000D01*
X56463500Y-73447600D02*
X57826600Y-73447600D01*
X55352000Y-74120000D02*
X55791100Y-74120000D01*
X57826600Y-73447600D02*
X58210000Y-73831000D01*
X60894000Y-75794100D02*
X60894000Y-74803100D01*
X55791100Y-74120000D02*
X56463500Y-73447600D01*
X54405000Y-73850000D02*
X54650000Y-73850000D01*
X58210000Y-73831000D02*
X58210000Y-73860000D01*
X60894000Y-74803100D02*
X60019100Y-73928200D01*
X60019100Y-73928200D02*
X58278200Y-73928200D01*
X84402700Y-54530000D02*
X84871200Y-54530000D01*
X87666700Y-55480000D02*
X86145000Y-55480000D01*
X88363100Y-57439100D02*
X88363100Y-56176400D01*
X82600000Y-55480000D02*
X82870000Y-55750000D01*
X85275400Y-54934200D02*
X85683300Y-54934200D01*
X83182700Y-55750000D02*
X83282000Y-55750000D01*
X85683300Y-54934200D02*
X86145000Y-55395900D01*
X86145000Y-55395900D02*
X86145000Y-55480000D01*
X82335000Y-55480000D02*
X82600000Y-55480000D01*
X84871200Y-54530000D02*
X85275400Y-54934200D01*
X82870000Y-55750000D02*
X83182700Y-55750000D01*
X88363100Y-56176400D02*
X87666700Y-55480000D01*
X83182700Y-55750000D02*
X84402700Y-54530000D01*
X84445900Y-73397200D02*
X85777400Y-73397200D01*
X83284000Y-74120000D02*
X83723100Y-74120000D01*
X82335000Y-73860000D02*
X82570000Y-73860000D01*
X87310000Y-73870000D02*
X88366500Y-74926500D01*
X88366500Y-74926500D02*
X88366500Y-75655000D01*
X88366500Y-75655000D02*
X87832000Y-76189500D01*
X82830000Y-74120000D02*
X83284000Y-74120000D01*
X82570000Y-73860000D02*
X82830000Y-74120000D01*
X83723100Y-74120000D02*
X84445900Y-73397200D01*
X86145000Y-73870000D02*
X87310000Y-73870000D01*
X86145000Y-73764800D02*
X86145000Y-73870000D01*
X87832000Y-76189500D02*
X87731600Y-76189500D01*
X85777400Y-73397200D02*
X86145000Y-73764800D01*
X72103011Y-60399589D02*
X71240000Y-59536578D01*
X52733000Y-57300000D02*
X52496300Y-57300000D01*
X53803000Y-56230000D02*
X52733000Y-57300000D01*
X71240000Y-59536578D02*
X71240000Y-58600000D01*
X53336400Y-74620000D02*
X53089600Y-74866800D01*
X68752500Y-80799600D02*
X68752500Y-81512500D01*
X64220700Y-79529300D02*
X67482200Y-79529300D01*
X67482200Y-79529300D02*
X68752500Y-80799600D01*
X53765000Y-74620000D02*
X53336400Y-74620000D01*
X63760000Y-79990000D02*
X64220700Y-79529300D01*
X81695000Y-56240000D02*
X80447300Y-56240000D01*
X68740000Y-63160100D02*
X68740000Y-63490000D01*
X67800000Y-62150000D02*
X68363900Y-62713900D01*
X63471300Y-66818700D02*
X64826200Y-65463800D01*
X68363900Y-62784000D02*
X68740000Y-63160100D01*
X68363900Y-62713900D02*
X68363900Y-62784000D01*
X80447300Y-56240000D02*
X80281900Y-56074600D01*
X67005000Y-63303908D02*
X67005000Y-62435000D01*
X63471300Y-67402900D02*
X63471300Y-66818700D01*
X67005000Y-62435000D02*
X67290000Y-62150000D01*
X64826200Y-65463800D02*
X64845108Y-65463800D01*
X67290000Y-62150000D02*
X67800000Y-62150000D01*
X64845108Y-65463800D02*
X67005000Y-63303908D01*
X71617400Y-77410700D02*
X72757300Y-77410700D01*
X72757300Y-77410700D02*
X72879500Y-77288500D01*
X81338600Y-74620000D02*
X81695000Y-74620000D01*
X78670100Y-77288500D02*
X81338600Y-74620000D01*
X71230000Y-77023300D02*
X71617400Y-77410700D01*
X72879500Y-77288500D02*
X78670100Y-77288500D01*
X71230000Y-76637500D02*
X71230000Y-77023300D01*
X53803000Y-57285400D02*
X53979000Y-57461400D01*
X53979000Y-57461400D02*
X55238100Y-57461400D01*
X52404000Y-58103700D02*
X52404000Y-59062600D01*
X53803000Y-57285400D02*
X53222300Y-57285400D01*
X53803000Y-57285400D02*
X53803000Y-57020000D01*
X55238100Y-57461400D02*
X55238100Y-57526500D01*
X57313000Y-56740000D02*
X57603000Y-57030000D01*
X55238100Y-57461400D02*
X55497500Y-57461400D01*
X55497500Y-57461400D02*
X56218900Y-56740000D01*
X56658000Y-56740000D02*
X57313000Y-56740000D01*
X56658000Y-56740000D02*
X56218900Y-56740000D01*
X53222300Y-57285400D02*
X52404000Y-58103700D01*
X56628000Y-75408300D02*
X55648400Y-76387900D01*
X55648400Y-76964700D02*
X56303100Y-77619400D01*
X57160000Y-75390000D02*
X57575000Y-75390000D01*
X55648400Y-76387900D02*
X54644800Y-76387900D01*
X56890000Y-75120000D02*
X57160000Y-75390000D01*
X53765000Y-75508100D02*
X53765000Y-75390000D01*
X56759000Y-75120000D02*
X56890000Y-75120000D01*
X56628000Y-75120000D02*
X56628000Y-75408300D01*
X54644800Y-76387900D02*
X53765000Y-75508100D01*
X56628000Y-75120000D02*
X56759000Y-75120000D01*
X55648400Y-76387900D02*
X55648400Y-76964700D01*
X84719000Y-56750000D02*
X84880000Y-56750000D01*
X83247500Y-57316300D02*
X83137400Y-57426400D01*
X84263000Y-57353200D02*
X84226100Y-57316300D01*
X84226100Y-57316300D02*
X83247500Y-57316300D01*
X84880000Y-56750000D02*
X85150000Y-57020000D01*
X84719000Y-56750000D02*
X84263000Y-57206000D01*
X81884000Y-57426400D02*
X81695000Y-57237400D01*
X85150000Y-57020000D02*
X85505000Y-57020000D01*
X83137400Y-57426400D02*
X81884000Y-57426400D01*
X84263000Y-57206000D02*
X84263000Y-57353200D01*
X81166400Y-57237400D02*
X80960200Y-57443600D01*
X81695000Y-57237400D02*
X81166400Y-57237400D01*
X84558000Y-56750000D02*
X84719000Y-56750000D01*
X81695000Y-57237400D02*
X81695000Y-57010000D01*
X84870000Y-75120000D02*
X85160000Y-75410000D01*
X85160000Y-75410000D02*
X85505000Y-75410000D01*
X84560000Y-75120000D02*
X84870000Y-75120000D01*
X85160000Y-75410000D02*
X84234400Y-76335600D01*
X83192300Y-78180900D02*
X83291800Y-78280400D01*
X83192300Y-76335600D02*
X83192300Y-78180900D01*
X84234400Y-76335600D02*
X83192300Y-76335600D01*
X82527300Y-76335600D02*
X81700000Y-75508300D01*
X81700000Y-75508300D02*
X81700000Y-75390000D01*
X83192300Y-76335600D02*
X82527300Y-76335600D01*
X70828400Y-58688400D02*
X70740000Y-58600000D01*
X60952000Y-58970000D02*
X62247900Y-60265900D01*
X70828400Y-60420700D02*
X70828400Y-58688400D01*
X58235000Y-58970000D02*
X60952000Y-58970000D01*
X67610100Y-79254200D02*
X69252500Y-80896600D01*
X62170000Y-82617600D02*
X62170000Y-80490000D01*
X69252500Y-80896600D02*
X69252500Y-81512500D01*
X63405800Y-79254200D02*
X67610100Y-79254200D01*
X62170000Y-80490000D02*
X63405800Y-79254200D01*
X58865000Y-82589800D02*
X58865100Y-82589800D01*
X58213000Y-83840000D02*
X58865000Y-83188000D01*
X58865000Y-83188000D02*
X58865000Y-82589800D01*
X69240000Y-63490000D02*
X69240000Y-63148400D01*
X67809791Y-61748699D02*
X67751092Y-61690000D01*
X64731200Y-65188800D02*
X63743900Y-65188800D01*
X69240000Y-63148400D02*
X68325200Y-62233600D01*
X67260000Y-61690000D02*
X66650800Y-62299200D01*
X66650800Y-62299200D02*
X66650800Y-63269200D01*
X87917500Y-59898600D02*
X87328000Y-60488100D01*
X87154800Y-57878200D02*
X87598000Y-57878200D01*
X68325200Y-62233600D02*
X68291432Y-62233600D01*
X87917500Y-58197700D02*
X87917500Y-59898600D01*
X86125000Y-58980000D02*
X86125000Y-58908000D01*
X67809791Y-61751959D02*
X67809791Y-61748699D01*
X66650800Y-63269200D02*
X64731200Y-65188800D01*
X68291432Y-62233600D02*
X67809791Y-61751959D01*
X86125000Y-58908000D02*
X87154800Y-57878200D01*
X67751092Y-61690000D02*
X67260000Y-61690000D01*
X87598000Y-57878200D02*
X87917500Y-58197700D01*
X78074800Y-83616400D02*
X75817700Y-81359300D01*
X75817700Y-81359300D02*
X75057000Y-81359300D01*
X70730000Y-77032300D02*
X70730000Y-76637500D01*
X81489400Y-83616400D02*
X78074800Y-83616400D01*
X81713000Y-83840000D02*
X81489400Y-83616400D01*
X75057000Y-81359300D02*
X70730000Y-77032300D01*
X58235000Y-58156500D02*
X58235000Y-58200000D01*
X54415000Y-58220000D02*
X54680900Y-58220000D01*
X60058500Y-58124400D02*
X58310600Y-58124400D01*
X57174200Y-57747700D02*
X57826200Y-57747700D01*
X55370000Y-58470000D02*
X55809100Y-58470000D01*
X57040500Y-57881400D02*
X57174200Y-57747700D01*
X55370000Y-58470000D02*
X54930900Y-58470000D01*
X56397700Y-57881400D02*
X57040500Y-57881400D01*
X54680900Y-58220000D02*
X54930900Y-58470000D01*
X55809100Y-58470000D02*
X56397700Y-57881400D01*
X58310600Y-58124400D02*
X58235000Y-58200000D01*
X57826200Y-57747700D02*
X58235000Y-58156500D01*
X54550000Y-83060000D02*
X54830000Y-83340000D01*
X58218000Y-83008600D02*
X57863100Y-82653700D01*
X56411000Y-82720100D02*
X55791100Y-83340000D01*
X57863100Y-82653700D02*
X56477400Y-82653700D01*
X56128000Y-82437200D02*
X56411000Y-82720100D01*
X58218000Y-83070000D02*
X58218000Y-83008600D01*
X55352000Y-83340000D02*
X55791100Y-83340000D01*
X56477400Y-82653700D02*
X56411000Y-82720100D01*
X54830000Y-83340000D02*
X55352000Y-83340000D01*
X54408000Y-83060000D02*
X54550000Y-83060000D01*
X88216200Y-60400600D02*
X88216200Y-58107200D01*
X86731900Y-57603100D02*
X86125000Y-58210000D01*
X82510000Y-58210000D02*
X82780000Y-58480000D01*
X86125000Y-58155000D02*
X86125000Y-58210000D01*
X87628600Y-60988200D02*
X88216200Y-60400600D01*
X88216200Y-58107200D02*
X87712100Y-57603100D01*
X85187536Y-57853200D02*
X85230736Y-57810000D01*
X83264000Y-58480000D02*
X83653000Y-58480000D01*
X87712100Y-57603100D02*
X86731900Y-57603100D01*
X83653000Y-58480000D02*
X84279800Y-57853200D01*
X82315000Y-58210000D02*
X82510000Y-58210000D01*
X85463200Y-60988200D02*
X87628600Y-60988200D01*
X85780000Y-57810000D02*
X86125000Y-58155000D01*
X85230736Y-57810000D02*
X85780000Y-57810000D01*
X82824800Y-58480000D02*
X83264000Y-58480000D01*
X85437000Y-60962000D02*
X85463200Y-60988200D01*
X84279800Y-57853200D02*
X85187536Y-57853200D01*
X82780000Y-58480000D02*
X82824800Y-58480000D01*
X84723000Y-84340000D02*
X83494500Y-85568500D01*
X84723000Y-84340000D02*
X84576000Y-84340000D01*
X80324300Y-84610000D02*
X79850300Y-84136000D01*
X83494500Y-85568500D02*
X82858900Y-85568500D01*
X82155400Y-85136700D02*
X81708000Y-84689300D01*
X82427100Y-85136700D02*
X82155400Y-85136700D01*
X85130000Y-84600000D02*
X84870000Y-84340000D01*
X84870000Y-84340000D02*
X84723000Y-84340000D01*
X85523000Y-84600000D02*
X85130000Y-84600000D01*
X81708000Y-84610000D02*
X80324300Y-84610000D01*
X81708000Y-84689300D02*
X81708000Y-84610000D01*
X82858900Y-85568500D02*
X82427100Y-85136700D01*
X70242900Y-58602900D02*
X70242900Y-59872200D01*
X53780000Y-59070000D02*
X53780000Y-58980000D01*
X70240000Y-58600000D02*
X70242900Y-58602900D01*
X52700000Y-60150000D02*
X53780000Y-59070000D01*
X52350000Y-60150000D02*
X52700000Y-60150000D01*
X69593700Y-80338800D02*
X69752500Y-80497600D01*
X54960000Y-81829502D02*
X53619398Y-81829502D01*
X53619398Y-81829502D02*
X52574700Y-82874200D01*
X52574700Y-82874200D02*
X52574700Y-83269500D01*
X69752500Y-80497600D02*
X69752500Y-81512500D01*
X52574700Y-83269500D02*
X53135200Y-83830000D01*
X53135200Y-83830000D02*
X53773000Y-83830000D01*
X81220800Y-58980000D02*
X80485200Y-59715600D01*
X69740000Y-63490000D02*
X69657800Y-63407800D01*
X69657800Y-63407800D02*
X69657800Y-62615200D01*
X81675000Y-58980000D02*
X81220800Y-58980000D01*
X86163000Y-83830000D02*
X86588600Y-83404400D01*
X86588600Y-82808300D02*
X85814000Y-82033700D01*
X70230000Y-77350000D02*
X70230000Y-76637500D01*
X83803200Y-82033700D02*
X83435400Y-82401500D01*
X70700000Y-77820000D02*
X70230000Y-77350000D01*
X85814000Y-82033700D02*
X83803200Y-82033700D01*
X86588600Y-83404400D02*
X86588600Y-82808300D01*
X57325000Y-59470000D02*
X57595000Y-59740000D01*
X54501100Y-60600200D02*
X53790000Y-59889100D01*
X56074400Y-61056200D02*
X56074400Y-62990300D01*
X56206900Y-60011700D02*
X55618400Y-60600200D01*
X56206900Y-59470000D02*
X56206900Y-60011700D01*
X56646000Y-59470000D02*
X56206900Y-59470000D01*
X53790000Y-59889100D02*
X53790000Y-59750000D01*
X56074400Y-62990300D02*
X55772900Y-63291800D01*
X55618400Y-60600200D02*
X54501100Y-60600200D01*
X55618400Y-60600200D02*
X56074400Y-61056200D01*
X56646000Y-59470000D02*
X57325000Y-59470000D01*
X54843400Y-85533400D02*
X54350400Y-85040400D01*
X53768000Y-84610000D02*
X53185400Y-84610000D01*
X56628000Y-84340000D02*
X56980000Y-84340000D01*
X54350400Y-85040400D02*
X54090700Y-85040400D01*
X55578700Y-85533400D02*
X54843400Y-85533400D01*
X57250000Y-84610000D02*
X57568000Y-84610000D01*
X53768000Y-84717700D02*
X53768000Y-84610000D01*
X56188900Y-84340000D02*
X56188900Y-84923200D01*
X54090700Y-85040400D02*
X53768000Y-84717700D01*
X56980000Y-84340000D02*
X57250000Y-84610000D01*
X56628000Y-84340000D02*
X56188900Y-84340000D01*
X56188900Y-84923200D02*
X55578700Y-85533400D01*
X53185400Y-84610000D02*
X52860000Y-84935400D01*
X84695000Y-59480000D02*
X83502400Y-60672600D01*
X82783500Y-60672600D02*
X82660600Y-60549700D01*
X84540000Y-59480000D02*
X84695000Y-59480000D01*
X81685000Y-59845700D02*
X81685000Y-59750000D01*
X83090400Y-63028800D02*
X82716700Y-63402500D01*
X82660600Y-60549700D02*
X82389000Y-60549700D01*
X83090400Y-60672600D02*
X83090400Y-63028800D01*
X84695000Y-59480000D02*
X84850000Y-59480000D01*
X83502400Y-60672600D02*
X83090400Y-60672600D01*
X82389000Y-60549700D02*
X81685000Y-59845700D01*
X85130000Y-59760000D02*
X85485000Y-59760000D01*
X84850000Y-59480000D02*
X85130000Y-59760000D01*
X83090400Y-60672600D02*
X82783500Y-60672600D01*
X85791300Y-82609400D02*
X84488100Y-82609400D01*
X81884200Y-82374200D02*
X78599400Y-82374200D01*
X82590000Y-83080000D02*
X81884200Y-82374200D01*
X84488100Y-82609400D02*
X84488100Y-82555200D01*
X84488100Y-82609400D02*
X84469700Y-82609400D01*
X78599400Y-82374200D02*
X78069700Y-82903900D01*
X82590000Y-83080000D02*
X82850000Y-83340000D01*
X86158000Y-83060000D02*
X86158000Y-82976100D01*
X82850000Y-83340000D02*
X83300000Y-83340000D01*
X86158000Y-82976100D02*
X85791300Y-82609400D01*
X84469700Y-82609400D02*
X83739100Y-83340000D01*
X83300000Y-83340000D02*
X83739100Y-83340000D01*
X82353000Y-83080000D02*
X82590000Y-83080000D01*
X58589700Y-67580300D02*
X58842800Y-67580300D01*
X58220000Y-67950000D02*
X58589700Y-67580300D01*
X69740000Y-52909000D02*
X69688000Y-52857000D01*
X69740000Y-53725000D02*
X69740000Y-52909000D01*
X60016300Y-84554600D02*
X60016300Y-84708700D01*
X65689600Y-86684200D02*
X63980000Y-86684200D01*
X61527600Y-84231800D02*
X60339100Y-84231800D01*
X60016300Y-84708700D02*
X58215000Y-86510000D01*
X63980000Y-86684200D02*
X61527600Y-84231800D01*
X70422500Y-87307500D02*
X70422500Y-87852192D01*
X70250000Y-86390000D02*
X70250000Y-87135000D01*
X70252500Y-86387500D02*
X70250000Y-86390000D01*
X70250000Y-87135000D02*
X70422500Y-87307500D01*
X67344361Y-88197987D02*
X67203387Y-88197987D01*
X60339100Y-84231800D02*
X60016300Y-84554600D01*
X67203387Y-88197987D02*
X65689600Y-86684200D01*
X73503500Y-69823800D02*
X73279000Y-69599300D01*
X75163200Y-69625800D02*
X74965200Y-69823800D01*
X70240000Y-68754600D02*
X70240000Y-68365000D01*
X74965200Y-69823800D02*
X73503500Y-69823800D01*
X86145000Y-67846200D02*
X86145000Y-67950000D01*
X71084700Y-69599300D02*
X70240000Y-68754600D01*
X76297700Y-69760500D02*
X76163000Y-69625800D01*
X76163000Y-69625800D02*
X75163200Y-69625800D01*
X73279000Y-69599300D02*
X71084700Y-69599300D01*
X86898800Y-67092400D02*
X86145000Y-67846200D01*
X69730000Y-70371500D02*
X69719600Y-70361100D01*
X69730000Y-71762500D02*
X69730000Y-70371500D01*
X87610000Y-84970000D02*
X86153000Y-86427000D01*
X86153000Y-86427000D02*
X86153000Y-86490000D01*
X88080500Y-84970000D02*
X87610000Y-84970000D01*
X58215000Y-67088700D02*
X58215000Y-67180000D01*
X55164500Y-67450000D02*
X56269800Y-66344700D01*
X54420000Y-67180000D02*
X54700000Y-67180000D01*
X57510400Y-66384000D02*
X58215000Y-67088700D01*
X57471000Y-66344700D02*
X57510400Y-66384000D01*
X54970000Y-67450000D02*
X55164500Y-67450000D01*
X54700000Y-67180000D02*
X54970000Y-67450000D01*
X57510400Y-66384000D02*
X57710300Y-66184100D01*
X55164500Y-67450000D02*
X55359000Y-67450000D01*
X56269800Y-66344700D02*
X57471000Y-66344700D01*
X55350000Y-86020000D02*
X55789100Y-86020000D01*
X54890000Y-86020000D02*
X55350000Y-86020000D01*
X56489500Y-85319600D02*
X56706400Y-85319600D01*
X54405000Y-85750000D02*
X54620000Y-85750000D01*
X58210000Y-85616600D02*
X58210000Y-85740000D01*
X55789100Y-86020000D02*
X56489500Y-85319600D01*
X57913000Y-85319600D02*
X58210000Y-85616600D01*
X54620000Y-85750000D02*
X54890000Y-86020000D01*
X56706400Y-85319600D02*
X57913000Y-85319600D01*
X56706400Y-85319600D02*
X56706400Y-85003800D01*
X83036000Y-67450000D02*
X84193700Y-66292300D01*
X82520000Y-67180000D02*
X82790000Y-67450000D01*
X85348600Y-66292300D02*
X86145000Y-67088700D01*
X82790000Y-67450000D02*
X83036000Y-67450000D01*
X85348600Y-66050600D02*
X85364200Y-66035000D01*
X85348600Y-66292300D02*
X85348600Y-66050600D01*
X86145000Y-67088700D02*
X86145000Y-67180000D01*
X84193700Y-66292300D02*
X85348600Y-66292300D01*
X82325000Y-67180000D02*
X82520000Y-67180000D01*
X83036000Y-67450000D02*
X83282000Y-67450000D01*
X84968100Y-85309600D02*
X85845300Y-85309600D01*
X83292000Y-85990000D02*
X83731100Y-85990000D01*
X82343000Y-85720000D02*
X82450000Y-85720000D01*
X82720000Y-85990000D02*
X83292000Y-85990000D01*
X83731100Y-85990000D02*
X84411500Y-85309600D01*
X84411500Y-85309600D02*
X84968100Y-85309600D01*
X85845300Y-85309600D02*
X86153000Y-85617300D01*
X84968100Y-85309600D02*
X84968100Y-85212500D01*
X86153000Y-85617300D02*
X86153000Y-85720000D01*
X82450000Y-85720000D02*
X82720000Y-85990000D01*
X52915100Y-67940000D02*
X52476000Y-67500900D01*
X69770900Y-51896400D02*
X70240000Y-52365500D01*
X52476000Y-67500900D02*
X52476000Y-67084900D01*
X70240000Y-52365500D02*
X70240000Y-53725000D01*
X53133600Y-66427300D02*
X54649600Y-66427300D01*
X53780000Y-67940000D02*
X52915100Y-67940000D01*
X52476000Y-67084900D02*
X53133600Y-66427300D01*
X52890000Y-86520000D02*
X53770000Y-86520000D01*
X69707346Y-87285154D02*
X69752500Y-87240000D01*
X52335901Y-87074099D02*
X52890000Y-86520000D01*
X69752500Y-87240000D02*
X69752500Y-86387500D01*
X69740000Y-69216700D02*
X70080000Y-69556700D01*
X80173400Y-69471600D02*
X81695000Y-67950000D01*
X69740000Y-68365000D02*
X69740000Y-69216700D01*
X78960400Y-87101000D02*
X79700800Y-86360600D01*
X70219700Y-70416400D02*
X70536700Y-70099400D01*
X70219700Y-71752200D02*
X70219700Y-70416400D01*
X78211400Y-87923000D02*
X78960400Y-87174000D01*
X76295400Y-87647900D02*
X76570500Y-87923000D01*
X81583600Y-86360600D02*
X81713000Y-86490000D01*
X79700800Y-86360600D02*
X81583600Y-86360600D01*
X76570500Y-87923000D02*
X78211400Y-87923000D01*
X70230000Y-71762500D02*
X70219700Y-71752200D01*
X70536700Y-70099400D02*
X73071800Y-70099400D01*
X78960400Y-87174000D02*
X78960400Y-87101000D01*
X56635000Y-68450000D02*
X56195900Y-68450000D01*
X54096600Y-69150100D02*
X53770000Y-68823500D01*
X56635000Y-68450000D02*
X56900000Y-68450000D01*
X54828400Y-69150100D02*
X54828400Y-69318400D01*
X56195900Y-68450000D02*
X55495800Y-69150100D01*
X57170000Y-68720000D02*
X57580000Y-68720000D01*
X53770000Y-68823500D02*
X53770000Y-68730000D01*
X54828400Y-69150100D02*
X54096600Y-69150100D01*
X55495800Y-69150100D02*
X54828400Y-69150100D01*
X56900000Y-68450000D02*
X57170000Y-68720000D01*
X54792200Y-88850000D02*
X55357600Y-88284600D01*
X53765000Y-87605000D02*
X53765000Y-87290000D01*
X55357600Y-88256000D02*
X54416000Y-88256000D01*
X56626000Y-87020000D02*
X56768000Y-87020000D01*
X56768000Y-87020000D02*
X56768000Y-87113600D01*
X54416000Y-88256000D02*
X53765000Y-87605000D01*
X55625600Y-88256000D02*
X55357600Y-88256000D01*
X56768000Y-87113600D02*
X55625600Y-88256000D01*
X56768000Y-87020000D02*
X56910000Y-87020000D01*
X56910000Y-87020000D02*
X57170000Y-87280000D01*
X55357600Y-88284600D02*
X55357600Y-88256000D01*
X57170000Y-87280000D02*
X57575000Y-87280000D01*
X84042400Y-69121600D02*
X81970500Y-69121600D01*
X84558000Y-68450000D02*
X84714000Y-68450000D01*
X85150000Y-68730000D02*
X85327500Y-68730000D01*
X85327500Y-69379900D02*
X85249400Y-69458000D01*
X85327500Y-68730000D02*
X85505000Y-68730000D01*
X81695000Y-68846100D02*
X81695000Y-68720000D01*
X81970500Y-69121600D02*
X81695000Y-68846100D01*
X85327500Y-68730000D02*
X85327500Y-69379900D01*
X84714000Y-68450000D02*
X84042400Y-69121600D01*
X84714000Y-68450000D02*
X84870000Y-68450000D01*
X84870000Y-68450000D02*
X85150000Y-68730000D01*
X82546100Y-88186500D02*
X81703000Y-87343400D01*
X84568000Y-86990000D02*
X84128900Y-86990000D01*
X81703000Y-87343400D02*
X81703000Y-87270000D01*
X83898900Y-87220000D02*
X83898900Y-87619000D01*
X83898900Y-87619000D02*
X83331400Y-88186500D01*
X84950000Y-86990000D02*
X85191300Y-87231300D01*
X85191300Y-88161200D02*
X85090800Y-88261700D01*
X83331400Y-88186500D02*
X82546100Y-88186500D01*
X84128900Y-86990000D02*
X83898900Y-87220000D01*
X84568000Y-86990000D02*
X84950000Y-86990000D01*
X85220000Y-87260000D02*
X85513000Y-87260000D01*
X85191300Y-87231300D02*
X85220000Y-87260000D01*
X85191300Y-87231300D02*
X85191300Y-88161200D01*
X67026200Y-67959200D02*
X62610700Y-67959200D01*
X72417500Y-72450000D02*
X72417500Y-71876400D01*
X60256600Y-65605100D02*
X62610700Y-67959200D01*
X74785400Y-55327200D02*
X73870700Y-54412500D01*
X56065100Y-64770000D02*
X56900200Y-65605100D01*
X75065000Y-57003100D02*
X75065000Y-55812000D01*
X65259800Y-83189800D02*
X65259800Y-84659300D01*
X67307900Y-67677500D02*
X67026200Y-67959200D01*
X64910000Y-82504000D02*
X64910000Y-82840000D01*
X54025000Y-64770000D02*
X56065100Y-64770000D01*
X74785400Y-55532400D02*
X74785400Y-55327200D01*
X73489900Y-58578200D02*
X75065000Y-57003100D01*
X65259800Y-84659300D02*
X66300500Y-85700000D01*
X67552500Y-67677500D02*
X67307900Y-67677500D01*
X66300500Y-85700000D02*
X67565000Y-85700000D01*
X70793100Y-62415900D02*
X73489900Y-59719100D01*
X73870700Y-54412500D02*
X72427500Y-54412500D01*
X64910000Y-82840000D02*
X65259800Y-83189800D01*
X75065000Y-55812000D02*
X74785400Y-55532400D01*
X73489900Y-59719100D02*
X73489900Y-58578200D01*
X56900200Y-65605100D02*
X60256600Y-65605100D01*
X63575000Y-55875000D02*
X63935000Y-55875000D01*
X63935000Y-55875000D02*
X64897500Y-54912500D01*
X64897500Y-54912500D02*
X67552500Y-54912500D01*
X76015000Y-84275000D02*
X76400000Y-84275000D01*
X72440000Y-85200000D02*
X75090000Y-85200000D01*
X75090000Y-85200000D02*
X76015000Y-84275000D01*
X75182500Y-67177500D02*
X76110000Y-66250000D01*
X72427500Y-67177500D02*
X75182500Y-67177500D01*
X76110000Y-66250000D02*
X76375000Y-66250000D01*
X63890000Y-73900000D02*
X64850000Y-72940000D01*
X63575000Y-73900000D02*
X63890000Y-73900000D01*
X67532500Y-72940000D02*
X67542500Y-72950000D01*
X64850000Y-72940000D02*
X67532500Y-72940000D01*
X67552500Y-54412500D02*
X64912500Y-54412500D01*
X63975000Y-53475000D02*
X63575000Y-53475000D01*
X64912500Y-54412500D02*
X63975000Y-53475000D01*
X72440000Y-85700000D02*
X75120000Y-85700000D01*
X75120000Y-85700000D02*
X76095000Y-86675000D01*
X76095000Y-86675000D02*
X76400000Y-86675000D01*
X72427500Y-67677500D02*
X75157500Y-67677500D01*
X76130000Y-68650000D02*
X76375000Y-68650000D01*
X75157500Y-67677500D02*
X76130000Y-68650000D01*
X64820000Y-72450000D02*
X67542500Y-72450000D01*
X63575000Y-71500000D02*
X63870000Y-71500000D01*
X63870000Y-71500000D02*
X64820000Y-72450000D01*
X73520000Y-74535000D02*
X74365000Y-74535000D01*
X55758000Y-54070000D02*
X56010000Y-53818000D01*
X72427500Y-66177500D02*
X70776400Y-66177500D01*
X83550000Y-68450000D02*
X83910000Y-68090000D01*
X84556000Y-52699600D02*
X84556000Y-52464000D01*
X70240000Y-66177500D02*
X69990000Y-65927500D01*
X56269000Y-55740000D02*
X56410000Y-55740000D01*
X56060000Y-55949000D02*
X56269000Y-55740000D01*
X72440000Y-84200000D02*
X70252500Y-84200000D01*
X55369000Y-54070000D02*
X55758000Y-54070000D01*
X84556000Y-53050000D02*
X84556000Y-52699600D01*
X56241000Y-71070000D02*
X56630000Y-71070000D01*
X55620000Y-72070000D02*
X56060000Y-71630000D01*
X54670000Y-68730000D02*
X54950000Y-68450000D01*
X54650000Y-87290000D02*
X54920000Y-87020000D01*
X82570000Y-68720000D02*
X82840000Y-68450000D01*
X66805000Y-73895000D02*
X66860000Y-73950000D01*
X84568000Y-85990000D02*
X84780000Y-85990000D01*
X56020000Y-59209000D02*
X56020000Y-58710000D01*
X56060000Y-68100000D02*
X55710000Y-68450000D01*
X72930000Y-74450000D02*
X73020000Y-74540000D01*
X56628000Y-74120000D02*
X56930000Y-74120000D01*
X56014800Y-52798600D02*
X56286200Y-53070000D01*
X56080000Y-86177000D02*
X56237000Y-86020000D01*
X84570000Y-71040000D02*
X84970000Y-71040000D01*
X73060000Y-84200000D02*
X73131000Y-84271000D01*
X57230000Y-67180000D02*
X57575000Y-67180000D01*
X83830000Y-56410000D02*
X83830000Y-56089000D01*
X84840000Y-55750000D02*
X85110000Y-55480000D01*
X82880000Y-75120000D02*
X83284000Y-75120000D01*
X84558000Y-55750000D02*
X84558000Y-55082000D01*
X82343000Y-87270000D02*
X82550000Y-87270000D01*
X82345000Y-72310000D02*
X82650000Y-72310000D01*
X83719100Y-53536500D02*
X83719100Y-54050000D01*
X55710000Y-68450000D02*
X55359000Y-68450000D01*
X54410000Y-68730000D02*
X54670000Y-68730000D01*
X56060000Y-71251000D02*
X56241000Y-71070000D01*
X54660000Y-75390000D02*
X54930000Y-75120000D01*
X82620000Y-59750000D02*
X82890000Y-59480000D01*
X54930000Y-75120000D02*
X55352000Y-75120000D01*
X84181000Y-71040000D02*
X84570000Y-71040000D01*
X56635000Y-67450000D02*
X56960000Y-67450000D01*
X82340000Y-75390000D02*
X82610000Y-75390000D01*
X56645000Y-53070000D02*
X57320000Y-53070000D01*
X66320000Y-83630000D02*
X65760000Y-83070000D01*
X83830000Y-56089000D02*
X84169000Y-55750000D01*
X54920000Y-87020000D02*
X55350000Y-87020000D01*
X83733000Y-71488000D02*
X84181000Y-71040000D01*
X84860000Y-67450000D02*
X85130000Y-67180000D01*
X69740000Y-65677500D02*
X69990000Y-65927500D01*
X56658000Y-55740000D02*
X57343000Y-55740000D01*
X56537500Y-53070000D02*
X56645000Y-53070000D01*
X76405000Y-85470000D02*
X76400000Y-85475000D01*
X55354000Y-72754000D02*
X55360000Y-72760000D01*
X66450000Y-65635000D02*
X66815000Y-65635000D01*
X55350000Y-87740000D02*
X55360000Y-87750000D01*
X55352000Y-75848000D02*
X55340000Y-75860000D01*
X55370000Y-59785000D02*
X54465000Y-59785000D01*
X83733000Y-71990000D02*
X83733000Y-71488000D01*
X56970000Y-71070000D02*
X57240000Y-70800000D01*
X84171000Y-74120000D02*
X84560000Y-74120000D01*
X82830000Y-86990000D02*
X83292000Y-86990000D01*
X83264000Y-59480000D02*
X83480000Y-59480000D01*
X83264000Y-60026000D02*
X83130000Y-60160000D01*
X85050000Y-85720000D02*
X85513000Y-85720000D01*
D26*
X81130000Y-80770000D02*
X82200000Y-81840000D01*
D25*
X56237000Y-86020000D02*
X56626000Y-86020000D01*
X55930000Y-83649000D02*
X56239000Y-83340000D01*
X72440000Y-83200000D02*
X70752500Y-83200000D01*
X55382000Y-56740000D02*
X55590000Y-56740000D01*
X84780000Y-85990000D02*
X85050000Y-85720000D01*
X83300000Y-84340000D02*
X83300000Y-84830000D01*
X84151000Y-58480000D02*
X84540000Y-58480000D01*
X55930000Y-84070000D02*
X55930000Y-83649000D01*
X83681000Y-86990000D02*
X83830000Y-86841000D01*
X57325000Y-58470000D02*
X57595000Y-58200000D01*
X66460000Y-83630000D02*
X66880000Y-83630000D01*
X83284000Y-75506000D02*
X83284000Y-75120000D01*
X70776400Y-66177500D02*
X71776400Y-65177500D01*
X85120000Y-73870000D02*
X85505000Y-73870000D01*
X84540000Y-58480000D02*
X84870000Y-58480000D01*
X57170000Y-85740000D02*
X57570000Y-85740000D01*
X56635000Y-67450000D02*
X56246000Y-67450000D01*
X83880000Y-74411000D02*
X84171000Y-74120000D01*
X55370000Y-60100000D02*
X55370000Y-59785000D01*
X55350000Y-87020000D02*
X55350000Y-87740000D01*
X54640000Y-84610000D02*
X54910000Y-84340000D01*
X82343000Y-54320000D02*
X82660000Y-54320000D01*
X56930000Y-83340000D02*
X57200000Y-83070000D01*
X56635000Y-67035000D02*
X56820000Y-66850000D01*
X83284000Y-75120000D02*
X83530000Y-75120000D01*
X66450000Y-55845000D02*
X66855000Y-55845000D01*
X83300000Y-84830000D02*
X83070000Y-85060000D01*
X54415000Y-72340000D02*
X54720000Y-72340000D01*
X69740000Y-55912500D02*
X69990000Y-56162500D01*
X66020000Y-55415000D02*
X66450000Y-55845000D01*
X83294000Y-72040000D02*
X83683000Y-72040000D01*
X74176100Y-56495000D02*
X73530000Y-56495000D01*
X74441100Y-56760000D02*
X74176100Y-56495000D01*
X66950000Y-83700000D02*
X67565000Y-83700000D01*
X78046800Y-85203200D02*
X77780000Y-85470000D01*
X55590000Y-56740000D02*
X56060000Y-56270000D01*
X83490000Y-56750000D02*
X83830000Y-56410000D01*
X85240000Y-70770000D02*
X85515000Y-70770000D01*
X56635000Y-67450000D02*
X56635000Y-67035000D01*
X65757803Y-65257505D02*
X66135298Y-65635000D01*
X83292000Y-86990000D02*
X83681000Y-86990000D01*
X56020000Y-74740000D02*
X56020000Y-74339000D01*
X66860000Y-73950000D02*
X67542500Y-73950000D01*
X84970000Y-71040000D02*
X85240000Y-70770000D01*
X84558000Y-67450000D02*
X84860000Y-67450000D01*
X83280000Y-54050000D02*
X83719100Y-54050000D01*
X82920000Y-72040000D02*
X83294000Y-72040000D01*
X55369000Y-54070000D02*
X54710000Y-54070000D01*
X73790500Y-84271000D02*
X73552500Y-84271000D01*
X67565000Y-83700000D02*
X69752500Y-83700000D01*
X84870000Y-58480000D02*
X85140000Y-58210000D01*
X69240000Y-56912500D02*
X69990000Y-56162500D01*
X56537500Y-53070000D02*
X56645000Y-53070000D01*
X56020000Y-58710000D02*
X56260000Y-58470000D01*
X66430000Y-73895000D02*
X65815500Y-73895000D01*
X73186500Y-66236500D02*
X73127500Y-66177500D01*
X56286200Y-53070000D02*
X56430000Y-53070000D01*
X85090000Y-52790000D02*
X85503000Y-52790000D01*
X54720000Y-72340000D02*
X54990000Y-72070000D01*
X85110000Y-55480000D02*
X85505000Y-55480000D01*
X83282000Y-56750000D02*
X83490000Y-56750000D01*
X56060000Y-56270000D02*
X56060000Y-55949000D01*
X54723000Y-56740000D02*
X54443000Y-57020000D01*
X84558000Y-67450000D02*
X84558000Y-66822000D01*
X66857500Y-65677500D02*
X67552500Y-65677500D01*
X84556000Y-53050000D02*
X84830000Y-53050000D01*
X84870000Y-74120000D02*
X85120000Y-73870000D01*
X77582411Y-67450000D02*
X76375000Y-67450000D01*
X84558000Y-55082000D02*
X84560000Y-55080000D01*
X62160000Y-72700000D02*
X63575000Y-72700000D01*
X56930000Y-74120000D02*
X57190000Y-73860000D01*
X83264000Y-59480000D02*
X83264000Y-60026000D01*
X77830700Y-67201711D02*
X77582411Y-67450000D01*
X84556000Y-52464000D02*
X84560000Y-52460000D01*
X56246000Y-67450000D02*
X56060000Y-67636000D01*
X83910000Y-67709000D02*
X84169000Y-67450000D01*
X83710000Y-72600000D02*
X83294000Y-72184000D01*
X74220000Y-84700500D02*
X73790500Y-84271000D01*
X66880000Y-83630000D02*
X66950000Y-83700000D01*
X84560000Y-74120000D02*
X84870000Y-74120000D01*
X55759000Y-59470000D02*
X56020000Y-59209000D01*
X55370000Y-59785000D02*
X55370000Y-59470000D01*
X84558000Y-66822000D02*
X84560000Y-66820000D01*
X55352000Y-84990000D02*
X55352000Y-84340000D01*
X54910000Y-84340000D02*
X55352000Y-84340000D01*
X70776400Y-66177500D02*
X70240000Y-66177500D01*
X82335000Y-57010000D02*
X82600000Y-57010000D01*
X55350000Y-87020000D02*
X55570000Y-87020000D01*
X70752500Y-83200000D02*
X70002500Y-83950000D01*
X84830000Y-53050000D02*
X85090000Y-52790000D01*
X55370000Y-59470000D02*
X55759000Y-59470000D01*
X83292000Y-87518000D02*
X83130000Y-87680000D01*
X83600000Y-84340000D02*
X83930000Y-84010000D01*
X83683000Y-72040000D02*
X83733000Y-71990000D01*
X83950000Y-58681000D02*
X84151000Y-58480000D01*
X83719100Y-53536500D02*
X84205600Y-53050000D01*
X57190000Y-73860000D02*
X57570000Y-73860000D01*
X83830000Y-86339000D02*
X84179000Y-85990000D01*
X83910000Y-68090000D02*
X83910000Y-67709000D01*
X55660000Y-84340000D02*
X55930000Y-84070000D01*
X82335000Y-68720000D02*
X82570000Y-68720000D01*
X56960000Y-67450000D02*
X57230000Y-67180000D01*
X56060000Y-71630000D02*
X56060000Y-71251000D01*
X83950000Y-59010000D02*
X83950000Y-58681000D01*
X56630000Y-71070000D02*
X56970000Y-71070000D01*
X73131000Y-84271000D02*
X73552500Y-84271000D01*
X83300000Y-84340000D02*
X82930000Y-84340000D01*
X56080000Y-86510000D02*
X56080000Y-86177000D01*
X57320000Y-53070000D02*
X57600000Y-52790000D01*
X82550000Y-87270000D02*
X82830000Y-86990000D01*
X83930000Y-83597000D02*
X84187000Y-83340000D01*
X83480000Y-59480000D02*
X83950000Y-59010000D01*
X66135298Y-65635000D02*
X66450000Y-65635000D01*
X56534000Y-55740000D02*
X56410000Y-55740000D01*
X83000000Y-75790000D02*
X83284000Y-75506000D01*
X56646000Y-58470000D02*
X57325000Y-58470000D01*
X83830000Y-86841000D02*
X83830000Y-86339000D01*
X56430000Y-53070000D02*
X56537500Y-53070000D01*
X56410000Y-55740000D02*
X56030000Y-55360000D01*
X85100000Y-83060000D02*
X85518000Y-83060000D01*
X56890000Y-86020000D02*
X57170000Y-85740000D01*
X54950000Y-68450000D02*
X55359000Y-68450000D01*
X82930000Y-84340000D02*
X82660000Y-84610000D01*
X69752500Y-83700000D02*
X70002500Y-83950000D01*
X73022500Y-56412500D02*
X73105000Y-56495000D01*
X54990000Y-72070000D02*
X55354000Y-72070000D01*
X73540000Y-66236500D02*
X73186500Y-66236500D01*
X56020000Y-74339000D02*
X56239000Y-74120000D01*
X56010000Y-53818000D02*
X56010000Y-53490000D01*
X84558000Y-55750000D02*
X84840000Y-55750000D01*
X55640000Y-75120000D02*
X56020000Y-74740000D01*
X54405000Y-75390000D02*
X54660000Y-75390000D01*
X84576000Y-83340000D02*
X84820000Y-83340000D01*
D26*
X81025000Y-80770000D02*
X81130000Y-80770000D01*
D25*
X67552500Y-55912500D02*
X69740000Y-55912500D01*
X82860000Y-56750000D02*
X83282000Y-56750000D01*
X83282000Y-68450000D02*
X83550000Y-68450000D01*
X82600000Y-57010000D02*
X82860000Y-56750000D01*
X56239000Y-83340000D02*
X56628000Y-83340000D01*
X66460000Y-83630000D02*
X66320000Y-83630000D01*
X56534000Y-55740000D02*
X56658000Y-55740000D01*
X66855000Y-55845000D02*
X66922500Y-55912500D01*
X83530000Y-75120000D02*
X83880000Y-74770000D01*
X72440000Y-84200000D02*
X73060000Y-84200000D01*
X55570000Y-87020000D02*
X56080000Y-86510000D01*
X83880000Y-74770000D02*
X83880000Y-74411000D01*
X82660000Y-54320000D02*
X82930000Y-54050000D01*
X73540000Y-66236500D02*
X74236500Y-66236500D01*
X62065000Y-54675000D02*
X62060000Y-54680000D01*
X57200000Y-83070000D02*
X57578000Y-83070000D01*
X56658000Y-55740000D02*
X56534000Y-55740000D01*
X67552500Y-56912500D02*
X69240000Y-56912500D01*
X66815000Y-65635000D02*
X66857500Y-65677500D01*
X54710000Y-54070000D02*
X54430000Y-54350000D01*
X69230000Y-74950000D02*
X69980000Y-74200000D01*
X85140000Y-58210000D02*
X85485000Y-58210000D01*
X82610000Y-75390000D02*
X82880000Y-75120000D01*
X54405000Y-87290000D02*
X54650000Y-87290000D01*
X57240000Y-70800000D02*
X57575000Y-70800000D01*
X77780000Y-85470000D02*
X76405000Y-85470000D01*
X84169000Y-67450000D02*
X84558000Y-67450000D01*
X82660000Y-84610000D02*
X82348000Y-84610000D01*
X84820000Y-83340000D02*
X85100000Y-83060000D01*
X67552500Y-65677500D02*
X69740000Y-65677500D01*
X56260000Y-58470000D02*
X56646000Y-58470000D01*
X82840000Y-68450000D02*
X83282000Y-68450000D01*
X82890000Y-59480000D02*
X83264000Y-59480000D01*
X56010000Y-53490000D02*
X56430000Y-53070000D01*
X73025000Y-74535000D02*
X73520000Y-74535000D01*
X72417500Y-74450000D02*
X70230000Y-74450000D01*
X55382000Y-56740000D02*
X54723000Y-56740000D01*
X70230000Y-74450000D02*
X69980000Y-74200000D01*
X73020000Y-74540000D02*
X73025000Y-74535000D01*
X55354000Y-72070000D02*
X55620000Y-72070000D01*
X66020000Y-55412000D02*
X66020000Y-55415000D01*
X57343000Y-55740000D02*
X57603000Y-55480000D01*
X84179000Y-85990000D02*
X84568000Y-85990000D01*
X55354000Y-72070000D02*
X55354000Y-72754000D01*
X54465000Y-59785000D02*
X54430000Y-59750000D01*
X72417500Y-74450000D02*
X72930000Y-74450000D01*
X83300000Y-84340000D02*
X83600000Y-84340000D01*
X70252500Y-84200000D02*
X70002500Y-83950000D01*
X83930000Y-84010000D02*
X83930000Y-83597000D01*
X56628000Y-83340000D02*
X56930000Y-83340000D01*
X82650000Y-72310000D02*
X82920000Y-72040000D01*
X55352000Y-84340000D02*
X55660000Y-84340000D01*
X84169000Y-55750000D02*
X84558000Y-55750000D01*
X73105000Y-56495000D02*
X73530000Y-56495000D01*
X55352000Y-75120000D02*
X55640000Y-75120000D01*
X66430000Y-73895000D02*
X66805000Y-73895000D01*
X72427500Y-56412500D02*
X73022500Y-56412500D01*
X73127500Y-66177500D02*
X72427500Y-66177500D01*
X55352000Y-75120000D02*
X55352000Y-75848000D01*
X66922500Y-55912500D02*
X67552500Y-55912500D01*
X83294000Y-72184000D02*
X83294000Y-72040000D01*
X74236500Y-66236500D02*
X74620000Y-66620000D01*
X63575000Y-54675000D02*
X62065000Y-54675000D01*
X56626000Y-86020000D02*
X56890000Y-86020000D01*
X74365000Y-74535000D02*
X74370000Y-74530000D01*
X65815500Y-73895000D02*
X65360000Y-73439500D01*
X56060000Y-67636000D02*
X56060000Y-68100000D01*
X84187000Y-83340000D02*
X84576000Y-83340000D01*
X67542500Y-74950000D02*
X69230000Y-74950000D01*
X82930000Y-54050000D02*
X83280000Y-54050000D01*
X54408000Y-84610000D02*
X54640000Y-84610000D01*
X56410000Y-55740000D02*
X56534000Y-55740000D01*
X82325000Y-59750000D02*
X82620000Y-59750000D01*
X85130000Y-67180000D02*
X85505000Y-67180000D01*
X83292000Y-86990000D02*
X83292000Y-87518000D01*
X56430000Y-53070000D02*
X56537500Y-53070000D01*
X84205600Y-53050000D02*
X84556000Y-53050000D01*
X56239000Y-74120000D02*
X56628000Y-74120000D01*
X71776400Y-65177500D02*
X72427500Y-65177500D01*
X51151550Y-50710950D02*
X51490300Y-51049700D01*
X50730950Y-50710950D02*
X51151550Y-50710950D01*
X53020000Y-50710000D02*
X53660600Y-50710000D01*
X53660600Y-50710000D02*
X53980300Y-51029700D01*
X56466300Y-51023700D02*
X56913100Y-51470500D01*
X56913100Y-51470500D02*
X57095500Y-51470500D01*
X58970300Y-51048300D02*
X58970300Y-51029700D01*
X59496600Y-51574600D02*
X58970300Y-51048300D01*
X62378549Y-51029700D02*
X61470300Y-51029700D01*
X62525806Y-50882443D02*
X62378549Y-51029700D01*
X62795100Y-51581100D02*
X62795100Y-52025900D01*
X63406500Y-50969700D02*
X62795100Y-51581100D01*
X63910300Y-50969700D02*
X63406500Y-50969700D01*
X63970300Y-51029700D02*
X63910300Y-50969700D01*
X66631200Y-61114100D02*
X66631200Y-59543700D01*
X66893600Y-51433000D02*
X66893600Y-51796100D01*
X65519700Y-62225600D02*
X66631200Y-61114100D01*
X66480300Y-51019700D02*
X66893600Y-51433000D01*
X68795800Y-50845200D02*
X68094700Y-50845200D01*
X68980300Y-51029700D02*
X68795800Y-50845200D01*
X51158900Y-88206300D02*
X50791600Y-88206300D01*
X51476300Y-88523700D02*
X51158900Y-88206300D01*
X53980300Y-88519700D02*
X53103900Y-87643300D01*
X53103900Y-87643300D02*
X53103900Y-87505000D01*
X57098800Y-88519700D02*
X57400400Y-88218100D01*
X56480300Y-88519700D02*
X57098800Y-88519700D01*
X59784700Y-87715300D02*
X59784700Y-87570800D01*
X58980300Y-88519700D02*
X59784700Y-87715300D01*
X60940000Y-88030000D02*
X61010600Y-88030000D01*
X61010600Y-88030000D02*
X61490300Y-88509700D01*
X63980300Y-88156000D02*
X63313300Y-87489000D01*
X63980300Y-88519700D02*
X63980300Y-88156000D01*
X66480300Y-88519700D02*
X65995100Y-88034500D01*
X65995100Y-88034500D02*
X65995100Y-87714600D01*
X68120746Y-87844051D02*
X68526695Y-88250000D01*
X68695200Y-88250000D02*
X68972600Y-88527400D01*
X68526695Y-88250000D02*
X68695200Y-88250000D01*
X70810700Y-50609600D02*
X71070200Y-50609600D01*
X71070200Y-50609600D02*
X71480300Y-51019700D01*
X74150000Y-50850000D02*
X73980300Y-51019700D01*
X74950000Y-50850000D02*
X74150000Y-50850000D01*
X76610000Y-50900000D02*
X76480300Y-51029700D01*
X77440000Y-50900000D02*
X76610000Y-50900000D01*
X79283200Y-50726800D02*
X78980300Y-51029700D01*
X80006800Y-50726800D02*
X79283200Y-50726800D01*
X81470300Y-51019700D02*
X81705500Y-51019700D01*
X81705500Y-51019700D02*
X82144300Y-51458500D01*
X84704200Y-51023700D02*
X83976300Y-51023700D01*
X84860000Y-51179500D02*
X84704200Y-51023700D01*
X86058597Y-50597997D02*
X86480300Y-51019700D01*
X85692004Y-50597997D02*
X86058597Y-50597997D01*
X88720600Y-50770000D02*
X88980300Y-51029700D01*
X88170000Y-50770000D02*
X88720600Y-50770000D01*
X71490300Y-88509700D02*
X72320900Y-88509700D01*
X72320900Y-88509700D02*
X72525900Y-88304700D01*
X73990300Y-88509700D02*
X73641000Y-88160400D01*
X73641000Y-88160400D02*
X73641000Y-87785200D01*
X76344900Y-88529700D02*
X75750700Y-87935500D01*
X78097400Y-87647900D02*
X78389900Y-87355400D01*
X75750700Y-87935500D02*
X75750700Y-87455200D01*
X77809100Y-86207300D02*
X77690200Y-86207300D01*
X78389900Y-87355400D02*
X78389900Y-86788100D01*
X76480300Y-88529700D02*
X76344900Y-88529700D01*
X77041900Y-87647900D02*
X78097400Y-87647900D01*
X76130700Y-87075200D02*
X76469200Y-87075200D01*
X76469200Y-87075200D02*
X77041900Y-87647900D01*
X75750700Y-87455200D02*
X76130700Y-87075200D01*
X78389900Y-86788100D02*
X77809100Y-86207300D01*
X78982600Y-88517400D02*
X79527100Y-87972900D01*
X79527100Y-87972900D02*
X79685400Y-87972900D01*
X81046000Y-87890800D02*
X81046000Y-88105400D01*
X81046000Y-88105400D02*
X81470300Y-88529700D01*
X83986300Y-88513700D02*
X84399000Y-88101000D01*
X84399000Y-88101000D02*
X84399000Y-87676200D01*
X86771000Y-88509700D02*
X87251700Y-88029000D01*
X86490300Y-88509700D02*
X86771000Y-88509700D01*
X88980300Y-87827100D02*
X88980300Y-88519700D01*
X88783800Y-87630600D02*
X88980300Y-87827100D01*
X70240000Y-62293700D02*
X70240000Y-62250000D01*
X68084791Y-61638051D02*
X68084791Y-61634791D01*
X70240000Y-62293700D02*
X70240000Y-63490000D01*
X70240000Y-62250000D02*
X71009726Y-61480274D01*
X69904900Y-61958600D02*
X68405340Y-61958600D01*
X70240000Y-62293700D02*
X69904900Y-61958600D01*
X67820000Y-61370000D02*
X67158908Y-61370000D01*
X64989000Y-63852315D02*
X64989000Y-64204700D01*
X67158908Y-61370000D02*
X66294700Y-62234208D01*
X66294700Y-62546615D02*
X64989000Y-63852315D01*
X68084791Y-61634791D02*
X67820000Y-61370000D01*
X83934900Y-64039300D02*
X83934900Y-64770000D01*
X84532600Y-63441600D02*
X83934900Y-64039300D01*
X66294700Y-62234208D02*
X66294700Y-62546615D01*
X84906400Y-63441600D02*
X84532600Y-63441600D01*
X85975000Y-64770000D02*
X83934900Y-64770000D01*
X68405340Y-61958600D02*
X68084791Y-61638051D01*
X56645000Y-53570000D02*
X57570000Y-53570000D01*
X57570000Y-53570000D02*
X57580000Y-53580000D01*
X55369000Y-53570000D02*
X54430000Y-53570000D01*
X56658000Y-56240000D02*
X57593000Y-56240000D01*
X57593000Y-56240000D02*
X57603000Y-56250000D01*
X55382000Y-56240000D02*
X54453000Y-56240000D01*
X54453000Y-56240000D02*
X54443000Y-56230000D01*
X56646000Y-58970000D02*
X57595000Y-58970000D01*
X55370000Y-58970000D02*
X54430000Y-58970000D01*
X54430000Y-58970000D02*
X54420000Y-58980000D01*
X56635000Y-67950000D02*
X57580000Y-67950000D01*
X55349000Y-67940000D02*
X55359000Y-67950000D01*
X54420000Y-67940000D02*
X55349000Y-67940000D01*
X56630000Y-71570000D02*
X57575000Y-71570000D01*
X54415000Y-71570000D02*
X55354000Y-71570000D01*
X56628000Y-74620000D02*
X57575000Y-74620000D01*
X54405000Y-74620000D02*
X55352000Y-74620000D01*
X56628000Y-83840000D02*
X57573000Y-83840000D01*
X55342000Y-83830000D02*
X55352000Y-83840000D01*
X54413000Y-83830000D02*
X55342000Y-83830000D01*
X56626000Y-86520000D02*
X57565000Y-86520000D01*
X57565000Y-86520000D02*
X57575000Y-86510000D01*
X54410000Y-86520000D02*
X55350000Y-86520000D01*
X84556000Y-53550000D02*
X85493000Y-53550000D01*
X85493000Y-53550000D02*
X85503000Y-53560000D01*
X82343000Y-53550000D02*
X83280000Y-53550000D01*
X84558000Y-56250000D02*
X85505000Y-56250000D01*
X83272000Y-56240000D02*
X83282000Y-56250000D01*
X82335000Y-56240000D02*
X83272000Y-56240000D01*
X84540000Y-58980000D02*
X85485000Y-58980000D01*
X82315000Y-58980000D02*
X83264000Y-58980000D01*
X84558000Y-67950000D02*
X85505000Y-67950000D01*
X82335000Y-67950000D02*
X83282000Y-67950000D01*
X84570000Y-71540000D02*
X85515000Y-71540000D01*
X82355000Y-71540000D02*
X83294000Y-71540000D01*
X85485000Y-74620000D02*
X85505000Y-74640000D01*
X84560000Y-74620000D02*
X85485000Y-74620000D01*
X82335000Y-74620000D02*
X83284000Y-74620000D01*
X82353000Y-83840000D02*
X83300000Y-83840000D01*
X84576000Y-83840000D02*
X85513000Y-83840000D01*
X85513000Y-83840000D02*
X85523000Y-83830000D01*
X84568000Y-86490000D02*
X85513000Y-86490000D01*
X82353000Y-86490000D02*
X83292000Y-86490000D01*
M02*
