M48
; DRILL file {KiCad 7.0.2-6a45011f42~172~ubuntu22.04.1} date Mon 07 Aug 2023 12:44:01 PM PDT
; FORMAT={-:-/ absolute / metric / decimal}
; #@! TF.CreationDate,2023-08-07T12:44:01-07:00
; #@! TF.GenerationSoftware,Kicad,Pcbnew,7.0.2-6a45011f42~172~ubuntu22.04.1
; #@! TF.FileFunction,Plated,1,6,PTH
FMAT,2
METRIC
; #@! TA.AperFunction,Plated,PTH,ViaDrill
T1C0.300
%
G90
G05
T1
X50.731Y-50.711
X50.792Y-88.206
X51.458Y-59.597
X51.95Y-77.109
X52.116Y-54.617
X52.31Y-86.27
X52.336Y-87.074
X52.35Y-60.15
X52.399Y-89.089
X52.404Y-59.063
X52.44Y-88.07
X52.46Y-73.85
X52.488Y-52.108
X52.496Y-57.3
X52.54Y-53.593
X52.64Y-76.04
X52.744Y-81.98
X52.837Y-66.006
X52.86Y-84.935
X52.91Y-52.8
X52.937Y-54.657
X53.01Y-67.31
X53.02Y-50.71
X53.02Y-70.8
X53.03Y-85.75
X53.06Y-58.22
X53.08Y-55.47
X53.09Y-74.867
X53.091Y-60.853
X53.1Y-83.07
X53.104Y-87.505
X53.175Y-73.282
X53.245Y-63.292
X54.093Y-82.413
X54.65Y-66.427
X54.792Y-88.85
X54.828Y-69.318
X54.903Y-52.295
X54.96Y-81.83
X55.03Y-61.17
X55.238Y-57.526
X55.34Y-75.86
X55.352Y-84.99
X55.36Y-72.76
X55.36Y-87.75
X55.37Y-60.1
X55.618Y-70.483
X55.773Y-63.292
X56.015Y-52.799
X56.03Y-55.36
X56.128Y-82.437
X56.303Y-77.619
X56.593Y-57.381
X56.706Y-85.004
X56.82Y-66.85
X57.095Y-51.47
X57.393Y-76.042
X57.4Y-88.218
X57.403Y-60.907
X57.71Y-66.184
X58.226Y-73.14
X58.29Y-87.97
X58.632Y-57.586
X58.843Y-67.58
X58.865Y-82.59
X58.99Y-72.32
X59.0Y-59.74
X59.01Y-87.33
X59.08Y-84.61
X59.22Y-54.67
X59.387Y-56.962
X59.43Y-69.31
X59.497Y-51.575
X59.573Y-76.795
X59.72Y-79.18
X59.785Y-87.571
X59.812Y-74.428
X59.888Y-66.687
X59.893Y-83.407
X59.896Y-61.129
X59.896Y-73.375
X59.935Y-76.046
X59.935Y-82.088
X59.967Y-88.828
X60.02Y-52.95
X60.058Y-58.124
X60.119Y-59.537
X60.15Y-57.32
X60.18Y-55.25
X60.39Y-75.29
X60.559Y-84.772
X60.695Y-85.673
X60.94Y-88.03
X60.978Y-57.899
X61.008Y-72.416
X61.22Y-59.963
X61.602Y-79.457
X61.61Y-87.38
X61.666Y-62.079
X62.06Y-54.68
X62.066Y-89.016
X62.153Y-77.031
X62.16Y-72.7
X62.17Y-82.618
X62.248Y-60.266
X62.456Y-78.82
X62.526Y-50.882
X62.583Y-62.079
X62.611Y-67.959
X62.769Y-58.404
X62.795Y-52.026
X62.878Y-63.564
X62.926Y-66.017
X62.929Y-75.633
X63.313Y-87.489
X63.471Y-67.403
X63.628Y-82.405
X63.744Y-65.189
X63.76Y-79.99
X63.941Y-84.62
X63.951Y-74.637
X64.244Y-61.725
X64.569Y-67.453
X64.697Y-57.943
X64.745Y-63.0
X64.759Y-84.261
X64.761Y-80.15
X64.91Y-82.504
X64.989Y-64.205
X65.079Y-87.738
X65.084Y-81.504
X65.117Y-66.018
X65.148Y-74.57
X65.22Y-76.139
X65.3Y-77.16
X65.36Y-73.439
X65.419Y-55.981
X65.43Y-78.16
X65.52Y-62.226
X65.663Y-67.459
X65.758Y-65.258
X65.76Y-83.07
X65.77Y-75.12
X65.78Y-58.14
X65.995Y-87.715
X66.02Y-55.412
X66.33Y-80.029
X66.448Y-85.123
X66.528Y-82.22
X66.631Y-59.544
X66.659Y-77.594
X66.67Y-67.02
X66.689Y-64.745
X66.78Y-69.529
X66.894Y-51.796
X67.092Y-87.345
X67.237Y-71.886
X67.344Y-88.198
X67.365Y-80.602
X67.407Y-58.905
X67.552Y-63.593
X67.599Y-62.656
X67.602Y-78.037
X67.66Y-77.207
X67.677Y-68.703
X68.059Y-69.901
X68.095Y-50.845
X68.107Y-70.83
X68.121Y-87.844
X68.584Y-60.046
X68.945Y-87.555
X69.13Y-69.59
X69.594Y-80.339
X69.658Y-62.615
X69.688Y-52.857
X69.707Y-87.285
X69.72Y-70.361
X69.73Y-77.582
X69.771Y-51.896
X69.912Y-50.891
X69.96Y-79.02
X69.98Y-61.31
X70.08Y-69.557
X70.204Y-89.419
X70.243Y-59.872
X70.422Y-87.852
X70.7Y-77.82
X70.72Y-70.64
X70.793Y-62.416
X70.811Y-50.61
X70.828Y-60.421
X71.008Y-79.9
X71.24Y-52.705
X71.911Y-79.704
X72.05Y-87.39
X72.103Y-60.4
X72.333Y-53.75
X72.397Y-80.897
X72.409Y-68.322
X72.417Y-71.876
X72.429Y-58.473
X72.456Y-59.55
X72.526Y-88.305
X72.55Y-76.911
X72.594Y-86.343
X73.041Y-80.348
X73.072Y-70.099
X73.298Y-62.488
X73.305Y-82.635
X73.358Y-78.067
X73.51Y-72.76
X73.54Y-57.47
X73.641Y-87.785
X73.75Y-55.0
X74.041Y-52.602
X74.22Y-84.7
X74.325Y-62.428
X74.37Y-74.53
X74.43Y-64.88
X74.441Y-56.76
X74.526Y-86.87
X74.585Y-59.628
X74.6Y-71.826
X74.614Y-76.651
X74.62Y-66.62
X74.65Y-82.897
X74.657Y-69.299
X74.67Y-83.93
X74.873Y-75.508
X74.895Y-65.801
X74.895Y-73.384
X74.95Y-50.85
X75.001Y-87.956
X75.175Y-61.891
X75.37Y-70.126
X75.441Y-58.491
X75.54Y-83.404
X75.561Y-55.061
X75.713Y-65.624
X75.916Y-82.568
X75.933Y-77.972
X75.989Y-74.9
X76.295Y-87.648
X76.298Y-69.76
X76.67Y-52.595
X77.362Y-81.028
X77.44Y-50.9
X77.445Y-64.813
X77.469Y-88.783
X77.595Y-60.798
X77.69Y-86.207
X77.697Y-81.904
X77.762Y-66.078
X77.822Y-77.801
X77.831Y-67.202
X77.831Y-68.23
X77.89Y-87.11
X77.89Y-79.61
X78.046Y-63.262
X78.047Y-85.203
X78.07Y-82.904
X78.719Y-74.838
X78.828Y-57.228
X78.915Y-54.887
X79.093Y-52.59
X79.093Y-59.624
X79.68Y-67.18
X79.685Y-87.973
X79.771Y-76.895
X79.85Y-84.136
X79.895Y-65.837
X79.91Y-86.873
X80.0Y-73.85
X80.007Y-50.727
X80.093Y-68.3
X80.173Y-69.472
X80.28Y-70.77
X80.282Y-56.075
X80.36Y-61.056
X80.389Y-74.611
X80.425Y-88.473
X80.485Y-59.716
X80.58Y-58.22
X80.63Y-85.71
X80.82Y-82.91
X80.883Y-67.69
X80.89Y-55.48
X80.95Y-52.78
X80.96Y-57.444
X81.046Y-87.891
X81.272Y-85.152
X82.144Y-51.459
X82.2Y-81.84
X82.39Y-89.23
X82.4Y-61.133
X82.639Y-73.253
X82.717Y-63.402
X83.0Y-75.79
X83.07Y-85.06
X83.13Y-60.16
X83.13Y-87.68
X83.139Y-54.865
X83.292Y-78.28
X83.435Y-82.401
X83.455Y-57.816
X83.692Y-77.474
X83.71Y-72.6
X84.263Y-57.353
X84.399Y-87.676
X84.488Y-82.555
X84.56Y-52.46
X84.56Y-55.08
X84.56Y-66.82
X84.86Y-51.179
X84.906Y-63.442
X84.968Y-85.212
X85.091Y-88.262
X85.249Y-69.458
X85.292Y-79.5
X85.364Y-66.035
X85.437Y-60.962
X85.692Y-50.598
X85.99Y-87.949
X86.516Y-70.1
X86.526Y-52.178
X86.802Y-74.769
X86.81Y-57.02
X86.81Y-77.27
X86.88Y-84.6
X86.899Y-67.092
X86.94Y-54.34
X86.94Y-87.27
X86.95Y-59.76
X87.02Y-72.32
X87.042Y-81.836
X87.252Y-88.029
X87.328Y-60.488
X87.394Y-58.407
X87.397Y-85.907
X87.398Y-63.407
X87.402Y-53.309
X87.413Y-55.988
X87.52Y-68.73
X87.64Y-73.43
X87.7Y-67.62
X87.732Y-76.189
X87.867Y-75.138
X87.985Y-88.449
X88.081Y-84.97
X88.17Y-50.77
X88.254Y-80.111
X88.287Y-54.907
X88.363Y-57.439
X88.521Y-62.395
X88.784Y-87.631
T0
M30
