G04 #@! TF.GenerationSoftware,KiCad,Pcbnew,7.0.2-6a45011f42~172~ubuntu22.04.1*
G04 #@! TF.CreationDate,2023-08-07T12:42:52-07:00*
G04 #@! TF.ProjectId,driver_40mm_atmega,64726976-6572-45f3-9430-6d6d5f61746d,rev?*
G04 #@! TF.SameCoordinates,Original*
G04 #@! TF.FileFunction,Copper,L1,Top*
G04 #@! TF.FilePolarity,Positive*
%FSLAX46Y46*%
G04 Gerber Fmt 4.6, Leading zero omitted, Abs format (unit mm)*
G04 Created by KiCad (PCBNEW 7.0.2-6a45011f42~172~ubuntu22.04.1) date 2023-08-07 12:42:52*
%MOMM*%
%LPD*%
G01*
G04 APERTURE LIST*
G04 Aperture macros list*
%AMRoundRect*
0 Rectangle with rounded corners*
0 $1 Rounding radius*
0 $2 $3 $4 $5 $6 $7 $8 $9 X,Y pos of 4 corners*
0 Add a 4 corners polygon primitive as box body*
4,1,4,$2,$3,$4,$5,$6,$7,$8,$9,$2,$3,0*
0 Add four circle primitives for the rounded corners*
1,1,$1+$1,$2,$3*
1,1,$1+$1,$4,$5*
1,1,$1+$1,$6,$7*
1,1,$1+$1,$8,$9*
0 Add four rect primitives between the rounded corners*
20,1,$1+$1,$2,$3,$4,$5,0*
20,1,$1+$1,$4,$5,$6,$7,0*
20,1,$1+$1,$6,$7,$8,$9,0*
20,1,$1+$1,$8,$9,$2,$3,0*%
G04 Aperture macros list end*
G04 #@! TA.AperFunction,SMDPad,CuDef*
%ADD10RoundRect,0.147500X0.017678X-0.226274X0.226274X-0.017678X-0.017678X0.226274X-0.226274X0.017678X0*%
G04 #@! TD*
G04 #@! TA.AperFunction,ViaPad*
%ADD11C,0.600000*%
G04 #@! TD*
G04 #@! TA.AperFunction,Conductor*
%ADD12C,0.150000*%
G04 #@! TD*
G04 APERTURE END LIST*
D10*
X85907053Y-64092947D03*
X86592947Y-63407053D03*
X83407053Y-64092947D03*
X84092947Y-63407053D03*
X80907053Y-64092947D03*
X81592947Y-63407053D03*
X78407053Y-64092947D03*
X79092947Y-63407053D03*
X75907053Y-64092947D03*
X76592947Y-63407053D03*
X73407053Y-64092947D03*
X74092947Y-63407053D03*
X70907053Y-64092947D03*
X71592947Y-63407053D03*
X88407053Y-61592947D03*
X89092947Y-60907053D03*
X85907053Y-61592947D03*
X86592947Y-60907053D03*
X83407053Y-61592947D03*
X84092947Y-60907053D03*
X80907053Y-61592947D03*
X81592947Y-60907053D03*
X78407053Y-61592947D03*
X79092947Y-60907053D03*
X75907053Y-61592947D03*
X76592947Y-60907053D03*
X73407053Y-61592947D03*
X74092947Y-60907053D03*
X88407053Y-59092947D03*
X89092947Y-58407053D03*
X70907053Y-61592947D03*
X71592947Y-60907053D03*
X88407053Y-66592947D03*
X89092947Y-65907053D03*
X80907053Y-69092947D03*
X81592947Y-68407053D03*
X83407053Y-69092947D03*
X84092947Y-68407053D03*
X68407053Y-89092947D03*
X69092947Y-88407053D03*
X85907053Y-69092947D03*
X86592947Y-68407053D03*
X78407053Y-69092947D03*
X79092947Y-68407053D03*
X75907053Y-69092947D03*
X76592947Y-68407053D03*
X73407053Y-69092947D03*
X74092947Y-68407053D03*
X70907053Y-69092947D03*
X71592947Y-68407053D03*
X88407053Y-64092947D03*
X89092947Y-63407053D03*
X85907053Y-66592947D03*
X86592947Y-65907053D03*
X83407053Y-66592947D03*
X84092947Y-65907053D03*
X80907053Y-66592947D03*
X81592947Y-65907053D03*
X78407053Y-66592947D03*
X79092947Y-65907053D03*
X75907053Y-66592947D03*
X76592947Y-65907053D03*
X73407053Y-66592947D03*
X74092947Y-65907053D03*
X70907053Y-66592947D03*
X71592947Y-65907053D03*
X85907053Y-54092947D03*
X86592947Y-53407053D03*
X65907053Y-86592947D03*
X66592947Y-85907053D03*
X70907053Y-51592947D03*
X71592947Y-50907053D03*
X73407053Y-51592947D03*
X74092947Y-50907053D03*
X75907053Y-51592947D03*
X76592947Y-50907053D03*
X78407053Y-51592947D03*
X79092947Y-50907053D03*
X80907053Y-51592947D03*
X81592947Y-50907053D03*
X83407053Y-51592947D03*
X84092947Y-50907053D03*
X85907053Y-51592947D03*
X86592947Y-50907053D03*
X88407053Y-51592947D03*
X89092947Y-50907053D03*
X70907053Y-54092947D03*
X71592947Y-53407053D03*
X73407053Y-54092947D03*
X74092947Y-53407053D03*
X75907053Y-54092947D03*
X76592947Y-53407053D03*
X78407053Y-54092947D03*
X79092947Y-53407053D03*
X80907053Y-54092947D03*
X81592947Y-53407053D03*
X83407053Y-54092947D03*
X84092947Y-53407053D03*
X85907053Y-59092947D03*
X86592947Y-58407053D03*
X88407053Y-54092947D03*
X89092947Y-53407053D03*
X70907053Y-56592947D03*
X71592947Y-55907053D03*
X73407053Y-56592947D03*
X74092947Y-55907053D03*
X75907053Y-56592947D03*
X76592947Y-55907053D03*
X78407053Y-56592947D03*
X79092947Y-55907053D03*
X80907053Y-56592947D03*
X81592947Y-55907053D03*
X83407053Y-56592947D03*
X84092947Y-55907053D03*
X85907053Y-56592947D03*
X86592947Y-55907053D03*
X88407053Y-56592947D03*
X89092947Y-55907053D03*
X70907053Y-59092947D03*
X71592947Y-58407053D03*
X73407053Y-59092947D03*
X74092947Y-58407053D03*
X75907053Y-59092947D03*
X76592947Y-58407053D03*
X78407053Y-59092947D03*
X79092947Y-58407053D03*
X80907053Y-59092947D03*
X81592947Y-58407053D03*
X83407053Y-59092947D03*
X84092947Y-58407053D03*
X88407053Y-81592947D03*
X89092947Y-80907053D03*
X88407053Y-84092947D03*
X89092947Y-83407053D03*
X85907053Y-84092947D03*
X86592947Y-83407053D03*
X83407053Y-84092947D03*
X84092947Y-83407053D03*
X80907053Y-84092947D03*
X81592947Y-83407053D03*
X78407053Y-84092947D03*
X79092947Y-83407053D03*
X75907053Y-84092947D03*
X76592947Y-83407053D03*
X73407053Y-84092947D03*
X74092947Y-83407053D03*
X70907053Y-84092947D03*
X71592947Y-83407053D03*
X70907053Y-86592947D03*
X71592947Y-85907053D03*
X85907053Y-81592947D03*
X86592947Y-80907053D03*
X83407053Y-81592947D03*
X84092947Y-80907053D03*
X80907053Y-81592947D03*
X81592947Y-80907053D03*
X78407053Y-81592947D03*
X79092947Y-80907053D03*
X75907053Y-81592947D03*
X76592947Y-80907053D03*
X73407053Y-81592947D03*
X74092947Y-80907053D03*
X70907053Y-81592947D03*
X71592947Y-80907053D03*
X88407053Y-79092947D03*
X89092947Y-78407053D03*
X73407053Y-86592947D03*
X74092947Y-85907053D03*
X75907053Y-86592947D03*
X76592947Y-85907053D03*
X78407053Y-86592947D03*
X79092947Y-85907053D03*
X80907053Y-86592947D03*
X81592947Y-85907053D03*
X83407053Y-86592947D03*
X84092947Y-85907053D03*
X85907053Y-86592947D03*
X86592947Y-85907053D03*
X88407053Y-86592947D03*
X89092947Y-85907053D03*
X70907053Y-89092947D03*
X71592947Y-88407053D03*
X73407053Y-89092947D03*
X74092947Y-88407053D03*
X75907053Y-89092947D03*
X76592947Y-88407053D03*
X78407053Y-89092947D03*
X79092947Y-88407053D03*
X80907053Y-89092947D03*
X81592947Y-88407053D03*
X83407053Y-89092947D03*
X84092947Y-88407053D03*
X85907053Y-89092947D03*
X86592947Y-88407053D03*
X88407053Y-89092947D03*
X89092947Y-88407053D03*
X88407053Y-74092947D03*
X89092947Y-73407053D03*
X70907053Y-71592947D03*
X71592947Y-70907053D03*
X73407053Y-71592947D03*
X74092947Y-70907053D03*
X75907053Y-71592947D03*
X76592947Y-70907053D03*
X78407053Y-71592947D03*
X79092947Y-70907053D03*
X80907053Y-71592947D03*
X81592947Y-70907053D03*
X83407053Y-71592947D03*
X84092947Y-70907053D03*
X85907053Y-71592947D03*
X86592947Y-70907053D03*
X88407053Y-71592947D03*
X89092947Y-70907053D03*
X70907053Y-74092947D03*
X71592947Y-73407053D03*
X73407053Y-74092947D03*
X74092947Y-73407053D03*
X75907053Y-74092947D03*
X76592947Y-73407053D03*
X78407053Y-74092947D03*
X79092947Y-73407053D03*
X80907053Y-74092947D03*
X81592947Y-73407053D03*
X83407053Y-74092947D03*
X84092947Y-73407053D03*
X85907053Y-74092947D03*
X86592947Y-73407053D03*
X88407053Y-69092947D03*
X89092947Y-68407053D03*
X70907053Y-76592947D03*
X71592947Y-75907053D03*
X73407053Y-76592947D03*
X74092947Y-75907053D03*
X75907053Y-76592947D03*
X76592947Y-75907053D03*
X78407053Y-76592947D03*
X79092947Y-75907053D03*
X80907053Y-76592947D03*
X81592947Y-75907053D03*
X83407053Y-76592947D03*
X84092947Y-75907053D03*
X85907053Y-76592947D03*
X86592947Y-75907053D03*
X88407053Y-76592947D03*
X89092947Y-75907053D03*
X70907053Y-79092947D03*
X71592947Y-78407053D03*
X73407053Y-79092947D03*
X74092947Y-78407053D03*
X75907053Y-79092947D03*
X76592947Y-78407053D03*
X78407053Y-79092947D03*
X79092947Y-78407053D03*
X80907053Y-79092947D03*
X81592947Y-78407053D03*
X83407053Y-79092947D03*
X84092947Y-78407053D03*
X85907053Y-79092947D03*
X86592947Y-78407053D03*
X68407053Y-64092947D03*
X69092947Y-63407053D03*
X50907053Y-61592947D03*
X51592947Y-60907053D03*
X53407053Y-61592947D03*
X54092947Y-60907053D03*
X55907053Y-61592947D03*
X56592947Y-60907053D03*
X58407053Y-61592947D03*
X59092947Y-60907053D03*
X60907053Y-61592947D03*
X61592947Y-60907053D03*
X63407053Y-61592947D03*
X64092947Y-60907053D03*
X65907053Y-61592947D03*
X66592947Y-60907053D03*
X68407053Y-61592947D03*
X69092947Y-60907053D03*
X50907053Y-64092947D03*
X51592947Y-63407053D03*
X53407053Y-64092947D03*
X54092947Y-63407053D03*
X55907053Y-64092947D03*
X56592947Y-63407053D03*
X58407053Y-64092947D03*
X59092947Y-63407053D03*
X60907053Y-64092947D03*
X61592947Y-63407053D03*
X63407053Y-64092947D03*
X64092947Y-63407053D03*
X65907053Y-64092947D03*
X66592947Y-63407053D03*
X68407053Y-59092947D03*
X69092947Y-58407053D03*
X50907053Y-66592947D03*
X51592947Y-65907053D03*
X53407053Y-66592947D03*
X54092947Y-65907053D03*
X55907053Y-66592947D03*
X56592947Y-65907053D03*
X58407053Y-66592947D03*
X59092947Y-65907053D03*
X60907053Y-66592947D03*
X61592947Y-65907053D03*
X63407053Y-66592947D03*
X64092947Y-65907053D03*
X65907053Y-66592947D03*
X66592947Y-65907053D03*
X68407053Y-66592947D03*
X69092947Y-65907053D03*
X50907053Y-69092947D03*
X51592947Y-68407053D03*
X53407053Y-69092947D03*
X54092947Y-68407053D03*
X55907053Y-69092947D03*
X56592947Y-68407053D03*
X58407053Y-69092947D03*
X59092947Y-68407053D03*
X60907053Y-69092947D03*
X61592947Y-68407053D03*
X63407053Y-69092947D03*
X64092947Y-68407053D03*
X65907053Y-69092947D03*
X66592947Y-68407053D03*
X68407053Y-54092947D03*
X69092947Y-53407053D03*
X50907053Y-51592947D03*
X51592947Y-50907053D03*
X53407053Y-51592947D03*
X54092947Y-50907053D03*
X55907053Y-51592947D03*
X56592947Y-50907053D03*
X58407053Y-51592947D03*
X59092947Y-50907053D03*
X60907053Y-51592947D03*
X61592947Y-50907053D03*
X63407053Y-51592947D03*
X64092947Y-50907053D03*
X65907053Y-51592947D03*
X66592947Y-50907053D03*
X68407053Y-51592947D03*
X69092947Y-50907053D03*
X50907053Y-54092947D03*
X51592947Y-53407053D03*
X53407053Y-54092947D03*
X54092947Y-53407053D03*
X55907053Y-54092947D03*
X56592947Y-53407053D03*
X58407053Y-54092947D03*
X59092947Y-53407053D03*
X60907053Y-54092947D03*
X61592947Y-53407053D03*
X63407053Y-54092947D03*
X64092947Y-53407053D03*
X65907053Y-54092947D03*
X66592947Y-53407053D03*
X63407053Y-89092947D03*
X64092947Y-88407053D03*
X50907053Y-56592947D03*
X51592947Y-55907053D03*
X53407053Y-56592947D03*
X54092947Y-55907053D03*
X55907053Y-56592947D03*
X56592947Y-55907053D03*
X58407053Y-56592947D03*
X59092947Y-55907053D03*
X60907053Y-56592947D03*
X61592947Y-55907053D03*
X63407053Y-56592947D03*
X64092947Y-55907053D03*
X65907053Y-56592947D03*
X66592947Y-55907053D03*
X68407053Y-56592947D03*
X69092947Y-55907053D03*
X50907053Y-59092947D03*
X51592947Y-58407053D03*
X53407053Y-59092947D03*
X54092947Y-58407053D03*
X55907053Y-59092947D03*
X56592947Y-58407053D03*
X58407053Y-59092947D03*
X59092947Y-58407053D03*
X60907053Y-59092947D03*
X61592947Y-58407053D03*
X63407053Y-59092947D03*
X64092947Y-58407053D03*
X65907053Y-59092947D03*
X66592947Y-58407053D03*
X65907053Y-84092947D03*
X66592947Y-83407053D03*
X68407053Y-79092947D03*
X69092947Y-78407053D03*
X50907053Y-81592947D03*
X51592947Y-80907053D03*
X53407053Y-81592947D03*
X54092947Y-80907053D03*
X55907053Y-81592947D03*
X56592947Y-80907053D03*
X58407053Y-81592947D03*
X59092947Y-80907053D03*
X60907053Y-81592947D03*
X61592947Y-80907053D03*
X63407053Y-81592947D03*
X64092947Y-80907053D03*
X65907053Y-81592947D03*
X66592947Y-80907053D03*
X68407053Y-81592947D03*
X69092947Y-80907053D03*
X50907053Y-84092947D03*
X51592947Y-83407053D03*
X53407053Y-84092947D03*
X54092947Y-83407053D03*
X55907053Y-84092947D03*
X56592947Y-83407053D03*
X58407053Y-84092947D03*
X59092947Y-83407053D03*
X60907053Y-84092947D03*
X61592947Y-83407053D03*
X63407053Y-84092947D03*
X64092947Y-83407053D03*
X50907053Y-71592947D03*
X51592947Y-70907053D03*
X68407053Y-84092947D03*
X69092947Y-83407053D03*
X50907053Y-86592947D03*
X51592947Y-85907053D03*
X53407053Y-86592947D03*
X54092947Y-85907053D03*
X55907053Y-86592947D03*
X56592947Y-85907053D03*
X58407053Y-86592947D03*
X59092947Y-85907053D03*
X60907053Y-86592947D03*
X61592947Y-85907053D03*
X63407053Y-86592947D03*
X64092947Y-85907053D03*
X68407053Y-86592947D03*
X69092947Y-85907053D03*
X50907053Y-89092947D03*
X51592947Y-88407053D03*
X53407053Y-89092947D03*
X54092947Y-88407053D03*
X55907053Y-89092947D03*
X56592947Y-88407053D03*
X58407053Y-89092947D03*
X59092947Y-88407053D03*
X60907053Y-89092947D03*
X61592947Y-88407053D03*
X65907053Y-89092947D03*
X66592947Y-88407053D03*
X63407053Y-79092947D03*
X64092947Y-78407053D03*
X68407053Y-69092947D03*
X69092947Y-68407053D03*
X53407053Y-71592947D03*
X54092947Y-70907053D03*
X55907053Y-71592947D03*
X56592947Y-70907053D03*
X58407053Y-71592947D03*
X59092947Y-70907053D03*
X60907053Y-71592947D03*
X61592947Y-70907053D03*
X63407053Y-71592947D03*
X64092947Y-70907053D03*
X65907053Y-71592947D03*
X66592947Y-70907053D03*
X65907053Y-79092947D03*
X66592947Y-78407053D03*
X68407053Y-71592947D03*
X69092947Y-70907053D03*
X50907053Y-74092947D03*
X51592947Y-73407053D03*
X53407053Y-74092947D03*
X54092947Y-73407053D03*
X55907053Y-74092947D03*
X56592947Y-73407053D03*
X58407053Y-74092947D03*
X59092947Y-73407053D03*
X60907053Y-74092947D03*
X61592947Y-73407053D03*
X63407053Y-74092947D03*
X64092947Y-73407053D03*
X68407053Y-74092947D03*
X69092947Y-73407053D03*
X65907053Y-74092947D03*
X66592947Y-73407053D03*
X60907053Y-79092947D03*
X61592947Y-78407053D03*
X58407053Y-79092947D03*
X59092947Y-78407053D03*
X55907053Y-79092947D03*
X56592947Y-78407053D03*
X53407053Y-79092947D03*
X54092947Y-78407053D03*
X50907053Y-79092947D03*
X51592947Y-78407053D03*
X68407053Y-76592947D03*
X69092947Y-75907053D03*
X65907053Y-76592947D03*
X66592947Y-75907053D03*
X63407053Y-76592947D03*
X64092947Y-75907053D03*
X60907053Y-76592947D03*
X61592947Y-75907053D03*
X58407053Y-76592947D03*
X59092947Y-75907053D03*
X55907053Y-76592947D03*
X56592947Y-75907053D03*
X53407053Y-76592947D03*
X54092947Y-75907053D03*
X50907053Y-76592947D03*
X51592947Y-75907053D03*
D11*
X86940000Y-87270000D03*
X80950000Y-52780000D03*
X59220000Y-54670000D03*
X53100000Y-83070000D03*
X53010000Y-67310000D03*
X59387184Y-56962400D03*
X55030000Y-61170000D03*
X80000000Y-73850000D03*
X52910000Y-52800000D03*
X80280000Y-70770000D03*
X59080000Y-84610000D03*
X86950000Y-59760000D03*
X86880000Y-84600000D03*
X66448400Y-85123000D03*
X53020000Y-70800000D03*
X60390000Y-75290000D03*
X80630000Y-85710000D03*
X65418900Y-55981100D03*
X53080000Y-55470000D03*
X58990000Y-72320000D03*
X86810000Y-57020000D03*
X65770000Y-75120000D03*
X74670000Y-83930000D03*
X80820000Y-82910000D03*
X69980000Y-61310000D03*
X87867000Y-75138200D03*
X73750000Y-55000000D03*
X74430000Y-64880000D03*
X79680000Y-67180000D03*
X80580000Y-58220000D03*
X80890000Y-55480000D03*
X73510000Y-72760000D03*
X53030000Y-85750000D03*
X69960000Y-79020000D03*
X87020000Y-72320000D03*
X86940000Y-54340000D03*
X52460000Y-73850000D03*
X87520000Y-68730000D03*
X66670000Y-67020000D03*
X53060000Y-58220000D03*
X59000000Y-59740000D03*
X59430000Y-69310000D03*
X59010000Y-87330000D03*
X51457700Y-59596900D03*
X68583600Y-60045600D03*
X52398900Y-89088900D03*
X71910600Y-79704000D03*
X70204000Y-89419100D03*
X66659100Y-77594000D03*
X67407200Y-58905000D03*
X52116500Y-54617500D03*
X71007700Y-79899600D03*
X52440000Y-88070000D03*
X74526400Y-86870000D03*
X67601600Y-78037200D03*
X72396800Y-80897500D03*
X59966900Y-88827600D03*
X67660200Y-77207300D03*
X75001500Y-87956100D03*
X73041500Y-80347900D03*
X60694600Y-85672800D03*
X62929000Y-75633200D03*
X65079500Y-87738200D03*
X77469000Y-88783000D03*
X62065700Y-89016400D03*
X73304600Y-82635200D03*
X80425200Y-88473100D03*
X65300000Y-77160500D03*
X72050000Y-87390000D03*
X61610000Y-87380000D03*
X75174900Y-61891300D03*
X72409000Y-68321500D03*
X68106900Y-70830400D03*
X82390000Y-89229500D03*
X68059500Y-69900987D03*
X85989900Y-87948800D03*
X74656600Y-69299200D03*
X88521000Y-62395500D03*
X87985200Y-88448900D03*
X69130000Y-69590000D03*
X61219600Y-59962600D03*
X69912500Y-50891200D03*
X59720000Y-79180000D03*
X68945500Y-87555500D03*
X66780000Y-69529500D03*
X80092893Y-68300000D03*
X70720000Y-70640000D03*
X86810000Y-77270000D03*
X65147900Y-74570100D03*
X74599900Y-71825800D03*
X72333400Y-53750000D03*
X67677400Y-68703400D03*
X71240000Y-52704600D03*
X75370300Y-70125900D03*
X67092400Y-87344551D03*
X79770600Y-76895200D03*
X69730000Y-77581600D03*
X73540000Y-57470000D03*
X60020000Y-52950000D03*
X61007900Y-72416500D03*
X65083900Y-81504400D03*
X66689000Y-64744700D03*
X88286600Y-54907200D03*
X52488200Y-52108200D03*
X55618000Y-70483500D03*
X86526400Y-52178100D03*
X86515600Y-70100100D03*
X72428800Y-58473000D03*
X52540000Y-53593400D03*
X51949900Y-77109000D03*
X67365100Y-80601500D03*
X67552500Y-63593400D03*
X78828500Y-57228500D03*
X52936800Y-54657000D03*
X63951000Y-74636800D03*
X53175100Y-73282300D03*
X67237500Y-71885700D03*
X58225900Y-73139700D03*
X83138900Y-54865000D03*
X78915400Y-54887100D03*
X75988800Y-74899700D03*
X78718900Y-74837900D03*
X80389500Y-74610500D03*
X87640000Y-73430000D03*
X82639200Y-73252800D03*
X72455800Y-59549700D03*
X60150000Y-57320300D03*
X64761000Y-80149700D03*
X59811900Y-74428300D03*
X87413500Y-55988500D03*
X67599275Y-62655675D03*
X86802500Y-74769100D03*
X74614500Y-76651300D03*
X60180000Y-55250000D03*
X62153100Y-77030900D03*
X59573200Y-76794600D03*
X65219800Y-76139300D03*
X88363100Y-57439100D03*
X74873500Y-75508500D03*
X83692400Y-77473800D03*
X77822300Y-77801000D03*
X87731600Y-76189500D03*
X52496300Y-57300000D03*
X72103011Y-60399589D03*
X63760000Y-79990000D03*
X53089600Y-74866800D03*
X80281900Y-56074600D03*
X77762300Y-66078500D03*
X63471300Y-67402900D03*
X62769500Y-58404500D03*
X52404000Y-59062600D03*
X55238100Y-57526500D03*
X56303100Y-77619400D03*
X61601900Y-79457100D03*
X80960200Y-57443600D03*
X84263000Y-57353200D03*
X77890000Y-79610000D03*
X83291800Y-78280400D03*
X85292000Y-79500000D03*
X75932700Y-77972500D03*
X70828400Y-60420700D03*
X62247900Y-60265900D03*
X62170000Y-82617600D03*
X58865100Y-82589800D03*
X87328000Y-60488100D03*
X63743900Y-65188800D03*
X60118700Y-59537200D03*
X60058500Y-58124400D03*
X59935000Y-82087700D03*
X63628300Y-82404900D03*
X52744000Y-81979900D03*
X56128000Y-82437200D03*
X85437000Y-60962000D03*
X80360000Y-61055700D03*
X87042000Y-81836300D03*
X77697000Y-81903600D03*
X79850300Y-84136000D03*
X70242900Y-59872200D03*
X52350000Y-60150000D03*
X69593700Y-80338800D03*
X54960000Y-81829502D03*
X69657800Y-62615200D03*
X80485200Y-59715600D03*
X70700000Y-77820000D03*
X83435400Y-82401500D03*
X55772900Y-63291800D03*
X61666500Y-62078900D03*
X62878300Y-63564100D03*
X60559000Y-84772100D03*
X63941300Y-84620200D03*
X52860000Y-84935400D03*
X79895400Y-65836700D03*
X82716700Y-63402500D03*
X78069700Y-82903900D03*
X84488100Y-82555200D03*
X58842800Y-67580300D03*
X69688000Y-52857000D03*
X67344361Y-88197987D03*
X70422500Y-87852192D03*
X86898800Y-67092400D03*
X76297700Y-69760500D03*
X88080500Y-84970000D03*
X69719600Y-70361100D03*
X59887600Y-66687400D03*
X52837000Y-66006300D03*
X62925700Y-66017500D03*
X57710300Y-66184100D03*
X52310000Y-86270000D03*
X64758900Y-84260900D03*
X56706400Y-85003800D03*
X80883500Y-67690100D03*
X85364200Y-66035000D03*
X75713100Y-65623800D03*
X77889800Y-87110200D03*
X84968100Y-85212500D03*
X72594300Y-86343100D03*
X79910100Y-86873300D03*
X54649600Y-66427300D03*
X69770900Y-51896400D03*
X52335901Y-87074099D03*
X58290000Y-87970000D03*
X69707346Y-87285154D03*
X80173400Y-69471600D03*
X70080000Y-69556700D03*
X73071800Y-70099400D03*
X76295400Y-87647900D03*
X54828400Y-69318400D03*
X54792200Y-88850000D03*
X85249400Y-69458000D03*
X85090800Y-88261700D03*
X72417500Y-71876400D03*
X64910000Y-82504000D03*
X70793100Y-62415900D03*
X62610700Y-67959200D03*
X66020000Y-55412000D03*
X84560000Y-55080000D03*
X65757803Y-65257505D03*
X55352000Y-84990000D03*
X65760000Y-83070000D03*
X56820000Y-66850000D03*
X55340000Y-75860000D03*
X55370000Y-60100000D03*
X62160000Y-72700000D03*
X74441100Y-56760000D03*
X74370000Y-74530000D03*
X56014800Y-52798600D03*
X78046800Y-85203200D03*
X55360000Y-72760000D03*
X84560000Y-52460000D03*
X83130000Y-87680000D03*
X82200000Y-81840000D03*
X65360000Y-73439500D03*
X74220000Y-84700500D03*
X77830700Y-67201711D03*
X83130000Y-60160000D03*
X83710000Y-72600000D03*
X84560000Y-66820000D03*
X55360000Y-87750000D03*
X83070000Y-85060000D03*
X56030000Y-55360000D03*
X74620000Y-66620000D03*
X62060000Y-54680000D03*
X83000000Y-75790000D03*
X50730950Y-50710950D03*
X53020000Y-50710000D03*
X54903500Y-52294900D03*
X53245100Y-63291800D03*
X53090800Y-60853200D03*
X56592900Y-57381300D03*
X57403200Y-60907100D03*
X57095500Y-51470500D03*
X59496600Y-51574600D03*
X59896300Y-61129200D03*
X58632118Y-57586025D03*
X62583500Y-62078900D03*
X60978100Y-57899500D03*
X62525806Y-50882443D03*
X64744900Y-63000400D03*
X64568800Y-67453300D03*
X62795100Y-52025900D03*
X64696800Y-57942900D03*
X64244300Y-61725000D03*
X65519700Y-62225600D03*
X66893600Y-51796100D03*
X65780100Y-58139900D03*
X65663500Y-67459100D03*
X65116700Y-66018400D03*
X66631200Y-59543700D03*
X68094700Y-50845200D03*
X50791600Y-88206300D03*
X53103900Y-87505000D03*
X54092900Y-82413400D03*
X52640000Y-76040000D03*
X57400400Y-88218100D03*
X57392700Y-76041600D03*
X59896500Y-73375000D03*
X59893200Y-83407100D03*
X59784700Y-87570800D03*
X59934900Y-76045800D03*
X60940000Y-88030000D03*
X63313300Y-87489000D03*
X62456200Y-78819900D03*
X66330000Y-80028800D03*
X65430000Y-78160000D03*
X65995100Y-87714600D03*
X66527600Y-82220200D03*
X68120746Y-87844051D03*
X70810700Y-50609600D03*
X73298300Y-62487800D03*
X74041000Y-52602000D03*
X74950000Y-50850000D03*
X74324600Y-62428000D03*
X74584900Y-59628400D03*
X75560700Y-55061200D03*
X74894900Y-65801300D03*
X75440800Y-58490900D03*
X76670400Y-52595200D03*
X77445500Y-64812700D03*
X77440000Y-50900000D03*
X77594600Y-60798500D03*
X79092900Y-59624400D03*
X78045900Y-63262200D03*
X80006800Y-50726800D03*
X77831300Y-68230300D03*
X79092900Y-52590300D03*
X82144300Y-51458500D03*
X82399600Y-61132600D03*
X84860000Y-51179500D03*
X83454600Y-57816400D03*
X87402300Y-53309300D03*
X87398300Y-63407100D03*
X85692004Y-50597997D03*
X87394500Y-58407100D03*
X87700000Y-67620000D03*
X88170000Y-50770000D03*
X72525900Y-88304700D03*
X73358300Y-78067300D03*
X74650100Y-82897000D03*
X74895200Y-73384400D03*
X72550100Y-76910600D03*
X73641000Y-87785200D03*
X77690200Y-86207300D03*
X77361800Y-81028200D03*
X75540300Y-83404100D03*
X75916300Y-82568400D03*
X79685400Y-87972900D03*
X81271800Y-85152300D03*
X81046000Y-87890800D03*
X84399000Y-87676200D03*
X88254000Y-80110700D03*
X87397000Y-85907100D03*
X87251700Y-88029000D03*
X88783800Y-87630600D03*
X64989000Y-64204700D03*
X84906400Y-63441600D03*
D12*
X65907100Y-50795400D02*
X65441700Y-50330000D01*
X61424100Y-50330000D02*
X60907100Y-50847000D01*
X60907100Y-50847000D02*
X60907100Y-51592900D01*
X60390100Y-50330000D02*
X58903500Y-50330000D01*
X56431329Y-50333279D02*
X55171708Y-51592900D01*
X60907100Y-50847000D02*
X60390100Y-50330000D01*
X65907100Y-51592900D02*
X63407100Y-51592900D01*
X65907100Y-50795400D02*
X65907100Y-51592900D01*
X58407100Y-50826400D02*
X58407100Y-51592900D01*
X52812100Y-51592900D02*
X50907100Y-51592900D01*
X65907100Y-50795400D02*
X66401100Y-50301400D01*
X58407100Y-50826400D02*
X57913979Y-50333279D01*
X55907006Y-51592900D02*
X55907053Y-51592947D01*
X57913979Y-50333279D02*
X56431329Y-50333279D01*
X52627100Y-51592900D02*
X52488200Y-51731800D01*
X66843700Y-50301400D02*
X68135200Y-51592900D01*
X52812100Y-51592900D02*
X52627100Y-51592900D01*
X55171708Y-51592900D02*
X52812100Y-51592900D01*
X55171708Y-51592900D02*
X55907006Y-51592900D01*
X58903500Y-50330000D02*
X58407100Y-50826400D01*
X65441700Y-50330000D02*
X61424100Y-50330000D01*
X66401100Y-50301400D02*
X66843700Y-50301400D01*
X52488200Y-51731800D02*
X52488200Y-52108200D01*
X68135200Y-51592900D02*
X68407100Y-51592900D01*
X60907100Y-71592900D02*
X60907100Y-70776500D01*
X61410900Y-70272700D02*
X62839200Y-70272700D01*
X60907100Y-70776500D02*
X61410900Y-70272700D01*
X55618000Y-71303800D02*
X55907100Y-71592900D01*
X65907100Y-71592900D02*
X65907100Y-70805600D01*
X57129900Y-70315700D02*
X55785800Y-70315700D01*
X52505700Y-71592900D02*
X52505700Y-70559100D01*
X63925700Y-70322000D02*
X65423500Y-70322000D01*
X52505700Y-71592900D02*
X50907100Y-71592900D01*
X66658500Y-70269000D02*
X67982400Y-71592900D01*
X58918300Y-70331700D02*
X58032100Y-71217900D01*
X65907100Y-70805600D02*
X66443700Y-70269000D01*
X55618000Y-70483500D02*
X55618000Y-71303800D01*
X65423500Y-70322000D02*
X65907100Y-70805600D01*
X60462300Y-70331700D02*
X58918300Y-70331700D01*
X55423500Y-70289000D02*
X55618000Y-70483500D01*
X63407100Y-71592900D02*
X63407100Y-70840600D01*
X66443700Y-70269000D02*
X66658500Y-70269000D01*
X58032100Y-71217900D02*
X57129900Y-70315700D01*
X67982400Y-71592900D02*
X68407100Y-71592900D01*
X62839200Y-70272700D02*
X63407100Y-70840600D01*
X55785800Y-70315700D02*
X55618000Y-70483500D01*
X63407100Y-70840600D02*
X63925700Y-70322000D01*
X52505700Y-70559100D02*
X52775800Y-70289000D01*
X52775800Y-70289000D02*
X55423500Y-70289000D01*
X58407100Y-71592900D02*
X58032100Y-71217900D01*
X60907100Y-70776500D02*
X60462300Y-70331700D01*
X53407100Y-71592900D02*
X52505700Y-71592900D01*
X86526400Y-52178100D02*
X86492300Y-52178100D01*
X83913900Y-50321500D02*
X83407100Y-50828300D01*
X84709107Y-50321500D02*
X83913900Y-50321500D01*
X83407100Y-50828300D02*
X83407100Y-51592900D01*
X85360000Y-51045800D02*
X85360000Y-50972393D01*
X81420821Y-50333279D02*
X80907100Y-50847000D01*
X82912079Y-50333279D02*
X81420821Y-50333279D01*
X86492300Y-52178100D02*
X85907100Y-51592900D01*
X80907100Y-51592900D02*
X70907100Y-51592900D01*
X85907100Y-51592900D02*
X85360000Y-51045800D01*
X85360000Y-50972393D02*
X84709107Y-50321500D01*
X80907100Y-50847000D02*
X80907100Y-51592900D01*
X83407100Y-50828300D02*
X82912079Y-50333279D01*
X88407100Y-51592900D02*
X85907100Y-51592900D01*
X78937000Y-70267000D02*
X80847400Y-70267000D01*
X75907100Y-70842200D02*
X76465700Y-70283600D01*
X78407100Y-70796900D02*
X78407100Y-71592900D01*
X80847400Y-70267000D02*
X80907100Y-70326700D01*
X83407100Y-71592900D02*
X83036700Y-71222400D01*
X83036700Y-71222400D02*
X82140900Y-70326700D01*
X73053500Y-70788300D02*
X73407100Y-70788300D01*
X73407100Y-70788300D02*
X73407100Y-71592900D01*
X75907100Y-70842200D02*
X75907100Y-71592900D01*
X85907100Y-70783900D02*
X85393000Y-70269800D01*
X76465700Y-70283600D02*
X77893800Y-70283600D01*
X78407100Y-70796900D02*
X78937000Y-70267000D01*
X86515600Y-70306100D02*
X86515600Y-70100100D01*
X72376100Y-70110900D02*
X73053500Y-70788300D01*
X75379400Y-70842200D02*
X75907100Y-70842200D01*
X82140900Y-70326700D02*
X80907100Y-70326700D01*
X88407100Y-71592900D02*
X87120300Y-70306100D01*
X77893800Y-70283600D02*
X78407100Y-70796900D01*
X70528100Y-70110900D02*
X72376100Y-70110900D01*
X74864500Y-70327300D02*
X75379400Y-70842200D01*
X70219700Y-70905500D02*
X70219700Y-70419300D01*
X86515600Y-70306100D02*
X86384900Y-70306100D01*
X86384900Y-70306100D02*
X85907100Y-70783900D01*
X87120300Y-70306100D02*
X86515600Y-70306100D01*
X70219700Y-70419300D02*
X70528100Y-70110900D01*
X83989300Y-70269800D02*
X83036700Y-71222400D01*
X85393000Y-70269800D02*
X83989300Y-70269800D01*
X85907100Y-70783900D02*
X85907100Y-71592900D01*
X70907100Y-71592900D02*
X70219700Y-70905500D01*
X73407100Y-70788300D02*
X73868100Y-70327300D01*
X80907100Y-70326700D02*
X80907100Y-71592900D01*
X73868100Y-70327300D02*
X74864500Y-70327300D01*
X52936800Y-54092900D02*
X52936800Y-54657000D01*
X55907100Y-54092900D02*
X58407100Y-54092900D01*
X63407100Y-54092900D02*
X60907100Y-54092900D01*
X53407100Y-54092900D02*
X52936800Y-54092900D01*
X60907100Y-54092900D02*
X58407100Y-54092900D01*
X65907100Y-54092900D02*
X63407100Y-54092900D01*
X52936800Y-54092900D02*
X50907100Y-54092900D01*
X53407100Y-54092900D02*
X55907100Y-54092900D01*
X68407100Y-54092900D02*
X65907100Y-54092900D01*
X58044700Y-74092900D02*
X55907100Y-74092900D01*
X67237500Y-72923300D02*
X68407100Y-74092900D01*
X60907100Y-74092900D02*
X60742400Y-73928200D01*
X51172900Y-74358700D02*
X53141300Y-74358700D01*
X67237500Y-71885700D02*
X67237500Y-72923300D01*
X65907100Y-74092900D02*
X65884200Y-74070000D01*
X59446500Y-73928200D02*
X59281800Y-74092900D01*
X53175100Y-73282300D02*
X53407100Y-73514300D01*
X53141300Y-74358700D02*
X53407100Y-74092900D01*
X65884200Y-74070000D02*
X63430000Y-74070000D01*
X60742400Y-73928200D02*
X59446500Y-73928200D01*
X58225900Y-73139700D02*
X58225900Y-73911700D01*
X58225900Y-73911700D02*
X58044700Y-74092900D01*
X53407100Y-73514300D02*
X53407100Y-74092900D01*
X63951000Y-74636800D02*
X63407100Y-74092900D01*
X63430000Y-74070000D02*
X63407100Y-74092900D01*
X50907100Y-74092900D02*
X51172900Y-74358700D01*
X58225900Y-73911700D02*
X58407100Y-74092900D01*
X59281800Y-74092900D02*
X58407100Y-74092900D01*
X85907100Y-53352200D02*
X85907100Y-54092900D01*
X78407100Y-53564400D02*
X76907600Y-52064900D01*
X71064300Y-54250100D02*
X73249900Y-54250100D01*
X70907100Y-54092900D02*
X71064300Y-54250100D01*
X78407100Y-54092900D02*
X78407100Y-53564400D01*
X83407100Y-54092900D02*
X85907100Y-54092900D01*
X86468300Y-52791000D02*
X85907100Y-53352200D01*
X76489400Y-52064900D02*
X75907100Y-52647200D01*
X73249900Y-54250100D02*
X73407100Y-54092900D01*
X83138900Y-54865000D02*
X83138900Y-54730900D01*
X78915400Y-54887100D02*
X78407100Y-54378800D01*
X83138900Y-54730900D02*
X81545100Y-54730900D01*
X83407100Y-54092900D02*
X83407100Y-54462700D01*
X78407100Y-54378800D02*
X78407100Y-54092900D01*
X87591300Y-52791000D02*
X86468300Y-52791000D01*
X83407100Y-54462700D02*
X83138900Y-54730900D01*
X75907100Y-52647200D02*
X75907100Y-54092900D01*
X75907100Y-54092900D02*
X73407100Y-54092900D01*
X76907600Y-52064900D02*
X76489400Y-52064900D01*
X88407100Y-54092900D02*
X88407100Y-53606800D01*
X88407100Y-53606800D02*
X87591300Y-52791000D01*
X81545100Y-54730900D02*
X80907100Y-54092900D01*
X78407100Y-74526100D02*
X78407100Y-74092900D01*
X75907100Y-74818000D02*
X75988800Y-74899700D01*
X73407100Y-74092900D02*
X70907100Y-74092900D01*
X75819900Y-74005700D02*
X73494300Y-74005700D01*
X82639200Y-73325000D02*
X83407100Y-74092900D01*
X80389500Y-74610500D02*
X80907100Y-74092900D01*
X75907100Y-74092900D02*
X75907100Y-74818000D01*
X87649300Y-73439300D02*
X87640000Y-73430000D01*
X87649300Y-74092900D02*
X85907100Y-74092900D01*
X78718900Y-74837900D02*
X78407100Y-74526100D01*
X87649300Y-74092900D02*
X87649300Y-73439300D01*
X75907100Y-74092900D02*
X75819900Y-74005700D01*
X73494300Y-74005700D02*
X73407100Y-74092900D01*
X82639200Y-73252800D02*
X82639200Y-73325000D01*
X88407100Y-74092900D02*
X87649300Y-74092900D01*
X58519173Y-56480827D02*
X58407100Y-56592900D01*
X64878300Y-54790000D02*
X64878300Y-55306700D01*
X54639600Y-55325400D02*
X53938100Y-55325400D01*
X65221800Y-56592900D02*
X65907100Y-56592900D01*
X63407100Y-56592900D02*
X63407100Y-55814400D01*
X57536500Y-54855200D02*
X55792300Y-54855200D01*
X50907100Y-56592900D02*
X53407100Y-56592900D01*
X68407100Y-56592900D02*
X68407100Y-55917100D01*
X64878300Y-55306700D02*
X64878300Y-56249400D01*
X63407100Y-55814400D02*
X64431500Y-54790000D01*
X60180000Y-55250000D02*
X60154500Y-55224500D01*
X64431500Y-54790000D02*
X64878300Y-54790000D01*
X57905800Y-55224500D02*
X57536500Y-54855200D01*
X59254565Y-56480827D02*
X58519173Y-56480827D01*
X60180000Y-55250000D02*
X60180000Y-55555392D01*
X60180000Y-55555392D02*
X59254565Y-56480827D01*
X53407100Y-55856400D02*
X53407100Y-56592900D01*
X54980900Y-55666600D02*
X54639600Y-55325400D01*
X64878300Y-56249400D02*
X65221800Y-56592900D01*
X68407100Y-55917100D02*
X67280000Y-54790000D01*
X60907100Y-56592900D02*
X63407100Y-56592900D01*
X53938100Y-55325400D02*
X53407100Y-55856400D01*
X55907100Y-56592900D02*
X54980900Y-55666600D01*
X62842700Y-55250000D02*
X63407100Y-55814400D01*
X67280000Y-54790000D02*
X64878300Y-54790000D01*
X60154500Y-55224500D02*
X57905800Y-55224500D01*
X60180000Y-55250000D02*
X62842700Y-55250000D01*
X55792300Y-54855200D02*
X54980900Y-55666600D01*
X55907100Y-76592900D02*
X53407100Y-76592900D01*
X59573200Y-76592900D02*
X60907100Y-76592900D01*
X62969100Y-77030900D02*
X62153100Y-77030900D01*
X65219800Y-76139300D02*
X65673400Y-76592900D01*
X58407100Y-76592900D02*
X59573200Y-76592900D01*
X63407100Y-76592900D02*
X62969100Y-77030900D01*
X50907100Y-76592900D02*
X53407100Y-76592900D01*
X55907100Y-76592900D02*
X58407100Y-76592900D01*
X59573200Y-76592900D02*
X59573200Y-76794600D01*
X65673400Y-76592900D02*
X68407100Y-76592900D01*
X75907100Y-56592900D02*
X75240000Y-57260000D01*
X88270900Y-56500700D02*
X85999300Y-56500700D01*
X85907100Y-56592900D02*
X85907100Y-55660200D01*
X74233993Y-57260000D02*
X73803993Y-56830000D01*
X88363100Y-56592900D02*
X88270900Y-56500700D01*
X83407100Y-55524200D02*
X83407100Y-56592900D01*
X83407100Y-56592900D02*
X75907100Y-56592900D01*
X75240000Y-57260000D02*
X74233993Y-57260000D01*
X88363100Y-56592900D02*
X88363100Y-57439100D01*
X85907100Y-55660200D02*
X84784000Y-54537100D01*
X88363100Y-56592900D02*
X88407100Y-56592900D01*
X84784000Y-54537100D02*
X84394200Y-54537100D01*
X85999300Y-56500700D02*
X85907100Y-56592900D01*
X84394200Y-54537100D02*
X83407100Y-55524200D01*
X73803993Y-56830000D02*
X71144200Y-56830000D01*
X71144200Y-56830000D02*
X70907100Y-56592900D01*
X74873500Y-75508500D02*
X74676000Y-75311000D01*
X74676000Y-75311000D02*
X73923300Y-75311000D01*
X73224700Y-76410500D02*
X72343000Y-76410500D01*
X72160600Y-76592900D02*
X70907100Y-76592900D01*
X88407100Y-76592900D02*
X85907100Y-76592900D01*
X73407100Y-75827200D02*
X73407100Y-76592900D01*
X88135000Y-76592900D02*
X87731600Y-76189500D01*
X73407100Y-76592900D02*
X73224700Y-76410500D01*
X83407100Y-77188500D02*
X83407100Y-76592900D01*
X78407100Y-77216200D02*
X78407100Y-76592900D01*
X72343000Y-76410500D02*
X72160600Y-76592900D01*
X83407100Y-76592900D02*
X80907100Y-76592900D01*
X75907100Y-76592900D02*
X74873500Y-75559300D01*
X83692400Y-77473800D02*
X83407100Y-77188500D01*
X77822300Y-77801000D02*
X78407100Y-77216200D01*
X74873500Y-75559300D02*
X74873500Y-75508500D01*
X73923300Y-75311000D02*
X73407100Y-75827200D01*
X88407100Y-76592900D02*
X88135000Y-76592900D01*
X65956400Y-59043600D02*
X65907100Y-59092900D01*
X62769500Y-58455300D02*
X62769500Y-58404500D01*
X53376800Y-59062600D02*
X53407100Y-59092900D01*
X55907100Y-59092900D02*
X58407100Y-59092900D01*
X68407100Y-59092900D02*
X68092400Y-59407600D01*
X55907100Y-58195500D02*
X55907100Y-59092900D01*
X52404000Y-59062600D02*
X53376800Y-59062600D01*
X60848600Y-59034400D02*
X58465600Y-59034400D01*
X60907100Y-59092900D02*
X60848600Y-59034400D01*
X58465600Y-59034400D02*
X58407100Y-59092900D01*
X68092400Y-59407600D02*
X67202400Y-59407600D01*
X66838400Y-59043600D02*
X65956400Y-59043600D01*
X55238100Y-57526500D02*
X55907100Y-58195500D01*
X65907100Y-59092900D02*
X63407100Y-59092900D01*
X63407100Y-59092900D02*
X62769500Y-58455300D01*
X50907100Y-59092900D02*
X53407100Y-59092900D01*
X67202400Y-59407600D02*
X66838400Y-59043600D01*
X56303100Y-77818400D02*
X55907100Y-78214400D01*
X50907100Y-78331700D02*
X51449000Y-77789800D01*
X55907100Y-78214400D02*
X55907100Y-79092900D01*
X53013600Y-78699400D02*
X53904500Y-77808500D01*
X60907100Y-79092900D02*
X61134200Y-79320000D01*
X63180000Y-79320000D02*
X63407100Y-79092900D01*
X52104000Y-77789800D02*
X53013600Y-78699400D01*
X53013600Y-78699400D02*
X53407100Y-79092900D01*
X61601900Y-79457100D02*
X61601900Y-79320000D01*
X61134200Y-79320000D02*
X61601900Y-79320000D01*
X53904500Y-77808500D02*
X55501200Y-77808500D01*
X50907100Y-79092900D02*
X50907100Y-78331700D01*
X57132600Y-77818400D02*
X56303100Y-77818400D01*
X56303100Y-77818400D02*
X56303100Y-77619400D01*
X55501200Y-77808500D02*
X55907100Y-78214400D01*
X51449000Y-77789800D02*
X52104000Y-77789800D01*
X65907100Y-79092900D02*
X63407100Y-79092900D01*
X58407100Y-79092900D02*
X57132600Y-77818400D01*
X61601900Y-79320000D02*
X63180000Y-79320000D01*
X65907100Y-79092900D02*
X68407100Y-79092900D01*
X88407100Y-59092900D02*
X88407100Y-58614800D01*
X70950400Y-59049600D02*
X73363800Y-59049600D01*
X78407100Y-59092900D02*
X78407100Y-58346900D01*
X84263000Y-57353200D02*
X84968000Y-57353200D01*
X85907100Y-58292300D02*
X85907100Y-59092900D01*
X81757800Y-57443600D02*
X83407100Y-59092900D01*
X78407100Y-59092900D02*
X75907100Y-59092900D01*
X80960200Y-57443600D02*
X81757800Y-57443600D01*
X80691300Y-59092900D02*
X80907100Y-59092900D01*
X78407100Y-58346900D02*
X78961900Y-57792100D01*
X73407100Y-58357508D02*
X73931329Y-57833279D01*
X79838900Y-58240500D02*
X80635800Y-57443600D01*
X73407100Y-59092900D02*
X73407100Y-58357508D01*
X74433900Y-57826100D02*
X77886300Y-57826100D01*
X87619000Y-57826700D02*
X86372700Y-57826700D01*
X80635800Y-57443600D02*
X80960200Y-57443600D01*
X70907100Y-59092900D02*
X70950400Y-59049600D01*
X79838900Y-58240500D02*
X80691300Y-59092900D01*
X88407100Y-58614800D02*
X87619000Y-57826700D01*
X78961900Y-57792100D02*
X79390500Y-57792100D01*
X84968000Y-57353200D02*
X85907100Y-58292300D01*
X77886300Y-57826100D02*
X78407100Y-58346900D01*
X79390500Y-57792100D02*
X79838900Y-58240500D01*
X73363800Y-59049600D02*
X73407100Y-59092900D01*
X74322965Y-57937035D02*
X74433900Y-57826100D01*
X73931329Y-57833279D02*
X74219209Y-57833279D01*
X74219209Y-57833279D02*
X74322965Y-57937035D01*
X86372700Y-57826700D02*
X85907100Y-58292300D01*
X85292000Y-79500000D02*
X85500000Y-79500000D01*
X77890000Y-79610000D02*
X78407100Y-79092900D01*
X75907100Y-79092900D02*
X73407100Y-79092900D01*
X83176500Y-79092900D02*
X83291800Y-78977600D01*
X75907100Y-77998100D02*
X75932700Y-77972500D01*
X73407100Y-79092900D02*
X70907100Y-79092900D01*
X80907100Y-79092900D02*
X83176500Y-79092900D01*
X83291800Y-78977600D02*
X83407100Y-79092900D01*
X85500000Y-79500000D02*
X85907100Y-79092900D01*
X83291800Y-78280400D02*
X83291800Y-78977600D01*
X75907100Y-79092900D02*
X75907100Y-77998100D01*
X85907100Y-79092900D02*
X88407100Y-79092900D01*
X55829700Y-61670300D02*
X53484500Y-61670300D01*
X59840000Y-59815900D02*
X59840000Y-60306400D01*
X58407100Y-61592900D02*
X58443500Y-61629300D01*
X60446400Y-61592900D02*
X60907100Y-61592900D01*
X58443500Y-61629300D02*
X60410000Y-61629300D01*
X68407100Y-61592900D02*
X65907100Y-61592900D01*
X60921200Y-61578800D02*
X60907100Y-61592900D01*
X63407100Y-61592900D02*
X63393000Y-61578800D01*
X56397400Y-60306400D02*
X55907100Y-60796700D01*
X60410000Y-61629300D02*
X60446400Y-61592900D01*
X60446400Y-60912800D02*
X59840000Y-60306400D01*
X55907100Y-60796700D02*
X55907100Y-61592900D01*
X63926400Y-62225200D02*
X63407100Y-61705900D01*
X59840000Y-60306400D02*
X56397400Y-60306400D01*
X60118700Y-59537200D02*
X59840000Y-59815900D01*
X63393000Y-61578800D02*
X60921200Y-61578800D01*
X64812900Y-62225200D02*
X63926400Y-62225200D01*
X55907100Y-61592900D02*
X55829700Y-61670300D01*
X60446400Y-61592900D02*
X60446400Y-60912800D01*
X53484500Y-61670300D02*
X53407100Y-61592900D01*
X63407100Y-61705900D02*
X63407100Y-61592900D01*
X50907100Y-61592900D02*
X53407100Y-61592900D01*
X65907100Y-61592900D02*
X65445200Y-61592900D01*
X65445200Y-61592900D02*
X64812900Y-62225200D01*
X53131000Y-81592900D02*
X53407100Y-81592900D01*
X56128000Y-82437200D02*
X55907100Y-82216300D01*
X65907100Y-81592900D02*
X68407100Y-81592900D01*
X63628300Y-82004500D02*
X65495500Y-82004500D01*
X59935000Y-81592900D02*
X58407100Y-81592900D01*
X63628300Y-81814100D02*
X63628300Y-82004500D01*
X59935000Y-81592900D02*
X59935000Y-82087700D01*
X55907100Y-82216300D02*
X55907100Y-81592900D01*
X63628300Y-82004500D02*
X63628300Y-82404900D01*
X65495500Y-82004500D02*
X65907100Y-81592900D01*
X63407100Y-81592900D02*
X63628300Y-81814100D01*
X52744000Y-81979900D02*
X53131000Y-81592900D01*
X60907100Y-81592900D02*
X59935000Y-81592900D01*
X53407100Y-81592900D02*
X50907100Y-81592900D01*
X73890100Y-60292600D02*
X73407100Y-60775600D01*
X74606800Y-60292600D02*
X73890100Y-60292600D01*
X88407100Y-61592900D02*
X85907100Y-61592900D01*
X85907100Y-61432100D02*
X85907100Y-61592900D01*
X80897200Y-61592900D02*
X80907100Y-61592900D01*
X84806100Y-61592900D02*
X85437000Y-60962000D01*
X70907053Y-61592947D02*
X73407053Y-61592947D01*
X78407100Y-61592900D02*
X75907100Y-61592900D01*
X73407100Y-60775600D02*
X73407100Y-61592900D01*
X75907100Y-61592900D02*
X74606800Y-60292600D01*
X83407100Y-61592900D02*
X84806100Y-61592900D01*
X85437000Y-60962000D02*
X85907100Y-61432100D01*
X78407100Y-61592900D02*
X80907100Y-61592900D01*
X80360000Y-61055700D02*
X80897200Y-61592900D01*
X77697000Y-81903600D02*
X78096400Y-81903600D01*
X79850300Y-82649700D02*
X79850300Y-84136000D01*
X80907100Y-81592900D02*
X79850300Y-82649700D01*
X73246400Y-79845500D02*
X73541600Y-80140700D01*
X73541600Y-80326000D02*
X74640200Y-80326000D01*
X74640200Y-80326000D02*
X76217800Y-81903600D01*
X72476400Y-79845500D02*
X73246400Y-79845500D01*
X87042000Y-81592900D02*
X85907100Y-81592900D01*
X73407100Y-80689600D02*
X73541600Y-80555100D01*
X88407100Y-81592900D02*
X87042000Y-81592900D01*
X71498900Y-80204100D02*
X72117800Y-80204100D01*
X78096400Y-81903600D02*
X78407053Y-81592947D01*
X70907100Y-81592900D02*
X70907100Y-80795900D01*
X73541600Y-80140700D02*
X73541600Y-80326000D01*
X85907100Y-81592900D02*
X83407100Y-81592900D01*
X76217800Y-81903600D02*
X77697000Y-81903600D01*
X70907100Y-80795900D02*
X71498900Y-80204100D01*
X73541600Y-80555100D02*
X73541600Y-80326000D01*
X72117800Y-80204100D02*
X72476400Y-79845500D01*
X73407100Y-81592900D02*
X73407100Y-80689600D01*
X87042000Y-81592900D02*
X87042000Y-81836300D01*
X68407100Y-64092900D02*
X65907100Y-64092900D01*
X55772900Y-63291800D02*
X55772900Y-63958700D01*
X63407100Y-64092900D02*
X63038500Y-63724300D01*
X61666500Y-62078900D02*
X60907100Y-62838300D01*
X60907100Y-64092900D02*
X58407100Y-64092900D01*
X55772900Y-63291800D02*
X55215400Y-62734300D01*
X55215400Y-62734300D02*
X51520100Y-62734300D01*
X55638700Y-64092900D02*
X53407100Y-64092900D01*
X50907100Y-63347300D02*
X50907100Y-64092900D01*
X65018600Y-62500300D02*
X64262500Y-62500300D01*
X55772900Y-63958700D02*
X55907100Y-64092900D01*
X65907100Y-63388800D02*
X65018600Y-62500300D01*
X55772900Y-63958700D02*
X55638700Y-64092900D01*
X51520100Y-62734300D02*
X50907100Y-63347300D01*
X62878300Y-63564100D02*
X63038500Y-63724300D01*
X60907100Y-62838300D02*
X60907100Y-64092900D01*
X64262500Y-62500300D02*
X63038500Y-63724300D01*
X65907100Y-64092900D02*
X65907100Y-63388800D01*
X52860000Y-84610000D02*
X53377100Y-84092900D01*
X58407100Y-84092900D02*
X55907100Y-84092900D01*
X63414000Y-84092900D02*
X63941300Y-84620200D01*
X58407100Y-84092900D02*
X60907100Y-84092900D01*
X53377100Y-84092900D02*
X50907100Y-84092900D01*
X65907100Y-84092900D02*
X65552900Y-83738700D01*
X65552900Y-83738700D02*
X64529700Y-83738700D01*
X52860000Y-84935400D02*
X52860000Y-84610000D01*
X68407100Y-84092900D02*
X65907100Y-84092900D01*
X63407100Y-84092900D02*
X63414000Y-84092900D01*
X64175500Y-84092900D02*
X63407100Y-84092900D01*
X60559000Y-84441000D02*
X60907100Y-84092900D01*
X64529700Y-83738700D02*
X64175500Y-84092900D01*
X60559000Y-84772100D02*
X60559000Y-84441000D01*
X79895400Y-64092900D02*
X79895400Y-65836700D01*
X73407100Y-64092900D02*
X75907100Y-64092900D01*
X87602300Y-62811600D02*
X86384300Y-62811600D01*
X75907100Y-64092900D02*
X75907100Y-63351500D01*
X79575000Y-62760800D02*
X80907100Y-64092900D01*
X75907100Y-63351500D02*
X76497800Y-62760800D01*
X79895400Y-64092900D02*
X80907100Y-64092900D01*
X85907100Y-64092900D02*
X83407100Y-64092900D01*
X86384300Y-62811600D02*
X85907100Y-63288800D01*
X82716700Y-63402500D02*
X83407100Y-64092900D01*
X85907100Y-63288800D02*
X85907100Y-64092900D01*
X76497800Y-62760800D02*
X79575000Y-62760800D01*
X88407100Y-63616400D02*
X87602300Y-62811600D01*
X88407100Y-64092900D02*
X88407100Y-63616400D01*
X70907100Y-64092900D02*
X73407100Y-64092900D01*
X78407100Y-64092900D02*
X79895400Y-64092900D01*
X79002000Y-84687800D02*
X80312200Y-84687800D01*
X74748500Y-85251500D02*
X75907100Y-84092900D01*
X73407100Y-84092900D02*
X73407100Y-84607000D01*
X84488100Y-82555200D02*
X84154500Y-82555200D01*
X78069700Y-84092900D02*
X78069700Y-82903900D01*
X75907100Y-84092900D02*
X78069700Y-84092900D01*
X78407100Y-84092900D02*
X79002000Y-84687800D01*
X80312200Y-84687800D02*
X80907100Y-84092900D01*
X86869400Y-82555200D02*
X84488100Y-82555200D01*
X85907100Y-84092900D02*
X88407100Y-84092900D01*
X73407100Y-84607000D02*
X74051600Y-85251500D01*
X88407100Y-84092900D02*
X86869400Y-82555200D01*
X78069700Y-84092900D02*
X78407100Y-84092900D01*
X83407100Y-83302600D02*
X83407100Y-84092900D01*
X74051600Y-85251500D02*
X74748500Y-85251500D01*
X84154500Y-82555200D02*
X83407100Y-83302600D01*
X70907100Y-84092900D02*
X73407100Y-84092900D01*
X65966200Y-66545900D02*
X65995700Y-66516400D01*
X56620300Y-67375300D02*
X57069600Y-67375300D01*
X55907100Y-66592900D02*
X55907100Y-66662100D01*
X63454100Y-66545900D02*
X63407100Y-66592900D01*
X68330600Y-66516400D02*
X68407100Y-66592900D01*
X63454100Y-66545900D02*
X65966200Y-66545900D01*
X63454100Y-66545900D02*
X62925700Y-66017500D01*
X65954100Y-66545900D02*
X65907100Y-66592900D01*
X60907100Y-66592900D02*
X60812600Y-66687400D01*
X57710300Y-66734600D02*
X57710300Y-66184100D01*
X60812600Y-66687400D02*
X59887600Y-66687400D01*
X52837000Y-66592900D02*
X53407100Y-66592900D01*
X52837000Y-66592900D02*
X52837000Y-66006300D01*
X65966200Y-66545900D02*
X65954100Y-66545900D01*
X65995700Y-66516400D02*
X68330600Y-66516400D01*
X50907100Y-66592900D02*
X52837000Y-66592900D01*
X57069600Y-67375300D02*
X57710300Y-66734600D01*
X57710300Y-66184100D02*
X57998300Y-66184100D01*
X55907100Y-66662100D02*
X56620300Y-67375300D01*
X57998300Y-66184100D02*
X58407100Y-66592900D01*
X56706400Y-85003800D02*
X55907100Y-85803100D01*
X66175800Y-84593600D02*
X65907100Y-84862300D01*
X57061200Y-85003800D02*
X58153400Y-86096000D01*
X58153400Y-86096000D02*
X58153400Y-86339200D01*
X56706400Y-85003800D02*
X57061200Y-85003800D01*
X68407100Y-86592900D02*
X68407100Y-86342000D01*
X51987100Y-86592900D02*
X50907100Y-86592900D01*
X65907100Y-86592900D02*
X63407100Y-86592900D01*
X59646800Y-85332600D02*
X58916800Y-85332600D01*
X65907100Y-84862300D02*
X65907100Y-86592900D01*
X60907100Y-86592900D02*
X59646800Y-85332600D01*
X52310000Y-86270000D02*
X51987100Y-86592900D01*
X68407100Y-86342000D02*
X66658700Y-84593600D01*
X53084200Y-86270000D02*
X53407100Y-86592900D01*
X52310000Y-86270000D02*
X53084200Y-86270000D01*
X58153400Y-86339200D02*
X58407100Y-86592900D01*
X64758900Y-84260900D02*
X65360300Y-84862300D01*
X58916800Y-85332600D02*
X58153400Y-86096000D01*
X55907100Y-85803100D02*
X55907100Y-86592900D01*
X66658700Y-84593600D02*
X66175800Y-84593600D01*
X65360300Y-84862300D02*
X65907100Y-84862300D01*
X75713100Y-65382100D02*
X75713100Y-65623800D01*
X80907100Y-67666500D02*
X80907100Y-66592900D01*
X85907100Y-66592900D02*
X85167400Y-67332600D01*
X73407100Y-66592900D02*
X73407100Y-65146800D01*
X73407100Y-65146800D02*
X74185800Y-64368100D01*
X75713100Y-65623800D02*
X75713100Y-66398900D01*
X74185800Y-64368100D02*
X74699100Y-64368100D01*
X75713100Y-66398900D02*
X75907100Y-66592900D01*
X80883500Y-67690100D02*
X80907100Y-67666500D01*
X88407100Y-66592900D02*
X85907100Y-66592900D01*
X70907100Y-66592900D02*
X73407100Y-66592900D01*
X80907100Y-66592900D02*
X78407100Y-66592900D01*
X74699100Y-64368100D02*
X75713100Y-65382100D01*
X85167400Y-67332600D02*
X84146800Y-67332600D01*
X85907100Y-66592900D02*
X85907100Y-66577900D01*
X85907100Y-66577900D02*
X85364200Y-66035000D01*
X84146800Y-67332600D02*
X83407100Y-66592900D01*
X70907100Y-86592900D02*
X72594300Y-86592900D01*
X80626700Y-86873300D02*
X79910100Y-86873300D01*
X77889800Y-87110200D02*
X77889800Y-86851500D01*
X85907100Y-86592900D02*
X88407100Y-86592900D01*
X80907100Y-86592900D02*
X80626700Y-86873300D01*
X85907100Y-86151500D02*
X84968100Y-85212500D01*
X83407100Y-86592900D02*
X80907100Y-86592900D01*
X72594300Y-86592900D02*
X72594300Y-86343100D01*
X78148500Y-86851500D02*
X77889800Y-86851500D01*
X78407100Y-86592900D02*
X78148500Y-86851500D01*
X77889800Y-86851500D02*
X76165700Y-86851500D01*
X76165700Y-86851500D02*
X75907100Y-86592900D01*
X72594300Y-86592900D02*
X73407100Y-86592900D01*
X85907100Y-86592900D02*
X85907100Y-86151500D01*
X60147400Y-69852600D02*
X59166800Y-69852600D01*
X68296500Y-69203500D02*
X67333900Y-69203500D01*
X54828400Y-69318400D02*
X54828400Y-69092900D01*
X67160400Y-69030000D02*
X65970000Y-69030000D01*
X68407100Y-69092900D02*
X68296500Y-69203500D01*
X58407100Y-69092900D02*
X54828400Y-69092900D01*
X59166800Y-69852600D02*
X58407100Y-69092900D01*
X54828400Y-69092900D02*
X53407100Y-69092900D01*
X67333900Y-69203500D02*
X67160400Y-69030000D01*
X60907100Y-69092900D02*
X60147400Y-69852600D01*
X53407100Y-69092900D02*
X50907100Y-69092900D01*
X65970000Y-69030000D02*
X65907100Y-69092900D01*
X65907100Y-69092900D02*
X60907100Y-69092900D01*
X58407100Y-89092900D02*
X58704200Y-89390000D01*
X51688500Y-89092900D02*
X52192500Y-88588900D01*
X51688500Y-89092900D02*
X50907100Y-89092900D01*
X61330600Y-89516400D02*
X62983600Y-89516400D01*
X60907100Y-89092900D02*
X61330600Y-89516400D01*
X63820000Y-89440000D02*
X65560000Y-89440000D01*
X58704200Y-89390000D02*
X60610000Y-89390000D01*
X52903006Y-88588900D02*
X53407053Y-89092947D01*
X66170000Y-89400000D02*
X68100000Y-89400000D01*
X62983600Y-89516400D02*
X63370000Y-89130000D01*
X65560000Y-89440000D02*
X65907053Y-89092947D01*
X63472947Y-89092947D02*
X63820000Y-89440000D01*
X65907053Y-89092947D02*
X65907053Y-89137053D01*
X54792200Y-88850000D02*
X54549300Y-89092900D01*
X54549300Y-89092900D02*
X53407100Y-89092900D01*
X52192500Y-88588900D02*
X52903006Y-88588900D01*
X68100000Y-89400000D02*
X68407053Y-89092947D01*
X55035100Y-89092900D02*
X58407100Y-89092900D01*
X60610000Y-89390000D02*
X60907100Y-89092900D01*
X65907053Y-89137053D02*
X66170000Y-89400000D01*
X63407053Y-89092947D02*
X63472947Y-89092947D01*
X54792200Y-88850000D02*
X55035100Y-89092900D01*
X75907100Y-69092900D02*
X75595100Y-68780900D01*
X85542000Y-69458000D02*
X85249400Y-69458000D01*
X83772200Y-69458000D02*
X83407100Y-69092900D01*
X79564000Y-68971500D02*
X79442600Y-69092900D01*
X74155800Y-69092900D02*
X73407100Y-69092900D01*
X88040000Y-69460000D02*
X85544000Y-69460000D01*
X80785700Y-68971500D02*
X79564000Y-68971500D01*
X88407100Y-69092900D02*
X88040000Y-69460000D01*
X83407100Y-69092900D02*
X80907100Y-69092900D01*
X70907100Y-69092900D02*
X73407100Y-69092900D01*
X79442600Y-69092900D02*
X78407100Y-69092900D01*
X80907100Y-69092900D02*
X80785700Y-68971500D01*
X85544000Y-69460000D02*
X85542000Y-69458000D01*
X75907100Y-69092900D02*
X78407100Y-69092900D01*
X74467700Y-68780900D02*
X74155800Y-69092800D01*
X75595100Y-68780900D02*
X74467700Y-68780900D01*
X74155800Y-69092800D02*
X74155800Y-69092900D01*
X85249400Y-69458000D02*
X83772200Y-69458000D01*
X88407100Y-89092900D02*
X85907100Y-89092900D01*
X70907053Y-89092947D02*
X73407053Y-89092947D01*
X77071793Y-89092900D02*
X77261893Y-89283000D01*
X83044200Y-88730000D02*
X83407100Y-89092900D01*
X73407100Y-89092900D02*
X77071793Y-89092900D01*
X77676107Y-89283000D02*
X77866207Y-89092900D01*
X83407100Y-89092900D02*
X84259600Y-89092900D01*
X77866207Y-89092900D02*
X81650200Y-89092900D01*
X84259600Y-89092900D02*
X85090800Y-88261700D01*
X85090800Y-88261700D02*
X85907100Y-89078000D01*
X81650200Y-89092900D02*
X82013100Y-88730000D01*
X85907100Y-89078000D02*
X85907100Y-89092900D01*
X77261893Y-89283000D02*
X77676107Y-89283000D01*
X82013100Y-88730000D02*
X83044200Y-88730000D01*
X50332500Y-66354600D02*
X50332500Y-67146700D01*
X51592900Y-65907100D02*
X50780000Y-65907100D01*
X50780000Y-65907100D02*
X50332500Y-66354600D01*
X50606600Y-58407100D02*
X51592900Y-58407100D01*
X50730950Y-50710950D02*
X51396750Y-50710950D01*
X51220600Y-60534700D02*
X50332600Y-61422700D01*
X51592900Y-64667500D02*
X51592900Y-63407100D01*
X50606600Y-58407100D02*
X50281700Y-58082200D01*
X50827900Y-55907100D02*
X50332500Y-55411700D01*
X50730950Y-50710950D02*
X50333279Y-51108621D01*
X50332500Y-55411700D02*
X50332500Y-53877600D01*
X50401400Y-59715600D02*
X50401400Y-59715500D01*
X50332500Y-58877600D02*
X50606600Y-58603500D01*
X50332500Y-67146700D02*
X51592900Y-68407100D01*
X51491300Y-53305500D02*
X51592900Y-53407100D01*
X51592900Y-60907100D02*
X51220600Y-60534700D01*
X50401400Y-59715500D02*
X50332500Y-59646600D01*
X51592900Y-65907100D02*
X51592900Y-64667500D01*
X50333279Y-52734179D02*
X50904600Y-53305500D01*
X50332600Y-61422700D02*
X50332600Y-64239100D01*
X50332500Y-53877600D02*
X50904600Y-53305500D01*
X51396750Y-50710950D02*
X51592900Y-50907100D01*
X51220600Y-60534700D02*
X50401400Y-59715600D01*
X50904600Y-53305500D02*
X51491300Y-53305500D01*
X50281700Y-58082200D02*
X50281700Y-56453300D01*
X50332500Y-59646600D02*
X50332500Y-58877600D01*
X50281700Y-56453300D02*
X50827900Y-55907100D01*
X50606600Y-58603500D02*
X50606600Y-58407100D01*
X50333279Y-51108621D02*
X50333279Y-52734179D01*
X50332600Y-64239100D02*
X50761000Y-64667500D01*
X50761000Y-64667500D02*
X51592900Y-64667500D01*
X51592900Y-55907100D02*
X50827900Y-55907100D01*
X53322000Y-63368700D02*
X53322000Y-63407100D01*
X54903500Y-52294900D02*
X54092900Y-53105500D01*
X53322000Y-63407100D02*
X52827400Y-63901700D01*
X53245100Y-63291800D02*
X53322000Y-63368700D01*
X52827400Y-63901700D02*
X52827400Y-64641600D01*
X54092900Y-60907100D02*
X54092900Y-60853200D01*
X52827400Y-64641600D02*
X54092900Y-65907100D01*
X53895800Y-50710000D02*
X54092900Y-50907100D01*
X53090800Y-60853200D02*
X54092900Y-60853200D01*
X54092900Y-63407100D02*
X53322000Y-63407100D01*
X53020000Y-50710000D02*
X53895800Y-50710000D01*
X54092900Y-68407100D02*
X54092900Y-65907100D01*
X54092900Y-53105500D02*
X54092900Y-53407100D01*
X54092900Y-60853200D02*
X54092900Y-58407100D01*
X54092900Y-55907100D02*
X54092900Y-58407100D01*
X57095500Y-52904500D02*
X57095500Y-51470500D01*
X56592900Y-65907100D02*
X55767000Y-65907100D01*
X56592900Y-57381300D02*
X56592900Y-58407100D01*
X56592900Y-55907100D02*
X56592900Y-57381300D01*
X55291600Y-66382500D02*
X55291600Y-67105800D01*
X56592900Y-53407100D02*
X57095500Y-52904500D01*
X56592900Y-50907100D02*
X57095500Y-51409700D01*
X56592900Y-60907100D02*
X57403200Y-60907100D01*
X55767000Y-65907100D02*
X55291600Y-66382500D01*
X56592900Y-63407100D02*
X56592900Y-60907100D01*
X57095500Y-51409700D02*
X57095500Y-51470500D01*
X55291600Y-67105800D02*
X56592900Y-68407100D01*
X56592900Y-65907100D02*
X56592900Y-63407100D01*
X59496600Y-51310800D02*
X59496600Y-51574600D01*
X59092900Y-68407100D02*
X59349500Y-68150500D01*
X57816900Y-61446600D02*
X58356400Y-60907100D01*
X58356400Y-60907100D02*
X59092900Y-60907100D01*
X57816900Y-62907700D02*
X57816900Y-61446600D01*
X59092900Y-58046807D02*
X59092900Y-58407100D01*
X59349500Y-66163700D02*
X59092900Y-65907100D01*
X58632118Y-57586025D02*
X58561925Y-57586025D01*
X57825600Y-63897800D02*
X58316300Y-63407100D01*
X58632118Y-57586025D02*
X59092900Y-58046807D01*
X58316300Y-63407100D02*
X57816900Y-62907700D01*
X57817100Y-56395700D02*
X58305700Y-55907100D01*
X59092900Y-50907100D02*
X59496600Y-51310800D01*
X58316300Y-63407100D02*
X59092900Y-63407100D01*
X59349500Y-68150500D02*
X59349500Y-66163700D01*
X59315000Y-61129200D02*
X59092900Y-60907100D01*
X57825600Y-64639800D02*
X57825600Y-63897800D01*
X59896300Y-61129200D02*
X59315000Y-61129200D01*
X58561925Y-57586025D02*
X57817100Y-56841200D01*
X58305700Y-55907100D02*
X59092900Y-55907100D01*
X59496600Y-53003400D02*
X59092900Y-53407100D01*
X57817100Y-56841200D02*
X57817100Y-56395700D01*
X59496600Y-51574600D02*
X59496600Y-53003400D01*
X59092900Y-65907100D02*
X57825600Y-64639800D01*
X60978100Y-57416400D02*
X60307800Y-56746100D01*
X61719700Y-58533900D02*
X61592900Y-58407100D01*
X61085300Y-57899500D02*
X61592900Y-58407100D01*
X61592900Y-60907100D02*
X61719700Y-60780300D01*
X61592900Y-63407100D02*
X61592900Y-63069500D01*
X61592900Y-50907100D02*
X61592900Y-53407100D01*
X61592900Y-65907100D02*
X61592900Y-63407100D01*
X62525806Y-50882443D02*
X61617557Y-50882443D01*
X61617557Y-50882443D02*
X61592900Y-50907100D01*
X61719700Y-60780300D02*
X61719700Y-58533900D01*
X60854900Y-55907100D02*
X61592900Y-55907100D01*
X60307800Y-56454200D02*
X60854900Y-55907100D01*
X61592900Y-63069500D02*
X62583500Y-62078900D01*
X61592900Y-68407100D02*
X61592900Y-65907100D01*
X60307800Y-56746100D02*
X60307800Y-56454200D01*
X60978100Y-57899500D02*
X61085300Y-57899500D01*
X60978100Y-57899500D02*
X60978100Y-57416400D01*
X64092900Y-55907100D02*
X64696800Y-56511000D01*
X64092900Y-63407100D02*
X64499500Y-63000500D01*
X64092900Y-61573600D02*
X64244300Y-61725000D01*
X64092900Y-60907100D02*
X64092900Y-61573600D01*
X64244000Y-63558200D02*
X64092900Y-63407100D01*
X64696800Y-56511000D02*
X64696800Y-57942900D01*
X63280200Y-50907100D02*
X62824700Y-51362600D01*
X62824700Y-52138900D02*
X64092900Y-53407100D01*
X64244000Y-65756000D02*
X64244000Y-63558200D01*
X64092900Y-67929200D02*
X64092900Y-68407100D01*
X64568800Y-67453300D02*
X64092900Y-67929200D01*
X64092900Y-50907100D02*
X63280200Y-50907100D01*
X64092900Y-65907100D02*
X64244000Y-65756000D01*
X62795100Y-52025900D02*
X62824700Y-52025900D01*
X64557100Y-57942900D02*
X64696800Y-57942900D01*
X64744900Y-63000500D02*
X64744900Y-63000400D01*
X64092900Y-58407100D02*
X64557100Y-57942900D01*
X62824700Y-51362600D02*
X62824700Y-52025900D01*
X64499500Y-63000500D02*
X64744900Y-63000500D01*
X62824700Y-52025900D02*
X62824700Y-52138900D01*
X66592900Y-55907100D02*
X66592900Y-58139900D01*
X66592900Y-65907100D02*
X66592900Y-65362900D01*
X65663500Y-67477700D02*
X65663500Y-67459100D01*
X66893600Y-51796100D02*
X66592900Y-51796100D01*
X66592900Y-63407100D02*
X66592900Y-63298800D01*
X66592900Y-63298800D02*
X65519700Y-62225600D01*
X66592900Y-53407100D02*
X66592900Y-51796100D01*
X66592900Y-65362900D02*
X65980000Y-64750000D01*
X66592900Y-60907100D02*
X66592900Y-59582000D01*
X65780100Y-58139900D02*
X66592900Y-58139900D01*
X66592900Y-58139900D02*
X66592900Y-58407100D01*
X66592900Y-59582000D02*
X66631200Y-59543700D01*
X66592900Y-68407100D02*
X65663500Y-67477700D01*
X65116700Y-65083300D02*
X65116700Y-66018400D01*
X65980000Y-64750000D02*
X65450000Y-64750000D01*
X65450000Y-64750000D02*
X65116700Y-65083300D01*
X66592900Y-51796100D02*
X66592900Y-50907100D01*
X69092900Y-68407100D02*
X69092900Y-65907100D01*
X69092900Y-65907100D02*
X69092900Y-63407100D01*
X69092900Y-50907100D02*
X68156600Y-50907100D01*
X69092900Y-63407100D02*
X69092900Y-60907100D01*
X68156600Y-50907100D02*
X68094700Y-50845200D01*
X69092900Y-53407100D02*
X69092900Y-55907100D01*
X69092900Y-53407100D02*
X69092900Y-50907100D01*
X69092900Y-55907100D02*
X69092900Y-58407100D01*
X69092900Y-58407100D02*
X69092900Y-60907100D01*
X50904600Y-73305500D02*
X51491300Y-73305500D01*
X50401400Y-82215600D02*
X51220600Y-83034700D01*
X51491300Y-73305500D02*
X51592900Y-73407100D01*
X50285500Y-76469800D02*
X50285500Y-79192000D01*
X50332500Y-83922800D02*
X50332500Y-85436600D01*
X51592900Y-78407100D02*
X51592900Y-79667500D01*
X50305700Y-87720400D02*
X50791600Y-88206300D01*
X51592900Y-70907100D02*
X50827900Y-70907100D01*
X51191200Y-85505400D02*
X51592900Y-85907100D01*
X50332500Y-81354600D02*
X50332500Y-82146600D01*
X50992400Y-88407100D02*
X50791600Y-88206300D01*
X50332500Y-82146600D02*
X50401400Y-82215500D01*
X50281700Y-72682600D02*
X50904600Y-73305500D01*
X50401300Y-85505400D02*
X51191200Y-85505400D01*
X51220600Y-75534700D02*
X50285500Y-76469800D01*
X51220600Y-83034700D02*
X51592900Y-83407100D01*
X51220600Y-83034700D02*
X50332500Y-83922800D01*
X50285500Y-79192000D02*
X50761000Y-79667500D01*
X50332500Y-73877600D02*
X50904600Y-73305500D01*
X50780000Y-80907100D02*
X50332500Y-81354600D01*
X51220600Y-75534700D02*
X50401400Y-74715600D01*
X50332500Y-85436600D02*
X50401300Y-85505400D01*
X50401400Y-74715500D02*
X50332500Y-74646600D01*
X50281700Y-71453300D02*
X50281700Y-72682600D01*
X50401400Y-74715600D02*
X50401400Y-74715500D01*
X51592900Y-80907100D02*
X50780000Y-80907100D01*
X50401400Y-82215500D02*
X50401400Y-82215600D01*
X51592900Y-75907100D02*
X51220600Y-75534700D01*
X51592900Y-88407100D02*
X50992400Y-88407100D01*
X50305700Y-85601000D02*
X50305700Y-87720400D01*
X50761000Y-79667500D02*
X51592900Y-79667500D01*
X50827900Y-70907100D02*
X50281700Y-71453300D01*
X50332500Y-74646600D02*
X50332500Y-73877600D01*
X51592900Y-79667500D02*
X51592900Y-80907100D01*
X50401300Y-85505400D02*
X50305700Y-85601000D01*
X54092900Y-75606800D02*
X54092900Y-75907100D01*
X54092900Y-82413400D02*
X54092900Y-80907100D01*
X54092900Y-73407100D02*
X54092900Y-70907100D01*
X54092900Y-85907100D02*
X54092900Y-87505000D01*
X53103900Y-87505000D02*
X54092900Y-87505000D01*
X54092900Y-83407100D02*
X54092900Y-85907100D01*
X54092900Y-87505000D02*
X54092900Y-88407100D01*
X54092900Y-75606800D02*
X53073200Y-75606800D01*
X54092900Y-78407100D02*
X54092900Y-80907100D01*
X53073200Y-75606800D02*
X52640000Y-76040000D01*
X54092900Y-73407100D02*
X54092900Y-75606800D01*
X54092900Y-83407100D02*
X54092900Y-82413400D01*
X56592900Y-73407100D02*
X55834900Y-73407100D01*
X56592900Y-75907100D02*
X57258200Y-75907100D01*
X56781900Y-88218100D02*
X56781900Y-87388700D01*
X56781900Y-87388700D02*
X56592900Y-87199700D01*
X55834900Y-73407100D02*
X55309000Y-73933000D01*
X54851800Y-86266500D02*
X54851800Y-84345000D01*
X56632500Y-83367500D02*
X56632500Y-80946700D01*
X57400400Y-88218100D02*
X56781900Y-88218100D01*
X56592900Y-78407100D02*
X56592900Y-80907100D01*
X56592900Y-83407100D02*
X56632500Y-83367500D01*
X56592900Y-87199700D02*
X56592900Y-85907100D01*
X56592900Y-73407100D02*
X56592900Y-70907100D01*
X56592900Y-87199700D02*
X55785000Y-87199700D01*
X57258200Y-75907100D02*
X57392700Y-76041600D01*
X55789700Y-83407100D02*
X56592900Y-83407100D01*
X56632500Y-80946700D02*
X56592900Y-80907100D01*
X56781900Y-88218100D02*
X56592900Y-88407100D01*
X55785000Y-87199700D02*
X54851800Y-86266500D01*
X55309000Y-74623200D02*
X56592900Y-75907100D01*
X55309000Y-73933000D02*
X55309000Y-74623200D01*
X54851800Y-84345000D02*
X55789700Y-83407100D01*
X59896500Y-71710700D02*
X59092900Y-70907100D01*
X58975200Y-83407100D02*
X59092900Y-83407100D01*
X59092900Y-78407100D02*
X59092900Y-80907100D01*
X59864400Y-73407100D02*
X59896500Y-73375000D01*
X59092900Y-88262600D02*
X59784700Y-87570800D01*
X57814000Y-82245900D02*
X58975200Y-83407100D01*
X59231600Y-76045800D02*
X59092900Y-75907100D01*
X59896500Y-73375000D02*
X59896500Y-71710700D01*
X59893200Y-83407100D02*
X59092900Y-83407100D01*
X59092900Y-80907100D02*
X58324000Y-80907100D01*
X59784700Y-87570800D02*
X59784700Y-86598900D01*
X59092900Y-73407100D02*
X59864400Y-73407100D01*
X59092900Y-88407100D02*
X59092900Y-88262600D01*
X58324000Y-80907100D02*
X57814000Y-81417100D01*
X59934900Y-76045800D02*
X59231600Y-76045800D01*
X57814000Y-81417100D02*
X57814000Y-82245900D01*
X59784700Y-86598900D02*
X59092900Y-85907100D01*
X60940000Y-88030000D02*
X60940000Y-87320000D01*
X61215894Y-88030000D02*
X61592947Y-88407053D01*
X60940000Y-87320000D02*
X61592900Y-86667100D01*
X61592900Y-78407100D02*
X61592900Y-70907100D01*
X61592900Y-80907100D02*
X60332500Y-79646700D01*
X60940000Y-88030000D02*
X61215894Y-88030000D01*
X60332500Y-79646700D02*
X60332500Y-78854600D01*
X60332500Y-78854600D02*
X60780000Y-78407100D01*
X61592900Y-86667100D02*
X61592900Y-80907100D01*
X60780000Y-78407100D02*
X61592900Y-78407100D01*
X63332400Y-85907100D02*
X64092900Y-85907100D01*
X63322900Y-73407100D02*
X62804500Y-73925500D01*
X63324000Y-80907100D02*
X64092900Y-80907100D01*
X64092900Y-70907100D02*
X64092900Y-73407100D01*
X63313300Y-87627500D02*
X63313300Y-87489000D01*
X62814000Y-81417100D02*
X63324000Y-80907100D01*
X63320600Y-83407100D02*
X64092900Y-83407100D01*
X62804500Y-73925500D02*
X62804500Y-74618700D01*
X62814000Y-82900500D02*
X62814000Y-81417100D01*
X62792900Y-86968600D02*
X62792900Y-86446600D01*
X64092900Y-78407100D02*
X64092900Y-75907100D01*
X64092900Y-78407100D02*
X62869000Y-78407100D01*
X62804500Y-74618700D02*
X64092900Y-75907100D01*
X62825600Y-85400300D02*
X62825600Y-83902100D01*
X62869000Y-78407100D02*
X62456200Y-78819900D01*
X63320600Y-83407100D02*
X62814000Y-82900500D01*
X64092900Y-88407100D02*
X63313300Y-87627500D01*
X64092900Y-73407100D02*
X63322900Y-73407100D01*
X62825600Y-83902100D02*
X63320600Y-83407100D01*
X63313300Y-87489000D02*
X62792900Y-86968600D01*
X63332400Y-85907100D02*
X62825600Y-85400300D01*
X62792900Y-86446600D02*
X63332400Y-85907100D01*
X64715700Y-77445700D02*
X64715700Y-75937000D01*
X66330000Y-80028800D02*
X66592900Y-80291700D01*
X66592900Y-87714600D02*
X66592900Y-88407100D01*
X64715700Y-75937000D02*
X65022700Y-75630000D01*
X66592900Y-75907100D02*
X66592900Y-70907100D01*
X65677100Y-78407100D02*
X66592900Y-78407100D01*
X66527600Y-82220200D02*
X66592900Y-82285500D01*
X66592900Y-80291700D02*
X66592900Y-80907100D01*
X65430000Y-78160000D02*
X65677100Y-78407100D01*
X66315800Y-75630000D02*
X66592900Y-75907100D01*
X66592900Y-85907100D02*
X66592900Y-87714600D01*
X65995100Y-87714600D02*
X66592900Y-87714600D01*
X66592900Y-82285500D02*
X66592900Y-83407100D01*
X65430000Y-78160000D02*
X64715700Y-77445700D01*
X65022700Y-75630000D02*
X66315800Y-75630000D01*
X68925894Y-88240000D02*
X69092947Y-88407053D01*
X68516695Y-88240000D02*
X68925894Y-88240000D01*
X69092900Y-86701700D02*
X69092900Y-70907100D01*
X68120746Y-87673854D02*
X69092900Y-86701700D01*
X68120746Y-87844051D02*
X68516695Y-88240000D01*
X68120746Y-87844051D02*
X68120746Y-87673854D01*
X70776600Y-63407100D02*
X70304500Y-63879200D01*
X72512200Y-62487800D02*
X73298300Y-62487800D01*
X70810700Y-50609600D02*
X71295400Y-50609600D01*
X70803000Y-58407100D02*
X71592900Y-58407100D01*
X71592900Y-55907100D02*
X70822900Y-55907100D01*
X70307300Y-66449700D02*
X70307300Y-67121500D01*
X70304500Y-64618700D02*
X71221400Y-65535600D01*
X71295400Y-50609600D02*
X71592900Y-50907100D01*
X71328500Y-60213500D02*
X71035600Y-59920600D01*
X71328500Y-60642700D02*
X71328500Y-60213500D01*
X70822900Y-55907100D02*
X70332500Y-56397500D01*
X70904600Y-53305500D02*
X71491300Y-53305500D01*
X70810700Y-50609600D02*
X70810700Y-50700300D01*
X70278300Y-52679200D02*
X70904600Y-53305500D01*
X71592900Y-63407100D02*
X70776600Y-63407100D01*
X70332500Y-56397500D02*
X70332500Y-57936600D01*
X71035600Y-59920600D02*
X70998600Y-59920600D01*
X70307300Y-67121500D02*
X71592900Y-68407100D01*
X70332500Y-58877600D02*
X70803000Y-58407100D01*
X70332500Y-53877600D02*
X70904600Y-53305500D01*
X70998600Y-59920600D02*
X70332500Y-59254500D01*
X71221400Y-65535600D02*
X70307300Y-66449700D01*
X70304500Y-63879200D02*
X70304500Y-64618700D01*
X70332500Y-57936600D02*
X70803000Y-58407100D01*
X71221400Y-65535600D02*
X71592900Y-65907100D01*
X70278300Y-51232700D02*
X70278300Y-52679200D01*
X70810700Y-50700300D02*
X70278300Y-51232700D01*
X71592900Y-60907100D02*
X71328500Y-60642700D01*
X71491300Y-53305500D02*
X71592900Y-53407100D01*
X70332500Y-59254500D02*
X70332500Y-58877600D01*
X70822900Y-55907100D02*
X70332500Y-55416700D01*
X70332500Y-55416700D02*
X70332500Y-53877600D01*
X71592900Y-63407100D02*
X72512200Y-62487800D01*
X74950000Y-50850000D02*
X74150000Y-50850000D01*
X74092900Y-60907100D02*
X74092900Y-62428000D01*
X74092900Y-68407100D02*
X75126200Y-67373800D01*
X74736000Y-65960200D02*
X74894900Y-65801300D01*
X74092900Y-62428000D02*
X74092900Y-63407100D01*
X74092900Y-52653900D02*
X74041000Y-52602000D01*
X74682900Y-65907100D02*
X74736000Y-65960200D01*
X74092900Y-55907100D02*
X74714800Y-55907100D01*
X74324600Y-62428000D02*
X74092900Y-62428000D01*
X74714800Y-55907100D02*
X75560700Y-55061200D01*
X74584900Y-58899100D02*
X74092900Y-58407100D01*
X75126200Y-67373800D02*
X75126200Y-66350400D01*
X75126200Y-66350400D02*
X74736000Y-65960200D01*
X74092900Y-65907100D02*
X74682900Y-65907100D01*
X74150000Y-50850000D02*
X74092900Y-50907100D01*
X74092900Y-53407100D02*
X74092900Y-52653900D01*
X74584900Y-59628400D02*
X74584900Y-58899100D01*
X76592900Y-60907100D02*
X76592900Y-60798500D01*
X76592900Y-65665300D02*
X76592900Y-65907100D01*
X75586800Y-58636800D02*
X75440800Y-58490900D01*
X75816500Y-58407100D02*
X76592900Y-58407100D01*
X75328700Y-58894900D02*
X75586800Y-58636800D01*
X76600000Y-50900000D02*
X76592900Y-50907100D01*
X77445500Y-64812700D02*
X76592900Y-65665300D01*
X76592900Y-60798500D02*
X77594600Y-60798500D01*
X75586800Y-58636800D02*
X75816500Y-58407100D01*
X76592900Y-63960100D02*
X76592900Y-63407100D01*
X76592900Y-53407100D02*
X76592900Y-52672700D01*
X76592900Y-55907100D02*
X76592900Y-53407100D01*
X77445500Y-64812700D02*
X76592900Y-63960100D01*
X77440000Y-50900000D02*
X76600000Y-50900000D01*
X76592900Y-65907100D02*
X76592900Y-68407100D01*
X76592900Y-52672700D02*
X76670400Y-52595200D01*
X76592900Y-60798500D02*
X75328700Y-59534300D01*
X75328700Y-59534300D02*
X75328700Y-58894900D01*
X78257400Y-63473700D02*
X78324000Y-63407100D01*
X79092900Y-54357400D02*
X79092900Y-53407100D01*
X78257400Y-63473700D02*
X78045900Y-63262200D01*
X79092900Y-65752800D02*
X77814000Y-64473900D01*
X78916100Y-68230300D02*
X79092900Y-68407100D01*
X79415500Y-55584500D02*
X79415500Y-54679900D01*
X79415500Y-54679900D02*
X79093000Y-54357400D01*
X79092900Y-65907100D02*
X79092900Y-65752800D01*
X80006800Y-50726800D02*
X79273200Y-50726800D01*
X79092900Y-59624400D02*
X79092900Y-60907100D01*
X79092900Y-55907100D02*
X79415500Y-55584500D01*
X78324000Y-63407100D02*
X79092900Y-63407100D01*
X77814000Y-64473900D02*
X77814000Y-63917100D01*
X79092900Y-58407100D02*
X79092900Y-59624400D01*
X77831300Y-68230300D02*
X78916100Y-68230300D01*
X79273200Y-50726800D02*
X79092900Y-50907100D01*
X79093000Y-54357400D02*
X79092900Y-54357400D01*
X79092900Y-52590300D02*
X79092900Y-53407100D01*
X77814000Y-63917100D02*
X78257400Y-63473700D01*
X80289600Y-54208700D02*
X80807100Y-54726200D01*
X82144300Y-51458500D02*
X81592900Y-50907100D01*
X81592900Y-55392200D02*
X81592900Y-55907100D01*
X80807100Y-54726200D02*
X80926900Y-54726200D01*
X81592900Y-65907100D02*
X81592900Y-63407100D01*
X81592900Y-61132600D02*
X82399600Y-61132600D01*
X81592900Y-68407100D02*
X81592900Y-65907100D01*
X80289600Y-53927100D02*
X80289600Y-54208700D01*
X81592900Y-53407100D02*
X80809600Y-53407100D01*
X81592900Y-63407100D02*
X81592900Y-61132600D01*
X80926900Y-54726200D02*
X81592900Y-55392200D01*
X81592900Y-61132600D02*
X81592900Y-60907100D01*
X81592900Y-50907100D02*
X81592900Y-53407100D01*
X80809600Y-53407100D02*
X80289600Y-53927100D01*
X81592900Y-58407100D02*
X81592900Y-60907100D01*
X84860000Y-51179500D02*
X84702500Y-51022000D01*
X82167500Y-63207900D02*
X82543700Y-62831700D01*
X84092900Y-57890200D02*
X84092900Y-58407100D01*
X84057000Y-53371200D02*
X84092900Y-53407100D01*
X83322900Y-65907100D02*
X82832600Y-66397400D01*
X82832600Y-67146800D02*
X84092900Y-68407100D01*
X82832600Y-66397400D02*
X82832600Y-67146800D01*
X84092900Y-51022000D02*
X84092900Y-50907100D01*
X82167500Y-64751700D02*
X82167500Y-63207900D01*
X84092900Y-60907100D02*
X83332500Y-60907100D01*
X83762900Y-57560300D02*
X83710700Y-57560300D01*
X84092900Y-55907100D02*
X84092900Y-56816100D01*
X84092900Y-51022000D02*
X84057000Y-51057900D01*
X84057000Y-51057900D02*
X84057000Y-53371200D01*
X84702500Y-51022000D02*
X84092900Y-51022000D01*
X82819100Y-62831700D02*
X83517500Y-62831700D01*
X84092900Y-58407100D02*
X84092900Y-60907100D01*
X82543700Y-62831700D02*
X82819100Y-62831700D01*
X83710700Y-57560300D02*
X83454600Y-57816400D01*
X84092900Y-56816100D02*
X83762900Y-57146100D01*
X83322900Y-65907100D02*
X82167500Y-64751700D01*
X83762900Y-57146100D02*
X83762900Y-57560300D01*
X83762900Y-57560300D02*
X84092800Y-57890200D01*
X84092800Y-57890200D02*
X84092900Y-57890200D01*
X84092900Y-65907100D02*
X83322900Y-65907100D01*
X83517500Y-62831700D02*
X84092900Y-63407100D01*
X83332500Y-60907100D02*
X82819100Y-61420500D01*
X82819100Y-61420500D02*
X82819100Y-62831700D01*
X86592900Y-63407100D02*
X87398300Y-63407100D01*
X87304500Y-53407100D02*
X87500600Y-53603200D01*
X86592900Y-59143600D02*
X86437800Y-59298700D01*
X86592900Y-58407100D02*
X86592900Y-59143600D01*
X85692004Y-50597997D02*
X86283797Y-50597997D01*
X86437800Y-60752000D02*
X86592900Y-60907100D01*
X87400000Y-67920000D02*
X87080000Y-67920000D01*
X87500600Y-53603200D02*
X87500600Y-54612400D01*
X86592900Y-58407100D02*
X87394500Y-58407100D01*
X87080000Y-67920000D02*
X86592900Y-68407100D01*
X86437800Y-59298700D02*
X86437800Y-60752000D01*
X87304500Y-53407100D02*
X86592900Y-53407100D01*
X86592900Y-65907100D02*
X86592900Y-63407100D01*
X86592900Y-55520100D02*
X86592900Y-55907100D01*
X86283797Y-50597997D02*
X86592900Y-50907100D01*
X87700000Y-67620000D02*
X87400000Y-67920000D01*
X87402300Y-53309300D02*
X87304500Y-53407100D01*
X87500600Y-54612400D02*
X86592900Y-55520100D01*
X88955800Y-50770000D02*
X89092900Y-50907100D01*
X89092900Y-50907100D02*
X89092900Y-68407100D01*
X88170000Y-50770000D02*
X88955800Y-50770000D01*
X69439000Y-78815600D02*
X69847500Y-78407100D01*
X70845900Y-83407100D02*
X71592900Y-83407100D01*
X70314000Y-84628200D02*
X70314000Y-83939000D01*
X71592900Y-85907100D02*
X71217700Y-85531800D01*
X70824000Y-73407100D02*
X71592900Y-73407100D01*
X70093800Y-81552900D02*
X70093800Y-80131600D01*
X70301700Y-76707700D02*
X70301700Y-76431700D01*
X70771700Y-82230800D02*
X70093800Y-81552900D01*
X71592900Y-80907100D02*
X71592900Y-82230800D01*
X71592900Y-75907100D02*
X70826300Y-75907100D01*
X70964146Y-87778252D02*
X70964146Y-87433439D01*
X70314000Y-83939000D02*
X70845900Y-83407100D01*
X70430000Y-86910000D02*
X70210000Y-86690000D01*
X70964146Y-87433439D02*
X70440707Y-86910000D01*
X71592994Y-88407100D02*
X70964146Y-87778252D01*
X72525900Y-88304700D02*
X72423500Y-88407100D01*
X69439000Y-79476800D02*
X69439000Y-78815600D01*
X71592900Y-77998900D02*
X70301700Y-76707700D01*
X72423500Y-88407100D02*
X71592994Y-88407100D01*
X70210000Y-86690000D02*
X70210000Y-86230000D01*
X71217700Y-85531800D02*
X70314000Y-84628200D01*
X70314000Y-75394800D02*
X70314000Y-73917100D01*
X70210000Y-86230000D02*
X71062941Y-85377059D01*
X70301700Y-76431700D02*
X70826300Y-75907100D01*
X71592900Y-82230800D02*
X71592900Y-83407100D01*
X70314000Y-73917100D02*
X70824000Y-73407100D01*
X71592900Y-78407100D02*
X71592900Y-77998900D01*
X71592900Y-82230800D02*
X70771700Y-82230800D01*
X69847500Y-78407100D02*
X71592900Y-78407100D01*
X70093800Y-80131600D02*
X69439000Y-79476800D01*
X70440707Y-86910000D02*
X70430000Y-86910000D01*
X70826300Y-75907100D02*
X70314000Y-75394800D01*
X71592900Y-70907100D02*
X71592900Y-73407100D01*
X74026300Y-85973700D02*
X74026300Y-87399900D01*
X74092900Y-78067300D02*
X73358300Y-78067300D01*
X74092900Y-88407100D02*
X73641000Y-87955200D01*
X74092900Y-78067300D02*
X74092900Y-75907100D01*
X74092900Y-83407100D02*
X74603000Y-82897000D01*
X74092900Y-85907100D02*
X74026300Y-85973700D01*
X74026300Y-87399900D02*
X73641000Y-87785200D01*
X74895200Y-73384400D02*
X74092900Y-73384400D01*
X74092900Y-73384400D02*
X74092900Y-70907100D01*
X73641000Y-87955200D02*
X73641000Y-87785200D01*
X74603000Y-82897000D02*
X74650100Y-82897000D01*
X74092900Y-78407100D02*
X74092900Y-78067300D01*
X74092900Y-73407100D02*
X74092900Y-73384400D01*
X74092900Y-83407100D02*
X74092900Y-80907100D01*
X75770800Y-85907100D02*
X76592900Y-85907100D01*
X76592900Y-80907100D02*
X76592900Y-70907100D01*
X75540300Y-83404100D02*
X76589900Y-83404100D01*
X76592900Y-88407100D02*
X76285200Y-88407100D01*
X76285200Y-88407100D02*
X75313800Y-87435700D01*
X77690200Y-86207300D02*
X76893100Y-86207300D01*
X75313800Y-87435700D02*
X75313800Y-86364100D01*
X75313800Y-86364100D02*
X75770800Y-85907100D01*
X76589900Y-83404100D02*
X76592900Y-83407100D01*
X76714000Y-81028200D02*
X76592900Y-80907100D01*
X76893100Y-86207300D02*
X76592900Y-85907100D01*
X77361800Y-81028200D02*
X76714000Y-81028200D01*
X78594500Y-82908700D02*
X79092900Y-83407100D01*
X79092900Y-81905400D02*
X78594500Y-82403800D01*
X79092900Y-78407100D02*
X79092900Y-75907100D01*
X79092900Y-75907100D02*
X79260700Y-75739300D01*
X79092900Y-87972900D02*
X79092900Y-88407100D01*
X79092900Y-73407100D02*
X79092900Y-70907100D01*
X79092900Y-85907100D02*
X79092900Y-87972900D01*
X78594500Y-82403800D02*
X78594500Y-82908700D01*
X79092900Y-80907100D02*
X79092900Y-81905400D01*
X78594500Y-82403800D02*
X76080900Y-82403800D01*
X79260700Y-75739300D02*
X79260700Y-73574900D01*
X79260700Y-73574900D02*
X79092900Y-73407100D01*
X76080900Y-82403800D02*
X75916300Y-82568400D01*
X79685400Y-87972900D02*
X79092900Y-87972900D01*
X79092900Y-80907100D02*
X79092900Y-78407100D01*
X81592900Y-70907100D02*
X81592900Y-73407100D01*
X80304500Y-79618700D02*
X81592900Y-80907100D01*
X81592900Y-80907100D02*
X81592900Y-83407100D01*
X80787300Y-75907100D02*
X80286800Y-76407600D01*
X80304500Y-78908200D02*
X80304500Y-79618700D01*
X80805600Y-78407100D02*
X80304500Y-78908200D01*
X81592900Y-73407100D02*
X81592900Y-75907100D01*
X81592900Y-88407100D02*
X81076600Y-87890800D01*
X81592900Y-83407100D02*
X81592900Y-85152300D01*
X80286800Y-76407600D02*
X80286800Y-77888300D01*
X81592900Y-78407100D02*
X80805600Y-78407100D01*
X81592900Y-75907100D02*
X80787300Y-75907100D01*
X81271800Y-85152300D02*
X81592900Y-85152300D01*
X81076600Y-87890800D02*
X81046000Y-87890800D01*
X81592900Y-85152300D02*
X81592900Y-85907100D01*
X80286800Y-77888300D02*
X80805600Y-78407100D01*
X83324100Y-80907100D02*
X84092900Y-80907100D01*
X84092900Y-78407100D02*
X84192500Y-78307500D01*
X82566900Y-85292200D02*
X82566900Y-84693100D01*
X82845900Y-85571200D02*
X82566900Y-85292200D01*
X84420000Y-73080000D02*
X84420000Y-71234200D01*
X84192500Y-76006700D02*
X84092900Y-75907100D01*
X84313700Y-87676200D02*
X84399000Y-87676200D01*
X84092900Y-80907100D02*
X84092900Y-78407100D01*
X84092900Y-83407100D02*
X84092900Y-85571200D01*
X84092900Y-87455400D02*
X84313700Y-87676200D01*
X84092900Y-85907100D02*
X84092900Y-87455400D01*
X82566900Y-84693100D02*
X82707000Y-84553000D01*
X84092900Y-87897000D02*
X84313700Y-87676200D01*
X84420000Y-71234200D02*
X84092900Y-70907100D01*
X82707000Y-84553000D02*
X82707000Y-81524200D01*
X84192500Y-78307500D02*
X84192500Y-76006700D01*
X82707000Y-81524200D02*
X83324100Y-80907100D01*
X84092900Y-85571200D02*
X82845900Y-85571200D01*
X84092900Y-73407100D02*
X84420000Y-73080000D01*
X84092900Y-85571200D02*
X84092900Y-85907100D01*
X84092900Y-88407100D02*
X84092900Y-87897000D01*
X84092900Y-75907100D02*
X84092900Y-73407100D01*
X85307400Y-84621600D02*
X85307400Y-83940300D01*
X86592900Y-75907100D02*
X85852400Y-75907100D01*
X84770600Y-79190800D02*
X84770600Y-79755400D01*
X87251700Y-88029000D02*
X86971000Y-88029000D01*
X85840600Y-83407100D02*
X86592900Y-83407100D01*
X86592900Y-73407100D02*
X86481600Y-73295800D01*
X86592900Y-85907100D02*
X85307400Y-84621600D01*
X87389300Y-80110700D02*
X86592900Y-80907100D01*
X85941600Y-78019800D02*
X84770600Y-79190800D01*
X85310200Y-76449300D02*
X85310200Y-77388400D01*
X86481600Y-73295800D02*
X85923100Y-73295800D01*
X84770600Y-79755400D02*
X85922300Y-80907100D01*
X86205600Y-78019800D02*
X85941600Y-78019800D01*
X85294300Y-75349000D02*
X85852400Y-75907100D01*
X85852400Y-75907100D02*
X85310200Y-76449300D01*
X86592900Y-85907100D02*
X87397000Y-85907100D01*
X85310200Y-77388400D02*
X85941600Y-78019800D01*
X85922300Y-80907100D02*
X86592900Y-80907100D01*
X86592900Y-78407100D02*
X86205600Y-78019800D01*
X85923100Y-73295800D02*
X85294300Y-73924600D01*
X86481600Y-73295800D02*
X86481600Y-71018400D01*
X86481600Y-71018400D02*
X86592900Y-70907100D01*
X86971000Y-88029000D02*
X86592900Y-88407100D01*
X88254000Y-80110700D02*
X87389300Y-80110700D01*
X85294300Y-73924600D02*
X85294300Y-75349000D01*
X85307400Y-83940300D02*
X85840600Y-83407100D01*
X89092900Y-70907100D02*
X89092900Y-73407100D01*
X89092900Y-73407100D02*
X89092900Y-75907100D01*
X89092900Y-83407100D02*
X89092900Y-80907100D01*
X89092900Y-85907100D02*
X89092900Y-83407100D01*
X89092900Y-87630600D02*
X89092900Y-85907100D01*
X89092900Y-75907100D02*
X89092900Y-78407100D01*
X89092900Y-88407100D02*
X89092900Y-87630600D01*
X89092900Y-78407100D02*
X89092900Y-80907100D01*
X89092900Y-87630600D02*
X88783800Y-87630600D01*
M02*
