G04 (created by PCBNEW (2013-jul-07)-stable) date Thu 09 Apr 2015 12:34:56 PM PDT*
%MOIN*%
G04 Gerber Fmt 3.4, Leading zero omitted, Abs format*
%FSLAX34Y34*%
G01*
G70*
G90*
G04 APERTURE LIST*
%ADD10C,0.00590551*%
%ADD11R,0.06X0.06*%
%ADD12C,0.06*%
%ADD13C,0.065*%
G04 APERTURE END LIST*
G54D10*
G54D11*
X21744Y-24500D03*
G54D12*
X21744Y-25500D03*
X22744Y-24500D03*
X22744Y-25500D03*
G54D11*
X21744Y-30799D03*
G54D12*
X21744Y-31799D03*
X22744Y-30799D03*
X22744Y-31799D03*
G54D11*
X32374Y-24500D03*
G54D12*
X32374Y-25500D03*
X33374Y-24500D03*
X33374Y-25500D03*
G54D11*
X32374Y-30799D03*
G54D12*
X32374Y-31799D03*
X33374Y-30799D03*
X33374Y-31799D03*
G54D13*
X28543Y-28051D03*
X28543Y-29035D03*
X28543Y-30019D03*
X28543Y-31003D03*
X28543Y-31988D03*
X28543Y-32972D03*
X28543Y-33956D03*
X28543Y-34940D03*
X34448Y-34940D03*
X34448Y-33956D03*
X34448Y-32972D03*
X34448Y-31988D03*
X34448Y-31003D03*
X34448Y-30019D03*
X34448Y-29035D03*
X34448Y-28051D03*
X28543Y-20177D03*
X28543Y-21161D03*
X28543Y-22145D03*
X28543Y-23129D03*
X28543Y-24114D03*
X28543Y-25098D03*
X28543Y-26082D03*
X28543Y-27066D03*
X34448Y-27066D03*
X34448Y-26082D03*
X34448Y-25098D03*
X34448Y-24114D03*
X34448Y-23129D03*
X34448Y-22145D03*
X34448Y-21161D03*
X34448Y-20177D03*
X20669Y-28051D03*
X20669Y-29035D03*
X20669Y-30019D03*
X20669Y-31003D03*
X20669Y-31988D03*
X20669Y-32972D03*
X20669Y-33956D03*
X20669Y-34940D03*
X26574Y-34940D03*
X26574Y-33956D03*
X26574Y-32972D03*
X26574Y-31988D03*
X26574Y-31003D03*
X26574Y-30019D03*
X26574Y-29035D03*
X26574Y-28051D03*
X20669Y-20177D03*
X20669Y-21161D03*
X20669Y-22145D03*
X20669Y-23129D03*
X20669Y-24114D03*
X20669Y-25098D03*
X20669Y-26082D03*
X20669Y-27066D03*
X26574Y-27066D03*
X26574Y-26082D03*
X26574Y-25098D03*
X26574Y-24114D03*
X26574Y-23129D03*
X26574Y-22145D03*
X26574Y-21161D03*
X26574Y-20177D03*
M02*
