G04 (created by PCBNEW (2013-jul-07)-stable) date Thu 09 Apr 2015 12:34:56 PM PDT*
%MOIN*%
G04 Gerber Fmt 3.4, Leading zero omitted, Abs format*
%FSLAX34Y34*%
G01*
G70*
G90*
G04 APERTURE LIST*
%ADD10C,0.00590551*%
%ADD11C,0.008*%
%ADD12C,0.0047*%
%ADD13C,0.006*%
%ADD14C,0.005*%
%ADD15C,0.0045*%
G04 APERTURE END LIST*
G54D10*
G54D11*
X35266Y-35318D02*
X34916Y-35318D01*
X35266Y-35118D02*
X35066Y-35268D01*
X34916Y-35118D02*
X35116Y-35318D01*
X35066Y-34918D02*
X35050Y-34951D01*
X35033Y-34968D01*
X35000Y-34985D01*
X34983Y-34985D01*
X34950Y-34968D01*
X34933Y-34951D01*
X34916Y-34918D01*
X34916Y-34851D01*
X34933Y-34818D01*
X34950Y-34801D01*
X34983Y-34785D01*
X35000Y-34785D01*
X35033Y-34801D01*
X35050Y-34818D01*
X35066Y-34851D01*
X35066Y-34918D01*
X35083Y-34951D01*
X35100Y-34968D01*
X35133Y-34985D01*
X35200Y-34985D01*
X35233Y-34968D01*
X35250Y-34951D01*
X35266Y-34918D01*
X35266Y-34851D01*
X35250Y-34818D01*
X35233Y-34801D01*
X35200Y-34785D01*
X35133Y-34785D01*
X35100Y-34801D01*
X35083Y-34818D01*
X35066Y-34851D01*
X28046Y-35308D02*
X27696Y-35308D01*
X28046Y-35108D02*
X27846Y-35258D01*
X27696Y-35108D02*
X27896Y-35308D01*
X27696Y-34991D02*
X27696Y-34758D01*
X28046Y-34908D01*
X35276Y-20353D02*
X34926Y-20353D01*
X35276Y-20153D02*
X35076Y-20303D01*
X34926Y-20153D02*
X35126Y-20353D01*
X34926Y-19853D02*
X34926Y-19920D01*
X34943Y-19953D01*
X34960Y-19970D01*
X35010Y-20003D01*
X35076Y-20020D01*
X35210Y-20020D01*
X35243Y-20003D01*
X35260Y-19986D01*
X35276Y-19953D01*
X35276Y-19886D01*
X35260Y-19853D01*
X35243Y-19836D01*
X35210Y-19820D01*
X35126Y-19820D01*
X35093Y-19836D01*
X35076Y-19853D01*
X35060Y-19886D01*
X35060Y-19953D01*
X35076Y-19986D01*
X35093Y-20003D01*
X35126Y-20020D01*
X28041Y-20333D02*
X27691Y-20333D01*
X28041Y-20133D02*
X27841Y-20283D01*
X27691Y-20133D02*
X27891Y-20333D01*
X27691Y-19816D02*
X27691Y-19983D01*
X27858Y-20000D01*
X27841Y-19983D01*
X27825Y-19950D01*
X27825Y-19866D01*
X27841Y-19833D01*
X27858Y-19816D01*
X27891Y-19800D01*
X27975Y-19800D01*
X28008Y-19816D01*
X28025Y-19833D01*
X28041Y-19866D01*
X28041Y-19950D01*
X28025Y-19983D01*
X28008Y-20000D01*
X27406Y-35308D02*
X27056Y-35308D01*
X27406Y-35108D02*
X27206Y-35258D01*
X27056Y-35108D02*
X27256Y-35308D01*
X27173Y-34808D02*
X27406Y-34808D01*
X27040Y-34891D02*
X27290Y-34975D01*
X27290Y-34758D01*
X20146Y-35238D02*
X19796Y-35238D01*
X20146Y-35038D02*
X19946Y-35188D01*
X19796Y-35038D02*
X19996Y-35238D01*
X19796Y-34921D02*
X19796Y-34705D01*
X19930Y-34821D01*
X19930Y-34771D01*
X19946Y-34738D01*
X19963Y-34721D01*
X19996Y-34705D01*
X20080Y-34705D01*
X20113Y-34721D01*
X20130Y-34738D01*
X20146Y-34771D01*
X20146Y-34871D01*
X20130Y-34905D01*
X20113Y-34921D01*
X27371Y-20318D02*
X27021Y-20318D01*
X27371Y-20118D02*
X27171Y-20268D01*
X27021Y-20118D02*
X27221Y-20318D01*
X27055Y-19985D02*
X27038Y-19968D01*
X27021Y-19935D01*
X27021Y-19851D01*
X27038Y-19818D01*
X27055Y-19801D01*
X27088Y-19785D01*
X27121Y-19785D01*
X27171Y-19801D01*
X27371Y-20001D01*
X27371Y-19785D01*
X20141Y-20328D02*
X19791Y-20328D01*
X20141Y-20128D02*
X19941Y-20278D01*
X19791Y-20128D02*
X19991Y-20328D01*
X20141Y-19795D02*
X20141Y-19995D01*
X20141Y-19895D02*
X19791Y-19895D01*
X19841Y-19928D01*
X19875Y-19961D01*
X19891Y-19995D01*
G54D12*
X23484Y-25472D02*
X23484Y-25747D01*
X23484Y-25078D02*
X23484Y-24803D01*
X23996Y-25472D02*
X23996Y-25747D01*
X23996Y-24803D02*
X23996Y-25078D01*
X23990Y-25747D02*
X23490Y-25747D01*
X23490Y-24803D02*
X23990Y-24803D01*
G54D11*
X24370Y-24409D02*
X25708Y-24409D01*
X25708Y-24409D02*
X25708Y-25117D01*
X25708Y-25117D02*
X24370Y-25117D01*
X24370Y-25117D02*
X24370Y-24409D01*
X24606Y-30866D02*
X25944Y-30866D01*
X25944Y-30866D02*
X25944Y-31574D01*
X25944Y-31574D02*
X24606Y-31574D01*
X24606Y-31574D02*
X24606Y-30866D01*
X30236Y-24764D02*
X31574Y-24764D01*
X31574Y-24764D02*
X31574Y-25472D01*
X31574Y-25472D02*
X30236Y-25472D01*
X30236Y-25472D02*
X30236Y-24764D01*
X30315Y-30945D02*
X31653Y-30945D01*
X31653Y-30945D02*
X31653Y-31653D01*
X31653Y-31653D02*
X30315Y-31653D01*
X30315Y-31653D02*
X30315Y-30945D01*
G54D12*
X23484Y-31496D02*
X23484Y-31771D01*
X23484Y-31102D02*
X23484Y-30827D01*
X23996Y-31496D02*
X23996Y-31771D01*
X23996Y-30827D02*
X23996Y-31102D01*
X23990Y-31771D02*
X23490Y-31771D01*
X23490Y-30827D02*
X23990Y-30827D01*
G54D13*
X23012Y-23167D02*
X23012Y-21517D01*
X23012Y-21517D02*
X23012Y-21142D01*
X23012Y-21142D02*
X25412Y-21142D01*
X25412Y-21142D02*
X25412Y-23542D01*
X25412Y-23542D02*
X23387Y-23542D01*
X23387Y-23542D02*
X23012Y-23167D01*
X23012Y-29466D02*
X23012Y-27816D01*
X23012Y-27816D02*
X23012Y-27441D01*
X23012Y-27441D02*
X25412Y-27441D01*
X25412Y-27441D02*
X25412Y-29841D01*
X25412Y-29841D02*
X23387Y-29841D01*
X23387Y-29841D02*
X23012Y-29466D01*
X30099Y-23167D02*
X30099Y-21517D01*
X30099Y-21517D02*
X30099Y-21142D01*
X30099Y-21142D02*
X32499Y-21142D01*
X32499Y-21142D02*
X32499Y-23542D01*
X32499Y-23542D02*
X30474Y-23542D01*
X30474Y-23542D02*
X30099Y-23167D01*
X30099Y-29466D02*
X30099Y-27816D01*
X30099Y-27816D02*
X30099Y-27441D01*
X30099Y-27441D02*
X32499Y-27441D01*
X32499Y-27441D02*
X32499Y-29841D01*
X32499Y-29841D02*
X30474Y-29841D01*
X30474Y-29841D02*
X30099Y-29466D01*
G54D12*
X29133Y-24724D02*
X29133Y-24999D01*
X29133Y-24330D02*
X29133Y-24055D01*
X29645Y-24724D02*
X29645Y-24999D01*
X29645Y-24055D02*
X29645Y-24330D01*
X29639Y-24999D02*
X29139Y-24999D01*
X29139Y-24055D02*
X29639Y-24055D01*
X31319Y-34350D02*
X31594Y-34350D01*
X30925Y-34350D02*
X30650Y-34350D01*
X31319Y-33838D02*
X31594Y-33838D01*
X30650Y-33838D02*
X30925Y-33838D01*
X31594Y-33844D02*
X31594Y-34344D01*
X30650Y-34344D02*
X30650Y-33844D01*
G54D14*
X32913Y-32953D02*
X32635Y-32953D01*
X32635Y-32953D02*
X32635Y-33503D01*
X32635Y-33503D02*
X32913Y-33503D01*
X33585Y-32953D02*
X33307Y-32953D01*
X33585Y-32953D02*
X33585Y-33503D01*
X33585Y-33503D02*
X33307Y-33503D01*
X32932Y-33819D02*
X32654Y-33819D01*
X32654Y-33819D02*
X32654Y-34369D01*
X32654Y-34369D02*
X32932Y-34369D01*
X33604Y-33819D02*
X33326Y-33819D01*
X33604Y-33819D02*
X33604Y-34369D01*
X33604Y-34369D02*
X33326Y-34369D01*
X32952Y-34685D02*
X32674Y-34685D01*
X32674Y-34685D02*
X32674Y-35235D01*
X32674Y-35235D02*
X32952Y-35235D01*
X33624Y-34685D02*
X33346Y-34685D01*
X33624Y-34685D02*
X33624Y-35235D01*
X33624Y-35235D02*
X33346Y-35235D01*
X33936Y-27362D02*
X33936Y-27084D01*
X33936Y-27084D02*
X33386Y-27084D01*
X33386Y-27084D02*
X33386Y-27362D01*
X33936Y-28034D02*
X33936Y-27756D01*
X33936Y-28034D02*
X33386Y-28034D01*
X33386Y-28034D02*
X33386Y-27756D01*
X29822Y-35215D02*
X30100Y-35215D01*
X30100Y-35215D02*
X30100Y-34665D01*
X30100Y-34665D02*
X29822Y-34665D01*
X29150Y-35215D02*
X29428Y-35215D01*
X29150Y-35215D02*
X29150Y-34665D01*
X29150Y-34665D02*
X29428Y-34665D01*
X29822Y-34231D02*
X30100Y-34231D01*
X30100Y-34231D02*
X30100Y-33681D01*
X30100Y-33681D02*
X29822Y-33681D01*
X29150Y-34231D02*
X29428Y-34231D01*
X29150Y-34231D02*
X29150Y-33681D01*
X29150Y-33681D02*
X29428Y-33681D01*
X29724Y-33247D02*
X30002Y-33247D01*
X30002Y-33247D02*
X30002Y-32697D01*
X30002Y-32697D02*
X29724Y-32697D01*
X29052Y-33247D02*
X29330Y-33247D01*
X29052Y-33247D02*
X29052Y-32697D01*
X29052Y-32697D02*
X29330Y-32697D01*
X29664Y-31732D02*
X29664Y-31454D01*
X29664Y-31454D02*
X29114Y-31454D01*
X29114Y-31454D02*
X29114Y-31732D01*
X29664Y-32404D02*
X29664Y-32126D01*
X29664Y-32404D02*
X29114Y-32404D01*
X29114Y-32404D02*
X29114Y-32126D01*
X32991Y-26260D02*
X32713Y-26260D01*
X32713Y-26260D02*
X32713Y-26810D01*
X32713Y-26810D02*
X32991Y-26810D01*
X33663Y-26260D02*
X33385Y-26260D01*
X33663Y-26260D02*
X33663Y-26810D01*
X33663Y-26810D02*
X33385Y-26810D01*
X33386Y-22913D02*
X33386Y-23191D01*
X33386Y-23191D02*
X33936Y-23191D01*
X33936Y-23191D02*
X33936Y-22913D01*
X33386Y-22241D02*
X33386Y-22519D01*
X33386Y-22241D02*
X33936Y-22241D01*
X33936Y-22241D02*
X33936Y-22519D01*
X33936Y-20078D02*
X33936Y-19800D01*
X33936Y-19800D02*
X33386Y-19800D01*
X33386Y-19800D02*
X33386Y-20078D01*
X33936Y-20750D02*
X33936Y-20472D01*
X33936Y-20750D02*
X33386Y-20750D01*
X33386Y-20750D02*
X33386Y-20472D01*
X29625Y-19803D02*
X29347Y-19803D01*
X29347Y-19803D02*
X29347Y-20353D01*
X29347Y-20353D02*
X29625Y-20353D01*
X30297Y-19803D02*
X30019Y-19803D01*
X30297Y-19803D02*
X30297Y-20353D01*
X30297Y-20353D02*
X30019Y-20353D01*
X27362Y-27284D02*
X27084Y-27284D01*
X27084Y-27284D02*
X27084Y-27834D01*
X27084Y-27834D02*
X27362Y-27834D01*
X28034Y-27284D02*
X27756Y-27284D01*
X28034Y-27284D02*
X28034Y-27834D01*
X28034Y-27834D02*
X27756Y-27834D01*
X27362Y-26201D02*
X27084Y-26201D01*
X27084Y-26201D02*
X27084Y-26751D01*
X27084Y-26751D02*
X27362Y-26751D01*
X28034Y-26201D02*
X27756Y-26201D01*
X28034Y-26201D02*
X28034Y-26751D01*
X28034Y-26751D02*
X27756Y-26751D01*
X27362Y-25020D02*
X27084Y-25020D01*
X27084Y-25020D02*
X27084Y-25570D01*
X27084Y-25570D02*
X27362Y-25570D01*
X28034Y-25020D02*
X27756Y-25020D01*
X28034Y-25020D02*
X28034Y-25570D01*
X28034Y-25570D02*
X27756Y-25570D01*
X27362Y-23898D02*
X27084Y-23898D01*
X27084Y-23898D02*
X27084Y-24448D01*
X27084Y-24448D02*
X27362Y-24448D01*
X28034Y-23898D02*
X27756Y-23898D01*
X28034Y-23898D02*
X28034Y-24448D01*
X28034Y-24448D02*
X27756Y-24448D01*
X25393Y-34665D02*
X25115Y-34665D01*
X25115Y-34665D02*
X25115Y-35215D01*
X25115Y-35215D02*
X25393Y-35215D01*
X26065Y-34665D02*
X25787Y-34665D01*
X26065Y-34665D02*
X26065Y-35215D01*
X26065Y-35215D02*
X25787Y-35215D01*
X25393Y-33780D02*
X25115Y-33780D01*
X25115Y-33780D02*
X25115Y-34330D01*
X25115Y-34330D02*
X25393Y-34330D01*
X26065Y-33780D02*
X25787Y-33780D01*
X26065Y-33780D02*
X26065Y-34330D01*
X26065Y-34330D02*
X25787Y-34330D01*
X25393Y-32894D02*
X25115Y-32894D01*
X25115Y-32894D02*
X25115Y-33444D01*
X25115Y-33444D02*
X25393Y-33444D01*
X26065Y-32894D02*
X25787Y-32894D01*
X26065Y-32894D02*
X26065Y-33444D01*
X26065Y-33444D02*
X25787Y-33444D01*
X27756Y-29015D02*
X28034Y-29015D01*
X28034Y-29015D02*
X28034Y-28465D01*
X28034Y-28465D02*
X27756Y-28465D01*
X27084Y-29015D02*
X27362Y-29015D01*
X27084Y-29015D02*
X27084Y-28465D01*
X27084Y-28465D02*
X27362Y-28465D01*
X23819Y-35117D02*
X24097Y-35117D01*
X24097Y-35117D02*
X24097Y-34567D01*
X24097Y-34567D02*
X23819Y-34567D01*
X23147Y-35117D02*
X23425Y-35117D01*
X23147Y-35117D02*
X23147Y-34567D01*
X23147Y-34567D02*
X23425Y-34567D01*
X23819Y-34133D02*
X24097Y-34133D01*
X24097Y-34133D02*
X24097Y-33583D01*
X24097Y-33583D02*
X23819Y-33583D01*
X23147Y-34133D02*
X23425Y-34133D01*
X23147Y-34133D02*
X23147Y-33583D01*
X23147Y-33583D02*
X23425Y-33583D01*
X22244Y-34133D02*
X22522Y-34133D01*
X22522Y-34133D02*
X22522Y-33583D01*
X22522Y-33583D02*
X22244Y-33583D01*
X21572Y-34133D02*
X21850Y-34133D01*
X21572Y-34133D02*
X21572Y-33583D01*
X21572Y-33583D02*
X21850Y-33583D01*
X22244Y-33149D02*
X22522Y-33149D01*
X22522Y-33149D02*
X22522Y-32599D01*
X22522Y-32599D02*
X22244Y-32599D01*
X21572Y-33149D02*
X21850Y-33149D01*
X21572Y-33149D02*
X21572Y-32599D01*
X21572Y-32599D02*
X21850Y-32599D01*
X27756Y-23424D02*
X28034Y-23424D01*
X28034Y-23424D02*
X28034Y-22874D01*
X28034Y-22874D02*
X27756Y-22874D01*
X27084Y-23424D02*
X27362Y-23424D01*
X27084Y-23424D02*
X27084Y-22874D01*
X27084Y-22874D02*
X27362Y-22874D01*
X27756Y-22440D02*
X28034Y-22440D01*
X28034Y-22440D02*
X28034Y-21890D01*
X28034Y-21890D02*
X27756Y-21890D01*
X27084Y-22440D02*
X27362Y-22440D01*
X27084Y-22440D02*
X27084Y-21890D01*
X27084Y-21890D02*
X27362Y-21890D01*
X27756Y-21416D02*
X28034Y-21416D01*
X28034Y-21416D02*
X28034Y-20866D01*
X28034Y-20866D02*
X27756Y-20866D01*
X27084Y-21416D02*
X27362Y-21416D01*
X27084Y-21416D02*
X27084Y-20866D01*
X27084Y-20866D02*
X27362Y-20866D01*
X27756Y-20353D02*
X28034Y-20353D01*
X28034Y-20353D02*
X28034Y-19803D01*
X28034Y-19803D02*
X27756Y-19803D01*
X27084Y-20353D02*
X27362Y-20353D01*
X27084Y-20353D02*
X27084Y-19803D01*
X27084Y-19803D02*
X27362Y-19803D01*
X24744Y-20393D02*
X25022Y-20393D01*
X25022Y-20393D02*
X25022Y-19843D01*
X25022Y-19843D02*
X24744Y-19843D01*
X24072Y-20393D02*
X24350Y-20393D01*
X24072Y-20393D02*
X24072Y-19843D01*
X24072Y-19843D02*
X24350Y-19843D01*
X21948Y-26751D02*
X22226Y-26751D01*
X22226Y-26751D02*
X22226Y-26201D01*
X22226Y-26201D02*
X21948Y-26201D01*
X21276Y-26751D02*
X21554Y-26751D01*
X21276Y-26751D02*
X21276Y-26201D01*
X21276Y-26201D02*
X21554Y-26201D01*
X21909Y-23778D02*
X22187Y-23778D01*
X22187Y-23778D02*
X22187Y-23228D01*
X22187Y-23228D02*
X21909Y-23228D01*
X21237Y-23778D02*
X21515Y-23778D01*
X21237Y-23778D02*
X21237Y-23228D01*
X21237Y-23228D02*
X21515Y-23228D01*
X22047Y-20393D02*
X22325Y-20393D01*
X22325Y-20393D02*
X22325Y-19843D01*
X22325Y-19843D02*
X22047Y-19843D01*
X21375Y-20393D02*
X21653Y-20393D01*
X21375Y-20393D02*
X21375Y-19843D01*
X21375Y-19843D02*
X21653Y-19843D01*
X31299Y-35196D02*
X31577Y-35196D01*
X31577Y-35196D02*
X31577Y-34646D01*
X31577Y-34646D02*
X31299Y-34646D01*
X30627Y-35196D02*
X30905Y-35196D01*
X30627Y-35196D02*
X30627Y-34646D01*
X30627Y-34646D02*
X30905Y-34646D01*
X32283Y-19803D02*
X32005Y-19803D01*
X32005Y-19803D02*
X32005Y-20353D01*
X32005Y-20353D02*
X32283Y-20353D01*
X32955Y-19803D02*
X32677Y-19803D01*
X32955Y-19803D02*
X32955Y-20353D01*
X32955Y-20353D02*
X32677Y-20353D01*
X21181Y-28445D02*
X21181Y-28723D01*
X21181Y-28723D02*
X21731Y-28723D01*
X21731Y-28723D02*
X21731Y-28445D01*
X21181Y-27773D02*
X21181Y-28051D01*
X21181Y-27773D02*
X21731Y-27773D01*
X21731Y-27773D02*
X21731Y-28051D01*
X23031Y-26201D02*
X22753Y-26201D01*
X22753Y-26201D02*
X22753Y-26751D01*
X22753Y-26751D02*
X23031Y-26751D01*
X23703Y-26201D02*
X23425Y-26201D01*
X23703Y-26201D02*
X23703Y-26751D01*
X23703Y-26751D02*
X23425Y-26751D01*
G54D10*
X31496Y-27559D02*
X35433Y-27559D01*
X35433Y-27559D02*
X35433Y-35433D01*
X35433Y-35433D02*
X27559Y-35433D01*
X27559Y-35433D02*
X27559Y-27559D01*
X27559Y-27559D02*
X31692Y-27559D01*
X31496Y-19685D02*
X35433Y-19685D01*
X35433Y-19685D02*
X35433Y-27559D01*
X35433Y-27559D02*
X27559Y-27559D01*
X27559Y-27559D02*
X27559Y-19685D01*
X27559Y-19685D02*
X31692Y-19685D01*
X23622Y-27559D02*
X27559Y-27559D01*
X27559Y-27559D02*
X27559Y-35433D01*
X27559Y-35433D02*
X19685Y-35433D01*
X19685Y-35433D02*
X19685Y-27559D01*
X19685Y-27559D02*
X23818Y-27559D01*
X23622Y-19685D02*
X27559Y-19685D01*
X27559Y-19685D02*
X27559Y-27559D01*
X27559Y-27559D02*
X19685Y-27559D01*
X19685Y-27559D02*
X19685Y-19685D01*
X19685Y-19685D02*
X23818Y-19685D01*
G54D15*
X23710Y-25337D02*
X23701Y-25347D01*
X23675Y-25356D01*
X23658Y-25356D01*
X23633Y-25347D01*
X23615Y-25327D01*
X23607Y-25308D01*
X23598Y-25270D01*
X23598Y-25242D01*
X23607Y-25204D01*
X23615Y-25185D01*
X23633Y-25166D01*
X23658Y-25156D01*
X23675Y-25156D01*
X23701Y-25166D01*
X23710Y-25175D01*
X23881Y-25356D02*
X23778Y-25356D01*
X23830Y-25356D02*
X23830Y-25156D01*
X23813Y-25185D01*
X23795Y-25204D01*
X23778Y-25213D01*
G54D13*
X24757Y-23915D02*
X24957Y-24215D01*
X24957Y-23915D02*
X24757Y-24215D01*
X25228Y-24215D02*
X25057Y-24215D01*
X25142Y-24215D02*
X25142Y-23915D01*
X25114Y-23958D01*
X25085Y-23987D01*
X25057Y-24001D01*
X25032Y-30411D02*
X25232Y-30711D01*
X25232Y-30411D02*
X25032Y-30711D01*
X25332Y-30440D02*
X25347Y-30426D01*
X25375Y-30411D01*
X25447Y-30411D01*
X25475Y-30426D01*
X25489Y-30440D01*
X25504Y-30469D01*
X25504Y-30497D01*
X25489Y-30540D01*
X25318Y-30711D01*
X25504Y-30711D01*
X30662Y-24230D02*
X30862Y-24530D01*
X30862Y-24230D02*
X30662Y-24530D01*
X30948Y-24230D02*
X31134Y-24230D01*
X31034Y-24345D01*
X31076Y-24345D01*
X31105Y-24359D01*
X31119Y-24373D01*
X31134Y-24402D01*
X31134Y-24473D01*
X31119Y-24502D01*
X31105Y-24516D01*
X31076Y-24530D01*
X30991Y-24530D01*
X30962Y-24516D01*
X30948Y-24502D01*
G54D11*
X30660Y-30195D02*
X30927Y-30595D01*
X30927Y-30195D02*
X30660Y-30595D01*
X31250Y-30328D02*
X31250Y-30595D01*
X31155Y-30176D02*
X31060Y-30461D01*
X31308Y-30461D01*
G54D15*
X23710Y-31341D02*
X23701Y-31350D01*
X23675Y-31360D01*
X23658Y-31360D01*
X23633Y-31350D01*
X23615Y-31331D01*
X23607Y-31312D01*
X23598Y-31274D01*
X23598Y-31246D01*
X23607Y-31208D01*
X23615Y-31189D01*
X23633Y-31170D01*
X23658Y-31160D01*
X23675Y-31160D01*
X23701Y-31170D01*
X23710Y-31179D01*
X23778Y-31179D02*
X23787Y-31170D01*
X23804Y-31160D01*
X23847Y-31160D01*
X23864Y-31170D01*
X23873Y-31179D01*
X23881Y-31198D01*
X23881Y-31217D01*
X23873Y-31246D01*
X23770Y-31360D01*
X23881Y-31360D01*
G54D13*
X22837Y-22596D02*
X22537Y-22596D01*
X22809Y-22281D02*
X22823Y-22296D01*
X22837Y-22338D01*
X22837Y-22367D01*
X22823Y-22410D01*
X22795Y-22438D01*
X22766Y-22453D01*
X22709Y-22467D01*
X22666Y-22467D01*
X22609Y-22453D01*
X22580Y-22438D01*
X22552Y-22410D01*
X22537Y-22367D01*
X22537Y-22338D01*
X22552Y-22296D01*
X22566Y-22281D01*
X22837Y-21996D02*
X22837Y-22167D01*
X22837Y-22081D02*
X22537Y-22081D01*
X22580Y-22110D01*
X22609Y-22138D01*
X22623Y-22167D01*
X22877Y-28973D02*
X22577Y-28973D01*
X22848Y-28659D02*
X22863Y-28673D01*
X22877Y-28716D01*
X22877Y-28745D01*
X22863Y-28788D01*
X22834Y-28816D01*
X22805Y-28831D01*
X22748Y-28845D01*
X22705Y-28845D01*
X22648Y-28831D01*
X22620Y-28816D01*
X22591Y-28788D01*
X22577Y-28745D01*
X22577Y-28716D01*
X22591Y-28673D01*
X22605Y-28659D01*
X22605Y-28545D02*
X22591Y-28531D01*
X22577Y-28502D01*
X22577Y-28431D01*
X22591Y-28402D01*
X22605Y-28388D01*
X22634Y-28373D01*
X22663Y-28373D01*
X22705Y-28388D01*
X22877Y-28559D01*
X22877Y-28373D01*
X29963Y-22674D02*
X29663Y-22674D01*
X29935Y-22360D02*
X29949Y-22374D01*
X29963Y-22417D01*
X29963Y-22446D01*
X29949Y-22489D01*
X29921Y-22517D01*
X29892Y-22531D01*
X29835Y-22546D01*
X29792Y-22546D01*
X29735Y-22531D01*
X29706Y-22517D01*
X29678Y-22489D01*
X29663Y-22446D01*
X29663Y-22417D01*
X29678Y-22374D01*
X29692Y-22360D01*
X29663Y-22260D02*
X29663Y-22074D01*
X29778Y-22174D01*
X29778Y-22131D01*
X29792Y-22103D01*
X29806Y-22089D01*
X29835Y-22074D01*
X29906Y-22074D01*
X29935Y-22089D01*
X29949Y-22103D01*
X29963Y-22131D01*
X29963Y-22217D01*
X29949Y-22246D01*
X29935Y-22260D01*
X29963Y-28934D02*
X29663Y-28934D01*
X29935Y-28620D02*
X29949Y-28634D01*
X29963Y-28677D01*
X29963Y-28706D01*
X29949Y-28748D01*
X29921Y-28777D01*
X29892Y-28791D01*
X29835Y-28806D01*
X29792Y-28806D01*
X29735Y-28791D01*
X29706Y-28777D01*
X29678Y-28748D01*
X29663Y-28706D01*
X29663Y-28677D01*
X29678Y-28634D01*
X29692Y-28620D01*
X29763Y-28363D02*
X29963Y-28363D01*
X29649Y-28434D02*
X29863Y-28506D01*
X29863Y-28320D01*
G54D15*
X29359Y-24589D02*
X29351Y-24598D01*
X29325Y-24608D01*
X29308Y-24608D01*
X29282Y-24598D01*
X29265Y-24579D01*
X29256Y-24560D01*
X29248Y-24522D01*
X29248Y-24494D01*
X29256Y-24456D01*
X29265Y-24437D01*
X29282Y-24418D01*
X29308Y-24408D01*
X29325Y-24408D01*
X29351Y-24418D01*
X29359Y-24427D01*
X29419Y-24408D02*
X29531Y-24408D01*
X29471Y-24484D01*
X29496Y-24484D01*
X29514Y-24494D01*
X29522Y-24503D01*
X29531Y-24522D01*
X29531Y-24570D01*
X29522Y-24589D01*
X29514Y-24598D01*
X29496Y-24608D01*
X29445Y-24608D01*
X29428Y-24598D01*
X29419Y-24589D01*
X31183Y-34124D02*
X31193Y-34133D01*
X31202Y-34158D01*
X31202Y-34175D01*
X31193Y-34201D01*
X31174Y-34218D01*
X31155Y-34227D01*
X31117Y-34235D01*
X31088Y-34235D01*
X31050Y-34227D01*
X31031Y-34218D01*
X31012Y-34201D01*
X31002Y-34175D01*
X31002Y-34158D01*
X31012Y-34133D01*
X31022Y-34124D01*
X31069Y-33970D02*
X31202Y-33970D01*
X30993Y-34013D02*
X31136Y-34055D01*
X31136Y-33944D01*
X33214Y-33319D02*
X33121Y-33379D01*
X33214Y-33421D02*
X33017Y-33421D01*
X33017Y-33353D01*
X33027Y-33336D01*
X33036Y-33327D01*
X33055Y-33319D01*
X33083Y-33319D01*
X33102Y-33327D01*
X33111Y-33336D01*
X33121Y-33353D01*
X33121Y-33421D01*
X33017Y-33259D02*
X33017Y-33147D01*
X33093Y-33207D01*
X33093Y-33181D01*
X33102Y-33164D01*
X33111Y-33156D01*
X33130Y-33147D01*
X33177Y-33147D01*
X33196Y-33156D01*
X33205Y-33164D01*
X33214Y-33181D01*
X33214Y-33233D01*
X33205Y-33250D01*
X33196Y-33259D01*
X33017Y-32993D02*
X33017Y-33027D01*
X33027Y-33044D01*
X33036Y-33053D01*
X33064Y-33070D01*
X33102Y-33079D01*
X33177Y-33079D01*
X33196Y-33070D01*
X33205Y-33061D01*
X33214Y-33044D01*
X33214Y-33010D01*
X33205Y-32993D01*
X33196Y-32984D01*
X33177Y-32976D01*
X33130Y-32976D01*
X33111Y-32984D01*
X33102Y-32993D01*
X33093Y-33010D01*
X33093Y-33044D01*
X33102Y-33061D01*
X33111Y-33070D01*
X33130Y-33079D01*
X33234Y-34185D02*
X33140Y-34245D01*
X33234Y-34288D02*
X33037Y-34288D01*
X33037Y-34219D01*
X33047Y-34202D01*
X33056Y-34193D01*
X33075Y-34185D01*
X33103Y-34185D01*
X33122Y-34193D01*
X33131Y-34202D01*
X33140Y-34219D01*
X33140Y-34288D01*
X33037Y-34125D02*
X33037Y-34013D01*
X33112Y-34073D01*
X33112Y-34048D01*
X33122Y-34030D01*
X33131Y-34022D01*
X33150Y-34013D01*
X33197Y-34013D01*
X33215Y-34022D01*
X33225Y-34030D01*
X33234Y-34048D01*
X33234Y-34099D01*
X33225Y-34116D01*
X33215Y-34125D01*
X33037Y-33850D02*
X33037Y-33936D01*
X33131Y-33945D01*
X33122Y-33936D01*
X33112Y-33919D01*
X33112Y-33876D01*
X33122Y-33859D01*
X33131Y-33850D01*
X33150Y-33842D01*
X33197Y-33842D01*
X33215Y-33850D01*
X33225Y-33859D01*
X33234Y-33876D01*
X33234Y-33919D01*
X33225Y-33936D01*
X33215Y-33945D01*
X33254Y-35051D02*
X33160Y-35111D01*
X33254Y-35154D02*
X33057Y-35154D01*
X33057Y-35085D01*
X33066Y-35068D01*
X33076Y-35059D01*
X33094Y-35051D01*
X33123Y-35051D01*
X33141Y-35059D01*
X33151Y-35068D01*
X33160Y-35085D01*
X33160Y-35154D01*
X33057Y-34991D02*
X33057Y-34879D01*
X33132Y-34939D01*
X33132Y-34914D01*
X33141Y-34897D01*
X33151Y-34888D01*
X33169Y-34879D01*
X33216Y-34879D01*
X33235Y-34888D01*
X33244Y-34897D01*
X33254Y-34914D01*
X33254Y-34965D01*
X33244Y-34982D01*
X33235Y-34991D01*
X33123Y-34725D02*
X33254Y-34725D01*
X33047Y-34768D02*
X33188Y-34811D01*
X33188Y-34699D01*
X33570Y-27663D02*
X33510Y-27569D01*
X33467Y-27663D02*
X33467Y-27466D01*
X33536Y-27466D01*
X33553Y-27476D01*
X33562Y-27485D01*
X33570Y-27504D01*
X33570Y-27532D01*
X33562Y-27551D01*
X33553Y-27560D01*
X33536Y-27569D01*
X33467Y-27569D01*
X33630Y-27466D02*
X33742Y-27466D01*
X33682Y-27541D01*
X33707Y-27541D01*
X33724Y-27551D01*
X33733Y-27560D01*
X33742Y-27579D01*
X33742Y-27626D01*
X33733Y-27645D01*
X33724Y-27654D01*
X33707Y-27663D01*
X33656Y-27663D01*
X33639Y-27654D01*
X33630Y-27645D01*
X33802Y-27466D02*
X33913Y-27466D01*
X33853Y-27541D01*
X33879Y-27541D01*
X33896Y-27551D01*
X33904Y-27560D01*
X33913Y-27579D01*
X33913Y-27626D01*
X33904Y-27645D01*
X33896Y-27654D01*
X33879Y-27663D01*
X33827Y-27663D01*
X33810Y-27654D01*
X33802Y-27645D01*
X29680Y-35081D02*
X29586Y-35141D01*
X29680Y-35184D02*
X29483Y-35184D01*
X29483Y-35115D01*
X29493Y-35098D01*
X29502Y-35090D01*
X29521Y-35081D01*
X29549Y-35081D01*
X29568Y-35090D01*
X29577Y-35098D01*
X29586Y-35115D01*
X29586Y-35184D01*
X29483Y-35021D02*
X29483Y-34910D01*
X29558Y-34970D01*
X29558Y-34944D01*
X29568Y-34927D01*
X29577Y-34918D01*
X29596Y-34910D01*
X29643Y-34910D01*
X29661Y-34918D01*
X29671Y-34927D01*
X29680Y-34944D01*
X29680Y-34995D01*
X29671Y-35013D01*
X29661Y-35021D01*
X29502Y-34841D02*
X29493Y-34833D01*
X29483Y-34815D01*
X29483Y-34773D01*
X29493Y-34755D01*
X29502Y-34747D01*
X29521Y-34738D01*
X29540Y-34738D01*
X29568Y-34747D01*
X29680Y-34850D01*
X29680Y-34738D01*
X29680Y-34097D02*
X29586Y-34157D01*
X29680Y-34200D02*
X29483Y-34200D01*
X29483Y-34131D01*
X29493Y-34114D01*
X29502Y-34105D01*
X29521Y-34097D01*
X29549Y-34097D01*
X29568Y-34105D01*
X29577Y-34114D01*
X29586Y-34131D01*
X29586Y-34200D01*
X29483Y-34037D02*
X29483Y-33925D01*
X29558Y-33985D01*
X29558Y-33960D01*
X29568Y-33943D01*
X29577Y-33934D01*
X29596Y-33925D01*
X29643Y-33925D01*
X29661Y-33934D01*
X29671Y-33943D01*
X29680Y-33960D01*
X29680Y-34011D01*
X29671Y-34028D01*
X29661Y-34037D01*
X29680Y-33754D02*
X29680Y-33857D01*
X29680Y-33805D02*
X29483Y-33805D01*
X29511Y-33823D01*
X29530Y-33840D01*
X29540Y-33857D01*
X29582Y-33113D02*
X29488Y-33173D01*
X29582Y-33216D02*
X29385Y-33216D01*
X29385Y-33147D01*
X29394Y-33130D01*
X29404Y-33121D01*
X29422Y-33113D01*
X29450Y-33113D01*
X29469Y-33121D01*
X29479Y-33130D01*
X29488Y-33147D01*
X29488Y-33216D01*
X29385Y-33053D02*
X29385Y-32941D01*
X29460Y-33001D01*
X29460Y-32976D01*
X29469Y-32958D01*
X29479Y-32950D01*
X29497Y-32941D01*
X29544Y-32941D01*
X29563Y-32950D01*
X29572Y-32958D01*
X29582Y-32976D01*
X29582Y-33027D01*
X29572Y-33044D01*
X29563Y-33053D01*
X29385Y-32830D02*
X29385Y-32813D01*
X29394Y-32796D01*
X29404Y-32787D01*
X29422Y-32778D01*
X29460Y-32770D01*
X29507Y-32770D01*
X29544Y-32778D01*
X29563Y-32787D01*
X29572Y-32796D01*
X29582Y-32813D01*
X29582Y-32830D01*
X29572Y-32847D01*
X29563Y-32856D01*
X29544Y-32864D01*
X29507Y-32873D01*
X29460Y-32873D01*
X29422Y-32864D01*
X29404Y-32856D01*
X29394Y-32847D01*
X29385Y-32830D01*
X29299Y-32033D02*
X29239Y-31940D01*
X29196Y-32033D02*
X29196Y-31836D01*
X29264Y-31836D01*
X29281Y-31846D01*
X29290Y-31855D01*
X29299Y-31874D01*
X29299Y-31902D01*
X29290Y-31921D01*
X29281Y-31930D01*
X29264Y-31940D01*
X29196Y-31940D01*
X29367Y-31855D02*
X29376Y-31846D01*
X29393Y-31836D01*
X29436Y-31836D01*
X29453Y-31846D01*
X29461Y-31855D01*
X29470Y-31874D01*
X29470Y-31893D01*
X29461Y-31921D01*
X29359Y-32033D01*
X29470Y-32033D01*
X29556Y-32033D02*
X29590Y-32033D01*
X29607Y-32024D01*
X29616Y-32015D01*
X29633Y-31986D01*
X29641Y-31949D01*
X29641Y-31874D01*
X29633Y-31855D01*
X29624Y-31846D01*
X29607Y-31836D01*
X29573Y-31836D01*
X29556Y-31846D01*
X29547Y-31855D01*
X29539Y-31874D01*
X29539Y-31921D01*
X29547Y-31940D01*
X29556Y-31949D01*
X29573Y-31958D01*
X29607Y-31958D01*
X29624Y-31949D01*
X29633Y-31940D01*
X29641Y-31921D01*
X33293Y-26626D02*
X33199Y-26686D01*
X33293Y-26729D02*
X33096Y-26729D01*
X33096Y-26660D01*
X33106Y-26643D01*
X33115Y-26634D01*
X33134Y-26626D01*
X33162Y-26626D01*
X33181Y-26634D01*
X33190Y-26643D01*
X33199Y-26660D01*
X33199Y-26729D01*
X33115Y-26557D02*
X33106Y-26549D01*
X33096Y-26531D01*
X33096Y-26489D01*
X33106Y-26471D01*
X33115Y-26463D01*
X33134Y-26454D01*
X33153Y-26454D01*
X33181Y-26463D01*
X33293Y-26566D01*
X33293Y-26454D01*
X33181Y-26351D02*
X33171Y-26369D01*
X33162Y-26377D01*
X33143Y-26386D01*
X33134Y-26386D01*
X33115Y-26377D01*
X33106Y-26369D01*
X33096Y-26351D01*
X33096Y-26317D01*
X33106Y-26300D01*
X33115Y-26291D01*
X33134Y-26283D01*
X33143Y-26283D01*
X33162Y-26291D01*
X33171Y-26300D01*
X33181Y-26317D01*
X33181Y-26351D01*
X33190Y-26369D01*
X33199Y-26377D01*
X33218Y-26386D01*
X33256Y-26386D01*
X33274Y-26377D01*
X33284Y-26369D01*
X33293Y-26351D01*
X33293Y-26317D01*
X33284Y-26300D01*
X33274Y-26291D01*
X33256Y-26283D01*
X33218Y-26283D01*
X33199Y-26291D01*
X33190Y-26300D01*
X33181Y-26317D01*
X33520Y-22771D02*
X33460Y-22677D01*
X33417Y-22771D02*
X33417Y-22574D01*
X33486Y-22574D01*
X33503Y-22583D01*
X33512Y-22593D01*
X33520Y-22611D01*
X33520Y-22639D01*
X33512Y-22658D01*
X33503Y-22668D01*
X33486Y-22677D01*
X33417Y-22677D01*
X33589Y-22593D02*
X33597Y-22583D01*
X33614Y-22574D01*
X33657Y-22574D01*
X33674Y-22583D01*
X33683Y-22593D01*
X33692Y-22611D01*
X33692Y-22630D01*
X33683Y-22658D01*
X33580Y-22771D01*
X33692Y-22771D01*
X33752Y-22574D02*
X33872Y-22574D01*
X33794Y-22771D01*
X33570Y-20380D02*
X33510Y-20286D01*
X33467Y-20380D02*
X33467Y-20183D01*
X33536Y-20183D01*
X33553Y-20192D01*
X33562Y-20202D01*
X33570Y-20220D01*
X33570Y-20248D01*
X33562Y-20267D01*
X33553Y-20277D01*
X33536Y-20286D01*
X33467Y-20286D01*
X33639Y-20202D02*
X33647Y-20192D01*
X33664Y-20183D01*
X33707Y-20183D01*
X33724Y-20192D01*
X33733Y-20202D01*
X33742Y-20220D01*
X33742Y-20239D01*
X33733Y-20267D01*
X33630Y-20380D01*
X33742Y-20380D01*
X33896Y-20183D02*
X33862Y-20183D01*
X33844Y-20192D01*
X33836Y-20202D01*
X33819Y-20230D01*
X33810Y-20267D01*
X33810Y-20342D01*
X33819Y-20361D01*
X33827Y-20370D01*
X33844Y-20380D01*
X33879Y-20380D01*
X33896Y-20370D01*
X33904Y-20361D01*
X33913Y-20342D01*
X33913Y-20295D01*
X33904Y-20277D01*
X33896Y-20267D01*
X33879Y-20258D01*
X33844Y-20258D01*
X33827Y-20267D01*
X33819Y-20277D01*
X33810Y-20295D01*
X29927Y-20169D02*
X29833Y-20229D01*
X29927Y-20272D02*
X29730Y-20272D01*
X29730Y-20203D01*
X29739Y-20186D01*
X29749Y-20178D01*
X29768Y-20169D01*
X29796Y-20169D01*
X29815Y-20178D01*
X29824Y-20186D01*
X29833Y-20203D01*
X29833Y-20272D01*
X29749Y-20100D02*
X29739Y-20092D01*
X29730Y-20075D01*
X29730Y-20032D01*
X29739Y-20015D01*
X29749Y-20006D01*
X29768Y-19998D01*
X29786Y-19998D01*
X29815Y-20006D01*
X29927Y-20109D01*
X29927Y-19998D01*
X29730Y-19835D02*
X29730Y-19920D01*
X29824Y-19929D01*
X29815Y-19920D01*
X29805Y-19903D01*
X29805Y-19860D01*
X29815Y-19843D01*
X29824Y-19835D01*
X29843Y-19826D01*
X29890Y-19826D01*
X29908Y-19835D01*
X29918Y-19843D01*
X29927Y-19860D01*
X29927Y-19903D01*
X29918Y-19920D01*
X29908Y-19929D01*
X27663Y-27649D02*
X27569Y-27709D01*
X27663Y-27752D02*
X27466Y-27752D01*
X27466Y-27684D01*
X27476Y-27666D01*
X27485Y-27658D01*
X27504Y-27649D01*
X27532Y-27649D01*
X27551Y-27658D01*
X27560Y-27666D01*
X27569Y-27684D01*
X27569Y-27752D01*
X27485Y-27581D02*
X27476Y-27572D01*
X27466Y-27555D01*
X27466Y-27512D01*
X27476Y-27495D01*
X27485Y-27486D01*
X27504Y-27478D01*
X27523Y-27478D01*
X27551Y-27486D01*
X27663Y-27589D01*
X27663Y-27478D01*
X27532Y-27324D02*
X27663Y-27324D01*
X27457Y-27366D02*
X27598Y-27409D01*
X27598Y-27298D01*
X27663Y-26567D02*
X27569Y-26627D01*
X27663Y-26669D02*
X27466Y-26669D01*
X27466Y-26601D01*
X27476Y-26584D01*
X27485Y-26575D01*
X27504Y-26567D01*
X27532Y-26567D01*
X27551Y-26575D01*
X27560Y-26584D01*
X27569Y-26601D01*
X27569Y-26669D01*
X27485Y-26498D02*
X27476Y-26489D01*
X27466Y-26472D01*
X27466Y-26429D01*
X27476Y-26412D01*
X27485Y-26404D01*
X27504Y-26395D01*
X27523Y-26395D01*
X27551Y-26404D01*
X27663Y-26507D01*
X27663Y-26395D01*
X27466Y-26335D02*
X27466Y-26224D01*
X27541Y-26284D01*
X27541Y-26258D01*
X27551Y-26241D01*
X27560Y-26232D01*
X27579Y-26224D01*
X27626Y-26224D01*
X27645Y-26232D01*
X27654Y-26241D01*
X27663Y-26258D01*
X27663Y-26309D01*
X27654Y-26327D01*
X27645Y-26335D01*
X27663Y-25385D02*
X27569Y-25445D01*
X27663Y-25488D02*
X27466Y-25488D01*
X27466Y-25420D01*
X27476Y-25403D01*
X27485Y-25394D01*
X27504Y-25385D01*
X27532Y-25385D01*
X27551Y-25394D01*
X27560Y-25403D01*
X27569Y-25420D01*
X27569Y-25488D01*
X27485Y-25317D02*
X27476Y-25308D01*
X27466Y-25291D01*
X27466Y-25248D01*
X27476Y-25231D01*
X27485Y-25223D01*
X27504Y-25214D01*
X27523Y-25214D01*
X27551Y-25223D01*
X27663Y-25325D01*
X27663Y-25214D01*
X27485Y-25145D02*
X27476Y-25137D01*
X27466Y-25120D01*
X27466Y-25077D01*
X27476Y-25060D01*
X27485Y-25051D01*
X27504Y-25043D01*
X27523Y-25043D01*
X27551Y-25051D01*
X27663Y-25154D01*
X27663Y-25043D01*
X27663Y-24263D02*
X27569Y-24323D01*
X27663Y-24366D02*
X27466Y-24366D01*
X27466Y-24298D01*
X27476Y-24281D01*
X27485Y-24272D01*
X27504Y-24263D01*
X27532Y-24263D01*
X27551Y-24272D01*
X27560Y-24281D01*
X27569Y-24298D01*
X27569Y-24366D01*
X27485Y-24195D02*
X27476Y-24186D01*
X27466Y-24169D01*
X27466Y-24126D01*
X27476Y-24109D01*
X27485Y-24101D01*
X27504Y-24092D01*
X27523Y-24092D01*
X27551Y-24101D01*
X27663Y-24203D01*
X27663Y-24092D01*
X27663Y-23921D02*
X27663Y-24023D01*
X27663Y-23972D02*
X27466Y-23972D01*
X27494Y-23989D01*
X27513Y-24006D01*
X27523Y-24023D01*
X25695Y-35031D02*
X25601Y-35091D01*
X25695Y-35134D02*
X25498Y-35134D01*
X25498Y-35065D01*
X25507Y-35048D01*
X25517Y-35040D01*
X25535Y-35031D01*
X25563Y-35031D01*
X25582Y-35040D01*
X25592Y-35048D01*
X25601Y-35065D01*
X25601Y-35134D01*
X25517Y-34963D02*
X25507Y-34954D01*
X25498Y-34937D01*
X25498Y-34894D01*
X25507Y-34877D01*
X25517Y-34868D01*
X25535Y-34860D01*
X25554Y-34860D01*
X25582Y-34868D01*
X25695Y-34971D01*
X25695Y-34860D01*
X25498Y-34748D02*
X25498Y-34731D01*
X25507Y-34714D01*
X25517Y-34705D01*
X25535Y-34697D01*
X25573Y-34688D01*
X25620Y-34688D01*
X25657Y-34697D01*
X25676Y-34705D01*
X25685Y-34714D01*
X25695Y-34731D01*
X25695Y-34748D01*
X25685Y-34765D01*
X25676Y-34774D01*
X25657Y-34783D01*
X25620Y-34791D01*
X25573Y-34791D01*
X25535Y-34783D01*
X25517Y-34774D01*
X25507Y-34765D01*
X25498Y-34748D01*
X25695Y-34145D02*
X25601Y-34205D01*
X25695Y-34248D02*
X25498Y-34248D01*
X25498Y-34180D01*
X25507Y-34162D01*
X25517Y-34154D01*
X25535Y-34145D01*
X25563Y-34145D01*
X25582Y-34154D01*
X25592Y-34162D01*
X25601Y-34180D01*
X25601Y-34248D01*
X25695Y-33974D02*
X25695Y-34077D01*
X25695Y-34025D02*
X25498Y-34025D01*
X25526Y-34042D01*
X25545Y-34060D01*
X25554Y-34077D01*
X25695Y-33888D02*
X25695Y-33854D01*
X25685Y-33837D01*
X25676Y-33828D01*
X25648Y-33811D01*
X25610Y-33802D01*
X25535Y-33802D01*
X25517Y-33811D01*
X25507Y-33820D01*
X25498Y-33837D01*
X25498Y-33871D01*
X25507Y-33888D01*
X25517Y-33897D01*
X25535Y-33905D01*
X25582Y-33905D01*
X25601Y-33897D01*
X25610Y-33888D01*
X25620Y-33871D01*
X25620Y-33837D01*
X25610Y-33820D01*
X25601Y-33811D01*
X25582Y-33802D01*
X25695Y-33260D02*
X25601Y-33320D01*
X25695Y-33362D02*
X25498Y-33362D01*
X25498Y-33294D01*
X25507Y-33277D01*
X25517Y-33268D01*
X25535Y-33260D01*
X25563Y-33260D01*
X25582Y-33268D01*
X25592Y-33277D01*
X25601Y-33294D01*
X25601Y-33362D01*
X25695Y-33088D02*
X25695Y-33191D01*
X25695Y-33140D02*
X25498Y-33140D01*
X25526Y-33157D01*
X25545Y-33174D01*
X25554Y-33191D01*
X25582Y-32985D02*
X25573Y-33002D01*
X25563Y-33011D01*
X25545Y-33020D01*
X25535Y-33020D01*
X25517Y-33011D01*
X25507Y-33002D01*
X25498Y-32985D01*
X25498Y-32951D01*
X25507Y-32934D01*
X25517Y-32925D01*
X25535Y-32917D01*
X25545Y-32917D01*
X25563Y-32925D01*
X25573Y-32934D01*
X25582Y-32951D01*
X25582Y-32985D01*
X25592Y-33002D01*
X25601Y-33011D01*
X25620Y-33020D01*
X25657Y-33020D01*
X25676Y-33011D01*
X25685Y-33002D01*
X25695Y-32985D01*
X25695Y-32951D01*
X25685Y-32934D01*
X25676Y-32925D01*
X25657Y-32917D01*
X25620Y-32917D01*
X25601Y-32925D01*
X25592Y-32934D01*
X25582Y-32951D01*
X27613Y-28880D02*
X27519Y-28940D01*
X27613Y-28983D02*
X27416Y-28983D01*
X27416Y-28915D01*
X27426Y-28898D01*
X27435Y-28889D01*
X27454Y-28880D01*
X27482Y-28880D01*
X27501Y-28889D01*
X27510Y-28898D01*
X27519Y-28915D01*
X27519Y-28983D01*
X27613Y-28709D02*
X27613Y-28812D01*
X27613Y-28760D02*
X27416Y-28760D01*
X27444Y-28778D01*
X27463Y-28795D01*
X27473Y-28812D01*
X27416Y-28649D02*
X27416Y-28529D01*
X27613Y-28606D01*
X23676Y-34983D02*
X23582Y-35043D01*
X23676Y-35086D02*
X23479Y-35086D01*
X23479Y-35017D01*
X23489Y-35000D01*
X23498Y-34991D01*
X23517Y-34983D01*
X23545Y-34983D01*
X23564Y-34991D01*
X23573Y-35000D01*
X23582Y-35017D01*
X23582Y-35086D01*
X23676Y-34811D02*
X23676Y-34914D01*
X23676Y-34863D02*
X23479Y-34863D01*
X23507Y-34880D01*
X23526Y-34897D01*
X23536Y-34914D01*
X23479Y-34657D02*
X23479Y-34691D01*
X23489Y-34708D01*
X23498Y-34717D01*
X23526Y-34734D01*
X23564Y-34743D01*
X23639Y-34743D01*
X23658Y-34734D01*
X23667Y-34726D01*
X23676Y-34708D01*
X23676Y-34674D01*
X23667Y-34657D01*
X23658Y-34648D01*
X23639Y-34640D01*
X23592Y-34640D01*
X23573Y-34648D01*
X23564Y-34657D01*
X23554Y-34674D01*
X23554Y-34708D01*
X23564Y-34726D01*
X23573Y-34734D01*
X23592Y-34743D01*
X23676Y-33998D02*
X23582Y-34058D01*
X23676Y-34101D02*
X23479Y-34101D01*
X23479Y-34033D01*
X23489Y-34016D01*
X23498Y-34007D01*
X23517Y-33998D01*
X23545Y-33998D01*
X23564Y-34007D01*
X23573Y-34016D01*
X23582Y-34033D01*
X23582Y-34101D01*
X23676Y-33827D02*
X23676Y-33930D01*
X23676Y-33878D02*
X23479Y-33878D01*
X23507Y-33896D01*
X23526Y-33913D01*
X23536Y-33930D01*
X23479Y-33664D02*
X23479Y-33750D01*
X23573Y-33758D01*
X23564Y-33750D01*
X23554Y-33733D01*
X23554Y-33690D01*
X23564Y-33673D01*
X23573Y-33664D01*
X23592Y-33656D01*
X23639Y-33656D01*
X23658Y-33664D01*
X23667Y-33673D01*
X23676Y-33690D01*
X23676Y-33733D01*
X23667Y-33750D01*
X23658Y-33758D01*
X22101Y-33998D02*
X22008Y-34058D01*
X22101Y-34101D02*
X21904Y-34101D01*
X21904Y-34033D01*
X21914Y-34016D01*
X21923Y-34007D01*
X21942Y-33998D01*
X21970Y-33998D01*
X21989Y-34007D01*
X21998Y-34016D01*
X22008Y-34033D01*
X22008Y-34101D01*
X22101Y-33827D02*
X22101Y-33930D01*
X22101Y-33878D02*
X21904Y-33878D01*
X21933Y-33896D01*
X21951Y-33913D01*
X21961Y-33930D01*
X21970Y-33673D02*
X22101Y-33673D01*
X21895Y-33716D02*
X22036Y-33758D01*
X22036Y-33647D01*
X22101Y-33014D02*
X22008Y-33074D01*
X22101Y-33117D02*
X21904Y-33117D01*
X21904Y-33049D01*
X21914Y-33031D01*
X21923Y-33023D01*
X21942Y-33014D01*
X21970Y-33014D01*
X21989Y-33023D01*
X21998Y-33031D01*
X22008Y-33049D01*
X22008Y-33117D01*
X22101Y-32843D02*
X22101Y-32946D01*
X22101Y-32894D02*
X21904Y-32894D01*
X21933Y-32911D01*
X21951Y-32929D01*
X21961Y-32946D01*
X21904Y-32783D02*
X21904Y-32671D01*
X21980Y-32731D01*
X21980Y-32706D01*
X21989Y-32689D01*
X21998Y-32680D01*
X22017Y-32671D01*
X22064Y-32671D01*
X22083Y-32680D01*
X22092Y-32689D01*
X22101Y-32706D01*
X22101Y-32757D01*
X22092Y-32774D01*
X22083Y-32783D01*
X27613Y-23290D02*
X27519Y-23350D01*
X27613Y-23393D02*
X27416Y-23393D01*
X27416Y-23324D01*
X27426Y-23307D01*
X27435Y-23298D01*
X27454Y-23290D01*
X27482Y-23290D01*
X27501Y-23298D01*
X27510Y-23307D01*
X27519Y-23324D01*
X27519Y-23393D01*
X27613Y-23118D02*
X27613Y-23221D01*
X27613Y-23170D02*
X27416Y-23170D01*
X27444Y-23187D01*
X27463Y-23204D01*
X27473Y-23221D01*
X27435Y-23050D02*
X27426Y-23041D01*
X27416Y-23024D01*
X27416Y-22981D01*
X27426Y-22964D01*
X27435Y-22956D01*
X27454Y-22947D01*
X27473Y-22947D01*
X27501Y-22956D01*
X27613Y-23058D01*
X27613Y-22947D01*
X27613Y-22306D02*
X27519Y-22366D01*
X27613Y-22408D02*
X27416Y-22408D01*
X27416Y-22340D01*
X27426Y-22323D01*
X27435Y-22314D01*
X27454Y-22306D01*
X27482Y-22306D01*
X27501Y-22314D01*
X27510Y-22323D01*
X27519Y-22340D01*
X27519Y-22408D01*
X27613Y-22134D02*
X27613Y-22237D01*
X27613Y-22186D02*
X27416Y-22186D01*
X27444Y-22203D01*
X27463Y-22220D01*
X27473Y-22237D01*
X27613Y-21963D02*
X27613Y-22066D01*
X27613Y-22014D02*
X27416Y-22014D01*
X27444Y-22031D01*
X27463Y-22048D01*
X27473Y-22066D01*
X27613Y-21282D02*
X27519Y-21342D01*
X27613Y-21385D02*
X27416Y-21385D01*
X27416Y-21316D01*
X27426Y-21299D01*
X27435Y-21291D01*
X27454Y-21282D01*
X27482Y-21282D01*
X27501Y-21291D01*
X27510Y-21299D01*
X27519Y-21316D01*
X27519Y-21385D01*
X27613Y-21111D02*
X27613Y-21213D01*
X27613Y-21162D02*
X27416Y-21162D01*
X27444Y-21179D01*
X27463Y-21196D01*
X27473Y-21213D01*
X27416Y-20999D02*
X27416Y-20982D01*
X27426Y-20965D01*
X27435Y-20956D01*
X27454Y-20948D01*
X27491Y-20939D01*
X27538Y-20939D01*
X27576Y-20948D01*
X27595Y-20956D01*
X27604Y-20965D01*
X27613Y-20982D01*
X27613Y-20999D01*
X27604Y-21016D01*
X27595Y-21025D01*
X27576Y-21033D01*
X27538Y-21042D01*
X27491Y-21042D01*
X27454Y-21033D01*
X27435Y-21025D01*
X27426Y-21016D01*
X27416Y-20999D01*
X27613Y-20133D02*
X27519Y-20193D01*
X27613Y-20236D02*
X27416Y-20236D01*
X27416Y-20168D01*
X27426Y-20150D01*
X27435Y-20142D01*
X27454Y-20133D01*
X27482Y-20133D01*
X27501Y-20142D01*
X27510Y-20150D01*
X27519Y-20168D01*
X27519Y-20236D01*
X27613Y-20048D02*
X27613Y-20013D01*
X27604Y-19996D01*
X27595Y-19988D01*
X27566Y-19970D01*
X27529Y-19962D01*
X27454Y-19962D01*
X27435Y-19970D01*
X27426Y-19979D01*
X27416Y-19996D01*
X27416Y-20030D01*
X27426Y-20048D01*
X27435Y-20056D01*
X27454Y-20065D01*
X27501Y-20065D01*
X27519Y-20056D01*
X27529Y-20048D01*
X27538Y-20030D01*
X27538Y-19996D01*
X27529Y-19979D01*
X27519Y-19970D01*
X27501Y-19962D01*
X24601Y-20173D02*
X24508Y-20233D01*
X24601Y-20275D02*
X24404Y-20275D01*
X24404Y-20207D01*
X24414Y-20190D01*
X24423Y-20181D01*
X24442Y-20173D01*
X24470Y-20173D01*
X24489Y-20181D01*
X24498Y-20190D01*
X24508Y-20207D01*
X24508Y-20275D01*
X24489Y-20070D02*
X24480Y-20087D01*
X24470Y-20095D01*
X24451Y-20104D01*
X24442Y-20104D01*
X24423Y-20095D01*
X24414Y-20087D01*
X24404Y-20070D01*
X24404Y-20035D01*
X24414Y-20018D01*
X24423Y-20010D01*
X24442Y-20001D01*
X24451Y-20001D01*
X24470Y-20010D01*
X24480Y-20018D01*
X24489Y-20035D01*
X24489Y-20070D01*
X24498Y-20087D01*
X24508Y-20095D01*
X24526Y-20104D01*
X24564Y-20104D01*
X24583Y-20095D01*
X24592Y-20087D01*
X24601Y-20070D01*
X24601Y-20035D01*
X24592Y-20018D01*
X24583Y-20010D01*
X24564Y-20001D01*
X24526Y-20001D01*
X24508Y-20010D01*
X24498Y-20018D01*
X24489Y-20035D01*
X21806Y-26531D02*
X21712Y-26591D01*
X21806Y-26634D02*
X21609Y-26634D01*
X21609Y-26565D01*
X21619Y-26548D01*
X21628Y-26539D01*
X21647Y-26531D01*
X21675Y-26531D01*
X21694Y-26539D01*
X21703Y-26548D01*
X21712Y-26565D01*
X21712Y-26634D01*
X21609Y-26471D02*
X21609Y-26351D01*
X21806Y-26428D01*
X21767Y-23558D02*
X21673Y-23618D01*
X21767Y-23661D02*
X21570Y-23661D01*
X21570Y-23593D01*
X21579Y-23576D01*
X21589Y-23567D01*
X21607Y-23558D01*
X21636Y-23558D01*
X21654Y-23567D01*
X21664Y-23576D01*
X21673Y-23593D01*
X21673Y-23661D01*
X21570Y-23404D02*
X21570Y-23438D01*
X21579Y-23456D01*
X21589Y-23464D01*
X21617Y-23481D01*
X21654Y-23490D01*
X21729Y-23490D01*
X21748Y-23481D01*
X21757Y-23473D01*
X21767Y-23456D01*
X21767Y-23421D01*
X21757Y-23404D01*
X21748Y-23396D01*
X21729Y-23387D01*
X21682Y-23387D01*
X21664Y-23396D01*
X21654Y-23404D01*
X21645Y-23421D01*
X21645Y-23456D01*
X21654Y-23473D01*
X21664Y-23481D01*
X21682Y-23490D01*
X21905Y-20173D02*
X21811Y-20233D01*
X21905Y-20275D02*
X21708Y-20275D01*
X21708Y-20207D01*
X21717Y-20190D01*
X21726Y-20181D01*
X21745Y-20173D01*
X21773Y-20173D01*
X21792Y-20181D01*
X21801Y-20190D01*
X21811Y-20207D01*
X21811Y-20275D01*
X21708Y-20010D02*
X21708Y-20095D01*
X21801Y-20104D01*
X21792Y-20095D01*
X21783Y-20078D01*
X21783Y-20035D01*
X21792Y-20018D01*
X21801Y-20010D01*
X21820Y-20001D01*
X21867Y-20001D01*
X21886Y-20010D01*
X21895Y-20018D01*
X21905Y-20035D01*
X21905Y-20078D01*
X21895Y-20095D01*
X21886Y-20104D01*
X31157Y-34976D02*
X31063Y-35036D01*
X31157Y-35079D02*
X30960Y-35079D01*
X30960Y-35010D01*
X30969Y-34993D01*
X30978Y-34984D01*
X30997Y-34976D01*
X31025Y-34976D01*
X31044Y-34984D01*
X31053Y-34993D01*
X31063Y-35010D01*
X31063Y-35079D01*
X31025Y-34821D02*
X31157Y-34821D01*
X30950Y-34864D02*
X31091Y-34907D01*
X31091Y-34796D01*
X31719Y-35068D02*
X31852Y-35068D01*
X31643Y-35111D02*
X31785Y-35154D01*
X31785Y-35043D01*
X31833Y-34974D02*
X31843Y-34965D01*
X31852Y-34974D01*
X31843Y-34983D01*
X31833Y-34974D01*
X31852Y-34974D01*
X31652Y-34905D02*
X31652Y-34785D01*
X31852Y-34863D01*
X31852Y-34717D02*
X31652Y-34717D01*
X31776Y-34700D02*
X31852Y-34648D01*
X31719Y-34648D02*
X31795Y-34717D01*
X32585Y-20083D02*
X32491Y-20143D01*
X32585Y-20186D02*
X32388Y-20186D01*
X32388Y-20118D01*
X32397Y-20100D01*
X32406Y-20092D01*
X32425Y-20083D01*
X32453Y-20083D01*
X32472Y-20092D01*
X32481Y-20100D01*
X32491Y-20118D01*
X32491Y-20186D01*
X32388Y-20023D02*
X32388Y-19912D01*
X32463Y-19972D01*
X32463Y-19946D01*
X32472Y-19929D01*
X32481Y-19920D01*
X32500Y-19912D01*
X32547Y-19912D01*
X32566Y-19920D01*
X32575Y-19929D01*
X32585Y-19946D01*
X32585Y-19998D01*
X32575Y-20015D01*
X32566Y-20023D01*
X31758Y-20245D02*
X31891Y-20245D01*
X31682Y-20288D02*
X31825Y-20331D01*
X31825Y-20220D01*
X31872Y-20151D02*
X31882Y-20143D01*
X31891Y-20151D01*
X31882Y-20160D01*
X31872Y-20151D01*
X31891Y-20151D01*
X31691Y-20083D02*
X31691Y-19963D01*
X31891Y-20040D01*
X31891Y-19894D02*
X31691Y-19894D01*
X31815Y-19877D02*
X31891Y-19825D01*
X31758Y-19825D02*
X31834Y-19894D01*
X21401Y-28302D02*
X21341Y-28208D01*
X21298Y-28302D02*
X21298Y-28105D01*
X21367Y-28105D01*
X21384Y-28115D01*
X21393Y-28124D01*
X21401Y-28143D01*
X21401Y-28171D01*
X21393Y-28190D01*
X21384Y-28199D01*
X21367Y-28208D01*
X21298Y-28208D01*
X21470Y-28124D02*
X21478Y-28115D01*
X21495Y-28105D01*
X21538Y-28105D01*
X21555Y-28115D01*
X21564Y-28124D01*
X21573Y-28143D01*
X21573Y-28162D01*
X21564Y-28190D01*
X21461Y-28302D01*
X21573Y-28302D01*
X21289Y-27525D02*
X21289Y-27658D01*
X21246Y-27449D02*
X21203Y-27592D01*
X21315Y-27592D01*
X21383Y-27639D02*
X21392Y-27649D01*
X21383Y-27658D01*
X21375Y-27649D01*
X21383Y-27639D01*
X21383Y-27658D01*
X21452Y-27458D02*
X21572Y-27458D01*
X21495Y-27658D01*
X21640Y-27658D02*
X21640Y-27458D01*
X21658Y-27582D02*
X21709Y-27658D01*
X21709Y-27525D02*
X21640Y-27601D01*
X23333Y-26481D02*
X23239Y-26541D01*
X23333Y-26584D02*
X23136Y-26584D01*
X23136Y-26515D01*
X23145Y-26498D01*
X23154Y-26489D01*
X23173Y-26481D01*
X23201Y-26481D01*
X23220Y-26489D01*
X23229Y-26498D01*
X23239Y-26515D01*
X23239Y-26584D01*
X23333Y-26309D02*
X23333Y-26412D01*
X23333Y-26361D02*
X23136Y-26361D01*
X23164Y-26378D01*
X23182Y-26395D01*
X23192Y-26412D01*
X23845Y-26623D02*
X23978Y-26623D01*
X23769Y-26666D02*
X23911Y-26709D01*
X23911Y-26598D01*
X23959Y-26529D02*
X23969Y-26520D01*
X23978Y-26529D01*
X23969Y-26538D01*
X23959Y-26529D01*
X23978Y-26529D01*
X23778Y-26460D02*
X23778Y-26340D01*
X23978Y-26418D01*
X23978Y-26272D02*
X23778Y-26272D01*
X23902Y-26255D02*
X23978Y-26203D01*
X23845Y-26203D02*
X23921Y-26272D01*
G54D11*
X32248Y-32629D02*
X31848Y-32629D01*
X32134Y-32496D01*
X31848Y-32362D01*
X32248Y-32362D01*
X32134Y-32191D02*
X32134Y-32000D01*
X32248Y-32229D02*
X31848Y-32096D01*
X32248Y-31962D01*
X31848Y-31886D02*
X31848Y-31657D01*
X32248Y-31772D02*
X31848Y-31772D01*
X32248Y-31296D02*
X32058Y-31429D01*
X32248Y-31524D02*
X31848Y-31524D01*
X31848Y-31372D01*
X31867Y-31334D01*
X31886Y-31315D01*
X31924Y-31296D01*
X31981Y-31296D01*
X32019Y-31315D01*
X32038Y-31334D01*
X32058Y-31372D01*
X32058Y-31524D01*
X32248Y-31124D02*
X31848Y-31124D01*
X31848Y-30972D02*
X32248Y-30705D01*
X31848Y-30705D02*
X32248Y-30972D01*
X31981Y-30381D02*
X32248Y-30381D01*
X31829Y-30477D02*
X32115Y-30572D01*
X32115Y-30324D01*
X31264Y-32477D02*
X31264Y-32667D01*
X30864Y-32667D01*
X31054Y-32343D02*
X31054Y-32210D01*
X31264Y-32153D02*
X31264Y-32343D01*
X30864Y-32343D01*
X30864Y-32153D01*
X31264Y-31981D02*
X30864Y-31981D01*
X30864Y-31886D01*
X30883Y-31829D01*
X30921Y-31791D01*
X30959Y-31772D01*
X31035Y-31753D01*
X31092Y-31753D01*
X31169Y-31772D01*
X31207Y-31791D01*
X31245Y-31829D01*
X31264Y-31886D01*
X31264Y-31981D01*
X31302Y-31677D02*
X31302Y-31372D01*
X31035Y-31219D02*
X31016Y-31257D01*
X30997Y-31277D01*
X30959Y-31296D01*
X30940Y-31296D01*
X30902Y-31277D01*
X30883Y-31257D01*
X30864Y-31219D01*
X30864Y-31143D01*
X30883Y-31105D01*
X30902Y-31086D01*
X30940Y-31067D01*
X30959Y-31067D01*
X30997Y-31086D01*
X31016Y-31105D01*
X31035Y-31143D01*
X31035Y-31219D01*
X31054Y-31257D01*
X31073Y-31277D01*
X31111Y-31296D01*
X31188Y-31296D01*
X31226Y-31277D01*
X31245Y-31257D01*
X31264Y-31219D01*
X31264Y-31143D01*
X31245Y-31105D01*
X31226Y-31086D01*
X31188Y-31067D01*
X31111Y-31067D01*
X31073Y-31086D01*
X31054Y-31105D01*
X31035Y-31143D01*
X30864Y-30934D02*
X31264Y-30667D01*
X30864Y-30667D02*
X31264Y-30934D01*
X31035Y-30457D02*
X31016Y-30496D01*
X30997Y-30515D01*
X30959Y-30534D01*
X30940Y-30534D01*
X30902Y-30515D01*
X30883Y-30496D01*
X30864Y-30457D01*
X30864Y-30381D01*
X30883Y-30343D01*
X30902Y-30324D01*
X30940Y-30305D01*
X30959Y-30305D01*
X30997Y-30324D01*
X31016Y-30343D01*
X31035Y-30381D01*
X31035Y-30457D01*
X31054Y-30496D01*
X31073Y-30515D01*
X31111Y-30534D01*
X31188Y-30534D01*
X31226Y-30515D01*
X31245Y-30496D01*
X31264Y-30457D01*
X31264Y-30381D01*
X31245Y-30343D01*
X31226Y-30324D01*
X31188Y-30305D01*
X31111Y-30305D01*
X31073Y-30324D01*
X31054Y-30343D01*
X31035Y-30381D01*
X32248Y-24755D02*
X31848Y-24755D01*
X32134Y-24622D01*
X31848Y-24488D01*
X32248Y-24488D01*
X32134Y-24317D02*
X32134Y-24126D01*
X32248Y-24355D02*
X31848Y-24222D01*
X32248Y-24088D01*
X31848Y-24012D02*
X31848Y-23783D01*
X32248Y-23898D02*
X31848Y-23898D01*
X32248Y-23422D02*
X32058Y-23555D01*
X32248Y-23650D02*
X31848Y-23650D01*
X31848Y-23498D01*
X31867Y-23460D01*
X31886Y-23441D01*
X31924Y-23422D01*
X31981Y-23422D01*
X32019Y-23441D01*
X32038Y-23460D01*
X32058Y-23498D01*
X32058Y-23650D01*
X32248Y-23250D02*
X31848Y-23250D01*
X31848Y-23098D02*
X32248Y-22831D01*
X31848Y-22831D02*
X32248Y-23098D01*
X31848Y-22717D02*
X31848Y-22469D01*
X32000Y-22602D01*
X32000Y-22545D01*
X32019Y-22507D01*
X32038Y-22488D01*
X32077Y-22469D01*
X32172Y-22469D01*
X32210Y-22488D01*
X32229Y-22507D01*
X32248Y-22545D01*
X32248Y-22660D01*
X32229Y-22698D01*
X32210Y-22717D01*
X31264Y-24602D02*
X31264Y-24793D01*
X30864Y-24793D01*
X31054Y-24469D02*
X31054Y-24336D01*
X31264Y-24279D02*
X31264Y-24469D01*
X30864Y-24469D01*
X30864Y-24279D01*
X31264Y-24107D02*
X30864Y-24107D01*
X30864Y-24012D01*
X30883Y-23955D01*
X30921Y-23917D01*
X30959Y-23898D01*
X31035Y-23879D01*
X31092Y-23879D01*
X31169Y-23898D01*
X31207Y-23917D01*
X31245Y-23955D01*
X31264Y-24012D01*
X31264Y-24107D01*
X31302Y-23802D02*
X31302Y-23498D01*
X31035Y-23345D02*
X31016Y-23383D01*
X30997Y-23402D01*
X30959Y-23422D01*
X30940Y-23422D01*
X30902Y-23402D01*
X30883Y-23383D01*
X30864Y-23345D01*
X30864Y-23269D01*
X30883Y-23231D01*
X30902Y-23212D01*
X30940Y-23193D01*
X30959Y-23193D01*
X30997Y-23212D01*
X31016Y-23231D01*
X31035Y-23269D01*
X31035Y-23345D01*
X31054Y-23383D01*
X31073Y-23402D01*
X31111Y-23422D01*
X31188Y-23422D01*
X31226Y-23402D01*
X31245Y-23383D01*
X31264Y-23345D01*
X31264Y-23269D01*
X31245Y-23231D01*
X31226Y-23212D01*
X31188Y-23193D01*
X31111Y-23193D01*
X31073Y-23212D01*
X31054Y-23231D01*
X31035Y-23269D01*
X30864Y-23060D02*
X31264Y-22793D01*
X30864Y-22793D02*
X31264Y-23060D01*
X31035Y-22583D02*
X31016Y-22622D01*
X30997Y-22641D01*
X30959Y-22660D01*
X30940Y-22660D01*
X30902Y-22641D01*
X30883Y-22622D01*
X30864Y-22583D01*
X30864Y-22507D01*
X30883Y-22469D01*
X30902Y-22450D01*
X30940Y-22431D01*
X30959Y-22431D01*
X30997Y-22450D01*
X31016Y-22469D01*
X31035Y-22507D01*
X31035Y-22583D01*
X31054Y-22622D01*
X31073Y-22641D01*
X31111Y-22660D01*
X31188Y-22660D01*
X31226Y-22641D01*
X31245Y-22622D01*
X31264Y-22583D01*
X31264Y-22507D01*
X31245Y-22469D01*
X31226Y-22450D01*
X31188Y-22431D01*
X31111Y-22431D01*
X31073Y-22450D01*
X31054Y-22469D01*
X31035Y-22507D01*
X24374Y-32629D02*
X23974Y-32629D01*
X24260Y-32496D01*
X23974Y-32362D01*
X24374Y-32362D01*
X24260Y-32191D02*
X24260Y-32000D01*
X24374Y-32229D02*
X23974Y-32096D01*
X24374Y-31962D01*
X23974Y-31886D02*
X23974Y-31657D01*
X24374Y-31772D02*
X23974Y-31772D01*
X24374Y-31296D02*
X24184Y-31429D01*
X24374Y-31524D02*
X23974Y-31524D01*
X23974Y-31372D01*
X23993Y-31334D01*
X24012Y-31315D01*
X24050Y-31296D01*
X24107Y-31296D01*
X24145Y-31315D01*
X24164Y-31334D01*
X24184Y-31372D01*
X24184Y-31524D01*
X24374Y-31124D02*
X23974Y-31124D01*
X23974Y-30972D02*
X24374Y-30705D01*
X23974Y-30705D02*
X24374Y-30972D01*
X24012Y-30572D02*
X23993Y-30553D01*
X23974Y-30515D01*
X23974Y-30419D01*
X23993Y-30381D01*
X24012Y-30362D01*
X24050Y-30343D01*
X24088Y-30343D01*
X24145Y-30362D01*
X24374Y-30591D01*
X24374Y-30343D01*
X23390Y-32477D02*
X23390Y-32667D01*
X22990Y-32667D01*
X23180Y-32343D02*
X23180Y-32210D01*
X23390Y-32153D02*
X23390Y-32343D01*
X22990Y-32343D01*
X22990Y-32153D01*
X23390Y-31981D02*
X22990Y-31981D01*
X22990Y-31886D01*
X23009Y-31829D01*
X23047Y-31791D01*
X23085Y-31772D01*
X23161Y-31753D01*
X23218Y-31753D01*
X23295Y-31772D01*
X23333Y-31791D01*
X23371Y-31829D01*
X23390Y-31886D01*
X23390Y-31981D01*
X23428Y-31677D02*
X23428Y-31372D01*
X23161Y-31219D02*
X23142Y-31257D01*
X23123Y-31277D01*
X23085Y-31296D01*
X23066Y-31296D01*
X23028Y-31277D01*
X23009Y-31257D01*
X22990Y-31219D01*
X22990Y-31143D01*
X23009Y-31105D01*
X23028Y-31086D01*
X23066Y-31067D01*
X23085Y-31067D01*
X23123Y-31086D01*
X23142Y-31105D01*
X23161Y-31143D01*
X23161Y-31219D01*
X23180Y-31257D01*
X23199Y-31277D01*
X23237Y-31296D01*
X23314Y-31296D01*
X23352Y-31277D01*
X23371Y-31257D01*
X23390Y-31219D01*
X23390Y-31143D01*
X23371Y-31105D01*
X23352Y-31086D01*
X23314Y-31067D01*
X23237Y-31067D01*
X23199Y-31086D01*
X23180Y-31105D01*
X23161Y-31143D01*
X22990Y-30934D02*
X23390Y-30667D01*
X22990Y-30667D02*
X23390Y-30934D01*
X23161Y-30457D02*
X23142Y-30496D01*
X23123Y-30515D01*
X23085Y-30534D01*
X23066Y-30534D01*
X23028Y-30515D01*
X23009Y-30496D01*
X22990Y-30457D01*
X22990Y-30381D01*
X23009Y-30343D01*
X23028Y-30324D01*
X23066Y-30305D01*
X23085Y-30305D01*
X23123Y-30324D01*
X23142Y-30343D01*
X23161Y-30381D01*
X23161Y-30457D01*
X23180Y-30496D01*
X23199Y-30515D01*
X23237Y-30534D01*
X23314Y-30534D01*
X23352Y-30515D01*
X23371Y-30496D01*
X23390Y-30457D01*
X23390Y-30381D01*
X23371Y-30343D01*
X23352Y-30324D01*
X23314Y-30305D01*
X23237Y-30305D01*
X23199Y-30324D01*
X23180Y-30343D01*
X23161Y-30381D01*
X24374Y-24755D02*
X23974Y-24755D01*
X24260Y-24622D01*
X23974Y-24488D01*
X24374Y-24488D01*
X24260Y-24317D02*
X24260Y-24126D01*
X24374Y-24355D02*
X23974Y-24222D01*
X24374Y-24088D01*
X23974Y-24012D02*
X23974Y-23783D01*
X24374Y-23898D02*
X23974Y-23898D01*
X24374Y-23422D02*
X24184Y-23555D01*
X24374Y-23650D02*
X23974Y-23650D01*
X23974Y-23498D01*
X23993Y-23460D01*
X24012Y-23441D01*
X24050Y-23422D01*
X24107Y-23422D01*
X24145Y-23441D01*
X24164Y-23460D01*
X24184Y-23498D01*
X24184Y-23650D01*
X24374Y-23250D02*
X23974Y-23250D01*
X23974Y-23098D02*
X24374Y-22831D01*
X23974Y-22831D02*
X24374Y-23098D01*
X24374Y-22469D02*
X24374Y-22698D01*
X24374Y-22583D02*
X23974Y-22583D01*
X24031Y-22622D01*
X24069Y-22660D01*
X24088Y-22698D01*
X23390Y-24602D02*
X23390Y-24793D01*
X22990Y-24793D01*
X23180Y-24469D02*
X23180Y-24336D01*
X23390Y-24279D02*
X23390Y-24469D01*
X22990Y-24469D01*
X22990Y-24279D01*
X23390Y-24107D02*
X22990Y-24107D01*
X22990Y-24012D01*
X23009Y-23955D01*
X23047Y-23917D01*
X23085Y-23898D01*
X23161Y-23879D01*
X23218Y-23879D01*
X23295Y-23898D01*
X23333Y-23917D01*
X23371Y-23955D01*
X23390Y-24012D01*
X23390Y-24107D01*
X23428Y-23802D02*
X23428Y-23498D01*
X23161Y-23345D02*
X23142Y-23383D01*
X23123Y-23402D01*
X23085Y-23422D01*
X23066Y-23422D01*
X23028Y-23402D01*
X23009Y-23383D01*
X22990Y-23345D01*
X22990Y-23269D01*
X23009Y-23231D01*
X23028Y-23212D01*
X23066Y-23193D01*
X23085Y-23193D01*
X23123Y-23212D01*
X23142Y-23231D01*
X23161Y-23269D01*
X23161Y-23345D01*
X23180Y-23383D01*
X23199Y-23402D01*
X23237Y-23422D01*
X23314Y-23422D01*
X23352Y-23402D01*
X23371Y-23383D01*
X23390Y-23345D01*
X23390Y-23269D01*
X23371Y-23231D01*
X23352Y-23212D01*
X23314Y-23193D01*
X23237Y-23193D01*
X23199Y-23212D01*
X23180Y-23231D01*
X23161Y-23269D01*
X22990Y-23060D02*
X23390Y-22793D01*
X22990Y-22793D02*
X23390Y-23060D01*
X23161Y-22583D02*
X23142Y-22622D01*
X23123Y-22641D01*
X23085Y-22660D01*
X23066Y-22660D01*
X23028Y-22641D01*
X23009Y-22622D01*
X22990Y-22583D01*
X22990Y-22507D01*
X23009Y-22469D01*
X23028Y-22450D01*
X23066Y-22431D01*
X23085Y-22431D01*
X23123Y-22450D01*
X23142Y-22469D01*
X23161Y-22507D01*
X23161Y-22583D01*
X23180Y-22622D01*
X23199Y-22641D01*
X23237Y-22660D01*
X23314Y-22660D01*
X23352Y-22641D01*
X23371Y-22622D01*
X23390Y-22583D01*
X23390Y-22507D01*
X23371Y-22469D01*
X23352Y-22450D01*
X23314Y-22431D01*
X23237Y-22431D01*
X23199Y-22450D01*
X23180Y-22469D01*
X23161Y-22507D01*
M02*
