G04 (created by PCBNEW (2013-jul-07)-stable) date Thu 09 Apr 2015 12:34:56 PM PDT*
%MOIN*%
G04 Gerber Fmt 3.4, Leading zero omitted, Abs format*
%FSLAX34Y34*%
G01*
G70*
G90*
G04 APERTURE LIST*
%ADD10C,0.00590551*%
%ADD11C,0.008*%
%ADD12C,0.012*%
G04 APERTURE END LIST*
G54D10*
G54D11*
X33763Y-35022D02*
X33706Y-35041D01*
X33687Y-35060D01*
X33668Y-35098D01*
X33668Y-35155D01*
X33687Y-35193D01*
X33706Y-35212D01*
X33744Y-35231D01*
X33896Y-35231D01*
X33896Y-34831D01*
X33763Y-34831D01*
X33725Y-34850D01*
X33706Y-34870D01*
X33687Y-34908D01*
X33687Y-34946D01*
X33706Y-34984D01*
X33725Y-35003D01*
X33763Y-35022D01*
X33896Y-35022D01*
X33420Y-34831D02*
X33344Y-34831D01*
X33306Y-34850D01*
X33268Y-34889D01*
X33249Y-34965D01*
X33249Y-35098D01*
X33268Y-35174D01*
X33306Y-35212D01*
X33344Y-35231D01*
X33420Y-35231D01*
X33458Y-35212D01*
X33496Y-35174D01*
X33515Y-35098D01*
X33515Y-34965D01*
X33496Y-34889D01*
X33458Y-34850D01*
X33420Y-34831D01*
X33134Y-34831D02*
X32906Y-34831D01*
X33020Y-35231D02*
X33020Y-34831D01*
X33958Y-19891D02*
X33730Y-19891D01*
X33844Y-20291D02*
X33844Y-19891D01*
X33520Y-19891D02*
X33444Y-19891D01*
X33406Y-19910D01*
X33368Y-19949D01*
X33349Y-20025D01*
X33349Y-20158D01*
X33368Y-20234D01*
X33406Y-20272D01*
X33444Y-20291D01*
X33520Y-20291D01*
X33558Y-20272D01*
X33596Y-20234D01*
X33615Y-20158D01*
X33615Y-20025D01*
X33596Y-19949D01*
X33558Y-19910D01*
X33520Y-19891D01*
X33177Y-20291D02*
X33177Y-19891D01*
X33025Y-19891D01*
X32987Y-19910D01*
X32968Y-19930D01*
X32949Y-19968D01*
X32949Y-20025D01*
X32968Y-20063D01*
X32987Y-20082D01*
X33025Y-20101D01*
X33177Y-20101D01*
X24895Y-22854D02*
X25161Y-22854D01*
X24742Y-22759D02*
X25028Y-22663D01*
X25028Y-22911D01*
X25009Y-23063D02*
X25009Y-23368D01*
X25161Y-23559D02*
X24761Y-23559D01*
X25047Y-23692D01*
X24761Y-23825D01*
X25161Y-23825D01*
X25161Y-24187D02*
X24952Y-24187D01*
X24914Y-24168D01*
X24895Y-24130D01*
X24895Y-24054D01*
X24914Y-24016D01*
X25142Y-24187D02*
X25161Y-24149D01*
X25161Y-24054D01*
X25142Y-24016D01*
X25104Y-23997D01*
X25066Y-23997D01*
X25028Y-24016D01*
X25009Y-24054D01*
X25009Y-24149D01*
X24990Y-24187D01*
X24895Y-24320D02*
X24895Y-24473D01*
X24761Y-24378D02*
X25104Y-24378D01*
X25142Y-24397D01*
X25161Y-24435D01*
X25161Y-24473D01*
X25161Y-24606D02*
X24895Y-24606D01*
X24971Y-24606D02*
X24933Y-24625D01*
X24914Y-24644D01*
X24895Y-24682D01*
X24895Y-24720D01*
X25161Y-24854D02*
X24895Y-24854D01*
X24761Y-24854D02*
X24780Y-24835D01*
X24800Y-24854D01*
X24780Y-24873D01*
X24761Y-24854D01*
X24800Y-24854D01*
X25161Y-25006D02*
X24895Y-25216D01*
X24895Y-25006D02*
X25161Y-25216D01*
X25047Y-25654D02*
X25047Y-25844D01*
X25161Y-25616D02*
X24761Y-25749D01*
X25161Y-25882D01*
X24895Y-25959D02*
X24895Y-26111D01*
X24761Y-26016D02*
X25104Y-26016D01*
X25142Y-26035D01*
X25161Y-26073D01*
X25161Y-26111D01*
X25161Y-26244D02*
X24895Y-26244D01*
X24933Y-26244D02*
X24914Y-26263D01*
X24895Y-26301D01*
X24895Y-26359D01*
X24914Y-26397D01*
X24952Y-26416D01*
X25161Y-26416D01*
X24952Y-26416D02*
X24914Y-26435D01*
X24895Y-26473D01*
X24895Y-26530D01*
X24914Y-26568D01*
X24952Y-26587D01*
X25161Y-26587D01*
X25142Y-26930D02*
X25161Y-26892D01*
X25161Y-26816D01*
X25142Y-26778D01*
X25104Y-26759D01*
X24952Y-26759D01*
X24914Y-26778D01*
X24895Y-26816D01*
X24895Y-26892D01*
X24914Y-26930D01*
X24952Y-26949D01*
X24990Y-26949D01*
X25028Y-26759D01*
X24895Y-27292D02*
X25219Y-27292D01*
X25257Y-27273D01*
X25276Y-27254D01*
X25295Y-27216D01*
X25295Y-27159D01*
X25276Y-27120D01*
X25142Y-27292D02*
X25161Y-27254D01*
X25161Y-27178D01*
X25142Y-27140D01*
X25123Y-27120D01*
X25085Y-27101D01*
X24971Y-27101D01*
X24933Y-27120D01*
X24914Y-27140D01*
X24895Y-27178D01*
X24895Y-27254D01*
X24914Y-27292D01*
X25161Y-27654D02*
X24952Y-27654D01*
X24914Y-27635D01*
X24895Y-27597D01*
X24895Y-27520D01*
X24914Y-27482D01*
X25142Y-27654D02*
X25161Y-27616D01*
X25161Y-27520D01*
X25142Y-27482D01*
X25104Y-27463D01*
X25066Y-27463D01*
X25028Y-27482D01*
X25009Y-27520D01*
X25009Y-27616D01*
X24990Y-27654D01*
X24761Y-27806D02*
X24761Y-28054D01*
X24914Y-27920D01*
X24914Y-27978D01*
X24933Y-28016D01*
X24952Y-28035D01*
X24990Y-28054D01*
X25085Y-28054D01*
X25123Y-28035D01*
X25142Y-28016D01*
X25161Y-27978D01*
X25161Y-27863D01*
X25142Y-27825D01*
X25123Y-27806D01*
X24800Y-28206D02*
X24780Y-28225D01*
X24761Y-28263D01*
X24761Y-28359D01*
X24780Y-28397D01*
X24800Y-28416D01*
X24838Y-28435D01*
X24876Y-28435D01*
X24933Y-28416D01*
X25161Y-28187D01*
X25161Y-28435D01*
X24933Y-28663D02*
X24914Y-28625D01*
X24895Y-28606D01*
X24857Y-28587D01*
X24838Y-28587D01*
X24800Y-28606D01*
X24780Y-28625D01*
X24761Y-28663D01*
X24761Y-28740D01*
X24780Y-28778D01*
X24800Y-28797D01*
X24838Y-28816D01*
X24857Y-28816D01*
X24895Y-28797D01*
X24914Y-28778D01*
X24933Y-28740D01*
X24933Y-28663D01*
X24952Y-28625D01*
X24971Y-28606D01*
X25009Y-28587D01*
X25085Y-28587D01*
X25123Y-28606D01*
X25142Y-28625D01*
X25161Y-28663D01*
X25161Y-28740D01*
X25142Y-28778D01*
X25123Y-28797D01*
X25085Y-28816D01*
X25009Y-28816D01*
X24971Y-28797D01*
X24952Y-28778D01*
X24933Y-28740D01*
X25161Y-29292D02*
X24761Y-29292D01*
X24761Y-29387D01*
X24780Y-29444D01*
X24819Y-29482D01*
X24857Y-29501D01*
X24933Y-29520D01*
X24990Y-29520D01*
X25066Y-29501D01*
X25104Y-29482D01*
X25142Y-29444D01*
X25161Y-29387D01*
X25161Y-29292D01*
X25161Y-29692D02*
X24895Y-29692D01*
X24971Y-29692D02*
X24933Y-29711D01*
X24914Y-29730D01*
X24895Y-29768D01*
X24895Y-29806D01*
X25161Y-29940D02*
X24895Y-29940D01*
X24761Y-29940D02*
X24780Y-29920D01*
X24800Y-29940D01*
X24780Y-29959D01*
X24761Y-29940D01*
X24800Y-29940D01*
X24895Y-30092D02*
X25161Y-30187D01*
X24895Y-30282D01*
X25142Y-30587D02*
X25161Y-30549D01*
X25161Y-30473D01*
X25142Y-30435D01*
X25104Y-30416D01*
X24952Y-30416D01*
X24914Y-30435D01*
X24895Y-30473D01*
X24895Y-30549D01*
X24914Y-30587D01*
X24952Y-30606D01*
X24990Y-30606D01*
X25028Y-30416D01*
X25161Y-30778D02*
X24895Y-30778D01*
X24971Y-30778D02*
X24933Y-30797D01*
X24914Y-30816D01*
X24895Y-30854D01*
X24895Y-30892D01*
X24761Y-31273D02*
X25161Y-31406D01*
X24761Y-31540D01*
X24761Y-31749D02*
X24761Y-31787D01*
X24780Y-31825D01*
X24800Y-31844D01*
X24838Y-31863D01*
X24914Y-31882D01*
X25009Y-31882D01*
X25085Y-31863D01*
X25123Y-31844D01*
X25142Y-31825D01*
X25161Y-31787D01*
X25161Y-31749D01*
X25142Y-31711D01*
X25123Y-31692D01*
X25085Y-31673D01*
X25009Y-31654D01*
X24914Y-31654D01*
X24838Y-31673D01*
X24800Y-31692D01*
X24780Y-31711D01*
X24761Y-31749D01*
X25123Y-32054D02*
X25142Y-32073D01*
X25161Y-32054D01*
X25142Y-32035D01*
X25123Y-32054D01*
X25161Y-32054D01*
X24761Y-32206D02*
X24761Y-32454D01*
X24914Y-32320D01*
X24914Y-32378D01*
X24933Y-32416D01*
X24952Y-32435D01*
X24990Y-32454D01*
X25085Y-32454D01*
X25123Y-32435D01*
X25142Y-32416D01*
X25161Y-32378D01*
X25161Y-32263D01*
X25142Y-32225D01*
X25123Y-32206D01*
X25535Y-25063D02*
X25801Y-25140D01*
X25611Y-25216D01*
X25801Y-25292D01*
X25535Y-25368D01*
X25535Y-25482D02*
X25801Y-25559D01*
X25611Y-25635D01*
X25801Y-25711D01*
X25535Y-25787D01*
X25535Y-25901D02*
X25801Y-25978D01*
X25611Y-26054D01*
X25801Y-26130D01*
X25535Y-26206D01*
X25763Y-26359D02*
X25782Y-26378D01*
X25801Y-26359D01*
X25782Y-26340D01*
X25763Y-26359D01*
X25801Y-26359D01*
X25801Y-26549D02*
X25535Y-26549D01*
X25401Y-26549D02*
X25420Y-26530D01*
X25440Y-26549D01*
X25420Y-26568D01*
X25401Y-26549D01*
X25440Y-26549D01*
X25801Y-26797D02*
X25782Y-26759D01*
X25763Y-26740D01*
X25725Y-26720D01*
X25611Y-26720D01*
X25573Y-26740D01*
X25554Y-26759D01*
X25535Y-26797D01*
X25535Y-26854D01*
X25554Y-26892D01*
X25573Y-26911D01*
X25611Y-26930D01*
X25725Y-26930D01*
X25763Y-26911D01*
X25782Y-26892D01*
X25801Y-26854D01*
X25801Y-26797D01*
X25801Y-27101D02*
X25535Y-27101D01*
X25611Y-27101D02*
X25573Y-27120D01*
X25554Y-27140D01*
X25535Y-27178D01*
X25535Y-27216D01*
X25801Y-27406D02*
X25782Y-27368D01*
X25763Y-27349D01*
X25725Y-27330D01*
X25611Y-27330D01*
X25573Y-27349D01*
X25554Y-27368D01*
X25535Y-27406D01*
X25535Y-27463D01*
X25554Y-27501D01*
X25573Y-27520D01*
X25611Y-27540D01*
X25725Y-27540D01*
X25763Y-27520D01*
X25782Y-27501D01*
X25801Y-27463D01*
X25801Y-27406D01*
X25801Y-27882D02*
X25401Y-27882D01*
X25782Y-27882D02*
X25801Y-27844D01*
X25801Y-27768D01*
X25782Y-27730D01*
X25763Y-27711D01*
X25725Y-27692D01*
X25611Y-27692D01*
X25573Y-27711D01*
X25554Y-27730D01*
X25535Y-27768D01*
X25535Y-27844D01*
X25554Y-27882D01*
X25782Y-28225D02*
X25801Y-28187D01*
X25801Y-28111D01*
X25782Y-28073D01*
X25744Y-28054D01*
X25592Y-28054D01*
X25554Y-28073D01*
X25535Y-28111D01*
X25535Y-28187D01*
X25554Y-28225D01*
X25592Y-28244D01*
X25630Y-28244D01*
X25668Y-28054D01*
X25801Y-28473D02*
X25782Y-28435D01*
X25763Y-28416D01*
X25725Y-28397D01*
X25611Y-28397D01*
X25573Y-28416D01*
X25554Y-28435D01*
X25535Y-28473D01*
X25535Y-28530D01*
X25554Y-28568D01*
X25573Y-28587D01*
X25611Y-28606D01*
X25725Y-28606D01*
X25763Y-28587D01*
X25782Y-28568D01*
X25801Y-28530D01*
X25801Y-28473D01*
X25763Y-28778D02*
X25782Y-28797D01*
X25801Y-28778D01*
X25782Y-28759D01*
X25763Y-28778D01*
X25801Y-28778D01*
X25782Y-29140D02*
X25801Y-29101D01*
X25801Y-29025D01*
X25782Y-28987D01*
X25763Y-28968D01*
X25725Y-28949D01*
X25611Y-28949D01*
X25573Y-28968D01*
X25554Y-28987D01*
X25535Y-29025D01*
X25535Y-29101D01*
X25554Y-29140D01*
X25801Y-29368D02*
X25782Y-29330D01*
X25763Y-29311D01*
X25725Y-29292D01*
X25611Y-29292D01*
X25573Y-29311D01*
X25554Y-29330D01*
X25535Y-29368D01*
X25535Y-29425D01*
X25554Y-29463D01*
X25573Y-29482D01*
X25611Y-29501D01*
X25725Y-29501D01*
X25763Y-29482D01*
X25782Y-29463D01*
X25801Y-29425D01*
X25801Y-29368D01*
X25801Y-29673D02*
X25535Y-29673D01*
X25573Y-29673D02*
X25554Y-29692D01*
X25535Y-29730D01*
X25535Y-29787D01*
X25554Y-29825D01*
X25592Y-29844D01*
X25801Y-29844D01*
X25592Y-29844D02*
X25554Y-29863D01*
X25535Y-29901D01*
X25535Y-29959D01*
X25554Y-29997D01*
X25592Y-30016D01*
X25801Y-30016D01*
G54D12*
X21244Y-26000D02*
X23244Y-26000D01*
X23244Y-26000D02*
X23244Y-24000D01*
X23244Y-24000D02*
X21244Y-24000D01*
X21244Y-24000D02*
X21244Y-26000D01*
X21244Y-32299D02*
X23244Y-32299D01*
X23244Y-32299D02*
X23244Y-30299D01*
X23244Y-30299D02*
X21244Y-30299D01*
X21244Y-30299D02*
X21244Y-32299D01*
X31874Y-26000D02*
X33874Y-26000D01*
X33874Y-26000D02*
X33874Y-24000D01*
X33874Y-24000D02*
X31874Y-24000D01*
X31874Y-24000D02*
X31874Y-26000D01*
X31874Y-32299D02*
X33874Y-32299D01*
X33874Y-32299D02*
X33874Y-30299D01*
X33874Y-30299D02*
X31874Y-30299D01*
X31874Y-30299D02*
X31874Y-32299D01*
G54D11*
X22389Y-26511D02*
X22389Y-26111D01*
X22236Y-26111D01*
X22198Y-26130D01*
X22179Y-26150D01*
X22160Y-26188D01*
X22160Y-26245D01*
X22179Y-26283D01*
X22198Y-26302D01*
X22236Y-26321D01*
X22389Y-26321D01*
X21779Y-26511D02*
X22008Y-26511D01*
X21894Y-26511D02*
X21894Y-26111D01*
X21932Y-26169D01*
X21970Y-26207D01*
X22008Y-26226D01*
X22389Y-32811D02*
X22389Y-32411D01*
X22236Y-32411D01*
X22198Y-32430D01*
X22179Y-32449D01*
X22160Y-32487D01*
X22160Y-32544D01*
X22179Y-32582D01*
X22198Y-32601D01*
X22236Y-32620D01*
X22389Y-32620D01*
X22008Y-32449D02*
X21989Y-32430D01*
X21951Y-32411D01*
X21855Y-32411D01*
X21817Y-32430D01*
X21798Y-32449D01*
X21779Y-32487D01*
X21779Y-32525D01*
X21798Y-32582D01*
X22027Y-32811D01*
X21779Y-32811D01*
X33019Y-26511D02*
X33019Y-26111D01*
X32866Y-26111D01*
X32828Y-26130D01*
X32809Y-26150D01*
X32790Y-26188D01*
X32790Y-26245D01*
X32809Y-26283D01*
X32828Y-26302D01*
X32866Y-26321D01*
X33019Y-26321D01*
X32657Y-26111D02*
X32409Y-26111D01*
X32543Y-26264D01*
X32485Y-26264D01*
X32447Y-26283D01*
X32428Y-26302D01*
X32409Y-26340D01*
X32409Y-26435D01*
X32428Y-26473D01*
X32447Y-26492D01*
X32485Y-26511D01*
X32600Y-26511D01*
X32638Y-26492D01*
X32657Y-26473D01*
X33019Y-32811D02*
X33019Y-32411D01*
X32866Y-32411D01*
X32828Y-32430D01*
X32809Y-32449D01*
X32790Y-32487D01*
X32790Y-32544D01*
X32809Y-32582D01*
X32828Y-32601D01*
X32866Y-32620D01*
X33019Y-32620D01*
X32447Y-32544D02*
X32447Y-32811D01*
X32543Y-32392D02*
X32638Y-32677D01*
X32390Y-32677D01*
M02*
