G04 (created by PCBNEW (2013-jul-07)-stable) date Thu 09 Apr 2015 12:34:56 PM PDT*
%MOIN*%
G04 Gerber Fmt 3.4, Leading zero omitted, Abs format*
%FSLAX34Y34*%
G01*
G70*
G90*
G04 APERTURE LIST*
%ADD10C,0.00590551*%
%ADD11R,0.045X0.025*%
%ADD12R,0.0197X0.0512*%
%ADD13R,0.03X0.01*%
%ADD14R,0.01X0.03*%
%ADD15R,0.1181X0.1181*%
%ADD16R,0.025X0.045*%
%ADD17R,0.06X0.06*%
%ADD18C,0.06*%
%ADD19C,0.065*%
%ADD20C,0.03*%
%ADD21C,0.007*%
G04 APERTURE END LIST*
G54D10*
G54D11*
X23740Y-24975D03*
X23740Y-25575D03*
G54D12*
X25039Y-24763D03*
X25511Y-24763D03*
X24567Y-24763D03*
X25275Y-31220D03*
X25747Y-31220D03*
X24803Y-31220D03*
X30905Y-25118D03*
X31377Y-25118D03*
X30433Y-25118D03*
X30984Y-31299D03*
X31456Y-31299D03*
X30512Y-31299D03*
G54D11*
X23740Y-30999D03*
X23740Y-31599D03*
G54D13*
X23228Y-22834D03*
X23228Y-22637D03*
X23228Y-22440D03*
X23228Y-23031D03*
G54D14*
X23523Y-23326D03*
X23720Y-23326D03*
X23917Y-23326D03*
X24114Y-23326D03*
X24310Y-23326D03*
X24507Y-23326D03*
X24704Y-23326D03*
X24901Y-23326D03*
G54D13*
X25196Y-21653D03*
X25196Y-23031D03*
X25196Y-22834D03*
X25196Y-22637D03*
X25196Y-22440D03*
X25196Y-22244D03*
X25196Y-22047D03*
X25196Y-21850D03*
G54D14*
X24901Y-21358D03*
X24704Y-21358D03*
X24507Y-21358D03*
X24310Y-21358D03*
X24114Y-21358D03*
X23917Y-21358D03*
X23720Y-21358D03*
X23523Y-21358D03*
G54D13*
X23228Y-21653D03*
X23228Y-21850D03*
X23228Y-22047D03*
X23228Y-22244D03*
G54D15*
X24212Y-22342D03*
G54D13*
X23228Y-29133D03*
X23228Y-28936D03*
X23228Y-28739D03*
X23228Y-29330D03*
G54D14*
X23523Y-29625D03*
X23720Y-29625D03*
X23917Y-29625D03*
X24114Y-29625D03*
X24310Y-29625D03*
X24507Y-29625D03*
X24704Y-29625D03*
X24901Y-29625D03*
G54D13*
X25196Y-27952D03*
X25196Y-29330D03*
X25196Y-29133D03*
X25196Y-28936D03*
X25196Y-28739D03*
X25196Y-28543D03*
X25196Y-28346D03*
X25196Y-28149D03*
G54D14*
X24901Y-27657D03*
X24704Y-27657D03*
X24507Y-27657D03*
X24310Y-27657D03*
X24114Y-27657D03*
X23917Y-27657D03*
X23720Y-27657D03*
X23523Y-27657D03*
G54D13*
X23228Y-27952D03*
X23228Y-28149D03*
X23228Y-28346D03*
X23228Y-28543D03*
G54D15*
X24212Y-28641D03*
G54D13*
X30315Y-22834D03*
X30315Y-22637D03*
X30315Y-22440D03*
X30315Y-23031D03*
G54D14*
X30610Y-23326D03*
X30807Y-23326D03*
X31004Y-23326D03*
X31201Y-23326D03*
X31397Y-23326D03*
X31594Y-23326D03*
X31791Y-23326D03*
X31988Y-23326D03*
G54D13*
X32283Y-21653D03*
X32283Y-23031D03*
X32283Y-22834D03*
X32283Y-22637D03*
X32283Y-22440D03*
X32283Y-22244D03*
X32283Y-22047D03*
X32283Y-21850D03*
G54D14*
X31988Y-21358D03*
X31791Y-21358D03*
X31594Y-21358D03*
X31397Y-21358D03*
X31201Y-21358D03*
X31004Y-21358D03*
X30807Y-21358D03*
X30610Y-21358D03*
G54D13*
X30315Y-21653D03*
X30315Y-21850D03*
X30315Y-22047D03*
X30315Y-22244D03*
G54D15*
X31299Y-22342D03*
G54D13*
X30315Y-29133D03*
X30315Y-28936D03*
X30315Y-28739D03*
X30315Y-29330D03*
G54D14*
X30610Y-29625D03*
X30807Y-29625D03*
X31004Y-29625D03*
X31201Y-29625D03*
X31397Y-29625D03*
X31594Y-29625D03*
X31791Y-29625D03*
X31988Y-29625D03*
G54D13*
X32283Y-27952D03*
X32283Y-29330D03*
X32283Y-29133D03*
X32283Y-28936D03*
X32283Y-28739D03*
X32283Y-28543D03*
X32283Y-28346D03*
X32283Y-28149D03*
G54D14*
X31988Y-27657D03*
X31791Y-27657D03*
X31594Y-27657D03*
X31397Y-27657D03*
X31201Y-27657D03*
X31004Y-27657D03*
X30807Y-27657D03*
X30610Y-27657D03*
G54D13*
X30315Y-27952D03*
X30315Y-28149D03*
X30315Y-28346D03*
X30315Y-28543D03*
G54D15*
X31299Y-28641D03*
G54D11*
X29389Y-24227D03*
X29389Y-24827D03*
G54D16*
X30822Y-34094D03*
X31422Y-34094D03*
X32810Y-33228D03*
X33410Y-33228D03*
X32829Y-34094D03*
X33429Y-34094D03*
X32849Y-34960D03*
X33449Y-34960D03*
G54D11*
X33661Y-27259D03*
X33661Y-27859D03*
G54D16*
X29925Y-34940D03*
X29325Y-34940D03*
X29925Y-33956D03*
X29325Y-33956D03*
X29827Y-32972D03*
X29227Y-32972D03*
G54D11*
X29389Y-31629D03*
X29389Y-32229D03*
G54D16*
X32888Y-26535D03*
X33488Y-26535D03*
G54D11*
X33661Y-23016D03*
X33661Y-22416D03*
X33661Y-19975D03*
X33661Y-20575D03*
G54D16*
X29522Y-20078D03*
X30122Y-20078D03*
X27259Y-27559D03*
X27859Y-27559D03*
X27259Y-26476D03*
X27859Y-26476D03*
X27259Y-25295D03*
X27859Y-25295D03*
X27259Y-24173D03*
X27859Y-24173D03*
X25290Y-34940D03*
X25890Y-34940D03*
X25290Y-34055D03*
X25890Y-34055D03*
X25290Y-33169D03*
X25890Y-33169D03*
X27859Y-28740D03*
X27259Y-28740D03*
X23922Y-34842D03*
X23322Y-34842D03*
X23922Y-33858D03*
X23322Y-33858D03*
X22347Y-33858D03*
X21747Y-33858D03*
X22347Y-32874D03*
X21747Y-32874D03*
X27859Y-23149D03*
X27259Y-23149D03*
X27859Y-22165D03*
X27259Y-22165D03*
X27859Y-21141D03*
X27259Y-21141D03*
X27859Y-20078D03*
X27259Y-20078D03*
X24847Y-20118D03*
X24247Y-20118D03*
X22051Y-26476D03*
X21451Y-26476D03*
X22012Y-23503D03*
X21412Y-23503D03*
X22150Y-20118D03*
X21550Y-20118D03*
X31402Y-34921D03*
X30802Y-34921D03*
X32180Y-20078D03*
X32780Y-20078D03*
G54D11*
X21456Y-28548D03*
X21456Y-27948D03*
G54D16*
X22928Y-26476D03*
X23528Y-26476D03*
G54D17*
X21744Y-24500D03*
G54D18*
X21744Y-25500D03*
X22744Y-24500D03*
X22744Y-25500D03*
G54D17*
X21744Y-30799D03*
G54D18*
X21744Y-31799D03*
X22744Y-30799D03*
X22744Y-31799D03*
G54D17*
X32374Y-24500D03*
G54D18*
X32374Y-25500D03*
X33374Y-24500D03*
X33374Y-25500D03*
G54D17*
X32374Y-30799D03*
G54D18*
X32374Y-31799D03*
X33374Y-30799D03*
X33374Y-31799D03*
G54D19*
X28543Y-28051D03*
X28543Y-29035D03*
X28543Y-30019D03*
X28543Y-31003D03*
X28543Y-31988D03*
X28543Y-32972D03*
X28543Y-33956D03*
X28543Y-34940D03*
X34448Y-34940D03*
X34448Y-33956D03*
X34448Y-32972D03*
X34448Y-31988D03*
X34448Y-31003D03*
X34448Y-30019D03*
X34448Y-29035D03*
X34448Y-28051D03*
X28543Y-20177D03*
X28543Y-21161D03*
X28543Y-22145D03*
X28543Y-23129D03*
X28543Y-24114D03*
X28543Y-25098D03*
X28543Y-26082D03*
X28543Y-27066D03*
X34448Y-27066D03*
X34448Y-26082D03*
X34448Y-25098D03*
X34448Y-24114D03*
X34448Y-23129D03*
X34448Y-22145D03*
X34448Y-21161D03*
X34448Y-20177D03*
X20669Y-28051D03*
X20669Y-29035D03*
X20669Y-30019D03*
X20669Y-31003D03*
X20669Y-31988D03*
X20669Y-32972D03*
X20669Y-33956D03*
X20669Y-34940D03*
X26574Y-34940D03*
X26574Y-33956D03*
X26574Y-32972D03*
X26574Y-31988D03*
X26574Y-31003D03*
X26574Y-30019D03*
X26574Y-29035D03*
X26574Y-28051D03*
X20669Y-20177D03*
X20669Y-21161D03*
X20669Y-22145D03*
X20669Y-23129D03*
X20669Y-24114D03*
X20669Y-25098D03*
X20669Y-26082D03*
X20669Y-27066D03*
X26574Y-27066D03*
X26574Y-26082D03*
X26574Y-25098D03*
X26574Y-24114D03*
X26574Y-23129D03*
X26574Y-22145D03*
X26574Y-21161D03*
X26574Y-20177D03*
G54D20*
X25103Y-27138D03*
X30874Y-33645D03*
X29860Y-24369D03*
X30750Y-24266D03*
X30198Y-27150D03*
X22124Y-20595D03*
X21894Y-22577D03*
X24165Y-20920D03*
X23246Y-23311D03*
X29490Y-26009D03*
X30400Y-23634D03*
X24701Y-20907D03*
X23634Y-23700D03*
X27825Y-29186D03*
X23682Y-30174D03*
X29540Y-20534D03*
X29890Y-23542D03*
X30704Y-26223D03*
X30669Y-29995D03*
X27813Y-20692D03*
X25744Y-23281D03*
X32494Y-21265D03*
X32654Y-23071D03*
X25029Y-32766D03*
X25746Y-29241D03*
X25706Y-21897D03*
X25622Y-28393D03*
X33732Y-21818D03*
X32911Y-28346D03*
X29480Y-26408D03*
X25270Y-21376D03*
X25176Y-27670D03*
X32657Y-28076D03*
X33277Y-21738D03*
X29836Y-21358D03*
X33583Y-23395D03*
X31561Y-20955D03*
X29912Y-20534D03*
X22284Y-22519D03*
X29089Y-22573D03*
X29750Y-28976D03*
X22134Y-27402D03*
X22372Y-22091D03*
X22701Y-28422D03*
X29893Y-22047D03*
X29923Y-28374D03*
X22800Y-22239D03*
X22318Y-28818D03*
X29624Y-22303D03*
X29392Y-29152D03*
X27361Y-24634D03*
X27677Y-22698D03*
X26135Y-29377D03*
X32933Y-22410D03*
X25501Y-25900D03*
X25675Y-22282D03*
X31387Y-26630D03*
X32141Y-20950D03*
X26117Y-27447D03*
X29102Y-27498D03*
X25080Y-20997D03*
X23920Y-26073D03*
X30959Y-30371D03*
X24201Y-25670D03*
X27583Y-25712D03*
X30958Y-23815D03*
X24066Y-24056D03*
X24112Y-27062D03*
X27281Y-30740D03*
X26132Y-34498D03*
X31528Y-20034D03*
X22506Y-20213D03*
X21500Y-20573D03*
G54D21*
X30802Y-34444D02*
X30822Y-34424D01*
X30802Y-34921D02*
X30802Y-34444D01*
X30822Y-34259D02*
X30822Y-34424D01*
X31594Y-29880D02*
X31201Y-29880D01*
X31594Y-29625D02*
X31594Y-29880D01*
X31201Y-29625D02*
X31201Y-29880D01*
X32550Y-20233D02*
X32550Y-20078D01*
X32251Y-20532D02*
X32550Y-20233D01*
X32175Y-20532D02*
X32251Y-20532D01*
X31816Y-20892D02*
X32175Y-20532D01*
X31816Y-21077D02*
X31816Y-20892D01*
X31791Y-21103D02*
X31816Y-21077D01*
X31791Y-21358D02*
X31791Y-21103D01*
X32780Y-20078D02*
X32550Y-20078D01*
X21744Y-24500D02*
X22149Y-24500D01*
X23528Y-26311D02*
X23528Y-26146D01*
X31915Y-21613D02*
X31791Y-21613D01*
X31994Y-21692D02*
X31915Y-21613D01*
X31994Y-22995D02*
X31994Y-21692D01*
X31918Y-23071D02*
X31994Y-22995D01*
X31594Y-23071D02*
X31918Y-23071D01*
X31791Y-21358D02*
X31791Y-21578D01*
X31791Y-21578D02*
X31791Y-21613D01*
X31397Y-21538D02*
X31397Y-21358D01*
X31472Y-21613D02*
X31397Y-21538D01*
X31791Y-21613D02*
X31472Y-21613D01*
X23395Y-26012D02*
X23528Y-26146D01*
X23395Y-24975D02*
X23395Y-26012D01*
X22624Y-24975D02*
X23395Y-24975D01*
X22149Y-24500D02*
X22624Y-24975D01*
X24829Y-21613D02*
X24704Y-21613D01*
X24908Y-21692D02*
X24829Y-21613D01*
X24908Y-22995D02*
X24908Y-21692D01*
X24832Y-23071D02*
X24908Y-22995D01*
X24507Y-23071D02*
X24832Y-23071D01*
X24704Y-21358D02*
X24704Y-21613D01*
X24377Y-21613D02*
X24704Y-21613D01*
X24310Y-21546D02*
X24377Y-21613D01*
X24310Y-21358D02*
X24310Y-21546D01*
X31594Y-23198D02*
X31594Y-23071D01*
X31594Y-23198D02*
X31594Y-23326D01*
X31594Y-23326D02*
X31594Y-23581D01*
X24704Y-27138D02*
X25103Y-27138D01*
X30822Y-34259D02*
X30822Y-34094D01*
X30822Y-34094D02*
X30822Y-33764D01*
X31201Y-23326D02*
X31201Y-23581D01*
X29719Y-24229D02*
X29860Y-24369D01*
X29719Y-24227D02*
X29719Y-24229D01*
X30872Y-24266D02*
X30750Y-24266D01*
X31221Y-23916D02*
X30872Y-24266D01*
X31221Y-23581D02*
X31221Y-23916D01*
X31201Y-23581D02*
X31221Y-23581D01*
X31221Y-23581D02*
X31594Y-23581D01*
X31144Y-27150D02*
X31397Y-27402D01*
X30198Y-27150D02*
X31144Y-27150D01*
X31397Y-27657D02*
X31397Y-27437D01*
X31397Y-27437D02*
X31397Y-27402D01*
X23528Y-26476D02*
X23528Y-26311D01*
X24704Y-27138D02*
X24375Y-27138D01*
X24375Y-27337D02*
X24310Y-27402D01*
X24375Y-27138D02*
X24375Y-27337D01*
X21456Y-27948D02*
X21456Y-27717D01*
X23298Y-26620D02*
X23298Y-26476D01*
X22898Y-27020D02*
X23298Y-26620D01*
X22154Y-27020D02*
X22898Y-27020D01*
X21456Y-27717D02*
X22154Y-27020D01*
X23528Y-26476D02*
X23758Y-26476D01*
X23528Y-26476D02*
X23298Y-26476D01*
X24507Y-23234D02*
X24507Y-23071D01*
X29389Y-24227D02*
X29719Y-24227D01*
X30874Y-33712D02*
X30874Y-33645D01*
X30822Y-33764D02*
X30874Y-33712D01*
X23903Y-26476D02*
X23758Y-26476D01*
X24375Y-26948D02*
X23903Y-26476D01*
X24375Y-27138D02*
X24375Y-26948D01*
X24310Y-27657D02*
X24310Y-27402D01*
X23395Y-24975D02*
X23740Y-24975D01*
X23740Y-24975D02*
X23740Y-24745D01*
X24507Y-23234D02*
X24507Y-23326D01*
X24114Y-23326D02*
X24114Y-23581D01*
X24507Y-23326D02*
X24507Y-23581D01*
X24444Y-23581D02*
X24323Y-23702D01*
X24507Y-23581D02*
X24444Y-23581D01*
X24323Y-24161D02*
X24323Y-23702D01*
X23740Y-24745D02*
X24323Y-24161D01*
X24202Y-23581D02*
X24114Y-23581D01*
X24323Y-23702D02*
X24202Y-23581D01*
X31791Y-27497D02*
X31791Y-27657D01*
X31696Y-27402D02*
X31791Y-27497D01*
X31397Y-27402D02*
X31696Y-27402D01*
X31925Y-29370D02*
X31594Y-29370D01*
X31994Y-29301D02*
X31925Y-29370D01*
X31994Y-28002D02*
X31994Y-29301D01*
X31905Y-27912D02*
X31994Y-28002D01*
X31791Y-27912D02*
X31905Y-27912D01*
X31791Y-27657D02*
X31791Y-27912D01*
X31594Y-29625D02*
X31594Y-29370D01*
X24507Y-29625D02*
X24507Y-29880D01*
X24114Y-29625D02*
X24114Y-29880D01*
X23740Y-30999D02*
X23740Y-30769D01*
X24704Y-27138D02*
X24704Y-27657D01*
X24838Y-29370D02*
X24507Y-29370D01*
X24908Y-29301D02*
X24838Y-29370D01*
X24908Y-28002D02*
X24908Y-29301D01*
X24818Y-27912D02*
X24908Y-28002D01*
X24704Y-27912D02*
X24818Y-27912D01*
X24704Y-27657D02*
X24704Y-27912D01*
X24507Y-29625D02*
X24507Y-29370D01*
X24507Y-29880D02*
X24114Y-29880D01*
X24114Y-30394D02*
X23740Y-30769D01*
X24114Y-29880D02*
X24114Y-30394D01*
X22150Y-20570D02*
X22124Y-20595D01*
X22150Y-20118D02*
X22150Y-20570D01*
X22815Y-22637D02*
X23228Y-22637D01*
X22678Y-22774D02*
X22815Y-22637D01*
X22091Y-22774D02*
X22678Y-22774D01*
X21894Y-22577D02*
X22091Y-22774D01*
X22347Y-32874D02*
X22347Y-32543D01*
X23228Y-28936D02*
X22973Y-28936D01*
X22952Y-28957D02*
X22973Y-28936D01*
X22836Y-28957D02*
X22952Y-28957D01*
X21338Y-30455D02*
X22836Y-28957D01*
X21338Y-31142D02*
X21338Y-30455D01*
X21400Y-31204D02*
X21338Y-31142D01*
X21741Y-31204D02*
X21400Y-31204D01*
X22179Y-31642D02*
X21741Y-31204D01*
X22179Y-32376D02*
X22179Y-31642D01*
X22347Y-32543D02*
X22179Y-32376D01*
X27259Y-24173D02*
X27489Y-24173D01*
X27489Y-24029D02*
X27489Y-24173D01*
X27675Y-23843D02*
X27489Y-24029D01*
X27976Y-23843D02*
X27675Y-23843D01*
X28246Y-23572D02*
X27976Y-23843D01*
X29053Y-23572D02*
X28246Y-23572D01*
X29679Y-22946D02*
X29053Y-23572D01*
X29751Y-22946D02*
X29679Y-22946D01*
X30060Y-22637D02*
X29751Y-22946D01*
X30315Y-22637D02*
X30060Y-22637D01*
X29389Y-31629D02*
X29389Y-31399D01*
X29389Y-29702D02*
X29389Y-31399D01*
X30155Y-28936D02*
X29389Y-29702D01*
X30315Y-28936D02*
X30155Y-28936D01*
X22012Y-23503D02*
X22242Y-23503D01*
X22912Y-22834D02*
X23228Y-22834D01*
X22242Y-23503D02*
X22912Y-22834D01*
X22347Y-33858D02*
X22577Y-33858D01*
X22577Y-32460D02*
X22577Y-33858D01*
X22338Y-32221D02*
X22577Y-32460D01*
X22338Y-31164D02*
X22338Y-32221D01*
X22198Y-31025D02*
X22338Y-31164D01*
X22198Y-29908D02*
X22198Y-31025D01*
X22973Y-29133D02*
X22198Y-29908D01*
X23228Y-29133D02*
X22973Y-29133D01*
X30062Y-22834D02*
X30315Y-22834D01*
X29810Y-23086D02*
X30062Y-22834D01*
X29757Y-23086D02*
X29810Y-23086D01*
X28973Y-23870D02*
X29757Y-23086D01*
X28973Y-24315D02*
X28973Y-23870D01*
X28621Y-24668D02*
X28973Y-24315D01*
X27972Y-24668D02*
X28621Y-24668D01*
X27489Y-25151D02*
X27972Y-24668D01*
X27489Y-25295D02*
X27489Y-25151D01*
X27259Y-25295D02*
X27489Y-25295D01*
X29827Y-32972D02*
X29827Y-32642D01*
X29827Y-29462D02*
X29827Y-32642D01*
X30156Y-29133D02*
X29827Y-29462D01*
X30315Y-29133D02*
X30156Y-29133D01*
X22973Y-23062D02*
X22973Y-23031D01*
X22081Y-23954D02*
X22973Y-23062D01*
X21523Y-23954D02*
X22081Y-23954D01*
X21338Y-24139D02*
X21523Y-23954D01*
X21338Y-25763D02*
X21338Y-24139D01*
X21821Y-26246D02*
X21338Y-25763D01*
X21821Y-26476D02*
X21821Y-26246D01*
X22051Y-26476D02*
X21821Y-26476D01*
X23228Y-23031D02*
X22973Y-23031D01*
X23922Y-33858D02*
X23691Y-33858D01*
X23691Y-33628D02*
X23691Y-33858D01*
X23228Y-33164D02*
X23691Y-33628D01*
X23228Y-31708D02*
X23228Y-33164D01*
X22902Y-31382D02*
X23228Y-31708D01*
X22754Y-31382D02*
X22902Y-31382D01*
X22338Y-30967D02*
X22754Y-31382D01*
X22338Y-30220D02*
X22338Y-30967D01*
X23228Y-29330D02*
X22338Y-30220D01*
X27259Y-26476D02*
X27489Y-26476D01*
X30120Y-23226D02*
X30315Y-23031D01*
X29831Y-23226D02*
X30120Y-23226D01*
X29611Y-23446D02*
X29831Y-23226D01*
X29611Y-23689D02*
X29611Y-23446D01*
X30115Y-24192D02*
X29611Y-23689D01*
X30115Y-24475D02*
X30115Y-24192D01*
X29965Y-24624D02*
X30115Y-24475D01*
X29754Y-24624D02*
X29965Y-24624D01*
X29719Y-24590D02*
X29754Y-24624D01*
X29127Y-24590D02*
X29719Y-24590D01*
X28973Y-24744D02*
X29127Y-24590D01*
X28973Y-25279D02*
X28973Y-24744D01*
X28662Y-25590D02*
X28973Y-25279D01*
X28231Y-25590D02*
X28662Y-25590D01*
X27489Y-26332D02*
X28231Y-25590D01*
X27489Y-26476D02*
X27489Y-26332D01*
X29991Y-29654D02*
X30315Y-29330D01*
X29991Y-31822D02*
X29991Y-29654D01*
X30064Y-31895D02*
X29991Y-31822D01*
X30064Y-33488D02*
X30064Y-31895D01*
X29925Y-33626D02*
X30064Y-33488D01*
X29925Y-33956D02*
X29925Y-33626D01*
X24617Y-20469D02*
X24165Y-20920D01*
X24617Y-20118D02*
X24617Y-20469D01*
X24847Y-20118D02*
X24617Y-20118D01*
X23508Y-23311D02*
X23246Y-23311D01*
X23523Y-23326D02*
X23508Y-23311D01*
X23922Y-34842D02*
X24152Y-34842D01*
X23523Y-29625D02*
X23523Y-29880D01*
X24152Y-32845D02*
X24152Y-34842D01*
X23395Y-32088D02*
X24152Y-32845D01*
X23395Y-31361D02*
X23395Y-32088D01*
X23269Y-31235D02*
X23395Y-31361D01*
X23269Y-30134D02*
X23269Y-31235D01*
X23523Y-29880D02*
X23269Y-30134D01*
X29090Y-26409D02*
X29490Y-26009D01*
X29090Y-27138D02*
X29090Y-26409D01*
X28620Y-27608D02*
X29090Y-27138D01*
X28309Y-27608D02*
X28620Y-27608D01*
X28021Y-27896D02*
X28309Y-27608D01*
X27683Y-27896D02*
X28021Y-27896D01*
X27489Y-27702D02*
X27683Y-27896D01*
X27489Y-27559D02*
X27489Y-27702D01*
X27259Y-27559D02*
X27489Y-27559D01*
X30453Y-23581D02*
X30400Y-23634D01*
X30610Y-23581D02*
X30453Y-23581D01*
X30610Y-23326D02*
X30610Y-23581D01*
X30131Y-30103D02*
X30610Y-29625D01*
X30131Y-31752D02*
X30131Y-30103D01*
X30204Y-31825D02*
X30131Y-31752D01*
X30204Y-34892D02*
X30204Y-31825D01*
X30156Y-34940D02*
X30204Y-34892D01*
X29925Y-34940D02*
X30156Y-34940D01*
X23720Y-23613D02*
X23720Y-23326D01*
X23634Y-23700D02*
X23720Y-23613D01*
X27859Y-20078D02*
X27628Y-20078D01*
X24939Y-20669D02*
X24701Y-20907D01*
X27182Y-20669D02*
X24939Y-20669D01*
X27628Y-20222D02*
X27182Y-20669D01*
X27628Y-20078D02*
X27628Y-20222D01*
X23720Y-29625D02*
X23720Y-29880D01*
X27859Y-28740D02*
X27859Y-29070D01*
X27825Y-29104D02*
X27825Y-29186D01*
X27859Y-29070D02*
X27825Y-29104D01*
X23682Y-29918D02*
X23720Y-29880D01*
X23682Y-30174D02*
X23682Y-29918D01*
X29522Y-20516D02*
X29540Y-20534D01*
X29522Y-20078D02*
X29522Y-20516D01*
X30807Y-23588D02*
X30807Y-23326D01*
X30506Y-23889D02*
X30807Y-23588D01*
X30237Y-23889D02*
X30506Y-23889D01*
X29890Y-23542D02*
X30237Y-23889D01*
X30807Y-29625D02*
X30807Y-29880D01*
X31737Y-26223D02*
X30704Y-26223D01*
X32772Y-27259D02*
X31737Y-26223D01*
X33661Y-27259D02*
X32772Y-27259D01*
X30784Y-29880D02*
X30669Y-29995D01*
X30807Y-29880D02*
X30784Y-29880D01*
X25196Y-23031D02*
X25451Y-23031D01*
X27813Y-20766D02*
X27813Y-20692D01*
X27859Y-20811D02*
X27813Y-20766D01*
X27859Y-21141D02*
X27859Y-20811D01*
X25701Y-23281D02*
X25744Y-23281D01*
X25451Y-23031D02*
X25701Y-23281D01*
X25951Y-30085D02*
X25196Y-29330D01*
X25951Y-31522D02*
X25951Y-30085D01*
X25290Y-32182D02*
X25951Y-31522D01*
X25290Y-33169D02*
X25290Y-32182D01*
X32283Y-23031D02*
X32538Y-23031D01*
X33661Y-19975D02*
X33331Y-19975D01*
X32578Y-23071D02*
X32654Y-23071D01*
X32538Y-23031D02*
X32578Y-23071D01*
X32494Y-21007D02*
X32494Y-21265D01*
X33331Y-20170D02*
X32494Y-21007D01*
X33331Y-19975D02*
X33331Y-20170D01*
X32283Y-30135D02*
X32283Y-29330D01*
X31929Y-30488D02*
X32283Y-30135D01*
X31929Y-31450D02*
X31929Y-30488D01*
X30556Y-32823D02*
X31929Y-31450D01*
X30556Y-35199D02*
X30556Y-32823D01*
X30609Y-35251D02*
X30556Y-35199D01*
X32328Y-35251D02*
X30609Y-35251D01*
X32619Y-34960D02*
X32328Y-35251D01*
X32849Y-34960D02*
X32619Y-34960D01*
X27859Y-22165D02*
X28089Y-22165D01*
X25687Y-22834D02*
X25196Y-22834D01*
X26000Y-23146D02*
X25687Y-22834D01*
X26000Y-24158D02*
X26000Y-23146D01*
X26392Y-24550D02*
X26000Y-24158D01*
X26783Y-24550D02*
X26392Y-24550D01*
X27028Y-24305D02*
X26783Y-24550D01*
X27028Y-23902D02*
X27028Y-24305D01*
X27095Y-23836D02*
X27028Y-23902D01*
X27200Y-23836D02*
X27095Y-23836D01*
X27340Y-23696D02*
X27200Y-23836D01*
X27835Y-23696D02*
X27340Y-23696D01*
X28089Y-23442D02*
X27835Y-23696D01*
X28089Y-22165D02*
X28089Y-23442D01*
X25349Y-29133D02*
X25196Y-29133D01*
X25481Y-29266D02*
X25349Y-29133D01*
X25481Y-29417D02*
X25481Y-29266D01*
X26108Y-30044D02*
X25481Y-29417D01*
X26108Y-31643D02*
X26108Y-30044D01*
X25520Y-32231D02*
X26108Y-31643D01*
X25520Y-34055D02*
X25520Y-32231D01*
X25290Y-34055D02*
X25520Y-34055D01*
X32301Y-22816D02*
X32283Y-22834D01*
X33131Y-22816D02*
X32301Y-22816D01*
X33331Y-23016D02*
X33131Y-22816D01*
X33661Y-23016D02*
X33331Y-23016D01*
X32573Y-34068D02*
X32599Y-34094D01*
X32573Y-32303D02*
X32573Y-34068D01*
X32783Y-32093D02*
X32573Y-32303D01*
X32783Y-29475D02*
X32783Y-32093D01*
X32441Y-29133D02*
X32783Y-29475D01*
X32283Y-29133D02*
X32441Y-29133D01*
X32829Y-34094D02*
X32599Y-34094D01*
X27859Y-23149D02*
X27628Y-23149D01*
X25196Y-22637D02*
X25451Y-22637D01*
X25507Y-22693D02*
X25451Y-22637D01*
X25747Y-22693D02*
X25507Y-22693D01*
X26140Y-23085D02*
X25747Y-22693D01*
X26140Y-23303D02*
X26140Y-23085D01*
X26408Y-23572D02*
X26140Y-23303D01*
X27266Y-23572D02*
X26408Y-23572D01*
X27282Y-23555D02*
X27266Y-23572D01*
X27366Y-23555D02*
X27282Y-23555D01*
X27628Y-23293D02*
X27366Y-23555D01*
X27628Y-23149D02*
X27628Y-23293D01*
X25451Y-28947D02*
X25451Y-28936D01*
X25746Y-29241D02*
X25451Y-28947D01*
X25290Y-34940D02*
X25060Y-34940D01*
X25060Y-32796D02*
X25029Y-32766D01*
X25060Y-34940D02*
X25060Y-32796D01*
X25196Y-28936D02*
X25451Y-28936D01*
X32888Y-26535D02*
X33119Y-26535D01*
X32283Y-22637D02*
X32538Y-22637D01*
X33119Y-26339D02*
X33119Y-26535D01*
X33851Y-25606D02*
X33119Y-26339D01*
X33851Y-23500D02*
X33851Y-25606D01*
X33991Y-23360D02*
X33851Y-23500D01*
X33991Y-22829D02*
X33991Y-23360D01*
X33838Y-22676D02*
X33991Y-22829D01*
X32577Y-22676D02*
X33838Y-22676D01*
X32538Y-22637D02*
X32577Y-22676D01*
X32923Y-29322D02*
X32538Y-28936D01*
X32923Y-32784D02*
X32923Y-29322D01*
X32810Y-32898D02*
X32923Y-32784D01*
X32810Y-33228D02*
X32810Y-32898D01*
X32283Y-28936D02*
X32538Y-28936D01*
X25698Y-21897D02*
X25706Y-21897D01*
X25548Y-22047D02*
X25698Y-21897D01*
X25196Y-22047D02*
X25548Y-22047D01*
X25575Y-28346D02*
X25196Y-28346D01*
X25622Y-28393D02*
X25575Y-28346D01*
X32283Y-22047D02*
X32538Y-22047D01*
X33545Y-22005D02*
X33732Y-21818D01*
X32580Y-22005D02*
X33545Y-22005D01*
X32538Y-22047D02*
X32580Y-22005D01*
X32283Y-28346D02*
X32911Y-28346D01*
X32283Y-21653D02*
X32538Y-21653D01*
X32569Y-27433D02*
X32569Y-27509D01*
X31500Y-26363D02*
X32569Y-27433D01*
X30971Y-26363D02*
X31500Y-26363D01*
X30854Y-26480D02*
X30971Y-26363D01*
X29553Y-26480D02*
X30854Y-26480D01*
X29480Y-26408D02*
X29553Y-26480D01*
X32569Y-27666D02*
X32569Y-27509D01*
X32283Y-27952D02*
X32569Y-27666D01*
X33139Y-21052D02*
X32538Y-21653D01*
X33139Y-20583D02*
X33139Y-21052D01*
X33384Y-20338D02*
X33139Y-20583D01*
X33973Y-20338D02*
X33384Y-20338D01*
X34353Y-20718D02*
X33973Y-20338D01*
X34638Y-20718D02*
X34353Y-20718D01*
X35024Y-21104D02*
X34638Y-20718D01*
X35024Y-27104D02*
X35024Y-21104D01*
X34619Y-27509D02*
X35024Y-27104D01*
X32569Y-27509D02*
X34619Y-27509D01*
X25196Y-21450D02*
X25196Y-21653D01*
X25270Y-21376D02*
X25196Y-21450D01*
X25196Y-27690D02*
X25196Y-27952D01*
X25176Y-27670D02*
X25196Y-27690D01*
X32283Y-28149D02*
X32538Y-28149D01*
X32611Y-28076D02*
X32657Y-28076D01*
X32538Y-28149D02*
X32611Y-28076D01*
X25196Y-28149D02*
X25451Y-28149D01*
X32374Y-24702D02*
X32374Y-24601D01*
X32374Y-24702D02*
X32374Y-24905D01*
X33165Y-21850D02*
X33277Y-21738D01*
X32283Y-21850D02*
X33165Y-21850D01*
X32374Y-24550D02*
X32374Y-24601D01*
X25463Y-28138D02*
X25451Y-28149D01*
X25820Y-28138D02*
X25463Y-28138D01*
X26344Y-27614D02*
X25820Y-28138D01*
X26687Y-27614D02*
X26344Y-27614D01*
X27080Y-27221D02*
X26687Y-27614D01*
X27698Y-27221D02*
X27080Y-27221D01*
X28303Y-26616D02*
X27698Y-27221D01*
X28617Y-26616D02*
X28303Y-26616D01*
X28991Y-26243D02*
X28617Y-26616D01*
X28991Y-26123D02*
X28991Y-26243D01*
X29492Y-25622D02*
X28991Y-26123D01*
X31656Y-25622D02*
X29492Y-25622D01*
X32374Y-24905D02*
X31656Y-25622D01*
X25451Y-21779D02*
X25451Y-21850D01*
X25624Y-21606D02*
X25451Y-21779D01*
X28865Y-21606D02*
X25624Y-21606D01*
X29113Y-21358D02*
X28865Y-21606D01*
X29836Y-21358D02*
X29113Y-21358D01*
X25196Y-21850D02*
X25451Y-21850D01*
X32374Y-24500D02*
X32374Y-24550D01*
X32779Y-24199D02*
X33583Y-23395D01*
X32779Y-24500D02*
X32779Y-24199D01*
X32374Y-24500D02*
X32779Y-24500D01*
X32180Y-20078D02*
X31950Y-20078D01*
X31950Y-20078D02*
X31446Y-20582D01*
X31561Y-20697D02*
X31446Y-20582D01*
X31561Y-20955D02*
X31561Y-20697D01*
X31398Y-20534D02*
X29912Y-20534D01*
X31446Y-20582D02*
X31398Y-20534D01*
X22960Y-22440D02*
X23228Y-22440D01*
X22903Y-22497D02*
X22960Y-22440D01*
X22306Y-22497D02*
X22903Y-22497D01*
X22284Y-22519D02*
X22306Y-22497D01*
X22928Y-25684D02*
X22928Y-26476D01*
X22744Y-25500D02*
X22928Y-25684D01*
X30057Y-22442D02*
X30060Y-22440D01*
X30043Y-22442D02*
X30057Y-22442D01*
X29912Y-22573D02*
X30043Y-22442D01*
X29089Y-22573D02*
X29912Y-22573D01*
X30315Y-22440D02*
X30060Y-22440D01*
X20236Y-31653D02*
X20453Y-31435D01*
X20236Y-32196D02*
X20236Y-31653D01*
X20520Y-32480D02*
X20236Y-32196D01*
X20785Y-32480D02*
X20520Y-32480D01*
X21509Y-33204D02*
X20785Y-32480D01*
X21591Y-33204D02*
X21509Y-33204D01*
X21977Y-33589D02*
X21591Y-33204D01*
X21977Y-33995D02*
X21977Y-33589D01*
X22192Y-34210D02*
X21977Y-33995D01*
X22499Y-34210D02*
X22192Y-34210D01*
X22744Y-33966D02*
X22499Y-34210D01*
X22744Y-31799D02*
X22744Y-33966D01*
X21456Y-28860D02*
X21456Y-28548D01*
X20789Y-29527D02*
X21456Y-28860D01*
X20522Y-29527D02*
X20789Y-29527D01*
X20225Y-29824D02*
X20522Y-29527D01*
X20225Y-31207D02*
X20225Y-29824D01*
X20453Y-31435D02*
X20225Y-31207D01*
X22943Y-28739D02*
X23228Y-28739D01*
X22865Y-28817D02*
X22943Y-28739D01*
X22778Y-28817D02*
X22865Y-28817D01*
X21113Y-30482D02*
X22778Y-28817D01*
X21113Y-31205D02*
X21113Y-30482D01*
X20883Y-31435D02*
X21113Y-31205D01*
X20453Y-31435D02*
X20883Y-31435D01*
X32374Y-30799D02*
X32374Y-31204D01*
X31402Y-34921D02*
X31402Y-34591D01*
X31191Y-32386D02*
X32374Y-31204D01*
X31191Y-34380D02*
X31191Y-32386D01*
X31402Y-34591D02*
X31191Y-34380D01*
X29900Y-28976D02*
X29750Y-28976D01*
X30137Y-28739D02*
X29900Y-28976D01*
X30315Y-28739D02*
X30137Y-28739D01*
X23720Y-21091D02*
X23720Y-21358D01*
X23512Y-20883D02*
X23720Y-21091D01*
X21375Y-20883D02*
X23512Y-20883D01*
X20669Y-20177D02*
X21375Y-20883D01*
X23720Y-27657D02*
X23720Y-27402D01*
X23720Y-27402D02*
X22134Y-27402D01*
X29291Y-20925D02*
X28543Y-20177D01*
X30633Y-20925D02*
X29291Y-20925D01*
X30807Y-21098D02*
X30633Y-20925D01*
X30807Y-21358D02*
X30807Y-21098D01*
X30807Y-27657D02*
X30807Y-27402D01*
X30307Y-27402D02*
X30807Y-27402D01*
X30304Y-27405D02*
X30307Y-27402D01*
X29690Y-27405D02*
X30304Y-27405D01*
X29044Y-28051D02*
X29690Y-27405D01*
X28543Y-28051D02*
X29044Y-28051D01*
X23523Y-21358D02*
X23523Y-21103D01*
X20727Y-21103D02*
X23523Y-21103D01*
X20669Y-21161D02*
X20727Y-21103D01*
X22529Y-27657D02*
X23523Y-27657D01*
X21872Y-28315D02*
X22529Y-27657D01*
X21171Y-28315D02*
X21872Y-28315D01*
X20669Y-28817D02*
X21171Y-28315D01*
X20669Y-29035D02*
X20669Y-28817D01*
X30610Y-21358D02*
X30610Y-21103D01*
X28601Y-21103D02*
X28543Y-21161D01*
X30610Y-21103D02*
X28601Y-21103D01*
X28543Y-28997D02*
X28543Y-29035D01*
X29882Y-27657D02*
X28543Y-28997D01*
X30610Y-27657D02*
X29882Y-27657D01*
X23228Y-21653D02*
X22973Y-21653D01*
X21161Y-21653D02*
X20669Y-22145D01*
X22973Y-21653D02*
X21161Y-21653D01*
X20669Y-29856D02*
X20669Y-30019D01*
X22573Y-27952D02*
X20669Y-29856D01*
X23228Y-27952D02*
X22573Y-27952D01*
X30315Y-21653D02*
X30060Y-21653D01*
X29036Y-21652D02*
X28543Y-22145D01*
X30058Y-21652D02*
X29036Y-21652D01*
X30060Y-21653D02*
X30058Y-21652D01*
X28976Y-29586D02*
X28543Y-30019D01*
X28976Y-28762D02*
X28976Y-29586D01*
X29785Y-27952D02*
X28976Y-28762D01*
X30315Y-27952D02*
X29785Y-27952D01*
X22952Y-21829D02*
X22973Y-21850D01*
X21969Y-21829D02*
X22952Y-21829D01*
X20669Y-23129D02*
X21969Y-21829D01*
X23228Y-21850D02*
X22973Y-21850D01*
X23228Y-28149D02*
X22973Y-28149D01*
X20669Y-30729D02*
X20669Y-31003D01*
X21361Y-30037D02*
X20669Y-30729D01*
X21361Y-29362D02*
X21361Y-30037D01*
X22574Y-28149D02*
X21361Y-29362D01*
X22973Y-28149D02*
X22574Y-28149D01*
X30315Y-21850D02*
X30060Y-21850D01*
X28543Y-22758D02*
X28543Y-23129D01*
X29509Y-21792D02*
X28543Y-22758D01*
X29998Y-21792D02*
X29509Y-21792D01*
X30056Y-21850D02*
X29998Y-21792D01*
X30060Y-21850D02*
X30056Y-21850D01*
X30315Y-28149D02*
X30060Y-28149D01*
X29116Y-30430D02*
X28543Y-31003D01*
X29116Y-28820D02*
X29116Y-30430D01*
X29817Y-28118D02*
X29116Y-28820D01*
X30029Y-28118D02*
X29817Y-28118D01*
X30060Y-28149D02*
X30029Y-28118D01*
X22479Y-21984D02*
X22372Y-22091D01*
X22906Y-21984D02*
X22479Y-21984D01*
X22969Y-22047D02*
X22906Y-21984D01*
X23228Y-22047D02*
X22969Y-22047D01*
X22777Y-28346D02*
X23228Y-28346D01*
X22701Y-28422D02*
X22777Y-28346D01*
X29893Y-22047D02*
X30315Y-22047D01*
X29950Y-28346D02*
X29923Y-28374D01*
X30315Y-28346D02*
X29950Y-28346D01*
X22806Y-22244D02*
X23228Y-22244D01*
X22800Y-22239D02*
X22806Y-22244D01*
X23228Y-28543D02*
X22973Y-28543D01*
X22941Y-28543D02*
X22973Y-28543D01*
X22807Y-28677D02*
X22941Y-28543D01*
X22459Y-28677D02*
X22807Y-28677D01*
X22318Y-28818D02*
X22459Y-28677D01*
X29626Y-22302D02*
X29624Y-22303D01*
X29998Y-22302D02*
X29626Y-22302D01*
X30056Y-22244D02*
X29998Y-22302D01*
X30315Y-22244D02*
X30056Y-22244D01*
X29392Y-28968D02*
X29392Y-29152D01*
X29639Y-28721D02*
X29392Y-28968D01*
X29957Y-28721D02*
X29639Y-28721D01*
X30135Y-28543D02*
X29957Y-28721D01*
X30315Y-28543D02*
X30135Y-28543D01*
X27004Y-24990D02*
X27361Y-24634D01*
X27004Y-25652D02*
X27004Y-24990D01*
X26574Y-26082D02*
X27004Y-25652D01*
X26227Y-22698D02*
X27677Y-22698D01*
X26081Y-22553D02*
X26227Y-22698D01*
X25570Y-22553D02*
X26081Y-22553D01*
X25458Y-22440D02*
X25570Y-22553D01*
X25196Y-22440D02*
X25458Y-22440D01*
X26135Y-29265D02*
X26135Y-29377D01*
X25659Y-28788D02*
X26135Y-29265D01*
X25458Y-28788D02*
X25659Y-28788D01*
X25409Y-28739D02*
X25458Y-28788D01*
X25196Y-28739D02*
X25409Y-28739D01*
X32283Y-22440D02*
X32538Y-22440D01*
X32567Y-22410D02*
X32933Y-22410D01*
X32538Y-22440D02*
X32567Y-22410D01*
X32745Y-28739D02*
X32283Y-28739D01*
X33533Y-29527D02*
X32745Y-28739D01*
X34571Y-29527D02*
X33533Y-29527D01*
X34898Y-29854D02*
X34571Y-29527D01*
X34898Y-33506D02*
X34898Y-29854D01*
X34448Y-33956D02*
X34898Y-33506D01*
X25501Y-25993D02*
X25501Y-25900D01*
X26574Y-27066D02*
X25501Y-25993D01*
X25196Y-22244D02*
X25451Y-22244D01*
X25489Y-22282D02*
X25451Y-22244D01*
X25675Y-22282D02*
X25489Y-22282D01*
X27548Y-33967D02*
X26574Y-34940D01*
X27548Y-29738D02*
X27548Y-33967D01*
X27028Y-29219D02*
X27548Y-29738D01*
X27028Y-28867D02*
X27028Y-29219D01*
X26757Y-28596D02*
X27028Y-28867D01*
X26029Y-28596D02*
X26757Y-28596D01*
X25977Y-28648D02*
X26029Y-28596D01*
X25517Y-28648D02*
X25977Y-28648D01*
X25412Y-28543D02*
X25517Y-28648D01*
X25196Y-28543D02*
X25412Y-28543D01*
X34883Y-26632D02*
X34448Y-27066D01*
X34883Y-21971D02*
X34883Y-26632D01*
X34621Y-21709D02*
X34883Y-21971D01*
X34206Y-21709D02*
X34621Y-21709D01*
X33770Y-22146D02*
X34206Y-21709D01*
X32699Y-22146D02*
X33770Y-22146D01*
X32601Y-22244D02*
X32699Y-22146D01*
X32283Y-22244D02*
X32601Y-22244D01*
X32747Y-28543D02*
X32283Y-28543D01*
X32805Y-28601D02*
X32747Y-28543D01*
X34643Y-28601D02*
X32805Y-28601D01*
X35179Y-29137D02*
X34643Y-28601D01*
X35179Y-34210D02*
X35179Y-29137D01*
X34448Y-34940D02*
X35179Y-34210D01*
X31988Y-27657D02*
X31988Y-27402D01*
X31988Y-21358D02*
X31988Y-21103D01*
X24901Y-27657D02*
X24901Y-27402D01*
X31988Y-21103D02*
X32141Y-20950D01*
X31345Y-26672D02*
X31345Y-26760D01*
X31387Y-26630D02*
X31345Y-26672D01*
X31345Y-26760D02*
X31988Y-27402D01*
X29840Y-26760D02*
X29102Y-27498D01*
X31345Y-26760D02*
X29840Y-26760D01*
X24901Y-21358D02*
X24901Y-21103D01*
X24974Y-21103D02*
X24901Y-21103D01*
X25080Y-20997D02*
X24974Y-21103D01*
X25204Y-27402D02*
X25467Y-27138D01*
X24901Y-27402D02*
X25204Y-27402D01*
X25808Y-27138D02*
X25467Y-27138D01*
X26117Y-27447D02*
X25808Y-27138D01*
X24402Y-26073D02*
X23920Y-26073D01*
X25467Y-27138D02*
X24402Y-26073D01*
X24704Y-24055D02*
X24704Y-23326D01*
X24567Y-24192D02*
X24704Y-24055D01*
X24567Y-24763D02*
X24567Y-24192D01*
X24704Y-30236D02*
X24704Y-29625D01*
X24803Y-30335D02*
X24704Y-30236D01*
X24803Y-31220D02*
X24803Y-30335D01*
X31791Y-23641D02*
X31791Y-23326D01*
X30846Y-24586D02*
X31791Y-23641D01*
X30688Y-24586D02*
X30846Y-24586D01*
X30433Y-24842D02*
X30688Y-24586D01*
X30433Y-25118D02*
X30433Y-24842D01*
X30512Y-31003D02*
X30512Y-31299D01*
X30688Y-30826D02*
X30512Y-31003D01*
X31082Y-30826D02*
X30688Y-30826D01*
X31791Y-30118D02*
X31082Y-30826D01*
X31791Y-29625D02*
X31791Y-30118D01*
X25511Y-24664D02*
X25511Y-24763D01*
X24901Y-24055D02*
X25511Y-24664D01*
X24901Y-23326D02*
X24901Y-24055D01*
X24921Y-29645D02*
X24901Y-29625D01*
X24921Y-30098D02*
X24921Y-29645D01*
X25747Y-30924D02*
X24921Y-30098D01*
X25747Y-31220D02*
X25747Y-30924D01*
X31377Y-24527D02*
X31377Y-25118D01*
X31988Y-23917D02*
X31377Y-24527D01*
X31988Y-23326D02*
X31988Y-23917D01*
X31988Y-30196D02*
X31988Y-29625D01*
X31456Y-30728D02*
X31988Y-30196D01*
X31456Y-31299D02*
X31456Y-30728D01*
X31265Y-21613D02*
X31201Y-21613D01*
X31299Y-21646D02*
X31265Y-21613D01*
X31201Y-21358D02*
X31201Y-21613D01*
X31299Y-21994D02*
X31299Y-21646D01*
X24179Y-21613D02*
X24114Y-21613D01*
X24212Y-21646D02*
X24179Y-21613D01*
X24212Y-22342D02*
X24212Y-21646D01*
X24114Y-21358D02*
X24114Y-21613D01*
X31265Y-27912D02*
X31201Y-27912D01*
X31299Y-27946D02*
X31265Y-27912D01*
X31299Y-28641D02*
X31299Y-27946D01*
X31201Y-27657D02*
X31201Y-27912D01*
X31004Y-29753D02*
X31004Y-29880D01*
X31004Y-29753D02*
X31004Y-29625D01*
X31299Y-28641D02*
X31299Y-29337D01*
X31004Y-29625D02*
X31004Y-29370D01*
X31265Y-29370D02*
X31299Y-29337D01*
X31004Y-29370D02*
X31265Y-29370D01*
X31397Y-29625D02*
X31397Y-29370D01*
X31397Y-23326D02*
X31397Y-23071D01*
X31299Y-21994D02*
X31299Y-22342D01*
X31332Y-29370D02*
X31397Y-29370D01*
X31299Y-29337D02*
X31332Y-29370D01*
X24179Y-27912D02*
X24212Y-27946D01*
X24114Y-27912D02*
X24179Y-27912D01*
X24212Y-28641D02*
X24212Y-27946D01*
X24114Y-27657D02*
X24114Y-27912D01*
X24310Y-29498D02*
X24310Y-29370D01*
X30984Y-31299D02*
X30984Y-31660D01*
X30926Y-30371D02*
X30959Y-30371D01*
X30274Y-31022D02*
X30926Y-30371D01*
X30274Y-31590D02*
X30274Y-31022D01*
X30344Y-31660D02*
X30274Y-31590D01*
X30984Y-31660D02*
X30344Y-31660D01*
X30959Y-29925D02*
X31004Y-29880D01*
X30959Y-30371D02*
X30959Y-29925D01*
X29389Y-24827D02*
X29719Y-24827D01*
X31004Y-23419D02*
X31004Y-23581D01*
X31004Y-23419D02*
X31004Y-23326D01*
X31331Y-22374D02*
X31299Y-22342D01*
X31331Y-23005D02*
X31331Y-22374D01*
X31265Y-23071D02*
X31331Y-23005D01*
X31004Y-23071D02*
X31265Y-23071D01*
X31331Y-23005D02*
X31397Y-23071D01*
X31004Y-23326D02*
X31004Y-23071D01*
X30905Y-25118D02*
X30905Y-25479D01*
X30290Y-25479D02*
X30905Y-25479D01*
X29988Y-25176D02*
X30290Y-25479D01*
X29988Y-24827D02*
X29988Y-25176D01*
X29988Y-24827D02*
X29719Y-24827D01*
X31004Y-23770D02*
X30958Y-23815D01*
X31004Y-23581D02*
X31004Y-23770D01*
X31004Y-23581D02*
X31004Y-23581D01*
X30495Y-24320D02*
X29988Y-24827D01*
X30495Y-24160D02*
X30495Y-24320D01*
X30840Y-23815D02*
X30495Y-24160D01*
X30958Y-23815D02*
X30840Y-23815D01*
X31422Y-32751D02*
X31422Y-34094D01*
X32374Y-31799D02*
X31422Y-32751D01*
X23740Y-25575D02*
X24035Y-25575D01*
X24106Y-25575D02*
X24201Y-25670D01*
X24035Y-25575D02*
X24106Y-25575D01*
X23917Y-23907D02*
X23917Y-23326D01*
X24066Y-24056D02*
X23917Y-23907D01*
X24212Y-22342D02*
X24212Y-23038D01*
X23917Y-23326D02*
X23917Y-23071D01*
X24179Y-23071D02*
X24206Y-23044D01*
X23917Y-23071D02*
X24179Y-23071D01*
X24206Y-23044D02*
X24212Y-23038D01*
X24232Y-23071D02*
X24310Y-23071D01*
X24206Y-23044D02*
X24232Y-23071D01*
X24310Y-23326D02*
X24310Y-23071D01*
X24114Y-27657D02*
X24114Y-27402D01*
X24310Y-29498D02*
X24310Y-29625D01*
X23740Y-31599D02*
X23740Y-31369D01*
X24087Y-31581D02*
X24070Y-31599D01*
X25275Y-31581D02*
X24087Y-31581D01*
X25275Y-31220D02*
X25275Y-31581D01*
X23740Y-31599D02*
X24070Y-31599D01*
X24112Y-27400D02*
X24114Y-27402D01*
X24112Y-27062D02*
X24112Y-27400D01*
X24015Y-29272D02*
X23917Y-29370D01*
X24212Y-29272D02*
X24015Y-29272D01*
X24212Y-28641D02*
X24212Y-29272D01*
X24212Y-29272D02*
X24310Y-29370D01*
X23917Y-29625D02*
X23917Y-29370D01*
X23947Y-29910D02*
X23917Y-29880D01*
X23947Y-30275D02*
X23947Y-29910D01*
X23410Y-30812D02*
X23947Y-30275D01*
X23410Y-31167D02*
X23410Y-30812D01*
X23611Y-31369D02*
X23410Y-31167D01*
X23740Y-31369D02*
X23611Y-31369D01*
X25039Y-24763D02*
X25039Y-25645D01*
X25014Y-25670D02*
X24201Y-25670D01*
X25039Y-25645D02*
X25014Y-25670D01*
X23917Y-29625D02*
X23917Y-29880D01*
X25607Y-25645D02*
X25039Y-25645D01*
X25756Y-25795D02*
X25607Y-25645D01*
X25756Y-25874D02*
X25756Y-25795D01*
X26418Y-26536D02*
X25756Y-25874D01*
X26737Y-26536D02*
X26418Y-26536D01*
X27028Y-26245D02*
X26737Y-26536D01*
X27028Y-26206D02*
X27028Y-26245D01*
X27522Y-25712D02*
X27028Y-26206D01*
X27583Y-25712D02*
X27522Y-25712D01*
X25890Y-33169D02*
X25890Y-32839D01*
X27023Y-29483D02*
X26574Y-29035D01*
X27023Y-31167D02*
X27023Y-29483D01*
X26694Y-31496D02*
X27023Y-31167D01*
X26454Y-31496D02*
X26694Y-31496D01*
X25890Y-32059D02*
X26454Y-31496D01*
X25890Y-32839D02*
X25890Y-32059D01*
X25890Y-34055D02*
X25890Y-33725D01*
X27281Y-32887D02*
X27281Y-30740D01*
X26669Y-33499D02*
X27281Y-32887D01*
X26116Y-33499D02*
X26669Y-33499D01*
X25890Y-33725D02*
X26116Y-33499D01*
X26020Y-34610D02*
X25890Y-34610D01*
X26132Y-34498D02*
X26020Y-34610D01*
X25890Y-34940D02*
X25890Y-34610D01*
X21517Y-33820D02*
X21517Y-33858D01*
X20669Y-32972D02*
X21517Y-33820D01*
X21747Y-33858D02*
X21517Y-33858D01*
X22574Y-34375D02*
X23091Y-33858D01*
X21088Y-34375D02*
X22574Y-34375D01*
X20669Y-33956D02*
X21088Y-34375D01*
X23322Y-33858D02*
X23091Y-33858D01*
X21517Y-32836D02*
X21517Y-32874D01*
X20669Y-31988D02*
X21517Y-32836D01*
X21747Y-32874D02*
X21517Y-32874D01*
X22993Y-34940D02*
X23091Y-34842D01*
X20669Y-34940D02*
X22993Y-34940D01*
X23322Y-34842D02*
X23091Y-34842D01*
X28148Y-24114D02*
X28089Y-24173D01*
X28543Y-24114D02*
X28148Y-24114D01*
X27859Y-24173D02*
X28089Y-24173D01*
X27259Y-28735D02*
X27259Y-28740D01*
X26574Y-28051D02*
X27259Y-28735D01*
X28089Y-27521D02*
X28089Y-27559D01*
X28543Y-27066D02*
X28089Y-27521D01*
X27859Y-27559D02*
X28089Y-27559D01*
X28286Y-25098D02*
X28089Y-25295D01*
X28543Y-25098D02*
X28286Y-25098D01*
X27859Y-25295D02*
X28089Y-25295D01*
X28482Y-26082D02*
X28089Y-26476D01*
X28543Y-26082D02*
X28482Y-26082D01*
X27859Y-26476D02*
X28089Y-26476D01*
X30397Y-20034D02*
X30352Y-20078D01*
X31528Y-20034D02*
X30397Y-20034D01*
X30122Y-20078D02*
X30352Y-20078D01*
X33991Y-20704D02*
X33991Y-20575D01*
X34448Y-21161D02*
X33991Y-20704D01*
X33661Y-20575D02*
X33991Y-20575D01*
X34177Y-22416D02*
X33661Y-22416D01*
X34448Y-22145D02*
X34177Y-22416D01*
X34018Y-26235D02*
X33719Y-26535D01*
X34018Y-23560D02*
X34018Y-26235D01*
X34448Y-23129D02*
X34018Y-23560D01*
X33488Y-26535D02*
X33719Y-26535D01*
X33410Y-33228D02*
X33640Y-33228D01*
X33921Y-32946D02*
X33640Y-33228D01*
X33921Y-31530D02*
X33921Y-32946D01*
X34448Y-31003D02*
X33921Y-31530D01*
X33166Y-34061D02*
X33199Y-34094D01*
X33166Y-32739D02*
X33166Y-34061D01*
X33781Y-32124D02*
X33166Y-32739D01*
X33781Y-30686D02*
X33781Y-32124D01*
X34448Y-30019D02*
X33781Y-30686D01*
X33429Y-34094D02*
X33199Y-34094D01*
X33449Y-34960D02*
X33679Y-34960D01*
X35038Y-29625D02*
X34448Y-29035D01*
X35038Y-33981D02*
X35038Y-29625D01*
X34571Y-34448D02*
X35038Y-33981D01*
X34191Y-34448D02*
X34571Y-34448D01*
X33679Y-34960D02*
X34191Y-34448D01*
X34183Y-28051D02*
X33991Y-27859D01*
X34448Y-28051D02*
X34183Y-28051D01*
X33661Y-27859D02*
X33991Y-27859D01*
X24247Y-20118D02*
X24017Y-20118D01*
X23922Y-20213D02*
X22506Y-20213D01*
X24017Y-20118D02*
X23922Y-20213D01*
X26930Y-20177D02*
X27028Y-20078D01*
X26574Y-20177D02*
X26930Y-20177D01*
X27259Y-20078D02*
X27028Y-20078D01*
X27009Y-21161D02*
X27028Y-21141D01*
X26574Y-21161D02*
X27009Y-21161D01*
X27259Y-21141D02*
X27028Y-21141D01*
X27009Y-22145D02*
X27028Y-22165D01*
X26574Y-22145D02*
X27009Y-22145D01*
X27259Y-22165D02*
X27028Y-22165D01*
X27009Y-23129D02*
X27028Y-23149D01*
X26574Y-23129D02*
X27009Y-23129D01*
X27259Y-23149D02*
X27028Y-23149D01*
X28543Y-32972D02*
X29227Y-32972D01*
X28543Y-33956D02*
X29325Y-33956D01*
X29378Y-31988D02*
X29389Y-31999D01*
X28543Y-31988D02*
X29378Y-31988D01*
X29389Y-32229D02*
X29389Y-31999D01*
X28543Y-34940D02*
X29325Y-34940D01*
X21550Y-20118D02*
X21550Y-20448D01*
X21500Y-20573D02*
X21500Y-20573D01*
X21500Y-20497D02*
X21500Y-20573D01*
X21550Y-20448D02*
X21500Y-20497D01*
X21198Y-24569D02*
X20669Y-25098D01*
X21198Y-24047D02*
X21198Y-24569D01*
X21412Y-23834D02*
X21198Y-24047D01*
X21412Y-23503D02*
X21412Y-23834D01*
X20828Y-26082D02*
X21221Y-26476D01*
X20669Y-26082D02*
X20828Y-26082D01*
X21451Y-26476D02*
X21221Y-26476D01*
M02*
