M48
;DRILL file {Pcbnew (2013-jul-07)-stable} date Thu 09 Apr 2015 12:35:01 PM PDT
;FORMAT={-:-/ absolute / inch / decimal}
FMAT,2
INCH,TZ
T1C0.020
T2C0.040
%
G90
G05
M72
T1
X2.1501Y-2.0573
X2.1895Y-2.2578
X2.2125Y-2.0596
X2.2135Y-2.7403
X2.2284Y-2.2519
X2.2319Y-2.8819
X2.2372Y-2.2091
X2.2506Y-2.0213
X2.2702Y-2.8422
X2.2801Y-2.2239
X2.3246Y-2.3312
X2.3634Y-2.37
X2.3683Y-3.0174
X2.3921Y-2.6074
X2.4067Y-2.4056
X2.4112Y-2.7063
X2.4166Y-2.092
X2.4202Y-2.5671
X2.4701Y-2.0908
X2.503Y-3.2766
X2.508Y-2.0997
X2.5103Y-2.7139
X2.5176Y-2.767
X2.5271Y-2.1376
X2.5501Y-2.5901
X2.5623Y-2.8394
X2.5676Y-2.2283
X2.5707Y-2.1897
X2.5745Y-2.3282
X2.5746Y-2.9242
X2.6117Y-2.7448
X2.6133Y-3.4499
X2.6136Y-2.9377
X2.7281Y-3.0741
X2.7361Y-2.4634
X2.7584Y-2.5713
X2.7678Y-2.2699
X2.7814Y-2.0693
X2.7825Y-2.9186
X2.9089Y-2.2574
X2.9102Y-2.7498
X2.9392Y-2.9153
X2.9481Y-2.6408
X2.949Y-2.601
X2.9541Y-2.0535
X2.9625Y-2.2304
X2.975Y-2.8977
X2.9836Y-2.1359
X2.986Y-2.437
X2.989Y-2.3543
X2.9893Y-2.2048
X2.9913Y-2.0535
X2.9924Y-2.8374
X3.0199Y-2.715
X3.04Y-2.3635
X3.067Y-2.9996
X3.0704Y-2.6224
X3.0751Y-2.4266
X3.0874Y-3.3645
X3.0959Y-2.3816
X3.096Y-3.0371
X3.1388Y-2.6631
X3.1529Y-2.0034
X3.1562Y-2.0955
X3.2141Y-2.095
X3.2495Y-2.1266
X3.2655Y-2.3072
X3.2657Y-2.8077
X3.2912Y-2.8347
X3.2933Y-2.2411
X3.3277Y-2.1738
X3.3584Y-2.3395
X3.3732Y-2.1818
T2
X2.0669Y-2.0177
X2.0669Y-2.1161
X2.0669Y-2.2146
X2.0669Y-2.313
X2.0669Y-2.4114
X2.0669Y-2.5098
X2.0669Y-2.6083
X2.0669Y-2.7067
X2.0669Y-2.8051
X2.0669Y-2.9035
X2.0669Y-3.002
X2.0669Y-3.1004
X2.0669Y-3.1988
X2.0669Y-3.2972
X2.0669Y-3.3957
X2.0669Y-3.4941
X2.1744Y-2.45
X2.1744Y-2.55
X2.1744Y-3.0799
X2.1744Y-3.1799
X2.2744Y-2.45
X2.2744Y-2.55
X2.2744Y-3.0799
X2.2744Y-3.1799
X2.6575Y-2.0177
X2.6575Y-2.1161
X2.6575Y-2.2146
X2.6575Y-2.313
X2.6575Y-2.4114
X2.6575Y-2.5098
X2.6575Y-2.6083
X2.6575Y-2.7067
X2.6575Y-2.8051
X2.6575Y-2.9035
X2.6575Y-3.002
X2.6575Y-3.1004
X2.6575Y-3.1988
X2.6575Y-3.2972
X2.6575Y-3.3957
X2.6575Y-3.4941
X2.8543Y-2.0177
X2.8543Y-2.1161
X2.8543Y-2.2146
X2.8543Y-2.313
X2.8543Y-2.4114
X2.8543Y-2.5098
X2.8543Y-2.6083
X2.8543Y-2.7067
X2.8543Y-2.8051
X2.8543Y-2.9035
X2.8543Y-3.002
X2.8543Y-3.1004
X2.8543Y-3.1988
X2.8543Y-3.2972
X2.8543Y-3.3957
X2.8543Y-3.4941
X3.2374Y-2.45
X3.2374Y-2.55
X3.2374Y-3.0799
X3.2374Y-3.1799
X3.3374Y-2.45
X3.3374Y-2.55
X3.3374Y-3.0799
X3.3374Y-3.1799
X3.4449Y-2.0177
X3.4449Y-2.1161
X3.4449Y-2.2146
X3.4449Y-2.313
X3.4449Y-2.4114
X3.4449Y-2.5098
X3.4449Y-2.6083
X3.4449Y-2.7067
X3.4449Y-2.8051
X3.4449Y-2.9035
X3.4449Y-3.002
X3.4449Y-3.1004
X3.4449Y-3.1988
X3.4449Y-3.2972
X3.4449Y-3.3957
X3.4449Y-3.4941
T0
M30
