M48
;DRILL file {Pcbnew (2013-mar-13)-testing} date Mon 26 Aug 2013 07:19:39 AM PDT
;FORMAT={2:4/ absolute / inch / suppress trailing zeros}
FMAT,2
INCH,LZ
T1C0.020
T2C0.040
%
G90
G05
M72
T1
X021454Y-030596
X021503Y-024572
X021964Y-030925
X022081Y-031398
X022119Y-02074
X022349Y-02938
X022454Y-025168
X022499Y-033449
X022662Y-022517
X022663Y-030537
X022718Y-024904
X022848Y-032873
X023015Y-025527
X02313Y-030079
X023244Y-029709
X023384Y-034079
X023469Y-022164
X023508Y-0336
X0237Y-021537
X02372Y-032941
X023745Y-021912
X02375Y-029467
X023785Y-029057
X023873Y-025673
X024125Y-025129
X024204Y-02017
X024438Y-021795
X024448Y-021269
X024479Y-029327
X024576Y-022196
X024603Y-022661
X024822Y-021534
X024929Y-025384
X025184Y-024606
X025184Y-025839
X02581Y-023567
X025909Y-02066
X027975Y-026695
X028121Y-031555
X029423Y-021947
X02946Y-02436
X029566Y-03054
X029907Y-029685
X029972Y-031599
X030171Y-029317
X03045Y-033323
X030525Y-022638
X030536Y-030528
X030631Y-02985
X030877Y-032862
X03092Y-025145
X030969Y-030114
X031191Y-033668
X031346Y-022159
X031448Y-020707
X031595Y-032953
X031617Y-025072
X031631Y-03003
X03164Y-021453
X031857Y-022254
X03213Y-026049
X032135Y-025229
X03229Y-021471
X032456Y-022656
X032527Y-030512
X032638Y-025914
X032701Y-021782
X03274Y-027768
X032851Y-022885
X032873Y-022153
X032935Y-023314
X033134Y-022414
X033206Y-023575
T2
X020669Y-020122
X020669Y-021122
X020669Y-022122
X020669Y-023122
X020669Y-024122
X020669Y-025122
X020669Y-026122
X020669Y-027122
X020669Y-027996
X020669Y-028996
X020669Y-029996
X020669Y-030996
X020669Y-031996
X020669Y-032996
X020669Y-033996
X020669Y-034996
X021835Y-027059
X021835Y-028059
X022835Y-027059
X022835Y-028059
X023835Y-027059
X023835Y-028059
X026575Y-020122
X026575Y-021122
X026575Y-022122
X026575Y-023122
X026575Y-024122
X026575Y-025122
X026575Y-026122
X026575Y-027122
X026575Y-027996
X026575Y-028996
X026575Y-029996
X026575Y-030996
X026575Y-031996
X026575Y-032996
X026575Y-033996
X026575Y-034996
X028543Y-020122
X028543Y-021122
X028543Y-022122
X028543Y-023122
X028543Y-024122
X028543Y-025122
X028543Y-026122
X028543Y-027122
X028543Y-027996
X028543Y-028996
X028543Y-029996
X028543Y-030996
X028543Y-031996
X028543Y-032996
X028543Y-033996
X028543Y-034996
X031283Y-027059
X031283Y-028059
X032283Y-027059
X032283Y-028059
X033283Y-027059
X033283Y-028059
X034449Y-020122
X034449Y-021122
X034449Y-022122
X034449Y-023122
X034449Y-024122
X034449Y-025122
X034449Y-026122
X034449Y-027122
X034449Y-027996
X034449Y-028996
X034449Y-029996
X034449Y-030996
X034449Y-031996
X034449Y-032996
X034449Y-033996
X034449Y-034996
T0
M30
