G04 (created by PCBNEW (2013-mar-13)-testing) date Mon 26 Aug 2013 07:19:36 AM PDT*
%MOIN*%
G04 Gerber Fmt 3.4, Leading zero omitted, Abs format*
%FSLAX34Y34*%
G01*
G70*
G90*
G04 APERTURE LIST*
%ADD10C,0.005906*%
%ADD11C,0.008000*%
%ADD12C,0.012000*%
G04 APERTURE END LIST*
G54D10*
G54D11*
X33763Y-35041D02*
X33706Y-35060D01*
X33687Y-35079D01*
X33668Y-35117D01*
X33668Y-35174D01*
X33687Y-35212D01*
X33706Y-35231D01*
X33744Y-35250D01*
X33896Y-35250D01*
X33896Y-34850D01*
X33763Y-34850D01*
X33725Y-34870D01*
X33706Y-34889D01*
X33687Y-34927D01*
X33687Y-34965D01*
X33706Y-35003D01*
X33725Y-35022D01*
X33763Y-35041D01*
X33896Y-35041D01*
X33420Y-34850D02*
X33344Y-34850D01*
X33306Y-34870D01*
X33268Y-34908D01*
X33249Y-34984D01*
X33249Y-35117D01*
X33268Y-35193D01*
X33306Y-35231D01*
X33344Y-35250D01*
X33420Y-35250D01*
X33458Y-35231D01*
X33496Y-35193D01*
X33515Y-35117D01*
X33515Y-34984D01*
X33496Y-34908D01*
X33458Y-34870D01*
X33420Y-34850D01*
X33134Y-34850D02*
X32906Y-34850D01*
X33020Y-35250D02*
X33020Y-34850D01*
X33958Y-19910D02*
X33730Y-19910D01*
X33844Y-20310D02*
X33844Y-19910D01*
X33520Y-19910D02*
X33444Y-19910D01*
X33406Y-19930D01*
X33368Y-19968D01*
X33349Y-20044D01*
X33349Y-20177D01*
X33368Y-20253D01*
X33406Y-20291D01*
X33444Y-20310D01*
X33520Y-20310D01*
X33558Y-20291D01*
X33596Y-20253D01*
X33615Y-20177D01*
X33615Y-20044D01*
X33596Y-19968D01*
X33558Y-19930D01*
X33520Y-19910D01*
X33177Y-20310D02*
X33177Y-19910D01*
X33025Y-19910D01*
X32987Y-19930D01*
X32968Y-19949D01*
X32949Y-19987D01*
X32949Y-20044D01*
X32968Y-20082D01*
X32987Y-20101D01*
X33025Y-20120D01*
X33177Y-20120D01*
X24914Y-22854D02*
X25180Y-22854D01*
X24761Y-22759D02*
X25047Y-22663D01*
X25047Y-22911D01*
X25028Y-23063D02*
X25028Y-23368D01*
X25180Y-23559D02*
X24780Y-23559D01*
X25066Y-23692D01*
X24780Y-23825D01*
X25180Y-23825D01*
X25180Y-24187D02*
X24971Y-24187D01*
X24933Y-24168D01*
X24914Y-24130D01*
X24914Y-24054D01*
X24933Y-24016D01*
X25161Y-24187D02*
X25180Y-24149D01*
X25180Y-24054D01*
X25161Y-24016D01*
X25123Y-23997D01*
X25085Y-23997D01*
X25047Y-24016D01*
X25028Y-24054D01*
X25028Y-24149D01*
X25009Y-24187D01*
X24914Y-24320D02*
X24914Y-24473D01*
X24780Y-24378D02*
X25123Y-24378D01*
X25161Y-24397D01*
X25180Y-24435D01*
X25180Y-24473D01*
X25180Y-24606D02*
X24914Y-24606D01*
X24990Y-24606D02*
X24952Y-24625D01*
X24933Y-24644D01*
X24914Y-24682D01*
X24914Y-24720D01*
X25180Y-24854D02*
X24914Y-24854D01*
X24780Y-24854D02*
X24800Y-24835D01*
X24819Y-24854D01*
X24800Y-24873D01*
X24780Y-24854D01*
X24819Y-24854D01*
X25180Y-25006D02*
X24914Y-25216D01*
X24914Y-25006D02*
X25180Y-25216D01*
X25066Y-25654D02*
X25066Y-25844D01*
X25180Y-25616D02*
X24780Y-25749D01*
X25180Y-25882D01*
X24914Y-25959D02*
X24914Y-26111D01*
X24780Y-26016D02*
X25123Y-26016D01*
X25161Y-26035D01*
X25180Y-26073D01*
X25180Y-26111D01*
X25180Y-26244D02*
X24914Y-26244D01*
X24952Y-26244D02*
X24933Y-26263D01*
X24914Y-26301D01*
X24914Y-26359D01*
X24933Y-26397D01*
X24971Y-26416D01*
X25180Y-26416D01*
X24971Y-26416D02*
X24933Y-26435D01*
X24914Y-26473D01*
X24914Y-26530D01*
X24933Y-26568D01*
X24971Y-26587D01*
X25180Y-26587D01*
X25161Y-26930D02*
X25180Y-26892D01*
X25180Y-26816D01*
X25161Y-26778D01*
X25123Y-26759D01*
X24971Y-26759D01*
X24933Y-26778D01*
X24914Y-26816D01*
X24914Y-26892D01*
X24933Y-26930D01*
X24971Y-26949D01*
X25009Y-26949D01*
X25047Y-26759D01*
X24914Y-27292D02*
X25238Y-27292D01*
X25276Y-27273D01*
X25295Y-27254D01*
X25314Y-27216D01*
X25314Y-27159D01*
X25295Y-27120D01*
X25161Y-27292D02*
X25180Y-27254D01*
X25180Y-27178D01*
X25161Y-27140D01*
X25142Y-27120D01*
X25104Y-27101D01*
X24990Y-27101D01*
X24952Y-27120D01*
X24933Y-27140D01*
X24914Y-27178D01*
X24914Y-27254D01*
X24933Y-27292D01*
X25180Y-27654D02*
X24971Y-27654D01*
X24933Y-27635D01*
X24914Y-27597D01*
X24914Y-27520D01*
X24933Y-27482D01*
X25161Y-27654D02*
X25180Y-27616D01*
X25180Y-27520D01*
X25161Y-27482D01*
X25123Y-27463D01*
X25085Y-27463D01*
X25047Y-27482D01*
X25028Y-27520D01*
X25028Y-27616D01*
X25009Y-27654D01*
X24780Y-27806D02*
X24780Y-28054D01*
X24933Y-27920D01*
X24933Y-27978D01*
X24952Y-28016D01*
X24971Y-28035D01*
X25009Y-28054D01*
X25104Y-28054D01*
X25142Y-28035D01*
X25161Y-28016D01*
X25180Y-27978D01*
X25180Y-27863D01*
X25161Y-27825D01*
X25142Y-27806D01*
X24819Y-28206D02*
X24800Y-28225D01*
X24780Y-28263D01*
X24780Y-28359D01*
X24800Y-28397D01*
X24819Y-28416D01*
X24857Y-28435D01*
X24895Y-28435D01*
X24952Y-28416D01*
X25180Y-28187D01*
X25180Y-28435D01*
X24952Y-28663D02*
X24933Y-28625D01*
X24914Y-28606D01*
X24876Y-28587D01*
X24857Y-28587D01*
X24819Y-28606D01*
X24800Y-28625D01*
X24780Y-28663D01*
X24780Y-28740D01*
X24800Y-28778D01*
X24819Y-28797D01*
X24857Y-28816D01*
X24876Y-28816D01*
X24914Y-28797D01*
X24933Y-28778D01*
X24952Y-28740D01*
X24952Y-28663D01*
X24971Y-28625D01*
X24990Y-28606D01*
X25028Y-28587D01*
X25104Y-28587D01*
X25142Y-28606D01*
X25161Y-28625D01*
X25180Y-28663D01*
X25180Y-28740D01*
X25161Y-28778D01*
X25142Y-28797D01*
X25104Y-28816D01*
X25028Y-28816D01*
X24990Y-28797D01*
X24971Y-28778D01*
X24952Y-28740D01*
X25180Y-29292D02*
X24780Y-29292D01*
X24780Y-29387D01*
X24800Y-29444D01*
X24838Y-29482D01*
X24876Y-29501D01*
X24952Y-29520D01*
X25009Y-29520D01*
X25085Y-29501D01*
X25123Y-29482D01*
X25161Y-29444D01*
X25180Y-29387D01*
X25180Y-29292D01*
X25180Y-29692D02*
X24914Y-29692D01*
X24990Y-29692D02*
X24952Y-29711D01*
X24933Y-29730D01*
X24914Y-29768D01*
X24914Y-29806D01*
X25180Y-29940D02*
X24914Y-29940D01*
X24780Y-29940D02*
X24800Y-29920D01*
X24819Y-29940D01*
X24800Y-29959D01*
X24780Y-29940D01*
X24819Y-29940D01*
X24914Y-30092D02*
X25180Y-30187D01*
X24914Y-30282D01*
X25161Y-30587D02*
X25180Y-30549D01*
X25180Y-30473D01*
X25161Y-30435D01*
X25123Y-30416D01*
X24971Y-30416D01*
X24933Y-30435D01*
X24914Y-30473D01*
X24914Y-30549D01*
X24933Y-30587D01*
X24971Y-30606D01*
X25009Y-30606D01*
X25047Y-30416D01*
X25180Y-30778D02*
X24914Y-30778D01*
X24990Y-30778D02*
X24952Y-30797D01*
X24933Y-30816D01*
X24914Y-30854D01*
X24914Y-30892D01*
X24780Y-31273D02*
X25180Y-31406D01*
X24780Y-31540D01*
X25180Y-31882D02*
X25180Y-31654D01*
X25180Y-31768D02*
X24780Y-31768D01*
X24838Y-31730D01*
X24876Y-31692D01*
X24895Y-31654D01*
X25142Y-32054D02*
X25161Y-32073D01*
X25180Y-32054D01*
X25161Y-32035D01*
X25142Y-32054D01*
X25180Y-32054D01*
X24780Y-32320D02*
X24780Y-32359D01*
X24800Y-32397D01*
X24819Y-32416D01*
X24857Y-32435D01*
X24933Y-32454D01*
X25028Y-32454D01*
X25104Y-32435D01*
X25142Y-32416D01*
X25161Y-32397D01*
X25180Y-32359D01*
X25180Y-32320D01*
X25161Y-32282D01*
X25142Y-32263D01*
X25104Y-32244D01*
X25028Y-32225D01*
X24933Y-32225D01*
X24857Y-32244D01*
X24819Y-32263D01*
X24800Y-32282D01*
X24780Y-32320D01*
X25554Y-25063D02*
X25820Y-25140D01*
X25630Y-25216D01*
X25820Y-25292D01*
X25554Y-25368D01*
X25554Y-25482D02*
X25820Y-25559D01*
X25630Y-25635D01*
X25820Y-25711D01*
X25554Y-25787D01*
X25554Y-25901D02*
X25820Y-25978D01*
X25630Y-26054D01*
X25820Y-26130D01*
X25554Y-26206D01*
X25782Y-26359D02*
X25801Y-26378D01*
X25820Y-26359D01*
X25801Y-26340D01*
X25782Y-26359D01*
X25820Y-26359D01*
X25820Y-26549D02*
X25554Y-26549D01*
X25420Y-26549D02*
X25440Y-26530D01*
X25459Y-26549D01*
X25440Y-26568D01*
X25420Y-26549D01*
X25459Y-26549D01*
X25820Y-26797D02*
X25801Y-26759D01*
X25782Y-26740D01*
X25744Y-26720D01*
X25630Y-26720D01*
X25592Y-26740D01*
X25573Y-26759D01*
X25554Y-26797D01*
X25554Y-26854D01*
X25573Y-26892D01*
X25592Y-26911D01*
X25630Y-26930D01*
X25744Y-26930D01*
X25782Y-26911D01*
X25801Y-26892D01*
X25820Y-26854D01*
X25820Y-26797D01*
X25820Y-27101D02*
X25554Y-27101D01*
X25630Y-27101D02*
X25592Y-27120D01*
X25573Y-27140D01*
X25554Y-27178D01*
X25554Y-27216D01*
X25820Y-27406D02*
X25801Y-27368D01*
X25782Y-27349D01*
X25744Y-27330D01*
X25630Y-27330D01*
X25592Y-27349D01*
X25573Y-27368D01*
X25554Y-27406D01*
X25554Y-27463D01*
X25573Y-27501D01*
X25592Y-27520D01*
X25630Y-27540D01*
X25744Y-27540D01*
X25782Y-27520D01*
X25801Y-27501D01*
X25820Y-27463D01*
X25820Y-27406D01*
X25820Y-27882D02*
X25420Y-27882D01*
X25801Y-27882D02*
X25820Y-27844D01*
X25820Y-27768D01*
X25801Y-27730D01*
X25782Y-27711D01*
X25744Y-27692D01*
X25630Y-27692D01*
X25592Y-27711D01*
X25573Y-27730D01*
X25554Y-27768D01*
X25554Y-27844D01*
X25573Y-27882D01*
X25801Y-28225D02*
X25820Y-28187D01*
X25820Y-28111D01*
X25801Y-28073D01*
X25763Y-28054D01*
X25611Y-28054D01*
X25573Y-28073D01*
X25554Y-28111D01*
X25554Y-28187D01*
X25573Y-28225D01*
X25611Y-28244D01*
X25649Y-28244D01*
X25687Y-28054D01*
X25820Y-28473D02*
X25801Y-28435D01*
X25782Y-28416D01*
X25744Y-28397D01*
X25630Y-28397D01*
X25592Y-28416D01*
X25573Y-28435D01*
X25554Y-28473D01*
X25554Y-28530D01*
X25573Y-28568D01*
X25592Y-28587D01*
X25630Y-28606D01*
X25744Y-28606D01*
X25782Y-28587D01*
X25801Y-28568D01*
X25820Y-28530D01*
X25820Y-28473D01*
X25782Y-28778D02*
X25801Y-28797D01*
X25820Y-28778D01*
X25801Y-28759D01*
X25782Y-28778D01*
X25820Y-28778D01*
X25801Y-29140D02*
X25820Y-29101D01*
X25820Y-29025D01*
X25801Y-28987D01*
X25782Y-28968D01*
X25744Y-28949D01*
X25630Y-28949D01*
X25592Y-28968D01*
X25573Y-28987D01*
X25554Y-29025D01*
X25554Y-29101D01*
X25573Y-29140D01*
X25820Y-29368D02*
X25801Y-29330D01*
X25782Y-29311D01*
X25744Y-29292D01*
X25630Y-29292D01*
X25592Y-29311D01*
X25573Y-29330D01*
X25554Y-29368D01*
X25554Y-29425D01*
X25573Y-29463D01*
X25592Y-29482D01*
X25630Y-29501D01*
X25744Y-29501D01*
X25782Y-29482D01*
X25801Y-29463D01*
X25820Y-29425D01*
X25820Y-29368D01*
X25820Y-29673D02*
X25554Y-29673D01*
X25592Y-29673D02*
X25573Y-29692D01*
X25554Y-29730D01*
X25554Y-29787D01*
X25573Y-29825D01*
X25611Y-29844D01*
X25820Y-29844D01*
X25611Y-29844D02*
X25573Y-29863D01*
X25554Y-29901D01*
X25554Y-29959D01*
X25573Y-29997D01*
X25611Y-30016D01*
X25820Y-30016D01*
G54D12*
X24034Y-28559D02*
X24284Y-28559D01*
X24284Y-28559D02*
X24334Y-28559D01*
X24334Y-28559D02*
X24334Y-26559D01*
X24334Y-26559D02*
X23334Y-26559D01*
X23334Y-28559D02*
X24034Y-28559D01*
X21334Y-28559D02*
X23334Y-28559D01*
X23334Y-26559D02*
X21334Y-26559D01*
X21334Y-26559D02*
X21334Y-28559D01*
X33483Y-28559D02*
X33733Y-28559D01*
X33733Y-28559D02*
X33783Y-28559D01*
X33783Y-28559D02*
X33783Y-26559D01*
X33783Y-26559D02*
X32783Y-26559D01*
X32783Y-28559D02*
X33483Y-28559D01*
X30783Y-28559D02*
X32783Y-28559D01*
X32783Y-26559D02*
X30783Y-26559D01*
X30783Y-26559D02*
X30783Y-28559D01*
G54D11*
X22979Y-29090D02*
X22979Y-28690D01*
X22827Y-28690D01*
X22789Y-28709D01*
X22770Y-28728D01*
X22751Y-28766D01*
X22751Y-28823D01*
X22770Y-28861D01*
X22789Y-28880D01*
X22827Y-28899D01*
X22979Y-28899D01*
X22370Y-29090D02*
X22598Y-29090D01*
X22484Y-29090D02*
X22484Y-28690D01*
X22522Y-28747D01*
X22560Y-28785D01*
X22598Y-28804D01*
X32428Y-29090D02*
X32428Y-28690D01*
X32276Y-28690D01*
X32238Y-28709D01*
X32219Y-28728D01*
X32200Y-28766D01*
X32200Y-28823D01*
X32219Y-28861D01*
X32238Y-28880D01*
X32276Y-28899D01*
X32428Y-28899D01*
X32047Y-28728D02*
X32028Y-28709D01*
X31990Y-28690D01*
X31895Y-28690D01*
X31857Y-28709D01*
X31838Y-28728D01*
X31819Y-28766D01*
X31819Y-28804D01*
X31838Y-28861D01*
X32066Y-29090D01*
X31819Y-29090D01*
M02*
